<svg width="20" height="14" viewBox="0 0 20 14" fill="none" xmlns="http://www.w3.org/2000/svg">
<path d="M14.1666 4.66683L18.5107 1.62516C18.5732 1.58138 18.6465 1.55558 18.7226 1.55058C18.7987 1.54558 18.8748 1.56158 18.9424 1.59682C19.0101 1.63207 19.0668 1.68521 19.1063 1.75046C19.1458 1.8157 19.1667 1.89055 19.1666 1.96683V12.0335C19.1667 12.1098 19.1458 12.1846 19.1063 12.2499C19.0668 12.3151 19.0101 12.3683 18.9424 12.4035C18.8748 12.4387 18.7987 12.4547 18.7226 12.4497C18.6465 12.4447 18.5732 12.4189 18.5107 12.3752L14.1666 9.3335V12.8335C14.1666 13.0545 14.0788 13.2665 13.9225 13.4228C13.7662 13.579 13.5543 13.6668 13.3333 13.6668H1.66659C1.44557 13.6668 1.23361 13.579 1.07733 13.4228C0.921049 13.2665 0.833252 13.0545 0.833252 12.8335V1.16683C0.833252 0.945816 0.921049 0.733854 1.07733 0.577574C1.23361 0.421294 1.44557 0.333496 1.66659 0.333496H13.3333C13.5543 0.333496 13.7662 0.421294 13.9225 0.577574C14.0788 0.733854 14.1666 0.945816 14.1666 1.16683V4.66683ZM4.16658 3.66683V5.3335H5.83325V3.66683H4.16658Z" fill="#B75FDC"/>
</svg>
