<svg width="20" height="20" viewBox="0 0 20 20" fill="none" xmlns="http://www.w3.org/2000/svg">
<g clip-path="url(#clip0_1610_49085)">
<path d="M17.5 12.5V15H20V16.6667H17.5V19.1667H15.8334V16.6667H13.3334V15H15.8334V12.5H17.5ZM17.5067 2.5C17.9634 2.5 18.3334 2.87083 18.3334 3.3275V11.1183C17.798 10.9292 17.2344 10.8329 16.6667 10.8333V4.16667H3.33335L3.33419 15.8333L11.0775 8.08917C11.2208 7.9454 11.4117 7.85894 11.6143 7.84605C11.8169 7.83316 12.0172 7.89472 12.1775 8.01917L12.255 8.09L15.21 11.0483C14.5639 11.2452 13.9643 11.5709 13.4475 12.0058C12.9306 12.4407 12.5072 12.9757 12.2027 13.5787C11.8983 14.1816 11.719 14.84 11.6759 15.5141C11.6328 16.1881 11.7266 16.864 11.9517 17.5008L2.49335 17.5C2.27403 17.4998 2.06377 17.4125 1.90876 17.2573C1.75376 17.1022 1.66669 16.8918 1.66669 16.6725V3.3275C1.66821 3.10865 1.75577 2.89918 1.91045 2.74435C2.06512 2.58951 2.2745 2.50175 2.49335 2.5H17.5067ZM6.66669 5.83333C7.10871 5.83333 7.53264 6.00893 7.8452 6.32149C8.15776 6.63405 8.33335 7.05797 8.33335 7.5C8.33335 7.94203 8.15776 8.36595 7.8452 8.67851C7.53264 8.99107 7.10871 9.16667 6.66669 9.16667C6.22466 9.16667 5.80074 8.99107 5.48818 8.67851C5.17562 8.36595 5.00002 7.94203 5.00002 7.5C5.00002 7.05797 5.17562 6.63405 5.48818 6.32149C5.80074 6.00893 6.22466 5.83333 6.66669 5.83333Z" fill="#6E768D"/>
</g>
<defs>
<clipPath id="clip0_1610_49085">
<rect width="20" height="20" fill="white"/>
</clipPath>
</defs>
</svg>
