<svg width="28" height="28" viewBox="0 0 28 28" fill="none" xmlns="http://www.w3.org/2000/svg">
<path d="M13.9998 27.3332C6.63584 27.3332 0.666504 21.3638 0.666504 13.9998C0.666504 6.63584 6.63584 0.666504 13.9998 0.666504C21.3638 0.666504 27.3332 6.63584 27.3332 13.9998C27.3332 21.3638 21.3638 27.3332 13.9998 27.3332ZM12.1625 9.21984C12.0823 9.1663 11.989 9.13553 11.8926 9.1308C11.7963 9.12607 11.7005 9.14756 11.6154 9.19299C11.5303 9.23841 11.4591 9.30606 11.4094 9.38875C11.3597 9.47143 11.3333 9.56604 11.3332 9.6625V18.3372C11.3333 18.4336 11.3597 18.5282 11.4094 18.6109C11.4591 18.6936 11.5303 18.7613 11.6154 18.8067C11.7005 18.8521 11.7963 18.8736 11.8926 18.8689C11.989 18.8641 12.0823 18.8334 12.1625 18.7798L18.6678 14.4438C18.741 14.3952 18.801 14.3291 18.8425 14.2517C18.884 14.1742 18.9057 14.0877 18.9057 13.9998C18.9057 13.912 18.884 13.8254 18.8425 13.748C18.801 13.6705 18.741 13.6045 18.6678 13.5558L12.1612 9.21984H12.1625Z" fill="white"/>
</svg>
