<svg width="32" height="32" viewBox="0 0 32 32" fill="none" xmlns="http://www.w3.org/2000/svg">
<rect width="32" height="32" rx="16" fill="#CDF1FF"/>
<g clip-path="url(#clip0_6727_1719)">
<path d="M19.3333 13.3333H21.3333L23.3333 16.0373V20H21.9767C21.8974 20.5562 21.6201 21.0651 21.1958 21.4333C20.7714 21.8015 20.2285 22.0042 19.6667 22.0042C19.1049 22.0042 18.5619 21.8015 18.1376 21.4333C17.7132 21.0651 17.4359 20.5562 17.3567 20H13.9767C13.8974 20.5562 13.6201 21.0651 13.1958 21.4333C12.7714 21.8015 12.2285 22.0042 11.6667 22.0042C11.1049 22.0042 10.5619 21.8015 10.1376 21.4333C9.7132 21.0651 9.43593 20.5562 9.35667 20H8.66667V12C8.66667 11.8232 8.73691 11.6536 8.86193 11.5286C8.98696 11.4036 9.15653 11.3333 9.33334 11.3333H18.6667C18.8435 11.3333 19.0131 11.4036 19.1381 11.5286C19.2631 11.6536 19.3333 11.8232 19.3333 12V13.3333ZM19.3333 14.6666V16.6666H22V16.4766L20.6613 14.6666H19.3333Z" fill="url(#paint0_linear_6727_1719)"/>
</g>
<defs>
<linearGradient id="paint0_linear_6727_1719" x1="8.66667" y1="11.3333" x2="23.739" y2="11.9409" gradientUnits="userSpaceOnUse">
<stop stop-color="#00ACE9"/>
<stop offset="1" stop-color="#0095E9"/>
</linearGradient>
<clipPath id="clip0_6727_1719">
<rect width="16" height="16" fill="white" transform="translate(8 8)"/>
</clipPath>
</defs>
</svg>
