<svg width="32" height="32" viewBox="0 0 32 32" fill="none" xmlns="http://www.w3.org/2000/svg">
<rect width="32" height="32" rx="16" fill="#CDF1FF"/>
<g clip-path="url(#clip0_6727_1738)">
<path d="M20.6667 22.6666H11.3333C10.8029 22.6666 10.2942 22.4559 9.91911 22.0809C9.54404 21.7058 9.33333 21.1971 9.33333 20.6666V9.99998C9.33333 9.82317 9.40357 9.6536 9.52859 9.52858C9.65361 9.40355 9.82318 9.33331 9.99999 9.33331H19.3333C19.5101 9.33331 19.6797 9.40355 19.8047 9.52858C19.9298 9.6536 20 9.82317 20 9.99998V18H22.6667V20.6666C22.6667 21.1971 22.4559 21.7058 22.0809 22.0809C21.7058 22.4559 21.1971 22.6666 20.6667 22.6666ZM20 19.3333V20.6666C20 20.8435 20.0702 21.013 20.1953 21.1381C20.3203 21.2631 20.4899 21.3333 20.6667 21.3333C20.8435 21.3333 21.013 21.2631 21.1381 21.1381C21.2631 21.013 21.3333 20.8435 21.3333 20.6666V19.3333H20ZM12 12.6666V14H17.3333V12.6666H12ZM12 15.3333V16.6666H17.3333V15.3333H12ZM12 18V19.3333H15.3333V18H12Z" fill="url(#paint0_linear_6727_1738)"/>
</g>
<defs>
<linearGradient id="paint0_linear_6727_1738" x1="9.33333" y1="9.33331" x2="23.0459" y2="9.73547" gradientUnits="userSpaceOnUse">
<stop stop-color="#00ACE9"/>
<stop offset="1" stop-color="#0095E9"/>
</linearGradient>
<clipPath id="clip0_6727_1738">
<rect width="16" height="16" fill="white" transform="translate(8 8)"/>
</clipPath>
</defs>
</svg>
