<svg width="22" height="13" viewBox="0 0 22 13" fill="none" xmlns="http://www.w3.org/2000/svg">
<path d="M8.2988 12.3699L6.3364 11.8435L7.1362 8.85673C5.93901 8.41519 4.82635 7.77173 3.84655 6.95428L1.65854 9.14331L0.220529 7.7053L2.40956 5.51729C1.17386 4.03737 0.343586 2.26196 0 0.364838L2 0C2.77135 4.27034 6.50713 7.51018 11 7.51018C15.4919 7.51018 19.2287 4.27034 20 0L22.0001 0.363822C21.6569 2.2612 20.827 4.03697 19.5915 5.51729L21.7795 7.7053L20.3415 9.14331L18.1535 6.95428C17.1737 7.77173 16.061 8.41519 14.8639 8.85673L15.6637 11.8445L13.7013 12.3699L12.9004 9.38214C11.6427 9.59766 10.3574 9.59766 9.09962 9.38214L8.2988 12.3699Z" fill="#6E768D"/>
</svg>
