<svg width="259" height="259" viewBox="0 0 259 259" fill="none" xmlns="http://www.w3.org/2000/svg">
<path d="M44.284 181.554C44.2768 181.497 44.2768 181.44 44.284 181.383V180.906C44.284 180.466 44.284 179.87 44.284 179.067C44.284 177.451 44.2529 175.131 44.227 172.209L44.3358 172.318L9.00817 172.385L9.18947 172.209V181.533L9.01335 181.357L34.1882 181.435L41.6163 181.486L43.6261 181.512H44.1441C44.2061 181.505 44.2686 181.505 44.3306 181.512H44.1648H43.6468L41.6733 181.538L34.2866 181.585L8.98745 181.668H8.80615V181.492C8.80615 179.989 8.80615 178.456 8.80615 176.892V172.152L8.98745 171.971L44.3151 172.043H44.4238V172.152C44.4238 175.105 44.3772 177.446 44.3617 179.073C44.3617 179.85 44.3617 180.456 44.3617 180.886C44.3617 181.077 44.3617 181.227 44.3617 181.347C44.3617 181.466 44.284 181.559 44.284 181.554Z" fill="#E6E8F3"/>
<path d="M49.0704 172.209C49.0704 172.209 49.0704 172.142 49.0704 172.028C49.0704 171.914 49.0704 171.733 49.0704 171.51C49.0704 171.049 49.0704 170.422 49.0393 169.635C49.0393 167.998 48.9979 165.682 48.9668 162.838L49.0963 162.963L27.8583 163.015C27.6978 163.175 28.0759 162.797 28.0396 162.838V167.646C28.0396 169.2 28.0396 170.722 28.0396 172.178L27.8687 172.007L43.0513 172.085L47.475 172.137H48.6664C48.8077 172.125 48.9498 172.125 49.0911 172.137C48.9635 172.143 48.8355 172.143 48.7078 172.137H47.5527L43.1652 172.183L27.8687 172.266H27.6978V172.095C27.6978 170.64 27.6978 169.127 27.6978 167.563V162.756L27.8791 162.574L49.117 162.626H49.2103V162.756C49.2103 165.631 49.1585 167.972 49.143 169.629C49.143 170.406 49.1429 171.023 49.1119 171.474C49.1175 171.719 49.1036 171.965 49.0704 172.209Z" fill="#E6E8F3"/>
<path d="M95.908 40.6319C95.9041 40.575 95.9041 40.5179 95.908 40.461V39.9792C95.908 39.5441 95.908 38.9432 95.8821 38.1403C95.8821 36.5294 95.8458 34.2087 95.8199 31.2872L95.9287 31.396L60.6063 31.4633L60.7824 31.2872V36.0269C60.7824 37.5809 60.7824 39.1349 60.7824 40.6267L60.6063 40.4558L85.7811 40.5335L93.2144 40.5853H95.2242H95.7422C95.8042 40.5781 95.8668 40.5781 95.9287 40.5853C95.8753 40.5904 95.8215 40.5904 95.7681 40.5853H95.2501H93.2817L85.8899 40.6319L60.6063 40.808H60.4302V36.0321C60.4302 35.2551 60.4302 34.4781 60.4302 33.6752V31.2924C60.7928 30.9298 60.5338 31.1888 60.6167 31.1111L95.9391 31.1784H96.0479V31.2924C96.022 34.245 96.0012 36.5863 95.9909 38.2129C95.9909 38.9899 95.9909 39.5959 95.9598 40.0259C95.9598 40.2175 95.9598 40.3677 95.9598 40.4869C95.9509 40.5378 95.9334 40.5869 95.908 40.6319Z" fill="#E6E8F3"/>
<path d="M100.699 31.2872C100.694 31.2269 100.694 31.1662 100.699 31.1059C100.699 30.9712 100.699 30.8106 100.699 30.6138C100.699 30.1528 100.699 29.526 100.663 28.7386C100.663 27.1018 100.627 24.7863 100.596 21.9373L100.725 22.0668L79.4872 22.1186C79.3267 22.2792 79.7048 21.901 79.6685 21.9425V24.3719C79.6685 25.1748 79.6685 25.9673 79.6685 26.7495C79.6685 28.3139 79.6685 29.8247 79.6685 31.282L79.4976 31.1059L94.6802 31.1888L99.1039 31.2354H100.3C100.442 31.2255 100.584 31.2255 100.725 31.2354C100.725 31.2354 100.601 31.2354 100.337 31.2354H99.1816L94.7993 31.282L79.4976 31.3649H79.3267V31.2872C79.3267 29.8316 79.3267 28.3191 79.3267 26.7547V24.3771C79.3267 23.973 79.3267 23.569 79.3267 23.165V21.9477L79.508 21.7664L100.746 21.813H100.875V21.9425C100.844 24.8226 100.824 27.1639 100.803 28.8215C100.803 29.5985 100.803 30.2149 100.772 30.6656C100.759 30.874 100.735 31.0815 100.699 31.2872Z" fill="#E6E8F3"/>
<path d="M247.091 64.6982H213.229V73.6544H247.091V64.6982Z" fill="#E6E8F3"/>
<path d="M233.359 82.8023C233.359 82.8023 233.359 82.7453 233.359 82.6365C233.359 82.5277 233.359 82.3672 233.359 82.1807C233.359 81.7559 233.359 81.1447 233.359 80.4143C233.359 78.8603 233.328 76.6485 233.302 73.8409L233.406 73.9497L199.549 74.017C199.622 73.9393 199.373 74.188 199.715 73.8409V82.7868L199.544 82.6158L223.678 82.6935L230.8 82.7401L232.727 82.766H233.245C233.303 82.7583 233.363 82.7583 233.421 82.766C233.369 82.7714 233.317 82.7714 233.266 82.766H232.784H230.893L223.776 82.88L199.523 82.9525H199.357V82.7868C199.357 81.3467 199.357 79.8773 199.357 78.3786V73.8409C199.699 73.499 199.456 73.7477 199.534 73.67L233.39 73.7373H233.499V73.8409C233.499 76.6744 233.452 78.9173 233.437 80.4765C233.437 81.2224 233.437 81.8025 233.437 82.2169C233.437 82.3982 233.437 82.5433 233.437 82.6573C233.42 82.7101 233.394 82.7593 233.359 82.8023Z" fill="#E6E8F3"/>
<path d="M105.755 235.493C105.747 235.438 105.747 235.382 105.755 235.327C105.755 235.208 105.755 235.058 105.755 234.872C105.755 234.447 105.755 233.861 105.729 233.105C105.729 231.551 105.693 229.339 105.667 226.532L105.776 226.641L71.9139 226.708C71.9916 226.63 71.7378 226.879 72.0848 226.537V231.08C72.0848 232.575 72.0848 234.044 72.0848 235.488L71.9139 235.317L96.0475 235.395L103.17 235.441L105.097 235.467H105.615C105.675 235.46 105.736 235.46 105.796 235.467H105.636H105.154H103.263L96.1822 235.519L71.9294 235.592H71.7637V235.421C71.7637 233.981 71.7637 232.509 71.7637 231.012V226.47L71.9398 226.293L105.801 226.361H105.905V226.464C105.879 229.298 105.858 231.541 105.848 233.1C105.848 233.846 105.848 234.426 105.822 234.84C105.822 235.022 105.822 235.167 105.822 235.281C105.822 235.395 105.755 235.498 105.755 235.493Z" fill="#E6E8F3"/>
<path d="M197.146 23.4136C197.138 23.3604 197.138 23.3063 197.146 23.253C197.146 23.1339 197.146 22.9837 197.146 22.792C197.146 22.3724 197.146 21.756 197.12 21.0308C197.12 19.4768 197.084 17.2598 197.058 14.4574L197.167 14.561L163.305 14.6283C163.383 14.5506 163.129 14.7993 163.476 14.4574V19.0106C163.476 20.5024 163.476 21.9736 163.476 23.4136L163.305 23.2478L187.413 23.31L194.535 23.3566H196.462H196.98H197.161C197.108 23.3636 197.054 23.3636 197.001 23.3566H196.519H194.628L187.516 23.5068L163.263 23.5845H163.098V23.4136C163.098 21.9736 163.098 20.5024 163.098 19.0106V14.4626C163.445 14.1155 163.196 14.3693 163.274 14.2916L197.135 14.359H197.239V14.4626C197.213 17.2908 197.192 19.539 197.182 21.0981C197.182 21.8441 197.182 22.419 197.156 22.8386C197.156 23.0199 197.156 23.165 197.156 23.2789C197.156 23.3929 197.146 23.4188 197.146 23.4136Z" fill="#E6E8F3"/>
<path d="M241.632 140.71C241.625 140.654 241.625 140.599 241.632 140.544C241.632 140.425 241.632 140.274 241.632 140.083C241.632 139.663 241.632 139.078 241.606 138.322C241.606 136.768 241.57 134.55 241.544 131.748L241.653 131.852L207.791 131.924C207.869 131.847 207.615 132.095 207.962 131.748V136.286C207.962 137.781 207.962 139.25 207.962 140.694L207.791 140.523L231.924 140.601L239.047 140.647H240.974H241.492C241.552 140.64 241.613 140.64 241.673 140.647H241.513H241.031H239.14L232.059 140.694L207.806 140.772H207.641V140.606C207.641 139.166 207.641 137.696 207.641 136.198V131.66L207.817 131.489L241.678 131.556H241.782V131.66C241.756 134.494 241.735 136.736 241.725 138.296C241.725 139.042 241.725 139.622 241.699 140.036C241.699 140.217 241.699 140.362 241.699 140.476C241.699 140.59 241.632 140.71 241.632 140.71Z" fill="#E6E8F3"/>
<path d="M200.481 41.3053H40.7769V220.684H200.481V41.3053Z" fill="#737690"/>
<path d="M41.0356 41.2432C41.4522 41.5108 41.8394 41.8215 42.1908 42.1704C42.8745 42.7764 43.8018 43.6363 44.7808 44.6205C45.7598 45.6047 46.6404 46.5319 47.2465 47.2105C47.5923 47.5627 47.9029 47.9478 48.1737 48.3605C47.7865 48.0456 47.4261 47.6991 47.0962 47.3245L44.5839 44.7915L42.0613 42.3102C41.6899 41.9841 41.3468 41.6271 41.0356 41.2432Z" fill="#161B46"/>
<path d="M200.466 41.3053C199.4 42.5456 198.268 43.7267 197.073 44.8433C195.948 46.0186 194.758 47.1305 193.509 48.174C194.576 46.9327 195.708 45.7499 196.902 44.6309C198.028 43.4578 199.218 42.3476 200.466 41.3053Z" fill="#161B46"/>
<path d="M48.236 212.82C48.293 212.872 46.625 214.794 44.5116 217.109C42.3982 219.425 40.637 221.253 40.5852 221.217C40.5334 221.181 42.1961 219.249 44.3096 216.928C46.423 214.607 48.1739 212.769 48.236 212.82Z" fill="#161B46"/>
<path d="M193.509 48.1947H47.7544V213.789H193.509V48.1947Z" fill="#F4F5FB"/>
<path d="M193.768 214.048H47.4951V47.9357H193.768V214.048ZM48.0131 213.53H193.25V48.4537H48.0131V213.53Z" fill="#161B46"/>
<g opacity="0.6">
<path d="M191.592 101.15C191.328 97.8139 191.074 94.4159 189.904 91.3079C188.733 88.1999 186.583 85.3457 183.615 84.2941C181.445 83.5275 179.088 83.7761 176.819 84.0869C172.312 84.6982 167.759 85.5322 163.646 87.6042C155.939 91.4892 152.483 100.844 150.551 109.718C148.619 118.591 150.826 127.475 154.338 135.778C157.85 144.082 160.554 150.645 166.853 156.788C165.065 159.66 163.936 162.893 163.547 166.253C163.157 169.614 163.517 173.019 164.599 176.224C165.159 177.84 165.92 179.487 165.718 181.202C165.366 184.237 162.284 185.957 160.916 188.64C159.704 191.013 159.943 193.882 159.943 196.581C159.943 199.28 159.502 202.31 157.477 203.921C156.151 204.957 154.421 205.19 152.815 205.677C151.209 206.164 149.546 207.179 149.189 208.909L150.375 213.23L174.203 212.587L186.708 196.84L194.058 160.497L191.592 101.15Z" fill="white"/>
</g>
<path d="M110.81 181.906C110.758 181.854 113.711 179.047 117.399 175.643C121.087 172.24 124.133 169.521 124.175 169.578C124.216 169.635 121.274 172.437 117.586 175.84C113.898 179.244 110.852 181.963 110.81 181.906Z" fill="#E6E8F3"/>
<path d="M149.396 169.536C149.344 169.484 152.297 166.677 155.985 163.274C159.673 159.87 162.719 157.151 162.761 157.208C162.802 157.265 159.86 160.067 156.166 163.47C152.473 166.874 149.443 169.593 149.396 169.536Z" fill="#E6E8F3"/>
<path d="M154.265 191.09C154.214 191.038 157.166 188.231 160.854 184.828C164.542 181.424 167.588 178.705 167.63 178.762C167.671 178.819 164.729 181.621 161.036 185.024C157.342 188.428 154.312 191.142 154.265 191.09Z" fill="#E6E8F3"/>
<path d="M136.021 147.34C135.969 147.288 138.922 144.481 142.615 141.077C146.309 137.674 149.349 134.955 149.386 135.006C149.422 135.058 146.485 137.871 142.797 141.274C139.108 144.677 136.073 147.397 136.021 147.34Z" fill="#E6E8F3"/>
<path d="M173.623 169.811C173.571 169.754 176.524 166.951 180.212 163.543C183.9 160.135 186.936 157.42 186.998 157.472C187.06 157.524 184.097 160.331 180.404 163.74C176.711 167.148 173.675 169.863 173.623 169.811Z" fill="#E6E8F3"/>
<path d="M57.9019 143.486C57.8553 143.429 60.8027 140.627 64.4961 137.218C68.1894 133.81 71.2301 131.101 71.2663 131.152C71.3026 131.204 68.3707 134.012 64.6774 137.42C60.984 140.829 57.9537 143.548 57.9019 143.486Z" fill="#E6E8F3"/>
<path d="M61.6418 69.2307C61.59 69.1789 64.5426 66.3713 68.2307 62.9681C71.9189 59.5648 74.9647 56.8453 75.0062 56.9023C75.0476 56.9593 72.1054 59.7617 68.4172 63.1649C64.7291 66.5682 61.6884 69.2877 61.6418 69.2307Z" fill="#E6E8F3"/>
<path d="M91.6857 152.81C91.6339 152.758 94.5865 149.951 98.2747 146.547C101.963 143.144 105.009 140.425 105.05 140.482C105.092 140.539 102.149 143.341 98.456 146.744C94.7627 150.147 91.722 152.857 91.6857 152.81Z" fill="#E6E8F3"/>
<path d="M82.1081 204.765C82.0563 204.708 85.0089 201.906 88.6971 198.498C92.3852 195.089 95.4311 192.38 95.4725 192.432C95.5139 192.484 92.5717 195.291 88.8784 198.7C85.185 202.108 82.1547 204.817 82.1081 204.765Z" fill="#E6E8F3"/>
<path d="M127.34 203.056C127.288 203.004 130.24 200.197 133.928 196.793C137.617 193.39 140.663 190.671 140.704 190.722C140.745 190.774 137.803 193.582 134.11 196.99C130.416 200.399 127.386 203.129 127.34 203.056Z" fill="#E6E8F3"/>
<path d="M132.81 93.1364C132.758 93.0846 135.711 90.277 139.399 86.8738C143.087 83.4705 146.133 80.751 146.174 80.8028C146.216 80.8546 143.273 83.6622 139.585 87.0706C135.897 90.4791 132.862 93.1934 132.81 93.1364Z" fill="#E6E8F3"/>
<path d="M160.284 72.0486C160.233 71.9968 163.185 69.1893 166.873 65.786C170.561 62.3828 173.607 59.6633 173.649 59.7202C173.69 59.7772 170.748 62.5796 167.055 65.9829C163.361 69.3861 160.331 72.1056 160.284 72.0486Z" fill="white"/>
<path d="M68.319 106.454C68.2672 106.402 71.2198 103.595 74.908 100.192C78.5961 96.7883 81.642 94.0688 81.6834 94.1258C81.7249 94.1828 78.7826 96.9851 75.0945 100.388C71.4063 103.792 68.376 106.511 68.319 106.454Z" fill="white"/>
<path d="M59.3732 170.22C59.3214 170.163 62.274 167.361 65.9622 163.952C69.6503 160.544 72.6962 157.829 72.7376 157.886C72.7791 157.943 69.8368 160.746 66.1487 164.149C62.4605 167.552 59.425 170.272 59.3732 170.22Z" fill="white"/>
<path d="M93.0588 184.517C93.007 184.465 95.9596 181.657 99.6477 178.254C103.336 174.851 106.382 172.131 106.423 172.188C106.465 172.245 103.522 175.048 99.8342 178.451C96.1461 181.854 93.1106 184.574 93.0588 184.517Z" fill="white"/>
<path d="M152.095 97.0732C152.043 97.0162 154.996 94.2138 158.684 90.8054C162.372 87.397 165.418 84.6878 165.459 84.7396C165.501 84.7914 162.559 87.599 158.865 91.0074C155.172 94.4159 152.142 97.125 152.095 97.0732Z" fill="white"/>
<path d="M126.128 130.79C126.076 130.733 129.028 127.925 132.717 124.522C136.405 121.119 139.451 118.399 139.492 118.456C139.533 118.513 136.591 121.316 132.903 124.719C129.215 128.122 126.179 130.842 126.128 130.79Z" fill="white"/>
<path d="M160.284 145.397C160.233 145.346 163.185 142.538 166.873 139.135C170.561 135.732 173.607 133.012 173.649 133.064C173.69 133.116 170.748 135.923 167.055 139.332C163.361 142.74 160.331 145.454 160.284 145.397Z" fill="white"/>
<path d="M103.962 205.475C103.916 205.423 106.863 202.616 110.557 199.212C114.25 195.809 117.291 193.09 117.327 193.141C117.363 193.193 114.431 196.001 110.738 199.409C107.045 202.818 104.014 205.532 103.962 205.475Z" fill="white"/>
<path d="M155.224 116.835C155.177 116.783 158.124 113.976 161.818 110.572C165.511 107.169 168.552 104.45 168.588 104.501C168.624 104.553 165.692 107.361 161.999 110.769C158.306 114.178 155.275 116.892 155.224 116.835Z" fill="#E6E8F3"/>
<path d="M94.0114 72.0486C93.9596 71.9968 96.9122 69.1893 100.6 65.786C104.289 62.3828 107.334 59.6633 107.376 59.7202C107.417 59.7772 104.475 62.5796 100.782 65.9829C97.0883 69.3861 94.0632 72.1056 94.0114 72.0486Z" fill="#E6E8F3"/>
<path d="M142.704 65.8844C142.652 65.8274 145.605 63.0251 149.298 59.6166C152.991 56.2082 156.032 53.499 156.068 53.5508C156.104 53.6026 153.167 56.4102 149.479 59.8186C145.791 63.2271 142.756 65.9362 142.704 65.8844Z" fill="#E6E8F3"/>
<path d="M106.112 90.9038C106.06 90.852 109.013 88.0445 112.701 84.6412C116.389 81.2379 119.435 78.5185 119.476 78.5754C119.518 78.6324 116.576 81.4348 112.882 84.8381C109.189 88.2413 106.19 90.9608 106.112 90.9038Z" fill="#E6E8F3"/>
<path d="M115.82 67.4281C115.768 67.3763 118.72 64.5687 122.408 61.1654C126.097 57.7622 129.142 55.0427 129.184 55.0997C129.225 55.1566 126.283 57.959 122.59 61.3623C118.896 64.7655 115.866 67.485 115.82 67.4281Z" fill="#E6E8F3"/>
<path d="M61.6418 192.432C61.59 192.38 64.5426 189.572 68.2307 186.169C71.9189 182.766 74.9647 180.046 75.0062 180.098C75.0476 180.15 72.1054 182.958 68.4172 186.366C64.7291 189.774 61.6884 192.489 61.6418 192.432Z" fill="#E6E8F3"/>
<path d="M71.0542 79.0882C71.1008 79.1452 68.2466 81.7197 64.6776 84.8432C61.1086 87.9668 58.1663 90.448 58.1197 90.391C58.0731 90.334 60.9273 87.7596 64.4963 84.636C68.0653 81.5125 71.0075 79.0313 71.0542 79.0882Z" fill="#E6E8F3"/>
<path d="M50.7015 210.826L190.624 210.184L190.51 210.298C190.51 164.517 190.51 109.806 190.51 51.1007L190.644 51.2354H190.406H50.7378L50.8569 51.1162C50.7844 146.428 50.7378 209.78 50.7378 210.816C50.7378 209.78 50.686 146.408 50.6187 51.1162V50.9971H50.7378H190.406H190.779V51.1318C190.779 109.816 190.779 164.574 190.779 210.329V210.443H190.624L50.7015 210.826Z" fill="white"/>
<g opacity="0.8">
<path d="M90.7845 116.079C92.7063 115.773 94.0168 113.763 95.9282 113.375C99.7614 112.598 102.968 116.441 106.806 117.182C109.743 117.752 112.696 116.436 115.338 115.027C117.979 113.618 120.704 112.038 123.698 112.017C126.692 111.997 129.94 114.266 129.733 117.254C129.557 119.803 127.143 121.502 125.294 123.253C123.444 125.004 121.953 128.07 123.688 129.945C125.242 131.634 128.438 131.044 129.137 134.048C129.274 134.698 129.28 135.368 129.157 136.021C129.033 136.673 128.782 137.295 128.417 137.85C126.951 140.155 124.398 141.378 122.595 143.362C121.041 145.087 120.145 147.91 121.642 149.702C122.092 150.246 122.709 150.624 123.196 151.121C125.268 153.193 124.869 156.783 123.196 159.187C121.523 161.59 118.933 163.139 116.565 164.859C114.198 166.578 111.877 168.723 111.245 171.593C110.474 175.1 112.447 178.674 112.199 182.258C111.831 187.589 105.594 191.619 100.58 189.769C98.886 189.143 97.389 187.987 95.6226 187.599C92.8202 186.977 90.023 188.397 87.3916 189.547C84.7602 190.697 81.5641 191.577 79.1399 190.033C75.1772 187.516 76.2909 180.585 72.3074 178.094C69.0078 176.022 63.7501 178.156 61.3362 175.105C60.1604 173.628 60.264 171.505 60.7612 169.681C61.2585 167.858 62.0873 166.102 62.1909 164.216C62.4965 158.586 56.4048 154.245 56.3427 148.604C56.3064 145.045 58.7151 141.937 61.3466 139.534C63.978 137.13 67.0031 135.058 68.9042 132.043C70.8622 128.935 71.432 125.113 73.3486 121.973C74.5559 120.073 76.21 118.496 78.1667 117.382C80.1234 116.268 82.323 115.65 84.5737 115.581C85.6376 115.569 86.6984 115.698 87.7283 115.965C88.7287 116.21 89.7686 116.248 90.7845 116.079Z" fill="white"/>
</g>
<path d="M82.0252 143.714C81.5966 143.811 81.2063 144.032 80.9035 144.35C80.6007 144.669 80.3991 145.07 80.3241 145.502C80.2491 145.935 80.3041 146.381 80.4822 146.782C80.6602 147.184 80.9533 147.524 81.3245 147.759C81.6956 147.994 82.1281 148.114 82.5673 148.103C83.0065 148.093 83.4327 147.952 83.792 147.7C84.1514 147.447 84.4278 147.093 84.5863 146.683C84.7448 146.274 84.7783 145.826 84.6825 145.397C84.6195 145.112 84.5006 144.842 84.3326 144.602C84.1647 144.363 83.9511 144.159 83.7041 144.003C83.4572 143.846 83.1817 143.74 82.8935 143.691C82.6054 143.641 82.3103 143.649 82.0252 143.714Z" fill="#E6E8F3"/>
<path d="M96.638 145.004C97.067 144.908 97.4581 144.687 97.7616 144.369C98.0652 144.051 98.2676 143.651 98.3434 143.218C98.4191 142.785 98.3647 142.339 98.187 141.937C98.0093 141.535 97.7164 141.194 97.3453 140.959C96.9741 140.723 96.5415 140.603 96.102 140.613C95.6625 140.624 95.236 140.764 94.8764 141.017C94.5167 141.27 94.2402 141.623 94.0816 142.033C93.9231 142.443 93.8898 142.891 93.9858 143.32C94.1145 143.895 94.4661 144.395 94.9634 144.711C95.4607 145.027 96.063 145.132 96.638 145.004Z" fill="#E6E8F3"/>
<path d="M88.6867 153.67C89.5987 152.925 90.6849 152.423 91.8436 152.212C93.0023 152.001 94.1956 152.087 95.3119 152.463C95.8104 152.616 96.2941 152.814 96.7571 153.053C97.1562 153.272 97.5389 153.52 97.9019 153.794C99.2642 154.83 99.8288 155.809 100.057 155.695C100.155 155.649 100.14 155.343 99.948 154.835C99.6514 154.123 99.2185 153.476 98.6737 152.929C98.2997 152.544 97.8884 152.197 97.446 151.893C96.9292 151.55 96.377 151.263 95.7988 151.038C94.4485 150.492 92.9707 150.342 91.538 150.604C90.1053 150.866 88.7768 151.531 87.7076 152.52C87.2441 152.933 86.8288 153.397 86.4696 153.903C86.1646 154.345 85.9027 154.815 85.6874 155.307C85.3732 156.013 85.1974 156.772 85.1694 157.545C85.1694 158.063 85.2627 158.379 85.3715 158.389C85.4002 158.388 85.4276 158.377 85.4492 158.358C85.7287 159.452 86.1175 160.516 86.6095 161.533C86.7027 161.735 86.8529 161.963 87.0757 161.958C87.162 161.947 87.2427 161.909 87.306 161.85C87.3694 161.79 87.4121 161.712 87.4279 161.626C87.4555 161.454 87.4467 161.277 87.402 161.108L86.7493 157.933C86.7967 158.125 86.8891 158.302 87.0187 158.451C87.0848 158.519 87.1724 158.563 87.2667 158.574C87.361 158.585 87.4563 158.564 87.5367 158.513C87.5957 158.442 87.638 158.359 87.6604 158.269C87.6829 158.179 87.6848 158.086 87.6662 157.995L87.5004 154.939C87.502 154.893 87.4893 154.848 87.4642 154.809L87.5212 154.742C87.8774 154.351 88.2674 153.992 88.6867 153.67Z" fill="#E6E8F3"/>
<path d="M112.406 145.263C111.37 140.653 108.454 136.353 104.175 133.162C101.801 131.402 99.1431 130.06 96.3169 129.194C92.6984 128.052 88.8468 127.861 85.1332 128.64C82.4797 129.231 79.9873 130.395 77.8309 132.05C75.6744 133.706 73.906 135.812 72.6494 138.223C70.71 141.902 69.8144 146.042 70.0594 150.194C69.5603 151.073 69.3775 152.097 69.5414 153.095C69.7596 154.248 70.1416 155.365 70.6759 156.41L73.0172 161.59C73.5293 162.905 74.2346 164.136 75.1099 165.242C76.2392 166.506 77.7725 167.314 79.2539 168.101C80.758 168.986 82.3875 169.637 84.0869 170.034C84.375 171.013 84.721 171.975 85.1229 172.914C85.3094 173.349 85.5942 173.836 86.0656 173.862C86.6769 173.898 86.9929 173.162 87.1327 172.561C89.3239 174.721 88.5313 178.612 90.3909 181.062C90.4636 181.192 90.5695 181.3 90.6979 181.376C90.8262 181.451 90.9724 181.491 91.1213 181.492C91.572 181.414 91.6393 180.792 91.5668 180.337C91.142 177.139 90.7207 173.939 90.3029 170.738C90.536 170.738 90.7743 170.738 91.0125 170.738C92.5671 170.737 94.1168 170.563 95.6331 170.22C97.0562 169.909 98.4445 169.456 99.7771 168.868C99.9303 168.799 100.05 168.673 100.11 168.516C100.169 168.359 100.164 168.185 100.096 168.031C100.027 167.878 99.9002 167.759 99.7434 167.699C99.5865 167.639 99.4123 167.644 99.2591 167.713C98.0088 168.263 96.7076 168.69 95.3741 168.987C90.2607 170.13 84.9028 169.195 80.479 166.387C76.0551 163.58 72.9276 159.13 71.7844 154.017C69.3964 143.331 74.6075 133.256 83.7554 130.277L84.4702 130.101C84.7194 130 84.998 130 85.2472 130.101C85.3765 130.204 85.481 130.335 85.5527 130.483C85.6245 130.632 85.6617 130.796 85.6616 130.961L86.0812 133.877C86.1433 134.317 86.3195 134.866 86.7598 134.882C87.2001 134.898 87.4332 134.364 87.485 133.898C87.567 133.21 87.567 132.514 87.485 131.826C87.4228 131.266 87.3814 130.552 87.889 130.303C88.2412 130.132 88.6556 130.303 89.0493 130.303C89.3351 130.305 89.6146 130.219 89.85 130.057C90.0854 129.895 90.2652 129.664 90.365 129.396C92.24 129.485 94.0967 129.807 95.8921 130.355C98.5922 131.184 101.129 132.472 103.393 134.162C107.428 137.166 110.184 141.207 111.163 145.522C111.178 145.605 111.21 145.685 111.257 145.756C111.304 145.827 111.364 145.887 111.435 145.934C111.506 145.981 111.586 146.013 111.669 146.029C111.753 146.044 111.839 146.043 111.922 146.024C112.005 146.006 112.083 145.971 112.152 145.921C112.221 145.872 112.28 145.809 112.324 145.737C112.368 145.664 112.397 145.583 112.41 145.499C112.422 145.415 112.417 145.329 112.396 145.247L112.406 145.263Z" fill="#E6E8F3"/>
<path d="M50.7637 51.1007C50.2121 50.742 49.7104 50.3117 49.2719 49.8212C48.7734 49.3905 48.336 48.8938 47.9717 48.3449C48.5233 48.7037 49.0249 49.1339 49.4635 49.6244C49.9604 50.0567 50.3976 50.5532 50.7637 51.1007Z" fill="white"/>
<g opacity="0.6">
<path opacity="0.6" d="M109.635 209.837C109.583 206.729 105.423 205.47 102.346 204.993C99.2695 204.517 95.975 204.853 93.1985 203.439C91.4684 202.569 90.1216 201.108 88.4951 200.057C86.1354 198.544 83.3009 197.954 80.5334 198.399C78.9432 198.658 77.2597 199.254 75.7678 198.622C73.9859 197.866 73.3281 195.742 72.5873 193.96C69.1064 185.568 60.29 180.943 51.5928 183.574L51.945 209.831L109.635 209.837Z" fill="white"/>
</g>
<g opacity="0.6">
<path d="M137.078 52.7531C137.669 54.7889 135.006 56.5812 133.1 57.4877C131.194 58.3942 128.956 58.3061 126.884 58.0575C124.812 57.8088 122.647 57.4255 120.559 57.7933C117.84 58.275 115.488 59.9896 112.82 60.7303C108.676 61.8699 104.32 60.549 100.16 59.5079C96.0007 58.4667 91.3232 57.7622 87.6247 59.9378C84.2836 61.901 82.253 65.9518 78.5131 66.9774C76.4411 67.5369 74.1722 67.0707 72.2349 67.9461C69.6449 69.1168 68.6089 72.2248 68.0391 75.0271C67.4693 77.8295 67.029 80.922 64.9 82.7971C63.2683 84.2527 60.9477 84.7086 59.2642 86.0968C56.6742 88.2361 56.1562 91.9813 56.1562 95.3379C56.1562 100.979 56.8969 106.604 56.783 112.245C56.669 117.886 55.5812 123.709 52.2764 128.278L52.7944 52.6495L137.078 52.7531Z" fill="white"/>
</g>
<path d="M120.798 213.235C120.72 213.235 120.663 176.296 120.663 130.743C120.663 85.1903 120.72 48.2413 120.798 48.2413C120.875 48.2413 120.932 85.1696 120.932 130.743C120.932 176.317 120.87 213.235 120.798 213.235Z" fill="#161B46"/>
<path d="M195.239 124.62C195.239 124.698 162.144 124.755 121.331 124.755C80.5175 124.755 47.4121 124.698 47.4121 124.62C47.4121 124.543 80.5019 124.486 121.331 124.486C162.159 124.486 195.239 124.548 195.239 124.62Z" fill="#161B46"/>
<path d="M220.751 141.295C220.156 138.233 218.892 135.348 218.001 132.359C217.11 129.37 217.193 126.143 216.669 122.875L207.009 150.329C207.13 154.058 207.247 157.79 207.361 161.523C207.361 162.32 207.465 163.227 208.102 163.704C208.884 164.284 209.992 163.859 210.832 163.362C218.229 158.979 222.388 149.728 220.751 141.295Z" fill="#161B46"/>
<path d="M195.033 103.864L176.69 99.8341L172.277 101.093C162.16 102.787 157.006 115.079 158.291 123.305C159.71 132.427 161.798 143.507 164.346 149.982C169.464 163.009 180.192 162.445 180.192 162.445C180.192 162.445 180.71 166.154 181.342 170.702C181.625 172.637 182.296 174.496 183.316 176.165C184.336 177.834 185.683 179.28 187.276 180.415C188.869 181.551 190.675 182.352 192.586 182.771C194.497 183.19 196.473 183.218 198.394 182.854C202.105 182.145 205.392 180.016 207.557 176.92C209.722 173.825 210.594 170.007 209.987 166.278L200.342 107.744C200.106 106.549 199.428 105.487 198.445 104.768C197.461 104.049 196.243 103.727 195.033 103.864Z" fill="#9E5F58"/>
<path d="M163.756 132.489C163.851 132.945 164.121 133.345 164.509 133.603C164.897 133.861 165.37 133.955 165.828 133.867C166.052 133.836 166.267 133.76 166.462 133.645C166.657 133.529 166.826 133.376 166.961 133.194C167.096 133.012 167.193 132.805 167.246 132.586C167.3 132.366 167.309 132.137 167.273 131.914C167.177 131.459 166.906 131.059 166.518 130.802C166.131 130.544 165.658 130.449 165.201 130.536C164.976 130.566 164.759 130.64 164.564 130.755C164.369 130.87 164.199 131.023 164.064 131.206C163.929 131.388 163.832 131.595 163.779 131.816C163.726 132.036 163.718 132.265 163.756 132.489Z" fill="#161B46"/>
<path d="M161.761 128.029C162.025 128.205 163.124 126.946 164.988 126.537C166.853 126.128 168.423 126.765 168.573 126.49C168.651 126.366 168.34 126.009 167.651 125.708C166.722 125.325 165.698 125.24 164.719 125.465C163.749 125.676 162.872 126.19 162.212 126.931C161.741 127.501 161.616 127.946 161.761 128.029Z" fill="#161B46"/>
<path d="M176.602 140.119C176.602 140.01 175.39 140.067 173.458 140.238C172.971 140.295 172.5 140.3 172.349 139.995C172.199 139.512 172.199 138.996 172.349 138.513C172.546 137.267 172.75 135.956 172.961 134.582C173.774 128.992 174.256 124.439 174.028 124.408C173.8 124.377 172.961 128.884 172.142 134.473C171.956 135.846 171.769 137.156 171.598 138.41C171.536 138.99 171.365 139.674 171.764 140.331C171.871 140.483 172.011 140.608 172.173 140.698C172.336 140.788 172.516 140.839 172.702 140.849C172.98 140.864 173.258 140.842 173.53 140.782C175.447 140.476 176.638 140.223 176.602 140.119Z" fill="#161B46"/>
<path d="M180.182 162.445C186.557 161.139 192.446 158.091 197.193 153.639C197.193 153.639 194.442 164.051 180.653 165.76L180.182 162.445Z" fill="#794742"/>
<path d="M183.321 142.16C182.975 141.866 182.563 141.659 182.12 141.557C181.678 141.455 181.217 141.461 180.777 141.575C180.34 141.697 179.945 141.935 179.631 142.263C179.318 142.591 179.098 142.997 178.995 143.439C178.783 144.449 179.249 145.465 179.695 146.392L179.617 146.485C180.68 146.812 181.814 146.837 182.891 146.558C183.252 146.484 183.589 146.324 183.875 146.092C184.071 145.886 184.222 145.642 184.318 145.374C184.413 145.106 184.451 144.821 184.429 144.538C184.421 144.086 184.318 143.641 184.127 143.231C183.936 142.821 183.662 142.457 183.321 142.16Z" fill="#794742"/>
<path d="M178.752 147.412C179.052 147.475 179.342 145.423 181.3 144.211C183.258 142.999 185.413 143.527 185.444 143.248C185.491 143.118 185.014 142.782 184.097 142.626C182.899 142.444 181.674 142.688 180.637 143.315C179.641 143.921 178.92 144.891 178.627 146.019C178.451 146.863 178.607 147.407 178.752 147.412Z" fill="#161B46"/>
<path d="M165.849 119.876C165.331 119.699 164.486 120.803 163.181 121.694C161.875 122.585 160.591 123.072 160.591 123.616C160.591 123.875 161.016 124.134 161.73 124.134C162.657 124.11 163.556 123.81 164.311 123.273C165.067 122.736 165.646 121.986 165.973 121.119C166.185 120.44 166.087 119.969 165.849 119.876Z" fill="#161B46"/>
<path d="M184.693 127.993C184.782 128.448 184.69 128.919 184.435 129.307C184.18 129.694 183.784 129.966 183.331 130.065C183.113 130.121 182.886 130.134 182.664 130.101C182.441 130.069 182.227 129.993 182.034 129.877C181.841 129.762 181.673 129.609 181.54 129.427C181.407 129.246 181.312 129.04 181.259 128.821C181.172 128.367 181.266 127.896 181.521 127.51C181.775 127.123 182.17 126.85 182.621 126.749C182.839 126.694 183.066 126.682 183.288 126.714C183.51 126.747 183.724 126.823 183.917 126.938C184.11 127.054 184.277 127.207 184.411 127.388C184.544 127.569 184.64 127.774 184.693 127.993Z" fill="#161B46"/>
<path d="M186.667 122.901C186.491 123.17 184.994 122.429 183.119 122.776C181.243 123.123 180.036 124.33 179.793 124.118C179.674 124.035 179.819 123.6 180.337 123.041C181.048 122.329 181.962 121.855 182.953 121.683C183.928 121.502 184.935 121.637 185.828 122.067C186.48 122.403 186.755 122.766 186.667 122.901Z" fill="#161B46"/>
<path d="M179.311 115.783C179.695 115.353 181.181 115.783 182.979 115.835C184.776 115.887 186.294 115.561 186.641 116.016C186.791 116.234 186.553 116.669 185.885 117.078C184.973 117.581 183.941 117.821 182.901 117.772C181.863 117.759 180.85 117.452 179.98 116.887C179.348 116.441 179.14 115.996 179.311 115.783Z" fill="#161B46"/>
<path d="M174.406 94.4936C149.982 95.1514 157.384 125.278 157.384 125.278C166.532 116.094 174.566 100.135 174.566 100.135L178.218 98.8655L174.406 94.4936Z" fill="#161B46"/>
<path d="M201.502 131.199C201.28 130.189 201.922 127.573 202.88 127.19C205.439 126.195 210.262 125.351 211.795 132.074C213.867 141.264 204.227 141.466 204.149 141.207C204.072 140.948 202.264 134.68 201.502 131.199Z" fill="#9E5F58"/>
<path d="M206.164 137.089C206.2 137.047 206.351 137.161 206.651 137.223C207.068 137.3 207.499 137.213 207.853 136.98C208.744 136.4 209.21 134.675 208.889 133.007C208.733 132.213 208.4 131.464 207.915 130.816C207.764 130.549 207.55 130.322 207.292 130.156C207.034 129.99 206.739 129.889 206.434 129.863C206.239 129.855 206.047 129.916 205.892 130.035C205.738 130.154 205.631 130.324 205.589 130.515C205.522 130.8 205.626 130.971 205.589 130.997C205.553 131.023 205.356 130.888 205.346 130.479C205.342 130.238 205.423 130.004 205.574 129.816C205.785 129.569 206.084 129.413 206.408 129.381C206.801 129.37 207.19 129.459 207.539 129.641C207.888 129.822 208.185 130.089 208.402 130.417C208.976 131.122 209.368 131.959 209.542 132.851C209.904 134.716 209.35 136.664 208.107 137.353C207.877 137.481 207.621 137.556 207.358 137.571C207.095 137.586 206.832 137.542 206.589 137.441C206.237 137.306 206.164 137.109 206.164 137.089Z" fill="#794742"/>
<path d="M217.561 130.536C217.043 115.587 208.449 97.4306 200.327 94.4987C192.205 91.5669 174.427 87.1846 173.044 98.3216C172.163 105.434 181.699 109.982 188.174 113.064C190.309 114.1 192.65 114.929 194.178 116.731C196.416 119.363 191.94 130.562 201.466 135.457C201.466 135.457 201.492 128.407 201.834 127.936C202.756 126.672 205.61 125.776 208.537 127.008C211.847 128.407 215.318 138.052 205.854 141.16L207.874 153.421C207.874 153.421 218.079 145.48 217.561 130.536Z" fill="#161B46"/>
<path d="M187.381 130.671C187.381 130.754 186.278 130.816 184.957 131.127C183.636 131.437 182.611 131.862 182.58 131.784C184.03 130.935 185.705 130.546 187.381 130.671Z" fill="#794742"/>
<path d="M167.796 135.669C167.796 135.747 166.698 135.545 165.372 135.669C164.046 135.794 163.02 136.187 162.994 136.12C163.722 135.723 164.523 135.478 165.348 135.4C166.174 135.321 167.006 135.411 167.796 135.664V135.669Z" fill="#794742"/>
<path d="M187.563 144.071C187.49 144.045 187.661 143.502 187.563 142.839C187.464 142.175 187.154 141.704 187.216 141.657C187.398 141.79 187.547 141.962 187.654 142.16C187.761 142.358 187.822 142.577 187.832 142.802C187.886 143.02 187.89 143.248 187.843 143.468C187.796 143.688 187.701 143.894 187.563 144.071Z" fill="#794742"/>
<path d="M215.918 121.181C215.724 120.573 215.465 119.988 215.147 119.435C214.164 117.994 212.847 116.812 211.308 115.991C210.36 115.431 209.278 114.898 208.097 114.348L204.336 112.582L195.727 108.516L187.123 104.429L183.372 102.642C182.202 102.082 181.104 101.564 180.125 101.036C178.546 100.256 177.124 99.194 175.929 97.902C175.492 97.4261 175.127 96.8886 174.846 96.3065C175.197 96.8409 175.584 97.3498 176.007 97.8295C177.221 99.0805 178.647 100.108 180.218 100.865C181.192 101.383 182.29 101.901 183.471 102.419L187.232 104.185L195.841 108.262L204.44 112.344L208.19 114.136C209.291 114.64 210.365 115.202 211.407 115.82C212.272 116.326 213.078 116.927 213.81 117.612C214.365 118.131 214.846 118.723 215.24 119.373C215.476 119.788 215.665 120.227 215.804 120.684L215.898 121.046C215.91 121.09 215.917 121.135 215.918 121.181Z" fill="#737690"/>
<path d="M212.681 109.474C212.554 109.41 212.432 109.336 212.318 109.251C212.085 109.106 211.759 108.863 211.308 108.594C210.056 107.813 208.751 107.121 207.402 106.522C205.399 105.629 203.338 104.873 201.233 104.258C198.866 103.543 196.224 102.88 193.463 102.186C190.702 101.492 188.06 100.72 185.724 99.8704C183.645 99.1365 181.636 98.2195 179.72 97.1302C178.437 96.3915 177.224 95.5385 176.094 94.5816C175.685 94.2553 175.405 93.9548 175.198 93.7684C175.094 93.6745 174.995 93.5741 174.903 93.4679C175.021 93.5439 175.132 93.6306 175.234 93.7269C175.452 93.8979 175.752 94.1879 176.162 94.5039C177.315 95.4245 178.544 96.2475 179.834 96.9644C181.75 98.0245 183.754 98.9188 185.822 99.6373C188.153 100.471 190.774 101.191 193.546 101.922C196.317 102.652 198.959 103.305 201.316 104.035C203.425 104.668 205.488 105.445 207.49 106.361C208.837 106.985 210.136 107.708 211.375 108.526C211.821 108.811 212.137 109.07 212.359 109.231C212.474 109.302 212.581 109.383 212.681 109.474Z" fill="#737690"/>
<path d="M223.543 156.068C226.175 156.102 228.758 156.774 231.072 158.027C233.385 159.281 235.36 161.078 236.825 163.263C239.86 167.884 240.285 173.67 241.295 179.104C242.305 184.538 244.403 190.375 249.247 193.022C249.816 193.338 250.479 193.67 250.645 194.302C250.837 195.058 250.127 195.809 249.35 195.949C248.565 196.013 247.777 195.863 247.071 195.514C248.62 197.603 249.434 200.147 249.386 202.747C249.337 205.348 248.429 207.86 246.802 209.889C245.176 211.919 242.923 213.354 240.395 213.968C237.868 214.583 235.208 214.343 232.831 213.286L216.846 166.231L223.543 156.068Z" fill="#161B46"/>
<path d="M222.347 151.852C220.767 150.981 218.804 152.085 217.592 153.406C215.856 155.302 214.753 157.679 213.681 160.01C214.199 161.43 213.137 163.149 214.09 164.32C215.043 165.491 216.509 166.361 218.011 166.2C220.016 165.988 221.404 164.102 222.233 162.263C223.074 160.398 223.62 158.413 223.849 156.379C224.041 154.706 223.828 152.67 222.347 151.852Z" fill="#737690"/>
<path d="M118.809 174.794C118.809 174.794 132.116 192.655 137.275 199.14C142.854 206.159 151.945 217.228 151.945 217.228L149.63 242.714C149.63 242.714 135.265 235.731 131.272 228.008C127.278 220.285 108.604 185.444 108.604 185.444L118.809 174.794Z" fill="#9E5F58"/>
<path d="M208.754 153.634C208.754 153.634 198.809 159.85 195.286 162.372C193.582 163.59 181.104 174.286 181.104 174.286L181.969 177.617C181.969 177.617 176.825 194.954 175.846 199.14C175.064 202.471 172.598 238.062 172.158 243.957H236.965C236.965 243.957 237.063 199.508 234.24 191.22C230.158 179.254 215.364 160.927 215.364 160.927L210.448 159.751L208.754 153.634Z" fill="#00ACE9"/>
<path d="M186.481 187.293C185.595 187.811 166.185 207.495 166.185 207.495C166.185 207.495 161.414 208.599 160.777 212.183L155.23 213.934C154.794 212.727 150.303 212.038 149.469 214.903C149.091 216.208 143.844 236.177 143.585 239.223C143.347 241.968 151.945 243.942 151.945 243.942L159.653 241.87C159.653 241.87 173.002 240.917 174.914 240.44C176.825 239.963 201.953 231.691 209.267 223.9C216.581 216.11 224.699 207.677 224.699 207.677C224.699 207.677 200.617 179.342 186.481 187.293Z" fill="#00ACE9"/>
<path d="M149.469 214.923C149.472 214.881 149.481 214.839 149.495 214.799C149.527 214.679 149.57 214.563 149.625 214.452C149.846 214.019 150.213 213.678 150.661 213.489C151.816 212.971 153.712 213.048 155.841 213.68H155.778L160.373 212.204L160.311 212.25L160.886 211.313C161.307 210.289 162.011 209.407 162.917 208.77C163.882 208.081 164.982 207.603 166.144 207.366L166.076 207.402L169.796 203.6L182.253 190.94C183.844 189.339 185.139 188.044 186.05 187.122L187.086 186.086C187.2 185.983 187.288 185.895 187.361 185.822C187.392 185.79 187.427 185.762 187.465 185.739C187.434 185.771 187.399 185.799 187.361 185.822C187.294 185.9 187.211 185.993 187.107 186.102L186.097 187.169L182.362 191.044L169.967 203.755L166.237 207.557H166.206H166.164C163.87 208.024 161.818 209.438 161.078 211.334L160.497 212.266V212.302H160.456L155.846 213.742H155.789C153.717 213.095 151.831 212.976 150.707 213.463C150.27 213.635 149.905 213.951 149.671 214.359C149.516 214.758 149.49 214.929 149.469 214.923Z" fill="#161B46"/>
<g opacity="0.3">
<path opacity="0.3" d="M174.25 240.632C184.481 239.865 194.825 237.809 203.694 232.655C212.562 227.5 219.803 218.876 221.445 208.754C210.386 224.916 194.473 235.322 174.25 240.632Z" fill="#2D3259"/>
</g>
<path d="M220.943 208.972C220.914 209.028 220.882 209.081 220.844 209.132L220.534 209.598L219.311 211.36L218.425 212.634C218.089 213.09 217.69 213.561 217.281 214.079C216.436 215.115 215.54 216.317 214.375 217.513L212.603 219.435C211.981 220.098 211.267 220.725 210.567 221.409L209.485 222.445C209.118 222.81 208.733 223.156 208.33 223.481L205.864 225.553C198.37 231.547 189.788 236.037 180.591 238.777L177.483 239.627L176.732 239.829C176.483 239.891 176.214 239.938 175.986 239.989L174.52 240.29C173.556 240.476 172.634 240.704 171.738 240.839L169.148 241.196C167.506 241.471 165.993 241.518 164.673 241.626C164.015 241.668 163.398 241.73 162.834 241.745H158.581C158.517 241.752 158.453 241.752 158.389 241.745H158.581H159.135L161.28 241.699L162.834 241.668C163.398 241.642 164.009 241.574 164.667 241.528C165.983 241.404 167.49 241.347 169.127 241.062L171.717 240.684C172.613 240.549 173.53 240.316 174.489 240.124L175.949 239.818C176.193 239.761 176.467 239.72 176.695 239.653L177.441 239.446L180.549 238.591C189.702 235.809 198.241 231.309 205.708 225.33L208.174 223.258C208.578 222.926 208.972 222.595 209.329 222.222L210.412 221.186C211.116 220.507 211.831 219.886 212.453 219.228L214.235 217.322C215.405 216.136 216.307 214.934 217.161 213.918C217.576 213.4 217.98 212.945 218.322 212.494L219.228 211.235L220.487 209.505L220.824 209.054C220.896 209.018 220.938 208.966 220.943 208.972Z" fill="#161B46"/>
<path d="M223.207 198.114C223.171 197.985 223.145 197.854 223.129 197.721C223.077 197.467 223.036 197.089 222.932 196.607C222.642 195.25 222.202 193.93 221.622 192.67C220.755 190.805 219.6 189.088 218.198 187.583C216.468 185.753 214.385 184.292 212.075 183.289C209.74 182.344 207.248 181.845 204.73 181.818C202.672 181.774 200.613 181.899 198.576 182.191C196.825 182.419 195.421 182.668 194.432 182.833L193.308 183.02C193.179 183.05 193.047 183.065 192.914 183.066C193.039 183.022 193.167 182.989 193.297 182.968L194.411 182.73C195.375 182.533 196.778 182.253 198.524 181.999C200.58 181.682 202.66 181.538 204.74 181.569C207.293 181.586 209.818 182.095 212.178 183.066C214.53 184.077 216.647 185.564 218.394 187.433C219.805 188.965 220.959 190.714 221.813 192.613C222.383 193.89 222.799 195.231 223.051 196.607C223.139 197.094 223.16 197.477 223.196 197.736C223.211 197.862 223.215 197.988 223.207 198.114Z" fill="#161B46"/>
<path d="M210.381 160.943C210.287 161.041 210.187 161.132 210.081 161.217L209.184 161.958L205.854 164.657L194.8 173.463L185.139 181.093L185.035 181.176L184.978 181.062C183.906 178.99 183.025 177.291 182.388 176.079C182.093 175.504 181.87 175.043 181.694 174.706L181.518 174.343C181.495 174.303 181.478 174.259 181.466 174.214C181.497 174.248 181.523 174.286 181.544 174.328C181.601 174.421 181.668 174.535 181.746 174.675C181.932 175.011 182.181 175.457 182.492 176.027C183.139 177.223 184.046 178.907 185.149 180.963L184.994 180.927L194.618 173.255L205.719 164.506L209.102 161.875L210.029 161.171C210.139 161.084 210.257 161.008 210.381 160.943Z" fill="#161B46"/>
<path d="M206.087 166.278C206.149 166.319 204.263 169.588 201.87 173.582C199.477 177.576 197.488 180.782 197.426 180.782C197.364 180.782 199.249 177.477 201.642 173.478C204.035 169.479 206.025 166.278 206.087 166.278Z" fill="#161B46"/>
<path d="M212.681 244.071C212.603 244.071 213.09 238.207 213.758 230.992C214.427 223.776 215.038 217.933 215.11 217.938C215.183 217.943 214.701 223.776 214.028 231.028C213.354 238.28 212.754 244.076 212.681 244.071Z" fill="#161B46"/>
<g opacity="0.3">
<path opacity="0.3" d="M181.688 174.597L181.74 174.794L184.527 184.512L206.086 164.346L185.993 180.471" fill="#2D3259"/>
</g>
<path d="M151.987 244.071C151.992 243.968 152.009 243.865 152.039 243.766C152.096 243.543 152.163 243.248 152.246 242.916C152.437 242.175 152.691 241.103 152.987 239.772C154.531 232.839 155.261 225.75 155.162 218.648C155.162 217.285 155.116 216.182 155.079 215.421C155.079 215.063 155.079 214.773 155.053 214.545C155.041 214.442 155.041 214.338 155.053 214.234C155.082 214.334 155.098 214.437 155.1 214.54C155.1 214.768 155.147 215.058 155.178 215.415C155.245 216.177 155.307 217.28 155.349 218.643C155.558 225.771 154.826 232.896 153.173 239.834C152.857 241.165 152.572 242.232 152.349 242.942C152.246 243.284 152.158 243.564 152.09 243.781C152.069 243.882 152.034 243.979 151.987 244.071Z" fill="#161B46"/>
<path d="M157.84 230.282C157.807 230.07 157.796 229.854 157.809 229.64C157.809 229.225 157.809 228.63 157.809 227.894C157.76 225.975 157.598 224.06 157.322 222.16C157.032 220.258 156.626 218.376 156.105 216.524C155.913 215.814 155.742 215.239 155.623 214.846C155.549 214.643 155.495 214.433 155.462 214.219C155.571 214.405 155.657 214.604 155.721 214.809C155.872 215.198 156.068 215.763 156.291 216.467C156.857 218.315 157.284 220.202 157.571 222.113C157.852 224.024 157.989 225.953 157.98 227.884C157.98 228.625 157.949 229.225 157.918 229.64C157.917 229.856 157.891 230.072 157.84 230.282Z" fill="#161B46"/>
<path d="M164.383 230.836C164.345 230.584 164.332 230.329 164.341 230.075C164.341 229.588 164.315 228.878 164.279 228.003C164.174 225.735 163.931 223.476 163.549 221.238C163.153 219.002 162.618 216.793 161.948 214.623C161.689 213.794 161.471 213.121 161.311 212.66C161.217 212.423 161.144 212.179 161.093 211.929C161.218 212.151 161.324 212.384 161.409 212.623C161.601 213.074 161.844 213.737 162.129 214.566C163.591 218.897 164.379 223.427 164.465 227.998C164.465 228.873 164.465 229.583 164.465 230.07C164.464 230.327 164.436 230.584 164.383 230.836Z" fill="#161B46"/>
<path d="M100.135 165.687C100.135 165.687 97.9956 163.802 96.7472 163.957C95.1932 164.149 95.2761 166.516 95.2761 166.516C94.9808 167.801 98.3478 171.277 99.6324 173.157C100.917 175.037 109.526 186.511 109.526 186.511L121 178.301L120.482 175.234C119.964 172.168 114.743 161.284 114.743 161.284C114.743 161.284 108.635 151.292 107.744 150.22C106.853 149.148 100.523 146.076 100.228 145.967C100.228 145.967 98.41 148.039 100.052 149.427C100.896 150.147 104.383 152.592 104.383 152.592L107.449 158.037L107.423 158.477L103.989 153.535C103.989 153.535 102.58 152.261 101.3 152.069C100.021 151.878 97.9438 152.587 97.9438 152.587C97.6131 152.861 97.3724 153.227 97.2532 153.639C97.134 154.051 97.1418 154.49 97.2755 154.898L97.9127 155.664L99.3838 156.084L101.824 159.974C101.824 159.974 99.6376 158.72 98.757 159.497C98.3878 159.811 98.1043 160.213 97.9331 160.666C97.7619 161.119 97.7085 161.608 97.778 162.087C97.9023 163.041 100.135 165.687 100.135 165.687Z" fill="#9E5F58"/>
<path d="M110.935 158.373C110.578 158.481 110.232 158.62 109.899 158.788C109.381 159.119 109.148 159.606 109.075 159.575C109.003 159.544 109.075 159.42 109.153 159.212C109.293 158.946 109.5 158.722 109.753 158.56C110.007 158.398 110.298 158.305 110.598 158.29C110.8 158.285 110.935 158.337 110.935 158.373Z" fill="#794742"/>
<path d="M103.891 162.88C103.369 162.422 102.908 161.9 102.518 161.326C102.059 160.8 101.671 160.217 101.363 159.591C101.883 160.05 102.344 160.572 102.735 161.145C103.196 161.669 103.585 162.253 103.891 162.88Z" fill="#794742"/>
<path d="M101.425 167.868C100.995 167.492 100.627 167.052 100.332 166.563C99.9689 166.121 99.6754 165.627 99.4614 165.097C100.258 165.911 100.92 166.847 101.425 167.868Z" fill="#794742"/>
<path d="M181.958 177.622C181.905 177.889 181.829 178.151 181.73 178.404C181.57 178.922 181.347 179.637 181.093 180.539C180.575 182.346 179.917 184.859 179.156 187.625C178.395 190.391 177.659 192.888 177.048 194.675C176.747 195.561 176.488 196.281 176.286 196.747C176.195 197.005 176.086 197.256 175.96 197.498C176.009 197.228 176.086 196.965 176.188 196.71C176.359 196.192 176.587 195.488 176.866 194.592C177.426 192.8 178.141 190.303 178.897 187.532C179.653 184.76 180.347 182.258 180.907 180.461C181.192 179.565 181.425 178.845 181.627 178.353C181.717 178.101 181.828 177.856 181.958 177.622Z" fill="#161B46"/>
<path d="M242.704 243.978C242.704 244.056 191.784 244.113 128.987 244.113C66.19 244.113 15.2603 244.04 15.2603 243.978C15.2603 243.916 66.1693 243.843 128.987 243.843C191.805 243.843 242.704 243.89 242.704 243.978Z" fill="#161B46"/>
<path d="M24.957 117.798C24.9691 117.696 24.9864 117.594 25.0088 117.493C25.0555 117.275 25.1176 116.975 25.1953 116.602L25.9516 113.199C26.6198 110.225 27.5885 105.947 28.7851 100.668C31.2197 90.075 34.5763 75.4467 38.2903 59.2281L38.4613 58.4926L38.6271 59.2281C38.6944 59.5182 38.7617 59.829 38.8343 60.145C42.5328 76.5759 45.8791 91.4477 48.3085 102.227C49.4999 107.604 50.4685 111.961 51.1419 114.991C51.4683 116.488 51.7169 117.653 51.893 118.461L52.0847 119.368C52.121 119.57 52.1365 119.679 52.1365 119.679C52.1365 119.679 52.1002 119.575 52.0484 119.373C51.9966 119.171 51.9241 118.855 51.8257 118.477C51.6392 117.669 51.3647 116.509 51.0124 115.017C50.3131 111.997 49.3134 107.651 48.0754 102.279C45.6201 91.5254 42.2375 76.664 38.5027 60.2434L38.2903 59.3214H38.6271C34.8664 75.514 31.4787 90.132 29.0078 100.72C27.7698 105.993 26.7649 110.261 26.0656 113.224C25.7185 114.685 25.444 115.814 25.2523 116.617C25.1591 116.995 25.0865 117.286 25.0296 117.498C24.9726 117.71 24.957 117.798 24.957 117.798Z" fill="#161B46"/>
<path d="M24.9468 130.096V119.699H52.6909V130.096C52.6909 133.306 51.4154 136.385 49.1452 138.656C46.8749 140.926 43.7958 142.201 40.5852 142.201H37.0524C33.8418 142.201 30.7627 140.926 28.4924 138.656C26.2222 136.385 24.9468 133.306 24.9468 130.096Z" fill="#161B46"/>
<path d="M24.9468 119.699C25.0639 119.836 25.1696 119.981 25.2628 120.135L26.1071 121.424L29.1685 126.195L39.1452 141.999L39.2177 142.113H38.9224L48.6038 126.221L51.5668 121.43L52.3852 120.14C52.4748 119.985 52.5771 119.838 52.6909 119.699C52.6244 119.865 52.5429 120.025 52.4474 120.176C52.2557 120.502 51.9967 120.948 51.6808 121.502L48.811 126.345L39.2177 142.289L39.0726 142.528L38.9276 142.295L38.8551 142.181L28.9613 126.325L25.9983 121.497L25.2058 120.176C25.1071 120.024 25.0205 119.865 24.9468 119.699Z" fill="#161B46"/>
<path d="M41.5748 59.1556C41.5748 59.7549 41.397 60.3408 41.0641 60.8391C40.7311 61.3375 40.2578 61.7259 39.7041 61.9552C39.1504 62.1846 38.5411 62.2446 37.9533 62.1277C37.3655 62.0107 36.8255 61.7221 36.4017 61.2983C35.9779 60.8746 35.6893 60.3346 35.5724 59.7468C35.4555 59.159 35.5155 58.5497 35.7448 57.996C35.9742 57.4422 36.3626 56.969 36.8609 56.636C37.3592 56.303 37.9451 56.1253 38.5445 56.1253C39.3481 56.1253 40.1189 56.4446 40.6872 57.0129C41.2555 57.5811 41.5748 58.3519 41.5748 59.1556Z" fill="#161B46"/>
<path d="M38.5445 7.59387C38.6377 7.59387 38.7154 19.2644 38.7154 33.6545C38.7154 48.0445 38.6377 59.7202 38.5445 59.7202C38.4512 59.7202 38.3735 48.0549 38.3735 33.67C38.3735 19.2851 38.4512 7.59387 38.5445 7.59387Z" fill="#161B46"/>
<path d="M40.1189 143.331C40.1199 143.588 40.0446 143.84 39.9023 144.054C39.7601 144.269 39.5574 144.436 39.3199 144.536C39.0824 144.635 38.8208 144.661 38.5683 144.612C38.3157 144.562 38.0836 144.439 37.9012 144.257C37.7189 144.075 37.5945 143.844 37.5439 143.591C37.4933 143.339 37.5188 143.077 37.617 142.839C37.7153 142.602 37.8819 142.398 38.0958 142.255C38.3098 142.112 38.5614 142.036 38.8187 142.036C39.1627 142.036 39.4926 142.172 39.7363 142.415C39.9799 142.657 40.1175 142.987 40.1189 143.331Z" fill="#161B46"/>
<path d="M38.2438 143.818L38.4562 143.714C38.0888 143.948 37.7798 144.263 37.5526 144.634C37.3255 145.006 37.1863 145.425 37.1456 145.858C37.0692 146.728 37.1446 147.605 37.3684 148.448C37.4253 148.718 37.5652 149.054 37.8397 149.039C38.1143 149.023 38.2075 148.728 38.249 148.48C38.3378 147.966 38.3518 147.443 38.2904 146.926C38.2608 147.59 38.4744 148.242 38.8913 148.759C38.9742 148.863 39.0881 148.961 39.2124 148.93C39.3368 148.899 39.3834 148.764 39.4145 148.645C39.5292 148.21 39.5952 147.764 39.6113 147.314C39.6421 147.706 39.784 148.082 40.0205 148.397C40.083 148.471 40.1599 148.531 40.2464 148.575C40.333 148.619 40.4274 148.645 40.5242 148.651C40.6209 148.657 40.7179 148.644 40.8094 148.612C40.9009 148.58 40.9849 148.529 41.0565 148.464C41.1915 148.236 41.2306 147.964 41.1653 147.708C40.9451 146.152 40.3198 144.682 39.3523 143.445" fill="#161B46"/>
<path d="M26.6925 119.699C26.6925 119.699 14.2295 105.33 15.6177 104.812C17.0059 104.294 28.0808 112.256 28.0808 112.256C28.0808 112.256 18.5599 90.966 20.461 89.4068C22.3621 87.8476 32.4061 108.262 32.4061 108.262C32.4061 108.262 30.8521 78.4874 32.4061 78.1455C33.9601 77.8036 39.6581 107.92 39.6581 107.92C39.6581 107.92 48.174 80.404 50.5827 80.404C52.9914 80.404 47.9927 106.889 47.9927 106.889C47.9927 106.889 58.016 89.9248 59.57 92.1729C61.124 94.421 52.4734 112.774 52.4734 112.774C52.4734 112.774 65.1074 102.217 65.6306 103.6C66.1538 104.983 51.9554 119.699 51.9554 119.699H26.6925Z" fill="#00ACE9"/>
<path d="M24.9571 98.0626C25.04 98.0211 27.2519 102.761 29.8937 108.645C32.5355 114.53 34.6075 119.332 34.5194 119.373C34.4313 119.415 32.2247 114.67 29.5829 108.785C26.9411 102.901 24.8639 98.0988 24.9571 98.0626Z" fill="#161B46"/>
<path d="M35.0271 100.71C35.1204 100.71 35.4881 104.879 35.8456 110.034C36.203 115.188 36.4205 119.358 36.3221 119.389C36.2237 119.42 35.8611 115.219 35.5037 110.065C35.1463 104.911 34.9287 100.715 35.0271 100.71Z" fill="#161B46"/>
<path d="M48.9146 87.3762C48.9034 87.4909 48.8791 87.6039 48.842 87.7129C48.7643 87.9667 48.6763 88.2775 48.5675 88.6609C48.3033 89.5259 47.9511 90.6966 47.5315 92.1263C46.6509 95.0582 45.4595 99.1089 44.2629 103.616C43.0663 108.122 42.0666 112.23 41.3725 115.208L40.5437 118.736L40.3106 119.694C40.2907 119.807 40.2559 119.917 40.207 120.021C40.204 119.906 40.2162 119.791 40.2432 119.679C40.2899 119.42 40.3468 119.099 40.4142 118.71C40.5696 117.866 40.813 116.638 41.1342 115.157C41.7713 112.163 42.7296 108.044 43.9366 103.527C45.1435 99.0105 46.3608 94.9701 47.2984 92.0538C47.7646 90.5982 48.1583 89.4223 48.4432 88.6194C48.5779 88.2465 48.6918 87.9408 48.7799 87.6922C48.8087 87.5807 48.8541 87.4742 48.9146 87.3762Z" fill="#161B46"/>
<path d="M54.9079 102.719C54.9856 102.776 52.551 106.402 49.4741 110.821C46.3972 115.239 43.8382 118.783 43.7761 118.731C43.7139 118.679 46.1278 115.048 49.2099 110.629C52.292 106.211 54.8406 102.668 54.9079 102.719Z" fill="#161B46"/>
<path d="M30.9037 119.394C30.503 119.19 30.1347 118.928 29.8107 118.617C28.9871 117.928 28.2004 117.197 27.4538 116.426C26.7006 115.657 25.9899 114.848 25.3248 114.001C25.0217 113.669 24.7686 113.293 24.5737 112.888C24.6514 112.826 25.9464 114.395 27.6817 116.187C29.417 117.98 30.9659 119.316 30.9037 119.394Z" fill="#161B46"/>
<path d="M38.4719 113.685C38.5651 113.685 38.762 115.006 38.9122 116.648C39.0624 118.29 39.1091 119.637 39.0158 119.642C38.9226 119.648 38.7205 118.327 38.5703 116.679C38.4201 115.032 38.3787 113.696 38.4719 113.685Z" fill="#161B46"/>
<path d="M52.6908 126.18C52.3393 126.28 51.9809 126.354 51.6186 126.402C50.9244 126.521 49.9195 126.682 48.6711 126.853C45.4146 127.313 42.1365 127.603 38.8499 127.723C35.5635 127.845 32.2727 127.708 29.0079 127.314C27.7595 127.153 26.7546 126.988 26.0604 126.843C25.7008 126.784 25.3459 126.699 24.9985 126.589C25.3639 126.597 25.7278 126.637 26.0863 126.708C26.7805 126.817 27.7906 126.941 29.0389 127.076C32.2935 127.397 35.566 127.499 38.8343 127.381C42.6675 127.252 46.1226 126.894 48.6193 126.615L51.5823 126.268C51.9486 126.207 52.3195 126.177 52.6908 126.18Z" fill="white"/>
<path d="M52.6908 129.272C52.3409 129.379 51.982 129.453 51.6186 129.495C50.9244 129.619 49.9195 129.775 48.6711 129.951C45.414 130.405 42.1361 130.696 38.8499 130.821C35.5635 130.943 32.2727 130.806 29.0079 130.412C27.7595 130.246 26.7546 130.085 26.0604 129.935C25.6995 129.883 25.3441 129.798 24.9985 129.681C25.3639 129.694 25.7276 129.735 26.0863 129.806C26.7805 129.909 27.7906 130.039 29.0389 130.168C32.2934 130.492 35.5659 130.596 38.8343 130.479C42.6675 130.344 46.1226 129.992 48.6193 129.707L51.5823 129.365C51.9487 129.305 52.3194 129.274 52.6908 129.272Z" fill="white"/>
</svg>
