<svg width="329" height="201" viewBox="0 0 329 201" fill="none" xmlns="http://www.w3.org/2000/svg">
<mask id="mask0_735_25335" style="mask-type:alpha" maskUnits="userSpaceOnUse" x="0" y="0" width="329" height="201">
<rect width="329" height="201" rx="16" fill="#C4C4C4"/>
</mask>
<g mask="url(#mask0_735_25335)">
<path d="M272.5 -4C242.5 -4 203 11 190.5 22C185.292 26.5834 174.5 38 176.5 65C179.845 110.153 216 146.5 256 148.5C296 150.5 336 99 335.5 55.5C335 12 310 -4 272.5 -4Z" fill="#E6F7FD" fill-opacity="0.5"/>
<path d="M215.115 86.0264C198.247 91.7528 178.911 107.758 173.99 116.352C171.94 119.933 168.06 128.436 174.357 143.292C184.889 168.136 212.181 181.747 235.055 175.241C257.929 168.734 270.553 132.034 261.938 107.58C253.322 83.1261 236.2 78.8684 215.115 86.0264Z" fill="#CDF1FF"/>
<path d="M108.395 70.3753C118.683 63.5593 128.807 49.422 130.585 42.7959C131.326 40.035 132.423 33.6536 125.58 24.8149C114.136 10.0335 93.4489 5.73776 79.2762 14.1374C65.1035 22.5371 63.1312 49.3509 73.2227 64.2096C83.3141 79.0683 95.5357 78.8953 108.395 70.3753Z" fill="#E6F7FD" fill-opacity="0.5"/>
<path d="M52.596 12.3255C48.0662 10.3538 41.1124 10.031 38.4993 10.8766C37.4105 11.2289 35.0279 12.2499 33.5488 16.4734C31.0752 23.5364 34.1367 31.4212 40.0445 34.3533C45.9523 37.2853 55.3894 32.1091 58.1835 25.4836C60.9776 18.8581 58.2583 14.7901 52.596 12.3255Z" fill="#CDF1FF"/>
</g>
</svg>
