<svg width="11" height="15" viewBox="0 0 11 15" fill="none" xmlns="http://www.w3.org/2000/svg">
<path d="M9.65891 6.93521C10.7444 8.01997 10.7444 9.78017 9.65891 10.8656L5.7278 14.7967C5.45679 15.0678 5.01621 15.0678 4.7452 14.7967L0.814088 10.8656C-0.271363 9.78017 -0.271363 8.01997 0.814088 6.93452C1.89954 5.84906 3.65975 5.84906 4.7452 6.93452L5.23581 7.42582L5.7278 6.93452C6.81325 5.84906 8.57346 5.84906 9.65891 6.93452V6.93521ZM5.2365 0C6.77225 0 8.01614 1.24389 8.01614 2.77964C8.01614 4.3154 6.77225 5.55929 5.2365 5.55929C3.70075 5.55929 2.45686 4.3154 2.45686 2.77964C2.45686 1.24389 3.70075 0 5.2365 0Z" fill="#6E768D"/>
</svg>
