<svg width="109" height="83" viewBox="0 0 109 83" fill="none" xmlns="http://www.w3.org/2000/svg">
<path d="M15.8325 8.93778C15.8325 8.93778 28.1165 16.0608 30.7404 17.7137C33.3642 19.3666 37.2421 20.2624 38.9355 21.9616C40.2416 23.2764 46.8994 28.2119 49.1274 28.7668C51.3553 29.3216 51.9333 21.0224 51.9333 21.0224C51.9333 21.0224 41.6345 14.015 39.0337 12.4921C36.433 10.9692 17.7657 4.79688 17.7657 4.79688L15.8325 8.93778Z" fill="#B78876"/>
<path d="M9.07362 7.42647C9.07362 7.42647 11.3016 9.37123 11.9142 9.43191C12.5268 9.49259 16.1158 8.89154 16.1158 8.89154L18.1212 4.99915C18.1212 4.99915 14.6998 2.28285 13.9081 1.86095C13.1163 1.43906 8.41766 0 8.41766 0C8.36015 0.0200908 8.30784 0.0527318 8.26452 0.0955583C8.22119 0.138385 8.18795 0.190321 8.1672 0.247595C8.14645 0.304869 8.13871 0.366046 8.14454 0.426684C8.15038 0.487321 8.16964 0.545896 8.20094 0.598161C8.20094 0.598161 6.63184 -0.395885 6.13771 0.511474C6.08942 0.474759 6.03278 0.450586 5.97286 0.44112C5.91294 0.431653 5.85161 0.437187 5.79435 0.457227C5.7371 0.477267 5.6857 0.511184 5.64476 0.555951C5.60383 0.600718 5.57462 0.654935 5.55977 0.713751C5.50393 0.852487 5.47815 1.00149 5.48413 1.15092C5.4901 1.30035 5.5277 1.44682 5.59445 1.58065C5.59445 1.58065 4.97894 2.15859 5.40084 2.71919C5.82273 3.27979 8.98115 5.50773 8.98115 5.50773L10.4087 6.98435C10.4087 6.98435 9.14586 6.0192 8.65173 6.03076C8.15759 6.04232 8.23561 6.62314 8.23561 6.62314L9.07362 7.42647Z" fill="#B78876"/>
<path d="M10.0734 4.62331C9.27684 4.18459 8.50509 3.70224 7.76167 3.17847C6.99183 2.69656 6.24903 2.17273 5.53662 1.60938C6.33299 2.04844 7.10473 2.53077 7.84836 3.05421C8.61802 3.53641 9.36081 4.06022 10.0734 4.62331Z" fill="#995037"/>
<path d="M10.7496 3.3836C10.512 3.27645 10.2847 3.14781 10.0705 2.99928L8.46677 2.01101C7.83971 1.62379 7.27623 1.26836 6.87456 1.0054C6.64801 0.87471 6.43504 0.721763 6.23883 0.548828C6.47933 0.649591 6.71044 0.771435 6.92946 0.912931C7.34558 1.15566 7.92063 1.49087 8.5448 1.88386C9.16897 2.27686 9.72956 2.63518 10.1283 2.9097C10.3511 3.04593 10.5593 3.20474 10.7496 3.3836Z" fill="#995037"/>
<path d="M11.7928 2.38108C11.7697 2.41865 10.9981 1.97364 10.0272 1.47372C9.05626 0.973809 8.24716 0.606822 8.26449 0.563477C8.45699 0.599599 8.64365 0.661819 8.81931 0.748416C9.15451 0.884231 9.60819 1.0894 10.0965 1.3408C10.5849 1.5922 11.0155 1.84361 11.3189 2.03722C11.4912 2.13061 11.6505 2.24621 11.7928 2.38108Z" fill="#995037"/>
<path d="M12.7926 7.93516C12.5828 7.94205 12.3735 7.91173 12.1743 7.84558C11.1888 7.58541 10.3033 7.03705 9.63133 6.27071C9.48548 6.11925 9.36454 5.94565 9.27301 5.75635C9.74776 6.27143 10.2812 6.72919 10.8623 7.12027C11.4708 7.46834 12.1189 7.74193 12.7926 7.93516Z" fill="#995037"/>
<path d="M42.0998 21.0598L36.5545 3.4328C32.8268 3.01958 29.0587 5.02212 26.8914 8.0794C24.7241 11.1367 24.0508 15.0984 24.5652 18.8117C24.8079 20.5628 25.2963 22.2793 25.4668 24.0362C25.6373 25.7931 25.4668 27.6685 24.4698 29.1365C23.4729 30.6044 21.7391 31.5783 21.0658 33.2312C20.1989 35.3406 21.3721 37.6668 22.2968 39.7503C23.2215 41.8337 23.7994 44.5789 22.1436 46.1422C22.7478 46.1343 23.3412 45.9816 23.8741 45.697C24.4071 45.4125 24.864 45.0043 25.2067 44.5067C25.3507 44.9496 25.4055 45.4168 25.3678 45.8811C25.3301 46.3453 25.2007 46.7975 24.9871 47.2114C27.5387 47.85 30.2261 46.8155 32.4482 45.4025C36.4162 42.8761 39.4854 39.1616 41.2184 34.7885C42.9515 30.4155 43.2599 25.6069 42.0998 21.0483V21.0598Z" fill="#161B46"/>
<path d="M29.5816 9.35397L29.1309 10.7757C29.1049 11.9316 29.677 14.0728 30.3243 14.5525L45.0617 24.9091C46.0685 25.6161 47.2798 25.9725 48.5091 25.9234L49.8123 25.8685C52.7944 25.7442 54.7248 22.554 53.3261 19.9157C53.2618 19.7863 53.1823 19.6651 53.0892 19.5545C52.9984 19.4528 52.902 19.3563 52.8002 19.2656C52.1491 18.6257 51.4323 18.0562 50.6619 17.5664C49.402 16.5695 48.8818 16.1678 48.8934 16.1765C48.9049 16.1852 50.5174 13.151 47.4485 9.89723C45.9228 8.27901 43.0013 6.16666 40.5566 4.51376C40.0647 4.20707 39.5214 3.99171 38.9529 3.87803C34.9015 2.93889 30.8358 5.39222 29.5816 9.35397Z" fill="#B78876"/>
<path d="M42.8626 7.44378C42.9783 7.53468 43.0551 7.66632 43.0771 7.81185C43.0991 7.95737 43.0648 8.10581 42.9811 8.22688C42.9417 8.28744 42.8906 8.33949 42.8308 8.37996C42.771 8.42043 42.7037 8.44849 42.6328 8.4625C42.562 8.47651 42.489 8.47617 42.4183 8.46151C42.3476 8.44685 42.2805 8.41816 42.2211 8.37714C42.1049 8.28665 42.0276 8.15522 42.0051 8.00967C41.9825 7.86413 42.0163 7.71546 42.0997 7.59404C42.1396 7.5337 42.1911 7.48189 42.2512 7.44161C42.3113 7.40134 42.3788 7.3734 42.4497 7.35942C42.5207 7.34544 42.5938 7.3457 42.6646 7.36018C42.7355 7.37466 42.8028 7.40308 42.8626 7.44378Z" fill="#161B46"/>
<path d="M41.5594 6.26757C41.5767 6.36871 41.0623 6.51608 40.6925 6.99866C40.3226 7.48124 40.2879 8.02449 40.1897 8.03027C40.1434 8.03027 40.0827 7.89735 40.0885 7.65751C40.1045 7.33671 40.2196 7.02876 40.4179 6.77615C40.6107 6.52377 40.879 6.33952 41.1837 6.25023C41.412 6.18955 41.5565 6.22134 41.5594 6.26757Z" fill="#161B46"/>
<path d="M39.4151 12.0356C39.5309 12.1265 39.6076 12.2581 39.6296 12.4036C39.6516 12.5492 39.6173 12.6976 39.5336 12.8187C39.4943 12.8792 39.4432 12.9313 39.3833 12.9718C39.3235 13.0122 39.2562 13.0403 39.1854 13.0543C39.1145 13.0683 39.0416 13.068 38.9709 13.0533C38.9001 13.0386 38.8331 13.01 38.7736 12.9689C38.6574 12.8785 38.5802 12.747 38.5576 12.6015C38.535 12.4559 38.5689 12.3073 38.6523 12.1858C38.6922 12.1255 38.7437 12.0737 38.8037 12.0334C38.8638 11.9931 38.9313 11.9652 39.0023 11.9512C39.0733 11.9372 39.1463 11.9375 39.2172 11.952C39.2881 11.9665 39.3553 11.9949 39.4151 12.0356Z" fill="#161B46"/>
<path d="M37.9906 11.0846C38.0051 11.1858 37.4907 11.3303 37.1237 11.8157C36.7568 12.3012 36.7192 12.8387 36.6209 12.8444C36.5747 12.8444 36.514 12.7144 36.5198 12.4717C36.539 12.156 36.6539 11.8536 36.8492 11.6048C37.0429 11.3541 37.311 11.171 37.615 11.0817C37.8404 10.9979 37.9849 11.0355 37.9906 11.0846Z" fill="#161B46"/>
<path d="M42.9233 12.0932C43.0403 11.7778 43.1956 11.4779 43.3857 11.2003C43.4666 11.0674 43.533 10.9315 43.4666 10.8477C43.347 10.7381 43.1968 10.6675 43.036 10.6455L41.8166 10.2871C40.0828 9.76122 38.7073 9.28154 38.7304 9.21219C38.7535 9.14283 40.1752 9.50115 41.8946 10.0357L43.1083 10.4143C43.3169 10.4524 43.5058 10.5617 43.6428 10.7235C43.6726 10.7753 43.6901 10.8332 43.6941 10.8928C43.6981 10.9523 43.6885 11.0121 43.666 11.0674C43.6327 11.1502 43.5879 11.2281 43.533 11.2985C43.3645 11.5884 43.1596 11.8554 42.9233 12.0932Z" fill="#161B46"/>
<path d="M48.8934 16.168C47.6476 17.8345 45.9641 19.1229 44.03 19.8899C44.03 19.8899 47.3589 20.5805 49.7343 16.8268L48.8934 16.168Z" fill="#995037"/>
<path d="M43.9288 13.1971C43.7423 13.1988 43.5594 13.2482 43.3975 13.3408C43.2355 13.4334 43.1001 13.566 43.0041 13.726C42.9315 13.8402 42.8826 13.9679 42.8603 14.1014C42.838 14.235 42.8427 14.3716 42.8741 14.5033C42.9054 14.6296 42.9745 14.7435 43.072 14.8297C43.1696 14.9158 43.291 14.9703 43.4203 14.9859C43.5667 14.9745 43.7065 14.9198 43.8218 14.8287C43.9371 14.7376 44.0227 14.6143 44.0676 14.4744C44.1634 14.1841 44.2007 13.8776 44.1774 13.5728C44.1795 13.4884 44.1668 13.4043 44.1398 13.3243C44.1267 13.2865 44.1027 13.2534 44.0708 13.2292C44.0389 13.205 44.0006 13.1909 43.9606 13.1885" fill="#995037"/>
<path d="M42.1604 13.7724C42.2153 13.6915 42.7384 14.0932 43.4579 13.9313C44.1774 13.7695 44.5502 13.1685 44.6138 13.2205C44.6773 13.2725 44.6138 13.4227 44.4462 13.6655C44.2134 13.9754 43.8788 14.1934 43.5012 14.281C43.1385 14.3667 42.7566 14.3065 42.4378 14.1134C42.2124 13.966 42.1286 13.8071 42.1604 13.7724Z" fill="#161B46"/>
<path d="M36.2164 9.85954C36.3117 10.0098 35.8783 10.4375 35.5084 11.0616C35.1385 11.6858 34.9305 12.258 34.7658 12.2435C34.6849 12.2435 34.6213 12.0586 34.6357 11.7754C34.6705 11.4088 34.7881 11.0549 34.9799 10.7405C35.1716 10.426 35.4324 10.1594 35.7425 9.96068C35.9881 9.81619 36.1701 9.79019 36.2164 9.85954Z" fill="#161B46"/>
<path d="M39.34 4.7798C39.3863 4.95029 39.0135 5.19591 38.7014 5.5918C38.3893 5.98768 38.2044 6.38646 38.031 6.3749C37.9472 6.3749 37.8808 6.22753 37.8894 6.00213C37.9132 5.70614 38.0295 5.42511 38.2217 5.1988C38.4081 4.96715 38.6614 4.79863 38.947 4.71623C39.1667 4.66132 39.3227 4.70178 39.34 4.7798Z" fill="#161B46"/>
<path d="M36.9503 18.0834C36.6902 17.8811 35.8435 17.7106 35.6037 17.936C34.968 18.54 34.0664 19.8201 35.8031 21.1783C38.1784 23.0334 39.5597 20.268 39.4845 20.2102C39.4094 20.1524 37.8519 18.774 36.9503 18.0834Z" fill="#B78876"/>
<path d="M38.0195 20.2452C38.0051 20.2452 38.0195 20.3088 37.9935 20.4041C37.9588 20.5353 37.875 20.648 37.7594 20.7191C37.4705 20.8983 36.907 20.7971 36.4706 20.4735C36.2631 20.3196 36.0915 20.1224 35.9678 19.8955C35.9112 19.815 35.875 19.7218 35.8625 19.6242C35.8499 19.5265 35.8612 19.4272 35.8956 19.335C35.9203 19.278 35.9642 19.2315 36.0196 19.2036C36.075 19.1756 36.1385 19.1679 36.199 19.1818C36.2915 19.202 36.3262 19.254 36.3406 19.2425C36.355 19.2309 36.3406 19.1616 36.2279 19.1038C36.1584 19.0715 36.0801 19.0634 36.0054 19.0807C35.9046 19.1074 35.8184 19.1728 35.7656 19.2627C35.7088 19.3753 35.682 19.5006 35.6875 19.6266C35.6931 19.7526 35.7309 19.875 35.7973 19.9822C35.9238 20.2442 36.1123 20.4713 36.3464 20.644C36.8347 21.0023 37.4734 21.1063 37.8432 20.8405C37.9114 20.7911 37.9676 20.727 38.0076 20.653C38.0476 20.579 38.0705 20.4969 38.0744 20.4128C38.0744 20.2828 38.0311 20.2279 38.0195 20.2452Z" fill="#995037"/>
<path d="M38.6176 25.1318L40.8253 42.8195L37.141 43.3165V23.2246L38.6176 25.1318Z" fill="#5C5F7E"/>
<path opacity="0.3" d="M38.6176 25.1318L40.8253 42.8195L37.141 43.3165V23.2246L38.6176 25.1318Z" fill="#0E1339"/>
<path d="M34.2225 21.9788L34.0722 48.7806C34.0722 48.7806 34.3381 49.2314 35.6846 48.7806C37.0312 48.3298 38.0744 49.8325 38.0744 49.8325L37.6554 24.3628L37.141 19.8145L34.2225 21.9788Z" fill="#0064A7"/>
<path d="M33.0319 12.2062C33.0319 12.2062 33.3209 7.49021 34.7109 5.79397C36.1008 4.09773 39.0945 3.90412 39.0945 3.90412C39.0945 3.90412 37.8895 2.71935 34.7975 3.36086C33.8357 3.52752 32.9225 3.90455 32.1233 4.46502C31.324 5.02549 30.6584 5.75556 30.1741 6.60308C29.3071 8.04792 29.1367 10.7758 29.1367 10.7758L33.0319 12.2062Z" fill="#0064A7"/>
<path d="M46.9168 20.5978C46.9168 20.5978 59.4118 18.9449 62.1714 21.1931C64.9311 23.4412 72.4413 29.7032 74.9496 33.7545C76.0823 35.5808 77.6832 42.3253 77.2787 47.1019L62.4633 47.5932L61.5964 40.2707L51.3438 35C51.3438 35 44.2843 31.908 43.8595 27.1805C43.4348 22.453 46.9168 20.5978 46.9168 20.5978Z" fill="#B78876"/>
<path d="M46.9168 20.5975C46.9168 20.5975 56.1956 24.6922 56.8197 26.4029C56.8197 26.4029 57.8253 28.758 57.4468 30.3329L53.5342 36.1382L60.7901 39.8659L69.4245 27.2669L63.7232 21.528C62.9979 20.8952 61.7553 19.8838 60.8335 19.6237C59.736 19.3871 58.6267 19.2086 57.5104 19.0891C56.2736 18.9129 52.2251 18.9591 52.2251 18.9591L46.9168 20.5975Z" fill="#161B46"/>
<path d="M67.1937 39.4268C66.2806 39.6453 65.3565 39.815 64.4254 39.9353C63.5017 40.1027 62.57 40.2223 61.634 40.2937C62.547 40.0748 63.4711 39.9051 64.4023 39.7851C65.3257 39.6158 66.2575 39.4962 67.1937 39.4268Z" fill="#995037"/>
<path d="M64.1104 24.2907C64.0873 24.2907 63.9428 23.9786 63.6365 23.4989C62.8296 22.2472 61.6574 21.2737 60.2787 20.7104C59.7528 20.4965 59.4118 20.4214 59.4118 20.3867C59.4959 20.3862 59.5796 20.3979 59.6603 20.4214C59.8833 20.4691 60.1025 20.5328 60.3163 20.6121C61.7472 21.1316 62.9527 22.1328 63.7261 23.444C63.8433 23.6393 63.9457 23.8431 64.0324 24.0537C64.0931 24.2127 64.122 24.2907 64.1104 24.2907Z" fill="#161B46"/>
<path d="M67.37 25.1953L58.6403 38.7537L60.7931 39.8604L69.4245 27.2614L67.37 25.1953Z" fill="#E6F7FD" fill-opacity="0.5"/>
<path d="M19.4938 73.3139L12.8475 73.8918L11.342 72.2678C10.6109 71.5078 10.1312 72.2418 9.37123 72.9729L0.0751343 81.8818C0.0751343 81.8818 0.531707 83.2342 1.49686 82.8672C2.46201 82.5002 10.426 80.3965 10.426 80.3965L17.1965 80.0266L19.4938 73.3139Z" fill="#00ACE9"/>
<path d="M19.4938 73.3139C19.4858 73.3524 19.4742 73.3902 19.4591 73.4266C19.4331 73.5104 19.3955 73.6231 19.3493 73.7675L18.9072 75.0939C18.5113 76.2642 17.9449 77.9518 17.2398 80.0439V80.0786H17.2023L10.426 80.4629L5.4875 81.7951L2.8261 82.5406C2.37531 82.6706 1.92452 82.8007 1.47084 82.9538C1.3469 82.9952 1.21538 83.0089 1.08556 82.994C0.955737 82.979 0.83079 82.9357 0.719531 82.8671C0.508403 82.7243 0.333316 82.5344 0.208057 82.3123C0.131341 82.1816 0.0665438 82.0443 0.0144493 81.902L0 81.8586L0.0346747 81.824L7.07104 75.0881C8.146 74.0594 9.16317 73.1 10.1052 72.184C10.2309 72.0707 10.377 71.9825 10.5358 71.9239C10.6181 71.8957 10.7053 71.8842 10.7921 71.8902C10.879 71.8962 10.9637 71.9194 11.0415 71.9586C11.1855 72.0304 11.3148 72.1284 11.4229 72.2476L11.7321 72.5828L12.888 73.8456L12.8475 73.8311L17.7368 73.4294L19.0401 73.3283L19.3753 73.3023H19.4851C19.4449 73.3094 19.4044 73.3142 19.3637 73.3168L19.0199 73.3514L17.7022 73.4815L12.8562 73.938H12.8302L12.8128 73.9178L11.6396 72.6637C11.4553 72.4272 11.2338 72.2222 10.9837 72.0568C10.9191 72.0248 10.8488 72.006 10.7768 72.0015C10.7048 71.997 10.6327 72.007 10.5647 72.0308C10.4211 72.0863 10.2889 72.1676 10.1746 72.2707C9.24986 73.1809 8.22691 74.1519 7.15773 75.1835L0.138703 81.9396L0.158933 81.8615C0.206765 81.9939 0.266739 82.1216 0.338092 82.243C0.45099 82.4433 0.608133 82.6153 0.797549 82.7458C0.890473 82.8041 0.995303 82.8409 1.10432 82.8534C1.21334 82.8659 1.32378 82.8538 1.4275 82.818C1.8754 82.6649 2.33486 82.529 2.78565 82.4048L5.44704 81.6621L10.4028 80.33L17.1762 79.9775L17.13 80.0121C17.8524 77.9431 18.4361 76.2787 18.8407 75.1199L19.3117 73.7878C19.3637 73.6404 19.4071 73.5248 19.436 73.4381L19.4938 73.3139Z" fill="#161B46"/>
<path d="M8.76147 73.678C8.77881 73.6578 8.96953 73.8196 9.31629 74.0016C9.76676 74.2446 10.2654 74.3849 10.7765 74.4124C11.2877 74.4399 11.7985 74.3539 12.2724 74.1606C12.6394 74.0161 12.8504 73.8716 12.8504 73.8976C12.6998 74.0587 12.5152 74.184 12.31 74.2646C11.8271 74.4944 11.2944 74.5997 10.7604 74.5709C10.2264 74.5422 9.70811 74.3802 9.25272 74.0999C9.06067 73.996 8.89315 73.8521 8.76147 73.678Z" fill="#161B46"/>
<path d="M2.83191 79.2583C2.98746 79.3082 3.12836 79.3955 3.24225 79.5126C3.54408 79.7766 3.76205 80.1231 3.86931 80.5095C3.97196 80.8909 3.99362 81.2896 3.93288 81.6799C3.92198 81.8424 3.87979 82.0014 3.80863 82.148C3.78769 81.9897 3.78769 81.8294 3.80863 81.6712C3.83443 81.2954 3.80029 80.9179 3.70749 80.5529C3.60391 80.1931 3.4145 79.8639 3.15555 79.5935C2.96484 79.3883 2.81746 79.2785 2.83191 79.2583Z" fill="#161B46"/>
<path d="M61.7351 44.1197L62.2148 46.4719L59.9464 48.5438C59.9464 48.5438 54.1179 51.8467 54.8548 58.8253L46.7203 68.2601C46.7203 68.2601 33.6994 70.1037 30.2232 70.6412C27.3335 71.0891 16.0637 73.6783 16.0637 73.6783L16.4654 80.5384C16.4654 80.5384 43.8913 79.7697 45.628 79.6165C49.0956 79.3276 51.7397 80.1367 54.586 77.7585C56.6406 76.0507 70.7133 62.0531 70.7133 62.0531L70.6006 42.9292L61.7351 44.1197Z" fill="#0064A7"/>
<path d="M13.4486 10.2988C13.4486 10.2988 25.7413 17.4248 28.3565 19.0892C30.9716 20.7537 34.8611 21.6408 36.5516 23.3399C37.8606 24.6519 44.5184 29.5903 46.7435 30.1423C48.9685 30.6942 49.5494 22.3979 49.5494 22.3979C49.5494 22.3979 39.2563 15.3904 36.6643 13.8676C34.0722 12.3447 15.3962 6.17236 15.3962 6.17236L13.4486 10.2988Z" fill="#B78876"/>
<path d="M51.1242 29.3998C51.1011 29.3998 50.9566 29.0501 50.6763 28.4953C49.9441 27.0516 48.9335 25.7671 47.7028 24.7156C47.2318 24.3111 46.9168 24.0885 46.9313 24.0654C47.0159 24.0988 47.0956 24.1436 47.1682 24.1984C47.3768 24.3324 47.5784 24.4771 47.7722 24.6318C49.0604 25.6521 50.0925 26.9593 50.7861 28.4491C50.8942 28.6732 50.9906 28.9028 51.0751 29.1368C51.1044 29.2215 51.1209 29.3102 51.1242 29.3998Z" fill="#995037"/>
<path d="M48.2807 21.5225C48.2512 21.5102 48.2231 21.4947 48.1969 21.4763L47.9629 21.3318L47.0671 20.7539L43.7844 18.6155L38.9297 15.4368L37.5253 14.5121L36.8029 14.0353L36.618 13.9169L36.4244 13.8186L36.0314 13.6221C34.9535 13.1309 33.8063 12.6859 32.6273 12.238C27.9027 10.4695 23.5769 8.99575 20.4502 7.90345L16.7486 6.63199L15.7429 6.27945L15.4829 6.18698C15.4526 6.17794 15.4235 6.16533 15.3962 6.14941L15.4858 6.17253L15.7516 6.25055L16.7659 6.5742L20.4849 7.81965C23.6202 8.87727 27.9518 10.3308 32.6794 12.105C33.8612 12.5501 35.0084 12.998 36.0949 13.495L36.4966 13.6973L36.696 13.7984L36.8781 13.9198L37.6034 14.3966L39.002 15.3241L43.8422 18.5375L47.0988 20.7163L47.9658 21.3145L48.1911 21.4734C48.2232 21.4854 48.2534 21.5019 48.2807 21.5225Z" fill="#995037"/>
<path d="M13.4486 10.2988C13.4812 10.3091 13.5123 10.3237 13.5411 10.3422L13.7983 10.4838L14.7865 11.0415L18.3957 13.1163L23.7359 16.2256C24.7357 16.8208 25.7875 17.4421 26.8769 18.0865L28.5241 19.0892C29.0901 19.4281 29.6748 19.7349 30.2752 20.0081C31.4918 20.5716 32.717 21.0398 33.87 21.5715C34.4387 21.8251 34.9908 22.1147 35.5229 22.4384C35.6529 22.5222 35.7829 22.6002 35.9043 22.6898L36.2684 22.9787C36.4938 23.181 36.7105 23.3833 36.9186 23.5769C37.7855 24.3398 38.6668 25.0217 39.4933 25.6344C40.3197 26.247 41.1028 26.8162 41.8252 27.3133C42.9593 28.1126 44.1372 28.8477 45.3535 29.5152C45.6837 29.6962 46.0243 29.8573 46.3736 29.9978L46.6626 30.096C46.6949 30.1045 46.726 30.1171 46.755 30.1336L46.6597 30.1105L46.3707 30.0267C46.0145 29.8982 45.6679 29.7446 45.3333 29.5672C44.103 28.9191 42.914 28.1953 41.7732 27.4C41.0421 26.9087 40.2562 26.3481 39.4239 25.7355C38.5917 25.1229 37.7132 24.4467 36.8232 23.6809C36.0228 22.814 34.9507 22.2361 33.8035 21.7102C32.6563 21.1843 31.4311 20.7161 30.2087 20.1497C29.6026 19.8753 29.0131 19.5655 28.4431 19.2222L26.796 18.2194L23.6636 16.3527L18.3437 13.2087L14.7605 11.0906L13.7896 10.5127L13.5382 10.3595L13.4486 10.2988Z" fill="#995037"/>
<path d="M6.68968 8.79041C6.68968 8.79041 8.91761 10.7323 9.53023 10.7958C10.1428 10.8594 13.7318 10.2526 13.7318 10.2526L15.7401 6.37463C15.7401 6.37463 12.3159 3.65545 11.5241 3.23355C10.7323 2.81166 6.03372 1.37549 6.03372 1.37549C5.97629 1.39523 5.92401 1.42756 5.88068 1.47011C5.83736 1.51266 5.80409 1.56435 5.78331 1.62141C5.76254 1.67847 5.75478 1.73946 5.76061 1.7999C5.76644 1.86035 5.7857 1.91872 5.81699 1.97076C5.81699 1.97076 4.25079 0.976715 3.75665 1.88407C3.70802 1.84409 3.65 1.81717 3.58806 1.80588C3.52613 1.79459 3.46233 1.7993 3.40272 1.81955C3.34312 1.83981 3.28966 1.87495 3.24743 1.92163C3.2052 1.96832 3.17558 2.02502 3.16138 2.08635C3.10562 2.22521 3.08012 2.37436 3.0866 2.52386C3.09308 2.67335 3.13138 2.81974 3.19894 2.95325C3.19894 2.95325 2.58055 3.53119 3.00534 4.09179C3.43012 4.65239 6.61743 6.87166 6.61743 6.87166L8.04204 8.34829C8.04204 8.34829 6.78214 7.38313 6.28512 7.39469C5.78809 7.40625 5.869 7.98708 5.869 7.98708L6.68968 8.79041Z" fill="#B78876"/>
<path d="M7.68946 5.98761C6.89309 5.54854 6.12135 5.06621 5.37772 4.54277C4.60714 4.0616 3.86339 3.53876 3.14978 2.97656C3.9466 3.41486 4.71837 3.89723 5.46152 4.4214C6.23249 4.90198 6.97627 5.42484 7.68946 5.98761Z" fill="#995037"/>
<path d="M8.36565 4.74782C8.12883 4.63803 7.90167 4.5085 7.68657 4.36061L6.09147 3.37522C5.4673 2.98512 4.90092 2.63258 4.49926 2.36673C4.2727 2.23604 4.05974 2.08309 3.86353 1.91016C4.10505 2.00989 4.33634 2.1328 4.55416 2.27715C4.97316 2.51699 5.54532 2.85508 6.16949 3.24519C6.79366 3.63529 7.35715 3.99651 7.75304 4.27103C7.97417 4.40692 8.17962 4.56682 8.36565 4.74782Z" fill="#995037"/>
<path d="M9.40873 3.74199C9.31888 3.70852 9.2327 3.66591 9.15155 3.61484L8.43491 3.23919C7.81651 2.92421 6.92649 2.48498 5.85442 1.98507L5.82264 1.97062V1.93594C5.80495 1.83 5.79913 1.72242 5.8053 1.61519C5.8052 1.54656 5.82547 1.47945 5.86353 1.42236C5.9016 1.36526 5.95575 1.32074 6.01913 1.29443H6.03936L8.92904 2.23647L10.3883 2.71905C10.6253 2.79707 10.8565 2.86931 11.0819 2.95311C11.2972 3.05697 11.504 3.17775 11.7002 3.31432C12.4573 3.83157 13.1104 4.33149 13.6566 4.75916C14.2027 5.18683 14.6419 5.52781 14.9396 5.77055L15.2834 6.05951C15.3243 6.09148 15.3621 6.12728 15.3961 6.16643C15.3487 6.14388 15.304 6.11575 15.2632 6.08263L14.9049 5.81967L13.6045 4.83718C13.0497 4.42973 12.3909 3.93849 11.6338 3.4328C11.4493 3.30495 11.2562 3.19005 11.0558 3.08893C10.8362 3.0109 10.5993 2.93866 10.3652 2.86064L8.92037 2.38095L6.03069 1.42736H6.06248C6.01913 1.42736 5.96712 1.53717 5.96134 1.62675C5.94805 1.72261 5.94805 1.81985 5.96134 1.91572L5.92377 1.86659C6.99296 2.38095 7.8772 2.83463 8.48692 3.17272C8.77589 3.34033 9.02729 3.47903 9.18622 3.57728C9.26528 3.62526 9.33975 3.6804 9.40873 3.74199Z" fill="#995037"/>
<path d="M10.4086 9.29889C10.1988 9.30167 9.99 9.27044 9.79022 9.20642C9.29958 9.07911 8.83098 8.87842 8.40028 8.61115C7.96827 8.34412 7.57866 8.01393 7.24441 7.63155C7.09747 7.48162 6.97726 7.30766 6.88898 7.11719C7.80718 8.19085 9.03593 8.95313 10.4057 9.29889H10.4086Z" fill="#995037"/>
<path d="M93.2297 68.2805L93.6111 77.4263L93.5649 79.6398C93.5649 80.6945 94.4318 80.5067 95.4721 80.5067L108.346 80.5703C108.346 80.5703 108.958 79.2786 108.01 78.8711C107.063 78.4637 99.8846 74.4557 99.8846 74.4557L100.353 67.6938L93.2297 68.2805Z" fill="#00ACE9"/>
<path d="M93.2297 68.2802C93.2684 68.2701 93.3082 68.2642 93.3482 68.2628L93.7065 68.2282L95.108 68.101L100.347 67.6387H100.408V67.6994C100.278 69.6181 100.119 71.9154 99.954 74.4641L99.9193 74.4005L104.58 76.9695C105.404 77.4202 106.248 77.8797 107.112 78.3363L107.768 78.6744C107.88 78.7293 107.984 78.7726 108.103 78.8362C108.164 78.8652 108.221 78.9011 108.273 78.9431C108.329 78.9823 108.377 79.0312 108.415 79.0876C108.576 79.3061 108.648 79.5781 108.614 79.8476C108.591 80.1091 108.525 80.3649 108.418 80.6047L108.386 80.6394H108.337H107.554L97.4689 80.5844H95.2062C94.8397 80.609 94.4716 80.5945 94.1082 80.5411C94.0129 80.5246 93.922 80.4893 93.8406 80.4372C93.7592 80.3851 93.6891 80.3173 93.6343 80.2377C93.5388 80.0771 93.4907 79.8927 93.4955 79.706C93.5129 79.0144 93.5273 78.3488 93.5389 77.7092C93.5389 77.0706 93.5013 76.4522 93.484 75.8656C93.4002 73.525 93.3279 71.6293 93.2817 70.3087C93.2586 69.6614 93.2413 69.1529 93.2297 68.8061C93.2297 68.6414 93.2297 68.5171 93.2297 68.4189C93.2257 68.3766 93.2257 68.334 93.2297 68.2917C93.2297 68.2917 93.2297 68.3409 93.2297 68.4304C93.2297 68.52 93.2297 68.6587 93.2499 68.8263C93.2702 69.1789 93.2933 69.6932 93.3279 70.3405C93.3886 71.6553 93.4782 73.5452 93.588 75.8772C93.6082 76.4551 93.6603 77.0706 93.6516 77.7092C93.6429 78.3478 93.6314 79.0125 93.6198 79.7031C93.6136 79.8654 93.6548 80.0261 93.7383 80.1654C93.7842 80.2316 93.8428 80.288 93.9108 80.3311C93.9788 80.3743 94.0547 80.4035 94.1342 80.4168C94.4875 80.465 94.8448 80.4767 95.2005 80.4515H97.466L107.551 80.4949H108.334L108.268 80.5353C108.367 80.313 108.428 80.0757 108.45 79.8331C108.48 79.6015 108.422 79.3668 108.285 79.1772C108.116 79.0097 107.912 78.8823 107.687 78.8044L107.031 78.4634C106.164 78.0069 105.32 77.5445 104.497 77.0937L99.8384 74.5132L99.8037 74.493V74.4525C99.9858 71.9038 100.15 69.6065 100.286 67.6907L100.341 67.7456L95.1398 68.1472L93.7267 68.2513L93.3568 68.2773L93.2297 68.2802Z" fill="#161B46"/>
<path d="M96.4025 80.4312C96.3765 80.4312 96.3534 80.1885 96.2292 79.8128C96.0728 79.3263 95.8125 78.8796 95.4663 78.5038C95.1169 78.1289 94.6912 77.8333 94.2179 77.6369C93.8538 77.4895 93.6082 77.4462 93.6111 77.4201C93.8316 77.4096 94.0517 77.4481 94.2555 77.5329C94.7624 77.7029 95.2186 77.9973 95.5826 78.389C95.9465 78.7806 96.2065 79.2572 96.339 79.7753C96.411 79.986 96.4328 80.2106 96.4025 80.4312Z" fill="#161B46"/>
<path d="M104.546 80.5467C104.467 80.4022 104.426 80.2402 104.427 80.0757C104.394 79.6754 104.477 79.274 104.667 78.9199C104.861 78.5759 105.123 78.2758 105.439 78.0385C105.56 77.9284 105.701 77.843 105.855 77.7871C105.855 77.8073 105.725 77.9229 105.511 78.1223C105.232 78.3718 104.995 78.6645 104.809 78.9892C104.633 79.3193 104.541 79.6873 104.54 80.0613C104.557 80.2226 104.559 80.3851 104.546 80.5467Z" fill="#161B46"/>
<path d="M77.2614 42.0365L77.5243 44.1546C77.5243 44.1546 91.9149 40.4731 96.8938 40.4731C99.7633 40.4731 102.743 43.7443 102.173 48.9746C101.543 54.7539 100.052 74.1148 100.052 74.1148L93.4927 74.5714C93.4927 74.5714 91.8167 63.2178 91.6895 58.9671C91.6036 57.0575 91.7228 55.1442 92.045 53.26C92.045 53.26 88.2884 55.8896 85.0433 57.3055C82.4108 58.4614 75.0305 62.559 68.9564 62.1949C63.1771 61.851 59.9464 57.6378 60.559 52.8843C61.2496 47.5153 63.992 45.4 63.992 45.4L70.6093 42.9583L77.2614 42.0365Z" fill="#0064A7"/>
<path d="M70.722 62.0529C70.6513 62.0743 70.5787 62.0888 70.5053 62.0963C70.298 62.1348 70.0886 62.1609 69.8782 62.1743C69.1045 62.2336 68.3264 62.184 67.5665 62.0269C67.04 61.9178 66.5238 61.7641 66.0234 61.5675C65.4514 61.3383 64.9027 61.0548 64.3849 60.7208C63.1799 59.967 62.1864 58.919 61.4979 57.6754C60.8094 56.4319 60.4485 55.0336 60.4492 53.6122C60.4412 52.9962 60.4915 52.3808 60.5995 51.7743C60.7008 51.2476 60.8468 50.7304 61.0358 50.2284C61.3043 49.4996 61.675 48.8127 62.1368 48.1883C62.2601 48.0179 62.3933 47.8548 62.5355 47.6999C62.5812 47.642 62.6315 47.5879 62.6858 47.5381C62.6486 47.6013 62.606 47.6612 62.5587 47.7172C62.4778 47.8357 62.3304 48.0062 62.1859 48.2229C61.7466 48.8535 61.3929 49.5395 61.1341 50.2631C60.7443 51.3345 60.559 52.4695 60.5879 53.6093C60.5947 55.0077 60.9532 56.3819 61.6304 57.6055C62.3076 58.829 63.2816 59.8626 64.463 60.611C64.9721 60.9424 65.511 61.2258 66.0725 61.4577C66.565 61.6529 67.0723 61.8085 67.5896 61.9229C68.3408 62.0867 69.1102 62.1518 69.8782 62.1165C70.1499 62.1165 70.3608 62.0732 70.5024 62.0645C70.5751 62.0544 70.6486 62.0505 70.722 62.0529Z" fill="#161B46"/>
<path d="M79.4893 43.5909C79.4893 43.6314 78.1167 44.0591 76.3973 44.5503C74.678 45.0416 73.2765 45.4028 73.2649 45.3623C73.2533 45.3219 74.6375 44.8942 76.3569 44.4058C78.0762 43.9175 79.4893 43.5505 79.4893 43.5909Z" fill="#161B46"/>
<path d="M94.6687 48.564C94.6861 48.5813 94.4462 48.8529 94.0908 49.2835C93.6318 49.8598 93.222 50.4736 92.8656 51.1184C92.5127 51.767 92.2141 52.4435 91.9727 53.1412C91.887 53.4354 91.7857 53.7247 91.6693 54.0081C91.669 53.925 91.6807 53.8423 91.7039 53.7625C91.7328 53.6064 91.7877 53.3811 91.8686 53.1065C92.3026 51.6778 93.031 50.3558 94.007 49.2257C94.1526 49.0533 94.308 48.8892 94.4722 48.7345C94.5936 48.6275 94.6601 48.564 94.6687 48.564Z" fill="#161B46"/>
</svg>
