<svg width="208" height="208" viewBox="0 0 208 208" fill="none" xmlns="http://www.w3.org/2000/svg">
<path d="M174.624 47.2369L173.73 45.7601C166.2 33.3508 152.58 25.8711 138.228 26.778C136.381 26.8934 134.544 27.1451 132.733 27.531C119.679 30.3265 108.322 40.1982 103.613 52.8363C100.847 60.2702 100.073 68.8315 94.8189 74.7345C87.9798 82.4138 76.3734 82.6385 66.1648 82.3348C55.9562 82.0311 44.3456 82.2891 37.5398 89.9975C33.28 94.8481 31.9239 101.7 32.2691 108.16C33.176 125.283 45.1069 140.608 60.2784 148.2C75.4499 155.792 93.313 156.491 109.92 153.142C133.182 148.454 155.301 135.579 168.601 115.702C181.9 95.8257 185.261 68.7067 174.624 47.2369Z" fill="#F4F5FB"/>
<path d="M54.8085 60.5612C63.9549 60.5612 71.3695 53.1466 71.3695 44.0002C71.3695 34.8538 63.9549 27.4392 54.8085 27.4392C45.6621 27.4392 38.2476 34.8538 38.2476 44.0002C38.2476 53.1466 45.6621 60.5612 54.8085 60.5612Z" fill="#F4F5FB"/>
<path d="M96.2891 25.0939C96.6711 25.0138 97.0241 24.8313 97.3103 24.5658C97.5965 24.3004 97.8051 23.9621 97.9136 23.5872C98.0222 23.2123 98.0267 22.8149 97.9267 22.4376C97.8266 22.0603 97.6258 21.7174 97.3457 21.4456C97.5197 21.3535 97.6739 21.2281 97.7994 21.0765C97.9249 20.9248 98.0193 20.75 98.0773 20.5618C98.1352 20.3737 98.1556 20.176 98.1371 19.98C98.1186 19.7841 98.0618 19.5936 97.9697 19.4196C97.8777 19.2456 97.7522 19.0915 97.6006 18.966C97.449 18.8404 97.2741 18.746 97.086 18.6881C96.8979 18.6301 96.7002 18.6098 96.5042 18.6282C96.3082 18.6467 96.1178 18.7036 95.9438 18.7956C95.9834 18.4645 95.9274 18.129 95.7824 17.8286C95.6375 17.5283 95.4096 17.2758 95.1257 17.1008C94.8418 16.9258 94.5137 16.8357 94.1803 16.8412C93.8469 16.8467 93.5219 16.9475 93.2439 17.1316C92.9649 16.8968 92.6289 16.7395 92.2699 16.6755C91.9108 16.6115 91.5413 16.643 91.1982 16.7669C90.8552 16.8908 90.5508 17.1027 90.3155 17.3814C90.0802 17.6601 89.9223 17.9957 89.8577 18.3547C89.6818 18.0287 89.4059 17.7678 89.0707 17.6103C88.7355 17.4528 88.3586 17.407 87.9954 17.4797C87.6322 17.5523 87.3019 17.7395 87.0531 18.0139C86.8042 18.2882 86.6499 18.6351 86.6129 19.0036C85.9182 18.7998 85.0945 18.6251 84.5329 19.0827C83.9713 19.5403 83.9796 20.2849 83.9963 20.963C83.9859 21.7665 84.0641 22.5686 84.2292 23.355C84.5316 24.5686 85.2389 25.6428 86.2343 26.4001C86.7151 26.9027 87.3454 27.2366 88.0312 27.352C88.7171 27.4674 89.4219 27.3583 90.0407 27.0408" fill="#161B46"/>
<path d="M97.1572 27.8721C97.3816 27.7231 97.572 27.5283 97.716 27.3006C97.86 27.0729 97.9542 26.8173 97.9926 26.5507C98.031 26.284 98.0126 26.0122 97.9387 25.7532C97.8648 25.4941 97.7371 25.2535 97.5638 25.0472C97.3905 24.8409 97.1756 24.6736 96.9332 24.5561C96.6907 24.4385 96.4262 24.3736 96.1569 24.3653C95.8876 24.3571 95.6196 24.4058 95.3705 24.5083C95.1213 24.6108 94.8966 24.7648 94.7111 24.9601C94.5031 25.164 94.2951 25.4302 94.0122 25.4469C93.7293 25.4635 93.513 25.2513 93.28 25.0974C92.9803 24.8989 92.6301 24.7903 92.2706 24.7843C91.9112 24.7784 91.5575 24.8753 91.2514 25.0638C90.9452 25.2523 90.6994 25.5244 90.5429 25.8481C90.3864 26.1717 90.3257 26.5334 90.368 26.8904C89.4071 26.4744 88.0759 26.5992 87.5892 27.5227C87.1732 28.3547 87.6557 29.4238 88.4544 29.8981C89.2943 30.3141 90.25 30.4343 91.1667 30.2392C93.3744 29.9144 95.4276 28.9146 97.0448 27.3771" fill="#00ACE9"/>
<path d="M91.1788 27.9139C91.158 27.9679 90.8418 27.8431 90.6088 27.5187C90.3759 27.1942 90.3676 26.8531 90.4258 26.8447C90.484 26.8364 90.5839 27.111 90.7877 27.3897C90.9916 27.6684 91.212 27.8723 91.1788 27.9139Z" fill="white"/>
<path d="M94.5937 27.6731C94.5313 27.6731 94.5937 27.1989 94.4231 26.6539C94.2525 26.1089 94.0071 25.7262 94.0695 25.6846C94.3703 25.9042 94.5733 26.2326 94.6353 26.5998C94.764 26.949 94.749 27.3349 94.5937 27.6731V27.6731Z" fill="white"/>
<path d="M96.426 27.2238C96.3636 27.2238 96.4842 26.7454 96.3761 26.188C96.2679 25.6305 96.0017 25.2437 96.0516 25.2021C96.3315 25.4484 96.5205 25.7816 96.5884 26.1482C96.6563 26.5148 96.5991 26.8936 96.426 27.2238V27.2238Z" fill="white"/>
<path d="M89.8165 29.0867C89.8165 29.1117 89.6668 29.1117 89.4546 29.0243C89.1802 28.9013 88.9456 28.7041 88.7773 28.455C88.609 28.2058 88.5136 27.9146 88.502 27.6141C88.502 27.3853 88.5519 27.248 88.5768 27.2522C88.6436 27.6308 88.7714 27.9961 88.9554 28.3338C89.309 28.8621 89.8581 29.0285 89.8165 29.0867Z" fill="white"/>
<path d="M109.408 49.4502C110.114 49.22 110.711 48.7376 111.084 48.0953C111.457 47.453 111.58 46.6957 111.43 45.9683C111.837 45.6852 112.182 45.3216 112.443 44.9C112.705 44.4784 112.877 44.0077 112.95 43.517C113.022 43.0262 112.993 42.5258 112.865 42.0467C112.737 41.5675 112.511 41.1197 112.203 40.7309C112.592 40.3971 112.872 39.9542 113.006 39.4597C113.14 38.9651 113.123 38.4416 112.956 37.957C112.79 37.4725 112.481 37.0492 112.071 36.7419C111.661 36.4347 111.168 36.2577 110.656 36.2339C110.873 35.6647 110.936 35.0482 110.839 34.4467C110.742 33.8452 110.488 33.2799 110.103 32.8078C109.718 32.3357 109.215 31.9736 108.645 31.7578C108.076 31.542 107.459 31.4803 106.858 31.5789C106.953 30.9684 106.868 30.3434 106.613 29.7807C106.358 29.218 105.944 28.7421 105.422 28.4115C104.9 28.0809 104.293 27.91 103.675 27.9199C103.057 27.9298 102.456 28.12 101.945 28.4672C100.389 26.3664 96.8198 26.2374 95.1225 28.2259C93.1465 27.0195 90.2054 27.9222 89.2444 30.0272C87.9548 28.8249 85.7043 29.2534 84.5311 30.5721C83.358 31.8909 83.0793 33.7878 83.2207 35.5641C82.7531 35.7804 82.3513 36.1169 82.0562 36.5392C81.7611 36.9615 81.5834 37.4546 81.5411 37.968C81.4988 38.4815 81.5935 38.997 81.8155 39.4619C82.0375 39.9268 82.3788 40.3245 82.8047 40.6144C81.174 42.6403 81.615 45.9974 83.7158 47.5283C83.5722 48.6548 83.7645 49.7985 84.2685 50.8161C84.7725 51.8337 85.5657 52.6798 86.5487 53.2483" fill="#161B46"/>
<path d="M88.5796 39.2747L87.8433 37.1947L100.856 35.1147C104.858 34.811 109.051 38.9377 109.176 42.948C109.326 47.4033 109.33 52.8488 108.706 56.1518C107.458 62.8078 102.308 63.4942 102.308 63.4942L101.892 73.9733L87.186 73.3867L88.5796 39.2747Z" fill="#A2675F"/>
<path d="M106.769 47.3203C106.761 47.5386 106.671 47.746 106.517 47.9005C106.362 48.055 106.155 48.145 105.937 48.1523C105.717 48.159 105.504 48.0789 105.344 47.9293C105.183 47.7797 105.088 47.5728 105.08 47.3535C105.086 47.1349 105.176 46.9269 105.33 46.7722C105.485 46.6175 105.693 46.5278 105.912 46.5215C106.131 46.5148 106.344 46.5949 106.504 46.7445C106.665 46.8941 106.76 47.101 106.769 47.3203Z" fill="#161B46"/>
<path d="M107.692 45.7187C107.584 45.8269 106.952 45.3277 106.028 45.3027C105.105 45.2778 104.419 45.7187 104.323 45.6022C104.277 45.5482 104.389 45.3526 104.689 45.1446C105.097 44.8815 105.576 44.7494 106.062 44.7661C106.54 44.7786 107.002 44.9433 107.38 45.2362C107.659 45.465 107.747 45.673 107.692 45.7187Z" fill="#161B46"/>
<path d="M97.6743 46.8382C97.668 47.0569 97.5784 47.2649 97.4237 47.4196C97.269 47.5743 97.061 47.6639 96.8423 47.6702C96.6237 47.677 96.4112 47.5974 96.2508 47.4487C96.0905 47.3 95.9951 47.0941 95.9854 46.8756C95.9916 46.657 96.0813 46.449 96.236 46.2943C96.3907 46.1396 96.5987 46.0499 96.8174 46.0436C97.036 46.0369 97.2484 46.1164 97.4088 46.2651C97.5692 46.4138 97.6646 46.6197 97.6743 46.8382Z" fill="#161B46"/>
<path d="M98.4298 45.6065C98.3217 45.7147 97.6852 45.2155 96.7658 45.1905C95.8465 45.1656 95.1559 45.6065 95.0602 45.4901C95.0103 45.4401 95.1226 45.2405 95.4263 45.0366C95.8323 44.7716 96.3105 44.6393 96.795 44.658C97.2746 44.6705 97.7379 44.8352 98.1178 45.1281C98.3924 45.3445 98.4839 45.5566 98.4298 45.6065Z" fill="#161B46"/>
<path d="M101.774 52.5533C102.265 52.4155 102.771 52.34 103.28 52.3287C103.513 52.3287 103.738 52.2704 103.783 52.1124C103.807 51.8696 103.76 51.6252 103.646 51.4093L103.001 49.5997C102.111 47.0205 101.475 44.9031 101.579 44.8656C101.683 44.8282 102.49 46.8957 103.38 49.4707L104 51.2928C104.138 51.5816 104.171 51.9102 104.091 52.2205C104.053 52.3047 103.995 52.3787 103.923 52.4365C103.851 52.4943 103.766 52.5343 103.675 52.5533C103.539 52.5852 103.399 52.5992 103.259 52.5949C102.764 52.6445 102.265 52.6305 101.774 52.5533V52.5533Z" fill="#161B46"/>
<path d="M102.337 63.4906C99.12 63.446 95.9757 62.524 93.2437 60.824C93.2437 60.824 95.3611 65.5623 102.287 65.1546L102.337 63.4906Z" fill="#6F4C47"/>
<path d="M98.1122 40.7683C98.0623 41.0304 97.1346 41.0595 96.0904 41.3632C95.0463 41.6669 94.2268 42.0954 94.0479 41.8957C93.9688 41.8 94.0812 41.5421 94.389 41.2467C94.7484 40.8033 95.269 40.5205 95.8367 40.4605C96.3775 40.3028 96.9484 40.2786 97.5007 40.3898C97.9042 40.4855 98.133 40.6477 98.1122 40.7683Z" fill="#161B46"/>
<path d="M107.67 42.8191C107.491 43.0146 106.876 42.7483 106.115 42.6818C105.353 42.6152 104.7 42.7109 104.567 42.4821C104.513 42.3698 104.629 42.1701 104.925 41.9954C105.319 41.7787 105.772 41.6927 106.219 41.7499C106.664 41.7939 107.085 41.974 107.425 42.2658C107.679 42.5029 107.745 42.7234 107.67 42.8191Z" fill="#161B46"/>
<path d="M95.2378 34.9856C95.3703 35.5259 95.6396 36.023 96.0199 36.4291C96.2153 36.6248 96.4759 36.7419 96.752 36.758C97.0282 36.7741 97.3006 36.6881 97.5175 36.5164C97.6682 36.678 97.853 36.8039 98.0585 36.885C98.264 36.966 98.485 37.0003 98.7054 36.9851C98.9257 36.97 99.14 36.9059 99.3325 36.7974C99.5249 36.689 99.6908 36.539 99.818 36.3584C100.143 36.6601 100.557 36.8472 100.998 36.8907C101.439 36.9343 101.882 36.8321 102.26 36.5996L104.248 37.0156C104.968 37.1737 105.867 37.2694 106.308 36.6787C106.412 36.5456 106.486 36.3708 106.64 36.3001C106.808 36.2545 106.985 36.2545 107.152 36.3001C107.44 36.3177 107.728 36.2626 107.989 36.1397C108.25 36.0168 108.476 35.8302 108.645 35.5971C108.979 35.1271 109.229 34.6038 109.386 34.0495C109.677 33.2175 109.906 32.1359 109.224 31.5535C108.939 31.3534 108.611 31.2236 108.267 31.175C107.592 30.9784 106.884 30.9245 106.187 31.0169C105.337 31.2533 104.599 31.7859 104.107 32.5187C104.178 32.2902 104.159 32.043 104.052 31.8285C103.946 31.614 103.762 31.4485 103.537 31.3664C103.074 31.2222 102.573 31.2671 102.143 31.4911C101.498 31.7867 100.953 32.2637 100.575 32.864C100.016 32.8638 99.4682 33.0195 98.9928 33.3134C98.5174 33.6073 98.1333 34.0279 97.8836 34.528C97.6337 34.363 97.3529 34.2506 97.0583 34.1977C96.7636 34.1447 96.4613 34.1524 96.1696 34.2201C96.0662 34.2367 95.9673 34.274 95.8786 34.3297C95.79 34.3855 95.7135 34.4586 95.6538 34.5446C95.6273 34.5884 95.6107 34.6375 95.6053 34.6884C95.5999 34.7393 95.6057 34.7908 95.6224 34.8393C95.639 34.8877 95.6661 34.9318 95.7017 34.9686C95.7374 35.0054 95.7807 35.0339 95.8285 35.0521" fill="#161B46"/>
<path d="M101.678 35.3858C101.502 35.8322 101.477 36.3237 101.606 36.7856C101.736 37.2476 102.012 37.6548 102.393 37.9455C102.775 38.2362 103.241 38.3946 103.72 38.3966C104.2 38.3986 104.667 38.2442 105.051 37.9566C105.214 38.41 105.533 38.7908 105.95 39.0308C106.368 39.2709 106.857 39.3546 107.331 39.267C107.326 39.8378 107.475 40.3993 107.762 40.8927C108.049 41.386 108.463 41.793 108.962 42.0709C108.717 42.6508 108.701 43.3016 108.916 43.893C108.976 44.0839 109.074 44.2609 109.203 44.4137C109.332 44.5665 109.491 44.6921 109.669 44.7832C109.892 44.8622 110.129 44.8945 110.365 44.8781C110.601 44.8616 110.832 44.7967 111.042 44.6875C111.356 44.5684 111.643 44.3864 111.885 44.1524C112.127 43.9185 112.318 43.6377 112.448 43.3272C112.565 43.0112 112.565 42.664 112.449 42.3477C112.333 42.0314 112.109 41.7666 111.815 41.6008C112.397 41.0711 112.855 40.419 113.155 39.6914C113.258 39.4922 113.32 39.2746 113.339 39.0511C113.358 38.8277 113.332 38.6027 113.263 38.3893C113.223 38.2865 113.162 38.1937 113.082 38.1176C113.002 38.0415 112.907 37.9839 112.802 37.9489C112.698 37.9139 112.587 37.9025 112.477 37.9153C112.368 37.9282 112.263 37.965 112.169 38.0232C112.344 37.6977 112.424 37.3294 112.399 36.9607C112.374 36.5919 112.245 36.2377 112.028 35.9387C111.811 35.6397 111.514 35.4082 111.171 35.2706C110.828 35.1331 110.453 35.0951 110.089 35.1611C110.084 34.8501 109.991 34.5469 109.819 34.2874C109.647 34.0278 109.405 33.8228 109.121 33.6964C108.837 33.57 108.522 33.5275 108.215 33.5741C107.907 33.6206 107.619 33.7541 107.385 33.9589" fill="#161B46"/>
<path d="M93.6976 34.6364C93.76 33.8044 92.9862 33.143 92.1834 33.0307C91.3683 32.9826 90.5574 33.1781 89.8538 33.5923C89.4725 33.1507 88.965 32.8366 88.3997 32.6923C87.8344 32.548 87.2385 32.5804 86.6922 32.7852C85.6147 33.2012 84.9242 34.2454 84.0339 34.99C83.5229 35.3325 83.0694 35.7537 82.6902 36.238C82.3658 36.758 82.3741 37.5651 82.9024 37.8771C82.5497 38.0003 82.2368 38.2161 81.9964 38.502C81.7559 38.7879 81.597 39.1333 81.5361 39.5019C81.4752 39.8704 81.5147 40.2486 81.6505 40.5966C81.7862 40.9446 82.0132 41.2496 82.3075 41.4796C82.4947 41.6252 82.7235 41.7542 82.7984 41.9788C82.8412 42.1742 82.8208 42.3782 82.7402 42.5612C82.424 43.4556 81.9331 44.2918 81.7418 45.2195C81.5504 46.1471 81.7418 47.2579 82.5446 47.7779C82.7526 47.9152 83.0106 48.0233 83.1062 48.2563C83.1583 48.4129 83.1583 48.5822 83.1062 48.7388C82.9262 49.2503 82.7007 49.7445 82.4323 50.2156C82.1631 50.6898 82.0744 51.2454 82.1827 51.7798C82.2504 52.0435 82.4196 52.2697 82.6534 52.4091C82.8871 52.5486 83.1665 52.5901 83.4307 52.5244C83.0771 53.5478 83.1021 54.7667 83.7635 55.6195C84.425 56.4723 86.6214 56.8675 87.9235 56.0688L88.0442 53.0112C87.8694 52.4745 88.7056 49.6083 88.3603 49.0259C88.3603 49.0259 87.441 51.0144 89.5085 50.6899C90.1782 50.8729 91.4678 48.9011 91.5594 48.1939C91.5813 47.8451 91.5043 47.4973 91.3372 47.1904C91.1701 46.8835 90.9198 46.63 90.615 46.4592C91.1895 46.0018 91.585 45.3572 91.7325 44.6379C91.88 43.9186 91.7701 43.1703 91.4221 42.5238C91.8001 42.4815 92.1522 42.3111 92.4198 42.0407C92.6874 41.7704 92.8543 41.4166 92.8927 41.0382C92.9311 40.6598 92.8387 40.2796 92.631 39.9611C92.4232 39.6425 92.1125 39.4047 91.7507 39.2873C92.2141 39.1509 92.6436 38.9184 93.0112 38.605C93.3788 38.2916 93.6762 37.9043 93.8842 37.4683C94.0922 37.0323 94.206 36.5574 94.2183 36.0745C94.2306 35.5916 94.1411 35.1116 93.9555 34.6656" fill="#161B46"/>
<path d="M83.7158 35.2399C83.7158 35.2399 83.6159 35.2981 83.487 35.4687C83.2544 35.8044 83.1441 36.2098 83.1743 36.6171C83.2046 37.0244 83.3737 37.409 83.6534 37.7067C83.8868 37.9408 84.1773 38.11 84.4961 38.1975C84.8149 38.2851 85.151 38.288 85.4713 38.2059L85.3049 38.0395C85.2622 38.2146 85.2551 38.3965 85.2841 38.5744C85.3131 38.7523 85.3776 38.9226 85.4738 39.075C85.5699 39.2275 85.6958 39.359 85.8438 39.4618C85.9919 39.5646 86.1591 39.6366 86.3355 39.6734C86.512 39.7103 86.694 39.7113 86.8708 39.6763C87.0477 39.6413 87.2156 39.5712 87.3648 39.47C87.5139 39.3687 87.6412 39.2386 87.739 39.0872C87.8368 38.9358 87.9031 38.7662 87.934 38.5886H87.622C87.6685 38.8079 87.7689 39.0122 87.9142 39.1829C88.0594 39.3536 88.245 39.4853 88.454 39.5662C88.7265 39.6769 89.0282 39.693 89.311 39.612C89.5878 39.5286 89.8255 39.3485 89.9807 39.1045C90.1301 38.8795 90.2098 38.6154 90.2098 38.3453C90.2098 38.0752 90.1301 37.8111 89.9807 37.5861L89.7852 37.8066C90.1924 38.0258 90.6402 38.1593 91.101 38.1986C91.5618 38.238 92.0258 38.1824 92.4642 38.0354C93.0285 37.8377 93.5272 37.4879 93.9053 37.0247C94.2833 36.5615 94.5261 36.0029 94.6067 35.4104C94.641 35.2472 94.641 35.0786 94.6067 34.9154C94.5224 35.5199 94.3051 36.0982 93.9702 36.6085C93.5841 37.1648 93.0257 37.5785 92.3811 37.7858C91.9762 37.9105 91.5506 37.953 91.1291 37.9109C90.7076 37.8687 90.2988 37.7427 89.9267 37.5403L89.3235 37.2034L89.7395 37.7608C89.8524 37.9348 89.9126 38.1378 89.9126 38.3453C89.9126 38.5528 89.8524 38.7558 89.7395 38.9298C89.6226 39.1135 89.4436 39.249 89.2351 39.3117C89.0266 39.3743 88.8025 39.3598 88.6038 39.2709C88.4433 39.2111 88.3002 39.1125 88.187 38.9841C88.0738 38.8556 87.994 38.7012 87.9548 38.5346L87.7801 37.5944L87.6387 38.5429C87.6074 38.6862 87.5477 38.8217 87.4631 38.9415C87.3786 39.0613 87.2709 39.163 87.1465 39.2406C87.022 39.3181 86.8833 39.37 86.7385 39.393C86.5937 39.4161 86.4457 39.4099 86.3033 39.3749C86.0481 39.2849 85.8342 39.1055 85.7011 38.87C85.5681 38.6344 85.5248 38.3586 85.5795 38.0936L85.6419 37.8607L85.4131 37.9272C85.1369 38.0045 84.8455 38.0091 84.5671 37.9405C84.2887 37.872 84.0327 37.7327 83.8239 37.5362C83.6643 37.3805 83.5393 37.1931 83.4568 36.9859C83.3744 36.7788 83.3365 36.5567 83.3455 36.3339C83.3669 35.9423 83.4949 35.564 83.7158 35.2399V35.2399Z" fill="#737690"/>
<path d="M108.58 31.5625C108.632 31.6844 108.657 31.8167 108.651 31.9493C108.645 32.0217 108.622 32.0917 108.585 32.1538C108.547 32.2159 108.496 32.2684 108.434 32.3071C108.355 32.3583 108.263 32.3856 108.168 32.3856C108.074 32.3856 107.981 32.3583 107.902 32.3071L107.631 32.1199L107.765 32.4236C107.856 32.6664 107.874 32.9307 107.816 33.1837C107.759 33.4367 107.628 33.6671 107.44 33.8463C107.196 34.0569 106.88 34.1649 106.558 34.1479C106.237 34.1308 105.934 33.99 105.714 33.7548L105.556 33.5842L105.464 33.7964C105.309 34.1533 105.067 34.4656 104.76 34.7045C104.454 34.9435 104.091 35.1016 103.708 35.1641C103.324 35.2266 102.93 35.1917 102.563 35.0625C102.196 34.9332 101.868 34.7139 101.608 34.4245L101.512 34.3122L101.396 34.4079C100.848 34.869 100.185 35.1724 99.4778 35.2857C98.9261 35.3831 98.3606 35.3704 97.8138 35.2482C97.3202 35.1163 96.843 34.9293 96.3911 34.6908C96.3911 34.6908 96.4868 34.8031 96.7073 34.957C97.0322 35.1699 97.3889 35.33 97.7639 35.4313C98.3404 35.5915 98.944 35.6298 99.5361 35.5436C100.299 35.4398 101.019 35.1274 101.616 34.6409H101.408C101.699 34.9732 102.069 35.226 102.484 35.3756C102.9 35.5252 103.346 35.5666 103.782 35.4958C104.218 35.4251 104.628 35.2445 104.975 34.9712C105.322 34.6979 105.593 34.3408 105.764 33.9337L105.514 33.9753C105.751 34.2386 106.074 34.4082 106.426 34.4534C106.777 34.4986 107.133 34.4163 107.429 34.2216C107.725 34.0268 107.941 33.7325 108.039 33.3919C108.136 33.0513 108.108 32.6871 107.96 32.3653L107.823 32.4818C107.933 32.5475 108.06 32.5793 108.188 32.5734C108.316 32.5675 108.439 32.524 108.542 32.4485C108.616 32.3926 108.676 32.3202 108.717 32.2372C108.758 32.1542 108.78 32.0628 108.78 31.9701C108.759 31.654 108.58 31.55 108.58 31.5625Z" fill="#737690"/>
<path d="M96.8467 27.565C96.8467 27.59 96.9881 27.5068 97.2336 27.4943C97.4036 27.4877 97.5731 27.5173 97.7309 27.5812C97.8887 27.645 98.0311 27.7416 98.1488 27.8645C98.3097 28.0576 98.422 28.2864 98.4763 28.5317C98.5305 28.7771 98.5252 29.0319 98.4608 29.2748C98.2807 29.8894 97.9488 30.4488 97.4956 30.9013L97.7244 31.1218C97.8825 30.9596 98.2528 31.1218 98.3526 31.3215C98.4049 31.4545 98.4301 31.5967 98.4265 31.7396C98.4229 31.8825 98.3907 32.0233 98.3318 32.1535C98.1496 32.6451 97.8661 33.093 97.4998 33.4681C97.135 33.8015 96.7394 34.0996 96.3184 34.3583C96.3184 34.3583 96.4723 34.3583 96.7344 34.246C97.0794 34.0937 97.397 33.8857 97.6745 33.6303C98.0934 33.2496 98.4206 32.7788 98.6313 32.2533C98.7079 32.0884 98.7496 31.9094 98.7539 31.7276C98.7582 31.5458 98.725 31.3651 98.6563 31.1967C98.5571 31.0019 98.3853 30.854 98.1779 30.7849C98.0694 30.7422 97.9514 30.7297 97.8364 30.7487C97.7214 30.7678 97.6137 30.8176 97.5248 30.893V30.893L97.7536 31.1135C98.2455 30.6201 98.596 30.0038 98.7686 29.3289C98.8359 29.0425 98.8308 28.7438 98.7538 28.4598C98.6769 28.1758 98.5304 27.9155 98.3276 27.7023C98.1836 27.5672 98.0102 27.4673 97.8212 27.4103C97.6321 27.3533 97.4324 27.3408 97.2377 27.3737C96.9299 27.4277 96.8384 27.5525 96.8467 27.565Z" fill="#737690"/>
<path d="M85.9551 29.981C86.3306 29.8309 86.7257 29.7357 87.1283 29.6982C87.5724 29.6808 88.0127 29.7859 88.4012 30.0018C88.8904 30.2826 89.268 30.7233 89.4703 31.2498L89.5743 31.5202L89.7366 31.279C89.9044 31.0398 90.1432 30.8595 90.4191 30.7634C90.6951 30.6674 90.9942 30.6605 91.2743 30.7437C91.5543 30.827 91.8011 30.9961 91.9798 31.2273C92.1585 31.4584 92.26 31.7399 92.27 32.0319V32.2191L92.4531 32.1775C92.7228 32.1231 93.0011 32.1277 93.2689 32.1909C93.5367 32.254 93.7877 32.3744 94.0047 32.5436C94.3522 32.817 94.5887 33.2072 94.6703 33.6418C94.7295 34.0407 94.704 34.4475 94.5955 34.8358C94.5955 34.8358 94.6828 34.7484 94.7618 34.5446C94.8711 34.2454 94.904 33.9237 94.8575 33.6086C94.7885 33.1219 94.5426 32.6776 94.167 32.3606C93.9223 32.1577 93.6358 32.0115 93.328 31.9324C93.0202 31.8532 92.6987 31.8432 92.3865 31.903L92.5695 32.0486C92.5663 31.6882 92.4477 31.3384 92.231 31.0505C92.0143 30.7626 91.7111 30.5517 91.3657 30.4488C91.0204 30.346 90.6511 30.3565 90.3123 30.479C89.9734 30.6015 89.6827 30.8293 89.4828 31.1292L89.7491 31.1625C89.5083 30.578 89.0654 30.0996 88.5011 29.8146C88.0684 29.5905 87.5796 29.498 87.095 29.5484C86.7819 29.5784 86.4779 29.6703 86.2006 29.8188C86.0342 29.8854 85.9468 29.9519 85.9551 29.981Z" fill="#737690"/>
<path d="M86.0112 19.3943C86.175 19.1852 86.384 19.0159 86.6227 18.8993C86.8974 18.7755 87.2098 18.765 87.4922 18.8702C87.6722 18.939 87.8326 19.0507 87.9595 19.1958C88.0864 19.3408 88.1759 19.5146 88.2202 19.7022L88.3574 20.3262L88.4614 19.6939C88.5233 19.3784 88.6734 19.087 88.8943 18.8536C89.1152 18.6201 89.3979 18.4542 89.7094 18.3751C90.0734 18.3023 90.4512 18.3532 90.7829 18.5198C91.1145 18.6864 91.381 18.9591 91.5398 19.2945L91.6022 19.4359L91.7478 19.3735C91.9396 19.2915 92.1467 19.2518 92.3552 19.2571C92.7119 19.2504 93.0607 19.3624 93.3468 19.5755C93.633 19.7886 93.8402 20.0907 93.936 20.4343C94.0101 20.7437 93.9964 21.0677 93.8965 21.3697C93.7965 21.6718 93.6143 21.94 93.3703 22.1441L92.9875 22.4311L93.4618 22.3854C93.701 22.3676 93.9405 22.416 94.1541 22.5253C94.3676 22.6347 94.5469 22.8007 94.6723 23.0052C94.7678 23.1664 94.825 23.3474 94.8394 23.5342C94.8538 23.7211 94.8251 23.9087 94.7555 24.0826C94.6234 24.396 94.4021 24.6637 94.1191 24.8522C94.1191 24.8522 94.2231 24.8522 94.3811 24.7482C94.6102 24.5968 94.7897 24.3812 94.897 24.1284C94.9895 23.932 95.034 23.7164 95.0268 23.4994C95.0196 23.2824 94.9608 23.0702 94.8554 22.8804C94.7158 22.63 94.508 22.4243 94.2561 22.2873C94.0043 22.1504 93.7187 22.0877 93.4327 22.1066L93.5283 22.3479C93.8213 22.1149 94.0424 21.8038 94.1661 21.4504C94.2897 21.0971 94.3109 20.716 94.2272 20.3511C94.1166 19.9406 93.8726 19.5785 93.5338 19.3217C93.1949 19.065 92.7803 18.9281 92.3552 18.9326C92.1038 18.9313 91.8548 18.9809 91.6231 19.0782L91.8311 19.1614C91.6645 18.7856 91.3805 18.474 91.0216 18.2736C90.6627 18.0732 90.2485 17.9948 89.8412 18.0502C89.4339 18.1055 89.0556 18.2917 88.7632 18.5806C88.4709 18.8696 88.2803 19.2456 88.2202 19.6523H88.4656C88.4068 19.4297 88.2935 19.2253 88.1359 19.0575C87.9783 18.8897 87.7813 18.7639 87.5629 18.6913C87.3997 18.6391 87.2277 18.6199 87.057 18.6349C86.8863 18.6499 86.7202 18.6988 86.5686 18.7787C86.3806 18.8756 86.2203 19.0187 86.1027 19.1947C86.0195 19.3153 86.0029 19.3902 86.0112 19.3943Z" fill="#737690"/>
<path d="M76.6892 21.6824C76.9728 21.4916 77.3084 21.3928 77.6501 21.3995C77.8418 21.4038 78.0298 21.4531 78.1989 21.5434C78.3679 21.6338 78.5134 21.7626 78.6236 21.9195C78.7572 22.1227 78.8319 22.359 78.8392 22.6021C78.8465 22.8452 78.7863 23.0855 78.6652 23.2964L78.1244 24.1659L78.8607 23.4504C79.0693 23.2669 79.3331 23.1583 79.6104 23.1417C79.8877 23.1251 80.1626 23.2015 80.3916 23.3588C80.6335 23.5563 80.7901 23.8393 80.8288 24.1492C80.8675 24.459 80.7854 24.7719 80.5996 25.0228L80.8617 25.1892C80.9357 25.0344 81.0395 24.8956 81.1672 24.7808C81.2948 24.6661 81.4438 24.5776 81.6057 24.5204C81.7675 24.4632 81.9391 24.4385 82.1105 24.4476C82.2819 24.4567 82.4498 24.4995 82.6047 24.5736C82.7596 24.6476 82.8984 24.7514 83.0131 24.879C83.1279 25.0067 83.2164 25.1557 83.2735 25.3176C83.3307 25.4794 83.3554 25.6509 83.3463 25.8224C83.3372 25.9938 83.2944 26.1617 83.2204 26.3166L83.4617 26.2667C83.3806 26.1723 83.3359 26.052 83.3359 25.9276C83.3359 25.8032 83.3806 25.6829 83.4617 25.5886C83.5477 25.4958 83.6579 25.4287 83.7798 25.3949C83.9018 25.3612 84.0307 25.3619 84.1522 25.3972C84.3946 25.4834 84.6093 25.6331 84.774 25.8307C84.9386 26.0283 85.0472 26.2665 85.0882 26.5204L85.3295 26.4372C85.2866 26.3215 85.2784 26.1957 85.3057 26.0753C85.333 25.9549 85.3948 25.8451 85.4834 25.7592C85.5612 25.6734 85.6573 25.6064 85.7647 25.5631C85.872 25.5199 85.9878 25.5016 86.1033 25.5096C86.3029 25.527 86.497 25.5842 86.6742 25.6777C86.8514 25.7713 87.008 25.8994 87.135 26.0545C87.551 26.5828 87.7215 26.9656 87.759 26.9406C87.7408 26.8456 87.7071 26.7542 87.6591 26.6702C87.5494 26.4186 87.4098 26.1811 87.2431 25.963C87.1093 25.7832 86.9396 25.633 86.7449 25.5221C86.5501 25.4111 86.3345 25.3417 86.1116 25.3182C85.964 25.306 85.8155 25.3265 85.6767 25.3783C85.5379 25.43 85.4123 25.5118 85.3087 25.6177C85.1848 25.7362 85.0983 25.8883 85.0598 26.0554C85.0214 26.2225 85.0327 26.3972 85.0924 26.5579L85.3295 26.4705C85.2664 26.1893 85.1507 25.9225 84.9884 25.6843C84.8067 25.4124 84.5312 25.2169 84.2146 25.1352C84.0394 25.0835 83.8531 25.0831 83.6776 25.1339C83.5022 25.1848 83.345 25.2848 83.2245 25.4222C83.0963 25.5772 83.0285 25.7735 83.0339 25.9747C83.0392 26.1759 83.1173 26.3683 83.2537 26.5163L83.4076 26.6619L83.4991 26.4664C83.6536 26.0848 83.6568 25.6588 83.5083 25.275C83.3597 24.8911 83.0704 24.5783 82.6994 24.4002C82.3283 24.2221 81.9033 24.1921 81.5109 24.3163C81.1185 24.4404 80.7882 24.7095 80.5871 25.0686L80.8492 25.235C81.075 24.944 81.1822 24.5782 81.1491 24.2113C81.1159 23.8445 80.945 23.5038 80.6707 23.258C80.3963 23.0122 80.039 22.8794 79.6708 22.8866C79.3025 22.8937 78.9506 23.0402 78.686 23.2964L78.8815 23.4504C79.0248 23.1966 79.0916 22.9069 79.0738 22.6161C79.0561 22.3253 78.9547 22.0458 78.7817 21.8113C78.5625 21.5319 78.2468 21.3446 77.8966 21.2861C77.5464 21.2276 77.1869 21.3021 76.8889 21.4952C76.7391 21.595 76.685 21.674 76.6892 21.6824Z" fill="#161B46"/>
<path d="M113.985 53.8725C113.985 53.8725 113.885 53.8725 113.727 53.8017C113.617 53.7525 113.518 53.6814 113.437 53.5927C113.355 53.504 113.292 53.3996 113.253 53.2859C113.181 53.1131 113.154 52.9251 113.174 52.7392C113.193 52.5532 113.259 52.3751 113.365 52.2209C113.664 51.8128 114.046 51.4714 114.484 51.2184L114.33 51.0021C114.032 51.1972 113.686 51.3052 113.33 51.3141C112.975 51.3229 112.624 51.2321 112.317 51.052C111.972 50.8439 111.711 50.5227 111.578 50.1433C111.444 49.7638 111.446 49.3498 111.584 48.972C111.67 48.71 111.812 48.47 112 48.2689C112.155 48.0797 112.372 47.9514 112.612 47.907C112.791 47.907 112.924 48.14 112.912 48.3521C112.904 48.4571 112.866 48.5574 112.8 48.6399C112.735 48.7223 112.646 48.783 112.545 48.8139C112.328 48.8775 112.101 48.8952 111.876 48.8659C111.652 48.8365 111.437 48.7607 111.243 48.6433C110.877 48.4509 110.57 48.1635 110.353 47.8113C110.041 47.2951 109.937 46.6793 110.062 46.0891C110.149 45.6731 110.287 45.4568 110.257 45.4443C110.099 45.6162 109.99 45.8274 109.941 46.0558C109.85 46.3666 109.823 46.6926 109.861 47.0143C109.899 47.3359 110.001 47.6466 110.162 47.9278C110.388 48.3206 110.718 48.6441 111.114 48.8638C111.341 49.0066 111.596 49.0993 111.861 49.1359C112.127 49.1725 112.397 49.1521 112.654 49.076C112.799 49.0212 112.93 48.9311 113.032 48.8139C113.144 48.6856 113.209 48.5225 113.215 48.3521C113.225 48.1827 113.183 48.0144 113.095 47.8696C113.046 47.7877 112.978 47.7188 112.897 47.6688C112.816 47.6189 112.724 47.5892 112.629 47.5825C112.453 47.5839 112.282 47.6375 112.138 47.7365C112.004 47.8225 111.881 47.9245 111.772 48.0401C111.552 48.2786 111.387 48.5627 111.289 48.8721C111.137 49.3299 111.137 49.8246 111.289 50.2824C111.445 50.7203 111.755 51.086 112.163 51.3099C112.519 51.5148 112.927 51.6142 113.338 51.5965C113.749 51.5789 114.146 51.4448 114.484 51.2101L114.33 50.9979C113.868 51.2782 113.475 51.6576 113.178 52.1086C113.061 52.2936 112.994 52.5055 112.982 52.7239C112.97 52.9424 113.015 53.1602 113.111 53.3566C113.164 53.4829 113.244 53.596 113.345 53.688C113.447 53.78 113.567 53.8486 113.698 53.8891C113.885 53.9224 113.985 53.8808 113.985 53.8725Z" fill="#161B46"/>
<path d="M96.0057 23.6167C96.0057 23.6167 96.0639 23.6791 96.197 23.7623C96.3878 23.8839 96.5898 23.987 96.8002 24.0701C97.1424 24.224 97.5264 24.2577 97.8902 24.1658C98.1206 24.0966 98.3278 23.9657 98.4892 23.7873C98.5854 23.6836 98.6562 23.559 98.6959 23.4232C98.7356 23.2875 98.7432 23.1443 98.718 23.0052L98.5558 23.1425C98.695 23.1994 98.8441 23.2281 98.9945 23.227C99.1449 23.2258 99.2936 23.1948 99.4319 23.1357C99.5702 23.0766 99.6954 22.9906 99.8002 22.8828C99.905 22.7749 99.9873 22.6473 100.042 22.5073C100.098 22.3674 100.124 22.2179 100.121 22.0675C100.118 21.9172 100.085 21.7689 100.024 21.6314C99.9632 21.4939 99.8756 21.3698 99.7663 21.2664C99.6571 21.1631 99.5284 21.0824 99.3878 21.0292L99.3253 21.3204C99.6325 21.3307 99.9327 21.2273 100.168 21.03C100.404 20.8327 100.559 20.5554 100.602 20.2512C100.642 19.931 100.569 19.6071 100.396 19.3347C100.223 19.0624 99.9605 18.8585 99.654 18.7578C99.4038 18.6618 99.1337 18.6289 98.8678 18.6621L98.9551 18.9616C99.163 18.8667 99.3465 18.7255 99.4916 18.5489C99.6367 18.3723 99.7395 18.165 99.7924 17.9426C99.8452 17.7202 99.8465 17.4887 99.7963 17.2657C99.7461 17.0428 99.6457 16.8342 99.5026 16.6559C99.3596 16.4776 99.1778 16.3343 98.971 16.237C98.7642 16.1396 98.538 16.0907 98.3094 16.094C98.0809 16.0973 97.8561 16.1528 97.6523 16.2561C97.4484 16.3594 97.2708 16.5079 97.133 16.6903H97.341C97.1357 16.4495 96.8674 16.2707 96.5662 16.1737C96.2649 16.0767 95.9427 16.0655 95.6354 16.1412C95.2593 16.2455 94.9343 16.4836 94.7213 16.8107C94.5084 17.1377 94.4222 17.5313 94.479 17.9175C94.4853 18.0218 94.5198 18.1224 94.5788 18.2087C94.5205 17.8341 94.574 17.4506 94.7327 17.1063C94.823 16.9164 94.9553 16.7495 95.1196 16.6183C95.284 16.4872 95.476 16.3951 95.6812 16.3492C95.9461 16.2936 96.2211 16.3111 96.4768 16.3998C96.7325 16.4885 96.9594 16.6449 97.133 16.8525L97.237 16.9856L97.341 16.8484C97.5691 16.5914 97.8894 16.435 98.2322 16.4132C98.5751 16.3913 98.9127 16.5059 99.1714 16.7319C99.2989 16.8736 99.3923 17.0427 99.4443 17.2261C99.4963 17.4096 99.5056 17.6025 99.4714 17.79C99.4373 17.9776 99.3606 18.1549 99.2473 18.3082C99.134 18.4615 98.9871 18.5869 98.8178 18.6746L97.911 19.0906L98.9052 18.97C99.1179 18.9419 99.3342 18.9691 99.5333 19.049C99.7714 19.1212 99.9768 19.2741 100.114 19.4814C100.252 19.6886 100.312 19.9374 100.286 20.1847C100.254 20.4124 100.141 20.6211 99.9691 20.7735C99.7969 20.9259 99.5761 21.0121 99.3462 21.0167L98.0607 20.8877L99.2838 21.3037C99.396 21.3478 99.4981 21.4142 99.584 21.4988C99.67 21.5834 99.7379 21.6845 99.7838 21.796C99.8296 21.9075 99.8524 22.0272 99.8509 22.1478C99.8493 22.2683 99.8234 22.3874 99.7746 22.4977C99.6677 22.6873 99.4971 22.833 99.2931 22.9091C99.0891 22.9853 98.8648 22.9869 98.6598 22.9137L98.4434 22.8221L98.4933 23.0468C98.5104 23.2539 98.4544 23.4605 98.3351 23.6307C98.2158 23.8009 98.0408 23.924 97.8402 23.9786C97.5152 24.0674 97.1707 24.0529 96.8543 23.937C96.3052 23.7581 96.0182 23.5876 96.0057 23.6167Z" fill="#161B46"/>
<path d="M89.0671 47.5574C88.9756 47.5075 85.3231 46.0141 85.0319 49.887C84.7407 53.76 88.7093 53.24 88.7218 53.1277C88.7343 53.0153 89.0671 47.5574 89.0671 47.5574Z" fill="#A2675F"/>
<path d="M87.6412 51.584C87.6412 51.584 87.5705 51.6256 87.454 51.6714C87.2876 51.7266 87.1066 51.7177 86.9465 51.6464C86.5305 51.4675 86.2476 50.8144 86.2809 50.0906C86.2943 49.7582 86.381 49.4329 86.5346 49.1379C86.5802 49.0197 86.6534 48.9142 86.7483 48.8302C86.8431 48.7462 86.9568 48.6862 87.0796 48.6554C87.1587 48.6408 87.2403 48.654 87.3108 48.6927C87.3812 48.7313 87.4362 48.7931 87.4665 48.8675C87.5081 48.9799 87.4665 49.0547 87.4998 49.0631C87.533 49.0714 87.5871 49.0048 87.5663 48.8426C87.5534 48.7449 87.5062 48.655 87.4332 48.5888C87.3309 48.5032 87.2004 48.4587 87.0671 48.464C86.9054 48.4845 86.7516 48.5461 86.6205 48.6429C86.4894 48.7398 86.3854 48.8687 86.3183 49.0173C86.1303 49.3418 86.0246 49.7075 86.0105 50.0823C85.9772 50.8643 86.3266 51.6215 86.8758 51.8253C86.9779 51.8621 87.0869 51.8755 87.1948 51.8647C87.3028 51.8539 87.407 51.8191 87.4998 51.7629C87.6287 51.6672 87.6537 51.584 87.6412 51.584Z" fill="#6F4C47"/>
<path d="M99.1153 53.8303C99.2704 53.6823 99.4587 53.5735 99.6645 53.5131C99.8702 53.4528 100.087 53.4425 100.298 53.4832C100.509 53.5239 100.706 53.6145 100.875 53.7472C101.043 53.88 101.177 54.0511 101.266 54.2463C101.337 54.4083 101.374 54.5832 101.374 54.76C101.374 54.9369 101.337 55.1118 101.266 55.2738C101.157 55.4954 100.983 55.6786 100.768 55.799C100.552 55.9194 100.305 55.9713 100.06 55.9477C99.8147 55.9139 99.5863 55.8049 99.4059 55.6358C99.2256 55.4666 99.1022 55.2457 99.0529 55.0034C98.9613 54.5167 98.8074 53.9426 99.2401 53.7096" fill="#6F4C47"/>
<path d="M99.0589 52.832C99.2045 52.832 99.271 53.7888 100.153 54.4294C101.035 55.0701 102.067 54.8912 102.087 55.0243C102.087 55.0867 101.867 55.2323 101.426 55.2697C100.855 55.3187 100.286 55.1623 99.8202 54.8288C99.3698 54.5102 99.0621 54.0278 98.9632 53.4851C98.9008 53.0857 99.009 52.832 99.0589 52.832Z" fill="#161B46"/>
<path d="M84.5233 65.3411L87.1649 64.896L102.029 66.2147L107.333 68.7357L108.743 69.5677C108.743 69.5677 103.214 77.2637 97.5482 76.8477C91.8823 76.4317 82.098 68.353 82.098 68.353L82.0522 65.7114L84.5233 65.3411Z" fill="#A2675F"/>
<path d="M126.464 77.9085L114.313 70.8864C112.807 70.3872 105.789 68.0035 105.789 68.0035C105.789 68.0035 100.34 76.6563 95.8302 76.0989C93.3924 75.7993 90.4222 73.6902 88.2298 71.8224C86.3429 70.2187 84.7323 68.3158 83.4625 66.1897L82.9716 65.3577C80.8375 65.3577 74.1982 66.9593 71.8519 67.5459C71.2932 67.683 70.787 67.9809 70.3959 68.4028C69.0938 69.7964 66.577 72.4505 66.0446 75.0589C65.5329 77.5549 63.4487 85.5878 63.4487 85.5878L123.265 83.7574L126.464 77.9085Z" fill="#00ACE9"/>
<path d="M145.682 78.1128C144.771 78.5288 137.233 81.0955 136.896 81.4782C136.559 81.8609 126.222 78.2085 126.222 78.2085L123.268 83.8037L149.934 83.2254L145.682 78.1128Z" fill="#A2675F"/>
<path d="M77.7045 76.2985C77.6671 76.2985 77.5423 75.8201 77.1762 75.1046C76.6848 74.1765 76.0471 73.3337 75.2875 72.6086C74.5224 71.8896 73.7079 71.2251 72.8498 70.6201C72.4838 70.3803 72.1374 70.1118 71.814 69.8172C72.2075 70.0083 72.5834 70.2338 72.9372 70.4911C73.8287 71.0662 74.6643 71.7236 75.4332 72.4547C76.2107 73.1895 76.8466 74.0609 77.3093 75.0255C77.446 75.3173 77.556 75.6208 77.6379 75.9324C77.6814 76.0496 77.704 76.1735 77.7045 76.2985Z" fill="#161B46"/>
<path d="M113.611 81.6198C113.546 81.2072 113.521 80.7892 113.537 80.3718C113.537 79.6022 113.537 78.5414 113.586 77.3683C113.636 76.1951 113.736 75.1385 113.819 74.3772C113.844 73.9559 113.91 73.5379 114.015 73.1292C114.033 73.5457 114.019 73.9629 113.973 74.3772C113.928 75.2092 113.869 76.2367 113.807 77.3683C113.745 78.4998 113.724 79.5273 113.69 80.3593C113.701 80.781 113.675 81.2028 113.611 81.6198V81.6198Z" fill="#161B46"/>
<path d="M85.3803 69.4014C85.3803 69.4014 85.3553 69.4472 85.2929 69.5221C85.201 69.6335 85.0978 69.7353 84.9851 69.8257C84.5779 70.1687 84.0966 70.4122 83.579 70.5371C82.8047 70.7342 81.988 70.6817 81.2453 70.3873C80.8098 70.2068 80.414 69.9425 80.0805 69.6094C79.7269 69.2766 79.4107 68.8981 79.0446 68.5653C78.3662 67.9319 77.4767 67.5731 76.5486 67.5585C75.7873 67.5444 75.0407 67.77 74.4146 68.2033C73.9879 68.493 73.6219 68.8633 73.3371 69.2933C73.1374 69.5969 73.0584 69.7883 73.0376 69.78C73.044 69.7296 73.0581 69.6805 73.0792 69.6344C73.1333 69.5016 73.1958 69.3723 73.2664 69.2475C73.5998 68.6725 74.0786 68.1953 74.6547 67.8638C75.2308 67.5323 75.884 67.3582 76.5486 67.3589C77.5339 67.3607 78.4821 67.7352 79.2027 68.4072C79.5813 68.7525 79.8974 69.1352 80.2386 69.4555C80.5528 69.7718 80.924 70.0258 81.3326 70.2043C81.9233 70.444 82.5653 70.5289 83.1979 70.451C83.8305 70.3731 84.4328 70.135 84.9477 69.7592C85.2305 69.547 85.3595 69.3806 85.3803 69.4014Z" fill="white"/>
<path d="M113.2 75.9079C113.2 75.9079 113.071 75.6832 112.784 75.2922C112.338 74.7315 111.781 74.2684 111.149 73.9319C110.151 73.3854 108.997 73.192 107.875 73.3827C107.143 73.5271 106.451 73.8269 105.846 74.2618C105.24 74.6967 104.735 75.2567 104.364 75.9037C103.924 76.6514 103.716 77.5128 103.765 78.3789C103.796 78.8234 103.939 79.2527 104.181 79.6269C104.449 80.0106 104.837 80.2944 105.283 80.434C105.51 80.5053 105.751 80.5233 105.986 80.4865C106.221 80.4497 106.445 80.3591 106.639 80.2218C107.047 79.9332 107.336 79.5057 107.451 79.0195C107.56 78.5159 107.492 77.9899 107.259 77.5303C107.028 77.05 106.679 76.6363 106.244 76.328C105.312 75.7038 104.179 75.4515 103.07 75.6208C101.909 75.7829 100.806 76.2256 99.8545 76.9104C97.866 78.2458 96.2977 80.2759 94.0887 81.6403C93.0002 82.3298 91.7522 82.7267 90.4654 82.7927C89.2177 82.8593 87.9726 82.6209 86.8379 82.098C85.7289 81.6093 84.7885 80.8048 84.1339 79.785C83.8215 79.2926 83.6148 78.7407 83.5267 78.1643C83.4386 77.5878 83.4711 76.9994 83.6222 76.4362C83.7481 75.8917 84.0133 75.3892 84.3918 74.9779C84.7703 74.5666 85.249 74.2607 85.7812 74.0899C86.2878 73.9497 86.8221 73.9427 87.3323 74.0695C87.8424 74.1963 88.3112 74.4527 88.6932 74.8138C89.0464 75.179 89.2712 75.6491 89.3339 76.1533C89.3834 76.634 89.3045 77.1192 89.1051 77.5594C88.7325 78.3875 88.0653 79.0474 87.2331 79.4106C86.4738 79.7067 85.6479 79.7887 84.8452 79.6477C84.1379 79.5255 83.4525 79.2999 82.811 78.9779C81.8028 78.4399 80.8462 77.8105 79.9531 77.0976C79.2043 76.5319 78.6135 76.1117 78.1934 75.8496C77.9854 75.7207 77.8273 75.6208 77.715 75.5584C77.6027 75.496 77.5527 75.4586 77.5527 75.4586C77.5527 75.4586 77.6151 75.4835 77.7275 75.5418C77.8398 75.6 78.0062 75.6874 78.2183 75.8122C78.6343 76.0659 79.25 76.4736 80.003 77.0269C80.8971 77.7263 81.8538 78.3418 82.8609 78.8656C83.4942 79.1774 84.1697 79.3946 84.866 79.5104C85.6432 79.6423 86.4417 79.5588 87.1748 79.2691C87.9662 78.917 88.599 78.2842 88.9511 77.4928C89.1357 77.0793 89.2088 76.6247 89.1633 76.1741C89.1072 75.7033 88.8965 75.2644 88.5642 74.9261C88.2046 74.5864 87.7627 74.3461 87.2821 74.2286C86.8015 74.1112 86.2986 74.1208 85.8228 74.2563C85.3234 74.4192 84.8746 74.7086 84.5203 75.0965C84.166 75.4843 83.9182 75.9574 83.8011 76.4695C83.6597 77.0068 83.6307 77.5674 83.7159 78.1164C83.8011 78.6654 83.9986 79.191 84.2961 79.6602C84.9328 80.6422 85.8422 81.4171 86.9127 81.89C88.0186 82.3957 89.2302 82.6269 90.4446 82.5639C91.693 82.4959 92.9032 82.1092 93.9598 81.4407C96.1271 80.1053 97.7038 78.0794 99.7214 76.7191C100.706 76.0135 101.849 75.5594 103.049 75.3962C104.214 75.2219 105.401 75.4906 106.377 76.1491C106.838 76.4789 107.209 76.9196 107.455 77.4304C107.699 77.9328 107.768 78.5026 107.65 79.0487C107.524 79.5797 107.207 80.046 106.76 80.3591C106.542 80.5097 106.293 80.609 106.032 80.6494C105.77 80.6897 105.503 80.6701 105.25 80.592C104.766 80.4364 104.347 80.1266 104.056 79.7101C103.788 79.307 103.629 78.8411 103.594 78.3581C103.545 77.46 103.765 76.5677 104.227 75.7955C104.611 75.1329 105.134 74.5607 105.759 74.1178C106.384 73.675 107.097 73.3718 107.85 73.2288C108.995 73.043 110.169 73.2528 111.178 73.8237C111.816 74.1732 112.373 74.6538 112.813 75.2339C112.966 75.4437 113.096 75.6697 113.2 75.9079V75.9079Z" fill="white"/>
<path d="M121.752 75.1798C121.726 75.2997 121.681 75.4147 121.619 75.5209C121.471 75.8233 121.291 76.1091 121.082 76.3737C120.775 76.7674 120.414 77.1161 120.009 77.4095C119.515 77.7693 118.977 78.0643 118.408 78.2873C117.369 78.6942 116.244 78.8302 115.138 78.6825C114.806 78.6356 114.479 78.5604 114.16 78.4579C114.04 78.4309 113.925 78.3815 113.823 78.3123C113.823 78.2748 114.327 78.4495 115.154 78.5286C116.233 78.6317 117.32 78.4792 118.329 78.0835C119.343 77.7062 120.249 77.0846 120.966 76.2739C121.498 75.6415 121.715 75.159 121.752 75.1798Z" fill="white"/>
<path d="M125.636 77.7918C125.636 77.7918 125.503 77.7252 125.249 77.6587C124.893 77.5738 124.52 77.5824 124.168 77.6837C123.647 77.8544 123.162 78.1195 122.737 78.4657C122.233 78.8401 121.697 79.2728 121.156 79.7512C120.231 80.5713 119.37 81.4614 118.581 82.4136C117.969 83.1416 117.628 83.62 117.599 83.6033C117.651 83.4732 117.72 83.3502 117.803 83.2372C117.949 83.0168 118.169 82.6965 118.46 82.3179C119.222 81.3293 120.076 80.4155 121.01 79.5889C121.524 79.1335 122.061 78.7058 122.62 78.3077C123.068 77.9534 123.581 77.6918 124.13 77.538C124.508 77.4414 124.905 77.4559 125.274 77.5797C125.412 77.6155 125.538 77.6889 125.636 77.7918V77.7918Z" fill="white"/>
<path d="M109.057 69.6518C108.896 69.8433 108.694 69.9967 108.466 70.1011C107.407 70.6941 106.164 70.872 104.98 70.6003C104.732 70.5635 104.495 70.4726 104.286 70.3341C105.093 70.5007 105.92 70.5442 106.74 70.463C107.549 70.3124 108.331 70.0388 109.057 69.6518V69.6518Z" fill="white"/>
<path d="M73.182 84.1203C73.1912 83.5078 73.1662 82.8954 73.1071 82.2857C72.9224 80.8226 72.3476 79.4361 71.4431 78.2713C70.9428 77.6393 70.3576 77.0793 69.7042 76.6073C69.1658 76.2237 68.5781 75.9144 67.957 75.688C67.3754 75.4993 66.782 75.3492 66.1807 75.2387C66.3449 75.2159 66.5115 75.2159 66.6757 75.2387C67.1286 75.2851 67.5751 75.3814 68.0069 75.5257C68.6504 75.738 69.2599 76.042 69.8165 76.4284C70.4965 76.9051 71.1021 77.4799 71.6136 78.134C72.5495 79.3249 73.1267 80.7578 73.2776 82.2649C73.3218 82.7173 73.3218 83.1729 73.2776 83.6252C73.2669 83.7936 73.2347 83.96 73.182 84.1203V84.1203Z" fill="white"/>
<g opacity="0.3">
<path opacity="0.3" d="M77.4166 82.0225C77.0902 81.7758 76.7027 81.623 76.2958 81.5805C75.8889 81.538 75.4781 81.6074 75.1078 81.7812C74.7958 81.931 74.5212 82.1556 74.2009 82.2929C74.0459 82.3732 73.8721 82.4102 73.6979 82.4C73.5236 82.3897 73.3553 82.3326 73.2108 82.2346C72.9779 82.0391 72.9113 81.7063 72.7324 81.4609C72.3955 81.0074 71.734 80.9367 71.1766 81.0449C70.6347 81.201 70.0761 81.2918 69.5126 81.3153C68.9627 81.212 68.4237 81.0574 67.9027 80.8535C67.2942 80.701 66.6551 80.7236 66.0589 80.9187C65.4627 81.1137 64.9338 81.4733 64.5331 81.9559L63.5264 84.9345L78.2112 84.194C78.288 83.794 78.2547 83.3807 78.1147 82.9982C77.9748 82.6157 77.7335 82.2784 77.4166 82.0225Z" fill="#0E1339"/>
</g>
<path d="M82.3711 83.9414C82.3337 83.9414 82.2047 83.5545 81.8012 83.0303C81.2863 82.3425 80.5548 81.8482 79.7246 81.6271C78.8944 81.4059 78.0139 81.4709 77.2252 81.8115C76.6137 82.0652 76.3017 82.3523 76.2767 82.319C76.2517 82.2857 76.3391 82.2316 76.4805 82.1068C76.6898 81.9347 76.9189 81.7881 77.1628 81.67C77.9767 81.2667 78.9095 81.173 79.7873 81.4064C80.6652 81.6399 81.4282 82.1845 81.9343 82.9388C82.0884 83.1608 82.2142 83.4012 82.3087 83.6543C82.3486 83.7449 82.3698 83.8425 82.3711 83.9414V83.9414Z" fill="white"/>
<g opacity="0.3">
<path opacity="0.3" d="M117.187 82.4351C116.191 82.2356 115.26 81.7942 114.475 81.1497C113.738 80.4633 113.322 79.3359 113.726 78.4082C113.055 79.9417 111.956 81.2489 110.561 82.1729C109.165 83.0968 107.533 83.5981 105.859 83.6166L120.053 83.3836C119.141 82.9496 118.178 82.631 117.187 82.4351Z" fill="#0E1339"/>
</g>
<path d="M100.645 47.1584C100.599 46.8084 100.534 46.4611 100.449 46.1184C100.185 45.1942 99.6182 44.3855 98.8394 43.8221C98.2682 43.4079 97.6023 43.1433 96.9025 43.0525C96.2028 42.9616 95.4914 43.0475 94.8334 43.3021C94.0555 43.5987 93.3846 44.1218 92.9073 44.8038C92.3894 45.5323 92.1182 46.4074 92.1332 47.301C92.1481 48.1947 92.4485 49.0601 92.9905 49.7709C93.2421 50.1114 93.5469 50.4092 93.8932 50.6528C94.2211 50.8911 94.5829 51.079 94.9665 51.2102C95.5257 51.4018 96.1187 51.475 96.7078 51.4251C97.2968 51.3752 97.8691 51.2034 98.3882 50.9206C98.9073 50.6378 99.3619 50.2501 99.7232 49.7822C100.084 49.3143 100.345 48.7763 100.487 48.2026C100.557 47.8574 100.61 47.5089 100.645 47.1584C100.675 47.5137 100.65 47.8717 100.57 48.2192C100.359 49.1878 99.8216 50.0545 99.0474 50.6736C98.4721 51.1367 97.7886 51.4461 97.0609 51.5728C96.3333 51.6994 95.5854 51.639 94.8874 51.3974C94.0611 51.1152 93.3372 50.594 92.8074 49.8998C92.2369 49.1532 91.9206 48.2434 91.9049 47.3038C91.8892 46.3643 92.1749 45.4444 92.7201 44.679C93.227 43.9682 93.9335 43.4238 94.7502 43.1149C95.4859 42.8349 96.2835 42.7587 97.0589 42.8944C97.8827 43.0392 98.6472 43.4184 99.2611 43.9865C99.8749 44.5546 100.312 45.2875 100.52 46.0976C100.617 46.4424 100.659 46.8004 100.645 47.1584V47.1584Z" fill="#737690"/>
<path d="M111.457 46.9715C111.411 46.6216 111.345 46.2744 111.262 45.9315C110.997 45.0075 110.428 44.1999 109.648 43.6393C109.117 43.2512 108.503 42.9933 107.855 42.8864C107.111 42.7658 106.349 42.8448 105.646 43.1152C105.265 43.2583 104.909 43.4589 104.589 43.7101C104.251 43.9641 103.958 44.2719 103.72 44.6211C103.197 45.3478 102.923 46.2236 102.938 47.1184C102.953 48.0132 103.256 48.8793 103.803 49.5881C104.054 49.9274 104.359 50.2238 104.705 50.4659C105.031 50.7082 105.393 50.8964 105.779 51.0233C106.445 51.2559 107.159 51.3175 107.855 51.2027C108.551 51.0879 109.208 50.8002 109.764 50.3661C110.524 49.7763 111.065 48.9488 111.299 48.0157C111.37 47.6707 111.423 47.3221 111.457 46.9715C111.487 47.3284 111.461 47.6879 111.378 48.0365C111.172 49.0047 110.635 49.871 109.86 50.4867C109.285 50.9509 108.602 51.2613 107.874 51.3886C107.146 51.516 106.398 51.4561 105.7 51.2147C105.297 51.0801 104.917 50.8851 104.572 50.6365C104.208 50.3828 103.886 50.0724 103.62 49.7171C103.052 48.9717 102.739 48.064 102.726 47.1273C102.712 46.1907 102.999 45.2744 103.545 44.5129C103.798 44.1484 104.109 43.8267 104.464 43.5603C104.8 43.3013 105.173 43.0938 105.571 42.9446C106.309 42.6679 107.107 42.5932 107.884 42.7283C108.707 42.8733 109.471 43.252 110.084 43.8192C110.698 44.3865 111.136 45.1183 111.345 45.9273C111.436 46.2675 111.474 46.6197 111.457 46.9715Z" fill="#737690"/>
<path d="M92.0936 46.4463C91.6109 46.7565 91.0814 46.9869 90.5253 47.1285C89.9926 47.3335 89.4312 47.4542 88.8613 47.4863C89.3766 47.2487 89.9127 47.0593 90.4629 46.9205C90.9917 46.7155 91.5373 46.5568 92.0936 46.4463V46.4463Z" fill="#737690"/>
<path d="M103.278 45.9268C102.805 45.8612 102.328 45.8389 101.851 45.8603C101.383 45.9551 100.924 46.0944 100.482 46.2763C100.833 45.9038 101.315 45.6816 101.826 45.6564C102.327 45.5533 102.848 45.6504 103.278 45.9268Z" fill="#737690"/>
<path d="M94.8999 50.4698C94.6532 50.4454 94.4168 50.3581 94.2135 50.2161C93.6944 49.9167 93.2658 49.4827 92.9729 48.9599C92.6801 48.4371 92.5338 47.8449 92.5495 47.2458C92.5318 46.9994 92.5792 46.7527 92.6868 46.5303C92.7201 46.5303 92.6868 46.809 92.6868 47.2458C92.7149 47.8117 92.8746 48.3633 93.1534 48.8565C93.4322 49.3498 93.8222 49.7712 94.2926 50.0871C94.6545 50.3367 94.9124 50.4366 94.8999 50.4698Z" fill="white"/>
<path d="M105.594 50.1619C105.362 50.1353 105.142 50.0493 104.953 49.9123C104.468 49.6235 104.067 49.2135 103.788 48.7226C103.516 48.2298 103.373 47.6758 103.372 47.1126C103.352 46.8803 103.392 46.6468 103.489 46.4346C103.515 46.6568 103.528 46.8805 103.526 47.1043C103.571 47.6348 103.728 48.1496 103.988 48.6144C104.252 49.0757 104.612 49.4745 105.045 49.7834C105.235 49.8984 105.419 50.0248 105.594 50.1619Z" fill="white"/>
<path d="M46.4545 84.702C46.4545 84.702 45.3479 151.591 54.5789 196.581L169.699 196.223L139.564 84.1653L46.4545 84.702Z" fill="#F4F5FB"/>
<path d="M46.4535 84.7024L139.563 84.0784H139.629L139.65 84.1408C148.232 116.048 158.595 154.549 169.802 196.195L169.839 196.332H169.698L160.546 196.361L54.578 196.677H54.4989V196.602C54.1107 194.533 53.7293 192.488 53.3549 190.466C53.1761 189.451 52.9681 188.449 52.81 187.442C52.6519 186.435 52.5063 185.437 52.3524 184.443C52.0529 182.449 51.7547 180.481 51.458 178.54C51.2111 176.598 50.9685 174.671 50.73 172.757C50.6107 171.809 50.4915 170.864 50.3722 169.924C50.2557 168.984 50.1684 168.048 50.0685 167.12C49.8772 165.259 49.6872 163.426 49.4986 161.621C49.2948 159.815 49.17 158.027 49.0119 156.267C48.8538 154.507 48.7124 152.777 48.5668 151.075C47.5101 137.426 47.0193 125.487 46.7322 115.653C46.4452 105.819 46.4036 98.0768 46.3994 92.7978C46.3994 90.1562 46.3994 88.1344 46.4285 86.77C46.4285 86.0877 46.4369 85.5719 46.4535 85.2224C46.4535 84.8938 46.4535 84.7482 46.4535 84.7024C46.4535 84.9021 46.4535 87.5437 46.4535 92.7978C46.4535 98.0519 46.545 105.814 46.8362 115.649C47.1274 125.483 47.6682 137.418 48.7165 151.063C48.8663 152.764 49.0161 154.499 49.1658 156.254C49.3156 158.01 49.4529 159.799 49.6567 161.604C49.8605 163.41 50.0394 165.244 50.2349 167.1C50.3348 168.027 50.4221 168.963 50.5386 169.903C50.6551 170.844 50.7757 171.788 50.8964 172.736C51.1377 174.642 51.3817 176.568 51.6285 178.515C51.9281 180.457 52.2234 182.425 52.5271 184.413C52.6824 185.406 52.8363 186.406 52.9889 187.413C53.1428 188.42 53.3549 189.422 53.5338 190.433C53.911 192.455 54.2923 194.499 54.6778 196.565L54.5863 196.49L160.554 196.141L169.706 196.116L169.602 196.249C158.412 154.603 148.061 116.094 139.488 84.1908L139.575 84.2531L46.4535 84.7024Z" fill="#AEB2BF"/>
<path d="M46.4514 84.7016C46.4514 84.7016 46.3557 93.5167 47.8492 109.212C48.8351 119.612 48.7269 133.236 51.4809 150.617C57.3049 187.337 60.3625 192.953 60.3625 192.953L172.641 192.192L142.76 83.0584L46.4514 84.7016Z" fill="#E6E8F3"/>
<path d="M46.4534 84.702L142.762 82.9673H142.832V83.0338C151.427 114.275 161.694 151.782 172.764 192.192L172.801 192.329H172.664L166.544 192.371L60.3645 193.045H60.3229L60.2979 192.995C59.8913 192.048 59.5467 191.075 59.2662 190.083C58.9667 189.114 58.7046 188.136 58.4342 187.171C58.1638 186.206 57.935 185.233 57.7062 184.259C57.4774 183.286 57.2569 182.333 57.0406 181.376C56.1781 177.557 55.4127 173.813 54.7443 170.144C53.3715 162.793 52.215 155.792 51.1875 149.203C50.6841 145.908 50.2848 142.705 49.9395 139.601C49.5942 136.498 49.3488 133.511 49.1449 130.633C48.7289 124.871 48.5001 119.571 48.2006 114.791C48.0592 112.399 47.8678 110.14 47.6681 108.015C47.4685 105.889 47.3104 103.896 47.1731 102.041C46.8944 98.326 46.7155 95.1644 46.6073 92.5977C46.4992 90.0309 46.4493 88.0633 46.4326 86.7362C46.4326 86.0706 46.4326 85.5673 46.4326 85.2303C46.4326 84.8933 46.4326 84.7228 46.4326 84.7228C46.4326 84.8185 46.4326 85.43 46.4617 86.7321C46.4909 88.0341 46.5449 90.0309 46.6656 92.5935C46.7862 95.1561 46.9734 98.3218 47.2605 102.033C47.4019 103.888 47.5683 105.885 47.768 108.006C47.9677 110.128 48.1632 112.391 48.3088 114.783C48.6166 119.567 48.8537 124.867 49.2781 130.62C49.4861 133.499 49.7537 136.488 50.0809 139.589C50.4096 142.684 50.8131 145.887 51.3289 149.182C52.3606 155.767 53.5213 162.764 54.9024 170.111C55.5846 173.788 56.3514 177.542 57.2029 181.372C57.415 182.329 57.6189 183.294 57.8685 184.255C58.1181 185.216 58.3427 186.189 58.5965 187.167C58.8502 188.145 59.1165 189.105 59.4285 190.079C59.7064 191.054 60.0469 192.01 60.4477 192.941L60.3645 192.891L166.54 192.176L172.66 192.134L172.556 192.271C161.494 151.84 151.227 114.325 142.691 83.0837L142.778 83.1503L46.4534 84.702Z" fill="#AEB2BF"/>
<path d="M152.919 88.2464L46.5432 90.056C46.0939 118.906 56.2526 163.933 63.6991 187.616L175.337 186.447C163.905 156.1 150.764 121.597 152.919 88.2464Z" fill="#D4D9F5"/>
<path d="M152.918 88.2464C152.918 88.3421 152.918 88.8954 152.864 90.0976C152.864 90.7091 152.818 91.4704 152.789 92.3773C152.76 93.2842 152.685 94.3366 152.735 95.5222C152.789 97.8976 152.768 100.83 153.064 104.258C153.122 105.118 153.182 106.01 153.243 106.933C153.334 107.852 153.447 108.805 153.555 109.787C153.663 110.769 153.779 111.78 153.896 112.82C154.012 113.86 154.204 114.929 154.362 116.023C154.52 117.117 154.699 118.248 154.878 119.401C155.056 120.553 155.314 121.726 155.539 122.932C155.764 124.139 155.98 125.374 156.263 126.622C156.546 127.87 156.829 129.152 157.12 130.458C157.27 131.111 157.411 131.772 157.573 132.434L158.081 134.439C158.427 135.787 158.778 137.161 159.133 138.562C159.488 139.962 159.888 141.378 160.331 142.809C160.535 143.529 160.747 144.257 160.951 144.985L161.621 147.185C165.178 159.041 170.032 172.145 175.424 186.414L175.47 186.539H175.336L67.3928 187.691L63.6904 187.729H63.6072L63.5864 187.654C60.8949 178.98 58.5944 170.336 56.5768 161.824C54.5592 153.313 52.787 144.926 51.2978 136.723C49.8085 128.519 48.5938 120.499 47.7243 112.695C46.8299 105.182 46.4006 97.6215 46.4389 90.056V89.9645H46.5304L152.906 88.2464L46.5346 90.1517L46.6261 90.0602C46.5923 97.6176 47.0257 105.17 47.924 112.674C48.7934 120.466 50.004 128.482 51.5058 136.685C53.0075 144.889 54.7547 153.267 56.7848 161.774C58.8149 170.282 61.1029 178.922 63.7902 187.587L63.6862 187.512L67.3928 187.475L175.336 186.368L175.249 186.493C169.866 172.224 165.024 159.108 161.475 147.244C161.251 146.503 161.03 145.767 160.806 145.039C160.581 144.311 160.39 143.579 160.19 142.859L158.996 138.612C158.644 137.208 158.294 135.833 157.948 134.485C157.777 133.811 157.611 133.141 157.44 132.48C157.27 131.818 157.141 131.153 156.995 130.5C156.704 129.193 156.417 127.916 156.138 126.66C155.859 125.404 155.656 124.164 155.418 122.966C155.181 121.768 154.961 120.586 154.765 119.434L154.254 116.064C154.1 114.966 153.904 113.901 153.792 112.861C153.68 111.821 153.567 110.802 153.459 109.82C153.351 108.838 153.243 107.886 153.155 106.966C153.068 106.047 153.035 105.148 152.981 104.292C152.698 100.851 152.723 97.9184 152.677 95.5555C152.635 94.3658 152.727 93.3258 152.748 92.4189C152.768 91.512 152.814 90.7549 152.839 90.1434C152.893 88.9037 152.914 88.3421 152.918 88.2464Z" fill="#AEB2BF"/>
<path d="M153.115 82.8841L46.4528 84.702C46.0035 113.547 50.7334 140.051 58.184 163.742L88.968 182.803L178.312 181.281C166.872 150.925 150.96 116.235 153.115 82.8841Z" fill="white"/>
<path d="M153.115 82.8841C153.115 82.9798 153.09 83.5414 153.04 84.752C153.011 85.3718 152.973 86.1456 152.969 87.0566C152.965 87.9676 152.928 89.0284 152.969 90.2265C153.089 97.1518 153.796 104.054 155.083 110.86C156.684 119.671 159.505 130.2 163.577 141.998C165.603 147.901 167.924 154.124 170.441 160.664C172.958 167.203 175.679 174.046 178.395 181.243L178.441 181.368H178.308L88.9677 182.907H88.9344H88.9094L75.5974 174.654L58.1504 163.838L58.1171 163.817V163.779C53.9004 150.387 50.7826 136.673 48.7945 122.774C47.0134 110.166 46.2123 97.4384 46.3984 84.7062V84.6147H46.4899L153.152 82.8924L46.4941 84.8019L46.5856 84.7104C46.3998 97.4227 47.1953 110.13 48.9651 122.72C50.9538 136.607 54.0702 150.308 58.2835 163.688L58.2377 163.63L75.6848 174.446L88.9968 182.703H88.9385L178.279 181.197L178.196 181.322C175.483 174.125 172.767 167.274 170.258 160.734C167.75 154.195 165.428 147.967 163.407 142.06C159.347 130.254 156.539 119.713 154.954 110.893C153.665 104.082 152.969 97.171 152.874 90.239C152.84 89.0409 152.874 87.9801 152.894 87.0691C152.915 86.158 152.944 85.4051 152.978 84.7728C153.09 83.5456 153.111 82.9798 153.115 82.8841Z" fill="#AEB2BF"/>
<path d="M58.2725 163.729L85.3749 160.817L88.9566 182.799L58.2725 163.729Z" fill="#F4F5FB"/>
<path d="M88.9566 182.799C88.9435 182.764 88.9351 182.727 88.9316 182.69C88.9316 182.603 88.8942 182.499 88.8651 182.366L88.6404 181.118C88.4532 180.007 88.1828 178.426 87.85 176.463C87.1969 172.503 86.29 167.016 85.2667 160.842L85.3873 160.934L82.8622 161.204L65.4151 163.047L60.1278 163.579L58.6884 163.717L58.314 163.746H58.1851C58.2254 163.732 58.2674 163.724 58.3099 163.721L58.6843 163.671L60.1195 163.496L65.3985 162.893L82.8414 160.992L85.3623 160.722H85.4663V160.821C86.4564 166.999 87.3383 172.469 87.9623 176.455C88.266 178.418 88.5156 180.007 88.6862 181.118C88.7638 181.656 88.8262 182.072 88.8734 182.366L88.915 182.695C88.9355 182.726 88.9497 182.762 88.9566 182.799V182.799Z" fill="#AEB2BF"/>
<path d="M133.093 112.969C133.093 113.028 118.72 113.323 100.994 113.627C83.2683 113.93 68.8872 114.122 68.8872 114.063C68.8872 114.005 83.2558 113.71 100.99 113.41C118.724 113.111 133.093 112.911 133.093 112.969Z" fill="#AEB2BF"/>
<path d="M134.884 122.974C134.884 123.032 120.511 123.327 102.781 123.631C85.051 123.935 70.6782 124.126 70.6782 124.068C70.6782 124.01 85.0469 123.714 102.781 123.411C120.515 123.107 134.88 122.915 134.884 122.974Z" fill="#AEB2BF"/>
<path d="M138.905 132.942C138.905 133 124.532 133.295 106.807 133.595C89.0808 133.894 74.6997 134.094 74.6997 134.036C74.6997 133.977 89.0684 133.682 106.802 133.378C124.537 133.075 138.905 132.879 138.905 132.942Z" fill="#AEB2BF"/>
<path d="M143.105 144.24C143.105 144.303 128.733 144.594 111.007 144.897C93.281 145.201 78.8999 145.397 78.8999 145.334C78.8999 145.272 93.2685 144.985 111.003 144.681C128.737 144.377 143.105 144.182 143.105 144.24Z" fill="#AEB2BF"/>
<path d="M147.874 154.752C147.874 154.811 133.502 155.106 115.776 155.405C98.0501 155.705 83.6689 155.905 83.6689 155.846C83.6689 155.788 98.0376 155.493 115.772 155.189C133.506 154.885 147.874 154.69 147.874 154.752Z" fill="#AEB2BF"/>
<path d="M50.6465 84.6819C50.6465 84.6819 51.9153 82.8723 52.6142 82.4812C53.313 82.0902 54.2782 82.0652 54.7233 82.4438L55.1642 82.8182C55.1642 82.8182 57.369 81.7491 58.4631 82.4896C58.4631 82.4896 60.5431 81.4246 61.6081 82.5436C61.6081 82.5436 63.2138 81.4329 63.9335 82.3398C64.6532 83.2467 64.6282 84.8358 64.3162 85.6387C64.0042 86.4416 63.4551 89.2329 62.9684 89.2953C62.9684 89.2953 61.6663 89.47 61.475 88.7712C61.2836 88.0723 61.1962 87.7312 61.1962 87.7312C61.1962 87.7312 60.7802 90.2272 60.1729 90.3852C59.5655 90.5433 58.4257 90.4892 58.355 89.3952C58.355 89.3952 57.8225 90.2272 57.2692 90.015C56.7159 89.8028 56.0212 89.4118 56.0753 88.7337C56.1294 88.0556 56.1044 87.3734 56.1044 87.3734C56.1044 87.3734 55.834 88.3718 55.3348 88.1721C54.8356 87.9724 54.3406 88.0307 54.041 87.2028C53.7415 86.375 52.9802 84.7401 52.9802 84.7401L50.6465 84.6819Z" fill="#A2675F"/>
<path d="M56.0613 87.323C56.028 87.323 56.1528 87.0484 56.2526 86.6074C56.3894 86.0394 56.3965 85.4479 56.2734 84.8768C56.1502 84.3057 55.9 83.7697 55.5413 83.3086C55.2667 82.9508 55.0504 82.7678 55.0712 82.7386C55.092 82.7095 55.3416 82.8634 55.6578 83.2129C56.0722 83.67 56.3591 84.2281 56.4898 84.8311C56.6198 85.4341 56.5911 86.0605 56.4066 86.649C56.3486 86.8986 56.23 87.1301 56.0613 87.323V87.323Z" fill="#6F4C47"/>
<path d="M58.6044 82.4974C58.7562 82.806 58.8614 83.1355 58.9164 83.475C59.2737 85.0991 59.2093 86.7876 58.7292 88.3796C58.65 88.7126 58.5195 89.0312 58.3423 89.324C58.6452 88.214 58.8389 87.0771 58.9205 85.9294C58.9267 84.7779 58.8208 83.6284 58.6044 82.4974Z" fill="#6F4C47"/>
<path d="M61.6628 82.5723C61.9592 84.3239 61.8046 86.1221 61.2135 87.7973C61.1511 87.7973 61.434 86.6367 61.5546 85.1973C61.6752 83.7579 61.5962 82.5806 61.6628 82.5723Z" fill="#6F4C47"/>
<path d="M70.4642 82.88C70.4046 82.7722 70.3218 82.679 70.2219 82.607C70.1219 82.5351 70.0071 82.4863 69.886 82.4641C69.5996 82.4092 69.3042 82.424 69.0247 82.5072C68.7452 82.5905 68.4899 82.7398 68.2802 82.9425C67.866 83.3533 67.5204 83.828 67.2568 84.3485L70.302 84.3236C70.2604 83.8202 70.6514 83.3252 70.4642 82.88Z" fill="#A2675F"/>
<path d="M162.852 123.128C170.627 119.597 174.069 110.431 170.538 102.656C167.008 94.8797 157.842 91.4382 150.066 94.9687C142.29 98.4993 138.849 107.665 142.379 115.441C145.91 123.217 155.076 126.658 162.852 123.128Z" fill="#00ACE9"/>
<path d="M156.079 103.647C156.14 107.233 156.201 110.819 156.262 114.404C156.287 115.74 158.367 115.744 158.342 114.404C158.284 110.819 158.223 107.233 158.159 103.647C158.138 102.311 156.058 102.307 156.079 103.647V103.647Z" fill="white"/>
<path d="M151.458 110.165L162.969 109.966C164.304 109.966 164.308 107.886 162.969 107.886L151.458 108.085C150.123 108.106 150.119 110.186 151.458 110.165Z" fill="white"/>
<g opacity="0.3">
<path opacity="0.3" d="M159.33 93.8079C156.392 93.2102 153.342 93.5311 150.594 94.7273C151.182 95.7414 151.86 96.7006 152.62 97.5935C153.269 98.4006 154.242 99.2575 155.22 98.8956C155.47 98.7575 155.744 98.6645 156.027 98.621C156.468 98.621 156.763 99.0578 157.008 99.4281C157.665 100.413 158.497 101.269 159.463 101.953C159.983 102.323 160.769 102.61 161.189 102.132C161.37 101.871 161.454 101.554 161.426 101.238C161.46 98.8706 160.399 95.9212 159.33 93.8079Z" fill="#0E1339"/>
</g>
<path d="M145.681 78.1124L148.177 77.3636C149.173 77.088 150.218 77.0449 151.233 77.2375C152.248 77.4301 153.205 77.8532 154.03 78.4743C155.386 79.4935 156.838 80.6541 157.304 81.2864L159.442 84.161C159.68 84.4685 159.841 84.8277 159.914 85.2094C159.986 85.5911 159.967 85.9845 159.858 86.3575C159.828 86.5198 159.743 86.6668 159.617 86.7735L158.86 87.8717C158.86 87.8717 159.085 89.5357 159.093 90.5965C159.101 91.6573 158.07 93.4669 158.07 93.4669L160.091 98.9873C160.189 99.239 160.209 99.5139 160.151 99.7774C160.093 100.041 159.957 100.281 159.763 100.468C159.712 100.527 159.65 100.575 159.58 100.61C159.51 100.644 159.434 100.664 159.356 100.668C159.279 100.672 159.201 100.661 159.128 100.634C159.055 100.608 158.988 100.567 158.931 100.514C158.136 99.8733 156.019 95.3722 156.019 95.3722L155.187 94.4071L154.034 94.1201C154.034 94.1201 154.242 95.7841 153.494 96.1127L150.328 93.3837L147.878 89.2237C147.878 89.2237 147.811 83.5329 147.195 81.9604L145.681 78.1124Z" fill="#A2675F"/>
<path d="M156.576 89.1116C157.434 90.4157 157.943 91.9184 158.053 93.4755C157.991 93.4755 157.799 92.4687 157.391 91.2707C156.984 90.0726 156.522 89.1449 156.576 89.1116Z" fill="#6F4C47"/>
<path d="M158.41 86.5574C158.476 86.5282 158.709 87.0732 158.826 87.7638C158.946 88.1767 158.988 88.6083 158.95 89.0367C158.776 88.6473 158.662 88.2334 158.614 87.8095C158.51 87.3986 158.442 86.9798 158.41 86.5574V86.5574Z" fill="#6F4C47"/>
<path d="M156.5 96.3706C156.247 96.0074 156.017 95.6296 155.809 95.2391C155.393 94.5319 154.802 93.5751 154.116 92.531C153.775 92.0068 153.438 91.5159 153.13 91.0708C152.877 90.6742 152.562 90.3203 152.198 90.0225C151.847 89.7708 151.431 89.6263 151 89.6065C151.114 89.5614 151.237 89.5485 151.358 89.5691C151.692 89.6023 152.011 89.7212 152.285 89.9143C152.679 90.2058 153.02 90.5633 153.292 90.971C153.612 91.4119 153.954 91.9028 154.299 92.427C154.985 93.4711 155.547 94.4529 155.942 95.1809C156.17 95.5565 156.357 95.9553 156.5 96.3706V96.3706Z" fill="#6F4C47"/>
<path d="M151.753 90.0847C151.786 90.0847 151.82 90.4134 151.986 90.9167C152.203 91.5691 152.56 92.1666 153.03 92.6681C153.32 92.9277 153.585 93.2147 153.821 93.5251C154.005 93.8028 154.106 94.1276 154.112 94.4611C154.139 94.757 154.095 95.0552 153.983 95.3305C153.945 95.3305 154.004 94.9935 153.958 94.4735C153.935 94.1743 153.831 93.8868 153.658 93.6415C153.419 93.3435 153.156 93.0653 152.872 92.8095C152.377 92.2885 152.022 91.6501 151.84 90.9542C151.746 90.6746 151.716 90.3774 151.753 90.0847Z" fill="#6F4C47"/>
<path d="M147.599 84.1902C147.536 84.1902 147.599 83.2001 147.412 82.002C147.224 80.8039 146.937 79.8554 147.029 79.843C147.138 80.0295 147.222 80.2295 147.278 80.4378C147.44 80.9383 147.557 81.452 147.628 81.9729C147.766 82.7066 147.756 83.4604 147.599 84.1902Z" fill="#6F4C47"/>
</svg>
