<svg width="327" height="200" viewBox="0 0 327 200" fill="none" xmlns="http://www.w3.org/2000/svg">
<mask id="mask0_735_25124" style="mask-type:alpha" maskUnits="userSpaceOnUse" x="0" y="0" width="327" height="200">
<rect width="327" height="200" rx="16" fill="#C4C4C4"/>
</mask>
<g mask="url(#mask0_735_25124)">
<path fill-rule="evenodd" clip-rule="evenodd" d="M252.559 114.097C261.207 122.393 270.769 126.458 273.916 123.177C277.063 119.897 272.603 110.512 263.955 102.217C255.307 93.921 245.745 89.8556 242.598 93.1362C239.451 96.4169 243.911 105.801 252.559 114.097ZM249.13 127.309C245.983 130.589 236.421 126.524 227.773 118.228C219.125 109.932 214.665 100.548 217.812 97.2673C220.959 93.9867 230.521 98.0521 239.169 106.348C247.817 114.643 252.276 124.028 249.13 127.309ZM309.114 112.161C311.555 118.868 315.597 123.554 318.142 122.628C320.686 121.702 320.769 115.514 318.327 108.807C315.885 102.1 311.843 97.4142 309.299 98.3405C306.755 99.2668 306.672 105.455 309.114 112.161ZM278.81 151.13C287.458 159.426 297.02 163.491 300.167 160.21C303.314 156.93 298.855 147.545 290.206 139.25C281.558 130.954 271.996 126.888 268.85 130.169C265.703 133.45 270.162 142.834 278.81 151.13ZM258.067 185.703C266.715 193.998 276.277 198.064 279.424 194.783C282.571 191.502 278.112 182.118 269.463 173.822C260.815 165.527 251.253 161.461 248.107 164.742C244.96 168.022 249.419 177.407 258.067 185.703ZM242.244 171.374C239.097 174.654 229.536 170.589 220.888 162.293C212.239 153.997 207.78 144.613 210.927 141.332C214.074 138.052 223.635 142.117 232.284 150.413C240.932 158.708 245.391 168.093 242.244 171.374ZM214.002 222.882C222.65 231.178 232.212 235.244 235.359 231.963C238.506 228.682 234.047 219.298 225.398 211.002C216.75 202.706 207.188 198.641 204.042 201.922C200.895 205.202 205.354 214.587 214.002 222.882ZM213.047 169.431C211.172 171.385 205.477 168.963 200.326 164.022C195.176 159.081 192.519 153.492 194.394 151.538C196.268 149.584 201.963 152.005 207.114 156.946C212.265 161.887 214.921 167.477 213.047 169.431ZM295.76 128.483C293.916 129.395 290.473 126.193 288.07 121.331C285.667 116.47 285.214 111.791 287.058 110.879C288.903 109.968 292.345 113.169 294.748 118.031C297.151 122.892 297.604 127.571 295.76 128.483ZM304.434 137.479C306.288 142.575 309.358 146.135 311.291 145.432C313.224 144.728 313.288 140.027 311.434 134.932C309.579 129.836 306.509 126.275 304.576 126.979C302.643 127.682 302.579 132.383 304.434 137.479ZM330.633 166.79C329.851 168.692 325.151 168.561 320.136 166.498C315.121 164.434 311.691 161.219 312.474 159.317C313.257 157.415 317.956 157.545 322.971 159.609C327.986 161.673 331.416 164.888 330.633 166.79ZM310.499 191.236C312.361 196.329 315.436 199.886 317.368 199.18C319.3 198.473 319.357 193.772 317.496 188.679C315.635 183.586 312.559 180.03 310.627 180.736C308.695 181.442 308.638 186.143 310.499 191.236ZM291.205 192.294C289.272 193.001 286.197 189.444 284.336 184.351C282.474 179.258 282.532 174.557 284.464 173.851C286.396 173.144 289.471 176.701 291.332 181.794C293.194 186.887 293.137 191.588 291.205 192.294ZM256.635 157.54C261.449 160.034 266.12 160.576 267.066 158.749C268.012 156.923 264.876 153.42 260.061 150.925C255.247 148.431 250.576 147.889 249.63 149.716C248.684 151.542 251.82 155.045 256.635 157.54ZM262.445 146.631C260.575 147.489 257.226 144.19 254.963 139.262C252.701 134.334 252.382 129.643 254.251 128.785C256.121 127.927 259.471 131.226 261.733 136.154C263.995 141.082 264.314 145.773 262.445 146.631ZM234.435 138.774C236.116 143.929 239.064 147.592 241.019 146.955C242.975 146.317 243.198 141.621 241.518 136.465C239.837 131.309 236.889 127.647 234.933 128.284C232.978 128.922 232.755 133.618 234.435 138.774ZM227.249 138.692C225.293 139.33 222.346 135.667 220.665 130.512C218.984 125.356 219.207 120.66 221.163 120.022C223.119 119.385 226.067 123.047 227.747 128.203C229.428 133.359 229.205 138.055 227.249 138.692ZM208.426 128.153C210.683 133.084 214.029 136.387 215.899 135.531C217.77 134.675 217.457 129.984 215.2 125.053C212.943 120.122 209.597 116.819 207.726 117.675C205.856 118.532 206.169 123.223 208.426 128.153ZM208.365 139.055C207.624 140.974 202.922 140.946 197.864 138.993C192.805 137.04 189.305 133.901 190.046 131.982C190.787 130.063 195.488 130.09 200.547 132.044C205.606 133.997 209.106 137.136 208.365 139.055ZM224.027 181.681C229.086 183.634 233.788 183.662 234.529 181.743C235.269 179.824 231.769 176.685 226.711 174.732C221.652 172.778 216.95 172.751 216.21 174.67C215.469 176.589 218.969 179.728 224.027 181.681ZM255.184 194.136C254.443 196.055 249.742 196.027 244.683 194.074C239.624 192.121 236.124 188.982 236.865 187.063C237.606 185.144 242.307 185.172 247.366 187.125C252.425 189.078 255.925 192.217 255.184 194.136ZM284.617 222.992C289.675 224.945 294.377 224.973 295.118 223.054C295.859 221.135 292.359 217.996 287.3 216.042C282.241 214.089 277.54 214.061 276.799 215.98C276.058 217.899 279.558 221.039 284.617 222.992ZM262.069 225.808C261.328 227.727 256.627 227.699 251.568 225.746C246.509 223.793 243.009 220.654 243.75 218.735C244.491 216.816 249.193 216.843 254.251 218.797C259.31 220.75 262.81 223.889 262.069 225.808ZM201.995 194.074C207.054 196.027 211.755 196.055 212.496 194.136C213.237 192.217 209.737 189.078 204.678 187.125C199.62 185.172 194.918 185.144 194.177 187.063C193.436 188.982 196.936 192.121 201.995 194.074ZM192.496 174.136C191.755 176.055 187.054 176.027 181.995 174.074C176.936 172.121 173.436 168.982 174.177 167.063C174.918 165.144 179.62 165.172 184.678 167.125C189.737 169.078 193.237 172.217 192.496 174.136ZM226.59 199.533C228.501 204.608 231.61 208.134 233.535 207.409C235.461 206.685 235.472 201.983 233.561 196.908C231.651 191.833 228.541 188.307 226.616 189.032C224.691 189.757 224.679 194.458 226.59 199.533Z" fill="#E6F7FD" fill-opacity="0.5"/>
<path fill-rule="evenodd" clip-rule="evenodd" d="M39.9874 -1.61064C47.3008 5.40473 55.3869 8.84277 58.0482 6.06843C60.7095 3.29409 56.9381 -4.64204 49.6247 -11.6574C42.3112 -18.6728 34.2251 -22.1108 31.5639 -19.3365C28.9026 -16.5622 32.6739 -8.62602 39.9874 -1.61064ZM101.209 33.8925C98.5479 36.6668 90.4618 33.2288 83.1483 26.2134C75.8349 19.1981 72.0635 11.2619 74.7248 8.48759C77.3861 5.71324 85.4722 9.15128 92.7856 16.1667C100.099 23.182 103.87 31.1182 101.209 33.8925ZM83.6674 63.1295C81.0062 65.9038 72.9201 62.4658 65.6066 55.4504C58.2931 48.435 54.5218 40.4989 57.1831 37.7246C59.8443 34.9502 67.9304 38.3883 75.2439 45.4036C82.5574 52.419 86.3287 60.3551 83.6674 63.1295ZM34.1648 35.6537C41.4783 42.669 49.5644 46.1071 52.2256 43.3327C54.8869 40.5584 51.1156 32.6223 43.8021 25.6069C36.4887 18.5915 28.4025 15.1535 25.7413 17.9278C23.08 20.7022 26.8514 28.6383 34.1648 35.6537ZM23.9968 42.3892C21.3356 45.1636 13.2495 41.7255 5.93602 34.7102C-1.37743 27.6948 -5.14878 19.7586 -2.48751 16.9843C0.173754 14.21 8.25986 17.648 15.5733 24.6634C22.8868 31.6788 26.6581 39.6149 23.9968 42.3892ZM141.184 23.6207C138.523 26.395 130.437 22.957 123.123 15.9416C115.81 8.92626 112.039 0.990122 114.7 -1.78422C117.361 -4.55856 125.447 -1.12052 132.761 5.89485C140.074 12.9102 143.846 20.8464 141.184 23.6207ZM90.9791 1.0137C93.0111 5.12466 95.9226 7.83236 97.4821 7.06151C99.0416 6.29066 98.6585 2.33317 96.6265 -1.77779C94.5945 -5.88875 91.6829 -8.59644 90.1235 -7.82559C88.564 -7.05474 88.9471 -3.09726 90.9791 1.0137ZM82.4045 4.1827C81.6458 5.74815 77.6855 5.39594 73.5588 3.39601C69.4321 1.39609 66.7018 -1.49422 67.4605 -3.05966C68.2191 -4.62511 72.1795 -4.27289 76.3062 -2.27297C80.4328 -0.273045 83.1632 2.61726 82.4045 4.1827ZM149.04 10.0006C153.167 12.0006 157.127 12.3528 157.886 10.7873C158.645 9.22188 155.914 6.33157 151.788 4.33165C147.661 2.33173 143.701 1.97951 142.942 3.54496C142.183 5.1104 144.913 8.0007 149.04 10.0006ZM110.617 21.3947C108.982 21.9897 106.385 18.9786 104.817 14.6694C103.249 10.3601 103.303 6.38448 104.937 5.78956C106.572 5.19463 109.169 8.20569 110.737 12.5149C112.305 16.8242 112.251 20.7998 110.617 21.3947ZM118.096 39.2096C122.337 40.9547 126.311 41.0652 126.973 39.4565C127.635 37.8478 124.734 35.129 120.493 33.3839C116.253 31.6388 112.278 31.5283 111.616 33.137C110.954 34.7457 113.855 37.4645 118.096 39.2096ZM115.755 66.8475C114.121 67.4447 111.521 64.4372 109.947 60.1301C108.373 55.8229 108.421 51.8472 110.055 51.2501C111.689 50.6529 114.289 53.6605 115.864 57.9676C117.438 62.2747 117.389 66.2504 115.755 66.8475ZM87.821 54.3075C89.3951 58.6146 91.9958 61.6221 93.6297 61.025C95.2636 60.4278 95.312 56.4521 93.7378 52.145C92.1637 47.8379 89.5631 44.8304 87.9292 45.4275C86.2953 46.0247 86.2468 50.0004 87.821 54.3075ZM73.2165 32.6568C72.4162 34.2014 68.4667 33.7434 64.395 31.6337C60.3233 29.5241 57.6713 26.5618 58.4715 25.0172C59.2718 23.4726 63.2213 23.9307 67.293 26.0403C71.3647 28.1499 74.0167 31.1122 73.2165 32.6568ZM62.9814 16.1772C64.8947 20.3447 67.7274 23.1348 69.3083 22.409C70.8893 21.6832 70.6198 17.7163 68.7065 13.5488C66.7932 9.38124 63.9606 6.59116 62.3796 7.31697C60.7987 8.04278 61.0681 12.0096 62.9814 16.1772ZM51.1898 22.6823C49.5359 23.2215 47.0429 20.1241 45.6217 15.7641C44.2005 11.4042 44.3891 7.43265 46.0431 6.89351C47.697 6.35438 50.1899 9.45177 51.6112 13.8117C53.0324 18.1717 52.8437 22.1432 51.1898 22.6823ZM33.9766 8.77712C35.3978 13.1371 37.8908 16.2345 39.5447 15.6953C41.1986 15.1562 41.3873 11.1847 39.9661 6.82473C38.5448 2.46476 36.0519 -0.632626 34.398 -0.0934868C32.744 0.445652 32.5554 4.41716 33.9766 8.77712ZM29.9465 13.0218C28.3647 13.7458 25.5353 10.9526 23.6267 6.78286C21.7181 2.61315 21.4531 -1.354 23.0349 -2.07802C24.6167 -2.80204 27.4462 -0.00875854 29.3547 4.16095C31.2633 8.33065 31.5283 12.2978 29.9465 13.0218ZM11.8639 12.1754C16.1418 13.8272 20.1177 13.8507 20.7443 12.2278C21.3709 10.605 18.4109 7.9504 14.133 6.29861C9.85507 4.64683 5.87915 4.62335 5.25255 6.24617C4.62595 7.869 7.58594 10.5236 11.8639 12.1754ZM45.7006 52.1018C45.074 53.7246 41.0981 53.7011 36.8201 52.0493C32.5422 50.3976 29.5822 47.743 30.2088 46.1201C30.8354 44.4973 34.8113 44.5208 39.0893 46.1726C43.3672 47.8243 46.3272 50.479 45.7006 52.1018ZM54.2878 62.53C58.5657 64.1817 62.5416 64.2052 63.1682 62.5824C63.7948 60.9596 60.8349 58.305 56.5569 56.6532C52.279 55.0014 48.3031 54.9779 47.6765 56.6007C47.0499 58.2236 50.0099 60.8782 54.2878 62.53ZM20.4638 58.8083C19.8372 60.4312 15.8613 60.4077 11.5833 58.7559C7.3054 57.1041 4.34541 54.4495 4.97201 52.8267C5.59861 51.2038 9.57453 51.2273 13.8525 52.8791C18.1304 54.5309 21.0904 57.1855 20.4638 58.8083ZM32.3825 65.2593C33.9984 69.5509 36.6282 72.5331 38.2562 71.9201C39.8842 71.3071 39.894 67.3311 38.2781 63.0395C36.6622 58.7479 34.0325 55.7657 32.4045 56.3787C30.7765 56.9917 30.7666 60.9677 32.3825 65.2593Z" fill="#CDF1FF"/>
</g>
</svg>
