<svg width="142" height="148" viewBox="0 0 142 148" fill="none" xmlns="http://www.w3.org/2000/svg">
<path d="M134.152 19.4913L133.311 18.0937C126.216 6.31489 113.387 -0.782077 99.8606 0.0688344C98.1199 0.181735 96.3899 0.423785 94.6845 0.793015C82.3876 3.44713 71.6796 12.8144 67.2511 24.8105C64.6415 31.8676 63.9154 39.9893 58.9657 45.5908C52.5208 52.8797 41.5862 53.1078 31.9709 52.8073C22.3556 52.5067 11.4102 52.7602 5.01199 60.078C1.0005 64.6621 -0.275551 71.1797 0.0479558 77.3171C0.903452 93.5641 12.1435 108.095 26.4389 115.315C40.7343 122.535 57.5639 123.183 73.2072 120.022C95.1338 115.572 115.982 103.348 128.491 84.472C141 65.5963 144.174 39.8662 134.152 19.4913Z" fill="#F4F5FB"/>
<path d="M26.7841 21.1411C30.087 20.2721 33.5948 20.7571 36.538 22.4897C39.4813 24.2224 41.6197 27.0612 42.4843 30.3835L47.7943 50.9142L44.0625 51.8954L38.7475 31.364C38.1459 29.04 36.6517 27.0537 34.5936 25.842C32.5355 24.6303 30.0822 24.2925 27.7733 24.9029C25.4643 25.5134 23.489 27.022 22.2818 29.0969C21.0745 31.1719 20.7343 33.6432 21.336 35.9672L17.5878 36.9563C16.733 33.6353 17.221 30.1059 18.9448 27.1415C20.6685 24.1771 23.4876 22.0193 26.7841 21.1411Z" fill="#00ACE9"/>
<path d="M36.4652 22.6145C33.5548 20.9013 30.0862 20.4218 26.8201 21.2812C23.5603 22.1498 20.7727 24.2836 19.0681 27.2149C17.3876 30.1046 16.8947 33.5371 17.6906 36.7799L21.1609 35.864C20.5989 33.544 20.9548 31.0907 22.1572 29.0243C23.3838 26.9162 25.3908 25.3834 27.7366 24.7631C30.0825 24.1429 32.575 24.486 34.666 25.7169C36.7569 26.9479 38.2749 28.9659 38.8861 31.327L44.1643 51.7183L47.618 50.8102L42.3449 30.4201C41.4901 27.1348 39.3756 24.3277 36.4652 22.6145Z" fill="#E6E8F3" stroke="#161B46" stroke-width="0.288188"/>
<path d="M18.2107 48.9874L47.77 41.1825C48.8772 40.8901 50.0085 41.5557 50.2969 42.6691L54.8626 60.2951C55.151 61.4084 54.4873 62.548 53.3802 62.8403L23.8208 70.6452C22.7137 70.9376 21.5824 70.272 21.294 69.1586L16.7282 51.5326C16.4398 50.4193 17.1035 49.2797 18.2107 48.9874Z" fill="#00ACE9"/>
<path d="M32.2623 53.8287C32.1242 53.3034 32.1346 52.7495 32.2923 52.2292C32.4499 51.709 32.7486 51.2431 33.1547 50.8841C33.5607 50.5251 34.0581 50.2872 34.5906 50.1972C35.1232 50.1072 35.6698 50.1686 36.1689 50.3747C36.6681 50.5807 37.0999 50.9231 37.4157 51.3633C37.7316 51.8035 37.9189 52.3241 37.9566 52.8663C37.9944 53.4085 37.881 53.9509 37.6293 54.4323C37.3775 54.9137 36.9975 55.315 36.5319 55.5911L37.6264 59.8116L36.0946 60.2176L35.0029 55.9949C34.3735 55.9844 33.7651 55.7671 33.2704 55.376C32.7757 54.985 32.4217 54.4416 32.2623 53.8287Z" fill="#0E1339"/>
<path d="M53.0588 60.7491C53.1379 60.7296 52.2627 57.096 51.1072 52.6377C49.9516 48.1794 48.9572 44.5777 48.8781 44.5973C48.7989 44.6168 49.6741 48.2504 50.8318 52.7115C51.9895 57.1727 52.9846 60.7694 53.0588 60.7491Z" fill="#FAFAFF"/>
<path d="M38.202 56.1308C38.3117 56.059 38.4063 55.9661 38.4801 55.8573C38.7018 55.5735 38.8804 55.2583 39.0101 54.9218C39.2404 54.3644 39.3455 53.7628 39.3177 53.1601C39.2898 52.5575 39.1299 51.9688 38.8492 51.4363C38.5685 50.9038 38.1742 50.4407 37.6944 50.0803C37.2146 49.7199 36.6613 49.471 36.0743 49.3517C35.7246 49.2654 35.3635 49.2358 35.0044 49.264C34.754 49.2875 34.6099 49.3337 34.6185 49.3452C35.0881 49.3745 35.5548 49.4399 36.0144 49.5407C36.5595 49.6784 37.0697 49.9298 37.512 50.2786C37.9544 50.6273 38.319 51.0657 38.5824 51.5655C38.8458 52.0653 39.0021 52.6153 39.0412 53.1801C39.0804 53.7449 39.0015 54.312 38.8097 54.8446C38.6394 55.288 38.4363 55.718 38.202 56.1308Z" fill="#FAFAFF"/>
<path d="M50.6949 28.6442L49.6667 27.9447L49.6382 29.1944C49.6056 30.1866 49.2899 31.1482 48.729 31.9644L48.0345 33.0001L49.2752 33.0289C50.259 33.0677 51.2121 33.3851 52.025 33.9447L53.0615 34.6693L53.1412 33.3911C53.1794 32.3975 53.497 31.4351 54.057 30.6162L54.7448 29.5854L53.5108 29.5517C52.5051 29.5279 51.5275 29.2129 50.6949 28.6442Z" fill="#E6E8F3"/>
<path d="M8.15153 24.5026L7.55973 24.0972L7.54061 24.8194C7.533 25.4071 7.35811 25.9802 7.03671 26.4707L6.63421 27.0668L7.35615 27.0927C7.93235 27.1048 8.49288 27.284 8.97064 27.6087L9.56244 28.0141L9.58152 27.2503C9.59198 26.6709 9.77186 26.1075 10.0987 25.6306L10.5028 25.0228L9.77922 25.0085C9.19987 24.9996 8.63513 24.8241 8.15153 24.5026Z" fill="#E6E8F3"/>
<path d="M40.1111 7.56979L38.3836 6.38999L38.3395 8.5051C38.2986 10.1825 37.7783 11.8124 36.8407 13.1993L35.6761 14.9345L37.7758 14.979C39.4421 15.0216 41.0614 15.5437 42.4425 16.4837L44.165 17.6569L44.2026 15.5468C44.2416 13.8677 44.7602 12.2356 45.6963 10.8459L46.8609 9.11072L44.7662 9.07286C43.1042 9.02812 41.4893 8.50669 40.1111 7.56979Z" fill="#E6E8F3"/>
<path d="M136.868 130.166C136.868 130.223 108.725 130.271 74.0141 130.271C39.303 130.271 11.154 130.223 11.154 130.166C11.154 130.109 39.2914 130.06 74.0141 130.06C108.737 130.06 136.868 130.105 136.868 130.166Z" fill="#2D3259"/>
<path d="M136.029 5.88279H104.472C103.152 5.88279 101.887 6.41086 100.954 7.35084C100.02 8.29082 99.4963 9.5657 99.4963 10.895V18.8063C99.4963 20.1356 100.02 21.4105 100.954 22.3505C101.887 23.2905 103.152 23.8185 104.472 23.8185H104.799V28.337L109.854 23.8185H136.029C137.348 23.8185 138.614 23.2905 139.547 22.3505C140.48 21.4105 141.005 20.1356 141.005 18.8063V10.895C141.005 9.5657 140.48 8.29082 139.547 7.35084C138.614 6.41086 137.348 5.88279 136.029 5.88279Z" fill="white"/>
<path d="M136.029 5.88317H136.303C136.547 5.8865 136.79 5.90958 137.03 5.9522C137.189 5.98406 137.368 6.03184 137.558 6.07963C137.766 6.1466 137.97 6.2264 138.169 6.31856C138.671 6.54739 139.13 6.85971 139.529 7.24242C140.031 7.72277 140.431 8.30081 140.704 8.94149C141.008 9.71401 141.143 10.5435 141.1 11.3733C141.1 13.1414 141.1 15.159 141.1 17.3996C141.1 17.9625 141.1 18.5306 141.1 19.1252C141.041 20.0886 140.712 21.0156 140.153 21.7991C139.593 22.5826 138.825 23.1908 137.937 23.5534C137.3 23.8073 136.62 23.9353 135.934 23.9304H133.852H129.498H109.864L109.954 23.8932L104.904 28.417L104.672 28.6188V23.7924L104.809 23.9304C103.823 23.9762 102.844 23.7465 101.979 23.2667C101.131 22.7811 100.435 22.0655 99.9708 21.2013C99.7501 20.7713 99.5854 20.3145 99.4806 19.842C99.3944 19.3747 99.3573 18.8995 99.3699 18.4244C99.3699 17.4952 99.3699 16.5713 99.3699 15.6634V11.6122C99.3699 11.1715 99.3699 10.7308 99.4068 10.2795C99.5106 9.40337 99.8353 8.56861 100.35 7.85479C100.865 7.14096 101.553 6.57187 102.348 6.20175C103.115 5.85302 103.953 5.69114 104.794 5.7292H111.741H119.916L131.717 5.77168H134.912H135.744C135.934 5.77168 136.029 5.77168 136.029 5.77168H135.744H134.912H131.717L119.916 5.81946H111.741H104.788C103.984 5.77948 103.181 5.93423 102.448 6.27077C101.693 6.62194 101.039 7.16286 100.551 7.8416C100.063 8.52035 99.7558 9.31413 99.6598 10.1468C99.6254 10.5812 99.6148 11.0173 99.6282 11.4529V18.2651C99.6155 18.7224 99.6508 19.1798 99.7336 19.6297C99.8355 20.0762 99.9931 20.5079 100.203 20.9146C100.642 21.7331 101.301 22.4104 102.105 22.8685C102.929 23.3235 103.861 23.5404 104.799 23.495H104.936V28.1568L104.704 28.056L109.759 23.5375L109.796 23.5003H109.848H129.482H133.836C135.244 23.4579 136.646 23.6756 137.842 23.1499C138.697 22.8044 139.436 22.222 139.976 21.4701C140.515 20.7183 140.831 19.828 140.889 18.9022C140.92 18.3288 140.889 17.7448 140.889 17.1873C140.889 14.9466 140.889 12.9396 140.889 11.1609C140.938 10.3474 140.814 9.53281 140.525 8.77158C140.263 8.14278 139.878 7.57387 139.392 7.09907C139.005 6.71839 138.558 6.40606 138.069 6.1752C137.875 6.08253 137.676 6.00098 137.473 5.93096L136.946 5.79291C136.639 5.80766 136.333 5.83778 136.029 5.88317Z" fill="#2D3259"/>
<path d="M109.221 14.5378L110.233 15.0688L109.659 16.0245L108.605 15.398L108.636 16.5448H107.508L107.535 15.398L106.48 16.0245L105.916 15.0688L106.923 14.5378L105.916 13.9803L106.48 13.0193L107.535 13.6617L107.508 12.4989H108.636L108.605 13.6617L109.659 13.0193L110.233 13.9803L109.221 14.5378Z" fill="#D4D9F5"/>
<path d="M113.912 14.5378L114.924 15.0688L114.35 16.0245L113.296 15.398L113.327 16.5448H112.199V15.398L111.145 16.0245L110.581 15.0688L111.588 14.5378L110.581 13.9803L111.145 13.0193L112.199 13.6617V12.4989H113.327L113.296 13.6617L114.35 13.0193L114.924 13.9803L113.912 14.5378Z" fill="#D4D9F5"/>
<path d="M118.603 14.5378L119.615 15.0688L119.041 16.0245L117.987 15.398L118.013 16.5448H116.885L116.911 15.398L115.857 16.0245L115.293 15.0688L116.3 14.5378L115.293 13.9803L115.857 13.0193L116.911 13.6617L116.885 12.4989H118.013L117.987 13.6617L119.041 13.0193L119.615 13.9803L118.603 14.5378Z" fill="#D4D9F5"/>
<path d="M123.294 14.5378L124.306 15.0688L123.732 16.0245L122.678 15.398L122.704 16.5448H121.576L121.602 15.398L120.548 16.0245L119.984 15.0688L120.996 14.5378L119.984 13.9803L120.548 13.0193L121.602 13.6617L121.576 12.4989H122.704L122.678 13.6617L123.732 13.0193L124.306 13.9803L123.294 14.5378Z" fill="#D4D9F5"/>
<path d="M127.986 14.5378L128.998 15.0688L128.423 16.0245L127.369 15.398L127.395 16.5448H126.288L126.315 15.398L125.26 16.0245L124.696 15.0688L125.708 14.5378L124.707 13.9803L125.271 13.0193L126.325 13.6617L126.299 12.4989H127.427L127.4 13.6617L128.455 13.0193L129.029 13.9803L127.986 14.5378Z" fill="#D4D9F5"/>
<path d="M132.677 14.5378L133.689 15.0688L133.141 16.0723L132.086 15.4458V16.5926H130.958L130.985 15.4458L129.978 16.0723L129.414 15.1166L130.426 14.5856L129.414 14.0281L129.978 13.0671L131.032 13.7095L131.006 12.5467H132.086V13.7095L133.141 13.0671L133.715 14.0281L132.677 14.5378Z" fill="#D4D9F5"/>
<path d="M72.7891 107.906C72.7891 107.906 109.641 88.5651 117.632 99.2345C125.624 109.904 109.61 118.285 106.517 120.169C103.423 122.054 72.121 132.764 72.121 132.764L63.8625 123.886L72.7891 107.906Z" fill="#161B46"/>
<path d="M87.3224 118.254L102.015 126.221L115.443 129.151C115.672 129.202 115.888 129.3 116.078 129.438C116.268 129.576 116.427 129.752 116.547 129.954C116.667 130.157 116.745 130.382 116.775 130.616C116.805 130.85 116.787 131.088 116.723 131.315C116.649 131.579 116.513 131.821 116.325 132.02C116.138 132.219 115.906 132.37 115.649 132.459C112.314 133.629 100.036 137.869 98.9932 137.227C97.7855 136.481 82.9388 129.855 82.9388 129.855L87.3224 118.254Z" fill="#00ACE9"/>
<g opacity="0.6">
<path opacity="0.6" d="M116.723 131.315L97.9912 136.688L98.6182 137.015C99.1636 137.295 99.7905 137.37 100.386 137.227C101.974 136.849 106.342 135.674 115.623 132.485C115.89 132.393 116.13 132.237 116.322 132.029C116.514 131.821 116.652 131.569 116.723 131.294V131.315Z" fill="white"/>
</g>
<g opacity="0.6">
<path opacity="0.6" d="M94.7484 131.175C94.9754 131.059 95.2372 131.031 95.4831 131.098C95.7291 131.165 95.9416 131.322 96.0794 131.537C96.2022 131.762 96.235 132.026 96.171 132.274C96.107 132.523 95.951 132.737 95.7351 132.873C95.4935 132.994 95.2161 133.02 94.9563 132.948C94.6964 132.875 94.4723 132.708 94.327 132.48C94.2221 132.232 94.2171 131.953 94.313 131.702C94.409 131.45 94.5983 131.247 94.8409 131.134" fill="white"/>
</g>
<path d="M108.495 131.403C108.578 131.341 107.982 130.6 107.982 129.498C107.982 128.395 108.608 127.67 108.526 127.603C108.444 127.536 108.285 127.701 108.059 128.028C107.774 128.463 107.621 128.972 107.617 129.493C107.605 130.013 107.744 130.526 108.018 130.968C108.254 131.299 108.465 131.434 108.495 131.403Z" fill="#161B46"/>
<path d="M111.024 131.356C111.126 131.32 110.885 130.59 111.054 129.705C111.224 128.82 111.692 128.219 111.61 128.152C111.527 128.085 110.875 128.628 110.695 129.643C110.515 130.657 110.947 131.418 111.024 131.356Z" fill="#161B46"/>
<path d="M104.939 132.081C105.042 132.045 104.667 130.927 104.816 129.524C104.965 128.121 105.525 127.091 105.427 127.039C105.33 126.987 104.59 127.981 104.451 129.488C104.312 130.994 104.862 132.133 104.939 132.081Z" fill="#161B46"/>
<path d="M100.273 130.031C100.381 130.031 100.453 129.037 100.961 127.96C101.47 126.884 102.154 126.143 102.082 126.06C102.01 125.978 101.157 126.62 100.627 127.805C100.098 128.99 100.175 130.047 100.273 130.031Z" fill="#161B46"/>
<path d="M95.8997 127.805C96.0077 127.805 95.9357 126.713 96.5627 125.605C97.1897 124.497 98.1044 123.964 98.0582 123.871C98.0119 123.778 97.7704 123.902 97.4004 124.145C96.917 124.471 96.5187 124.91 96.2389 125.424C95.9559 125.937 95.7974 126.509 95.7764 127.096C95.7713 127.541 95.8535 127.81 95.8997 127.805Z" fill="#161B46"/>
<path d="M95.7144 125.206C95.7144 125.206 95.5448 125.051 95.1645 124.896C94.6233 124.681 94.045 124.577 93.4635 124.59C93.0369 124.562 92.6128 124.674 92.2558 124.911C92.1478 125.002 92.0695 125.124 92.031 125.261C91.9926 125.397 91.9957 125.543 92.04 125.677C92.148 125.934 92.3454 126.142 92.595 126.262C93.1116 126.484 93.6886 126.517 94.227 126.357C94.7653 126.196 95.2313 125.851 95.5448 125.382C95.8465 124.912 96.0022 124.362 95.9921 123.802C95.9821 123.243 95.8067 122.699 95.4883 122.24C95.4085 122.124 95.3047 122.027 95.184 121.955C95.0633 121.884 94.9287 121.84 94.7893 121.826C94.6476 121.827 94.5099 121.874 94.3956 121.958C94.2813 122.043 94.1961 122.161 94.1521 122.297C94.043 122.706 94.043 123.136 94.1521 123.545C94.2668 124.117 94.4826 124.664 94.7893 125.16C95.0103 125.507 95.1696 125.677 95.1902 125.677C94.825 125.001 94.5617 124.273 94.4091 123.519C94.3192 123.162 94.3192 122.788 94.4091 122.432C94.4304 122.356 94.4757 122.29 94.5379 122.244C94.6001 122.197 94.6758 122.172 94.7534 122.173C94.8447 122.188 94.9317 122.223 95.0087 122.275C95.0858 122.326 95.1511 122.394 95.2005 122.473C95.4605 122.879 95.5988 123.351 95.5988 123.834C95.5988 124.317 95.4605 124.79 95.2005 125.196C94.9339 125.591 94.5424 125.883 94.0897 126.025C93.6371 126.167 93.15 126.15 92.708 125.978C92.532 125.9 92.3885 125.762 92.302 125.589C92.2746 125.516 92.2707 125.435 92.291 125.359C92.3113 125.283 92.3547 125.215 92.4151 125.165C92.719 124.961 93.0782 124.858 93.4429 124.87C94.2139 124.844 94.9832 124.958 95.7144 125.206Z" fill="#161B46"/>
<path d="M92.5899 120.149C92.5899 120.149 57.8654 98.9549 53.1734 96.3354C49.1392 94.0732 36.3944 89.0879 31.9029 101.383C27.4113 113.678 51.5957 131.843 51.5957 131.843L72.1211 132.77L78.9714 130.135L86.752 132.547L92.5899 120.149Z" fill="#161B46"/>
<path d="M68.1744 133.194L52.6082 139.277L41.6723 147.648C41.4856 147.791 41.2716 147.894 41.0437 147.95C40.8157 148.007 40.5787 148.015 40.3474 147.975C40.116 147.936 39.8953 147.848 39.6988 147.719C39.5024 147.589 39.3345 147.421 39.2056 147.223C39.0583 146.996 38.9667 146.736 38.9381 146.467C38.9095 146.197 38.9448 145.924 39.0411 145.67C40.3259 142.362 45.1155 130.207 46.2769 129.829C47.6233 129.389 62.2748 122.338 62.2748 122.338L68.1744 133.194Z" fill="#00ACE9"/>
<g opacity="0.6">
<path opacity="0.6" d="M39.2054 147.197L47.32 129.353L46.6673 129.622C46.1013 129.856 45.6366 130.285 45.3568 130.833C44.6117 132.298 42.6383 136.393 39.0204 145.582C38.9174 145.846 38.8804 146.131 38.9127 146.413C38.9449 146.695 39.0454 146.964 39.2054 147.197Z" fill="white"/>
</g>
<g opacity="0.6">
<path opacity="0.6" d="M53.5999 130.476C53.5399 130.726 53.3899 130.944 53.179 131.088C52.9682 131.233 52.7116 131.293 52.459 131.258C52.2101 131.206 51.9903 131.061 51.8449 130.851C51.6996 130.641 51.6398 130.382 51.6779 130.129C51.7437 129.866 51.904 129.636 52.1278 129.484C52.3517 129.332 52.6234 129.269 52.8907 129.306C53.1461 129.386 53.3603 129.564 53.488 129.801C53.6156 130.037 53.6465 130.315 53.5742 130.574" fill="white"/>
</g>
<path d="M44.4885 140.83C44.4885 140.939 45.4341 140.949 46.2461 141.694C47.0581 142.44 47.2174 143.361 47.3201 143.341C47.4229 143.32 47.4024 143.092 47.3201 142.709C47.176 142.209 46.8936 141.761 46.5058 141.418C46.1181 141.074 45.6412 140.848 45.1309 140.768C44.7249 140.726 44.4885 140.799 44.4885 140.83Z" fill="#161B46"/>
<path d="M42.8903 142.807C42.8543 142.911 43.5584 143.201 44.1134 143.91C44.6684 144.619 44.8277 145.359 44.9305 145.344C45.0333 145.328 45.0487 144.474 44.4166 143.677C43.7845 142.88 42.8903 142.709 42.8903 142.807Z" fill="#161B46"/>
<path d="M46.2924 137.682C46.2513 137.786 47.3202 138.226 48.3017 139.235C49.2833 140.245 49.6739 141.358 49.7766 141.306C49.8794 141.254 49.6122 140.053 48.5638 138.966C47.5155 137.879 46.3026 137.589 46.2924 137.682Z" fill="#161B46"/>
<path d="M50.8713 135.441C50.7942 135.518 51.5034 136.228 52.0019 137.33C52.5004 138.433 52.598 139.427 52.7059 139.401C52.8139 139.375 52.8807 138.329 52.3359 137.154C51.7912 135.979 50.9227 135.358 50.8713 135.441Z" fill="#161B46"/>
<path d="M55.3934 133.546C55.3265 133.629 56.1951 134.276 56.6267 135.482C57.0584 136.688 56.8477 137.734 56.9556 137.755C57.0635 137.775 57.1201 137.517 57.1817 137.071C57.2488 136.489 57.1747 135.9 56.9659 135.353C56.7656 134.802 56.438 134.307 56.01 133.908C55.676 133.613 55.419 133.505 55.3934 133.546Z" fill="#161B46"/>
<path d="M57.4748 135.094C57.6861 135.066 57.8883 134.99 58.0658 134.871C58.5799 134.598 59.0343 134.223 59.4019 133.769C59.702 133.462 59.8918 133.063 59.9415 132.635C59.9465 132.492 59.907 132.352 59.8287 132.233C59.7503 132.114 59.637 132.023 59.5047 131.972C59.2426 131.888 58.9589 131.905 58.7081 132.019C58.2046 132.27 57.8035 132.69 57.5738 133.207C57.344 133.724 57.3 134.305 57.4491 134.851C57.6092 135.387 57.9238 135.863 58.3529 136.218C58.782 136.574 59.3063 136.794 59.8593 136.849C59.9986 136.862 60.1392 136.845 60.2714 136.799C60.4035 136.752 60.5242 136.677 60.625 136.58C60.7152 136.47 60.7691 136.335 60.7792 136.193C60.7893 136.051 60.7552 135.909 60.6815 135.788C60.4439 135.439 60.1172 135.162 59.7359 134.985C59.228 134.703 58.6749 134.512 58.1017 134.421C57.8933 134.377 57.6781 134.377 57.4696 134.421C58.2172 134.582 58.9373 134.853 59.6075 135.223C59.9316 135.394 60.2088 135.643 60.4143 135.948C60.4571 136.013 60.4773 136.09 60.4718 136.168C60.4662 136.246 60.4351 136.32 60.3835 136.378C60.3129 136.437 60.2307 136.481 60.1422 136.507C60.0537 136.533 59.9609 136.54 59.8696 136.528C59.396 136.462 58.951 136.262 58.5868 135.95C58.2226 135.638 57.9545 135.228 57.814 134.768C57.6896 134.307 57.7235 133.818 57.9101 133.379C58.0966 132.94 58.425 132.577 58.8418 132.35C59.0138 132.264 59.211 132.244 59.3968 132.293C59.4707 132.32 59.5344 132.369 59.5788 132.434C59.6231 132.499 59.6457 132.577 59.6434 132.656C59.6001 133.016 59.4475 133.354 59.2066 133.624C58.7199 134.213 58.1336 134.71 57.4748 135.094Z" fill="#161B46"/>
<path d="M61.3909 137.108C61.8277 136.88 79.4084 129.669 79.4084 129.669L61.9357 120.951L51.4212 126.444L61.3909 137.108Z" fill="#161B46"/>
<path d="M39.6781 115.795L39.9196 115.867L40.6134 116.1L43.2703 117.027L53.0345 120.48L85.2307 131.926L86.7724 132.407L86.6131 132.48L92.4767 120.123L92.5281 120.283L72.2751 107.807L66.4474 104.183L64.9057 103.21L64.51 102.951C64.4227 102.894 64.3764 102.863 64.3815 102.858L64.5203 102.936L64.9314 103.174L66.4988 104.111L72.3676 107.667L92.6669 120.061L92.7645 120.123L92.7183 120.226L86.87 132.599L86.8186 132.702L86.7107 132.666L85.169 132.185C84.3622 131.952 83.5913 131.667 82.8153 131.382L80.5027 130.554L75.965 128.923L67.429 125.853L52.9728 120.677L43.2343 117.141L40.5929 116.168L39.9094 115.909C39.83 115.876 39.7527 115.838 39.6781 115.795Z" fill="#0064A7"/>
<path d="M61.3908 137.108C61.1606 136.913 60.9427 136.704 60.7382 136.481L59.032 134.706C57.5982 133.199 55.63 131.082 53.4664 128.778L51.2926 126.433L51.1744 126.304L51.3286 126.226L56.6629 123.638L58.2046 122.903C58.3886 122.809 58.5793 122.729 58.7751 122.665C58.6152 122.788 58.4429 122.893 58.2612 122.98L56.7657 123.746L51.4725 126.438L51.5085 126.231L53.6925 128.571C55.8561 130.896 57.8038 133.013 59.2016 134.556L60.8461 136.388C61.0492 136.611 61.2315 136.852 61.3908 137.108Z" fill="#0064A7"/>
<path d="M96.8502 102.775C96.881 102.843 92.5539 104.737 87.1888 107C81.8236 109.262 77.4554 111.048 77.4246 110.981C77.3937 110.913 81.7208 109.019 87.086 106.751C92.4512 104.484 96.8502 102.703 96.8502 102.775Z" fill="#0064A7"/>
<path d="M70.1271 49.434C69.7622 49.434 57.0842 49.315 54.525 51.893C51.9657 54.471 46.6519 93.9542 46.6519 93.9542C49.3859 94.4719 51.164 95.5072 52.8188 96.3252L74.3668 108.982L83.6942 104.101C83.9973 103.932 84.2595 103.698 84.4619 103.414C84.6643 103.131 84.8019 102.807 84.8648 102.464C84.9277 102.12 84.9144 101.768 84.8257 101.43C84.737 101.093 84.5752 100.78 84.352 100.513L96.7628 55.3252C94.9254 53.9206 92.8879 52.8037 90.7193 52.012C87.086 50.6661 70.1271 49.434 70.1271 49.434Z" fill="#0064A7"/>
<path d="M92.59 53.6271C92.59 53.6271 96.4031 54.4761 97.8626 56.847C101.285 62.4017 111.8 82.1304 113.568 86.8723C115.438 91.8782 113.429 94.7254 112.077 96.8376C110.623 99.1102 102.632 99.105 99.0086 95.2069C97.4669 93.5296 88.8025 85.6247 88.8025 85.6247L92.59 53.6271Z" fill="#0064A7"/>
<path d="M96.9275 60.9522C96.8897 61.0853 96.8416 61.2151 96.7836 61.3405L96.3159 62.438C95.9305 63.3957 95.3909 64.7882 94.7742 66.5276C93.5306 70.0116 92.0094 74.8829 90.3957 80.2874C88.7821 85.692 87.3791 90.584 86.3359 94.156C85.822 95.9316 85.38 97.3656 85.0665 98.3492L84.6965 99.4829C84.6608 99.6166 84.6126 99.7466 84.5526 99.8712C84.573 99.7343 84.6039 99.5993 84.6451 99.4674C84.7274 99.1809 84.8353 98.7979 84.9689 98.3181C85.2567 97.2828 85.6575 95.8643 86.156 94.1042C87.153 90.5426 88.5303 85.6247 90.1388 80.2098C91.7473 74.7949 93.3044 69.9339 94.5943 66.4655C95.2367 64.7261 95.8072 63.3594 96.2234 62.3965L96.7373 61.3198C96.7883 61.1912 96.852 61.068 96.9275 60.9522Z" fill="#161B46"/>
<path d="M55.1314 51.4425C55.1314 51.4425 51.1281 53.7358 49.6634 55.0662C48.1988 56.3966 33.0694 78.1443 31.132 84.9207C30.0066 88.8446 34.2977 96.9618 38.9228 96.5684C44.9715 96.0507 67.6655 87.2864 67.6655 87.2864L62.5727 76.1201L49.7251 78.1909L59.0525 68.7484L55.5733 51.1888" fill="#0064A7"/>
<path d="M108.958 84.5428C108.877 84.5048 108.802 84.4579 108.732 84.4031L108.105 83.9682L105.828 82.3324C103.916 80.9346 101.285 78.983 98.3867 76.8139L96.4493 75.3593L96.6292 75.3334C94.7842 77.7613 93.1397 79.8786 91.9423 81.3747C91.3434 82.2057 90.6745 82.9834 89.9432 83.699L91.8087 81.2659L96.4339 75.1729L96.511 75.0694L96.6137 75.147L98.5563 76.5965C101.455 78.7656 104.065 80.7379 105.951 82.1822L108.156 83.8854L108.752 84.3617C108.827 84.4141 108.896 84.4749 108.958 84.5428Z" fill="#161B46"/>
<path d="M73.0409 72.1704L62.8656 76.7622L66.9254 85.6507L73.2876 81.4213L73.0409 72.1704Z" fill="#B2655F"/>
<path d="M82.6562 73.04L89.4655 68.3809C89.7047 68.2153 89.9935 68.1385 90.2826 68.1635L99.1834 68.9296C99.3574 68.9441 99.5193 69.0251 99.6359 69.156C99.7525 69.287 99.8149 69.4579 99.8104 69.6337C99.8201 69.8103 99.7915 69.987 99.7267 70.1515C99.662 70.3159 99.5625 70.4643 99.4352 70.5862L84.9791 80.7172L74.1871 78.9933L82.6562 73.04Z" fill="#F4F5FB"/>
<path d="M73.0412 72.1703C73.0412 72.1703 76.7156 69.4266 77.5789 69.2765C78.4423 69.1263 82.3223 69.1419 82.3223 69.1419L85.5907 71.021L83.5659 72.4032C82.163 72.0926 81.7621 71.5439 81.7621 71.5439L79.5009 71.694L73.0412 72.1703Z" fill="#B2655F"/>
<path d="M77.1729 70.9797L82.9749 73.0142L91.3207 74.1996C91.3356 74.6693 91.1713 75.1269 90.8616 75.4784C90.5519 75.8298 90.1204 76.0484 89.6556 76.0892C88.6278 76.1979 86.8908 76.3169 86.8908 76.3169C86.8908 76.3169 86.4643 77.87 85.1641 78.2065C84.8661 78.7958 84.437 79.3079 83.9102 79.7026C83.8301 79.7522 83.7436 79.7905 83.6532 79.8164C82.8515 80.0494 81.2533 82.2392 80.1844 82.5343C79.1154 82.8293 73.2775 81.4419 73.2775 81.4419L73.0308 72.1962L77.1729 70.9797Z" fill="#B2655F"/>
<path d="M78.8635 75.7526C78.8635 75.7267 79.326 75.851 80.0609 76.0011C81.0261 76.194 82.0029 76.3219 82.985 76.3842C83.9637 76.4525 84.9459 76.4525 85.9245 76.3842C86.68 76.3324 87.1425 76.2651 87.1476 76.291C87.0428 76.3286 86.9342 76.3546 86.8239 76.3686C86.6183 76.4101 86.31 76.4566 85.9348 76.4981C84.9514 76.5999 83.9611 76.6172 82.9747 76.5498C81.986 76.4902 81.0042 76.3447 80.0403 76.115C79.6703 76.027 79.3722 75.9441 79.1718 75.8768C79.0648 75.8471 78.9614 75.8054 78.8635 75.7526Z" fill="#8E4842"/>
<path d="M80.0045 78.1495C80.0289 78.3446 80.0096 78.5427 79.9479 78.7293C79.8954 78.9423 79.7872 79.1371 79.6345 79.2936C79.5316 79.3844 79.4118 79.4535 79.2821 79.4971C79.1524 79.5407 79.0154 79.5577 78.879 79.5472C78.617 79.5258 78.3619 79.4519 78.1287 79.3298C77.918 79.2211 77.7433 79.1072 77.5891 79.0244C77.291 78.8432 77.0752 78.7759 77.0752 78.75C77.2678 78.7619 77.4547 78.8205 77.6199 78.9209C78.0022 79.1564 78.4264 79.3147 78.8687 79.3868C78.9846 79.3977 79.1014 79.3855 79.2125 79.3508C79.3236 79.3162 79.4268 79.2598 79.5163 79.1849C79.6575 79.0498 79.7619 78.8805 79.8195 78.6931C79.8706 78.5084 79.9324 78.327 80.0045 78.1495Z" fill="#8E4842"/>
<path d="M84.2956 78.7086C84.0912 78.7914 83.877 78.847 83.6583 78.8739C83.1482 78.9654 82.6335 79.0292 82.1166 79.0651C81.5911 79.095 81.0644 79.095 80.5389 79.0651C80.3192 79.0691 80.0998 79.0448 79.8862 78.9927C79.8862 78.9411 80.8832 78.9927 82.1063 78.8842C83.3294 78.7758 84.2853 78.6776 84.2956 78.7086Z" fill="#8E4842"/>
<path d="M79.8913 81.1519C79.614 81.3724 79.2848 81.5173 78.9355 81.5725C78.5862 81.6277 78.2286 81.5914 77.8974 81.4671C77.8974 81.4154 78.3599 81.5033 78.9252 81.4154C79.4905 81.3276 79.8913 81.1106 79.8913 81.1519Z" fill="#8E4842"/>
<path d="M81.9829 81.0484C81.9829 81.0897 81.7105 81.162 81.3611 81.2137C81.1482 81.2645 80.9264 81.2645 80.7136 81.2137C80.9066 81.1094 81.1215 81.0527 81.3405 81.0484C81.69 81.007 81.9778 81.0019 81.9829 81.0484Z" fill="#8E4842"/>
<path d="M82.975 73.0142C82.0431 72.7925 81.1331 72.4858 80.2564 72.0979C79.5164 71.808 78.8535 71.5336 78.3807 71.3162C78.1168 71.2172 77.8665 71.085 77.6355 70.9228C77.9039 71.001 78.1667 71.0978 78.4218 71.2127L80.3129 71.9478L82.199 72.6881C82.6923 72.8589 82.975 72.9728 82.975 73.0142Z" fill="#8E4842"/>
<path d="M91.5003 75.0848C91.5003 75.0848 90.8579 74.8622 91.5517 73.8424C92.2454 72.8226 94.188 74.0598 94.188 74.0598L96.6702 75.5455C96.6702 75.5455 97.2252 76.8449 96.5366 77.1918L96.0227 77.8233C96.0227 77.8233 96.9939 78.8121 96.6034 79.6766C96.482 79.9262 96.287 80.1319 96.045 80.2653C95.803 80.3988 95.5259 80.4536 95.2518 80.4221C95.2518 80.4221 95.3649 82.1718 94.7996 82.8448C94.5373 83.2105 94.155 83.4709 93.7204 83.5799C93.5389 84.0433 93.2495 84.4559 92.8765 84.7829C92.5036 85.11 92.058 85.3419 91.5774 85.4591C89.9123 85.8887 89.0387 85.9198 88.5864 85.2106C88.2817 84.7074 88.0351 84.1707 87.8515 83.6109C87.8515 83.6109 84.2799 81.7214 84.2028 80.7637C84.1257 79.806 84.2902 79.7284 84.2902 79.7284C84.2108 79.5046 84.1764 79.2673 84.1887 79.03C84.2011 78.7927 84.26 78.5603 84.3621 78.3462C84.7219 77.7612 86.1402 78.2737 86.1402 78.2737L90.6986 79.3505C90.6986 79.3505 87.0499 77.6266 86.6182 77.0623C86.1865 76.4981 86.649 75.8044 88.1136 75.9804C89.5783 76.1564 94.003 76.9898 94.003 76.9898C93.8894 76.7544 93.711 76.5567 93.4891 76.4204C93.1962 76.2962 92.2814 75.763 92.2814 75.763L91.5003 75.0848Z" fill="#B2655F"/>
<path d="M92.5898 82.0579C92.5898 82.0993 90.7294 81.6231 88.4785 80.9967C86.2276 80.3703 84.3673 79.8215 84.393 79.7801C84.4187 79.7387 86.2533 80.215 88.5042 80.8414C90.7551 81.4678 92.6001 82.0165 92.5898 82.0579Z" fill="#8E4842"/>
<path d="M90.4161 84.5584C89.9594 84.5036 89.512 84.3888 89.085 84.2167C88.776 84.1154 88.4723 83.9978 88.1754 83.8647C88.0822 83.8245 87.9928 83.776 87.9082 83.7197C87.8855 83.7033 87.8648 83.6842 87.8465 83.6628C87.8465 83.6628 87.8465 83.6162 87.8465 83.6265C87.8465 83.6369 88.4118 83.8232 89.1261 84.0614C89.5712 84.1842 90.0032 84.3507 90.4161 84.5584Z" fill="#8E4842"/>
<path d="M94.3217 80.0391C94.3217 80.0805 93.4224 79.8993 92.3226 79.7181C91.2229 79.5369 90.3235 79.4178 90.3287 79.3712C91.0068 79.3613 91.6839 79.4256 92.3483 79.5628C93.0218 79.6465 93.6837 79.8063 94.3217 80.0391Z" fill="#8E4842"/>
<path d="M95.437 77.6732C95.4062 77.7146 95.0465 77.4558 94.5428 77.2746C94.0392 77.0934 93.6024 77.0468 93.6024 77.0002C93.9395 76.9386 94.2873 76.9819 94.5994 77.1245C94.9266 77.2194 95.2182 77.4104 95.437 77.6732Z" fill="#8E4842"/>
<path d="M99.4196 69.7631H99.2552L98.7773 69.7061C98.3661 69.6492 97.7494 69.5715 97.0351 69.4887C95.5602 69.3179 93.5149 69.1367 91.2485 69.0849C90.7138 69.0119 90.1693 69.076 89.6657 69.2713C89.4418 69.4017 89.2256 69.5452 89.0182 69.701L88.4015 70.141L86.2688 71.6578L84.8247 72.6672L84.4239 72.9364C84.3365 72.9986 84.2851 73.0244 84.28 73.0193C84.3206 72.9805 84.3635 72.9442 84.4085 72.9105L84.7887 72.6206L86.2071 71.5853L88.3193 70.0323L88.9308 69.5871C89.1437 69.4268 89.365 69.2782 89.5938 69.1418C89.8469 69.011 90.1264 68.9401 90.4109 68.9348C90.6935 68.9348 90.971 68.9348 91.2537 68.9348C93.1907 68.9833 95.1239 69.1336 97.0454 69.3852C97.7854 69.4835 98.3815 69.5819 98.7875 69.6544L99.2603 69.7424C99.3142 69.7408 99.3679 69.7478 99.4196 69.7631Z" fill="#161B46"/>
<path d="M93.844 70.5603C93.7954 70.4952 93.7297 70.4452 93.6543 70.4159C93.5789 70.3866 93.4969 70.3793 93.4175 70.3946H93.3455C93.2103 70.4185 93.0871 70.4878 92.9961 70.5914C92.9422 70.6579 92.9128 70.7411 92.9128 70.8269C92.9128 70.9127 92.9422 70.9959 92.9961 71.0625C93.0645 71.1294 93.1531 71.1713 93.2479 71.1815C93.3377 71.199 93.4303 71.1965 93.5191 71.1742C93.6079 71.1518 93.6907 71.1101 93.7618 71.0521C93.8239 70.9885 93.8652 70.9072 93.8799 70.8193C93.8946 70.7313 93.8821 70.6409 93.844 70.5603Z" fill="white"/>
<path d="M73.6112 20.7805L72.6245 20.2629C72.1854 19.9566 71.6469 19.8307 71.1188 19.9108C70.6306 20.0506 70.2914 20.5217 69.7878 20.5735C69.2019 20.6408 68.7189 20.1076 68.133 20.1386C67.5472 20.1697 67.1412 20.6563 66.5913 20.6563C66.1802 20.6563 65.7433 20.3612 65.3888 20.5631C65.3168 20.6045 65.2551 20.6615 65.1883 20.7081C64.9716 20.8087 64.7336 20.8543 64.4952 20.8407C64.2569 20.8272 64.0255 20.755 63.8213 20.6304C63.4123 20.379 62.9235 20.2938 62.4544 20.3923C62.1804 20.5313 61.9387 20.7271 61.7452 20.9669C61.644 21.0858 61.5162 21.1788 61.3723 21.2382C61.2285 21.2976 61.0727 21.3217 60.9178 21.3086C60.7482 21.2723 60.6094 21.1636 60.4398 21.1222C59.9259 20.9876 59.4686 21.5571 58.929 21.702C58.3894 21.847 57.8498 21.5881 57.3872 21.8159C57.2173 21.9039 57.0849 22.0512 57.015 22.2303C56.945 22.4094 56.9421 22.6081 57.007 22.7891C57.0895 22.9672 57.2142 23.1222 57.3701 23.2405C57.5261 23.3587 57.7084 23.4366 57.9011 23.4673C58.3047 23.539 58.7197 23.5088 59.1088 23.3793C59.4176 23.2498 59.7461 23.1745 60.0801 23.1567C60.8458 23.1826 61.4471 23.9798 62.1974 23.8141C62.5433 23.6847 62.8584 23.4836 63.1224 23.224C63.5568 22.9095 64.0778 22.7393 64.6128 22.7374C64.9644 22.7839 65.3216 22.7646 65.6663 22.6804C66.0723 22.5148 66.3035 22.0851 66.7249 21.9712C67.1463 21.8573 67.6294 22.1317 68.097 22.0851C68.4002 22.0592 68.6829 21.8884 68.9912 21.8728C69.4281 21.847 69.8238 22.1317 70.2606 22.0954C70.6974 22.0592 71.0828 21.6865 71.5299 21.7227C71.705 21.7539 71.877 21.8007 72.0438 21.8625C72.1293 21.8928 72.2208 21.9015 72.3104 21.888C72.3999 21.8745 72.4849 21.839 72.5577 21.7848C72.6554 21.6917 72.6862 21.5415 72.8044 21.4742C72.8985 21.4343 73.0023 21.4235 73.1025 21.4432L74.5517 21.5933L73.6112 20.7805Z" fill="#161B46"/>
<path d="M75.1684 20.7288C74.6802 20.3664 74.0275 19.9885 73.4776 20.2939C73.2772 20.4027 73.1282 20.5838 72.9278 20.6822C72.4653 20.8996 71.9 20.6149 71.4169 20.7495C71.0006 20.8686 70.7231 21.2672 70.3377 21.4484C69.7159 21.759 68.796 21.5778 68.4157 22.1265C68.205 22.4268 68.169 22.9082 67.8041 22.991C67.6721 23.0044 67.5388 22.9885 67.4136 22.9444C66.9692 22.8348 66.507 22.8207 66.0569 22.903C65.7997 22.9376 65.5565 23.0413 65.3528 23.2033C64.9828 23.5398 64.9725 24.1144 64.6179 24.4664C64.104 24.9841 63.143 24.7408 62.4647 25.0773C62.1609 25.2703 61.8828 25.5017 61.6373 25.7658C61.0954 26.186 60.5095 26.5454 59.89 26.8374C59.2682 27.1258 58.7354 27.5784 58.3483 28.1471C58.168 28.4188 58.0888 28.7459 58.1245 29.0708C58.1602 29.3956 58.3086 29.6973 58.5436 29.9227C58.6624 30.0274 58.813 30.0885 58.9707 30.096C59.1284 30.1036 59.284 30.0571 59.4121 29.9641C59.4892 29.8917 59.5406 29.7881 59.6125 29.7053C59.7907 29.5641 59.9951 29.4603 60.2138 29.3999C60.4245 29.317 60.6454 29.1566 60.6454 28.9391C60.6454 28.8045 60.5684 28.6441 60.6763 28.5509C60.724 28.5199 60.7789 28.502 60.8356 28.4991C61.3803 28.4422 62.0484 28.4681 62.3413 28.0229C62.4386 27.8125 62.5127 27.592 62.5623 27.3654C62.6388 27.1795 62.7594 27.0152 62.9135 26.8871C63.0676 26.7589 63.2505 26.6708 63.4462 26.6303C63.7803 26.5526 64.1554 26.6044 64.4226 26.3973C64.6899 26.1903 64.7361 25.7192 65.0085 25.4604C65.4659 25.0255 66.3703 25.3413 66.7815 24.8702C66.8842 24.7511 66.9408 24.601 67.0693 24.513C67.4393 24.2697 67.8864 24.7718 68.3232 24.689C68.76 24.6062 68.8371 24.1713 69.0992 23.9229C69.4891 23.6605 69.9174 23.4614 70.3685 23.3327C70.9081 23.0687 71.2987 22.5562 71.8691 22.3854C72.383 22.2352 72.9689 22.3388 73.3337 21.9867C73.4725 21.8521 73.5701 21.6606 73.7603 21.5985C73.8722 21.5752 73.9876 21.5752 74.0995 21.5985C74.6639 21.6729 75.2369 21.5563 75.7285 21.2672L75.1684 20.7288Z" fill="#161B46"/>
<path d="M74.336 22.0436C73.7153 21.9358 73.0783 21.9731 72.4742 22.1526C71.8701 22.3321 71.315 22.6491 70.8517 23.079C70.6599 23.2842 70.4381 23.4588 70.1939 23.5966C69.7775 23.7207 69.3425 23.7698 68.9092 23.7416C68.4282 23.795 67.9726 23.9863 67.5964 24.2928C67.2202 24.5993 66.9392 25.0081 66.7867 25.4706C66.5914 26.066 66.5195 26.8477 65.9491 27.0547C65.8412 27.0826 65.7363 27.1207 65.6356 27.1686C65.2553 27.4067 65.5174 28.0176 65.5122 28.4887C65.5122 29.2652 64.6489 29.7984 64.618 30.5594C64.626 30.845 64.6943 31.1256 64.8185 31.3825C65.1165 32.1245 65.4437 32.8493 65.8 33.5567C65.9593 33.8725 66.17 34.2245 66.5092 34.2711C67.0231 34.3384 67.3006 33.7535 67.4445 33.2358C67.5875 32.8914 67.5985 32.5059 67.4754 32.1538C67.3315 31.8795 67.0385 31.719 66.9101 31.4343C66.7096 30.9839 67.0334 30.4817 67.2647 30.0521C67.7311 29.1796 67.8715 28.1675 67.6604 27.1997C68.1743 27.1013 68.4466 26.3662 68.9811 26.2627C69.1313 26.2542 69.2807 26.2352 69.4282 26.2057C69.7828 26.0608 69.8239 25.5172 70.1374 25.2946C70.4509 25.072 71.1652 25.2428 71.3399 24.8028C71.3913 24.6631 71.3656 24.4974 71.453 24.3835C71.525 24.2993 71.626 24.2457 71.7356 24.2334L73.0307 23.9072C73.2823 23.8662 73.5194 23.7611 73.7193 23.6018C74.0534 23.2809 74.1047 22.67 74.5261 22.5043L74.336 22.0436Z" fill="#161B46"/>
<path d="M75.7084 19.4501C75.657 18.684 75.5131 17.7625 74.8399 17.4519C74.4442 17.2656 73.9611 17.3639 73.5705 17.162C72.8202 16.7841 72.7586 15.5624 72.0288 15.1741C71.2991 14.7859 70.3226 15.3864 69.7368 14.8169C69.4336 14.5219 69.3925 14.0301 69.1458 13.6832C68.9796 13.4978 68.7754 13.3509 68.5474 13.2526C68.3194 13.1543 68.073 13.1069 67.8251 13.1138C67.3342 13.135 66.8436 13.0684 66.3759 12.9171C65.605 12.5754 65.1116 11.6125 64.2843 11.5452C63.5802 11.4935 63.0303 12.1147 62.5884 12.6841C62.4662 12.8192 62.3796 12.9829 62.3366 13.1604C62.3297 13.3213 62.3692 13.4807 62.4504 13.6194C62.5316 13.7581 62.6509 13.8702 62.7939 13.9421C63.3541 14.2734 64.0736 14.2216 64.5926 14.6099C64.7685 14.7747 64.9557 14.9269 65.1528 15.0654C65.4508 15.2259 65.826 15.1897 66.1138 15.3709C66.6739 15.7177 66.6636 16.665 67.2238 17.0171C67.784 17.3691 68.4366 16.9549 69.043 17.0947C69.8653 17.2914 70.3175 18.4459 71.1603 18.4769C71.5286 18.4211 71.8926 18.3398 72.2498 18.2336C72.4908 18.2185 72.7308 18.2765 72.9387 18.4002C73.1467 18.5238 73.313 18.7074 73.4164 18.9273C73.55 19.2172 73.5705 19.5589 73.7298 19.8384C73.8347 20.0086 73.9767 20.1525 74.145 20.2592C74.3132 20.366 74.5034 20.4327 74.7011 20.4544C75.0894 20.4941 75.4814 20.4714 75.8625 20.3871L75.7084 19.4501Z" fill="#161B46"/>
<path d="M75.071 21.8365C74.5571 20.8581 73.925 19.8124 72.8715 19.3569C72.3152 19.2003 71.7694 19.0084 71.2372 18.7822C70.8158 18.5338 70.5178 18.1351 70.1221 17.8504C69.2022 17.193 67.9328 17.2344 66.8022 17.4156C65.6716 17.5968 64.5051 17.8815 63.395 17.6071C62.3981 17.3586 61.5296 16.6805 60.5069 16.6183C59.9485 16.6199 59.3943 16.7161 58.8675 16.9031L57.0072 17.4207C56.8046 17.4591 56.6223 17.5693 56.4933 17.7314C56.2929 18.0678 56.6834 18.4561 57.0535 18.6114C57.6609 18.8656 58.3284 18.9375 58.9755 18.8185C59.473 18.6552 59.994 18.5765 60.5172 18.5855C60.8654 18.6774 61.2085 18.788 61.545 18.9168C61.9853 18.9946 62.4357 18.9946 62.876 18.9168L64.9316 18.6994C65.4564 18.597 65.9991 18.6436 66.499 18.834C66.8691 19.0152 67.162 19.3517 67.5731 19.4035C67.9842 19.4552 68.4673 19.1135 68.9247 19.1808C69.4694 19.2689 69.7418 19.8797 70.2403 20.1127C70.8261 20.387 71.597 20.0661 72.1623 20.3819C72.5477 20.5941 72.7122 21.029 72.9588 21.3862C73.1647 21.6859 73.4331 21.9368 73.7451 22.1213C74.1622 22.3414 74.6062 22.505 75.0658 22.6079L75.071 21.8365Z" fill="#161B46"/>
<path d="M76.1605 17.4881C75.9138 17.1464 75.5387 16.7996 75.6466 16.3854C75.698 16.1836 75.8624 16.0179 75.8984 15.8108C75.9601 15.4381 75.5849 15.1482 75.4462 14.7755C75.3074 14.4027 75.4462 13.8437 75.2098 13.4606C74.9734 13.0775 74.4286 12.9998 73.9764 12.886C73.7251 12.8426 73.4884 12.7371 73.2876 12.579C73.0867 12.4209 72.9278 12.2151 72.8253 11.98C72.7714 11.6377 72.7507 11.291 72.7636 10.9447C72.6833 10.5018 72.454 10.1004 72.1141 9.80811C71.7743 9.51578 71.3449 9.35041 70.8981 9.33987C70.6379 9.36086 70.3762 9.33098 70.1273 9.25186C69.6904 9.04479 69.6134 8.48052 69.341 8.06121C69.1736 7.77314 68.9233 7.54312 68.6232 7.40167C68.323 7.26021 67.9873 7.214 67.6605 7.26916C67.3522 7.33128 67.013 7.65742 67.1929 7.91626C67.2648 8.01979 67.3984 8.06121 67.4961 8.14404C67.8455 8.44429 67.5937 9.04997 67.7993 9.45893C68.0048 9.8679 68.6626 9.97661 68.8631 10.4115C69.0172 10.748 68.8374 11.1673 68.9812 11.5089C69.1611 11.9283 69.7007 12.0266 70.153 12.0266C70.6052 12.0266 71.1448 12.1509 71.3144 12.5443C71.3668 12.7368 71.3961 12.9349 71.4018 13.1344C71.4314 13.308 71.5001 13.4723 71.6025 13.615C71.705 13.7577 71.8384 13.8748 71.9927 13.9575C72.4296 14.1801 73.0205 14.1387 73.3032 14.5581C73.5858 14.9774 73.1747 15.6969 73.4368 16.1887C73.627 16.5459 74.0843 16.6391 74.4286 16.8565C74.5114 16.9015 74.5753 16.975 74.6085 17.0636C74.6183 17.1594 74.5967 17.2558 74.5468 17.338C74.2745 17.8971 73.9302 18.539 74.1923 19.0981C74.3175 19.316 74.4772 19.5118 74.665 19.6779C75.2262 20.2583 75.6358 20.9697 75.8573 21.7486L76.3352 19.6416C76.4965 19.2989 76.5653 18.9193 76.5346 18.5413C76.5039 18.1632 76.3749 17.8 76.1605 17.4881Z" fill="#161B46"/>
<path d="M78.8122 10.3753C78.9063 10.0743 78.8978 9.7502 78.7879 9.45467C78.678 9.15914 78.4731 8.90917 78.2058 8.74458C78.0679 8.6721 77.9164 8.62974 77.7612 8.62028C77.606 8.61082 77.4505 8.63447 77.305 8.68969C77.1595 8.7449 77.0272 8.83043 76.9167 8.9407C76.8063 9.05096 76.7202 9.18347 76.664 9.32955C76.4585 10.0181 77.034 10.8256 76.664 11.4469C76.5383 11.596 76.4329 11.7614 76.3505 11.9386C76.2221 12.3942 76.7874 12.7773 76.7925 13.2535C76.7977 13.7298 76.1399 14.0663 76.0062 14.5736C75.8726 15.0809 76.4328 15.7695 76.2221 16.3337C76.1488 16.4859 76.0574 16.6285 75.9497 16.7582C75.3484 17.6486 75.6568 18.8289 75.9857 19.8643L77.3475 19.6624C77.0957 18.7099 78.4267 17.7573 77.9745 16.8876C77.7587 16.4735 77.1677 16.1732 77.3013 15.7229C77.3471 15.6058 77.4172 15.4999 77.5068 15.4123L78.7762 14.0145C78.9844 13.8288 79.1269 13.5799 79.1822 13.3053C79.2387 12.6996 78.4884 12.3062 78.3908 11.7005C78.3496 11.2243 78.6734 10.8049 78.8122 10.3753Z" fill="#161B46"/>
<path d="M79.2797 18.1404C79.1512 17.69 78.5705 17.5554 78.1131 17.6227C76.8489 17.8194 75.9239 18.8858 75.1171 19.8798C74.1964 20.9523 73.3612 22.0965 72.6195 23.3016C72.4441 23.5638 72.325 23.86 72.27 24.1713C72.2435 24.327 72.2591 24.4871 72.3152 24.6346C72.3712 24.7822 72.4657 24.9118 72.5886 25.0099C72.6519 25.0545 72.7236 25.0851 72.7994 25.0998C72.8751 25.1146 72.953 25.1131 73.0281 25.0955C73.1033 25.078 73.1739 25.0447 73.2354 24.9978C73.2969 24.951 73.3479 24.8916 73.3852 24.8236L73.7604 24.7304C74.991 22.6306 76.6223 20.7973 78.5602 19.3362C78.9559 19.0256 79.4133 18.6063 79.2797 18.1404Z" fill="#00ACE9"/>
<path d="M72.3268 37.6154C71.9556 35.1038 71.7991 32.5648 71.8592 30.0263C71.9257 27.4799 72.6179 24.9898 73.8737 22.7788C74.0741 22.4475 75.6467 20.2939 76.0115 20.4026C76.2736 20.4803 75.1584 22.5614 75.251 22.8202C76.104 25.2999 75.9344 28.0487 75.251 30.5854C74.5452 33.0358 73.5696 35.399 72.3422 37.6309" fill="#161B46"/>
<path d="M83.5248 54.15C83.8845 52.3951 84.1723 51.0129 84.1877 51.0129C84.2031 51.0129 90.298 51.5823 91.85 45.6757C92.6003 42.8233 93.6641 36.8234 94.5686 31.3826C95.0424 28.5582 94.4424 25.6577 92.888 23.2592C91.3336 20.8606 88.9391 19.1402 86.1817 18.4407L85.6112 18.2957C79.4033 17.1102 74.9323 21.7538 73.925 28.0384L69.7059 49.9051L79.3776 60.1447L83.5248 54.15Z" fill="#B2655F"/>
<path d="M84.1876 51.0128C81.4734 50.3181 79.0139 48.8539 77.1008 46.7937C77.1008 46.7937 77.8922 51.5771 83.8895 52.5296L84.1876 51.0128Z" fill="#8E4842"/>
<path d="M91.5674 36.0831C91.5148 36.3054 91.3775 36.4978 91.1852 36.6189C90.9929 36.74 90.761 36.78 90.5396 36.7302C90.4306 36.7116 90.3264 36.6711 90.2332 36.6113C90.14 36.5514 90.0596 36.4733 89.9969 36.3816C89.9341 36.2899 89.8902 36.1865 89.8678 36.0774C89.8454 35.9684 89.8449 35.8559 89.8664 35.7466C89.9202 35.5251 90.0578 35.3335 90.2497 35.2126C90.4417 35.0918 90.673 35.0512 90.8942 35.0995C91.0035 35.1175 91.1081 35.1575 91.2017 35.2172C91.2953 35.2769 91.376 35.355 91.4388 35.4469C91.5017 35.5387 91.5455 35.6424 91.5676 35.7518C91.5897 35.8611 91.5896 35.9738 91.5674 36.0831Z" fill="#161B46"/>
<path d="M92.6979 33.5205C92.5694 33.6033 92.0504 32.9718 91.1562 32.744C90.262 32.5162 89.4757 32.8061 89.4038 32.6663C89.3729 32.6042 89.5271 32.4334 89.8663 32.2936C90.3276 32.1232 90.8294 32.0979 91.3052 32.2211C91.7755 32.3381 92.1967 32.6028 92.5078 32.977C92.739 33.2617 92.7647 33.4843 92.6979 33.5205Z" fill="#161B46"/>
<path d="M83.3705 34.4938C83.3178 34.7163 83.1808 34.9092 82.9887 35.0311C82.7966 35.153 82.5647 35.1943 82.3427 35.1461C82.2337 35.1275 82.1295 35.087 82.0363 35.0271C81.9431 34.9673 81.8627 34.8892 81.8 34.7975C81.7372 34.7058 81.6933 34.6024 81.6709 34.4933C81.6485 34.3842 81.648 34.2718 81.6695 34.1625C81.7221 33.9403 81.8594 33.7478 82.0517 33.6267C82.2441 33.5057 82.476 33.4657 82.6973 33.5154C82.8061 33.5334 82.9102 33.5733 83.0034 33.6327C83.0966 33.692 83.177 33.7696 83.2398 33.8609C83.3026 33.9522 83.3465 34.0552 83.369 34.164C83.3914 34.2727 83.392 34.3849 83.3705 34.4938Z" fill="#161B46"/>
<path d="M83.7559 31.6466C83.6223 31.7294 83.1033 31.0979 82.2142 30.8701C81.3251 30.6423 80.5337 30.9322 80.4618 30.7924C80.4258 30.7355 80.58 30.5595 80.9243 30.4249C81.3827 30.2499 81.8837 30.2227 82.3581 30.3472C82.8296 30.4614 83.2516 30.7266 83.5607 31.103C83.7765 31.3878 83.8176 31.6 83.7559 31.6466Z" fill="#161B46"/>
<path d="M85.2516 39.4635C85.7678 39.4327 86.2857 39.4675 86.7933 39.567C87.0297 39.6032 87.2609 39.6136 87.338 39.4635C87.4129 39.226 87.4129 38.971 87.338 38.7335C87.2609 38.1175 87.1838 37.4704 87.0965 36.7922C86.7779 34.033 86.6134 31.7863 86.7213 31.776C86.8293 31.7656 87.1787 33.9916 87.4973 36.7508C87.5744 37.429 87.6412 38.0761 87.708 38.6973C87.783 39.0144 87.7448 39.3479 87.6001 39.6395C87.5456 39.7119 87.4759 39.7712 87.3959 39.8133C87.3159 39.8554 87.2277 39.8791 87.1376 39.8828C87.0007 39.888 86.8638 39.8723 86.7316 39.8362C86.2247 39.7748 85.7275 39.6496 85.2516 39.4635Z" fill="#161B46"/>
<path d="M82.461 39.422C82.61 39.4479 82.3633 40.4574 83.0314 41.353C83.6995 42.2486 84.7684 42.4194 84.7376 42.5592C84.7068 42.699 84.4601 42.6938 84.013 42.5954C83.4371 42.4551 82.9281 42.1163 82.5741 41.6377C82.2341 41.1793 82.0848 40.6055 82.1578 40.0381C82.1989 39.6136 82.3685 39.3962 82.461 39.422Z" fill="#161B46"/>
<path d="M84.6294 27.94C84.4753 28.1677 83.6016 27.8209 82.5121 27.6811C81.4227 27.5413 80.4874 27.6138 80.4051 27.355C80.3692 27.2359 80.5747 27.0392 80.9807 26.8891C81.5149 26.7096 82.0829 26.6565 82.6408 26.7337C83.1986 26.8109 83.7314 27.0164 84.1978 27.3343C84.5472 27.5879 84.6962 27.8312 84.6294 27.94Z" fill="#161B46"/>
<path d="M93.0832 30.3989C92.8725 30.5645 92.3021 30.197 91.5415 29.9951C90.7809 29.7932 90.1231 29.7829 90.0306 29.5292C89.9946 29.4101 90.1436 29.2289 90.4725 29.0995C90.9038 28.9611 91.366 28.954 91.8012 29.0793C92.2364 29.2045 92.6252 29.4565 92.9187 29.8036C93.1449 30.0831 93.1757 30.3161 93.0832 30.3989Z" fill="#161B46"/>
<path d="M73.3134 32.5732C73.2209 32.5059 69.5721 30.3472 68.6882 34.4265C67.8043 38.5058 72.0595 38.5679 72.0903 38.4437C72.1211 38.3194 73.3134 32.5732 73.3134 32.5732Z" fill="#B2655F"/>
<path d="M71.1859 36.6266C71.1859 36.6266 71.1037 36.6628 70.9752 36.6887C70.7971 36.7216 70.6132 36.6845 70.4613 36.5852C70.0656 36.3315 69.8549 35.5498 69.9937 34.8303C70.0567 34.478 70.1991 34.1451 70.4099 33.857C70.4748 33.7376 70.5677 33.636 70.6806 33.5611C70.7935 33.4862 70.9229 33.4402 71.0574 33.4274C71.1432 33.4227 71.2279 33.4487 71.2966 33.5008C71.3652 33.5529 71.4134 33.6277 71.4326 33.7121C71.4634 33.8363 71.4326 33.914 71.4326 33.9243C71.4326 33.9347 71.5354 33.8777 71.5405 33.7017C71.5399 33.5962 71.5036 33.4939 71.4377 33.4118C71.3917 33.3568 71.3353 33.3116 71.2718 33.2787C71.2083 33.2458 71.1389 33.226 71.0677 33.2203C70.8945 33.2183 70.7236 33.2604 70.5708 33.3428C70.4181 33.4251 70.2885 33.545 70.1941 33.6914C69.9387 34.005 69.7624 34.3762 69.6802 34.7733C69.5312 35.6016 69.783 36.4661 70.3328 36.7664C70.4351 36.8207 70.548 36.8517 70.6634 36.857C70.7789 36.8624 70.8941 36.842 71.0009 36.7974C71.1551 36.725 71.1962 36.6369 71.1859 36.6266Z" fill="#8E4842"/>
<path d="M93.3453 24.0522C94.0802 23.8245 92.5487 21.2671 91.0893 20.1904C88.8795 18.5649 85.2924 17.0843 82.9079 17.2655C80.0403 17.4674 77.5067 18.3526 75.6361 20.5527C73.802 22.807 72.596 25.5119 72.1416 28.3904C71.9285 29.253 71.948 30.1573 72.1981 31.0098C72.5784 32.0452 73.5497 32.832 73.2259 34.0693C73.1639 34.2917 73.1465 34.5244 73.1747 34.7537C73.2029 34.9831 73.2762 35.2044 73.3904 35.4049C73.9659 36.3574 75.0297 35.7983 75.6053 35.1357C76.8284 33.7224 77.3217 31.8329 77.7791 30.0107C78.1778 28.7373 78.3636 27.406 78.329 26.0712C78.2724 25.3464 78.0874 24.632 78.0669 23.9073C78.0371 23.5445 78.0855 23.1795 78.2088 22.8372C78.3321 22.495 78.5274 22.1837 78.7812 21.9246C78.9062 21.8265 79.0385 21.7382 79.1769 21.6606C79.8461 21.2809 80.6036 21.088 81.3715 21.1016C82.1393 21.1153 82.8897 21.335 83.5451 21.7382C85.6624 23.0324 89.3163 25.0669 90.4983 24.5026C92.1993 23.6847 92.7029 23.0272 92.7029 23.0272L93.3453 24.0522Z" fill="#161B46"/>
<path d="M50.1415 93.6902C50.2454 93.6297 50.3558 93.5811 50.4704 93.5452L51.4314 93.1673L55.0596 91.8006L67.6194 87.1415L67.5475 87.3175C66.5197 85.0346 65.3685 82.5497 64.1865 79.9769L62.4547 76.1719L62.5934 76.2444L50.013 78.1909C47.7232 78.8396 45.5349 79.8085 43.5121 81.0692C42.7926 81.5144 42.253 81.8975 41.883 82.1563L41.4719 82.4565C41.4279 82.496 41.3775 82.5275 41.3229 82.5497L41.4513 82.4307L41.847 82.1097C42.2016 81.8302 42.7361 81.4315 43.4504 80.9708C45.4638 79.665 47.6556 78.6622 49.9565 77.9942L62.5317 76.0166H62.6294L62.6756 76.1046C63.2358 77.3419 63.8216 78.6154 64.4126 79.9096C65.5843 82.498 66.7201 84.9673 67.7582 87.2554L67.8198 87.3797L67.6862 87.4314L55.0904 91.987L51.4417 93.2864L50.4652 93.6229L50.1415 93.6902Z" fill="#161B46"/>
<path d="M57.6701 70.4258C57.3673 70.8814 57.0232 71.3077 56.6423 71.6993C55.9742 72.4603 55.0389 73.4956 53.9751 74.619C52.9113 75.7423 51.9195 76.7311 51.1743 77.4093C50.8812 77.6853 50.5686 77.9396 50.239 78.1702C50.1105 78.2427 50.0232 78.3152 49.9101 78.2945C49.8975 78.2803 49.8905 78.2618 49.8905 78.2427C49.8905 78.2236 49.8975 78.2052 49.9101 78.191V78.1651C49.9101 78.1651 49.9101 78.2324 49.941 78.2427C50.0328 78.2083 50.1167 78.1554 50.1876 78.0874C50.3983 77.9114 50.7015 77.6267 51.051 77.2747C51.7653 76.5603 52.7315 75.5508 53.7901 74.4326L56.5138 71.5698C56.8678 71.1575 57.2545 70.7749 57.6701 70.4258Z" fill="#161B46"/>
<path d="M60.1162 65.3111C60.0597 65.3111 60.2242 64.4984 60.2242 63.1886C60.2225 62.4252 60.1572 61.6633 60.0289 60.9109C59.7176 59.0611 59.0432 57.2924 58.0452 55.7082C57.6355 55.0629 57.1749 54.4518 56.6679 53.8808C55.7943 52.9128 55.1262 52.4261 55.1776 52.3847C55.3475 52.4721 55.5063 52.5798 55.6504 52.7057C55.8309 52.8374 56.0026 52.9809 56.1643 53.1354C56.389 53.3293 56.6034 53.5349 56.8067 53.7514C57.3421 54.3133 57.8255 54.9232 58.2508 55.5736C58.765 56.3738 59.1988 57.2235 59.5458 58.1102C59.8767 59.0041 60.1211 59.9282 60.2755 60.8695C60.3927 61.6383 60.4391 62.4164 60.4143 63.1938C60.4076 63.4916 60.3853 63.7888 60.3475 64.0842C60.331 64.3089 60.2984 64.5321 60.2499 64.752C60.2279 64.9431 60.183 65.1309 60.1162 65.3111Z" fill="#161B46"/>
<path d="M73.2106 103.914C73.2106 103.868 73.8581 103.914 74.8962 103.914C77.607 103.851 80.2527 103.065 82.5637 101.636C83.4476 101.119 83.9512 100.684 83.982 100.72C84.0129 100.756 83.8793 100.85 83.6583 101.046C83.3428 101.316 83.0116 101.567 82.6664 101.797C81.5224 102.562 80.272 103.152 78.956 103.547C77.6382 103.937 76.2696 104.125 74.8962 104.106C74.4819 104.103 74.0682 104.074 73.6577 104.018C73.5046 104.005 73.3541 103.97 73.2106 103.914Z" fill="#161B46"/>
<path d="M80.8576 92.484C80.7616 92.6446 80.6459 92.7924 80.5133 92.924C80.2821 93.1984 79.9326 93.5815 79.4855 94.0526C78.6067 94.9896 77.3477 96.2475 75.8882 97.5572C74.4287 98.867 73.0566 99.9955 72.0339 100.772C71.52 101.16 71.1037 101.471 70.8057 101.673C70.6621 101.792 70.503 101.892 70.3329 101.968C70.4543 101.826 70.5923 101.699 70.744 101.59L71.9157 100.622C72.9024 99.8091 74.2591 98.6702 75.7134 97.3605C77.1678 96.0508 78.4371 94.8187 79.3519 93.918L80.4311 92.8516C80.6932 92.6031 80.8422 92.4685 80.8576 92.484Z" fill="#161B46"/>
</svg>
