<svg width="222" height="246" viewBox="0 0 222 246" fill="none" xmlns="http://www.w3.org/2000/svg">
<path d="M9.04657 71.1962C18.6444 57.0843 36.7591 48.6469 53.4666 52.2376C65.4325 54.8065 76.4145 63.0099 88.592 61.794C100.769 60.578 109.91 50.2967 116.276 39.8897C122.642 29.4828 127.841 17.8314 137.508 10.3758C151.842 -0.670466 173.543 0.842336 188.122 11.5176C202.702 22.1928 210.573 40.4264 211.637 58.4658C212.7 76.5053 207.633 94.4305 200.437 110.986C195.358 122.671 189.112 133.992 180.538 143.422C176.014 148.442 170.79 152.785 165.026 156.318L165.089 156.29C148.501 168.421 113.233 177.064 92.6531 177.361C71.9161 177.605 51.6085 171.459 34.4997 159.761C20.4233 150.056 8.73198 136.435 3.34964 120.245C-2.0327 104.055 -0.556991 85.308 9.04657 71.1962Z" fill="#F4F5FB"/>
<path d="M222 232.529C222 232.607 172.303 232.673 111.005 232.673C49.708 232.673 0 232.607 0 232.529C0 232.452 49.6859 232.385 111.005 232.385C172.325 232.385 222 232.446 222 232.529Z" fill="#161B46"/>
<path d="M183.928 198.819C186.854 181.112 174.885 164.384 157.195 161.455C139.506 158.527 122.794 170.508 119.869 188.215C116.943 205.922 128.912 222.651 146.602 225.579C164.291 228.507 181.003 216.526 183.928 198.819Z" fill="#161B46"/>
<path d="M179.158 193.52C179.158 193.52 179.158 193.37 179.125 193.076C179.092 192.783 179.109 192.334 179.042 191.779C179.042 191.491 179.009 191.17 178.987 190.82C178.965 190.471 178.876 190.083 178.815 189.673C178.754 189.263 178.682 188.814 178.605 188.337C178.574 188.089 178.522 187.845 178.45 187.606C178.383 187.354 178.317 187.099 178.25 186.841C177.618 184.271 176.601 181.811 175.233 179.546C173.434 176.538 171.075 173.904 168.283 171.787L167.104 170.905C166.689 170.634 166.251 170.384 165.819 170.118C165.387 169.852 164.961 169.564 164.49 169.348L163.051 168.666L162.331 168.322L161.572 168.051L160.038 167.497C159.512 167.325 158.97 167.214 158.427 167.07C157.882 166.909 157.327 166.783 156.766 166.693C155.626 166.481 154.474 166.347 153.316 166.294C152.729 166.294 152.131 166.216 151.539 166.222L149.761 166.283C149.462 166.283 149.152 166.283 148.853 166.344L147.939 166.482C147.336 166.582 146.716 166.654 146.107 166.781C144.871 167.056 143.656 167.413 142.469 167.851L141.566 168.178L141.112 168.35L140.674 168.561L138.908 169.414C138.354 169.725 137.801 170.091 137.214 170.429C136.931 170.606 136.632 170.761 136.366 170.983L135.564 171.587C134.475 172.394 133.443 173.273 132.474 174.22C132.009 174.724 131.549 175.234 131.084 175.744L130.735 176.132L130.425 176.548L129.799 177.379L129.174 178.222L128.62 179.12L128.066 180.023L127.795 180.478C127.712 180.633 127.64 180.794 127.562 180.954C127.252 181.59 126.942 182.233 126.632 182.883C126.388 183.554 126.139 184.225 125.896 184.901C124.017 190.491 124.017 196.543 125.896 202.133C126.145 202.809 126.394 203.48 126.638 204.151L127.562 206.08L127.795 206.556L128.072 207.011L128.625 207.914L129.179 208.812L129.805 209.655L130.431 210.492L130.746 210.907L131.095 211.29L132.479 212.82C133.455 213.762 134.488 214.641 135.575 215.452L136.378 216.051C136.643 216.256 136.931 216.406 137.219 216.605C137.773 216.943 138.327 217.304 138.919 217.62L140.686 218.468L141.123 218.684C141.273 218.745 141.422 218.795 141.577 218.85L142.48 219.183C143.667 219.62 144.882 219.978 146.118 220.252C146.727 220.38 147.347 220.452 147.956 220.552L148.864 220.69C149.169 220.729 149.473 220.729 149.778 220.751L151.583 220.84C152.181 220.84 152.773 220.796 153.36 220.773C154.518 220.72 155.671 220.587 156.81 220.374C157.371 220.28 157.925 220.155 158.471 219.997C159.025 219.848 159.579 219.737 160.077 219.565L161.611 219.011L162.369 218.734L163.051 218.385L164.468 217.708C164.944 217.492 165.36 217.187 165.803 216.932C166.246 216.677 166.672 216.417 167.087 216.145C167.503 215.874 167.874 215.558 168.267 215.264C171.058 213.148 173.415 210.513 175.21 207.504C176.583 205.244 177.604 202.788 178.239 200.221C178.306 199.955 178.372 199.7 178.439 199.45C178.511 199.213 178.563 198.97 178.594 198.724C178.671 198.248 178.743 197.804 178.804 197.389C178.865 196.973 178.943 196.59 178.976 196.241C179.009 195.892 179.014 195.571 179.031 195.282C179.07 194.728 179.092 194.279 179.114 193.98C179.136 193.68 179.147 193.536 179.147 193.536C179.147 193.536 179.147 193.686 179.147 193.98C179.147 194.274 179.12 194.717 179.092 195.288C179.092 195.576 179.092 195.892 179.053 196.247C179.014 196.602 178.948 196.984 178.893 197.4C178.837 197.815 178.765 198.264 178.693 198.741C178.668 198.989 178.617 199.234 178.544 199.473L178.35 200.249C177.73 202.834 176.717 205.309 175.349 207.587C173.555 210.622 171.191 213.282 168.388 215.419L167.204 216.312C166.788 216.589 166.345 216.866 165.913 217.11C165.481 217.354 165.05 217.664 164.573 217.891L163.145 218.584L162.419 218.928L161.661 219.21L160.11 219.765C159.584 219.937 159.036 220.053 158.493 220.203C157.948 220.364 157.393 220.491 156.832 220.585C155.682 220.799 154.518 220.936 153.349 220.995C152.757 220.995 152.159 221.073 151.555 221.067L149.733 220.979C149.429 220.979 149.119 220.979 148.814 220.918L147.895 220.779C147.286 220.679 146.66 220.607 146.046 220.48C144.798 220.205 143.569 219.848 142.369 219.41L141.455 219.077L140.996 218.906L140.558 218.689L138.775 217.83C138.194 217.514 137.635 217.148 137.059 216.805C136.776 216.622 136.477 216.472 136.206 216.251L135.397 215.641C134.295 214.828 133.25 213.941 132.269 212.986L130.868 211.445L130.514 211.057L130.198 210.636L129.567 209.793L128.93 208.962L128.376 208.053L127.823 207.144L127.546 206.684L127.308 206.202L126.372 204.256C126.124 203.58 125.875 202.898 125.624 202.211C123.727 196.565 123.727 190.453 125.624 184.807L126.372 182.767C126.687 182.118 126.997 181.47 127.308 180.821C127.391 180.661 127.463 180.5 127.546 180.339L127.823 179.885L128.376 178.97L128.93 178.061L129.561 177.213L130.192 176.37L130.508 175.949L130.862 175.561L132.263 174.02C133.246 173.067 134.291 172.18 135.392 171.365L136.2 170.761C136.472 170.556 136.754 170.401 137.053 170.207C137.607 169.863 138.188 169.497 138.77 169.182L140.553 168.322L140.99 168.112L141.455 167.945L142.369 167.613C143.57 167.176 144.798 166.817 146.046 166.538C146.66 166.416 147.286 166.344 147.895 166.244L148.814 166.1C149.119 166.061 149.429 166.066 149.733 166.044L151.555 165.956C152.159 165.956 152.757 166.006 153.349 166.028C154.518 166.084 155.682 166.222 156.832 166.438C157.393 166.531 157.948 166.659 158.493 166.82C159.047 166.97 159.601 167.081 160.116 167.258L161.661 167.812L162.425 168.09C162.668 168.2 162.912 168.322 163.15 168.439L164.579 169.126C165.055 169.348 165.476 169.653 165.919 169.908C166.362 170.163 166.788 170.434 167.209 170.706L168.394 171.598C171.198 173.736 173.562 176.398 175.354 179.436C176.725 181.719 177.737 184.2 178.356 186.791C178.422 187.057 178.488 187.312 178.549 187.561C178.622 187.8 178.672 188.045 178.699 188.293L178.898 189.64C178.954 190.056 179.026 190.438 179.059 190.787C179.092 191.136 179.059 191.463 179.098 191.752C179.098 192.306 179.142 192.755 179.153 193.06C179.164 193.365 179.158 193.52 179.158 193.52Z" fill="#45496B"/>
<path d="M133.021 117.096L162.28 106.565L169.662 109.89C169.9 109.998 170.114 110.155 170.288 110.351C170.462 110.547 170.593 110.777 170.673 111.027C170.752 111.277 170.778 111.541 170.749 111.802C170.72 112.062 170.636 112.314 170.503 112.54C170.276 112.932 169.914 113.227 169.484 113.369C169.055 113.512 168.588 113.493 168.172 113.316L162.081 110.75L134.256 120.909L133.021 117.096Z" fill="#161B46"/>
<path d="M55.6547 138.84H42.5591V141.711H55.6547V138.84Z" fill="#E6E8F3"/>
<path d="M55.6551 141.712C55.649 141.643 55.649 141.575 55.6551 141.507C55.6551 141.351 55.6551 141.163 55.6551 140.952C55.6551 140.431 55.6274 139.727 55.6108 138.857L55.6883 138.935C52.82 138.974 48.0247 138.996 42.5982 138.996L42.7422 138.857V140.304C42.7422 140.786 42.7422 141.257 42.7422 141.717L42.6038 141.579C46.3027 141.579 49.553 141.617 51.9008 141.645L54.6695 141.684H55.4225H55.6994C55.6202 141.691 55.5405 141.691 55.4613 141.684H54.7359L51.995 141.723C49.6582 141.75 46.3636 141.778 42.5816 141.784H42.4487V141.645C42.4487 141.185 42.4487 140.714 42.4487 140.232V138.785L42.5871 138.646C48.0137 138.646 52.8089 138.646 55.6772 138.707H55.7603V138.785C55.7603 139.677 55.7271 140.392 55.716 140.925C55.7134 141.188 55.6931 141.451 55.6551 141.712Z" fill="#161B46"/>
<path d="M50.1225 228.433L70.1397 185.017L72.7201 189.473L54.9621 228.433H50.1225Z" fill="#E6E8F3"/>
<path d="M50.1225 228.433H50.4492H51.3795L54.9621 228.394L54.9123 228.428C57.9855 221.577 64.6855 206.811 72.5928 189.434V189.562C72.1719 188.841 71.7234 188.06 71.2693 187.278L70.0235 185.089H70.2726L56.0419 215.785L51.7505 225.035C51.2411 226.144 50.8424 226.97 50.5711 227.557L50.2554 228.211C50.189 228.361 50.1447 228.444 50.1447 228.444C50.1699 228.371 50.1995 228.298 50.2333 228.228L50.5212 227.585L51.6287 225.085L55.8481 215.84L70.0235 184.961L70.1342 184.717L70.2671 184.95C70.6658 185.638 71.0977 186.375 71.5241 187.117L72.853 189.401L72.8862 189.462L72.8585 189.529C64.9458 206.883 58.1848 221.643 55.0286 228.455V228.489H54.9898L51.3629 228.455H50.4492L50.1225 228.433Z" fill="#161B46"/>
<path d="M46.5845 122.495C47.2988 123.049 85.6332 228.411 85.6332 228.411H91.0155L51.9667 122.694L46.5845 122.495Z" fill="#E6E8F3"/>
<path d="M46.5845 122.495L51.9667 122.633H51.9944L91.1483 228.361L91.2148 228.55H85.528L85.4948 228.456C74.7138 198.924 65.0069 172.413 58.0521 153.279L49.7462 130.704L47.4483 124.607L46.817 123.049C46.7497 122.869 46.672 122.693 46.5845 122.522C46.6142 122.56 46.6402 122.601 46.662 122.644C46.7063 122.733 46.7672 122.861 46.8447 123.038C46.9942 123.387 47.2102 123.914 47.487 124.607C48.0408 125.987 48.827 128.043 49.8348 130.704C51.8449 136.008 54.7132 143.707 58.2459 153.251C65.3004 172.335 75.0072 198.835 85.7661 228.361L85.6332 228.267H91.0155L90.8826 228.456C72.3881 178.238 56.7675 135.836 51.9279 122.689H51.9611L46.5845 122.495Z" fill="#161B46"/>
<path d="M92.965 179.386C92.965 179.386 66.2311 173.117 66.209 198.115C66.209 208.679 73.4794 214.898 81.1983 215.824C88.0811 216.65 110.657 212.753 110.657 212.753L154.955 204.007C156.937 202.555 158.2 193.182 154.24 190.593C150.281 188.005 92.965 179.386 92.965 179.386Z" fill="#45496B"/>
<path d="M141.212 142.848C141.245 142.953 95.917 179.862 95.917 179.862L104.854 182.279L144.274 152.087L141.212 142.848Z" fill="#E6E8F3"/>
<path d="M141.211 142.848C141.211 142.848 141.211 142.898 141.272 142.997L141.433 143.457L142.048 145.253C142.601 146.833 143.36 149.133 144.346 152.065V152.115L144.301 152.148L104.92 182.39L104.865 182.434H104.798L100.762 181.325L95.8613 180.001L95.601 179.929L95.8115 179.757L141.217 142.848C141.217 142.848 141.151 142.925 141.001 143.053L140.342 143.607L137.762 145.774L128.166 153.684L95.9942 179.973L95.9443 179.729L100.845 181.054L104.881 182.162H104.76L144.224 152.032V152.115C143.266 149.177 142.507 146.866 142.009 145.275C141.754 144.494 141.56 143.89 141.427 143.468C141.367 143.269 141.322 143.119 141.283 143.003C141.255 142.953 141.231 142.901 141.211 142.848Z" fill="#161B46"/>
<path d="M41.6679 120.726C40.1356 120.75 38.6493 121.254 37.4184 122.168C36.1876 123.082 35.2743 124.359 34.8073 125.82C34.5582 126.557 34.4992 127.344 34.6356 128.109C35.2613 131.125 37.2437 132.028 39.5472 132.344C41.8507 132.66 42.6868 131.235 46.3857 131.346C50.0846 131.457 68.2745 130.764 68.4129 130.038C68.5514 129.312 69.908 127.732 66.5856 125.942C63.8724 124.446 49.7191 120.494 41.6679 120.726Z" fill="#45496B"/>
<path d="M84.7699 210.004C82.1415 210.004 79.5721 209.224 77.3867 207.762C75.2012 206.3 73.4979 204.223 72.492 201.792C71.4862 199.361 71.223 196.686 71.7358 194.106C72.2486 191.526 73.5143 189.155 75.3728 187.295C77.2314 185.434 79.5993 184.167 82.1772 183.654C84.7551 183.141 87.4272 183.404 89.8555 184.411C92.2838 185.418 94.3594 187.123 95.8196 189.311C97.2799 191.498 98.0593 194.07 98.0593 196.701C98.0593 200.229 96.6592 203.613 94.1669 206.108C91.6747 208.602 88.2945 210.004 84.7699 210.004ZM84.7699 183.981C82.251 183.981 79.7887 184.728 77.6943 186.129C75.5999 187.53 73.9676 189.521 73.0036 191.85C72.0397 194.18 71.7875 196.743 72.2789 199.216C72.7703 201.689 73.9833 203.96 75.7644 205.743C77.5455 207.526 79.8148 208.74 82.2853 209.232C84.7558 209.724 87.3165 209.472 89.6436 208.507C91.9708 207.542 93.9598 205.908 95.3592 203.812C96.7586 201.715 97.5056 199.25 97.5056 196.729C97.5056 193.348 96.1638 190.105 93.7754 187.714C91.387 185.324 88.1476 183.981 84.7699 183.981Z" fill="#161B46"/>
<path d="M129.533 123.603L163.499 230.634H168.814L133.022 117.096C132.361 117.286 131.745 117.607 131.209 118.039C130.674 118.471 130.231 119.007 129.906 119.613C129.581 120.22 129.38 120.885 129.316 121.571C129.252 122.256 129.326 122.947 129.533 123.603Z" fill="#E6E8F3"/>
<path d="M129.533 123.603C129.533 123.603 129.461 123.398 129.367 122.988C129.257 122.376 129.257 121.749 129.367 121.136C129.445 120.683 129.584 120.243 129.782 119.828C130.012 119.322 130.326 118.859 130.713 118.459C131.16 117.996 131.69 117.621 132.274 117.351C132.431 117.272 132.594 117.205 132.761 117.151L133.016 117.062C132.966 117.035 133.105 117.096 133.094 117.096V117.129V117.196L133.132 117.323L133.476 118.398C135.347 124.312 138.061 132.854 141.405 143.413C148.083 164.547 157.297 193.735 167.48 226L168.931 230.617L168.992 230.794H163.399L163.366 230.7C153.858 200.647 145.386 173.903 139.284 154.642C136.244 145.009 133.802 137.255 132.114 131.917C131.277 129.245 130.63 127.172 130.187 125.765C129.971 125.061 129.804 124.529 129.694 124.163C129.583 123.797 129.533 123.608 129.533 123.608C129.533 123.608 129.6 123.786 129.721 124.163L130.236 125.754C130.69 127.156 131.344 129.223 132.213 131.889C133.919 137.238 136.394 144.981 139.461 154.615L163.632 230.578L163.499 230.478H168.814L168.682 230.661L167.231 226.044C157.081 193.796 147.889 164.603 141.233 143.457L133.387 118.415L133.049 117.34L133.011 117.207V117.146V117.096C133.011 117.096 133.116 117.157 133.055 117.129L132.806 117.212C132.64 117.263 132.479 117.328 132.324 117.406C131.744 117.676 131.22 118.052 130.779 118.515C130.399 118.908 130.087 119.361 129.854 119.856C129.657 120.264 129.515 120.696 129.433 121.142C129.326 121.749 129.326 122.37 129.433 122.977C129.467 123.187 129.517 123.337 129.539 123.437L129.533 123.603Z" fill="#161B46"/>
<path d="M183.715 228.434H38.8828C37.8583 228.434 37.0278 229.265 37.0278 230.29V230.706C37.0278 231.732 37.8583 232.563 38.8828 232.563H183.715C184.74 232.563 185.57 231.732 185.57 230.706V230.29C185.57 229.265 184.74 228.434 183.715 228.434Z" fill="#45496B"/>
<path d="M115.214 164.137L116.283 173.527L120.092 170.606L118.968 161.078L115.214 164.137Z" fill="#45496B"/>
<path d="M136.211 152.531C136.261 152.592 133.072 155.119 129.096 158.173C125.12 161.227 121.853 163.655 121.809 163.594C121.765 163.533 124.949 161.006 128.924 157.952C132.9 154.897 136.167 152.47 136.211 152.531Z" fill="#45496B"/>
<path d="M89.1093 197.433C89.5027 195.013 87.8615 192.732 85.4437 192.338C83.026 191.944 80.7471 193.587 80.3538 196.007C79.9604 198.428 81.6016 200.709 84.0194 201.102C86.4372 201.496 88.716 199.853 89.1093 197.433Z" fill="#161B46"/>
<path d="M103.304 202.959V190.493H100.673V202.959H103.304Z" fill="#161B46"/>
<path d="M100.817 198.541V194.911H85.905V198.541H100.817Z" fill="#161B46"/>
<path d="M115.143 59.457L119.34 78.6737L131.489 91.4553L122.939 111.193L126.261 116.847C126.261 116.847 144.651 96.272 144.147 91.2391C143.272 82.4594 124.716 64.0796 120.541 60.621C119.146 59.457 115.143 59.457 115.143 59.457Z" fill="#A2675F"/>
<path d="M137.894 88.5731C137.894 88.623 137.462 88.5731 136.786 88.6285C135.915 88.7084 135.066 88.9509 134.284 89.3435C133.503 89.7386 132.804 90.2784 132.224 90.9343C131.775 91.4442 131.565 91.8101 131.52 91.7879C131.632 91.4246 131.821 91.0898 132.074 90.8068C132.633 90.0841 133.346 89.4952 134.162 89.0829C134.977 88.6706 135.873 88.4453 136.786 88.4234C137.162 88.3975 137.539 88.4484 137.894 88.5731Z" fill="#6F4C47"/>
<path d="M91.4194 212.836L93.8004 232.402L102.798 231.094L103.408 211.81L91.4194 212.836Z" fill="#A2675F"/>
<path d="M102.831 227.214C102.831 227.214 96.7902 232.097 93.418 228.511L92.748 230.418L90.1123 243.881C90.0211 244.307 90.0907 244.75 90.3076 245.127C90.5244 245.504 90.8731 245.787 91.2862 245.921C91.6058 246.02 91.9466 246.026 92.2698 245.94C92.5929 245.853 92.8852 245.678 93.1135 245.433C95.5554 242.812 104.476 233.112 104.293 231.904L104.016 228.672C103.984 228.342 103.855 228.029 103.643 227.773C103.432 227.517 103.149 227.33 102.831 227.237V227.214Z" fill="#00ACE9"/>
<g opacity="0.6">
<path opacity="0.6" d="M91.6198 245.959L104.228 230.756L104.278 231.459C104.405 232.224 104.084 232.568 103.724 233.067C102.728 234.602 99.9091 238.083 93.1536 245.411C92.9587 245.623 92.7152 245.784 92.4441 245.88C92.173 245.977 91.8824 246.006 91.5976 245.965L91.6198 245.959Z" fill="white"/>
</g>
<g opacity="0.6">
<path opacity="0.6" d="M102.057 228.8C101.859 228.962 101.729 229.193 101.693 229.446C101.657 229.7 101.718 229.958 101.863 230.169C102.028 230.37 102.263 230.501 102.52 230.538C102.777 230.575 103.039 230.515 103.253 230.368C103.364 230.289 103.458 230.188 103.527 230.071C103.597 229.953 103.642 229.823 103.659 229.688C103.676 229.552 103.665 229.415 103.626 229.284C103.587 229.154 103.522 229.032 103.434 228.928C103.346 228.824 103.237 228.739 103.115 228.679C102.993 228.619 102.859 228.585 102.723 228.579C102.587 228.573 102.451 228.596 102.324 228.645C102.197 228.695 102.082 228.77 101.985 228.866" fill="white"/>
</g>
<path d="M95.008 238.399C94.9138 238.455 94.4542 237.607 93.4132 237.207C92.3722 236.808 91.4475 237.08 91.4198 236.98C91.3921 236.88 91.6081 236.797 92.0068 236.714C92.5278 236.616 93.0659 236.67 93.5572 236.869C94.0475 237.058 94.4726 237.386 94.7809 237.812C95.0024 238.139 95.0467 238.383 95.008 238.399Z" fill="#161B46"/>
<path d="M93.945 240.722C93.8675 240.799 93.2805 240.295 92.3779 240.112C91.4754 239.929 90.7168 240.112 90.7168 240.018C90.7168 239.924 91.4588 239.524 92.4832 239.752C93.5075 239.979 94.028 240.666 93.945 240.722Z" fill="#161B46"/>
<path d="M97.0733 235.378C97.0013 235.462 96.0987 234.686 94.7255 234.27C93.3523 233.854 92.1728 233.993 92.1728 233.904C92.1728 233.815 93.3966 233.494 94.8639 233.948C96.3313 234.403 97.1564 235.329 97.0733 235.378Z" fill="#161B46"/>
<path d="M97.0787 231.348C97.0399 231.448 96.0709 231.132 94.8361 231.177C93.6013 231.221 92.6489 231.575 92.6212 231.476C92.5935 231.376 93.5182 230.839 94.8361 230.811C96.154 230.784 97.1562 231.265 97.0787 231.348Z" fill="#161B46"/>
<path d="M94.1337 231.193C94.1027 230.982 94.1198 230.766 94.1836 230.562C94.3064 229.989 94.5458 229.447 94.8868 228.971C95.1057 228.594 95.4423 228.3 95.8448 228.134C95.9829 228.091 96.1308 228.091 96.2691 228.133C96.4074 228.176 96.5296 228.259 96.62 228.372C96.7749 228.599 96.84 228.876 96.8027 229.148C96.6875 229.705 96.3851 230.206 95.9458 230.567C95.5065 230.928 94.9569 231.128 94.3885 231.132C93.8234 231.133 93.2709 230.966 92.8008 230.652C92.3307 230.338 91.964 229.892 91.7472 229.37C91.6928 229.24 91.6685 229.1 91.6762 228.96C91.6838 228.82 91.7233 228.683 91.7915 228.561C91.8729 228.44 91.9897 228.349 92.1257 228.298C92.2616 228.247 92.41 228.24 92.5501 228.278C92.9575 228.412 93.3224 228.651 93.6077 228.971C94.0296 229.375 94.3732 229.855 94.621 230.384C94.7305 230.568 94.7968 230.775 94.8148 230.988C94.4497 230.31 93.9807 229.693 93.425 229.159C93.1648 228.892 92.8437 228.692 92.4892 228.577C92.413 228.555 92.3319 228.558 92.2573 228.585C92.1828 228.612 92.1186 228.661 92.0739 228.727C92.0326 228.813 92.0112 228.908 92.0112 229.004C92.0112 229.1 92.0326 229.195 92.0739 229.281C92.2764 229.725 92.6013 230.101 93.0104 230.367C93.4194 230.632 93.8956 230.774 94.3829 230.778C94.8662 230.775 95.3346 230.61 95.7124 230.308C96.0902 230.007 96.3553 229.586 96.4649 229.115C96.495 228.924 96.4578 228.728 96.3597 228.561C96.3118 228.496 96.245 228.448 96.1686 228.423C96.0922 228.399 96.01 228.398 95.9334 228.422C95.5947 228.564 95.307 228.806 95.1083 229.115C94.6603 229.743 94.3301 230.447 94.1337 231.193Z" fill="#161B46"/>
<path d="M127.086 228.25C126.875 227.951 124.993 221.399 124.993 221.399L136.621 218.379L138.282 227.801L127.086 228.25Z" fill="#A2675F"/>
<path d="M138.193 225.961V226.715C138.193 226.715 151.023 231.704 151.183 234.115L125.839 234.287L126.127 225.845C129.92 227.563 133.863 227.735 138.193 225.961Z" fill="#00ACE9"/>
<g opacity="0.6">
<path opacity="0.6" d="M128.72 228.528C128.476 228.602 128.269 228.765 128.138 228.984C128.007 229.203 127.962 229.463 128.011 229.714C128.078 229.96 128.236 230.17 128.454 230.302C128.671 230.434 128.931 230.478 129.18 230.423C129.435 230.339 129.651 230.165 129.787 229.934C129.924 229.702 129.971 229.429 129.922 229.165C129.827 228.915 129.639 228.712 129.397 228.598C129.155 228.484 128.879 228.469 128.626 228.555" fill="white"/>
</g>
<g opacity="0.6">
<path opacity="0.6" d="M125.85 234.287L125.95 232.241L150.214 232.796C150.214 232.796 151.321 233.278 151.222 234.076L125.85 234.287Z" fill="white"/>
</g>
<path d="M138.298 226.781C138.298 226.909 137.673 226.97 137.069 227.369C136.466 227.768 136.139 228.295 136.028 228.245C135.917 228.195 136.095 227.48 136.837 227.009C137.579 226.538 138.321 226.698 138.298 226.781Z" fill="#161B46"/>
<path d="M140.962 227.869C140.99 227.985 140.458 228.201 140.037 228.728C139.616 229.254 139.484 229.809 139.384 229.803C139.284 229.797 139.173 229.099 139.705 228.456C140.237 227.813 140.956 227.747 140.962 227.869Z" fill="#161B46"/>
<path d="M142.496 231.038C142.379 231.066 142.202 230.451 142.496 229.769C142.789 229.087 143.387 228.816 143.437 228.915C143.487 229.015 143.138 229.387 142.883 229.946C142.629 230.506 142.617 231.027 142.496 231.038Z" fill="#161B46"/>
<path d="M120.873 116.237C121.426 116.581 128.392 137.953 131.056 169.065C133.309 195.371 138.132 221.488 138.132 221.488L125.59 223.816C125.59 223.816 114.909 191.225 107.539 168.306C101.298 148.906 99.9916 134.639 99.9916 134.639L97.6494 116.237H120.873Z" fill="#161B46"/>
<path d="M82.8535 104.464C82.8535 104.464 69.8741 118.127 70.8432 133.647C71.4246 142.936 91.6079 222.558 91.6079 222.558L104.017 222.225L100.229 118.293L82.8535 104.464Z" fill="#161B46"/>
<path d="M102.173 131.917C102.311 131.353 102.485 130.797 102.693 130.255C103.107 128.948 103.432 127.614 103.668 126.264C103.9 124.913 104.04 123.548 104.089 122.179C104.078 121.607 104.1 121.035 104.155 120.466C104.201 120.615 104.225 120.77 104.227 120.926C104.26 121.22 104.283 121.652 104.288 122.179C104.3 123.564 104.189 124.948 103.956 126.314C103.723 127.68 103.363 129.022 102.882 130.321C102.699 130.82 102.533 131.214 102.405 131.485C102.35 131.64 102.271 131.786 102.173 131.917Z" fill="#737690"/>
<path d="M92.6047 219.432C92.574 219.343 92.5482 219.252 92.5272 219.16L92.3279 218.362C92.1507 217.653 91.9015 216.611 91.5969 215.264C90.9823 212.57 90.1573 208.657 89.2048 203.812C88.2524 198.968 87.1893 193.181 85.8825 186.785C85.2291 183.587 84.5037 180.239 83.6676 176.78C82.8315 173.322 81.9289 169.763 81.0042 166.111C79.1492 158.811 77.4603 151.816 76.447 145.353C75.9494 142.297 75.6204 139.216 75.4614 136.124C75.3396 133.425 75.4769 130.721 75.8711 128.049C76.2078 125.846 76.7397 123.677 77.4603 121.569C78.0187 119.989 78.679 118.447 79.4371 116.952C80.0739 115.727 80.6055 114.796 81.0042 114.181L81.4471 113.482C81.4956 113.401 81.5492 113.323 81.6077 113.249L81.4693 113.499L81.0983 114.181C80.7162 114.801 80.2013 115.744 79.5811 116.952C78.8446 118.454 78.2047 120.002 77.6652 121.586C76.9586 123.699 76.4397 125.871 76.1148 128.076C75.7394 130.738 75.617 133.429 75.7493 136.113C75.9145 139.196 76.2491 142.268 76.7515 145.314C77.7815 151.755 79.4703 158.739 81.3253 166.044C82.25 169.691 83.1637 173.25 83.9832 176.719C84.8027 180.189 85.517 183.532 86.1649 186.73C87.4551 193.132 88.4961 198.924 89.4263 203.774C90.3566 208.624 91.1429 212.537 91.7243 215.242C92.0122 216.577 92.2393 217.625 92.3999 218.346C92.4718 218.695 92.5272 218.961 92.5715 219.155C92.6158 219.349 92.6047 219.432 92.6047 219.432Z" fill="white"/>
<path d="M94.3877 219.199C94.3877 219.199 94.3545 219.105 94.3102 218.928C94.2659 218.75 94.1939 218.467 94.1108 218.124C93.9392 217.42 93.6844 216.378 93.3854 215.036C92.7708 212.348 91.9457 208.446 90.9989 203.607C90.052 198.769 88.9944 192.999 87.6765 186.619C87.0231 183.426 86.3033 180.089 85.4616 176.642C84.62 173.194 83.7285 169.641 82.8037 165.994C80.9543 158.705 79.2765 151.727 78.2687 145.281C77.7691 142.231 77.4437 139.156 77.2942 136.069C77.2009 133.382 77.3622 130.693 77.7759 128.037C78.1165 125.841 78.6482 123.678 79.3651 121.575C79.9215 119.993 80.58 118.448 81.3363 116.952C81.9731 115.727 82.4992 114.796 82.8979 114.181L83.3408 113.488C83.4405 113.327 83.4959 113.255 83.4959 113.255C83.4959 113.255 83.4571 113.338 83.363 113.499L82.9477 114.214C82.5656 114.829 82.0562 115.771 81.436 116.985C80.7004 118.486 80.0605 120.032 79.5201 121.613C78.8163 123.705 78.2957 125.855 77.9642 128.037C77.5875 130.691 77.4614 133.375 77.5876 136.052C77.7479 139.128 78.0807 142.193 78.5843 145.231C79.6032 151.666 81.2921 158.633 83.1415 165.917C84.0662 169.564 84.9743 173.122 85.7938 176.57C86.6134 180.017 87.3277 183.365 87.97 186.547C89.2602 192.938 90.3012 198.741 91.2204 203.552C92.1396 208.363 92.9369 212.298 93.5183 214.992C93.8063 216.334 94.0333 217.376 94.1883 218.096C94.2603 218.44 94.3212 218.711 94.36 218.905C94.3988 219.099 94.3877 219.199 94.3877 219.199Z" fill="white"/>
<path d="M131.339 172.208C131.357 172.256 131.368 172.306 131.372 172.357C131.372 172.474 131.405 172.623 131.433 172.801C131.483 173.211 131.555 173.782 131.643 174.508C131.815 176.016 132.059 178.15 132.358 180.788C132.507 182.113 132.668 183.559 132.839 185.122C133.011 186.685 133.277 188.343 133.515 190.111C133.986 193.608 134.5 197.449 135.043 201.479C136.045 207.371 136.981 212.853 137.762 217.42V217.525L137.657 217.559C133.781 218.589 130.525 219.31 128.243 219.776C127.103 220.008 126.206 220.175 125.597 220.286L124.893 220.402L124.655 220.43C124.73 220.4 124.808 220.377 124.888 220.363L125.58 220.213L128.21 219.659C130.48 219.16 133.72 218.407 137.59 217.353L137.502 217.486C136.71 212.919 135.757 207.443 134.733 201.551C134.179 197.516 133.687 193.669 133.221 190.172C132.994 188.42 132.778 186.757 132.574 185.183L132.131 180.843C131.865 178.205 131.654 176.06 131.505 174.552C131.438 173.826 131.383 173.255 131.344 172.84C131.344 172.657 131.344 172.513 131.311 172.396C131.309 172.332 131.319 172.268 131.339 172.208Z" fill="#737690"/>
<path d="M128.165 223.101C127.506 222.187 127.173 221.079 127.218 219.953C127.424 220.461 127.587 220.986 127.705 221.521C127.909 222.032 128.063 222.561 128.165 223.101Z" fill="#737690"/>
<path d="M132.446 222.292C132.446 222.292 132.39 222.253 132.34 222.164C132.29 221.904 132.241 221.327 132.113 220.662C131.963 220.125 131.849 219.579 131.77 219.027C132.117 219.49 132.333 220.037 132.396 220.612C132.502 221.123 132.523 221.647 132.457 222.164C132.468 222.225 132.468 222.264 132.446 222.292Z" fill="#737690"/>
<path d="M136.537 221.61C136.454 221.61 136.493 220.762 136.321 219.747C136.15 218.733 135.839 217.957 135.917 217.918C136.263 218.46 136.497 219.066 136.603 219.701C136.71 220.335 136.687 220.984 136.537 221.61Z" fill="#737690"/>
<path d="M104.083 219.038C103.443 219.082 102.802 219.082 102.162 219.038C100.977 219.038 99.3433 219.038 97.5326 219.088C95.722 219.138 94.094 219.254 92.9146 219.343C92.2769 219.418 91.6351 219.451 90.9931 219.443C91.156 219.385 91.3252 219.348 91.497 219.332C91.8237 219.271 92.2999 219.21 92.8924 219.138C94.0719 219 95.7109 218.861 97.5271 218.8C99.3433 218.739 100.982 218.772 102.167 218.833C102.76 218.867 103.242 218.9 103.574 218.933C103.748 218.944 103.919 218.979 104.083 219.038Z" fill="#737690"/>
<path d="M101.791 222.453C101.713 222.453 101.962 221.693 102.018 220.757C102.073 219.82 101.935 219.094 102.018 219.044C102.289 219.577 102.389 220.181 102.306 220.773C102.316 221.374 102.136 221.962 101.791 222.453Z" fill="#737690"/>
<path d="M97.6103 222.497C97.425 221.962 97.3332 221.4 97.339 220.834C97.2457 220.274 97.2457 219.703 97.339 219.143C97.6099 220.241 97.6941 221.377 97.5882 222.502L97.6103 222.497Z" fill="#737690"/>
<path d="M94.3219 222.458C93.7394 221.452 93.4803 220.291 93.5799 219.132C93.7682 219.672 93.9018 220.229 93.9785 220.795C94.1472 221.337 94.2622 221.894 94.3219 222.458Z" fill="#737690"/>
<path d="M125.247 83.4294C125.247 78.1194 120.064 69.6279 120.064 69.6279L115.141 59.457L94.3155 59.2297L82.8312 64.2182L81.0649 65.7258L86.1259 99.7694L79.437 108.638C82.0173 119.801 121.52 116.847 121.52 116.847L116.891 98.1509C116.891 98.1509 125.247 88.7338 125.247 83.4294Z" fill="#00ACE9"/>
<path d="M113.06 59.4348L94.3162 59.2297L88.0701 61.9457C87.9539 61.99 90.9384 75.2815 95.9164 77.1716C101.044 79.106 115.801 78.8899 116.288 73.3637C116.676 69.0238 113.06 59.4348 113.06 59.4348Z" fill="#A2675F"/>
<path d="M106.37 78.2745C106.331 78.3022 106.087 77.8976 105.606 77.3267C104.975 76.5926 104.226 75.9688 103.391 75.481C102.551 74.9955 101.636 74.6563 100.683 74.4777C99.9521 74.3391 99.4814 74.3336 99.4814 74.2837C99.8896 74.2089 100.308 74.2089 100.716 74.2837C101.711 74.4118 102.67 74.7365 103.538 75.2389C104.405 75.7413 105.165 76.4114 105.772 77.2103C106.036 77.5246 106.238 77.8855 106.37 78.2745Z" fill="#6F4C47"/>
<path d="M110.069 97.5526C109.531 97.7427 108.974 97.8782 108.408 97.9572C107.378 98.1567 105.939 98.3784 104.338 98.5447C102.738 98.711 101.287 98.772 100.235 98.7831C99.6661 98.8148 99.0952 98.7943 98.5297 98.7221C99.0898 98.6285 99.6564 98.5804 100.224 98.578C101.276 98.5115 102.721 98.4172 104.311 98.2565C105.9 98.0958 107.34 97.9018 108.375 97.7521C108.935 97.6472 109.501 97.5805 110.069 97.5526Z" fill="#161B46"/>
<path d="M108.104 100.545C107.511 100.673 106.913 100.767 106.31 100.828C104.87 101.038 103.443 101.327 102.035 101.693C100.628 102.064 99.2417 102.51 97.882 103.029C97.3265 103.27 96.7592 103.482 96.1821 103.666C96.1821 103.666 96.3205 103.555 96.5974 103.411C96.8743 103.267 97.2895 103.067 97.8045 102.857C100.507 101.7 103.366 100.953 106.288 100.64C106.841 100.584 107.301 100.551 107.617 100.545C107.778 100.52 107.942 100.52 108.104 100.545Z" fill="#161B46"/>
<g opacity="0.3">
<path opacity="0.3" d="M98.335 98.6605C98.2298 92.9015 97.0171 86.871 93.2628 82.5089C93.8989 85.6569 93.5249 88.9256 92.1944 91.8481C90.8638 94.7707 88.6447 97.1976 85.854 98.7824V100.329C86.7787 102.075 88.1021 103.693 89.8962 104.508C91.6902 105.323 94.0104 105.168 95.4334 103.776C96.181 103.028 96.6073 102.019 97.3106 101.227C98.4845 99.9187 100.267 99.381 101.956 98.8988L98.335 98.6605Z" fill="#2D3259"/>
</g>
<path d="M115.158 85.2253C115.108 85.4029 115.038 85.5741 114.948 85.7352C114.804 86.0567 114.566 86.5112 114.261 87.0655C112.654 89.9534 110.656 92.6057 108.325 94.9473C107.877 95.3963 107.506 95.7455 107.218 95.9727C107.086 96.1043 106.939 96.2197 106.78 96.3164C107.214 95.7893 107.674 95.2842 108.159 94.8032C109.012 93.8831 110.158 92.5861 111.315 91.0397C112.473 89.4932 113.414 88.041 114.084 86.9657C114.411 86.3672 114.77 85.7862 115.158 85.2253Z" fill="#161B46"/>
<path d="M102.866 19.9536C104.527 17.8529 109.007 17.8585 110.147 19.0945C110.912 18.6708 111.81 18.5582 112.656 18.7801C113.502 19.002 114.229 19.5414 114.688 20.2862L119.489 21.0622C120.318 21.1157 121.12 21.3788 121.82 21.8271C122.479 22.337 122.833 23.3347 122.374 24.0442C124.074 24.3712 124.888 26.8156 123.73 28.0904C123.902 28.2654 124.035 28.4736 124.124 28.7022C124.212 28.9308 124.253 29.1751 124.243 29.42C124.234 29.6649 124.175 29.9053 124.069 30.1265C123.964 30.3477 123.815 30.5451 123.631 30.7066C125.043 32.193 126.191 33.9101 127.025 35.7837C127.445 36.5388 127.587 37.418 127.424 38.2669C127.18 39.0872 126.161 39.708 125.441 39.2535C125.694 39.5673 125.852 39.9473 125.895 40.3484C125.938 40.7494 125.865 41.1544 125.685 41.5149C126.488 41.4817 126.792 42.7066 126.294 43.3219C125.796 43.9371 124.893 44.0646 124.079 44.0979C123.265 44.1311 122.418 44.1478 121.781 44.6521C121.794 44.7492 121.827 44.8426 121.877 44.9265C121.928 45.0104 121.995 45.0831 122.075 45.1399C122.777 45.6094 123.275 46.3292 123.466 47.153C123.658 47.9767 123.528 48.8425 123.104 49.5741C123.016 49.7127 122.933 49.8402 122.866 49.9566C122.44 50.6494 121.333 51.3256 120.651 51.7469C118.902 52.8111 117.811 52.7002 115.806 53.127C116.443 54.3963 113.353 57.5003 109.411 54.9062C102.818 57.2726 95.9167 58.6709 88.923 59.0578C87.8155 59.1354 86.4755 59.0578 85.9218 58.11C85.4697 58.2263 84.9956 58.2263 84.5435 58.11C84.0913 57.9937 83.676 57.7649 83.3359 57.4448C82.6574 56.7976 82.0955 56.0383 81.6747 55.2C80.6999 54.9854 79.8154 54.4736 79.1431 53.7351C78.4708 52.9966 78.0437 52.0677 77.9204 51.0762C77.2388 50.6056 76.6619 49.9986 76.2264 49.2936C75.7908 48.5886 75.506 47.8008 75.3899 46.9801C74.9264 46.845 74.4957 46.6158 74.1245 46.3068C73.7534 45.9978 73.4498 45.6155 73.2327 45.184C73.0155 44.7524 72.8895 44.2806 72.8624 43.7982C72.8354 43.3157 72.9078 42.8328 73.0753 42.3796C73.3315 40.0619 73.9656 37.8018 74.9525 35.6895C73.6678 35.4955 73.0753 33.8161 73.5183 32.5911C73.9613 31.3662 75.0688 30.5237 76.1208 29.7532C75.185 30.0692 74.2825 28.9274 74.4597 27.9574C74.6368 26.9874 75.4398 26.2945 76.2537 25.707C77.4407 24.8863 78.7215 24.2108 80.0689 23.695C80.4122 21.9934 82.4222 19.9481 83.945 19.1056C90.0637 15.7023 94.4658 14.6714 102.866 20.0257" fill="#161B46"/>
<path d="M109.471 59.8008V29.6205C109.475 28.9748 109.235 28.3514 108.8 27.8747C108.365 27.398 107.766 27.103 107.123 27.0487L93.4685 23.7784C89.0996 23.3738 86.27 28.7669 86.0541 33.1678C85.8105 38.0399 85.7052 43.9929 86.3254 47.6178C86.5954 49.6178 87.4998 51.4781 88.9053 52.925C90.3108 54.3718 92.1433 55.3287 94.133 55.6548L94.2437 60.9481L94.3212 67.1117C96.3866 66.7348 109.228 59.2465 109.228 59.2465" fill="#A2675F"/>
<path d="M93.7458 43.8266C93.2052 43.6677 92.6475 43.5747 92.0846 43.5494C91.8299 43.5494 91.5863 43.4829 91.5309 43.3055C91.5087 43.0403 91.5645 42.7745 91.6915 42.5406C91.9296 41.9143 92.1732 41.2603 92.4279 40.573C93.4468 37.7683 94.1833 35.4681 94.0891 35.4293C93.995 35.3905 93.0592 37.6464 92.0403 40.4178C91.7967 41.1106 91.5586 41.7647 91.3371 42.3965C91.1794 42.7101 91.1381 43.0696 91.2208 43.4108C91.2581 43.5011 91.3162 43.5813 91.3903 43.6448C91.4644 43.7084 91.5524 43.7536 91.6472 43.7767C91.7899 43.8145 91.937 43.8332 92.0846 43.8321C92.6364 43.9003 93.1945 43.8984 93.7458 43.8266Z" fill="#161B46"/>
<path d="M94.1548 55.6546C94.1548 55.6546 98.1139 56.0093 102.937 53.0218C102.937 53.0218 101.829 58.4758 94.2046 58.1765L94.1548 55.6546Z" fill="#6F4C47"/>
<path d="M96.5525 32.4141C96.6522 32.6857 97.66 32.5416 98.8394 32.6691C100.019 32.7965 100.982 33.1069 101.137 32.8575C101.204 32.7411 101.032 32.4861 100.645 32.2256C100.127 31.9085 99.5435 31.7133 98.9392 31.6548C98.3349 31.5962 97.7252 31.6758 97.1561 31.8875C96.7242 32.0649 96.5082 32.2866 96.5525 32.4141Z" fill="#161B46"/>
<path d="M87.7427 32.7795C87.9199 33.0012 88.6121 32.7795 89.4482 32.7352C90.2843 32.6908 90.9876 32.8682 91.1481 32.6299C91.2146 32.5079 91.1038 32.2807 90.7937 32.0756C90.3768 31.815 89.889 31.691 89.3984 31.7209C88.9092 31.7339 88.4365 31.9006 88.0473 32.1975C87.7427 32.4303 87.6375 32.6687 87.7427 32.7795Z" fill="#161B46"/>
<path d="M83.0084 36.8592C82.9678 35.7029 83.3299 34.5684 84.0328 33.6499C84.4816 33.2129 84.9068 32.7522 85.3064 32.2698C86.065 31.1612 85.8601 29.6591 86.1314 28.3289C86.3208 27.4758 86.7089 26.6797 87.2641 26.0054C87.8194 25.3311 88.5261 24.7978 89.3264 24.449C90.6609 23.8947 92.2114 23.8614 93.4517 23.1076C94.3709 22.5533 95.0409 21.6332 95.9878 21.1288C97.8372 20.1533 100.096 21.0014 101.951 21.9658C102.389 23.3737 101.558 24.654 100.755 25.8901C100.352 26.5005 99.8211 27.0166 99.2 27.4031C98.5788 27.7895 97.8817 28.0372 97.1561 28.1293C96.021 28.2679 94.681 28.085 93.9279 28.9441C93.1748 29.8033 93.5514 31.3331 92.9146 32.3474C92.0065 33.8051 89.7307 33.406 88.3021 34.3539C87.1946 35.0855 86.8015 36.4823 86.2976 37.6795C85.7937 38.8767 84.869 40.2015 83.5289 40.2181C83.2265 39.1223 83.0519 37.9952 83.0084 36.8592Z" fill="#161B46"/>
<path d="M99.2661 24.7091C102.594 24.4674 105.938 24.874 109.111 25.9064C110.083 26.1331 110.956 26.6654 111.603 27.4251C112.056 28.1762 112.283 29.0423 112.256 29.9193C112.384 32.6519 111.481 36.0552 110.595 38.6381L107.312 40.8552C104.654 40.3841 105.595 35.7836 105.59 33.511C104.654 33.1457 103.84 32.5251 103.239 31.7198C102.638 30.9144 102.274 29.9565 102.19 28.9549C101.415 28.5128 100.75 27.9015 100.243 27.1664C99.7371 26.4313 99.4031 25.5914 99.2661 24.7091Z" fill="#161B46"/>
<path d="M107.29 39.9076C107.29 38.3445 109.2 37.9288 110.584 38.6605C111.343 39.0596 111.952 39.8965 111.952 41.5593C111.952 45.9935 107.522 45.079 107.522 44.9515C107.522 44.824 107.273 41.7201 107.29 39.9076Z" fill="#A2675F"/>
<path d="M108.851 43.2331C108.851 43.2331 108.928 43.2886 109.056 43.344C109.234 43.4128 109.431 43.4128 109.609 43.344C110.08 43.1722 110.473 42.4239 110.495 41.6257C110.508 41.2447 110.434 40.8657 110.279 40.5172C110.238 40.3785 110.163 40.2521 110.062 40.1488C109.961 40.0455 109.836 39.9683 109.698 39.9241C109.61 39.901 109.516 39.9093 109.433 39.9478C109.35 39.9862 109.283 40.0523 109.244 40.1347C109.183 40.2622 109.211 40.3509 109.189 40.3564C109.166 40.362 109.094 40.2844 109.128 40.0959C109.157 39.9877 109.219 39.8911 109.305 39.8188C109.428 39.7289 109.58 39.6892 109.731 39.7079C109.923 39.7491 110.101 39.8406 110.246 39.9731C110.391 40.1056 110.498 40.2742 110.556 40.4618C110.746 40.8453 110.84 41.2698 110.828 41.6978C110.794 42.5902 110.34 43.4271 109.72 43.61C109.602 43.6453 109.477 43.6532 109.355 43.633C109.233 43.6128 109.118 43.5652 109.017 43.4936C108.856 43.3551 108.834 43.2331 108.851 43.2331Z" fill="#6F4C47"/>
<path d="M109.449 45.0794C109.449 45.0794 109.449 45.0794 109.449 45.1348C109.461 45.1937 109.483 45.25 109.515 45.3011C109.644 45.5036 109.84 45.6546 110.069 45.7279C110.422 45.8629 110.8 45.9197 111.176 45.8942C111.413 45.8876 111.649 45.8578 111.88 45.8055C112.146 45.7553 112.402 45.6617 112.638 45.5283H112.583C112.669 45.8969 112.848 46.2373 113.102 46.5171C113.357 46.797 113.679 47.0069 114.037 47.1269C114.396 47.2469 114.779 47.273 115.151 47.2028C115.522 47.1325 115.87 46.9683 116.16 46.7256H116.082C116.23 46.9175 116.446 47.0447 116.686 47.0803C116.927 47.1151 117.174 47.0785 117.395 46.975C117.631 46.8777 117.827 46.7015 117.948 46.4762C118.072 46.2504 118.135 45.9964 118.131 45.739C118.123 45.2064 117.927 44.694 117.577 44.2923C117.213 43.8871 116.8 43.5279 116.348 43.2226V43.3279C116.527 43.1988 116.677 43.0333 116.788 42.8422C116.898 42.6512 116.967 42.4389 116.99 42.2193C117.05 41.7762 116.979 41.3253 116.786 40.9223C116.58 40.5173 116.296 40.1574 115.949 39.8636C115.599 39.5646 115.229 39.2887 114.842 39.0378V39.1375C114.99 38.9577 115.098 38.7489 115.16 38.5245C115.222 38.3001 115.236 38.0652 115.202 37.835C115.15 37.3605 114.957 36.9125 114.648 36.5491C114.014 35.9258 113.248 35.454 112.406 35.1689L112.444 35.241C112.533 34.7743 112.508 34.293 112.37 33.8385C112.231 33.384 111.985 32.9698 111.652 32.6317C111.318 32.2936 110.908 32.0417 110.456 31.8976C110.003 31.7535 109.523 31.7215 109.056 31.8045L109.128 31.8765C109.167 31.5068 109.129 31.1329 109.014 30.7791C108.9 30.4253 108.712 30.0997 108.463 29.8235C108.214 29.5473 107.91 29.3268 107.571 29.1762C107.231 29.0257 106.863 28.9486 106.492 28.95L106.553 29.0054C106.52 28.6307 106.404 28.2682 106.212 27.9447C106.021 27.6213 105.758 27.3454 105.445 27.1375C105.176 26.9466 104.871 26.8123 104.548 26.7427C104.225 26.6732 103.892 26.6698 103.568 26.7329L103.624 26.7717C103.576 26.3724 103.429 25.9915 103.197 25.6631C103.006 25.3645 102.765 25.1018 102.483 24.8871C102.042 24.5386 101.5 24.344 100.938 24.3328H100.772H100.617C100.523 24.3426 100.431 24.3593 100.34 24.3827C100.199 24.4196 100.06 24.4659 99.9246 24.5213L99.681 24.6432L99.6035 24.6876L99.6865 24.6543L99.9302 24.5435C100.066 24.4932 100.205 24.4506 100.345 24.416C100.437 24.3945 100.529 24.3797 100.622 24.3716H100.772H100.938C101.486 24.3855 102.013 24.5804 102.439 24.9259C102.712 25.138 102.948 25.3947 103.136 25.6853C103.353 26.0066 103.49 26.3754 103.535 26.7606V26.8105H103.585C103.897 26.7534 104.217 26.7599 104.526 26.8294C104.835 26.8989 105.127 27.0301 105.384 27.2151C105.684 27.415 105.934 27.6797 106.117 27.9896C106.3 28.2995 106.411 28.6467 106.442 29.0054V29.0608H106.497C106.84 29.0524 107.181 29.1178 107.496 29.2527C107.811 29.3875 108.094 29.5886 108.325 29.8423C108.584 30.1036 108.78 30.4207 108.898 30.7694C109.016 31.1181 109.053 31.4892 109.006 31.8544V31.943H109.094C109.541 31.8652 110.001 31.897 110.433 32.0358C110.865 32.1745 111.257 32.4161 111.576 32.7398C111.894 33.0635 112.129 33.4596 112.261 33.8943C112.393 34.3289 112.418 34.7891 112.334 35.2354V35.2853H112.383C113.204 35.5655 113.951 36.0257 114.571 36.6322C114.874 36.9688 115.068 37.3906 115.124 37.8405C115.157 38.0527 115.145 38.2695 115.089 38.4767C115.033 38.684 114.933 38.877 114.798 39.0433L114.748 39.1043L114.809 39.1431C115.584 39.5811 116.234 40.2109 116.697 40.9722C116.878 41.3513 116.945 41.7749 116.891 42.1916C116.869 42.3906 116.805 42.5828 116.704 42.7556C116.603 42.9284 116.466 43.0781 116.304 43.1948L116.232 43.2447L116.304 43.3002C116.748 43.5965 117.153 43.9465 117.511 44.3422C117.854 44.7169 118.051 45.2031 118.065 45.7113C118.08 45.9448 118.026 46.1777 117.909 46.3802C117.791 46.5826 117.616 46.7454 117.406 46.8475C117.213 46.9513 116.992 46.9869 116.777 46.9487C116.562 46.9104 116.366 46.8006 116.221 46.6369L116.193 46.5925L116.149 46.6258C115.847 46.8818 115.48 47.049 115.089 47.1086C114.698 47.1683 114.298 47.1182 113.934 46.9639C113.632 46.8288 113.364 46.6261 113.152 46.3715C112.94 46.1169 112.789 45.8171 112.71 45.4951V45.4452H112.666C112.437 45.5734 112.191 45.6668 111.935 45.7223C111.706 45.7767 111.472 45.8083 111.237 45.8166C110.862 45.8454 110.485 45.7964 110.13 45.6725C109.905 45.6044 109.709 45.4617 109.576 45.2678C109.471 45.157 109.454 45.0738 109.449 45.0794Z" fill="#737690"/>
<path d="M125.983 39.3531C126.042 39.2661 126.093 39.1733 126.133 39.076C126.292 38.7116 126.352 38.3117 126.307 37.9166C126.262 37.5215 126.114 37.1452 125.878 36.8256C125.682 36.5624 125.433 36.3438 125.147 36.1842C124.86 36.0246 124.543 35.9278 124.217 35.9L124.256 35.9499C124.356 35.1967 124.17 34.4333 123.735 33.8104C123.495 33.4571 123.182 33.1602 122.816 32.9402C122.42 32.7365 122.007 32.5695 121.581 32.4413C121.364 32.3713 121.157 32.2725 120.967 32.1476C120.784 32.0087 120.634 31.8307 120.529 31.6265C120.308 31.2164 120.219 30.7175 119.942 30.2741C119.65 29.8241 119.231 29.4717 118.738 29.2623C118.244 29.0529 117.699 28.996 117.173 29.099L117.251 29.1656C117.297 28.6246 117.218 28.0803 117.02 27.5748C116.822 27.0693 116.51 26.6163 116.109 26.2507C115.708 25.8852 115.229 25.617 114.707 25.4669C114.186 25.3169 113.637 25.289 113.104 25.3854L113.181 25.4519C113.208 24.8612 113.066 24.2751 112.772 23.7621C112.479 23.2491 112.045 22.8303 111.522 22.5548C111 22.2793 110.41 22.1583 109.821 22.2061C109.232 22.2539 108.669 22.4684 108.198 22.8247H108.27C107.804 22.4302 107.261 22.1393 106.675 21.9711C106.153 21.8144 105.613 21.7232 105.069 21.6995C104.187 21.6555 103.305 21.7662 102.461 22.0265C101.92 22.1927 101.409 22.4414 100.944 22.7637C100.825 22.8519 100.71 22.9463 100.6 23.0464L100.49 23.1517C100.49 23.1517 100.65 23.0131 100.966 22.7914C101.433 22.4821 101.945 22.2465 102.483 22.093C103.319 21.841 104.192 21.7396 105.063 21.7937C105.599 21.8161 106.13 21.9093 106.642 22.0708C107.213 22.2337 107.742 22.5193 108.192 22.9078L108.231 22.941H108.264C108.717 22.5941 109.259 22.3841 109.827 22.336C110.395 22.2879 110.965 22.4036 111.469 22.6694C111.974 22.9353 112.392 23.3402 112.673 23.8362C112.955 24.3323 113.089 24.8987 113.059 25.4685V25.4963H113.137C113.662 25.4068 114.201 25.4403 114.711 25.5941C115.221 25.748 115.689 26.018 116.077 26.3831C116.446 26.739 116.732 27.1718 116.915 27.6508C117.097 28.1297 117.173 28.6431 117.135 29.1545V29.2487H117.223C117.722 29.151 118.239 29.2043 118.707 29.4017C119.176 29.5992 119.575 29.9318 119.854 30.3573C120.114 30.7674 120.208 31.2607 120.44 31.6931C120.551 31.9129 120.712 32.103 120.911 32.2473C121.104 32.3843 121.314 32.4944 121.537 32.5744C121.959 32.696 122.369 32.8575 122.761 33.0566C123.113 33.2678 123.417 33.5511 123.652 33.888C124.079 34.4934 124.265 35.2367 124.173 35.9721V36.0275H124.217C124.531 36.0536 124.837 36.145 125.115 36.2957C125.392 36.4465 125.635 36.6534 125.828 36.9032C126.063 37.2169 126.212 37.5856 126.263 37.974C126.313 38.3624 126.263 38.7572 126.116 39.1204C126.039 39.2811 125.978 39.3531 125.983 39.3531Z" fill="#737690"/>
<path d="M83.8667 43.0278C83.8929 42.9714 83.9065 42.9099 83.9065 42.8477C83.9065 42.7854 83.8929 42.724 83.8667 42.6675C83.8079 42.5281 83.7121 42.4074 83.5898 42.3184C83.424 42.1997 83.2355 42.1167 83.0361 42.0745C82.7888 42.0271 82.5499 41.943 82.3273 41.825C82.0718 41.6661 81.8769 41.4261 81.7736 41.1433C81.6517 40.8232 81.5934 40.4825 81.6019 40.14C81.6019 39.7742 81.6352 39.3862 81.6019 38.9705C81.4636 38.0868 81.2239 37.2219 80.8876 36.3931C80.7474 35.9246 80.6985 35.4335 80.7437 34.9465C80.7658 34.6913 80.8425 34.4439 80.9686 34.2211C81.0948 33.9983 81.2673 33.8052 81.4746 33.655C81.9537 33.3895 82.4631 33.1829 82.9918 33.0398C83.2687 32.9454 83.5286 32.8069 83.7615 32.6296C83.9937 32.4347 84.1712 32.1825 84.2764 31.898C84.4591 31.3229 84.5816 30.7303 84.6419 30.1298C84.6836 29.8341 84.7695 29.5464 84.8966 29.2763C85.0319 29.0112 85.2496 28.7972 85.5168 28.6665C85.9073 28.5357 86.313 28.4556 86.7239 28.4282C86.9368 28.4 87.143 28.3343 87.333 28.2342C87.5253 28.1338 87.6863 27.9823 87.7981 27.7963C87.9864 27.4335 88.1208 27.0451 88.1968 26.6434C88.2868 26.2689 88.4548 25.9176 88.6896 25.6125C88.9134 25.3204 89.1953 25.078 89.5174 24.9005C89.8396 24.7231 90.195 24.6144 90.5612 24.5815C91.2452 24.517 91.9281 24.7152 92.4716 25.1358L92.5325 25.1802L92.5657 25.1081C92.788 24.5582 93.1239 24.0616 93.5514 23.6508C93.979 23.2401 94.4884 22.9245 95.0464 22.7247C95.5175 22.5607 96.0157 22.4892 96.5138 22.5141C96.938 22.5276 97.3564 22.6177 97.7486 22.7801C98.2972 23.0126 98.7679 23.3972 99.1052 23.8887C99.195 24.0182 99.2764 24.1534 99.3489 24.2933L99.4042 24.3986V24.4319C99.4042 24.4319 99.4042 24.4319 99.4042 24.3931L99.3544 24.2822C99.2879 24.1395 99.2101 24.0024 99.1218 23.8721C98.7943 23.3647 98.3242 22.9655 97.7707 22.7247C97.3742 22.5553 96.9501 22.4595 96.5193 22.442C96.0088 22.4122 95.4973 22.4819 95.0132 22.6471C94.4353 22.8522 93.9077 23.1783 93.4656 23.6036C93.0235 24.029 92.6771 24.5437 92.4494 25.1136L92.538 25.0859C91.9727 24.6416 91.2612 24.426 90.5446 24.4818C90.1618 24.5174 89.7904 24.6312 89.4532 24.8162C89.1161 25.0011 88.8204 25.2533 88.5844 25.5571C88.3371 25.8747 88.1597 26.2412 88.0639 26.6324C87.9893 27.018 87.8607 27.3912 87.6819 27.7409C87.5701 27.9018 87.4233 28.0353 87.2526 28.1313C87.0819 28.2273 86.8917 28.2833 86.6962 28.2952C86.2736 28.3231 85.8565 28.4069 85.4559 28.5446C85.161 28.6866 84.9214 28.9224 84.7748 29.2153C84.637 29.4962 84.5454 29.7975 84.5035 30.1077C84.4448 30.6984 84.3261 31.2815 84.1491 31.8481C84.0498 32.1101 83.886 32.3427 83.6729 32.5243C83.4522 32.6957 83.2054 32.8305 82.942 32.9234C82.4024 33.0678 81.8833 33.2802 81.3971 33.5553C81.1647 33.7116 80.9745 33.9229 80.8433 34.1705C80.7208 34.4075 80.642 34.6648 80.6108 34.9299C80.5604 35.4341 80.6131 35.9433 80.7658 36.4264C81.1008 37.2488 81.3441 38.1058 81.4912 38.9816C81.5189 39.3807 81.4912 39.7742 81.4912 40.14C81.4861 40.4922 81.5481 40.8421 81.6739 41.171C81.7794 41.4599 81.9732 41.7081 82.2277 41.8805C82.4565 41.9963 82.7008 42.0784 82.953 42.1244C83.1508 42.1597 83.3392 42.2351 83.5068 42.3461C83.6283 42.4304 83.7256 42.545 83.7892 42.6786C83.8528 42.7833 83.8801 42.906 83.8667 43.0278Z" fill="#737690"/>
<path d="M74.8857 36.687C74.8857 36.687 74.8857 36.687 74.93 36.6039C74.9743 36.5208 74.9909 36.4542 75.0352 36.3489L75.4339 35.3623C75.6111 34.9355 75.8049 34.4034 76.0928 33.8214C76.3894 33.1482 76.8691 32.572 77.4772 32.1586C77.8205 31.9424 78.2302 31.7928 78.6289 31.6043C78.841 31.5019 79.0384 31.3714 79.2159 31.2163C79.4003 31.0531 79.5427 30.8477 79.6312 30.6177C79.8139 30.1466 79.7862 29.6256 79.9302 29.1433C79.9914 28.8978 80.1267 28.6772 80.3178 28.5115C80.525 28.3494 80.7593 28.2255 81.0099 28.1456C81.2723 28.0511 81.5261 27.9343 81.7685 27.7965C82.0184 27.6411 82.2124 27.41 82.3223 27.1369C82.4919 26.5736 82.585 25.9901 82.5991 25.402C82.6256 25.1134 82.7084 24.8328 82.8428 24.5761C82.9927 24.3254 83.2355 24.1442 83.5183 24.0717C84.072 23.9165 84.7254 24.0717 85.3678 23.9442C85.6886 23.8696 85.9775 23.6949 86.1928 23.4454C86.3901 23.2011 86.5592 22.9352 86.6967 22.6528C86.8407 22.3812 86.9736 22.0985 87.1341 21.8657C87.2854 21.6171 87.4993 21.4126 87.7543 21.2726C88.2833 21.0605 88.868 21.0312 89.4155 21.1895C89.9594 21.3254 90.5263 21.3405 91.0767 21.2338C91.5896 21.0701 92.0695 20.8167 92.4942 20.4856C92.8868 20.18 93.3077 19.9128 93.7512 19.6874C94.5811 19.3566 95.4895 19.2757 96.3648 19.4546C97.0902 19.5928 97.7742 19.8962 98.3637 20.3414C98.8051 20.6812 99.1917 21.0869 99.5099 21.5442C99.7056 21.8378 99.876 22.1475 100.019 22.4699C100.069 22.5752 100.108 22.6583 100.141 22.7193C100.174 22.7803 100.18 22.8024 100.185 22.8024L100.152 22.7138L100.047 22.4588C99.9139 22.1293 99.7488 21.8137 99.5542 21.5165C99.2393 21.0468 98.8525 20.6297 98.408 20.2805C97.814 19.8222 97.1224 19.5073 96.3869 19.3604C95.4908 19.1686 94.558 19.2477 93.7069 19.5876C93.2552 19.8129 92.8267 20.0821 92.4278 20.3913C92.0165 20.693 91.5554 20.9201 91.0656 21.062C90.5251 21.1592 89.9702 21.1403 89.4376 21.0066C89.1513 20.9479 88.8604 20.9145 88.5683 20.9068C88.2629 20.8934 87.9594 20.9603 87.6879 21.1008C87.4133 21.2493 87.1823 21.4671 87.0179 21.7327C86.8544 21.9925 86.7047 22.2608 86.5693 22.5364C86.4393 22.8106 86.2756 23.0675 86.0821 23.3013C85.8861 23.5306 85.6224 23.6917 85.329 23.7613C84.7365 23.8944 84.0997 23.7281 83.4795 23.8888C83.1654 23.9671 82.8948 24.1663 82.7265 24.4431C82.5782 24.7154 82.4877 25.0154 82.4607 25.3244C82.4509 25.9007 82.3634 26.4731 82.2004 27.026C82.0934 27.2763 81.9116 27.4874 81.6799 27.6302C81.4428 27.764 81.1945 27.8771 80.9379 27.9683C80.6778 28.0584 80.4345 28.1914 80.2181 28.3618C80.0098 28.5425 79.8611 28.7821 79.7917 29.0491C79.6478 29.5591 79.6754 30.0745 79.5038 30.5124C79.3205 30.9344 78.9841 31.2712 78.5625 31.4547C78.1693 31.6598 77.7596 31.815 77.4052 32.0422C76.7837 32.4691 76.2975 33.0654 76.0042 33.7605C75.7163 34.3535 75.5336 34.869 75.3619 35.318L74.9854 36.3101C74.9466 36.421 74.9189 36.5041 74.8912 36.5706L74.8857 36.687Z" fill="#737690"/>
<path d="M79.315 31.7932C79.315 31.7932 79.2873 31.7932 79.2319 31.7932C79.1504 31.798 79.071 31.8207 78.9994 31.8597C78.8734 31.9528 78.7718 32.075 78.7034 32.216C78.6349 32.3569 78.6016 32.5123 78.6062 32.669C78.621 32.892 78.6657 33.112 78.7391 33.323C78.8287 33.5672 78.8827 33.8229 78.8997 34.0824C78.8838 34.3778 78.7923 34.6641 78.6339 34.9138C78.4788 35.1909 78.2795 35.4681 78.1189 35.7951C78.0278 35.9643 77.9764 36.1522 77.9688 36.3443C77.9611 36.5364 77.9973 36.7277 78.0746 36.9037C78.2352 37.275 78.5287 37.5743 78.6837 37.9457C78.8236 38.3455 78.8058 38.7836 78.6339 39.1706C78.4844 39.5808 78.2629 39.991 78.1189 40.4455C78.0411 40.6792 78.0073 40.9254 78.0193 41.1716C78.039 41.4237 78.1107 41.669 78.2297 41.8921C78.4969 42.3236 78.8027 42.7299 79.1433 43.106C79.4918 43.4774 79.6893 43.9656 79.697 44.4751C79.6078 44.999 79.4572 45.5106 79.2485 45.9993C79.157 46.2626 79.1175 46.5412 79.1322 46.8196C79.1541 47.0959 79.2394 47.3633 79.3814 47.6012C79.6781 48.0365 80.0216 48.438 80.4058 48.7984C80.7672 49.1373 81.0555 49.5466 81.253 50.0012C81.4052 50.4628 81.5903 50.9129 81.8067 51.3481C81.924 51.5665 82.0886 51.7559 82.2885 51.9023C82.4849 52.0238 82.7001 52.1119 82.9253 52.1629C83.137 52.2124 83.3459 52.2734 83.551 52.3458C83.7505 52.4248 83.9371 52.5331 84.1047 52.6672C84.4025 52.9321 84.6633 53.236 84.8799 53.5707C85.107 53.8866 85.3118 54.197 85.5389 54.4742C85.9462 54.9876 86.5101 55.3536 87.1447 55.5162C87.6157 55.6456 88.1103 55.6646 88.5899 55.5716C88.8919 55.5156 89.1833 55.4127 89.4537 55.2668C89.5483 55.2143 89.6389 55.155 89.725 55.0894C89.3736 55.3004 88.9873 55.4468 88.5844 55.5218C88.11 55.6007 87.6242 55.5742 87.1613 55.4442C86.5467 55.2773 86.0028 54.9156 85.6108 54.4132C85.3893 54.1416 85.19 53.8589 84.9685 53.5097C84.7472 53.1654 84.4809 52.8523 84.1767 52.5786C84.0091 52.44 83.8227 52.3262 83.623 52.2405C83.4149 52.1642 83.2022 52.1013 82.9862 52.052C82.772 52.0018 82.5679 51.9156 82.3826 51.797C82.1992 51.6687 82.0476 51.4999 81.9396 51.3037C81.7269 50.8707 81.542 50.4245 81.3859 49.9679C81.1873 49.4954 80.891 49.0704 80.5166 48.7208C80.1417 48.3679 79.8057 47.9759 79.5143 47.5513C79.3817 47.3305 79.302 47.082 79.2817 46.8252C79.2723 46.5638 79.3098 46.3028 79.3925 46.0547C79.6054 45.5575 79.7578 45.0364 79.8466 44.5028C79.8601 44.2281 79.8069 43.9542 79.6915 43.7046C79.5763 43.4667 79.4332 43.2434 79.2651 43.0395C78.9344 42.6678 78.6327 42.2712 78.3626 41.8533C78.2537 41.6451 78.1877 41.417 78.1688 41.1827C78.1557 40.9514 78.1876 40.7199 78.2629 40.5009C78.3958 40.0575 78.6173 39.6529 78.7668 39.2261C78.947 38.8115 78.9629 38.3438 78.8111 37.918C78.6394 37.5189 78.346 37.2251 78.1909 36.8815C78.1173 36.7174 78.0825 36.5385 78.0892 36.3587C78.0959 36.1789 78.144 36.0031 78.2297 35.845C78.3736 35.529 78.5785 35.2519 78.7336 34.9692C78.8967 34.7057 78.9865 34.4034 78.9938 34.0935C78.9756 33.8277 78.9178 33.5661 78.8222 33.3175C78.7458 33.1127 78.6992 32.8981 78.6837 32.6801C78.6749 32.53 78.7026 32.38 78.7643 32.2429C78.826 32.1059 78.92 31.9858 79.0381 31.893C79.1197 31.8354 79.2154 31.8009 79.315 31.7932Z" fill="#737690"/>
<path d="M125.866 39.2369C125.984 39.2309 126.101 39.2123 126.215 39.1815C126.546 39.0987 126.854 38.9435 127.118 38.727C127.552 38.3901 127.856 37.9117 127.976 37.3745C128.052 37.0157 128.049 36.6443 127.966 36.2869C127.882 35.9296 127.721 35.595 127.494 35.3071C127.213 34.992 126.902 34.706 126.564 34.4535C126.196 34.1908 125.893 33.8477 125.678 33.4503C125.5 32.9978 125.5 32.4948 125.678 32.0424C125.816 31.5602 126.049 31.0835 126.182 30.5459C126.326 29.9604 126.346 29.3513 126.242 28.7575C126.138 28.1636 125.911 27.5979 125.577 27.0964C125.243 26.5949 124.808 26.1685 124.3 25.8444C123.792 25.5203 123.222 25.3055 122.627 25.2137L122.671 25.319C122.859 25.0219 122.971 24.6831 122.998 24.3324C123.016 23.975 122.966 23.6174 122.848 23.2793C122.738 22.9369 122.57 22.6162 122.35 22.3315C122.122 22.0562 121.855 21.8153 121.558 21.6165C120.657 21.0565 119.64 20.7113 118.585 20.6077C117.597 20.4787 116.595 20.4918 115.611 20.6465L115.683 20.7075C115.635 20.1353 115.43 19.5874 115.093 19.1232C114.755 18.6591 114.296 18.2964 113.767 18.0747C113.271 17.8741 112.732 17.8017 112.2 17.864C111.706 17.9485 111.226 18.1054 110.777 18.3296C110.561 18.4222 110.334 18.4874 110.102 18.5236C109.88 18.5542 109.655 18.543 109.437 18.4904C109.018 18.3733 108.614 18.2058 108.236 17.9915C107.875 17.7925 107.489 17.6416 107.089 17.5426C106.726 17.4605 106.353 17.4307 105.982 17.4539C105.338 17.4967 104.717 17.7048 104.177 18.058C103.777 18.3234 103.432 18.6619 103.158 19.0557C102.968 19.2959 102.812 19.5607 102.693 19.8428C102.654 19.9384 102.623 20.0365 102.599 20.1366C102.599 20.1366 102.632 20.0368 102.715 19.8483C102.829 19.5759 102.974 19.3174 103.147 19.0779C103.424 18.6963 103.769 18.3693 104.166 18.1135C104.588 17.8451 105.06 17.6642 105.554 17.5814C106.047 17.4986 106.553 17.5155 107.039 17.6312C107.426 17.7309 107.798 17.8799 108.147 18.0747C108.531 18.2969 108.94 18.4718 109.365 18.5957C109.597 18.6512 109.838 18.6625 110.074 18.6289C110.314 18.5923 110.548 18.5253 110.772 18.4294C111.215 18.2146 111.687 18.0635 112.173 17.9804C112.684 17.9222 113.202 17.9927 113.679 18.1855C114.186 18.3972 114.625 18.7435 114.95 19.1869C115.275 19.6304 115.473 20.1542 115.523 20.7019V20.7684H115.589C116.562 20.6138 117.552 20.6007 118.529 20.7296C119.563 20.8318 120.559 21.1693 121.442 21.7163C121.73 21.9141 121.987 22.1532 122.206 22.4257C122.415 22.6975 122.576 23.0031 122.682 23.3292C122.784 23.6513 122.824 23.9899 122.799 24.3269C122.771 24.655 122.666 24.9721 122.494 25.2525L122.439 25.3357H122.538C123.119 25.4208 123.675 25.6263 124.171 25.9389C124.667 26.2515 125.093 26.6645 125.421 27.1512C125.749 27.638 125.972 28.1879 126.075 28.7657C126.178 29.3436 126.16 29.9367 126.021 30.5071C125.894 31.0281 125.667 31.5048 125.523 31.9981C125.337 32.4739 125.337 33.0022 125.523 33.478C125.746 33.8897 126.06 34.2443 126.442 34.5145C126.778 34.7617 127.087 35.0421 127.367 35.3514C127.589 35.628 127.747 35.9503 127.83 36.2952C127.914 36.6402 127.92 36.9992 127.849 37.3468C127.739 37.874 127.449 38.3465 127.029 38.6826C126.768 38.8962 126.467 39.0546 126.143 39.1482C125.982 39.2203 125.866 39.2314 125.866 39.2369Z" fill="#161B46"/>
<path d="M77.5876 28.8222C77.59 28.7946 77.59 28.7667 77.5876 28.7391C77.5876 28.6726 77.5876 28.5894 77.5876 28.4896C77.5876 28.2624 77.5876 27.9354 77.6208 27.5307C77.654 27.1261 77.6873 26.6051 77.7759 26.0508C77.8605 25.3882 78.0203 24.7373 78.2521 24.1109C78.5346 23.3548 78.9765 22.6686 79.5478 22.0989C79.8719 21.7841 80.2462 21.5256 80.6552 21.3339C81.0961 21.1492 81.5472 20.9901 82.0063 20.8573C82.4823 20.7044 82.9255 20.4638 83.3131 20.1478C83.7295 19.8015 84.1014 19.4049 84.4206 18.9672C84.7362 18.5349 85.0352 18.0804 85.3951 17.6591C85.7444 17.2447 86.1644 16.8957 86.6355 16.6282C87.615 16.1267 88.6879 15.8341 89.7862 15.769C90.8098 15.6765 91.8387 15.658 92.8649 15.7136C94.6033 15.8004 96.3154 16.175 97.9315 16.8221C99.0188 17.2653 100.03 17.8769 100.927 18.6346C101.082 18.7732 101.226 18.8896 101.342 19.0004L101.625 19.2887L101.802 19.466L101.863 19.5215C101.863 19.5215 101.863 19.5215 101.813 19.455L101.641 19.2665L101.37 18.9727C101.254 18.8563 101.115 18.7344 100.96 18.5958C100.072 17.8157 99.0619 17.1865 97.9703 16.7335C96.3467 16.0673 94.6226 15.6794 92.8704 15.5861C91.839 15.5239 90.8043 15.5387 89.7751 15.6305C88.6575 15.6981 87.566 15.9962 86.569 16.5062C86.0697 16.7908 85.6283 17.1669 85.2678 17.6148C84.9023 18.036 84.5978 18.4961 84.2821 18.9284C83.9891 19.3582 83.6409 19.7476 83.2467 20.0868C82.8579 20.3977 82.4121 20.6293 81.9343 20.7686C81.4706 20.9027 81.0157 21.0656 80.5722 21.2563C80.1627 21.4566 79.7886 21.7225 79.4647 22.0434C78.8873 22.6296 78.4417 23.3327 78.1579 24.1053C77.9261 24.7384 77.7718 25.3972 77.6983 26.0675C77.6264 26.6605 77.6042 27.176 77.5931 27.5862C77.5821 27.9963 77.5931 28.3289 77.5931 28.5506V28.8C77.5821 28.8222 77.5821 28.8222 77.5876 28.8222Z" fill="#161B46"/>
<path d="M96.785 45.2009L93.6121 46.5589L93.3076 46.6864C93.4741 47.2434 93.7123 47.7763 94.0164 48.2716C94.1547 48.4843 94.3379 48.664 94.5532 48.7981C94.7685 48.9322 95.0105 49.0174 95.2622 49.0476C95.6726 49.0509 96.0736 48.9249 96.4084 48.6873C96.6701 48.4912 96.887 48.2414 97.0446 47.9546C97.2021 47.6679 97.2967 47.3508 97.3221 47.0245C97.3582 46.7001 97.3292 46.3717 97.237 46.0586C97.1448 45.7455 96.9911 45.4539 96.785 45.2009Z" fill="#6F4C47"/>
<path d="M95.0745 49.0917C95.508 49.0691 95.9288 48.9375 96.2982 48.7093C96.6753 48.4378 96.9502 48.0474 97.079 47.6007C97.2436 47.0543 97.2183 46.468 97.007 45.9379C96.9585 45.7977 96.8973 45.6623 96.8242 45.5333C96.7975 45.4776 96.764 45.4255 96.7246 45.3781C96.6913 45.3781 96.7246 45.3781 96.6526 45.3781L95.8829 45.7217L94.5484 46.3093C94.1491 46.5145 93.7273 46.6726 93.2915 46.7804C93.6589 46.522 94.0523 46.3028 94.4654 46.1263L95.7722 45.4889C96.0269 45.367 96.265 45.2506 96.564 45.1176C96.6225 45.0945 96.6863 45.0885 96.748 45.1002C96.8098 45.112 96.8669 45.1411 96.9128 45.1841C96.9793 45.2477 97.0337 45.3228 97.0734 45.4058C97.1521 45.5478 97.2187 45.6961 97.2728 45.8492C97.5029 46.4378 97.5224 47.088 97.3281 47.6894C97.1674 48.1806 96.8403 48.6001 96.4034 48.8755C96.1122 49.0566 95.7771 49.1543 95.4344 49.1582C95.3105 49.1718 95.1854 49.1487 95.0745 49.0917Z" fill="#161B46"/>
<path d="M112.012 44.2032C112.258 44.2809 112.49 44.3969 112.699 44.5469C113.278 44.957 113.692 45.5603 113.867 46.2485C113.999 46.7217 114.016 47.2195 113.917 47.7007C113.8 48.2514 113.553 48.7663 113.197 49.2028C112.808 49.6938 112.299 50.0757 111.719 50.3113C111.095 50.561 110.409 50.6151 109.753 50.4665C109.098 50.3277 108.496 50.0069 108.015 49.5409C107.564 49.104 107.251 48.5455 107.112 47.9335C106.996 47.42 106.999 46.8867 107.121 46.3746C107.243 45.8625 107.48 45.3852 107.815 44.9792C108.087 44.6815 108.414 44.4404 108.779 44.2697C109.05 44.1361 109.339 44.0427 109.637 43.9926C109.82 43.9642 110.007 43.9642 110.191 43.9926C110.257 43.9993 110.323 44.0161 110.384 44.0425C110.135 44.0002 109.881 44.0002 109.631 44.0425C109.345 44.1043 109.068 44.2031 108.806 44.3362C108.458 44.5094 108.145 44.7485 107.887 45.0402C107.572 45.4346 107.351 45.8957 107.241 46.3883C107.131 46.881 107.134 47.3923 107.25 47.8836C107.385 48.4631 107.685 48.9909 108.114 49.4023C108.575 49.8459 109.15 50.1529 109.775 50.2891C110.398 50.4276 111.048 50.3754 111.641 50.1395C112.167 49.9274 112.635 49.5923 113.005 49.1622C113.375 48.7321 113.636 48.2195 113.768 47.6674C113.862 47.2074 113.852 46.7321 113.74 46.2762C113.57 45.6122 113.18 45.0258 112.633 44.6134C112.435 44.4629 112.228 44.3259 112.012 44.2032Z" fill="#E6E8F3"/>
<path d="M98.3037 38.7989C98.305 39.0484 98.4036 39.2876 98.5783 39.4656C98.753 39.6437 98.9902 39.7465 99.2395 39.7522C99.362 39.7605 99.4849 39.7441 99.601 39.7039C99.7171 39.6638 99.824 39.6008 99.9154 39.5187C100.007 39.4365 100.081 39.3369 100.133 39.2256C100.185 39.1144 100.215 38.9938 100.22 38.8709C100.218 38.6204 100.119 38.3804 99.943 38.2023C99.767 38.0241 99.5284 37.9219 99.2782 37.9176C99.156 37.9093 99.0333 37.9258 98.9175 37.966C98.8018 38.0061 98.6952 38.0692 98.6043 38.1514C98.5134 38.2337 98.4399 38.3333 98.3883 38.4446C98.3366 38.5558 98.3079 38.6763 98.3037 38.7989Z" fill="#161B46"/>
<path d="M88.7231 38.6941C88.7231 38.945 88.8219 39.1858 88.9981 39.3643C89.1744 39.5428 89.4138 39.6445 89.6644 39.6474C89.7867 39.6557 89.9094 39.6392 90.0251 39.599C90.1409 39.5589 90.2474 39.4958 90.3384 39.4136C90.4293 39.3313 90.5028 39.2316 90.5544 39.1204C90.6061 39.0092 90.6348 38.8887 90.639 38.7661C90.6376 38.5156 90.5383 38.2756 90.3624 38.0974C90.1865 37.9193 89.9479 37.8171 89.6977 37.8128C89.5754 37.8045 89.4527 37.821 89.337 37.8611C89.2212 37.9013 89.1147 37.9644 89.0238 38.0466C88.9328 38.1288 88.8594 38.2285 88.8077 38.3398C88.7561 38.451 88.7273 38.5715 88.7231 38.6941Z" fill="#161B46"/>
<path d="M87.3499 36.3326C87.4718 36.4989 88.3079 35.8559 89.432 35.9113C90.556 35.9668 91.3368 36.6707 91.4697 36.5155C91.5361 36.449 91.4198 36.1552 91.0821 35.8337C90.6413 35.4211 90.0679 35.1794 89.465 35.152C88.8622 35.1245 88.2693 35.3132 87.7929 35.6841C87.4275 35.9778 87.2946 36.255 87.3499 36.3326Z" fill="#161B46"/>
<path d="M97.0668 36.4436C97.2107 36.5932 98.0303 35.8893 99.2263 35.8228C100.422 35.7563 101.336 36.3771 101.441 36.1941C101.502 36.1221 101.347 35.8449 100.948 35.5678C100.42 35.2126 99.79 35.0394 99.1543 35.0745C98.5242 35.1071 97.9234 35.3511 97.4488 35.7674C97.1111 36.0888 96.9948 36.3771 97.0668 36.4436Z" fill="#161B46"/>
<path d="M86.6359 152.503C86.6359 152.581 86.2538 152.697 85.7555 152.764C85.2571 152.83 84.8474 152.814 84.8418 152.736C84.8363 152.658 85.2239 152.542 85.7223 152.476C86.2206 152.409 86.6359 152.426 86.6359 152.503Z" fill="#161B46"/>
<path d="M85.5275 151.317C85.5275 151.394 85.3004 151.511 84.9737 151.577C84.647 151.643 84.42 151.638 84.3812 151.577C84.3425 151.516 84.6027 151.383 84.935 151.311C85.2672 151.239 85.4942 151.245 85.5275 151.317Z" fill="#161B46"/>
<path d="M86.5362 149.937C86.0967 150.151 85.6182 150.274 85.1298 150.297C84.6577 150.417 84.1667 150.443 83.6845 150.375C84.5967 150.041 85.5661 149.893 86.5362 149.937Z" fill="#161B46"/>
<path d="M84.4214 149.199C84.4214 149.283 84.1777 149.36 83.8677 149.377C83.5576 149.393 83.3139 149.338 83.3139 149.26C83.3139 149.183 83.5631 149.105 83.8677 149.089C84.1722 149.072 84.4214 149.1 84.4214 149.199Z" fill="#161B46"/>
<path d="M84.0332 147.753C84.0332 147.83 83.8172 147.952 83.4795 147.969C83.1417 147.986 82.9258 147.902 82.9258 147.825C82.9258 147.747 83.1749 147.703 83.4795 147.681C83.784 147.659 84.0166 147.675 84.0332 147.753Z" fill="#161B46"/>
<path d="M84.2819 146.556C84.2819 146.633 83.9884 146.7 83.6285 146.7C83.2685 146.7 82.9751 146.633 82.9751 146.556C82.9751 146.478 83.2685 146.412 83.6285 146.412C83.9884 146.412 84.2819 146.473 84.2819 146.556Z" fill="#161B46"/>
<path d="M84.3876 145.009C84.3876 145.087 84.1107 145.142 83.784 145.131C83.4573 145.12 83.186 145.048 83.186 144.97C83.186 144.893 83.4629 144.832 83.7896 144.843C84.1163 144.854 84.3876 144.926 84.3876 145.009Z" fill="#161B46"/>
<path d="M85.7215 143.845C85.7215 143.928 85.201 143.956 84.5697 143.912C83.9385 143.867 83.429 143.768 83.4346 143.685C84.1985 143.549 84.984 143.605 85.7215 143.845Z" fill="#161B46"/>
<path d="M84.9745 142.41C84.9745 142.493 84.6976 142.526 84.3764 142.487C84.0553 142.449 83.8227 142.354 83.8227 142.277C83.8227 142.199 84.0996 142.161 84.4207 142.199C84.7419 142.238 84.9745 142.332 84.9745 142.41Z" fill="#161B46"/>
<path d="M85.6557 140.73C85.6557 140.808 85.3346 140.83 84.9691 140.786C84.6036 140.741 84.3046 140.63 84.3157 140.553C84.3268 140.475 84.6369 140.448 85.0023 140.498C85.3678 140.547 85.6668 140.653 85.6557 140.73Z" fill="#161B46"/>
<path d="M85.7269 139.344C85.7269 139.422 85.4667 139.45 85.1732 139.4C84.8797 139.35 84.6582 139.245 84.6693 139.167C84.6804 139.09 84.9296 139.062 85.223 139.112C85.5165 139.162 85.738 139.267 85.7269 139.344Z" fill="#161B46"/>
<path d="M85.9707 138.053C85.943 138.131 85.7437 138.125 85.5222 138.103C85.3007 138.081 85.1069 138.059 85.0903 137.981C85.0737 137.904 85.2785 137.793 85.5499 137.821C85.8212 137.848 85.9984 137.981 85.9707 138.053Z" fill="#161B46"/>
<path d="M87.743 136.906C87.3345 137.022 86.9053 137.047 86.4861 136.978C86.0602 136.995 85.6354 136.922 85.2402 136.762C86.0745 136.618 86.9307 136.667 87.743 136.906Z" fill="#161B46"/>
<path d="M86.7136 135.138C86.7136 135.221 86.4977 135.293 86.2208 135.298C85.9439 135.304 85.728 135.248 85.728 135.165C85.728 135.082 85.944 135.016 86.2153 135.01C86.4866 135.005 86.7081 135.06 86.7136 135.138Z" fill="#161B46"/>
<path d="M87.1891 133.647C87.1891 133.73 86.8846 133.785 86.5136 133.78C86.1426 133.774 85.8491 133.696 85.8491 133.619C85.8491 133.541 86.1536 133.481 86.5246 133.492C86.8956 133.503 87.1891 133.58 87.1891 133.647Z" fill="#161B46"/>
<path d="M86.4308 132.621C86.7029 132.621 86.9236 132.557 86.9236 132.477C86.9236 132.397 86.7029 132.333 86.4308 132.333C86.1586 132.333 85.938 132.397 85.938 132.477C85.938 132.557 86.1586 132.621 86.4308 132.621Z" fill="#161B46"/>
<path d="M87.1343 130.997C87.1343 131.08 86.8851 131.141 86.5805 131.141C86.276 131.141 86.0268 131.08 86.0268 130.997C86.0268 130.914 86.2815 130.853 86.5805 130.853C86.8796 130.853 87.1343 130.919 87.1343 130.997Z" fill="#161B46"/>
<path d="M87.134 129.656C87.134 129.739 86.8682 129.8 86.536 129.8C86.2037 129.8 85.938 129.739 85.938 129.656C85.938 129.573 86.2037 129.512 86.536 129.512C86.8682 129.512 87.134 129.579 87.134 129.656Z" fill="#161B46"/>
<path d="M88.0758 127.483C88.0758 127.566 87.6162 127.61 87.0625 127.716C86.5088 127.821 85.9994 127.716 86.0049 127.66C86.0104 127.605 86.4645 127.533 87.0182 127.428C87.3664 127.322 87.7405 127.342 88.0758 127.483Z" fill="#161B46"/>
<path d="M87.1338 125.92C87.1338 125.998 86.9345 126.064 86.6964 126.064C86.4583 126.064 86.2534 125.998 86.2534 125.92C86.2534 125.843 86.4527 125.776 86.6964 125.776C86.94 125.776 87.1338 125.82 87.1338 125.92Z" fill="#161B46"/>
<path d="M87.1014 124.434C87.1014 124.518 86.9242 124.578 86.7137 124.578C86.5033 124.578 86.3261 124.518 86.3261 124.434C86.3261 124.351 86.4978 124.29 86.7137 124.29C86.9297 124.29 87.1014 124.357 87.1014 124.434Z" fill="#161B46"/>
<path d="M86.7623 123.027C87.0069 123.027 87.2053 122.962 87.2053 122.883C87.2053 122.803 87.0069 122.739 86.7623 122.739C86.5176 122.739 86.3193 122.803 86.3193 122.883C86.3193 122.962 86.5176 123.027 86.7623 123.027Z" fill="#161B46"/>
<path d="M86.9949 121.436C86.9949 121.519 86.8177 121.585 86.6073 121.585C86.3969 121.585 86.2197 121.519 86.2197 121.436C86.2197 121.353 86.3913 121.292 86.6073 121.292C86.8233 121.292 86.9949 121.386 86.9949 121.436Z" fill="#161B46"/>
<path d="M88.2242 120.1C88.2242 120.1 88.1578 120.15 88.0415 120.167H87.9916V120.006H88.0249H88.1412H88.4236V120.25C88.2021 120.25 87.9307 120.25 87.6428 120.25C87.1471 120.295 86.6473 120.246 86.1699 120.106C86.6467 119.962 87.1471 119.913 87.6428 119.962C87.9307 119.962 88.1965 119.962 88.4236 119.962V120.205H88.1412H88.0249H87.9916V120.045H88.0636C88.1578 120.05 88.2297 120.072 88.2242 120.1Z" fill="#161B46"/>
<path d="M86.7633 118.797C87.0538 118.797 87.2893 118.733 87.2893 118.653C87.2893 118.574 87.0538 118.509 86.7633 118.509C86.4728 118.509 86.2373 118.574 86.2373 118.653C86.2373 118.733 86.4728 118.797 86.7633 118.797Z" fill="#161B46"/>
<path d="M87.3335 116.802C87.3335 116.88 87.0954 116.946 86.7798 116.946C86.4641 116.946 86.226 116.88 86.226 116.802C86.226 116.724 86.4586 116.658 86.7798 116.658C87.1009 116.658 87.3335 116.719 87.3335 116.802Z" fill="#161B46"/>
<path d="M87.4048 115.195C87.4048 115.278 87.1501 115.328 86.8511 115.311C86.552 115.295 86.2973 115.217 86.2973 115.14C86.2973 115.062 86.552 115.007 86.8511 115.023C87.1501 115.04 87.4103 115.118 87.4048 115.195Z" fill="#161B46"/>
<path d="M82.7146 58.5149C82.1442 56.985 81.8553 55.3644 81.8619 53.7315C81.8701 52.9149 82.0644 52.111 82.43 51.381C82.7956 50.651 83.3229 50.0141 83.9716 49.519C85.0526 48.8956 86.2736 48.5562 87.521 48.5324C89.0659 48.3993 90.7769 48.4104 91.9508 49.4137C92.8534 50.1786 93.2631 51.3703 93.5677 52.5121C93.9664 53.9975 94.2543 55.5938 93.7781 57.0516C93.0582 59.241 90.6827 60.5989 88.3792 60.6211C86.287 60.6766 84.254 59.9222 82.7036 58.5149" fill="#E74C3C"/>
<g opacity="0.3">
<path opacity="0.3" d="M91.3414 49.5187C90.6502 49.0325 89.8055 48.8157 88.9659 48.909C88.9036 48.9135 88.8436 48.9341 88.7916 48.9689C88.7397 49.0036 88.6977 49.0513 88.6698 49.1072C88.6419 49.1631 88.629 49.2254 88.6323 49.2878C88.6357 49.3502 88.6552 49.4107 88.689 49.4633L88.7223 49.5021C88.8017 49.5731 88.8946 49.6274 88.9954 49.6617C89.0963 49.696 89.203 49.7096 89.3092 49.7016C89.5213 49.6905 89.7339 49.6905 89.946 49.7016C90.1926 49.7355 90.4278 49.8268 90.6327 49.9684C90.8375 50.1099 91.0063 50.2976 91.1254 50.5164C91.3619 50.9529 91.5335 51.4216 91.6349 51.9076C91.6628 52.0522 91.7193 52.1898 91.801 52.3122C91.8423 52.3721 91.8993 52.4193 91.9658 52.4486C92.0322 52.478 92.1055 52.4883 92.1775 52.4785C92.3879 52.4397 92.4821 52.1903 92.5097 51.9741C92.5507 51.4978 92.464 51.0192 92.2587 50.5876C92.0533 50.156 91.7367 49.787 91.3414 49.5187Z" fill="white"/>
</g>
<g opacity="0.3">
<path opacity="0.3" d="M83.9048 50.6055C84.0377 50.4503 84.3201 50.6055 84.3478 50.7995C84.3486 51.004 84.2736 51.2015 84.1374 51.3538C83.8177 51.7301 83.6241 52.1973 83.5836 52.6896C83.5836 53.1829 84.0875 53.6873 84.5471 53.5099C84.907 53.3713 85.0344 52.9556 85.1728 52.5898C85.3621 52.1019 85.6528 51.6598 86.0256 51.2928C86.1743 51.1262 86.3658 51.0035 86.5793 50.9381C86.6861 50.9113 86.7985 50.9171 86.9021 50.9546C87.0057 50.9921 87.0957 51.0597 87.1607 51.1487C87.2049 51.2634 87.2214 51.387 87.2089 51.5093C87.1963 51.6316 87.1552 51.7492 87.0887 51.8526C86.8255 52.285 86.6382 52.7593 86.535 53.2549C86.4929 53.5036 86.5443 53.759 86.6792 53.9719C86.8142 54.1848 87.0232 54.3401 87.2659 54.4078C87.4146 54.4175 87.5635 54.3924 87.7009 54.3347C87.8383 54.277 87.9604 54.1882 88.0577 54.0753C88.2493 53.8504 88.4095 53.6005 88.5339 53.3325C88.9665 52.542 89.4806 51.7989 90.0678 51.1154C90.256 50.8882 90.5495 50.6498 90.8153 50.7773C91.0811 50.9048 91.0645 51.2374 91.0312 51.509C90.9379 52.2679 90.7519 53.0125 90.4775 53.7261C90.2061 54.2531 90.0459 54.8305 90.0068 55.4222C90.0068 56.0097 90.4941 56.6416 91.0811 56.5861C91.4234 56.4963 91.7463 56.3441 92.0335 56.1372C92.3436 55.9709 92.8032 55.9376 92.9859 56.2425C93.0537 56.3797 93.0788 56.5342 93.0579 56.6859C93.0032 57.1962 92.8313 57.6869 92.5556 58.1196C92.2799 58.5524 91.9079 58.9153 91.4687 59.1801C90.5775 59.7019 89.5452 59.9306 88.5173 59.8342C87.4943 59.7351 86.493 59.477 85.5493 59.0693C84.4426 58.7183 83.4741 58.0281 82.7807 57.0961C82.011 55.8711 82.1605 54.2693 82.6146 52.8947" fill="#2D3259"/>
</g>
<path d="M84.8694 65.8921C84.8694 65.8921 80.9933 61.1697 80.9933 60.5045C80.9933 59.8394 80.1074 54.5073 80.1074 54.5073L81.7686 50.9544L84.3157 50.2338C84.3849 50.3122 84.4348 50.4056 84.4614 50.5067C84.4881 50.6078 84.4908 50.7137 84.4693 50.8161C84.4477 50.9184 84.4026 51.0143 84.3375 51.096C84.2724 51.1778 84.1891 51.2431 84.0942 51.2869C83.7066 51.5159 83.3525 51.7976 83.0421 52.1239L82.4884 53.953L83.2083 57.2288L83.1529 53.5096L85.3179 50.2338C85.3179 50.2338 86.37 49.7904 86.8684 50.5109C87.3667 51.2315 86.5362 52.2347 86.5362 52.2347L85.7609 54.0084C85.7609 54.0084 86.2039 58.038 86.2593 57.9937C86.3147 57.9493 87.256 53.6759 87.256 53.6759L89.8087 49.5133C89.9423 49.4928 90.0789 49.5021 90.2085 49.5405C90.3382 49.5789 90.4578 49.6455 90.5588 49.7355C90.6598 49.8255 90.7397 49.9367 90.7929 50.0611C90.846 50.1856 90.8711 50.3202 90.8663 50.4555C90.8663 51.5086 89.5872 53.953 89.5872 53.953L88.9781 58.4537H89.6979L91.1985 56.5082L93.9118 53.3433C94.0346 53.3579 94.1522 53.4015 94.2549 53.4704C94.3576 53.5394 94.4425 53.6319 94.5025 53.7401C94.5625 53.8484 94.596 53.9694 94.6001 54.0931C94.6043 54.2168 94.579 54.3398 94.5264 54.4518C94.2496 55.4551 91.7578 59.8948 91.7578 59.8948C91.7578 59.8948 93.0314 64.6173 92.8652 66.7789L92.6991 68.9461L84.8694 65.8921Z" fill="#A2675F"/>
<path d="M84.2099 64.0579C84.2099 64.0579 79.2818 64.0579 77.6261 72.1835C74.9904 85.1259 81.3195 95.4631 83.922 98.0571C83.922 98.0571 87.7316 104.215 93.5513 102.53C99.3709 100.845 96.4583 90.2696 96.4583 90.2696L92.3275 65.8814L84.2099 64.0579Z" fill="#A2675F"/>
<path d="M81.5034 61.5246C81.5988 61.6087 81.6843 61.7036 81.7581 61.8073L82.4503 62.6664L84.9531 65.8535C85.2731 67.639 85.4362 69.4492 85.4404 71.2632C85.4318 72.3276 85.3541 73.3904 85.2078 74.4447C85.0454 75.5639 84.8254 76.6739 84.5489 77.7704C83.9952 80.1316 83.3085 82.3376 82.788 84.3663C82.5069 85.3145 82.2832 86.2788 82.118 87.254C81.977 88.097 81.962 88.9563 82.0737 89.8037C82.229 90.4928 82.4306 91.1705 82.6773 91.8324C82.8475 92.3416 83.0453 92.8412 83.2698 93.3289C83.4149 93.6346 83.5853 93.9275 83.7792 94.2047C83.8543 94.2951 83.9245 94.3895 83.9896 94.4873C83.9896 94.4873 83.9619 94.4873 83.9176 94.4319C83.8502 94.3737 83.789 94.3087 83.7349 94.2379C83.5201 93.9723 83.3344 93.6842 83.1812 93.3788C82.9334 92.8963 82.717 92.3982 82.5333 91.8878C82.2687 91.2206 82.0522 90.5352 81.8855 89.837C81.592 88.2296 81.9851 86.3062 82.5389 84.2942C83.0926 82.2822 83.7072 80.0429 84.2831 77.6983C84.5544 76.5898 84.787 75.4812 84.942 74.3727C85.0873 73.3293 85.1668 72.2778 85.1801 71.2244C85.1888 69.4255 85.048 67.629 84.7593 65.8535V65.8978L82.334 62.6553C82.0627 62.2895 81.8522 61.9902 81.6861 61.7629C81.6173 61.6898 81.5561 61.61 81.5034 61.5246Z" fill="#6F4C47"/>
<path d="M89.6806 58.1989C89.7554 58.0678 89.8466 57.9467 89.952 57.8386L90.7715 56.8576L93.828 53.2825V53.2492H93.8668C94.0258 53.2364 94.1852 53.2691 94.3264 53.3434C94.471 53.4282 94.578 53.565 94.6254 53.7259C94.6992 54.0325 94.674 54.3546 94.5534 54.646C94.3325 55.2278 94.0773 55.796 93.7893 56.3476C93.2356 57.5005 92.5545 58.7088 91.8346 59.9726V59.8617C91.89 59.9781 91.9564 60.1001 92.0229 60.2275V60.2608V60.6266C92.3607 62.4336 92.6597 64.4068 92.9587 66.4465L94.9798 80.9796C95.2511 82.8143 95.4726 84.3053 95.6332 85.3806C95.7052 85.8739 95.7661 86.273 95.8159 86.5723C95.8441 86.7109 95.8589 86.852 95.8602 86.9935C95.813 86.8602 95.7778 86.7229 95.755 86.5833C95.6996 86.284 95.6166 85.8905 95.5224 85.3972C95.3286 84.3662 95.0684 82.8642 94.7805 81.0129C94.1935 77.2992 93.4903 72.1445 92.6763 66.4853C92.3773 64.4511 92.0783 62.4834 91.7516 60.6765C91.7516 60.5546 91.7516 60.4326 91.7516 60.3218V60.3827L91.5688 60.0114L91.5356 59.9449L91.5688 59.8839C92.2942 58.6257 92.9642 57.4174 93.5456 56.2811C93.8313 55.7416 94.0865 55.1865 94.3098 54.6183C94.416 54.3741 94.4431 54.1027 94.3873 53.8423C94.3532 53.7346 94.2824 53.6423 94.1873 53.5816C94.0922 53.5208 93.9787 53.4954 93.8668 53.5097L93.9332 53.4709L90.7992 56.9906L89.9409 57.9328C89.8597 58.0268 89.7728 58.1156 89.6806 58.1989Z" fill="#6F4C47"/>
<path d="M91.1267 44.1091C90.3868 44.3761 89.6777 44.7217 89.0115 45.1401C88.3444 45.5633 87.8272 46.1857 87.533 46.9193C87.2975 47.6429 87.3171 48.4255 87.5884 49.1364C88.7059 48.7895 89.7087 48.1459 90.4899 47.2741C90.8558 46.8441 91.1063 46.3279 91.2177 45.7741C91.3291 45.2204 91.2978 44.6474 91.1267 44.1091Z" fill="#737690"/>
<path d="M84.8579 45.6664C84.8579 45.6331 85.1347 45.6664 85.5334 45.8493C86.0458 46.1024 86.4944 46.4681 86.8458 46.9191C87.2018 47.3678 87.4483 47.8935 87.5656 48.4544C87.6305 48.6827 87.6305 48.9245 87.5656 49.1528C87.3687 48.4266 87.0544 47.7376 86.6353 47.113C86.1288 46.5338 85.5278 46.0446 84.8579 45.6664Z" fill="#161B46"/>
<path d="M90.7664 45.0349C90.8218 45.0958 89.9691 45.8885 89.1053 47.0025C88.2414 48.1166 87.6434 49.1254 87.5659 49.0811C87.8502 48.2497 88.2962 47.483 88.8782 46.8252C89.3813 46.1077 90.0234 45.4988 90.7664 45.0349Z" fill="#161B46"/>
<path d="M86.58 48.8704C86.58 48.9535 85.9598 48.9923 85.2676 49.2584C84.5755 49.5244 84.0771 49.9013 84.0218 49.8126C83.9664 49.724 84.4038 49.2584 85.1624 48.9701C85.6045 48.7557 86.1122 48.7199 86.58 48.8704Z" fill="white"/>
<path d="M114.2 107.185C114.2 107.185 113.646 105.711 114.87 105.589C115.391 105.545 116.16 105.539 116.875 105.55C117.408 105.559 117.926 105.735 118.355 106.053C118.784 106.371 119.103 106.815 119.267 107.324L119.776 108.926L121.471 110.622H123.342L126.266 116.846C126.266 116.846 123.752 118.969 122.29 118.276C120.828 117.583 120.596 117.722 120.596 117.722C120.596 117.722 114.809 121.114 114.4 120.937C113.99 120.759 113.292 120.139 114.4 119.185C115.507 118.232 119.383 115.555 119.383 115.555L112.024 118.298C112.024 118.298 110.795 118.01 111.498 117.079C112.201 116.148 118.392 113.255 118.392 113.255L117.927 112.75C117.927 112.75 111.963 114.967 111.553 114.679C111.144 114.391 110.186 113.803 111.282 113.016C112.378 112.229 117.75 110.09 117.75 110.09L116.93 108.161L116.111 107.751C116.111 107.751 114.372 107.717 114.2 107.185Z" fill="#A2675F"/>
<path d="M125.208 112.884C124.969 112.413 124.688 111.966 124.366 111.548C123.976 111.191 123.554 110.872 123.104 110.594C123.669 110.665 124.19 110.934 124.575 111.353C124.961 111.772 125.185 112.314 125.208 112.884Z" fill="#6F4C47"/>
<path d="M120.412 111.116C120.025 110.787 119.595 110.512 119.133 110.301C118.643 110.179 118.138 110.123 117.633 110.135C117.633 110.101 117.777 110.002 118.07 109.941C118.459 109.866 118.86 109.896 119.233 110.029C119.605 110.158 119.935 110.384 120.191 110.683C120.363 110.916 120.412 111.093 120.412 111.116Z" fill="#6F4C47"/>
<path d="M120.474 113.349C120.43 113.421 119.965 113.144 119.334 113.171C118.702 113.199 118.226 113.498 118.199 113.432C118.171 113.365 118.575 112.878 119.306 112.878C120.037 112.878 120.541 113.299 120.474 113.349Z" fill="#6F4C47"/>
<path d="M121.52 115.433C121.492 115.511 120.939 115.389 120.263 115.489C119.587 115.588 119.089 115.854 119.045 115.782C119.001 115.71 119.471 115.306 120.224 115.228C120.442 115.169 120.671 115.157 120.894 115.192C121.117 115.227 121.331 115.309 121.52 115.433Z" fill="#6F4C47"/>
<path d="M201.662 15.2685L202.416 13.5827L203.427 15.1202C204.235 16.3568 205.381 17.3352 206.728 17.939L208.412 18.6943L206.876 19.7058C205.637 20.5105 204.659 21.6585 204.06 23.0101L203.306 24.696L202.295 23.1585C201.485 21.9183 200.334 20.9393 198.981 20.3397L197.31 19.5844L198.846 18.5729C200.081 17.7641 201.059 16.6172 201.662 15.2685Z" fill="#E6E8F3"/>
<path d="M182.152 2.24512L183.157 0L184.502 2.06551C185.584 3.70773 187.108 5.00935 188.899 5.81934L191.141 6.80719L189.078 8.15426C187.44 9.24731 186.141 10.778 185.328 12.5727L184.323 14.8178L182.977 12.7523C181.896 11.11 180.372 9.80841 178.581 8.99843L176.338 7.99261L178.402 6.64554C180.042 5.56322 181.343 4.03739 182.152 2.24512Z" fill="#E6E8F3"/>
<path d="M185.416 29.5193L185.914 28.4004L186.592 29.4286C187.131 30.2528 187.895 30.9038 188.793 31.3035L189.908 31.8025L188.883 32.4829C188.061 33.0226 187.412 33.7892 187.014 34.6904L186.501 35.8093L185.838 34.7811C185.292 33.9636 184.53 33.3145 183.637 32.9063L182.507 32.4073L183.532 31.7269C184.358 31.1875 185.012 30.4212 185.416 29.5193Z" fill="#E6E8F3"/>
</svg>
