<svg width="83" height="84" viewBox="0 0 83 84" fill="none" xmlns="http://www.w3.org/2000/svg">
<path d="M41.5264 1.55953C41.5264 1.55953 31.4119 11.5727 28.3369 21.5397C25.262 31.5068 23.086 34.4757 23.086 34.4757L36.5337 26.5325L43.3751 8.73286L59.5842 10.7844L61.1194 6.04056C61.1194 6.04056 44.0896 1.1769 41.5264 1.55953Z" fill="#B78876"/>
<path d="M59.5842 10.7841L61.4928 11.5494L65.7479 15.9843L70.796 18.4876C70.796 18.4876 71.4737 18.3447 70.9712 17.6301C70.4687 16.9156 69.7587 15.6293 69.7587 15.6293L73.6404 15.7215C73.6404 15.7215 73.9493 14.9378 72.6723 14.6197C72.2303 14.506 71.7997 14.3517 71.3861 14.1587L68.6938 11.5125C68.6938 11.5125 66.3242 8.69573 65.5359 8.23011C64.7475 7.76449 61.1378 6.04492 61.1378 6.04492L59.5842 10.7841Z" fill="#B78876"/>
<path d="M65.4299 14.0161C65.6241 14.025 65.8157 14.0655 65.9969 14.136C66.4992 14.3035 66.9917 14.4989 67.4721 14.7215L68.4633 15.1825C68.6335 15.2664 68.813 15.3298 68.9981 15.3715C69.0896 15.3749 69.1805 15.3541 69.2614 15.3112C69.3423 15.2683 69.4105 15.2048 69.4591 15.1272C69.572 14.9536 69.6321 14.751 69.6321 14.544C69.6321 14.337 69.572 14.1344 69.4591 13.9608C69.1307 13.6157 68.7354 13.3412 68.2974 13.154C67.7446 12.8862 67.1748 12.6552 66.5916 12.4625H66.5501V12.4257L65.9554 11.4437C65.7689 11.1559 65.5526 10.8885 65.31 10.6461C64.8907 10.2454 64.4266 9.89428 63.927 9.59966C63.0925 9.10176 62.5439 8.8943 62.5439 8.85742C62.6803 8.88425 62.8132 8.926 62.9404 8.9819C63.3007 9.12093 63.6504 9.28579 63.9869 9.47519C64.5047 9.75848 64.9862 10.1037 65.4207 10.5032C65.6802 10.7513 65.9107 11.0282 66.1076 11.3284C66.3058 11.6419 66.504 11.9692 66.7161 12.3058L66.6516 12.2551C67.2458 12.4479 67.8265 12.6805 68.3896 12.9512C68.8629 13.1542 69.2885 13.4542 69.6389 13.8317C69.7822 14.0442 69.8587 14.2946 69.8587 14.5509C69.8587 14.8072 69.7822 15.0576 69.6389 15.2701C69.5689 15.3748 69.4733 15.4599 69.3611 15.5172C69.2489 15.5745 69.124 15.6021 68.9981 15.5974C68.7881 15.5522 68.585 15.4793 68.3942 15.3807L67.4122 14.9197C66.8129 14.6247 66.3289 14.4034 65.9831 14.2651C65.7935 14.194 65.6088 14.1109 65.4299 14.0161Z" fill="#995037"/>
<path d="M45.6249 32.9358C45.6249 32.9358 47.9299 32.7238 49.5342 33.8025C51.1385 34.8813 60.6999 41.4138 63.2216 41.8564C64.6013 42.1369 66.0233 42.1369 67.403 41.8564L72.2298 27.0303L76.4757 28.4732C76.4757 28.4732 74.6777 45.6182 72.5156 47.4162C70.3535 49.2141 65.8863 50.2283 62.0691 49.9379C58.2519 49.6475 48.8888 43.7419 48.8888 43.7419L43.3567 45.1249V36.8267L45.6249 32.9358Z" fill="#B78876"/>
<path d="M70.4917 16.8879C70.4917 16.8879 70.2704 15.8414 70.9527 15.6616C71.1279 15.6029 71.3155 15.5921 71.4962 15.6302C71.6769 15.6683 71.8442 15.7539 71.9808 15.8783C71.9808 15.8783 73.101 14.8272 73.6404 15.7354C73.964 16.3393 74.0929 17.0285 74.0092 17.7085C74.0092 17.7085 75.3093 17.3074 75.4752 18.2064C75.6412 19.1054 75.4752 19.2713 75.4752 19.2713C75.4752 19.2713 76.5724 19.5064 76.7707 19.8384C77.018 20.4225 77.2289 21.0215 77.4023 21.6317C77.4023 21.6317 77.37 24.8588 77.4023 25.4258C77.4345 25.9929 76.4802 28.4731 76.4802 28.4731L72.2343 27.0301C72.2343 27.0301 71.5336 24.3286 71.4691 24.2272C71.4045 24.1258 70.4502 20.9033 70.464 20.8019C70.4779 20.7005 70.6392 18.1741 70.6392 18.1741L70.4917 16.8879Z" fill="#B78876"/>
<path d="M70.4595 20.7926C70.4308 20.4952 70.4308 20.1957 70.4595 19.8983C70.4595 19.594 70.4872 19.2528 70.5056 18.8748C70.5056 18.6766 70.5056 18.4691 70.5333 18.2478C70.533 18.1838 70.5423 18.1201 70.5609 18.0588C70.5838 17.9943 70.6164 17.9336 70.6577 17.879C70.7358 17.7763 70.8291 17.6862 70.9343 17.6116C71.1727 17.5067 71.4407 17.4904 71.6901 17.5656C71.9395 17.6408 72.1537 17.8027 72.2943 18.0219C72.5762 18.4773 72.7555 18.9886 72.8199 19.5202C72.8844 19.935 72.9137 20.3545 72.9075 20.7742C72.903 20.9533 72.9476 21.1303 73.0365 21.2859C73.1346 21.4377 73.2507 21.577 73.3823 21.7008C73.858 22.1719 74.2274 22.7394 74.4657 23.365C74.6267 23.7845 74.7231 24.2259 74.7515 24.6743C74.7712 24.8374 74.7634 25.0025 74.7284 25.163C74.6635 24.5696 74.5225 23.987 74.3089 23.4296C74.0595 22.8368 73.6907 22.3017 73.2256 21.8575C73.0761 21.7222 72.9458 21.5671 72.8383 21.3965C72.7301 21.2086 72.6729 20.9956 72.6723 20.7788C72.676 20.3682 72.6452 19.9579 72.5801 19.5525C72.5238 19.0646 72.3668 18.5936 72.1191 18.1695C72.0104 17.9933 71.8437 17.8605 71.6476 17.794C71.4515 17.7275 71.2384 17.7315 71.045 17.8053C70.8698 17.9436 70.7038 18.0911 70.7177 18.2663L70.6669 18.8933C70.6347 19.2667 70.6024 19.6078 70.5747 19.9121C70.5609 20.2083 70.5224 20.5028 70.4595 20.7926Z" fill="#995037"/>
<path d="M75.148 19.4695C75.1459 19.7202 75.0758 19.9656 74.9451 20.1795C74.8196 20.4233 74.6648 20.6509 74.4841 20.8572C74.3691 21.004 74.2057 21.1053 74.0231 21.143C73.9659 21.151 73.9076 21.1469 73.852 21.131C73.7964 21.1151 73.7448 21.0878 73.7004 21.0508C73.6193 20.9797 73.5601 20.887 73.5298 20.7834C73.4257 20.1939 73.4179 19.5913 73.5068 18.9993C73.5185 18.7528 73.5846 18.5119 73.7004 18.2939C73.7188 18.5353 73.7111 18.778 73.6773 19.0177C73.6424 19.583 73.6702 20.1505 73.7603 20.7097C73.8018 20.8526 73.8894 20.9217 73.9908 20.9079C74.1152 20.8745 74.2262 20.8037 74.3089 20.705C74.4822 20.5178 74.6366 20.314 74.7699 20.0965C74.8826 19.8797 75.0089 19.6703 75.148 19.4695Z" fill="#995037"/>
<path d="M76.4803 20.3317C76.4061 20.5666 76.2939 20.7877 76.1483 20.9864C76.01 21.2077 75.8671 21.4474 75.7288 21.6595C75.6435 21.8043 75.538 21.9363 75.4153 22.0513C75.3366 22.124 75.238 22.1717 75.132 22.1881C75.0261 22.2045 74.9177 22.189 74.8206 22.1435C74.7328 22.0893 74.6591 22.0151 74.6054 21.927C74.5517 21.8389 74.5196 21.7393 74.5118 21.6364C74.493 21.4725 74.493 21.307 74.5118 21.1431C74.5418 20.8711 74.6133 20.6052 74.7238 20.3548C74.9128 19.9307 75.1249 19.7278 75.1479 19.7463C75.171 19.7647 75.0189 19.9998 74.8806 20.4193C74.8001 20.6613 74.749 20.912 74.7284 21.1662C74.7284 21.4428 74.6915 21.8116 74.9174 21.9315C74.9737 21.9545 75.0356 21.9607 75.0953 21.9492C75.1551 21.9378 75.2102 21.9092 75.254 21.8669C75.3614 21.7699 75.4545 21.6581 75.5306 21.535L75.9916 20.8942C76.2728 20.5069 76.4526 20.2903 76.4803 20.3317Z" fill="#995037"/>
<path d="M72.3588 18.2341C72.3312 18.2941 71.8517 17.9944 71.6811 17.3582C71.6092 17.1791 71.5846 16.9846 71.6097 16.7932C71.6347 16.6019 71.7085 16.4202 71.8241 16.2656C71.8255 16.6116 71.8548 16.957 71.9117 17.2983C72.0546 17.8469 72.4049 18.1788 72.3588 18.2341Z" fill="#995037"/>
<path d="M49.8108 39.1131C49.8108 39.1593 49.3498 39.1869 48.6352 39.3759C47.7032 39.6242 46.826 40.0448 46.0489 40.616C45.2747 41.1923 44.6136 41.9065 44.0989 42.7229C43.707 43.3545 43.5456 43.7924 43.5042 43.774C43.5111 43.6641 43.5376 43.5564 43.5825 43.4559C43.6811 43.1735 43.8046 42.9005 43.9513 42.6399C44.4415 41.7771 45.1085 41.0275 45.9085 40.4404C46.7085 39.8533 47.6236 39.4419 48.5937 39.233C48.8859 39.1669 49.184 39.1299 49.4835 39.1224C49.5913 39.1015 49.7019 39.0984 49.8108 39.1131Z" fill="#995037"/>
<path d="M70.962 17.8516C70.6539 17.4573 70.3896 17.0306 70.1736 16.5792C69.8979 16.1665 69.669 15.7242 69.4913 15.2607C70.2038 15.9808 70.7169 16.8736 70.9804 17.8516H70.962Z" fill="#995037"/>
<path d="M73.9309 17.7411C73.8535 17.4662 73.798 17.1857 73.7649 16.9021C73.7037 16.6098 73.5794 16.3345 73.4007 16.0953C73.3029 15.9533 73.1699 15.8392 73.0148 15.764C72.8596 15.6889 72.6876 15.6553 72.5156 15.6666C72.3988 15.6733 72.2855 15.7089 72.1858 15.77C72.0861 15.8311 72.003 15.916 71.9439 16.0169L71.8563 16.1829L71.7457 16.0354C71.6697 15.9387 71.5697 15.8636 71.4556 15.8175C71.3416 15.7714 71.2175 15.7559 71.0957 15.7726C71.0006 15.7897 70.9103 15.8269 70.8308 15.8818C70.7513 15.9366 70.6844 16.0079 70.6347 16.0907C70.545 16.2599 70.4961 16.4478 70.4918 16.6393C70.4918 16.6393 70.3304 16.4088 70.4918 16.0215C70.5442 15.9044 70.6239 15.8014 70.7241 15.7213C70.8243 15.6411 70.9422 15.586 71.068 15.5605C71.2277 15.5327 71.3919 15.5474 71.544 15.6033C71.6962 15.6591 71.831 15.7541 71.9347 15.8786H71.7411C71.8148 15.7393 71.9231 15.6213 72.0554 15.5357C72.1878 15.4502 72.3399 15.4 72.4971 15.3899C72.7088 15.3756 72.9206 15.4176 73.1108 15.5115C73.3011 15.6054 73.4631 15.748 73.5805 15.9247C73.7741 16.1976 73.8961 16.5146 73.9355 16.8467C73.9989 17.1417 73.9973 17.4468 73.9309 17.7411Z" fill="#995037"/>
<path d="M68.325 50.9842C68.2835 50.9842 66.9696 47.7064 66.9696 47.7064C66.9696 47.7064 64.305 47.4897 63.8716 45.4013C63.4383 43.313 64.0145 43.0963 64.7936 40.4316C65.5728 37.767 65.0841 35.3144 65.5128 33.6594C65.9416 32.0044 68.4679 29.6256 69.2608 30.5614C70.0538 31.4973 68.9704 32.0735 69.2608 33.4427C69.5513 34.8119 70.4134 39.9245 70.9896 41.9991C71.5659 44.0736 73.3177 49.3245 73.3177 49.3245L68.325 50.9842Z" fill="#B78876"/>
<path d="M68.325 50.9842C68.3501 50.9658 68.3782 50.9518 68.408 50.9427L68.6569 50.8505L69.6251 50.5094L73.3132 49.2508L73.2671 49.343C72.9213 48.2735 72.5248 47.038 72.0915 45.701C71.8702 45.028 71.6305 44.318 71.4046 43.5758C71.1787 42.8336 70.8929 42.0775 70.7084 41.2707C70.3258 39.6388 70.0031 37.8869 69.6619 36.0521C69.4914 35.1301 69.3162 34.2081 69.1364 33.2399C69.1077 32.7342 69.1928 32.2286 69.3853 31.7601C69.4646 31.5465 69.4837 31.3153 69.4407 31.0916C69.413 30.9842 69.3661 30.8827 69.3024 30.792C69.2501 30.6973 69.1757 30.6167 69.0857 30.5568C68.9732 30.5073 68.851 30.4836 68.7281 30.4876C68.6052 30.4916 68.4848 30.5231 68.3757 30.5799C68.1255 30.686 67.89 30.8239 67.675 30.9902C67.2416 31.3199 66.8527 31.7042 66.5178 32.1335C66.1795 32.548 65.9117 33.0152 65.7249 33.5165C65.5765 34.0138 65.4943 34.5284 65.4806 35.0471C65.4299 36.0844 65.4529 37.1124 65.3607 38.099C65.2853 39.0573 65.0949 40.003 64.7937 40.9158C64.5263 41.7917 64.1483 42.6031 63.9362 43.3868C63.7759 44.1523 63.8156 44.9462 64.0515 45.6918C64.2741 46.3349 64.7389 46.8658 65.3469 47.1717C65.8596 47.4422 66.4173 47.6172 66.9927 47.688H67.0296V47.7203C67.8087 49.6934 68.1775 50.6385 68.3296 51.0211C68.17 50.7585 68.0371 50.4805 67.9332 50.1913C67.6934 49.6427 67.3477 48.8083 66.9143 47.7664L66.9696 47.8033C66.3743 47.7425 65.7957 47.5704 65.2639 47.2961C64.6183 46.9779 64.1222 46.4206 63.8809 45.7425C63.7707 45.368 63.6981 44.9835 63.6642 44.5946C63.6232 44.1795 63.6513 43.7605 63.7472 43.3545C63.9639 42.5293 64.3281 41.7364 64.5908 40.8604C64.8809 39.963 65.065 39.0346 65.1394 38.0944C65.2224 37.117 65.1994 36.1028 65.2455 35.0517C65.2583 34.5099 65.342 33.9721 65.4944 33.452C65.6931 32.9306 65.9749 32.4449 66.3288 32.0136C66.6751 31.5668 67.078 31.167 67.5275 30.8242C67.758 30.6464 68.0106 30.4992 68.2789 30.3863C68.4225 30.3162 68.5802 30.2798 68.7399 30.2798C68.8997 30.2798 69.0574 30.3162 69.2009 30.3863C69.3207 30.4665 69.4214 30.5719 69.496 30.6952C69.5721 30.8099 69.6297 30.9359 69.6666 31.0686C69.717 31.3335 69.6963 31.6071 69.6066 31.8615C69.4247 32.2989 69.3428 32.7714 69.3669 33.2445C69.5421 34.1942 69.7127 35.1301 69.8832 36.0429C70.2198 37.8869 70.5333 39.6295 70.9113 41.2523C71.0865 42.0637 71.3723 42.8243 71.589 43.5573C71.8056 44.2904 72.05 45.0095 72.2574 45.6872C72.6816 47.038 73.0642 48.2643 73.3961 49.3338L73.4192 49.403H73.35L69.6619 50.597L68.68 50.9059L68.4264 50.9796L68.325 50.9842Z" fill="#995037"/>
<path d="M52.5308 0.508348C51.538 -0.00312693 50.3925 -0.13406 49.31 0.140192C48.2274 0.414445 47.2824 1.07497 46.6529 1.99742C46.24 2.64939 46.0143 3.40233 46.0005 4.17392C45.9867 4.94551 46.1853 5.70606 46.5745 6.3724C46.8436 6.79599 47.1948 7.16145 47.6072 7.44727C48.0197 7.73309 48.4853 7.93347 48.9764 8.03664H48.4693C50.5254 8.88951 53.3882 8.2902 54.361 6.2802C54.812 5.2604 54.875 4.11094 54.5379 3.048C54.2009 1.98506 53.4871 1.08188 52.5308 0.508348Z" fill="#161B46"/>
<path d="M56.6107 9.21658C55.1585 7.50162 53.1163 6.91152 50.885 6.64413C48.6279 6.43173 46.3598 6.9143 44.3847 8.02717C42.1142 9.33356 40.2808 11.2824 39.1153 13.6284C38.6502 14.6365 38.4346 15.7417 38.4868 16.8506C38.5389 17.9596 38.8573 19.0397 39.415 19.9996C41.0516 22.7887 43.8269 24.9647 47.054 25.1353C50.281 25.3059 53.5081 23.7937 55.6702 21.4011C57.2066 19.7627 58.1873 17.6818 58.4732 15.4541C58.6081 14.3464 58.5141 13.2229 58.1969 12.1531C57.8797 11.0833 57.3461 10.0901 56.6292 9.23501" fill="#161B46"/>
<path d="M46.9295 10.9134C47.7224 10.4754 48.2388 9.67323 48.9165 9.06931C50.4101 7.7416 52.6506 7.5572 54.5592 8.14729C56.3341 8.70511 57.8324 10.1757 58.9849 12.0152C59.7989 13.2746 60.2401 14.7386 60.2573 16.238C60.2357 17.2312 59.9767 18.2048 59.5019 19.0774C59.0271 19.95 58.3503 20.6963 57.5281 21.2538L50.7375 13.5964C49.5064 13.6525 48.2745 13.5061 47.0909 13.1631C46.7408 13.0617 46.423 12.8711 46.1688 12.6099C46.0432 12.4787 45.9591 12.3133 45.9271 12.1345C45.8951 11.9557 45.9167 11.7715 45.989 11.6049C46.1688 11.2499 46.5837 11.1116 46.9295 10.9134Z" fill="#161B46"/>
<path d="M57.3483 14.2971L49.382 10.0281C49.0482 9.78368 48.6348 9.67319 48.2235 9.71842C47.8122 9.76364 47.4328 9.9613 47.16 10.2724L34.9155 24.9695C34.0728 25.9697 33.5863 27.2216 33.5325 28.5285L33.4772 29.9115C33.442 30.6361 33.5881 31.3581 33.9024 32.012C34.2166 32.6658 34.689 33.231 35.2768 33.6563C35.8645 34.0815 36.5491 34.3535 37.2685 34.4474C37.9879 34.5413 38.7193 34.4543 39.3966 34.1943C39.5595 34.1298 39.7143 34.0462 39.8576 33.9453C39.9913 33.8301 40.1019 33.7748 40.2033 33.6687C40.9364 33.0348 41.6008 32.3255 42.1857 31.5527C43.352 30.3033 43.8222 29.787 43.813 29.8009C43.8038 29.8147 46.8741 31.7832 50.5853 28.8189C52.4293 27.3437 54.928 24.4347 56.8873 21.9913C58.6714 19.7785 59.6211 15.9705 57.3483 14.2971Z" fill="#B78876"/>
<path d="M53.6648 23.9323C53.5617 24.0502 53.4162 24.1226 53.2599 24.1338C53.1037 24.145 52.9493 24.0941 52.8304 23.9922C52.7698 23.945 52.7191 23.8862 52.6814 23.8192C52.6437 23.7523 52.6196 23.6785 52.6106 23.6021C52.6016 23.5258 52.6079 23.4485 52.629 23.3746C52.6501 23.3007 52.6856 23.2317 52.7336 23.1716C52.8388 23.0552 52.9853 22.9843 53.1419 22.974C53.2985 22.9636 53.453 23.0147 53.5726 23.1163C53.6333 23.1631 53.6839 23.2216 53.7215 23.2883C53.7591 23.3551 53.7829 23.4287 53.7915 23.5048C53.8001 23.5809 53.7934 23.658 53.7716 23.7314C53.7498 23.8049 53.7135 23.8732 53.6648 23.9323Z" fill="#161B46"/>
<path d="M54.9464 22.8902C54.8404 22.8902 54.7298 22.3416 54.2503 21.9083C53.7709 21.4749 53.1992 21.3919 53.2038 21.2859C53.2084 21.1799 53.3513 21.1845 53.6095 21.2121C53.9532 21.2553 54.2752 21.4034 54.5315 21.6363C54.7802 21.8638 54.9512 22.1638 55.0202 22.4937C55.0432 22.7427 54.9972 22.8902 54.9464 22.8902Z" fill="#161B46"/>
<path d="M49.3406 20.1338C49.2354 20.2502 49.0889 20.3211 48.9323 20.3314C48.7757 20.3418 48.6212 20.2907 48.5016 20.1891C48.4408 20.1419 48.39 20.083 48.3524 20.0158C48.3147 19.9487 48.2909 19.8747 48.2823 19.7982C48.2737 19.7217 48.2805 19.6443 48.3023 19.5705C48.3242 19.4967 48.3605 19.428 48.4093 19.3685C48.5138 19.2523 48.6595 19.1816 48.8153 19.1712C48.9712 19.1609 49.1249 19.2118 49.2438 19.3132C49.3044 19.3604 49.355 19.4192 49.3928 19.4862C49.4305 19.5531 49.4545 19.6269 49.4635 19.7032C49.4726 19.7796 49.4663 19.8569 49.4452 19.9308C49.4241 20.0047 49.3886 20.0737 49.3406 20.1338Z" fill="#161B46"/>
<path d="M50.3502 18.8104C50.2442 18.8104 50.1335 18.2571 49.6541 17.8238C49.1746 17.3904 48.603 17.3075 48.6076 17.2014C48.6122 17.0954 48.7551 17.1 49.0086 17.1277C49.3529 17.1687 49.6755 17.3171 49.9307 17.5518C50.1811 17.778 50.3524 18.0785 50.4193 18.4093C50.447 18.6582 50.4009 18.8058 50.3502 18.8104Z" fill="#161B46"/>
<path d="M48.6629 23.8263C48.9932 23.9751 49.3031 24.1657 49.5849 24.3934C49.7186 24.4902 49.8569 24.5732 49.9537 24.5086C50.0505 24.4441 50.1335 24.2689 50.2027 24.0707C50.3548 23.6696 50.5208 23.2501 50.6913 22.8121C51.0757 21.718 51.5459 20.6559 52.0974 19.6357C52.1712 19.668 51.6364 21.134 50.9495 22.9181C50.7697 23.3561 50.6038 23.771 50.4424 24.1721C50.3827 24.389 50.2489 24.5782 50.0644 24.7069C50.0076 24.7342 49.9453 24.7484 49.8823 24.7484C49.8192 24.7484 49.757 24.7342 49.7002 24.7069C49.6162 24.664 49.5386 24.6097 49.4697 24.5455C49.1705 24.342 48.8993 24.1002 48.6629 23.8263Z" fill="#161B46"/>
<path d="M43.8269 29.7917C42.1704 28.3266 40.9527 26.4308 40.3094 24.3149C40.3094 24.3149 39.2906 27.7817 43.0755 30.6216L43.8269 29.7917Z" fill="#995037"/>
<path d="M47.4043 24.7945C47.4201 24.5982 47.3862 24.4011 47.3056 24.2214C47.225 24.0417 47.1004 23.8853 46.9433 23.7665C46.8288 23.6797 46.6978 23.6169 46.5584 23.5821C46.4189 23.5472 46.2739 23.541 46.1319 23.5637C45.9958 23.5859 45.8696 23.649 45.77 23.7445C45.6704 23.8399 45.6021 23.9633 45.5741 24.0984C45.573 24.2548 45.6184 24.4081 45.7046 24.5386C45.7908 24.6691 45.9139 24.7711 46.0582 24.8314C46.3577 24.9565 46.6787 25.0223 47.0033 25.0251C47.0917 25.041 47.1822 25.041 47.2706 25.0251C47.3121 25.0139 47.3494 24.991 47.378 24.9591C47.4067 24.9272 47.4254 24.8876 47.432 24.8453" fill="#995037"/>
<path d="M46.9525 22.872C47.0309 22.9365 46.5607 23.4574 46.6667 24.2319C46.7727 25.0064 47.3813 25.4536 47.3213 25.532C47.2614 25.6104 47.1047 25.532 46.8603 25.3107C46.5517 25.0388 46.3492 24.6665 46.2887 24.2596C46.2299 23.8679 46.3276 23.4688 46.5607 23.1486C46.7405 22.9135 46.9018 22.8351 46.9525 22.872Z" fill="#161B46"/>
<path d="M51.7102 17.4367C51.5442 17.5242 51.1247 17.0264 50.4977 16.5838C49.8707 16.1412 49.2806 15.8784 49.3129 15.694C49.3129 15.6064 49.5204 15.5557 49.82 15.5972C50.2067 15.6637 50.5719 15.8217 50.885 16.0582C51.2063 16.2837 51.4674 16.5844 51.6456 16.9342C51.7747 17.1969 51.7885 17.3952 51.7102 17.4367Z" fill="#161B46"/>
<path d="M56.182 21.4197C56.0022 21.452 55.7717 21.0371 55.3798 20.6729C54.988 20.3087 54.5823 20.0782 54.6099 19.8938C54.6099 19.8062 54.7759 19.7462 55.0202 19.7739C55.3293 19.8313 55.6146 19.9788 55.8401 20.1978C56.0657 20.4168 56.2215 20.6975 56.288 21.0048C56.3249 21.2537 56.2696 21.4013 56.182 21.4197Z" fill="#161B46"/>
<path d="M46.5699 8.80637C49.0086 7.34036 54.4301 7.11907 56.4309 9.1383L58.0444 14.1679C57.4239 14.6515 56.6843 14.9585 55.9037 15.0567C55.1231 15.1549 54.3305 15.0405 53.6095 14.7257C52.8442 14.38 52.0789 13.8037 51.263 13.9974C50.447 14.191 49.9721 15.1637 49.1515 15.408C48.0175 15.7492 46.7635 14.5828 45.6893 15.0899C45.2283 15.3112 44.9287 15.8091 44.4585 16.012C43.8269 16.2978 42.1073 15.846 41.7523 15.2559C41.3973 14.6658 42.1304 13.8222 42.3562 13.2367C42.591 12.5603 43.0518 11.9855 43.6609 11.6093C44.7489 10.8302 45.4081 9.52555 46.5699 8.80637Z" fill="#161B46"/>
<path d="M42.8449 16.9803C43.08 16.7221 43.3336 15.8416 43.1169 15.565C42.5314 14.8412 41.2729 13.7763 39.6639 15.4958C37.4926 17.8424 40.3001 19.5389 40.3647 19.479C40.4292 19.419 42.0335 17.8747 42.8449 16.9803Z" fill="#B78876"/>
<path d="M40.4707 17.9209C40.4707 17.9209 40.4062 17.9209 40.3048 17.8794C40.2372 17.8567 40.175 17.8204 40.1219 17.7729C40.0688 17.7253 40.0259 17.6674 39.9959 17.6028C39.9333 17.3665 39.9345 17.1179 39.9993 16.8823C40.0641 16.6466 40.1902 16.4324 40.3647 16.2613C40.5491 16.0624 40.7739 15.9052 41.0239 15.8003C41.1129 15.7463 41.2139 15.7155 41.3178 15.7107C41.4216 15.7059 41.5251 15.7271 41.6186 15.7726C41.6775 15.8024 41.7237 15.8522 41.7491 15.913C41.7744 15.9739 41.7772 16.0418 41.7569 16.1045C41.7293 16.2013 41.6693 16.2336 41.6786 16.252C41.6878 16.2705 41.7662 16.252 41.8353 16.1414C41.8787 16.0729 41.8951 15.9908 41.8814 15.9109C41.859 15.8027 41.7984 15.7062 41.7108 15.6389C41.5961 15.5696 41.4657 15.5307 41.3318 15.5259C41.1979 15.5211 41.0649 15.5504 40.9455 15.6112C40.657 15.7197 40.4002 15.8988 40.1987 16.1322C39.7746 16.6209 39.6086 17.2893 39.8576 17.6996C39.903 17.7774 39.9657 17.8436 40.0408 17.8932C40.116 17.9428 40.2016 17.9743 40.2909 17.9854C40.4154 17.9762 40.4753 17.9347 40.4707 17.9209Z" fill="#995037"/>
<path d="M57.9661 12.8496C57.353 14.0344 57.7909 16.5884 57.8001 17.9207C57.8001 20.4655 57.8739 20.885 54.1121 25.3292C55.9369 24.5014 57.559 23.2852 58.8651 21.7656C59.9359 20.4406 60.4852 18.7698 60.4095 17.0679C60.3597 16.2239 60.1138 15.4031 59.6913 14.6709C59.2687 13.9386 58.6812 13.315 57.9753 12.8496" fill="#161B46"/>
<path d="M45.3528 7.7417C45.4477 7.905 45.5573 8.05931 45.6802 8.20271C45.7908 8.34562 45.9291 8.5162 46.1043 8.70521C46.2795 8.89422 46.4639 9.12012 46.699 9.34141C47.2349 9.87646 47.8096 10.3711 48.4186 10.8212C49.1664 11.3669 49.9574 11.8511 50.7835 12.2688C51.6169 12.6772 52.4818 13.0179 53.3698 13.2877C54.0968 13.4949 54.8379 13.649 55.5873 13.7487C55.9054 13.804 56.2004 13.8178 56.454 13.8409C56.6714 13.8637 56.89 13.8745 57.1086 13.8731C57.2958 13.8889 57.4839 13.8889 57.671 13.8731C57.4876 13.8339 57.3008 13.8123 57.1132 13.8086C56.9334 13.8086 56.7167 13.7809 56.4632 13.7441C56.2096 13.7072 55.9238 13.6887 55.6057 13.6242C54.8668 13.5001 54.1369 13.3276 53.4205 13.1079C52.546 12.8337 51.6937 12.4931 50.8711 12.089C50.0532 11.6748 49.2673 11.2002 48.52 10.6691C47.9138 10.2285 47.3364 9.74959 46.7912 9.23537C46.5515 9.0233 46.3578 8.80664 46.1827 8.62223C46.0213 8.47643 45.8675 8.32256 45.7216 8.16122C45.6097 8.01206 45.4864 7.8718 45.3528 7.7417Z" fill="#737690"/>
<path d="M43.6194 9.26758C43.6801 9.38051 43.7561 9.48447 43.8453 9.57646C44.0645 9.84435 44.2985 10.0998 44.5461 10.3417C46.1927 11.9557 48.2439 13.096 50.4839 13.6426C50.8211 13.7262 51.1628 13.7908 51.5073 13.8362C51.6317 13.8608 51.7587 13.8701 51.8854 13.8639C51.8854 13.8316 51.3552 13.744 50.5023 13.5089C49.4108 13.2037 48.3587 12.7721 47.3675 12.2227C46.3734 11.6704 45.4455 11.0069 44.6014 10.2449C43.9975 9.66866 43.6425 9.26758 43.6194 9.26758Z" fill="#737690"/>
<path d="M42.9509 8.80664C42.8082 8.88962 42.6765 8.9903 42.5591 9.10629C42.2199 9.39428 41.8982 9.70216 41.5956 10.0283C41.139 10.5113 40.7096 11.0192 40.3094 11.5497C39.805 12.1945 39.3635 12.886 38.9909 13.615C38.3372 14.9738 38.1822 16.5192 38.5529 17.9807C38.6716 18.4153 38.837 18.8357 39.0462 19.2347C39.1149 19.385 39.1999 19.5272 39.2997 19.6588C39.2524 19.4999 39.1906 19.3456 39.1153 19.1978C38.9353 18.7935 38.7918 18.3738 38.6866 17.9439C38.5327 17.3076 38.486 16.6501 38.5483 15.9984C38.6128 15.1984 38.8238 14.4171 39.1707 13.6934C39.5364 12.9774 39.9653 12.2955 40.4523 11.6557C40.9133 11.0564 41.3236 10.54 41.697 10.1159C42.0704 9.69178 42.3839 9.36447 42.619 9.14318C42.7389 9.04053 42.8499 8.92795 42.9509 8.80664Z" fill="#737690"/>
<path d="M54.2088 7.53409C54.1858 7.56636 53.8354 7.31742 53.213 7.0362C51.5825 6.29148 49.7351 6.17171 48.0221 6.69966C47.3674 6.9025 46.9894 7.10074 46.9709 7.06386C47.2679 6.82923 47.6054 6.65109 47.9667 6.5383C48.8289 6.22345 49.7472 6.0916 50.6632 6.15113C51.5791 6.21065 52.4726 6.46026 53.2868 6.88406C53.631 7.04302 53.9434 7.26328 54.2088 7.53409Z" fill="#454E90"/>
<path d="M34.118 26.1912C34.2933 25.7977 34.5096 25.4237 34.7634 25.0756C35.3297 24.1992 35.9454 23.3557 36.6074 22.5492C37.2674 21.7432 37.9707 20.9737 38.7143 20.2442C39.0061 19.9254 39.3306 19.638 39.6824 19.3867C39.4269 19.7325 39.1449 20.0577 38.8387 20.3594C38.2994 20.9449 37.5617 21.7425 36.7919 22.6968C36.022 23.6511 35.3812 24.5408 34.9155 25.1632C34.6803 25.5286 34.4134 25.8725 34.118 26.1912Z" fill="#995037"/>
<path d="M24.6535 66.7554C24.2708 66.7554 -0.0382695 66.7554 0.80077 76.3905C1.42774 83.5592 8.89612 83.9972 27.6178 83.9972L28.8625 77.7182L33.0761 76.3628L24.6535 66.7554Z" fill="#00ACE9"/>
<path d="M23.2704 66.3175C23.2704 66.3175 29.1068 76.9207 34.2286 77.1835C37.3515 77.3453 40.4335 77.9667 43.3751 79.0276C43.3751 79.0276 74.3411 85.514 78.6931 83.6377C83.045 81.7614 83.4046 74.6664 81.4822 69.8074C79.5598 64.9483 74.8252 48.8037 74.8252 48.8037L67.5228 51.2378C67.5228 51.2378 68.8044 65.1972 69.6988 67.8849C70.5931 70.5726 71.2385 72.6241 71.2385 72.6241L53.1301 65.8334L49.2483 61.9287C47.5687 60.2406 45.3533 59.1908 42.9832 58.9598L41.3973 58.8076L38.4515 57.3969L23.2704 66.3175Z" fill="#00ACE9"/>
<g opacity="0.3">
<path opacity="0.3" d="M43.3244 78.3775C43.3244 77.815 42.7988 77.4186 42.3332 77.1051C40.4892 75.8373 38.387 74.5096 36.1372 74.7401C35.5845 74.8577 35.0168 74.8889 34.4546 74.8323C33.8967 74.7124 33.3758 74.173 33.5325 73.6291C33.263 74.145 32.8569 74.577 32.3585 74.8779C31.8601 75.1787 31.2887 75.3367 30.7065 75.3348C29.5399 75.3158 28.4004 74.9795 27.4103 74.3621C26.3961 73.795 25.4556 73.1035 24.423 72.578C21.9289 71.3148 19.0107 71.0981 16.2354 71.4623C13.4601 71.8265 10.8001 72.7393 8.15851 73.6475C11.1483 72.8942 14.2172 72.4995 17.3003 72.4719C20.9884 72.7716 25.9305 74.86 28.8579 77.7182C29.4978 77.5973 30.1183 77.3895 30.7019 77.1005L32.1126 76.6671C32.7978 76.8864 33.4971 77.0589 34.2056 77.1835C35.4457 77.4094 38.6497 77.6675 40.1158 78.0594C41.5818 78.4512 43.5272 79.0782 43.5272 79.0782L43.3244 78.3775Z" fill="#2D3259"/>
</g>
<path d="M28.6781 77.7185L35.0216 78.0781C35.0216 78.0781 35.8836 76.1418 37.5064 77.0592C39.1292 77.9767 39.3228 79.1983 40.2033 79.6686C41.0839 80.1388 47.16 81.4619 47.7501 82.5407C48.6721 84.1773 46.1872 83.8914 46.1872 83.8914L27.6177 83.9975L28.6781 77.7185Z" fill="#B78876"/>
<path d="M7.06592 74.0075C7.136 73.9709 7.21032 73.943 7.28721 73.9245L7.94184 73.7309C8.50889 73.5695 9.32487 73.3483 10.3621 73.1085C11.5703 72.8236 12.794 72.6096 14.0272 72.4677C15.5408 72.2877 17.0711 72.2985 18.582 72.5C20.09 72.7294 21.5611 73.1572 22.957 73.7724C24.0995 74.2607 25.1977 74.8469 26.2393 75.5242C26.945 75.9763 27.6126 76.4851 28.2355 77.0456C28.3975 77.1988 28.5513 77.3604 28.6965 77.5296C28.7547 77.5851 28.8043 77.6488 28.8441 77.7187C28.8441 77.7187 28.6089 77.4881 28.1572 77.1147C27.5239 76.5831 26.8555 76.0948 26.1564 75.6533C25.1113 75.0044 24.0169 74.4387 22.8832 73.9614C21.4999 73.3671 20.0469 72.9504 18.5589 72.7213C15.3733 72.2833 12.4597 72.8458 10.4082 73.2607C9.38019 73.4773 8.5642 73.6756 7.97411 73.8093L7.31025 73.9568C7.23185 73.986 7.14946 74.0031 7.06592 74.0075Z" fill="#161B46"/>
<path d="M52.9687 65.8337C52.9687 65.8752 52.4478 65.8936 51.641 66.0919C50.5911 66.3504 49.6084 66.83 48.7585 67.4986C47.9087 68.1672 47.2113 69.0094 46.7128 69.969C46.3256 70.702 46.1872 71.2045 46.1458 71.1952C46.146 71.071 46.1678 70.9478 46.2103 70.8311C46.3011 70.5144 46.4183 70.206 46.5607 69.909C47.034 68.9004 47.7365 68.0163 48.6122 67.3274C49.4896 66.642 50.5136 66.1686 51.6041 65.9443C51.9324 65.8793 52.2654 65.8408 52.5999 65.8291C52.7222 65.8094 52.847 65.811 52.9687 65.8337Z" fill="#161B46"/>
<path d="M33.7815 73.5602C33.7806 73.3594 33.7976 73.1588 33.8322 72.9609C33.8737 72.5783 33.9705 72.0389 34.1134 71.3474C34.884 67.8003 36.4352 64.4695 38.6543 61.597C39.0785 61.0484 39.4427 60.6197 39.7101 60.3385C39.8357 60.182 39.9797 60.0412 40.1388 59.9189C40.0357 60.0921 39.9152 60.2543 39.7792 60.403C39.5349 60.6981 39.1937 61.1406 38.788 61.6985C36.6658 64.5992 35.1339 67.8885 34.2793 71.3797C34.1134 72.0481 33.9935 72.5921 33.9244 72.9702C33.9015 73.172 33.8534 73.3703 33.7815 73.5602Z" fill="#161B46"/>
<path d="M74.8206 76.6674C74.1556 76.0601 73.5275 75.4135 72.9397 74.7312C72.295 74.1004 71.7243 73.3982 71.2386 72.6382C71.9043 73.2431 72.5325 73.8882 73.1195 74.5698C73.7661 75.2005 74.337 75.9045 74.8206 76.6674Z" fill="#161B46"/>
<g opacity="0.3">
<path opacity="0.3" d="M50.4654 66.4008C48.6299 67.3642 47.1694 68.914 46.3163 70.8034C46.2334 70.9878 46.1688 71.2414 46.3163 71.3751C46.3734 71.4132 46.4386 71.4373 46.5067 71.4453C46.5748 71.4533 46.6439 71.4451 46.7082 71.4212C47.4873 71.2276 48.0267 70.536 48.5015 69.8906L51.1523 66.2901C51.0702 66.247 50.977 66.2297 50.8849 66.2404C50.7928 66.2511 50.7061 66.2893 50.636 66.3501" fill="#2D3259"/>
</g>
<path d="M34.3531 26.1499C33.9705 26.1499 23.7499 30.8891 21.9335 33.964C20.1171 37.039 17.5769 42.5434 18.2177 48.177C18.8586 53.8105 23.3396 67.1291 23.5977 66.7465C23.8559 66.3639 38.4515 57.3972 38.4515 57.3972L36.6582 53.4279L43.3751 45.1021L45.6248 32.936L34.3531 26.1499Z" fill="#B78876"/>
<path d="M34.1918 27.0305C33.9751 26.9567 26.8617 32.5027 25.0545 35.2134C23.607 37.3802 25.3588 38.5926 28.4568 38.9291C31.5548 39.2657 35.5518 38.127 36.9624 36.9745C38.3731 35.8219 43.0155 31.364 43.0155 31.364L45.6248 32.936C45.6248 32.936 37.5756 38.8462 37.5064 42.8062C37.5021 43.9744 37.7752 45.1269 38.3034 46.1688C38.8316 47.2108 39.5997 48.1124 40.5445 48.7994L36.6582 53.4095L37.6586 55.6177C37.6586 55.6177 26.078 56.3323 22.2793 53.0914C18.4805 49.8505 18.1302 49.1267 18.1302 49.1267C17.2569 45.8864 17.5089 42.4457 18.8447 39.3671C19.8477 37.2775 21.0195 35.2731 22.3484 33.374C24.4245 30.9628 26.9244 28.9519 29.7246 27.4408C33.219 25.546 34.3347 26.1269 34.3347 26.1269L34.1918 27.0305Z" fill="#D4D9F5"/>
<path d="M29.7522 61.1541C29.4233 60.0779 29.1372 58.9891 28.8948 57.8901C29.2036 58.3719 29.4165 58.9089 29.5217 59.4714C29.7021 60.0132 29.7803 60.5838 29.7522 61.1541Z" fill="#995037"/>
<path d="M30.3054 35.877C30.3469 35.9369 29.4941 36.5131 28.572 37.3706C27.65 38.2281 27.0046 39.0303 26.9493 38.9888C27.7512 37.655 28.915 36.576 30.3054 35.877Z" fill="#995037"/>
<g opacity="0.3">
<path opacity="0.3" d="M24.3123 44.8716H24.2662C24.3088 46.4024 24.8711 47.8732 25.8606 49.042C26.8501 50.2108 28.2079 51.0081 29.7108 51.3027C27.2597 49.8032 25.3644 47.5454 24.3123 44.8716Z" fill="#2D3259"/>
</g>
<path d="M30.4069 51.6481C30.2797 51.6285 30.1567 51.588 30.0427 51.5283C29.7242 51.3979 29.416 51.2438 29.1206 51.0673C28.1274 50.4794 27.2444 49.7228 26.5113 48.8314C25.7841 47.94 25.1737 46.9593 24.6949 45.9132C24.5105 45.5167 24.3722 45.1848 24.2893 44.9543C24.2346 44.8377 24.1988 44.7132 24.1832 44.5854C24.4284 44.9904 24.65 45.409 24.8471 45.8394C25.3633 46.8464 25.9812 47.798 26.6911 48.6792C27.4121 49.5486 28.259 50.3053 29.2036 50.9243C29.9274 51.3854 30.4207 51.6066 30.4069 51.6481Z" fill="#161B46"/>
</svg>
