<svg width="32" height="32" viewBox="0 0 32 32" fill="none" xmlns="http://www.w3.org/2000/svg">
<rect width="32" height="32" rx="16" fill="#F4F5FB"/>
<g clip-path="url(#clip0_5067_11076)">
<path d="M21.3333 22.6667H10.6667C10.4899 22.6667 10.3203 22.5964 10.1953 22.4714C10.0702 22.3464 10 22.1768 10 22V9.99999C10 9.82318 10.0702 9.65361 10.1953 9.52859C10.3203 9.40357 10.4899 9.33333 10.6667 9.33333H21.3333C21.5101 9.33333 21.6797 9.40357 21.8047 9.52859C21.9298 9.65361 22 9.82318 22 9.99999V22C22 22.1768 21.9298 22.3464 21.8047 22.4714C21.6797 22.5964 21.5101 22.6667 21.3333 22.6667ZM13.3333 14V15.3333H18.6667V14H13.3333ZM13.3333 16.6667V18H18.6667V16.6667H13.3333Z" fill="#6E768D"/>
</g>
<defs>
<clipPath id="clip0_5067_11076">
<rect width="16" height="16" fill="white" transform="translate(8 8)"/>
</clipPath>
</defs>
</svg>
