<svg width="32" height="32" viewBox="0 0 32 32" fill="none" xmlns="http://www.w3.org/2000/svg">
<rect width="32" height="32" rx="16" fill="#FFF2F0"/>
<g clip-path="url(#clip0_5067_3741)">
<path d="M21.3333 22.6666H10.6667C10.4899 22.6666 10.3203 22.5964 10.1953 22.4714C10.0702 22.3464 10 22.1768 10 22V9.99998C10 9.82317 10.0702 9.6536 10.1953 9.52858C10.3203 9.40355 10.4899 9.33331 10.6667 9.33331H21.3333C21.5101 9.33331 21.6797 9.40355 21.8047 9.52858C21.9298 9.6536 22 9.82317 22 9.99998V22C22 22.1768 21.9298 22.3464 21.8047 22.4714C21.6797 22.5964 21.5101 22.6666 21.3333 22.6666ZM13.3333 14V15.3333H18.6667V14H13.3333ZM13.3333 16.6666V18H18.6667V16.6666H13.3333Z" fill="#E74C3C"/>
</g>
<defs>
<clipPath id="clip0_5067_3741">
<rect width="16" height="16" fill="white" transform="translate(8 8)"/>
</clipPath>
</defs>
</svg>
