<svg width="55" height="108" viewBox="0 0 55 108" fill="none" xmlns="http://www.w3.org/2000/svg">
<path d="M20.1407 68.1736C19.9971 68.1877 17.591 76.194 17.591 76.194C17.591 76.194 9.23011 83.4095 7.97218 86.1562C6.71424 88.9028 2.36072 97.3791 2.36072 97.3791L7.39809 99.9118L21.6153 82.9508C21.6153 82.9508 23.1884 82.2642 23.7625 81.3467C24.3366 80.4293 30.9752 69.7242 30.9752 69.7242L28.7239 64.8613L20.1407 68.1736Z" fill="#B78876"/>
<path d="M37.9572 68.8546C37.9572 68.8546 44.7366 73.9651 45.4204 74.9501C45.5442 75.1302 45.4204 75.6761 45.4204 75.6761C45.4204 75.6761 41.6269 78.0175 40.58 81.2454C39.5332 84.4732 35.0924 95.4485 35.0924 95.4485C35.0924 95.4485 39.7724 98.4344 39.9328 98.1107C40.0932 97.7871 51.167 81.8448 52.135 80.5531C53.1031 79.2614 54.5383 77.4575 54.7804 75.8394C55.0224 74.2212 54.4595 71.1566 51.8761 68.4128C49.2927 65.6689 45.7497 61.6362 45.7497 61.6362L36.3869 63.4908L36.0605 67.1914L37.9572 68.8433" fill="#B78876"/>
<path d="M21.8798 53.7847C21.8798 53.7847 22.4877 58.2367 24.0299 60.2291C25.572 62.2216 29.6132 65.8772 31.6056 66.4541C33.598 67.031 37.4788 69.7242 37.4788 69.7242L38.2161 69.1613L37.0623 65.8772L40.8502 67.3546L47.3228 61.7572C47.3228 61.7572 41.9252 56.6326 40.5462 55.0539C39.4078 53.8014 38.2065 52.6076 36.9469 51.4771L22.8761 53.0389L21.7701 54.0661" fill="#161B46"/>
<path d="M21.9501 55.0542C21.9501 55.0542 22.2006 59.4049 22.8197 60.5024L19.2964 68.2499L28.9546 67.3887C28.9546 67.3887 31.0118 70.9768 31.0596 71.0725C31.1075 71.1682 34.5633 67.9572 34.5633 67.9572L32.3513 58.6395L21.9501 55.0542Z" fill="#161B46"/>
<path d="M37.4788 69.7245C37.413 69.6935 37.3491 69.6587 37.2874 69.6204L36.7443 69.3024L34.7744 68.0895L33.4207 67.2452C32.9311 66.9469 32.4245 66.6036 31.8589 66.2996C31.5775 66.1449 31.296 65.9929 30.9809 65.8522C30.6657 65.7115 30.3561 65.6045 30.024 65.4723C29.3441 65.2027 28.6855 64.8819 28.0541 64.5126C26.8409 63.8015 25.7493 62.9009 24.8206 61.8448C24.0606 60.9834 23.4293 60.0166 22.9464 58.9743C22.6196 58.2723 22.3687 57.5374 22.1978 56.7821C22.1444 56.5148 22.1021 56.3065 22.0853 56.163C22.0708 56.0916 22.0632 56.0191 22.0627 55.9463C22.0866 56.0159 22.1045 56.0875 22.1162 56.1602C22.1415 56.3009 22.1894 56.5063 22.2541 56.7708C22.4435 57.5146 22.7065 58.2377 23.0393 58.9293C23.5318 59.951 24.1656 60.8983 24.9219 61.7435C25.8511 62.7863 26.9396 63.6753 28.147 64.3776C28.7678 64.7423 29.415 65.0603 30.0831 65.3288C30.4068 65.4582 30.736 65.5708 31.0456 65.7171C31.3551 65.8634 31.6478 66.0154 31.9292 66.173C32.4921 66.4854 33.0042 66.8315 33.4911 67.1326L34.8363 67.991L36.778 69.2433L37.3015 69.5894C37.3661 69.6267 37.4256 69.6721 37.4788 69.7245Z" fill="#45496B"/>
<path d="M41.3455 66.7581C41.2841 66.7327 41.2248 66.7026 41.1682 66.668L40.6785 66.3866C40.2536 66.1418 39.6457 65.7759 38.8999 65.3116C37.4112 64.3857 35.3879 63.0602 33.2266 61.4702C31.0653 59.8802 29.1826 58.3746 27.8487 57.2236C27.1817 56.6608 26.6499 56.188 26.2868 55.856L25.8731 55.4732C25.7775 55.386 25.7296 55.3381 25.7352 55.3325C25.791 55.3674 25.8437 55.4069 25.8928 55.4507L26.3262 55.8137L27.9162 57.1448C29.2642 58.2705 31.1582 59.7733 33.3138 61.352C35.4695 62.9308 37.4844 64.276 38.9562 65.2243L40.7066 66.35L41.1822 66.6539C41.2405 66.6823 41.2952 66.7172 41.3455 66.7581Z" fill="white"/>
<path d="M42.1644 66.125C42.1027 66.1022 42.0441 66.072 41.9899 66.0349L41.5115 65.7535C41.0978 65.5058 40.504 65.1372 39.7751 64.67C38.3202 63.7414 36.339 62.4046 34.2199 60.8371C32.1009 59.2696 30.2463 57.7612 28.9321 56.6384C28.2736 56.0755 27.7473 55.6168 27.3928 55.2904L26.9819 54.9161C26.9309 54.8744 26.8846 54.8272 26.844 54.7754C26.901 54.8085 26.9538 54.8482 27.0016 54.8936L27.4293 55.2482L28.9997 56.5596C30.3279 57.6599 32.1909 59.1514 34.3072 60.7189C36.4234 62.2864 38.3905 63.6316 39.8314 64.5856L41.5424 65.7113L42.0068 66.018C42.0622 66.0491 42.1149 66.0849 42.1644 66.125Z" fill="white"/>
<path d="M47.7646 76.4782C47.4188 76.2374 47.0491 76.0327 46.6615 75.8675C46.2575 75.7492 45.8427 75.6719 45.4232 75.6368C45.8534 75.5494 46.2993 75.582 46.7122 75.7308C47.1251 75.8797 47.4892 76.1393 47.7646 76.481V76.4782Z" fill="#995037"/>
<path d="M21.8629 82.6132C21.8432 82.647 21.6406 82.557 21.4155 82.4106C21.1903 82.2643 21.0215 82.1292 21.044 82.087C21.0665 82.0448 21.2663 82.1433 21.4943 82.2868C21.7222 82.4303 21.8854 82.5795 21.8629 82.6132Z" fill="#995037"/>
<path d="M43.5715 38.6445L49.1266 40.4175L47.6773 44.1969C47.6773 44.1969 41.3511 43.9971 40.2845 43.7663C39.2179 43.5356 39.2376 41.7964 39.2376 41.7964L43.5715 38.6445Z" fill="#B78876"/>
<path d="M48.5779 40.7044L50.3789 38.6895L52.4277 38.7148C52.4277 38.7148 53.9135 39.3114 54.2062 39.3058C54.195 39.415 54.1539 39.5191 54.0874 39.6065C54.0208 39.6939 53.9315 39.7612 53.8291 39.8011C53.8291 39.8011 54.5552 39.801 54.7156 40.0459C54.876 40.2907 54.6002 40.7776 54.3694 41.059C54.4266 41.2917 54.4485 41.5317 54.4342 41.771C54.4184 42.0145 54.3302 42.2477 54.1809 42.4407L53.7672 42.6631C53.8485 42.7389 53.9055 42.8371 53.931 42.9453C53.9566 43.0534 53.9495 43.1668 53.9107 43.2709C53.77 43.5256 53.5641 43.7383 53.3141 43.8872C53.3141 43.8872 53.6912 44.042 53.573 44.3544C53.4548 44.6668 53.3507 44.8131 53.1115 44.9172C52.8723 45.0213 50.6547 45.314 50.1763 45.1986C49.6979 45.0833 47.6914 44.2165 47.6914 44.2165L48.5779 40.7044Z" fill="#B78876"/>
<path d="M54.3948 41.1519C54.3948 41.1744 54.0853 41.1125 53.5871 41.0646C53.3395 41.0421 53.044 41.0224 52.7148 41.0252C52.5487 41.0252 52.3799 41.0252 52.1969 41.0252C51.9929 41.0526 51.786 41.0024 51.6172 40.8845C51.53 40.8149 51.4734 40.7139 51.4596 40.6031C51.453 40.496 51.4806 40.3896 51.5384 40.2992C51.5903 40.2181 51.6579 40.1483 51.7371 40.0937C51.8164 40.0391 51.9057 40.0008 52 39.9812C52.1564 39.9468 52.3155 39.9261 52.4755 39.9193L52.8864 39.8883C53.1561 39.8542 53.4283 39.8448 53.6997 39.8602C53.4358 39.9273 53.1665 39.9706 52.8949 39.9896C52.65 40.029 52.332 40.0375 52.0337 40.1135C51.9576 40.1295 51.8855 40.1607 51.8217 40.2051C51.7579 40.2496 51.7036 40.3065 51.6623 40.3724C51.6167 40.4347 51.5963 40.5119 51.6052 40.5886C51.6141 40.6652 51.6515 40.7358 51.7101 40.786C51.8517 40.8803 52.0229 40.9193 52.1913 40.8958C52.3714 40.8958 52.5487 40.8958 52.7148 40.8958C53.0116 40.8998 53.3078 40.9243 53.6012 40.969C53.8732 40.9911 54.1406 41.0528 54.3948 41.1519Z" fill="#995037"/>
<path d="M53.7813 42.4974C53.7813 42.5171 53.5477 42.4692 53.1734 42.4383C52.6779 42.421 52.1863 42.3426 51.71 42.2047C51.5702 42.169 51.4329 42.1239 51.2992 42.0696C51.2237 42.0348 51.1615 41.9766 51.1219 41.9036C51.0946 41.8364 51.0794 41.765 51.0768 41.6925C51.067 41.6235 51.0738 41.553 51.0965 41.4871C51.1149 41.4273 51.1435 41.3711 51.181 41.3211C51.2419 41.2289 51.3203 41.1495 51.4117 41.0875C51.5419 40.9981 51.6956 40.9492 51.8536 40.9468C51.9633 40.9468 52.0224 40.9693 52.0196 40.9777C51.8238 40.9937 51.6356 41.0606 51.4736 41.1719C51.3966 41.2301 51.3316 41.3027 51.2823 41.3858C51.2545 41.4296 51.2328 41.4769 51.2176 41.5265C51.2086 41.5777 51.2086 41.6301 51.2176 41.6813C51.2233 41.7363 51.2366 41.7903 51.257 41.8417C51.2818 41.8867 51.3216 41.9215 51.3695 41.9402C51.4966 41.9885 51.6263 42.0299 51.7579 42.064C52.2276 42.2014 52.709 42.2956 53.1959 42.3454C53.399 42.358 53.5977 42.4096 53.7813 42.4974Z" fill="#995037"/>
<path d="M53.3479 43.8339C53.0612 43.7908 52.7787 43.723 52.5036 43.6313L51.5947 43.3724C51.4062 43.3295 51.2245 43.2614 51.0543 43.1697C50.9603 43.1063 50.8861 43.0175 50.8405 42.9137C50.8172 42.8568 50.8069 42.7955 50.8103 42.7341C50.8137 42.6728 50.8308 42.613 50.8602 42.5591C50.9205 42.4644 51.0037 42.3865 51.1021 42.3324C51.2004 42.2783 51.3108 42.2498 51.423 42.2495C51.6256 42.2495 51.8085 42.2495 51.9858 42.2664C52.3034 42.2835 52.6194 42.323 52.9314 42.3846C53.1416 42.4282 53.3477 42.4894 53.5477 42.5675C53.6884 42.6238 53.7616 42.666 53.756 42.6745C53.7503 42.6829 53.438 42.5703 52.9117 42.4887C52.6032 42.4404 52.2922 42.4103 51.9802 42.3987C51.8029 42.3987 51.6116 42.3818 51.4314 42.3987C51.343 42.3975 51.2558 42.4186 51.1776 42.4599C51.0995 42.5012 51.0329 42.5614 50.984 42.6351C50.9503 42.7104 50.9467 42.7958 50.9739 42.8738C51.0011 42.9517 51.0571 43.0163 51.1303 43.0544C51.2868 43.1414 51.4544 43.2068 51.6284 43.2485L52.529 43.53C52.8103 43.6071 53.0844 43.7088 53.3479 43.8339Z" fill="#995037"/>
<path d="M52.7485 44.6444C52.5013 44.6731 52.2511 44.6598 52.0084 44.605C51.7411 44.5622 51.4776 44.4982 51.2204 44.4136C51.0521 44.3726 50.9012 44.279 50.7898 44.1462C50.733 44.065 50.6986 43.9701 50.6902 43.8713C50.6818 43.7724 50.6997 43.6731 50.742 43.5834C50.7846 43.4956 50.8492 43.4204 50.9297 43.3652C51.0101 43.3099 51.1035 43.2765 51.2007 43.2682C51.3669 43.2571 51.5338 43.2762 51.6932 43.3245C51.9535 43.3912 52.2099 43.472 52.4615 43.5665C52.6994 43.6394 52.9258 43.7455 53.134 43.8817C52.8947 43.8217 52.6589 43.7484 52.4277 43.6622C52.211 43.5975 51.9521 43.5215 51.6622 43.454C51.5174 43.4154 51.3673 43.4002 51.2176 43.4089C51.1449 43.4168 51.0754 43.4429 51.0154 43.4847C50.9554 43.5265 50.9068 43.5827 50.8743 43.6481C50.8426 43.7129 50.829 43.785 50.8349 43.8568C50.8409 43.9287 50.8661 43.9975 50.908 44.0562C51.0011 44.1657 51.126 44.2435 51.2654 44.2785C51.5149 44.3664 51.7696 44.4388 52.0281 44.4952C52.4699 44.5993 52.7513 44.6218 52.7485 44.6444Z" fill="#995037"/>
<path d="M53.877 39.8011C53.891 39.8518 53.2494 40.0122 52.4502 39.9643C52.3517 39.9643 52.2532 39.9503 52.1688 39.9362C52.1237 39.9362 52.0703 39.9137 52.0337 39.9109H51.9858C51.9748 39.908 51.9631 39.908 51.9521 39.9109C51.8359 40.0069 51.7116 40.0926 51.5806 40.167C51.4602 40.2473 51.32 40.2931 51.1754 40.2992C51.1754 40.2767 51.3161 40.2176 51.5271 40.0769C51.6517 39.9915 51.7702 39.8974 51.8817 39.7955C51.9094 39.7788 51.9399 39.7673 51.9718 39.7617H52.0562L52.1885 39.7814C52.2785 39.7955 52.3742 39.8011 52.4699 39.8067C52.8582 39.8264 53.2156 39.8067 53.4689 39.8067C53.6045 39.7925 53.7411 39.7906 53.877 39.8011Z" fill="#995037"/>
<path d="M50.9136 41.6358C50.8939 41.6358 50.9474 41.5289 50.984 41.3544C51.026 41.1339 51.0561 40.9112 51.0741 40.6874C51.0932 40.4697 51.0633 40.2505 50.9868 40.0458C50.9249 39.8882 50.8517 39.8066 50.8686 39.7925C50.8855 39.7785 50.984 39.8376 51.0797 39.998C51.1944 40.2116 51.2433 40.4545 51.2204 40.6959C51.2049 40.9308 51.1586 41.1626 51.0825 41.3853C51.0178 41.5823 50.9277 41.6499 50.9136 41.6358Z" fill="#995037"/>
<path d="M47.7618 39.9844L46.8246 44.1662L47.6802 44.1972L48.8987 40.3446L47.7618 39.9844Z" fill="#161B46"/>
<path d="M49.0652 39.9299L47.3814 39.252L47.1691 39.7793L48.8529 40.4572L49.0652 39.9299Z" fill="#161B46"/>
<path d="M42.291 3.51525C42.0487 3.44666 41.8288 3.31554 41.6532 3.13505C41.4776 2.95456 41.3526 2.73105 41.2907 2.48696C41.2288 2.24287 41.2323 1.9868 41.3007 1.74446C41.369 1.50212 41.5 1.28204 41.6803 1.10631C42.0219 0.823853 42.4232 0.622732 42.8539 0.518152C43.1288 0.393076 43.4398 0.372077 43.7291 0.459054C43.8792 0.549816 44.0018 0.679779 44.0836 0.834976C44.1654 0.990172 44.2034 1.16473 44.1934 1.33989C44.1934 1.69166 44.1146 2.04343 44.154 2.39521C44.2638 2.28545 44.472 2.37832 44.5114 2.52747C44.525 2.60394 44.5168 2.68267 44.488 2.75478C44.4592 2.82688 44.4107 2.88949 44.3482 2.93553C44.2227 3.02536 44.0911 3.10624 43.9542 3.17755C43.8866 3.21424 43.8269 3.26398 43.7786 3.32387C43.7303 3.38377 43.6943 3.45263 43.6728 3.5265" fill="#161B46"/>
<path d="M42.882 3.97412C42.7431 4.04604 42.5907 4.08821 42.4346 4.09794C42.3564 4.10243 42.2788 4.08267 42.2123 4.04137C42.1458 4.00006 42.0937 3.93923 42.0631 3.86718C42.0461 3.79837 42.0489 3.72612 42.0713 3.65886C42.0938 3.59161 42.1348 3.5321 42.1897 3.48727C42.3017 3.39896 42.4312 3.33563 42.5697 3.30154C42.8577 3.21241 43.1522 3.14561 43.4505 3.10173C43.5717 3.07351 43.6979 3.07351 43.8191 3.10173C43.8809 3.11881 43.9354 3.15549 43.9745 3.20625C44.0136 3.25701 44.0351 3.31909 44.0358 3.38315C44.0358 3.53511 43.8754 3.63361 43.7347 3.69833C43.3829 3.85652 43.0106 3.96451 42.6287 4.01915" fill="#45496B"/>
<path d="M39.702 14.3725C39.3595 13.1466 39.1231 11.8934 38.9956 10.6269C38.871 9.35374 39.0644 8.0696 39.5584 6.88964C39.6401 6.71235 40.2986 5.54165 40.4871 5.57542C40.6222 5.59794 40.1916 6.70109 40.2507 6.82773C40.7946 8.03755 40.9566 9.38449 40.7151 10.6888C40.5112 11.953 40.1666 13.1905 39.6879 14.3782" fill="#161B46"/>
<path d="M42.3502 26.1048C40.3802 25.9247 38.9478 23.3497 39.0857 21.3798L39.93 9.5265C40.0538 6.33241 42.0124 3.74337 45.2009 3.95443L45.4823 3.99102C46.9048 4.16917 48.2082 4.87587 49.1336 5.97074C50.0591 7.06561 50.5388 8.46852 50.4775 9.90078C50.3565 12.6671 50.1961 15.7205 49.985 17.1867C49.5657 20.2232 46.4645 20.316 46.4645 20.316C46.4645 20.316 46.3969 21.0224 46.3238 21.9201C46.2852 22.3976 46.1524 22.8628 45.9331 23.2887C45.7137 23.7146 45.4122 24.0928 45.0459 24.4016C44.6796 24.7103 44.2558 24.9434 43.7989 25.0875C43.342 25.2315 42.8611 25.2837 42.3839 25.2408L42.3502 26.1048Z" fill="#B78876"/>
<path d="M46.4673 20.3159C45.063 20.1368 43.7396 19.5586 42.6541 18.6499C42.6541 18.6499 43.3435 20.9829 46.4138 21.0898L46.4673 20.3159Z" fill="#995037"/>
<path d="M48.7721 11.8311C48.7593 11.9444 48.7026 12.0482 48.6143 12.1202C48.5259 12.1923 48.4128 12.2269 48.2993 12.2166C48.2434 12.2141 48.1887 12.2005 48.1382 12.1765C48.0877 12.1525 48.0425 12.1187 48.0052 12.077C47.968 12.0353 47.9395 11.9866 47.9214 11.9338C47.9032 11.8809 47.8958 11.8249 47.8997 11.7692C47.9124 11.6558 47.9691 11.552 48.0574 11.48C48.1458 11.4079 48.2589 11.3733 48.3724 11.3836C48.4283 11.3861 48.4831 11.3997 48.5335 11.4237C48.584 11.4477 48.6292 11.4815 48.6665 11.5232C48.7037 11.5649 48.7322 11.6136 48.7503 11.6665C48.7685 11.7193 48.7759 11.7753 48.7721 11.8311Z" fill="#161B46"/>
<path d="M49.6726 11.0796C49.6135 11.1303 49.3152 10.846 48.8452 10.7982C48.3753 10.7504 48.001 10.9305 47.9644 10.8685C47.9278 10.8066 48.0094 10.7447 48.1726 10.6547C48.3918 10.5387 48.6418 10.4944 48.8874 10.528C49.1308 10.5561 49.3587 10.6617 49.5375 10.8292C49.667 10.9502 49.7035 11.0599 49.6726 11.0796Z" fill="#161B46"/>
<path d="M44.1287 11.4341C44.1152 11.5476 44.058 11.6515 43.9692 11.7235C43.8804 11.7955 43.767 11.83 43.6531 11.8196C43.5974 11.8172 43.5427 11.8035 43.4924 11.7795C43.442 11.7555 43.397 11.7216 43.36 11.6799C43.323 11.6382 43.2947 11.5894 43.2769 11.5366C43.2591 11.4837 43.2521 11.4278 43.2563 11.3722C43.2691 11.2589 43.3257 11.1551 43.4141 11.083C43.5025 11.011 43.6155 10.9764 43.7291 10.9866C43.7849 10.9891 43.8397 11.0028 43.8902 11.0267C43.9407 11.0507 43.9859 11.0845 44.0231 11.1262C44.0603 11.1679 44.0889 11.2166 44.107 11.2695C44.1251 11.3224 44.1325 11.3783 44.1287 11.4341Z" fill="#161B46"/>
<path d="M45.0715 10.697C45.0124 10.7477 44.7112 10.4634 44.2441 10.4156C43.7769 10.3678 43.3998 10.5507 43.3632 10.486C43.3267 10.4212 43.4083 10.3621 43.5715 10.2721C43.7911 10.1575 44.0407 10.1133 44.2863 10.1454C44.5295 10.1762 44.7568 10.2825 44.9364 10.4494C45.0658 10.5676 45.1024 10.6745 45.0715 10.697Z" fill="#161B46"/>
<path d="M46.3125 14.4988C46.5684 14.4509 46.8296 14.4367 47.0892 14.4566C47.2102 14.4566 47.3256 14.4566 47.3706 14.3694C47.3966 14.2475 47.3838 14.1206 47.334 14.0064L47.0948 13.0524C46.7684 11.6987 46.5461 10.59 46.5995 10.5787C46.653 10.5674 46.9654 11.6537 47.2946 13.0073C47.3734 13.3422 47.4466 13.6602 47.517 13.9642C47.5734 14.1177 47.5734 14.2862 47.517 14.4397C47.4951 14.4802 47.4642 14.515 47.4266 14.5413C47.389 14.5677 47.3457 14.585 47.3003 14.5917C47.232 14.5987 47.1631 14.5987 47.0948 14.5917C46.8312 14.5935 46.5684 14.5623 46.3125 14.4988Z" fill="#161B46"/>
<path d="M44.8829 14.6481C44.9589 14.6481 44.897 15.1631 45.2853 15.5768C45.6737 15.9905 46.2225 16.0018 46.2168 16.0749C46.2168 16.1059 46.0846 16.1565 45.8566 16.134C45.5586 16.1015 45.2816 15.965 45.0743 15.7485C44.8779 15.5388 44.7692 15.2619 44.7703 14.9746C44.776 14.7607 44.8491 14.6425 44.8829 14.6481Z" fill="#161B46"/>
<path d="M45.2825 8.79764C45.2206 8.91865 44.7619 8.79764 44.2047 8.79764C43.6475 8.79764 43.186 8.8905 43.1297 8.76668C43.1043 8.70758 43.1944 8.59783 43.3886 8.48526C43.6464 8.36413 43.9284 8.30345 44.2132 8.30784C44.4981 8.31223 44.7781 8.38158 45.0321 8.51059C45.2234 8.62597 45.3107 8.73854 45.2825 8.79764Z" fill="#161B46"/>
<path d="M49.6895 9.50112C49.5938 9.5968 49.2843 9.44483 48.8987 9.39136C48.5132 9.3379 48.1755 9.37448 48.1136 9.25347C48.0882 9.19437 48.153 9.09588 48.3077 9.01427C48.5138 8.914 48.7459 8.88055 48.9719 8.91859C49.1974 8.94908 49.4083 9.0472 49.5769 9.2C49.6895 9.34071 49.7176 9.45609 49.6895 9.50112Z" fill="#161B46"/>
<path d="M39.8877 11.8003C39.8399 11.7722 37.8756 10.9195 37.6814 13.0076C37.4872 15.0957 39.6232 14.8593 39.6317 14.8002C39.6401 14.7411 39.8877 11.8003 39.8877 11.8003Z" fill="#B78876"/>
<path d="M39.0688 13.9503C39.0688 13.9503 39.0294 13.9728 38.9647 13.9954C38.872 14.0261 38.7708 14.019 38.6833 13.9757C38.5568 13.8776 38.4584 13.7479 38.3982 13.5997C38.3379 13.4514 38.3178 13.2899 38.34 13.1314C38.3524 12.9516 38.4043 12.7767 38.4919 12.6192C38.5171 12.5558 38.5575 12.4995 38.6095 12.4554C38.6615 12.4112 38.7235 12.3805 38.7902 12.3659C38.8332 12.3594 38.8771 12.3678 38.9145 12.3899C38.9519 12.4119 38.9806 12.4462 38.9957 12.487C39.0182 12.5461 38.9956 12.5883 39.0125 12.5911C39.0294 12.5939 39.0604 12.5601 39.0519 12.4729C39.0444 12.4204 39.0197 12.3719 38.9816 12.335C38.9278 12.2861 38.8572 12.2599 38.7846 12.2618C38.6984 12.2706 38.6158 12.301 38.5445 12.3502C38.4731 12.3994 38.4154 12.4658 38.3765 12.5432C38.271 12.7131 38.2091 12.9065 38.1964 13.1061C38.1683 13.5254 38.3484 13.9503 38.6411 14.0545C38.6954 14.0762 38.754 14.0855 38.8125 14.0816C38.8709 14.0777 38.9278 14.0607 38.9788 14.0319C39.0604 14.0038 39.0745 13.9531 39.0688 13.9503Z" fill="#995037"/>
<path d="M49.4081 6.32647C49.7627 6.16606 48.8453 4.98692 48.0404 4.53947C46.8331 3.86688 44.9448 3.3547 43.7601 3.58546C42.3333 3.86688 41.1147 4.46067 40.3099 5.67076C39.532 6.90517 39.0959 8.32405 39.0463 9.78227C38.9917 10.2247 39.0568 10.6737 39.2349 11.0824C39.4853 11.5693 40.0228 11.907 39.944 12.543C39.9264 12.6576 39.9318 12.7746 39.9598 12.8872C39.9878 12.9998 40.038 13.1057 40.1073 13.1987C40.4562 13.6377 40.9515 13.2944 41.202 12.9173C41.731 12.1377 41.8633 11.1668 41.9815 10.2325C42.1018 9.57289 42.1142 8.89808 42.0181 8.23448C41.9449 7.87708 41.807 7.53375 41.7535 7.17353C41.7157 6.99499 41.7172 6.81034 41.7581 6.63245C41.7989 6.45456 41.878 6.28771 41.9899 6.14354C42.0458 6.08535 42.107 6.03258 42.1729 5.98595C42.4858 5.75602 42.8543 5.61347 43.2405 5.57292C43.6268 5.53237 44.0168 5.59527 44.3707 5.75519C45.4964 6.27018 47.4663 7.06097 48.0292 6.70638C48.4252 6.49007 48.7714 6.19283 49.0451 5.83399L49.4081 6.32647Z" fill="#161B46"/>
<path d="M46.9372 3.97412C46.9372 3.97412 47.0835 4.08106 47.2721 4.30338C47.5266 4.5909 47.7277 4.92161 47.8659 5.2799C48.004 5.64618 48.0257 6.04622 47.9278 6.42526C47.8434 6.70668 47.7111 6.85302 47.6998 6.84176C47.6886 6.83051 47.773 6.67573 47.8265 6.39994C47.8884 6.04102 47.8544 5.67212 47.728 5.33055C47.5912 4.98696 47.4105 4.66251 47.1905 4.36529C47.0884 4.24723 47.0031 4.11559 46.9372 3.97412Z" fill="#45496B"/>
<path d="M48.3021 5.09424C48.319 5.09424 48.3753 5.19273 48.4091 5.37566C48.4449 5.61884 48.4257 5.86697 48.3528 6.10171C48.2784 6.33712 48.1503 6.55198 47.9785 6.72928C47.8462 6.86154 47.7421 6.9122 47.7308 6.89813C47.9309 6.64125 48.093 6.35692 48.2121 6.05387C48.2882 5.74001 48.3185 5.41679 48.3021 5.09424Z" fill="#45496B"/>
<path d="M41.9477 3.0789C41.9477 3.0789 41.8773 3.04513 41.7929 2.94382C41.6473 2.75661 41.5646 2.5282 41.5565 2.29119C41.5484 2.05418 41.6154 1.82067 41.7479 1.62397C41.8475 1.47907 41.9783 1.35834 42.1308 1.27068C42.2832 1.18302 42.4534 1.13065 42.6287 1.11742C42.6804 1.11314 42.7324 1.12026 42.781 1.13825C42.8296 1.15624 42.8737 1.18467 42.9101 1.22154C42.9683 1.30311 42.9934 1.40364 42.9805 1.50296C42.9682 1.66355 42.9466 1.82328 42.9158 1.98137C42.8652 2.24954 42.7869 2.51172 42.6822 2.76371C42.5982 3.0006 42.4713 3.22 42.3079 3.41097C42.2882 3.3969 42.4317 3.15207 42.5893 2.72431C42.6767 2.47428 42.7426 2.21726 42.7863 1.95604C42.812 1.80227 42.8299 1.64729 42.8398 1.4917C42.8494 1.42742 42.8365 1.3618 42.8032 1.30597C42.7788 1.28461 42.7501 1.26878 42.719 1.25955C42.6879 1.25032 42.6552 1.24791 42.6231 1.2525C42.4695 1.2647 42.3204 1.31031 42.1862 1.38614C42.052 1.46197 41.9361 1.56619 41.8464 1.69151C41.6955 1.89842 41.6291 2.15501 41.6606 2.40913C41.6996 2.65265 41.7982 2.88275 41.9477 3.0789Z" fill="#45496B"/>
<path d="M33.2435 20.6452C33.4996 20.5383 36.0577 19.5702 36.9863 19.3366C37.915 19.1031 39.2883 18.9258 39.2883 18.9258C39.2883 18.9258 42.8117 21.1208 43.5096 21.512C44.2075 21.9032 46.3238 22.0242 46.3238 22.0242C46.3238 22.0242 46.3238 25.888 46.0986 27.2951C45.4673 31.0682 44.6064 34.7992 43.5209 38.4674C41.959 43.7046 40.9431 45.2664 40.9431 45.2664C40.9431 45.2664 41.1598 47.5178 40.5041 48.9249C39.8484 50.3319 39.066 51.739 39.066 51.739L38.2077 52.3638C38.2077 52.3638 35.3935 51.1903 32.8157 52.3638C30.238 53.5373 23.9033 55.9715 22.4962 55.6535C21.0891 55.3355 21.7138 53.9341 22.0262 52.6058C22.3386 51.2775 25.074 46.6679 25.074 46.6679L25.3863 45.0272L25.9886 44.425L28.2849 30.3879C28.2849 30.3879 32.5822 20.9154 33.2435 20.6452Z" fill="#0064A7"/>
<path d="M31.3805 29.6081C31.3805 29.6081 32.5062 33.6014 35.219 34.0404C37.597 34.4259 38.8015 33.759 39.3756 32.2365C39.9496 30.714 40.4281 23.9741 40.4281 23.9741C40.4281 23.9741 40.4928 21.4892 39.7301 20.9854C38.9675 20.4817 31.3805 29.6081 31.3805 29.6081Z" fill="#B78876"/>
<path d="M27.1761 45.6295C27.1761 45.6295 27.4575 47.5009 27.8881 47.9371C27.8881 47.9371 31.1525 51.6997 31.3101 51.8573C31.4677 52.0149 31.9996 52.2907 32.2754 52.1387C32.3654 52.0669 32.4399 51.9774 32.4941 51.8758C32.5483 51.7742 32.5811 51.6625 32.5906 51.5477C32.5906 51.5477 33.4348 52.1106 33.8119 51.9023C33.9128 51.8523 33.9934 51.769 34.04 51.6664C34.0867 51.5639 34.0966 51.4484 34.068 51.3395C34.068 51.3395 34.7181 51.6744 35.1318 51.2804C35.2559 51.1425 35.3495 50.98 35.4068 50.8035C35.464 50.627 35.4834 50.4405 35.4638 50.256C35.4638 50.256 36.0267 50.6894 36.3503 50.3348C36.5754 50.0439 36.7183 49.6979 36.764 49.333L36.2912 48.4887C36.2912 48.4887 34.9545 46.637 34.5408 46.1248C34.1271 45.6126 33.1337 45.199 32.4133 44.9626C31.6928 44.7262 30.0071 42.8491 30.0071 42.8491L27.1761 45.6295Z" fill="#B78876"/>
<path d="M38.5566 20.3019C37.0558 19.7197 35.3873 19.7449 33.9048 20.3723C31.5521 21.3375 27.5701 22.9726 26.9988 23.1864C26.1799 23.5016 17.4813 26.3383 16.4091 29.8673C16.4091 29.8673 15.8631 30.9536 16.4091 31.8203C17.1942 33.0698 19.5047 38.504 23.1631 41.5911L27.1761 45.6295L30.0494 42.911C30.0494 42.911 26.6358 36.7395 25.6283 34.3446C24.6208 31.9498 24.0861 31.3869 24.0861 31.3869C24.0861 31.3869 27.6179 30.5652 29.8862 29.9996C32.1544 29.4339 34.9911 28.5503 34.9911 28.5503C34.9911 28.5503 38.9619 27.101 39.7189 25.964C40.4759 24.8271 40.9796 22.1199 39.7189 20.9858C39.3736 20.6927 38.9805 20.4614 38.5566 20.3019Z" fill="#B78876"/>
<path d="M21.6153 25.418C21.6153 25.418 24.5674 29.5689 24.8375 30.4835L25.1049 31.4066C25.1661 31.5057 25.2603 31.5801 25.371 31.6167C25.4817 31.6532 25.6017 31.6496 25.7099 31.6064C26.0786 31.4403 28.0598 30.734 28.0598 30.734C28.0598 30.734 28.4875 29.2987 27.5532 27.5483C26.8373 26.2695 26.0441 25.0356 25.178 23.8533C24.4975 23.7586 23.8041 23.8547 23.175 24.1309C22.5459 24.4072 22.006 24.8528 21.6153 25.418Z" fill="#161B46"/>
<path d="M20.9652 30.9224C21.5188 30.7742 22.0964 30.7387 22.6639 30.818C23.2315 30.8973 23.7773 31.0897 24.2691 31.3839C23.7386 31.2046 23.1959 31.0636 22.6453 30.9618C22.0868 30.9108 21.5255 30.8977 20.9652 30.9224Z" fill="#995037"/>
<path d="M35.7396 29.2956C35.5354 29.1885 35.319 29.1063 35.0952 29.0508C34.8503 29.0044 34.5997 28.9959 34.3522 29.0255C34.0462 29.0617 33.7427 29.1162 33.4432 29.1887C32.7932 29.335 32.205 29.456 31.7773 29.5377C31.5489 29.5963 31.3149 29.6303 31.0793 29.639C31.2979 29.5486 31.5252 29.4807 31.7576 29.4363C32.1769 29.3294 32.7622 29.1915 33.4095 29.048C33.7156 28.9721 34.0269 28.9194 34.341 28.8904C34.6014 28.8677 34.8637 28.8877 35.1177 28.9495C35.3579 28.992 35.5769 29.1139 35.7396 29.2956Z" fill="#995037"/>
<path d="M38.5059 21.3569C38.6428 21.5431 38.7545 21.7465 38.838 21.962C39.0911 22.4685 39.2103 23.0314 39.1842 23.597C39.1496 23.9068 39.0709 24.21 38.9506 24.4975C38.8612 24.733 38.749 24.9593 38.6157 25.173C38.3821 25.5416 38.1401 25.6851 38.1317 25.6682C38.2773 25.4954 38.41 25.312 38.5285 25.1195C38.6443 24.9043 38.7431 24.6803 38.8239 24.4497C38.9327 24.1723 39.0046 23.8819 39.0378 23.5858C39.0641 23.0432 38.9679 22.5017 38.7564 22.0014C38.6555 21.7937 38.5717 21.5782 38.5059 21.3569Z" fill="#995037"/>
<path d="M20 27.2304L21.9502 30.2894C21.9983 30.3641 22.072 30.4187 22.1574 30.443C22.2429 30.4673 22.3343 30.4598 22.4145 30.4217L29.3065 27.0644C29.3525 27.0421 29.3933 27.0104 29.4262 26.9713C29.4592 26.9322 29.4835 26.8866 29.4976 26.8374C29.5116 26.7883 29.5152 26.7367 29.508 26.6861C29.5007 26.6355 29.4829 26.587 29.4556 26.5437L27.5026 23.4847C27.4553 23.4098 27.382 23.3551 27.2967 23.3312C27.2115 23.3072 27.1203 23.3158 27.041 23.3553L20.1407 26.7126C20.0957 26.7356 20.0561 26.7678 20.0243 26.807C19.9925 26.8463 19.9692 26.8917 19.956 26.9404C19.9428 26.9892 19.9398 27.0401 19.9474 27.09C19.955 27.14 19.9729 27.1878 20 27.2304Z" fill="#161B46"/>
<path d="M22.4089 29.7295L20.7767 27.1461L27.0438 23.9238L28.752 26.6029L22.4089 29.7295Z" fill="#45496B"/>
<path d="M26.4838 24.6978C26.3411 24.9137 26.1791 25.1162 25.9998 25.3028C25.6593 25.7052 25.2512 26.1893 24.7953 26.724L23.6162 28.1648C23.4634 28.3741 23.293 28.5699 23.1068 28.7502C23.2269 28.5201 23.3692 28.3024 23.5317 28.1001C23.8132 27.7145 24.2156 27.1911 24.6827 26.6311C25.1499 26.0711 25.5945 25.5786 25.9238 25.224C26.0916 25.0295 26.2793 24.8531 26.4838 24.6978Z" fill="white"/>
<path d="M24.4295 25.8765C24.4632 25.899 24.3225 26.1579 24.1171 26.4393C23.9117 26.7207 23.7175 26.9431 23.6837 26.9177C23.6499 26.8924 23.7907 26.6363 23.9961 26.3549C24.2015 26.0735 24.3985 25.8512 24.4295 25.8765Z" fill="white"/>
<path d="M41.292 96.9597L41.1316 97.3565C41.1316 97.3565 46.7149 102.819 46.259 104.111L32.9902 98.5356L35.506 94.4072C37.0961 96.1576 38.6354 96.9175 41.292 96.9597Z" fill="#161B46"/>
<path d="M32.9902 98.5443L33.5952 97.5537L46.031 103.213C46.031 103.213 46.5151 103.72 46.2731 104.108L32.9902 98.5443Z" fill="#D0D1DA"/>
<path d="M41.1625 97.4129C41.1316 97.4748 40.7967 97.3679 40.3886 97.4439C39.9806 97.5199 39.6991 97.7253 39.6513 97.669C39.6035 97.6127 39.8567 97.2835 40.3492 97.2019C40.8417 97.1203 41.2019 97.3595 41.1625 97.4129Z" fill="#D0D1DA"/>
<path d="M42.3107 98.5725C42.3107 98.6428 41.973 98.6344 41.6381 98.8145C41.3033 98.9946 41.1175 99.2591 41.0556 99.231C40.9937 99.2028 41.1034 98.8173 41.5256 98.5978C41.9477 98.3783 42.3361 98.5105 42.3107 98.5725Z" fill="#D0D1DA"/>
<path d="M42.4036 100.57C42.3389 100.57 42.3839 100.199 42.6991 99.9119C43.0143 99.6249 43.3773 99.6136 43.383 99.6783C43.3886 99.7431 43.1184 99.8556 42.8652 100.095C42.6119 100.334 42.4684 100.59 42.4036 100.57Z" fill="#D0D1DA"/>
<path d="M41.247 97.4129C41.2657 97.3869 41.2808 97.3585 41.292 97.3285C41.3288 97.2457 41.3589 97.16 41.382 97.0724C41.4684 96.7446 41.4732 96.4006 41.3961 96.0705C41.3709 95.9611 41.3371 95.8538 41.2948 95.7497C41.2516 95.6313 41.1888 95.5209 41.1091 95.4233C41.0637 95.3694 41.007 95.3262 40.943 95.2967C40.9065 95.2813 40.8673 95.2734 40.8276 95.2734C40.788 95.2734 40.7488 95.2813 40.7123 95.2967C40.6435 95.3337 40.5858 95.3885 40.5452 95.4552C40.5047 95.522 40.4827 95.5984 40.4815 95.6766C40.4673 95.9776 40.5152 96.2784 40.6222 96.5602C40.7232 96.8728 40.9201 97.1455 41.185 97.3397C41.3298 97.4312 41.4978 97.4791 41.6691 97.4776C41.8272 97.4775 41.9849 97.4596 42.139 97.4242C42.4328 97.3726 42.7174 97.2778 42.9833 97.1427C43.05 97.1049 43.1066 97.0517 43.1487 96.9876C43.1908 96.9235 43.2171 96.8503 43.2253 96.7741C43.2323 96.6958 43.2102 96.6177 43.1634 96.5546C43.1166 96.4961 43.0526 96.4537 42.9805 96.4336C42.8545 96.4003 42.721 96.4092 42.6006 96.4589C42.4952 96.4966 42.3919 96.5398 42.291 96.5884C41.9832 96.733 41.6987 96.9227 41.4468 97.1512C41.3786 97.2114 41.3138 97.2753 41.2526 97.3426C41.2132 97.3904 41.1935 97.4157 41.1963 97.4185C41.1991 97.4213 41.2948 97.3341 41.4777 97.1878C41.7364 96.9821 42.02 96.81 42.322 96.6756C42.5097 96.5656 42.7273 96.5174 42.9439 96.5377C42.9944 96.5508 43.0386 96.5816 43.0686 96.6244C43.0985 96.6672 43.1121 96.7193 43.1071 96.7713C43.0999 96.83 43.0789 96.8862 43.0456 96.9352C43.0123 96.9841 42.9678 97.0244 42.9158 97.0527C42.6624 97.1794 42.3924 97.2694 42.1137 97.32C41.9728 97.366 41.8242 97.3837 41.6764 97.3721C41.5286 97.3606 41.3846 97.3199 41.2526 97.2525C41.0121 97.0716 40.8333 96.8211 40.7404 96.5349C40.6396 96.2721 40.5927 95.9916 40.6025 95.7103C40.6019 95.6541 40.6158 95.5986 40.6429 95.5493C40.67 95.5 40.7094 95.4585 40.7573 95.4289C40.8091 95.4131 40.8647 95.4147 40.9156 95.4335C40.9664 95.4523 41.0097 95.4873 41.0387 95.533C41.1115 95.6164 41.1696 95.7116 41.2104 95.8145C41.2543 95.9127 41.29 96.0143 41.3173 96.1184C41.3979 96.4361 41.4065 96.7678 41.3426 97.0893C41.2976 97.3031 41.247 97.4073 41.247 97.4129Z" fill="#D0D1DA"/>
<path d="M36.0492 96.7178C36.0211 96.7515 36.5361 97.1934 37.0904 97.8041C37.2312 97.956 37.3437 98.1108 37.4647 98.2543C37.5695 98.3868 37.7117 98.4849 37.8728 98.5357C37.9855 98.5703 38.107 98.5613 38.2133 98.5104C38.2865 98.4682 38.309 98.426 38.3034 98.4232C38.2414 98.4543 38.1739 98.4725 38.1047 98.4769C38.0356 98.4812 37.9663 98.4716 37.9009 98.4485C37.7611 98.3896 37.641 98.292 37.5548 98.1671C37.4478 98.0292 37.3268 97.8632 37.1861 97.7084C36.9471 97.4426 36.6884 97.1952 36.4122 96.9682C36.3035 96.8682 36.1813 96.7839 36.0492 96.7178Z" fill="#D0D1DA"/>
<path d="M8.83051 99.8078L8.57442 100.151C8.57442 100.151 12.5902 106.849 11.822 107.991L0.396423 99.2365L3.46669 95.5527C4.5614 97.6409 6.27242 99.093 8.83051 99.8078Z" fill="#161B46"/>
<path d="M0.396423 99.2366L1.13655 98.3501L11.8135 107.074C11.8135 107.074 12.154 107.685 11.8135 108L0.396423 99.2366Z" fill="#D0D1DA"/>
<path d="M8.60255 100.213C8.56033 100.266 8.26203 100.078 7.84835 100.047C7.43467 100.016 7.11104 100.14 7.07727 100.078C7.0435 100.016 7.37275 99.7571 7.87086 99.7965C8.36897 99.8359 8.64195 100.171 8.60255 100.213Z" fill="#D0D1DA"/>
<path d="M9.40745 101.626C9.3793 101.691 9.06412 101.601 8.69546 101.691C8.3268 101.781 8.07915 101.989 8.02568 101.944C7.97221 101.899 8.17765 101.556 8.63917 101.451C9.1007 101.347 9.44685 101.572 9.40745 101.626Z" fill="#D0D1DA"/>
<path d="M8.98813 103.582C8.92904 103.556 9.06693 103.216 9.44403 103.019C9.82113 102.822 10.1757 102.9 10.1616 102.965C10.1476 103.03 9.86334 103.069 9.5566 103.247C9.24985 103.424 9.05004 103.618 8.98813 103.582Z" fill="#D0D1DA"/>
<path d="M8.67856 100.235C8.67856 100.235 8.70388 100.216 8.7461 100.168C8.80299 100.096 8.85382 100.02 8.89807 99.94C9.06344 99.6444 9.15515 99.3133 9.16541 98.9748C9.16659 98.8629 9.16096 98.751 9.14853 98.6399C9.13657 98.515 9.10325 98.3932 9.05003 98.2797C9.0216 98.215 8.97819 98.1581 8.92339 98.1136C8.89274 98.0881 8.85727 98.0689 8.81908 98.0573C8.78089 98.0457 8.74076 98.0419 8.70107 98.0461C8.62482 98.0637 8.55486 98.1018 8.49879 98.1564C8.44272 98.211 8.40269 98.2799 8.38307 98.3556C8.29206 98.6427 8.2614 98.9454 8.29301 99.2449C8.31044 99.5728 8.43055 99.8868 8.63634 100.143C8.75475 100.266 8.90462 100.354 9.06973 100.399C9.22252 100.438 9.37923 100.46 9.53689 100.463C9.83502 100.485 10.1347 100.462 10.4262 100.396C10.5003 100.375 10.5685 100.338 10.6252 100.286C10.6819 100.234 10.7256 100.17 10.7526 100.098C10.7808 100.024 10.7808 99.943 10.7526 99.8697C10.723 99.8016 10.6728 99.7445 10.6091 99.7064C10.4941 99.6433 10.362 99.6186 10.232 99.6361C10.1205 99.6457 10.0096 99.6617 9.89991 99.6839C9.57027 99.7452 9.25158 99.8552 8.95435 100.01C8.87321 100.051 8.7943 100.096 8.71796 100.145C8.6673 100.182 8.64197 100.202 8.64479 100.205C8.75797 100.161 8.86881 100.111 8.97686 100.055C9.27643 99.9207 9.59247 99.826 9.9168 99.774C10.1261 99.7145 10.3489 99.7233 10.5528 99.7993C10.5981 99.8244 10.633 99.8648 10.651 99.9133C10.6691 99.9619 10.6692 100.015 10.6513 100.064C10.6291 100.118 10.5944 100.167 10.5499 100.206C10.5054 100.244 10.4524 100.272 10.3952 100.286C10.1178 100.344 9.83362 100.363 9.55095 100.342C9.25258 100.359 8.95961 100.258 8.73484 100.061C8.54826 99.8249 8.43916 99.5369 8.42247 99.2365C8.38973 98.9528 8.41559 98.6655 8.49845 98.3922C8.54066 98.274 8.61946 98.1643 8.72077 98.153C8.7737 98.1523 8.8255 98.1683 8.86891 98.1986C8.91232 98.2288 8.94515 98.272 8.96279 98.3219C9.01102 98.425 9.04237 98.5352 9.05566 98.6483C9.07136 98.7545 9.07888 98.8618 9.07817 98.9691C9.07801 99.296 9.00292 99.6185 8.85867 99.9119C8.75173 100.117 8.67012 100.23 8.67856 100.235Z" fill="#D0D1DA"/>
<path d="M3.81844 98.2461C3.77904 98.2714 4.1674 98.8286 4.55013 99.5603C4.64581 99.7432 4.71616 99.9233 4.79777 100.089C4.86319 100.247 4.97506 100.382 5.11859 100.475C5.21852 100.537 5.3384 100.558 5.45348 100.534C5.53509 100.514 5.56604 100.478 5.56323 100.472C5.49561 100.488 5.42549 100.489 5.35723 100.477C5.28897 100.464 5.22403 100.438 5.16643 100.399C5.04799 100.304 4.95672 100.18 4.9019 100.039C4.83436 99.8783 4.76119 99.6869 4.66269 99.5012C4.49939 99.1829 4.31119 98.8781 4.09986 98.5894C4.02272 98.4623 3.92797 98.3467 3.81844 98.2461Z" fill="#D0D1DA"/>
</svg>
