<svg width="48" height="48" viewBox="0 0 48 48" fill="none" xmlns="http://www.w3.org/2000/svg">
<path d="M24.0001 13.308C27.2813 15.8835 29.1958 19.8248 29.1921 23.996C29.1946 28.1658 27.2801 32.1053 24.0001 34.68C20.7195 32.1049 18.805 28.1645 18.8081 23.994C18.805 19.8235 20.7195 15.8831 24.0001 13.308Z" fill="#FF5F00"/>
<path d="M22.26 12.144C18.7909 15.1052 16.7951 19.4389 16.8 24C16.7953 28.559 18.7895 32.891 22.256 35.852C16.5378 39.062 9.34302 37.733 5.14895 32.6919C0.954876 27.6509 0.956728 20.3344 5.15335 15.2954C9.34998 10.2565 16.5454 8.93109 22.262 12.144H22.26Z" fill="#EC001C"/>
<path d="M25.744 35.852C29.2105 32.891 31.2047 28.559 31.2 24C31.2049 19.4389 29.2091 15.1052 25.74 12.144C31.4566 8.93109 38.652 10.2565 42.8486 15.2954C47.0453 20.3344 47.0471 27.6509 42.853 32.6919C38.659 37.733 31.4642 39.062 25.746 35.852H25.744Z" fill="#F79F1B"/>
</svg>
