<svg width="275" height="228" viewBox="0 0 275 228" fill="none" xmlns="http://www.w3.org/2000/svg">
<path d="M22.2121 139.38C21.4499 139.822 20.8678 140.516 20.5672 141.341C20.2666 142.166 20.2665 143.07 20.5671 143.895C19.5878 144.405 19.2806 145.72 19.565 146.777C19.8494 147.833 20.6106 148.703 21.3293 149.525C20.8071 152.047 22.6846 154.81 25.23 155.271C25.6488 157.552 28.0789 158.952 30.3886 159.265C30.9533 159.341 31.5355 159.374 32.056 159.605C32.4242 159.801 32.7797 160.02 33.1204 160.261C35.0739 161.454 37.7921 160.909 39.462 159.34C39.7104 159.071 39.9937 158.835 40.3046 158.64C40.7267 158.412 41.2266 158.394 41.6971 158.273C42.2061 158.147 42.6816 157.913 43.0912 157.587C43.5008 157.262 43.8346 156.851 44.0699 156.385C44.4636 155.596 44.587 154.63 45.2478 154.048C45.5857 153.758 46.0217 153.597 46.3231 153.274C47.1995 152.34 46.4712 150.669 47.2113 149.623C47.3609 149.411 47.5753 149.241 47.733 149.037C48.0775 148.621 48.2587 148.095 48.2431 147.556C48.2307 147.144 48.1028 146.718 48.2492 146.33C48.3958 146.054 48.5779 145.798 48.7909 145.568C49.2364 144.946 48.9258 141.653 48.4981 141.017L30.7947 133.027C30.0566 132.881 29.291 132.967 28.6039 133.272C27.9168 133.578 27.3422 134.088 26.9595 134.732C26.8645 134.964 26.7066 135.164 26.5035 135.311C26.3043 135.387 26.0914 135.421 25.8784 135.411C24.4633 135.518 23.6336 137.02 23.1752 138.356C23.1243 138.549 23.0394 138.731 22.9246 138.894C22.7227 139.102 22.4802 139.268 22.2121 139.38Z" fill="#0E1339"/>
<path d="M241.365 74.4153C230.89 59.0681 211.121 49.892 192.887 53.7971C179.828 56.5909 167.843 65.5124 154.553 64.19C141.263 62.8676 131.288 51.6862 124.34 40.3683C117.392 29.0503 111.718 16.379 101.169 8.27077C85.5255 -3.74252 61.8421 -2.09729 45.9304 9.51245C30.0188 21.1222 21.4293 40.9519 20.2683 60.5705C19.1072 80.1891 24.6379 99.6835 32.4907 117.688C38.0339 130.397 44.8505 142.708 54.2077 152.964C59.1445 158.423 64.8461 163.147 71.1369 166.989L71.0683 166.958C89.171 180.151 127.661 189.55 150.121 189.873C172.752 190.139 194.915 183.455 213.587 170.733C228.949 160.178 241.708 145.365 247.582 127.758C253.456 110.151 251.846 89.7625 241.365 74.4153Z" fill="#F4F5FB"/>
<path d="M274.999 227.838C274.999 227.925 213.431 228 137.506 228C61.5805 228 0 227.925 0 227.838C0 227.751 61.5555 227.676 137.506 227.676C213.456 227.676 274.999 227.745 274.999 227.838Z" fill="#0E1339"/>
<path d="M102.829 227.664C124.824 227.664 142.655 209.93 142.655 188.055C142.655 166.179 124.824 148.445 102.829 148.445C80.8339 148.445 63.0032 166.179 63.0032 188.055C63.0032 209.93 80.8339 227.664 102.829 227.664Z" fill="#00ACE9"/>
<g opacity="0.3">
<path opacity="0.3" d="M69.4143 209.585C73.4531 209.778 76.6679 207.338 78.4969 203.749C80.3259 200.161 80.7067 196.051 81.0562 192.047L82.4795 175.762C82.7229 172.98 82.9789 170.137 84.0713 167.561C85.1637 164.984 87.2361 162.662 89.964 161.973C92.7918 161.284 96.0878 162.376 98.516 160.775C100.832 159.254 101.325 155.907 103.572 154.293C105.963 152.573 109.315 153.467 111.987 154.703C117.131 157.086 121.735 160.482 125.52 164.686C129.303 168.902 132.555 174.129 137.924 175.992C139.497 176.538 141.419 176.687 142.687 175.6C144.559 173.986 143.767 170.957 142.649 168.771C139.505 162.678 135.075 157.332 129.661 153.099C124.247 148.867 117.977 145.847 111.282 144.248C105.183 142.839 98.697 142.665 92.7231 144.533C86.7492 146.402 81.3496 150.45 78.5531 156.025C75.382 162.352 76.9051 169.895 75.6192 176.848C73.553 188.055 71.1809 198.845 69.4206 209.585" fill="#0E1339"/>
</g>
<path d="M127.592 200.72C127.599 200.604 127.617 200.49 127.649 200.378C127.711 200.13 127.792 199.813 127.886 199.429C127.936 199.217 127.998 198.988 128.061 198.739C128.123 198.491 128.161 198.205 128.217 197.914C128.323 197.293 128.485 196.672 128.56 195.883C128.604 195.505 128.654 195.114 128.71 194.704C128.766 194.294 128.766 193.86 128.797 193.413C128.878 192.519 128.86 191.55 128.86 190.557C128.796 188.378 128.537 186.208 128.086 184.075C127.604 181.952 126.938 179.875 126.094 177.867C125.676 176.954 125.295 176.072 124.846 175.296C124.627 174.905 124.44 174.514 124.222 174.16L123.597 173.142C123.21 172.484 122.786 171.938 122.443 171.441C122.268 171.193 122.112 170.957 121.949 170.752L121.506 170.199L120.882 169.423C120.806 169.335 120.739 169.239 120.682 169.138C120.774 169.209 120.858 169.29 120.932 169.38L121.587 170.119L122.056 170.659C122.224 170.857 122.386 171.087 122.567 171.329C122.929 171.826 123.373 172.36 123.772 173.018L124.396 174.036C124.621 174.39 124.815 174.775 125.021 175.172C125.476 175.948 125.87 176.83 126.269 177.749C128.043 181.794 128.991 186.15 129.059 190.563C129.059 191.581 129.059 192.543 128.966 193.444C128.928 193.891 128.916 194.325 128.86 194.741C128.803 195.157 128.741 195.548 128.685 195.933C128.597 196.691 128.423 197.367 128.298 197.963C128.229 198.255 128.173 198.535 128.111 198.789L127.905 199.472C127.786 199.851 127.692 200.161 127.617 200.409C127.621 200.514 127.613 200.618 127.592 200.72Z" fill="white"/>
<path d="M125.982 205.935C125.321 208.127 124.151 210.135 122.567 211.795C122.492 211.739 123.404 210.516 124.34 208.902C125.277 207.288 125.895 205.897 125.982 205.935Z" fill="white"/>
<path d="M92.7795 150.568C93.0666 151.381 93.2102 152.244 93.5036 153.051C93.7595 153.886 94.312 154.598 95.0579 155.057C95.4364 155.271 95.879 155.344 96.3066 155.263C96.7343 155.182 97.1192 154.953 97.3925 154.616C97.5983 154.246 97.7138 153.834 97.7296 153.412C97.8314 152.459 97.8773 151.501 97.867 150.543C97.919 149.931 97.7677 149.318 97.4362 148.799C97.2143 148.557 96.9357 148.374 96.6253 148.266C96.3148 148.157 95.9822 148.127 95.6572 148.178C95.0078 148.285 94.3862 148.52 93.8282 148.867C93.2703 149.217 92.6759 149.507 92.0554 149.73" fill="#00ACE9"/>
<g opacity="0.5">
<path opacity="0.5" d="M92.7785 150.568C93.0656 151.381 93.2092 152.244 93.5026 153.051C93.7585 153.886 94.311 154.598 95.0569 155.057C95.4354 155.271 95.878 155.344 96.3057 155.263C96.7333 155.182 97.1182 154.953 97.3916 154.616C97.5973 154.246 97.7128 153.834 97.7286 153.412C97.8304 152.459 97.8763 151.501 97.866 150.543C97.918 149.931 97.7667 149.318 97.4353 148.799C97.2134 148.557 96.9347 148.374 96.6243 148.266C96.3138 148.157 95.9812 148.127 95.6562 148.178C95.0068 148.285 94.3852 148.52 93.8272 148.867C93.2693 149.217 92.6749 149.507 92.0544 149.73" fill="#0E1339"/>
</g>
<path d="M79.5327 156.416L102.223 148.252L114.477 153.393L127.255 131.216L123.354 117.589L86.1433 118.371L75.007 118.731L57.9842 126.877L64.3389 148.792L62.4037 157.838L79.5327 156.416Z" fill="#A2675F"/>
<path d="M64.1771 148.153C86.8742 143.149 82.979 155.181 83.1787 155.106C86.3656 154.924 89.56 155.298 92.6171 156.212C99.0405 158.354 97.767 149.792 97.767 149.792C97.767 149.792 97.817 156.392 94.4586 154.306C91.1002 152.22 92.5859 118.297 92.5859 118.297H86.1438C80.3572 113.951 75.0075 118.725 75.0075 118.725L58.2781 127.883L58.8524 129.807C58.8524 129.807 67.2359 125.828 70.2571 133.905C73.3783 142.236 63.634 146.322 63.634 146.322L64.1771 148.153Z" fill="#0064A7"/>
<path d="M109.165 128.92C109.165 129.007 108.853 129.063 108.485 129.038C108.117 129.013 107.811 128.926 107.817 128.833C107.823 128.739 108.129 128.689 108.504 128.714C108.878 128.739 109.172 128.826 109.165 128.92Z" fill="#6F4C47"/>
<path d="M86.2686 142.795C86.2249 142.752 86.7555 142.298 87.3298 141.367C88.0661 140.166 88.3678 138.751 88.185 137.356C87.9952 136.13 87.4508 134.984 86.6182 134.06C86.1512 133.535 85.6207 133.07 85.0389 132.675C84.914 132.601 84.8641 132.564 84.8704 132.551C84.8766 132.539 84.939 132.551 85.0701 132.601C85.7215 132.919 86.3078 133.355 86.7992 133.886C87.7035 134.824 88.2962 136.016 88.4971 137.301C88.6953 138.781 88.3375 140.282 87.4921 141.516C87.2444 141.887 86.9531 142.226 86.6244 142.528C86.4247 142.714 86.3123 142.807 86.2686 142.795Z" fill="#0E1339"/>
<path d="M102.136 143.869C102.39 145.4 102.428 146.959 102.249 148.501C102.067 147.743 101.994 146.963 102.03 146.185C101.959 145.412 101.995 144.633 102.136 143.869Z" fill="#6F4C47"/>
<path d="M75.1196 118.588C75.207 118.588 75.9623 124.989 76.805 132.899C77.6477 140.808 78.2595 147.234 78.1721 147.246C78.0847 147.259 77.3231 140.846 76.4804 132.936C75.6377 125.026 75.0259 118.601 75.1196 118.588Z" fill="white"/>
<path d="M76.0498 147.29C75.9624 147.29 75.1259 141.181 74.1771 133.631C73.2283 126.082 72.5478 119.936 72.6352 119.923C72.7226 119.911 73.5591 126.032 74.5079 133.582C75.4568 141.131 76.1372 147.29 76.0498 147.29Z" fill="white"/>
<path d="M62.4042 157.776L55.1756 223.157C55.1756 223.157 45.7809 226.261 44.3514 227.838H65.0509C65.8874 227.217 81.3746 155.485 81.3746 155.485L62.4042 157.776Z" fill="#A2675F"/>
<path d="M77.0549 161.123C77.0549 161.123 76.9113 161.011 76.7053 160.769C76.4176 160.42 76.1626 160.046 75.9438 159.651C75.2167 158.335 74.8507 156.851 74.8825 155.349C74.9143 153.848 75.3427 152.381 76.1248 151.096C76.3613 150.711 76.6307 150.348 76.9301 150.009C77.1485 149.774 77.2796 149.662 77.2983 149.674C77.3171 149.687 76.8614 150.227 76.3245 151.208C75.6209 152.48 75.2374 153.903 75.207 155.355C75.1766 156.807 75.5 158.245 76.1498 159.546C76.6429 160.545 77.0986 161.085 77.0549 161.123Z" fill="#6F4C47"/>
<path d="M75.0078 118.731L73.2475 110.983L76.8118 54.8901C76.7057 51.2458 76.2875 48.75 76.3436 46.3597C76.4186 43.4045 76.2375 42.1877 75.682 42.2063C74.9391 42.2063 75.2263 42.2063 74.3274 47.5393C74.3274 47.5393 75.5446 39.8968 73.9716 41.3309C73.2724 41.9518 72.1987 48.3154 72.1987 48.3154C73.5346 43.299 73.2412 41.2005 72.4672 41.0391C71.3436 40.8094 70.1013 48.4892 70.1013 48.4892C70.1013 48.4892 71.1688 42.6285 71.0314 41.5482C70.8941 40.4679 69.989 41.4241 69.4584 42.4298C68.8716 43.5597 66.3809 50.6063 65.5507 52.6054C65.5055 52.7849 65.4205 52.9521 65.302 53.0947C65.1834 53.2373 65.0343 53.3518 64.8656 53.4298C64.6969 53.5077 64.5128 53.5472 64.3267 53.5453C64.1407 53.5434 63.9574 53.5001 63.7903 53.4187C61.1436 51.7114 58.1723 51.7859 57.3732 52.177C56.5742 52.5682 56.8614 53.7912 57.8352 53.9402C58.8691 54.2056 59.8623 54.6087 60.7878 55.1385C61.5415 55.5362 62.223 56.0566 62.8041 56.6781C63.4782 57.4045 64.0151 58.044 64.4583 58.5965L57.6292 109.953C57.6292 109.953 55.1322 120.507 58.1098 127.255" fill="#A2675F"/>
<path d="M73.7779 50.5443C73.9152 50.5443 74.2585 48.9363 74.5519 46.9061C74.8453 44.876 74.9639 43.2121 74.8266 43.1811C74.6893 43.15 74.3459 44.7953 74.0588 46.8192C73.7716 48.8432 73.6468 50.5194 73.7779 50.5443Z" fill="#6F4C47"/>
<path d="M71.68 50.4387C71.8111 50.4387 72.3042 48.75 72.7162 46.6081C73.1282 44.4662 73.4029 42.7092 73.2718 42.6844C73.1407 42.6596 72.6476 44.3669 72.2356 46.5088C71.8236 48.6507 71.5427 50.389 71.68 50.4387Z" fill="#6F4C47"/>
<path d="M69.5013 50.2711C69.6324 50.3022 70.1255 48.6818 70.5437 46.6641C70.962 44.6463 71.2366 42.9825 71.1055 42.939C70.9745 42.8955 70.4813 44.5221 70.0568 46.5461C69.6324 48.57 69.3639 50.2401 69.5013 50.2711Z" fill="#6F4C47"/>
<path d="M70.3318 111.591C70.702 112.995 71.2583 114.344 71.986 115.602C72.8072 116.804 73.7878 117.89 74.9011 118.83C74.5031 118.656 74.1395 118.412 73.8275 118.11C73.0084 117.442 72.3042 116.645 71.7425 115.751C71.1682 114.862 70.7463 113.884 70.4941 112.858C70.3657 112.449 70.3108 112.02 70.3318 111.591Z" fill="#6F4C47"/>
<path d="M68.8339 135.531C69.5034 137.371 69.4145 139.399 68.5866 141.174C67.7587 142.948 66.259 144.326 64.4144 145.005L35.0755 155.808C34.5054 156.017 33.877 156.006 33.315 155.776C32.7531 155.546 32.2986 155.114 32.0417 154.566L26.948 143.714C26.5327 142.828 26.3019 141.869 26.2695 140.892C26.2371 139.915 26.4039 138.943 26.7596 138.032C27.1154 137.121 27.6529 136.291 28.3397 135.593C29.0265 134.894 29.8484 134.341 30.7558 133.967C35.0068 132.216 40.2691 130.242 43.6899 129.621C50.5564 128.429 53.1158 133.116 53.1158 133.116L59.483 131.011C61.3257 130.4 63.3355 130.529 65.0845 131.369C66.8334 132.21 68.1832 133.697 68.8464 135.513L68.8339 135.531Z" fill="#A2675F"/>
<path d="M35.3501 134.668C35.567 134.59 35.8063 134.6 36.0156 134.697C36.2249 134.793 36.3874 134.968 36.4675 135.184C36.5124 135.286 36.5362 135.397 36.5375 135.508C36.5389 135.62 36.5177 135.731 36.4752 135.835C36.4327 135.938 36.3699 136.032 36.2903 136.111C36.2107 136.191 36.116 136.253 36.0118 136.295C35.7947 136.372 35.556 136.362 35.3462 136.267C35.1364 136.172 34.9722 135.999 34.8882 135.786C34.8433 135.682 34.8197 135.571 34.8188 135.459C34.8178 135.346 34.8395 135.234 34.8825 135.13C34.9255 135.026 34.9891 134.932 35.0694 134.852C35.1497 134.773 35.2451 134.71 35.3501 134.668Z" fill="#0E1339"/>
<path d="M33.9266 134.172C34.0702 134.24 33.8142 135.028 34.1264 135.922C34.4385 136.816 35.1126 137.319 35.0377 137.456C34.9628 137.592 34.7756 137.456 34.4634 137.269C34.0651 136.98 33.7646 136.578 33.602 136.115C33.4489 135.647 33.4489 135.142 33.602 134.674C33.6894 134.296 33.8767 134.14 33.9266 134.172Z" fill="#0E1339"/>
<path d="M38.2466 143.565C38.4646 143.49 38.7033 143.502 38.9128 143.598C39.1222 143.694 39.2862 143.867 39.3702 144.08C39.4144 144.183 39.4376 144.294 39.4386 144.406C39.4396 144.518 39.4183 144.629 39.3759 144.733C39.3336 144.837 39.271 144.932 39.1918 145.011C39.1127 145.091 39.0184 145.154 38.9145 145.198C38.6967 145.275 38.4573 145.264 38.2474 145.167C38.0375 145.071 37.8737 144.897 37.7909 144.683C37.7468 144.579 37.7235 144.469 37.7226 144.357C37.7216 144.245 37.7429 144.133 37.7852 144.03C37.8276 143.926 37.8901 143.831 37.9693 143.752C38.0485 143.672 38.1427 143.608 38.2466 143.565Z" fill="#0E1339"/>
<path d="M37.1288 142.944C37.2724 143.012 37.0227 143.807 37.3286 144.695C37.6345 145.583 38.3211 146.048 38.2462 146.197C38.1713 146.346 37.984 146.228 37.6719 146.011C37.2683 145.717 36.9671 145.304 36.8105 144.831C36.6574 144.363 36.6574 143.859 36.8105 143.391C36.8979 143.043 37.0602 142.882 37.1288 142.944Z" fill="#0E1339"/>
<path d="M42.6845 137.387C42.3704 136.969 42.1123 136.512 41.9166 136.028C41.8168 135.804 41.6919 135.606 41.5234 135.618C41.2821 135.683 41.0652 135.817 40.8991 136.003L39.3823 137.276C37.2162 139.064 35.3997 140.442 35.331 140.38C35.2623 140.318 36.954 138.772 39.1263 136.984L40.6619 135.742C40.8893 135.503 41.1944 135.351 41.5234 135.314C41.616 135.32 41.7061 135.347 41.7871 135.392C41.8681 135.437 41.9379 135.499 41.9916 135.575C42.0688 135.691 42.1317 135.816 42.1788 135.947C42.4063 136.405 42.5761 136.889 42.6845 137.387Z" fill="#0E1339"/>
<path d="M53.1219 133.135C54.2203 136.175 54.4515 139.458 53.7898 142.621C53.7898 142.621 57.5976 139.033 54.7511 132.744L53.1219 133.135Z" fill="#6F4C47"/>
<path d="M44.9821 137.028C44.825 137.271 44.7333 137.551 44.7158 137.84C44.6983 138.129 44.7556 138.418 44.8822 138.679C44.9686 138.87 45.0927 139.042 45.2471 139.185C45.4014 139.328 45.583 139.439 45.7811 139.511C45.9718 139.58 46.1793 139.588 46.375 139.535C46.5707 139.481 46.7449 139.369 46.8735 139.213C46.9878 139.015 47.0389 138.787 47.0199 138.56C47.001 138.333 46.9129 138.117 46.7674 137.94C46.4721 137.567 46.105 137.257 45.6875 137.028C45.5798 136.953 45.4592 136.898 45.3317 136.866C45.2717 136.849 45.2078 136.85 45.1486 136.87C45.0895 136.89 45.0379 136.928 45.0008 136.978" fill="#6F4C47"/>
<path d="M44.2141 139.84C44.1579 139.697 45.1317 139.362 45.5375 138.294C45.9432 137.226 45.4813 136.233 45.6124 136.177C45.7435 136.121 45.887 136.344 46.0493 136.798C46.2564 137.363 46.2564 137.983 46.0493 138.548C45.8511 139.094 45.4453 139.54 44.9195 139.79C44.4888 139.908 44.2328 139.883 44.2141 139.84Z" fill="#0E1339"/>
<path d="M35.4122 143.05C35.6868 143.05 35.8804 143.987 36.3673 144.999C36.8542 146.011 37.4409 146.756 37.2661 146.967C37.185 147.067 36.9041 146.967 36.5483 146.738C36.0996 146.379 35.7384 145.924 35.4919 145.407C35.2454 144.89 35.1199 144.324 35.125 143.751C35.1562 143.311 35.2811 143.05 35.4122 143.05Z" fill="#0E1339"/>
<path d="M31.4295 135.388C31.6917 135.475 31.6917 136.164 31.9352 136.91C32.1786 137.655 32.5594 138.238 32.3846 138.455C32.3034 138.549 32.06 138.524 31.7604 138.313C31.3962 138.028 31.13 137.637 30.9988 137.195C30.8603 136.757 30.8603 136.286 30.9988 135.848C31.1299 135.494 31.3109 135.357 31.4295 135.388Z" fill="#0E1339"/>
<path d="M43.3091 151.431C43.0407 152.561 43.9333 154.318 45.0944 154.61C45.6661 154.732 46.2624 154.668 46.7944 154.426C47.3264 154.185 47.7657 153.779 48.047 153.269C48.5963 152.245 48.7586 151.444 48.047 150.5" fill="#A2675F"/>
<path d="M214.86 205.649C215.202 205.902 215.483 206.227 215.685 206.601C215.887 206.974 216.004 207.387 216.028 207.81C216.07 208.655 215.936 209.501 215.634 210.293C213.762 215.881 208.618 219.786 203.181 222.089C200.004 223.43 196.383 224.349 193.125 223.213C192.145 222.871 191.127 222.213 190.977 221.195C190.95 220.541 191.118 219.893 191.458 219.332C193.129 215.847 195.422 212.692 198.225 210.02C201.043 207.334 204.515 205.424 208.3 204.476C210.46 203.967 212.981 203.917 214.629 205.401" fill="#45496B"/>
<path d="M206.271 201.887C206.271 201.887 216.009 211.74 218.131 215.229C220.253 218.718 222.432 227.838 222.432 227.838L206.339 227.292L207.432 217.495L198.942 210.368L202.063 204.78C203.362 202.415 206.271 201.887 206.271 201.887Z" fill="#A2675F"/>
<path d="M208.662 217.793L206.789 223.697C206.789 223.697 203.612 224.063 203.705 225.255C203.799 226.447 203.886 227.832 203.886 227.832H222.457L208.662 217.793Z" fill="#A2675F"/>
<path d="M174.148 168.901C176.563 170.609 173.13 163.798 171.095 161.122C169.685 159.321 168.571 157.31 167.793 155.162L176.37 137.282L164.778 131.583L155.502 150.177C155.235 150.505 155.096 150.918 155.109 151.339C155.123 151.761 155.289 152.164 155.577 152.474L174.148 168.901Z" fill="#A2675F"/>
<path d="M123.254 117.539L137.705 112.864L172.493 102.273C174.862 101.551 177.394 101.557 179.758 102.29C182.123 103.023 184.21 104.45 185.746 106.383C187.296 108.33 188.214 110.701 188.375 113.18C188.537 115.659 187.936 118.128 186.651 120.258L179.035 150.146C177.788 150.773 176.341 150.885 175.012 150.456C173.682 150.026 172.577 149.092 171.938 147.855L171.145 146.315C169.917 144.486 168.148 143.082 166.082 142.297C164.017 141.512 161.757 141.384 159.615 141.932L164.984 126.225L140.639 139.784L125.439 132.427L123.254 117.539Z" fill="#0E1339"/>
<path d="M143.061 141.162L215.303 205.953L213.306 206.301C211.068 206.366 208.912 207.148 207.159 208.533C205.406 209.917 204.151 211.828 203.58 213.981C202.944 216.383 201.457 218.476 199.392 219.873C197.327 221.271 194.824 221.879 192.344 221.586L191.052 221.431C147.724 182.057 115.788 152.431 117.099 153.902L128.803 129.851L143.061 141.162Z" fill="#0E1339"/>
<path d="M119.29 117.906C119.29 117.906 121.849 138.015 113.291 152.673L119.015 155.373L134.309 134.544L128.878 115.695L119.29 117.906Z" fill="#0E1339"/>
<path d="M121.812 117.328C121.842 117.455 121.861 117.583 121.869 117.713C121.869 117.999 121.937 118.365 121.981 118.818C122.087 119.818 122.231 121.196 122.405 122.879C122.58 124.561 122.811 126.635 122.861 128.919C122.915 131.401 122.739 133.882 122.337 136.332C121.68 140.804 120.198 145.116 117.967 149.053C117.278 150.234 116.5 151.361 115.639 152.424C115.333 152.797 115.071 153.045 114.902 153.263C114.823 153.365 114.731 153.457 114.628 153.536C114.695 153.424 114.772 153.318 114.859 153.219C115.008 153.014 115.252 152.735 115.539 152.344C116.357 151.26 117.102 150.124 117.767 148.942C119.921 145.003 121.36 140.718 122.018 136.283C122.414 133.851 122.596 131.389 122.562 128.926C122.562 126.653 122.324 124.617 122.181 122.897C122.037 121.177 121.912 119.793 121.856 118.831C121.825 118.346 121.812 117.974 121.806 117.719C121.794 117.589 121.796 117.458 121.812 117.328Z" fill="#45496B"/>
<path d="M120.857 133.52C120.788 133.482 120.724 133.434 120.67 133.377C120.508 133.225 120.356 133.063 120.214 132.893C119.68 132.262 119.258 131.547 118.966 130.775C118.865 130.521 118.782 130.259 118.716 129.993C118.626 129.689 118.626 129.366 118.716 129.062C118.775 128.888 118.885 128.736 119.032 128.625C119.179 128.514 119.356 128.45 119.54 128.441C119.732 128.449 119.919 128.507 120.081 128.61C120.243 128.712 120.375 128.855 120.464 129.025C120.628 129.355 120.727 129.713 120.757 130.08C120.807 130.434 120.839 130.8 120.857 131.173C120.891 131.941 120.872 132.711 120.801 133.476C120.726 134.265 120.614 135.022 120.483 135.755C120.408 136.115 120.339 136.475 120.271 136.822C120.219 137.184 120.1 137.534 119.921 137.853C119.825 138.018 119.687 138.155 119.522 138.252C119.357 138.349 119.17 138.402 118.978 138.406C118.78 138.408 118.588 138.334 118.442 138.201C118.31 138.069 118.228 137.895 118.211 137.71C118.195 137.397 118.255 137.084 118.385 136.798C118.485 136.537 118.598 136.289 118.716 136.053C119.074 135.318 119.525 134.631 120.058 134.01C120.238 133.777 120.448 133.568 120.683 133.389C119.989 134.246 119.395 135.176 118.91 136.164C118.804 136.394 118.697 136.642 118.604 136.903C118.497 137.152 118.45 137.422 118.467 137.692C118.475 137.815 118.531 137.93 118.623 138.012C118.715 138.094 118.836 138.138 118.96 138.132C119.102 138.127 119.24 138.085 119.362 138.011C119.483 137.937 119.583 137.834 119.653 137.71C119.835 137.411 119.96 137.08 120.021 136.736C120.083 136.388 120.152 136.034 120.221 135.674C120.345 134.948 120.458 134.196 120.526 133.42C120.597 132.669 120.617 131.914 120.589 131.16C120.589 130.8 120.545 130.44 120.495 130.093C120.478 129.765 120.395 129.444 120.252 129.149C120.191 129.023 120.097 128.915 119.981 128.835C119.865 128.756 119.73 128.708 119.59 128.696C119.461 128.706 119.338 128.754 119.235 128.833C119.133 128.913 119.057 129.02 119.016 129.143C118.912 129.665 118.98 130.207 119.209 130.689C119.473 131.445 119.852 132.157 120.333 132.799C120.645 133.271 120.876 133.501 120.857 133.52Z" fill="#45496B"/>
<path d="M176.707 175.849C176.828 175.947 176.941 176.055 177.045 176.171L177.956 177.134C178.736 177.984 179.829 179.22 181.177 180.803C184.624 184.94 187.791 189.3 190.659 193.853C192.326 196.523 193.874 199.087 195.091 201.539C195.673 202.704 196.093 203.943 196.34 205.221C196.557 206.345 196.506 207.504 196.19 208.604C195.97 209.401 195.58 210.142 195.047 210.776C194.514 211.411 193.85 211.923 193.1 212.28C192.688 212.462 192.246 212.57 191.795 212.596H191.333C191.926 212.564 192.507 212.426 193.05 212.186C193.674 211.89 194.229 211.467 194.679 210.945C195.277 210.251 195.717 209.438 195.971 208.561C196.26 207.493 196.295 206.372 196.071 205.289C195.821 204.04 195.401 202.83 194.823 201.694C193.605 199.279 192.051 196.727 190.391 194.052C187.535 189.523 184.409 185.169 181.027 181.014C179.735 179.412 178.643 178.158 177.906 177.289L177.038 176.283C176.914 176.149 176.804 176.004 176.707 175.849Z" fill="#45496B"/>
<path d="M202.532 203.96C202.659 204.361 202.695 204.786 202.638 205.202C202.578 206.202 202.313 207.179 201.859 208.073C201.405 208.967 200.771 209.758 199.997 210.399C199.693 210.677 199.334 210.889 198.942 211.019C199.226 210.733 199.526 210.464 199.841 210.212C200.544 209.547 201.129 208.769 201.57 207.909C202.007 207.049 202.292 206.121 202.413 205.165C202.431 204.762 202.471 204.36 202.532 203.96Z" fill="#45496B"/>
<path d="M218.65 224.206C218.055 224.172 217.463 224.101 216.877 223.995C215.456 223.804 214.027 223.684 212.595 223.635C210.922 223.585 209.405 223.635 208.306 223.722C207.714 223.795 207.117 223.828 206.521 223.821C207.093 223.647 207.684 223.538 208.281 223.498C211.156 223.161 214.066 223.251 216.914 223.765C217.509 223.842 218.091 223.99 218.65 224.206Z" fill="#6F4C47"/>
<path d="M212.057 215.844C211.348 216.275 210.584 216.61 209.785 216.837C209.027 217.171 208.227 217.403 207.407 217.526C208.116 217.101 208.878 216.767 209.672 216.533C210.436 216.206 211.237 215.974 212.057 215.844Z" fill="#6F4C47"/>
<path d="M170.365 113.057C170.071 113.738 169.742 114.403 169.378 115.05C168.754 116.291 167.961 117.986 167.206 119.936C166.564 121.6 166.005 123.295 165.533 125.014C165.165 126.33 164.965 127.156 164.909 127.15C164.896 126.941 164.917 126.731 164.971 126.529C165.027 126.15 165.14 125.604 165.296 124.933C165.71 123.186 166.242 121.469 166.888 119.793C167.534 118.118 168.296 116.49 169.166 114.919C169.497 114.298 169.79 113.839 169.996 113.516C170.098 113.347 170.222 113.193 170.365 113.057Z" fill="#45496B"/>
<path d="M165.889 116.13C165.983 116.13 165.577 118.03 165.484 120.383C165.39 122.736 165.627 124.648 165.527 124.66C165.382 124.261 165.296 123.843 165.271 123.419C165.154 122.407 165.116 121.388 165.159 120.37C165.2 119.352 165.323 118.339 165.527 117.341C165.581 116.92 165.703 116.511 165.889 116.13Z" fill="#45496B"/>
<path d="M152.341 150.013C152.113 149.828 151.904 149.62 151.717 149.393L150.025 147.667C148.59 146.22 146.561 144.271 144.201 142.247C141.842 140.223 139.594 138.522 137.959 137.317L135.993 135.914C135.743 135.754 135.509 135.571 135.293 135.368C135.563 135.493 135.822 135.641 136.068 135.809C136.554 136.1 137.247 136.554 138.096 137.131C140.292 138.642 142.407 140.267 144.432 141.998C146.454 143.732 148.382 145.573 150.206 147.511C150.906 148.256 151.455 148.871 151.829 149.306C152.02 149.527 152.191 149.764 152.341 150.013Z" fill="#45496B"/>
<path d="M171.827 47.3253L173.194 44.2908L175.025 47.0582C176.488 49.2841 178.564 51.0451 181.005 52.1319L184.056 53.4913L181.273 55.312C179.029 56.7604 177.256 58.8268 176.172 61.2596L174.805 64.294L172.974 61.5266C171.507 59.2944 169.422 57.5322 166.97 56.453L163.943 55.0935L166.726 53.2728C168.964 51.8171 170.735 49.7528 171.827 47.3253Z" fill="#E6E8F3"/>
<path d="M136.485 23.8834L138.305 19.8424L140.743 23.5602C142.702 26.516 145.463 28.8589 148.707 30.3168L152.77 32.0949L149.032 34.5195C146.064 36.4869 143.711 39.2421 142.238 42.4723L140.418 46.5134L137.98 42.7956C136.021 39.8397 133.26 37.4969 130.016 36.039L125.953 34.2285L129.691 31.8039C132.663 29.8558 135.019 27.1094 136.485 23.8834Z" fill="#E6E8F3"/>
<path d="M142.397 72.9757L143.299 70.9617L144.527 72.8124C145.503 74.2959 146.888 75.4676 148.514 76.1871L150.535 77.0852L148.678 78.3099C147.189 79.2812 146.013 80.6611 145.292 82.2833L144.364 84.2972L143.162 82.4466C142.173 80.9751 140.792 79.8067 139.175 79.0719L137.127 78.1738L138.984 76.9491C140.481 75.9782 141.665 74.5989 142.397 72.9757Z" fill="#E6E8F3"/>
<path d="M17.5183 159.378C17.0394 159.553 16.5264 159.615 16.0194 159.559C15.5124 159.504 15.0252 159.333 14.5957 159.059C14.2525 158.833 13.9034 158.529 13.4911 158.562C13.1957 158.587 12.9483 158.784 12.679 158.905C12.4697 158.987 12.246 159.026 12.0212 159.019C11.7965 159.013 11.5753 158.962 11.3709 158.869C11.1665 158.776 10.983 158.643 10.8313 158.478C10.6797 158.313 10.563 158.119 10.4883 157.908C10.4508 157.689 10.3768 157.478 10.2691 157.283C9.7342 156.559 8.28049 157.515 7.75229 156.785C8.13721 156.819 8.52347 156.736 8.86031 156.548C9.02541 156.449 9.1525 156.299 9.22117 156.12C9.28985 155.941 9.29612 155.745 9.23899 155.562C8.8554 154.647 7.10398 155.422 6.6002 154.562C6.32637 154.102 6.6057 153.392 6.1929 153.052C6.01621 152.943 5.82171 152.866 5.61821 152.824C5.29546 152.693 5.03463 152.445 4.8881 152.13C4.74158 151.815 4.72021 151.457 4.8283 151.127C5.03608 150.57 5.6246 150.054 5.39681 149.513C5.25722 149.172 4.8632 149.025 4.51202 148.915C4.75938 148.432 5.11496 148.012 5.55134 147.688C5.25681 147.216 5.15738 146.65 5.27394 146.108C5.39049 145.565 5.71397 145.088 6.17639 144.778C5.88381 144.259 5.69444 143.689 5.61861 143.099C5.58413 142.506 5.82648 141.854 6.35433 141.578C6.48078 141.528 6.59955 141.461 6.70712 141.378C6.8054 141.268 6.87202 141.133 6.89997 140.989C7.04072 140.443 7.05846 139.854 7.32325 139.356C7.58804 138.858 8.23975 138.487 8.72558 138.776C8.83887 138.844 8.94984 138.946 9.08187 138.93C9.13048 138.919 9.17634 138.899 9.21666 138.87C9.25699 138.84 9.29094 138.803 9.31645 138.761C9.52899 138.414 9.6844 138.036 9.77681 137.641C9.87328 137.242 10.1174 136.895 10.4604 136.668C10.8206 136.478 11.3696 136.618 11.458 137.013L11.856 135.112C11.936 134.734 12.0661 134.297 12.4315 134.169C12.9123 134.003 13.3682 134.54 13.4211 135.042C13.474 135.544 13.3082 136.053 13.3773 136.551C13.4259 136.752 13.4528 136.957 13.4576 137.162C13.417 137.321 13.4151 137.486 13.4522 137.645C13.5904 137.938 14.0948 137.797 14.2083 137.489C14.3217 137.181 14.198 136.847 14.1238 136.527C14.0496 136.206 14.0612 135.809 14.3372 135.628C14.4691 135.541 14.6416 135.527 14.7718 135.437C15.2228 135.126 14.7957 134.399 14.9624 133.878C15.0855 133.492 15.5091 133.295 15.8929 133.165C16.364 133.006 17.0981 133.052 17.1002 133.544C17.0695 133.712 17.028 133.878 16.9758 134.041C16.9793 134.243 17.0313 134.44 17.1275 134.617C17.3141 135.083 17.3589 135.593 17.2565 136.084C17.1088 135.441 17.012 134.637 17.5303 134.234C17.7687 134.09 18.0279 133.984 18.2986 133.918C18.8104 133.733 19.2455 133.38 19.757 133.187C20.2685 132.994 20.9385 133.014 21.2477 133.467C21.2895 133.195 21.4222 132.945 21.6245 132.758C21.8267 132.571 22.0866 132.457 22.3621 132.435C22.6375 132.413 22.9123 132.484 23.1419 132.637C23.3716 132.79 23.5425 133.015 23.6272 133.277C23.6541 133.425 23.7123 133.565 23.7979 133.688C23.9217 133.793 24.0723 133.862 24.2331 133.887C24.7013 134.025 25.122 134.29 25.4489 134.65C25.7758 135.011 25.9963 135.455 26.086 135.932L25.5732 135.871C26.378 136.4 27.2122 136.961 27.687 137.798C28.1618 138.634 28.1472 139.827 27.3924 140.425C27.0639 140.682 26.5845 140.879 26.555 141.294C26.5322 141.579 26.7481 141.823 26.9522 142.028L29.4877 144.593C29.8992 145.009 30.3276 145.454 30.4558 146.023C30.5839 146.592 30.2742 147.301 29.6945 147.375C29.6983 147.965 29.8714 148.542 30.1933 149.038C30.5458 149.589 31.079 150.016 31.4641 150.551C31.8492 151.086 32.0759 151.827 31.7448 152.405C31.4138 152.984 30.3749 153.032 30.1766 152.406C29.8218 153.335 31.3847 154.165 31.0875 155.115C30.8443 155.886 29.7399 155.807 28.9958 156.127C28.9696 156.423 29.1462 156.707 29.1301 157.004C29.0952 157.625 28.3008 157.88 27.6756 157.873C27.0503 157.866 26.3071 157.808 25.9159 158.294C25.5248 158.779 25.6863 159.659 25.1444 160.003C24.9908 160.092 24.8092 160.121 24.6353 160.083C24.4615 160.046 24.308 159.945 24.2052 159.801C23.2931 160.628 21.7337 158.912 20.7014 159.571C20.6164 159.62 20.5506 159.696 20.5147 159.787C20.4898 159.869 20.4886 159.957 20.5113 160.039C20.5957 160.431 20.8694 160.749 21.0454 161.106C21.2214 161.463 21.2813 161.949 20.9822 162.219C20.6831 162.489 20.056 162.168 20.2412 161.814C20.11 161.842 19.9743 161.839 19.8443 161.806C19.7144 161.774 19.5936 161.712 19.4911 161.626C19.3886 161.54 19.3071 161.432 19.2529 161.31C19.1986 161.189 19.1729 161.056 19.1778 160.923C18.7829 161.1 18.2984 160.859 18.0601 160.498C17.8509 160.116 17.735 159.69 17.7216 159.256" fill="#0E1339"/>
<path d="M18.2117 145.686C17.8443 147.319 18.3873 149.032 19.1783 150.511C19.5106 151.132 19.9032 151.748 20.4943 152.151C21.0854 152.554 21.9072 152.649 22.4844 152.245L22.8889 151.142C23.8084 149.512 23.1552 147.489 23.2621 145.625C23.3079 144.814 23.468 143.888 22.912 143.282C22.6084 142.975 22.2007 142.792 21.7686 142.769C20.0971 142.595 18.5774 144.05 18.2117 145.686Z" fill="#0064A7"/>
<path d="M45.6116 149.938C44.5668 150.097 43.741 150.568 43.366 151.55C42.8882 151.161 42.0344 151.615 41.5131 151.949C40.9917 152.284 40.5009 152.35 40.28 152.927C40.246 153.044 40.183 153.151 40.0969 153.238C39.9265 153.33 39.7272 153.355 39.5394 153.306C39.045 153.258 38.5466 153.335 38.09 153.53C37.6335 153.724 37.2334 154.03 36.9267 154.418C36.215 153.663 35.3259 153.096 34.3393 152.766C34.2595 152.37 34.0802 152.001 33.8179 151.693C33.5557 151.384 33.2191 151.147 32.8397 151.004C32.4603 150.86 32.0504 150.814 31.6484 150.871C31.2464 150.927 30.8654 151.084 30.541 151.327C30.51 151.022 30.4134 150.727 30.2578 150.462C30.1021 150.197 29.891 149.968 29.6388 149.792C29.1322 149.441 28.5768 149.166 27.9903 148.976C28.3335 148.472 28.4823 147.862 28.4094 147.258C28.3366 146.655 28.0469 146.097 27.5938 145.689C27.468 145.585 27.3206 145.467 27.3133 145.305C27.306 145.143 27.4511 145.002 27.5725 144.871C27.7504 144.671 27.8861 144.438 27.9715 144.185C28.057 143.932 28.0904 143.665 28.0699 143.399C28.0494 143.133 27.9753 142.874 27.852 142.637C27.7287 142.4 27.5588 142.19 27.3524 142.019C28.2387 141.791 28.6855 140.576 28.1536 139.832C28.0435 139.682 27.8967 139.49 27.9936 139.33C28.0356 139.272 28.0918 139.226 28.1568 139.196C28.6344 138.926 29.1252 138.618 29.3782 138.134C29.6312 137.65 29.5349 136.944 29.0421 136.705C29.2298 136.662 29.4065 136.58 29.5614 136.466C29.7163 136.352 29.8462 136.208 29.943 136.042C30.1019 135.691 29.8988 135.18 29.5167 135.161C29.3526 135.155 27.1545 134.683 27.0138 134.765C25.1819 135.822 25.8922 138.163 25.1692 140.139C24.4843 142.143 24.2767 144.277 24.5628 146.373C24.6475 147.253 24.8489 148.117 25.1615 148.944C25.5701 149.865 26.0823 150.736 26.6884 151.541C27.4411 152.619 28.2214 153.707 29.2806 154.488C31.2601 155.948 33.8806 156.129 36.3276 156.06C37.2629 156.068 38.1951 155.951 39.099 155.712C40.158 155.348 41.1435 154.8 42.0095 154.093C43.293 153.117 44.4982 151.987 45.2772 150.582" fill="#0E1339"/>
<path d="M26.2307 155.401C26.2307 155.401 26.31 155.507 26.4665 155.691C26.6864 155.945 26.9481 156.161 27.2405 156.328C27.6711 156.579 28.1614 156.712 28.6607 156.712C29.2715 156.704 29.8641 156.504 30.3537 156.14C30.5015 156.033 30.6363 155.908 30.7555 155.77C30.8126 155.713 30.8562 155.644 30.8832 155.568C30.9101 155.493 30.9197 155.412 30.9112 155.332L30.8736 155.151L31.0162 155.268C31.3886 155.566 31.8632 155.707 32.339 155.662C32.716 155.626 33.0714 155.47 33.3531 155.218C33.5404 155.05 33.6929 154.847 33.802 154.62C33.878 154.461 33.9048 154.368 33.9142 154.37C33.9121 154.394 33.9055 154.417 33.8948 154.438C33.8826 154.507 33.8635 154.573 33.8378 154.638C33.7406 154.879 33.5914 155.097 33.4007 155.275C33.1124 155.554 32.7392 155.73 32.3395 155.776C31.833 155.834 31.3241 155.69 30.9241 155.376L31.0291 155.312C31.0427 155.411 31.0336 155.511 31.0025 155.606C30.9714 155.701 30.9191 155.788 30.8496 155.86C30.7244 156.005 30.5828 156.135 30.4277 156.248C29.9152 156.628 29.2931 156.833 28.6537 156.834C28.1339 156.832 27.6245 156.688 27.1817 156.418C26.8859 156.238 26.6265 156.005 26.4171 155.73C26.3592 155.656 26.3073 155.578 26.2621 155.496C26.2391 155.434 26.2253 155.402 26.2307 155.401Z" fill="#45496B"/>
<path d="M21.6575 147.913C21.7223 147.876 21.7918 147.849 21.8642 147.832C22.0584 147.77 22.2589 147.729 22.462 147.711C22.7714 147.68 23.0839 147.716 23.3775 147.818C23.7525 147.947 24.0654 148.211 24.2547 148.558L24.1603 148.531L24.3515 148.416C24.4175 148.381 24.4899 148.351 24.5582 148.317C24.9654 148.149 25.4078 148.084 25.8462 148.128C26.2032 148.157 26.551 148.256 26.8701 148.418C27.082 148.527 27.2764 148.668 27.447 148.834C27.511 148.894 27.5661 148.963 27.6107 149.038C27.3735 148.826 27.1111 148.645 26.8294 148.497C26.5182 148.352 26.1831 148.264 25.8403 148.238C25.4218 148.204 25.0012 148.27 24.613 148.429C24.5453 148.46 24.4783 148.489 24.4153 148.522L24.2339 148.631L24.1696 148.668L24.1372 148.604C23.9637 148.285 23.6791 148.04 23.3368 147.916C23.0596 147.813 22.7638 147.769 22.4685 147.787C21.9619 147.829 21.6632 147.937 21.6575 147.913Z" fill="#45496B"/>
<path d="M21.1449 143.239C21.1449 143.239 21.153 143.211 21.1883 143.167C21.238 143.107 21.2969 143.054 21.3629 143.011C21.6157 142.858 21.9164 142.804 22.207 142.859C22.6242 142.961 23.0043 143.177 23.3033 143.484C23.4896 143.651 23.6672 143.827 23.8356 144.012C24.0375 144.215 24.1616 144.481 24.1863 144.766L24.1821 144.843L24.0981 144.771C24.5919 144.629 25.1045 144.562 25.6185 144.572C26.0438 144.583 26.4572 144.713 26.8116 144.947C27.0507 145.102 27.2452 145.316 27.376 145.568C27.4124 145.636 27.4399 145.707 27.4578 145.782C27.4672 145.807 27.4716 145.834 27.4707 145.861C27.4707 145.861 27.4288 145.758 27.3306 145.594C27.1895 145.361 26.9943 145.166 26.7615 145.024C26.4141 144.815 26.0164 144.703 25.6103 144.699C25.1098 144.695 24.6115 144.765 24.1313 144.905L24.043 144.928L24.0466 144.835L24.0499 144.77C24.0279 144.519 23.9197 144.284 23.7435 144.103C23.5805 143.915 23.3953 143.751 23.2294 143.582C22.9473 143.282 22.5871 143.066 22.1889 142.958C21.9202 142.899 21.6393 142.936 21.3947 143.061C21.3064 143.113 21.2228 143.172 21.1449 143.239Z" fill="#45496B"/>
<path d="M10.4974 155.798C10.4974 155.798 10.5706 155.819 10.7027 155.856C10.9003 155.883 11.1016 155.852 11.2816 155.766C11.5623 155.63 11.7887 155.404 11.9242 155.124C12.0951 154.752 12.2081 154.357 12.2595 153.951L12.2796 153.88L12.3471 153.912C12.8436 154.143 13.4024 154.206 13.9381 154.091C14.2384 154.03 14.5205 153.901 14.7615 153.713C15.0026 153.525 15.196 153.283 15.3262 153.007C15.4516 152.755 15.5159 152.477 15.514 152.196C15.5121 151.914 15.4441 151.637 15.3153 151.386L15.2248 151.221L15.3974 151.295C15.6873 151.421 16.0001 151.484 16.3161 151.483C16.6321 151.481 16.9443 151.415 17.233 151.287C17.6923 151.079 18.0653 150.719 18.2888 150.269C18.437 149.975 18.5219 149.654 18.5382 149.325C18.5486 149.093 18.5283 148.968 18.539 148.966C18.551 148.995 18.5585 149.026 18.5611 149.058C18.5764 149.144 18.5839 149.231 18.5836 149.318C18.5855 149.66 18.5099 149.997 18.3626 150.305C18.137 150.786 17.7477 151.172 17.2635 151.394C16.9611 151.533 16.6329 151.606 16.3001 151.61C15.9673 151.614 15.6374 151.549 15.3315 151.419L15.4129 151.33C15.5501 151.596 15.6231 151.89 15.6262 152.189C15.6293 152.488 15.5624 152.783 15.4307 153.052C15.2919 153.355 15.0791 153.618 14.8116 153.818C14.5549 154.006 14.2609 154.137 13.9493 154.203C13.386 154.32 12.7994 154.249 12.2812 154L12.3616 153.959C12.3034 154.372 12.1825 154.774 12.0031 155.151C11.8532 155.444 11.6068 155.676 11.3053 155.809C11.1131 155.899 10.8974 155.926 10.6886 155.888C10.6352 155.879 10.583 155.864 10.5329 155.844C10.5184 155.831 10.5064 155.815 10.4974 155.798Z" fill="#45496B"/>
<path d="M7.0599 143.91C7.0599 143.91 7.08752 143.902 7.14478 143.898C7.20204 143.894 7.28019 143.888 7.38834 143.894C7.69421 143.906 7.99666 143.963 8.28635 144.061C8.73371 144.212 9.14584 144.451 9.49805 144.764C9.95356 145.162 10.2924 145.675 10.4787 146.248L10.382 146.221C10.7189 145.974 11.1067 145.805 11.5175 145.725C11.9283 145.646 12.3517 145.658 12.757 145.761C13.1888 145.882 13.5714 146.135 13.8509 146.484C14.1305 146.833 14.2928 147.26 14.315 147.706L14.2042 147.674C14.4205 147.449 14.6926 147.285 14.9932 147.197C15.2627 147.12 15.5439 147.09 15.8238 147.11C16.2784 147.152 16.7188 147.29 17.1159 147.514C17.3754 147.651 17.6249 147.807 17.8628 147.978C17.9498 148.036 18.0319 148.101 18.1083 148.172C18.0149 148.125 17.9255 148.071 17.8409 148.01C17.5956 147.852 17.3418 147.706 17.0807 147.575C16.6872 147.371 16.2562 147.249 15.8138 147.216C15.5357 147.192 15.2555 147.228 14.9927 147.322C14.7299 147.415 14.4907 147.565 14.2919 147.76L14.1846 147.877L14.1837 147.719C14.1636 147.299 14.0115 146.896 13.7487 146.567C13.4859 146.238 13.1257 146 12.7191 145.885C12.3332 145.787 11.9301 145.774 11.5389 145.849C11.1476 145.924 10.7779 146.084 10.4562 146.318L10.3862 146.367L10.3608 146.286C10.1847 145.731 9.86229 145.232 9.42708 144.843C9.08852 144.533 8.69236 144.292 8.26084 144.133C7.87401 143.999 7.46918 143.924 7.0599 143.91Z" fill="#45496B"/>
<path d="M13.9018 139.829C13.9018 139.829 13.9112 139.796 13.9809 139.775C14.0705 139.746 14.1669 139.746 14.2565 139.775C14.5748 139.881 14.8613 140.065 15.0903 140.31C15.4428 140.666 15.6731 141.125 15.7487 141.619C15.8384 142.228 15.6948 142.848 15.3464 143.357L15.2873 143.251C15.8996 143.228 16.5035 143.398 17.0118 143.739C17.4235 144.01 17.7668 144.371 18.0151 144.796C18.182 145.079 18.3093 145.384 18.3936 145.702C18.4293 145.816 18.4493 145.935 18.4531 146.056C18.3318 145.632 18.1577 145.225 17.935 144.844C17.6859 144.439 17.3486 144.095 16.9479 143.837C16.457 143.518 15.8777 143.361 15.2919 143.387L15.1595 143.395L15.2328 143.281C15.5352 142.846 15.6784 142.32 15.6387 141.792C15.5989 141.264 15.3786 140.765 15.0143 140.379C14.7995 140.14 14.5334 139.952 14.2357 139.83C14.1284 139.788 14.0093 139.787 13.9018 139.829Z" fill="#45496B"/>
<path d="M19.4478 159.48C19.759 159.14 20.0047 158.747 20.1725 158.318C20.4237 157.634 20.4175 156.882 20.155 156.202C19.8925 155.522 19.3914 154.959 18.7442 154.618L18.671 154.579L18.7242 154.518C19.0394 154.153 19.2832 153.733 19.4431 153.279C19.5692 152.916 19.6416 152.536 19.6579 152.153C19.665 152.008 19.6621 151.863 19.6492 151.719C19.647 151.668 19.6329 151.619 19.6079 151.574C19.583 151.53 19.548 151.492 19.5057 151.463C19.4783 151.446 19.4476 151.435 19.4156 151.432C19.3837 151.428 19.3513 151.431 19.3207 151.441C19.2803 151.458 19.2642 151.478 19.2601 151.475C19.2561 151.471 19.2682 151.447 19.3113 151.421C19.3444 151.404 19.3811 151.395 19.4183 151.396C19.4555 151.396 19.492 151.405 19.5248 151.423C19.5769 151.452 19.6212 151.493 19.6541 151.542C19.687 151.591 19.7075 151.648 19.7139 151.707C19.7362 151.855 19.7456 152.004 19.7418 152.154C19.7378 152.548 19.6732 152.939 19.5503 153.314C19.3929 153.786 19.1465 154.224 18.8244 154.605L18.805 154.503C19.1302 154.668 19.4237 154.888 19.672 155.154C20.0658 155.575 20.3307 156.098 20.4356 156.663C20.5406 157.228 20.4812 157.812 20.2645 158.344C20.1374 158.66 19.9574 158.952 19.732 159.208C19.669 159.277 19.6026 159.343 19.5329 159.405C19.478 159.463 19.4518 159.484 19.4478 159.48Z" fill="#45496B"/>
</svg>
