<svg width="14" height="12" viewBox="0 0 14 12" fill="none" xmlns="http://www.w3.org/2000/svg">
<path d="M8.66667 0C9.03467 0 9.33333 0.298667 9.33333 0.666667V2H12.6667C13.0347 2 13.3333 2.29867 13.3333 2.66667V11.3333C13.3333 11.7013 13.0347 12 12.6667 12H0.666667C0.298667 12 0 11.7013 0 11.3333V2.66667C0 2.29867 0.298667 2 0.666667 2H4V0.666667C4 0.298667 4.29867 0 4.66667 0H8.66667ZM4 3.33333H2.66667V10.6667H4V3.33333ZM10.6667 3.33333H9.33333V10.6667H10.6667V3.33333ZM8 1.33333H5.33333V2H8V1.33333Z" fill="#E57E25"/>
</svg>
