<svg width="15" height="12" viewBox="0 0 15 12" fill="none" xmlns="http://www.w3.org/2000/svg">
<path d="M13.3333 10.6667H14.6667V12H0V10.6667H1.33333V0.666667C1.33333 0.489856 1.40357 0.320286 1.5286 0.195262C1.65362 0.0702379 1.82319 0 2 0H8.66667C8.84348 0 9.01305 0.0702379 9.13807 0.195262C9.26309 0.320286 9.33333 0.489856 9.33333 0.666667V10.6667H10.6667V4H12.6667C12.8435 4 13.013 4.07024 13.1381 4.19526C13.2631 4.32029 13.3333 4.48986 13.3333 4.66667V10.6667ZM4 5.33333V6.66667H6.66667V5.33333H4ZM4 2.66667V4H6.66667V2.66667H4Z" fill="#E57E25"/>
</svg>
