<svg width="19" height="14" viewBox="0 0 19 14" fill="none" xmlns="http://www.w3.org/2000/svg">
<path d="M13.8184 4.49099L18.3206 1.33866C18.3854 1.29328 18.4613 1.26654 18.5402 1.26136C18.6191 1.25619 18.6979 1.27276 18.768 1.30929C18.8381 1.34582 18.8969 1.40089 18.9378 1.46851C18.9788 1.53613 19.0004 1.6137 19.0003 1.69276V12.1257C19.0004 12.2047 18.9788 12.2823 18.9378 12.3499C18.8969 12.4175 18.8381 12.4726 18.768 12.5091C18.6979 12.5457 18.6191 12.5622 18.5402 12.5571C18.4613 12.5519 18.3854 12.5251 18.3206 12.4798L13.8184 9.32744V12.9548C13.8184 13.1838 13.7274 13.4035 13.5655 13.5655C13.4035 13.7274 13.1838 13.8184 12.9548 13.8184H0.863652C0.634597 13.8184 0.414924 13.7274 0.252958 13.5655C0.0909916 13.4035 0 13.1838 0 12.9548V0.863652C0 0.634597 0.0909916 0.414924 0.252958 0.252958C0.414924 0.0909918 0.634597 0 0.863652 0H12.9548C13.1838 0 13.4035 0.0909918 13.5655 0.252958C13.7274 0.414924 13.8184 0.634597 13.8184 0.863652V4.49099ZM3.45461 3.45461V5.18191H5.18191V3.45461H3.45461Z" fill="#B75FDC"/>
</svg>
