<svg width="235" height="235" viewBox="0 0 235 235" fill="none" xmlns="http://www.w3.org/2000/svg">
<path d="M186.12 77.8978C173.383 68.6905 154.498 67.9667 142.227 77.7897C135.252 83.3733 130.947 91.5137 126.012 98.9632C121.077 106.413 114.779 113.74 106.149 116.09C96.834 118.595 86.9969 114.68 77.3666 115.296C64.5873 116.099 53.0582 125.401 48.4475 137.348C43.8368 149.296 45.8108 163.292 52.5177 174.206C59.2246 185.119 70.2837 193.006 82.4379 197.043C117.528 209.611 163.894 196.263 188.103 167.903C198.312 155.951 204.187 134.82 204.802 119.112C205.418 103.405 198.833 87.1051 186.12 77.8978Z" fill="#F4F5FB"/>
<path d="M86.6129 98.9521C97.1191 94.486 102.016 82.3485 97.5494 71.8423C93.0833 61.3361 80.9459 56.4397 70.4397 60.9058C59.9335 65.3719 55.037 77.5093 59.5031 88.0155C63.9692 98.5217 76.1067 103.418 86.6129 98.9521Z" fill="#F4F5FB"/>
<path d="M170.037 18.4099H61.603V61.288H170.037V18.4099Z" fill="#00ACE9"/>
<path d="M170.037 61.288C170.037 61.288 170.037 61.0248 170.037 60.5266C170.037 60.0284 170.037 59.2811 170.037 58.3082C170.037 56.3624 170.037 53.4954 170.037 49.7965C170.037 42.4034 170.008 31.6921 169.99 18.4099L170.074 18.4945L61.6499 18.5321L61.7721 18.4099C61.7721 33.4076 61.7721 47.8977 61.7721 61.288L61.6546 61.1705L139.393 61.2222L161.953 61.2551H167.992H169.553H170.088H169.567H168.02H162.009L139.473 61.288L61.6546 61.3444H61.5371V61.2269C61.5371 47.8366 61.5371 33.3465 61.5371 18.3488V18.2266H61.6687L170.037 18.33H170.14V18.4146C170.14 31.7203 170.102 42.4457 170.093 49.8529C170.093 53.5424 170.093 56.4047 170.093 58.3458C170.093 59.314 170.093 60.0472 170.093 60.5501C170.093 61.053 170.037 61.288 170.037 61.288Z" fill="#161B46"/>
<path d="M75.9709 52.3909C75.3382 52.3874 74.7175 52.2175 74.1713 51.8981C73.625 51.5788 73.1725 51.1213 72.859 50.5717C72.5456 50.022 72.3824 49.3995 72.3858 48.7668C72.3892 48.1341 72.559 47.5134 72.8783 46.9671L83.3593 28.999C83.6753 28.4517 84.1304 27.9978 84.6785 27.6833C85.2266 27.3688 85.8482 27.2049 86.4801 27.2083C87.1125 27.2097 87.7332 27.3789 88.279 27.6984C88.8247 28.0179 89.276 28.4764 89.5868 29.0272L99.9268 47.0846C100.241 47.6346 100.405 48.2577 100.402 48.8912C100.399 49.5247 100.23 50.1463 99.9109 50.6936C99.5918 51.2408 99.1343 51.6945 98.5843 52.0089C98.0343 52.3234 97.4113 52.4875 96.7778 52.4849L75.9803 52.3909H75.9709ZM86.4801 28.2893C86.0358 28.285 85.5984 28.399 85.2127 28.6195C84.827 28.84 84.5069 29.1592 84.2852 29.5442L73.7901 47.5076C73.5671 47.8909 73.4487 48.326 73.4466 48.7694C73.4445 49.2129 73.5588 49.6491 73.7782 50.0345C73.9975 50.4198 74.3142 50.7409 74.6965 50.9656C75.0788 51.1902 75.5134 51.3106 75.9568 51.3146L96.7543 51.4086C97.1991 51.4115 97.6368 51.297 98.0232 51.0767C98.4096 50.8564 98.7311 50.538 98.9551 50.1538C99.1792 49.7695 99.2979 49.333 99.2994 48.8882C99.3008 48.4434 99.1849 48.0061 98.9633 47.6204L88.6233 29.563C88.4083 29.1821 88.0974 28.864 87.7214 28.6406C87.3454 28.4171 86.9174 28.296 86.4801 28.2893Z" fill="white"/>
<path d="M84.9197 46.6193C84.92 46.4381 84.9573 46.2589 85.0294 46.0926C85.1015 45.9263 85.2067 45.7766 85.3388 45.6524C85.4708 45.5283 85.6268 45.4325 85.7972 45.3709C85.9676 45.3092 86.1488 45.283 86.3297 45.2939C86.6837 45.2939 87.0232 45.4345 87.2735 45.6848C87.5239 45.9352 87.6645 46.2747 87.6645 46.6287C87.6645 46.9827 87.5239 47.3222 87.2735 47.5725C87.0232 47.8229 86.6837 47.9635 86.3297 47.9635C86.1477 47.9724 85.9658 47.9442 85.795 47.8807C85.6243 47.8171 85.4682 47.7196 85.3364 47.5938C85.2045 47.4681 85.0995 47.3169 85.0279 47.1494C84.9563 46.9818 84.9195 46.8015 84.9197 46.6193ZM85.0419 35.8093H87.594L87.1569 43.8698H85.4508L85.0419 35.8093Z" fill="white"/>
<path d="M105.402 38.54H102.662L102.15 39.7996H100.27L103.132 33.3136H104.942L107.813 39.7996H105.905L105.402 38.54ZM104.866 37.1864L104.034 35.109L103.198 37.1864H104.866Z" fill="white"/>
<path d="M109.397 34.78H107.409V33.323H113.218V34.78H111.235V39.809H109.397V34.78Z" fill="white"/>
<path d="M115.376 34.78H113.383V33.323H119.192V34.78H117.209V39.809H115.376V34.78Z" fill="white"/>
<path d="M125.086 38.3896V39.7996H119.878V33.323H124.968V34.733H121.678V35.8281H124.559V37.2005H121.678V38.3849L125.086 38.3896Z" fill="white"/>
<path d="M132.277 33.323V39.809H130.768L127.906 36.3498V39.809H126.11V33.323H127.619L130.481 36.7775V33.323H132.277Z" fill="white"/>
<path d="M134.961 34.78H132.968V33.323H138.777V34.78H136.794V39.809H134.961V34.78Z" fill="white"/>
<path d="M139.463 33.323H141.296V39.809H139.463V33.323Z" fill="white"/>
<path d="M142.269 36.566C142.269 34.6202 143.801 33.1914 145.874 33.1914C147.947 33.1914 149.479 34.6014 149.479 36.566C149.479 38.5306 147.951 39.95 145.874 39.95C143.797 39.95 142.269 38.5118 142.269 36.566ZM147.627 36.566C147.608 36.2241 147.489 35.8954 147.285 35.6204C147.081 35.3453 146.801 35.1361 146.479 35.0184C146.158 34.9007 145.809 34.8798 145.475 34.9581C145.142 35.0365 144.839 35.2108 144.604 35.4595C144.368 35.7081 144.211 36.0203 144.151 36.3574C144.091 36.6945 144.131 37.0418 144.266 37.3564C144.401 37.671 144.625 37.9392 144.911 38.1278C145.197 38.3164 145.532 38.4173 145.874 38.4178C146.113 38.4202 146.351 38.3732 146.571 38.2797C146.791 38.1862 146.99 38.0483 147.155 37.8744C147.319 37.7006 147.446 37.4947 147.527 37.2695C147.609 37.0444 147.643 36.8049 147.627 36.566Z" fill="white"/>
<path d="M156.614 33.323V39.809H155.1L152.238 36.3498V39.809H150.438V33.323H151.951L154.813 36.7775V33.323H156.614Z" fill="white"/>
<path d="M116.913 45.9425C116.913 47.0329 116.085 47.7144 114.774 47.7144H113.937V48.9693H112.574V44.18H114.774C116.09 44.18 116.913 44.8427 116.913 45.9425ZM115.535 45.9425C115.535 45.4725 115.253 45.2328 114.689 45.2328H113.937V46.6428H114.68C115.253 46.6428 115.535 46.3796 115.535 45.9425Z" fill="white"/>
<path d="M117.571 44.18H118.91V47.9118H121.208V48.9881H117.552L117.571 44.18Z" fill="white"/>
<path d="M125.622 47.94V48.9881H121.763V44.18H125.523V45.214H123.098V46.0224H125.236V47.0423H123.098V47.94H125.622Z" fill="white"/>
<path d="M129.598 48.0387H127.567L127.187 48.9787H125.8L127.925 44.18H129.25L131.379 48.9881H129.969L129.598 48.0387ZM129.203 47.0329L128.583 45.496L127.967 47.0329H129.203Z" fill="white"/>
<path d="M131.44 48.5369L131.887 47.5358C132.363 47.8362 132.912 47.9989 133.475 48.0058C134.039 48.0058 134.26 47.846 134.26 47.611C134.26 46.8496 131.525 47.4089 131.525 45.6229C131.525 44.7628 132.225 44.0625 133.654 44.0625C134.261 44.0514 134.861 44.1954 135.398 44.4808L134.979 45.4913C134.572 45.2585 134.113 45.1308 133.644 45.12C133.076 45.12 132.869 45.3127 132.869 45.5524C132.869 46.2856 135.6 45.7357 135.6 47.5123C135.6 48.3489 134.899 49.0633 133.466 49.0633C132.754 49.0831 132.052 48.9005 131.44 48.5369Z" fill="white"/>
<path d="M140.084 47.94V48.9881H136.225V44.18H139.985V45.214H137.569V46.0224H139.708V47.0423H137.569V47.94H140.084Z" fill="white"/>
<path d="M140.615 48.3113C140.63 48.1154 140.718 47.9325 140.862 47.7991C141.007 47.6657 141.196 47.5916 141.392 47.5916C141.589 47.5916 141.778 47.6657 141.922 47.7991C142.066 47.9325 142.155 48.1154 142.17 48.3113C142.155 48.5071 142.066 48.69 141.922 48.8235C141.778 48.9569 141.589 49.031 141.392 49.031C141.196 49.031 141.007 48.9569 140.862 48.8235C140.718 48.69 140.63 48.5071 140.615 48.3113ZM140.615 44.1612H142.166L141.907 47.2209H140.868L140.615 44.1612Z" fill="white"/>
<path d="M67.8774 22.513C67.8774 22.8848 67.7672 23.2483 67.5606 23.5575C67.354 23.8666 67.0604 24.1076 66.7169 24.2499C66.3733 24.3922 65.9953 24.4294 65.6307 24.3569C65.266 24.2843 64.931 24.1053 64.6681 23.8424C64.4051 23.5794 64.2261 23.2444 64.1536 22.8798C64.081 22.5151 64.1182 22.1371 64.2605 21.7935C64.4028 21.45 64.6438 21.1564 64.953 20.9498C65.2621 20.7433 65.6256 20.633 65.9974 20.633C66.496 20.633 66.9742 20.8311 67.3268 21.1836C67.6793 21.5362 67.8774 22.0144 67.8774 22.513Z" fill="#E6E8F3"/>
<path d="M67.8775 22.513C67.8775 22.513 67.8775 22.3485 67.7694 22.0712C67.6533 21.6818 67.4142 21.3404 67.0879 21.0983C66.8489 20.9244 66.5707 20.8124 66.2779 20.7722C65.9851 20.7321 65.687 20.7649 65.41 20.868C65.0755 20.994 64.7874 21.2189 64.584 21.5128C64.3807 21.8067 64.2717 22.1556 64.2717 22.513C64.2717 22.8704 64.3807 23.2193 64.584 23.5132C64.7874 23.8071 65.0755 24.032 65.41 24.158C65.6873 24.2604 65.9857 24.2925 66.2785 24.2515C66.5713 24.2105 66.8493 24.0976 67.0879 23.923C67.4134 23.6821 67.6524 23.3425 67.7694 22.9548C67.854 22.6728 67.854 22.4848 67.8775 22.4848C67.9143 22.6393 67.9143 22.8003 67.8775 22.9548C67.7933 23.3919 67.5569 23.7849 67.2101 24.064C66.9498 24.273 66.6401 24.4113 66.3108 24.4656C65.9815 24.52 65.6437 24.4885 65.3301 24.3742C64.9526 24.2346 64.627 23.9828 64.397 23.6525C64.167 23.3223 64.0437 22.9295 64.0437 22.5271C64.0437 22.1247 64.167 21.7319 64.397 21.4016C64.627 21.0714 64.9526 20.8195 65.3301 20.68C65.6433 20.5651 65.9808 20.5328 66.3101 20.5863C66.6394 20.6398 66.9494 20.7773 67.2101 20.9855C67.5558 21.2563 67.794 21.6411 67.8822 22.0712C67.914 22.2169 67.9124 22.368 67.8775 22.513Z" fill="#161B46"/>
<path d="M67.0173 21.5918C66.5983 21.793 66.2014 22.0371 65.8329 22.3203C65.5173 22.6614 65.2385 23.0348 65.001 23.4342C65.0091 23.1827 65.0732 22.9361 65.1887 22.7126C65.3041 22.489 65.468 22.2939 65.6684 22.1417C65.8391 21.9567 66.0484 21.8115 66.2816 21.7165C66.5147 21.6214 66.7659 21.5789 67.0173 21.5918Z" fill="#161B46"/>
<path d="M66.6178 23.3402C66.5473 23.3637 66.3452 22.8702 65.8705 22.4002C65.3958 21.9302 64.8882 21.7798 64.907 21.7093C65.3309 21.7493 65.7294 21.9295 66.0392 22.2216C66.3491 22.5136 66.5527 22.9006 66.6178 23.3214V23.3402Z" fill="#161B46"/>
<path d="M69.0901 56.9076C69.0901 57.2794 68.9798 57.6429 68.7732 57.9521C68.5667 58.2612 68.273 58.5022 67.9295 58.6445C67.586 58.7868 67.208 58.824 66.8433 58.7515C66.4786 58.6789 66.1436 58.4999 65.8807 58.2369C65.6178 57.974 65.4387 57.639 65.3662 57.2744C65.2937 56.9097 65.3309 56.5317 65.4732 56.1881C65.6155 55.8446 65.8564 55.551 66.1656 55.3444C66.4748 55.1378 66.8382 55.0276 67.2101 55.0276C67.7087 55.0276 68.1869 55.2257 68.5394 55.5782C68.892 55.9308 69.0901 56.409 69.0901 56.9076Z" fill="#E6E8F3"/>
<path d="M69.0901 56.9076C69.0666 56.9076 69.0666 56.7384 68.982 56.4376C68.865 56.0499 68.626 55.7103 68.3005 55.4694C68.0386 55.273 67.7273 55.1534 67.4013 55.124C67.0753 55.0946 66.7475 55.1566 66.4548 55.303C66.162 55.4494 65.9158 55.6744 65.7437 55.9528C65.5716 56.2312 65.4805 56.5521 65.4805 56.8794C65.4805 57.2067 65.5716 57.5276 65.7437 57.806C65.9158 58.0844 66.162 58.3094 66.4548 58.4558C66.7475 58.6022 67.0753 58.6642 67.4013 58.6348C67.7273 58.6054 68.0386 58.4858 68.3005 58.2894C68.6268 58.0473 68.8659 57.7059 68.982 57.3165C69.0666 57.0392 69.0666 56.8465 69.0901 56.8747C69.1281 57.0291 69.1281 57.1903 69.0901 57.3447C68.9996 57.7739 68.7618 58.158 68.418 58.4304C68.1592 58.6333 67.8534 58.7677 67.5289 58.8211C67.2044 58.8745 66.8717 58.8452 66.5615 58.7359C66.176 58.6011 65.842 58.3497 65.6057 58.0167C65.3694 57.6837 65.2424 57.2854 65.2424 56.877C65.2424 56.4687 65.3694 56.0704 65.6057 55.7374C65.842 55.4044 66.176 55.153 66.5615 55.0182C66.8717 54.9089 67.2044 54.8796 67.5289 54.933C67.8534 54.9864 68.1592 55.1208 68.418 55.3237C68.7618 55.5961 68.9996 55.9802 69.0901 56.4094C69.1315 56.5729 69.1315 56.7441 69.0901 56.9076Z" fill="#161B46"/>
<path d="M68.2253 55.9864C67.8052 56.1854 67.408 56.4297 67.0409 56.7149C66.7248 57.0539 66.4459 57.4257 66.209 57.8241C66.2695 57.3272 66.5063 56.8685 66.8763 56.5312C67.2462 56.194 67.7249 56.0007 68.2253 55.9864Z" fill="#161B46"/>
<path d="M67.8258 57.7348C67.7553 57.7348 67.5532 57.2648 67.0785 56.7948C66.6038 56.3248 66.0962 56.1697 66.115 56.1039C66.3296 56.1024 66.542 56.1474 66.7375 56.2358C66.9331 56.3243 67.1071 56.454 67.2477 56.6162C67.419 56.75 67.5593 56.9192 67.659 57.1123C67.7588 57.3054 67.8157 57.5177 67.8258 57.7348Z" fill="#161B46"/>
<path d="M166.794 22.56C166.794 22.9318 166.683 23.2953 166.477 23.6045C166.27 23.9136 165.977 24.1546 165.633 24.2969C165.29 24.4392 164.912 24.4764 164.547 24.4039C164.182 24.3313 163.847 24.1523 163.584 23.8894C163.321 23.6264 163.142 23.2914 163.07 22.9268C162.997 22.5621 163.035 22.1841 163.177 21.8405C163.319 21.497 163.56 21.2034 163.869 20.9968C164.178 20.7903 164.542 20.68 164.914 20.68C165.412 20.68 165.891 20.8781 166.243 21.2306C166.596 21.5832 166.794 22.0614 166.794 22.56Z" fill="#E6E8F3"/>
<path d="M166.794 22.56C166.794 22.56 166.77 22.3908 166.69 22.09C166.574 21.7007 166.333 21.3605 166.004 21.1218C165.743 20.9272 165.432 20.8091 165.108 20.7807C164.783 20.7523 164.457 20.8147 164.166 20.961C163.874 21.1072 163.629 21.3316 163.458 21.609C163.287 21.8864 163.197 22.2059 163.197 22.5318C163.197 22.8577 163.287 23.1772 163.458 23.4546C163.629 23.732 163.874 23.9563 164.166 24.1026C164.457 24.2489 164.783 24.3113 165.108 24.2829C165.432 24.2545 165.743 24.1364 166.004 23.9418C166.332 23.7004 166.573 23.359 166.69 22.9689C166.77 22.6916 166.775 22.5271 166.794 22.5271C166.837 22.6808 166.837 22.8434 166.794 22.9971C166.705 23.4272 166.467 23.812 166.122 24.0828C165.863 24.2869 165.558 24.4221 165.233 24.4755C164.908 24.5289 164.575 24.4989 164.265 24.3883C163.88 24.2535 163.546 24.0021 163.309 23.6691C163.073 23.3361 162.946 22.9378 162.946 22.5294C162.946 22.1211 163.073 21.7228 163.309 21.3898C163.546 21.0568 163.88 20.8054 164.265 20.6706C164.575 20.5613 164.908 20.5319 165.233 20.5853C165.557 20.6387 165.863 20.7731 166.122 20.9761C166.468 21.2571 166.702 21.6519 166.784 22.09C166.829 22.243 166.832 22.4053 166.794 22.56Z" fill="#161B46"/>
<path d="M165.938 21.62C165.517 21.8179 165.12 22.0622 164.754 22.3485C164.437 22.687 164.158 23.059 163.922 23.4577C163.982 22.9608 164.219 22.5021 164.589 22.1648C164.959 21.8276 165.438 21.6343 165.938 21.62Z" fill="#161B46"/>
<path d="M165.534 23.3637C165.468 23.3637 165.266 22.8937 164.791 22.4237C164.317 21.9537 163.809 21.8033 163.828 21.7328C164.253 21.7681 164.653 21.9469 164.963 22.2399C165.273 22.5328 165.475 22.9225 165.534 23.3449V23.3637Z" fill="#161B46"/>
<path d="M166.794 56.9076C166.794 57.2794 166.683 57.6429 166.477 57.9521C166.27 58.2612 165.977 58.5022 165.633 58.6445C165.29 58.7868 164.912 58.824 164.547 58.7515C164.182 58.6789 163.847 58.4999 163.584 58.2369C163.321 57.974 163.142 57.639 163.07 57.2744C162.997 56.9097 163.035 56.5317 163.177 56.1881C163.319 55.8446 163.56 55.551 163.869 55.3444C164.178 55.1378 164.542 55.0276 164.914 55.0276C165.412 55.0276 165.891 55.2257 166.243 55.5782C166.596 55.9308 166.794 56.409 166.794 56.9076Z" fill="#E6E8F3"/>
<path d="M166.794 56.9076C166.794 56.9076 166.77 56.7384 166.69 56.4376C166.574 56.0483 166.333 55.7081 166.004 55.4694C165.743 55.2748 165.432 55.1567 165.108 55.1283C164.783 55.0999 164.457 55.1623 164.166 55.3086C163.874 55.4549 163.629 55.6792 163.458 55.9566C163.287 56.234 163.197 56.5535 163.197 56.8794C163.197 57.2053 163.287 57.5248 163.458 57.8022C163.629 58.0796 163.874 58.3039 164.166 58.4502C164.457 58.5965 164.783 58.6589 165.108 58.6305C165.432 58.6021 165.743 58.484 166.004 58.2894C166.332 58.048 166.573 57.7066 166.69 57.3165C166.77 57.0392 166.775 56.8465 166.794 56.8747C166.837 57.0284 166.837 57.191 166.794 57.3447C166.703 57.7739 166.465 58.158 166.122 58.4304C165.863 58.6333 165.557 58.7677 165.233 58.8211C164.908 58.8745 164.575 58.8452 164.265 58.7359C163.88 58.6011 163.546 58.3497 163.309 58.0167C163.073 57.6837 162.946 57.2854 162.946 56.877C162.946 56.4687 163.073 56.0704 163.309 55.7374C163.546 55.4044 163.88 55.153 164.265 55.0182C164.575 54.9089 164.908 54.8796 165.233 54.933C165.557 54.9864 165.863 55.1208 166.122 55.3237C166.465 55.5961 166.703 55.9802 166.794 56.4094C166.841 56.5721 166.841 56.7449 166.794 56.9076Z" fill="#161B46"/>
<path d="M165.938 55.9864C165.517 56.1842 165.12 56.4286 164.754 56.7149C164.436 57.0524 164.157 57.4245 163.922 57.8241C163.982 57.3272 164.219 56.8685 164.589 56.5312C164.959 56.194 165.438 56.0007 165.938 55.9864Z" fill="#161B46"/>
<path d="M165.534 57.7348C165.468 57.7348 165.266 57.2648 164.791 56.7948C164.317 56.3248 163.809 56.1697 163.828 56.1039C164.253 56.1392 164.653 56.318 164.963 56.611C165.273 56.9039 165.475 57.2936 165.534 57.716V57.7348Z" fill="#161B46"/>
<path d="M53.5799 122.35C53.5799 122.35 41.2471 152.75 39.259 160.51C37.0688 169.087 38.6715 175.949 49.599 177.016C58.67 177.904 88.2753 166.173 88.2753 166.173L84.6563 143.576L58.4632 154.16L64.8082 124.808L53.5799 122.35Z" fill="#B2655F"/>
<path d="M67.7457 103.87C67.0172 103.461 65.2265 101.027 65.2265 101.027C65.2265 101.027 63.9293 92.5665 63.3465 90.7899C62.7637 89.0133 61.1516 89.488 60.8132 90.1413C60.4748 90.7946 61.4759 105.087 61.4759 105.087L56.1978 107.851L52.5506 109.98C52.0661 110.537 51.7313 111.208 51.5777 111.931C51.4179 112.988 53.5282 123.469 53.5282 123.469L64.6719 125.434C67.5436 122.712 69.1651 118.449 69.9406 113.148V105.247C69.9406 105.247 68.4789 104.27 67.7457 103.87Z" fill="#B2655F"/>
<path d="M58.5525 106.746C58.656 106.725 58.7617 106.716 58.8674 106.718H59.7745H61.1845H61.6169C61.6982 106.712 61.7799 106.712 61.8613 106.718C61.9429 106.741 62.0218 106.772 62.0963 106.812C62.2503 106.903 62.384 107.025 62.4891 107.169C62.5942 107.314 62.6685 107.479 62.7073 107.654C62.8812 109.064 63.0504 110.713 63.2948 112.556C63.417 113.472 63.5439 114.436 63.7366 115.423C63.7755 115.663 63.8433 115.898 63.9387 116.123C64.0329 116.332 64.2 116.499 64.4087 116.593C64.6441 116.66 64.8907 116.677 65.1332 116.645C65.3757 116.613 65.609 116.531 65.8187 116.405C66.043 116.281 66.2461 116.123 66.4203 115.935C66.5358 115.726 66.5987 115.492 66.6036 115.253C66.6388 114.748 66.6388 114.241 66.6036 113.735C66.5519 112.734 66.4485 111.766 66.3263 110.85C66.2041 109.933 66.0678 109.059 65.9127 108.255C65.8438 107.868 65.748 107.487 65.626 107.113C65.5064 106.774 65.3487 106.449 65.156 106.145C64.9788 105.867 64.7825 105.601 64.5685 105.35C64.3971 105.118 64.1775 104.926 63.9246 104.787C63.7196 104.681 63.4954 104.617 63.2653 104.599C63.0352 104.581 62.8039 104.61 62.5851 104.683L61.7391 104.993C61.6414 105.037 61.5388 105.068 61.4336 105.087C61.5238 105.03 61.62 104.983 61.7203 104.946C61.9083 104.866 62.1903 104.744 62.5522 104.594C62.7798 104.51 63.0221 104.473 63.2644 104.485C63.5068 104.497 63.7441 104.558 63.9622 104.664C64.2362 104.804 64.4755 105.003 64.6625 105.247C64.887 105.5 65.0928 105.768 65.2782 106.051C65.4851 106.363 65.6569 106.697 65.7905 107.047C65.9226 107.427 66.0248 107.817 66.096 108.213C66.2652 109.026 66.4062 109.895 66.5378 110.817C66.6694 111.738 66.7728 112.697 66.8292 113.721C66.8644 114.241 66.8644 114.762 66.8292 115.282C66.8211 115.57 66.7351 115.851 66.5801 116.095C66.3889 116.302 66.1631 116.473 65.9127 116.602C65.6708 116.748 65.4009 116.84 65.1207 116.874C64.8404 116.908 64.5562 116.883 64.2865 116.8C64.017 116.692 63.7975 116.487 63.6708 116.226C63.5656 115.983 63.4914 115.727 63.4499 115.465C63.2572 114.464 63.135 113.5 63.0175 112.579C62.7872 110.741 62.6321 109.059 62.4864 107.686C62.4556 107.533 62.3933 107.388 62.3035 107.26C62.2137 107.132 62.0983 107.025 61.9647 106.944C61.8432 106.87 61.7025 106.834 61.5605 106.84H61.1328L59.7228 106.808L58.8157 106.784C58.7273 106.776 58.6394 106.764 58.5525 106.746Z" fill="#8E4842"/>
<path d="M63.9764 116.372C64.021 116.468 64.0435 116.572 64.0422 116.678C64.072 116.977 64.0251 117.28 63.9059 117.556C63.8175 117.781 63.6794 117.982 63.5019 118.144C63.3244 118.307 63.1121 118.428 62.8813 118.496C62.5757 118.568 62.2561 118.553 61.9588 118.452C61.6615 118.352 61.3982 118.17 61.1987 117.928C60.918 117.311 60.7584 116.645 60.7287 115.968C60.6723 115.253 60.6864 114.501 60.6159 113.745C60.4758 112.658 60.1415 111.606 59.6289 110.638C59.4033 110.168 59.2059 109.736 58.9756 109.36C58.8711 109.174 58.7448 109.002 58.5996 108.847C58.4776 108.7 58.3136 108.593 58.1296 108.542C57.5604 108.345 56.9678 108.223 56.367 108.18C56.1465 108.163 55.9249 108.163 55.7043 108.18C55.7043 108.119 56.6819 107.912 58.1906 108.373C58.29 108.406 58.386 108.448 58.4773 108.5C58.5725 108.558 58.6594 108.629 58.7359 108.711C58.8909 108.875 59.028 109.054 59.1447 109.247C59.3938 109.642 59.6148 110.079 59.8263 110.535C60.3624 111.522 60.7098 112.601 60.8509 113.717C60.9261 114.497 60.9073 115.244 60.9637 115.944C60.9877 116.593 61.136 117.231 61.4008 117.824C61.5748 118.04 61.8051 118.204 62.0663 118.298C62.3275 118.392 62.6095 118.412 62.8813 118.355C63.0869 118.296 63.2774 118.194 63.4396 118.054C63.6019 117.914 63.7321 117.742 63.8213 117.547C63.944 117.288 64.0082 117.006 64.0093 116.72C63.9889 116.605 63.9779 116.489 63.9764 116.372Z" fill="#8E4842"/>
<path d="M60.7567 117.242C60.7567 117.242 60.8695 117.425 60.7238 117.712C60.6425 117.885 60.5329 118.044 60.3995 118.182C60.2262 118.381 59.9943 118.521 59.7368 118.581C59.4132 118.623 59.0856 118.541 58.8203 118.351C58.527 118.137 58.3018 117.843 58.1717 117.505C57.8692 116.761 57.7624 115.952 57.8615 115.155C57.898 114.836 57.9657 114.521 58.0636 114.215L58.1012 114.342C57.5082 113.856 57.0515 113.224 56.7758 112.509L56.898 112.57C56.1926 112.738 55.4495 112.636 54.8159 112.283C54.6472 112.184 54.4896 112.068 54.3459 111.935C54.2519 111.836 54.2049 111.78 54.2143 111.775C54.2237 111.771 54.4399 111.959 54.8817 112.175C55.4968 112.468 56.1948 112.538 56.8557 112.372L56.945 112.349L56.9779 112.433C57.2589 113.105 57.7012 113.698 58.2657 114.158L58.3268 114.21V114.285C58.2356 114.573 58.1711 114.869 58.1341 115.169C58.0421 115.929 58.1373 116.7 58.4114 117.415C58.5242 117.718 58.7176 117.985 58.9707 118.186C59.1731 118.353 59.4277 118.443 59.6898 118.44C59.9168 118.398 60.1243 118.284 60.282 118.116C60.4161 117.997 60.5304 117.857 60.6204 117.702C60.7132 117.567 60.7609 117.406 60.7567 117.242Z" fill="#8E4842"/>
<path d="M56.447 110.474C56.5175 110.474 56.447 110.944 56.6115 111.475C56.776 112.006 56.9452 112.452 56.8747 112.48C56.618 112.224 56.4444 111.897 56.3765 111.54C56.3056 111.369 56.2751 111.184 56.2873 110.999C56.2995 110.814 56.3542 110.634 56.447 110.474Z" fill="#8E4842"/>
<path d="M57.4761 114.262C57.4761 114.332 56.6583 114.107 55.6572 114.168C54.6561 114.229 53.89 114.534 53.8618 114.464C54.4043 114.144 55.0156 113.959 55.6444 113.924C56.2732 113.888 56.9013 114.004 57.4761 114.262Z" fill="#8E4842"/>
<path d="M67.9244 107.508C67.8065 107.548 67.6809 107.559 67.5578 107.541C67.2221 107.52 66.8934 107.436 66.5896 107.292C66.1379 107.08 65.7335 106.779 65.4005 106.408C64.9988 105.953 64.6634 105.443 64.4041 104.895C63.779 103.781 63.6333 102.474 64.0892 101.699C64.1675 101.543 64.2823 101.408 64.4238 101.305C64.5654 101.203 64.7295 101.136 64.9023 101.111C65.0295 101.094 65.1588 101.12 65.2689 101.186C65.2689 101.21 65.1326 101.186 64.9164 101.186C64.7675 101.226 64.6294 101.298 64.5123 101.398C64.3951 101.498 64.3019 101.624 64.2396 101.764C64.047 102.191 63.988 102.666 64.0704 103.127C64.1032 103.404 64.1647 103.677 64.2537 103.941C64.3633 104.222 64.4872 104.498 64.625 104.768C64.8751 105.296 65.1909 105.79 65.565 106.239C65.8759 106.595 66.2484 106.893 66.6648 107.118C67.0606 107.315 67.4861 107.447 67.9244 107.508Z" fill="#8E4842"/>
<path d="M68.5823 114.516C68.5071 114.516 68.3191 113.688 67.7692 112.8C67.2193 111.912 66.5613 111.348 66.613 111.291C67.1686 111.639 67.6358 112.112 67.9776 112.671C68.3193 113.231 68.5264 113.862 68.5823 114.516Z" fill="#8E4842"/>
<path d="M63.5485 93.53C63.6049 93.5629 63.431 94 63.0785 94.4324C62.726 94.8648 62.3218 95.128 62.2842 95.081C62.2466 95.034 62.5427 94.7003 62.8858 94.2773C63.2289 93.8543 63.4874 93.53 63.5485 93.53Z" fill="#8E4842"/>
<path d="M66.1243 107.912C66.0538 107.912 66.0256 107.686 66.0538 107.442C66.082 107.198 66.1619 106.972 66.2277 106.972C66.2935 106.972 66.3264 107.198 66.2982 107.442C66.27 107.686 66.1901 107.917 66.1243 107.912Z" fill="#8E4842"/>
<path d="M51.3098 166.07C51.408 165.908 51.5265 165.76 51.6623 165.628C51.9067 165.36 52.2498 164.965 52.6634 164.472C53.747 163.185 54.7366 161.821 55.6244 160.392C56.512 158.961 57.2973 157.469 57.9744 155.927C58.2329 155.335 58.4444 154.856 58.5666 154.517C58.6246 154.338 58.7034 154.166 58.8016 154.005C58.7717 154.191 58.7229 154.374 58.6559 154.55C58.5478 154.898 58.3739 155.391 58.1342 155.998C57.5021 157.569 56.7363 159.083 55.8453 160.524C54.9512 161.963 53.9338 163.322 52.8044 164.585C52.372 165.055 52.0054 165.445 51.7422 165.694C51.6108 165.833 51.4659 165.959 51.3098 166.07Z" fill="#8E4842"/>
<path d="M153.619 164.82L168.424 168.279L165.351 148.398L153.093 142.09C148.42 139.683 143.364 138.105 138.152 137.428L129.842 136.352L107.136 136.46C102.032 135.872 95.0432 137.635 86.5127 141.677L68.0793 149.709L78.5885 170.962L90.08 167.442L91.0999 176.795L93.5909 207.293L91.4618 224.19H147.392L143.237 215.415C141.347 211.429 140.85 206.924 141.827 202.622L149.056 167.752C149.156 167.257 149.355 166.786 149.641 166.369C149.926 165.951 150.293 165.596 150.718 165.322C151.144 165.049 151.62 164.863 152.118 164.777C152.616 164.691 153.127 164.705 153.619 164.82Z" fill="#00ACE9"/>
<path d="M147.392 224.19H91.4619L93.591 207.312L91.0953 176.819L90.0801 167.475L78.5886 170.995L68.0747 149.728L86.5081 141.696C90.2274 139.882 94.1116 138.428 98.1077 137.353C101.553 136.483 104.594 136.187 107.136 136.483L129.842 136.371L138.156 137.452C143.369 138.125 148.425 139.701 153.098 142.109L165.36 148.426L168.438 168.321L153.633 164.862C153.144 164.746 152.635 164.73 152.139 164.814C151.643 164.898 151.168 165.081 150.744 165.352C150.32 165.622 149.954 165.976 149.669 166.391C149.384 166.805 149.185 167.273 149.084 167.767L141.851 202.636C140.872 206.936 141.368 211.441 143.261 215.425L147.392 224.19ZM91.4619 224.167H147.354L143.209 215.401C141.314 211.413 140.817 206.903 141.799 202.598L149.027 167.729C149.131 167.234 149.332 166.764 149.62 166.347C149.907 165.931 150.275 165.576 150.701 165.304C151.128 165.031 151.604 164.847 152.103 164.761C152.602 164.676 153.112 164.691 153.605 164.806L168.41 168.26L165.341 148.407L153.088 142.1C148.418 139.692 143.363 138.116 138.152 137.442L129.842 136.361L107.136 136.474C104.594 136.183 101.558 136.474 98.1124 137.343C94.1172 138.416 90.2344 139.87 86.5175 141.686L68.0935 149.714L78.5933 170.948L90.0895 167.423L91.1047 176.776L93.6004 207.275L91.4619 224.167Z" fill="#161B46"/>
<path d="M91.1001 176.795C91.0434 176.527 91.0088 176.256 90.9967 175.982C90.9403 175.418 90.8698 174.671 90.7805 173.764C90.5925 171.884 90.2776 169.313 89.8029 166.483C89.3282 163.654 88.7689 161.111 88.3318 159.278C88.1203 158.395 87.9417 157.666 87.8101 157.112C87.7327 156.85 87.6746 156.583 87.6362 156.313C87.7448 156.564 87.8328 156.823 87.8994 157.088C88.0545 157.591 88.2613 158.324 88.501 159.236C88.971 161.06 89.5632 163.602 90.0426 166.441C90.522 169.28 90.8087 171.87 90.9544 173.75C91.0296 174.69 91.0719 175.451 91.0907 175.977C91.1144 176.249 91.1176 176.523 91.1001 176.795Z" fill="#161B46"/>
<path d="M155.128 157.765C155.156 157.803 154.433 158.263 153.384 159.175C152.775 159.697 152.197 160.256 151.655 160.848C150.325 162.302 149.225 163.95 148.393 165.736C148.055 166.466 147.76 167.214 147.509 167.978C147.091 169.289 146.945 170.131 146.898 170.121C146.9 169.92 146.923 169.72 146.969 169.524C147.002 169.336 147.044 169.101 147.11 168.833C147.176 168.566 147.237 168.26 147.345 167.931C147.572 167.15 147.853 166.385 148.186 165.642C148.604 164.738 149.087 163.866 149.634 163.034C150.191 162.203 150.811 161.417 151.49 160.684C152.046 160.089 152.643 159.535 153.276 159.025C153.54 158.799 153.798 158.625 154.024 158.46C154.249 158.296 154.442 158.169 154.606 158.066C154.77 157.948 154.945 157.848 155.128 157.765Z" fill="#161B46"/>
<path d="M123.864 176.72C123.864 176.72 123.864 176.744 123.84 176.8L123.765 177.035L123.441 177.951L122.2 181.42C121.095 184.433 119.521 188.714 117.641 193.842L117.5 194.11L117.401 193.833C115.662 189.034 113.613 183.394 111.437 177.383C111.348 177.143 111.263 176.913 111.178 176.673V176.631V176.588L117.5 160.298L117.603 160.044L117.697 160.298L122.2 172.194L123.441 175.522C123.577 175.893 123.685 176.184 123.76 176.396C123.793 176.485 123.817 176.56 123.84 176.617C123.864 176.673 123.864 176.697 123.84 176.697C123.825 176.671 123.812 176.645 123.803 176.617L123.709 176.396L123.356 175.522C123.055 174.746 122.614 173.642 122.059 172.208L117.5 160.373H117.697C115.874 165.116 113.721 170.713 111.423 176.678V176.593C111.507 176.823 111.592 177.063 111.681 177.303L117.617 193.753H117.415C119.328 188.653 120.926 184.39 122.054 181.392L123.375 177.923C123.525 177.528 123.643 177.223 123.732 177.007L123.826 176.772C123.85 176.72 123.859 176.72 123.864 176.72Z" fill="#FAFAFF"/>
<path d="M137.118 177.068C137.118 177.068 137.118 177.091 137.118 177.143L137.038 177.383C136.959 177.599 136.851 177.904 136.714 178.299L135.449 181.782C134.345 184.795 132.77 189.076 130.89 194.204L130.792 194.477L130.688 194.199C128.949 189.401 126.928 183.761 124.724 177.749L124.465 177.04V176.997V176.955C126.782 170.981 128.94 165.402 130.777 160.665L130.876 160.411L130.97 160.665C132.85 165.581 134.387 169.679 135.477 172.561L136.718 175.888C136.855 176.259 136.963 176.551 137.038 176.762C137.071 176.852 137.094 176.927 137.118 176.983C137.141 177.04 137.141 177.063 137.118 177.063L137.08 176.983L136.986 176.762C136.902 176.551 136.784 176.259 136.638 175.888L135.36 172.579C134.251 169.712 132.672 165.637 130.782 160.745H130.975C129.151 165.487 127.003 171.085 124.7 177.049V176.96L124.959 177.669C127.126 183.681 129.161 189.325 130.895 194.119H130.66C132.573 189.02 134.176 184.757 135.299 181.758L136.62 178.285L136.977 177.345L137.071 177.11C137.086 177.095 137.102 177.081 137.118 177.068Z" fill="#FAFAFF"/>
<path d="M143.909 194.336C143.854 194.227 143.806 194.116 143.764 194.002C143.67 193.757 143.547 193.438 143.388 193.034L142.053 189.448L137.71 177.585C137.668 177.458 137.621 177.331 137.578 177.213V177.171V177.129C139.336 172.626 140.915 168.566 142.067 165.605L143.449 162.136C143.608 161.746 143.74 161.436 143.834 161.196C143.878 161.085 143.928 160.977 143.984 160.872C143.962 160.988 143.927 161.101 143.881 161.21L143.538 162.15C143.218 163.001 142.777 164.19 142.227 165.647C141.094 168.617 139.534 172.697 137.809 177.199V177.115C137.851 177.228 137.898 177.354 137.94 177.481C139.604 182.111 141.103 186.303 142.203 189.368C142.73 190.876 143.143 192.103 143.467 192.982C143.608 193.391 143.717 193.72 143.801 193.964C143.852 194.083 143.888 194.208 143.909 194.336Z" fill="#FAFAFF"/>
<path d="M111.31 176.631C111.304 176.658 111.297 176.685 111.287 176.711L111.207 176.946C111.132 177.167 111.023 177.472 110.882 177.886C110.586 178.699 110.163 179.878 109.623 181.368C108.514 184.381 106.944 188.663 105.059 193.786L104.96 194.063L104.862 193.786C103.118 188.987 101.074 183.347 98.8927 177.336L98.6389 176.626V176.584V176.541L104.946 160.251L105.045 159.997L105.144 160.251L109.646 172.147C110.182 173.557 110.586 174.69 110.892 175.47C111.028 175.846 111.132 176.137 111.211 176.349C111.24 176.438 111.268 176.513 111.287 176.57C111.296 176.594 111.304 176.619 111.31 176.645C111.31 176.645 111.31 176.621 111.273 176.57C111.235 176.518 111.216 176.438 111.179 176.349L110.826 175.475C110.521 174.694 110.083 173.595 109.524 172.156L104.946 160.326H105.144C103.315 165.069 101.168 170.666 98.8692 176.631V176.541L99.123 177.251C101.294 183.262 103.33 188.907 105.059 193.701H104.862L109.496 181.34C110.065 179.855 110.506 178.685 110.817 177.867C110.972 177.477 111.089 177.171 111.174 176.95L111.273 176.715C111.279 176.685 111.292 176.656 111.31 176.631Z" fill="#FAFAFF"/>
<path d="M90.3716 170.102C90.3711 170.041 90.379 169.979 90.3951 169.919C90.3951 169.783 90.4515 169.609 90.4938 169.393C90.5878 168.923 90.7241 168.237 90.8933 167.386C91.2599 165.633 91.7722 163.156 92.3926 160.19L92.4584 159.856L92.5853 160.176C93.9013 163.598 95.4852 167.696 97.1866 172.142C97.7647 173.646 98.324 175.113 98.8645 176.527V176.57V176.612L94.2914 188.832L92.9284 192.409C92.7686 192.813 92.6417 193.132 92.5524 193.349C92.512 193.46 92.4633 193.569 92.4067 193.673C92.4307 193.557 92.4653 193.444 92.5101 193.334L92.8485 192.362C93.1587 191.497 93.6005 190.279 94.1457 188.761C95.2784 185.683 96.8482 181.411 98.6389 176.541V176.626C98.0984 175.216 97.5344 173.745 96.961 172.241L92.3926 160.27H92.59C91.9367 163.236 91.3915 165.703 91.0061 167.447C90.8134 168.293 90.663 168.96 90.5361 169.44L90.4092 169.966C90.4016 170.013 90.389 170.058 90.3716 170.102Z" fill="#FAFAFF"/>
<path d="M147.406 167.969L143.984 161.421L144.003 161.412L147.425 167.954L147.406 167.969Z" fill="#FAFAFF"/>
<path d="M127.591 200.728C127.547 200.809 127.493 200.885 127.431 200.953L126.937 201.569C126.51 202.1 125.861 202.847 125.057 203.75C124.254 204.652 123.22 205.7 122.049 206.819C120.879 207.937 119.549 209.117 118.101 210.292C116.654 211.467 115.211 212.52 113.871 213.436C112.532 214.353 111.301 215.124 110.243 215.739C109.186 216.355 108.321 216.834 107.71 217.149L107.009 217.507C106.928 217.549 106.843 217.585 106.756 217.615C106.828 217.558 106.905 217.507 106.986 217.464L107.667 217.074C108.264 216.74 109.12 216.247 110.163 215.612C111.207 214.978 112.424 214.202 113.754 213.262C115.084 212.322 116.499 211.284 117.951 210.113C119.403 208.943 120.719 207.763 121.899 206.664C123.079 205.564 124.099 204.53 124.931 203.637C125.762 202.744 126.435 202.02 126.881 201.508L127.407 200.92C127.464 200.851 127.525 200.787 127.591 200.728Z" fill="#161B46"/>
<g opacity="0.3">
<path opacity="0.3" d="M97.4497 184.926C99.8655 186.158 103.047 186.054 105.867 185.396C108.687 184.738 111.296 183.544 114.045 182.689C116.795 181.834 119.845 181.312 122.581 182.012C124.724 182.557 126.618 183.836 128.893 183.789C130.303 183.756 131.76 183.201 133.123 183.469C133.521 183.539 133.9 183.694 134.232 183.925C134.565 184.155 134.844 184.455 135.049 184.804C135.254 185.152 135.381 185.541 135.421 185.944C135.461 186.347 135.413 186.753 135.28 187.135C134.716 188.616 133.052 189.711 131.261 190.275C126.655 191.722 121.645 190.153 116.762 190.298C113.862 190.383 111.019 191.079 108.142 191.45C105.266 191.821 102.168 191.835 99.7104 190.67C97.2523 189.504 95.7436 186.853 97.0408 184.71" fill="#2D3259"/>
</g>
<path d="M149.084 141.221C149.021 141.434 148.937 141.64 148.835 141.837C148.745 142.029 148.637 142.264 148.525 142.546C148.412 142.828 148.275 143.139 148.153 143.486C147.847 144.32 147.59 145.17 147.382 146.034C146.873 148.151 146.68 150.332 146.809 152.506C146.858 153.392 146.961 154.274 147.119 155.147C147.176 155.523 147.26 155.857 147.317 156.153C147.373 156.449 147.439 156.703 147.495 156.905C147.56 157.117 147.607 157.334 147.636 157.553C147.537 157.355 147.46 157.147 147.406 156.933C147.319 156.688 147.246 156.438 147.185 156.186C147.115 155.89 147.016 155.556 146.95 155.18C146.766 154.303 146.644 153.414 146.583 152.52C146.511 151.424 146.521 150.324 146.612 149.23C146.716 148.137 146.9 147.053 147.162 145.987C147.38 145.117 147.658 144.262 147.993 143.43C148.125 143.068 148.275 142.758 148.402 142.49C148.506 142.252 148.622 142.02 148.75 141.794C148.845 141.594 148.957 141.402 149.084 141.221Z" fill="#161B46"/>
<path d="M92.026 139.59C92.0542 139.59 91.744 140.06 91.2975 140.812C90.7128 141.79 90.2097 142.815 89.7935 143.876C89.382 144.945 89.0582 146.045 88.8253 147.166C88.7548 147.641 88.6591 148.112 88.5386 148.576C88.5158 148.449 88.5158 148.318 88.5386 148.191C88.5386 147.942 88.595 147.585 88.6608 147.152C89.0353 144.87 89.8838 142.69 91.1518 140.756C91.4009 140.384 91.6218 140.098 91.7675 139.905C91.9132 139.712 92.0119 139.59 92.026 139.59Z" fill="#161B46"/>
<g opacity="0.3">
<path opacity="0.3" d="M87.7864 157.45C87.2647 159.208 86.7524 161.017 86.9216 162.841C87.0908 164.664 88.1154 166.53 89.8309 167.165C89.3327 163.941 88.7186 160.738 87.9885 157.558" fill="#2D3259"/>
</g>
<path d="M127.812 90.8604C128.712 90.9579 129.542 91.3896 130.139 92.0702C130.736 92.7508 131.056 93.6307 131.036 94.5358L128.878 138.716C128.78 144.483 120.357 147.721 114.21 147.58C107.973 146.104 107.743 142.363 107.667 136.878C107.536 127.713 107.578 130.928 107.573 130.98C107.569 131.031 99.6962 129.654 98.0888 119.375C97.2851 114.262 97.5624 105.877 98.0089 99.029C98.4131 92.8626 102.511 85.305 108.659 85.9677L127.812 90.8604Z" fill="#B2655F"/>
<path d="M101.407 105.708C101.403 106.052 101.534 106.384 101.771 106.633C102.007 106.882 102.332 107.029 102.676 107.043C102.844 107.056 103.012 107.036 103.172 106.983C103.332 106.931 103.479 106.847 103.606 106.737C103.733 106.626 103.837 106.492 103.911 106.341C103.986 106.19 104.029 106.026 104.039 105.858C104.042 105.515 103.911 105.183 103.674 104.934C103.438 104.685 103.113 104.538 102.77 104.523C102.602 104.509 102.433 104.529 102.273 104.581C102.113 104.633 101.966 104.717 101.838 104.828C101.711 104.938 101.608 105.073 101.534 105.224C101.46 105.375 101.417 105.54 101.407 105.708Z" fill="#161B46"/>
<path d="M99.795 103.757C99.9548 103.931 100.956 103.193 102.375 103.203C103.795 103.212 104.833 103.922 104.989 103.748C105.064 103.668 104.895 103.358 104.443 103.029C103.832 102.601 103.103 102.375 102.357 102.38C101.618 102.373 100.896 102.604 100.298 103.038C99.8608 103.372 99.7151 103.682 99.795 103.757Z" fill="#161B46"/>
<path d="M115.15 105.858C115.146 106.202 115.276 106.534 115.513 106.783C115.75 107.032 116.075 107.179 116.419 107.193C116.587 107.206 116.755 107.185 116.915 107.132C117.074 107.079 117.221 106.994 117.348 106.884C117.474 106.773 117.577 106.638 117.651 106.487C117.725 106.336 117.768 106.172 117.777 106.004C117.782 105.661 117.653 105.329 117.417 105.081C117.18 104.832 116.856 104.686 116.513 104.674C116.345 104.659 116.176 104.678 116.016 104.73C115.855 104.782 115.707 104.866 115.58 104.977C115.453 105.087 115.349 105.222 115.275 105.374C115.201 105.525 115.159 105.69 115.15 105.858Z" fill="#161B46"/>
<path d="M113.862 103.757C114.027 103.931 115.028 103.193 116.447 103.203C117.866 103.212 118.905 103.922 119.056 103.748C119.131 103.668 118.971 103.358 118.515 103.029C117.902 102.601 117.171 102.375 116.424 102.38C115.686 102.373 114.966 102.604 114.37 103.038C113.933 103.372 113.782 103.682 113.862 103.757Z" fill="#161B46"/>
<path d="M108.57 114.21C108.57 114.13 107.696 113.975 106.267 113.792C105.905 113.754 105.562 113.679 105.501 113.434C105.468 113.049 105.555 112.664 105.75 112.33L106.826 109.576C108.325 105.651 109.406 102.422 109.251 102.366C109.096 102.31 107.752 105.44 106.253 109.364C105.896 110.332 105.548 111.244 105.223 112.137C104.995 112.57 104.927 113.069 105.031 113.547C105.082 113.675 105.162 113.79 105.265 113.882C105.368 113.974 105.49 114.041 105.623 114.078C105.816 114.147 106.016 114.191 106.22 114.21C107.667 114.271 108.57 114.276 108.57 114.21Z" fill="#161B46"/>
<path d="M107.55 130.98C112.39 131.067 117.16 129.807 121.326 127.342C121.326 127.342 117.834 134.589 107.55 133.602V130.98Z" fill="#8E4842"/>
<path d="M108.795 117.646C109.496 116.593 110.563 115.888 111.521 115.846C111.846 115.816 112.172 115.886 112.457 116.044C112.742 116.202 112.973 116.443 113.119 116.734C113.27 117.116 113.328 117.528 113.288 117.937C113.248 118.345 113.111 118.739 112.889 119.084C112.673 119.449 112.353 119.742 111.971 119.926C111.589 120.111 111.162 120.179 110.741 120.123C110.047 119.924 109.428 119.521 108.965 118.966C108.803 118.83 108.679 118.656 108.603 118.459C108.565 118.334 108.555 118.203 108.575 118.075C108.594 117.946 108.642 117.824 108.716 117.716" fill="#8E4842"/>
<path d="M112.739 115.188C112.509 115.188 112.504 116.715 111.183 117.806C109.862 118.896 108.222 118.722 108.208 118.938C108.208 119.032 108.575 119.234 109.266 119.258C110.168 119.272 111.047 118.967 111.747 118.398C112.418 117.849 112.851 117.063 112.955 116.203C113.016 115.559 112.842 115.178 112.739 115.188Z" fill="#161B46"/>
<path d="M113.058 100.5C113.232 100.871 114.624 100.552 116.301 100.585C117.979 100.618 119.361 100.942 119.549 100.585C119.629 100.411 119.361 100.072 118.783 99.7528C118.019 99.3631 117.173 99.1586 116.316 99.1559C115.459 99.1372 114.61 99.3224 113.839 99.6964C113.27 99.9925 112.979 100.326 113.058 100.5Z" fill="#161B46"/>
<path d="M99.9172 101.417C100.232 101.741 101.445 101.417 102.902 101.384C104.359 101.351 105.6 101.595 105.886 101.262C106.008 101.097 105.811 100.792 105.271 100.467C104.52 100.088 103.685 99.9082 102.845 99.9455C102.009 99.9515 101.189 100.177 100.467 100.599C99.9501 100.928 99.7809 101.262 99.9172 101.417Z" fill="#161B46"/>
<path d="M135.097 125.546C135.097 125.546 135.036 125.546 134.918 125.523C134.751 125.487 134.586 125.441 134.425 125.387C133.818 125.19 133.258 124.87 132.78 124.447C132.415 124.131 132.132 123.731 131.957 123.281C131.782 122.831 131.719 122.346 131.774 121.866C131.806 121.576 131.902 121.296 132.055 121.047C132.209 120.798 132.416 120.587 132.662 120.428C132.803 120.343 132.963 120.294 133.127 120.287C133.291 120.28 133.454 120.314 133.602 120.386C133.762 120.463 133.892 120.593 133.968 120.754C134.045 120.914 134.065 121.096 134.025 121.269C133.97 121.445 133.849 121.592 133.687 121.678C133.541 121.751 133.38 121.791 133.217 121.796C132.908 121.805 132.601 121.744 132.319 121.617C131.788 121.407 131.308 121.086 130.909 120.677C130.224 120.004 129.805 119.106 129.729 118.149C129.678 117.508 129.777 116.864 130.021 116.269C130.086 116.105 130.167 115.948 130.26 115.799C130.322 115.7 130.359 115.648 130.369 115.653C130.378 115.658 130.26 115.874 130.11 116.287C129.91 116.872 129.84 117.492 129.903 118.106C129.995 119.016 130.408 119.863 131.069 120.494C131.449 120.869 131.902 121.163 132.399 121.359C132.65 121.467 132.92 121.521 133.193 121.519C133.318 121.529 133.444 121.5 133.551 121.436C133.659 121.372 133.744 121.276 133.795 121.161C133.816 121.041 133.797 120.917 133.741 120.808C133.685 120.7 133.595 120.612 133.485 120.56C133.372 120.505 133.247 120.48 133.122 120.488C132.997 120.495 132.876 120.535 132.77 120.602C132.555 120.741 132.373 120.926 132.237 121.144C132.101 121.362 132.016 121.607 131.985 121.862C131.919 122.34 131.984 122.827 132.173 123.272C132.338 123.659 132.582 124.008 132.888 124.296C133.344 124.712 133.873 125.04 134.448 125.264C134.89 125.462 135.102 125.528 135.097 125.546Z" fill="#161B46"/>
<path d="M110.168 79.9376C109.549 79.5294 109.095 78.9137 108.89 78.2013C108.684 77.4888 108.739 76.7263 109.045 76.0507C108.612 75.4397 109.12 74.5326 109.825 74.2835C110.53 74.0344 111.301 74.2318 112.02 74.4292C111.827 74.0861 112.339 73.79 112.729 73.7289L115.451 73.2918C114.828 73.1301 114.25 72.8285 113.761 72.4099C113.273 71.9912 112.886 71.4666 112.631 70.876C112.129 69.6779 111.993 68.3582 112.241 67.0831C112.251 66.898 112.298 66.7168 112.379 66.5498C112.459 66.3829 112.572 66.2335 112.711 66.1102C113.526 67.0474 114.163 68.1257 114.591 69.2921C114.966 69.3109 115.332 69.408 115.667 69.5772C116.003 69.7464 116.299 69.9839 116.536 70.2744C116.581 70.1733 116.648 70.0835 116.732 70.0116C116.816 69.9396 116.915 69.8873 117.022 69.8585C117.128 69.8297 117.24 69.8251 117.349 69.845C117.458 69.8649 117.561 69.9088 117.65 69.9736C118.228 68.3662 119.314 66.6836 121.011 66.4768C120.48 65.7295 121.443 64.8318 122.266 64.4229C122.845 64.0854 123.483 63.862 124.146 63.7649C124.48 63.7207 124.821 63.7713 125.128 63.9108C125.436 64.0504 125.698 64.2734 125.885 64.5545C126.209 65.142 125.908 66.0397 125.245 66.1525C125.584 66.3952 125.832 66.7433 125.951 67.1423C126.07 67.5412 126.053 67.9684 125.903 68.3568C126.17 68.0405 126.534 67.8224 126.939 67.7372C127.343 67.652 127.765 67.7047 128.136 67.8868C129.317 67.3692 130.616 67.1809 131.896 67.3416C132.225 67.3617 132.542 67.4723 132.812 67.6612C133.005 67.821 133.132 68.0513 133.329 68.2017C133.636 68.3815 133.985 68.4741 134.34 68.4696C135.159 68.5082 135.946 68.7969 136.596 69.2968C136.914 69.5522 137.144 69.9008 137.254 70.2937C137.363 70.6865 137.347 71.1039 137.207 71.487C139.087 72.0933 140.943 69.936 142.88 70.3214C144.013 70.5423 144.797 71.581 145.291 72.6291C144.332 73.0163 143.294 73.1678 142.264 73.0709C142.197 73.3515 142.038 73.6016 141.812 73.7813C141.587 73.961 141.307 74.06 141.019 74.0626C141.092 74.1631 141.139 74.2799 141.156 74.4029C141.173 74.5258 141.16 74.6511 141.117 74.7677C141.074 74.8843 141.003 74.9885 140.911 75.0713C140.818 75.1541 140.707 75.2128 140.586 75.2423C141.772 74.929 143.021 74.9501 144.196 75.3034C146.005 75.7264 147.989 76.6758 148.426 78.4853C148.536 79.1339 148.536 79.7966 148.426 80.4452C148.313 81.4228 147.815 82.7012 146.847 82.5226C146.254 82.4098 145.944 81.7753 145.625 81.2583C144.914 80.116 143.783 79.299 142.476 78.9835C142.006 79.43 142.87 80.0034 143.242 80.5298C143.613 81.0562 143.463 81.7518 143.552 82.3769C143.698 83.3169 144.398 84.0971 144.816 84.9666C145.723 86.8466 145.249 89.0697 144.755 91.0766C144.624 91.6312 143.998 92.3127 143.655 91.8568C143.998 91.9434 144.301 92.1463 144.511 92.4308C144.721 92.7154 144.825 93.064 144.807 93.4172C144.75 94.1224 144.526 94.804 144.154 95.4053C144.017 95.6732 143.848 95.9693 143.552 96.0351C143.129 96.1385 142.781 95.7108 142.556 95.3348L140.708 92.3033C140.85 92.9951 140.834 93.71 140.661 94.3948C140.361 95.7249 139.571 97.0832 138.269 97.4733C137.371 97.7412 136.413 97.5015 135.506 97.2665" fill="#161B46"/>
<path d="M130.401 111.902C130.002 111.733 128.399 112.372 128.131 112.048C126.792 110.304 126.063 105.327 125.73 103.156C125.396 100.984 126.754 98.5543 126.547 96.3641C126.383 94.611 126.077 92.7639 124.893 91.4432C124.163 90.6644 123.25 90.0797 122.238 89.7418C120.696 89.1923 119.045 89.0182 117.423 89.234C115.8 89.4498 114.253 90.0492 112.908 90.9826C111.808 91.7628 110.765 92.8062 109.421 92.9331C108.076 93.06 106.878 92.2375 105.726 91.5513C104.575 90.8651 103.156 90.2588 101.938 90.8181C101.471 91.059 101.06 91.3953 100.73 91.8051C99.8938 92.7451 98.1689 96.9751 98.1407 98.6436C98.1407 98.6436 97.29 94.7661 98.7564 91.18C100.524 86.8513 105.285 81.9539 112.856 80.7225C125.006 78.7485 130.716 85.5118 132.86 90.3481C133.8 92.4208 134.556 97.8681 133.884 102.051C133.304 105.512 132.126 108.846 130.401 111.902Z" fill="#161B46"/>
<path d="M133.663 92.026C133.48 92.0824 132.986 90.7147 131.783 88.7642C131.08 87.6259 130.276 86.5531 129.381 85.5588C128.321 84.3458 127.064 83.3195 125.664 82.5226C124.232 81.7798 122.689 81.2765 121.095 81.0327C119.783 80.8283 118.451 80.7825 117.128 80.8964C114.854 81.0985 113.486 81.6249 113.415 81.4369C113.383 81.3664 113.688 81.1408 114.294 80.8635C115.162 80.476 116.075 80.1981 117.011 80.0363C118.408 79.7924 119.832 79.7513 121.241 79.9141C122.987 80.1126 124.68 80.6321 126.237 81.4463C127.766 82.3088 129.118 83.4521 130.223 84.8162C131.131 85.9028 131.909 87.0922 132.54 88.36C133.597 90.4938 133.804 91.9884 133.663 92.026Z" fill="#00ACE9"/>
<path d="M121.796 81.4698C121.554 81.5146 121.309 81.5429 121.063 81.5544C120.397 81.6231 119.736 81.733 119.084 81.8834C116.931 82.3704 114.915 83.3372 113.187 84.7117C111.46 86.0862 110.064 87.8329 109.106 89.8217C108.81 90.4216 108.554 91.0402 108.34 91.6735C108.271 91.9103 108.188 92.1427 108.091 92.3691C108.091 92.3691 108.091 92.2986 108.119 92.1764C108.147 92.0542 108.18 91.8709 108.246 91.6453C108.431 91.0019 108.665 90.3734 108.946 89.7653C109.878 87.7258 111.279 85.9352 113.034 84.5394C114.789 83.1436 116.849 82.1821 119.046 81.733C119.708 81.5963 120.379 81.5114 121.053 81.4792C121.293 81.4792 121.476 81.4792 121.603 81.4792C121.73 81.4792 121.796 81.4604 121.796 81.4698Z" fill="#737690"/>
<path d="M125.02 82.9362C124.563 83.2181 124.093 83.4769 123.61 83.7117C122.466 84.3291 121.358 85.0117 120.292 85.7562C119.228 86.5042 118.21 87.314 117.241 88.1814C116.856 88.5596 116.451 88.9173 116.029 89.253C116.102 89.1267 116.192 89.0112 116.297 88.9099C116.485 88.6984 116.767 88.407 117.124 88.0545C119.011 86.2293 121.173 84.7116 123.53 83.5566C124 83.3404 124.353 83.1759 124.616 83.0866C124.743 83.0183 124.879 82.9677 125.02 82.9362Z" fill="#737690"/>
<path d="M131.6 88.3882C131.61 88.5249 131.602 88.6624 131.577 88.7971C131.544 89.0556 131.483 89.4316 131.384 89.8875C131.125 91.0831 130.747 92.2499 130.256 93.3702C129.764 94.4913 129.165 95.5617 128.465 96.5662C128.192 96.9469 127.962 97.2477 127.788 97.4451C127.614 97.6425 127.52 97.7506 127.506 97.7412C127.492 97.7318 127.821 97.2712 128.319 96.4675C128.972 95.4498 129.544 94.3828 130.03 93.2762C130.512 92.166 130.908 91.0206 131.215 89.8499C131.316 89.356 131.445 88.868 131.6 88.3882Z" fill="#737690"/>
<path d="M128.216 103.085C128.178 103.052 128.709 102.488 129.419 101.464C129.833 100.861 130.208 100.233 130.543 99.5836C130.947 98.7891 131.293 97.9659 131.577 97.1208C132.082 95.58 132.369 93.9757 132.427 92.355C132.47 91.1095 132.38 90.3387 132.427 90.334C132.482 90.5092 132.514 90.691 132.521 90.8745C132.581 91.3672 132.61 91.8633 132.606 92.3597C132.605 93.0975 132.55 93.8342 132.441 94.564C132.301 95.4576 132.092 96.3391 131.816 97.2007C131.526 98.0577 131.17 98.8906 130.749 99.6917C130.4 100.346 130.004 100.974 129.565 101.572C129.276 101.973 128.962 102.356 128.625 102.718C128.502 102.854 128.365 102.977 128.216 103.085Z" fill="#737690"/>
<path d="M89.4268 92.2986C89.4268 92.2986 89.6242 92.5007 89.9861 92.8391C90.489 93.3219 91.0813 93.7018 91.7298 93.9577C92.2025 94.1482 92.7116 94.2314 93.2204 94.2013C93.7292 94.1712 94.2249 94.0286 94.6719 93.7838C95.1831 93.4768 95.5693 92.999 95.7624 92.4349C95.8709 92.1413 95.9104 91.8266 95.8778 91.5153C95.8452 91.2039 95.7414 90.9043 95.5744 90.6395C95.4953 90.513 95.3851 90.4089 95.2542 90.3373C95.1233 90.2657 94.9762 90.2289 94.827 90.2306C94.6888 90.235 94.5562 90.287 94.4518 90.3778C94.3473 90.4685 94.2774 90.5925 94.2536 90.7288C94.1616 91.3144 94.3053 91.9126 94.6532 92.3926C94.9561 92.8373 95.3825 93.1836 95.8799 93.389C96.3201 93.56 96.8016 93.5944 97.2617 93.4877C97.939 93.3328 98.534 92.9305 98.9302 92.3597C99.067 92.1431 99.1879 91.917 99.292 91.6829C99.2911 91.7504 99.2784 91.8172 99.2544 91.8803C99.1957 92.0669 99.1136 92.2454 99.01 92.4114C98.6264 93.034 98.0138 93.4812 97.3039 93.6569C96.8093 93.7841 96.2876 93.7562 95.8094 93.577C95.2641 93.365 94.7934 92.9972 94.4558 92.5195C94.2579 92.2587 94.1144 91.9608 94.0337 91.6436C93.9529 91.3263 93.9366 90.9961 93.9858 90.6724C94.0284 90.4923 94.1232 90.3288 94.2584 90.2024C94.4045 90.0745 94.5906 90.0013 94.7848 89.9956C94.9714 89.9947 95.1553 90.0407 95.3196 90.1294C95.4838 90.2181 95.6231 90.3466 95.7248 90.5032C95.9156 90.7991 96.0346 91.1356 96.0722 91.4857C96.1097 91.8358 96.0648 92.1899 95.941 92.5195C95.7306 93.1378 95.3031 93.6589 94.7378 93.9859C94.2628 94.243 93.7359 94.3896 93.1964 94.4148C92.6568 94.4401 92.1186 94.3432 91.6217 94.1316C90.959 93.8522 90.3619 93.4376 89.8686 92.9143C89.7347 92.7762 89.6092 92.6302 89.4926 92.4772C89.4624 92.421 89.4403 92.3609 89.4268 92.2986Z" fill="#161B46"/>
<path d="M151.81 89.2718C151.722 89.3026 151.63 89.3216 151.537 89.3282C151.359 89.3611 151.091 89.4034 150.743 89.441C149.76 89.5826 148.76 89.5428 147.792 89.3235C147.117 89.1566 146.491 88.8348 145.963 88.3835C145.658 88.1198 145.408 87.7985 145.227 87.438C145.047 87.0775 144.939 86.6848 144.91 86.2826C144.877 85.8403 144.958 85.3967 145.145 84.9948C145.347 84.5737 145.676 84.2268 146.085 84.0031C146.511 83.7719 146.988 83.6508 147.472 83.6508C147.956 83.6508 148.433 83.7719 148.858 84.0031C149.086 84.1212 149.278 84.2981 149.415 84.5155C149.551 84.7328 149.627 84.9827 149.634 85.2392C149.61 85.4884 149.521 85.7269 149.375 85.9301C149.229 86.1333 149.031 86.2939 148.802 86.3954C148.379 86.5798 147.917 86.6526 147.458 86.6069C147.031 86.5758 146.607 86.505 146.194 86.3954C144.751 86.012 143.481 85.1524 142.589 83.9561C141.996 83.1566 141.594 82.2322 141.414 81.2536C141.364 80.9898 141.335 80.7227 141.324 80.4546C141.311 80.3611 141.311 80.2661 141.324 80.1726C141.348 80.1726 141.348 80.558 141.498 81.2348C141.71 82.1862 142.127 83.0798 142.72 83.8527C143.599 85.006 144.838 85.8331 146.241 86.2027C146.641 86.3037 147.05 86.3682 147.463 86.3954C147.881 86.4378 148.303 86.3731 148.689 86.2074C148.89 86.1351 149.065 86.0033 149.189 85.8294C149.314 85.6556 149.383 85.4479 149.386 85.2341C149.39 85.0203 149.328 84.8105 149.209 84.6326C149.091 84.4546 148.921 84.317 148.722 84.2381C148.333 84.0275 147.898 83.9172 147.455 83.9172C147.013 83.9172 146.578 84.0275 146.189 84.2381C145.832 84.4413 145.542 84.7434 145.354 85.1079C145.165 85.4724 145.086 85.8836 145.127 86.292C145.148 86.6671 145.245 87.0342 145.41 87.3716C145.576 87.7089 145.807 88.0098 146.09 88.2566C146.59 88.6986 147.185 89.0202 147.829 89.1966C148.777 89.4234 149.756 89.487 150.724 89.3846L151.523 89.3188C151.616 89.2908 151.713 89.275 151.81 89.2718Z" fill="#161B46"/>
<path d="M104.288 67.0596C104.168 67.3628 104.079 67.6779 104.025 67.9996C103.97 68.4361 104.004 68.8792 104.126 69.3018C104.248 69.7245 104.455 70.1178 104.735 70.4577C105.167 70.9421 105.726 71.2969 106.348 71.4828C106.971 71.6686 107.632 71.6782 108.26 71.5105C108.627 71.4393 108.97 71.2766 109.257 71.0375C109.545 70.7985 109.768 70.4907 109.905 70.1428C109.954 69.959 109.963 69.767 109.933 69.5791C109.904 69.3913 109.834 69.2118 109.731 69.0524C109.633 68.8888 109.485 68.7609 109.309 68.6873C109.133 68.6137 108.938 68.5984 108.753 68.6435C108.566 68.6998 108.393 68.7962 108.247 68.9261C108.101 69.056 107.985 69.2162 107.907 69.3955C107.752 69.7547 107.738 70.1595 107.87 70.5282C108.156 71.2425 108.647 71.857 109.28 72.2954C110.159 72.9604 111.181 73.4125 112.265 73.6163C113.348 73.8202 114.465 73.7703 115.526 73.4704C116.132 73.2918 116.466 73.1273 116.466 73.1555C116.397 73.204 116.323 73.2449 116.245 73.2777C116.025 73.3885 115.797 73.4828 115.563 73.5597C114.701 73.8447 113.79 73.9534 112.884 73.8793C111.529 73.7777 110.232 73.2882 109.148 72.4693C108.479 72.0028 107.964 71.3486 107.667 70.5893C107.515 70.1659 107.53 69.7 107.71 69.2874C107.802 69.073 107.94 68.8817 108.115 68.7272C108.289 68.5728 108.496 68.4591 108.72 68.3944C108.954 68.339 109.199 68.3586 109.421 68.4506C109.643 68.5426 109.83 68.7022 109.956 68.9067C110.079 69.0957 110.161 69.3086 110.196 69.5313C110.231 69.7541 110.218 69.9817 110.158 70.1992C110.03 70.6092 109.771 70.9658 109.421 71.2144C109.097 71.4523 108.73 71.6232 108.34 71.7173C107.674 71.8926 106.972 71.8772 106.315 71.6727C105.657 71.4683 105.071 71.0831 104.622 70.5611C104.336 70.2008 104.129 69.7846 104.014 69.3393C103.899 68.8941 103.879 68.4297 103.954 67.9761C103.998 67.7322 104.074 67.4952 104.18 67.2711C104.207 67.1964 104.244 67.1254 104.288 67.0596Z" fill="#161B46"/>
<path d="M127.882 110.384C127.995 108.109 130.477 106.591 132.446 107.733C133.527 108.358 134.359 109.613 134.26 112.029C133.992 118.473 127.581 116.88 127.577 116.692C127.577 116.56 127.751 113.049 127.882 110.384Z" fill="#B2655F"/>
<path d="M129.645 114.332C129.673 114.332 129.753 114.417 129.941 114.511C130.202 114.637 130.503 114.656 130.777 114.562C131.468 114.342 132.089 113.284 132.164 112.123C132.205 111.573 132.121 111.02 131.92 110.506C131.867 110.303 131.766 110.115 131.625 109.959C131.485 109.802 131.308 109.682 131.111 109.609C130.983 109.569 130.845 109.576 130.722 109.627C130.598 109.679 130.496 109.772 130.434 109.891C130.34 110.065 130.378 110.196 130.34 110.206C130.303 110.215 130.209 110.093 130.27 109.83C130.312 109.671 130.409 109.531 130.542 109.435C130.725 109.309 130.949 109.26 131.168 109.299C131.43 109.36 131.672 109.489 131.871 109.672C132.069 109.855 132.217 110.085 132.3 110.342C132.55 110.912 132.658 111.535 132.615 112.156C132.521 113.453 131.807 114.638 130.862 114.868C130.687 114.911 130.505 114.914 130.328 114.878C130.152 114.841 129.986 114.766 129.842 114.656C129.649 114.487 129.621 114.342 129.645 114.332Z" fill="#8E4842"/>
<path d="M188.084 153.483C184.856 145.023 150.202 117.801 150.202 117.801L140.243 123.14L165.365 148.417L168.053 165.905C168.053 165.905 176.428 168.316 180.005 167.973C186.674 167.32 189.847 158.103 188.084 153.483Z" fill="#B2655F"/>
<path d="M172.49 159.828C172.363 159.684 172.251 159.526 172.156 159.358C171.931 158.996 171.653 158.536 171.32 157.995C170.596 156.797 169.642 155.227 168.589 153.493C167.536 151.758 166.507 150.17 165.769 149.042L164.899 147.702C164.782 147.545 164.682 147.375 164.603 147.195C164.745 147.336 164.869 147.494 164.975 147.665C165.205 147.965 165.524 148.407 165.915 148.962C166.69 150.066 167.719 151.627 168.8 153.38C169.881 155.133 170.812 156.75 171.47 157.929C171.799 158.517 172.062 158.996 172.236 159.339C172.338 159.493 172.423 159.657 172.49 159.828Z" fill="#8E4842"/>
<path d="M140.21 97.7271C139.219 97.6801 139.345 98.559 139.613 99.217C139.881 99.875 141.437 103.485 141.437 103.485C141.437 103.485 137.677 96.7025 137.259 96.2983C136.84 95.8941 136.126 95.1609 135.567 95.5839C135.007 96.0069 135.247 96.5803 135.463 97.2571C135.661 97.8634 137.63 102.427 138.048 103.367C138.095 103.48 138.448 104.222 138.255 104.34C138.119 104.613 137.527 104.02 137.343 103.781L134.453 99.9643C134.453 99.9643 132.192 96.7871 131.666 96.9939C130.726 97.3605 130.256 97.8869 130.491 98.4368C130.726 98.9867 135.595 106.22 135.595 106.22L131.365 101.135C131.08 100.801 130.691 100.573 130.26 100.486C130.058 100.435 129.845 100.441 129.646 100.502C129.446 100.564 129.267 100.678 129.128 100.834C128.583 101.454 129.626 102.662 130.091 103.513C130.387 104.053 132.225 106.516 132.225 106.516L136.328 113.622L135.656 113.768L134.185 111.39L132.625 115.996C132.625 115.996 134.801 119.812 136.883 122.068C137.757 123.008 140.243 123.135 140.243 123.135L150.259 118.727C150.259 118.727 150.024 114.6 149.747 113.627C149.041 111.707 148.158 109.857 147.11 108.1C146.334 106.948 144.713 105.28 144.116 104.114C143.519 102.949 141.367 97.7882 140.21 97.7271Z" fill="#B2655F"/>
<path d="M143.787 107.249C143.82 107.282 143.378 107.743 142.847 108.598C142.524 109.098 142.243 109.623 142.006 110.168C141.719 110.837 141.494 111.531 141.334 112.241C141.186 112.952 141.103 113.676 141.085 114.403C141.073 114.997 141.109 115.591 141.193 116.179C141.343 117.185 141.55 117.787 141.508 117.801C141.428 117.675 141.369 117.537 141.334 117.392C141.271 117.228 141.219 117.06 141.179 116.889C141.114 116.665 141.062 116.437 141.023 116.208C140.911 115.611 140.856 115.005 140.859 114.398C140.863 112.906 141.183 111.433 141.799 110.074C142.052 109.523 142.354 108.996 142.701 108.5C142.842 108.283 142.997 108.105 143.124 107.945C143.233 107.807 143.351 107.677 143.477 107.555C143.566 107.439 143.67 107.336 143.787 107.249Z" fill="#8E4842"/>
<path d="M140.304 115.089C139.451 114.803 138.562 114.632 137.663 114.581C137.166 114.575 136.67 114.622 136.182 114.722H136.112L136.074 114.671C135.82 114.352 135.608 114.001 135.445 113.627C135.748 113.906 136.014 114.222 136.239 114.567L136.135 114.525C136.635 114.391 137.151 114.327 137.668 114.337C138.326 114.344 138.978 114.467 139.595 114.699C139.856 114.778 140.098 114.911 140.304 115.089Z" fill="#8E4842"/>
<path d="M143.886 105.167C143.435 105.321 142.975 105.448 142.509 105.548C140.292 106.144 138.17 107.049 136.206 108.236C135.81 108.503 135.399 108.746 134.975 108.965C135.32 108.635 135.701 108.344 136.112 108.1C137.077 107.458 138.1 106.907 139.167 106.455C140.229 106.001 141.33 105.644 142.457 105.388C142.923 105.26 143.403 105.185 143.886 105.167Z" fill="#8E4842"/>
<path d="M133.828 109.284C133.828 109.284 133.912 109.374 134.016 109.557C134.159 109.82 134.27 110.099 134.345 110.389C134.459 110.824 134.496 111.276 134.453 111.724C134.394 112.267 134.258 112.799 134.049 113.303C133.863 113.809 133.642 114.3 133.386 114.774C133.169 115.162 132.907 115.524 132.606 115.85C132.402 116.07 132.173 116.265 131.924 116.433C131.836 116.501 131.735 116.552 131.628 116.584C131.605 116.546 131.999 116.302 132.474 115.738C132.748 115.406 132.988 115.047 133.189 114.666C133.427 114.194 133.639 113.709 133.823 113.214C134.021 112.728 134.157 112.22 134.227 111.7C134.279 111.276 134.261 110.846 134.176 110.427C134.03 109.712 133.785 109.308 133.828 109.284Z" fill="#8E4842"/>
<path d="M220.768 224.19C220.768 224.256 174.53 224.312 117.505 224.312C60.4797 224.312 14.2317 224.237 14.2317 224.19C14.2317 224.143 60.4609 224.068 117.505 224.068C174.549 224.068 220.768 224.101 220.768 224.19Z" fill="#161B46"/>
</svg>
