<svg width="74" height="85" viewBox="0 0 74 85" fill="none" xmlns="http://www.w3.org/2000/svg">
<path d="M57.424 37.8062C57.4315 37.4946 57.3532 37.1868 57.1977 36.9166C57.0423 36.6464 56.8155 36.424 56.5423 36.2739C56.2691 36.1237 55.9599 36.0515 55.6484 36.0651C55.3369 36.0787 55.0352 36.1776 54.7761 36.351C54.2877 36.6573 53.8921 37.0909 53.6318 37.6052C52.9135 38.9238 52.8278 40.4809 52.6777 41.9736C52.5441 43.4589 52.1003 44.8996 51.3752 46.2027L56.8638 39.6635C57.2382 39.1173 57.4339 38.4684 57.424 37.8062Z" fill="#00ACE9"/>
<g opacity="0.2">
<path opacity="0.2" d="M57.424 37.8062C57.4315 37.4946 57.3532 37.1868 57.1977 36.9166C57.0423 36.6464 56.8155 36.424 56.5423 36.2739C56.2691 36.1237 55.9599 36.0515 55.6484 36.0651C55.3369 36.0787 55.0352 36.1776 54.7761 36.351C54.2877 36.6573 53.8921 37.0909 53.6318 37.6052C52.9135 38.9238 52.8278 40.4809 52.6777 41.9736C52.5441 43.4589 52.1003 44.8996 51.3752 46.2027L56.8638 39.6635C57.2382 39.1173 57.4339 38.4684 57.424 37.8062Z" fill="#0E1339"/>
</g>
<path d="M51.1367 34.2339C51.461 34.5019 62.1488 46.7709 62.1488 46.7709L56.368 51.3617L49.0248 42.2096L51.1367 34.2339Z" fill="#936754"/>
<path d="M19.2876 38.3794C19.0035 38.6956 10.3685 50.1714 10.3685 50.1714L15.7741 56.0299L22.4071 46.0147L19.2876 38.3794Z" fill="#936754"/>
<path d="M19.384 45.9831C20.0138 46.2726 20.3702 46.9453 20.6087 47.5911C20.8473 48.237 21.0241 48.9311 21.4717 49.4671C21.9193 50.0031 22.7554 50.2899 23.3182 49.8825C23.881 49.4752 23.881 48.6899 23.6398 48.0762C23.3197 47.3404 22.7696 46.7282 22.072 46.3315C21.3761 45.9405 20.624 45.6594 19.8423 45.498" fill="#00ACE9"/>
<g opacity="0.2">
<path opacity="0.2" d="M19.384 45.9831C20.0138 46.2726 20.3702 46.9453 20.6087 47.5911C20.8473 48.237 21.0241 48.9311 21.4717 49.4671C21.9193 50.0031 22.7554 50.2899 23.3182 49.8825C23.881 49.4752 23.881 48.6899 23.6398 48.0762C23.3197 47.3404 22.7696 46.7282 22.072 46.3315C21.3761 45.9405 20.624 45.6594 19.8423 45.498" fill="#0E1339"/>
</g>
<path d="M69.6287 69.1888C69.4353 69.1362 69.2382 69.0986 69.039 69.0763L47.4972 60.042H26.084L4.96561 68.3848C2.82161 69.0977 -0.236266 73.2812 1.49769 78.2794C1.54593 78.4188 1.59685 78.5474 1.64777 78.6841C3.03601 82.1681 6.88718 83.9691 10.4918 83.0043C13.4103 82.2244 17.6018 81.0827 21.9166 79.9008H22.4017L35.8365 76.0898C37.9403 76.6714 42.3623 77.8908 47.2774 79.2415C53.2512 80.8844 59.9512 82.7255 64.0864 83.8216C67.7017 84.7891 71.5556 82.9774 72.9304 79.5015C72.984 79.3702 73.0322 79.2335 73.0805 79.0968C74.8305 74.0852 71.7727 69.9017 69.6287 69.1888Z" fill="#737690"/>
<path d="M35.6704 76.1221L35.7455 76.0953L35.9625 76.0283L36.8148 75.779L40.0308 74.8625L39.9933 74.9268L37.8493 67.0476L37.9216 67.1039H35.7321C34.9736 67.1039 34.1964 67.1736 33.4031 67.2057L28.4451 67.4737C22.3187 67.8302 16.7818 68.2456 12.7752 68.5698L8.01818 68.9558L6.72643 69.0603L6.39143 69.0844C6.35312 69.0885 6.31449 69.0885 6.27618 69.0844C6.31283 69.0733 6.35057 69.0661 6.38874 69.063L6.72374 69.0254L8.01014 68.8861C9.13038 68.7735 10.7491 68.6181 12.7511 68.4412C16.755 68.0848 22.2945 67.6506 28.421 67.2942L33.3817 67.0262C34.1857 66.994 34.9549 66.9377 35.7133 66.9297H37.9859V66.9886C38.8194 70.1242 39.5403 72.8391 40.0817 74.8812L40.0951 74.9295L40.0469 74.9429L36.8309 75.8139L35.9706 76.0363L35.7481 76.0899C35.7246 76.1057 35.6982 76.1167 35.6704 76.1221Z" fill="#161B46"/>
<path d="M28.6943 67.3048C28.6702 67.3424 28.0753 67.002 27.4294 66.4633C26.7835 65.9246 26.3413 65.3913 26.3735 65.3699C26.4056 65.3484 26.9095 65.7987 27.5393 66.332C28.1691 66.8653 28.7211 67.262 28.6943 67.3048Z" fill="#161B46"/>
<path d="M67.088 69.9688C66.9898 69.9759 66.8913 69.9759 66.7932 69.9688L65.949 69.9178L62.8455 69.7061L52.616 69.0093L42.3703 68.3902L39.2642 68.208L38.412 68.1517C38.314 68.1494 38.2163 68.1395 38.1199 68.1223C38.2179 68.1129 38.3166 68.1129 38.4147 68.1223L39.2616 68.149L42.3677 68.2777C44.9941 68.3983 48.6174 68.5912 52.6187 68.8485C56.6199 69.1058 60.2379 69.3711 62.8563 69.5855L65.957 69.8535L66.7985 69.9339C66.8959 69.9364 66.9928 69.9481 67.088 69.9688Z" fill="#161B46"/>
<path d="M36.0268 69.5563C35.9973 69.5241 36.3511 69.1998 36.9112 69.0605C37.4713 68.9211 37.9376 69.0283 37.9242 69.0605C37.9108 69.0926 37.474 69.0792 36.9541 69.2159C36.4342 69.3526 36.0563 69.5965 36.0268 69.5563Z" fill="#161B46"/>
<path d="M36.611 70.9173C36.611 70.869 36.9969 70.7859 37.4847 70.727C37.9725 70.668 38.3745 70.66 38.3799 70.7055C38.3852 70.7511 37.9939 70.8395 37.5062 70.8958C37.0184 70.9521 36.6164 70.9628 36.611 70.9173Z" fill="#161B46"/>
<path d="M36.8736 72.499C36.8736 72.4481 37.3534 72.4347 37.9108 72.2685C38.4683 72.1024 38.8783 71.8665 38.9078 71.9094C38.6509 72.1785 38.3197 72.365 37.9564 72.4454C37.3695 72.6062 36.8683 72.5419 36.8736 72.499Z" fill="#161B46"/>
<path d="M37.3989 74.1979C37.3989 74.147 37.8572 74.1121 38.3771 73.9111C38.897 73.7102 39.2722 73.4448 39.3017 73.485C39.3312 73.5252 38.9935 73.8683 38.4388 74.0719C37.884 74.2756 37.3963 74.2435 37.3989 74.1979Z" fill="#161B46"/>
<path d="M47.2158 66.4873C47.2507 66.5221 46.8916 66.9402 46.4922 67.4842C46.0929 68.0282 45.7927 68.4918 45.7499 68.4677C45.707 68.4436 45.9428 67.9317 46.3529 67.3824C46.7629 66.833 47.1837 66.4551 47.2158 66.4873Z" fill="#161B46"/>
<path d="M37.9993 67.0075L32.8671 66.2303C32.8671 66.2303 32.4008 65.0216 31.6102 64.96C30.8196 64.8983 30.088 65.764 29.5118 65.7184C28.9356 65.6729 22.0426 63.3466 21.6486 66.4688L24.5162 67.6507" fill="#936754"/>
<path d="M54.8377 69.8349L39.5617 73.1099L38.1895 67.8651L43.8416 67.5971C43.8416 67.5971 44.5197 66.4902 45.3076 66.5733C46.0955 66.6564 46.6476 67.6453 47.2372 67.6936C47.8268 67.7418 55.0092 66.6939 54.8377 69.8349Z" fill="#936754"/>
<path d="M25.816 60.5728C25.816 60.5728 25.7732 60.5969 25.6847 60.6371L25.2908 60.8193C24.945 60.9801 24.4305 61.2079 23.7658 61.4947C22.4258 62.0682 20.4989 62.8588 18.095 63.8156C15.691 64.7723 12.8261 65.8926 9.6744 67.2218C8.09856 67.8838 6.41016 68.5109 4.80216 69.4355L4.502 69.6151C4.48276 69.6255 4.46478 69.6381 4.4484 69.6526V69.6338C4.49109 69.656 4.53735 69.6706 4.58508 69.6767C4.81385 69.7129 5.04492 69.7326 5.27652 69.7357C5.7482 69.7491 6.22256 69.7357 6.70228 69.7357C7.66172 69.7116 8.63724 69.6687 9.6208 69.6178C13.5631 69.4087 17.3124 69.1273 20.7214 68.8674L29.7798 68.1464L35.8848 67.6372L37.5464 67.5032L37.9779 67.4711C38.0744 67.4711 38.1253 67.4711 38.1253 67.4711C38.1253 67.4711 38.0744 67.4711 37.9779 67.4925L37.5491 67.5381L35.8902 67.6989L29.7878 68.251C27.2123 68.4761 24.1437 68.736 20.7321 69.004C17.3204 69.272 13.5711 69.5561 9.62884 69.7652C8.6426 69.8161 7.66708 69.859 6.70764 69.8804C6.22524 69.8804 5.7482 69.8965 5.27116 69.8804C5.03242 69.8778 4.79418 69.8581 4.55828 69.8214C4.48884 69.8108 4.42229 69.7862 4.36264 69.7491C4.34871 69.7383 4.33739 69.7245 4.32951 69.7087C4.32162 69.6929 4.31738 69.6756 4.31708 69.658C4.31805 69.6269 4.33046 69.5973 4.35192 69.5749C4.37884 69.5501 4.40851 69.5285 4.44036 69.5106L4.74052 69.331C6.3646 68.3984 8.05836 67.7766 9.6342 67.1173C12.7886 65.7934 15.6615 64.6839 18.0682 63.7378C20.4748 62.7918 22.4205 62.0146 23.7524 61.4572L25.2881 60.8086L25.6847 60.6398L25.816 60.5728Z" fill="white"/>
<path d="M46.9452 60.5728C46.9797 60.5798 47.0131 60.5915 47.0443 60.6076L47.3311 60.7282L48.4245 61.1999L52.4445 62.9124L65.7668 68.4761C67.0513 68.9708 68.3043 69.5436 69.5188 70.1913C69.6662 70.2717 69.8109 70.3548 69.9503 70.4405C70.0258 70.4818 70.0984 70.5284 70.1674 70.5799C70.1866 70.5982 70.2045 70.6179 70.221 70.6388C70.232 70.6541 70.2399 70.6715 70.244 70.69C70.2482 70.7084 70.2485 70.7275 70.2451 70.746C70.2451 70.7943 70.2129 70.8104 70.1888 70.8372C70.1674 70.8521 70.1451 70.8656 70.1218 70.8774C69.8011 70.9626 69.4701 71.0032 69.1382 70.998C68.495 71.0114 67.8679 70.998 67.2622 70.9631C64.8208 70.8452 62.6285 70.6442 60.7874 70.4754C58.9462 70.3065 57.4615 70.143 56.4351 70.0305L55.2532 69.8938L54.945 69.8536C54.9105 69.8505 54.8764 69.8442 54.8431 69.8348H54.9477L55.2559 69.859L56.4404 69.9715L60.7981 70.3708C62.6393 70.5263 64.8315 70.7192 67.2703 70.8291C67.8786 70.8532 68.5031 70.8747 69.1463 70.8586C69.4607 70.8635 69.7743 70.8266 70.0789 70.7487L70.1164 70.7273C70.1164 70.7273 70.1325 70.7139 70.1164 70.7273C70.1004 70.7407 70.1164 70.7085 70.0843 70.6871C70.0521 70.6656 69.9583 70.604 69.886 70.5611C69.7466 70.478 69.6046 70.395 69.4598 70.3146C68.2491 69.6736 67.0016 69.1044 65.7239 68.6101C60.5194 66.4393 55.8079 64.4668 52.4151 63.0089C50.7186 62.2799 49.3491 61.6689 48.3951 61.2535L47.3231 60.7604L47.0417 60.6264L46.9452 60.5728Z" fill="white"/>
<path d="M35.6597 29.8276C36.2851 29.8713 36.9126 29.7813 37.5004 29.5634C38.0882 29.3455 38.6229 29.0049 39.0687 28.5641C39.5145 28.1234 39.8613 27.5927 40.0859 27.0074C40.3104 26.4221 40.4077 25.7956 40.3711 25.1698C40.3068 24.0603 40.2505 23.2134 40.2505 23.2134C40.2505 23.2134 43.7479 22.6774 43.7908 19.1746C43.8337 15.6719 43.228 7.65062 43.228 7.65062C41.2407 6.79766 39.0617 6.49079 36.9161 6.76169C34.7705 7.0326 32.7362 7.87147 31.0233 9.19162L30.5034 9.59094L31.5754 25.7192C31.6462 26.7814 32.0986 27.7822 32.8492 28.5372C33.5998 29.2922 34.5979 29.7505 35.6597 29.8276Z" fill="#936754"/>
<path d="M40.2585 23.1704C38.6451 23.2003 37.0592 22.7497 35.7025 21.876C35.7025 21.876 36.7745 24.3925 40.2585 24.0762V23.1704Z" fill="#7C5142"/>
<path d="M30.9348 13.2117C30.8759 13.1849 28.5228 12.5015 28.6113 14.8893C28.6997 17.2772 31.0688 16.7091 31.0715 16.6421C31.0742 16.5751 30.9348 13.2117 30.9348 13.2117Z" fill="#936754"/>
<path d="M30.3131 15.766C30.3131 15.766 30.2729 15.7955 30.2032 15.8303C30.1054 15.8752 29.9942 15.881 29.8923 15.8464C29.6243 15.7607 29.4099 15.3667 29.3858 14.9379C29.3736 14.7331 29.4066 14.5282 29.4823 14.3376C29.5028 14.2624 29.5409 14.1933 29.5936 14.136C29.6463 14.0786 29.712 14.0347 29.7851 14.0079C29.8326 13.9938 29.8836 13.9968 29.9291 14.0164C29.9747 14.036 30.0119 14.0709 30.0343 14.1151C30.0692 14.1795 30.0558 14.2277 30.0692 14.2331C30.0826 14.2384 30.1174 14.1902 30.096 14.0937C30.0822 14.0341 30.0469 13.9816 29.9968 13.9463C29.964 13.9223 29.9266 13.9053 29.887 13.8961C29.8474 13.8868 29.8064 13.8857 29.7663 13.8927C29.6688 13.9148 29.5785 13.9616 29.5043 14.0288C29.4302 14.0959 29.3746 14.181 29.3429 14.2759C29.2473 14.4857 29.205 14.7159 29.2196 14.9459C29.2491 15.4283 29.5117 15.8705 29.8601 15.959C29.9247 15.9762 29.9923 15.9784 30.0578 15.9654C30.1233 15.9524 30.185 15.9245 30.238 15.8839C30.3104 15.8223 30.3211 15.7687 30.3131 15.766Z" fill="#7C5142"/>
<path d="M35.3622 12.8448C35.4239 12.7778 35.8017 13.0592 36.3404 13.0565C36.8791 13.0538 37.2704 12.7885 37.3293 12.8528C37.3883 12.9172 37.2945 13.0002 37.123 13.1208C36.8876 13.2854 36.6061 13.3708 36.319 13.3647C36.04 13.3665 35.7677 13.2792 35.5418 13.1155C35.389 12.9895 35.3327 12.8716 35.3622 12.8448Z" fill="#161B46"/>
<path d="M40.6417 12.7425C40.7033 12.6782 41.0812 12.957 41.6199 12.957C42.1586 12.957 42.5498 12.6889 42.6088 12.7533C42.6356 12.7801 42.574 12.898 42.4024 13.0213C42.1659 13.1833 41.8852 13.2685 41.5985 13.2652C41.3195 13.2641 41.0478 13.1761 40.8213 13.0132C40.6685 12.8899 40.6122 12.772 40.6417 12.7425Z" fill="#161B46"/>
<path d="M39.2348 16.6634C39.5182 16.574 39.8118 16.5208 40.1085 16.5053C40.2452 16.4919 40.3765 16.4651 40.3979 16.3713C40.4097 16.2294 40.3779 16.0872 40.3068 15.9639L39.9021 14.9187C39.3393 13.434 38.9293 12.2092 38.9909 12.1878C39.0526 12.1663 39.5564 13.3536 40.1192 14.841L40.5078 15.8915C40.5942 16.0562 40.6189 16.2463 40.5775 16.4275C40.5583 16.4763 40.528 16.5199 40.4889 16.5548C40.4498 16.5897 40.403 16.615 40.3524 16.6285C40.2765 16.6498 40.198 16.6606 40.1192 16.6607C39.8256 16.6979 39.5286 16.6988 39.2348 16.6634Z" fill="#161B46"/>
<path d="M37.6563 17.0332C37.742 17.0332 37.7447 17.6121 38.2432 18.0248C38.7417 18.4376 39.3635 18.3759 39.3661 18.4563C39.3661 18.4938 39.2295 18.5716 38.9668 18.5769C38.6251 18.5834 38.2924 18.4674 38.0288 18.25C37.7739 18.0434 37.6103 17.7451 37.5732 17.4192C37.5517 17.1753 37.608 17.0306 37.6563 17.0332Z" fill="#161B46"/>
<path d="M37.4257 11.1215C37.3721 11.2689 36.8361 11.1992 36.2063 11.2743C35.5765 11.3493 35.0673 11.5235 34.9816 11.3922C34.9467 11.3279 35.0352 11.1912 35.2496 11.0491C35.526 10.8743 35.8388 10.7651 36.1639 10.7298C36.4891 10.6945 36.818 10.7341 37.1256 10.8455C37.34 10.9393 37.4472 11.0518 37.4257 11.1215Z" fill="#161B46"/>
<path d="M42.3677 11.6362C42.2739 11.7568 41.9041 11.6362 41.4592 11.6362C41.0143 11.6362 40.6364 11.7166 40.5507 11.5906C40.5132 11.5263 40.5721 11.4057 40.7356 11.2905C40.9568 11.1514 41.2144 11.0814 41.4755 11.0895C41.7366 11.0976 41.9894 11.1834 42.2015 11.336C42.3596 11.4486 42.4106 11.5745 42.3677 11.6362Z" fill="#161B46"/>
<path d="M44.9298 5.45568C44.9542 5.23893 44.9233 5.0195 44.8399 4.81795C44.7565 4.6164 44.6232 4.43932 44.4527 4.30329C44.2771 4.17447 44.0613 4.11259 43.8441 4.1288C43.6269 4.14502 43.4227 4.23826 43.2682 4.39172C43.3002 4.24569 43.3014 4.09456 43.2716 3.94804C43.2419 3.80153 43.1817 3.66286 43.0952 3.54095C43.0086 3.41905 42.8975 3.3166 42.769 3.24019C42.6405 3.16379 42.4974 3.11511 42.3489 3.09729C41.7808 3.06245 41.293 3.49125 40.7409 3.63329C40.1906 3.74858 39.6178 3.68179 39.1088 3.44301C38.5916 3.23665 38.1092 2.94721 37.5839 2.75693C36.4776 2.35303 35.2565 2.40205 34.1861 2.89334C33.1158 3.38462 32.2825 4.27847 31.8674 5.38065C31.1036 5.14213 30.2353 5.53073 29.7636 6.18464C29.3177 6.85962 29.1399 7.67681 29.2651 8.47605C29.3405 9.01167 29.4744 9.53742 29.6645 10.0438C29.6645 10.0894 29.6645 10.135 29.6645 10.1778C29.6993 12.0994 29.9191 14.3586 30.7365 14.3694C32.1676 14.3908 31.8272 11.6894 31.8272 11.6894C33.5799 11.0113 32.926 8.38225 33.3655 7.98561C33.8051 7.58897 34.7216 6.6456 38.3932 8.53768C39.819 9.26664 41.7138 9.24252 42.7482 9.00668L42.8394 8.99061H42.8608C42.8721 8.98779 42.883 8.98327 42.893 8.9772C43.2256 8.89435 43.543 8.75959 43.8336 8.57789C44.1775 8.37968 44.4496 8.07754 44.6108 7.71492C44.6862 7.53267 44.7074 7.33252 44.6717 7.13854C44.636 6.94457 44.5451 6.76502 44.4098 6.62149C44.6924 6.29144 44.873 5.88644 44.9298 5.45568Z" fill="#161B46"/>
<path d="M41.4405 0.883789C41.4405 0.883789 41.4673 0.915949 41.5075 0.980269C41.5647 1.07404 41.6114 1.1738 41.6468 1.27775C41.7813 1.66446 41.8073 2.08064 41.7219 2.48107C41.6065 3.08511 41.2604 3.62051 40.7571 3.97383C40.1728 4.36243 39.3715 4.43747 38.6131 4.32223C37.8546 4.20699 37.1391 3.95775 36.4878 3.82375C35.9187 3.67837 35.3241 3.66371 34.7485 3.78087C34.3616 3.86736 34.0035 4.05194 33.7086 4.31687C33.505 4.50983 33.4406 4.64918 33.4165 4.64114C33.3924 4.63311 33.4165 4.60363 33.4674 4.53663C33.525 4.43992 33.5934 4.35002 33.6711 4.26863C33.9627 3.98157 34.3282 3.78116 34.727 3.68975C35.3146 3.54884 35.9271 3.54884 36.5146 3.68975C37.1766 3.81839 37.8761 4.06763 38.6318 4.17483C39.3345 4.32003 40.0659 4.20779 40.6928 3.85859C41.1722 3.5281 41.5069 3.02654 41.6281 2.45695C41.7182 2.07223 41.7081 1.67081 41.5986 1.29115C41.5128 1.02315 41.4271 0.883789 41.4405 0.883789Z" fill="#737690"/>
<path d="M40.5346 1.53516C40.6062 1.60476 40.6631 1.6881 40.7018 1.7802C40.7405 1.8723 40.7602 1.97126 40.7597 2.07116C40.7776 2.28873 40.7369 2.50713 40.6418 2.70364C40.5233 2.94329 40.3369 3.14276 40.1058 3.27716C39.8755 3.41043 39.6159 3.48499 39.35 3.49424C39.1359 3.50199 38.9219 3.47298 38.7176 3.40848C38.5262 3.36382 38.3493 3.27165 38.203 3.14048C38.203 3.12172 38.4067 3.22892 38.739 3.312C39.1739 3.42703 39.6364 3.37041 40.0307 3.15388C40.2407 3.03333 40.4132 2.85711 40.5292 2.64468C40.62 2.46824 40.666 2.27222 40.6632 2.07384C40.6476 1.88884 40.6043 1.70724 40.5346 1.53516Z" fill="#161B46"/>
<path d="M52.7742 59.0718C52.8143 59.597 52.697 60.1222 52.4374 60.5804C52.1777 61.0387 51.7874 61.4092 51.3163 61.6446L47.4973 60.0366L42.7885 60.3529L44.6458 55.3091C44.6458 55.3091 49.9361 55.9576 50.6838 56.558C51.4315 57.1583 52.8331 58.2785 52.7742 59.0718Z" fill="#00ACE9"/>
<g opacity="0.4">
<path opacity="0.4" d="M52.7742 59.0718C52.8143 59.597 52.697 60.1222 52.4374 60.5804C52.1777 61.0387 51.7874 61.4092 51.3163 61.6446L47.4973 60.0366L42.7885 60.3529L44.6458 55.3091C44.6458 55.3091 49.9361 55.9576 50.6838 56.558C51.4315 57.1583 52.8331 58.2785 52.7742 59.0718Z" fill="#0E1339"/>
</g>
<path d="M52.7742 59.0718C52.8143 59.597 52.697 60.1222 52.4374 60.5804C52.1777 61.0387 51.7874 61.4092 51.3163 61.6446L47.4973 60.0366L42.7885 60.3529L44.6458 55.3091C44.6458 55.3091 49.9361 55.9576 50.6838 56.558C51.4315 57.1583 52.8331 58.2785 52.7742 59.0718Z" fill="#00ACE9"/>
<g opacity="0.4">
<path opacity="0.4" d="M52.7742 59.0718C52.8143 59.597 52.697 60.1222 52.4374 60.5804C52.1777 61.0387 51.7874 61.4092 51.3163 61.6446L47.4973 60.0366L42.7885 60.3529L44.6458 55.3091C44.6458 55.3091 49.9361 55.9576 50.6838 56.558C51.4315 57.1583 52.8331 58.2785 52.7742 59.0718Z" fill="#0E1339"/>
</g>
<path d="M56.7405 36.4099L56.368 36.0776L48.2878 29.7501C45.7927 27.0996 43.9783 26.3009 40.4702 25.8855C39.8967 25.8185 40.7999 25.9284 40.4702 25.8855C37.7902 26.7136 34.1749 26.794 31.4815 25.9632C30.2353 26.0142 29.2008 26.4001 28.1395 26.6038C24.7949 27.2443 23.0073 29.6054 21.7209 31.9289L15.2514 42.7802L15.5194 43.209C16.4234 44.6056 17.7687 45.6594 19.3411 46.2026L19.7752 46.4197C21.2981 47.1442 22.6114 48.2445 23.5916 49.6169L26.4404 44.6402L25.6364 52.6158L25.0843 60.4495C28.8832 61.5346 32.8248 62.0371 36.7745 61.9396C42.4025 61.9664 50.2442 55.1082 52.7741 59.072C52.8089 57.0405 50.2522 54.248 49.542 52.908C47.3417 48.7191 47.7545 47.0254 47.5963 43.8817L51.3751 46.1999L52.0532 44.8733C52.6267 43.7531 53.7201 41.258 54.1275 39.315C54.1275 39.3177 54.5724 35.689 56.7405 36.4099Z" fill="#00ACE9"/>
<path d="M26.4565 36.6025C26.4803 36.7098 26.4902 36.8197 26.486 36.9295C26.486 37.1412 26.5021 37.4467 26.5074 37.8246C26.5074 38.5777 26.5235 39.6202 26.5074 40.7726C26.4913 41.925 26.4887 42.9675 26.4699 43.7206C26.4699 44.0985 26.4511 44.404 26.4404 44.6157C26.4429 44.7256 26.4321 44.8354 26.4083 44.9427C26.3847 44.8354 26.3748 44.7255 26.3788 44.6157C26.3788 44.404 26.3627 44.0985 26.3573 43.7206C26.3573 42.9675 26.3439 41.925 26.3573 40.7726C26.3707 39.6202 26.3761 38.5804 26.3922 37.8246C26.3922 37.4494 26.4109 37.1439 26.4217 36.9322C26.4196 36.8213 26.4313 36.7106 26.4565 36.6025Z" fill="#161B46"/>
<path d="M48.0601 49.2525C48.0239 49.0858 48.0015 48.9164 47.9931 48.746C47.9609 48.3922 47.9207 47.9259 47.8698 47.3604C47.7707 46.192 47.6474 44.5732 47.5214 42.7857C47.3955 40.9981 47.2883 39.3794 47.2213 38.2082C47.1891 37.6427 47.165 37.1737 47.1462 36.82C47.1327 36.6496 47.1327 36.4785 47.1462 36.3081C47.1824 36.4748 47.2048 36.6442 47.2132 36.8146C47.2454 37.1684 47.2883 37.6347 47.3365 38.2002C47.4357 39.3714 47.5589 40.9874 47.6849 42.775C47.8109 44.5625 47.9181 46.1812 47.9877 47.3524C48.0172 47.9179 48.0413 48.3869 48.0601 48.7433C48.0736 48.9128 48.0736 49.083 48.0601 49.2525Z" fill="#161B46"/>
<g opacity="0.2">
<path opacity="0.2" d="M30.4524 26.2419C32.1771 28.6613 34.4006 30.6828 36.9728 32.17C37.9108 32.706 38.9212 33.1884 40.0012 33.2769C41.8638 33.4269 43.6192 32.4112 45.0638 31.2267C45.6346 30.7603 46.2001 30.2297 46.4413 29.5329C46.6825 28.8361 46.4949 27.9249 45.8436 27.5926C45.6111 27.4892 45.3581 27.4399 45.1038 27.4483C44.8494 27.4566 44.6003 27.5224 44.375 27.6408C43.9258 27.8773 43.5004 28.1564 43.1047 28.4743C42.1713 29.1314 41.1156 29.5945 40.0001 29.8361C38.8845 30.0778 37.7318 30.0931 36.6102 29.8812C35.4886 29.6693 34.421 29.2344 33.4705 28.6024C32.52 27.9704 31.7061 27.154 31.0768 26.2017" fill="#0E1339"/>
</g>
<path d="M41.6279 45.5109C41.599 45.132 41.5417 44.7557 41.4564 44.3853C41.3468 43.9542 41.1724 43.5421 40.9392 43.1633C40.6339 42.661 40.2366 42.2209 39.768 41.8661C39.1588 41.4039 38.4429 41.1024 37.6865 40.9895C36.9301 40.8766 36.1575 40.956 35.4398 41.2203C35.0252 41.367 34.6356 41.5768 34.2847 41.842C33.9133 42.1117 33.5875 42.4392 33.3199 42.8122C32.7454 43.5942 32.4356 44.5392 32.4356 45.5096C32.4356 46.48 32.7454 47.425 33.3199 48.207C33.5875 48.58 33.9133 48.9075 34.2847 49.1772C34.6356 49.4425 35.0252 49.6522 35.4398 49.7989C36.1553 50.0603 36.9249 50.1382 37.6782 50.0253C38.4315 49.9125 39.1445 49.6126 39.7519 49.1531C40.2205 48.7983 40.6178 48.3582 40.9231 47.8559C41.1564 47.4771 41.3308 47.0651 41.4403 46.6339C41.5253 46.2643 41.5826 45.889 41.6118 45.5109C41.6149 45.5359 41.6149 45.5611 41.6118 45.586C41.6118 45.6423 41.6118 45.7146 41.6118 45.8057C41.6123 45.9261 41.6024 46.0462 41.5824 46.1649C41.565 46.3276 41.5354 46.4889 41.4939 46.6473C41.3929 47.0863 41.2238 47.5068 40.9928 47.8935C40.6568 48.4665 40.2023 48.9612 39.6597 49.3443C39.1171 49.7275 38.4989 49.9903 37.8465 50.1152C37.0219 50.2726 36.1703 50.205 35.3809 49.9195C34.9537 49.7707 34.5523 49.5564 34.1909 49.2844C33.8072 49.0087 33.4713 48.6719 33.1967 48.2874C32.6015 47.4835 32.2803 46.5098 32.2803 45.5096C32.2803 44.5094 32.6015 43.5357 33.1967 42.7318C33.3382 42.5431 33.4922 42.364 33.6576 42.1958C33.8267 42.0338 34.0057 41.8825 34.1936 41.7429C34.5553 41.4713 34.9567 41.2571 35.3835 41.1077C36.1732 40.8236 37.0245 40.756 37.8491 40.9121C38.5016 41.0369 39.1198 41.2997 39.6624 41.6829C40.205 42.0661 40.6595 42.5607 40.9955 43.1338C41.2265 43.5205 41.3956 43.941 41.4966 44.38C41.5381 44.5383 41.5677 44.6996 41.585 44.8624C41.6051 44.981 41.6149 45.1012 41.6145 45.2215C41.6145 45.3126 41.6145 45.385 41.6145 45.4439C41.6213 45.4658 41.6258 45.4882 41.6279 45.5109Z" fill="white"/>
<path d="M36.8415 50.1368C36.8013 50.1368 36.7719 48.0652 36.7719 45.5085C36.7719 42.9518 36.8013 40.8828 36.8415 40.8828C36.8817 40.8828 36.9112 42.9518 36.9112 45.5085C36.9112 48.0652 36.8791 50.1368 36.8415 50.1368Z" fill="white"/>
<path d="M40.6551 48.3197C40.5451 48.2579 40.441 48.1861 40.3442 48.1053L39.5402 47.4835C38.8541 46.9475 37.9161 46.2105 36.887 45.3851L36.8039 45.3208H36.8951C35.9517 46.2078 35.0941 47.0038 34.4697 47.572L33.7246 48.242C33.6379 48.3282 33.5428 48.4054 33.4406 48.4724C33.5136 48.3751 33.5962 48.2853 33.6871 48.2044L34.3919 47.5157C34.9976 46.9288 35.8445 46.1194 36.8039 45.2323L36.8468 45.1895L36.8951 45.227L36.9755 45.294C38.0073 46.1194 38.9345 46.8725 39.6045 47.4219C39.9181 47.6899 40.1834 47.907 40.3898 48.0785C40.4851 48.1509 40.5739 48.2316 40.6551 48.3197Z" fill="white"/>
<g opacity="0.2">
<path opacity="0.2" d="M33.0225 57.8901C34.9913 58.2375 37.0177 58.0358 38.8794 57.3073C40.7412 56.5788 42.3662 55.3515 43.5764 53.7602C43.9623 53.243 44.3161 52.6078 44.1553 51.9834C43.9945 51.3589 43.2763 50.9248 42.6036 50.9409C41.9264 50.9993 41.2901 51.2899 40.8026 51.7636C39.5752 52.8356 38.873 54.4142 37.6482 55.4942C36.541 56.464 35.0979 56.9614 33.6282 56.8798C33.4037 56.8632 33.178 56.8722 32.9555 56.9066C32.8227 56.9262 32.7003 56.9896 32.6075 57.0866C32.5148 57.1837 32.4571 57.309 32.4437 57.4426C32.4437 57.7106 32.6527 57.8231 33.0199 57.8928" fill="#0E1339"/>
</g>
<g opacity="0.2">
<path opacity="0.2" d="M47.2614 39.0039L47.5937 43.8842L51.3752 46.1997L52.1658 44.7284L47.2614 39.0039Z" fill="#0E1339"/>
</g>
<path d="M56.8129 36.4878C56.6657 36.4412 56.5138 36.4116 56.36 36.3993C55.9386 36.3959 55.5309 36.5486 55.2156 36.8281C54.763 37.262 54.452 37.8225 54.3232 38.4361C54.1382 39.1195 53.9614 39.8887 53.7148 40.6766C53.3035 42.0243 52.7984 43.3416 52.2033 44.6189C51.9755 45.1093 51.7745 45.4979 51.6324 45.7632C51.5654 45.9051 51.4856 46.0406 51.3939 46.1679C51.4482 46.0211 51.5118 45.8779 51.5842 45.7391C51.7102 45.4711 51.8978 45.0718 52.1202 44.5787C52.6862 43.2947 53.1758 41.9783 53.5862 40.6364C53.8327 39.8512 54.0096 39.0927 54.2052 38.3986C54.3462 37.7665 54.6795 37.1935 55.1593 36.7584C55.4957 36.474 55.9282 36.3292 56.368 36.3538C56.4863 36.3614 56.6023 36.3895 56.711 36.4368C56.7469 36.4496 56.7811 36.4667 56.8129 36.4878Z" fill="#161B46"/>
<path d="M23.589 49.6167C23.4935 49.511 23.4041 49.4001 23.321 49.2844C23.0755 48.9806 22.8143 48.6899 22.5384 48.4134C22.1308 48.0043 21.6766 47.6445 21.185 47.3414C20.633 46.993 19.9871 46.6767 19.309 46.3337C18.6697 46.0142 18.0504 45.6562 17.4545 45.2617C16.9665 44.9355 16.517 44.5552 16.1145 44.1281C15.8457 43.8386 15.6135 43.5173 15.423 43.1713C15.37 43.0777 15.3226 42.9811 15.281 42.8819C15.2515 42.8149 15.2381 42.78 15.2435 42.7773C15.5078 43.2399 15.8243 43.6706 16.1868 44.0611C16.593 44.4725 17.0423 44.8391 17.5268 45.1545C18.1223 45.5397 18.7387 45.8913 19.3734 46.2077C20.046 46.5508 20.6973 46.8724 21.2494 47.2315C21.7445 47.5451 22.1983 47.9196 22.6001 48.3464C22.8729 48.6303 23.1254 48.933 23.3558 49.2522C23.4362 49.3648 23.4979 49.4532 23.5354 49.5202C23.5572 49.5501 23.5752 49.5825 23.589 49.6167Z" fill="#161B46"/>
<path d="M45.0129 51.2383C45.0043 51.2909 44.989 51.3423 44.9673 51.391C44.9271 51.4902 44.8816 51.6403 44.7958 51.8225C44.572 52.3452 44.303 52.8474 43.9918 53.3233C42.972 54.9134 41.5512 56.2067 39.8725 57.0729C38.1938 57.939 36.3164 58.3475 34.4296 58.2572C33.8616 58.233 33.2968 58.1604 32.7412 58.0402C32.5455 58.0026 32.3955 57.9544 32.2936 57.9303C32.2402 57.9188 32.1881 57.9017 32.1382 57.8794C32.1926 57.88 32.2467 57.8881 32.299 57.9035C32.4035 57.9196 32.567 57.9598 32.7519 57.9892C33.3072 58.086 33.8688 58.1424 34.4323 58.1581C36.298 58.2216 38.1489 57.8056 39.808 56.9498C41.4671 56.0939 42.879 54.8269 43.9088 53.2697C44.2237 52.8017 44.5032 52.3108 44.7449 51.8011C44.836 51.6215 44.8896 51.4768 44.9379 51.3803C44.9581 51.3306 44.9832 51.283 45.0129 51.2383Z" fill="#161B46"/>
<g opacity="0.2">
<path opacity="0.2" d="M23.8274 49.0538C24.1374 45.1527 25.0234 41.3189 26.4565 37.6772V44.6131L23.8274 49.0538Z" fill="#0E1339"/>
</g>
<path d="M30.3157 26.1024C31.4896 28.619 34.6037 30.0474 37.3213 30.5727C38.6915 30.8247 40.1017 30.7542 41.44 30.3668C42.7783 29.9793 44.008 29.2854 45.0316 28.3402C46.7468 26.7322 47.7572 24.4998 49.3545 22.7712C50.7418 21.3078 52.5051 20.2545 54.4513 19.7265C56.3974 19.1985 58.4513 19.2162 60.388 19.7777L60.5998 15.9721C59.2973 15.1279 55.9446 14.8223 54.4116 15.0528C51.3573 15.527 48.5967 17.1429 46.6879 19.574C45.0048 21.7394 44.0079 24.5239 41.7808 26.1158C40.1728 27.2656 38.1655 27.2736 36.2117 26.944C34.258 26.6143 32.9395 24.8268 31.4306 23.543L30.3157 26.1024Z" fill="#161B46"/>
<path d="M31.4092 23.5459C31.9194 24.1941 32.5523 24.7353 33.2718 25.1387C33.9914 25.542 34.7833 25.7996 35.6025 25.8967C36.4216 25.9937 37.2518 25.9284 38.0457 25.7044C38.8396 25.4804 39.5815 25.1021 40.2291 24.5911C40.5775 24.3231 41.0331 23.9827 41.4163 24.1891C41.7218 24.3499 41.7969 24.7439 41.8371 25.0842C41.9309 25.8721 42.0059 26.7431 41.5423 27.3863C41.0786 28.0295 40.288 28.2198 39.5376 28.3485C37.7581 28.6433 35.8687 28.6165 34.2178 27.8902C32.5669 27.1639 31.5512 25.3469 31.4092 23.5459Z" fill="#161B46"/>
<path d="M42.5473 25.4729C42.5223 25.5096 42.4925 25.5429 42.4589 25.572C42.3972 25.631 42.3115 25.7248 42.1909 25.84C41.8393 26.1428 41.4555 26.4061 41.0465 26.6253C40.4381 26.9516 39.7812 27.1778 39.1008 27.2953C38.2655 27.4409 37.4091 27.4144 36.5843 27.2175C35.7677 26.9992 34.9889 26.6585 34.2742 26.2072C33.9418 26.0089 33.631 25.8186 33.3415 25.6283C33.0749 25.4499 32.8207 25.2539 32.5804 25.0414C32.2282 24.7392 31.9189 24.3902 31.6612 24.0042C31.5922 23.8986 31.5304 23.7885 31.4762 23.6746C31.4387 23.5969 31.4226 23.554 31.428 23.5513C31.4334 23.5486 31.5191 23.7094 31.696 23.9721C31.9666 24.3416 32.2816 24.6764 32.634 24.969C32.8773 25.1704 33.1313 25.3583 33.3951 25.5318C33.6819 25.7141 33.9981 25.9017 34.3304 26.0973C35.0369 26.5343 35.8034 26.8656 36.6058 27.0809C37.4126 27.2743 38.25 27.3044 39.0687 27.1693C39.738 27.0589 40.3862 26.8455 40.9902 26.5368C41.399 26.3294 41.7859 26.0816 42.1453 25.7971C42.2735 25.6821 42.4077 25.5738 42.5473 25.4729Z" fill="#737690"/>
<path d="M47.1542 25.4941C46.6163 25.2588 46.0936 24.9903 45.5891 24.6901C45.0614 24.4327 44.5504 24.1427 44.0588 23.8218C44.6181 24.0164 45.1567 24.2659 45.6668 24.5668C46.1908 24.8281 46.6888 25.1386 47.1542 25.4941Z" fill="#737690"/>
<path d="M49.0221 23.0606C48.4299 22.8116 47.8559 22.5214 47.3042 22.1923C46.7313 21.9009 46.1797 21.5696 45.6533 21.2007C46.2467 21.4471 46.8209 21.7373 47.3712 22.069C47.9448 22.3592 48.4965 22.6906 49.0221 23.0606Z" fill="#737690"/>
<path d="M50.8285 21.0456C50.6661 20.9341 50.5169 20.8046 50.3836 20.6596L49.3572 19.6841L48.3281 18.7167C48.1767 18.5915 48.0393 18.4504 47.918 18.2959C48.0889 18.3925 48.2481 18.5085 48.3924 18.6416C48.6604 18.8721 49.0543 19.2017 49.4644 19.5823C49.8744 19.9629 50.2201 20.322 50.464 20.59C50.6038 20.7262 50.7262 20.8793 50.8285 21.0456Z" fill="#737690"/>
<path d="M51.1019 16.0312C51.2466 16.2029 51.3749 16.3877 51.4851 16.5833C51.7531 16.9719 52.0345 17.4329 52.3641 17.9394C52.6938 18.4459 52.9993 18.9015 53.2566 19.2794C53.3923 19.459 53.509 19.6521 53.605 19.8556C53.4427 19.6995 53.298 19.5261 53.1735 19.3384C52.9243 19.0061 52.5946 18.5344 52.2462 17.9984C51.8978 17.4624 51.6057 16.9746 51.402 16.6155C51.2794 16.4332 51.1787 16.2371 51.1019 16.0312Z" fill="#737690"/>
<path d="M55.3095 15.2378C55.3814 15.4312 55.4335 15.6315 55.465 15.8354C55.5614 16.2616 55.6713 16.7493 55.7946 17.2907C55.9179 17.832 56.0439 18.3144 56.1484 18.7379C56.2126 18.9345 56.2548 19.1376 56.2743 19.3436C56.1778 19.1602 56.104 18.9658 56.0546 18.7647C55.9366 18.4002 55.7866 17.891 55.6579 17.3228C55.5293 16.7547 55.4274 16.2321 55.3685 15.8542C55.3226 15.6521 55.3028 15.4449 55.3095 15.2378Z" fill="#737690"/>
<path d="M58.6032 15.1895C58.6434 15.1895 58.6273 16.0953 58.6836 17.2075C58.7398 18.3197 58.8417 19.2175 58.8015 19.2229C58.7349 19.0353 58.6934 18.8397 58.6782 18.6413C58.6246 18.2768 58.571 17.773 58.5442 17.2129C58.5174 16.6527 58.5201 16.1409 58.5442 15.7817C58.5388 15.5826 58.5587 15.3836 58.6032 15.1895Z" fill="#737690"/>
<path d="M44.7556 28.5439C44.2579 28.1563 43.7895 27.7326 43.354 27.2762C42.8875 26.8516 42.4522 26.3939 42.0515 25.9067C42.5488 26.2957 43.0173 26.7203 43.4532 27.1771C43.9208 27.5995 44.3562 28.0564 44.7556 28.5439Z" fill="#737690"/>
<path d="M40.9714 30.4951C40.7353 29.945 40.5409 29.3779 40.3898 28.7987C40.1941 28.2326 40.0436 27.6519 39.9396 27.062C40.1778 27.6116 40.3731 28.1788 40.5238 28.7585C40.7183 29.3247 40.8679 29.9054 40.9714 30.4951Z" fill="#737690"/>
<path d="M36.7612 30.4389C36.7995 29.908 36.8847 29.3815 37.0158 28.8657C37.1016 28.34 37.2325 27.8226 37.4071 27.3193C37.3673 27.85 37.2821 28.3763 37.1525 28.8925C37.0667 29.4182 36.9358 29.9356 36.7612 30.4389Z" fill="#737690"/>
<path d="M33.588 29.2274C33.6885 28.7396 33.8601 28.2691 34.0972 27.8311C34.2952 27.3735 34.5579 26.9466 34.8771 26.5635C34.9119 26.5876 34.5769 27.1584 34.2232 27.9035C33.8694 28.6485 33.6229 29.2408 33.588 29.2274Z" fill="#737690"/>
<path d="M32.7063 25.1777C32.5597 25.6092 32.3531 26.0179 32.0926 26.3918C31.8744 26.7887 31.6039 27.1547 31.2886 27.4799C31.4952 27.0774 31.728 26.6888 31.9854 26.3167C32.2003 25.9216 32.4411 25.5411 32.7063 25.1777Z" fill="#737690"/>
<path d="M36.2519 25.9848C36.2894 25.9848 36.2653 26.2072 36.2385 26.4672C36.2117 26.7271 36.1903 26.9388 36.1501 26.9415C36.1099 26.9442 36.0697 26.7218 36.0991 26.4511C36.1286 26.1804 36.2144 25.9741 36.2519 25.9848Z" fill="#737690"/>
<path d="M38.8703 27.2337C38.7553 26.9611 38.6926 26.6692 38.6854 26.3734C38.6281 26.0841 38.6281 25.7864 38.6854 25.4971C38.7657 25.7781 38.8107 26.0679 38.8194 26.36C38.8736 26.6479 38.8907 26.9415 38.8703 27.2337Z" fill="#737690"/>
<path d="M40.7517 24.3979C40.8422 24.7499 40.9058 25.1083 40.9419 25.4699C41.0248 25.8225 41.0803 26.1809 41.1081 26.5419C40.8238 25.8648 40.7018 25.1306 40.7517 24.3979Z" fill="#737690"/>
<path d="M16.436 55.6629L33.253 45.9077C33.8835 45.5428 34.4119 45.025 34.7894 44.402C35.1669 43.779 35.3814 43.071 35.4131 42.3433L35.858 32.103C35.8588 31.9705 35.8105 31.8423 35.7224 31.7434C35.6343 31.6444 35.5126 31.5815 35.3809 31.567C35.2586 31.5577 35.1367 31.5907 35.0358 31.6604C34.9348 31.7302 34.8608 31.8325 34.8262 31.9502L32.6822 39.6338L12.6599 48.1133C12.1276 48.3391 11.6472 48.6717 11.2483 49.0904C10.8495 49.5092 10.5408 50.0052 10.3411 50.5479C10.1414 51.0906 10.0551 51.6685 10.0875 52.2458C10.1199 52.8232 10.2702 53.3878 10.5293 53.9048C10.7886 54.4205 11.1507 54.8778 11.5933 55.2484C12.0359 55.619 12.5496 55.8951 13.1029 56.0598C13.6562 56.2245 14.2373 56.2742 14.8105 56.206C15.3837 56.1377 15.9369 55.9529 16.436 55.6629Z" fill="#936754"/>
<path d="M32.6768 39.6284C32.6147 39.6663 32.5502 39.7003 32.4838 39.7303L31.921 39.9983L29.836 40.9523C28.0699 41.7563 25.6204 42.8283 22.8975 43.9807C20.1746 45.1331 17.6902 46.1247 15.8839 46.8349C14.9834 47.186 14.2491 47.4647 13.7399 47.6389L13.153 47.8533C13.086 47.8826 13.0159 47.9042 12.944 47.9177C13.0084 47.8837 13.0746 47.8532 13.1423 47.8265L13.7185 47.588C14.2357 47.3817 14.9566 47.0869 15.8464 46.7277C17.642 46.0041 20.1183 44.9884 22.8412 43.8387C25.5641 42.689 28.019 41.6223 29.7931 40.8478L31.8969 39.9339L32.4731 39.6901C32.5389 39.663 32.6071 39.6424 32.6768 39.6284Z" fill="#7C5142"/>
<path d="M11.001 54.7868C11.001 54.7734 11.2261 54.7493 11.6201 54.6528C11.8593 54.5925 12.0919 54.5081 12.3142 54.4009C12.6044 54.2517 12.8807 54.0768 13.1396 53.8783C13.4317 53.6585 13.7533 53.4173 14.0883 53.152C14.4233 52.8867 14.7744 52.5865 15.1416 52.2729C15.9199 51.5594 16.7852 50.9471 17.7171 50.4505C18.668 49.9826 19.6959 49.6912 20.7508 49.5903C21.6112 49.5105 22.4785 49.5548 23.3263 49.7216C23.8958 49.837 24.4517 50.0113 24.9852 50.2415C25.1728 50.3219 25.3122 50.3996 25.4087 50.4479C25.46 50.4681 25.5079 50.4961 25.5507 50.5309C25.4982 50.5155 25.4471 50.4958 25.3979 50.472C25.2961 50.4345 25.1541 50.3621 24.9638 50.2897C24.4274 50.0826 23.8729 49.9256 23.3075 49.8207C22.4687 49.668 21.6126 49.6337 20.7642 49.7189C19.7261 49.8257 18.7152 50.116 17.7787 50.5765C16.8575 51.0689 15.9998 51.6719 15.2247 52.3721C14.8548 52.683 14.5011 52.9778 14.1527 53.2431C13.8043 53.5084 13.488 53.7416 13.1879 53.956C12.9216 54.1548 12.6372 54.328 12.3383 54.4732C12.1092 54.5749 11.8703 54.653 11.6254 54.7064C11.4244 54.7466 11.2663 54.768 11.1564 54.7787C11.1051 54.7878 11.0529 54.7905 11.001 54.7868Z" fill="#161B46"/>
<path d="M14.2277 53.2054C14.2277 53.2054 14.2438 53.3019 14.284 53.4734C14.3444 53.6997 14.4594 53.9076 14.619 54.0791C14.8545 54.3341 15.1489 54.5273 15.4766 54.6419C15.8789 54.7737 16.3152 54.7576 16.7067 54.5963L16.8219 54.5427L16.7898 54.6312C16.6315 54.2528 16.3764 53.9228 16.0501 53.6744C15.7838 53.4725 15.4764 53.3316 15.1496 53.2617C14.8454 53.2082 14.5357 53.1929 14.2277 53.2161C14.3044 53.18 14.3871 53.1582 14.4716 53.1518C14.7031 53.1193 14.9383 53.1238 15.1684 53.1652C15.5143 53.2259 15.8416 53.3653 16.1251 53.5726C16.4807 53.827 16.759 54.1748 16.9291 54.5776L16.9559 54.6392L16.897 54.666L16.771 54.725C16.3445 54.9029 15.8674 54.9172 15.431 54.7651C15.086 54.6376 14.7796 54.4235 14.5413 54.1434C14.3799 53.9555 14.2717 53.7279 14.2277 53.4841C14.2063 53.3924 14.2063 53.2971 14.2277 53.2054Z" fill="#161B46"/>
<path d="M14.2277 53.2056C14.5223 53.2981 14.8021 53.4326 15.0585 53.6049C15.3377 53.7386 15.5945 53.9149 15.8196 54.1275C15.5249 54.035 15.2451 53.9005 14.9888 53.7282C14.7095 53.5945 14.4527 53.4182 14.2277 53.2056Z" fill="#161B46"/>
<path d="M16.7603 51.1228C16.8033 51.1991 16.8418 51.2779 16.8755 51.3587C16.9865 51.5649 17.1456 51.7414 17.3391 51.8732C17.628 52.0657 17.9589 52.1861 18.3039 52.2243C18.726 52.2599 19.1468 52.144 19.4912 51.8974L19.5903 51.817V51.9108C19.3493 51.5797 19.026 51.3173 18.6523 51.1496C18.346 51.0148 18.0141 50.9481 17.6795 50.954C17.3706 50.9704 17.0652 51.0272 16.771 51.1228C16.8379 51.0698 16.9143 51.0298 16.9961 51.0049C17.2133 50.9186 17.4433 50.8688 17.6768 50.8575C18.0272 50.8353 18.3779 50.8959 18.7006 51.0344C19.1032 51.2048 19.451 51.483 19.7056 51.8384L19.7431 51.892L19.6922 51.9322C19.6573 51.959 19.6225 51.9912 19.5823 52.018C19.2113 52.2845 18.7558 52.4064 18.3013 52.361C17.937 52.3152 17.5903 52.1779 17.2936 51.9617C17.0938 51.8151 16.9366 51.6181 16.838 51.3908C16.7941 51.3077 16.7677 51.2165 16.7603 51.1228Z" fill="#161B46"/>
<path d="M16.7603 51.123C17.0696 51.1428 17.3742 51.2097 17.6634 51.3214C17.965 51.3889 18.255 51.5009 18.5237 51.6537C17.9122 51.5649 17.3177 51.3842 16.7603 51.1177V51.123Z" fill="#161B46"/>
<path d="M12.3142 54.387C12.3142 54.387 12.3785 54.3147 12.4803 54.1834C12.6204 53.9968 12.7124 53.7787 12.7483 53.5482C12.8068 53.2066 12.7801 52.8559 12.6706 52.5271C12.5297 52.1276 12.2501 51.7919 11.8827 51.5811L11.7701 51.5221L11.8586 51.4927C11.6721 51.8166 11.5672 52.1809 11.5527 52.5544C11.5382 52.9279 11.6147 53.2993 11.7755 53.6367C11.9213 53.9111 12.1014 54.166 12.3115 54.3951C12.2354 54.3562 12.1673 54.3035 12.1105 54.2396C11.691 53.825 11.4481 53.2642 11.4325 52.6745C11.4211 52.2395 11.5286 51.8096 11.7433 51.431L11.7755 51.3721L11.8345 51.4042L11.9577 51.4685C12.3534 51.6961 12.6526 52.06 12.7993 52.4923C12.9068 52.8395 12.9244 53.2084 12.8502 53.5643C12.8017 53.8068 12.6888 54.0318 12.5232 54.2155C12.4661 54.2865 12.3949 54.3449 12.3142 54.387Z" fill="#161B46"/>
<path d="M12.3142 54.3876C12.2033 54.0984 12.1381 53.7937 12.1212 53.4844C12.0583 53.1814 12.0402 52.8708 12.0676 52.5625C12.1786 52.8517 12.2437 53.1564 12.2606 53.4657C12.3235 53.7687 12.3416 54.0793 12.3142 54.3876Z" fill="#161B46"/>
<path d="M18.58 50.196C18.58 50.196 18.6604 50.1639 18.7971 50.0942C18.989 49.9978 19.1539 49.855 19.2768 49.6788C19.4613 49.4202 19.5791 49.1201 19.6198 48.8051C19.6645 48.4211 19.5694 48.0339 19.3518 47.7144C19.3304 47.6795 19.3036 47.65 19.2821 47.6179L19.3759 47.6313C19.0659 47.844 18.818 48.1354 18.6577 48.4755C18.5259 48.7518 18.4564 49.0537 18.454 49.3599C18.4603 49.6428 18.5027 49.9238 18.58 50.196C18.58 50.196 18.5264 50.129 18.4728 49.9897C18.3994 49.7875 18.3586 49.5749 18.3522 49.3599C18.3397 49.0371 18.4031 48.7158 18.5371 48.4219C18.7008 48.0561 18.9623 47.7426 19.2929 47.516L19.3465 47.4785L19.384 47.5294C19.4081 47.5643 19.4376 47.5964 19.4617 47.634C19.6997 47.9811 19.8018 48.4037 19.7485 48.8212C19.6985 49.1559 19.5638 49.4724 19.3572 49.7404C19.2182 49.9212 19.033 50.061 18.8212 50.1451C18.7458 50.1806 18.6632 50.198 18.58 50.196Z" fill="#161B46"/>
<path d="M18.58 50.1959C18.5995 49.9127 18.6656 49.6348 18.7757 49.3731C18.8475 49.0952 18.9624 48.8303 19.116 48.5879C19.0969 48.872 19.0308 49.1509 18.9204 49.4133C18.8489 49.6905 18.734 49.9546 18.58 50.1959Z" fill="#161B46"/>
<path d="M20.7455 49.641C20.7438 49.7217 20.7375 49.8022 20.7267 49.8822C20.7198 50.0967 20.7639 50.3098 20.8554 50.504C20.9934 50.7898 21.1984 51.038 21.453 51.2276C21.7686 51.453 22.1551 51.5567 22.5411 51.5197L22.6564 51.5063L22.6001 51.5813C22.5649 51.2069 22.4318 50.8482 22.2142 50.5415C22.0337 50.2887 21.7994 50.079 21.5281 49.9278C21.273 49.7972 21.003 49.6983 20.7241 49.633C20.801 49.6171 20.8803 49.6171 20.9572 49.633C21.4936 49.7214 21.9744 50.0156 22.2972 50.453C22.5358 50.7739 22.6823 51.1539 22.7207 51.5519V51.6189H22.659L22.5304 51.6349C22.1114 51.6735 21.6929 51.5571 21.3539 51.308C21.0831 51.0983 20.8723 50.821 20.7428 50.504C20.6515 50.2951 20.6191 50.0653 20.649 49.8393C20.666 49.7668 20.6989 49.6991 20.7455 49.641Z" fill="#161B46"/>
<path d="M20.7454 49.6411C20.9827 49.7979 21.1935 49.9915 21.3699 50.2146C21.5784 50.4072 21.754 50.6327 21.8898 50.882C21.6519 50.7259 21.441 50.5322 21.2653 50.3084C21.0555 50.1171 20.8797 49.8914 20.7454 49.6411Z" fill="#161B46"/>
<path d="M22.3052 49.5793C22.5601 49.6043 22.8168 49.5588 23.0476 49.448C23.2883 49.3196 23.4949 49.1359 23.6506 48.912C23.8319 48.631 23.9079 48.2949 23.865 47.9632C23.865 47.9284 23.8516 47.8962 23.8463 47.8641L23.924 47.9177C23.6027 47.9615 23.2987 48.0891 23.0422 48.2875C22.8321 48.4491 22.6601 48.655 22.5384 48.8905C22.4339 49.1129 22.3556 49.3468 22.3052 49.5873C22.2908 49.5202 22.2908 49.4508 22.3052 49.3836C22.326 49.1981 22.3767 49.017 22.4553 48.8476C22.5734 48.5917 22.7485 48.3662 22.9672 48.1884C23.2388 47.969 23.5648 47.8273 23.9106 47.7783H23.9776V47.8426C23.9866 47.8787 23.9929 47.9155 23.9963 47.9525C24.0445 48.3173 23.9578 48.6871 23.7525 48.9924C23.5808 49.2323 23.3512 49.425 23.0851 49.5525C22.9047 49.6374 22.7048 49.6725 22.5062 49.6543C22.3722 49.6195 22.3026 49.5873 22.3052 49.5793Z" fill="#161B46"/>
<path d="M22.3052 49.5796C22.5817 49.171 22.9337 48.8189 23.3424 48.5425C23.2225 48.7646 23.0615 48.9619 22.868 49.124C22.6 49.392 22.332 49.6091 22.3052 49.5796Z" fill="#161B46"/>
<path d="M15.4954 52.0023C15.4954 52.0023 15.5597 51.9326 15.6642 51.8013C15.8033 51.6141 15.8952 51.3963 15.9322 51.1661C15.9896 50.8236 15.963 50.4723 15.8545 50.1424C15.7128 49.7433 15.4334 49.4079 15.0666 49.1963L14.9514 49.1374L15.0425 49.1079C14.8397 49.4647 14.7343 49.8686 14.737 50.279C14.7408 50.6129 14.8166 50.942 14.9594 51.2438C15.1047 51.5187 15.2848 51.7736 15.4954 52.0023C15.4199 51.9626 15.3518 51.91 15.2944 51.8468C15.1267 51.6843 14.9873 51.495 14.8817 51.2867C14.7146 50.9775 14.6227 50.6331 14.6137 50.2817C14.6014 49.8466 14.7089 49.4164 14.9246 49.0382L14.9567 48.9819L15.013 49.0114L15.139 49.0757C15.5348 49.3024 15.8334 49.6668 15.9778 50.0995C16.0897 50.4505 16.1082 50.8246 16.0314 51.1849C15.9821 51.4282 15.8672 51.6534 15.6991 51.8361C15.6444 51.906 15.5748 51.9628 15.4954 52.0023Z" fill="#161B46"/>
<path d="M15.4953 52.0023C15.3876 51.7123 15.3234 51.408 15.3051 51.0992C15.2421 50.7961 15.2241 50.4855 15.2515 50.1772C15.3594 50.4673 15.4245 50.7716 15.4444 51.0804C15.5089 51.3832 15.5261 51.6942 15.4953 52.0023Z" fill="#161B46"/>
<path d="M57.0299 52.7982L39.8779 45.1361C39.2347 44.8477 38.6746 44.4019 38.2493 43.8398C37.824 43.2777 37.5472 42.6175 37.4445 41.9201L36 32.1435C35.9816 32.0143 36.0133 31.883 36.0885 31.7764C36.1637 31.6698 36.2768 31.596 36.4046 31.5699C36.5211 31.5466 36.6421 31.5649 36.7465 31.6217C36.8508 31.6786 36.9319 31.7703 36.9755 31.8808L39.8136 39.0418L59.8922 45.1656C62.406 45.9696 63.3762 48.3146 62.5239 50.5256C62.326 51.0461 62.0237 51.5206 61.6357 51.9199C61.2477 52.3193 60.7821 52.6351 60.2675 52.848C59.753 53.0608 59.2004 53.1662 58.6436 53.1577C58.0868 53.1491 57.5377 53.0268 57.0299 52.7982Z" fill="#936754"/>
<path d="M39.8083 39.0415C39.8777 39.0519 39.9459 39.0689 40.012 39.0924L40.5882 39.2693L42.7028 39.9339C44.485 40.4967 46.9506 41.2739 49.6708 42.1021C52.391 42.9302 54.8807 43.6565 56.679 44.1737L58.8069 44.7847L59.3858 44.9563C59.4532 44.9745 59.5194 44.9969 59.5841 45.0233C59.514 45.0174 59.4448 45.0039 59.3777 44.9831L58.7935 44.8383C58.287 44.7097 57.5553 44.5141 56.6495 44.2675C54.8458 43.7771 52.3615 43.0669 49.6279 42.2361C46.8943 41.4053 44.4367 40.6147 42.6599 40.0277L40.5614 39.3202L39.9933 39.1192C39.9294 39.0989 39.8676 39.0729 39.8083 39.0415Z" fill="#7C5142"/>
<path d="M62.1488 51.4095C62.0963 51.4165 62.0431 51.4165 61.9907 51.4095C61.8385 51.411 61.6864 51.4039 61.5351 51.388C61.2935 51.3633 61.0553 51.3121 60.8249 51.2353C60.5232 51.1273 60.2324 50.9909 59.9566 50.8279C59.6484 50.651 59.316 50.4581 58.9596 50.2383C58.6032 50.0186 58.236 49.772 57.8501 49.5094C57.0349 48.9174 56.1502 48.4277 55.2156 48.0515C54.2727 47.6988 53.2744 47.5173 52.2676 47.5155C51.4449 47.5208 50.6269 47.6398 49.8369 47.8692C49.3039 48.0262 48.787 48.2335 48.2932 48.4883C48.1163 48.5767 47.9877 48.6598 47.8939 48.7054C47.8502 48.7355 47.8024 48.759 47.7518 48.7751C47.7921 48.7403 47.8351 48.7089 47.8805 48.6813C47.9689 48.6277 48.0949 48.5365 48.2664 48.4401C48.7556 48.1656 49.272 47.9428 49.8074 47.7754C50.6041 47.5303 51.4315 47.3995 52.265 47.3868C53.2897 47.3816 54.3069 47.5633 55.2666 47.9228C56.212 48.3054 57.1053 48.8061 57.9251 49.4129C58.311 49.6809 58.6755 49.9275 59.0239 50.1499C59.3723 50.3723 59.7073 50.5706 60.0075 50.7502C60.2769 50.9151 60.5603 51.0558 60.8544 51.171C61.0778 51.2506 61.3085 51.308 61.5431 51.3425C61.9317 51.3934 62.1515 51.3961 62.1488 51.4095Z" fill="#161B46"/>
<path d="M58.8925 50.2171C58.9224 50.3031 58.9307 50.3952 58.9166 50.4851C58.9 50.7244 58.8195 50.9549 58.6834 51.1525C58.4793 51.4468 58.2023 51.6832 57.8795 51.8385C57.4792 52.0249 57.0248 52.0592 56.6011 51.935L56.4725 51.8894L56.4135 51.8707L56.4323 51.8064C56.5538 51.4035 56.7827 51.0413 57.0942 50.7585C57.5177 50.3777 58.0713 50.1743 58.6406 50.1903C58.7227 50.1867 58.8046 50.1995 58.8818 50.2279C58.5834 50.238 58.2874 50.2839 58 50.3645C57.6943 50.4651 57.4143 50.6316 57.18 50.8523C56.8909 51.1224 56.679 51.4647 56.5663 51.8439L56.5234 51.7608L56.6413 51.801C57.0331 51.9166 57.4533 51.888 57.8258 51.7206C58.1285 51.5781 58.3916 51.3637 58.5923 51.0962C58.7299 50.9153 58.8219 50.7038 58.8603 50.4798C58.8871 50.3109 58.8818 50.2198 58.8925 50.2171Z" fill="#161B46"/>
<path d="M58.8925 50.2173C58.699 50.4453 58.47 50.6407 58.2145 50.7962C57.9876 50.9903 57.7317 51.1477 57.4561 51.2625C57.6505 51.0353 57.8793 50.84 58.1341 50.6836C58.3618 50.4907 58.6176 50.3334 58.8925 50.2173Z" fill="#161B46"/>
<path d="M56.2501 48.4724C56.2566 48.5634 56.2438 48.6547 56.2126 48.7404C56.142 48.9689 56.0115 49.1743 55.8347 49.3354C55.5715 49.5742 55.2512 49.7412 54.9048 49.8205C54.4727 49.9118 54.0222 49.8402 53.6398 49.6195C53.5969 49.598 53.5594 49.5712 53.5246 49.5498L53.4709 49.515L53.5031 49.456C53.7139 49.0926 54.0196 48.7933 54.3875 48.5904C54.685 48.4277 55.0162 48.3359 55.355 48.3223C55.58 48.3126 55.8051 48.3379 56.0223 48.3974C56.1036 48.4122 56.1811 48.4432 56.2501 48.4885C55.9576 48.4284 55.6587 48.405 55.3604 48.4188C55.0027 48.4507 54.6581 48.5685 54.3557 48.7621C54.0534 48.9557 53.8022 49.2195 53.6237 49.531L53.6023 49.4399C53.6371 49.4614 53.6719 49.4855 53.7095 49.5042C54.0629 49.7075 54.4776 49.777 54.878 49.6999C55.2053 49.6294 55.5107 49.4804 55.7677 49.2657C55.9402 49.1213 56.0753 48.9374 56.1617 48.7297C56.1839 48.6416 56.2135 48.5556 56.2501 48.4724Z" fill="#161B46"/>
<path d="M56.2501 48.4726C56.0051 48.6497 55.7337 48.7871 55.4461 48.88C55.1799 49.0141 54.894 49.1046 54.5992 49.148C55.1067 48.835 55.6601 48.6035 56.2393 48.4619L56.2501 48.4726Z" fill="#161B46"/>
<path d="M60.849 51.1579C60.7673 51.128 60.6932 51.0804 60.632 51.0186C60.453 50.86 60.3198 50.6564 60.246 50.429C60.1364 50.0906 60.1161 49.7296 60.1871 49.3811C60.2841 48.95 60.5346 48.569 60.8919 48.3091L61.0045 48.2367L61.0581 48.1992L61.0983 48.2555C61.3417 48.597 61.488 48.998 61.5217 49.4159C61.5477 49.7547 61.4954 50.0949 61.369 50.4102C61.2881 50.6206 61.1731 50.8162 61.0286 50.9891C60.9241 51.1097 60.8544 51.1633 60.849 51.1579C61.0263 50.917 61.1713 50.6539 61.2805 50.3754C61.3994 50.0367 61.4344 49.6742 61.3826 49.3191C61.3308 48.9639 61.1937 48.6265 60.983 48.3359L61.0768 48.3547C61.0447 48.3761 61.0072 48.3975 60.9723 48.4243C60.6426 48.6645 60.4089 49.0141 60.313 49.4106C60.2412 49.7375 60.2504 50.077 60.3398 50.3995C60.4012 50.6171 60.5143 50.8166 60.6695 50.9811C60.7794 51.0963 60.8571 51.1472 60.849 51.1579Z" fill="#161B46"/>
<path d="M60.8489 51.1582C60.7885 50.8656 60.774 50.5655 60.8061 50.2684C60.7922 49.9697 60.8238 49.6706 60.8999 49.3813C60.9619 49.6737 60.9773 49.974 60.9454 50.2711C60.9593 50.57 60.9268 50.8693 60.8489 51.1582Z" fill="#161B46"/>
<path d="M54.4036 47.7838C54.3242 47.7954 54.2431 47.7871 54.1677 47.7597C53.9547 47.7012 53.7619 47.5853 53.6103 47.4247C53.3842 47.1882 53.2226 46.8975 53.1413 46.5805C53.0465 46.1855 53.1009 45.7694 53.2941 45.412C53.3155 45.3718 53.3396 45.337 53.3584 45.3048L53.3905 45.2485L53.4495 45.2807C53.7912 45.4677 54.0742 45.7461 54.2669 46.0847C54.4241 46.3545 54.5158 46.6574 54.5349 46.9691C54.5509 47.1761 54.5328 47.3844 54.4813 47.5855C54.469 47.6599 54.4416 47.7311 54.4009 47.7945C54.4452 47.529 54.4578 47.2591 54.4384 46.9905C54.4057 46.697 54.3087 46.4142 54.1543 46.1624C53.9658 45.8542 53.6997 45.601 53.3825 45.4281L53.4736 45.404C53.4549 45.4361 53.4334 45.4683 53.4147 45.5031C53.2392 45.8314 53.1851 46.211 53.2619 46.5751C53.3357 46.8724 53.479 47.148 53.68 47.3791C53.8162 47.5343 53.9882 47.6539 54.1811 47.7275C54.2563 47.7421 54.3305 47.7609 54.4036 47.7838Z" fill="#161B46"/>
<path d="M54.4035 47.7838C54.0988 47.3292 53.8731 46.8263 53.7362 46.2964C54.041 46.751 54.2666 47.2539 54.4035 47.7838Z" fill="#161B46"/>
<path d="M52.2757 47.4517C52.3231 47.5169 52.3551 47.592 52.3694 47.6714C52.4205 47.8856 52.4131 48.1096 52.348 48.32C52.2521 48.6336 52.0767 48.917 51.8388 49.1427C51.5387 49.416 51.1486 49.5696 50.7427 49.5742C50.7008 49.5769 50.6587 49.5769 50.6167 49.5742H50.5524V49.5072C50.5486 49.1201 50.6506 48.7392 50.8472 48.4057C51.007 48.1374 51.2261 47.9091 51.4877 47.7384C51.6615 47.6246 51.8524 47.5395 52.0532 47.4865C52.1245 47.4614 52.2001 47.4504 52.2757 47.4543C52.0186 47.5473 51.7731 47.6696 51.544 47.8188C51.2764 48.0101 51.0591 48.2633 50.9107 48.5569C50.7622 48.8505 50.6871 49.1756 50.6918 49.5045L50.6274 49.4348C50.6649 49.4376 50.7025 49.4376 50.74 49.4348C51.1131 49.4298 51.4723 49.292 51.7531 49.0463C51.9778 48.8378 52.1497 48.5787 52.2542 48.2905C52.3234 48.0956 52.3445 47.8869 52.3159 47.6821C52.2979 47.6062 52.2845 47.5292 52.2757 47.4517Z" fill="#161B46"/>
<path d="M52.2757 47.4517C52.1723 47.7067 52.0264 47.9423 51.8442 48.1485C51.7018 48.3813 51.5205 48.588 51.3082 48.7595C51.4132 48.5062 51.559 48.2717 51.7397 48.0654C51.8834 47.8328 52.0645 47.6254 52.2757 47.4517Z" fill="#161B46"/>
<path d="M50.7721 47.5507C50.7721 47.5507 50.7105 47.5963 50.5792 47.6284C50.3906 47.6675 50.1949 47.6536 50.0137 47.5882C49.7435 47.4959 49.5023 47.3341 49.3142 47.1192C49.0852 46.8465 48.9632 46.4997 48.9712 46.1437C48.9712 46.1062 48.9712 46.0686 48.9712 46.0365V45.9722H49.0382C49.3759 45.9837 49.704 46.0875 49.9869 46.2723C50.2161 46.4194 50.4071 46.6187 50.5443 46.8539C50.6371 47.0091 50.7041 47.1784 50.7427 47.3551C50.7622 47.4183 50.7677 47.4851 50.7587 47.5507C50.6814 47.326 50.5818 47.1096 50.4613 46.9048C50.3042 46.668 50.0924 46.4725 49.8437 46.3348C49.5951 46.1972 49.3169 46.1215 49.0328 46.1142L49.1052 46.0499C49.1052 46.082 49.1052 46.1142 49.1052 46.149C49.0977 46.4709 49.204 46.785 49.4053 47.0361C49.5761 47.2383 49.7931 47.3965 50.0378 47.4971C50.2732 47.5814 50.527 47.5999 50.7721 47.5507Z" fill="#161B46"/>
<path d="M50.7722 47.5506C50.5504 47.4601 50.3483 47.3272 50.1773 47.1594C49.8718 46.9128 49.6413 46.6877 49.6708 46.6582C49.8922 46.7494 50.0942 46.8823 50.2657 47.0495C50.5686 47.296 50.7964 47.5158 50.7722 47.5506Z" fill="#161B46"/>
<path d="M57.5526 49.1909C57.4716 49.1596 57.3978 49.1122 57.3355 49.0515C57.1553 48.893 57.0218 48.6882 56.9496 48.4593C56.8399 48.1209 56.8196 47.7599 56.8907 47.4114C56.9872 46.9801 57.2378 46.5989 57.5955 46.3394L57.7081 46.2643L57.7617 46.2295L57.7992 46.2831C58.0441 46.625 58.1914 47.027 58.2253 47.4462C58.2511 47.785 58.1988 48.1251 58.0726 48.4405C57.9911 48.6503 57.8751 48.845 57.7295 49.0167C57.6277 49.14 57.558 49.1936 57.5526 49.1882C57.7299 48.9472 57.8749 48.6842 57.9841 48.4057C58.103 48.067 58.138 47.7045 58.0862 47.3493C58.0344 46.9941 57.8973 46.6568 57.6866 46.3662L57.7804 46.3849L57.6759 46.4519C57.3467 46.6926 57.1132 47.042 57.0166 47.4382C56.9448 47.7651 56.954 48.1046 57.0434 48.4271C57.1029 48.6455 57.2163 48.8454 57.3731 49.0087C57.483 49.1239 57.5607 49.1802 57.5526 49.1909Z" fill="#161B46"/>
<path d="M57.5526 49.1909C57.4925 48.8983 57.4781 48.5982 57.5098 48.3011C57.4956 48.0024 57.5272 47.7032 57.6036 47.4141C57.6642 47.7066 57.6796 48.0067 57.6491 48.3038C57.6614 48.6027 57.6289 48.9017 57.5526 49.1909Z" fill="#161B46"/>
</svg>
