<svg width="126" height="126" viewBox="0 0 126 126" fill="none" xmlns="http://www.w3.org/2000/svg">
<path d="M120.053 118.495C120.053 118.531 94.4723 118.561 62.9244 118.561C31.3765 118.561 5.79602 118.531 5.79602 118.495C5.79602 118.46 31.3665 118.44 62.9244 118.44C94.4824 118.44 120.053 118.46 120.053 118.495Z" fill="#161B46"/>
<path d="M55.9163 108.836L57.1485 99.9307L62.9168 100.228L59.7063 109.796L55.9163 108.836Z" fill="#936754"/>
<path d="M60.0441 108.864L60.0239 109.116C60.0239 109.116 64.1895 111.232 64.1643 112.057L55.5963 111.255L55.9793 108.413C56.5851 108.774 57.2615 109.002 57.9627 109.079C58.6639 109.157 59.3737 109.084 60.0441 108.864Z" fill="#00ACE9"/>
<g opacity="0.6">
<path opacity="0.6" d="M56.7554 109.401C56.671 109.419 56.5961 109.467 56.545 109.537C56.4939 109.607 56.4701 109.693 56.4782 109.779C56.4931 109.863 56.5396 109.94 56.6083 109.991C56.6771 110.043 56.763 110.067 56.8487 110.058C56.9383 110.04 57.0178 109.988 57.0718 109.914C57.1258 109.84 57.1504 109.749 57.141 109.658C57.1184 109.569 57.0618 109.493 56.9835 109.446C56.9052 109.399 56.8115 109.384 56.7227 109.406" fill="white"/>
</g>
<g opacity="0.6">
<path opacity="0.6" d="M55.5912 111.25L55.6819 110.565L63.8643 111.573C63.8643 111.573 64.2323 111.775 64.1642 112.042L55.5912 111.25Z" fill="white"/>
</g>
<path d="M60.0516 109.139C60.0516 109.179 59.8349 109.179 59.6156 109.295C59.3964 109.411 59.2729 109.575 59.2351 109.547C59.1973 109.519 59.283 109.295 59.5501 109.156C59.8172 109.018 60.0642 109.101 60.0516 109.139Z" fill="#161B46"/>
<path d="M60.916 109.594C60.916 109.635 60.7345 109.69 60.5758 109.846C60.417 110.003 60.3565 110.192 60.3238 110.187C60.291 110.182 60.2784 109.935 60.48 109.741C60.6816 109.547 60.9185 109.554 60.916 109.594Z" fill="#161B46"/>
<path d="M61.3267 110.719C61.2864 110.719 61.2486 110.507 61.3771 110.29C61.5056 110.074 61.7098 109.998 61.7249 110.038C61.74 110.079 61.6064 110.187 61.5031 110.368C61.3998 110.55 61.367 110.716 61.3267 110.719Z" fill="#161B46"/>
<path d="M32.2812 95.6063L38.5837 91.0879L43.5658 93.7969L34.5265 98.915L32.2812 95.6063Z" fill="#936754"/>
<path d="M35.028 98.7034L34.8138 98.8445C34.8138 98.8445 35.7159 103.428 35.0507 103.915L30.3987 96.6723L32.8205 95.1401C32.9185 95.8555 33.1657 96.5423 33.546 97.1561C33.9262 97.7699 34.4311 98.2971 35.028 98.7034Z" fill="#00ACE9"/>
<g opacity="0.6">
<path opacity="0.6" d="M32.576 96.4504C32.5095 96.3945 32.4248 96.365 32.338 96.3673C32.2511 96.3696 32.1682 96.4037 32.1047 96.463C32.0455 96.5257 32.0126 96.6086 32.0126 96.6948C32.0126 96.7811 32.0455 96.864 32.1047 96.9267C32.1751 96.9883 32.2662 97.0209 32.3597 97.0181C32.4532 97.0153 32.5422 96.9772 32.6087 96.9116C32.6626 96.8383 32.6861 96.7471 32.6744 96.657C32.6626 96.5669 32.6166 96.4847 32.5457 96.4277" fill="white"/>
</g>
<g opacity="0.6">
<path opacity="0.6" d="M30.4012 96.6721L30.996 96.3218L35.2371 103.393C35.2371 103.393 35.3052 103.806 35.0532 103.915L30.4012 96.6721Z" fill="white"/>
</g>
<path d="M34.8138 98.8822C34.776 98.9049 34.6475 98.736 34.4207 98.6302C34.1939 98.5244 33.9872 98.5319 33.9822 98.4916C33.9772 98.4513 34.2115 98.3707 34.4862 98.4916C34.7609 98.6126 34.8516 98.8696 34.8138 98.8822Z" fill="#161B46"/>
<path d="M34.9876 99.8447C34.9574 99.8749 34.7986 99.759 34.5718 99.7363C34.345 99.7136 34.1661 99.7792 34.1434 99.7363C34.1208 99.6935 34.3098 99.5498 34.5895 99.5851C34.8692 99.6204 35.028 99.822 34.9876 99.8447Z" fill="#161B46"/>
<path d="M34.3551 100.86C34.3274 100.833 34.4711 100.669 34.7231 100.636C34.9751 100.603 35.159 100.719 35.1389 100.752C35.1187 100.785 34.9499 100.752 34.7432 100.78C34.5366 100.807 34.3803 100.893 34.3551 100.86Z" fill="#161B46"/>
<path d="M73.0674 46.8842C73.8106 46.8842 74.4131 46.2818 74.4131 45.5386C74.4131 44.7954 73.8106 44.1929 73.0674 44.1929C72.3242 44.1929 71.7217 44.7954 71.7217 45.5386C71.7217 46.2818 72.3242 46.8842 73.0674 46.8842Z" fill="#161B46"/>
<path d="M57.8566 33.1958C59.3104 33.5492 60.64 34.293 61.7018 35.3469C62.7637 36.4008 63.5176 37.7247 63.882 39.1758C64.4364 41.28 65.6661 50.5561 65.6661 50.5561L73.08 44.8332L75.3732 47.8798L68.5868 55.5961C67.0748 57.4281 64.1138 57.8641 61.8609 57.1081C59.3031 56.2488 59.1721 54.4797 59.4644 51.7984L57.8566 33.1958Z" fill="#936754"/>
<path d="M76.356 46.6399L78.7979 43.9662L74.9977 41.9502C74.7306 42.1115 73.08 44.8255 73.08 44.8255L72.9792 45.2917C72.9792 45.2917 75.3203 47.8369 75.3858 47.8798C75.4513 47.9226 76.356 46.6399 76.356 46.6399Z" fill="#936754"/>
<path d="M78.6442 44.2084C78.6442 44.2084 78.6316 44.2412 78.6013 44.279C78.3493 44.599 77.1372 45.854 76.9306 45.7632C76.7239 45.6725 76.356 45.1484 76.4846 44.9543C76.6131 44.7603 78.0696 43.4222 78.0696 43.4222C78.0696 43.4222 78.3216 43.2256 78.7425 43.528C79.0096 43.7145 78.6442 44.2084 78.6442 44.2084Z" fill="#936754"/>
<path d="M78.3115 43.0287C78.3115 43.0287 78.2989 43.0615 78.2712 43.0993C78.0192 43.4218 76.8045 44.6768 76.5979 44.5836C76.3912 44.4903 76.0258 43.9712 76.1544 43.7746C76.2829 43.5781 77.7369 42.2425 77.7369 42.2425C77.7369 42.2425 77.9889 42.0459 78.4123 42.3483C78.6794 42.5373 78.3115 43.0287 78.3115 43.0287Z" fill="#936754"/>
<path d="M77.7823 42.0962C77.7823 42.0962 77.7697 42.129 77.7395 42.1668C77.4874 42.4868 76.2728 43.7418 76.0662 43.6511C75.8595 43.5603 75.4941 43.0362 75.6226 42.8396C75.7512 42.6431 77.2052 41.3075 77.2052 41.3075C77.2052 41.3075 77.4572 41.1109 77.8806 41.4158C78.1477 41.6023 77.7823 42.0962 77.7823 42.0962Z" fill="#936754"/>
<path d="M77.2405 41.1791C77.2405 41.1791 77.2279 41.2119 77.1977 41.2497C76.9457 41.5722 75.7335 42.8272 75.5269 42.7339C75.3203 42.6407 74.9549 42.1216 75.0834 41.925C75.2119 41.7285 76.6659 40.3929 76.6659 40.3929C76.6659 40.3929 76.9179 40.1963 77.3413 40.4987C77.616 40.6877 77.2405 41.1791 77.2405 41.1791Z" fill="#936754"/>
<path d="M76.8323 44.5763C77.0681 44.4143 77.2838 44.2248 77.4749 44.0118C77.687 43.8261 77.8749 43.6144 78.0343 43.3818C77.7963 43.5411 77.5796 43.7299 77.3892 43.9438C77.1755 44.1282 76.9881 44.341 76.8323 44.5763Z" fill="#936754"/>
<path d="M76.0763 43.8706C76.4017 43.628 76.7037 43.3555 76.9784 43.0566C77.2819 42.7864 77.5587 42.4877 77.805 42.1646C77.179 42.6805 76.6005 43.2515 76.0763 43.8706Z" fill="#936754"/>
<g opacity="0.78">
<path opacity="0.78" d="M75.3732 43.0918C76.0008 42.5776 76.5795 42.0065 77.102 41.3857C76.7772 41.6291 76.4752 41.9016 76.1998 42.1997C75.8971 42.4707 75.6204 42.7694 75.3732 43.0918Z" fill="#936754"/>
</g>
<path d="M73.9318 44.9467L74.1006 43.5103C74.1751 42.8815 74.4892 42.3056 74.9776 41.9026L75.3505 41.5977L77.7319 44.095C77.7319 44.095 76.671 44.7804 76.1393 43.9639L76.2653 45.3021L73.9318 44.9467Z" fill="#936754"/>
<path d="M75.9679 45.3095C75.9503 45.3095 76.0359 45.1608 76.0889 44.8887C76.1585 44.5112 76.0877 44.1213 75.8898 43.7925L75.7008 43.4825L75.9906 43.7043L76.6559 44.2083H76.6407C76.7962 44.2966 76.9735 44.3388 77.1521 44.3298C77.3306 44.3209 77.5029 44.2612 77.6488 44.1579C77.6692 44.1406 77.6886 44.1221 77.7067 44.1024V44.2108C77.0061 43.5329 76.3787 42.9105 75.9553 42.4468C75.7411 42.2099 75.5748 42.0133 75.4513 41.8747C75.3871 41.8077 75.3336 41.7312 75.2925 41.6479C75.5498 41.8739 75.7938 42.1145 76.0233 42.3687C76.4669 42.8223 77.1019 43.4271 77.8075 44.1049L77.863 44.1579L77.8125 44.2133C77.7889 44.2425 77.7618 44.2687 77.7319 44.2914C77.5619 44.4275 77.3499 44.5006 77.1321 44.4981C76.9341 44.4943 76.7395 44.4461 76.5626 44.3569L75.9099 43.8303L76.0082 43.7421C76.2136 44.101 76.2706 44.5261 76.167 44.9265C76.1358 45.0696 76.0671 45.2018 75.9679 45.3095Z" fill="#936754"/>
<path d="M77.1876 44.299C77.2153 44.3116 77.1044 44.4502 77.0616 44.6795C77.0508 44.7395 77.0583 44.8013 77.083 44.857C77.1077 44.9127 77.1485 44.9597 77.2002 44.992C77.2753 45.0157 77.3553 45.0193 77.4322 45.0025C77.5091 44.9857 77.5803 44.9491 77.6387 44.8962C77.9385 44.6568 78.2334 44.4477 78.4224 44.2864C78.6114 44.1251 78.7248 44.0067 78.7449 44.0218C78.7651 44.0369 78.6819 44.178 78.4929 44.3696C78.2514 44.6064 77.9938 44.8262 77.7218 45.0273C77.6414 45.0969 77.5433 45.1429 77.4383 45.1602C77.3334 45.1776 77.2257 45.1656 77.1271 45.1256C77.0493 45.079 76.9891 45.0081 76.9558 44.9238C76.9225 44.8394 76.9181 44.7465 76.9432 44.6594C76.9711 44.5547 77.0219 44.4574 77.0918 44.3746C77.1473 44.3192 77.18 44.294 77.1876 44.299Z" fill="#936754"/>
<path d="M64.9228 53.6757C64.8589 53.5283 64.8238 53.3701 64.8194 53.2095C64.781 52.8247 64.8022 52.4362 64.8824 52.0579C64.9608 51.6779 65.0994 51.3129 65.2932 50.9768C65.3621 50.8323 65.4579 50.7023 65.5754 50.5938C65.3319 51.0674 65.1425 51.567 65.011 52.0831C64.9228 52.6091 64.8932 53.1432 64.9228 53.6757Z" fill="#936754"/>
<path d="M72.208 45.3853L75.0556 48.248L75.8318 47.3483L73.0144 44.7427L72.208 45.3853Z" fill="#161B46"/>
<path d="M53.4366 36.5094C53.6155 35.5316 53.0712 34.3523 53.7415 33.6164C54.2052 33.1124 55.0318 33.1124 55.5685 32.6866C56.259 32.1246 56.2111 31.0864 56.2893 30.2018C56.4201 28.7736 57.0271 27.4308 58.0129 26.3891C58.4086 25.9733 58.9025 25.4718 58.7387 24.9224C58.6637 24.7284 58.5487 24.5524 58.401 24.4058L53.4769 18.7913C53.0914 18.3014 52.6304 17.8761 52.1111 17.5313C51.8501 17.3615 51.5525 17.256 51.2427 17.2236C50.933 17.1912 50.62 17.2327 50.3295 17.3448C49.3416 17.8009 49.1728 19.1315 48.4697 19.9606C47.8347 20.7166 46.7611 21.0416 46.2924 21.9035C45.8464 22.7275 46.0858 23.8111 45.5893 24.6049C44.9291 25.6658 43.281 25.7288 42.5931 26.7721C41.9908 27.6844 42.3411 29.025 41.6607 29.8742C41.0382 30.6454 39.8967 30.6454 38.9769 31.036C38.9769 31.036 40.0227 32.1851 40.4889 32.8453C40.9551 33.5056 42.5653 33.556 43.2735 33.0746C43.9816 32.5933 44.1227 32.1851 44.5587 31.729C44.91 31.4083 45.3152 31.1524 45.7557 30.973C45.7557 30.973 44.4755 31.9381 44.5587 32.3665C44.6418 32.7949 43.3743 34.3674 43.0719 34.2641C42.7695 34.1608 46.4134 36.5069 46.4134 36.5069L53.4366 36.5094Z" fill="#161B46"/>
<path d="M59.6711 17.4785C59.6207 18.1488 60.0642 18.7385 60.5102 19.2425C60.9563 19.7465 61.4552 20.2707 61.551 20.936C61.7223 22.1153 60.5657 23.204 60.795 24.3783C60.9235 25.0058 61.4351 25.5098 61.5258 26.1423C61.6165 26.7748 61.2864 27.3544 60.8807 27.8206C60.4749 28.2868 59.9785 28.6724 59.6207 29.1764C59.2628 29.6804 59.0335 30.3356 58.7613 30.9252C58.4892 31.5149 58.1238 32.1046 57.5517 32.4146C56.6899 32.8833 55.4853 32.6666 54.8251 33.3873C54.1649 34.108 54.3891 35.3629 53.6029 35.8896" fill="#161B46"/>
<path d="M49.3593 18.5042C49.3416 17.8969 49.9036 17.4257 50.4706 17.2039C51.0376 16.9822 51.66 16.8965 52.164 16.5563C52.6126 16.2564 52.92 15.7852 53.2905 15.4021C53.7575 14.9293 54.3419 14.5891 54.9837 14.4166C55.6255 14.244 56.3016 14.2453 56.9428 14.4202C57.5839 14.5951 58.167 14.9374 58.6323 15.4119C59.0976 15.8865 59.4283 16.4763 59.5905 17.1208C59.8072 17.9876 59.6585 19.0133 58.9756 19.5878C58.1818 20.2582 57.0075 20.1095 55.9919 19.9003C54.9764 19.6912 53.8272 19.487 52.9679 20.0843C52.4639 20.4446 52.164 21.0293 51.8516 21.5711C51.5391 22.1129 51.146 22.6648 50.5538 22.8689C49.9616 23.073 49.1602 22.7202 49.1375 22.0952" fill="#161B46"/>
<path d="M51.7582 18.6301C51.5043 18.6555 51.2695 18.7763 51.1011 18.968C50.9328 19.1598 50.8434 19.4083 50.851 19.6633L51.4584 33.415C51.4836 35.0378 53.8574 35.9526 55.5962 35.9123C57.3602 35.8694 57.4081 35.0101 57.4308 33.4628C57.466 30.8824 57.4635 29.9147 57.4635 29.9348C57.4635 29.955 59.6836 29.5619 60.1347 26.6588C60.3615 25.2199 60.2834 22.8587 60.1574 20.9309C60.044 19.1946 58.8974 17.0652 57.1586 17.2517L51.7582 18.6301Z" fill="#936754"/>
<path d="M59.608 22.5843C59.6094 22.6809 59.5731 22.7742 59.5067 22.8443C59.4403 22.9144 59.3492 22.9559 59.2527 22.9598C59.2056 22.9639 59.1581 22.9585 59.113 22.9439C59.068 22.9293 59.0264 22.9058 58.9906 22.8747C58.9549 22.8437 58.9258 22.8058 58.905 22.7632C58.8842 22.7207 58.8722 22.6744 58.8697 22.6272C58.8683 22.5304 58.9045 22.4368 58.9708 22.3663C59.0372 22.2957 59.1283 22.2537 59.225 22.2492C59.2723 22.2454 59.3198 22.2511 59.3649 22.266C59.4099 22.281 59.4515 22.3047 59.4872 22.336C59.5229 22.3672 59.552 22.4053 59.5727 22.4479C59.5935 22.4906 59.6055 22.537 59.608 22.5843Z" fill="#161B46"/>
<path d="M59.6484 22.1581C59.603 22.2085 59.3208 21.9994 58.9201 22.0019C58.5194 22.0044 58.2296 22.2035 58.1868 22.1556C58.1439 22.1077 58.212 22.0472 58.338 21.954C58.5109 21.8334 58.7168 21.7691 58.9277 21.77C59.1358 21.7688 59.3389 21.8341 59.5073 21.9565C59.6282 22.0498 59.671 22.138 59.6484 22.1581Z" fill="#161B46"/>
<path d="M55.6315 22.68C55.6329 22.777 55.5962 22.8707 55.5293 22.9409C55.4624 23.0111 55.3706 23.0522 55.2737 23.0555C55.2264 23.0593 55.1788 23.0535 55.1338 23.0386C55.0888 23.0237 55.0472 23 55.0115 22.9687C54.9758 22.9375 54.9467 22.8994 54.9259 22.8568C54.9052 22.8141 54.8932 22.7677 54.8906 22.7204C54.8899 22.6236 54.9268 22.5303 54.9936 22.4602C55.0604 22.3902 55.1518 22.3488 55.2485 22.3449C55.2958 22.3411 55.3433 22.3468 55.3884 22.3617C55.4334 22.3767 55.475 22.4004 55.5107 22.4317C55.5464 22.4629 55.5755 22.501 55.5962 22.5436C55.617 22.5863 55.629 22.6327 55.6315 22.68Z" fill="#161B46"/>
<path d="M55.7222 22.2411C55.6769 22.2915 55.3946 22.0824 54.9939 22.0849C54.5933 22.0874 54.3035 22.2865 54.2581 22.2386C54.2127 22.1907 54.2833 22.1302 54.4118 22.037C54.5847 21.9164 54.7907 21.8521 55.0015 21.853C55.2088 21.8523 55.4109 21.9176 55.5786 22.0395C55.692 22.1328 55.7449 22.221 55.7222 22.2411Z" fill="#161B46"/>
<path d="M57.1787 25.1997C57.3885 25.1319 57.6062 25.0921 57.8264 25.0813C57.9297 25.0687 58.0255 25.0485 58.0431 24.9805C58.0507 24.8749 58.0261 24.7694 57.9726 24.6781L57.6702 23.9019C57.2493 22.7956 56.9444 21.8859 56.9872 21.8708C57.0301 21.8557 57.4106 22.7377 57.8314 23.8414C57.9322 24.1136 58.0305 24.3732 58.1238 24.6226C58.1868 24.7462 58.2055 24.8876 58.1767 25.0233C58.162 25.0595 58.1391 25.0917 58.1098 25.1175C58.0805 25.1433 58.0456 25.162 58.0078 25.172C57.9521 25.1881 57.8945 25.1966 57.8365 25.1972C57.6182 25.2259 57.3972 25.2267 57.1787 25.1997Z" fill="#161B46"/>
<path d="M57.456 29.9274C56.0934 29.952 54.7508 29.5978 53.5777 28.9043C53.5777 28.9043 54.5227 30.8901 57.4207 30.6129L57.456 29.9274Z" fill="#936754"/>
<path d="M57.0125 26.1649C56.9354 26.0698 56.8357 25.9956 56.7226 25.949C56.6095 25.9023 56.4865 25.8847 56.3648 25.8977C56.2762 25.9071 56.1903 25.9342 56.1123 25.9775C56.0344 26.0208 55.966 26.0794 55.9112 26.1497C55.8586 26.2167 55.8275 26.2981 55.8221 26.3832C55.8167 26.4682 55.8372 26.5529 55.881 26.626C55.9455 26.6974 56.0297 26.7481 56.1229 26.7719C56.2162 26.7956 56.3143 26.7914 56.4052 26.7596C56.592 26.6918 56.7634 26.5872 56.9092 26.4521C56.9551 26.4205 56.9945 26.3803 57.0251 26.3337C57.0398 26.3117 57.0477 26.2858 57.0477 26.2594C57.0477 26.2329 57.0398 26.207 57.0251 26.185" fill="#936754"/>
<path d="M56.002 25.4795C56.0675 25.4795 56.07 25.9105 56.4404 26.2179C56.8109 26.5253 57.2746 26.4699 57.2796 26.5354C57.2846 26.6009 57.1763 26.6211 56.9797 26.6261C56.7244 26.6282 56.4768 26.5388 56.2817 26.3741C56.0925 26.2203 55.9705 25.9989 55.9415 25.7567C55.9264 25.5854 55.9742 25.477 56.002 25.4795Z" fill="#161B46"/>
<path d="M55.9011 21.5433C55.8608 21.6516 55.4626 21.6012 54.9939 21.6567C54.5252 21.7121 54.1447 21.8431 54.0842 21.7474C54.0565 21.6995 54.122 21.5987 54.2732 21.4954C54.4771 21.3666 54.7074 21.2857 54.947 21.2586C55.1866 21.2316 55.4292 21.2591 55.6567 21.3391C55.8306 21.4047 55.9162 21.4903 55.9011 21.5433Z" fill="#161B46"/>
<path d="M59.4997 21.004C59.4291 21.0947 59.1545 21.004 58.8218 21.004C58.4892 21.004 58.212 21.067 58.1465 20.9712C58.1187 20.9259 58.1616 20.8352 58.2851 20.7495C58.4484 20.6441 58.6401 20.5913 58.8344 20.5983C59.0286 20.6014 59.2171 20.6648 59.3737 20.7797C59.4921 20.8654 59.5299 20.9586 59.4997 21.004Z" fill="#161B46"/>
<path d="M49.7372 28.1535C50.1372 28.2338 50.5505 28.2178 50.943 28.1069C51.3355 27.996 51.6961 27.7934 51.9949 27.5158C52.2937 27.2381 52.5223 26.8934 52.6616 26.51C52.801 26.1267 52.8473 25.7157 52.7965 25.3109C52.7058 24.6003 52.3228 23.8771 52.5697 23.2042C52.8948 22.3147 54.1422 22.04 54.4723 21.153C54.6639 20.649 54.4925 20.0341 54.7092 19.5275C54.9259 19.021 55.4148 18.7716 55.9037 18.6027C56.3926 18.4339 56.9117 18.3054 57.3199 17.9878C57.7282 17.6703 57.9852 17.068 57.7206 16.6245C55.5585 16.883 53.435 17.399 51.3954 18.1617C50.9216 18.3381 50.4252 18.5498 50.148 18.9681C49.8708 19.3864 49.8658 19.9761 49.896 20.5204L50.2589 28.3173" fill="#161B46"/>
<path d="M54.253 16.5234C54.2046 16.5908 54.1498 16.6532 54.0893 16.7099C53.9153 16.8725 53.714 17.0031 53.4945 17.0955C53.1458 17.2346 52.7778 17.3195 52.4034 17.3475C51.9674 17.4004 51.4659 17.3903 50.9216 17.4029C50.3286 17.403 49.7416 17.5221 49.1954 17.7532C48.8978 17.8977 48.6445 18.1197 48.4621 18.3958C48.2869 18.6976 48.1458 19.0179 48.0413 19.3509C47.9229 19.7205 47.682 20.0388 47.3583 20.253C47.0085 20.4297 46.64 20.5667 46.2596 20.6613C45.88 20.7543 45.5454 20.9783 45.3146 21.2938C45.105 21.6417 44.9615 22.0253 44.8913 22.4253C44.8151 22.8367 44.6951 23.2389 44.5334 23.6248C44.3512 23.9941 44.0937 24.3212 43.7774 24.5849C43.4731 24.8402 43.1198 25.0306 42.7392 25.1444C42.3744 25.2414 41.9977 25.2863 41.6203 25.2779C41.2762 25.267 40.9334 25.3252 40.6123 25.4493C40.4663 25.5184 40.3333 25.6121 40.2192 25.7265C40.1122 25.8446 40.0208 25.9758 39.947 26.1171C39.6648 26.6841 39.5741 27.2964 39.3221 27.7954C39.0882 28.2441 38.7247 28.612 38.2788 28.8513C37.9478 29.0331 37.5818 29.1422 37.2053 29.1713C36.968 29.1885 36.7296 29.1715 36.4971 29.1209C36.4165 29.1008 36.3585 29.0781 36.3207 29.068L36.2603 29.0453C36.5674 29.1213 36.8849 29.1468 37.2002 29.1209C37.5677 29.0837 37.9231 28.9695 38.2435 28.7858C38.6712 28.5495 39.0173 28.1893 39.2364 27.7526C39.4884 27.2687 39.5615 26.6614 39.8513 26.0667C39.9273 25.9155 40.024 25.7755 40.1385 25.6509C40.2611 25.5239 40.4053 25.4198 40.5644 25.3434C40.9019 25.2105 41.2627 25.1471 41.6253 25.157C41.9916 25.1624 42.357 25.1183 42.7115 25.0259C43.0745 24.9146 43.4113 24.7312 43.7018 24.4866C44.0047 24.2347 44.2504 23.9212 44.4225 23.5668C44.5809 23.1901 44.6975 22.7972 44.7703 22.395C44.8442 21.9787 44.9945 21.5797 45.2138 21.2182C45.333 21.0436 45.4876 20.8959 45.6674 20.7848C45.8431 20.6786 46.0309 20.594 46.2269 20.5328C46.5984 20.4427 46.9585 20.3108 47.3004 20.1396C47.6032 19.9422 47.8277 19.6455 47.9354 19.3005C48.0455 18.9599 48.1934 18.6328 48.3764 18.3252C48.5735 18.0421 48.8434 17.8175 49.1576 17.6751C49.7154 17.4392 50.3161 17.3216 50.9216 17.3298C51.4735 17.3298 51.9649 17.3298 52.3983 17.292C52.7676 17.2667 53.131 17.1869 53.4769 17.0552C53.7692 16.9327 54.0333 16.7518 54.253 16.5234Z" fill="#161B46"/>
<path d="M52.0959 32.6239C48.6259 32.9515 46.3125 34.2115 44.5485 35.9176L46.872 42.8576C46.872 42.8576 49.014 46.9451 48.8678 49.8506C48.7216 52.7562 47.3104 53.9582 46.1588 57.8819L62.1658 60.2255C62.1658 60.2255 61.2637 50.8536 61.0696 48.82C60.8756 46.7863 63.2494 44.1756 62.5338 41.4767C60.9436 35.4841 58.5673 33.4127 58.5673 33.4127C58.5673 33.4127 55.0998 32.1401 52.0959 32.6239Z" fill="#00ACE9"/>
<path d="M47.5045 54.4998C47.7083 54.6321 47.944 54.7066 48.1868 54.7155C48.4295 54.7244 48.6701 54.6673 48.883 54.5502C49.3069 54.3086 49.6611 53.9613 49.9111 53.5422C50.4151 52.7862 50.7503 51.8916 50.6243 51.0021C50.4983 50.1125 49.7952 49.2708 48.8981 49.1978C48.8981 49.1978 48.8225 50.4578 48.7418 50.8635C48.6612 51.2692 47.5045 54.4998 47.5045 54.4998Z" fill="#936754"/>
<path d="M58.7362 42.8398C58.7343 42.9252 58.7207 43.01 58.6958 43.0918C58.6427 43.3275 58.5703 43.5585 58.4791 43.7823C58.179 44.5292 57.7104 45.1967 57.1098 45.7326C56.5091 46.2685 55.7928 46.6584 55.0166 46.8718C54.7833 46.9387 54.5447 46.9859 54.3035 47.0129C54.2157 47.0251 54.1267 47.0251 54.0389 47.0129C54.0389 46.9877 54.4144 46.955 54.9889 46.7735C55.7411 46.5399 56.4344 46.1475 57.0218 45.6227C57.6091 45.098 58.0769 44.4531 58.3934 43.7319C58.6379 43.1976 58.716 42.8247 58.7362 42.8398Z" fill="#161B46"/>
<path d="M59.5072 50.0724C59.4993 50.1777 59.479 50.2817 59.4468 50.3823C59.4209 50.5026 59.3881 50.6212 59.3485 50.7376C59.3056 50.8762 59.2603 51.035 59.1922 51.2038C59.0433 51.6042 58.8673 51.9941 58.6656 52.3706C58.1659 53.2933 57.5181 54.1276 56.7478 54.8402C56.431 55.1298 56.0942 55.3968 55.7398 55.639C55.5055 55.8052 55.2605 55.9559 55.0065 56.0901C54.916 56.1458 54.8197 56.1915 54.7192 56.2262C54.7192 56.2035 55.1048 55.9918 55.6844 55.5634C56.0241 55.313 56.3481 55.042 56.6546 54.752C57.4058 54.0392 58.0447 53.2167 58.5496 52.3126C58.7546 51.9434 58.9372 51.5622 59.0965 51.1711C59.3762 50.5008 59.4846 50.0648 59.5072 50.0724Z" fill="#161B46"/>
<g opacity="0.3">
<path opacity="0.3" d="M59.3763 50.5412C58.779 51.4988 57.8643 52.5395 56.7353 52.8923C56.2515 53.0461 55.7424 53.0965 55.246 53.2099C54.7428 53.2963 54.2764 53.5295 53.9053 53.8802C53.7158 54.0399 53.5842 54.2576 53.5309 54.4997C53.4777 54.7418 53.5058 54.9947 53.6109 55.2192C53.7159 55.4436 53.8921 55.6272 54.1121 55.7414C54.3321 55.8556 54.5836 55.8941 54.8277 55.8508C55.2895 55.7943 55.7292 55.6208 56.1053 55.3468C57.7861 54.2557 58.8471 52.5421 59.3813 50.5361" fill="#2D3259"/>
</g>
<path d="M50.5008 32.8706C50.5316 32.9171 50.5585 32.9659 50.5814 33.0168C50.6318 33.115 50.6999 33.2688 50.7881 33.4527C50.9619 33.8332 51.2064 34.3876 51.4685 35.0907C51.7774 35.9112 52.0251 36.7536 52.2093 37.6107C52.4367 38.6657 52.5274 39.7456 52.479 40.8237C52.4331 41.9047 52.2003 42.9696 51.791 43.9712C51.4508 44.7873 50.9744 45.5397 50.3823 46.1964C49.9842 46.6365 49.5281 47.0206 49.0266 47.3379C48.8477 47.4488 48.704 47.5269 48.6057 47.5748C48.557 47.6027 48.5054 47.6255 48.452 47.6428C48.452 47.6428 48.6536 47.5294 48.9989 47.2951C49.484 46.9641 49.9259 46.5738 50.3143 46.1334C50.8874 45.4777 51.348 44.7318 51.6776 43.9258C52.0751 42.9372 52.3018 41.8883 52.348 40.8237C52.3964 39.7573 52.3117 38.689 52.0959 37.6435C51.9173 36.7881 51.6799 35.9461 51.3853 35.1235C51.1333 34.4204 50.9065 33.8635 50.7478 33.4754C50.6696 33.294 50.6091 33.1453 50.5613 33.0319C50.535 32.9806 50.5147 32.9265 50.5008 32.8706Z" fill="#F4F5FB"/>
<path d="M51.3727 32.7598C51.4074 32.81 51.4377 32.8631 51.4634 32.9185C51.5188 33.0244 51.5995 33.1705 51.7003 33.3872C51.8968 33.7955 52.174 34.3952 52.4714 35.1512C52.8205 36.0394 53.0961 36.9547 53.2954 37.888C53.5449 39.0343 53.6298 40.2104 53.5474 41.3807C53.4643 42.5545 53.1572 43.7016 52.6428 44.76C52.2145 45.6161 51.6309 46.3852 50.9216 47.028C50.4422 47.4614 49.9012 47.8214 49.3164 48.0965C49.1582 48.1707 48.9958 48.2355 48.83 48.2905C48.7737 48.3132 48.7155 48.3309 48.6561 48.3434C48.6561 48.3283 48.8905 48.2527 49.2962 48.0486C49.8651 47.7602 50.391 47.3938 50.8586 46.96C51.5502 46.3119 52.118 45.5434 52.5344 44.692C53.0352 43.645 53.3344 42.5131 53.4164 41.3555C53.4993 40.1977 53.4204 39.034 53.182 37.898C52.9888 36.9693 52.7243 36.0569 52.3908 35.1689C52.106 34.4129 51.8414 33.8081 51.6574 33.3923L51.4458 32.916C51.4155 32.8669 51.391 32.8145 51.3727 32.7598Z" fill="#F4F5FB"/>
<path d="M61.1226 39.6821C60.901 39.8531 60.6418 39.9688 60.3666 40.0198C60.1036 40.1138 59.8221 40.1441 59.5451 40.108C59.8011 40.0159 60.064 39.9443 60.3313 39.8938C60.5891 39.8026 60.8537 39.7318 61.1226 39.6821Z" fill="#F4F5FB"/>
<path d="M60.9084 40.1915C60.7093 40.3111 60.4897 40.3923 60.2607 40.4309C60.0429 40.51 59.812 40.5468 59.5803 40.5392C59.7803 40.4222 59.9997 40.342 60.228 40.3023C60.4459 40.2234 60.6766 40.1858 60.9084 40.1915Z" fill="#F4F5FB"/>
<path d="M51.4206 32.702C51.4206 32.702 52.9024 35.5269 56.6219 35.1086C58.7714 34.8566 57.4636 32.9868 57.4636 32.9868C57.4636 32.9868 55.4576 31.815 51.4206 32.702Z" fill="#936754"/>
<path d="M62.1331 60.0617L63.0655 77.4497C63.2122 78.8244 62.9608 80.2122 62.3411 81.448C61.7214 82.6838 60.7596 83.7154 59.5703 84.4201L40.4687 96.0977L37.1523 91.7281L54.6487 78.2184L52.8847 58.8647L62.1331 60.0617Z" fill="#161B46"/>
<path d="M46.3806 57.8818L45.9068 58.9201C44.8837 61.1704 44.6468 64.076 45.4381 66.1348C46.2294 68.1937 47.4894 69.877 49.5054 71.6788L58.716 80.1057C59.0784 80.4383 59.3519 80.8562 59.5116 81.3214C59.6714 81.7866 59.7123 82.2843 59.6307 82.7694L56.4883 101.974L62.564 102.816L67.7653 83.349C68.3373 80.9172 68.1433 79.5337 66.9211 77.3539L54.5303 59.1091L46.3806 57.8818Z" fill="#161B46"/>
<path d="M66.528 76.7591C66.4851 76.713 66.4463 76.6632 66.4121 76.6104L66.0996 76.1745L64.9731 74.5541L61.2939 69.1815L57.65 63.7862L56.5563 62.1431L56.264 61.692C56.2282 61.6412 56.197 61.5872 56.1708 61.5308C56.2144 61.5762 56.2533 61.626 56.2867 61.6794L56.5992 62.1154L57.7256 63.7358L61.4048 69.1084L65.0487 74.5012C65.5049 75.1866 65.8753 75.7461 66.1424 76.1442C66.2634 76.3332 66.3591 76.4819 66.4347 76.5953C66.4698 76.6476 66.5009 76.7023 66.528 76.7591Z" fill="#5C5F7E"/>
<path d="M58.6606 90.0797C58.6567 90.0277 58.6567 89.9754 58.6606 89.9234C58.6732 89.81 58.6908 89.6714 58.711 89.4724C58.7614 89.0692 58.8319 88.4996 58.9176 87.789C59.1066 86.3425 59.3687 84.3189 59.6736 81.9678V81.988C59.5526 81.4247 59.2927 80.9006 58.9176 80.4633C58.5188 79.9937 58.0877 79.5524 57.6274 79.1429C55.246 76.9253 53.0334 74.9823 51.4609 73.5409C50.6747 72.8202 50.0422 72.233 49.6112 71.8223L49.1072 71.346L48.9812 71.2175C48.951 71.1897 48.9384 71.1746 48.9409 71.1721C48.9434 71.1696 48.9586 71.1721 48.9888 71.2074L49.1249 71.3258L49.6289 71.7845L51.5088 73.4703C53.0939 74.8941 55.319 76.827 57.7004 79.0471C58.167 79.4605 58.6032 79.9068 59.0058 80.3827C59.3914 80.8376 59.6574 81.3816 59.7795 81.9653V81.9854C59.4544 84.3316 59.1772 86.3526 58.9781 87.7991C58.8748 88.5097 58.7941 89.0767 58.7261 89.4799C58.6958 89.6664 58.6732 89.8151 58.6555 89.926C58.6626 89.9769 58.6643 90.0284 58.6606 90.0797Z" fill="#5C5F7E"/>
<path d="M56.196 81.4087C56.0352 81.3242 55.8902 81.2125 55.7676 81.0785C55.1384 80.4575 54.7295 79.6478 54.6033 78.7728C54.5698 78.5937 54.5698 78.41 54.6033 78.231C54.6962 78.8294 54.8717 79.4121 55.125 79.9622C55.4145 80.4908 55.7748 80.9775 56.196 81.4087Z" fill="#5C5F7E"/>
<path d="M57.146 62.9595C57.1888 62.7431 57.2745 62.5375 57.398 62.3547C57.4844 62.1528 57.6094 61.9696 57.7659 61.8154C57.7233 62.0311 57.6376 62.236 57.5139 62.4177C57.4279 62.6207 57.3029 62.8047 57.146 62.9595Z" fill="#5C5F7E"/>
<path d="M49.896 19.2101C49.7754 18.3065 49.327 17.4787 48.636 16.8841C48.0791 16.4129 47.318 16.108 46.62 16.302C46.2963 16.4018 46.0083 16.5927 45.7902 16.8519C45.5721 17.1111 45.4333 17.4276 45.3902 17.7636C45.3563 18.1005 45.4077 18.4406 45.5398 18.7525C45.672 19.0643 45.8805 19.3378 46.1462 19.5477C46.4152 19.753 46.7255 19.8976 47.0556 19.9715C47.3858 20.0455 47.7281 20.047 48.0589 19.9761C48.6814 19.8451 49.2786 19.4721 49.9061 19.5805" fill="#161B46"/>
<path d="M40.2116 32.3064C40.5935 32.246 40.9678 32.1446 41.328 32.004C42.3063 31.6054 43.119 30.8843 43.6312 29.9603C43.8012 29.6585 43.9308 29.3357 44.0168 29.0002C44.1151 28.6524 44.1428 28.2719 44.2386 27.8838C44.2859 27.6842 44.3596 27.4918 44.4578 27.3118C44.5659 27.1251 44.7171 26.967 44.8988 26.8506C45.286 26.647 45.7026 26.505 46.1336 26.4298C46.3499 26.397 46.5576 26.3215 46.7445 26.2077C46.9314 26.0939 47.0938 25.9441 47.2222 25.767C47.4566 25.3865 47.4742 24.9026 47.5372 24.4289C47.5595 24.1829 47.6024 23.9393 47.6658 23.7006C47.7323 23.4513 47.8616 23.2231 48.0412 23.0378C48.4243 22.6649 48.956 22.5616 49.4247 22.4003C49.6601 22.3278 49.8816 22.2162 50.0799 22.0702C50.265 21.9194 50.3959 21.7123 50.4529 21.4805C50.5764 21.0143 50.5008 20.5078 50.6696 20.0264C50.7515 19.7865 50.9112 19.5808 51.1232 19.4418C51.3275 19.3144 51.5514 19.2216 51.786 19.1671C52.2345 19.0462 52.6906 18.9756 53.046 18.7211C53.3729 18.457 53.6213 18.1084 53.7642 17.7131C53.9229 17.33 54.0464 16.9394 54.2127 16.5791C54.294 16.4032 54.3901 16.2346 54.5 16.0751C54.6109 15.9204 54.7394 15.7792 54.883 15.6542C55.1568 15.4211 55.4773 15.2493 55.823 15.1502C56.1172 15.0623 56.4261 15.0343 56.7313 15.0681C57.0365 15.1019 57.3318 15.1966 57.5996 15.3468C58.001 15.5773 58.3294 15.9161 58.5471 16.3246C58.6816 16.5812 58.767 16.8607 58.7991 17.1486C58.8108 17.2482 58.8108 17.3489 58.7991 17.4485C58.7991 17.4485 58.7991 17.3452 58.7638 17.1511C58.7206 16.8695 58.6267 16.5979 58.4866 16.3498C58.2666 15.9561 57.9423 15.6309 57.5492 15.4098C57.289 15.2685 57.0031 15.1805 56.7084 15.1511C56.4137 15.1217 56.1161 15.1514 55.8331 15.2384C55.5034 15.3338 55.1977 15.4978 54.936 15.7198C54.7996 15.8395 54.6778 15.9748 54.5731 16.123C54.4665 16.2823 54.3745 16.451 54.2984 16.627C54.1371 16.9798 54.0187 17.383 53.8574 17.761C53.7101 18.18 53.4482 18.5493 53.1014 18.8269C52.7259 19.1066 52.2522 19.1772 51.8162 19.2982C51.5949 19.348 51.383 19.4331 51.1887 19.5502C50.9992 19.6746 50.8572 19.8592 50.7855 20.0743C50.6293 20.5103 50.7024 21.0168 50.5738 21.5158C50.5123 21.7746 50.3681 22.0064 50.1631 22.176C49.9537 22.3334 49.7183 22.4528 49.4676 22.5288C48.9862 22.6926 48.4747 22.7984 48.132 23.1361C47.7892 23.4738 47.7162 23.9803 47.6658 24.4465C47.6154 24.9127 47.5876 25.4192 47.3281 25.8376C47.201 26.0423 47.0207 26.2086 46.8064 26.3189C46.6021 26.4217 46.3864 26.5004 46.1638 26.5532C45.7451 26.6235 45.3397 26.7578 44.9618 26.9514C44.8003 27.0636 44.6625 27.2066 44.5566 27.3722C44.4506 27.5379 44.3785 27.7229 44.3444 27.9166C44.2486 28.292 44.2184 28.6726 44.1151 29.0304C44.0244 29.3731 43.8898 29.7026 43.7144 30.0107C43.4149 30.5405 43.0142 31.0063 42.535 31.3816C42.1762 31.6667 41.7749 31.8937 41.3456 32.0544C41.0767 32.1597 40.797 32.2349 40.5115 32.2787L40.2897 32.3014C40.2639 32.3059 40.2378 32.3076 40.2116 32.3064Z" fill="#5C5F7E"/>
<path d="M46.2395 19.4038C46.2395 19.4038 46.1664 19.3861 46.0731 19.2954C45.9424 19.1578 45.8616 18.9804 45.8438 18.7914C45.8322 18.6549 45.8486 18.5174 45.8919 18.3874C45.9353 18.2575 46.0046 18.1377 46.0958 18.0354C46.3226 17.7844 46.6269 17.6167 46.9602 17.5591C47.2848 17.5063 47.6158 17.5063 47.9405 17.5591C48.2042 17.5963 48.4634 17.6605 48.7141 17.7506C48.8824 17.8102 49.0458 17.8826 49.203 17.9674C49.3113 18.0304 49.3693 18.0707 49.3643 18.0782C49.3592 18.0858 49.1123 17.9674 48.6839 17.8262C48.437 17.7511 48.184 17.698 47.9279 17.6675C47.6156 17.6249 47.2986 17.63 46.9879 17.6826C46.682 17.7344 46.4014 17.8848 46.1891 18.111C46.1033 18.201 46.0368 18.3075 45.9934 18.4241C45.9501 18.5406 45.9309 18.6647 45.9371 18.7889C45.9477 18.9588 46.0082 19.1218 46.1109 19.2576C46.1865 19.3634 46.2445 19.4038 46.2395 19.4038Z" fill="#5C5F7E"/>
<path d="M47.6129 20.0843C47.5648 19.9525 47.5586 19.809 47.5952 19.6735C47.6503 19.3363 47.8251 19.0301 48.0875 18.8112C48.3499 18.5923 48.6824 18.4753 49.0241 18.4816C49.1636 18.4723 49.3028 18.5038 49.4247 18.5723C49.4247 18.595 49.2685 18.5572 49.0266 18.5723C48.7133 18.595 48.4143 18.7128 48.1698 18.91C47.932 19.1144 47.763 19.3872 47.6859 19.6912C47.628 19.928 47.628 20.0843 47.6129 20.0843Z" fill="#5C5F7E"/>
<path d="M49.5457 33.0801C46.4864 33.6194 44.2335 36.2628 44.2335 36.2628C44.1113 36.3789 43.9983 36.5045 43.8959 36.6383C40.8391 40.7636 35.3001 48.3689 35.096 49.6617C34.7457 51.8465 41.2398 63.2142 41.2398 63.2142L44.798 62.0601L41.27 50.6596L46.872 42.84L48.384 46.6427C54.18 43.4121 49.5457 33.0801 49.5457 33.0801Z" fill="#936754"/>
<path d="M47.3886 44.1853L50.972 43.2856C50.972 43.2856 50.5512 45.0849 49.3391 45.9669L48.2933 46.4306L47.3886 44.1853Z" fill="#161B46"/>
<path d="M41.328 63.4079L42.3914 66.8679L46.0303 64.7158L46.2495 63.7633C46.2978 63.5495 46.2862 63.3265 46.2159 63.1189C46.1457 62.9112 46.0195 62.727 45.8514 62.5864L44.546 61.5028L44.1983 61.1777C44.1983 61.1777 40.8164 61.9035 40.7459 61.9337C40.6753 61.964 41.328 63.4079 41.328 63.4079Z" fill="#936754"/>
<path d="M42.2528 66.6235C42.2528 66.6235 42.2327 66.5957 42.215 66.5504C42.0613 66.1774 41.6001 64.489 41.7866 64.358C41.9731 64.227 42.6056 64.1766 42.7089 64.3857C42.8123 64.5949 43.2129 66.5277 43.2129 66.5277C43.2129 66.5277 43.2608 66.8377 42.7795 67.0544C42.4922 67.1879 42.2528 66.6235 42.2528 66.6235Z" fill="#936754"/>
<path d="M43.4372 66.936C43.4372 66.936 43.4171 66.9083 43.3969 66.8654C43.2457 66.4899 42.7846 64.8015 42.9685 64.6705C43.1525 64.5395 43.7875 64.4891 43.8908 64.6982C43.9942 64.9074 44.4074 66.8402 44.4074 66.8402C44.4074 66.8402 44.4528 67.1502 43.974 67.3669C43.6766 67.503 43.4372 66.936 43.4372 66.936Z" fill="#936754"/>
<path d="M44.5108 66.9536C44.5108 66.9536 44.4906 66.9258 44.4705 66.8805C44.3193 66.5075 43.8581 64.8191 44.0421 64.6881C44.226 64.557 44.8636 64.5066 44.9669 64.7158C45.0702 64.925 45.4709 66.8578 45.4709 66.8578C45.4709 66.8578 45.5163 67.1677 45.0375 67.3845C44.7502 67.518 44.5108 66.9536 44.5108 66.9536Z" fill="#936754"/>
<path d="M45.5742 66.9536C45.5742 66.9536 45.554 66.9258 45.5364 66.8805C45.3827 66.5075 44.9215 64.8191 45.1055 64.6881C45.2894 64.557 45.927 64.5066 46.0303 64.7158C46.1336 64.925 46.5343 66.8578 46.5343 66.8578C46.5343 66.8578 46.5822 67.1677 46.1009 67.3845C45.8136 67.518 45.5742 66.9536 45.5742 66.9536Z" fill="#936754"/>
<path d="M42.8576 64.875C42.8755 65.161 42.9288 65.4438 43.0164 65.7167C43.0665 65.9941 43.1511 66.2642 43.2684 66.5206C43.2505 66.2345 43.1971 65.9518 43.1096 65.6789C43.0609 65.4011 42.9762 65.1309 42.8576 64.875Z" fill="#936754"/>
<path d="M43.848 64.5825C43.8949 64.9868 43.9793 65.3858 44.1 65.7745C44.181 66.1724 44.2982 66.5621 44.4502 66.9387C44.4001 66.535 44.3158 66.1362 44.1982 65.7468C44.1168 65.3489 43.9995 64.9593 43.848 64.5825Z" fill="#936754"/>
<g opacity="0.78">
<path opacity="0.78" d="M44.8787 64.376C44.9286 64.7797 45.0129 65.1785 45.1307 65.5679C45.2117 65.9659 45.3289 66.3556 45.4809 66.7322C45.434 66.3279 45.3496 65.9289 45.2289 65.5402C45.148 65.1423 45.0307 64.7526 44.8787 64.376Z" fill="#936754"/>
</g>
<path d="M46.368 65.9886C46.1863 65.6053 46.0477 65.203 45.9547 64.7891C45.7682 64.1163 45.5868 63.582 45.617 63.5669C45.8318 63.9363 45.9882 64.3366 46.0807 64.7538C46.2148 65.1555 46.311 65.5689 46.368 65.9886Z" fill="#936754"/>
<path d="M49.334 41.94C49.1863 41.9485 49.0382 41.9485 48.8905 41.94C48.5393 41.9496 48.1938 42.0317 47.8759 42.1814C47.558 42.331 47.2745 42.5448 47.0433 42.8094C46.9567 42.9297 46.8633 43.0449 46.7636 43.1546C46.7992 43.0056 46.8701 42.8674 46.9702 42.7514C47.194 42.4567 47.4857 42.2205 47.8205 42.0629C48.1553 41.9054 48.5233 41.8312 48.893 41.8467C49.0453 41.8425 49.1965 41.8744 49.334 41.94Z" fill="#936754"/>
<path d="M41.3128 50.7223C41.1968 50.6442 41.0849 50.5601 40.9777 50.4703C40.704 50.2748 40.3926 50.1384 40.0633 50.0698C39.734 50.0012 39.394 50.0021 39.065 50.0722C38.9302 50.1138 38.793 50.1475 38.6542 50.173C38.7659 50.0781 38.8992 50.0124 39.0423 49.9814C39.3832 49.8826 39.7431 49.8688 40.0906 49.9411C40.4379 50.0121 40.7619 50.1689 41.0331 50.3972C41.2398 50.5686 41.328 50.7148 41.3128 50.7223Z" fill="#936754"/>
<path d="M100.44 73.3091C100.44 73.3091 97.4559 84.5105 97.1459 92.8139C96.7906 102.287 100.341 113.533 100.341 113.533H84.3569V118.505H106.498C106.498 118.505 102.153 100.034 102.743 90.8735C103.136 85.1347 104.056 79.4442 105.49 73.8736L100.44 73.3091Z" fill="#161B46"/>
<path d="M98.7411 73.3091C98.7411 73.3091 95.7574 84.5105 95.4475 92.8139C95.0921 102.287 98.6428 113.533 98.6428 113.533H87.6329C86.9796 113.533 86.3325 113.661 85.7287 113.91C85.1249 114.16 84.5762 114.526 84.114 114.988C83.6518 115.45 83.2851 115.998 83.0349 116.601C82.7847 117.205 82.6559 117.852 82.6559 118.505H104.797C104.797 118.505 100.455 100.044 101.052 90.8735C101.445 85.1347 102.365 79.4442 103.799 73.8736L98.7411 73.3091Z" fill="#5C5F7E"/>
<path d="M67.8963 72.6136C67.8963 72.9184 68.0174 73.2107 68.2329 73.4262C68.4484 73.6417 68.7407 73.7627 69.0454 73.7627H80.834V71.3662L69.0353 71.4645C68.7323 71.4671 68.4426 71.5894 68.2293 71.8046C68.016 72.0198 67.8963 72.3106 67.8963 72.6136Z" fill="#5C5F7E"/>
<path d="M99.6256 118.495H14.5656C13.7308 118.495 12.9302 118.164 12.34 117.573C11.7497 116.983 11.4181 116.182 11.4181 115.348C11.4181 114.513 11.7497 113.712 12.34 113.122C12.9302 112.532 13.7308 112.2 14.5656 112.2H99.6256C100.46 112.2 101.261 112.532 101.851 113.122C102.442 113.712 102.773 114.513 102.773 115.348C102.773 116.182 102.442 116.983 101.851 117.573C101.261 118.164 100.46 118.495 99.6256 118.495Z" fill="#5C5F7E"/>
<path d="M86.6325 118.495H14.5656C13.7308 118.495 12.9302 118.164 12.34 117.573C11.7497 116.983 11.4181 116.182 11.4181 115.348C11.4181 114.513 11.7497 113.712 12.34 113.122C12.9302 112.532 13.7308 112.2 14.5656 112.2H86.6376C87.4723 112.2 88.2729 112.532 88.8632 113.122C89.4535 113.712 89.7851 114.513 89.7851 115.348C89.7851 115.761 89.7035 116.171 89.545 116.553C89.3865 116.936 89.1542 117.283 88.8614 117.575C88.5686 117.867 88.221 118.099 87.8386 118.257C87.4561 118.415 87.0463 118.496 86.6325 118.495Z" fill="#161B46"/>
<path d="M79.9142 73.3091C79.9142 73.3091 76.9305 84.5105 76.6206 92.8139C76.2653 102.287 79.8159 113.533 79.8159 113.533H63.8341V118.505H85.9748C85.9748 118.505 81.6278 100.034 82.22 90.8735C82.6119 85.1347 83.5305 79.4441 84.9643 73.8736L79.9142 73.3091Z" fill="#161B46"/>
<path d="M78.2157 73.3091C78.2157 73.3091 75.2321 84.5105 74.9221 92.8139C74.5668 102.287 78.12 113.533 78.12 113.533H67.1076C65.7889 113.533 64.5243 114.057 63.5919 114.99C62.6594 115.922 62.1356 117.187 62.1356 118.505H84.2763C84.2763 118.505 79.9293 100.034 80.5215 90.8735C80.9134 85.1347 81.8321 79.4441 83.2658 73.8736L78.2157 73.3091Z" fill="#5C5F7E"/>
<path d="M86.4637 118.581C86.4284 118.581 85.9597 117.069 85.433 115.199C84.9063 113.329 84.4956 111.789 84.5309 111.779C84.5661 111.769 85.0349 113.291 85.559 115.164C86.0832 117.036 86.499 118.571 86.4637 118.581Z" fill="#5C5F7E"/>
<path d="M102.773 114.977C102.773 115.015 99.8625 115.043 96.2715 115.043C92.6805 115.043 89.7699 115.015 89.7699 114.977C89.7699 114.939 92.6805 114.912 96.2639 114.912C99.8474 114.912 102.773 114.942 102.773 114.977Z" fill="#161B46"/>
<path d="M101.639 118.495C101.639 118.482 101.768 118.417 101.989 118.258C102.298 118.033 102.565 117.755 102.778 117.437C103.12 116.91 103.315 116.301 103.342 115.674C103.37 115.047 103.23 114.423 102.937 113.868C102.756 113.561 102.533 113.28 102.274 113.034C102.019 112.823 101.723 112.668 101.405 112.578C100.858 112.42 100.296 112.322 99.729 112.286C99.2426 112.248 98.847 112.235 98.5748 112.225C98.4324 112.227 98.2901 112.219 98.1489 112.2C98.2897 112.178 98.4324 112.17 98.5748 112.175C98.8495 112.175 99.2451 112.175 99.7365 112.193C100.314 112.216 100.886 112.307 101.443 112.462C101.778 112.555 102.091 112.717 102.36 112.938C102.629 113.192 102.862 113.482 103.05 113.8C103.238 114.122 103.365 114.474 103.426 114.841C103.475 115.182 103.484 115.527 103.451 115.869C103.398 116.452 103.193 117.011 102.856 117.49C102.63 117.81 102.347 118.085 102.02 118.301C101.901 118.372 101.808 118.425 101.742 118.455C101.677 118.485 101.642 118.5 101.639 118.495Z" fill="#161B46"/>
<path d="M79.2388 71.7973L78.4224 74.0703L83.2658 73.8738L103.796 74.4458L117.503 65.8324L116.88 63.5695L93.0106 62.438L79.2388 71.7973Z" fill="#5C5F7E"/>
<path d="M105.218 74.9245L83.2659 73.8737L94.9864 65.0083L117.503 65.8323L105.218 74.9245Z" fill="#161B46"/>
<path d="M80.262 71.1016C80.1497 71.2294 80.0228 71.3435 79.884 71.4418C79.5619 71.6939 79.2602 71.9712 78.9818 72.2708C78.7125 72.5709 78.4915 72.9109 78.3266 73.2788C78.2722 73.4408 78.2074 73.599 78.1326 73.7526C78.1358 73.5792 78.1726 73.408 78.2409 73.2486C78.3842 72.8528 78.6024 72.4883 78.8835 72.1751C79.1659 71.869 79.4821 71.5959 79.826 71.3611C79.9595 71.2561 80.106 71.1688 80.262 71.1016Z" fill="#161B46"/>
<path d="M94.9864 65.0157C94.6106 64.6232 94.266 64.2019 93.9557 63.7557C93.6124 63.3326 93.3023 62.8836 93.0283 62.4126C93.4055 62.8046 93.751 63.2259 94.0615 63.6726C94.4056 64.0946 94.7149 64.5437 94.9864 65.0157Z" fill="#161B46"/>
<path d="M83.9513 73.9717C83.6669 73.9922 83.3814 73.9922 83.097 73.9717L81.0357 73.9238C80.2318 73.9011 79.5035 73.8709 78.9743 73.8381C78.6894 73.8336 78.4054 73.8058 78.1251 73.7549C78.4094 73.7334 78.695 73.7334 78.9793 73.7549L81.0407 73.8028C81.8446 73.8255 82.5729 73.8557 83.1021 73.8885C83.387 73.892 83.6711 73.9199 83.9513 73.9717Z" fill="#161B46"/>
<path d="M102.178 30.4137C101.868 29.0478 100.571 27.8735 99.1746 28.0121C98.7628 28.0711 98.3672 28.2132 98.012 28.4298C97.6568 28.6465 97.3493 28.933 97.1082 29.2721C96.9286 29.4942 96.7668 29.7301 96.6244 29.9777C96.48 29.7307 96.3175 29.4949 96.138 29.2721C95.897 28.933 95.5895 28.6465 95.2343 28.4298C94.879 28.2132 94.4835 28.0711 94.0716 28.0121C92.6755 27.8735 91.3777 29.0478 91.0678 30.4137C90.7578 31.7795 91.2719 33.231 92.1161 34.3499C93.2292 35.9095 94.8721 37.0105 96.7378 37.447C98.3027 37.0866 100.286 35.4688 101.13 34.3499C101.974 33.231 102.488 31.782 102.178 30.4137Z" fill="#00ACE9"/>
<path d="M101.924 32.9491C101.864 32.9605 101.803 32.9656 101.742 32.9642L101.221 32.9768L99.3082 32.997L99.3535 32.9642C99.1847 33.5841 98.9881 34.3099 98.7714 35.1037L98.721 35.2876L98.658 35.1062C98.3153 34.131 97.9348 33.0373 97.5316 31.8856L97.1687 30.8348H97.2871L96.0271 32.9667L96.012 33.0121H95.9793L92.6125 32.9869L91.6575 32.9718H91.4055C91.3475 32.9718 91.3173 32.9718 91.3173 32.9718H91.4055H91.6575L92.6125 32.9566L95.9793 32.9314L95.9263 32.9617L97.1687 30.8222L97.2393 30.6987L97.2871 30.8323C97.4056 31.175 97.5265 31.5253 97.6525 31.8831C98.0507 33.0348 98.4262 34.131 98.7639 35.1087H98.6505C98.8747 34.3174 99.0814 33.5967 99.2553 32.9743V32.939H99.2931L101.206 32.9592H101.727C101.793 32.9514 101.858 32.9481 101.924 32.9491Z" fill="#161B46"/>
<path d="M92.7965 41.3556C92.7965 41.726 92.4664 41.9579 91.9649 41.9579C91.4634 41.9579 91.1409 41.726 91.1409 41.3556C91.1401 41.2578 91.1678 41.1619 91.2206 41.0795C91.2734 40.9972 91.349 40.932 91.4382 40.8919C91.3677 40.8512 91.3095 40.7923 91.2696 40.7214C91.2297 40.6505 91.2096 40.5701 91.2114 40.4887C91.2114 40.1435 91.5189 39.9268 91.9674 39.9268C92.416 39.9268 92.7235 40.1435 92.7235 40.4887C92.7248 40.5703 92.7042 40.6507 92.6639 40.7216C92.6235 40.7926 92.5649 40.8514 92.4941 40.8919C92.5843 40.9313 92.661 40.9961 92.7147 41.0785C92.7684 41.1609 92.7969 41.2572 92.7965 41.3556ZM92.3354 41.3405C92.3354 41.1666 92.1942 41.0608 91.9649 41.0608C91.7356 41.0608 91.602 41.1666 91.602 41.3405C91.602 41.5144 91.7406 41.6252 91.9649 41.6252C92.1892 41.6252 92.3354 41.5144 92.3354 41.3405ZM91.6625 40.5064C91.6625 40.655 91.781 40.7584 91.9649 40.7584C92.1489 40.7584 92.2749 40.6651 92.2749 40.5064C92.2749 40.3476 92.1514 40.2544 91.9649 40.2544C91.7784 40.2544 91.6625 40.3526 91.6625 40.5064Z" fill="#161B46"/>
<path d="M93.0032 40.9426C93.0032 40.2949 93.3635 39.9346 93.8449 39.9346C94.3262 39.9346 94.6865 40.3025 94.6865 40.9426C94.6865 41.5826 94.3312 41.9506 93.8449 41.9506C93.3585 41.9506 93.0032 41.5801 93.0032 40.9426ZM94.2304 40.9426C94.2304 40.4965 94.0717 40.3101 93.8449 40.3101C93.6181 40.3101 93.4643 40.4965 93.4643 40.9426C93.4643 41.3886 93.6206 41.5751 93.8449 41.5751C94.0691 41.5751 94.2304 41.3886 94.2304 40.9426Z" fill="#161B46"/>
<path d="M97.3073 41.187C97.3129 41.286 97.2979 41.3852 97.2632 41.4781C97.2285 41.571 97.1748 41.6557 97.1056 41.7268C97.0364 41.7979 96.9532 41.8538 96.8612 41.891C96.7693 41.9283 96.6706 41.946 96.5714 41.943C96.458 41.9475 96.3453 41.9216 96.2452 41.868C96.1451 41.8144 96.0611 41.735 96.0019 41.6381V41.9304H95.8104V39.8413H96.012V40.7284C96.0732 40.6359 96.1568 40.5606 96.2552 40.5094C96.3535 40.4583 96.4632 40.433 96.574 40.436C96.6725 40.4335 96.7704 40.4513 96.8617 40.4884C96.953 40.5254 97.0357 40.581 97.1045 40.6515C97.1734 40.722 97.2269 40.8059 97.2618 40.8981C97.2967 40.9902 97.3122 41.0886 97.3073 41.187ZM97.1082 41.187C97.1037 41.0788 97.0676 40.9743 97.0042 40.8866C96.9408 40.7988 96.853 40.7316 96.7517 40.6934C96.6504 40.6551 96.5401 40.6475 96.4345 40.6715C96.3289 40.6955 96.2327 40.75 96.1579 40.8283C96.0831 40.9065 96.0329 41.0051 96.0137 41.1116C95.9945 41.2182 96.007 41.328 96.0497 41.4275C96.0925 41.527 96.1635 41.6117 96.2541 41.6711C96.3446 41.7305 96.4506 41.762 96.5589 41.7616C96.6335 41.7627 96.7075 41.7485 96.7764 41.7197C96.8453 41.6909 96.9074 41.6482 96.959 41.5943C97.0106 41.5403 97.0504 41.4763 97.0761 41.4062C97.1018 41.3361 97.1127 41.2615 97.1082 41.187Z" fill="#161B46"/>
<path d="M99.2099 41.187C99.2155 41.2861 99.2005 41.3852 99.1658 41.4781C99.1311 41.5711 99.0774 41.6558 99.0082 41.7268C98.939 41.7979 98.8558 41.8539 98.7639 41.8911C98.6719 41.9283 98.5732 41.946 98.4741 41.943C98.3634 41.9468 98.2537 41.9221 98.1553 41.8714C98.0569 41.8206 97.9732 41.7455 97.9121 41.6532V42.4747H97.713V40.4587H97.9045V40.7511C97.9643 40.6547 98.0484 40.5757 98.1484 40.5222C98.2484 40.4687 98.3607 40.4424 98.4741 40.4461C98.5719 40.4433 98.6692 40.4606 98.7601 40.4969C98.851 40.5332 98.9335 40.5878 99.0025 40.6572C99.0714 40.7266 99.1254 40.8095 99.1611 40.9006C99.1968 40.9917 99.2134 41.0892 99.2099 41.187ZM99.0108 41.187C99.0064 41.079 98.9703 40.9746 98.907 40.8868C98.8437 40.7991 98.756 40.7319 98.6549 40.6936C98.5537 40.6553 98.4436 40.6476 98.338 40.6713C98.2325 40.6951 98.1363 40.7494 98.0614 40.8274C97.9865 40.9054 97.9361 41.0037 97.9166 41.1101C97.8971 41.2165 97.9092 41.3263 97.9516 41.4258C97.9939 41.5253 98.0646 41.6102 98.1548 41.6699C98.245 41.7296 98.3508 41.7615 98.4589 41.7616C98.5337 41.7627 98.6078 41.7485 98.6768 41.7197C98.7458 41.691 98.8081 41.6483 98.8599 41.5944C98.9117 41.5405 98.9518 41.4765 98.9778 41.4064C99.0037 41.3363 99.015 41.2617 99.0108 41.187Z" fill="#161B46"/>
<path d="M102.06 41.0763V41.9331H101.861V41.0964C101.861 40.7839 101.702 40.6252 101.435 40.6252C101.365 40.6202 101.295 40.6307 101.23 40.656C101.164 40.6814 101.105 40.7209 101.057 40.7718C101.009 40.8227 100.973 40.8836 100.951 40.9502C100.929 41.0168 100.922 41.0874 100.931 41.1569V41.9331H100.732V41.0964C100.732 40.7839 100.576 40.6252 100.306 40.6252C100.236 40.6206 100.166 40.6315 100.101 40.657C100.036 40.6825 99.9775 40.722 99.9294 40.7728C99.8812 40.8235 99.8449 40.8843 99.8229 40.9507C99.8009 41.017 99.7938 41.0875 99.8021 41.1569V41.9331H99.603V40.4563H99.7946V40.726C99.8509 40.6349 99.9307 40.5607 100.026 40.511C100.12 40.4613 100.227 40.4381 100.334 40.4437C100.443 40.4359 100.552 40.4616 100.646 40.5175C100.74 40.5733 100.815 40.6566 100.861 40.7562C100.92 40.6559 101.006 40.5738 101.109 40.5188C101.212 40.4637 101.329 40.4378 101.445 40.4437C101.53 40.4345 101.615 40.4447 101.695 40.4735C101.775 40.5023 101.848 40.5489 101.907 40.6099C101.966 40.6709 102.011 40.7446 102.037 40.8254C102.064 40.9062 102.072 40.992 102.06 41.0763Z" fill="#161B46"/>
<path d="M106.966 46.4461C107.296 46.4362 107.621 46.3618 107.922 46.2269C108.286 46.0575 108.6 45.7971 108.834 45.4709C108.985 45.2672 109.1 45.0398 109.176 44.798C109.259 44.5212 109.295 44.2324 109.282 43.9438C109.282 41.4742 109.282 37.9084 109.262 33.5009C109.262 31.2959 109.262 28.8792 109.262 26.2886C109.262 25.6418 109.262 24.9824 109.262 24.3104C109.262 23.9778 109.262 23.6351 109.262 23.3024C109.24 22.7874 109.043 22.2954 108.703 21.9074C108.364 21.5194 107.902 21.2586 107.395 21.168C107.043 21.1253 106.688 21.1118 106.334 21.1277H105.248H86.2823C85.8739 21.1293 85.4734 21.2399 85.1221 21.4481C84.7707 21.6563 84.4814 21.9546 84.2839 22.3121C84.0905 22.6682 83.9932 23.0686 84.0017 23.4738V29.5445C84.0017 32.7172 84.0017 35.779 84.0017 38.6946C84.0017 40.1512 84.0017 41.5708 84.0017 42.9534V43.9816C83.991 44.3131 84.0485 44.6433 84.1705 44.9518C84.2918 45.2507 84.4752 45.5205 84.7085 45.7433C84.9417 45.9662 85.2196 46.137 85.5238 46.2445C85.8225 46.3475 86.1379 46.3937 86.4537 46.3806H89.2332H92.6932L103.136 46.4008H105.976H106.714H106.966H106.714H105.976H103.136L92.6932 46.4234H86.436C86.1076 46.4385 85.7793 46.3915 85.4683 46.2848C85.1494 46.1715 84.858 45.9922 84.6131 45.7586C84.3682 45.5249 84.1753 45.2423 84.0471 44.9291C83.9208 44.6084 83.8608 44.2655 83.8707 43.9211V42.966C83.8707 41.585 83.8707 40.1654 83.8707 38.7072C83.8707 35.7916 83.8707 32.7298 83.8707 29.5571V23.4864C83.8627 23.0594 83.9651 22.6375 84.168 22.2617C84.3763 21.8824 84.6821 21.5656 85.0538 21.3441C85.4255 21.1226 85.8496 21.0044 86.2823 21.0017H105.248H106.344C106.705 20.9867 107.067 21.0019 107.425 21.047C107.957 21.1482 108.439 21.4269 108.792 21.8375C109.145 22.2482 109.348 22.7664 109.368 23.3075C109.368 23.6502 109.368 23.9854 109.368 24.3155C109.368 24.9858 109.368 25.646 109.368 26.2937C109.368 28.8842 109.368 31.3009 109.368 33.5059C109.368 37.9134 109.353 41.4792 109.348 43.9488C109.357 44.2422 109.318 44.535 109.232 44.8157C109.153 45.0619 109.033 45.2929 108.877 45.4986C108.636 45.827 108.315 46.0875 107.944 46.2546C107.717 46.3526 107.477 46.4155 107.231 46.4411C107.05 46.4486 106.966 46.4461 106.966 46.4461Z" fill="#161B46"/>
<path d="M96.6421 48.2478C96.5547 47.8323 96.5547 47.4033 96.6421 46.9878C96.7294 47.4033 96.7294 47.8323 96.6421 48.2478Z" fill="#161B46"/>
<path d="M96.6395 50.7678C96.5756 50.5643 96.5533 50.3501 96.574 50.1378C96.5519 49.9254 96.5751 49.7106 96.642 49.5078C96.7057 49.7113 96.7271 49.9257 96.705 50.1378C96.7256 50.3501 96.7033 50.5643 96.6395 50.7678Z" fill="#161B46"/>
<path d="M96.6345 53.2878C96.5722 53.084 96.5508 52.8699 96.5715 52.6578C96.5508 52.4456 96.5731 52.2313 96.637 52.0278C96.7022 52.231 96.7245 52.4456 96.7025 52.6578C96.7246 52.8703 96.7014 53.085 96.6345 53.2878Z" fill="#161B46"/>
<path d="M96.6294 55.8078C96.5672 55.604 96.5458 55.39 96.5664 55.1779C96.5458 54.9656 96.568 54.7513 96.6319 54.5479C96.6972 54.751 96.7195 54.9656 96.6974 55.1779C96.7195 55.3903 96.6963 55.605 96.6294 55.8078Z" fill="#161B46"/>
<path d="M96.6269 58.3254C96.5617 58.1222 96.5393 57.9077 96.5614 57.6954C96.5393 57.483 96.5625 57.2683 96.6295 57.0654C96.6917 57.2692 96.7131 57.4833 96.6925 57.6954C96.7131 57.9077 96.6908 58.122 96.6269 58.3254Z" fill="#161B46"/>
<path d="M96.6244 60.8454C96.5591 60.6423 96.5368 60.4277 96.5588 60.2154C96.5382 60.0032 96.5605 59.7889 96.6244 59.5854C96.7117 60.0009 96.7117 60.43 96.6244 60.8454Z" fill="#161B46"/>
<path d="M96.6244 62.4381C96.5866 62.4381 96.5563 62.3625 96.5563 62.2718C96.5563 62.1811 96.5866 62.1055 96.6244 62.1055C96.6622 62.1055 96.6899 62.1786 96.6899 62.2718C96.6899 62.365 96.6597 62.4381 96.6244 62.4381Z" fill="#161B46"/>
<path d="M73.3976 43.0063C73.4849 43.4218 73.4849 43.8509 73.3976 44.2663C73.3102 43.8509 73.3102 43.4218 73.3976 43.0063Z" fill="#161B46"/>
<path d="M73.3976 40.4863C73.4849 40.9018 73.4849 41.3309 73.3976 41.7463C73.3102 41.3309 73.3102 40.9018 73.3976 40.4863Z" fill="#161B46"/>
<path d="M73.3976 37.9663C73.4849 38.3818 73.4849 38.8108 73.3976 39.2263C73.3102 38.8108 73.3102 38.3818 73.3976 37.9663Z" fill="#161B46"/>
<path d="M73.3976 35.4463C73.4849 35.8617 73.4849 36.2908 73.3976 36.7063C73.3102 36.2908 73.3102 35.8617 73.3976 35.4463Z" fill="#161B46"/>
<path d="M74.7331 34.2721C74.3177 34.3594 73.8886 34.3594 73.4731 34.2721C73.8886 34.1847 74.3177 34.1847 74.7331 34.2721Z" fill="#161B46"/>
<path d="M77.2532 34.2721C76.8377 34.3594 76.4086 34.3594 75.9932 34.2721C76.4086 34.1847 76.8377 34.1847 77.2532 34.2721Z" fill="#161B46"/>
<path d="M79.7732 34.2721C79.3577 34.3594 78.9286 34.3594 78.5132 34.2721C78.9286 34.1847 79.3577 34.1847 79.7732 34.2721Z" fill="#161B46"/>
<path d="M82.2932 34.2721C81.8777 34.3594 81.4487 34.3594 81.0332 34.2721C81.4487 34.1847 81.8777 34.1847 82.2932 34.2721Z" fill="#161B46"/>
<path d="M83.9362 34.2721C83.9362 34.3099 83.8505 34.3376 83.7447 34.3376C83.6388 34.3376 83.5532 34.3099 83.5532 34.2721C83.5532 34.2343 83.6388 34.2065 83.7447 34.2065C83.8505 34.2065 83.9362 34.2267 83.9362 34.2721Z" fill="#161B46"/>
</svg>
