<svg width="204" height="204" viewBox="0 0 204 204" fill="none" xmlns="http://www.w3.org/2000/svg">
<path d="M178.729 50.9306C171.601 39.3312 159.716 31.3466 146.223 29.5188C140.97 28.7988 135.633 28.9824 130.442 30.0614C114.983 33.3254 101.531 44.8759 95.9535 59.6618C92.6895 68.3563 91.7592 78.3686 85.5331 85.272C77.4343 94.248 63.6847 94.5377 51.5957 94.1664C39.5067 93.7951 25.7448 94.1093 17.6868 103.142C12.648 108.777 11.016 116.81 11.424 124.375C12.5011 144.399 26.6343 162.319 44.6067 171.205C62.5791 180.091 83.7379 180.903 103.408 176.99C130.968 171.503 157.182 156.444 172.931 133.175C187.937 111.013 192.266 81.192 181.74 56.712C180.878 54.714 179.872 52.7817 178.729 50.9306Z" fill="#F4F5FB"/>
<path d="M191.858 185.493C191.858 185.55 151.625 185.599 102.004 185.599C52.3831 185.599 12.1421 185.55 12.1421 185.493C12.1421 185.436 52.3668 185.383 102.004 185.383C151.641 185.383 191.858 185.432 191.858 185.493Z" fill="#161B46"/>
<path d="M58.2216 116.818C58.259 116.739 58.2877 116.655 58.3073 116.57L58.5031 115.843C58.6663 115.211 58.8825 114.289 59.1355 113.151C59.6414 110.866 60.2412 107.696 60.8573 104.175C61.4733 100.654 62.0445 97.4915 62.4892 95.1986C62.7136 94.0847 62.8972 93.1586 63.04 92.4895C63.0972 92.1957 63.1461 91.9509 63.1869 91.751C63.2079 91.6655 63.2189 91.5779 63.2196 91.4899C63.2196 91.4899 63.1788 91.5715 63.1339 91.7387L62.938 92.465C62.7708 93.0974 62.5545 94.0154 62.3016 95.1578C61.7956 97.4385 61.1959 100.613 60.5798 104.134C59.9637 107.655 59.3966 110.821 58.9478 113.11C58.7193 114.22 58.5398 115.15 58.397 115.815C58.3358 116.113 58.2909 116.357 58.2501 116.553C58.2304 116.64 58.2208 116.729 58.2216 116.818Z" fill="#161B46"/>
<path d="M121.755 185.44L67.1364 185.187C60.5676 185.159 55.2677 179.663 55.3044 172.91L55.896 32.2076C55.9245 25.4552 61.2734 20.0002 67.8463 20.0329L122.465 20.2858C129.034 20.3144 134.334 25.8101 134.297 32.5625L133.702 173.265C133.677 180.018 128.328 185.473 121.755 185.44Z" fill="#161B46"/>
<path d="M129.968 148.565C129.968 148.803 129.898 149.036 129.765 149.234C129.633 149.432 129.445 149.586 129.224 149.677C129.004 149.768 128.762 149.792 128.528 149.745C128.295 149.698 128.08 149.583 127.912 149.415C127.744 149.246 127.63 149.031 127.584 148.797C127.538 148.564 127.562 148.321 127.654 148.102C127.746 147.882 127.901 147.694 128.099 147.562C128.298 147.431 128.531 147.361 128.769 147.361C129.087 147.363 129.392 147.49 129.617 147.715C129.842 147.941 129.968 148.247 129.968 148.565Z" fill="#ABB4EC"/>
<path d="M128.769 151.205C128.627 150.331 128.627 149.439 128.769 148.565C128.91 149.439 128.91 150.331 128.769 151.205Z" fill="#ABB4EC"/>
<path d="M123.555 24.9289L112.632 24.8881C112.276 24.8945 111.925 24.971 111.598 25.1132C111.271 25.2555 110.976 25.4608 110.728 25.7173C110.481 25.9738 110.286 26.2765 110.156 26.6082C110.025 26.9398 109.962 27.2939 109.968 27.6502V29.629C109.979 30.3473 109.705 31.0405 109.205 31.5568C108.706 32.073 108.022 32.3702 107.304 32.383L86.0104 32.2851C85.2911 32.2648 84.6092 31.9601 84.1144 31.4376C83.6195 30.9152 83.352 30.2178 83.3707 29.4985V27.5197C83.3805 27.1634 83.3199 26.8086 83.1925 26.4757C83.0651 26.1427 82.8734 25.8382 82.6282 25.5794C82.3831 25.3206 82.0893 25.1126 81.7638 24.9674C81.4382 24.8222 81.0873 24.7426 80.7309 24.733H76.8876L67.32 24.6718C66.1902 24.6665 65.0705 24.884 64.0249 25.3118C62.9793 25.7397 62.0283 26.3696 61.2264 27.1654C60.4245 27.9612 59.7875 28.9074 59.3517 29.9497C58.9159 30.9921 58.6899 32.1101 58.6867 33.2398L58.1032 171.099C58.0979 172.229 58.3154 173.348 58.7432 174.394C59.1711 175.44 59.801 176.391 60.5968 177.192C61.3926 177.994 62.3388 178.631 63.3811 179.067C64.4234 179.503 65.5415 179.729 66.6712 179.732L122.898 179.993C124.027 179.998 125.147 179.78 126.192 179.352C127.238 178.924 128.188 178.294 128.99 177.499C129.792 176.703 130.429 175.757 130.865 174.715C131.301 173.673 131.527 172.555 131.531 171.425L132.11 33.5622C132.119 31.2832 131.223 29.094 129.619 27.4753C128.015 25.8566 125.834 24.9408 123.555 24.9289Z" fill="#F4F5FB"/>
<path d="M61.8446 133.718C62.3261 133.359 85.8391 123 85.8391 123L58.3726 109.299L58.2787 131.376L61.8446 133.718Z" fill="#E6E8F3"/>
<path d="M63.2808 108.875L83.3177 98.6911L61.7875 86.7531L58.4664 87.5854L58.3848 106.9L63.2808 108.875Z" fill="#00ACE9"/>
<path opacity="0.7" d="M63.2808 108.875L83.3177 98.6911L61.7875 86.7531L58.4664 87.5854L58.3848 106.9L63.2808 108.875Z" fill="white"/>
<path d="M59.1885 85.3658L120.947 56.5202L59.7597 36.5242L59.1885 85.3658Z" fill="#E6E8F3"/>
<path d="M58.4704 160.487L86.6918 146.003L128.704 170.72L118.695 179.496H82.8444L58.4704 164.6V160.487Z" fill="#E6E8F3"/>
<path d="M92.2488 144.436L127.149 165.13L131.041 164.689V144.791L111.914 134.669L92.2488 144.436Z" fill="#E6E8F3"/>
<path d="M97.9853 124.677L130.89 143.188V118.989L118.985 113.889L97.9853 124.677Z" fill="#E6E8F3"/>
<path d="M62.8401 134.877L82.1426 145.468L105.57 133.334L86.957 123.869L62.8401 134.877Z" fill="#E6E8F3"/>
<path d="M91.8163 98.5566L119.16 112.106L131.841 105.631L131.923 96.5492L113.453 87.5854L91.8163 98.5566Z" fill="#E6E8F3"/>
<path d="M63.852 110.376L91.1962 123.926L103.877 117.451L103.958 108.369L85.4842 99.4052L63.852 110.376Z" fill="#E6E8F3"/>
<path d="M67.6382 86.0228L89.9232 97.1816L110.707 86.0228L89.1725 76.1981L67.6382 86.0228Z" fill="#E6E8F3"/>
<path d="M110.707 157.333C110.565 157.276 110.429 157.208 110.299 157.129L109.148 156.48L104.721 153.922L88.3361 144.314L87.9975 144.114L88.3483 143.934L109.846 133.008V133.506L93.7951 124.938L93.2892 124.669L93.7992 124.399L116.092 112.698V113.265L113.432 111.919L63.493 86.5817L63.0238 86.3451L63.5011 86.1166L90.0211 73.4686L97.3651 70.0047L99.2991 69.1153L99.8009 68.8949C99.8571 68.8685 99.9159 68.848 99.9763 68.8337C99.9282 68.8737 99.8746 68.9067 99.8172 68.9317L99.3358 69.1846L97.4223 70.1761L90.1272 73.7705L63.7255 86.6103V86.1289L113.718 111.355L116.378 112.702L116.929 112.983L116.382 113.269L94.0726 124.946V124.407L110.103 133.008L110.576 133.261L110.099 133.502L88.536 144.322V143.942L104.823 153.734L109.189 156.391L110.311 157.092C110.451 157.159 110.583 157.24 110.707 157.333Z" fill="#00ACE9"/>
<path d="M105.913 55.7492C105.913 51.6692 101.637 49.0988 97.2754 51.1388C96.2902 51.5999 95.4843 52.3728 94.9824 53.3379C93.8849 55.4636 94.3704 57.8912 95.3619 59.9067L98.7564 68.5074C98.8626 68.7826 99.0496 69.0192 99.2929 69.186C99.5361 69.3529 99.8242 69.4422 100.119 69.4422C100.414 69.4422 100.702 69.3529 100.945 69.186C101.189 69.0192 101.376 68.7826 101.482 68.5074L104.807 59.8619C105.962 57.218 105.913 55.7492 105.913 55.7492ZM101.833 59.2907C98.8992 60.9961 95.929 57.8463 97.5365 54.7374C97.7474 54.3272 98.0698 53.9849 98.4667 53.75C101.4 52.0446 104.371 55.1943 102.763 58.3033C102.548 58.7157 102.219 59.0582 101.816 59.2907H101.833Z" fill="#00ACE9"/>
<path d="M99.401 100.278L99.3031 95.472L111.833 101.539V106.533L99.401 100.278Z" fill="#F4F5FB"/>
<path d="M111.833 101.539L127.394 93.8075V99.189L111.833 106.533V101.539Z" fill="#E6E8F3"/>
<path d="M99.3031 95.472L114.575 87.8342L127.394 93.8073L111.833 101.539L99.3031 95.472Z" fill="#FAFAFF"/>
<path d="M100.939 97.5488V99.8784L102.163 100.429V98.2016L100.939 97.5488Z" fill="#E6E8F3"/>
<path d="M102.898 98.4097V100.743L104.126 101.294V99.0665L102.898 98.4097Z" fill="#E6E8F3"/>
<path d="M59.9801 69.9517V63.697L74.8109 70.8819V76.7897L59.9801 69.9517Z" fill="#F4F5FB"/>
<path d="M74.8109 70.882L93.2362 61.7264V68.0994L74.8109 76.7898V70.882Z" fill="#E6E8F3"/>
<path d="M59.9801 63.697L78.0545 54.6598L93.2362 61.7263L74.8109 70.8819L59.9801 63.697Z" fill="#FAFAFF"/>
<path d="M61.9181 66.1532V68.9154L63.3665 69.5682V66.9284L61.9181 66.1532Z" fill="#E6E8F3"/>
<path d="M64.2355 67.1772V69.9353L65.688 70.5922V67.9524L64.2355 67.1772Z" fill="#E6E8F3"/>
<path d="M104.689 122.233V127.161L109.993 129.769V124.677L104.689 122.233Z" fill="#F4F5FB"/>
<path d="M116.725 121.449L109.972 124.677V129.769L116.725 125.999V121.449Z" fill="#E6E8F3"/>
<path d="M104.689 122.233L111.38 118.989L116.725 121.449L109.972 124.677L104.689 122.233Z" fill="#FAFAFF"/>
<path d="M106.565 125.77V128.1L107.789 128.655V126.427L106.565 125.77Z" fill="#E6E8F3"/>
<path d="M61.9915 119.683V124.611L67.2751 127.219V122.127L61.9915 119.683Z" fill="#F4F5FB"/>
<path d="M74.0316 118.899L67.2751 122.127V127.219L74.0316 123.449V118.899Z" fill="#E6E8F3"/>
<path d="M61.9915 119.683L68.6868 116.439L74.0316 118.899L67.2751 122.127L61.9915 119.683Z" fill="#FAFAFF"/>
<path d="M63.8683 123.22V125.55L65.0923 126.105V123.877L63.8683 123.22Z" fill="#E6E8F3"/>
<path d="M83.9052 87.1489V92.0816L89.1888 94.6888V89.5969L83.9052 87.1489Z" fill="#F4F5FB"/>
<path d="M95.9453 86.3696L89.1888 89.5969V94.6888L95.9453 90.9188V86.3696Z" fill="#E6E8F3"/>
<path d="M83.9052 87.1489L90.6005 83.9094L95.9453 86.3697L89.1888 89.5969L83.9052 87.1489Z" fill="#FAFAFF"/>
<path d="M85.782 90.6903V93.02L87.006 93.5749V91.3431L85.782 90.6903Z" fill="#ABB4EC"/>
<path d="M78.03 129.389V134.322L83.3136 136.925V131.837L78.03 129.389Z" fill="#F4F5FB"/>
<path d="M90.0701 128.606L83.3177 131.837V136.925L90.0701 133.159V128.606Z" fill="#E6E8F3"/>
<path d="M78.03 129.389L84.7253 126.15L90.0701 128.606L83.3177 131.837L78.03 129.389Z" fill="#FAFAFF"/>
<path d="M79.9068 132.926V135.26L81.1308 135.811V133.583L79.9068 132.926Z" fill="#E6E8F3"/>
<path d="M99.8499 141.299V147.48L110.976 154.036V147.655L99.8499 141.299Z" fill="#F4F5FB"/>
<path d="M119.458 143.094L110.988 147.655V154.036L119.458 149.312V143.094Z" fill="#ABB4EC"/>
<path d="M99.8499 141.295L108.246 137.231L119.458 143.094L110.988 147.655L99.8499 141.295Z" fill="#E6E8F3"/>
<path d="M104.056 147.015V149.936L105.594 150.858V147.969L104.056 147.015Z" fill="#E6E8F3"/>
<path d="M73.0564 154.02V160.201L84.1948 166.762V160.377L73.0564 154.02Z" fill="#F4F5FB"/>
<path d="M97.4875 153.176L84.1949 160.377V166.762L97.5243 159.373L97.4875 153.176Z" fill="#E6E8F3"/>
<path d="M73.0564 154.02L87.1161 147.211L97.5242 153.2L84.1948 160.377L73.0564 154.02Z" fill="#FAFAFF"/>
<path d="M77.2629 159.736V162.662L78.797 163.584V160.691L77.2629 159.736Z" fill="#E6E8F3"/>
<path d="M115.219 130.907V155.595L122.172 159.189V134.191L115.219 130.907Z" fill="#FAFAFF"/>
<path d="M120.356 128.54L115.219 130.907L122.172 134.191L126.847 131.556L120.356 128.54Z" fill="#E6E8F3"/>
<path d="M122.171 134.191V159.189L126.402 156.913L126.847 131.556L122.171 134.191Z" fill="#ABB4EC"/>
<path d="M85.8391 110.911V135.599L92.7914 139.193V114.195L85.8391 110.911Z" fill="#F4F5FB"/>
<path d="M90.9718 108.54L85.8391 110.911L92.7914 114.195L97.4671 111.559L90.9718 108.54Z" fill="#E6E8F3"/>
<path d="M92.7914 114.195V139.193L97.0183 137.108L97.4671 111.56L92.7914 114.195Z" fill="#E6E8F3"/>
<path d="M88.993 157.859V164.041L100.135 170.601V164.22L88.993 157.859Z" fill="#F4F5FB"/>
<path d="M108.601 159.659L100.135 164.22V170.601L108.601 165.877V159.659Z" fill="#E6E8F3"/>
<path d="M88.993 157.859L97.4875 153.176L108.601 159.659L100.135 164.22L88.993 157.859Z" fill="#FAFAFF"/>
<path d="M93.1994 163.575V166.501L94.7376 167.423V164.53L93.1994 163.575Z" fill="#E6E8F3"/>
<path d="M113.767 84.1623L93.481 75.019L121.731 60.6411L131.001 74.4641L113.767 84.1623Z" fill="#E6E8F3"/>
<path d="M131.825 92.5589L131.964 76.7285L116.235 85.68L131.825 92.5589Z" fill="#00ACE9"/>
<path d="M119.874 108.414C119.87 108.651 119.796 108.882 119.662 109.077C119.527 109.272 119.338 109.423 119.118 109.511C118.897 109.599 118.656 109.62 118.424 109.571C118.192 109.523 117.979 109.406 117.813 109.237C117.647 109.068 117.534 108.854 117.489 108.621C117.444 108.388 117.469 108.147 117.561 107.928C117.653 107.709 117.807 107.523 118.004 107.391C118.202 107.26 118.434 107.19 118.671 107.19C118.992 107.195 119.298 107.326 119.523 107.555C119.748 107.784 119.875 108.093 119.874 108.414Z" fill="#ABB4EC"/>
<path d="M118.671 111.054C118.529 110.179 118.529 109.288 118.671 108.414C118.812 109.288 118.812 110.179 118.671 111.054Z" fill="#ABB4EC"/>
<path d="M87.0427 105.464C87.0427 105.706 86.9709 105.943 86.8364 106.144C86.7019 106.345 86.5108 106.502 86.2871 106.595C86.0635 106.687 85.8174 106.712 85.5799 106.665C85.3425 106.617 85.1244 106.501 84.9532 106.33C84.782 106.158 84.6655 105.94 84.6182 105.703C84.571 105.465 84.5953 105.219 84.6879 104.996C84.7805 104.772 84.9374 104.581 85.1387 104.446C85.34 104.312 85.5766 104.24 85.8187 104.24C85.9802 104.237 86.1406 104.267 86.2904 104.328C86.4401 104.388 86.5761 104.478 86.6904 104.592C86.8046 104.707 86.8946 104.843 86.9552 104.992C87.0157 105.142 87.0455 105.303 87.0427 105.464Z" fill="#ABB4EC"/>
<path d="M85.8391 108.12C85.6977 107.246 85.6977 106.355 85.8391 105.48C85.9805 106.355 85.9805 107.246 85.8391 108.12Z" fill="#ABB4EC"/>
<path d="M70.9594 122.265C70.9594 122.503 70.8888 122.736 70.7565 122.934C70.6243 123.132 70.4363 123.286 70.2164 123.377C69.9964 123.469 69.7544 123.492 69.5209 123.446C69.2875 123.399 69.073 123.285 68.9047 123.117C68.7364 122.948 68.6217 122.734 68.5753 122.5C68.5288 122.267 68.5527 122.025 68.6438 121.805C68.7349 121.585 68.8891 121.397 69.0871 121.265C69.285 121.132 69.5177 121.062 69.7558 121.062C70.075 121.062 70.3811 121.189 70.6068 121.414C70.8325 121.64 70.9594 121.946 70.9594 122.265Z" fill="#ABB4EC"/>
<path d="M69.768 124.905C69.6266 124.031 69.6266 123.14 69.768 122.265C69.9094 123.14 69.9094 124.031 69.768 124.905Z" fill="#ABB4EC"/>
<path d="M72.163 109.299C72.1629 109.536 72.0928 109.768 71.9614 109.966C71.8301 110.163 71.6433 110.317 71.4245 110.409C71.2058 110.501 70.9649 110.526 70.732 110.481C70.4991 110.436 70.2846 110.323 70.1155 110.157C69.9464 109.991 69.8302 109.778 69.7814 109.546C69.7327 109.314 69.7537 109.073 69.8416 108.853C69.9296 108.632 70.0807 108.443 70.2759 108.308C70.4712 108.174 70.7018 108.1 70.939 108.096C71.0987 108.093 71.2574 108.122 71.4058 108.181C71.5542 108.241 71.6893 108.329 71.8032 108.441C71.9172 108.553 72.0077 108.686 72.0694 108.834C72.1312 108.981 72.163 109.139 72.163 109.299Z" fill="#ABB4EC"/>
<path d="M70.9594 111.939C70.818 111.065 70.818 110.173 70.9594 109.299C71.1008 110.173 71.1008 111.065 70.9594 111.939Z" fill="#ABB4EC"/>
<path d="M101.865 108.12C101.87 108.364 101.802 108.604 101.67 108.809C101.537 109.014 101.347 109.174 101.122 109.27C100.898 109.366 100.65 109.392 100.41 109.346C100.171 109.3 99.9503 109.184 99.7775 109.011C99.6047 108.839 99.4873 108.619 99.4404 108.38C99.3935 108.14 99.4192 107.892 99.5142 107.668C99.6092 107.443 99.7693 107.252 99.9737 107.119C100.178 106.986 100.418 106.917 100.662 106.921C100.98 106.921 101.286 107.047 101.511 107.272C101.737 107.497 101.864 107.802 101.865 108.12Z" fill="#ABB4EC"/>
<path d="M100.662 110.748C100.52 109.873 100.52 108.982 100.662 108.108C100.803 108.982 100.803 109.873 100.662 110.748Z" fill="#ABB4EC"/>
<path d="M120.874 117.125C120.874 117.363 120.803 117.595 120.671 117.793C120.539 117.991 120.351 118.146 120.131 118.237C119.911 118.328 119.669 118.352 119.436 118.305C119.202 118.259 118.988 118.144 118.819 117.976C118.651 117.807 118.536 117.593 118.49 117.359C118.444 117.126 118.467 116.884 118.559 116.664C118.65 116.444 118.804 116.256 119.002 116.124C119.2 115.992 119.432 115.921 119.67 115.921C119.99 115.921 120.296 116.048 120.522 116.274C120.747 116.499 120.874 116.805 120.874 117.125Z" fill="#ABB4EC"/>
<path d="M119.67 119.764C119.529 118.89 119.529 117.999 119.67 117.125C119.812 117.999 119.812 118.89 119.67 119.764Z" fill="#ABB4EC"/>
<path d="M121.641 124.203C121.641 124.441 121.571 124.674 121.438 124.872C121.306 125.07 121.118 125.224 120.898 125.315C120.678 125.407 120.436 125.43 120.203 125.384C119.969 125.337 119.755 125.223 119.586 125.054C119.418 124.886 119.304 124.672 119.257 124.438C119.211 124.205 119.234 123.963 119.326 123.743C119.417 123.523 119.571 123.335 119.769 123.203C119.967 123.07 120.199 123 120.438 123C120.757 123 121.063 123.127 121.289 123.352C121.514 123.578 121.641 123.884 121.641 124.203Z" fill="#ABB4EC"/>
<path d="M120.438 126.843C120.296 125.969 120.296 125.078 120.438 124.203C120.579 125.078 120.579 125.969 120.438 126.843Z" fill="#ABB4EC"/>
<path d="M87.8954 138.891C87.8954 139.129 87.8253 139.36 87.6939 139.558C87.5625 139.755 87.3757 139.91 87.157 140.001C86.9383 140.093 86.6973 140.118 86.4644 140.073C86.2315 140.028 86.017 139.916 85.8479 139.749C85.6788 139.583 85.5626 139.371 85.5139 139.138C85.4652 138.906 85.4861 138.665 85.5741 138.445C85.6621 138.224 85.8132 138.035 86.0084 137.9C86.2036 137.766 86.4343 137.692 86.6714 137.688C86.8312 137.685 86.9899 137.714 87.1383 137.773C87.2867 137.833 87.4218 137.921 87.5357 138.033C87.6496 138.145 87.7401 138.279 87.8019 138.426C87.8636 138.573 87.8954 138.732 87.8954 138.891Z" fill="#ABB4EC"/>
<path d="M86.6918 141.531C86.5504 140.657 86.5504 139.766 86.6918 138.891C86.8332 139.766 86.8332 140.657 86.6918 141.531Z" fill="#ABB4EC"/>
<path d="M126.231 161.078C126.896 161.078 127.435 160.54 127.435 159.875C127.435 159.21 126.896 158.671 126.231 158.671C125.566 158.671 125.027 159.21 125.027 159.875C125.027 160.54 125.566 161.078 126.231 161.078Z" fill="#ABB4EC"/>
<path d="M126.231 162.515C126.09 161.64 126.09 160.749 126.231 159.875C126.373 160.749 126.373 161.64 126.231 162.515Z" fill="#ABB4EC"/>
<path d="M104.448 173.037C104.452 173.281 104.383 173.52 104.25 173.725C104.117 173.929 103.926 174.089 103.702 174.184C103.477 174.279 103.23 174.305 102.99 174.259C102.751 174.212 102.531 174.095 102.359 173.923C102.186 173.75 102.069 173.53 102.023 173.291C101.976 173.052 102.002 172.804 102.097 172.579C102.192 172.355 102.352 172.164 102.557 172.031C102.761 171.898 103.001 171.829 103.244 171.833C103.564 171.833 103.87 171.96 104.095 172.186C104.321 172.412 104.448 172.718 104.448 173.037Z" fill="#ABB4EC"/>
<path d="M103.224 175.677C103.083 174.802 103.083 173.911 103.224 173.037C103.365 173.911 103.365 174.802 103.224 175.677Z" fill="#ABB4EC"/>
<path d="M95.1701 169.402C95.1701 169.64 95.0995 169.872 94.9672 170.07C94.835 170.268 94.647 170.423 94.4271 170.514C94.2071 170.605 93.9651 170.629 93.7317 170.582C93.4982 170.536 93.2837 170.421 93.1154 170.253C92.9471 170.084 92.8324 169.87 92.786 169.636C92.7396 169.403 92.7634 169.161 92.8545 168.941C92.9456 168.721 93.0999 168.533 93.2978 168.401C93.4957 168.269 93.7284 168.198 93.9665 168.198C94.2857 168.198 94.5918 168.325 94.8176 168.551C95.0433 168.776 95.1701 169.082 95.1701 169.402Z" fill="#ABB4EC"/>
<path d="M93.9665 172.041C93.8251 171.167 93.8251 170.276 93.9665 169.402C94.1133 170.275 94.1133 171.168 93.9665 172.041Z" fill="#ABB4EC"/>
<path d="M116.423 166.762C116.423 167.004 116.351 167.241 116.217 167.442C116.082 167.643 115.891 167.8 115.667 167.893C115.444 167.985 115.197 168.01 114.96 167.962C114.723 167.915 114.504 167.799 114.333 167.627C114.162 167.456 114.046 167.238 113.998 167.001C113.951 166.763 113.975 166.517 114.068 166.293C114.161 166.07 114.318 165.879 114.519 165.744C114.72 165.61 114.957 165.538 115.199 165.538C115.36 165.535 115.521 165.565 115.67 165.625C115.82 165.686 115.956 165.776 116.07 165.89C116.185 166.004 116.275 166.14 116.335 166.29C116.396 166.44 116.426 166.6 116.423 166.762Z" fill="#ABB4EC"/>
<path d="M115.219 169.402C115.078 168.527 115.078 167.636 115.219 166.762C115.361 167.636 115.361 168.527 115.219 169.402Z" fill="#ABB4EC"/>
<path d="M97.0999 144.787C97.7646 144.787 98.3035 144.248 98.3035 143.583C98.3035 142.919 97.7646 142.38 97.0999 142.38C96.4352 142.38 95.8963 142.919 95.8963 143.583C95.8963 144.248 96.4352 144.787 97.0999 144.787Z" fill="#ABB4EC"/>
<path d="M97.104 146.223C96.9626 145.349 96.9626 144.458 97.104 143.583C97.2454 144.458 97.2454 145.349 97.104 146.223Z" fill="#ABB4EC"/>
<path d="M101.339 131.837C101.339 132.075 101.268 132.308 101.136 132.506C101.004 132.704 100.816 132.858 100.596 132.949C100.376 133.04 100.134 133.064 99.9006 133.018C99.6671 132.971 99.4527 132.857 99.2844 132.688C99.116 132.52 99.0014 132.305 98.955 132.072C98.9085 131.838 98.9323 131.596 99.0234 131.377C99.1145 131.157 99.2688 130.969 99.4667 130.836C99.6647 130.704 99.8974 130.634 100.135 130.634C100.455 130.634 100.761 130.76 100.986 130.986C101.212 131.212 101.339 131.518 101.339 131.837Z" fill="#ABB4EC"/>
<path d="M100.135 134.477C99.994 133.603 99.994 132.711 100.135 131.837C100.277 132.711 100.277 133.603 100.135 134.477Z" fill="#ABB4EC"/>
<path d="M72.163 133.159C72.1629 133.396 72.0928 133.628 71.9614 133.826C71.8301 134.023 71.6433 134.177 71.4245 134.269C71.2058 134.361 70.9649 134.386 70.732 134.341C70.4991 134.296 70.2846 134.183 70.1155 134.017C69.9464 133.851 69.8302 133.638 69.7814 133.406C69.7327 133.174 69.7537 132.933 69.8416 132.712C69.9296 132.492 70.0807 132.303 70.2759 132.168C70.4712 132.033 70.7018 131.959 70.939 131.955C71.0987 131.953 71.2574 131.982 71.4058 132.041C71.5542 132.1 71.6893 132.189 71.8032 132.301C71.9172 132.413 72.0077 132.546 72.0694 132.694C72.1312 132.841 72.163 132.999 72.163 133.159Z" fill="#ABB4EC"/>
<path d="M70.9594 135.799C70.818 134.925 70.818 134.033 70.9594 133.159C71.1008 134.033 71.1008 134.925 70.9594 135.799Z" fill="#ABB4EC"/>
<path d="M127.741 122.265C127.741 122.503 127.67 122.736 127.538 122.934C127.406 123.132 127.218 123.286 126.998 123.377C126.778 123.469 126.536 123.492 126.302 123.446C126.069 123.399 125.854 123.285 125.686 123.117C125.518 122.948 125.403 122.734 125.357 122.5C125.31 122.267 125.334 122.025 125.425 121.805C125.516 121.585 125.67 121.397 125.868 121.265C126.066 121.132 126.299 121.062 126.537 121.062C126.856 121.062 127.162 121.189 127.388 121.414C127.614 121.64 127.741 121.946 127.741 122.265Z" fill="#ABB4EC"/>
<path d="M126.537 124.905C126.396 124.031 126.396 123.14 126.537 122.265C126.678 123.14 126.678 124.031 126.537 124.905Z" fill="#ABB4EC"/>
<path d="M124.513 104.26C124.513 104.498 124.443 104.731 124.311 104.929C124.178 105.127 123.99 105.281 123.77 105.372C123.55 105.463 123.308 105.487 123.075 105.441C122.842 105.394 122.627 105.28 122.459 105.111C122.29 104.943 122.176 104.729 122.129 104.495C122.083 104.262 122.107 104.02 122.198 103.8C122.289 103.58 122.443 103.392 122.641 103.26C122.839 103.127 123.072 103.057 123.31 103.057C123.629 103.057 123.935 103.184 124.161 103.409C124.387 103.635 124.513 103.941 124.513 104.26Z" fill="#ABB4EC"/>
<path d="M123.31 106.896C123.168 106.022 123.168 105.131 123.31 104.256C123.451 105.131 123.451 106.022 123.31 106.896Z" fill="#ABB4EC"/>
<path d="M98.94 89.552C99.6047 89.552 100.144 89.0131 100.144 88.3484C100.144 87.6836 99.6047 87.1448 98.94 87.1448C98.2752 87.1448 97.7364 87.6836 97.7364 88.3484C97.7364 89.0131 98.2752 89.552 98.94 89.552Z" fill="#ABB4EC"/>
<path d="M98.94 90.984C98.7931 90.1102 98.7931 89.218 98.94 88.3442C99.0814 89.2185 99.0814 90.1098 98.94 90.984Z" fill="#ABB4EC"/>
<path d="M77.1324 111.054C77.1323 111.291 77.0622 111.523 76.9308 111.72C76.7995 111.918 76.6127 112.072 76.3939 112.164C76.1752 112.255 75.9343 112.28 75.7014 112.235C75.4685 112.191 75.254 112.078 75.0849 111.912C74.9158 111.745 74.7995 111.533 74.7508 111.301C74.7021 111.069 74.7231 110.827 74.811 110.607C74.899 110.387 75.0501 110.197 75.2453 110.063C75.4406 109.928 75.6712 109.854 75.9084 109.85C76.0681 109.847 76.2268 109.876 76.3752 109.936C76.5236 109.995 76.6587 110.083 76.7727 110.195C76.8866 110.307 76.9771 110.441 77.0388 110.588C77.1006 110.736 77.1324 110.894 77.1324 111.054Z" fill="#ABB4EC"/>
<path d="M75.9288 113.693C75.7874 112.819 75.7874 111.928 75.9288 111.054C76.0756 111.927 76.0756 112.82 75.9288 113.693Z" fill="#ABB4EC"/>
<path d="M91.2737 79.7601C91.2737 80.0021 91.2019 80.2388 91.0674 80.4401C90.9329 80.6414 90.7417 80.7982 90.5181 80.8909C90.2944 80.9835 90.0483 81.0078 89.8109 80.9605C89.5735 80.9133 89.3554 80.7967 89.1842 80.6256C89.013 80.4544 88.8964 80.2363 88.8492 79.9989C88.802 79.7614 88.8262 79.5153 88.9189 79.2917C89.0115 79.068 89.1684 78.8768 89.3697 78.7423C89.571 78.6078 89.8076 78.5361 90.0497 78.5361C90.2112 78.5333 90.3716 78.5631 90.5213 78.6236C90.6711 78.6841 90.8071 78.7742 90.9213 78.8884C91.0355 79.0026 91.1256 79.1387 91.1861 79.2884C91.2467 79.4382 91.2765 79.5986 91.2737 79.7601Z" fill="#ABB4EC"/>
<path d="M90.07 82.416C89.9286 81.5418 89.9286 80.6505 90.07 79.7762C90.2115 80.6505 90.2115 81.5418 90.07 82.416Z" fill="#ABB4EC"/>
<path d="M115.815 77.1121C115.811 77.3492 115.737 77.5799 115.602 77.7751C115.468 77.9703 115.278 78.1214 115.058 78.2094C114.838 78.2974 114.596 78.3183 114.364 78.2696C114.132 78.2209 113.92 78.1047 113.753 77.9356C113.587 77.7664 113.474 77.552 113.43 77.3191C113.385 77.0862 113.41 76.8452 113.501 76.6265C113.593 76.4077 113.747 76.2209 113.945 76.0896C114.142 75.9582 114.374 75.8881 114.611 75.8881C114.771 75.888 114.929 75.9198 115.077 75.9816C115.224 76.0434 115.358 76.1338 115.47 76.2478C115.582 76.3617 115.67 76.4968 115.729 76.6452C115.788 76.7936 115.818 76.9523 115.815 77.1121Z" fill="#ABB4EC"/>
<path d="M114.611 79.76C114.47 78.8858 114.47 77.9945 114.611 77.1202C114.753 77.9945 114.753 78.8858 114.611 79.76Z" fill="#ABB4EC"/>
<path d="M122.6 76.0104C122.6 76.2534 122.528 76.4908 122.392 76.6925C122.257 76.8942 122.064 77.0511 121.839 77.1431C121.615 77.2351 121.367 77.2581 121.13 77.2092C120.892 77.1603 120.674 77.0417 120.503 76.8684C120.333 76.6952 120.218 76.4752 120.173 76.2365C120.128 75.9977 120.155 75.751 120.251 75.5277C120.347 75.3044 120.507 75.1147 120.711 74.9827C120.915 74.8507 121.153 74.7824 121.396 74.7864C121.556 74.7864 121.714 74.8182 121.862 74.88C122.009 74.9417 122.143 75.0322 122.255 75.1461C122.367 75.2601 122.455 75.3952 122.514 75.5436C122.573 75.6919 122.603 75.8507 122.6 76.0104Z" fill="#ABB4EC"/>
<path d="M121.396 78.6503C121.255 77.776 121.255 76.8847 121.396 76.0105C121.538 76.8847 121.538 77.776 121.396 78.6503Z" fill="#ABB4EC"/>
<path d="M119.874 67.1324C119.874 67.3705 119.804 67.6032 119.672 67.8011C119.539 67.999 119.351 68.1533 119.131 68.2444C118.912 68.3355 118.67 68.3594 118.436 68.3129C118.203 68.2665 117.988 68.1518 117.82 67.9835C117.651 67.8152 117.537 67.6007 117.49 67.3672C117.444 67.1338 117.468 66.8918 117.559 66.6718C117.65 66.4519 117.804 66.2639 118.002 66.1317C118.2 65.9994 118.433 65.9288 118.671 65.9288C118.988 65.9341 119.292 66.0626 119.516 66.2872C119.741 66.5118 119.869 66.8149 119.874 67.1324Z" fill="#ABB4EC"/>
<path d="M118.671 69.7681C118.529 68.8938 118.529 68.0025 118.671 67.1283C118.812 68.0025 118.812 68.8938 118.671 69.7681Z" fill="#ABB4EC"/>
<path d="M82.0814 87.5855C82.0814 87.8227 82.0113 88.0545 81.8799 88.252C81.7485 88.4495 81.5618 88.6037 81.343 88.6954C81.1243 88.7871 80.8833 88.812 80.6504 88.7672C80.4175 88.7224 80.203 88.6098 80.0339 88.4435C79.8648 88.2772 79.7486 88.0647 79.6999 87.8326C79.6512 87.6004 79.6721 87.3591 79.7601 87.1389C79.8481 86.9186 79.9992 86.7292 80.1944 86.5946C80.3896 86.4599 80.6203 86.3859 80.8574 86.3819C81.0172 86.3792 81.1759 86.4083 81.3243 86.4676C81.4727 86.5269 81.6078 86.6151 81.7217 86.7271C81.8357 86.8392 81.9261 86.9728 81.9879 87.1201C82.0497 87.2675 82.0814 87.4257 82.0814 87.5855Z" fill="#ABB4EC"/>
<path d="M80.8778 90.2252C80.7364 89.351 80.7364 88.4597 80.8778 87.5854C81.0192 88.4597 81.0192 89.351 80.8778 90.2252Z" fill="#ABB4EC"/>
<path d="M110.054 76.1982C110.058 76.4419 109.989 76.6814 109.856 76.8857C109.723 77.0901 109.532 77.2501 109.308 77.3453C109.083 77.4405 108.836 77.4664 108.596 77.4198C108.357 77.3733 108.137 77.2563 107.965 77.0839C107.792 76.9115 107.675 76.6915 107.629 76.4522C107.582 76.2129 107.608 75.9651 107.703 75.7407C107.798 75.5162 107.958 75.3252 108.163 75.1923C108.367 75.0594 108.607 74.9905 108.85 74.9946C109.17 74.9946 109.476 75.1214 109.701 75.3471C109.927 75.5728 110.054 75.8789 110.054 76.1982Z" fill="#ABB4EC"/>
<path d="M108.85 78.8379C108.709 77.9636 108.709 77.0724 108.85 76.1981C108.992 77.0724 108.992 77.9636 108.85 78.8379Z" fill="#ABB4EC"/>
<path d="M76.2593 49.0906C76.2633 49.3344 76.1945 49.5738 76.0615 49.7782C75.9286 49.9826 75.7377 50.1426 75.5132 50.2378C75.2887 50.3329 75.041 50.3589 74.8016 50.3123C74.5623 50.2657 74.3424 50.1487 74.17 49.9763C73.9976 49.8039 73.8806 49.584 73.834 49.3447C73.7874 49.1053 73.8134 48.8576 73.9085 48.6331C74.0037 48.4086 74.1637 48.2177 74.3681 48.0848C74.5725 47.9518 74.8119 47.883 75.0557 47.887C75.3749 47.887 75.6811 48.0138 75.9068 48.2395C76.1325 48.4652 76.2593 48.7714 76.2593 49.0906Z" fill="#ABB4EC"/>
<path d="M75.072 51.7263C74.9676 51.2953 74.9318 50.8505 74.9659 50.4084C74.9318 49.9663 74.9676 49.5216 75.072 49.0906C75.1787 49.5212 75.2146 49.9663 75.178 50.4084C75.2146 50.8505 75.1787 51.2957 75.072 51.7263Z" fill="#ABB4EC"/>
<path d="M90.0701 55.6798C90.0701 55.9178 89.9995 56.1505 89.8672 56.3485C89.735 56.5464 89.547 56.7007 89.3271 56.7918C89.1072 56.8829 88.8652 56.9067 88.6317 56.8603C88.3982 56.8138 88.1838 56.6992 88.0154 56.5309C87.8471 56.3625 87.7325 56.1481 87.686 55.9146C87.6396 55.6811 87.6634 55.4391 87.7545 55.2192C87.8456 54.9993 87.9999 54.8113 88.1978 54.679C88.3957 54.5468 88.6284 54.4762 88.8665 54.4762C89.1857 54.4762 89.4919 54.603 89.7176 54.8287C89.9433 55.0544 90.0701 55.3606 90.0701 55.6798Z" fill="#ABB4EC"/>
<path d="M88.8665 58.3196C88.7625 57.8885 88.7267 57.4439 88.7604 57.0017C88.7266 56.5583 88.7624 56.1122 88.8665 55.6798C88.9705 56.1122 89.0063 56.5583 88.9725 57.0017C89.0062 57.4439 88.9704 57.8885 88.8665 58.3196Z" fill="#ABB4EC"/>
<path d="M68.136 76.496C68.136 76.7381 68.0642 76.9748 67.9297 77.176C67.7952 77.3773 67.6041 77.5342 67.3804 77.6269C67.1567 77.7195 66.9106 77.7437 66.6732 77.6965C66.4358 77.6493 66.2177 77.5327 66.0465 77.3615C65.8753 77.1903 65.7587 76.9722 65.7115 76.7348C65.6643 76.4974 65.6885 76.2513 65.7812 76.0276C65.8738 75.804 66.0307 75.6128 66.232 75.4783C66.4333 75.3438 66.6699 75.272 66.912 75.272C67.0735 75.2693 67.2339 75.299 67.3836 75.3596C67.5334 75.4201 67.6694 75.5102 67.7836 75.6244C67.8979 75.7386 67.9879 75.8746 68.0484 76.0244C68.109 76.1741 68.1388 76.3345 68.136 76.496Z" fill="#ABB4EC"/>
<path d="M66.912 79.152C66.7706 78.2777 66.7706 77.3864 66.912 76.5122C67.0534 77.3864 67.0534 78.2777 66.912 79.152Z" fill="#ABB4EC"/>
<path d="M69.3233 56.8835C69.3273 57.1272 69.2585 57.3667 69.1255 57.571C68.9926 57.7754 68.8017 57.9354 68.5772 58.0306C68.3527 58.1258 68.1049 58.1517 67.8656 58.1051C67.6263 58.0586 67.4064 57.9416 67.234 57.7692C67.0616 57.5968 66.9446 57.3768 66.898 57.1375C66.8514 56.8982 66.8774 56.6504 66.9725 56.426C67.0677 56.2015 67.2277 56.0105 67.4321 55.8776C67.6365 55.7447 67.8759 55.6758 68.1197 55.6799C68.4389 55.6799 68.745 55.8067 68.9708 56.0324C69.1965 56.2581 69.3233 56.5642 69.3233 56.8835Z" fill="#ABB4EC"/>
<path d="M68.136 59.5232C68.0297 59.0925 67.9938 58.6475 68.0299 58.2053C67.9937 57.7619 68.0295 57.3154 68.136 56.8834C68.2401 57.3158 68.2759 57.7619 68.2421 58.2053C68.2757 58.6475 68.2399 59.0921 68.136 59.5232Z" fill="#ABB4EC"/>
<path d="M121.119 113.004L131.041 107.745L131.001 117.231L121.119 113.004Z" fill="#E6E8F3"/>
<path d="M79.9068 146.639L58.1685 157.859V136.925L60.5757 135.852L79.9068 146.639Z" fill="#E6E8F3"/>
<path d="M112.375 157.859C112.375 158.134 112.294 158.402 112.142 158.63C111.989 158.858 111.773 159.036 111.519 159.141C111.266 159.246 110.987 159.273 110.718 159.22C110.448 159.166 110.201 159.034 110.007 158.84C109.813 158.646 109.681 158.399 109.628 158.13C109.574 157.861 109.602 157.582 109.707 157.329C109.812 157.075 109.989 156.858 110.218 156.706C110.446 156.554 110.714 156.472 110.988 156.472C111.356 156.472 111.709 156.618 111.969 156.878C112.229 157.139 112.375 157.491 112.375 157.859Z" fill="#00ACE9"/>
<path d="M125.068 58.8418L131.992 60.9471V71.857L125.068 58.8418Z" fill="#E6E8F3"/>
<path d="M132.061 44.268L132.021 32.3626C131.742 30.3116 130.731 28.4302 129.176 27.0645C127.621 25.6988 125.624 24.9404 123.555 24.9288L112.632 24.888C112.276 24.8944 111.925 24.9709 111.598 25.1132C111.271 25.2554 110.976 25.4607 110.728 25.7172C110.481 25.9737 110.286 26.2764 110.156 26.6081C110.025 26.9398 109.962 27.2939 109.968 27.6502V29.629C109.979 30.3472 109.705 31.0404 109.205 31.5567C108.706 32.0729 108.022 32.3701 107.304 32.383L86.0104 32.2851C85.2911 32.2648 84.6092 31.96 84.1144 31.4376C83.6195 30.9152 83.352 30.2178 83.3707 29.4984V27.5196C83.3805 27.1633 83.3199 26.8085 83.1925 26.4756C83.0651 26.1427 82.8734 25.8381 82.6282 25.5793C82.3831 25.3205 82.0893 25.1126 81.7638 24.9673C81.4382 24.8221 81.0873 24.7425 80.7309 24.733H76.8876L67.32 24.6718C65.1673 24.6668 63.0917 25.4723 61.506 26.928C60.5472 28.7763 59.4986 31.416 59.98 33.4111L132.008 56.8589L132.061 44.268Z" fill="#00ACE9"/>
<path opacity="0.7" d="M132.061 44.268L132.021 32.3626C131.742 30.3116 130.731 28.4302 129.176 27.0645C127.621 25.6988 125.624 24.9404 123.555 24.9288L112.632 24.888C112.276 24.8944 111.925 24.9709 111.598 25.1132C111.271 25.2554 110.976 25.4607 110.728 25.7172C110.481 25.9737 110.286 26.2764 110.156 26.6081C110.025 26.9398 109.962 27.2939 109.968 27.6502V29.629C109.979 30.3472 109.705 31.0404 109.205 31.5567C108.706 32.0729 108.022 32.3701 107.304 32.383L86.0104 32.2851C85.2911 32.2648 84.6092 31.96 84.1144 31.4376C83.6195 30.9152 83.352 30.2178 83.3707 29.4984V27.5196C83.3805 27.1633 83.3199 26.8085 83.1925 26.4756C83.0651 26.1427 82.8734 25.8381 82.6282 25.5793C82.3831 25.3205 82.0893 25.1126 81.7638 24.9673C81.4382 24.8221 81.0873 24.7425 80.7309 24.733H76.8876L67.32 24.6718C65.1673 24.6668 63.0917 25.4723 61.506 26.928C60.5472 28.7763 59.4986 31.416 59.98 33.4111L132.008 56.8589L132.061 44.268Z" fill="white"/>
<path d="M123.555 24.9288H123.848C124.139 24.9342 124.43 24.9587 124.717 25.0023C125.858 25.1436 126.956 25.5275 127.937 26.1284C128.667 26.564 129.326 27.1088 129.891 27.744C130.583 28.4986 131.136 29.3703 131.523 30.3185C131.964 31.4276 132.177 32.6138 132.151 33.8069C132.151 35.0744 132.151 36.4249 132.151 37.8584C132.11 49.3109 132.053 65.8798 131.98 86.3532C131.906 106.827 131.804 131.205 131.698 158.275C131.698 161.656 131.685 165.081 131.657 168.549C131.657 169.414 131.657 170.283 131.657 171.156C131.67 172.04 131.554 172.921 131.315 173.771C131.074 174.629 130.701 175.444 130.209 176.187C129.71 176.929 129.105 177.594 128.414 178.161C127 179.3 125.265 179.966 123.453 180.067C123 180.095 122.551 180.087 122.102 180.087H120.756H118.051L107.104 180.038L84.611 179.928L73.1217 179.875L67.32 179.83C65.3383 179.932 63.3779 179.381 61.7385 178.263C60.104 177.124 58.9067 175.462 58.344 173.551C58.0765 172.607 57.9595 171.627 57.9971 170.646V167.749C58.0135 163.895 58.0298 160.064 58.0461 156.256C58.0788 148.64 58.11 141.15 58.14 133.787C58.2052 119.054 58.2664 104.844 58.3276 91.3064C58.3888 77.7689 58.446 64.9088 58.499 52.8687C58.5262 46.8493 58.5534 41.0435 58.5806 35.4512C58.5806 34.7494 58.5806 34.0558 58.5806 33.3663C58.5806 33.0195 58.6132 32.6686 58.6336 32.3218C58.654 31.975 58.7234 31.6364 58.8131 31.3018C59.1276 29.9658 59.7508 28.7221 60.6328 27.6706C61.4908 26.6584 62.5687 25.8554 63.7841 25.323C64.9996 24.7906 66.3206 24.5427 67.6464 24.5984L75.1372 24.6351H78.7399H80.5065C81.1053 24.6054 81.6973 24.7731 82.1915 25.1124C82.6908 25.4555 83.068 25.9485 83.2687 26.52C83.427 27.071 83.4837 27.6461 83.4359 28.2173C83.4359 28.4948 83.4359 28.7763 83.4359 29.0333C83.4176 29.305 83.4176 29.5776 83.4359 29.8493C83.5022 30.3835 83.7251 30.886 84.0765 31.2936C84.4176 31.6972 84.8774 31.9828 85.3903 32.1096C85.6438 32.1716 85.9046 32.1991 86.1655 32.1912H86.957H90.0619L101.392 32.2524L106.39 32.281C106.798 32.281 107.186 32.281 107.561 32.281C107.936 32.2394 108.297 32.1139 108.618 31.9138C108.927 31.7216 109.194 31.4696 109.404 31.1725C109.615 30.8754 109.763 30.5393 109.842 30.1839C109.901 29.8391 109.925 29.489 109.911 29.1394C109.911 28.7926 109.911 28.4499 109.911 28.1112C109.897 27.7773 109.913 27.4426 109.96 27.1116C110.014 26.7889 110.125 26.4782 110.286 26.1936C110.586 25.6366 111.073 25.2032 111.661 24.9696C112.212 24.7977 112.792 24.7381 113.367 24.7942L118.94 24.8309L122.367 24.8554H123.538C123.538 24.8554 123.13 24.8554 122.367 24.8554H118.94H113.367C112.8 24.7978 112.228 24.8575 111.686 25.0308C111.117 25.2554 110.644 25.6708 110.348 26.2059C110.193 26.4852 110.087 26.7887 110.033 27.1035C109.989 27.4306 109.974 27.761 109.989 28.0908C109.989 28.4295 109.989 28.7722 109.989 29.119C110.005 29.4742 109.98 29.8302 109.915 30.1798C109.837 30.5461 109.687 30.8931 109.472 31.2001C109.258 31.5071 108.984 31.7678 108.667 31.9668C108.337 32.1748 107.965 32.3058 107.577 32.3504C107.169 32.383 106.794 32.3504 106.394 32.3504H101.396L90.0659 32.3055H86.9611H86.1695C85.8951 32.3153 85.6206 32.2878 85.3535 32.2239C84.8298 32.0973 84.3563 31.8158 83.9949 31.416C83.6274 30.9886 83.3945 30.4619 83.3258 29.9024C83.2994 29.6244 83.2912 29.345 83.3013 29.066V28.25C83.3489 27.7008 83.295 27.1476 83.1422 26.618C82.9546 26.0874 82.6067 25.6283 82.1467 25.3042C81.6751 24.9811 81.1099 24.8233 80.5391 24.8554H78.7725H75.1699L67.6749 24.8268C66.3795 24.7649 65.0869 24.9979 63.8947 25.5081C62.7024 26.0184 61.6415 26.7927 60.792 27.7726C59.9283 28.8064 59.3178 30.0274 59.009 31.3385C58.9233 31.6649 58.8947 32.0076 58.8335 32.3422C58.7723 32.6768 58.7887 33.0195 58.7846 33.3663C58.7846 34.0558 58.7846 34.7535 58.7846 35.4512C58.7601 41.0353 58.737 46.8412 58.7152 52.8687C58.6704 64.9088 58.6173 77.7567 58.5643 91.3064C58.5112 104.856 58.45 119.05 58.3888 133.787C58.3589 141.156 58.3222 148.648 58.2787 156.264C58.2787 160.072 58.2637 163.903 58.2338 167.757V170.658C58.1954 171.622 58.3097 172.586 58.5724 173.514C59.1198 175.375 60.282 176.994 61.8691 178.108C63.4726 179.193 65.3869 179.723 67.32 179.618L73.1217 179.642L84.6151 179.695L107.075 179.802L118.022 179.855H120.727H122.074C122.522 179.855 122.971 179.855 123.412 179.834C125.182 179.736 126.877 179.085 128.259 177.974C128.934 177.419 129.525 176.769 130.013 176.044C130.493 175.32 130.857 174.525 131.094 173.69C131.328 172.856 131.44 171.993 131.425 171.127C131.425 170.254 131.425 169.385 131.425 168.52C131.441 165.052 131.456 161.627 131.47 158.243C131.596 131.176 131.706 106.798 131.796 86.3247C131.886 65.8512 131.98 49.2824 132.037 37.8298C132.037 36.3991 132.044 35.0486 132.057 33.7784C132.089 32.5943 131.881 31.4161 131.445 30.3144C131.068 29.3706 130.523 28.5026 129.838 27.7522C129.277 27.1262 128.625 26.5884 127.904 26.1569C126.93 25.5552 125.84 25.1659 124.705 25.0145C124.418 24.9672 124.127 24.94 123.836 24.9329C123.652 24.9411 123.555 24.9288 123.555 24.9288Z" fill="#161B46"/>
<path d="M149.071 105.994C155.113 106.145 161.221 106.304 167.064 107.855C172.906 109.405 178.549 112.49 182.013 117.443C185.832 122.894 186.591 129.862 186.97 136.505C187.658 147.528 187.486 158.588 186.456 169.585C185.909 175.15 183.935 180.324 178.757 182.441C172.531 184.991 164.163 182.441 164.163 182.441" fill="#161B46"/>
<path d="M165.277 181.115C165.277 181.115 165.354 181.115 165.505 181.115H166.178L168.761 181.095C170.124 181.119 171.488 181.048 172.841 180.883C173.249 180.817 173.657 180.773 174.065 180.666L174.693 180.528C174.906 180.471 175.101 180.401 175.334 180.34C175.77 180.226 176.195 180.042 176.64 179.879C177.087 179.69 177.523 179.474 177.945 179.234C178.863 178.727 179.691 178.071 180.393 177.292C181.143 176.448 181.689 175.443 181.988 174.355C182.559 171.915 182.867 169.422 182.906 166.917C182.988 164.269 182.959 161.486 182.984 158.598C183.008 155.709 183.008 152.727 183.025 149.667C183.041 146.607 183.07 143.616 182.972 140.731C182.9 137.961 182.638 135.2 182.188 132.465C181.307 127.247 179.483 122.722 177.125 119.483C176.05 118.038 174.843 116.697 173.518 115.476C172.356 114.387 171.311 113.497 170.454 112.775L168.471 111.123L167.961 110.686C167.901 110.638 167.844 110.586 167.79 110.531C167.79 110.531 167.855 110.576 167.974 110.67L168.5 111.078L170.507 112.71C171.372 113.42 172.429 114.301 173.6 115.386C174.94 116.604 176.161 117.945 177.247 119.393C179.634 122.657 181.487 127.19 182.384 132.449C182.838 135.192 183.103 137.964 183.176 140.744C183.282 143.632 183.249 146.623 183.237 149.683C183.225 152.743 183.208 155.729 183.192 158.618C183.176 161.507 183.192 164.285 183.102 166.941C183.056 169.461 182.74 171.968 182.16 174.42C181.852 175.531 181.294 176.557 180.528 177.419C179.816 178.205 178.979 178.868 178.051 179.381C177.623 179.622 177.182 179.839 176.729 180.03C176.276 180.193 175.844 180.373 175.403 180.487L174.759 180.671L174.122 180.809C173.714 180.911 173.306 180.952 172.898 181.017C171.544 181.174 170.181 181.233 168.818 181.193H166.236H165.562L165.277 181.115Z" fill="#5C5F7E"/>
<path d="M183.074 151.225C183.751 150.973 184.468 150.844 185.191 150.846C185.912 150.779 186.638 150.84 187.337 151.025C187.337 151.086 186.374 151.001 185.199 151.058C184.024 151.115 183.086 151.286 183.074 151.225Z" fill="#5C5F7E"/>
<path d="M156.966 106.308H157.121H157.582C157.99 106.308 158.586 106.308 159.353 106.378C161.521 106.574 163.658 107.03 165.717 107.736L166.709 108.104L167.223 108.295L167.729 108.524L168.777 109.001C169.136 109.16 169.475 109.364 169.838 109.552C171.361 110.364 172.808 111.31 174.163 112.38C175.672 113.547 177.066 114.858 178.325 116.292C179.681 117.833 180.814 119.557 181.691 121.413C183.51 125.227 184.298 129.222 184.702 132.837C185.106 136.452 185.11 139.74 185.11 142.49C185.11 145.24 185.11 147.459 185.163 148.998C185.187 149.756 185.203 150.348 185.216 150.768C185.216 150.96 185.216 151.111 185.216 151.225C185.22 151.278 185.22 151.331 185.216 151.384C185.21 151.333 185.21 151.281 185.216 151.229C185.216 151.115 185.216 150.96 185.183 150.768C185.154 150.36 185.126 149.769 185.093 149.002C185.032 147.463 184.999 145.24 184.971 142.474C184.942 139.707 184.897 136.452 184.502 132.841C184.106 129.23 183.278 125.28 181.495 121.498C180.629 119.658 179.506 117.949 178.161 116.423C176.916 114.993 175.535 113.688 174.037 112.526C172.694 111.458 171.259 110.511 169.748 109.699C169.393 109.511 169.055 109.291 168.7 109.144L167.659 108.667L167.154 108.434L166.648 108.242L165.664 107.867C163.617 107.156 161.495 106.681 159.34 106.451C158.577 106.386 157.978 106.374 157.578 106.345L157.117 106.317C157.066 106.32 157.016 106.317 156.966 106.308Z" fill="#D0D1DA"/>
<path d="M153.188 106.296C153.188 106.296 154.669 102.384 159.944 103.126C159.944 103.126 162.294 102.996 162.723 104.301C162.723 104.301 157.806 103.077 155.713 106.48L153.188 106.296Z" fill="#161B46"/>
<path d="M168.222 111.062H165.134C165.134 111.062 164.534 102.902 157.043 103.208C157.043 103.224 166.354 100.091 168.222 111.062Z" fill="#5C5F7E"/>
<path d="M183.119 156.211L187.549 156.823L187.105 158.398L182.972 158.08L183.119 156.211Z" fill="#5C5F7E"/>
<path d="M183.388 157.635C183.525 157.348 183.699 157.081 183.906 156.839L183.967 156.758L184.037 156.839L184.657 157.594L184.514 157.574L184.955 157.247L185.416 156.913L185.497 156.852L185.558 156.937L186.126 157.753L186.011 157.733C186.262 157.542 186.537 157.383 186.827 157.26C186.622 157.493 186.386 157.697 186.126 157.867L186.048 157.896L185.999 157.831L185.395 157.056L185.538 157.076L185.085 157.415L184.64 157.737L184.559 157.798L184.498 157.716L183.91 156.941H184.041C183.855 157.2 183.635 157.434 183.388 157.635Z" fill="#00ACE9"/>
<path d="M118.728 185.371C118.728 185.371 117.871 182.58 118.043 181.397C118.214 180.214 119.801 179.145 119.801 179.145L118.079 134.407C118.079 134.407 117.859 114.823 128.214 108.757L134.395 107.198L149.642 106.296C150.136 106.459 168.055 113.2 170.519 115.831L162.792 155.285C162.792 155.285 163.73 166.941 164.665 175.318C164.856 177.031 166.142 185.493 166.142 185.493L118.728 185.371Z" fill="#00ACE9"/>
<g opacity="0.3">
<path opacity="0.3" d="M164.379 172.686C164.232 173.771 163.82 175.097 162.776 175.436C161.707 175.715 160.587 175.73 159.512 175.481C155.693 174.799 152.168 173.004 148.72 171.234C142.27 167.916 135.758 164.567 130.185 159.916C129.401 159.263 128.553 158.247 129.046 157.345C129.589 156.325 131.119 156.668 132.168 157.153C143.11 162.196 153.432 167.639 164.375 172.686" fill="#0E1339"/>
</g>
<path d="M125.892 109.976C125.892 109.976 119.067 112.253 116.859 118.577C114.411 125.562 112.804 139.124 112.804 139.124L119.544 139.973L125.892 109.976Z" fill="#00ACE9"/>
<path d="M170.511 115.831C170.511 115.831 174.183 120.646 175.954 126.496C177.725 132.347 178.753 149.299 178.753 149.299L160.393 149.046L159.418 134.126C159.418 134.126 157.566 109.234 170.511 115.831Z" fill="#00ACE9"/>
<path d="M115.211 124.669C115.354 124.483 115.526 124.322 115.721 124.191C116.001 124.002 116.316 123.871 116.648 123.807C116.98 123.744 117.321 123.748 117.651 123.82C118.54 123.95 119.405 124.636 120.544 125.085C121.137 125.349 121.797 125.43 122.437 125.317C123.106 125.174 123.689 124.693 124.301 124.224C124.615 123.971 124.957 123.756 125.321 123.583C125.519 123.49 125.732 123.437 125.95 123.428C126.168 123.419 126.386 123.454 126.59 123.53C127.004 123.712 127.35 124.021 127.578 124.411C127.83 124.779 128.034 125.179 128.3 125.538C128.542 125.92 128.907 126.208 129.336 126.354C129.781 126.484 130.254 126.484 130.699 126.354C131.167 126.224 131.614 126.031 132.029 125.778C132.437 125.529 132.845 125.227 133.298 124.962C133.739 124.671 134.216 124.439 134.718 124.273C135.249 124.104 135.819 124.104 136.35 124.273C136.872 124.466 137.352 124.76 137.761 125.138C138.169 125.493 138.577 125.884 139.006 126.223C139.42 126.582 139.92 126.827 140.458 126.933C141.007 127.031 141.572 126.973 142.09 126.766C143.151 126.358 144.089 125.648 145.134 125.072C145.648 124.764 146.209 124.539 146.794 124.407C147.386 124.291 147.998 124.339 148.565 124.546C149.675 124.979 150.499 125.823 151.486 126.292C151.728 126.411 151.983 126.501 152.245 126.562C152.506 126.614 152.772 126.632 153.037 126.615C153.566 126.562 154.082 126.414 154.559 126.178C155.526 125.742 156.399 125.13 157.415 124.799C157.909 124.625 158.44 124.578 158.957 124.664C159.457 124.77 159.92 125.007 160.299 125.35C161.046 125.974 161.637 126.77 162.49 127.035C162.908 127.157 163.351 127.17 163.775 127.072C164.191 126.977 164.6 126.854 164.999 126.704C165.787 126.427 166.611 126.141 167.411 126.325C167.791 126.413 168.146 126.587 168.447 126.835C168.745 127.063 169.006 127.316 169.263 127.545C169.511 127.773 169.785 127.971 170.079 128.137C170.354 128.282 170.652 128.377 170.96 128.418C171.522 128.492 172.093 128.435 172.629 128.251C173.081 128.096 173.508 127.878 173.898 127.602C174.436 127.214 174.939 126.778 175.399 126.301L175.766 125.933C175.805 125.889 175.849 125.849 175.897 125.815C175.897 125.815 175.86 125.864 175.783 125.95L175.432 126.333C174.978 126.825 174.48 127.273 173.943 127.671C173.55 127.956 173.119 128.183 172.662 128.345C172.112 128.541 171.524 128.607 170.944 128.536C170.62 128.496 170.306 128.398 170.018 128.247C169.725 128.077 169.451 127.876 169.202 127.647C168.675 127.198 168.153 126.623 167.402 126.472C166.652 126.321 165.868 126.578 165.081 126.859C164.674 127.013 164.256 127.14 163.832 127.239C163.38 127.343 162.908 127.33 162.462 127.202C162.005 127.047 161.588 126.795 161.238 126.464C160.878 126.145 160.552 125.799 160.181 125.493C159.828 125.169 159.393 124.948 158.924 124.852C158.439 124.775 157.942 124.821 157.48 124.987C156.521 125.305 155.648 125.913 154.661 126.362C154.164 126.61 153.626 126.765 153.073 126.819C152.789 126.838 152.504 126.82 152.225 126.766C151.943 126.702 151.669 126.606 151.409 126.48C150.381 125.986 149.556 125.15 148.5 124.746C147.971 124.552 147.4 124.507 146.847 124.615C146.284 124.745 145.745 124.962 145.248 125.256C144.22 125.819 143.281 126.549 142.176 126.966C141.623 127.181 141.022 127.242 140.438 127.141C139.867 127.026 139.336 126.766 138.895 126.386C138.01 125.697 137.3 124.799 136.301 124.469C135.811 124.313 135.285 124.313 134.795 124.469C134.311 124.629 133.85 124.853 133.424 125.134C132.988 125.399 132.584 125.701 132.143 125.95C131.714 126.208 131.251 126.406 130.768 126.537C130.288 126.676 129.779 126.676 129.299 126.537C128.84 126.379 128.445 126.074 128.177 125.668C127.904 125.293 127.7 124.889 127.459 124.53C127.248 124.172 126.931 123.887 126.553 123.714C126.368 123.644 126.171 123.612 125.973 123.62C125.775 123.629 125.581 123.677 125.403 123.763C125.049 123.927 124.716 124.134 124.411 124.379C123.799 124.836 123.187 125.329 122.486 125.485C121.819 125.597 121.134 125.507 120.519 125.227C119.365 124.771 118.516 124.073 117.663 123.934C117.342 123.86 117.009 123.851 116.684 123.907C116.359 123.963 116.048 124.083 115.77 124.261C115.574 124.383 115.387 124.519 115.211 124.669Z" fill="#E6E8F3"/>
<path d="M113.049 135.701C113.108 135.695 113.168 135.695 113.228 135.701L113.759 135.754C114.423 135.885 115.109 135.867 115.766 135.701C116.198 135.607 116.684 135.521 117.214 135.427C117.745 135.334 118.312 135.207 118.94 135.134C119.623 135.035 120.319 135.085 120.98 135.281C121.674 135.485 122.347 135.84 123.09 136.097C123.864 136.36 124.7 136.384 125.489 136.166C126.305 135.966 127.121 135.587 128.022 135.281C128.923 134.896 129.92 134.797 130.878 134.999C131.866 135.277 132.661 136.007 133.649 136.248C133.894 136.308 134.148 136.326 134.399 136.301C134.657 136.269 134.91 136.209 135.154 136.121C135.652 135.95 136.133 135.713 136.66 135.513C137.197 135.29 137.797 135.27 138.349 135.456C138.867 135.702 139.348 136.021 139.777 136.403C139.995 136.574 140.234 136.717 140.487 136.831C140.744 136.94 141.023 136.992 141.303 136.982C141.873 136.93 142.428 136.765 142.935 136.496C143.467 136.222 144.024 135.999 144.599 135.831C144.902 135.757 145.215 135.734 145.525 135.766C145.837 135.808 146.138 135.906 146.415 136.056C146.932 136.368 147.431 136.71 147.908 137.08C148.144 137.246 148.399 137.382 148.667 137.488C148.799 137.541 148.935 137.579 149.075 137.602L149.283 137.639H149.495C150.067 137.627 150.631 137.509 151.16 137.292C151.699 137.096 152.229 136.864 152.792 136.7C153.343 136.504 153.936 136.46 154.51 136.574C155.063 136.729 155.563 137.03 155.958 137.447C156.329 137.834 156.727 138.194 157.149 138.524C157.567 138.821 158.074 138.965 158.586 138.932C159.088 138.881 159.576 138.732 160.022 138.496C160.475 138.275 160.903 138.018 161.34 137.778C162.196 137.3 163.139 136.864 164.114 136.962C165.015 137.127 165.858 137.522 166.562 138.108C167.2 138.625 167.883 139.085 168.602 139.483C169.272 139.808 169.997 140.004 170.74 140.062C171.405 140.099 172.071 140.048 172.723 139.911C173.768 139.67 174.744 139.194 175.579 138.52C176.098 138.086 176.547 137.574 176.909 137.002C177.023 136.802 177.101 136.639 177.158 136.537C177.184 136.482 177.214 136.429 177.247 136.378C177.229 136.436 177.206 136.492 177.178 136.545C177.125 136.651 177.056 136.819 176.946 137.023C176.597 137.612 176.153 138.138 175.632 138.581C174.796 139.276 173.812 139.77 172.755 140.026C172.094 140.174 171.416 140.232 170.74 140.197C169.978 140.144 169.233 139.948 168.545 139.618C167.812 139.223 167.117 138.763 166.468 138.243C165.785 137.679 164.969 137.298 164.098 137.137C163.184 137.035 162.282 137.451 161.429 137.929C161.001 138.169 160.568 138.43 160.103 138.655C159.636 138.904 159.125 139.061 158.598 139.116C158.043 139.15 157.494 138.995 157.039 138.675C156.604 138.342 156.195 137.977 155.815 137.582C155.445 137.192 154.975 136.909 154.457 136.766C153.918 136.662 153.361 136.705 152.845 136.892C152.306 137.051 151.78 137.3 151.233 137.48C150.682 137.708 150.092 137.831 149.495 137.843H149.263L149.038 137.802C148.885 137.779 148.736 137.736 148.594 137.676C148.305 137.563 148.031 137.416 147.778 137.239C147.306 136.875 146.814 136.537 146.305 136.227C146.051 136.089 145.775 135.999 145.489 135.962C145.203 135.934 144.915 135.953 144.636 136.019C144.073 136.187 143.527 136.405 143.004 136.672C142.474 136.95 141.895 137.122 141.299 137.178C140.994 137.182 140.691 137.125 140.409 137.011C140.142 136.889 139.889 136.735 139.658 136.554C139.243 136.187 138.78 135.877 138.283 135.631C137.775 135.462 137.223 135.483 136.729 135.689C136.223 135.864 135.738 136.117 135.223 136.292C134.96 136.387 134.686 136.45 134.407 136.48C134.134 136.506 133.858 136.487 133.591 136.423C132.535 136.154 131.747 135.423 130.813 135.162C129.886 134.964 128.92 135.056 128.047 135.427C127.211 135.764 126.358 136.058 125.493 136.309C124.674 136.53 123.808 136.498 123.008 136.219C122.249 135.962 121.584 135.603 120.907 135.403C120.271 135.212 119.602 135.159 118.944 135.248C118.324 135.313 117.749 135.436 117.218 135.525C116.688 135.615 116.203 135.689 115.77 135.778C115.554 135.819 115.362 135.868 115.15 135.897C114.966 135.919 114.779 135.919 114.595 135.897C114.256 135.86 113.971 135.819 113.738 135.786L113.216 135.713C113.16 135.714 113.104 135.71 113.049 135.701Z" fill="#E6E8F3"/>
<path d="M119.842 145.321H119.964L120.319 145.358C120.629 145.391 121.086 145.452 121.674 145.542C122.853 145.701 124.53 146.052 126.655 146.227C127.807 146.322 128.964 146.301 130.111 146.166C130.76 146.088 131.416 146.088 132.066 146.166C132.409 146.213 132.743 146.31 133.057 146.456C133.373 146.616 133.671 146.811 133.946 147.035C134.501 147.443 135.028 147.986 135.709 148.19C136.049 148.29 136.41 148.29 136.749 148.19C137.105 148.081 137.451 147.944 137.786 147.782C138.139 147.602 138.517 147.476 138.908 147.406C139.323 147.347 139.745 147.438 140.099 147.663C140.805 148.092 141.266 148.806 141.984 149.108C142.702 149.41 143.522 149.226 144.261 149.01C144.998 148.731 145.769 148.551 146.554 148.475C146.949 148.466 147.342 148.549 147.7 148.716C148.042 148.883 148.359 149.098 148.643 149.352C149.143 149.857 149.709 150.293 150.324 150.65C150.943 150.903 151.638 150.903 152.257 150.65C152.886 150.454 153.461 150.148 154.089 150.005C154.695 149.837 155.34 149.886 155.913 150.144C156.181 150.284 156.399 150.504 156.537 150.772C156.651 151.023 156.747 151.282 156.823 151.547C156.892 151.788 157.011 152.011 157.174 152.2C157.334 152.373 157.535 152.503 157.757 152.58C158.178 152.712 158.63 152.712 159.051 152.58C159.417 152.464 159.75 152.26 160.018 151.984C160.245 151.751 160.444 151.49 160.609 151.209C160.831 150.816 161.022 150.407 161.18 149.985C161.238 149.85 161.278 149.74 161.311 149.654C161.324 149.616 161.342 149.578 161.364 149.544C161.358 149.585 161.347 149.624 161.331 149.663L161.221 150.001C161.079 150.437 160.897 150.859 160.679 151.262C160.52 151.559 160.322 151.833 160.091 152.078C159.814 152.371 159.47 152.591 159.087 152.718C158.643 152.866 158.165 152.874 157.716 152.739C157.469 152.659 157.246 152.519 157.068 152.331C156.882 152.129 156.743 151.89 156.66 151.629C156.583 151.373 156.489 151.122 156.378 150.878C156.252 150.64 156.057 150.445 155.819 150.319C155.279 150.085 154.674 150.047 154.11 150.213C153.514 150.348 152.935 150.654 152.294 150.862C151.966 150.975 151.624 151.042 151.278 151.062C150.915 151.075 150.554 151.006 150.222 150.858C149.589 150.496 149.007 150.051 148.492 149.536C148.219 149.296 147.918 149.092 147.594 148.928C147.262 148.778 146.901 148.705 146.537 148.712C145.772 148.789 145.021 148.966 144.301 149.238C143.916 149.363 143.52 149.451 143.118 149.499C142.703 149.549 142.281 149.492 141.894 149.332C141.099 148.985 140.634 148.259 139.981 147.871C139.668 147.67 139.292 147.589 138.924 147.643C138.555 147.709 138.197 147.828 137.863 147.998C137.52 148.172 137.164 148.318 136.798 148.434C136.421 148.546 136.021 148.546 135.644 148.434C134.893 148.202 134.363 147.659 133.816 147.239C133.554 147.022 133.27 146.835 132.967 146.68C132.67 146.54 132.354 146.445 132.029 146.399C131.395 146.323 130.754 146.323 130.119 146.399C128.962 146.526 127.795 146.539 126.635 146.435C124.509 146.239 122.828 145.864 121.653 145.68L120.303 145.456L119.952 145.403L119.842 145.321Z" fill="#E6E8F3"/>
<path d="M119.271 172.531L119.393 172.482L119.748 172.36C120.062 172.249 120.527 172.082 121.127 171.886C121.856 171.629 122.612 171.452 123.379 171.36C123.87 171.332 124.36 171.413 124.815 171.597C125.306 171.804 125.82 171.95 126.345 172.033C126.926 172.057 127.503 171.928 128.018 171.658C128.592 171.357 129.195 171.115 129.817 170.936C130.511 170.81 131.224 170.852 131.898 171.058C132.588 171.242 133.269 171.515 133.979 171.723C134.69 171.969 135.452 172.033 136.194 171.911C136.956 171.687 137.697 171.399 138.41 171.05C138.798 170.884 139.212 170.786 139.634 170.76C140.074 170.744 140.508 170.859 140.882 171.091C141.629 171.531 142.164 172.258 142.947 172.547C143.336 172.678 143.756 172.688 144.15 172.576C144.551 172.461 144.942 172.312 145.317 172.131C145.697 171.947 146.09 171.792 146.492 171.666C146.905 171.532 147.347 171.522 147.765 171.637C148.163 171.776 148.52 172.014 148.802 172.327C149.087 172.617 149.34 172.919 149.618 173.163C149.902 173.399 150.239 173.562 150.6 173.638C150.961 173.714 151.335 173.701 151.69 173.6C152.412 173.457 153.094 173.192 153.783 172.992C154.128 172.895 154.483 172.841 154.84 172.833C155.195 172.822 155.546 172.908 155.856 173.082C156.156 173.245 156.41 173.481 156.594 173.767C156.782 174.036 156.929 174.318 157.08 174.583C157.31 175.115 157.735 175.538 158.267 175.766C158.771 175.914 159.313 175.859 159.777 175.611C160.201 175.406 160.58 175.117 160.891 174.763C161.354 174.155 161.749 173.498 162.07 172.804C162.288 172.367 162.544 171.951 162.837 171.56C162.941 171.426 163.057 171.302 163.184 171.189C163.184 171.189 163.069 171.319 162.874 171.597C162.596 171.993 162.352 172.412 162.143 172.849C161.832 173.557 161.442 174.228 160.98 174.848C160.663 175.222 160.273 175.526 159.834 175.742C159.335 176.014 158.748 176.077 158.202 175.917C157.633 175.679 157.176 175.234 156.921 174.673C156.615 174.147 156.329 173.535 155.754 173.241C155.179 172.947 154.481 173.004 153.816 173.18C153.151 173.355 152.461 173.645 151.715 173.796C151.334 173.885 150.939 173.899 150.552 173.837C150.352 173.802 150.158 173.743 149.973 173.661C149.791 173.569 149.621 173.456 149.467 173.322C149.161 173.061 148.904 172.755 148.626 172.478C148.368 172.187 148.039 171.968 147.672 171.841C147.292 171.74 146.891 171.749 146.517 171.87C146.124 171.995 145.741 172.148 145.37 172.327C144.984 172.517 144.581 172.67 144.167 172.784C143.731 172.906 143.27 172.894 142.841 172.751C141.976 172.421 141.445 171.682 140.744 171.274C140.404 171.064 140.009 170.961 139.609 170.977C139.21 171 138.818 171.093 138.451 171.25C137.728 171.603 136.976 171.892 136.203 172.115C135.428 172.241 134.635 172.172 133.893 171.915C133.167 171.699 132.494 171.425 131.817 171.242C131.171 171.041 130.488 170.997 129.822 171.111C129.209 171.286 128.616 171.521 128.051 171.813C127.509 172.089 126.904 172.218 126.296 172.188C125.76 172.1 125.237 171.947 124.738 171.731C124.301 171.547 123.828 171.462 123.355 171.482C122.594 171.565 121.845 171.728 121.119 171.968L119.732 172.405L119.365 172.507C119.334 172.518 119.303 172.527 119.271 172.531Z" fill="#E6E8F3"/>
<path d="M142.192 162.425C142.12 162.483 142.042 162.534 141.959 162.576C141.728 162.702 141.488 162.811 141.241 162.902C140.322 163.239 139.334 163.341 138.365 163.2C138.044 163.152 137.728 163.078 137.418 162.98C137.096 162.878 136.774 162.731 136.447 162.592C136.123 162.441 135.768 162.368 135.411 162.38C135.036 162.436 134.682 162.587 134.383 162.821C134.061 163.049 133.746 163.322 133.375 163.551C133.184 163.668 132.979 163.759 132.763 163.82C132.652 163.849 132.539 163.865 132.425 163.869C132.31 163.886 132.193 163.886 132.078 163.869C131.147 163.751 130.405 163.135 129.593 162.727C129.215 162.495 128.775 162.382 128.332 162.404L128.177 162.425C128.127 162.437 128.078 162.454 128.03 162.474C127.929 162.503 127.833 162.547 127.745 162.604C127.569 162.72 127.409 162.857 127.267 163.012C126.994 163.354 126.694 163.673 126.37 163.967C126.194 164.11 125.985 164.206 125.762 164.244C125.54 164.28 125.312 164.247 125.109 164.151C124.753 163.942 124.456 163.648 124.244 163.294C124.048 162.983 123.831 162.686 123.595 162.404C123.372 162.173 123.101 161.992 122.802 161.873C122.504 161.755 122.183 161.701 121.861 161.715C121.323 161.753 120.81 161.96 120.397 162.306C120.062 162.552 119.773 162.854 119.544 163.2C119.344 163.487 119.229 163.825 119.213 164.175C119.198 164.085 119.198 163.992 119.213 163.902C119.247 163.636 119.339 163.381 119.483 163.155C119.707 162.798 119.995 162.484 120.331 162.229C120.761 161.858 121.296 161.631 121.861 161.58C122.207 161.559 122.553 161.613 122.876 161.738C123.199 161.862 123.492 162.055 123.734 162.302C123.975 162.587 124.197 162.887 124.399 163.2C124.594 163.523 124.866 163.792 125.191 163.983C125.364 164.061 125.556 164.087 125.744 164.057C125.932 164.027 126.106 163.943 126.247 163.816C126.558 163.526 126.849 163.216 127.116 162.886C127.269 162.712 127.443 162.558 127.635 162.429C127.737 162.366 127.847 162.315 127.961 162.278L128.132 162.221L128.312 162.196C128.795 162.172 129.275 162.291 129.691 162.539C130.507 162.947 131.258 163.563 132.102 163.669C132.512 163.715 132.925 163.616 133.269 163.388C133.62 163.176 133.938 162.906 134.273 162.674C134.58 162.415 134.959 162.254 135.359 162.212C135.759 162.171 136.162 162.251 136.517 162.441C136.847 162.588 137.157 162.731 137.467 162.849C137.767 162.948 138.074 163.025 138.385 163.078C139.333 163.226 140.302 163.148 141.213 162.849C141.857 162.612 142.18 162.404 142.192 162.425Z" fill="#E6E8F3"/>
<path d="M119.67 183.433C119.712 183.438 119.754 183.449 119.793 183.465L119.944 183.514L120.156 183.547C120.634 183.566 121.107 183.45 121.523 183.212C122.187 182.829 122.892 182.522 123.624 182.294C123.856 182.247 124.094 182.235 124.33 182.258C124.579 182.297 124.82 182.377 125.044 182.494C125.504 182.768 125.943 183.077 126.358 183.416C126.795 183.786 127.352 183.984 127.924 183.971C128.539 183.859 129.13 183.646 129.675 183.339C129.984 183.192 130.31 183.084 130.646 183.017C130.998 182.959 131.357 182.968 131.706 183.041C132.416 183.172 133.081 183.474 133.783 183.665C134.501 183.864 135.259 183.875 135.982 183.698C136.744 183.508 137.49 183.261 138.214 182.959C138.975 182.636 139.772 182.406 140.589 182.274C141.45 182.164 142.324 182.305 143.106 182.682C143.897 183.025 144.62 183.465 145.383 183.771C146.112 184.107 146.934 184.183 147.712 183.988C149.234 183.551 150.348 182.319 151.792 181.842C152.499 181.597 153.268 181.597 153.975 181.842C154.623 182.072 155.236 182.389 155.799 182.784C156.35 183.147 156.868 183.514 157.394 183.812C157.894 184.105 158.434 184.323 158.998 184.457C159.976 184.659 160.99 184.616 161.947 184.33C162.671 184.115 163.349 183.768 163.947 183.306C164.453 182.905 164.893 182.427 165.252 181.89C165.236 181.931 165.215 181.969 165.191 182.005L164.991 182.323C164.708 182.715 164.373 183.068 163.996 183.372C163.393 183.841 162.708 184.195 161.976 184.416C161.208 184.673 160.394 184.762 159.589 184.677C158.784 184.593 158.006 184.337 157.308 183.926C156.77 183.629 156.252 183.261 155.701 182.906C155.15 182.522 154.548 182.214 153.914 181.992C153.247 181.76 152.521 181.76 151.853 181.992C151.155 182.265 150.494 182.626 149.887 183.066C149.237 183.537 148.519 183.906 147.757 184.159C146.939 184.36 146.078 184.283 145.309 183.939C144.526 183.62 143.804 183.18 143.028 182.841C142.279 182.485 141.443 182.353 140.621 182.462C139.822 182.59 139.041 182.813 138.296 183.127C137.561 183.433 136.804 183.683 136.031 183.873C135.275 184.053 134.486 184.037 133.738 183.828C133.016 183.629 132.359 183.327 131.698 183.2C131.371 183.128 131.033 183.118 130.703 183.172C130.381 183.233 130.069 183.334 129.773 183.474C129.209 183.786 128.596 184.001 127.961 184.11C127.35 184.123 126.756 183.911 126.292 183.514C125.887 183.176 125.457 182.868 125.007 182.592C124.798 182.479 124.572 182.401 124.338 182.36C124.116 182.333 123.892 182.341 123.673 182.384C122.95 182.604 122.253 182.899 121.592 183.265C121.163 183.498 120.675 183.602 120.189 183.563C120.103 183.563 120.034 183.539 119.972 183.522L119.825 183.461C119.773 183.459 119.721 183.449 119.67 183.433Z" fill="#E6E8F3"/>
<path d="M120.678 113.281C120.678 113.281 120.801 113.428 121.086 113.648C121.5 113.959 121.981 114.168 122.49 114.26C123.299 114.399 124.124 114.416 124.938 114.309C125.415 114.273 125.929 114.224 126.48 114.232C127.065 114.228 127.646 114.332 128.194 114.538C128.774 114.799 129.338 115.095 129.883 115.423C130.174 115.585 130.478 115.721 130.793 115.831C131.12 115.929 131.459 115.984 131.8 115.994C132.529 115.991 133.256 115.909 133.967 115.75C134.738 115.574 135.532 115.513 136.321 115.57C137.144 115.717 137.925 116.041 138.61 116.521C139.295 117.01 140.072 117.355 140.895 117.537C141.319 117.583 141.749 117.554 142.164 117.451C142.584 117.33 142.993 117.174 143.388 116.986C144.197 116.553 145.044 116.193 145.917 115.909C146.376 115.79 146.855 115.762 147.325 115.827C147.783 115.913 148.224 116.077 148.626 116.313C149.422 116.761 150.099 117.341 150.878 117.7C151.645 118.045 152.499 118.15 153.326 118.002C154.129 117.862 154.919 117.658 155.689 117.39C156.434 117.139 157.2 116.954 157.978 116.839C158.72 116.753 159.471 116.8 160.197 116.978C161.469 117.347 162.712 117.807 163.918 118.353C164.91 118.791 165.998 118.963 167.076 118.854C167.892 118.787 168.691 118.585 169.442 118.259C170.086 117.984 170.658 117.565 171.115 117.035C171.013 117.183 170.895 117.319 170.764 117.443C170.391 117.811 169.954 118.11 169.475 118.324C168.719 118.665 167.913 118.88 167.088 118.961C166.573 119.017 166.053 119.017 165.538 118.961C164.962 118.883 164.399 118.726 163.865 118.495C162.662 117.961 161.423 117.512 160.156 117.153C159.45 116.982 158.719 116.939 157.998 117.027C157.233 117.148 156.48 117.334 155.746 117.582C154.968 117.854 154.17 118.064 153.359 118.21C152.491 118.362 151.598 118.253 150.793 117.896C149.977 117.52 149.299 116.933 148.524 116.5C148.146 116.278 147.732 116.122 147.3 116.039C146.859 115.979 146.409 116.006 145.978 116.121C145.117 116.401 144.283 116.757 143.485 117.186C143.075 117.378 142.649 117.537 142.212 117.659C141.773 117.769 141.316 117.798 140.866 117.745C140.015 117.561 139.211 117.204 138.504 116.696C137.844 116.231 137.091 115.915 136.296 115.77C134.726 115.599 133.249 116.247 131.808 116.178C131.451 116.165 131.097 116.103 130.756 115.994C130.433 115.887 130.12 115.75 129.822 115.586C129.284 115.258 128.728 114.961 128.157 114.697C127.039 114.252 125.909 114.391 124.962 114.448C124.14 114.546 123.307 114.517 122.494 114.362C121.977 114.259 121.492 114.033 121.082 113.701C120.927 113.583 120.791 113.441 120.678 113.281Z" fill="#E6E8F3"/>
<g opacity="0.3">
<path opacity="0.3" d="M151.282 117.973L157.043 121.959C155.211 126.5 156.905 132.804 158.496 137.961C159.112 139.968 161.156 142.041 161.054 144.155C160.952 146.268 162.714 149.818 160.683 150.348C159.336 150.703 157.872 150.242 156.75 149.418C155.664 148.539 154.755 147.462 154.073 146.244C150.026 139.699 148.137 127.182 151.282 117.973Z" fill="#0E1339"/>
</g>
<path d="M120.956 179.961C121.03 179.958 121.104 179.966 121.176 179.985L121.796 180.099L124.073 180.532C125.994 180.895 128.659 181.348 131.613 181.756C134.567 182.164 137.255 182.449 139.201 182.629L141.511 182.833L142.139 182.894C142.213 182.896 142.285 182.908 142.355 182.931C142.282 182.94 142.208 182.94 142.135 182.931L141.507 182.91C140.956 182.886 140.168 182.841 139.189 182.772C137.239 182.629 134.542 182.364 131.584 181.956C128.626 181.548 125.962 181.054 124.044 180.654C123.085 180.458 122.31 180.283 121.78 180.156L121.168 180.001C121.096 179.996 121.025 179.982 120.956 179.961Z" fill="#161B46"/>
<path d="M129.923 178.896C130.038 178.914 130.151 178.939 130.262 178.969C130.482 179.018 130.801 179.124 131.225 179.202C132.409 179.467 133.615 179.623 134.828 179.667C136.625 179.741 138.423 179.575 140.177 179.173C144.511 178.217 148.385 175.798 151.148 172.323C153.043 169.971 154.396 167.229 155.109 164.293C155.22 163.885 155.264 163.547 155.322 163.327C155.337 163.213 155.365 163.1 155.403 162.992C155.399 163.107 155.385 163.222 155.362 163.335C155.322 163.559 155.289 163.894 155.187 164.314C154.932 165.507 154.562 166.673 154.081 167.794C153.369 169.463 152.434 171.027 151.303 172.445C149.339 174.896 146.819 176.842 143.953 178.125C141.086 179.407 137.955 179.987 134.819 179.818C133.6 179.759 132.389 179.58 131.205 179.283C130.797 179.19 130.466 179.071 130.25 179.01C130.137 178.984 130.028 178.945 129.923 178.896Z" fill="#161B46"/>
<path d="M133.538 107.177C133.55 107.276 133.55 107.376 133.538 107.475C133.538 107.687 133.538 107.965 133.538 108.316C133.512 109.343 133.616 110.37 133.848 111.372C134.019 112.056 134.318 112.701 134.73 113.273C135.216 113.917 135.839 114.445 136.554 114.819C137.345 115.242 138.195 115.546 139.075 115.721C140.012 115.929 140.971 116.023 141.931 115.998C143.801 115.979 145.631 115.462 147.235 114.501C148.531 113.698 149.584 112.557 150.279 111.2C150.743 110.284 151.013 109.281 151.07 108.255C151.099 107.528 151.021 107.129 151.05 107.124C151.074 107.22 151.092 107.316 151.103 107.414C151.141 107.694 151.158 107.976 151.156 108.259C151.129 109.303 150.876 110.329 150.413 111.266C149.722 112.663 148.658 113.841 147.337 114.668C145.709 115.658 143.844 116.191 141.939 116.211C140.96 116.235 139.982 116.139 139.026 115.925C138.128 115.742 137.262 115.427 136.456 114.991C135.716 114.595 135.076 114.037 134.583 113.359C134.164 112.766 133.863 112.098 133.698 111.392C133.477 110.377 133.393 109.337 133.449 108.299C133.449 107.932 133.481 107.647 133.498 107.455C133.501 107.361 133.515 107.268 133.538 107.177Z" fill="#161B46"/>
<path d="M131.045 107.887C131.045 107.887 121.119 108.267 118.761 118.177C116.031 129.662 117.679 142.319 121.111 148.659L121.27 137.365C121.383 129.528 123.27 121.819 126.79 114.815L131.045 107.887Z" fill="#5C5F7E"/>
<path d="M119.377 140.474C119.358 140.36 119.35 140.244 119.352 140.128C119.352 139.883 119.352 139.552 119.32 139.136C119.287 138.72 119.295 138.177 119.32 137.565C119.344 136.953 119.32 136.252 119.389 135.485C119.413 135.096 119.438 134.688 119.462 134.261C119.491 133.853 119.544 133.408 119.585 132.955C119.662 132.049 119.809 131.09 119.948 130.099C120.301 127.913 120.772 125.747 121.36 123.612C121.972 121.484 122.703 119.392 123.546 117.345C123.954 116.406 124.33 115.513 124.742 114.701C124.942 114.293 125.121 113.885 125.317 113.522C125.513 113.159 125.705 112.792 125.888 112.453C126.239 111.768 126.611 111.172 126.917 110.641C127.223 110.111 127.504 109.666 127.733 109.303L128.279 108.487C128.338 108.387 128.407 108.293 128.483 108.206C128.434 108.311 128.378 108.414 128.316 108.512L127.81 109.344C127.582 109.711 127.308 110.16 127.014 110.699C126.721 111.237 126.358 111.829 126.015 112.518L125.46 113.591C125.268 113.967 125.093 114.366 124.897 114.774C124.489 115.59 124.126 116.48 123.726 117.414C122.042 121.499 120.838 125.765 120.14 130.128C119.993 131.131 119.838 132.086 119.756 132.984C119.711 133.436 119.654 133.869 119.622 134.289C119.589 134.709 119.56 135.105 119.536 135.493C119.467 136.26 119.458 136.957 119.434 137.565C119.409 138.173 119.401 138.704 119.401 139.136C119.401 139.569 119.401 139.883 119.401 140.128C119.403 140.244 119.395 140.36 119.377 140.474Z" fill="#161B46"/>
<path d="M123.918 110.401C123.889 110.493 123.849 110.583 123.799 110.666C123.702 110.854 123.579 111.102 123.42 111.408C123.081 112.045 122.624 112.987 122.09 114.162C121.833 114.758 121.535 115.386 121.274 116.109C121.139 116.464 120.984 116.827 120.866 117.206C120.748 117.586 120.597 117.981 120.458 118.385C119.872 120.141 119.393 121.929 119.022 123.742C118.387 127.048 118.08 130.409 118.104 133.775C118.104 135.068 118.136 136.113 118.173 136.835C118.173 137.182 118.198 137.459 118.202 137.671C118.214 137.768 118.214 137.865 118.202 137.961C118.182 137.866 118.169 137.769 118.165 137.671C118.165 137.463 118.124 137.186 118.096 136.855C118.034 136.133 117.985 135.085 117.957 133.791C117.89 130.411 118.178 127.033 118.818 123.714C119.18 121.887 119.659 120.086 120.25 118.32C120.393 117.912 120.531 117.524 120.658 117.141C120.784 116.757 120.956 116.398 121.094 116.043C121.368 115.333 121.678 114.693 121.943 114.101C122.494 112.93 122.975 111.996 123.338 111.368L123.746 110.645C123.796 110.559 123.853 110.477 123.918 110.401Z" fill="#161B46"/>
<path d="M163.118 111.71C163.118 111.71 156.448 129.858 161.364 145.166L161.633 150.581C161.633 150.581 157.872 150.323 155.028 144.954C152.184 139.585 151.262 134.036 150.299 126.043C149.336 118.051 153.714 107.875 153.714 107.875C153.714 107.875 161.482 109.589 163.118 111.71Z" fill="#5C5F7E"/>
<path d="M161.809 150.144C161.774 150.132 161.741 150.115 161.711 150.095L161.433 149.94C161.088 149.723 160.768 149.468 160.479 149.181C159.455 148.073 158.728 146.724 158.365 145.26C158.079 144.268 157.861 143.258 157.712 142.237C157.521 141.139 157.366 139.964 157.227 138.72C156.934 136.024 156.817 133.312 156.876 130.601C156.933 127.889 157.169 125.183 157.582 122.502C157.897 120.309 158.361 118.141 158.969 116.011C159.378 114.571 159.952 113.183 160.679 111.874C160.877 111.519 161.093 111.174 161.327 110.841L161.511 110.588L161.58 110.503C161.58 110.503 161.58 110.539 161.531 110.601L161.36 110.866C161.213 111.103 161.001 111.449 160.748 111.914C160.058 113.231 159.511 114.618 159.116 116.052C158.532 118.18 158.085 120.345 157.778 122.531C157.375 125.207 157.142 127.907 157.08 130.613C157.023 133.316 157.133 136.019 157.41 138.708C157.545 139.932 157.696 141.123 157.876 142.217C158.023 143.239 158.234 144.252 158.508 145.248C158.857 146.697 159.558 148.038 160.548 149.153C160.932 149.527 161.354 149.86 161.809 150.144Z" fill="#161B46"/>
<path d="M161.568 149.964C161.529 149.959 161.492 149.946 161.458 149.928L161.14 149.797C160.747 149.605 160.373 149.377 160.022 149.116C158.768 148.094 157.734 146.83 156.982 145.399C155.813 143.316 154.836 141.131 154.065 138.871C153.12 136.108 152.473 133.252 152.135 130.352C151.798 127.45 151.762 124.522 152.029 121.613C152.251 119.239 152.682 116.889 153.318 114.591C153.608 113.616 153.853 112.726 154.134 111.976C154.416 111.225 154.636 110.56 154.881 110.046C155.126 109.532 155.289 109.136 155.411 108.85C155.472 108.724 155.517 108.622 155.554 108.54C155.57 108.505 155.589 108.47 155.611 108.438C155.605 108.477 155.592 108.514 155.574 108.548L155.452 108.867C155.334 109.156 155.166 109.56 154.958 110.091C154.75 110.621 154.514 111.274 154.244 112.033C153.975 112.792 153.726 113.665 153.449 114.648C152.839 116.941 152.429 119.282 152.225 121.645C151.968 124.541 152.009 127.456 152.347 130.344C152.678 133.227 153.307 136.068 154.224 138.822C154.985 141.069 155.94 143.245 157.08 145.326C157.815 146.747 158.819 148.013 160.038 149.051C160.381 149.316 160.746 149.554 161.127 149.76L161.433 149.907L161.568 149.964Z" fill="#161B46"/>
<path d="M158.398 118.581L162.723 119.719L162.094 121.233L158.027 120.421L158.398 118.581Z" fill="#161B46"/>
<path d="M158.496 120.03C158.665 119.761 158.869 119.517 159.104 119.303L159.177 119.226L159.234 119.316C159.402 119.577 159.577 119.85 159.757 120.132L159.618 120.095L160.099 119.821C160.267 119.728 160.43 119.634 160.593 119.548L160.683 119.495L160.732 119.585L161.201 120.446L161.091 120.417C161.356 120.256 161.642 120.13 161.939 120.042C161.706 120.248 161.447 120.422 161.168 120.56L161.099 120.601L161.058 120.527C160.895 120.262 160.728 119.981 160.552 119.687L160.695 119.728L160.201 120.005L159.72 120.274L159.63 120.323L159.581 120.238L159.091 119.397H159.222C159.007 119.637 158.763 119.849 158.496 120.03Z" fill="#00ACE9"/>
<path d="M122.967 144.51L118.263 135.823H103.938L103.485 136.684L115.611 156.843L129.336 157.504L122.967 144.51Z" fill="#5C5F7E"/>
<path d="M177.578 149.299V164.481C177.577 165.85 177.272 167.201 176.685 168.437C176.098 169.673 175.243 170.764 174.183 171.629C172.899 172.677 171.356 173.359 169.717 173.605C168.078 173.85 166.404 173.65 164.869 173.025L131.445 158.21L134.709 147.064L161.597 155.925L161.568 149.014L177.578 149.299Z" fill="#936754"/>
<path d="M122.514 145.37L117.806 136.684H103.485L115.154 157.704L128.879 158.365L122.514 145.37Z" fill="#161B46"/>
<path d="M136.035 148.259L133.771 145.448C133.035 144.533 132.102 143.796 131.043 143.289C129.984 142.782 128.825 142.518 127.651 142.518H125.664L124.322 144.024C124.322 144.024 114.636 144.432 114.281 145.656V146.039V146.268L122.567 146.823C122.567 146.823 115.521 146.802 115.097 146.823C114.672 146.843 113.13 146.705 113.163 147.529C113.187 148.21 113.979 148.753 115.203 148.924C115.701 148.997 121.808 149.528 121.808 149.528L115.089 149.463C114.334 149.463 114.428 150.687 114.876 150.821C115.231 150.94 123.852 153.453 123.852 153.453C123.852 153.453 122.404 154.42 121.225 154.338C120.046 154.257 118.018 152.735 117.598 153.453C117.178 154.171 117.259 154.591 117.512 154.758C117.765 154.926 120.548 156.362 121.478 156.615C122.408 156.868 129.985 158.067 129.985 158.067L132.718 158.508L136.035 148.259Z" fill="#936754"/>
<path d="M105.488 140.075C105.488 140.075 103.991 140.597 104.75 142.523C105.476 144.292 106.504 145.921 107.789 147.337C107.723 147.651 107.743 147.978 107.849 148.282C107.955 148.585 108.141 148.854 108.389 149.059C108.389 149.059 107.328 149.324 107.981 151.099C107.881 151.355 107.835 151.629 107.844 151.904C107.854 152.179 107.92 152.449 108.038 152.697C108.156 152.946 108.324 153.167 108.531 153.348C108.738 153.53 108.98 153.667 109.242 153.751C109.242 153.751 108.712 155.277 110.633 156.003C112.555 156.729 114.411 155.472 114.411 155.472L105.488 140.075Z" fill="#936754"/>
<path d="M108.528 147.186C109.891 147.553 111.384 147.847 112.645 148.324C113.053 148.479 113.461 148.488 113.746 148.834C113.894 149.003 113.977 149.218 113.982 149.442C113.986 149.666 113.912 149.884 113.771 150.058C113.614 150.175 113.433 150.256 113.241 150.295C113.049 150.334 112.851 150.33 112.661 150.283C111.215 150.051 109.8 149.659 108.442 149.112" fill="#936754"/>
<path d="M109.071 149.459C110.429 149.826 111.927 150.115 113.183 150.597C113.591 150.752 113.999 150.76 114.285 151.107C114.433 151.275 114.516 151.49 114.52 151.714C114.525 151.938 114.45 152.157 114.309 152.331C114.152 152.447 113.971 152.527 113.779 152.566C113.588 152.605 113.39 152.601 113.2 152.555C111.754 152.317 110.339 151.919 108.981 151.368" fill="#936754"/>
<path d="M109.842 151.796C111.204 152.164 112.698 152.453 113.959 152.931C114.367 153.09 114.775 153.098 115.056 153.445C115.204 153.613 115.288 153.828 115.293 154.052C115.297 154.276 115.222 154.495 115.081 154.669C114.924 154.785 114.744 154.865 114.553 154.904C114.361 154.942 114.164 154.937 113.975 154.889C112.528 154.657 111.111 154.262 109.752 153.714" fill="#936754"/>
<path d="M108.528 149.153C108.528 149.095 109.511 149.43 110.719 149.765C111.927 150.099 112.918 150.315 112.91 150.372C112.145 150.344 111.388 150.207 110.662 149.964C109.917 149.792 109.199 149.519 108.528 149.153Z" fill="#7C5142"/>
<path d="M108.267 151.156C109.108 151.349 109.939 151.586 110.756 151.866C112.127 152.274 113.249 152.555 113.236 152.612C111.518 152.371 109.844 151.881 108.267 151.156Z" fill="#7C5142"/>
<path d="M109.16 153.734C109.952 153.823 110.734 153.981 111.498 154.208C112.279 154.369 113.045 154.597 113.787 154.889C112.995 154.801 112.213 154.643 111.449 154.416C110.667 154.258 109.901 154.03 109.16 153.734Z" fill="#7C5142"/>
<path d="M107.394 146.909C107.394 146.847 108.618 147.255 110.14 147.647C111.661 148.039 112.906 148.267 112.898 148.332C112.624 148.343 112.35 148.32 112.082 148.263C111.417 148.161 110.758 148.025 110.107 147.855C109.453 147.69 108.809 147.49 108.177 147.255C107.901 147.176 107.638 147.059 107.394 146.909Z" fill="#7C5142"/>
<path d="M121.025 144.155C122.16 144.04 123.3 143.997 124.44 144.024C125.574 143.982 126.709 144.011 127.839 144.11C126.71 144.223 125.574 144.266 124.44 144.236C123.301 144.281 122.16 144.254 121.025 144.155Z" fill="#7C5142"/>
<path d="M110.756 140.352C110.866 140.441 111.001 140.494 111.142 140.507C111.284 140.519 111.426 140.489 111.55 140.421C111.674 140.352 111.776 140.249 111.841 140.123C111.907 139.997 111.933 139.855 111.918 139.714C111.903 139.572 111.846 139.439 111.755 139.33C111.664 139.222 111.543 139.142 111.406 139.102C111.27 139.062 111.125 139.064 110.99 139.106C110.854 139.148 110.735 139.23 110.645 139.34C110.586 139.414 110.542 139.498 110.515 139.589C110.489 139.68 110.48 139.775 110.49 139.869C110.501 139.963 110.529 140.054 110.575 140.137C110.62 140.22 110.682 140.293 110.756 140.352Z" fill="#E6E8F3"/>
<path d="M159.854 155.534C159.966 155.524 160.078 155.536 160.185 155.57C160.482 155.623 160.775 155.697 161.062 155.791C162.976 156.403 164.662 157.574 165.905 159.153C166.093 159.389 166.264 159.637 166.419 159.895C166.529 160.079 166.582 160.181 166.57 160.189C166.558 160.197 166.28 159.818 165.787 159.246C164.505 157.752 162.861 156.612 161.013 155.934C160.303 155.672 159.846 155.566 159.854 155.534Z" fill="#7C5142"/>
<path d="M141.621 115.317C139.499 115.148 137.527 114.158 136.123 112.559C134.719 110.959 133.994 108.875 134.101 106.749C134.252 103.648 134.416 100.854 134.416 100.854C134.416 100.854 127.765 99.8172 127.684 93.175C127.602 86.5327 128.757 71.2654 128.757 71.2654C132.535 69.6424 136.678 69.0576 140.757 69.5711C144.837 70.0847 148.706 71.678 151.964 74.1866L152.947 74.9414L150.43 107.781C150.348 108.855 150.055 109.902 149.567 110.862C149.08 111.823 148.408 112.677 147.589 113.378C146.771 114.078 145.823 114.609 144.798 114.942C143.774 115.275 142.694 115.402 141.621 115.317Z" fill="#936754"/>
<path d="M134.403 100.776C137.47 100.838 140.485 99.9858 143.065 98.328C143.065 98.328 141.025 103.11 134.387 102.51L134.403 100.776Z" fill="#7C5142"/>
<path d="M130.397 81.6857C130.393 81.9333 130.487 82.1724 130.658 82.3516C130.829 82.5308 131.063 82.636 131.311 82.6445C131.432 82.6539 131.553 82.6391 131.668 82.6009C131.783 82.5628 131.889 82.502 131.981 82.4222C132.072 82.3423 132.146 82.2451 132.199 82.1362C132.252 82.0272 132.283 81.9087 132.29 81.7877C132.291 81.5407 132.197 81.3028 132.026 81.124C131.856 80.9453 131.623 80.8395 131.376 80.8289C131.255 80.8195 131.134 80.8343 131.019 80.8725C130.904 80.9107 130.797 80.9715 130.706 81.0513C130.615 81.1311 130.541 81.2283 130.487 81.3373C130.434 81.4462 130.403 81.5647 130.397 81.6857Z" fill="#161B46"/>
<path d="M130.013 80.6208C130.132 80.7432 130.829 80.2128 131.87 80.2128C132.91 80.2128 133.64 80.7268 133.751 80.6208C133.804 80.5636 133.685 80.3392 133.343 80.1026C132.9 79.7972 132.375 79.6349 131.837 79.6375C131.307 79.6368 130.79 79.8039 130.36 80.1148C130.062 80.3392 129.956 80.5636 130.013 80.6208Z" fill="#161B46"/>
<path d="M140.026 81.9264C140.023 82.1737 140.117 82.4122 140.288 82.5912C140.459 82.7702 140.692 82.8757 140.94 82.8852C141.06 82.8952 141.182 82.8808 141.297 82.8428C141.413 82.8048 141.519 82.7441 141.611 82.6642C141.702 82.5842 141.776 82.4868 141.829 82.3776C141.882 82.2684 141.913 82.1496 141.919 82.0284C141.921 81.7811 141.827 81.5426 141.656 81.3636C141.486 81.1846 141.252 81.0791 141.005 81.0696C140.884 81.0596 140.762 81.074 140.647 81.112C140.532 81.15 140.425 81.2107 140.334 81.2906C140.242 81.3706 140.168 81.468 140.115 81.5772C140.062 81.6865 140.032 81.8052 140.026 81.9264Z" fill="#161B46"/>
<path d="M140.05 80.8126C140.168 80.935 140.891 80.4046 141.911 80.4046C142.931 80.4046 143.677 80.9186 143.791 80.8126C143.844 80.7595 143.726 80.5351 143.383 80.2985C142.942 79.9911 142.416 79.8286 141.878 79.8334C141.346 79.8315 140.828 79.9987 140.397 80.3107C140.099 80.531 139.993 80.7554 140.05 80.8126Z" fill="#161B46"/>
<path d="M136.345 88.3851C136.345 88.3279 135.713 88.2178 134.685 88.0872C134.424 88.0587 134.179 88.0056 134.134 87.8302C134.112 87.5599 134.173 87.2895 134.31 87.055L135.081 85.068C136.15 82.2406 136.925 79.9191 136.811 79.8742C136.696 79.8293 135.738 82.0896 134.664 84.9171C134.409 85.6134 134.163 86.2798 133.926 86.9163C133.764 87.2317 133.716 87.5937 133.791 87.9403C133.829 88.0323 133.887 88.1144 133.961 88.1802C134.035 88.246 134.124 88.2938 134.22 88.3198C134.365 88.3597 134.514 88.3803 134.664 88.381C135.701 88.4381 136.341 88.4422 136.345 88.3851Z" fill="#161B46"/>
<path d="M139.352 89.0909C139.185 89.0909 139.181 90.1884 138.234 90.9758C137.288 91.7633 136.105 91.6409 136.097 91.7918C136.097 91.8612 136.358 92.0081 136.859 92.0203C137.508 92.0301 138.14 91.8105 138.642 91.4002C139.126 91.0057 139.437 90.4375 139.507 89.8171C139.536 89.352 139.426 89.0827 139.352 89.0909Z" fill="#161B46"/>
<path d="M139.789 76.8101C139.887 77.0875 140.907 76.9529 142.106 77.0998C143.306 77.2466 144.273 77.569 144.432 77.3201C144.501 77.2018 144.334 76.9406 143.942 76.6714C143.425 76.3357 142.834 76.1286 142.221 76.0675C141.607 75.9948 140.985 76.0675 140.405 76.2797C139.964 76.4592 139.744 76.6754 139.789 76.8101Z" fill="#161B46"/>
<path d="M130.389 77.6628C130.568 77.8953 131.27 77.6628 132.119 77.6628C132.967 77.6628 133.681 77.8219 133.844 77.5771C133.918 77.4588 133.804 77.2262 133.489 77.01C133.07 76.7448 132.581 76.6113 132.085 76.6265C131.589 76.6418 131.109 76.8052 130.707 77.0957C130.409 77.3119 130.307 77.5526 130.389 77.6628Z" fill="#161B46"/>
<path d="M152.131 81.8284C152.241 81.7795 156.697 80.478 156.55 85.0231C156.403 89.5682 151.874 88.4829 151.87 88.3524C151.866 88.2218 152.131 81.8284 152.131 81.8284Z" fill="#936754"/>
<path d="M153.314 86.6754C153.335 86.6754 153.392 86.7326 153.522 86.7978C153.707 86.8862 153.92 86.8979 154.114 86.8305C154.599 86.6714 155.028 85.9206 155.077 85.1046C155.101 84.7145 155.037 84.3239 154.889 83.9622C154.851 83.8187 154.779 83.6864 154.679 83.577C154.579 83.4675 154.453 83.3841 154.314 83.3339C154.223 83.3083 154.127 83.3146 154.041 83.3517C153.955 83.3889 153.884 83.4547 153.84 83.5379C153.775 83.6644 153.8 83.7542 153.775 83.7623C153.751 83.7705 153.681 83.6807 153.722 83.4971C153.754 83.385 153.821 83.2862 153.914 83.2156C154.042 83.1262 154.2 83.0897 154.355 83.1136C154.542 83.1562 154.715 83.2461 154.858 83.3746C155.001 83.5032 155.109 83.6661 155.171 83.848C155.351 84.247 155.431 84.684 155.403 85.121C155.346 86.0349 154.848 86.8794 154.179 87.0467C154.056 87.0781 153.927 87.0815 153.802 87.0568C153.677 87.0321 153.559 86.9799 153.457 86.9039C153.318 86.7856 153.298 86.6836 153.314 86.6754Z" fill="#7C5142"/>
<path d="M126.211 65.5289C126.696 64.5722 127.394 63.7393 128.25 63.0939C129.107 62.4485 130.1 62.0077 131.154 61.8053C132.207 61.6029 133.293 61.6442 134.328 61.9261C135.363 62.208 136.32 62.7231 137.125 63.4318C137.629 62.4258 138.373 61.559 139.29 60.9073C140.208 60.2556 141.271 59.839 142.387 59.694C143.503 59.5491 144.638 59.6801 145.692 60.0757C146.745 60.4713 147.686 61.1193 148.43 61.963C149.703 63.4073 150.364 65.3698 151.858 66.5856C153.147 67.6342 154.901 67.985 156.199 69.0336C156.919 69.6112 157.465 70.3762 157.778 71.2443C158.092 72.1124 158.159 73.0501 157.974 73.9543C157.789 74.8585 157.358 75.6941 156.729 76.3692C156.1 77.0444 155.297 77.5329 154.408 77.7811C155.836 80.3515 154.497 84.0358 151.756 85.0966L151.095 84.8232C149.859 83.4135 149.07 81.6684 148.828 79.8094C148.586 77.9504 148.902 76.0615 149.736 74.3825C149.656 74.3865 149.576 74.3865 149.495 74.3825C148.351 75.0183 147.013 75.2089 145.737 74.9174C144.461 74.6259 143.338 73.873 142.584 72.8035C141.663 73.4456 140.578 73.8116 139.456 73.8586C138.335 73.9056 137.223 73.6315 136.252 73.0687C135.968 72.8573 135.643 72.7098 135.297 72.6362C134.875 72.6417 134.462 72.7646 134.106 72.9912C133.123 73.5241 132.003 73.75 130.891 73.6399C130.376 73.5775 129.885 73.3868 129.463 73.0853C129.041 72.7837 128.701 72.381 128.475 71.9141C128.449 71.916 128.423 71.916 128.398 71.9141C127.761 71.7691 127.177 71.4525 126.708 70.9986C126.239 70.5447 125.903 69.9709 125.737 69.3396C125.417 68.0547 125.585 66.6963 126.211 65.5289Z" fill="#161B46"/>
</svg>
