<svg width="278" height="262" viewBox="0 0 278 262" fill="none" xmlns="http://www.w3.org/2000/svg">
<path d="M272.629 42.867L274.845 37.9451C276.722 33.6409 276.812 28.7673 275.095 24.3965C273.379 20.0257 269.997 16.5157 265.693 14.6387C261.388 12.7618 256.515 12.6715 252.144 14.3879C247.773 16.1043 244.263 19.4866 242.386 23.7909L240.121 28.803C237.827 28.1896 235.39 28.4186 233.251 29.4486C231.112 30.4785 229.413 32.2411 228.462 34.4166L215.772 63.6072C214.724 66.0159 214.677 68.742 215.639 71.1859C216.602 73.6297 218.496 75.5912 220.904 76.6387L251.207 89.8206C253.616 90.8653 256.341 90.9116 258.785 89.9493C261.228 88.9871 263.189 87.095 264.239 84.6882L276.94 55.4876C277.922 53.2249 278.024 50.6773 277.227 48.3431C276.43 46.0089 274.79 44.0562 272.629 42.867ZM247.318 68.6895L239.389 65.2412L243.118 60.0586C242.472 59.1239 242.146 58.0053 242.188 56.8699C242.231 55.7345 242.639 54.6433 243.353 53.7594C244.067 52.8756 245.048 52.2465 246.149 51.9663C247.25 51.6861 248.413 51.7697 249.462 52.2047C250.512 52.6397 251.392 53.4027 251.972 54.3797C252.553 55.3567 252.801 56.4952 252.68 57.625C252.56 58.7548 252.077 59.8152 251.303 60.6477C250.53 61.4803 249.508 62.0402 248.391 62.2439C247.99 64.7099 247.318 68.6895 247.318 68.6895ZM269.151 41.3033L243.659 30.2164L245.865 25.3446C247.356 22.0101 250.101 19.3976 253.506 18.0736C256.91 16.7495 260.7 16.8205 264.052 18.2713C267.404 19.722 270.05 22.4355 271.416 25.8236C272.781 29.2117 272.756 33.0014 271.346 36.3713L269.151 41.3033Z" fill="#E6E8F3"/>
<path d="M185.909 8.60414L184.676 5.7773C183.541 3.38432 181.511 1.53243 179.025 0.619581C176.538 -0.293265 173.793 -0.194207 171.378 0.895471C168.964 1.98515 167.073 3.97848 166.113 6.44709C165.152 8.91571 165.199 11.6626 166.242 14.0974L167.475 16.9744C166.336 17.7126 165.501 18.8358 165.122 20.1388C164.743 21.4418 164.845 22.8377 165.41 24.0716L172.898 40.6416C173.204 41.3186 173.641 41.9285 174.183 42.4365C174.726 42.9445 175.363 43.3406 176.058 43.6022C176.754 43.8638 177.494 43.9858 178.236 43.9611C178.979 43.9365 179.709 43.7656 180.386 43.4585L197.548 35.6696C198.915 35.0506 199.98 33.9144 200.51 32.5104C201.04 31.1064 200.991 29.5495 200.374 28.1815L192.886 11.6114C192.305 10.3331 191.268 9.31712 189.978 8.76121C188.689 8.20531 187.238 8.14932 185.909 8.60414ZM187.142 29.214L182.641 31.2188L181.87 27.6502C181.227 27.5633 180.629 27.2708 180.166 26.8163C179.703 26.3618 179.399 25.7697 179.3 25.1284C179.201 24.4871 179.312 23.831 179.617 23.2581C179.922 22.6852 180.403 22.2262 180.99 21.9496C181.577 21.673 182.238 21.5937 182.874 21.7235C183.51 21.8533 184.086 22.1853 184.518 22.6698C184.949 23.1544 185.213 23.7655 185.268 24.412C185.324 25.0585 185.169 25.7057 184.827 26.2568L187.142 29.214ZM183.915 9.47625L169.48 16.0522L168.257 13.2454C167.389 11.3285 167.318 9.14535 168.059 7.17615C168.801 5.20694 170.294 3.61299 172.211 2.74496C174.128 1.87693 176.311 1.80592 178.28 2.54754C180.25 3.28917 181.844 4.78268 182.712 6.69953L183.915 9.47625Z" fill="#F4F5FB"/>
<path d="M210.459 148.422C208.469 148.77 206.434 148.77 204.444 148.422C206.434 148.075 208.469 148.075 210.459 148.422Z" fill="#161B46"/>
<path d="M195.367 202.558C228.195 169.729 228.195 116.503 195.367 83.6747C162.538 50.8459 109.312 50.8459 76.483 83.6747C43.6542 116.503 43.6542 169.729 76.483 202.558C109.312 235.387 162.538 235.387 195.367 202.558Z" fill="#FAFAFF"/>
<path d="M219.992 143.12C219.992 143.12 219.992 142.658 219.932 141.756C219.871 140.854 219.932 139.511 219.751 137.747C219.411 132.629 218.609 127.553 217.355 122.58C216.439 118.991 215.284 115.468 213.897 112.034C212.274 107.939 210.319 103.983 208.053 100.206C202.517 90.98 195.278 82.8906 186.721 76.368C176.338 68.4789 164.255 63.124 151.436 60.7302C140.552 58.7333 129.384 58.8797 118.556 61.1613C114.748 61.9611 110.998 63.0126 107.329 64.3089C91.7431 69.9926 78.1888 80.1636 68.3749 93.5396C65.8122 97.0314 63.5264 100.718 61.5384 104.566C60.536 106.491 59.6338 108.486 58.7316 110.491C57.8294 112.495 57.0876 114.57 56.416 116.686C54.9937 120.901 53.9176 125.226 53.1982 129.617C52.4935 134.08 52.1249 138.591 52.0955 143.11C52.1295 147.628 52.4981 152.138 53.1982 156.602C53.9095 161.006 54.979 165.344 56.3959 169.574C57.0575 171.679 57.8996 173.724 58.7015 175.769C59.5035 177.813 60.4858 179.778 61.5183 181.693C63.5031 185.543 65.7891 189.23 68.3549 192.72C78.1794 206.091 91.7397 216.258 107.329 221.94C110.993 223.243 114.736 224.311 118.536 225.138C129.373 227.402 140.545 227.545 151.436 225.559C164.266 223.155 176.359 217.79 186.751 209.891C195.303 203.366 202.538 195.277 208.073 186.053C210.34 182.275 212.298 178.319 213.927 174.225C217.23 166.023 219.203 157.346 219.771 148.523C219.932 146.768 219.891 145.425 219.952 144.513C220.012 143.601 220.012 143.15 220.012 143.15C220.012 143.15 220.012 143.611 220.012 144.513C220.012 145.415 220.012 146.758 219.881 148.523C219.59 153.653 218.819 158.744 217.576 163.729C216.677 167.33 215.539 170.867 214.168 174.315C212.547 178.429 210.596 182.405 208.334 186.204C202.803 195.479 195.556 203.617 186.982 210.182C176.562 218.149 164.418 223.56 151.526 225.98C140.582 228.019 129.345 227.9 118.446 225.629C114.621 224.811 110.854 223.743 107.169 222.431C87.2691 215.204 70.8111 200.764 61.0572 181.974C60.0548 180.039 59.1326 178.024 58.2304 176.009C57.3282 173.994 56.5664 171.899 55.8947 169.774C54.4743 165.524 53.4015 161.166 52.687 156.742C51.2167 147.754 51.2167 138.586 52.687 129.597C53.4043 125.173 54.4805 120.815 55.9048 116.565C56.5764 114.44 57.4184 112.385 58.2304 110.33C59.0423 108.275 60.0247 106.321 61.0672 104.366C63.0681 100.516 65.3674 96.8295 67.9439 93.3391C77.8304 79.8932 91.4749 69.6737 107.159 63.9681C110.844 62.6535 114.611 61.582 118.436 60.7603C129.334 58.4882 140.572 58.369 151.516 60.4094C164.41 62.8324 176.557 68.2431 186.982 76.2077C195.556 82.7727 202.803 90.9103 208.334 100.186C210.596 103.985 212.547 107.961 214.168 112.074C215.539 115.523 216.677 119.059 217.576 122.66C218.818 127.646 219.59 132.737 219.881 137.867C220.022 139.621 219.972 140.964 220.012 141.877C220.052 142.789 219.992 143.12 219.992 143.12Z" fill="#161B46"/>
<path d="M103.162 134.577L103.612 134.018L103.855 133.711C103.945 133.594 104.017 133.459 104.107 133.314C104.337 132.982 104.531 132.625 104.683 132.25C104.773 132.043 104.881 131.827 104.971 131.592L105.214 130.826C105.307 130.547 105.376 130.26 105.421 129.969C105.475 129.663 105.565 129.356 105.592 129.023C105.77 127.494 105.752 125.949 105.538 124.425C104.884 120.253 103.598 116.206 101.723 112.424C99.3187 107.381 96.4605 102.567 93.1836 98.0438C89.2475 92.5362 84.9234 87.3176 80.2445 82.4281C74.9088 76.7814 69.1775 71.5237 63.0943 66.6951C59.882 64.1526 56.4898 61.6732 52.8906 59.3291C49.2374 56.9183 45.4323 54.7469 41.4991 52.8286C37.4463 50.8006 33.1573 49.2863 28.7309 48.3206C26.473 47.8386 24.1553 47.7018 21.8565 47.9148C20.7016 48.0434 19.5695 48.3285 18.4912 48.7623C17.4264 49.2302 16.4564 49.8904 15.6299 50.7098C14.8519 51.5716 14.2415 52.5715 13.8303 53.658C13.4487 54.7584 13.2127 55.9042 13.1284 57.0661C13.0197 59.3765 13.2624 61.69 13.8483 63.9273C14.9995 68.3304 16.6985 72.571 18.9051 76.5497C20.994 80.385 23.3294 84.0804 25.8966 87.6123C28.398 91.1015 31.0164 94.3923 33.6978 97.5299C38.7888 103.397 44.2852 108.898 50.1462 113.993C55.2371 118.448 60.6342 122.54 66.2976 126.237C70.9588 129.313 75.8889 131.96 81.0273 134.144C84.8821 135.848 88.9765 136.946 93.1656 137.399C94.6923 137.549 96.2323 137.498 97.7456 137.245C98.0488 137.192 98.3492 137.122 98.6454 137.038C98.9333 136.98 99.2162 136.898 99.4912 136.795L100.247 136.515C100.481 136.416 100.688 136.299 100.895 136.199C101.254 136.023 101.598 135.814 101.921 135.577C102.065 135.478 102.2 135.397 102.317 135.307L102.605 135.036L103.135 134.577L102.622 135.063L102.335 135.334C102.227 135.424 102.092 135.505 101.948 135.604C101.628 135.852 101.285 136.067 100.922 136.245C100.715 136.344 100.508 136.47 100.274 136.578L99.5182 136.858C99.2404 136.964 98.9546 137.049 98.6634 137.11C98.3674 137.198 98.067 137.27 97.7636 137.326C96.242 137.584 94.6936 137.645 93.1566 137.507C88.9551 137.065 84.8461 135.979 80.9733 134.288C75.8196 132.106 70.8743 129.46 66.1986 126.381C60.5161 122.691 55.1036 118.599 50.0022 114.137C44.1198 109.051 38.608 103.549 33.5089 97.6741C30.8095 94.5636 28.1911 91.2728 25.6806 87.7565C23.1046 84.1988 20.7631 80.4762 18.6712 76.6127C16.4529 72.6355 14.7419 68.3948 13.5783 63.9903C12.9865 61.7235 12.7438 59.3793 12.8585 57.039C12.9419 55.8548 13.184 54.6873 13.5783 53.5679C14.0061 52.4435 14.641 51.4098 15.4499 50.5204C16.3027 49.675 17.303 48.9936 18.4012 48.5099C19.5008 48.0545 20.6572 47.7511 21.8385 47.6083C24.1675 47.393 26.5157 47.5328 28.8029 48.023C33.2528 48.9767 37.5642 50.4915 41.6341 52.531C45.5781 54.4519 49.3924 56.6294 53.0525 59.0496C56.6517 61.4028 60.053 63.8912 63.2742 66.4337C69.3569 71.2792 75.0909 76.5486 80.4334 82.2027C85.1036 87.1111 89.4215 92.3444 93.3546 97.8635C96.6263 102.404 99.4812 107.233 101.885 112.289C103.749 116.093 105.018 120.162 105.646 124.352C105.848 125.884 105.848 127.437 105.646 128.969C105.609 129.288 105.552 129.604 105.475 129.915C105.431 130.222 105.358 130.524 105.259 130.817C105.178 131.087 105.097 131.34 105.016 131.583C104.935 131.827 104.809 132.043 104.719 132.25C104.552 132.619 104.353 132.972 104.125 133.305C104.035 133.45 103.954 133.594 103.864 133.711L103.612 134.009L103.162 134.577Z" fill="#00ACE9"/>
<path d="M121.266 94.753C121.266 94.753 121.266 94.5095 121.266 94.0497C121.266 93.9325 121.266 93.7973 121.266 93.653C121.266 93.5087 121.212 93.3555 121.185 93.1842C121.13 92.7855 121.036 92.3931 120.907 92.0121C120.844 91.7957 120.772 91.5613 120.691 91.3178C120.61 91.0744 120.475 90.849 120.358 90.5875C120.241 90.3183 120.102 90.059 119.944 89.8122C119.792 89.5289 119.624 89.2549 119.44 88.9917C118.556 87.7348 117.516 86.5956 116.345 85.6017C113.097 82.9147 109.455 80.7464 105.547 79.1733C100.401 77.0141 95.0705 75.3271 89.6205 74.1333C83.0228 72.6577 76.3298 71.6485 69.591 71.113C61.8605 70.4624 54.0936 70.3629 46.3491 70.8155C42.264 71.0589 38.08 71.4827 33.8419 72.1228C29.5134 72.7629 25.2305 73.6814 21.0197 74.8727C16.6483 76.0589 12.4432 77.7915 8.50353 80.0298C6.49755 81.1747 4.67711 82.6188 3.10473 84.3124C2.33166 85.1799 1.67801 86.1472 1.16117 87.1885C0.672034 88.2462 0.388047 89.3875 0.324354 90.5515C0.308512 91.7176 0.509916 92.8764 0.918225 93.9685C1.36341 95.0431 1.95052 96.0529 2.66384 96.9709C4.11549 98.7721 5.83287 100.341 7.75671 101.623C11.5193 104.124 15.5788 106.144 19.841 107.637C23.9573 109.112 28.1653 110.317 32.4382 111.243C36.6223 112.145 40.7703 112.884 44.8284 113.416C52.5264 114.399 60.284 114.836 68.0433 114.723C74.7999 114.669 81.5443 114.136 88.2258 113.128C93.729 112.321 99.1493 111.023 104.422 109.251C108.432 107.95 112.219 106.04 115.652 103.589C116.885 102.675 117.998 101.609 118.963 100.415C119.164 100.164 119.35 99.9025 119.521 99.6306C119.703 99.3986 119.86 99.1478 119.989 98.8823L120.376 98.179C120.475 97.9446 120.556 97.7192 120.646 97.5028C120.792 97.1309 120.91 96.7481 120.997 96.3578C120.997 96.1865 121.077 96.0332 121.104 95.898C121.131 95.7627 121.104 95.6185 121.149 95.5013C121.203 95.0415 121.239 94.798 121.239 94.798C121.239 94.798 121.239 95.0415 121.176 95.5103C121.176 95.6275 121.176 95.7537 121.176 95.898C121.15 96.0564 121.114 96.213 121.068 96.3668C120.994 96.765 120.879 97.1546 120.727 97.5299C120.646 97.7372 120.565 97.9717 120.466 98.2061C120.367 98.4405 120.214 98.6659 120.088 98.9183C119.954 99.1837 119.797 99.4371 119.62 99.6757C119.451 99.949 119.265 100.211 119.062 100.46C118.1 101.668 116.988 102.747 115.751 103.67C112.321 106.147 108.53 108.078 104.512 109.395C99.2227 111.205 93.7808 112.533 88.2528 113.362C81.5611 114.396 74.8047 114.953 68.0343 115.03C60.2662 115.145 52.4997 114.711 44.7925 113.732C40.7164 113.209 36.5683 112.505 32.3752 111.568C28.103 110.639 23.8951 109.434 19.778 107.961C15.4719 106.47 11.3721 104.437 7.57674 101.912C5.62742 100.617 3.88846 99.0297 2.42089 97.2053C1.68548 96.2697 1.0801 95.2385 0.621289 94.1398C0.199696 93.013 -0.0107834 91.8179 0.000425199 90.6146C0.080349 89.4112 0.385595 88.2337 0.900225 87.1435C1.42674 86.0799 2.09246 85.0914 2.87978 84.2042C4.47488 82.4907 6.31931 81.0286 8.35057 79.8675C12.3162 77.6194 16.5485 75.8807 20.9478 74.6924C25.1664 73.4938 29.4586 72.5722 33.7969 71.9334C38.053 71.2933 42.237 70.8786 46.3311 70.6352C54.0883 70.1909 61.8671 70.2994 69.6089 70.9597C76.3584 71.5047 83.0608 72.5291 89.6655 74.0252C95.1227 75.2302 100.459 76.9292 105.61 79.1012C109.52 80.697 113.162 82.8865 116.408 85.5927C117.577 86.5986 118.615 87.7499 119.494 89.0188C119.676 89.2863 119.844 89.5632 119.998 89.8483C120.157 90.0981 120.295 90.3604 120.412 90.6326C120.52 90.8941 120.637 91.1375 120.736 91.372C120.835 91.6064 120.889 91.8498 120.952 92.0662C121.08 92.4494 121.168 92.8454 121.212 93.2473C121.212 93.4186 121.275 93.5718 121.293 93.7251V94.1128C121.266 94.5185 121.266 94.753 121.266 94.753Z" fill="#00ACE9"/>
<path d="M100.868 43.6953C100.868 43.6953 100.67 43.5691 100.292 43.2987L99.9683 43.0642L99.5453 42.8388C99.2001 42.6371 98.8353 42.4709 98.4566 42.3429C98.2406 42.2618 98.0157 42.1717 97.7817 42.0995L96.9989 41.9102C96.7041 41.8327 96.403 41.7814 96.0991 41.7569C95.7932 41.7569 95.4783 41.6577 95.1453 41.6577C93.6122 41.5842 92.0759 41.7085 90.5743 42.0274C86.4634 42.9603 82.5188 44.517 78.8769 46.6436C74.0234 49.4003 69.4278 52.5898 65.146 56.1735C59.9361 60.4911 55.0379 65.1731 50.4883 70.1844C45.2487 75.9093 40.4198 81.9982 36.0375 88.4057C33.725 91.7957 31.4935 95.366 29.397 99.1167C27.25 102.935 25.3534 106.889 23.7192 110.955C21.9757 115.143 20.7664 119.536 20.12 124.028C19.7931 126.32 19.8173 128.649 20.192 130.934C20.3999 132.077 20.76 133.187 21.2628 134.234C21.8087 135.257 22.5341 136.173 23.4043 136.939C24.316 137.661 25.3532 138.208 26.4636 138.553C27.5835 138.861 28.7394 139.019 29.9008 139.021C32.2128 138.975 34.504 138.574 36.6943 137.831C40.984 136.376 45.0741 134.385 48.8686 131.908C52.5644 129.558 56.1022 126.968 59.4593 124.154C62.7615 121.449 65.8569 118.564 68.7632 115.67C74.2674 110.18 79.3789 104.308 84.0598 98.0979C88.1429 92.7017 91.8441 87.0257 95.1363 81.1117C97.8795 76.2428 100.174 71.1337 101.993 65.8476C103.43 61.8827 104.25 57.7196 104.422 53.5048C104.459 51.9704 104.302 50.4374 103.954 48.9427C103.891 48.6091 103.765 48.3115 103.684 48.0411C103.604 47.7599 103.502 47.4856 103.379 47.2206L103.055 46.4813C102.929 46.2559 102.803 46.0575 102.686 45.8592C102.487 45.5121 102.258 45.1833 102.002 44.8765C101.885 44.7412 101.795 44.606 101.696 44.4978L101.417 44.2273C101.084 43.9027 100.913 43.7224 100.913 43.7224L101.435 44.2093L101.723 44.4797C101.831 44.5977 101.933 44.7211 102.029 44.8494C102.294 45.1532 102.529 45.4823 102.731 45.8321C102.848 46.0215 102.983 46.2289 103.109 46.4543C103.235 46.6797 103.325 46.9321 103.441 47.1936C103.566 47.461 103.669 47.7384 103.747 48.023C103.861 48.3169 103.954 48.6181 104.026 48.9246C104.392 50.426 104.562 51.9686 104.53 53.5138C104.382 57.7472 103.581 61.9321 102.155 65.9198C100.349 71.2266 98.0629 76.357 95.3253 81.247C92.0406 87.1779 88.3422 92.8691 84.2578 98.2782C79.5777 104.503 74.4662 110.39 68.9612 115.895C66.0458 118.799 62.9505 121.648 59.6392 124.398C56.278 127.223 52.7341 129.822 49.0306 132.178C45.2171 134.671 41.1057 136.674 36.7933 138.138C34.5759 138.885 32.2578 139.29 29.9188 139.337C28.7327 139.34 27.5519 139.179 26.4096 138.859C25.262 138.506 24.1906 137.94 23.2513 137.191C22.3461 136.399 21.5955 135.445 21.0378 134.378C20.5221 133.309 20.1528 132.175 19.9401 131.006C19.5655 128.694 19.5412 126.338 19.8681 124.019C20.5166 119.507 21.7257 115.094 23.4673 110.883C25.1124 106.809 27.0179 102.846 29.172 99.0175C31.2685 95.2578 33.5091 91.6875 35.8305 88.2975C40.2291 81.8793 45.0793 75.784 50.3443 70.0581C54.9101 65.0435 59.8297 60.3641 65.065 56.0563C69.3559 52.4687 73.9673 49.2846 78.841 46.5444C82.4953 44.4167 86.4563 42.8686 90.5834 41.9553C92.094 41.6366 93.6399 41.5184 95.1813 41.6036C95.5143 41.6036 95.8292 41.6848 96.1351 41.7118C96.4385 41.7402 96.7393 41.7914 97.0349 41.8651L97.8268 42.0635C98.0697 42.1446 98.2857 42.2348 98.5016 42.3159C98.8824 42.4533 99.2498 42.6254 99.5994 42.8298C99.7433 42.92 99.8963 42.9831 100.013 43.0642L100.328 43.2987L100.868 43.6953Z" fill="#00ACE9"/>
<path d="M11.3804 112.768C11.4004 111.523 10.4096 110.498 9.16736 110.478C7.92515 110.458 6.90197 111.451 6.88203 112.696C6.86208 113.94 7.85291 114.966 9.09512 114.985C10.3373 115.005 11.3605 114.013 11.3804 112.768Z" fill="#00ACE9"/>
<path d="M73.0821 31.4066C73.0659 31.8516 72.9185 32.2818 72.6585 32.6429C72.3985 33.0041 72.0376 33.28 71.6213 33.4358C71.205 33.5916 70.7519 33.6204 70.3193 33.5185C69.8867 33.4166 69.4939 33.1885 69.1905 32.8632C68.8871 32.5378 68.6866 32.1297 68.6145 31.6903C68.5423 31.2509 68.6017 30.7999 68.7851 30.3943C68.9684 29.9886 69.2676 29.6465 69.6448 29.4111C70.022 29.1757 70.4604 29.0575 70.9046 29.0714C71.2009 29.0807 71.4923 29.1486 71.7623 29.2712C72.0323 29.3937 72.2754 29.5685 72.4778 29.7855C72.6801 30.0025 72.8377 30.2574 72.9414 30.5356C73.0451 30.8138 73.093 31.1098 73.0821 31.4066Z" fill="#00ACE9"/>
<path d="M12.5346 123.487C12.5323 123.562 12.5153 123.635 12.4846 123.703C12.454 123.771 12.4102 123.832 12.3559 123.883C12.3016 123.934 12.2378 123.974 12.1681 124.001C12.0984 124.027 12.0242 124.039 11.9497 124.037C11.8687 124.047 11.7864 124.04 11.7083 124.016C11.6302 123.992 11.5582 123.951 11.4969 123.897C11.4356 123.843 11.3866 123.776 11.353 123.702C11.3194 123.627 11.302 123.546 11.302 123.464C11.302 123.383 11.3194 123.302 11.353 123.227C11.3866 123.152 11.4356 123.086 11.4969 123.032C11.5582 122.978 11.6302 122.937 11.7083 122.913C11.7864 122.889 11.8687 122.882 11.9497 122.892C12.028 122.889 12.1059 122.903 12.1787 122.932C12.2514 122.961 12.3173 123.005 12.3723 123.061C12.4272 123.117 12.47 123.184 12.4979 123.257C12.5259 123.33 12.5384 123.409 12.5346 123.487Z" fill="#00ACE9"/>
<path d="M26.9225 60.7446C26.9188 60.859 26.8813 60.9697 26.8146 61.0627C26.7479 61.1556 26.6552 61.2266 26.5481 61.2666C26.4411 61.3066 26.3246 61.3138 26.2135 61.2873C26.1023 61.2607 26.0016 61.2017 25.924 61.1176C25.8465 61.0335 25.7957 60.9283 25.778 60.8152C25.7604 60.7021 25.7766 60.5863 25.8248 60.4825C25.873 60.3787 25.951 60.2916 26.0487 60.2323C26.1464 60.1731 26.2595 60.1442 26.3736 60.1496C26.4489 60.1519 26.5229 60.1691 26.5914 60.2004C26.6599 60.2317 26.7215 60.2764 26.7726 60.3318C26.8237 60.3872 26.8633 60.4522 26.889 60.5231C26.9147 60.5939 26.9261 60.6693 26.9225 60.7446Z" fill="#00ACE9"/>
<path d="M115.085 94.5366C115.095 94.6178 115.088 94.7003 115.064 94.7785C115.04 94.8567 114.999 94.9289 114.945 94.9903C114.891 95.0517 114.825 95.1008 114.75 95.1345C114.676 95.1682 114.595 95.1856 114.513 95.1856C114.432 95.1856 114.351 95.1682 114.276 95.1345C114.202 95.1008 114.136 95.0517 114.082 94.9903C114.027 94.9289 113.987 94.8567 113.963 94.7785C113.939 94.7003 113.932 94.6178 113.942 94.5366C113.96 94.3971 114.027 94.2689 114.132 94.1759C114.238 94.0829 114.373 94.0316 114.513 94.0316C114.654 94.0316 114.789 94.0829 114.894 94.1759C115 94.2689 115.067 94.3971 115.085 94.5366Z" fill="#00ACE9"/>
<path d="M118.324 68.1107C118.317 68.2621 118.251 68.4048 118.14 68.5077C118.029 68.6106 117.882 68.6656 117.73 68.6607C117.591 68.6431 117.463 68.5753 117.37 68.4699C117.277 68.3644 117.226 68.2287 117.226 68.0881C117.226 67.9476 117.277 67.8118 117.37 67.7064C117.463 67.601 117.591 67.5332 117.73 67.5156C117.809 67.5131 117.887 67.5268 117.96 67.5558C118.034 67.5848 118.1 67.6286 118.156 67.6843C118.211 67.7401 118.255 67.8067 118.284 67.88C118.313 67.9534 118.327 68.0319 118.324 68.1107Z" fill="#00ACE9"/>
<path d="M87.2451 62.3675L60.818 52.8646L34.6608 62.2412C31.3136 63.819 28.3622 64.7657 28.3622 67.8853V83.3747C28.3114 94.2769 31.2966 104.977 36.9823 114.273C42.6461 123.668 51.046 131.1 61.0519 135.568C71.7416 132.088 79.7318 122.811 84.6087 114.877C90.2991 105.592 93.2935 94.9015 93.2558 84.0059V70.022C93.2558 65.5772 90.9253 63.4043 87.2451 62.3675Z" fill="#00ACE9"/>
<path opacity="0.2" d="M61.0787 126.561C53.1506 122.976 46.5045 117.049 42.03 109.575C37.5348 102.221 35.1731 93.757 35.2095 85.1329V74.2416C35.2095 71.7712 36.6942 69.4631 39.6455 68.0837L60.8268 60.1496V52.8286L34.6696 62.2052C31.9162 63.4044 28.371 64.7297 28.371 67.8492V83.3748C28.3202 94.277 31.3054 104.977 36.9911 114.273C42.6549 123.668 51.0548 131.1 61.0608 135.568L61.0787 126.561Z" fill="#2D3259"/>
<path opacity="0.3" d="M61.0789 135.568C62.8731 134.985 64.6109 134.24 66.2707 133.341C70.3444 131.027 74.0454 128.109 77.2483 124.686C80.161 121.544 82.7254 118.095 84.8966 114.399C90.6501 105.036 93.555 94.1951 93.2557 83.2035V70.3918C93.2557 64.0084 89.9715 63.5396 87.2271 62.3315L60.7999 52.8286V60.1496L82.2242 68.2099C85.1755 69.5894 86.6602 71.8974 86.6602 74.3678V85.2592C86.6967 93.8832 84.3349 102.347 79.8397 109.702C75.4628 117.129 68.9003 123.018 61.0519 126.561L61.0789 135.568Z" fill="#2D3259"/>
<path opacity="0.3" d="M59.2973 99.3782C59.0828 99.3782 58.8754 99.3015 58.7124 99.1618L50.7402 92.3367C50.5588 92.1813 50.4465 91.96 50.4279 91.7216C50.4094 91.4832 50.4861 91.2472 50.6412 91.0654C50.7963 90.8837 51.0172 90.7712 51.2551 90.7526C51.493 90.734 51.7286 90.8108 51.9099 90.9663L59.1803 97.1963L70.1309 83.8166C70.2824 83.6313 70.5012 83.5139 70.7391 83.4902C70.9771 83.4665 71.2146 83.5385 71.3996 83.6904C71.5845 83.8422 71.7017 84.0614 71.7253 84.2999C71.7489 84.5383 71.6771 84.7763 71.5256 84.9616L59.9901 99.0446C59.9154 99.1382 59.8228 99.2159 59.7177 99.2731C59.6127 99.3304 59.4973 99.3661 59.3783 99.3782H59.2973Z" fill="#2D3259"/>
<path d="M40.7254 105.121C40.5067 104.789 40.3285 104.432 40.1945 104.057C39.8796 103.363 39.4657 102.344 39.0068 101.055C36.6381 94.3177 35.602 87.1823 35.9565 80.0479C36.0284 78.6864 36.1274 77.5865 36.2354 76.8292C36.2598 76.4319 36.3292 76.0386 36.4423 75.6571C36.4777 76.053 36.4777 76.4513 36.4423 76.8472C36.4423 77.6045 36.3434 78.7045 36.3164 80.0659C36.1387 87.1482 37.1641 94.2091 39.3487 100.947C39.7626 102.236 40.1225 103.282 40.3925 103.994C40.5402 104.358 40.6517 104.736 40.7254 105.121Z" fill="white"/>
<path d="M45.2424 111.388C45.1345 111.469 44.6845 111 44.2346 110.36C43.7847 109.72 43.5058 109.134 43.6138 109.052C43.7218 108.971 44.1717 109.44 44.6216 110.089C45.0715 110.738 45.3504 111.315 45.2424 111.388Z" fill="white"/>
<path d="M177.689 141.566C176.025 139.501 171.394 136.764 168.938 135.762L148.429 130.529L126.195 129.527L103.139 135.742L103.951 169.443L105.956 197.942L100.483 219.996C110.158 224.177 120.508 226.581 131.037 227.093H139.838C148.591 226.666 157.231 224.929 165.47 221.94L160.648 194.203L165.951 169.714L184.335 170.255C184.335 170.255 181.91 154.467 181.388 150.818C181.088 148.573 178.802 142.929 177.689 141.566Z" fill="#00ACE9"/>
<path d="M125.122 73.9021C124.682 73.0821 124.022 72.401 123.216 71.9349C122.411 71.4689 121.491 71.2364 120.561 71.2634C119.631 71.2905 118.726 71.576 117.949 72.0881C117.172 72.6002 116.553 73.3185 116.161 74.1627C115.928 74.9208 115.59 75.6428 115.158 76.3079C113.795 77.9619 110.667 77.3103 109.535 79.1047C108.402 80.899 110.707 83.5855 109.976 85.7407C109.384 87.4649 107.089 88.1265 106.477 89.8507C105.665 92.1262 108.322 94.5721 107.48 96.8676C106.788 98.8224 103.931 99.4038 103.38 101.409C102.758 103.624 105.384 105.599 105.234 107.884C105.004 110.821 100.443 112.175 100.683 115.102C100.823 116.726 102.467 117.888 102.688 119.502C103.049 122.51 98.2873 124.354 98.6783 127.381C98.8587 128.815 100.142 129.797 101.244 130.71C102.347 131.622 103.47 132.925 103.159 134.328C102.848 135.732 101.154 136.473 100.152 137.636C98.6783 139.411 100.583 144.363 102.638 145.405L111.79 139.391C111.79 139.391 109.394 137.145 111.479 135.381C113.564 133.617 112.331 132.624 112.341 131.161C112.341 131.161 114.206 132.925 113.344 134.599C113.031 135.251 112.888 135.97 112.926 136.692C112.965 137.414 113.184 138.114 113.564 138.729L127.378 133.396L129.543 120.775L125.122 73.9021Z" fill="#161B46"/>
<path d="M102.207 131.932C101.924 131.968 101.638 131.968 101.355 131.932C100.536 131.833 99.7515 131.548 99.0592 131.1C97.9452 130.386 97.1375 129.281 96.7937 128.003C96.5779 127.209 96.5437 126.376 96.6935 125.567C96.8713 124.674 97.211 123.821 97.6959 123.051C98.1871 122.229 98.7785 121.417 99.2396 120.515C99.7575 119.601 99.9946 118.555 99.9213 117.508C99.6243 116.419 99.1206 115.398 98.4377 114.5C98.0934 113.964 97.9284 113.332 97.9666 112.696C98.0128 112.368 98.1335 112.054 98.3194 111.78C98.5053 111.505 98.7515 111.277 99.0392 111.112C99.6016 110.797 100.184 110.519 100.783 110.28C101.363 110.058 101.867 109.676 102.237 109.177C102.395 108.91 102.498 108.613 102.54 108.305C102.581 107.996 102.56 107.683 102.477 107.383C102.319 106.739 102.054 106.126 101.696 105.569C101.345 105.007 100.924 104.446 100.583 103.824C100.207 103.217 99.9772 102.531 99.9113 101.82C99.8917 101.059 100.173 100.32 100.693 99.7647C101.209 99.2421 101.792 98.7904 102.427 98.4214C103.039 98.0614 103.617 97.6453 104.152 97.1784C104.654 96.727 104.972 96.1058 105.044 95.4342C105.052 94.7591 104.897 94.0919 104.593 93.4895C104.322 92.868 103.981 92.2665 103.72 91.6149C103.422 90.9916 103.304 90.2971 103.38 89.6101C103.435 89.2546 103.562 88.9138 103.751 88.6077C103.941 88.3204 104.167 88.0578 104.422 87.8258C105.425 86.9336 106.628 86.3522 107.199 85.2796C107.461 84.745 107.569 84.1479 107.51 83.5554C107.446 82.9653 107.332 82.3817 107.169 81.8112C106.754 80.7086 106.596 79.5257 106.708 78.3529C106.807 77.7795 107.093 77.2547 107.52 76.8592C107.935 76.497 108.435 76.2453 108.973 76.1275C109.976 75.8869 110.978 75.8969 111.93 75.7365C112.368 75.6928 112.792 75.5631 113.179 75.355C113.566 75.1468 113.908 74.8643 114.186 74.5236C114.687 73.862 114.988 73.0901 115.479 72.5187C116.18 71.7064 117.123 71.1404 118.17 70.904C119.216 70.6676 120.311 70.7733 121.293 71.2056C121.487 71.2948 121.671 71.4022 121.844 71.5263L122.015 71.6567C122.015 71.6567 121.774 71.4862 121.263 71.2657C120.517 70.9498 119.703 70.8291 118.897 70.9149C118.264 70.9661 117.648 71.1453 117.086 71.4417C116.525 71.7381 116.029 72.1454 115.629 72.639C115.168 73.2104 114.877 73.9823 114.346 74.6439C113.759 75.3783 112.905 75.8504 111.97 75.9571C111.028 76.1275 110.026 76.1275 109.033 76.3681C108.539 76.4792 108.08 76.7137 107.7 77.0497C107.32 77.4069 107.066 77.8785 106.978 78.393C106.882 79.5228 107.04 80.6598 107.439 81.721C107.622 82.3083 107.743 82.913 107.8 83.5254C107.87 84.1722 107.755 84.8255 107.47 85.4099C106.828 86.6128 105.555 87.1842 104.633 88.0463C104.402 88.2629 104.197 88.5051 104.021 88.7681C103.857 89.0354 103.745 89.3313 103.69 89.6402C103.622 90.2869 103.737 90.9398 104.021 91.5247C104.272 92.1462 104.603 92.7477 104.893 93.3892C105.216 94.0437 105.381 94.7647 105.374 95.4943C105.299 96.249 104.941 96.9472 104.372 97.4491C103.826 97.9318 103.235 98.3614 102.608 98.7322C101.999 99.0896 101.437 99.5206 100.934 100.015C100.471 100.508 100.222 101.164 100.242 101.84C100.304 102.511 100.52 103.16 100.874 103.734C101.204 104.336 101.605 104.887 101.976 105.478C102.35 106.064 102.625 106.708 102.788 107.383C102.961 108.062 102.86 108.782 102.508 109.388C102.1 109.94 101.544 110.364 100.904 110.611C100.321 110.838 99.7546 111.106 99.2096 111.413C98.9463 111.544 98.7181 111.736 98.5438 111.973C98.3695 112.211 98.2541 112.486 98.2071 112.776C98.1743 113.351 98.3291 113.921 98.6482 114.4C99.3481 115.341 99.8557 116.411 100.142 117.548C100.224 118.652 99.9722 119.755 99.4201 120.715C98.9289 121.648 98.3375 122.45 97.8463 123.261C97.3719 124.008 97.0326 124.833 96.8438 125.697C96.6981 126.476 96.7254 127.277 96.924 128.043C97.2506 129.275 98.0173 130.345 99.0793 131.05C99.7485 131.507 100.513 131.805 101.315 131.922C101.916 131.932 102.207 131.912 102.207 131.932Z" fill="#161B46"/>
<path d="M102.077 141.566C102.007 141.533 101.945 141.485 101.896 141.425C101.747 141.26 101.662 141.047 101.656 140.824C101.642 140.466 101.748 140.113 101.956 139.822C102.243 139.42 102.668 139.138 103.149 139.03C103.732 138.896 104.321 138.793 104.913 138.719C105.255 138.677 105.585 138.567 105.883 138.395C106.181 138.222 106.441 137.992 106.648 137.716C106.738 137.568 106.797 137.402 106.819 137.229C106.842 137.056 106.828 136.881 106.778 136.714C106.628 136.328 106.433 135.961 106.197 135.621C105.924 135.245 105.758 134.801 105.715 134.338C105.71 133.846 105.861 133.366 106.146 132.965C106.407 132.544 106.718 132.163 106.988 131.752C107.291 131.365 107.476 130.898 107.52 130.409C107.508 129.897 107.308 129.408 106.958 129.035C106.628 128.624 106.217 128.254 105.856 127.802C105.647 127.576 105.493 127.304 105.406 127.009C105.319 126.713 105.302 126.402 105.355 126.098C105.423 125.778 105.596 125.489 105.846 125.276C106.083 125.073 106.35 124.908 106.638 124.785C107.209 124.545 107.8 124.384 108.372 124.164C108.946 123.992 109.463 123.666 109.865 123.221C110.048 122.984 110.176 122.709 110.238 122.415C110.301 122.122 110.297 121.819 110.226 121.527C110.091 120.893 109.9 120.273 109.655 119.673C109.398 119.03 109.23 118.356 109.154 117.668C109.12 116.951 109.279 116.238 109.615 115.603C110.236 114.34 111.239 113.287 111.62 111.954C111.78 111.286 111.724 110.584 111.459 109.949C111.162 109.289 110.827 108.647 110.457 108.025C110.069 107.37 109.848 106.63 109.815 105.869C109.866 105.12 110.174 104.412 110.687 103.865C111.159 103.303 111.69 102.862 112.161 102.321C112.656 101.864 113.004 101.271 113.163 100.617C113.252 99.966 113.125 99.3041 112.803 98.7321C112.522 98.1307 112.161 97.5593 111.87 96.9579C111.512 96.3731 111.35 95.6891 111.407 95.0056C111.465 94.3222 111.74 93.6751 112.191 93.1587C112.552 92.6274 112.953 92.1562 113.244 91.6249C113.549 91.1272 113.673 90.5394 113.594 89.9609C113.404 88.8182 112.592 87.8659 112.432 86.673C112.366 86.0827 112.531 85.4899 112.893 85.019C113.242 84.6009 113.632 84.2182 114.056 83.8762C114.439 83.5638 114.776 83.1994 115.058 82.7936C115.308 82.3946 115.456 81.9402 115.489 81.4704C115.579 80.5281 115.429 79.6159 115.489 78.7338C115.59 77.9045 115.893 77.1127 116.371 76.4282C116.743 75.8787 117.225 75.4118 117.785 75.0565C118.346 74.7012 118.973 74.4652 119.629 74.3632C120.452 74.2243 121.297 74.2968 122.085 74.5737C122.361 74.661 122.624 74.7858 122.867 74.9446C122.867 74.9446 122.606 74.8043 122.065 74.6338C121.283 74.3941 120.455 74.3426 119.649 74.4835C119.016 74.5981 118.413 74.8392 117.876 75.1923C117.339 75.5454 116.878 76.0032 116.522 76.5384C116.068 77.1975 115.786 77.9587 115.7 78.7538C115.599 79.5959 115.77 80.5081 115.7 81.4904C115.661 82.0025 115.499 82.4977 115.228 82.9339C114.919 83.3572 114.559 83.741 114.156 84.0767C113.746 84.4029 113.373 84.7726 113.043 85.1794C112.719 85.5943 112.572 86.12 112.632 86.6429C112.762 87.7255 113.635 88.6477 113.805 89.9208C113.899 90.5601 113.768 91.2121 113.434 91.7653C113.123 92.3266 112.722 92.8178 112.372 93.3291C111.954 93.8016 111.7 94.3965 111.647 95.0251C111.595 95.6536 111.747 96.2824 112.081 96.8175C112.361 97.3989 112.732 97.9703 113.023 98.5918C113.369 99.2285 113.506 99.958 113.414 100.677C113.267 101.385 112.919 102.036 112.412 102.551C111.93 103.073 111.409 103.554 110.948 104.075C110.477 104.575 110.197 105.224 110.156 105.91C110.187 106.617 110.394 107.306 110.758 107.914C111.131 108.562 111.466 109.232 111.76 109.919C112.053 110.617 112.109 111.392 111.92 112.125C111.519 113.578 110.497 114.631 109.916 115.844C109.602 116.42 109.453 117.072 109.485 117.728C109.556 118.382 109.718 119.023 109.966 119.633C110.212 120.254 110.406 120.894 110.547 121.547C110.619 121.882 110.617 122.228 110.543 122.562C110.469 122.896 110.323 123.21 110.116 123.482C109.672 123.957 109.107 124.304 108.482 124.484C107.891 124.705 107.309 124.865 106.768 125.096C106.506 125.177 106.268 125.319 106.073 125.511C105.877 125.703 105.731 125.938 105.645 126.199C105.593 126.461 105.606 126.732 105.681 126.988C105.756 127.245 105.891 127.479 106.076 127.672C106.417 128.103 106.828 128.474 107.179 128.915C107.56 129.336 107.777 129.881 107.79 130.449C107.734 130.987 107.533 131.499 107.209 131.932C106.918 132.343 106.608 132.724 106.357 133.125C106.092 133.486 105.948 133.921 105.946 134.368C105.986 134.795 106.139 135.203 106.387 135.551C106.628 135.906 106.823 136.29 106.968 136.694C107.035 136.895 107.056 137.108 107.03 137.317C107.004 137.527 106.932 137.729 106.818 137.907C106.589 138.189 106.307 138.424 105.987 138.596C105.667 138.768 105.315 138.874 104.954 138.909C104.361 138.969 103.772 139.06 103.189 139.18C102.732 139.271 102.325 139.528 102.047 139.902C101.845 140.178 101.736 140.512 101.736 140.854C101.741 140.99 101.775 141.123 101.833 141.245C101.892 141.367 101.975 141.476 102.077 141.566Z" fill="#737690"/>
<g opacity="0.3">
<path opacity="0.3" d="M164.468 212.247C163.613 199.755 160.15 187.582 154.303 176.51C151.626 171.438 148.098 166.326 142.745 164.271C136.901 162.015 130.084 164.03 125.183 167.93C120.281 171.829 116.963 177.332 114.015 182.856C108.324 193.604 103.517 204.798 99.6407 216.327L101.525 217.81C105.535 218.372 109.625 216.647 112.622 213.921C115.523 211.073 117.776 207.633 119.228 203.836C120.812 200.107 122.015 196.228 123.649 192.519C124.79 189.548 126.65 186.907 129.062 184.83C131.578 182.906 135.147 182.094 137.973 183.527C139.877 184.629 141.337 186.358 142.103 188.419C142.855 190.467 143.478 192.559 143.968 194.684C145.66 200.671 148.752 206.169 152.99 210.723C154.794 212.775 156.989 214.449 159.445 215.645C160.869 216.277 162.773 216.577 163.796 215.404C164.111 214.948 164.332 214.435 164.447 213.893C164.562 213.351 164.569 212.791 164.468 212.247Z" fill="#2D3259"/>
</g>
<path d="M151.125 85.2195C151.145 84.2213 150.785 83.2528 150.119 82.5089C149.454 81.765 148.531 81.3008 147.537 81.2098L126.486 76.1375C119.749 75.506 115.379 83.8361 115.028 90.5925C114.637 98.1006 114.467 107.273 115.419 112.856C117.334 124.094 125.974 125.427 125.974 125.427C125.974 125.427 125.864 128.895 125.814 133.797C125.799 135.383 126.103 136.956 126.707 138.423C127.312 139.889 128.205 141.219 129.333 142.334C130.462 143.448 131.803 144.324 133.277 144.911C134.751 145.497 136.328 145.781 137.913 145.746C140.933 145.679 143.812 144.46 145.963 142.34C148.113 140.219 149.372 137.357 149.481 134.338L151.125 85.2195Z" fill="#B78876"/>
<path d="M118.988 99.2534C118.987 99.6311 119.135 99.9938 119.4 100.264C119.664 100.533 120.023 100.689 120.401 100.697C120.585 100.709 120.769 100.684 120.943 100.624C121.117 100.563 121.277 100.469 121.413 100.345C121.55 100.222 121.66 100.072 121.737 99.9054C121.815 99.7384 121.858 99.5576 121.865 99.3737C121.865 98.9987 121.718 98.6386 121.455 98.3706C121.193 98.1026 120.836 97.9481 120.461 97.9402C120.277 97.9266 120.093 97.9501 119.919 98.0093C119.744 98.0684 119.584 98.162 119.446 98.2845C119.309 98.407 119.197 98.5559 119.118 98.7224C119.04 98.8888 118.995 99.0694 118.988 99.2534Z" fill="#161B46"/>
<path d="M117.273 94.6523C117.464 94.8427 118.546 94.0208 120.1 94.0107C121.654 94.0007 122.797 94.7525 122.957 94.5621C123.118 94.3716 122.857 94.141 122.356 93.7902C121.682 93.3266 120.878 93.088 120.06 93.1085C119.253 93.1114 118.469 93.3752 117.825 93.8604C117.354 94.2413 117.193 94.5721 117.273 94.6523Z" fill="#161B46"/>
<path d="M133.954 99.8348C133.959 100.214 134.113 100.576 134.384 100.843C134.654 101.109 135.018 101.258 135.397 101.258C135.581 101.27 135.766 101.246 135.941 101.185C136.115 101.125 136.276 101.031 136.413 100.907C136.55 100.784 136.661 100.634 136.74 100.467C136.819 100.3 136.863 100.119 136.871 99.9351C136.871 99.5591 136.724 99.1979 136.462 98.9283C136.2 98.6587 135.843 98.502 135.467 98.4916C135.279 98.4751 135.089 98.4973 134.909 98.5568C134.729 98.6163 134.563 98.7118 134.422 98.8375C134.28 98.9632 134.165 99.1165 134.085 99.288C134.004 99.4594 133.96 99.6455 133.954 99.8348Z" fill="#161B46"/>
<path d="M132.55 95.5043C132.731 95.6848 133.823 94.8628 135.377 94.8528C136.931 94.8427 138.074 95.6046 138.234 95.4041C138.394 95.2036 138.134 94.9831 137.633 94.6322C136.96 94.1753 136.164 93.9368 135.351 93.9493C134.538 93.9619 133.749 94.2249 133.092 94.7024C132.62 95.0733 132.47 95.4141 132.55 95.5043Z" fill="#161B46"/>
<path d="M127.047 107.082C126.228 106.828 125.378 106.683 124.521 106.651C124.13 106.651 123.749 106.541 123.679 106.27C123.647 105.863 123.734 105.456 123.929 105.098L125.072 102.09C126.646 97.7698 127.789 94.2212 127.608 94.1611C127.428 94.1009 126.014 97.5493 124.441 101.87L123.348 104.877C123.109 105.362 123.042 105.913 123.158 106.441C123.218 106.58 123.308 106.703 123.423 106.802C123.537 106.901 123.673 106.973 123.819 107.012C124.039 107.064 124.265 107.091 124.491 107.092C125.34 107.198 126.199 107.195 127.047 107.082Z" fill="#161B46"/>
<path d="M125.934 125.457C131.239 125.478 136.445 124.024 140.971 121.257C140.971 121.257 137.262 129.035 125.934 128.113V125.457Z" fill="#995037"/>
<path d="M131.768 91.4646C131.929 91.8856 133.473 91.6651 135.297 91.8655C137.121 92.066 138.605 92.5472 138.846 92.1663C138.946 91.9758 138.685 91.5848 138.084 91.1638C137.292 90.6618 136.391 90.3559 135.457 90.2717C134.523 90.175 133.579 90.2986 132.701 90.6325C132.039 90.9333 131.698 91.234 131.768 91.4646Z" fill="#161B46"/>
<path d="M117.805 90.8832C118.085 91.234 119.148 90.8832 120.441 90.823C121.734 90.7629 122.817 91.0335 123.057 90.6626C123.168 90.4822 122.997 90.1314 122.516 89.8006C121.877 89.3861 121.122 89.186 120.361 89.2292C119.604 89.2503 118.872 89.506 118.266 89.9609C117.835 90.3519 117.684 90.7128 117.805 90.8832Z" fill="#161B46"/>
<path d="M123.749 75.8067C123.007 77.16 125.584 79.8866 127.017 80.4579C128.45 81.0293 130.345 80.889 131.027 82.2523C131.839 83.806 129.874 86.1317 132.821 87.936C133.753 88.5074 135.217 87.515 135.979 88.2869C136.921 89.2893 135.538 90.7629 135.508 92.1061C135.437 94.7325 140.189 95.2036 140.359 97.82C140.459 99.4639 138.555 100.917 139.096 102.471C139.638 104.025 142.274 104.075 142.835 105.659C143.547 107.664 140.079 109.238 140.379 111.383C140.68 113.528 144.189 113.698 144.78 115.753C145.281 117.518 143.226 119.292 143.778 121.026C144.419 123.031 147.717 122.921 148.489 124.865C149.421 127.201 145.662 129.627 146.765 131.882C147.136 132.634 148.058 132.945 148.569 133.617C150.243 135.772 149.822 140.243 147.877 141.927L149.201 141.987C151.186 142.061 153.159 141.642 154.944 140.767C156.728 139.893 158.268 138.59 159.425 136.975L160.378 139.581C163.956 138.669 166.823 136.524 169.78 134.318C170.512 133.774 171.365 133.415 172.266 133.272C173.166 133.129 174.088 133.206 174.953 133.496L175.715 133.747C178.358 133.88 180.981 133.228 183.253 131.872C180.687 131.201 179.454 128.294 178.953 125.697C178.451 123.101 178.221 120.214 176.386 118.299C174.382 116.234 170.783 115.583 169.971 112.836C169.339 110.671 170.883 108.335 170.322 106.16C169.76 103.985 167.314 102.742 166.402 100.637C165.229 97.7698 167.405 94.1912 165.821 91.5147C164.127 88.5976 159.155 88.728 157.932 85.5904C157.25 83.8562 158.012 81.5807 156.749 80.2274C155.746 79.1347 153.912 79.225 152.839 78.1624C151.276 76.6387 152.248 73.7617 150.905 72.0275C149.1 69.7019 145.021 71.4261 142.625 69.7119C141.121 68.6293 140.72 66.4541 139.227 65.3414C137.222 63.8277 134.385 64.9304 131.959 65.6221C130.084 66.1634 128.13 66.414 126.305 67.0956C125.371 67.384 124.505 67.8598 123.76 68.4941C123.016 69.1283 122.408 69.9077 121.975 70.7845C121.233 72.5889 121.895 75.0348 123.699 75.7967" fill="#161B46"/>
<path d="M180.366 122.77L180.536 122.941C180.657 123.061 180.817 123.231 181.028 123.482C181.288 123.795 181.519 124.13 181.719 124.484C182.01 124.944 182.189 125.466 182.241 126.008C182.261 126.353 182.211 126.698 182.092 127.023C181.973 127.347 181.788 127.643 181.549 127.893C181.406 128.048 181.234 128.173 181.042 128.261C180.851 128.349 180.644 128.398 180.433 128.406C180.222 128.413 180.012 128.379 179.815 128.305C179.617 128.23 179.437 128.117 179.283 127.973C178.67 127.249 178.345 126.325 178.371 125.377C178.377 124.345 178.441 123.314 178.562 122.289C178.682 121.217 178.842 120.094 179.063 118.931C179.173 118.36 179.293 117.768 179.434 117.167C179.582 116.573 179.656 115.964 179.654 115.352C179.657 115.049 179.591 114.748 179.461 114.474C179.33 114.2 179.14 113.958 178.903 113.769C178.36 113.433 177.724 113.278 177.088 113.327C176.397 113.367 175.704 113.367 175.013 113.327C174.644 113.306 174.284 113.205 173.957 113.032C173.63 112.859 173.344 112.618 173.119 112.325C172.724 111.677 172.532 110.927 172.567 110.17C172.592 109.42 172.693 108.674 172.868 107.944C173.026 107.224 173.09 106.486 173.058 105.749C173.038 105.385 172.942 105.029 172.779 104.703C172.615 104.377 172.386 104.088 172.106 103.855C171.477 103.409 170.805 103.026 170.101 102.712C169.356 102.329 168.75 101.723 168.367 100.978C167.775 99.4259 167.605 97.7446 167.876 96.1058C167.941 95.3018 167.941 94.4939 167.876 93.6899C167.82 92.9068 167.572 92.1495 167.154 91.4846C166.272 90.1915 164.758 89.5499 163.395 88.8382C162.683 88.499 162.011 88.0821 161.39 87.5952C160.776 87.0932 160.332 86.4142 160.117 85.6505C159.978 84.917 159.91 84.1717 159.917 83.4251C159.933 82.7338 159.69 82.0615 159.235 81.5406C158.718 81.0964 158.091 80.7988 157.421 80.6785C156.734 80.543 156.063 80.3415 155.416 80.077C154.774 79.7772 154.272 79.2426 154.012 78.5834C153.798 77.9374 153.7 77.2587 153.722 76.5785C153.844 75.3776 153.693 74.1645 153.281 73.03C152.748 72.0541 151.895 71.2925 150.865 70.8748C149.935 70.4732 148.947 70.226 147.938 70.143C146.935 70.0327 146.053 69.9926 145.201 69.9124C144.401 69.8478 143.609 69.7068 142.835 69.4914C142.187 69.3032 141.571 69.0158 141.011 68.6393C140.208 68.1397 139.584 67.3995 139.227 66.5242C139.101 66.205 139.036 65.8649 139.036 65.5218C139.088 65.8402 139.172 66.1526 139.287 66.4541C139.665 67.2907 140.291 67.9907 141.081 68.4589C141.638 68.8198 142.246 69.0936 142.885 69.2709C143.65 69.4739 144.432 69.6015 145.221 69.6518C146.063 69.732 146.985 69.7621 147.958 69.8623C148.994 69.9386 150.01 70.1859 150.965 70.5941C152.048 71.0311 152.947 71.8276 153.511 72.8495C153.949 74.0164 154.113 75.268 153.992 76.5084C153.98 77.138 154.075 77.7651 154.273 78.3629C154.512 78.9529 154.968 79.4296 155.546 79.6961C156.171 79.9491 156.819 80.1404 157.481 80.2675C158.212 80.3978 158.894 80.7234 159.455 81.2098C159.973 81.7791 160.253 82.5253 160.237 83.2948C160.234 84.0209 160.298 84.7457 160.428 85.46C160.63 86.1567 161.039 86.7754 161.601 87.2343C162.195 87.7057 162.841 88.1092 163.525 88.4372C164.217 88.7881 164.929 89.1289 165.61 89.5499C166.349 89.966 166.986 90.5413 167.475 91.234C167.927 91.9383 168.196 92.7448 168.257 93.5797C168.327 94.4069 168.327 95.2385 168.257 96.0657C167.999 97.647 168.162 99.2683 168.728 100.767C169.075 101.452 169.634 102.008 170.322 102.351C171.041 102.683 171.728 103.079 172.377 103.534C172.688 103.796 172.942 104.119 173.125 104.482C173.308 104.846 173.414 105.243 173.439 105.649C173.47 106.416 173.403 107.184 173.239 107.934C173.062 108.643 172.961 109.369 172.938 110.1C172.89 110.803 173.062 111.503 173.429 112.105C173.626 112.372 173.878 112.593 174.169 112.752C174.46 112.911 174.782 113.005 175.113 113.027C175.781 113.071 176.451 113.071 177.118 113.027C177.824 112.979 178.526 113.158 179.123 113.538C179.393 113.752 179.61 114.025 179.757 114.336C179.905 114.647 179.979 114.988 179.975 115.332C179.976 115.968 179.899 116.601 179.745 117.217C179.604 117.818 179.474 118.4 179.364 118.971C179.133 120.124 178.963 121.237 178.842 122.309C178.718 123.307 178.647 124.311 178.632 125.316C178.594 126.216 178.891 127.098 179.464 127.792C179.755 128.054 180.135 128.194 180.526 128.183C180.906 128.166 181.264 128.005 181.529 127.732C181.756 127.5 181.933 127.223 182.05 126.92C182.167 126.617 182.222 126.293 182.211 125.968C182.164 125.444 181.999 124.936 181.729 124.484C181.532 124.135 181.311 123.8 181.068 123.482L180.607 122.921C180.406 122.84 180.356 122.77 180.366 122.77Z" fill="#161B46"/>
<path d="M154.894 137.596L155.205 137.486C155.416 137.406 155.726 137.305 156.117 137.135C156.595 136.933 157.023 136.628 157.37 136.243C157.594 135.98 157.743 135.661 157.801 135.321C157.859 134.981 157.825 134.631 157.701 134.308C157.606 134.129 157.477 133.97 157.32 133.841C157.164 133.712 156.983 133.615 156.789 133.556C156.378 133.406 155.917 133.316 155.446 133.135C155.201 133.04 154.981 132.889 154.804 132.694C154.621 132.475 154.521 132.198 154.523 131.912C154.598 131.349 154.823 130.815 155.175 130.369C155.514 129.908 155.734 129.371 155.817 128.805C155.899 128.21 155.82 127.604 155.586 127.051C155.32 126.455 154.879 125.955 154.323 125.615C153.766 125.275 153.12 125.111 152.469 125.146H152.338V125.016C152.403 124.018 152.79 123.068 153.441 122.309C154.1 121.534 154.691 120.702 155.205 119.823C155.446 119.365 155.596 118.865 155.646 118.35C155.697 117.834 155.558 117.317 155.255 116.896C154.614 116.054 153.441 115.803 152.408 115.252C151.846 114.983 151.395 114.526 151.135 113.959C150.931 113.357 150.967 112.7 151.236 112.125C151.677 110.992 152.489 109.999 152.509 108.817C152.5 108.232 152.295 107.667 151.927 107.213C151.55 106.734 151.1 106.318 150.594 105.98C149.473 105.356 148.401 104.649 147.386 103.865C146.751 103.325 146.334 102.574 146.213 101.749C146.149 100.947 146.273 100.14 146.574 99.3938C146.825 98.662 147.136 97.9603 147.316 97.2385C147.416 96.8897 147.466 96.5287 147.466 96.1659C147.453 95.8144 147.357 95.4709 147.186 95.1635C146.8 94.5675 146.224 94.119 145.552 93.8904C144.857 93.6431 144.187 93.3345 143.547 92.9682C143.228 92.7655 142.958 92.4953 142.755 92.1765C142.553 91.8578 142.422 91.4984 142.374 91.1237C142.31 90.4097 142.392 89.6902 142.615 89.0086C142.795 88.347 143.006 87.6955 143.126 87.0539C143.267 86.4343 143.247 85.7887 143.066 85.1794C142.85 84.6021 142.461 84.1051 141.953 83.7559C141.449 83.4146 140.899 83.1479 140.319 82.964C139.186 82.5931 137.993 82.4327 136.931 81.9616C136.403 81.7455 135.92 81.4327 135.507 81.0394C135.122 80.6489 134.813 80.19 134.595 79.6861C134.164 78.6837 133.954 77.7514 133.593 76.8893C133.287 76.0772 132.78 75.3562 132.119 74.7942C131.586 74.3463 130.963 74.0178 130.292 73.8311C129.621 73.6443 128.918 73.6036 128.23 73.7116C127.357 73.8604 126.539 74.2334 125.854 74.7942C125.617 74.9942 125.393 75.2085 125.182 75.4358C125.359 75.1795 125.568 74.947 125.804 74.7441C126.487 74.1496 127.318 73.7512 128.21 73.5913C128.915 73.472 129.638 73.5051 130.33 73.6883C131.021 73.8716 131.666 74.2009 132.22 74.6539C132.914 75.225 133.446 75.9681 133.763 76.8091C134.124 77.6913 134.345 78.6636 134.766 79.5858C134.976 80.06 135.272 80.4915 135.638 80.8589C136.028 81.2324 136.488 81.5253 136.991 81.721C137.993 82.1621 139.186 82.3225 140.369 82.7234C140.975 82.9145 141.55 83.195 142.073 83.5554C142.635 83.9295 143.066 84.469 143.306 85.0992C143.495 85.7514 143.519 86.4402 143.377 87.104C143.256 87.7656 143.046 88.4172 142.865 89.1089C142.664 89.7568 142.585 90.4369 142.635 91.1137C142.681 91.4447 142.8 91.7615 142.982 92.042C143.163 92.3225 143.404 92.5599 143.687 92.7377C144.307 93.0926 144.958 93.3912 145.632 93.6298C146.374 93.8765 147.008 94.3723 147.426 95.0332C147.626 95.3817 147.736 95.7744 147.747 96.176C147.753 96.5688 147.703 96.9605 147.597 97.3388C147.406 98.1006 147.085 98.8023 146.845 99.5241C146.561 100.223 146.444 100.978 146.504 101.729C146.613 102.478 146.995 103.16 147.577 103.644C148.578 104.414 149.633 105.11 150.734 105.729C151.274 106.082 151.752 106.523 152.148 107.032C152.558 107.549 152.787 108.187 152.799 108.847C152.749 110.18 151.897 111.182 151.496 112.255C151.255 112.759 151.219 113.338 151.396 113.869C151.619 114.368 152.019 114.768 152.519 114.991C153.01 115.262 153.521 115.453 154.072 115.703C154.606 115.924 155.08 116.267 155.456 116.706C155.8 117.185 155.957 117.773 155.897 118.36C155.843 118.913 155.683 119.451 155.426 119.943C154.901 120.838 154.297 121.683 153.621 122.47C153.011 123.194 152.659 124.1 152.619 125.046L152.479 124.916C153.181 124.884 153.876 125.065 154.473 125.435C155.071 125.806 155.543 126.348 155.827 126.991C156.064 127.569 156.146 128.199 156.067 128.819C155.988 129.439 155.75 130.028 155.376 130.529C155.044 130.94 154.826 131.431 154.744 131.953C154.761 132.181 154.846 132.399 154.989 132.578C155.132 132.757 155.327 132.889 155.546 132.955C155.977 133.135 156.438 133.226 156.869 133.396C157.3 133.531 157.66 133.83 157.872 134.228C158.026 134.596 158.054 135.005 157.952 135.391C157.868 135.726 157.711 136.037 157.491 136.303C157.125 136.695 156.676 137 156.177 137.195C155.765 137.373 155.335 137.507 154.894 137.596Z" fill="#737690"/>
<path d="M173.279 132.754C173.483 132.496 173.655 132.213 173.79 131.912C173.972 131.476 174.065 131.007 174.065 130.534C174.065 130.061 173.972 129.593 173.79 129.156C173.521 128.526 173.058 127.999 172.467 127.652C172.118 127.444 171.783 127.213 171.464 126.96C171.288 126.82 171.141 126.645 171.033 126.447C170.925 126.249 170.857 126.032 170.833 125.808C170.753 124.805 171.464 124.023 171.505 123.061C171.508 122.818 171.456 122.578 171.352 122.359C171.248 122.14 171.094 121.948 170.903 121.798C170.481 121.469 170.019 121.193 169.53 120.976C168.999 120.737 168.503 120.426 168.056 120.054C167.586 119.632 167.293 119.049 167.234 118.42C167.267 117.149 167.415 115.885 167.675 114.641C167.755 114.003 167.629 113.357 167.314 112.796C166.925 112.26 166.394 111.843 165.781 111.593C165.12 111.32 164.477 111.005 163.856 110.651C163.519 110.461 163.231 110.195 163.014 109.875C162.797 109.555 162.656 109.19 162.603 108.807C162.581 108.044 162.662 107.282 162.844 106.541C162.943 106.193 162.969 105.828 162.921 105.469C162.873 105.11 162.751 104.765 162.563 104.456C162.048 103.905 161.404 103.491 160.688 103.253C159.896 102.989 159.212 102.471 158.744 101.78C158.355 101.019 158.252 100.144 158.453 99.3135C158.632 98.5019 158.88 97.7071 159.195 96.9378C159.504 96.1843 159.661 95.3767 159.656 94.5621C159.626 94.1675 159.511 93.784 159.319 93.438C159.127 93.0919 158.862 92.7915 158.543 92.5572C157.85 92.1128 157.083 91.797 156.278 91.625C155.466 91.4144 154.644 91.234 153.852 90.9533C153.033 90.7043 152.296 90.2405 151.717 89.6101C151.184 88.9655 150.798 88.2131 150.584 87.4047C150.274 85.8574 150.047 84.2948 149.902 82.7234C149.798 81.9816 149.596 81.2568 149.301 80.5682C148.993 79.9156 148.515 79.358 147.917 78.9543C146.632 78.3663 145.213 78.1344 143.808 78.2827C143.108 78.2982 142.409 78.2377 141.722 78.1022C141.047 77.9548 140.417 77.6452 139.888 77.2001C139.006 76.2729 138.263 75.2228 137.683 74.0825C137.385 73.5776 137.028 73.1099 136.62 72.6891C136.221 72.2984 135.773 71.9614 135.287 71.6867C133.514 70.7592 131.46 70.5234 129.523 71.0251C128.068 71.4233 126.705 72.1046 125.513 73.03C124.749 73.6034 124.032 74.2369 123.368 74.9246C123.148 75.1551 122.977 75.3255 122.857 75.4659L122.666 75.6463C122.712 75.5706 122.766 75.5 122.827 75.4358L123.318 74.8744C123.966 74.1672 124.674 73.5166 125.433 72.9297C126.626 72.0066 127.988 71.3255 129.443 70.9249C131.428 70.3922 133.542 70.621 135.367 71.5664C135.872 71.841 136.34 72.1777 136.76 72.5688C137.183 73.004 137.557 73.4847 137.873 74.0023C138.443 75.106 139.172 76.1194 140.038 77.0096C140.533 77.4237 141.121 77.7095 141.753 77.8416C142.413 77.9682 143.085 78.0253 143.757 78.012C144.449 78.012 145.171 78.012 145.893 78.012C146.644 78.0659 147.374 78.2886 148.028 78.6636C148.673 79.0992 149.192 79.6974 149.531 80.3978C149.837 81.1162 150.049 81.8708 150.163 82.6432C150.403 84.1769 150.454 85.7608 150.845 87.2945C151.045 88.0517 151.407 88.7563 151.907 89.3595C152.452 89.9487 153.144 90.3814 153.912 90.6125C154.674 90.8832 155.486 91.0636 156.308 91.2741C157.157 91.4628 157.965 91.8023 158.694 92.2765C159.051 92.5453 159.347 92.8874 159.561 93.2799C159.775 93.6723 159.903 94.1061 159.937 94.552C159.942 95.4108 159.778 96.2622 159.455 97.0581C159.148 97.8119 158.903 98.5897 158.724 99.3837C158.54 100.138 158.629 100.934 158.974 101.629C159.414 102.256 160.043 102.727 160.769 102.972C161.539 103.229 162.23 103.682 162.773 104.286C163.015 104.621 163.161 105.016 163.194 105.428C163.214 105.821 163.187 106.215 163.114 106.601C162.935 107.312 162.851 108.043 162.864 108.776C162.906 109.118 163.029 109.444 163.223 109.728C163.416 110.012 163.674 110.246 163.976 110.41C164.585 110.759 165.214 111.07 165.861 111.343C166.527 111.612 167.102 112.068 167.515 112.656C167.851 113.267 167.988 113.968 167.906 114.661C167.652 115.889 167.498 117.136 167.445 118.39C167.493 118.961 167.758 119.492 168.187 119.873C168.615 120.234 169.09 120.534 169.6 120.765C170.103 120.996 170.578 121.285 171.013 121.628C171.225 121.803 171.395 122.024 171.509 122.274C171.624 122.523 171.681 122.796 171.675 123.071C171.605 124.134 170.903 124.926 170.973 125.788C171.028 126.18 171.229 126.538 171.535 126.79C171.854 127.041 172.189 127.272 172.537 127.482C173.146 127.852 173.62 128.407 173.89 129.066C174.081 129.512 174.179 129.993 174.179 130.479C174.179 130.965 174.081 131.445 173.89 131.892C173.752 132.221 173.543 132.515 173.279 132.754Z" fill="#737690"/>
<path d="M128.741 112.225C128.518 111.842 128.421 111.399 128.464 110.958C128.507 110.517 128.688 110.101 128.982 109.769C129.289 109.451 129.691 109.239 130.127 109.165C130.564 109.091 131.012 109.159 131.408 109.358C131.904 109.654 132.31 110.08 132.58 110.591C132.757 110.832 132.882 111.107 132.947 111.398C133.013 111.69 133.018 111.992 132.961 112.285C132.87 112.511 132.734 112.716 132.562 112.888C132.39 113.06 132.185 113.196 131.959 113.287C131.621 113.445 131.255 113.532 130.883 113.543C130.51 113.553 130.139 113.487 129.794 113.348C129.451 113.202 129.147 112.977 128.908 112.691C128.67 112.406 128.502 112.067 128.42 111.704" fill="#995037"/>
<path d="M132.57 109.117C132.701 109.117 132.731 109.538 132.52 110.12C132.214 110.844 131.698 111.461 131.039 111.891C130.38 112.322 129.608 112.546 128.821 112.536C128.23 112.536 127.889 112.335 127.909 112.205C127.929 112.074 129.262 111.894 130.495 111.072C131.728 110.25 132.31 109.027 132.57 109.117Z" fill="#161B46"/>
<path d="M89.3558 161.273C89.3558 161.273 87.6316 183.227 87.792 188.75C87.9925 196.048 87.7318 207.706 90.3181 211.906C92.9044 216.106 99.4702 217.82 103.059 216.287C106.648 214.753 124.17 178.846 124.05 178.074L115.449 170.997L104.593 181.162L104.923 162.647L89.3558 161.273Z" fill="#B78876"/>
<path d="M135.466 132.903L123.457 134.808C121.521 135.115 120.201 136.933 120.508 138.868L125.144 168.105C125.451 170.04 127.268 171.361 129.204 171.054L141.214 169.149C143.149 168.843 144.47 167.025 144.163 165.089L139.527 135.853C139.22 133.917 137.402 132.597 135.466 132.903Z" fill="#737690"/>
<path d="M135.678 154.387C134.277 154.518 132.897 154.818 131.568 155.279L122.035 158.166L124.381 154.096C124.381 154.096 132.119 151.41 133.703 150.668C133.949 150.575 134.148 150.39 134.259 150.152C134.369 149.914 134.382 149.642 134.295 149.395C134.171 148.981 133.895 148.63 133.524 148.411C133.152 148.192 132.711 148.12 132.29 148.212L121.403 150.217L114.958 157.945L116.481 167.569L114.898 171.578L123.659 178.425C123.659 178.425 128.35 174.836 128.671 173.694C128.845 173.013 128.845 172.299 128.671 171.618L134.685 168.461C135.019 168.286 135.286 168.005 135.442 167.662C135.598 167.318 135.635 166.933 135.548 166.566V166.386L127.368 167.078L135.938 164.15C136.212 164.058 136.44 163.867 136.579 163.615C136.718 163.363 136.758 163.067 136.69 162.787C136.624 162.525 136.468 162.294 136.251 162.133C136.034 161.973 135.767 161.892 135.497 161.905L125.072 162.567L133.092 158.346C134.451 157.7 135.767 156.967 137.031 156.151C137.843 155.53 137.282 154.387 135.678 154.387Z" fill="#B78876"/>
<path d="M105.976 179.858C105.976 179.858 105.826 180.069 105.495 180.41C105.164 180.751 104.693 181.232 104.091 181.813C102.909 182.996 101.224 184.59 99.5103 186.484C98.6582 187.437 97.8964 188.379 97.2448 189.271C96.6731 190.065 96.1541 190.895 95.6911 191.757C94.8991 193.221 94.5884 194.223 94.5283 194.203C94.5728 193.963 94.6399 193.728 94.7287 193.501C94.8134 193.227 94.9172 192.959 95.0395 192.699C95.1798 192.358 95.337 192.023 95.5106 191.697C95.9572 190.816 96.4664 189.969 97.0343 189.161C97.737 188.178 98.4933 187.234 99.2998 186.334C101.024 184.429 102.728 182.856 103.961 181.713L105.415 180.37C105.585 180.182 105.773 180.011 105.976 179.858Z" fill="#995037"/>
<path d="M131.157 138.027C131.183 138.2 131.157 138.376 131.083 138.534C131.008 138.692 130.889 138.824 130.739 138.914C130.589 139.004 130.417 139.047 130.242 139.039C130.068 139.031 129.9 138.971 129.76 138.867C129.62 138.763 129.513 138.62 129.454 138.456C129.395 138.292 129.386 138.114 129.429 137.944C129.471 137.775 129.562 137.622 129.692 137.505C129.821 137.387 129.982 137.311 130.155 137.285C130.385 137.256 130.618 137.317 130.805 137.455C130.991 137.593 131.117 137.798 131.157 138.027Z" fill="#D4D9F5"/>
<path d="M151.747 153.515L145.732 146.869C145.732 146.869 134.224 144.994 132.881 145.465C131.879 145.826 131.959 147.36 132.059 148.072C132.059 148.292 132.119 148.432 132.119 148.432L133.683 149.154L140.289 149.325L144.489 151.329L141.712 150.537H133.974C133.446 150.529 132.927 150.677 132.483 150.962C132.039 151.247 131.689 151.658 131.478 152.141C131.387 152.362 131.478 152.432 131.478 152.643C131.538 153.645 134.826 154.056 134.826 154.056L140.76 154.838L143.336 158.186L136.019 157.184C136.019 157.184 132.009 159.289 131.768 159.89C131.528 160.492 135.006 161.384 135.257 161.354C135.507 161.324 141.081 162.917 141.081 162.917L135.999 163.92L130.656 165.824L133.082 166.516L137.482 166.386L141.492 167.609L141.853 170.997C141.853 170.997 144.038 174.175 145.672 174.796C147.306 175.418 152.178 165.995 152.178 165.995L151.967 161.885L152.398 157.935L151.516 155.71L151.747 153.515Z" fill="#B78876"/>
<path d="M145.712 174.766L159.506 210.593C160.676 212.759 162.495 214.505 164.709 215.584C166.922 216.662 169.418 217.02 171.845 216.607C179.865 215.344 180.356 199.817 180.356 199.817L181.178 169.995L165.971 169.684L164.858 185.342L152.218 165.935L145.712 174.766Z" fill="#B78876"/>
<path d="M173.489 205.34C173.435 205.036 173.408 204.727 173.409 204.418C173.409 204.127 173.409 203.766 173.319 203.345C173.229 202.924 173.239 202.453 173.149 201.922C172.766 199.187 172.007 196.519 170.893 193.993C170.272 192.608 169.556 191.268 168.748 189.983C168.086 188.934 167.356 187.929 166.563 186.976C166.242 186.555 165.911 186.204 165.63 185.893C165.35 185.582 165.109 185.312 164.899 185.101C164.673 184.887 164.465 184.656 164.277 184.409C164.522 184.6 164.756 184.804 164.979 185.021C165.199 185.221 165.46 185.472 165.751 185.783C166.041 186.094 166.382 186.424 166.753 186.845C167.571 187.794 168.321 188.799 168.998 189.853C170.672 192.425 171.918 195.252 172.687 198.223C173.006 199.434 173.237 200.667 173.379 201.912C173.459 202.433 173.469 202.914 173.509 203.345C173.55 203.776 173.509 204.127 173.509 204.428C173.528 204.732 173.521 205.037 173.489 205.34Z" fill="#995037"/>
<path d="M103.089 135.762C100.579 136.778 98.3237 138.334 96.4823 140.319C94.6408 142.305 93.2585 144.671 92.4333 147.25C89.797 156.051 87.4212 166.035 87.4212 166.035L104.853 168.04L105.946 154.297L103.089 135.762Z" fill="#00ACE9"/>
</svg>
