<svg width="48" height="48" viewBox="0 0 48 48" fill="none" xmlns="http://www.w3.org/2000/svg">
<rect x="1" y="1" width="46" height="46" rx="23" fill="url(#paint0_linear_4974_3033)" stroke="white" stroke-width="2"/>
<g clip-path="url(#clip0_4974_3033)">
<path d="M33 27V30H36V32H33V35H31V32H28V30H31V27H33ZM33.008 15C33.556 15 34 15.445 34 15.993V25.342C33.3576 25.1151 32.6813 24.9994 32 25V17H16L16.001 31L25.293 21.707C25.465 21.5345 25.694 21.4307 25.9371 21.4153C26.1802 21.3998 26.4206 21.4737 26.613 21.623L26.706 21.708L30.252 25.258C29.4766 25.4943 28.7572 25.8851 28.1369 26.407C27.5167 26.9288 27.0086 27.5709 26.6432 28.2944C26.2779 29.0179 26.0628 29.808 26.0111 30.6169C25.9593 31.4258 26.0719 32.2368 26.342 33.001L14.992 33C14.7288 32.9997 14.4765 32.895 14.2905 32.7088C14.1045 32.5226 14 32.2702 14 32.007V15.993C14.0018 15.7304 14.1069 15.479 14.2925 15.2932C14.4781 15.1074 14.7294 15.0021 14.992 15H33.008ZM20 19C20.5304 19 21.0391 19.2107 21.4142 19.5858C21.7893 19.9609 22 20.4696 22 21C22 21.5304 21.7893 22.0391 21.4142 22.4142C21.0391 22.7893 20.5304 23 20 23C19.4696 23 18.9609 22.7893 18.5858 22.4142C18.2107 22.0391 18 21.5304 18 21C18 20.4696 18.2107 19.9609 18.5858 19.5858C18.9609 19.2107 19.4696 19 20 19Z" fill="white"/>
</g>
<defs>
<linearGradient id="paint0_linear_4974_3033" x1="0" y1="0" x2="49.3653" y2="1.44778" gradientUnits="userSpaceOnUse">
<stop stop-color="#00ACE9"/>
<stop offset="1" stop-color="#0095E9"/>
</linearGradient>
<clipPath id="clip0_4974_3033">
<rect width="24" height="24" fill="white" transform="translate(12 12)"/>
</clipPath>
</defs>
</svg>