<svg width="14" height="14" viewBox="0 0 14 14" fill="none" xmlns="http://www.w3.org/2000/svg">
<path d="M0.93332 0.533325L13.47 4.71199C13.5349 4.7335 13.5916 4.77444 13.6324 4.82926C13.6733 4.88408 13.6963 4.95013 13.6983 5.01846C13.7003 5.08679 13.6813 5.1541 13.6438 5.21125C13.6063 5.26841 13.5521 5.31265 13.4887 5.33799L7.66665 7.66666L4.71665 13.5667C4.68663 13.6267 4.63917 13.6763 4.58047 13.709C4.52177 13.7416 4.45459 13.7558 4.38771 13.7496C4.32084 13.7434 4.25739 13.7171 4.2057 13.6743C4.154 13.6314 4.11645 13.5739 4.09799 13.5093L0.506653 0.940658C0.490018 0.882268 0.489646 0.820443 0.505577 0.761856C0.521509 0.70327 0.553139 0.650148 0.597053 0.608223C0.640968 0.566298 0.695499 0.537164 0.754761 0.523964C0.814022 0.510765 0.875763 0.514001 0.93332 0.533325V0.533325Z" fill="url(#paint0_linear_5235_23140)"/>
<defs>
<linearGradient id="paint0_linear_5235_23140" x1="0.493896" y1="0.515991" x2="14.0741" y2="0.913352" gradientUnits="userSpaceOnUse">
<stop stop-color="#00ACE9"/>
<stop offset="1" stop-color="#0095E9"/>
</linearGradient>
</defs>
</svg>
