<svg width="32" height="32" viewBox="0 0 32 32" fill="none" xmlns="http://www.w3.org/2000/svg">
<rect width="32" height="32" rx="16" fill="#CDF1FF"/>
<g clip-path="url(#clip0_7182_9953)">
<path d="M22.6668 12H18.0002C16.9393 12 15.9219 12.4214 15.1717 13.1716C14.4216 13.9217 14.0002 14.9391 14.0002 16C14.0002 17.0609 14.4216 18.0783 15.1717 18.8284C15.9219 19.5786 16.9393 20 18.0002 20H22.6668V21.3333C22.6668 21.5101 22.5966 21.6797 22.4716 21.8047C22.3465 21.9298 22.177 22 22.0002 22H10.0002C9.82335 22 9.65378 21.9298 9.52876 21.8047C9.40373 21.6797 9.3335 21.5101 9.3335 21.3333V10.6667C9.3335 10.4899 9.40373 10.3203 9.52876 10.1953C9.65378 10.0702 9.82335 10 10.0002 10H22.0002C22.177 10 22.3465 10.0702 22.4716 10.1953C22.5966 10.3203 22.6668 10.4899 22.6668 10.6667V12ZM18.0002 13.3333H23.3335V18.6667H18.0002C17.2929 18.6667 16.6146 18.3857 16.1145 17.8856C15.6144 17.3855 15.3335 16.7072 15.3335 16C15.3335 15.2928 15.6144 14.6145 16.1145 14.1144C16.6146 13.6143 17.2929 13.3333 18.0002 13.3333ZM18.0002 15.3333V16.6667H20.0002V15.3333H18.0002Z" fill="url(#paint0_linear_7182_9953)"/>
</g>
<defs>
<linearGradient id="paint0_linear_7182_9953" x1="9.3335" y1="10" x2="23.7272" y2="10.4925" gradientUnits="userSpaceOnUse">
<stop stop-color="#00ACE9"/>
<stop offset="1" stop-color="#0095E9"/>
</linearGradient>
<clipPath id="clip0_7182_9953">
<rect width="16" height="16" fill="white" transform="translate(8 8)"/>
</clipPath>
</defs>
</svg>
