<svg width="20" height="21" viewBox="0 0 20 21" fill="none" xmlns="http://www.w3.org/2000/svg">
<path d="M10.5 13.252V15.342C9.59492 15.022 8.62628 14.9239 7.6754 15.0558C6.72453 15.1877 5.8192 15.5459 5.03543 16.1002C4.25166 16.6545 3.61234 17.3888 3.17116 18.2414C2.72998 19.094 2.49982 20.04 2.5 21L0.5 20.999C0.49969 19.7779 0.778921 18.5729 1.3163 17.4764C1.85368 16.3799 2.63494 15.4209 3.60022 14.673C4.5655 13.9251 5.68918 13.4081 6.88515 13.1616C8.08113 12.9152 9.31766 12.9457 10.5 13.251V13.252ZM8.5 12C5.185 12 2.5 9.315 2.5 6C2.5 2.685 5.185 0 8.5 0C11.815 0 14.5 2.685 14.5 6C14.5 9.315 11.815 12 8.5 12ZM8.5 10C10.71 10 12.5 8.21 12.5 6C12.5 3.79 10.71 2 8.5 2C6.29 2 4.5 3.79 4.5 6C4.5 8.21 6.29 10 8.5 10ZM14.5 16V13H16.5V16H19.5V18H16.5V21H14.5V18H11.5V16H14.5Z" fill="white"/>
</svg>
