<svg width="106" height="76" viewBox="0 0 106 76" fill="none" xmlns="http://www.w3.org/2000/svg">
<path d="M64.0407 63.6881C64.0407 63.6881 63.9432 71.9767 63.9432 75H89.6052V66.2644L88.7909 64.004L88.4984 62.1694L64.0407 63.6881Z" fill="#161B46"/>
<path d="M70.8199 74.534C70.7318 73.8165 70.6842 73.0946 70.6771 72.3718C70.6305 71.6497 70.6235 70.9255 70.6561 70.2026C70.7439 70.9209 70.7915 71.6435 70.7988 72.3671C70.8454 73.0885 70.8524 73.8119 70.8199 74.534Z" fill="#737690"/>
<path d="M71.6997 66.5407C71.6997 66.5407 71.7465 66.5056 71.8494 66.4915C71.9962 66.4734 72.145 66.4987 72.2776 66.5641C72.3806 66.611 72.4703 66.6829 72.5385 66.7732C72.6068 66.8635 72.6514 66.9693 72.6684 67.0812C72.6878 67.2184 72.6662 67.3583 72.6062 67.4832C72.5462 67.6081 72.4506 67.7125 72.3315 67.7832C72.2037 67.8453 72.0592 67.8641 71.9199 67.8366C71.7805 67.8092 71.6539 67.737 71.5593 67.6311C71.4748 67.5383 71.4281 67.4173 71.4282 67.2918C71.428 67.1851 71.4598 67.0808 71.5195 66.9923C71.5587 66.9281 71.6107 66.8728 71.6723 66.8297C71.7339 66.7866 71.8038 66.7567 71.8775 66.7419C71.9828 66.7279 72.039 66.7536 72.0366 66.7583C72.0343 66.763 71.9781 66.7583 71.8892 66.7887C71.7627 66.8315 71.6567 66.9199 71.592 67.0368C71.5425 67.117 71.5208 67.2113 71.5301 67.3052C71.5394 67.399 71.5792 67.4872 71.6435 67.5562C71.7224 67.64 71.8258 67.6967 71.9389 67.7181C72.0519 67.7396 72.1689 67.7247 72.273 67.6756C72.3637 67.6201 72.4382 67.5415 72.4886 67.4478C72.5391 67.3541 72.5638 67.2487 72.5603 67.1424C72.5567 67.036 72.525 66.9325 72.4683 66.8424C72.4117 66.7523 72.3322 66.6789 72.2379 66.6296C72.07 66.5512 71.8838 66.5204 71.6997 66.5407Z" fill="#737690"/>
<path d="M85.8565 67.0926C85.6801 67.0172 85.5135 66.9205 85.3604 66.8048C85.0656 66.6105 84.6584 66.3251 84.2466 65.9881C83.8348 65.6511 83.4627 65.3212 83.21 65.0755C83.0635 64.9518 82.933 64.8103 82.8215 64.6543C82.9817 64.759 83.1314 64.8789 83.2685 65.0123C83.5352 65.2463 83.905 65.5575 84.3215 65.8922C84.738 66.2268 85.1288 66.5216 85.4096 66.7346C85.5693 66.8398 85.7189 66.9597 85.8565 67.0926Z" fill="#737690"/>
<path d="M88.4937 69.7698C88.4594 69.796 88.4216 69.8172 88.3814 69.833L88.0445 69.9945L87.8105 70.1091C87.7215 70.1489 87.6186 70.184 87.5109 70.2238C87.2957 70.301 87.0429 70.4039 86.7715 70.4765L86.3316 70.6005C86.1795 70.6426 86.0157 70.6684 85.8495 70.7058C85.5173 70.7854 85.1475 70.8251 84.7731 70.8766C83.1051 71.0498 81.4192 70.8606 79.831 70.322C79.4866 70.2053 79.1485 70.071 78.8178 69.9196C78.6634 69.8494 78.5089 69.7862 78.3685 69.7136L77.9684 69.496C77.7388 69.3717 77.5162 69.235 77.3015 69.0865C77.2056 69.0234 77.1143 68.9672 77.0324 68.911C76.9505 68.8549 76.885 68.7964 76.8195 68.7449L76.527 68.5109C76.4614 68.4571 76.4287 68.429 76.431 68.4243C76.4697 68.4435 76.5065 68.4662 76.541 68.4922L76.8475 68.7051L77.0652 68.8596C77.1471 68.9134 77.2407 68.9672 77.3389 69.028C77.5355 69.145 77.7508 69.2925 78.0105 69.4165L78.4107 69.6271C78.5511 69.6973 78.7032 69.7558 78.8576 69.826C79.1642 69.9711 79.5081 70.0834 79.8662 70.2121C81.4383 70.7317 83.102 70.9158 84.7497 70.7526C85.1288 70.7058 85.4892 70.6707 85.8191 70.5958C85.9853 70.5607 86.1467 70.5373 86.2988 70.4975L86.7364 70.3805C87.0172 70.315 87.2582 70.2191 87.4758 70.1465C87.5835 70.1091 87.6864 70.0763 87.7777 70.0412L88.0257 69.9383L88.3697 69.7979C88.4098 69.7835 88.4514 69.7741 88.4937 69.7698Z" fill="#737690"/>
<path d="M68.6762 8.88285C68.2736 8.9041 67.8773 8.77612 67.5632 8.5234C67.249 8.27068 67.0391 7.91099 66.9737 7.51317C66.9082 7.11535 66.9917 6.70735 67.2083 6.36728C67.4248 6.0272 67.7592 5.77895 68.1474 5.67003C67.9103 5.40202 67.7637 5.06604 67.7285 4.70991C67.6933 4.35377 67.7714 3.99561 67.9515 3.68639C68.1317 3.37717 68.4047 3.13263 68.7319 2.98757C69.059 2.84251 69.4236 2.80431 69.7737 2.87841C69.8062 2.52755 69.9291 2.19111 70.1304 1.90193C70.3317 1.61274 70.6046 1.38068 70.9224 1.22841C71.2401 1.07613 71.5919 1.00883 71.9434 1.03308C72.295 1.05733 72.6342 1.1723 72.928 1.36678C73.3401 1.06414 73.8417 0.908238 74.3528 0.92393C74.8639 0.939623 75.355 1.12601 75.7477 1.45335C76.0915 1.4135 76.439 1.48355 76.7405 1.65344C77.042 1.82333 77.2819 2.08434 77.4259 2.39903C77.5699 2.71372 77.6104 3.06593 77.5419 3.40512C77.4733 3.74431 77.299 4.05306 77.0441 4.28709" fill="#161B46"/>
<path d="M68.4282 9.09818C68.6549 7.36673 69.5257 5.78429 70.8671 4.66626C72.2084 3.54823 73.9218 2.97673 75.6658 3.06566L76.0262 3.08438C79.8872 3.5009 81.6889 7.01557 81.1625 10.8625L79.962 23.7325L79.8965 24.3573L70.8735 25.7052L71.049 22.4292C71.049 22.4292 67.3448 21.6499 67.4758 17.927C67.5507 16.1275 67.9906 12.435 68.4282 9.09818Z" fill="#937263"/>
<path d="M71.0094 22.4082C72.7377 22.4956 74.4548 22.0846 75.9562 21.2241C75.9562 21.2241 74.6762 23.8449 70.979 23.3301L71.0094 22.4082Z" fill="#5E483F"/>
<path d="M69.046 12.0231C69.0382 12.1612 69.0843 12.297 69.1747 12.4018C69.2651 12.5066 69.3926 12.5722 69.5304 12.5847C69.5978 12.5935 69.6663 12.5887 69.7319 12.5707C69.7974 12.5526 69.8587 12.5217 69.9121 12.4796C69.9656 12.4375 70.01 12.3852 70.0429 12.3257C70.0758 12.2662 70.0965 12.2007 70.1037 12.1331C70.1116 11.9943 70.0652 11.8579 69.9744 11.7527C69.8836 11.6475 69.7554 11.5817 69.617 11.5691C69.5496 11.561 69.4813 11.5663 69.416 11.5848C69.3507 11.6033 69.2897 11.6345 69.2366 11.6768C69.1835 11.719 69.1393 11.7714 69.1066 11.8308C69.0739 11.8903 69.0533 11.9556 69.046 12.0231Z" fill="#161B46"/>
<path d="M69.1372 10.9609C69.2004 11.0334 69.6052 10.755 70.1902 10.7854C70.7752 10.8158 71.166 11.12 71.2315 11.0545C71.2643 11.0241 71.2034 10.8954 71.0256 10.755C70.7875 10.5707 70.498 10.4652 70.1972 10.4531C69.8987 10.4395 69.6036 10.5215 69.3548 10.6871C69.1723 10.8041 69.1138 10.9281 69.1372 10.9609Z" fill="#161B46"/>
<path d="M74.4467 12.5379C74.4376 12.6764 74.4833 12.8128 74.5739 12.9179C74.6645 13.0229 74.7928 13.0882 74.9311 13.0995C74.9984 13.108 75.0668 13.103 75.1322 13.0848C75.1977 13.0667 75.2588 13.0357 75.3122 12.9936C75.3655 12.9516 75.41 12.8994 75.443 12.8401C75.4759 12.7807 75.4968 12.7154 75.5043 12.6479C75.5128 12.5093 75.4665 12.3728 75.3756 12.2678C75.2846 12.1628 75.1561 12.0977 75.0176 12.0863C74.9503 12.0775 74.882 12.0823 74.8166 12.1004C74.7511 12.1184 74.69 12.1495 74.6368 12.1916C74.5836 12.2337 74.5393 12.286 74.5067 12.3455C74.474 12.405 74.4536 12.4704 74.4467 12.5379Z" fill="#161B46"/>
<path d="M74.7533 11.3539C74.8165 11.4264 75.2354 11.1503 75.8063 11.1807C76.3773 11.2111 76.7821 11.5153 76.8476 11.4498C76.8804 11.4194 76.8195 11.2907 76.644 11.1503C76.4051 10.966 76.1148 10.8605 75.8133 10.8484C75.5149 10.8358 75.2201 10.9177 74.9709 11.0824C74.7908 11.1901 74.7299 11.3141 74.7533 11.3539Z" fill="#161B46"/>
<path d="M72.4672 15.484C72.4672 15.4512 72.1186 15.3717 71.5476 15.271C71.4025 15.2476 71.2645 15.2125 71.2458 15.1119C71.2402 14.9603 71.2819 14.8106 71.3651 14.6837C71.5195 14.3374 71.681 13.9817 71.8518 13.5933C72.5304 12.0395 73.0218 10.7595 72.9657 10.7314C72.9095 10.7033 72.3034 11.9435 71.6248 13.495L71.1568 14.5948C71.056 14.766 71.0195 14.9676 71.0539 15.1634C71.0708 15.2185 71.101 15.2687 71.1418 15.3095C71.1826 15.3503 71.2327 15.3805 71.2879 15.3974C71.3671 15.4248 71.4498 15.4406 71.5336 15.4442C72.1045 15.4957 72.4649 15.5167 72.4672 15.484Z" fill="#161B46"/>
<path d="M74.1309 15.9639C74.0396 15.9639 74.0069 16.5746 73.4523 16.9888C72.8977 17.403 72.2425 17.3024 72.2332 17.389C72.2332 17.4264 72.3759 17.5153 72.6544 17.5364C73.0173 17.5602 73.377 17.4549 73.6699 17.2392C73.951 17.0314 74.1406 16.7227 74.1988 16.3781C74.2362 16.1183 74.173 15.9616 74.1309 15.9639Z" fill="#161B46"/>
<path d="M74.7298 9.09801C74.7789 9.25479 75.3522 9.21033 76.0191 9.33201C76.686 9.45369 77.2196 9.65493 77.3155 9.51921C77.36 9.45603 77.2734 9.30393 77.0604 9.14247C76.7779 8.94304 76.4534 8.81089 76.1119 8.75613C75.7704 8.70138 75.4209 8.72547 75.0902 8.82657C74.8281 8.90613 74.697 9.01377 74.7298 9.09801Z" fill="#161B46"/>
<path d="M69.4299 9.31569C69.5235 9.44907 69.926 9.33442 70.3987 9.3508C70.8714 9.36718 71.2692 9.48184 71.3698 9.3508C71.4119 9.28762 71.3557 9.15423 71.1873 9.02319C70.9591 8.86373 70.6886 8.7757 70.4103 8.77029C70.132 8.76487 69.8583 8.84231 69.6241 8.99278C69.451 9.11914 69.3901 9.24783 69.4299 9.31569Z" fill="#161B46"/>
<path d="M68.88 7.41077C68.88 7.41077 69.9774 5.12693 71.1287 4.64021C72.521 4.04819 73.0335 5.57621 74.3485 5.27435C75.6636 4.97249 76.9927 4.40855 78.268 5.47559C79.672 6.64559 78.9466 7.38035 78.9537 9.03707C78.9841 15.7505 80.112 17.6951 80.6174 14.5688C80.6736 14.2249 81.6447 13.9979 81.8599 12.5447C82.1384 10.661 82.3279 8.36549 81.9699 7.00127C81.6704 5.85233 81.062 5.03801 79.9482 4.11839C78.1885 2.66525 75.68 2.51081 73.9671 2.59973C72.2542 2.68865 68.8612 4.48343 68.88 7.41077Z" fill="#161B46"/>
<path d="M80.3762 14.4542C80.3874 14.3177 80.4262 14.1849 80.4903 14.0639C80.5543 13.9428 80.6423 13.8361 80.7489 13.7501C80.8554 13.6641 80.9784 13.6006 81.1102 13.5636C81.242 13.5265 81.38 13.5167 81.5158 13.5345C82.2061 13.6352 82.9596 14.0681 82.8426 15.5001C82.6343 18.0414 80.1258 17.309 80.1282 17.2364C80.1305 17.1639 80.2803 15.5165 80.3762 14.4542Z" fill="#937263"/>
<path d="M80.7576 16.3243C80.7693 16.3243 80.7998 16.3594 80.8723 16.3992C80.9737 16.4528 81.0918 16.4653 81.2022 16.4343C81.4784 16.357 81.7404 15.9499 81.7896 15.4983C81.8144 15.281 81.7896 15.061 81.717 14.8548C81.7001 14.7734 81.6635 14.6974 81.6105 14.6333C81.5575 14.5693 81.4896 14.5192 81.4128 14.4874C81.3629 14.4713 81.3089 14.4724 81.2597 14.4907C81.2105 14.5089 81.1688 14.5432 81.1414 14.588C81.1016 14.6559 81.1133 14.7073 81.0993 14.7097C81.0852 14.712 81.0478 14.6629 81.0782 14.5599C81.0969 14.4984 81.1367 14.4453 81.1905 14.4102C81.2648 14.3627 81.3549 14.3467 81.4409 14.3657C81.5435 14.3946 81.637 14.4493 81.7124 14.5247C81.7878 14.6001 81.8426 14.6936 81.8715 14.7963C81.9619 15.025 81.9941 15.2727 81.9651 15.517C81.9089 16.0271 81.6071 16.4857 81.2303 16.5606C81.1607 16.5752 81.0887 16.5737 81.0198 16.5562C80.9509 16.5388 80.8868 16.5059 80.8325 16.46C80.7576 16.3875 80.7483 16.329 80.7576 16.3243Z" fill="#5E483F"/>
<path d="M80.5799 9.52403C80.2551 9.7609 79.8762 9.91292 79.4778 9.9663C79.0776 9.98736 78.633 9.7323 78.5862 9.33684C78.5652 9.159 78.619 8.95542 78.509 8.81268C78.399 8.66994 78.1182 8.68164 77.9053 8.69334C77.5305 8.704 77.1634 8.58574 76.8652 8.35832C76.5671 8.1309 76.3561 7.80808 76.2673 7.44378C76.0637 7.71756 75.6261 7.67778 75.3477 7.4859C75.0939 7.25895 74.8734 6.99743 74.6925 6.70902C74.4819 6.44226 74.18 6.1989 73.8407 6.22932C73.6586 6.28279 73.471 6.31499 73.2815 6.32526C72.9492 6.27846 72.8135 5.87832 72.7713 5.5437C72.7292 5.20908 72.7175 4.82064 72.4437 4.62642C72.17 4.4322 71.8447 4.5258 71.5335 4.55622C71.2223 4.58664 70.8315 4.49538 70.7683 4.18885C70.7587 4.10792 70.7658 4.02589 70.7892 3.94781C70.8125 3.86974 70.8516 3.79728 70.904 3.73489C71.1262 3.43733 71.4422 3.22331 71.8009 3.12736C72.1596 3.03141 72.5403 3.05913 72.8813 3.20604C73.027 2.78862 73.2931 2.42378 73.6462 2.15768C73.9992 1.89157 74.4233 1.73616 74.8647 1.71111C75.306 1.68606 75.7449 1.79249 76.1258 2.01695C76.5067 2.2414 76.8125 2.57378 77.0044 2.97204C77.2874 2.74253 77.6214 2.58443 77.9783 2.5111C78.3352 2.43776 78.7046 2.45134 79.0551 2.55068C79.4057 2.65002 79.7272 2.83222 79.9926 3.08189C80.258 3.33157 80.4594 3.6414 80.5799 3.98526C80.8962 3.91547 81.2261 3.94101 81.5279 4.05867C81.8297 4.17633 82.0898 4.38083 82.2754 4.6463C82.461 4.91177 82.5637 5.22631 82.5705 5.55015C82.5774 5.87398 82.488 6.19258 82.3139 6.46566C82.7585 6.75114 83.1282 7.22382 83.1118 7.75266C83.0954 8.2815 82.5549 8.77758 82.0541 8.61378C82.1433 8.82584 82.149 9.06374 82.0703 9.27987C81.9915 9.49601 81.8341 9.67443 81.6294 9.77943C81.4247 9.88443 81.1879 9.90826 80.9664 9.84615C80.7449 9.78405 80.5551 9.64058 80.4348 9.44448" fill="#161B46"/>
<path d="M72.6542 3.94531C72.6517 3.96081 72.6517 3.97661 72.6542 3.99211C72.6542 4.02253 72.6542 4.06933 72.6542 4.13017C72.6805 4.304 72.7351 4.47235 72.8157 4.62859C72.9429 4.87657 73.1254 5.09195 73.3492 5.25805C73.6445 5.48311 74.0052 5.60554 74.3765 5.60671L74.3367 5.54821C74.2508 5.77547 74.2567 6.0272 74.3531 6.25021C74.4557 6.4841 74.5921 6.70169 74.7579 6.89605C74.8362 7.00766 74.9265 7.11044 75.027 7.20259C75.1457 7.29265 75.2847 7.35212 75.4318 7.37575C75.5807 7.40426 75.7344 7.39615 75.8795 7.35213C76.0246 7.30811 76.1568 7.22949 76.2648 7.12303L76.1712 7.09027C76.1932 7.35635 76.2708 7.61484 76.399 7.84904C76.5271 8.08323 76.7031 8.28791 76.9154 8.44981C77.1488 8.64087 77.4377 8.75164 77.739 8.76571C78.0219 8.7663 78.3028 8.71883 78.5697 8.62531L78.5042 8.59255C78.6216 8.9073 78.8154 9.18794 79.0682 9.40921C79.1833 9.51863 79.3214 9.60103 79.4724 9.65041C79.6233 9.69979 79.7834 9.71492 79.941 9.69469C80.2113 9.65043 80.4629 9.52804 80.6645 9.34259C80.8662 9.15715 81.0092 8.91676 81.0759 8.65105L81.0174 8.67445C81.2772 8.83071 81.5835 8.89114 81.8832 8.84527C82.1072 8.8186 82.3215 8.73834 82.508 8.61127C82.6248 8.53094 82.7262 8.43028 82.8075 8.31409C82.8366 8.27458 82.8602 8.23128 82.8777 8.18539C82.7722 8.33905 82.6389 8.47159 82.4846 8.57617C82.3012 8.6942 82.0929 8.76791 81.8762 8.79145C81.5911 8.82795 81.3022 8.76604 81.0572 8.61595L81.0127 8.58553L80.9987 8.63935C80.9329 8.88695 80.7966 9.11011 80.6063 9.28168C80.416 9.45325 80.18 9.56584 79.9269 9.60577C79.783 9.62279 79.6371 9.60746 79.4999 9.56091C79.3626 9.51435 79.2375 9.43774 79.1337 9.33667C78.8963 9.12693 78.7146 8.86162 78.6048 8.56447L78.5885 8.51533L78.5393 8.52937C78.2835 8.61808 78.0145 8.66317 77.7437 8.66275C77.4651 8.65086 77.198 8.54814 76.9832 8.37025C76.7834 8.21712 76.6178 8.02398 76.4969 7.80317C76.376 7.58236 76.3026 7.33876 76.2812 7.08793L76.2695 6.96625L76.1853 7.05517C76.042 7.19314 75.8548 7.27644 75.6564 7.29055C75.458 7.30466 75.2609 7.24869 75.0995 7.13239C75.005 7.04534 74.9195 6.9489 74.8445 6.84457C74.6836 6.65787 74.5504 6.44904 74.449 6.22447C74.4026 6.12496 74.3766 6.01716 74.3726 5.90743C74.3686 5.79771 74.3866 5.68829 74.4256 5.58565L74.449 5.52715H74.3835C74.0293 5.53037 73.6837 5.41871 73.3983 5.20891C73.1791 5.05203 72.9976 4.84817 72.8672 4.61221C72.7573 4.40427 72.6852 4.17846 72.6542 3.94531Z" fill="#737690"/>
<path d="M85.0447 42.2585L88.4237 45.5181L87.3309 39.2914L94.1871 37.1245C94.1871 37.1245 96.0076 45.6678 96.3259 47.6896C96.8921 51.3166 96.1948 56.4716 92.8159 56.8343C89.1608 57.2251 86.3996 53.6192 84.6422 51.2534C83.2921 49.4353 81.1135 46.2552 81.1135 46.2552L85.0447 42.2631" fill="#D4D9F5"/>
<path d="M58.9255 36.7217C57.8257 40.1849 56.2884 40.6997 55.68 50.633C55.5606 52.5682 57.0138 55.0486 58.743 55.9237C60.4723 56.7989 63.4886 55.7248 64.4667 54.0517L65.4378 46.7111L58.9255 36.7217Z" fill="#D4D9F5"/>
<path d="M63.4698 51.216C63.2714 50.7183 63.0464 50.2317 62.7959 49.7582C62.5075 49.3049 62.195 48.8675 61.8599 48.4478C61.9937 48.5355 62.1129 48.6437 62.2132 48.7683C62.7357 49.3381 63.1284 50.0142 63.3645 50.7503C63.4241 50.8989 63.4597 51.0561 63.4698 51.216Z" fill="#161B46"/>
<path d="M57.2688 40.7138C57.3273 40.5102 60.7109 31.3 61.7897 29.2829C63.0814 26.8703 65.7958 25.8056 67.4806 25.7003C69.1654 25.595 87.2021 27.0318 87.2021 27.0318C87.2021 27.0318 92.2541 28.3001 93.2744 32.8818C94.5567 38.6125 95.5886 44.2659 95.5886 44.2659L86.5492 46.2198L85.4939 43.5312L68.5078 47.322L64.3613 41.1865L57.2688 40.7138Z" fill="#D4D9F5"/>
<path d="M88.4984 62.1578L88.0678 46.805L88.4025 27.5585L81.3497 24.458L80.5588 21.416L72.336 25.3028L70.6138 23.4003L69.893 25.5438L68.0912 26.1335L64.5461 33.116L64.3917 45.3776C64.3917 45.3776 63.5329 59.8295 64.0407 63.6788C64.0407 63.6788 65.3698 65.883 69.4555 65.9813C77.7391 66.1802 88.4984 62.1484 88.4984 62.1484" fill="#D4D9F5"/>
<path d="M81.3427 41.1512C81.3427 41.184 80.9261 41.1512 80.2616 41.1044L77.6712 40.8868L75.0785 40.6949C74.4139 40.6435 74.0044 40.6037 74.0044 40.5709C74.3621 40.5169 74.7247 40.5027 75.0855 40.5288C75.7524 40.5288 76.6743 40.5732 77.6899 40.6551C78.7055 40.7371 79.6204 40.8424 80.2803 40.9383C80.9402 41.0342 81.345 41.1185 81.3427 41.1512Z" fill="white"/>
<path d="M81.2281 42.4129C81.2281 42.4457 80.8116 42.4129 80.147 42.3661L77.5567 42.1509L74.964 41.9566C74.2994 41.9052 73.8899 41.8677 73.8899 41.8326C74.2476 41.7786 74.6102 41.7645 74.971 41.7905C75.6379 41.7905 76.5598 41.8373 77.5754 41.9169C78.5909 41.9964 79.5059 42.1041 80.1658 42.2C80.5267 42.2313 80.883 42.3027 81.2281 42.4129Z" fill="white"/>
<path d="M81.1134 43.6742C81.1134 43.707 80.6969 43.6742 80.0323 43.6274L77.4419 43.4121L74.8492 43.2179C74.1846 43.1688 73.7751 43.129 73.7751 43.0962C73.7751 43.0635 74.1893 43.0447 74.8562 43.0518C75.5231 43.0588 76.4451 43.0986 77.4606 43.1781C78.4762 43.2577 79.3911 43.3653 80.051 43.4636C80.412 43.4932 80.7684 43.5638 81.1134 43.6742Z" fill="white"/>
<path d="M80.9987 44.935C80.9987 44.9678 80.5822 44.935 79.9176 44.8882L77.3272 44.6729L74.7298 44.4787C74.0653 44.4296 73.6558 44.3898 73.6558 44.357C73.6558 44.3243 74.0699 44.3055 74.7368 44.3149C75.4037 44.3243 76.3257 44.3594 77.3413 44.4389C78.3568 44.5185 79.2718 44.6261 79.9317 44.7244C80.2942 44.7536 80.6522 44.8243 80.9987 44.935Z" fill="white"/>
<path d="M69.4485 66.3834C69.4393 66.3515 69.4345 66.3184 69.4344 66.2852C69.4344 66.2056 69.4204 66.1097 69.411 65.9927C69.397 65.7142 69.3759 65.3398 69.3478 64.8648C69.3034 63.8656 69.2425 62.4546 69.1653 60.7206C69.0343 57.2106 68.8681 52.3785 68.9313 47.027C68.9641 44.35 69.053 41.797 69.3104 39.4851C69.5678 37.1732 69.9726 35.1257 70.3306 33.4011C70.6887 31.6765 71.0326 30.31 71.2666 29.3576C71.3813 28.8896 71.4749 28.5339 71.5404 28.2648C71.5732 28.1502 71.5966 28.0589 71.6176 27.9817C71.6241 27.948 71.636 27.9156 71.6527 27.8857C71.6555 27.9192 71.6555 27.9529 71.6527 27.9864C71.6364 28.0659 71.6176 28.1595 71.5966 28.2742C71.5381 28.5456 71.4585 28.913 71.3626 29.3787C71.1567 30.3357 70.8478 31.7187 70.5038 33.4339C70.1598 35.1491 69.7854 37.2036 69.5327 39.5015C69.28 41.7994 69.2051 44.35 69.1723 47.0199C69.1162 52.3645 69.2589 57.2036 69.3502 60.7066C69.397 62.4429 69.4368 63.8539 69.4625 64.8531C69.4742 65.3211 69.4812 65.7048 69.4859 65.9833V66.2758C69.4808 66.3138 69.4681 66.3505 69.4485 66.3834Z" fill="#161B46"/>
<path d="M74.7487 36.2749C74.9049 36.269 75.0612 36.2737 75.2167 36.2889L76.6067 36.3732L81.6775 36.7195H81.7734V36.8154C81.5979 39.1391 81.3897 41.919 81.1627 44.9235V44.9774L81.1206 45.0078C80.8866 45.181 80.6268 45.3541 80.3624 45.5249C79.9028 45.826 79.4271 46.1018 78.9373 46.351C78.4593 46.6165 77.9338 46.7859 77.3906 46.8494C76.8576 46.865 76.3296 46.7425 75.8579 46.4937C75.4151 46.2643 74.9992 45.9865 74.6177 45.6653C74.4328 45.5109 74.2527 45.3541 74.0818 45.1973C73.9861 45.1164 73.9067 45.0179 73.8478 44.9072C73.7888 44.7993 73.7432 44.6845 73.7121 44.5655C73.6143 44.1272 73.5726 43.6782 73.5881 43.2294C73.6109 42.4364 73.682 41.6456 73.801 40.8613C74.0116 39.4245 74.269 38.2873 74.4399 37.4894C74.5288 37.0939 74.606 36.7874 74.6598 36.5838C74.6826 36.4771 74.7155 36.3729 74.7581 36.2726C74.7497 36.3806 74.7325 36.4879 74.7066 36.5931C74.6622 36.8271 74.6013 37.129 74.5288 37.5081C74.3767 38.3013 74.1544 39.4526 73.9672 40.8847C73.8588 41.6603 73.7971 42.4417 73.7823 43.2247C73.7707 43.6551 73.814 44.0852 73.911 44.5047C73.9576 44.7118 74.0701 44.8982 74.2316 45.0359C74.4001 45.1926 74.5779 45.3448 74.7628 45.5039C75.1321 45.8129 75.5347 46.0797 75.9632 46.2995C76.4003 46.5298 76.8897 46.6427 77.3836 46.6271C77.8943 46.566 78.3885 46.4071 78.8391 46.1591C79.322 45.9142 79.7907 45.6424 80.2431 45.3448C80.5028 45.1763 80.7602 45.0031 80.9919 44.8346L80.9427 44.9212C81.1767 41.919 81.4107 39.1391 81.5956 36.8178L81.6845 36.9207L76.6769 36.4808L75.2729 36.3474L74.8985 36.3053C74.8475 36.3017 74.7971 36.2914 74.7487 36.2749Z" fill="#161B46"/>
<path d="M80.5589 21.416C80.5589 21.416 79.6393 21.6828 77.2829 22.9417C74.971 24.1749 72.3408 25.3028 72.3408 25.3028L72.5421 29.0163L81.282 24.6242" fill="#D4D9F5"/>
<path d="M70.6138 23.4004L72.336 25.3028L71.4164 29.2832L69.8813 25.6866" fill="#D4D9F5"/>
<path d="M81.6259 38.9168C81.6259 38.9823 79.9762 38.9051 77.9521 38.7483C75.928 38.5915 74.29 38.409 74.2947 38.3458C74.2994 38.2826 75.9444 38.3458 77.9685 38.5143C79.9926 38.6828 81.6306 38.8536 81.6259 38.9168Z" fill="#161B46"/>
<g opacity="0.3">
<path opacity="0.3" d="M73.9436 44.8887C74.3391 45.5415 74.7088 46.4354 75.2493 46.9736C75.7753 47.5365 76.4863 47.8912 77.2524 47.9728C77.929 47.9848 78.5928 47.787 79.1524 47.4065C80.0721 46.8309 80.6383 45.9253 81.0478 44.9214C81.1063 44.8466 79.7328 45.7638 78.9863 46.1616C78.353 46.5395 77.6129 46.6982 76.8803 46.6133C75.7758 46.5243 74.786 45.6141 73.9483 44.8887" fill="#2D3259"/>
</g>
<g opacity="0.3">
<path opacity="0.3" d="M72.3056 25.7145C72.2283 25.7706 71.751 30.3079 71.751 30.3079L80.5213 25.0078L72.5372 29.0162L72.3056 25.7145Z" fill="#2D3259"/>
</g>
<path d="M70.8058 30.1396C69.3497 36.4399 68.3689 42.8407 67.8714 49.2879C67.5345 53.7619 67.2817 59.6915 67.2817 59.6915L69.2778 62.1626L72.3361 59.4552C72.3361 59.4552 72.2051 46.8613 72.3642 42.6446C72.4952 39.1744 71.9477 30.3222 71.9477 30.3222L70.8058 30.1396Z" fill="#FBAF2A"/>
<path d="M86.3105 35.7393C86.3474 35.8562 86.3748 35.9759 86.3924 36.0973C86.4369 36.3523 86.4978 36.6846 86.5703 37.0824C86.7177 37.9365 86.9119 39.0761 87.1295 40.335C87.3472 41.5939 87.539 42.7593 87.6631 43.5946C87.7262 44.0112 87.7731 44.3505 87.8035 44.5845C87.825 44.7058 87.8367 44.8286 87.8386 44.9518C87.8002 44.8345 87.7728 44.7139 87.7567 44.5915C87.7099 44.3388 87.6514 44.0065 87.5788 43.6087C87.4291 42.7546 87.2302 41.615 87.0079 40.3561C86.7856 39.0972 86.6101 37.9318 86.486 37.0965C86.4275 36.694 86.3808 36.3617 86.3457 36.1066C86.3228 35.9855 86.311 35.8625 86.3105 35.7393Z" fill="#161B46"/>
<path d="M88.9173 28.0967C88.9313 28.1131 88.6833 28.3096 88.3253 28.6747C87.3932 29.632 86.7452 30.8293 86.4533 32.1332C86.3456 32.6316 86.3199 32.9475 86.2988 32.9475C86.2865 32.87 86.2865 32.791 86.2988 32.7135C86.3095 32.5101 86.3337 32.3076 86.3714 32.1074C86.4939 31.4433 86.7188 30.8023 87.0383 30.2074C87.3569 29.6123 87.7676 29.0713 88.2551 28.6045C88.4018 28.462 88.5582 28.3299 88.7231 28.209C88.782 28.1624 88.8475 28.1246 88.9173 28.0967Z" fill="#161B46"/>
<path d="M72.3641 27.0785L71.5802 26.772L70.8385 28.0473L70.7051 30.1392L71.7511 30.3077L72.5373 29.016L72.3641 27.0785Z" fill="#FBAF2A"/>
<path d="M63.8934 33.3032C63.9261 33.3032 63.9542 38.4512 63.9542 44.816C63.9542 51.1808 63.9261 56.3312 63.8934 56.3312C63.8606 56.3312 63.8325 51.1832 63.8325 44.816C63.8325 38.4489 63.8583 33.3032 63.8934 33.3032Z" fill="#161B46"/>
<path d="M72.4203 25.27C72.4343 25.2817 72.2495 25.5625 71.9733 26.0282C71.6096 26.6349 71.2769 27.2597 70.9765 27.9002L70.8946 28.078L70.8384 28.1974L70.7823 28.0804C70.4964 27.4794 70.2524 26.8594 70.0522 26.2247C69.975 25.9907 69.9212 25.7872 69.8884 25.6514C69.863 25.5825 69.8495 25.5097 69.8486 25.4362C69.865 25.4362 69.9586 25.7263 70.1294 26.199C70.3002 26.6717 70.5553 27.3222 70.8923 28.0265H70.7823L70.8665 27.8464C71.1677 27.1997 71.5124 26.5742 71.8985 25.9744C72.0482 25.7404 72.1746 25.5672 72.2658 25.4455C72.3091 25.3803 72.361 25.3212 72.4203 25.27Z" fill="#161B46"/>
<path d="M81.3496 24.458C81.3118 24.4865 81.271 24.5108 81.228 24.5305L80.8746 24.7154L79.5666 25.394C78.4644 25.9673 76.9528 26.784 75.2797 27.6778C74.2595 28.2207 73.2954 28.7238 72.4553 29.145L72.3781 29.1848V29.0982C72.3781 28.0078 72.3594 27.0905 72.3524 26.4259C72.3524 26.1147 72.3524 25.8643 72.3524 25.6748C72.3483 25.5849 72.3523 25.4949 72.3641 25.4057C72.3784 25.4939 72.3855 25.5831 72.3851 25.6725C72.3851 25.862 72.4015 26.1147 72.4132 26.4259C72.4319 27.0905 72.4553 28.0078 72.4834 29.0959L72.4062 29.0491C73.2416 28.6209 74.2033 28.1131 75.2142 27.5702C76.8873 26.6763 78.4059 25.8714 79.5198 25.3168C80.0767 25.0383 80.5307 24.8207 80.8465 24.6733L81.2116 24.5095C81.2557 24.4876 81.302 24.4704 81.3496 24.458Z" fill="#161B46"/>
<path d="M64.951 27.3152C64.9674 27.3152 64.8317 27.5492 64.6539 27.9564C64.4239 28.4732 64.2551 29.015 64.1508 29.571C64.0519 30.1276 64.0166 30.6936 64.0455 31.2581C64.0712 31.691 64.1157 31.9601 64.0969 31.9601C64.0681 31.902 64.0492 31.8396 64.0408 31.7753C64.0042 31.6054 63.9777 31.4335 63.9612 31.2605C63.9031 30.6883 63.9267 30.1107 64.0314 29.5452C64.1351 28.9763 64.3186 28.4248 64.5766 27.9072C64.6521 27.751 64.7381 27.6002 64.834 27.4556C64.9019 27.3644 64.944 27.3105 64.951 27.3152Z" fill="#161B46"/>
<path d="M71.5592 30.4415C71.5405 30.4719 71.3416 30.3783 71.1146 30.2332C70.8876 30.0881 70.7168 29.9501 70.7355 29.922C70.7543 29.8939 70.9532 29.9875 71.1801 30.1302C71.4071 30.273 71.5779 30.4134 71.5592 30.4415Z" fill="#161B46"/>
<path d="M71.936 29.931C71.7217 29.5972 71.5429 29.242 71.4025 28.871C71.2254 28.5173 71.085 28.1465 70.9836 27.7642C71.1966 28.0983 71.3746 28.4536 71.5148 28.8242C71.692 29.178 71.8332 29.5489 71.936 29.931Z" fill="#161B46"/>
<path d="M93.8852 51.0404C93.8714 51.0244 93.8603 51.0062 93.8525 50.9865C93.8314 50.9468 93.8057 50.893 93.7706 50.8274C93.7355 50.7619 93.691 50.6683 93.6395 50.5677C93.5881 50.4671 93.5015 50.3571 93.4172 50.2331C92.9023 49.5363 92.3139 48.897 91.6622 48.326C90.8432 47.5748 89.8066 46.7278 88.639 45.752C88.0586 45.2629 87.4409 44.7528 86.8231 44.1818C86.1672 43.5976 85.557 42.9639 84.9979 42.2864H85.0868L81.5651 45.986C81.4037 46.1545 81.2422 46.3206 81.0971 46.4774V46.4001C82.4286 48.347 83.6407 50.2307 84.9137 51.8102C85.5116 52.5595 86.1515 53.2743 86.8301 53.9513C87.409 54.5533 88.0349 55.1081 88.7021 55.6104C89.9189 56.53 91.1404 56.9231 91.9898 56.9021C92.0975 56.9021 92.1981 56.9021 92.2917 56.9021L92.5514 56.874L92.7854 56.8506L92.968 56.8085L93.216 56.7546L93.3002 56.7406C93.2739 56.7519 93.2464 56.7605 93.2183 56.7664L92.9726 56.8319L92.7901 56.8787L92.5561 56.9091L92.294 56.9419C92.1981 56.9419 92.0975 56.9419 91.9898 56.9419C91.1311 56.9793 89.8838 56.5885 88.6507 55.6712C87.9838 55.1694 87.3578 54.6154 86.7787 54.0145C86.0954 53.3377 85.4508 52.6229 84.8482 51.8734C83.5658 50.2916 82.349 48.4055 81.0176 46.461L80.9895 46.4212L81.0246 46.3861L81.4926 45.8947L85.0026 42.2186L85.0494 42.1694L85.0915 42.2233C85.6453 42.898 86.2492 43.53 86.898 44.114C87.5134 44.6826 88.1288 45.1974 88.7068 45.6865C89.8768 46.6576 90.9017 47.514 91.7137 48.2745C92.365 48.8531 92.9483 49.5039 93.4523 50.2144C93.5342 50.3407 93.6044 50.4483 93.6676 50.5536L93.7916 50.8228L93.8642 50.9865C93.8721 51.0041 93.8791 51.0221 93.8852 51.0404Z" fill="#161B46"/>
<g opacity="0.3">
<path opacity="0.3" d="M76.8897 48.4567C76.8665 48.2579 76.7696 48.0751 76.6183 47.9442C76.3281 47.7547 75.9631 48.0051 75.6659 48.1782C74.882 48.6462 73.9132 48.6299 73.0006 48.5901C70.251 48.4992 67.5095 48.239 64.7919 47.8108C63.4651 47.5885 62.1243 47.2984 60.9379 46.6619C59.7515 46.0254 58.7149 45.0028 58.3335 43.7112L57.697 43.3672C58.1908 44.4178 58.1393 47.3897 58.3148 48.5339C58.4903 49.6782 59.0004 50.4972 60.1025 50.8529C60.5546 50.9688 61.0239 51.0021 61.4878 50.9511C66.011 50.7171 70.5741 50.9301 75.0973 50.7171C75.7455 50.6844 76.5013 50.5955 76.8406 50.0502C77.1331 49.5846 77.0161 48.9855 76.8897 48.4567Z" fill="#2D3259"/>
</g>
<path d="M79.7444 38.189C79.7444 38.189 77.601 35.7366 77.2172 36.0081C76.8335 36.2795 76.2812 36.4269 76.8124 37.4121C77.3436 38.3972 78.2398 38.9635 78.4083 39.8083C78.5768 40.653 78.3872 42.6888 79.3302 43.3791C80.2733 44.0694 81.586 45.8618 81.586 45.8618L84.862 42.4454L83.5656 41.4697C83.5656 41.4697 84.3495 39.5134 84.3425 38.4908C84.3355 37.4683 83.6405 36.1906 83.6405 36.1906C83.5561 35.6821 83.3099 35.2143 82.9385 34.8568C82.8793 34.4173 82.7926 33.982 82.6788 33.5534C82.5033 32.9053 80.1539 30.6401 80.1539 30.6401C79.9411 30.7896 79.7946 31.0158 79.7453 31.2712C79.696 31.5265 79.7477 31.791 79.8895 32.009C80.2115 32.5316 80.5705 33.0305 80.9636 33.502L78.8178 33.2445C78.7805 33.395 78.7747 33.5516 78.8007 33.7044C78.8268 33.8572 78.8841 34.003 78.9691 34.1326C79.0542 34.2622 79.165 34.3728 79.2948 34.4576C79.4246 34.5424 79.5705 34.5994 79.7234 34.6252C80.9051 34.927 81.1835 35.3599 81.1835 35.3599L79.721 35.8443C79.721 35.8443 79.7889 36.7078 80.423 36.7288L81.0618 36.7475L79.7444 38.189Z" fill="#937263"/>
<path d="M80.3014 36.7216L81.7194 36.6748H81.7498L81.7638 36.6912C82.0452 37.0133 82.2386 37.4026 82.3254 37.8214C82.4018 38.3346 82.2994 38.8584 82.0353 39.305C81.725 39.7558 81.347 40.156 80.9144 40.4913C80.5753 40.7662 80.2904 41.1019 80.0744 41.4812C79.9378 41.7402 79.8732 42.0311 79.8872 42.3236C79.9012 42.5318 79.9527 42.6395 79.941 42.6441C79.9293 42.6488 79.9246 42.6184 79.9012 42.5669C79.8711 42.4918 79.8507 42.4132 79.8404 42.3329C79.8065 42.0291 79.8609 41.722 79.9972 41.4484C80.2078 41.052 80.494 40.7006 80.8395 40.4141C81.2581 40.0793 81.6255 39.6852 81.93 39.2441C82.1796 38.8213 82.2793 38.3266 82.2131 37.8401C82.1344 37.4388 81.9557 37.0637 81.6936 36.7497L81.7311 36.7661C80.8466 36.7731 80.299 36.7544 80.3014 36.7216Z" fill="#5E483F"/>
<path d="M83.292 36.158C83.2733 36.158 83.2125 36.0433 83.0744 35.8772C82.8893 35.665 82.6447 35.5134 82.3724 35.442C82.0987 35.3735 81.8163 35.3467 81.5347 35.3624C81.4151 35.3785 81.2939 35.3785 81.1743 35.3624C81.2853 35.3107 81.4053 35.2813 81.5277 35.2758C81.8205 35.2341 82.1188 35.2508 82.4052 35.325C82.5649 35.3706 82.716 35.4425 82.8521 35.5379C82.9613 35.6173 83.0562 35.7146 83.1329 35.8257C83.2155 35.9197 83.2705 36.0347 83.292 36.158Z" fill="#5E483F"/>
<path d="M82.7071 34.5505C82.6813 34.5763 82.3631 34.2557 81.8904 33.9796C81.4177 33.7034 80.9825 33.5771 80.9918 33.542C81.3304 33.5879 81.6564 33.7007 81.9509 33.8738C82.2453 34.047 82.5024 34.277 82.7071 34.5505Z" fill="#5E483F"/>
<path d="M56.5083 37.7958L59.328 48.4475C59.404 48.7342 59.5739 48.9871 59.8107 49.1657C60.0474 49.3444 60.3372 49.4384 60.6338 49.4327L75.233 49.1448C75.4278 49.1411 75.6193 49.0944 75.794 49.0081C75.9687 48.9218 76.1221 48.798 76.2435 48.6456C76.3648 48.4932 76.4511 48.3159 76.496 48.1263C76.541 47.9368 76.5436 47.7396 76.5036 47.549L74.3532 37.3466C74.2904 37.0493 74.1273 36.7827 73.8913 36.5914C73.6552 36.4001 73.3606 36.2958 73.0568 36.2959H57.6643C57.4814 36.296 57.3009 36.338 57.1368 36.4188C56.9727 36.4995 56.8293 36.6168 56.7176 36.7617C56.606 36.9066 56.529 37.0752 56.4928 37.2545C56.4565 37.4337 56.4618 37.6189 56.5083 37.7958Z" fill="#161B46"/>
<path d="M55.2822 40.1993C55.1336 40.011 55.0527 39.7781 55.0527 39.5382C55.0527 39.2984 55.1336 39.0655 55.2822 38.8772C55.4349 38.6931 55.6262 38.5446 55.8425 38.4424C56.0588 38.3401 56.2948 38.2864 56.5341 38.2852C57.0168 38.2869 57.4942 38.3856 57.9381 38.5753C58.4888 38.7865 59.0178 39.0506 59.5176 39.3639C59.8709 39.5862 60.2359 39.874 60.3038 40.2835C60.3717 40.693 59.9271 41.1634 59.5644 40.9574C59.8184 41.0648 60.0433 41.2308 60.2206 41.4419C60.398 41.653 60.5227 41.9032 60.5846 42.1719C60.6618 42.6937 60.3834 42.9722 59.8826 43.1219C60.0685 43.1999 60.2172 43.3465 60.2978 43.5313C60.3784 43.7161 60.3848 43.9248 60.3155 44.1141C60.1306 44.5049 59.5924 44.6125 59.19 44.4581C58.7992 44.2691 58.4615 43.9861 58.2072 43.6344C58.4956 44.1328 58.5952 44.7183 58.488 45.2841C57.9337 45.0854 57.4443 44.7387 57.0731 44.2817C56.7018 43.8246 56.4628 43.2746 56.382 42.6914C56.1142 42.4785 55.9276 42.1801 55.8535 41.8462C55.7794 41.5122 55.8222 41.163 55.9748 40.8568C55.5279 40.7188 55.0201 40.0331 55.0552 39.5651" fill="#937263"/>
<path d="M59.8544 43.1262C59.6845 43.0164 59.5234 42.8936 59.3724 42.7588C59.004 42.4512 58.5714 42.2297 58.1065 42.1107C57.8521 42.0544 57.5886 42.0544 57.3343 42.1107C57.1283 42.162 56.9364 42.2588 56.7727 42.3938C56.625 42.5283 56.5008 42.6864 56.4053 42.8618C56.408 42.8054 56.4232 42.7502 56.4497 42.7003C56.5122 42.5614 56.603 42.437 56.7165 42.3353C56.8842 42.1813 57.0864 42.0697 57.3062 42.01C57.5766 41.9403 57.8599 41.9363 58.1322 41.9983C58.6158 42.1194 59.061 42.3609 59.4262 42.7003C59.5868 42.8232 59.7307 42.9664 59.8544 43.1262Z" fill="#5E483F"/>
<path d="M59.7304 41.0089C59.5278 40.9538 59.3322 40.8753 59.1478 40.7749C58.9455 40.6729 58.7377 40.5823 58.5253 40.5035C58.2646 40.4125 57.997 40.3429 57.725 40.2952C57.4574 40.2462 57.1831 40.2462 56.9154 40.2952C56.6979 40.3354 56.4923 40.4242 56.314 40.555C56.1527 40.6828 56.019 40.842 55.9209 41.023C55.9209 41.023 55.9209 40.9575 55.9677 40.8568C56.0354 40.7121 56.1355 40.5848 56.2602 40.4848C56.4433 40.3345 56.6601 40.2309 56.892 40.1829C57.174 40.1278 57.4641 40.1278 57.7461 40.1829C58.0253 40.2318 58.2995 40.3062 58.5651 40.4052C58.7785 40.4907 58.9856 40.5907 59.1852 40.7047C59.3743 40.7922 59.5566 40.8939 59.7304 41.0089Z" fill="#5E483F"/>
<g opacity="0.3">
<path opacity="0.3" d="M88.262 55.7391C88.145 55.3179 88.2971 55.3156 87.9625 55.0371C86.7274 53.9582 85.5954 52.7667 84.5812 51.478C83.5422 50.1769 81.9206 47.5374 81.9206 47.5374L81.5369 47.4204C81.8691 49.3228 82.8262 51.0474 83.7692 52.7345C84.2481 53.6713 84.8263 54.5539 85.4938 55.367C86.1958 56.1556 87.099 56.8038 88.1333 57.005C88.2375 56.8131 88.3025 56.6023 88.3246 56.385C88.3467 56.1677 88.3254 55.9481 88.262 55.7391Z" fill="#2D3259"/>
</g>
<path d="M15.9048 30.9658C15.9171 31.0432 15.9226 31.1215 15.9212 31.1998C15.9212 31.3714 15.9259 31.5961 15.9352 31.8737C15.9352 32.0212 15.9352 32.185 15.9352 32.3605C15.9352 32.536 15.9633 32.7302 15.9774 32.9384C16.0125 33.3503 16.0312 33.823 16.1107 34.3424C16.1458 34.6022 16.1809 34.8736 16.2184 35.1568C16.2558 35.4399 16.3167 35.7301 16.3681 36.0319C16.4664 36.6403 16.6162 37.2791 16.7613 37.9554C17.0748 39.3009 17.4633 40.7634 17.8868 42.3148C18.3103 43.8662 18.6847 45.3334 18.9772 46.6883C19.1106 47.3716 19.251 48.0151 19.3329 48.6281C19.3774 48.9323 19.4289 49.2272 19.4616 49.5103C19.4944 49.7935 19.5178 50.0696 19.5435 50.3317C19.6067 50.8511 19.6067 51.3285 19.6231 51.7357C19.6231 51.9439 19.6395 52.1381 19.6371 52.316C19.6348 52.4938 19.6231 52.6553 19.6161 52.805C19.602 53.0843 19.5903 53.3089 19.581 53.479C19.5787 53.5574 19.5708 53.6356 19.5576 53.713C19.5497 53.6352 19.5497 53.5568 19.5576 53.479C19.5576 53.3081 19.5576 53.0835 19.5576 52.805C19.5576 52.6576 19.5576 52.4962 19.5576 52.3183C19.5576 52.1405 19.5388 51.9486 19.5295 51.7403C19.5037 51.3262 19.4967 50.8535 19.4242 50.3363C19.3961 50.0758 19.3657 49.8044 19.3329 49.522C19.2978 49.2389 19.2417 48.9487 19.1949 48.6445C19.1083 48.0361 18.9609 47.395 18.8275 46.7164C18.5256 45.3685 18.1442 43.8943 17.7253 42.3523C17.3065 40.8102 16.9321 39.3407 16.6162 37.9882C16.4758 37.3096 16.3284 36.6661 16.2371 36.0553C16.188 35.7511 16.1318 35.4586 16.0944 35.1755C16.0569 34.8923 16.0288 34.6186 15.9984 34.3565C15.9235 33.837 15.9142 33.362 15.8884 32.9525C15.8884 32.7442 15.8627 32.55 15.8604 32.3722V31.8831C15.8604 31.6023 15.8721 31.38 15.8767 31.2092C15.8775 31.1273 15.887 31.0457 15.9048 30.9658Z" fill="#161B46"/>
<path d="M48.082 42.1791L51.3931 30.4019L55.4671 31.1436C55.4671 31.1436 54.4913 32.2551 54.4913 33.2777C54.4913 34.3003 53.8127 43.9387 53.8127 43.9387C53.8127 43.9387 49.7622 45.1275 48.1242 42.385" fill="#AE7461"/>
<path d="M51.3932 30.4016C51.3932 30.4016 50.9392 29.1731 51.2972 28.1107C51.6552 27.0483 52.8791 26.2247 52.8018 25.5858C52.7246 24.947 53.3751 23.419 53.9718 23.5383C54.5685 23.6577 54.9874 24.2403 54.4937 25.2185C54.1769 25.8612 53.9154 26.5297 53.7121 27.2168C53.7121 27.2168 59.7961 24.0461 60.2945 23.9783C60.7929 23.9104 61.289 23.8402 61.4177 24.238C61.5464 24.6358 60.332 25.1412 60.332 25.1412L58.694 27.2683C58.4223 28.0795 58.0404 28.8496 57.5591 29.5568C56.8571 30.5069 55.4741 31.1433 55.4741 31.1433L53.7004 33.2774C53.7004 33.2774 51.0024 32.3601 51.3932 30.4016Z" fill="#AE7461"/>
<path d="M60.2219 25.2254C60.2219 25.2254 60.1681 25.1903 60.0722 25.1435C59.9365 25.0826 59.7855 25.0646 59.6393 25.0921C59.1546 25.2343 58.7266 25.5248 58.4155 25.9228C58.0901 26.32 57.8143 26.7553 57.5941 27.2191C57.5113 27.4193 57.4045 27.6087 57.2759 27.7831C57.3176 27.5692 57.3884 27.3622 57.4865 27.1676C57.6822 26.6772 57.9529 26.2201 58.2891 25.8128C58.6963 25.3448 59.197 25.0219 59.6252 24.9751C59.7934 24.9544 59.9634 24.9942 60.1049 25.0874C60.1985 25.1599 60.2219 25.2208 60.2219 25.2254Z" fill="#6F4439"/>
<path d="M57.9874 26.0236C58.0108 26.0634 57.6177 26.3301 57.1123 26.6203C56.6068 26.9105 56.1763 27.114 56.1529 27.0742C56.1295 27.0345 56.5202 26.7654 57.028 26.4752C57.5358 26.185 57.964 25.9815 57.9874 26.0236Z" fill="#6F4439"/>
<path d="M54.7629 27.39C54.7418 27.3502 55.2309 27.1887 55.7854 27.39C56.34 27.5912 56.6349 27.996 56.5951 28.0148C56.5553 28.0335 56.2464 27.7152 55.7316 27.5468C55.2168 27.3783 54.7699 27.4391 54.7629 27.39Z" fill="#6F4439"/>
<path d="M42.0497 42.8598C42.0193 43.0353 46.6595 49.2972 48.1641 50.4719C51.8566 53.3524 54.571 49.4563 54.2996 46.1592C54.0282 42.8622 44.4365 27.3667 44.4365 27.3667L41.3313 34.6839L42.0497 42.8598Z" fill="#FBAF2A"/>
<path d="M17.7651 25.7079L26.2032 23.7259L26.9988 22.3804L35.4626 22.5161L37.4282 24.6198L43.0676 27.3903L38.3337 47.2639L22.4498 48.0806L17.7651 25.7079Z" fill="#161B46"/>
<path d="M27.42 22.1182L24.2633 24.0767L17.6341 25.5205L19.7401 52.1544C19.7401 52.1544 13.45 64.4911 12.5 75H29.5C29.5 75 30.8949 61.3998 30.7287 56.0482C30.5626 50.6966 30.6655 41.3062 30.6655 41.3062L26.3459 25.1602L27.42 22.1182Z" fill="#FBAF2A"/>
<path d="M36.0521 24.0906L35.4624 22.2725L37.6667 24.4908C37.6667 24.4908 38.9724 24.9447 39.2532 25.0477C41.4458 25.8667 44.4363 27.3666 44.4363 27.3666L40.6923 51.0404C40.6923 51.0404 45.9095 64.6385 45.5 75C45.5 75 34.0279 75.1895 29.5 75L30.5344 40.7795C30.5344 40.7795 34.5124 36.0831 35.1746 31.3563C35.8368 26.6295 36.0521 24.0906 36.0521 24.0906Z" fill="#FBAF2A"/>
<path d="M30.3309 44.5238C30.2775 44.4799 30.2282 44.4313 30.1835 44.3787L29.7833 43.9458L28.3068 42.3078L23.3202 36.6918L23.2875 36.6567L23.3015 36.6122C23.5542 35.6973 23.821 34.7402 24.0948 33.7551C24.2118 33.3292 24.3288 32.908 24.4458 32.4915L24.5253 32.6015L21.2166 32.4751H21.1042L21.144 32.3698C22.0402 29.9526 22.8101 27.884 23.36 26.4005C23.6338 25.6798 23.8537 25.1041 24.0129 24.6899C24.0854 24.5027 24.1462 24.353 24.1907 24.236C24.209 24.1819 24.2333 24.1301 24.2632 24.0815C24.2525 24.1374 24.2368 24.1922 24.2164 24.2453L24.062 24.7133L23.4559 26.4403C22.9177 27.9308 22.1689 30.0088 21.2961 32.433L21.2236 32.323L24.5323 32.44H24.6423L24.6119 32.5453C24.4972 32.9595 24.3779 33.383 24.2609 33.8089C23.9871 34.7917 23.7204 35.7511 23.4653 36.6637L23.4466 36.5865L28.398 42.2423C28.9994 42.9443 29.4861 43.5082 29.8348 43.9107L30.2139 44.3647C30.2584 44.4134 30.2976 44.4668 30.3309 44.5238Z" fill="#161B46"/>
<path d="M29.3339 74.7683C29.2871 74.7683 29.5071 67.0955 29.8277 57.6372C30.1482 48.1789 30.4454 40.5084 30.4922 40.5107C30.539 40.5131 30.3191 48.1813 30.0008 57.6419C29.6826 67.1025 29.3831 74.7683 29.3339 74.7683Z" fill="#161B46"/>
<path d="M37.6457 24.4019C37.6632 24.4639 37.6758 24.5273 37.6831 24.5914C37.7042 24.7318 37.7299 24.9143 37.7627 25.1436C37.8282 25.6421 37.9195 26.337 38.0341 27.1982C38.2517 28.9672 38.5536 31.4101 38.8999 34.2181L38.914 34.3305L38.8016 34.3117L36.9671 33.9959L37.063 33.8742L37.4117 34.6557L38.0996 36.1954L38.1207 36.2446L38.0856 36.2867L33.0008 42.1835L31.4774 43.9198C31.3066 44.1117 31.1686 44.2661 31.0609 44.3878C30.9533 44.5095 30.3355 44.9658 30.3308 44.9634C30.3262 44.9611 30.9486 44.479 31.0328 44.3667L31.44 43.88L32.9236 42.1086L37.9639 36.1744L37.9499 36.2656L37.2619 34.7283L36.9133 33.9444L36.8454 33.797L37.0069 33.825L38.8414 34.1433L38.7408 34.2369C38.4179 31.4289 38.1371 28.9766 37.9335 27.2169C37.8422 26.3511 37.7674 25.6538 37.7135 25.153C37.6925 24.919 37.6761 24.7412 37.6621 24.6008C37.6485 24.5354 37.643 24.4686 37.6457 24.4019Z" fill="#161B46"/>
<path d="M28.2811 63.9454C27.9441 63.4985 27.2632 63.2224 26.9145 63.6599H26.9262C26.7535 63.7945 26.6261 63.9788 26.5612 64.188C26.4964 64.3972 26.4972 64.6212 26.5635 64.8299C26.6157 64.9582 26.6929 65.0747 26.7908 65.1726C26.8887 65.2705 27.0052 65.3477 27.1335 65.3999C27.2617 65.452 27.3991 65.4779 27.5375 65.4761C27.676 65.4742 27.8126 65.4447 27.9394 65.3892C28.0623 65.3222 28.1697 65.2301 28.2546 65.1188C28.3396 65.0076 28.4001 64.8797 28.4323 64.7435C28.4646 64.6073 28.4677 64.4659 28.4417 64.3284C28.4156 64.1908 28.3609 64.0604 28.2811 63.9454Z" fill="#161B46"/>
<path d="M28.8028 54.9437C28.4659 54.4991 27.7826 54.2229 27.4339 54.6605H27.448C27.2747 54.7947 27.1469 54.979 27.082 55.1883C27.0171 55.3976 27.0183 55.6219 27.0853 55.8305C27.1372 55.9587 27.2142 56.0751 27.3119 56.173C27.4096 56.2709 27.5259 56.3482 27.6539 56.4003C27.782 56.4524 27.9192 56.4784 28.0575 56.4766C28.1957 56.4748 28.3322 56.4452 28.4589 56.3898C28.582 56.3228 28.6897 56.2306 28.7748 56.1192C28.86 56.0078 28.9208 55.8798 28.9532 55.7434C28.9857 55.607 28.989 55.4653 28.9631 55.3275C28.9372 55.1897 28.8826 55.059 28.8028 54.9437Z" fill="#161B46"/>
<g opacity="0.3">
<path opacity="0.3" d="M21.219 32.3956C21.2752 32.5758 22.4639 32.7583 22.6721 33.2591C22.8804 33.7598 22.7774 34.3331 22.63 34.8573C22.4826 35.3814 22.2907 35.9056 22.3282 36.4485C22.3937 37.4196 23.1589 38.1777 23.8772 38.8376C25.8803 40.6792 28.3232 42.6799 30.331 44.5238C28.5549 42.2587 26.2406 39.914 24.2774 37.8104C23.9671 37.5204 23.727 37.1634 23.5754 36.7667C23.4209 36.2543 23.5754 35.7067 23.7251 35.1966L24.3289 33.1631C24.3803 32.9876 24.4927 32.6951 24.5184 32.5992C24.2735 32.5472 24.0245 32.5167 23.7743 32.5079C23.7743 32.5079 22.0076 32.3207 21.2307 32.3956" fill="#2D3259"/>
</g>
<path d="M44.1229 31.375C44.1256 31.4426 44.1193 31.5103 44.1042 31.5762C44.0808 31.726 44.0504 31.9155 44.0153 32.1519C43.9264 32.6714 43.807 33.3874 43.6619 34.2579C43.3601 36.0597 42.9599 38.5097 42.4919 41.2194C42.0239 43.9291 41.6051 46.3955 41.2751 48.1715C41.109 49.0607 40.9709 49.7768 40.868 50.2775C40.8196 50.51 40.7798 50.6995 40.7486 50.8461C40.7393 50.9137 40.7212 50.9798 40.6948 51.0427C40.6954 50.9743 40.7025 50.9062 40.7159 50.8391C40.7393 50.6917 40.7674 50.4998 40.8048 50.2658C40.8914 49.7464 41.0107 49.0303 41.1581 48.1598L42.3281 41.2007C42.7844 38.4816 43.215 36.0246 43.5449 34.2485C43.7111 33.3593 43.8491 32.6409 43.9498 32.1425C43.9989 31.9085 44.0387 31.7213 44.0714 31.5739C44.0812 31.5059 44.0985 31.4392 44.1229 31.375Z" fill="#161B46"/>
<path d="M17.751 25.4946C16.5052 25.9149 15.4348 26.7382 14.709 27.8346C13.305 29.9079 10.8808 50.0202 10.965 51.4148C11.0493 52.8095 12.2754 56.3475 15.528 55.8819C18.7806 55.4162 27.434 49.372 27.434 49.372L24.4575 43.6062L18.1395 46.5827L18.9983 36.626L17.751 25.4946Z" fill="#FBAF2A"/>
<g opacity="0.3">
<path opacity="0.3" d="M36.9297 53.9422C36.7237 53.0366 35.6029 52.7465 34.6833 52.6295L19.6839 50.7153L18.3828 54.9273C18.5162 55.8938 18.6519 56.8789 19.0638 57.7634C19.4756 58.6479 20.208 59.4365 21.1557 59.6682C21.9934 59.8718 22.8686 59.6261 23.6946 59.3804L34.7254 56.1044C35.285 55.9764 35.8153 55.7438 36.2885 55.4187C36.7378 55.0935 37.056 54.5085 36.9297 53.9422Z" fill="#2D3259"/>
</g>
<g opacity="0.3">
<path opacity="0.3" d="M18.4623 36.5465C18.2821 35.8445 18.0084 35.0255 17.3227 34.7564C16.5927 34.4709 15.7456 35.0021 15.4203 35.7158C15.0951 36.4295 15.1653 37.2555 15.2799 38.03C15.6777 40.7257 16.6278 43.7162 17.5076 46.2949L20.5847 45.1647C20.1775 42.3099 19.1713 39.3428 18.4623 36.5465Z" fill="#2D3259"/>
</g>
<path d="M50.2467 34.0918L47.2188 43.2178L51.15 46.0726L54.3183 47.3456C54.3183 47.3292 54.9103 42.7872 54.7606 44.3737L55.4626 35.0021L50.2467 34.0918Z" fill="#FBAF2A"/>
<path d="M50.2467 34.0918C50.2348 34.2287 50.2105 34.3641 50.1742 34.4966C50.1227 34.7564 50.0338 35.1284 49.9144 35.5847C49.6804 36.502 49.2779 37.7469 48.7912 39.0947C48.3045 40.4426 47.8927 41.6874 47.6353 42.6047C47.5066 43.0587 47.4013 43.4261 47.3381 43.6835C47.3101 43.8178 47.2701 43.9493 47.2188 44.0766C47.2336 43.9401 47.2579 43.8049 47.2913 43.6718C47.3451 43.412 47.434 43.04 47.5534 42.5813C47.7874 41.6664 48.1899 40.4215 48.6766 39.0713C49.1633 37.7211 49.5728 36.4786 49.8325 35.5613C49.9612 35.1074 50.0665 34.7376 50.1297 34.4826C50.1593 34.3497 50.1984 34.2191 50.2467 34.0918Z" fill="#161B46"/>
<path d="M49.2592 47.8369C49.115 47.6908 48.9886 47.5282 48.8824 47.3525C48.6039 46.9452 48.3484 46.5225 48.1173 46.0866C47.8868 45.651 47.6798 45.2034 47.4972 44.7458C47.4133 44.5589 47.3497 44.3635 47.3076 44.1631C47.413 44.3375 47.503 44.5207 47.5767 44.7106C47.7335 45.0523 47.9558 45.5226 48.2249 46.0304C48.494 46.5382 48.7584 46.9851 48.955 47.3057C49.0705 47.4743 49.1722 47.6519 49.2592 47.8369Z" fill="#161B46"/>
<path d="M17.751 45.9859C17.4234 45.9094 17.1032 45.8045 16.7939 45.6724C16.4718 45.5804 16.1585 45.4598 15.8579 45.312C16.1961 45.3437 16.5274 45.4266 16.8407 45.5577C17.164 45.6537 17.4709 45.798 17.751 45.9859Z" fill="#161B46"/>
<path d="M18.7035 33.0457C18.6618 32.984 18.6302 32.9161 18.6099 32.8445C18.5561 32.7111 18.4859 32.5169 18.4086 32.2712C18.0086 30.9935 17.805 29.6624 17.8049 28.3236C17.8049 28.0685 17.8049 27.8556 17.8237 27.7175C17.8227 27.6431 17.8329 27.5689 17.8541 27.4976C17.8728 27.4976 17.8705 27.8135 17.8915 28.3236C17.9399 29.6505 18.1418 30.9673 18.4929 32.2478C18.6239 32.7392 18.7222 33.041 18.7035 33.0457Z" fill="#161B46"/>
<g opacity="0.3">
<path opacity="0.3" d="M38.0319 34.9041L39.1387 34.9789C38.9004 34.6658 38.5785 34.4263 38.21 34.288C37.8416 34.1497 37.4416 34.1183 37.0561 34.1974C37.0818 34.8643 37.7768 35.3838 37.7347 36.0507C37.6718 36.4045 37.5029 36.7309 37.2503 36.9867L35.1841 39.5302L35.3292 40.8032C36.1739 39.5981 37.0257 38.4632 37.8704 37.2698C38.1527 36.919 38.3591 36.5134 38.4765 36.0787C38.5701 35.6365 38.425 35.1193 38.0319 34.9041Z" fill="#2D3259"/>
</g>
<g opacity="0.3">
<path opacity="0.3" d="M49.0157 38.2849L49.3503 37.2998C48.7864 38.9916 46.8723 40.2903 46.2428 41.9587C45.9874 42.6661 45.9179 43.4272 46.0408 44.1692C46.1637 44.9112 46.475 45.6092 46.9448 46.1965C47.1624 46.4632 47.5368 46.7206 47.8223 46.5264C47.9296 46.4633 48.0139 46.3674 48.0628 46.2528C48.1116 46.1383 48.1225 46.0111 48.0938 45.8899C48.0048 45.6559 47.3473 44.2917 47.2303 44.0764C47.1437 43.9126 47.3403 43.4423 47.6024 42.5625C48.054 41.0087 48.5524 39.8364 49.0157 38.2849Z" fill="#2D3259"/>
</g>
<path d="M24.6541 11.5298C24.6199 13.0327 24.9048 14.5259 25.4901 15.9106C26.0754 17.2953 26.9477 18.5402 28.0495 19.563L29.5681 15.1661" fill="#161B46"/>
<path d="M36.0872 2.78505C34.7839 2.08305 33.2114 1.97072 31.7559 2.26088C30.3004 2.55104 28.9479 3.21327 27.6586 3.95505C26.9355 4.37391 26.2171 4.83255 25.7 5.48307C24.7523 6.67413 23.828 8.62803 23.7274 10.1467C23.6525 11.3728 24.1228 14.4453 24.6423 15.5591C25.1103 16.5817 27.345 17.3609 28.4448 17.6136L38.5349 5.88087C38.3524 5.22841 38.042 4.61874 37.6218 4.08728C37.2016 3.55582 36.68 3.11317 36.0872 2.78505Z" fill="#161B46"/>
<path d="M37.8258 4.36698L35.418 3.93408C36.7401 7.08372 37.0981 14.2839 37.8539 17.6137C38.7455 16.3197 40.8164 12.3791 40.7064 10.8137C40.5964 9.24822 40.6993 4.10022 37.8258 4.36698Z" fill="#161B46"/>
<path d="M39.2089 9.50079C39.0521 7.08357 37.4445 4.11879 35.0367 4.38321L29.4675 5.80359C28.6108 6.0222 27.8467 6.50968 27.2874 7.19447C26.7281 7.87927 26.4031 8.72531 26.36 9.60842C26.36 9.69968 26.3436 9.58737 26.3459 9.65757L27.5885 24.079L31.7701 32.3766L35.4602 23.6742C35.4602 22.5042 35.4602 21.5682 35.4602 21.5682C35.4602 21.5682 38.5467 21.0487 39.1761 17.0192C39.492 15.0162 39.3961 12.1848 39.2089 9.50079Z" fill="#AE7461"/>
<path d="M38.2378 12.5429C38.2397 12.6778 38.1885 12.8082 38.0953 12.9058C38.0021 13.0033 37.8743 13.0604 37.7394 13.0647C37.6735 13.0698 37.6072 13.0617 37.5445 13.0408C37.4817 13.0199 37.4238 12.9866 37.3741 12.943C37.3244 12.8994 37.2839 12.8463 37.255 12.7869C37.2261 12.7274 37.2094 12.6627 37.2059 12.5967C37.2039 12.4622 37.2548 12.3322 37.3475 12.2347C37.4402 12.1371 37.5675 12.0798 37.7019 12.0749C37.7681 12.0695 37.8346 12.0774 37.8976 12.0981C37.9606 12.1189 38.0188 12.152 38.0688 12.1957C38.1187 12.2393 38.1594 12.2925 38.1885 12.3522C38.2175 12.4118 38.2343 12.4767 38.2378 12.5429Z" fill="#161B46"/>
<path d="M38.6052 11.0782C38.542 11.146 38.1372 10.8582 37.5943 10.8606C37.0514 10.8629 36.6302 11.1414 36.5694 11.0735C36.5413 11.0431 36.6045 10.9214 36.7823 10.7927C37.0228 10.6259 37.3087 10.5368 37.6013 10.5376C37.8902 10.5356 38.1722 10.6258 38.4063 10.795C38.5771 10.9261 38.6356 11.0478 38.6052 11.0782Z" fill="#161B46"/>
<path d="M33.4151 12.5429C33.417 12.6778 33.3658 12.8082 33.2726 12.9058C33.1794 13.0033 33.0515 13.0604 32.9166 13.0647C32.8507 13.0698 32.7844 13.0617 32.7217 13.0408C32.659 13.0199 32.601 12.9866 32.5513 12.943C32.5016 12.8994 32.4611 12.8463 32.4323 12.7869C32.4034 12.7274 32.3867 12.6627 32.3831 12.5967C32.3812 12.4622 32.432 12.3322 32.5248 12.2347C32.6175 12.1371 32.7447 12.0798 32.8792 12.0749C32.9453 12.0695 33.0118 12.0774 33.0748 12.0981C33.1378 12.1189 33.196 12.152 33.246 12.1957C33.296 12.2393 33.3367 12.2925 33.3657 12.3522C33.3947 12.4118 33.4115 12.4767 33.4151 12.5429Z" fill="#161B46"/>
<path d="M33.3261 11.0781C33.2629 11.146 32.8698 10.8582 32.3153 10.8605C31.7607 10.8629 31.3512 11.1413 31.2903 11.0735C31.2623 11.043 31.3254 10.9214 31.5033 10.7927C31.7437 10.6258 32.0296 10.5368 32.3223 10.5376C32.611 10.5367 32.8926 10.6267 33.1272 10.795C33.2981 10.926 33.3565 11.0477 33.3261 11.0781Z" fill="#161B46"/>
<path d="M35.0647 15.4445C35.0647 15.4117 35.4064 15.3509 35.9656 15.2784C36.1084 15.2643 36.2417 15.2362 36.2651 15.138C36.2784 14.992 36.2457 14.8455 36.1715 14.7191C36.0358 14.3759 35.8946 14.0155 35.748 13.638C35.163 12.1006 34.7371 10.83 34.812 10.8136C34.8869 10.7973 35.3994 12.0187 35.982 13.5561C36.1247 13.9352 36.2581 14.2956 36.3868 14.6419C36.4767 14.8129 36.5032 15.0101 36.4617 15.1988C36.441 15.249 36.4092 15.2938 36.3687 15.3299C36.3282 15.366 36.2799 15.3923 36.2277 15.4071C36.1513 15.4275 36.0728 15.4385 35.9937 15.4398C35.6855 15.4808 35.3733 15.4824 35.0647 15.4445Z" fill="#161B46"/>
<path d="M30.1204 20.1362C30.1204 20.1362 31.4308 22.9021 35.4602 22.516V21.58C33.5809 21.603 31.7321 21.1031 30.1204 20.1362Z" fill="#6F4439"/>
<path d="M33.1506 9.07024C33.0968 9.22001 32.5422 9.1498 31.8894 9.2317C31.2365 9.3136 30.7194 9.48911 30.6234 9.35338C30.586 9.2902 30.6772 9.14746 30.8902 9.00004C31.1738 8.82041 31.4945 8.70749 31.8281 8.66979C32.1617 8.6321 32.4995 8.6706 32.816 8.78242C33.0547 8.87836 33.174 8.9977 33.1506 9.07024Z" fill="#161B46"/>
<path d="M38.4227 9.37933C38.3267 9.50569 37.943 9.37933 37.4867 9.37933C37.0304 9.37933 36.6373 9.46591 36.5507 9.33253C36.5132 9.26935 36.5741 9.14299 36.7426 9.02365C36.9713 8.8804 37.2373 8.80798 37.5071 8.81547C37.7769 8.82296 38.0384 8.91005 38.2589 9.06577C38.4133 9.18745 38.4601 9.31615 38.4227 9.37933Z" fill="#161B46"/>
<path d="M38.116 5.82225C37.9733 5.5266 37.7515 5.27626 37.4752 5.09906C37.1988 4.92185 36.8788 4.8247 36.5505 4.8184C35.892 4.81791 35.2472 5.00632 34.6926 5.36127C32.2941 6.74655 31.0609 10.0951 28.6905 11.5295C28.1078 11.8828 27.3497 11.5599 26.8536 12.0279C26.3575 12.4959 26.0369 13.24 26.3107 13.8648C25.9718 13.4432 25.6952 12.9751 25.4894 12.4749C25.3872 12.2237 25.3402 11.9536 25.3515 11.6827C25.3628 11.4118 25.4322 11.1465 25.5549 10.9047C25.7608 10.5491 26.1212 10.2776 26.2218 9.87981C26.3084 9.52881 26.1703 9.16377 26.1867 8.80341C26.226 8.43671 26.3519 8.08461 26.5541 7.77615C27.4901 6.13816 28.7607 4.64757 30.4057 3.72562C31.4783 3.10467 32.7 2.78832 33.9391 2.81068C35.1833 2.83929 36.3762 3.31245 37.3017 4.14448C37.8329 4.64056 38.3898 5.15068 38.116 5.82225Z" fill="#161B46"/>
<path d="M26.912 12.524C26.8699 12.4094 24.7686 11.6512 24.7405 13.8836C24.7124 16.0528 26.9027 15.6246 26.9073 15.5637C26.912 15.5029 26.912 12.524 26.912 12.524Z" fill="#AE7461"/>
<path d="M26.2452 14.7377C26.2452 14.7377 26.2077 14.7635 26.1422 14.7915C26.0521 14.8277 25.9515 14.8277 25.8614 14.7915C25.6274 14.705 25.4425 14.3399 25.4355 13.9468C25.4316 13.7614 25.4691 13.5775 25.5455 13.4086C25.5666 13.3409 25.6038 13.2793 25.6539 13.2292C25.704 13.179 25.7656 13.1418 25.8333 13.1208C25.8784 13.1063 25.9273 13.1091 25.9705 13.1286C26.0137 13.148 26.0482 13.1827 26.0673 13.2261C26.0954 13.2869 26.0814 13.329 26.0931 13.3337C26.1048 13.3384 26.1399 13.2986 26.1235 13.2074C26.1122 13.1536 26.0824 13.1056 26.0392 13.0716C25.98 13.0262 25.9051 13.006 25.831 13.0155C25.7416 13.0316 25.6579 13.0708 25.5881 13.129C25.5184 13.1873 25.465 13.2626 25.4332 13.3478C25.3388 13.5348 25.2914 13.742 25.2951 13.9515C25.3068 14.3867 25.5291 14.7986 25.838 14.8875C25.896 14.9056 25.9574 14.9101 26.0174 14.9008C26.0774 14.8914 26.1345 14.8685 26.1843 14.8337C26.2405 14.7892 26.2522 14.7424 26.2452 14.7377Z" fill="#6F4439"/>
<path d="M26.0581 11.4103C26.1046 11.3917 26.1487 11.3674 26.1891 11.3378C26.271 11.2863 26.3997 11.2161 26.5518 11.1038C26.979 10.792 27.3713 10.4351 27.7218 10.0391C28.2336 9.44626 28.7117 8.82518 29.1539 8.17879C29.6876 7.38699 30.2864 6.64107 30.944 5.94876C31.2951 5.60353 31.6827 5.29753 32.1 5.03617C32.4907 4.79644 32.9096 4.60622 33.3472 4.46989C34.0885 4.23186 34.8681 4.1358 35.6451 4.18674C36.1694 4.21882 36.6872 4.32033 37.1848 4.48861C37.3626 4.54243 37.496 4.60327 37.5873 4.63837C37.6323 4.65937 37.6794 4.67582 37.7277 4.6875C37.6851 4.6614 37.6405 4.63871 37.5943 4.61965C37.466 4.5562 37.334 4.50071 37.1988 4.4535C36.7009 4.26904 36.1794 4.15561 35.6498 4.11655C34.8599 4.05364 34.0652 4.14423 33.3098 4.38331C32.8644 4.51967 32.4376 4.71066 32.0391 4.95193C31.6163 5.22057 31.224 5.53441 30.8691 5.88793C30.2067 6.58308 29.6061 7.33473 29.0744 8.13433C28.6401 8.78292 28.1714 9.40781 27.6704 10.0063C27.3259 10.4031 26.9435 10.7652 26.5284 11.0874C26.3787 11.1997 26.2547 11.2746 26.1751 11.3331C26.1343 11.356 26.0952 11.3818 26.0581 11.4103Z" fill="#737690"/>
<path d="M25.9996 15.1216C25.892 15.1008 25.7805 15.1217 25.6878 15.1802C25.5951 15.2387 25.5282 15.3304 25.5008 15.4365C25.4733 15.5426 25.4874 15.6552 25.5401 15.7513C25.5928 15.8474 25.6801 15.9198 25.7843 15.9537C25.8885 15.9877 26.0018 15.9806 26.1009 15.9339C26.2001 15.8872 26.2778 15.8045 26.318 15.7026C26.3583 15.6006 26.3582 15.4872 26.3177 15.3853C26.2773 15.2835 26.1995 15.2009 26.1002 15.1544" fill="white"/>
<path d="M26.1001 15.1543C26.1934 15.2285 26.2613 15.3299 26.2943 15.4445C26.3097 15.5039 26.3101 15.5663 26.2954 15.626C26.2807 15.6856 26.2514 15.7406 26.21 15.7861C26.1616 15.8432 26.0974 15.8848 26.0254 15.9054C25.9534 15.926 25.8769 15.9249 25.8055 15.9021C25.7342 15.8794 25.6712 15.836 25.6245 15.7774C25.5778 15.7189 25.5495 15.6478 25.5431 15.5732C25.5352 15.5121 25.5429 15.4501 25.5654 15.3928C25.5879 15.3356 25.6245 15.2849 25.6718 15.2456C25.7653 15.1708 25.8799 15.1274 25.9994 15.1215C25.9994 15.1215 25.9643 15.0981 25.8965 15.0981C25.8349 15.0989 25.7741 15.1123 25.7179 15.1375C25.6617 15.1626 25.6112 15.199 25.5696 15.2443C25.5279 15.2897 25.496 15.3431 25.4758 15.4013C25.4555 15.4594 25.4474 15.5211 25.4519 15.5825C25.4589 15.6754 25.4935 15.7641 25.5512 15.8372C25.6089 15.9103 25.6872 15.9645 25.7759 15.9929C25.8646 16.0213 25.9597 16.0225 26.0491 15.9965C26.1386 15.9706 26.2182 15.9185 26.2779 15.8469C26.3274 15.7901 26.3612 15.7214 26.3759 15.6475C26.3907 15.5737 26.386 15.4972 26.3621 15.4257C26.3337 15.3318 26.2753 15.2496 26.196 15.1917C26.1398 15.1543 26.1024 15.1473 26.1001 15.1543Z" fill="#161B46"/>
<path d="M26.594 12.0256C26.5612 12.6177 26.5332 13.2424 26.8069 13.7689C27.0807 14.2954 27.771 14.6558 28.2858 14.361C28.707 14.127 28.8334 13.5817 28.9036 13.102C29.1095 11.7214 29.2031 10.3245 29.4207 8.94385L26.594 12.0256Z" fill="#161B46"/>
<path d="M33.698 16.5023C33.5926 16.6396 33.5219 16.8003 33.4921 16.9708C33.4623 17.1413 33.4742 17.3165 33.5269 17.4814C33.5795 17.6463 33.6714 17.796 33.7945 17.9177C33.9176 18.0394 34.0684 18.1294 34.2339 18.1801C34.3652 18.2245 34.5074 18.2245 34.6387 18.1801C34.7444 18.1207 34.8371 18.0405 34.911 17.9444C34.985 17.8483 35.0388 17.7382 35.0693 17.6208L35.3033 17.0592C35.3253 17.0304 35.3385 16.9959 35.3415 16.9598C35.3445 16.9236 35.337 16.8874 35.32 16.8554C35.303 16.8234 35.2772 16.7969 35.2456 16.7791C35.214 16.7613 35.178 16.753 35.1418 16.755L33.7495 16.4204" fill="#6F4439"/>
<path d="M34.6084 18.1167C34.3945 18.1456 34.1767 18.1181 33.9766 18.0372C33.7419 17.961 33.5442 17.8 33.422 17.5856C33.3508 17.4539 33.3206 17.3039 33.3355 17.155C33.3459 17.0013 33.384 16.8507 33.4478 16.7104C33.5096 16.5736 33.5979 16.4503 33.7075 16.3477L33.745 16.3149L33.7918 16.3313C34.7137 16.6566 35.4298 16.8204 35.4298 16.8602C35.4298 16.8999 34.681 16.7993 33.7403 16.4858L33.8222 16.467C33.7295 16.5571 33.6542 16.6634 33.5999 16.7806C33.5416 16.8933 33.508 17.017 33.5011 17.1437C33.4943 17.2704 33.5144 17.397 33.5601 17.5154C33.6629 17.7033 33.8286 17.8491 34.0281 17.9272C34.3651 18.0676 34.6154 18.0863 34.6084 18.1167Z" fill="#161B46"/>
<path d="M37.5802 4.80218C37.5802 4.81388 37.3907 4.76474 37.042 4.75538C36.5505 4.74628 36.062 4.83538 35.6053 5.01746C35.2896 5.14016 34.9883 5.2971 34.7067 5.48546C34.3804 5.69979 34.0678 5.93424 33.7707 6.18746C33.0903 6.76637 32.4808 7.42381 31.9549 8.14604C31.6788 8.53448 31.4354 8.93228 31.171 9.29966C30.9214 9.65967 30.6291 9.9881 30.3005 10.2778C29.7385 10.7549 29.1237 11.1663 28.4683 11.5039C27.9137 11.7988 27.4481 12.0024 27.1298 12.1451L26.7601 12.2902C26.7175 12.3107 26.6728 12.3264 26.6267 12.337C26.6655 12.3093 26.7071 12.2858 26.7507 12.2668L27.1111 12.0889C27.4247 11.9322 27.8833 11.7169 28.4285 11.415C29.0727 11.0706 29.6769 10.6562 30.2303 10.1795C30.5494 9.89235 30.8337 9.56878 31.0774 9.21542C31.3371 8.85272 31.5805 8.45258 31.8589 8.0618C32.3891 7.33079 33.0076 6.66821 33.7005 6.08918C33.9981 5.83652 34.3107 5.60209 34.6365 5.38718C34.9302 5.19688 35.2441 5.03992 35.5725 4.91918C36.0399 4.73978 36.5397 4.66008 37.0397 4.68518C37.1744 4.69306 37.3082 4.71184 37.4398 4.74134C37.4897 4.75378 37.5371 4.77434 37.5802 4.80218Z" fill="#737690"/>
<path d="M26.5261 10.6849C26.4672 10.7348 26.4028 10.778 26.3342 10.8136L25.7843 11.1365L25.5995 11.2442C25.5278 11.2861 25.4481 11.3125 25.3655 11.3214C25.3138 11.3263 25.2619 11.314 25.2181 11.2863C25.1945 11.2704 25.175 11.2492 25.1612 11.2244C25.1473 11.1996 25.1396 11.1719 25.1385 11.1435C25.1436 11.0438 25.1796 10.9481 25.2415 10.8697L25.8779 9.84951L25.9645 9.92907C25.7523 10.0847 25.5148 10.2027 25.2625 10.2777C25.0105 10.3515 24.7479 10.3824 24.4856 10.369C24.4187 10.3671 24.3525 10.3553 24.2891 10.3339C24.2518 10.3234 24.2173 10.3048 24.1881 10.2793C24.159 10.2538 24.1359 10.222 24.1206 10.1865C24.1084 10.1499 24.1055 10.1109 24.112 10.073C24.1186 10.035 24.1344 9.99924 24.158 9.96885C24.1938 9.91955 24.2346 9.87407 24.2797 9.83313C24.5664 9.55514 24.8151 9.24041 25.0192 8.89713C25.198 8.57526 25.3544 8.2414 25.4872 7.89795C25.477 7.99717 25.4542 8.09468 25.4193 8.18811C25.3356 8.44886 25.2259 8.70052 25.0917 8.93925C24.8931 9.29481 24.6458 9.62088 24.3569 9.90801C24.275 9.98523 24.1955 10.0742 24.2282 10.142C24.261 10.2099 24.3757 10.2426 24.4903 10.245C24.9922 10.2711 25.4879 10.1241 25.8943 9.82845L26.1517 9.63891L25.9786 9.90801L25.328 10.9212C25.2788 10.9817 25.2472 11.0546 25.2368 11.1318C25.2368 11.195 25.2906 11.2301 25.3608 11.2254C25.5003 11.1974 25.633 11.1426 25.7516 11.064L26.3179 10.7738C26.3835 10.7361 26.4534 10.7062 26.5261 10.6849Z" fill="#737690"/>
<path d="M15.7176 35.9239L19.6628 56.668C19.7002 56.8655 19.7761 57.0537 19.8864 57.2218C19.9967 57.3898 20.1391 57.5345 20.3055 57.6473C20.4718 57.7602 20.6588 57.839 20.8557 57.8794C21.0527 57.9198 21.2556 57.9208 21.4529 57.8825L36.6044 54.9668C36.8022 54.9287 36.9905 54.8519 37.1585 54.7409C37.3265 54.6299 37.4709 54.4868 37.5835 54.3199C37.6961 54.1529 37.7747 53.9654 37.8147 53.768C37.8547 53.5706 37.8553 53.3673 37.8166 53.1697L33.642 32.0629C33.6022 31.8634 33.5231 31.6739 33.4093 31.5053C33.2955 31.3367 33.1493 31.1925 32.9792 31.081C32.8091 30.9695 32.6186 30.8929 32.4186 30.8558C32.2186 30.8187 32.0132 30.8218 31.8145 30.8648L16.8923 34.1408C16.5027 34.2264 16.162 34.4606 15.9426 34.7936C15.7232 35.1267 15.6425 35.5322 15.7176 35.9239Z" fill="white"/>
<path d="M25.824 43.5806L27.0852 42.9558C27.0852 42.9558 27.4947 40.7937 28.1593 40.0308C28.8239 39.268 29.7973 38.3928 29.7973 38.1846C29.7973 37.9763 30.1062 36.5466 30.1062 36.5466C30.1062 36.5466 30.6935 36.0341 30.8082 37.059C30.8798 37.6544 30.8798 38.2561 30.8082 38.8515L34.7534 37.8687C35.1629 37.7657 35.6754 37.8055 35.6239 38.215C35.5724 38.6245 35.3525 38.8374 35.0389 39.0925C34.9264 39.1862 34.799 39.2605 34.6622 39.3125C34.6622 39.3125 35.3197 39.9185 35.3197 40.5129C35.3197 41.1072 35.9936 42.4878 35.3805 43.1524C34.7674 43.817 31.9501 45.8153 30.4665 46.0704C28.983 46.3254 28.6179 46.7724 27.93 47.6475L25.824 43.5806Z" fill="#AE7461"/>
<path d="M31.1335 38.7812C31.1499 38.814 30.6819 39.0878 30.153 39.495C29.6242 39.9021 29.2358 40.2765 29.217 40.2531C29.7273 39.6107 30.389 39.1049 31.1429 38.7812H31.1335Z" fill="#6F4439"/>
<path d="M34.8914 39.2002C34.5972 39.3773 34.2776 39.5083 33.9437 39.5886C33.6245 39.7065 33.2957 39.7965 32.9609 39.8577C33.2555 39.682 33.5751 39.5518 33.9086 39.4716C34.2284 39.355 34.5571 39.2642 34.8914 39.2002Z" fill="#6F4439"/>
<path d="M17.0281 46.5406L25.7165 42.8574L28.9761 49.3556L17.0281 55.449V46.5406Z" fill="#FBAF2A"/>
<path d="M25.5502 43.0588C25.5643 43.0916 23.2102 44.058 20.3063 45.221C17.4023 46.384 15.0296 47.2989 15.0179 47.2685C15.0062 47.2381 17.3579 46.2693 20.2618 45.1063C23.1658 43.9434 25.5385 43.0284 25.5502 43.0588Z" fill="#161B46"/>
<g opacity="0.3">
<path opacity="0.3" d="M17.6013 46.1406C16.5447 46.3523 15.511 46.6658 14.5148 47.0766C14.1017 47.2259 13.7153 47.4408 13.3705 47.7131C13.1988 47.8504 13.0561 48.0203 12.9504 48.2131C12.8448 48.4059 12.7784 48.6177 12.7551 48.8363C13.0402 48.7141 13.3091 48.5569 13.5554 48.3683C14.5429 47.3785 16.2441 46.8028 17.6855 46.2623L17.6013 46.1406Z" fill="#2D3259"/>
</g>
</svg>
