<svg width="156" height="174" viewBox="0 0 156 174" fill="none" xmlns="http://www.w3.org/2000/svg">
<rect width="156" height="174" rx="16" fill="#F4F5FB"/>
<path d="M132.053 118.495C132.053 118.531 106.472 118.561 74.9244 118.561C43.3765 118.561 17.796 118.531 17.796 118.495C17.796 118.46 43.3665 118.44 74.9244 118.44C106.482 118.44 132.053 118.46 132.053 118.495Z" fill="#161B46"/>
<path d="M67.9163 108.836L69.1485 99.9307L74.9168 100.228L71.7063 109.796L67.9163 108.836Z" fill="#936754"/>
<path d="M72.0441 108.864L72.0239 109.116C72.0239 109.116 76.1895 111.232 76.1643 112.057L67.5963 111.255L67.9793 108.413C68.5851 108.774 69.2615 109.002 69.9627 109.079C70.6639 109.157 71.3737 109.084 72.0441 108.864Z" fill="#00ACE9"/>
<g opacity="0.6">
<path opacity="0.6" d="M68.7554 109.401C68.671 109.419 68.5961 109.467 68.545 109.537C68.4939 109.607 68.4701 109.693 68.4782 109.779C68.4931 109.863 68.5396 109.94 68.6083 109.991C68.6771 110.043 68.763 110.067 68.8487 110.058C68.9383 110.04 69.0178 109.988 69.0718 109.914C69.1258 109.84 69.1504 109.749 69.141 109.658C69.1184 109.569 69.0618 109.493 68.9835 109.446C68.9052 109.399 68.8115 109.384 68.7227 109.406" fill="white"/>
</g>
<g opacity="0.6">
<path opacity="0.6" d="M67.5912 111.25L67.6819 110.565L75.8643 111.573C75.8643 111.573 76.2323 111.775 76.1642 112.042L67.5912 111.25Z" fill="white"/>
</g>
<path d="M72.0516 109.139C72.0516 109.179 71.8349 109.179 71.6156 109.295C71.3964 109.411 71.2729 109.575 71.2351 109.547C71.1973 109.519 71.283 109.295 71.5501 109.156C71.8172 109.018 72.0642 109.101 72.0516 109.139Z" fill="#161B46"/>
<path d="M72.916 109.594C72.916 109.635 72.7345 109.69 72.5758 109.846C72.417 110.003 72.3565 110.192 72.3238 110.187C72.291 110.182 72.2784 109.935 72.48 109.741C72.6816 109.547 72.9185 109.554 72.916 109.594Z" fill="#161B46"/>
<path d="M73.3267 110.719C73.2864 110.719 73.2486 110.507 73.3771 110.29C73.5056 110.074 73.7098 109.998 73.7249 110.038C73.74 110.079 73.6064 110.187 73.5031 110.368C73.3998 110.55 73.367 110.716 73.3267 110.719Z" fill="#161B46"/>
<path d="M44.2812 95.6063L50.5837 91.0879L55.5658 93.7969L46.5265 98.915L44.2812 95.6063Z" fill="#936754"/>
<path d="M47.028 98.7034L46.8138 98.8445C46.8138 98.8445 47.7159 103.428 47.0507 103.915L42.3987 96.6723L44.8205 95.1401C44.9185 95.8555 45.1657 96.5423 45.546 97.1561C45.9262 97.7699 46.4311 98.2971 47.028 98.7034Z" fill="#00ACE9"/>
<g opacity="0.6">
<path opacity="0.6" d="M44.576 96.4504C44.5095 96.3945 44.4248 96.365 44.338 96.3673C44.2511 96.3696 44.1682 96.4037 44.1047 96.463C44.0455 96.5257 44.0126 96.6086 44.0126 96.6948C44.0126 96.7811 44.0455 96.864 44.1047 96.9267C44.1751 96.9883 44.2662 97.0209 44.3597 97.0181C44.4532 97.0153 44.5422 96.9772 44.6087 96.9116C44.6626 96.8383 44.6861 96.7471 44.6744 96.657C44.6626 96.5669 44.6166 96.4847 44.5457 96.4277" fill="white"/>
</g>
<g opacity="0.6">
<path opacity="0.6" d="M42.4012 96.6721L42.996 96.3218L47.2371 103.393C47.2371 103.393 47.3052 103.806 47.0532 103.915L42.4012 96.6721Z" fill="white"/>
</g>
<path d="M46.8138 98.8822C46.776 98.9049 46.6475 98.736 46.4207 98.6302C46.1939 98.5244 45.9872 98.5319 45.9822 98.4916C45.9772 98.4513 46.2115 98.3707 46.4862 98.4916C46.7609 98.6126 46.8516 98.8696 46.8138 98.8822Z" fill="#161B46"/>
<path d="M46.9876 99.8447C46.9574 99.8749 46.7986 99.759 46.5718 99.7363C46.345 99.7136 46.1661 99.7792 46.1434 99.7363C46.1208 99.6935 46.3098 99.5498 46.5895 99.5851C46.8692 99.6204 47.028 99.822 46.9876 99.8447Z" fill="#161B46"/>
<path d="M46.3551 100.86C46.3274 100.833 46.4711 100.669 46.7231 100.636C46.9751 100.603 47.159 100.719 47.1389 100.752C47.1187 100.785 46.9499 100.752 46.7432 100.78C46.5366 100.807 46.3803 100.893 46.3551 100.86Z" fill="#161B46"/>
<path d="M85.0674 46.8842C85.8106 46.8842 86.4131 46.2818 86.4131 45.5386C86.4131 44.7954 85.8106 44.1929 85.0674 44.1929C84.3242 44.1929 83.7217 44.7954 83.7217 45.5386C83.7217 46.2818 84.3242 46.8842 85.0674 46.8842Z" fill="#161B46"/>
<path d="M69.8566 33.1958C71.3104 33.5492 72.64 34.293 73.7018 35.3469C74.7637 36.4008 75.5176 37.7247 75.882 39.1758C76.4364 41.28 77.6661 50.5561 77.6661 50.5561L85.08 44.8332L87.3732 47.8798L80.5868 55.5961C79.0748 57.4281 76.1138 57.8641 73.8609 57.1081C71.3031 56.2488 71.1721 54.4797 71.4644 51.7984L69.8566 33.1958Z" fill="#936754"/>
<path d="M88.356 46.6399L90.7979 43.9662L86.9977 41.9502C86.7306 42.1115 85.08 44.8255 85.08 44.8255L84.9792 45.2917C84.9792 45.2917 87.3203 47.8369 87.3858 47.8798C87.4513 47.9226 88.356 46.6399 88.356 46.6399Z" fill="#936754"/>
<path d="M90.6442 44.2084C90.6442 44.2084 90.6316 44.2412 90.6013 44.279C90.3493 44.599 89.1372 45.854 88.9306 45.7632C88.7239 45.6725 88.356 45.1484 88.4846 44.9543C88.6131 44.7603 90.0696 43.4222 90.0696 43.4222C90.0696 43.4222 90.3216 43.2256 90.7425 43.528C91.0096 43.7145 90.6442 44.2084 90.6442 44.2084Z" fill="#936754"/>
<path d="M90.3115 43.0287C90.3115 43.0287 90.2989 43.0615 90.2712 43.0993C90.0192 43.4218 88.8045 44.6768 88.5979 44.5836C88.3912 44.4903 88.0258 43.9712 88.1544 43.7746C88.2829 43.5781 89.7369 42.2425 89.7369 42.2425C89.7369 42.2425 89.9889 42.0459 90.4123 42.3483C90.6794 42.5373 90.3115 43.0287 90.3115 43.0287Z" fill="#936754"/>
<path d="M89.7823 42.0962C89.7823 42.0962 89.7697 42.129 89.7395 42.1668C89.4874 42.4868 88.2728 43.7418 88.0662 43.6511C87.8595 43.5603 87.4941 43.0362 87.6226 42.8396C87.7512 42.6431 89.2052 41.3075 89.2052 41.3075C89.2052 41.3075 89.4572 41.1109 89.8806 41.4158C90.1477 41.6023 89.7823 42.0962 89.7823 42.0962Z" fill="#936754"/>
<path d="M89.2405 41.1791C89.2405 41.1791 89.2279 41.2119 89.1977 41.2497C88.9457 41.5722 87.7335 42.8272 87.5269 42.7339C87.3203 42.6407 86.9549 42.1216 87.0834 41.925C87.2119 41.7285 88.6659 40.3929 88.6659 40.3929C88.6659 40.3929 88.9179 40.1963 89.3413 40.4987C89.616 40.6877 89.2405 41.1791 89.2405 41.1791Z" fill="#936754"/>
<path d="M88.8323 44.5763C89.0681 44.4143 89.2838 44.2248 89.4749 44.0118C89.687 43.8261 89.8749 43.6144 90.0343 43.3818C89.7963 43.5411 89.5796 43.7299 89.3892 43.9438C89.1755 44.1282 88.9881 44.341 88.8323 44.5763Z" fill="#936754"/>
<path d="M88.0763 43.8706C88.4017 43.628 88.7037 43.3555 88.9784 43.0566C89.2819 42.7864 89.5587 42.4877 89.805 42.1646C89.179 42.6805 88.6005 43.2515 88.0763 43.8706Z" fill="#936754"/>
<g opacity="0.78">
<path opacity="0.78" d="M87.3732 43.0918C88.0008 42.5776 88.5795 42.0065 89.102 41.3857C88.7772 41.6291 88.4752 41.9016 88.1998 42.1997C87.8971 42.4707 87.6204 42.7694 87.3732 43.0918Z" fill="#936754"/>
</g>
<path d="M85.9318 44.9467L86.1006 43.5103C86.1751 42.8815 86.4892 42.3056 86.9776 41.9026L87.3505 41.5977L89.7319 44.095C89.7319 44.095 88.671 44.7804 88.1393 43.9639L88.2653 45.3021L85.9318 44.9467Z" fill="#936754"/>
<path d="M87.9679 45.3095C87.9503 45.3095 88.0359 45.1608 88.0889 44.8887C88.1585 44.5112 88.0877 44.1213 87.8898 43.7925L87.7008 43.4825L87.9906 43.7043L88.6559 44.2083H88.6407C88.7962 44.2966 88.9735 44.3388 89.1521 44.3298C89.3306 44.3209 89.5029 44.2612 89.6488 44.1579C89.6692 44.1406 89.6886 44.1221 89.7067 44.1024V44.2108C89.0061 43.5329 88.3787 42.9105 87.9553 42.4468C87.7411 42.2099 87.5748 42.0133 87.4513 41.8747C87.3871 41.8077 87.3336 41.7312 87.2925 41.6479C87.5498 41.8739 87.7938 42.1145 88.0233 42.3687C88.4669 42.8223 89.1019 43.4271 89.8075 44.1049L89.863 44.1579L89.8125 44.2133C89.7889 44.2425 89.7618 44.2687 89.7319 44.2914C89.5619 44.4275 89.3499 44.5006 89.1321 44.4981C88.9341 44.4943 88.7395 44.4461 88.5626 44.3569L87.9099 43.8303L88.0082 43.7421C88.2136 44.101 88.2706 44.5261 88.167 44.9265C88.1358 45.0696 88.0671 45.2018 87.9679 45.3095Z" fill="#936754"/>
<path d="M89.1876 44.299C89.2153 44.3116 89.1044 44.4502 89.0616 44.6795C89.0508 44.7395 89.0583 44.8013 89.083 44.857C89.1077 44.9127 89.1485 44.9597 89.2002 44.992C89.2753 45.0157 89.3553 45.0193 89.4322 45.0025C89.5091 44.9857 89.5803 44.9491 89.6387 44.8962C89.9385 44.6568 90.2334 44.4477 90.4224 44.2864C90.6114 44.1251 90.7248 44.0067 90.7449 44.0218C90.7651 44.0369 90.6819 44.178 90.4929 44.3696C90.2514 44.6064 89.9938 44.8262 89.7218 45.0273C89.6414 45.0969 89.5433 45.1429 89.4383 45.1602C89.3334 45.1776 89.2257 45.1656 89.1271 45.1256C89.0493 45.079 88.9891 45.0081 88.9558 44.9238C88.9225 44.8394 88.9181 44.7465 88.9432 44.6594C88.9711 44.5547 89.0219 44.4574 89.0918 44.3746C89.1473 44.3192 89.18 44.294 89.1876 44.299Z" fill="#936754"/>
<path d="M76.9228 53.6757C76.8589 53.5283 76.8238 53.3701 76.8194 53.2095C76.781 52.8247 76.8022 52.4362 76.8824 52.0579C76.9608 51.6779 77.0994 51.3129 77.2932 50.9768C77.3621 50.8323 77.4579 50.7023 77.5754 50.5938C77.3319 51.0674 77.1425 51.567 77.011 52.0831C76.9228 52.6091 76.8932 53.1432 76.9228 53.6757Z" fill="#936754"/>
<path d="M84.208 45.3853L87.0556 48.248L87.8318 47.3483L85.0144 44.7427L84.208 45.3853Z" fill="#161B46"/>
<path d="M65.4366 36.5094C65.6155 35.5316 65.0712 34.3523 65.7415 33.6164C66.2052 33.1124 67.0318 33.1124 67.5685 32.6866C68.259 32.1246 68.2111 31.0864 68.2893 30.2018C68.4201 28.7736 69.0271 27.4308 70.0129 26.3891C70.4086 25.9733 70.9025 25.4718 70.7387 24.9224C70.6637 24.7284 70.5487 24.5524 70.401 24.4058L65.4769 18.7913C65.0914 18.3014 64.6304 17.8761 64.1111 17.5313C63.8501 17.3615 63.5525 17.256 63.2427 17.2236C62.933 17.1912 62.62 17.2327 62.3295 17.3448C61.3416 17.8009 61.1728 19.1315 60.4697 19.9606C59.8347 20.7166 58.7611 21.0416 58.2924 21.9035C57.8464 22.7275 58.0858 23.8111 57.5893 24.6049C56.9291 25.6658 55.281 25.7288 54.5931 26.7721C53.9908 27.6844 54.3411 29.025 53.6607 29.8742C53.0382 30.6454 51.8967 30.6454 50.9769 31.036C50.9769 31.036 52.0227 32.1851 52.4889 32.8453C52.9551 33.5056 54.5653 33.556 55.2735 33.0746C55.9816 32.5933 56.1227 32.1851 56.5587 31.729C56.91 31.4083 57.3152 31.1524 57.7557 30.973C57.7557 30.973 56.4755 31.9381 56.5587 32.3665C56.6418 32.7949 55.3743 34.3674 55.0719 34.2641C54.7695 34.1608 58.4134 36.5069 58.4134 36.5069L65.4366 36.5094Z" fill="#161B46"/>
<path d="M71.6711 17.4785C71.6207 18.1488 72.0642 18.7385 72.5102 19.2425C72.9563 19.7465 73.4552 20.2707 73.551 20.936C73.7223 22.1153 72.5657 23.204 72.795 24.3783C72.9235 25.0058 73.4351 25.5098 73.5258 26.1423C73.6165 26.7748 73.2864 27.3544 72.8807 27.8206C72.4749 28.2868 71.9785 28.6724 71.6207 29.1764C71.2628 29.6804 71.0335 30.3356 70.7613 30.9252C70.4892 31.5149 70.1238 32.1046 69.5517 32.4146C68.6899 32.8833 67.4853 32.6666 66.8251 33.3873C66.1649 34.108 66.3891 35.3629 65.6029 35.8896" fill="#161B46"/>
<path d="M61.3593 18.5042C61.3416 17.8969 61.9036 17.4257 62.4706 17.2039C63.0376 16.9822 63.66 16.8965 64.164 16.5563C64.6126 16.2564 64.92 15.7852 65.2905 15.4021C65.7575 14.9293 66.3419 14.5891 66.9837 14.4166C67.6255 14.244 68.3016 14.2453 68.9428 14.4202C69.5839 14.5951 70.167 14.9374 70.6323 15.4119C71.0976 15.8865 71.4283 16.4763 71.5905 17.1208C71.8072 17.9876 71.6585 19.0133 70.9756 19.5878C70.1818 20.2582 69.0075 20.1095 67.9919 19.9003C66.9764 19.6912 65.8272 19.487 64.9679 20.0843C64.4639 20.4446 64.164 21.0293 63.8516 21.5711C63.5391 22.1129 63.146 22.6648 62.5538 22.8689C61.9616 23.073 61.1602 22.7202 61.1375 22.0952" fill="#161B46"/>
<path d="M63.7582 18.6301C63.5043 18.6555 63.2695 18.7763 63.1011 18.968C62.9328 19.1598 62.8434 19.4083 62.851 19.6633L63.4584 33.415C63.4836 35.0378 65.8574 35.9526 67.5962 35.9123C69.3602 35.8694 69.4081 35.0101 69.4308 33.4628C69.466 30.8824 69.4635 29.9147 69.4635 29.9348C69.4635 29.955 71.6836 29.5619 72.1347 26.6588C72.3615 25.2199 72.2834 22.8587 72.1574 20.9309C72.044 19.1946 70.8974 17.0652 69.1586 17.2517L63.7582 18.6301Z" fill="#936754"/>
<path d="M71.608 22.5843C71.6094 22.6809 71.5731 22.7742 71.5067 22.8443C71.4403 22.9144 71.3492 22.9559 71.2527 22.9598C71.2056 22.9639 71.1581 22.9585 71.113 22.9439C71.068 22.9293 71.0264 22.9058 70.9906 22.8747C70.9549 22.8437 70.9258 22.8058 70.905 22.7632C70.8842 22.7207 70.8722 22.6744 70.8697 22.6272C70.8683 22.5304 70.9045 22.4368 70.9708 22.3663C71.0372 22.2957 71.1283 22.2537 71.225 22.2492C71.2723 22.2454 71.3198 22.2511 71.3649 22.266C71.4099 22.281 71.4515 22.3047 71.4872 22.336C71.5229 22.3672 71.552 22.4053 71.5727 22.4479C71.5935 22.4906 71.6055 22.537 71.608 22.5843Z" fill="#161B46"/>
<path d="M71.6484 22.1581C71.603 22.2085 71.3208 21.9994 70.9201 22.0019C70.5194 22.0044 70.2296 22.2035 70.1868 22.1556C70.1439 22.1077 70.212 22.0472 70.338 21.954C70.5109 21.8334 70.7168 21.7691 70.9277 21.77C71.1358 21.7688 71.3389 21.8341 71.5073 21.9565C71.6282 22.0498 71.671 22.138 71.6484 22.1581Z" fill="#161B46"/>
<path d="M67.6315 22.68C67.6329 22.777 67.5962 22.8707 67.5293 22.9409C67.4624 23.0111 67.3706 23.0522 67.2737 23.0555C67.2264 23.0593 67.1788 23.0535 67.1338 23.0386C67.0888 23.0237 67.0472 23 67.0115 22.9687C66.9758 22.9375 66.9467 22.8994 66.9259 22.8568C66.9052 22.8141 66.8932 22.7677 66.8906 22.7204C66.8899 22.6236 66.9268 22.5303 66.9936 22.4602C67.0604 22.3902 67.1518 22.3488 67.2485 22.3449C67.2958 22.3411 67.3433 22.3468 67.3884 22.3617C67.4334 22.3767 67.475 22.4004 67.5107 22.4317C67.5464 22.4629 67.5755 22.501 67.5962 22.5436C67.617 22.5863 67.629 22.6327 67.6315 22.68Z" fill="#161B46"/>
<path d="M67.7222 22.2411C67.6769 22.2915 67.3946 22.0824 66.9939 22.0849C66.5933 22.0874 66.3035 22.2865 66.2581 22.2386C66.2127 22.1907 66.2833 22.1302 66.4118 22.037C66.5847 21.9164 66.7907 21.8521 67.0015 21.853C67.2088 21.8523 67.4109 21.9176 67.5786 22.0395C67.692 22.1328 67.7449 22.221 67.7222 22.2411Z" fill="#161B46"/>
<path d="M69.1787 25.1997C69.3885 25.1319 69.6062 25.0921 69.8264 25.0813C69.9297 25.0687 70.0255 25.0485 70.0431 24.9805C70.0507 24.8749 70.0261 24.7694 69.9726 24.6781L69.6702 23.9019C69.2493 22.7956 68.9444 21.8859 68.9872 21.8708C69.0301 21.8557 69.4106 22.7377 69.8314 23.8414C69.9322 24.1136 70.0305 24.3732 70.1238 24.6226C70.1868 24.7462 70.2055 24.8876 70.1767 25.0233C70.162 25.0595 70.1391 25.0917 70.1098 25.1175C70.0805 25.1433 70.0456 25.162 70.0078 25.172C69.9521 25.1881 69.8945 25.1966 69.8365 25.1972C69.6182 25.2259 69.3972 25.2267 69.1787 25.1997Z" fill="#161B46"/>
<path d="M69.456 29.9274C68.0934 29.952 66.7508 29.5978 65.5777 28.9043C65.5777 28.9043 66.5227 30.8901 69.4207 30.6129L69.456 29.9274Z" fill="#936754"/>
<path d="M69.0125 26.1649C68.9354 26.0698 68.8357 25.9956 68.7226 25.949C68.6095 25.9023 68.4865 25.8847 68.3648 25.8977C68.2762 25.9071 68.1903 25.9342 68.1123 25.9775C68.0344 26.0208 67.966 26.0794 67.9112 26.1497C67.8586 26.2167 67.8275 26.2981 67.8221 26.3832C67.8167 26.4682 67.8372 26.5529 67.881 26.626C67.9455 26.6974 68.0297 26.7481 68.1229 26.7719C68.2162 26.7956 68.3143 26.7914 68.4052 26.7596C68.592 26.6918 68.7634 26.5872 68.9092 26.4521C68.9551 26.4205 68.9945 26.3803 69.0251 26.3337C69.0398 26.3117 69.0477 26.2858 69.0477 26.2594C69.0477 26.2329 69.0398 26.207 69.0251 26.185" fill="#936754"/>
<path d="M68.002 25.4795C68.0675 25.4795 68.07 25.9105 68.4404 26.2179C68.8109 26.5253 69.2746 26.4699 69.2796 26.5354C69.2846 26.6009 69.1763 26.6211 68.9797 26.6261C68.7244 26.6282 68.4768 26.5388 68.2817 26.3741C68.0925 26.2203 67.9705 25.9989 67.9415 25.7567C67.9264 25.5854 67.9742 25.477 68.002 25.4795Z" fill="#161B46"/>
<path d="M67.9011 21.5433C67.8608 21.6516 67.4626 21.6012 66.9939 21.6567C66.5252 21.7121 66.1447 21.8431 66.0842 21.7474C66.0565 21.6995 66.122 21.5987 66.2732 21.4954C66.4771 21.3666 66.7074 21.2857 66.947 21.2586C67.1866 21.2316 67.4292 21.2591 67.6567 21.3391C67.8306 21.4047 67.9162 21.4903 67.9011 21.5433Z" fill="#161B46"/>
<path d="M71.4997 21.004C71.4291 21.0947 71.1545 21.004 70.8218 21.004C70.4892 21.004 70.212 21.067 70.1465 20.9712C70.1187 20.9259 70.1616 20.8352 70.2851 20.7495C70.4484 20.6441 70.6401 20.5913 70.8344 20.5983C71.0286 20.6014 71.2171 20.6648 71.3737 20.7797C71.4921 20.8654 71.5299 20.9586 71.4997 21.004Z" fill="#161B46"/>
<path d="M61.7372 28.1535C62.1372 28.2338 62.5505 28.2178 62.943 28.1069C63.3355 27.996 63.6961 27.7934 63.9949 27.5158C64.2937 27.2381 64.5223 26.8934 64.6616 26.51C64.801 26.1267 64.8473 25.7157 64.7965 25.3109C64.7058 24.6003 64.3228 23.8771 64.5697 23.2042C64.8948 22.3147 66.1422 22.04 66.4723 21.153C66.6639 20.649 66.4925 20.0341 66.7092 19.5275C66.9259 19.021 67.4148 18.7716 67.9037 18.6027C68.3926 18.4339 68.9117 18.3054 69.3199 17.9878C69.7282 17.6703 69.9852 17.068 69.7206 16.6245C67.5585 16.883 65.435 17.399 63.3954 18.1617C62.9216 18.3381 62.4252 18.5498 62.148 18.9681C61.8708 19.3864 61.8658 19.9761 61.896 20.5204L62.2589 28.3173" fill="#161B46"/>
<path d="M66.253 16.5234C66.2046 16.5908 66.1498 16.6532 66.0893 16.7099C65.9153 16.8725 65.714 17.0031 65.4945 17.0955C65.1458 17.2346 64.7778 17.3195 64.4034 17.3475C63.9674 17.4004 63.4659 17.3903 62.9216 17.4029C62.3286 17.403 61.7416 17.5221 61.1954 17.7532C60.8978 17.8977 60.6445 18.1197 60.4621 18.3958C60.2869 18.6976 60.1458 19.0179 60.0413 19.3509C59.9229 19.7205 59.682 20.0388 59.3583 20.253C59.0085 20.4297 58.64 20.5667 58.2596 20.6613C57.88 20.7543 57.5454 20.9783 57.3146 21.2938C57.105 21.6417 56.9615 22.0253 56.8913 22.4253C56.8151 22.8367 56.6951 23.2389 56.5334 23.6248C56.3512 23.9941 56.0937 24.3212 55.7774 24.5849C55.4731 24.8402 55.1198 25.0306 54.7392 25.1444C54.3744 25.2414 53.9977 25.2863 53.6203 25.2779C53.2762 25.267 52.9334 25.3252 52.6123 25.4493C52.4663 25.5184 52.3333 25.6121 52.2192 25.7265C52.1122 25.8446 52.0208 25.9758 51.947 26.1171C51.6648 26.6841 51.5741 27.2964 51.3221 27.7954C51.0882 28.2441 50.7247 28.612 50.2788 28.8513C49.9478 29.0331 49.5818 29.1422 49.2053 29.1713C48.968 29.1885 48.7296 29.1715 48.4971 29.1209C48.4165 29.1008 48.3585 29.0781 48.3207 29.068L48.2603 29.0453C48.5674 29.1213 48.8849 29.1468 49.2002 29.1209C49.5677 29.0837 49.9231 28.9695 50.2435 28.7858C50.6712 28.5495 51.0173 28.1893 51.2364 27.7526C51.4884 27.2687 51.5615 26.6614 51.8513 26.0667C51.9273 25.9155 52.024 25.7755 52.1385 25.6509C52.2611 25.5239 52.4053 25.4198 52.5644 25.3434C52.9019 25.2105 53.2627 25.1471 53.6253 25.157C53.9916 25.1624 54.357 25.1183 54.7115 25.0259C55.0745 24.9146 55.4113 24.7312 55.7018 24.4866C56.0047 24.2347 56.2504 23.9212 56.4225 23.5668C56.5809 23.1901 56.6975 22.7972 56.7703 22.395C56.8442 21.9787 56.9945 21.5797 57.2138 21.2182C57.333 21.0436 57.4876 20.8959 57.6674 20.7848C57.8431 20.6786 58.0309 20.594 58.2269 20.5328C58.5984 20.4427 58.9585 20.3108 59.3004 20.1396C59.6032 19.9422 59.8277 19.6455 59.9354 19.3005C60.0455 18.9599 60.1934 18.6328 60.3764 18.3252C60.5735 18.0421 60.8434 17.8175 61.1576 17.6751C61.7154 17.4392 62.3161 17.3216 62.9216 17.3298C63.4735 17.3298 63.9649 17.3298 64.3983 17.292C64.7676 17.2667 65.131 17.1869 65.4769 17.0552C65.7692 16.9327 66.0333 16.7518 66.253 16.5234Z" fill="#161B46"/>
<path d="M64.0959 32.6239C60.6259 32.9515 58.3125 34.2115 56.5485 35.9176L58.872 42.8576C58.872 42.8576 61.014 46.9451 60.8678 49.8506C60.7216 52.7562 59.3104 53.9582 58.1588 57.8819L74.1658 60.2255C74.1658 60.2255 73.2637 50.8536 73.0696 48.82C72.8756 46.7863 75.2494 44.1756 74.5338 41.4767C72.9436 35.4841 70.5673 33.4127 70.5673 33.4127C70.5673 33.4127 67.0998 32.1401 64.0959 32.6239Z" fill="#00ACE9"/>
<path d="M59.5045 54.4998C59.7083 54.6321 59.944 54.7066 60.1868 54.7155C60.4295 54.7244 60.6701 54.6673 60.883 54.5502C61.3069 54.3086 61.6611 53.9613 61.9111 53.5422C62.4151 52.7862 62.7503 51.8916 62.6243 51.0021C62.4983 50.1125 61.7952 49.2708 60.8981 49.1978C60.8981 49.1978 60.8225 50.4578 60.7418 50.8635C60.6612 51.2692 59.5045 54.4998 59.5045 54.4998Z" fill="#936754"/>
<path d="M70.7362 42.8398C70.7343 42.9252 70.7207 43.01 70.6958 43.0918C70.6427 43.3275 70.5703 43.5585 70.4791 43.7823C70.179 44.5292 69.7104 45.1967 69.1098 45.7326C68.5091 46.2685 67.7928 46.6584 67.0166 46.8718C66.7833 46.9387 66.5447 46.9859 66.3035 47.0129C66.2157 47.0251 66.1267 47.0251 66.0389 47.0129C66.0389 46.9877 66.4144 46.955 66.9889 46.7735C67.7411 46.5399 68.4344 46.1475 69.0218 45.6227C69.6091 45.098 70.0769 44.4531 70.3934 43.7319C70.6379 43.1976 70.716 42.8247 70.7362 42.8398Z" fill="#161B46"/>
<path d="M71.5072 50.0724C71.4993 50.1777 71.479 50.2817 71.4468 50.3823C71.4209 50.5026 71.3881 50.6212 71.3485 50.7376C71.3056 50.8762 71.2603 51.035 71.1922 51.2038C71.0433 51.6042 70.8673 51.9941 70.6656 52.3706C70.1659 53.2933 69.5181 54.1276 68.7478 54.8402C68.431 55.1298 68.0942 55.3968 67.7398 55.639C67.5055 55.8052 67.2605 55.9559 67.0065 56.0901C66.916 56.1458 66.8197 56.1915 66.7192 56.2262C66.7192 56.2035 67.1048 55.9918 67.6844 55.5634C68.0241 55.313 68.3481 55.042 68.6546 54.752C69.4058 54.0392 70.0447 53.2167 70.5496 52.3126C70.7546 51.9434 70.9372 51.5622 71.0965 51.1711C71.3762 50.5008 71.4846 50.0648 71.5072 50.0724Z" fill="#161B46"/>
<g opacity="0.3">
<path opacity="0.3" d="M71.3763 50.5412C70.779 51.4988 69.8643 52.5395 68.7353 52.8923C68.2515 53.0461 67.7424 53.0965 67.246 53.2099C66.7428 53.2963 66.2764 53.5295 65.9053 53.8802C65.7158 54.0399 65.5842 54.2576 65.5309 54.4997C65.4777 54.7418 65.5058 54.9947 65.6109 55.2192C65.7159 55.4436 65.8921 55.6272 66.1121 55.7414C66.3321 55.8556 66.5836 55.8941 66.8277 55.8508C67.2895 55.7943 67.7292 55.6208 68.1053 55.3468C69.7861 54.2557 70.8471 52.5421 71.3813 50.5361" fill="#2D3259"/>
</g>
<path d="M62.5008 32.8706C62.5316 32.9171 62.5585 32.9659 62.5814 33.0168C62.6318 33.115 62.6999 33.2688 62.7881 33.4527C62.9619 33.8332 63.2064 34.3876 63.4685 35.0907C63.7774 35.9112 64.0251 36.7536 64.2093 37.6107C64.4367 38.6657 64.5274 39.7456 64.479 40.8237C64.4331 41.9047 64.2003 42.9696 63.791 43.9712C63.4508 44.7873 62.9744 45.5397 62.3823 46.1964C61.9842 46.6365 61.5281 47.0206 61.0266 47.3379C60.8477 47.4488 60.704 47.5269 60.6057 47.5748C60.557 47.6027 60.5054 47.6255 60.452 47.6428C60.452 47.6428 60.6536 47.5294 60.9989 47.2951C61.484 46.9641 61.9259 46.5738 62.3143 46.1334C62.8874 45.4777 63.348 44.7318 63.6776 43.9258C64.0751 42.9372 64.3018 41.8883 64.348 40.8237C64.3964 39.7573 64.3117 38.689 64.0959 37.6435C63.9173 36.7881 63.6799 35.9461 63.3853 35.1235C63.1333 34.4204 62.9065 33.8635 62.7478 33.4754C62.6696 33.294 62.6091 33.1453 62.5613 33.0319C62.535 32.9806 62.5147 32.9265 62.5008 32.8706Z" fill="#F4F5FB"/>
<path d="M63.3727 32.7598C63.4074 32.81 63.4377 32.8631 63.4634 32.9185C63.5188 33.0244 63.5995 33.1705 63.7003 33.3872C63.8968 33.7955 64.174 34.3952 64.4714 35.1512C64.8205 36.0394 65.0961 36.9547 65.2954 37.888C65.5449 39.0343 65.6298 40.2104 65.5474 41.3807C65.4643 42.5545 65.1572 43.7016 64.6428 44.76C64.2145 45.6161 63.6309 46.3852 62.9216 47.028C62.4422 47.4614 61.9012 47.8214 61.3164 48.0965C61.1582 48.1707 60.9958 48.2355 60.83 48.2905C60.7737 48.3132 60.7155 48.3309 60.6561 48.3434C60.6561 48.3283 60.8905 48.2527 61.2962 48.0486C61.8651 47.7602 62.391 47.3938 62.8586 46.96C63.5502 46.3119 64.118 45.5434 64.5344 44.692C65.0352 43.645 65.3344 42.5131 65.4164 41.3555C65.4993 40.1977 65.4204 39.034 65.182 37.898C64.9888 36.9693 64.7243 36.0569 64.3908 35.1689C64.106 34.4129 63.8414 33.8081 63.6574 33.3923L63.4458 32.916C63.4155 32.8669 63.391 32.8145 63.3727 32.7598Z" fill="#F4F5FB"/>
<path d="M73.1226 39.6821C72.901 39.8531 72.6418 39.9688 72.3666 40.0198C72.1036 40.1138 71.8221 40.1441 71.5451 40.108C71.8011 40.0159 72.064 39.9443 72.3313 39.8938C72.5891 39.8026 72.8537 39.7318 73.1226 39.6821Z" fill="#F4F5FB"/>
<path d="M72.9084 40.1915C72.7093 40.3111 72.4897 40.3923 72.2607 40.4309C72.0429 40.51 71.812 40.5468 71.5803 40.5392C71.7803 40.4222 71.9997 40.342 72.228 40.3023C72.4459 40.2234 72.6766 40.1858 72.9084 40.1915Z" fill="#F4F5FB"/>
<path d="M63.4206 32.702C63.4206 32.702 64.9024 35.5269 68.6219 35.1086C70.7714 34.8566 69.4636 32.9868 69.4636 32.9868C69.4636 32.9868 67.4576 31.815 63.4206 32.702Z" fill="#936754"/>
<path d="M74.1331 60.0617L75.0655 77.4497C75.2122 78.8244 74.9608 80.2122 74.3411 81.448C73.7214 82.6838 72.7596 83.7154 71.5703 84.4201L52.4687 96.0977L49.1523 91.7281L66.6487 78.2184L64.8847 58.8647L74.1331 60.0617Z" fill="#161B46"/>
<path d="M58.3806 57.8818L57.9068 58.9201C56.8837 61.1704 56.6468 64.076 57.4381 66.1348C58.2294 68.1937 59.4894 69.877 61.5054 71.6788L70.716 80.1057C71.0784 80.4383 71.3519 80.8562 71.5116 81.3214C71.6714 81.7866 71.7123 82.2843 71.6307 82.7694L68.4883 101.974L74.564 102.816L79.7653 83.349C80.3373 80.9172 80.1433 79.5337 78.9211 77.3539L66.5303 59.1091L58.3806 57.8818Z" fill="#161B46"/>
<path d="M78.528 76.7591C78.4851 76.713 78.4463 76.6632 78.4121 76.6104L78.0996 76.1745L76.9731 74.5541L73.2939 69.1815L69.65 63.7862L68.5563 62.1431L68.264 61.692C68.2282 61.6412 68.197 61.5872 68.1708 61.5308C68.2144 61.5762 68.2533 61.626 68.2867 61.6794L68.5992 62.1154L69.7256 63.7358L73.4048 69.1084L77.0487 74.5012C77.5049 75.1866 77.8753 75.7461 78.1424 76.1442C78.2634 76.3332 78.3591 76.4819 78.4347 76.5953C78.4698 76.6476 78.5009 76.7023 78.528 76.7591Z" fill="#5C5F7E"/>
<path d="M70.6606 90.0797C70.6567 90.0277 70.6567 89.9754 70.6606 89.9234C70.6732 89.81 70.6908 89.6714 70.711 89.4724C70.7614 89.0692 70.8319 88.4996 70.9176 87.789C71.1066 86.3425 71.3687 84.3189 71.6736 81.9678V81.988C71.5526 81.4247 71.2927 80.9006 70.9176 80.4633C70.5188 79.9937 70.0877 79.5524 69.6274 79.1429C67.246 76.9253 65.0334 74.9823 63.4609 73.5409C62.6747 72.8202 62.0422 72.233 61.6112 71.8223L61.1072 71.346L60.9812 71.2175C60.951 71.1897 60.9384 71.1746 60.9409 71.1721C60.9434 71.1696 60.9586 71.1721 60.9888 71.2074L61.1249 71.3258L61.6289 71.7845L63.5088 73.4703C65.0939 74.8941 67.319 76.827 69.7004 79.0471C70.167 79.4605 70.6032 79.9068 71.0058 80.3827C71.3914 80.8376 71.6574 81.3816 71.7795 81.9653V81.9854C71.4544 84.3316 71.1772 86.3526 70.9781 87.7991C70.8748 88.5097 70.7941 89.0767 70.7261 89.4799C70.6958 89.6664 70.6732 89.8151 70.6555 89.926C70.6626 89.9769 70.6643 90.0284 70.6606 90.0797Z" fill="#5C5F7E"/>
<path d="M68.196 81.4087C68.0352 81.3242 67.8902 81.2125 67.7676 81.0785C67.1384 80.4575 66.7295 79.6478 66.6033 78.7728C66.5698 78.5937 66.5698 78.41 66.6033 78.231C66.6962 78.8294 66.8717 79.4121 67.125 79.9622C67.4145 80.4908 67.7748 80.9775 68.196 81.4087Z" fill="#5C5F7E"/>
<path d="M69.146 62.9595C69.1888 62.7431 69.2745 62.5375 69.398 62.3547C69.4844 62.1528 69.6094 61.9696 69.7659 61.8154C69.7233 62.0311 69.6376 62.236 69.5139 62.4177C69.4279 62.6207 69.3029 62.8047 69.146 62.9595Z" fill="#5C5F7E"/>
<path d="M61.896 19.2101C61.7754 18.3065 61.327 17.4787 60.636 16.8841C60.0791 16.4129 59.318 16.108 58.62 16.302C58.2963 16.4018 58.0083 16.5927 57.7902 16.8519C57.5721 17.1111 57.4333 17.4276 57.3902 17.7636C57.3563 18.1005 57.4077 18.4406 57.5398 18.7525C57.672 19.0643 57.8805 19.3378 58.1462 19.5477C58.4152 19.753 58.7255 19.8976 59.0556 19.9715C59.3858 20.0455 59.7281 20.047 60.0589 19.9761C60.6814 19.8451 61.2786 19.4721 61.9061 19.5805" fill="#161B46"/>
<path d="M52.2116 32.3064C52.5935 32.246 52.9678 32.1446 53.328 32.004C54.3063 31.6054 55.119 30.8843 55.6312 29.9603C55.8012 29.6585 55.9308 29.3357 56.0168 29.0002C56.1151 28.6524 56.1428 28.2719 56.2386 27.8838C56.2859 27.6842 56.3596 27.4918 56.4578 27.3118C56.5659 27.1251 56.7171 26.967 56.8988 26.8506C57.286 26.647 57.7026 26.505 58.1336 26.4298C58.3499 26.397 58.5576 26.3215 58.7445 26.2077C58.9314 26.0939 59.0938 25.9441 59.2222 25.767C59.4566 25.3865 59.4742 24.9026 59.5372 24.4289C59.5595 24.1829 59.6024 23.9393 59.6658 23.7006C59.7323 23.4513 59.8616 23.2231 60.0412 23.0378C60.4243 22.6649 60.956 22.5616 61.4247 22.4003C61.6601 22.3278 61.8816 22.2162 62.0799 22.0702C62.265 21.9194 62.3959 21.7123 62.4529 21.4805C62.5764 21.0143 62.5008 20.5078 62.6696 20.0264C62.7515 19.7865 62.9112 19.5808 63.1232 19.4418C63.3275 19.3144 63.5514 19.2216 63.786 19.1671C64.2345 19.0462 64.6906 18.9756 65.046 18.7211C65.3729 18.457 65.6213 18.1084 65.7642 17.7131C65.9229 17.33 66.0464 16.9394 66.2127 16.5791C66.294 16.4032 66.3901 16.2346 66.5 16.0751C66.6109 15.9204 66.7394 15.7792 66.883 15.6542C67.1568 15.4211 67.4773 15.2493 67.823 15.1502C68.1172 15.0623 68.4261 15.0343 68.7313 15.0681C69.0365 15.1019 69.3318 15.1966 69.5996 15.3468C70.001 15.5773 70.3294 15.9161 70.5471 16.3246C70.6816 16.5812 70.767 16.8607 70.7991 17.1486C70.8108 17.2482 70.8108 17.3489 70.7991 17.4485C70.7991 17.4485 70.7991 17.3452 70.7638 17.1511C70.7206 16.8695 70.6267 16.5979 70.4866 16.3498C70.2666 15.9561 69.9423 15.6309 69.5492 15.4098C69.289 15.2685 69.0031 15.1805 68.7084 15.1511C68.4137 15.1217 68.1161 15.1514 67.8331 15.2384C67.5034 15.3338 67.1977 15.4978 66.936 15.7198C66.7996 15.8395 66.6778 15.9748 66.5731 16.123C66.4665 16.2823 66.3745 16.451 66.2984 16.627C66.1371 16.9798 66.0187 17.383 65.8574 17.761C65.7101 18.18 65.4482 18.5493 65.1014 18.8269C64.7259 19.1066 64.2522 19.1772 63.8162 19.2982C63.5949 19.348 63.383 19.4331 63.1887 19.5502C62.9992 19.6746 62.8572 19.8592 62.7855 20.0743C62.6293 20.5103 62.7024 21.0168 62.5738 21.5158C62.5123 21.7746 62.3681 22.0064 62.1631 22.176C61.9537 22.3334 61.7183 22.4528 61.4676 22.5288C60.9862 22.6926 60.4747 22.7984 60.132 23.1361C59.7892 23.4738 59.7162 23.9803 59.6658 24.4465C59.6154 24.9127 59.5876 25.4192 59.3281 25.8376C59.201 26.0423 59.0207 26.2086 58.8064 26.3189C58.6021 26.4217 58.3864 26.5004 58.1638 26.5532C57.7451 26.6235 57.3397 26.7578 56.9618 26.9514C56.8003 27.0636 56.6625 27.2066 56.5566 27.3722C56.4506 27.5379 56.3785 27.7229 56.3444 27.9166C56.2486 28.292 56.2184 28.6726 56.1151 29.0304C56.0244 29.3731 55.8898 29.7026 55.7144 30.0107C55.4149 30.5405 55.0142 31.0063 54.535 31.3816C54.1762 31.6667 53.7749 31.8937 53.3456 32.0544C53.0767 32.1597 52.797 32.2349 52.5115 32.2787L52.2897 32.3014C52.2639 32.3059 52.2378 32.3076 52.2116 32.3064Z" fill="#5C5F7E"/>
<path d="M58.2395 19.4038C58.2395 19.4038 58.1664 19.3861 58.0731 19.2954C57.9424 19.1578 57.8616 18.9804 57.8438 18.7914C57.8322 18.6549 57.8486 18.5174 57.8919 18.3874C57.9353 18.2575 58.0046 18.1377 58.0958 18.0354C58.3226 17.7844 58.6269 17.6167 58.9602 17.5591C59.2848 17.5063 59.6158 17.5063 59.9405 17.5591C60.2042 17.5963 60.4634 17.6605 60.7141 17.7506C60.8824 17.8102 61.0458 17.8826 61.203 17.9674C61.3113 18.0304 61.3693 18.0707 61.3643 18.0782C61.3592 18.0858 61.1123 17.9674 60.6839 17.8262C60.437 17.7511 60.184 17.698 59.9279 17.6675C59.6156 17.6249 59.2986 17.63 58.9879 17.6826C58.682 17.7344 58.4014 17.8848 58.1891 18.111C58.1033 18.201 58.0368 18.3075 57.9934 18.4241C57.9501 18.5406 57.9309 18.6647 57.9371 18.7889C57.9477 18.9588 58.0082 19.1218 58.1109 19.2576C58.1865 19.3634 58.2445 19.4038 58.2395 19.4038Z" fill="#5C5F7E"/>
<path d="M59.6129 20.0843C59.5648 19.9525 59.5586 19.809 59.5952 19.6735C59.6503 19.3363 59.8251 19.0301 60.0875 18.8112C60.3499 18.5923 60.6824 18.4753 61.0241 18.4816C61.1636 18.4723 61.3028 18.5038 61.4247 18.5723C61.4247 18.595 61.2685 18.5572 61.0266 18.5723C60.7133 18.595 60.4143 18.7128 60.1698 18.91C59.932 19.1144 59.763 19.3872 59.6859 19.6912C59.628 19.928 59.628 20.0843 59.6129 20.0843Z" fill="#5C5F7E"/>
<path d="M61.5457 33.0801C58.4864 33.6194 56.2335 36.2628 56.2335 36.2628C56.1113 36.3789 55.9983 36.5045 55.8959 36.6383C52.8391 40.7636 47.3001 48.3689 47.096 49.6617C46.7457 51.8465 53.2398 63.2142 53.2398 63.2142L56.798 62.0601L53.27 50.6596L58.872 42.84L60.384 46.6427C66.18 43.4121 61.5457 33.0801 61.5457 33.0801Z" fill="#936754"/>
<path d="M59.3886 44.1853L62.972 43.2856C62.972 43.2856 62.5512 45.0849 61.3391 45.9669L60.2933 46.4306L59.3886 44.1853Z" fill="#161B46"/>
<path d="M53.328 63.4079L54.3914 66.8679L58.0303 64.7158L58.2495 63.7633C58.2978 63.5495 58.2862 63.3265 58.2159 63.1189C58.1457 62.9112 58.0195 62.727 57.8514 62.5864L56.546 61.5028L56.1983 61.1777C56.1983 61.1777 52.8164 61.9035 52.7459 61.9337C52.6753 61.964 53.328 63.4079 53.328 63.4079Z" fill="#936754"/>
<path d="M54.2528 66.6235C54.2528 66.6235 54.2327 66.5957 54.215 66.5504C54.0613 66.1774 53.6001 64.489 53.7866 64.358C53.9731 64.227 54.6056 64.1766 54.7089 64.3857C54.8123 64.5949 55.2129 66.5277 55.2129 66.5277C55.2129 66.5277 55.2608 66.8377 54.7795 67.0544C54.4922 67.1879 54.2528 66.6235 54.2528 66.6235Z" fill="#936754"/>
<path d="M55.4372 66.936C55.4372 66.936 55.4171 66.9083 55.3969 66.8654C55.2457 66.4899 54.7846 64.8015 54.9685 64.6705C55.1525 64.5395 55.7875 64.4891 55.8908 64.6982C55.9942 64.9074 56.4074 66.8402 56.4074 66.8402C56.4074 66.8402 56.4528 67.1502 55.974 67.3669C55.6766 67.503 55.4372 66.936 55.4372 66.936Z" fill="#936754"/>
<path d="M56.5108 66.9536C56.5108 66.9536 56.4906 66.9258 56.4705 66.8805C56.3193 66.5075 55.8581 64.8191 56.0421 64.6881C56.226 64.557 56.8636 64.5066 56.9669 64.7158C57.0702 64.925 57.4709 66.8578 57.4709 66.8578C57.4709 66.8578 57.5163 67.1677 57.0375 67.3845C56.7502 67.518 56.5108 66.9536 56.5108 66.9536Z" fill="#936754"/>
<path d="M57.5742 66.9536C57.5742 66.9536 57.554 66.9258 57.5364 66.8805C57.3827 66.5075 56.9215 64.8191 57.1055 64.6881C57.2894 64.557 57.927 64.5066 58.0303 64.7158C58.1336 64.925 58.5343 66.8578 58.5343 66.8578C58.5343 66.8578 58.5822 67.1677 58.1009 67.3845C57.8136 67.518 57.5742 66.9536 57.5742 66.9536Z" fill="#936754"/>
<path d="M54.8576 64.875C54.8755 65.161 54.9288 65.4438 55.0164 65.7167C55.0665 65.9941 55.1511 66.2642 55.2684 66.5206C55.2505 66.2345 55.1971 65.9518 55.1096 65.6789C55.0609 65.4011 54.9762 65.1309 54.8576 64.875Z" fill="#936754"/>
<path d="M55.848 64.5825C55.8949 64.9868 55.9793 65.3858 56.1 65.7745C56.181 66.1724 56.2982 66.5621 56.4502 66.9387C56.4001 66.535 56.3158 66.1362 56.1982 65.7468C56.1168 65.3489 55.9995 64.9593 55.848 64.5825Z" fill="#936754"/>
<g opacity="0.78">
<path opacity="0.78" d="M56.8787 64.376C56.9286 64.7797 57.0129 65.1785 57.1307 65.5679C57.2117 65.9659 57.3289 66.3556 57.4809 66.7322C57.434 66.3279 57.3496 65.9289 57.2289 65.5402C57.148 65.1423 57.0307 64.7526 56.8787 64.376Z" fill="#936754"/>
</g>
<path d="M58.368 65.9886C58.1863 65.6053 58.0477 65.203 57.9547 64.7891C57.7682 64.1163 57.5868 63.582 57.617 63.5669C57.8318 63.9363 57.9882 64.3366 58.0807 64.7538C58.2148 65.1555 58.311 65.5689 58.368 65.9886Z" fill="#936754"/>
<path d="M61.334 41.94C61.1863 41.9485 61.0382 41.9485 60.8905 41.94C60.5393 41.9496 60.1938 42.0317 59.8759 42.1814C59.558 42.331 59.2745 42.5448 59.0433 42.8094C58.9567 42.9297 58.8633 43.0449 58.7636 43.1546C58.7992 43.0056 58.8701 42.8674 58.9702 42.7514C59.194 42.4567 59.4857 42.2205 59.8205 42.0629C60.1553 41.9054 60.5233 41.8312 60.893 41.8467C61.0453 41.8425 61.1965 41.8744 61.334 41.94Z" fill="#936754"/>
<path d="M53.3128 50.7223C53.1968 50.6442 53.0849 50.5601 52.9777 50.4703C52.704 50.2748 52.3926 50.1384 52.0633 50.0698C51.734 50.0012 51.394 50.0021 51.065 50.0722C50.9302 50.1138 50.793 50.1475 50.6542 50.173C50.7659 50.0781 50.8992 50.0124 51.0423 49.9814C51.3832 49.8826 51.7431 49.8688 52.0906 49.9411C52.4379 50.0121 52.7619 50.1689 53.0331 50.3972C53.2398 50.5686 53.328 50.7148 53.3128 50.7223Z" fill="#936754"/>
<path d="M112.44 73.3091C112.44 73.3091 109.456 84.5105 109.146 92.8139C108.791 102.287 112.341 113.533 112.341 113.533H96.3569V118.505H118.498C118.498 118.505 114.153 100.034 114.743 90.8735C115.136 85.1347 116.056 79.4442 117.49 73.8736L112.44 73.3091Z" fill="#161B46"/>
<path d="M110.741 73.3091C110.741 73.3091 107.757 84.5105 107.447 92.8139C107.092 102.287 110.643 113.533 110.643 113.533H99.6329C98.9796 113.533 98.3325 113.661 97.7287 113.91C97.1249 114.16 96.5762 114.526 96.114 114.988C95.6518 115.45 95.2851 115.998 95.0349 116.601C94.7847 117.205 94.6559 117.852 94.6559 118.505H116.797C116.797 118.505 112.455 100.044 113.052 90.8735C113.445 85.1347 114.365 79.4442 115.799 73.8736L110.741 73.3091Z" fill="#5C5F7E"/>
<path d="M79.8963 72.6136C79.8963 72.9184 80.0174 73.2107 80.2329 73.4262C80.4484 73.6417 80.7407 73.7627 81.0454 73.7627H92.834V71.3662L81.0353 71.4645C80.7323 71.4671 80.4426 71.5894 80.2293 71.8046C80.016 72.0198 79.8963 72.3106 79.8963 72.6136Z" fill="#5C5F7E"/>
<path d="M111.626 118.495H26.5656C25.7308 118.495 24.9302 118.164 24.34 117.573C23.7497 116.983 23.4181 116.182 23.4181 115.348C23.4181 114.513 23.7497 113.712 24.34 113.122C24.9302 112.532 25.7308 112.2 26.5656 112.2H111.626C112.46 112.2 113.261 112.532 113.851 113.122C114.442 113.712 114.773 114.513 114.773 115.348C114.773 116.182 114.442 116.983 113.851 117.573C113.261 118.164 112.46 118.495 111.626 118.495Z" fill="#5C5F7E"/>
<path d="M98.6325 118.495H26.5656C25.7308 118.495 24.9302 118.164 24.34 117.573C23.7497 116.983 23.4181 116.182 23.4181 115.348C23.4181 114.513 23.7497 113.712 24.34 113.122C24.9302 112.532 25.7308 112.2 26.5656 112.2H98.6376C99.4723 112.2 100.273 112.532 100.863 113.122C101.453 113.712 101.785 114.513 101.785 115.348C101.785 115.761 101.703 116.171 101.545 116.553C101.386 116.936 101.154 117.283 100.861 117.575C100.569 117.867 100.221 118.099 99.8386 118.257C99.4561 118.415 99.0463 118.496 98.6325 118.495Z" fill="#161B46"/>
<path d="M91.9142 73.3091C91.9142 73.3091 88.9305 84.5105 88.6206 92.8139C88.2653 102.287 91.8159 113.533 91.8159 113.533H75.8341V118.505H97.9748C97.9748 118.505 93.6278 100.034 94.22 90.8735C94.6119 85.1347 95.5305 79.4441 96.9643 73.8736L91.9142 73.3091Z" fill="#161B46"/>
<path d="M90.2157 73.3091C90.2157 73.3091 87.2321 84.5105 86.9221 92.8139C86.5668 102.287 90.12 113.533 90.12 113.533H79.1076C77.7889 113.533 76.5243 114.057 75.5919 114.99C74.6594 115.922 74.1356 117.187 74.1356 118.505H96.2763C96.2763 118.505 91.9293 100.034 92.5215 90.8735C92.9134 85.1347 93.8321 79.4441 95.2658 73.8736L90.2157 73.3091Z" fill="#5C5F7E"/>
<path d="M98.4637 118.581C98.4284 118.581 97.9597 117.069 97.433 115.199C96.9063 113.329 96.4956 111.789 96.5309 111.779C96.5661 111.769 97.0349 113.291 97.559 115.164C98.0832 117.036 98.499 118.571 98.4637 118.581Z" fill="#5C5F7E"/>
<path d="M114.773 114.977C114.773 115.015 111.863 115.043 108.271 115.043C104.68 115.043 101.77 115.015 101.77 114.977C101.77 114.939 104.68 114.912 108.264 114.912C111.847 114.912 114.773 114.942 114.773 114.977Z" fill="#161B46"/>
<path d="M113.639 118.495C113.639 118.482 113.768 118.417 113.989 118.258C114.298 118.033 114.565 117.755 114.778 117.437C115.12 116.91 115.315 116.301 115.342 115.674C115.37 115.047 115.23 114.423 114.937 113.868C114.756 113.561 114.533 113.28 114.274 113.034C114.019 112.823 113.723 112.668 113.405 112.578C112.858 112.42 112.296 112.322 111.729 112.286C111.243 112.248 110.847 112.235 110.575 112.225C110.432 112.227 110.29 112.219 110.149 112.2C110.29 112.178 110.432 112.17 110.575 112.175C110.849 112.175 111.245 112.175 111.737 112.193C112.314 112.216 112.886 112.307 113.443 112.462C113.778 112.555 114.091 112.717 114.36 112.938C114.629 113.192 114.862 113.482 115.05 113.8C115.238 114.122 115.365 114.474 115.426 114.841C115.475 115.182 115.484 115.527 115.451 115.869C115.398 116.452 115.193 117.011 114.856 117.49C114.63 117.81 114.347 118.085 114.02 118.301C113.901 118.372 113.808 118.425 113.742 118.455C113.677 118.485 113.642 118.5 113.639 118.495Z" fill="#161B46"/>
<path d="M91.2388 71.7973L90.4224 74.0703L95.2658 73.8738L115.796 74.4458L129.503 65.8324L128.88 63.5695L105.011 62.438L91.2388 71.7973Z" fill="#5C5F7E"/>
<path d="M117.218 74.9245L95.2659 73.8737L106.986 65.0083L129.503 65.8323L117.218 74.9245Z" fill="#161B46"/>
<path d="M92.262 71.1016C92.1497 71.2294 92.0228 71.3435 91.884 71.4418C91.5619 71.6939 91.2602 71.9712 90.9818 72.2708C90.7125 72.5709 90.4915 72.9109 90.3266 73.2788C90.2722 73.4408 90.2074 73.599 90.1326 73.7526C90.1358 73.5792 90.1726 73.408 90.2409 73.2486C90.3842 72.8528 90.6024 72.4883 90.8835 72.1751C91.1659 71.869 91.4821 71.5959 91.826 71.3611C91.9595 71.2561 92.106 71.1688 92.262 71.1016Z" fill="#161B46"/>
<path d="M106.986 65.0157C106.611 64.6232 106.266 64.2019 105.956 63.7557C105.612 63.3326 105.302 62.8836 105.028 62.4126C105.405 62.8046 105.751 63.2259 106.062 63.6726C106.406 64.0946 106.715 64.5437 106.986 65.0157Z" fill="#161B46"/>
<path d="M95.9513 73.9717C95.6669 73.9922 95.3814 73.9922 95.097 73.9717L93.0357 73.9238C92.2318 73.9011 91.5035 73.8709 90.9743 73.8381C90.6894 73.8336 90.4054 73.8058 90.1251 73.7549C90.4094 73.7334 90.695 73.7334 90.9793 73.7549L93.0407 73.8028C93.8446 73.8255 94.5729 73.8557 95.1021 73.8885C95.387 73.892 95.6711 73.9199 95.9513 73.9717Z" fill="#161B46"/>
<path d="M114.178 30.4137C113.868 29.0478 112.571 27.8735 111.175 28.0121C110.763 28.0711 110.367 28.2132 110.012 28.4298C109.657 28.6465 109.349 28.933 109.108 29.2721C108.929 29.4942 108.767 29.7301 108.624 29.9777C108.48 29.7307 108.317 29.4949 108.138 29.2721C107.897 28.933 107.589 28.6465 107.234 28.4298C106.879 28.2132 106.483 28.0711 106.072 28.0121C104.676 27.8735 103.378 29.0478 103.068 30.4137C102.758 31.7795 103.272 33.231 104.116 34.3499C105.229 35.9095 106.872 37.0105 108.738 37.447C110.303 37.0866 112.286 35.4688 113.13 34.3499C113.974 33.231 114.488 31.782 114.178 30.4137Z" fill="#00ACE9"/>
<path d="M113.924 32.9491C113.864 32.9605 113.803 32.9656 113.742 32.9642L113.221 32.9768L111.308 32.997L111.354 32.9642C111.185 33.5841 110.988 34.3099 110.771 35.1037L110.721 35.2876L110.658 35.1062C110.315 34.131 109.935 33.0373 109.532 31.8856L109.169 30.8348H109.287L108.027 32.9667L108.012 33.0121H107.979L104.613 32.9869L103.657 32.9718H103.405C103.348 32.9718 103.317 32.9718 103.317 32.9718H103.405H103.657L104.613 32.9566L107.979 32.9314L107.926 32.9617L109.169 30.8222L109.239 30.6987L109.287 30.8323C109.406 31.175 109.527 31.5253 109.653 31.8831C110.051 33.0348 110.426 34.131 110.764 35.1087H110.65C110.875 34.3174 111.081 33.5967 111.255 32.9743V32.939H111.293L113.206 32.9592H113.727C113.793 32.9514 113.858 32.9481 113.924 32.9491Z" fill="#161B46"/>
<path d="M104.797 41.3556C104.797 41.726 104.466 41.9579 103.965 41.9579C103.463 41.9579 103.141 41.726 103.141 41.3556C103.14 41.2578 103.168 41.1619 103.221 41.0795C103.273 40.9972 103.349 40.932 103.438 40.8919C103.368 40.8512 103.309 40.7923 103.27 40.7214C103.23 40.6505 103.21 40.5701 103.211 40.4887C103.211 40.1435 103.519 39.9268 103.967 39.9268C104.416 39.9268 104.723 40.1435 104.723 40.4887C104.725 40.5703 104.704 40.6507 104.664 40.7216C104.624 40.7926 104.565 40.8514 104.494 40.8919C104.584 40.9313 104.661 40.9961 104.715 41.0785C104.768 41.1609 104.797 41.2572 104.797 41.3556ZM104.335 41.3405C104.335 41.1666 104.194 41.0608 103.965 41.0608C103.736 41.0608 103.602 41.1666 103.602 41.3405C103.602 41.5144 103.741 41.6252 103.965 41.6252C104.189 41.6252 104.335 41.5144 104.335 41.3405ZM103.663 40.5064C103.663 40.655 103.781 40.7584 103.965 40.7584C104.149 40.7584 104.275 40.6651 104.275 40.5064C104.275 40.3476 104.151 40.2544 103.965 40.2544C103.778 40.2544 103.663 40.3526 103.663 40.5064Z" fill="#161B46"/>
<path d="M105.003 40.9426C105.003 40.2949 105.364 39.9346 105.845 39.9346C106.326 39.9346 106.687 40.3025 106.687 40.9426C106.687 41.5826 106.331 41.9506 105.845 41.9506C105.358 41.9506 105.003 41.5801 105.003 40.9426ZM106.23 40.9426C106.23 40.4965 106.072 40.3101 105.845 40.3101C105.618 40.3101 105.464 40.4965 105.464 40.9426C105.464 41.3886 105.621 41.5751 105.845 41.5751C106.069 41.5751 106.23 41.3886 106.23 40.9426Z" fill="#161B46"/>
<path d="M109.307 41.187C109.313 41.286 109.298 41.3852 109.263 41.4781C109.228 41.571 109.175 41.6557 109.106 41.7268C109.036 41.7979 108.953 41.8538 108.861 41.891C108.769 41.9283 108.671 41.946 108.571 41.943C108.458 41.9475 108.345 41.9216 108.245 41.868C108.145 41.8144 108.061 41.735 108.002 41.6381V41.9304H107.81V39.8413H108.012V40.7284C108.073 40.6359 108.157 40.5606 108.255 40.5094C108.353 40.4583 108.463 40.433 108.574 40.436C108.672 40.4335 108.77 40.4513 108.862 40.4884C108.953 40.5254 109.036 40.581 109.105 40.6515C109.173 40.722 109.227 40.8059 109.262 40.8981C109.297 40.9902 109.312 41.0886 109.307 41.187ZM109.108 41.187C109.104 41.0788 109.068 40.9743 109.004 40.8866C108.941 40.7988 108.853 40.7316 108.752 40.6934C108.65 40.6551 108.54 40.6475 108.435 40.6715C108.329 40.6955 108.233 40.75 108.158 40.8283C108.083 40.9065 108.033 41.0051 108.014 41.1116C107.994 41.2182 108.007 41.328 108.05 41.4275C108.092 41.527 108.164 41.6117 108.254 41.6711C108.345 41.7305 108.451 41.762 108.559 41.7616C108.633 41.7627 108.708 41.7485 108.776 41.7197C108.845 41.6909 108.907 41.6482 108.959 41.5943C109.011 41.5403 109.05 41.4763 109.076 41.4062C109.102 41.3361 109.113 41.2615 109.108 41.187Z" fill="#161B46"/>
<path d="M111.21 41.187C111.216 41.2861 111.201 41.3852 111.166 41.4781C111.131 41.5711 111.077 41.6558 111.008 41.7268C110.939 41.7979 110.856 41.8539 110.764 41.8911C110.672 41.9283 110.573 41.946 110.474 41.943C110.363 41.9468 110.254 41.9221 110.155 41.8714C110.057 41.8206 109.973 41.7455 109.912 41.6532V42.4747H109.713V40.4587H109.905V40.7511C109.964 40.6547 110.048 40.5757 110.148 40.5222C110.248 40.4687 110.361 40.4424 110.474 40.4461C110.572 40.4433 110.669 40.4606 110.76 40.4969C110.851 40.5332 110.933 40.5878 111.002 40.6572C111.071 40.7266 111.125 40.8095 111.161 40.9006C111.197 40.9917 111.213 41.0892 111.21 41.187ZM111.011 41.187C111.006 41.079 110.97 40.9746 110.907 40.8868C110.844 40.7991 110.756 40.7319 110.655 40.6936C110.554 40.6553 110.444 40.6476 110.338 40.6713C110.233 40.6951 110.136 40.7494 110.061 40.8274C109.986 40.9054 109.936 41.0037 109.917 41.1101C109.897 41.2165 109.909 41.3263 109.952 41.4258C109.994 41.5253 110.065 41.6102 110.155 41.6699C110.245 41.7296 110.351 41.7615 110.459 41.7616C110.534 41.7627 110.608 41.7485 110.677 41.7197C110.746 41.691 110.808 41.6483 110.86 41.5944C110.912 41.5405 110.952 41.4765 110.978 41.4064C111.004 41.3363 111.015 41.2617 111.011 41.187Z" fill="#161B46"/>
<path d="M114.06 41.0763V41.9331H113.861V41.0964C113.861 40.7839 113.702 40.6252 113.435 40.6252C113.365 40.6202 113.295 40.6307 113.23 40.656C113.164 40.6814 113.105 40.7209 113.057 40.7718C113.009 40.8227 112.973 40.8836 112.951 40.9502C112.929 41.0168 112.922 41.0874 112.931 41.1569V41.9331H112.732V41.0964C112.732 40.7839 112.576 40.6252 112.306 40.6252C112.236 40.6206 112.166 40.6315 112.101 40.657C112.036 40.6825 111.977 40.722 111.929 40.7728C111.881 40.8235 111.845 40.8843 111.823 40.9507C111.801 41.017 111.794 41.0875 111.802 41.1569V41.9331H111.603V40.4563H111.795V40.726C111.851 40.6349 111.931 40.5607 112.026 40.511C112.12 40.4613 112.227 40.4381 112.334 40.4437C112.443 40.4359 112.552 40.4616 112.646 40.5175C112.74 40.5733 112.815 40.6566 112.861 40.7562C112.92 40.6559 113.006 40.5738 113.109 40.5188C113.212 40.4637 113.329 40.4378 113.445 40.4437C113.53 40.4345 113.615 40.4447 113.695 40.4735C113.775 40.5023 113.848 40.5489 113.907 40.6099C113.966 40.6709 114.011 40.7446 114.037 40.8254C114.064 40.9062 114.072 40.992 114.06 41.0763Z" fill="#161B46"/>
<path d="M118.966 46.4461C119.296 46.4362 119.621 46.3618 119.922 46.2269C120.286 46.0575 120.6 45.7971 120.834 45.4709C120.985 45.2672 121.1 45.0398 121.176 44.798C121.259 44.5212 121.295 44.2324 121.282 43.9438C121.282 41.4742 121.282 37.9084 121.262 33.5009C121.262 31.2959 121.262 28.8792 121.262 26.2886C121.262 25.6418 121.262 24.9824 121.262 24.3104C121.262 23.9778 121.262 23.6351 121.262 23.3024C121.24 22.7874 121.043 22.2954 120.703 21.9074C120.364 21.5194 119.902 21.2586 119.395 21.168C119.043 21.1253 118.688 21.1118 118.334 21.1277H117.248H98.2823C97.8739 21.1293 97.4734 21.2399 97.1221 21.4481C96.7707 21.6563 96.4814 21.9546 96.2839 22.3121C96.0905 22.6682 95.9932 23.0686 96.0017 23.4738V29.5445C96.0017 32.7172 96.0017 35.779 96.0017 38.6946C96.0017 40.1512 96.0017 41.5708 96.0017 42.9534V43.9816C95.991 44.3131 96.0485 44.6433 96.1705 44.9518C96.2918 45.2507 96.4752 45.5205 96.7085 45.7433C96.9417 45.9662 97.2196 46.137 97.5238 46.2445C97.8225 46.3475 98.1379 46.3937 98.4537 46.3806H101.233H104.693L115.136 46.4008H117.976H118.714H118.966H118.714H117.976H115.136L104.693 46.4234H98.436C98.1076 46.4385 97.7793 46.3915 97.4683 46.2848C97.1494 46.1715 96.858 45.9922 96.6131 45.7586C96.3682 45.5249 96.1753 45.2423 96.0471 44.9291C95.9208 44.6084 95.8608 44.2655 95.8707 43.9211V42.966C95.8707 41.585 95.8707 40.1654 95.8707 38.7072C95.8707 35.7916 95.8707 32.7298 95.8707 29.5571V23.4864C95.8627 23.0594 95.9651 22.6375 96.168 22.2617C96.3763 21.8824 96.6821 21.5656 97.0538 21.3441C97.4255 21.1226 97.8496 21.0044 98.2823 21.0017H117.248H118.344C118.705 20.9867 119.067 21.0019 119.425 21.047C119.957 21.1482 120.439 21.4269 120.792 21.8375C121.145 22.2482 121.348 22.7664 121.368 23.3075C121.368 23.6502 121.368 23.9854 121.368 24.3155C121.368 24.9858 121.368 25.646 121.368 26.2937C121.368 28.8842 121.368 31.3009 121.368 33.5059C121.368 37.9134 121.353 41.4792 121.348 43.9488C121.357 44.2422 121.318 44.535 121.232 44.8157C121.153 45.0619 121.033 45.2929 120.877 45.4986C120.636 45.827 120.315 46.0875 119.944 46.2546C119.717 46.3526 119.477 46.4155 119.231 46.4411C119.05 46.4486 118.966 46.4461 118.966 46.4461Z" fill="#161B46"/>
<path d="M108.642 48.2478C108.555 47.8323 108.555 47.4033 108.642 46.9878C108.729 47.4033 108.729 47.8323 108.642 48.2478Z" fill="#161B46"/>
<path d="M108.639 50.7678C108.576 50.5643 108.553 50.3501 108.574 50.1378C108.552 49.9254 108.575 49.7106 108.642 49.5078C108.706 49.7113 108.727 49.9257 108.705 50.1378C108.726 50.3501 108.703 50.5643 108.639 50.7678Z" fill="#161B46"/>
<path d="M108.634 53.2878C108.572 53.084 108.551 52.8699 108.571 52.6578C108.551 52.4456 108.573 52.2313 108.637 52.0278C108.702 52.231 108.725 52.4456 108.702 52.6578C108.725 52.8703 108.701 53.085 108.634 53.2878Z" fill="#161B46"/>
<path d="M108.629 55.8078C108.567 55.604 108.546 55.39 108.566 55.1779C108.546 54.9656 108.568 54.7513 108.632 54.5479C108.697 54.751 108.719 54.9656 108.697 55.1779C108.719 55.3903 108.696 55.605 108.629 55.8078Z" fill="#161B46"/>
<path d="M108.627 58.3254C108.562 58.1222 108.539 57.9077 108.561 57.6954C108.539 57.483 108.563 57.2683 108.629 57.0654C108.692 57.2692 108.713 57.4833 108.692 57.6954C108.713 57.9077 108.691 58.122 108.627 58.3254Z" fill="#161B46"/>
<path d="M108.624 60.8454C108.559 60.6423 108.537 60.4277 108.559 60.2154C108.538 60.0032 108.56 59.7889 108.624 59.5854C108.712 60.0009 108.712 60.43 108.624 60.8454Z" fill="#161B46"/>
<path d="M108.624 62.4381C108.587 62.4381 108.556 62.3625 108.556 62.2718C108.556 62.1811 108.587 62.1055 108.624 62.1055C108.662 62.1055 108.69 62.1786 108.69 62.2718C108.69 62.365 108.66 62.4381 108.624 62.4381Z" fill="#161B46"/>
<path d="M85.3976 43.0063C85.4849 43.4218 85.4849 43.8509 85.3976 44.2663C85.3102 43.8509 85.3102 43.4218 85.3976 43.0063Z" fill="#161B46"/>
<path d="M85.3976 40.4863C85.4849 40.9018 85.4849 41.3309 85.3976 41.7463C85.3102 41.3309 85.3102 40.9018 85.3976 40.4863Z" fill="#161B46"/>
<path d="M85.3976 37.9663C85.4849 38.3818 85.4849 38.8108 85.3976 39.2263C85.3102 38.8108 85.3102 38.3818 85.3976 37.9663Z" fill="#161B46"/>
<path d="M85.3976 35.4463C85.4849 35.8617 85.4849 36.2908 85.3976 36.7063C85.3102 36.2908 85.3102 35.8617 85.3976 35.4463Z" fill="#161B46"/>
<path d="M86.7331 34.2721C86.3177 34.3594 85.8886 34.3594 85.4731 34.2721C85.8886 34.1847 86.3177 34.1847 86.7331 34.2721Z" fill="#161B46"/>
<path d="M89.2532 34.2721C88.8377 34.3594 88.4086 34.3594 87.9932 34.2721C88.4086 34.1847 88.8377 34.1847 89.2532 34.2721Z" fill="#161B46"/>
<path d="M91.7732 34.2721C91.3577 34.3594 90.9286 34.3594 90.5132 34.2721C90.9286 34.1847 91.3577 34.1847 91.7732 34.2721Z" fill="#161B46"/>
<path d="M94.2932 34.2721C93.8777 34.3594 93.4487 34.3594 93.0332 34.2721C93.4487 34.1847 93.8777 34.1847 94.2932 34.2721Z" fill="#161B46"/>
<path d="M95.9362 34.2721C95.9362 34.3099 95.8505 34.3376 95.7447 34.3376C95.6388 34.3376 95.5532 34.3099 95.5532 34.2721C95.5532 34.2343 95.6388 34.2065 95.7447 34.2065C95.8505 34.2065 95.9362 34.2267 95.9362 34.2721Z" fill="#161B46"/>
<path d="M50.7795 138.416C50.7795 137.328 51.0302 136.352 51.5315 135.488C52.0435 134.624 52.7315 133.952 53.5955 133.472C54.4702 132.981 55.4248 132.736 56.4595 132.736C57.6435 132.736 58.6942 133.029 59.6115 133.616C60.5395 134.192 61.2115 135.013 61.6275 136.08H59.4355C59.1475 135.493 58.7475 135.056 58.2355 134.768C57.7235 134.48 57.1315 134.336 56.4595 134.336C55.7235 134.336 55.0675 134.501 54.4915 134.832C53.9155 135.163 53.4622 135.637 53.1315 136.256C52.8115 136.875 52.6515 137.595 52.6515 138.416C52.6515 139.237 52.8115 139.957 53.1315 140.576C53.4622 141.195 53.9155 141.675 54.4915 142.016C55.0675 142.347 55.7235 142.512 56.4595 142.512C57.1315 142.512 57.7235 142.368 58.2355 142.08C58.7475 141.792 59.1475 141.355 59.4355 140.768H61.6275C61.2115 141.835 60.5395 142.656 59.6115 143.232C58.6942 143.808 57.6435 144.096 56.4595 144.096C55.4142 144.096 54.4595 143.856 53.5955 143.376C52.7315 142.885 52.0435 142.208 51.5315 141.344C51.0302 140.48 50.7795 139.504 50.7795 138.416ZM63.1545 139.552C63.1545 138.667 63.3358 137.883 63.6985 137.2C64.0718 136.517 64.5732 135.989 65.2025 135.616C65.8425 135.232 66.5465 135.04 67.3145 135.04C68.0078 135.04 68.6105 135.179 69.1225 135.456C69.6452 135.723 70.0612 136.059 70.3705 136.464V135.184H72.2105V144H70.3705V142.688C70.0612 143.104 69.6398 143.451 69.1065 143.728C68.5732 144.005 67.9652 144.144 67.2825 144.144C66.5252 144.144 65.8318 143.952 65.2025 143.568C64.5732 143.173 64.0718 142.629 63.6985 141.936C63.3358 141.232 63.1545 140.437 63.1545 139.552ZM70.3705 139.584C70.3705 138.976 70.2425 138.448 69.9865 138C69.7412 137.552 69.4158 137.211 69.0105 136.976C68.6052 136.741 68.1678 136.624 67.6985 136.624C67.2292 136.624 66.7918 136.741 66.3865 136.976C65.9812 137.2 65.6505 137.536 65.3945 137.984C65.1492 138.421 65.0265 138.944 65.0265 139.552C65.0265 140.16 65.1492 140.693 65.3945 141.152C65.6505 141.611 65.9812 141.963 66.3865 142.208C66.8025 142.443 67.2398 142.56 67.6985 142.56C68.1678 142.56 68.6052 142.443 69.0105 142.208C69.4158 141.973 69.7412 141.632 69.9865 141.184C70.2425 140.725 70.3705 140.192 70.3705 139.584ZM76.4303 136.464C76.6969 136.016 77.0489 135.669 77.4863 135.424C77.9343 135.168 78.4623 135.04 79.0703 135.04V136.928H78.6063C77.8916 136.928 77.3476 137.109 76.9743 137.472C76.6116 137.835 76.4303 138.464 76.4303 139.36V144H74.6063V135.184H76.4303V136.464ZM80.1389 139.552C80.1389 138.667 80.3202 137.883 80.6829 137.2C81.0562 136.517 81.5575 135.989 82.1869 135.616C82.8269 135.232 83.5362 135.04 84.3149 135.04C84.8909 135.04 85.4562 135.168 86.0109 135.424C86.5762 135.669 87.0242 136 87.3549 136.416V132.16H89.1949V144H87.3549V142.672C87.0562 143.099 86.6402 143.451 86.1069 143.728C85.5842 144.005 84.9815 144.144 84.2989 144.144C83.5309 144.144 82.8269 143.952 82.1869 143.568C81.5575 143.173 81.0562 142.629 80.6829 141.936C80.3202 141.232 80.1389 140.437 80.1389 139.552ZM87.3549 139.584C87.3549 138.976 87.2269 138.448 86.9709 138C86.7255 137.552 86.4002 137.211 85.9949 136.976C85.5895 136.741 85.1522 136.624 84.6829 136.624C84.2135 136.624 83.7762 136.741 83.3709 136.976C82.9655 137.2 82.6349 137.536 82.3789 137.984C82.1335 138.421 82.0109 138.944 82.0109 139.552C82.0109 140.16 82.1335 140.693 82.3789 141.152C82.6349 141.611 82.9655 141.963 83.3709 142.208C83.7869 142.443 84.2242 142.56 84.6829 142.56C85.1522 142.56 85.5895 142.443 85.9949 142.208C86.4002 141.973 86.7255 141.632 86.9709 141.184C87.2269 140.725 87.3549 140.192 87.3549 139.584ZM92.5186 134.016C92.188 134.016 91.9106 133.904 91.6866 133.68C91.4626 133.456 91.3506 133.179 91.3506 132.848C91.3506 132.517 91.4626 132.24 91.6866 132.016C91.9106 131.792 92.188 131.68 92.5186 131.68C92.8386 131.68 93.1106 131.792 93.3346 132.016C93.5586 132.24 93.6706 132.517 93.6706 132.848C93.6706 133.179 93.5586 133.456 93.3346 133.68C93.1106 133.904 92.8386 134.016 92.5186 134.016ZM93.4146 135.184V144H91.5906V135.184H93.4146ZM99.6334 144.144C98.8014 144.144 98.0494 143.957 97.3774 143.584C96.7054 143.2 96.1774 142.667 95.7934 141.984C95.4094 141.291 95.2174 140.491 95.2174 139.584C95.2174 138.688 95.4147 137.893 95.8094 137.2C96.204 136.507 96.7427 135.973 97.4254 135.6C98.108 135.227 98.8707 135.04 99.7134 135.04C100.556 135.04 101.319 135.227 102.001 135.6C102.684 135.973 103.223 136.507 103.617 137.2C104.012 137.893 104.209 138.688 104.209 139.584C104.209 140.48 104.007 141.275 103.601 141.968C103.196 142.661 102.641 143.2 101.937 143.584C101.244 143.957 100.476 144.144 99.6334 144.144ZM99.6334 142.56C100.103 142.56 100.54 142.448 100.945 142.224C101.361 142 101.697 141.664 101.953 141.216C102.209 140.768 102.337 140.224 102.337 139.584C102.337 138.944 102.215 138.405 101.969 137.968C101.724 137.52 101.399 137.184 100.993 136.96C100.588 136.736 100.151 136.624 99.6814 136.624C99.212 136.624 98.7747 136.736 98.3694 136.96C97.9747 137.184 97.66 137.52 97.4254 137.968C97.1907 138.405 97.0734 138.944 97.0734 139.584C97.0734 140.533 97.3134 141.269 97.7934 141.792C98.284 142.304 98.8974 142.56 99.6334 142.56Z" fill="#161B46"/>
</svg>
