<svg width="48" height="56" viewBox="0 0 48 56" fill="none" xmlns="http://www.w3.org/2000/svg">
<path d="M0 8C0 3.58172 3.58172 0 8 0H32.7231C34.823 0 36.8388 0.825655 38.3353 2.29878L45.6121 9.46195C47.1398 10.9657 48 13.0196 48 15.1632V48C48 52.4183 44.4183 56 40 56H8C3.58172 56 0 52.4183 0 48V8Z" fill="#CDF1FF"/>
<path fill-rule="evenodd" clip-rule="evenodd" d="M12 21C12 20.4477 12.4477 20 13 20H36C36.5523 20 37 20.4477 37 21C37 21.5523 36.5523 22 36 22H13C12.4477 22 12 21.5523 12 21ZM12 27C12 26.4477 12.4477 26 13 26H36C36.5523 26 37 26.4477 37 27C37 27.5523 36.5523 28 36 28H13C12.4477 28 12 27.5523 12 27ZM13 32C12.4477 32 12 32.4477 12 33C12 33.5523 12.4477 34 13 34H24.2812C24.8335 34 25.2812 33.5523 25.2812 33C25.2812 32.4477 24.8335 32 24.2812 32H13Z" fill="#00ACE9"/>
</svg>
