<svg width="256" height="170" viewBox="0 0 256 170" fill="none" xmlns="http://www.w3.org/2000/svg">
<path d="M220.172 19.8365L219.588 18.8675C214.67 10.7959 205.778 5.94747 196.405 6.52207C195.197 6.5969 193.997 6.76055 192.814 7.01167C184.281 8.82727 176.877 15.2499 173.802 23.4711C171.993 28.3059 171.488 33.8751 168.057 37.7137C163.592 42.7185 156.011 42.8749 149.359 42.6675C142.706 42.4601 135.108 42.6369 130.664 47.6519C127.882 50.7935 126.998 55.2611 127.223 59.4669C127.817 70.6019 135.607 80.5469 145.512 85.5109C155.418 90.4749 167.088 90.9033 177.939 88.7273C193.128 85.6673 207.573 77.2999 216.257 64.3629C224.94 51.4259 227.118 33.8003 220.172 19.8365Z" fill="#F4F5FB"/>
<path d="M63.0345 131.53C72.792 131.53 80.7019 123.651 80.7019 113.931C80.7019 104.212 72.792 96.333 63.0345 96.333C53.2771 96.333 45.3671 104.212 45.3671 113.931C45.3671 123.651 53.2771 131.53 63.0345 131.53Z" fill="#F4F5FB"/>
<path d="M90.2007 31.9598H71.6458V25.4454C71.6458 20.852 75.3834 16.9658 79.9949 16.9658L90.2007 17.1256V31.9598Z" fill="#D4D9F5"/>
<path d="M79.5955 16.9556C79.5955 16.9556 90.1564 16.0002 90.1564 29.7192V136.428H173.032V25.8398C173.032 24.6479 172.795 23.4677 172.337 22.3668C171.878 21.266 171.206 20.266 170.359 19.4241C169.511 18.5822 168.506 17.9149 167.4 17.4604C166.294 17.006 165.108 16.7732 163.912 16.7754L79.5955 16.9556Z" fill="white"/>
<path d="M79.5955 16.9557L140.909 16.7585L155.757 16.7177L163.652 16.6939C165.035 16.6561 166.409 16.9289 167.672 17.4922C168.935 18.0555 170.054 18.8947 170.947 19.9477C171.86 21.0316 172.508 22.3119 172.841 23.6877C172.928 24.0334 172.993 24.3843 173.035 24.7383C173.083 25.0783 173.08 25.4489 173.104 25.8059C173.104 26.5154 173.104 27.2294 173.104 27.9479C173.104 30.8107 173.104 33.72 173.104 36.6757C173.104 42.5804 173.104 48.6539 173.104 54.8963C173.104 79.8319 173.104 107.256 173.104 136.02V136.517H173.015H90.1393H90.0574V136.435C90.0574 99.4907 90.0813 68.1189 90.0915 45.9951C90.0915 40.4599 90.0915 35.5027 90.0915 31.1813C90.0915 30.1001 90.0915 29.0597 90.0301 28.0635C89.9703 27.1074 89.838 26.1572 89.6341 25.2211C89.438 24.368 89.1662 23.534 88.8217 22.7289C88.4976 22.0098 88.0995 21.3262 87.6339 20.6889C86.8365 19.629 85.8144 18.7572 84.6404 18.1355C83.7826 17.6836 82.8624 17.3605 81.9097 17.1767C81.3319 17.0597 80.7448 16.9937 80.1553 16.9795C79.7593 16.9795 79.5545 16.9795 79.5545 16.9795C79.7546 16.9676 79.9552 16.9676 80.1553 16.9795C80.7466 16.9893 81.336 17.0507 81.9166 17.1631C82.8689 17.3445 83.7891 17.6653 84.6472 18.1151C85.8294 18.7347 86.8588 19.608 87.6612 20.6719C88.131 21.309 88.5336 21.9926 88.8627 22.7119C89.2106 23.5202 89.4859 24.3576 89.6853 25.2143C89.8917 26.1537 90.0263 27.1073 90.0881 28.0669C90.1632 29.0665 90.1529 30.1069 90.1529 31.1881C90.1529 35.5095 90.1529 40.4667 90.1529 46.0019C90.1529 68.1393 90.17 99.5111 90.1837 136.442L90.1017 136.364H172.977L172.889 136.452V136.044C172.889 107.27 172.889 79.8557 172.889 54.9201C172.889 48.6845 172.889 42.611 172.889 36.6995V27.9479C172.868 26.5165 172.995 25.0817 172.633 23.7217C172.321 22.3804 171.706 21.1278 170.834 20.0599C169.958 19.0233 168.858 18.1968 167.617 17.6417C166.376 17.0866 165.026 16.8173 163.666 16.8537H155.754L140.882 16.8775L79.5955 16.9557Z" fill="#454E90"/>
<path d="M125.631 49.3408C125.631 49.3884 120.59 49.4292 114.367 49.4292C108.145 49.4292 103.103 49.3884 103.103 49.3408C103.103 49.2932 108.141 49.2524 114.367 49.2524C120.593 49.2524 125.631 49.3 125.631 49.3408Z" fill="#454E90"/>
<path d="M130.676 52.02C130.676 52.071 124.508 52.1084 116.896 52.1084C109.285 52.1084 103.12 52.071 103.12 52.02C103.12 51.969 109.288 51.9316 116.896 51.9316C124.505 51.9316 130.676 51.9724 130.676 52.02Z" fill="#454E90"/>
<path d="M132.485 62.5767C132.485 62.6243 126.116 62.6651 118.258 62.6651C110.401 62.6651 104.032 62.6243 104.032 62.5767C104.032 62.5291 110.401 62.4883 118.258 62.4883C126.116 62.4883 132.485 62.5257 132.485 62.5767Z" fill="#454E90"/>
<path d="M151.071 72.8652C151.071 72.9128 140.421 72.9536 127.287 72.9536C114.152 72.9536 103.502 72.9128 103.502 72.8652C103.502 72.8177 114.149 72.7769 127.287 72.7769C140.424 72.7769 151.071 72.8143 151.071 72.8652Z" fill="#454E90"/>
<path d="M151.071 75.9322C151.071 75.9832 140.421 76.0206 127.287 76.0206C114.152 76.0206 103.502 75.9832 103.502 75.9322C103.502 75.8811 114.149 75.8438 127.287 75.8438C140.424 75.8438 151.071 75.8845 151.071 75.9322Z" fill="#454E90"/>
<path d="M151.071 79.0025C151.071 79.0535 140.421 79.0909 127.287 79.0909C114.152 79.0909 103.502 79.0535 103.502 79.0025C103.502 78.9515 114.149 78.9141 127.287 78.9141C140.424 78.9141 151.071 78.9549 151.071 79.0025Z" fill="#454E90"/>
<path d="M151.071 82.0723C151.071 82.1199 140.421 82.1607 127.287 82.1607C114.152 82.1607 103.502 82.1199 103.502 82.0723C103.502 82.0247 114.149 81.9839 127.287 81.9839C140.424 81.9839 151.071 82.0247 151.071 82.0723Z" fill="#454E90"/>
<path d="M151.071 85.1426C151.071 85.1902 140.421 85.231 127.287 85.231C114.152 85.231 103.502 85.1902 103.502 85.1426C103.502 85.095 114.149 85.0542 127.287 85.0542C140.424 85.0542 151.071 85.0916 151.071 85.1426Z" fill="#454E90"/>
<path d="M121.542 88.2129C121.542 88.2605 117.501 88.3013 112.521 88.3013C107.54 88.3013 103.502 88.2605 103.502 88.2129C103.502 88.1653 107.54 88.1245 112.521 88.1245C117.501 88.1245 121.542 88.1619 121.542 88.2129Z" fill="#454E90"/>
<path d="M111.005 33.4832C111.002 33.2201 111.055 32.9592 111.158 32.7171C111.262 32.475 111.415 32.2568 111.607 32.0764C111.799 31.896 112.027 31.7571 112.276 31.6686C112.525 31.5802 112.789 31.5439 113.053 31.5622C113.353 31.5461 113.653 31.5991 113.93 31.717C114.206 31.8349 114.452 32.0146 114.647 32.2422L113.981 32.844C113.879 32.7099 113.747 32.6012 113.595 32.5263C113.444 32.4514 113.277 32.4124 113.108 32.4122C112.827 32.4122 112.558 32.5233 112.359 32.7209C112.161 32.9186 112.049 33.1867 112.049 33.4662C112.049 33.7458 112.161 34.0139 112.359 34.2115C112.558 34.4092 112.827 34.5202 113.108 34.5202C113.277 34.5201 113.444 34.4811 113.595 34.4062C113.747 34.3313 113.879 34.2225 113.981 34.0884L114.647 34.6868C114.453 34.9175 114.209 35.1005 113.932 35.2214C113.655 35.3423 113.355 35.3979 113.053 35.3838C112.791 35.402 112.528 35.3664 112.281 35.2791C112.033 35.1919 111.807 35.0549 111.615 34.8766C111.423 34.6984 111.269 34.4827 111.164 34.243C111.06 34.0033 111.005 33.7447 111.005 33.4832Z" fill="#454E90"/>
<path d="M118.074 34.5199V35.3257H115.101V31.6367H118.006V32.4425H116.135V33.0647H117.784V33.8467H116.135V34.5267L118.074 34.5199Z" fill="#454E90"/>
<path d="M120.276 34.3397H119.706V35.3189H118.658V31.6367H120.364C121.388 31.6367 122.01 32.1569 122.01 32.9967C122.019 33.2407 121.954 33.4817 121.825 33.6889C121.695 33.8961 121.506 34.06 121.283 34.1595L122.085 35.3189H120.962L120.276 34.3397ZM120.276 32.4527H119.695V33.5339H120.276C120.709 33.5339 120.928 33.3333 120.928 32.9967C120.928 32.6601 120.719 32.4595 120.286 32.4595L120.276 32.4527Z" fill="#454E90"/>
<path d="M123.307 32.4629H122.17V31.6367H125.488V32.4629H124.355V35.3257H123.307V32.4629Z" fill="#454E90"/>
<path d="M125.88 31.6367H126.928V35.3257H125.88V31.6367Z" fill="#454E90"/>
<path d="M128.724 32.4425V33.2551H130.359V34.0609H128.724V35.3257H127.676V31.6367H130.58V32.4425H128.724Z" fill="#454E90"/>
<path d="M131.072 31.6367H132.12V35.3257H131.072V31.6367Z" fill="#454E90"/>
<path d="M132.676 33.483C132.674 33.22 132.727 32.9593 132.831 32.7175C132.934 32.4756 133.087 32.2576 133.279 32.0773C133.472 31.897 133.699 31.7581 133.948 31.6695C134.196 31.5808 134.461 31.5442 134.724 31.562C135.024 31.5459 135.323 31.5989 135.599 31.7168C135.875 31.8348 136.12 32.0145 136.315 32.242L135.649 32.8438C135.547 32.7095 135.415 32.6006 135.263 32.5257C135.112 32.4508 134.945 32.4119 134.775 32.412C134.495 32.412 134.226 32.523 134.027 32.7207C133.829 32.9184 133.717 33.1865 133.717 33.466C133.717 33.7455 133.829 34.0136 134.027 34.2113C134.226 34.409 134.495 34.52 134.775 34.52C134.945 34.5201 135.112 34.4812 135.263 34.4063C135.415 34.3314 135.547 34.2225 135.649 34.0882L136.315 34.6866C136.122 34.9172 135.878 35.1002 135.602 35.2211C135.326 35.342 135.025 35.3976 134.724 35.3836C133.54 35.4006 132.676 34.605 132.676 33.483Z" fill="#454E90"/>
<path d="M139.189 34.6083H137.626L137.332 35.3257H136.264L137.899 31.6367H138.923L140.561 35.3257H139.472L139.189 34.6083ZM138.885 33.8399L138.407 32.6601L137.929 33.8399H138.885Z" fill="#454E90"/>
<path d="M141.472 32.4629H140.336V31.6367H143.654V32.4629H142.52V35.3257H141.472V32.4629Z" fill="#454E90"/>
<path d="M144.043 31.6367H145.091V35.3257H144.043V31.6367Z" fill="#454E90"/>
<path d="M145.647 33.483C145.647 32.3746 146.521 31.562 147.695 31.562C148.869 31.562 149.743 32.3746 149.743 33.483C149.743 34.5914 148.869 35.4006 147.695 35.4006C146.521 35.4006 145.647 34.588 145.647 33.483ZM148.719 33.483C148.708 33.2888 148.639 33.1022 148.523 32.9462C148.406 32.7901 148.246 32.6715 148.063 32.6049C147.88 32.5382 147.681 32.5266 147.491 32.5713C147.301 32.616 147.128 32.7152 146.994 32.8565C146.86 32.9979 146.77 33.1752 146.736 33.3667C146.702 33.5583 146.725 33.7555 146.802 33.9342C146.879 34.1129 147.007 34.2652 147.17 34.3723C147.333 34.4794 147.524 34.5367 147.719 34.537C147.854 34.5369 147.989 34.509 148.113 34.455C148.237 34.401 148.349 34.3222 148.442 34.2234C148.534 34.1245 148.605 34.0078 148.651 33.8804C148.696 33.7531 148.715 33.6178 148.705 33.483H148.719Z" fill="#454E90"/>
<path d="M153.839 31.6367V35.3257H152.975L151.34 33.3605V35.3257H150.316V31.6367H151.177L152.811 33.6019V31.6367H153.839Z" fill="#454E90"/>
<path d="M158.037 101.17C158.037 101.218 153.313 101.259 147.49 101.259C141.667 101.259 136.94 101.218 136.94 101.17C136.94 101.123 141.664 101.082 147.49 101.082C153.317 101.082 158.037 101.123 158.037 101.17Z" fill="#454E90"/>
<path d="M158.037 104.135C158.037 104.183 153.313 104.224 147.49 104.224C141.667 104.224 136.94 104.183 136.94 104.135C136.94 104.088 141.653 104.04 147.494 104.04C153.334 104.04 158.037 104.088 158.037 104.135Z" fill="#454E90"/>
<path d="M156.638 117.018C156.633 116.968 156.633 116.918 156.638 116.868C156.638 116.763 156.621 116.62 156.607 116.436C156.607 116.341 156.6 116.236 156.587 116.12C156.587 116.001 156.549 115.875 156.529 115.739C156.486 115.422 156.421 115.109 156.334 114.801C156.119 113.95 155.773 113.137 155.31 112.39C154.227 110.586 152.546 109.214 150.557 108.51C148.567 107.807 146.394 107.817 144.411 108.538C144.006 108.684 143.612 108.856 143.23 109.055C142.844 109.267 142.472 109.504 142.118 109.766C141.758 110.033 141.415 110.324 141.094 110.636C140.775 110.965 140.479 111.315 140.206 111.683C139.643 112.436 139.206 113.276 138.912 114.169C138.289 116.016 138.289 118.016 138.912 119.864C139.206 120.756 139.643 121.596 140.206 122.349C140.479 122.717 140.775 123.067 141.094 123.396C141.415 123.708 141.758 123.999 142.118 124.267C142.814 124.792 143.588 125.207 144.411 125.497C145.932 126.047 147.571 126.184 149.163 125.895C150.43 125.659 151.633 125.158 152.693 124.425C153.752 123.692 154.643 122.743 155.307 121.642C155.77 120.895 156.115 120.082 156.331 119.231C156.418 118.924 156.483 118.61 156.525 118.293C156.546 118.157 156.57 118.031 156.583 117.915C156.597 117.8 156.583 117.691 156.604 117.596C156.604 117.412 156.628 117.256 156.634 117.164C156.629 117.115 156.629 117.066 156.634 117.018C156.639 117.066 156.639 117.115 156.634 117.164V117.599C156.634 117.694 156.634 117.803 156.634 117.919C156.634 118.034 156.604 118.164 156.583 118.303C156.549 118.622 156.489 118.938 156.406 119.248C156.202 120.109 155.865 120.934 155.409 121.693C154.323 123.533 152.624 124.936 150.608 125.659C148.591 126.382 146.385 126.379 144.37 125.65C143.957 125.503 143.555 125.329 143.165 125.127C142.771 124.913 142.392 124.671 142.032 124.403C141.662 124.132 141.311 123.836 140.981 123.519C140.656 123.183 140.354 122.826 140.076 122.451C139.501 121.684 139.055 120.828 138.755 119.918C138.118 118.035 138.118 115.997 138.755 114.114C139.056 113.204 139.502 112.349 140.076 111.581C140.354 111.206 140.657 110.85 140.984 110.517C141.313 110.198 141.664 109.902 142.032 109.63C143.068 108.868 144.252 108.332 145.509 108.055C146.766 107.779 148.067 107.768 149.328 108.025C150.589 108.281 151.782 108.799 152.83 109.544C153.877 110.289 154.756 111.245 155.409 112.35C155.865 113.109 156.201 113.933 156.406 114.794C156.49 115.105 156.549 115.422 156.583 115.743C156.604 115.882 156.624 116.008 156.634 116.124C156.645 116.239 156.634 116.348 156.634 116.447V116.878C156.64 116.925 156.641 116.971 156.638 117.018Z" fill="#ABB4EC"/>
<path d="M153.205 118.366C153.956 115.221 152.005 112.064 148.847 111.316C145.689 110.567 142.52 112.511 141.768 115.657C141.017 118.802 142.968 121.959 146.126 122.707C149.285 123.456 152.454 121.512 153.205 118.366Z" fill="#ABB4EC"/>
<path d="M160.563 111.976L160.317 112.112L159.584 112.499L156.761 113.965L152.3 116.28C151.846 116.515 151.355 116.672 150.849 116.742C150.573 116.777 150.293 116.753 150.027 116.672C149.761 116.591 149.515 116.455 149.306 116.273C149.083 116.081 148.925 115.826 148.852 115.542C148.81 115.394 148.806 115.238 148.84 115.088C148.874 114.937 148.945 114.798 149.047 114.682C149.26 114.45 149.554 114.309 149.869 114.288C150.034 114.265 150.202 114.297 150.347 114.378C150.493 114.459 150.607 114.585 150.675 114.736V114.76C150.683 115.742 150.333 116.693 149.688 117.436C149.352 117.838 148.935 118.166 148.465 118.4C147.995 118.634 147.482 118.769 146.958 118.796C146.404 118.826 145.851 118.744 145.329 118.557C144.808 118.369 144.33 118.08 143.923 117.705C143.483 117.321 143.177 116.808 143.049 116.239C142.99 115.94 143.031 115.629 143.165 115.355C143.302 115.074 143.538 114.854 143.828 114.736C143.978 114.679 144.14 114.66 144.3 114.682C144.459 114.704 144.61 114.766 144.739 114.862C144.985 115.058 145.165 115.323 145.254 115.624C145.352 115.914 145.399 116.219 145.394 116.525C145.408 116.676 145.408 116.829 145.394 116.98C145.387 117.134 145.368 117.286 145.336 117.436C145.096 118.672 144.421 119.783 143.432 120.567C142.933 120.979 142.354 121.282 141.731 121.458C141.108 121.633 140.455 121.678 139.814 121.587C138.492 121.367 137.307 120.649 136.503 119.581C136.033 118.983 135.708 118.285 135.554 117.541C135.386 116.802 135.444 116.03 135.721 115.325C135.871 114.971 136.126 114.673 136.451 114.468C136.782 114.265 137.176 114.191 137.557 114.26C137.744 114.303 137.919 114.386 138.07 114.503C138.221 114.621 138.345 114.77 138.431 114.94C138.598 115.262 138.719 115.606 138.793 115.96C139.113 117.335 139.026 118.773 138.54 120.098C138.081 121.375 137.195 122.455 136.032 123.158C134.924 123.831 133.623 124.114 132.335 123.964C131.72 123.89 131.126 123.698 130.584 123.4C130.059 123.105 129.596 122.714 129.219 122.247C128.489 121.369 128.09 120.265 128.089 119.126C128.1 118.59 128.216 118.061 128.43 117.569C128.522 117.325 128.663 117.103 128.846 116.916C129.028 116.73 129.246 116.582 129.488 116.484C129.734 116.408 129.996 116.401 130.246 116.464C130.48 116.54 130.694 116.669 130.871 116.841C131.2 117.172 131.446 117.575 131.591 118.017C131.739 118.426 131.816 118.858 131.82 119.292C131.82 119.503 131.82 119.707 131.82 119.911C131.82 120.115 131.802 120.312 131.782 120.506C131.654 121.842 131.263 123.139 130.632 124.324C130.235 125.071 129.744 125.765 129.171 126.388C128.976 126.602 128.812 126.752 128.703 126.854C128.594 126.956 128.536 127.004 128.536 127.004C128.536 127.004 128.587 126.946 128.693 126.84C128.799 126.735 128.952 126.582 129.143 126.364C129.701 125.734 130.18 125.039 130.57 124.294C131.184 123.113 131.562 121.824 131.683 120.499C131.703 120.306 131.714 120.108 131.717 119.908C131.721 119.707 131.717 119.503 131.717 119.296C131.711 118.872 131.634 118.453 131.488 118.055C131.352 117.632 131.118 117.247 130.806 116.929C130.642 116.773 130.445 116.657 130.229 116.589C130.004 116.533 129.768 116.54 129.546 116.61C129.321 116.704 129.119 116.843 128.95 117.018C128.781 117.194 128.651 117.402 128.567 117.63C128.368 118.106 128.262 118.616 128.256 119.133C128.263 120.239 128.654 121.309 129.362 122.162C129.731 122.621 130.186 123.004 130.704 123.287C131.221 123.571 131.789 123.75 132.376 123.814C133.629 123.958 134.894 123.68 135.97 123.026C137.102 122.338 137.962 121.282 138.404 120.037C138.877 118.743 138.961 117.339 138.646 115.998C138.578 115.658 138.463 115.33 138.305 115.022C138.231 114.872 138.124 114.74 137.992 114.636C137.86 114.532 137.707 114.458 137.544 114.42C137.206 114.359 136.857 114.427 136.567 114.611C136.27 114.794 136.04 115.067 135.909 115.389C135.645 116.06 135.59 116.795 135.752 117.497C135.901 118.215 136.216 118.889 136.67 119.466C137.447 120.495 138.59 121.188 139.865 121.404C140.483 121.488 141.111 121.442 141.711 121.271C142.31 121.099 142.867 120.805 143.346 120.408C144.304 119.65 144.957 118.577 145.19 117.382C145.244 117.092 145.267 116.798 145.258 116.504C145.263 116.216 145.22 115.928 145.128 115.654C145.047 115.388 144.889 115.152 144.674 114.974C144.567 114.895 144.442 114.845 144.31 114.827C144.178 114.809 144.044 114.825 143.92 114.872C143.669 114.976 143.466 115.167 143.346 115.41C143.228 115.652 143.192 115.927 143.244 116.192C143.369 116.72 143.658 117.196 144.07 117.552C144.459 117.913 144.918 118.193 145.418 118.375C145.918 118.556 146.45 118.636 146.982 118.609C147.485 118.583 147.977 118.453 148.428 118.229C148.878 118.004 149.277 117.689 149.6 117.303C150.224 116.588 150.566 115.671 150.562 114.723V114.747C150.506 114.618 150.408 114.513 150.284 114.447C150.16 114.381 150.018 114.358 149.879 114.383C149.601 114.398 149.339 114.52 149.149 114.723C149.06 114.824 148.998 114.945 148.969 115.075C148.939 115.206 148.942 115.342 148.978 115.471C149.043 115.735 149.188 115.973 149.395 116.151C149.59 116.323 149.82 116.451 150.069 116.527C150.318 116.604 150.58 116.626 150.839 116.593C151.333 116.528 151.812 116.378 152.255 116.151L156.727 113.883L159.57 112.452L160.311 112.081L160.563 111.976Z" fill="#454E90"/>
<path d="M129.987 28.1011C129.987 28.1521 122.767 28.1929 113.862 28.1929C104.957 28.1929 97.7339 28.1521 97.7339 28.1011C97.7339 28.0501 104.953 28.0127 113.862 28.0127C122.771 28.0127 129.987 28.0535 129.987 28.1011Z" fill="#D4D9F5"/>
<path d="M135.363 28.1011C134.621 28.2235 133.865 28.2235 133.123 28.1011C133.865 27.9832 134.621 27.9832 135.363 28.1011Z" fill="#D4D9F5"/>
<path d="M167.468 28.1011C167.468 28.1521 160.881 28.1929 152.76 28.1929C144.64 28.1929 138.052 28.1521 138.052 28.1011C138.052 28.0501 144.633 28.0127 152.76 28.0127C160.887 28.0127 167.468 28.0535 167.468 28.1011Z" fill="#D4D9F5"/>
<path d="M129.987 37.0396C129.987 37.0906 122.767 37.128 113.862 37.128C104.957 37.128 97.7339 37.0906 97.7339 37.0396C97.7339 36.9886 104.953 36.9512 113.862 36.9512C122.771 36.9512 129.987 36.992 129.987 37.0396Z" fill="#D4D9F5"/>
<path d="M135.363 37.0396C134.621 37.1574 133.865 37.1574 133.123 37.0396C133.865 36.9217 134.621 36.9217 135.363 37.0396Z" fill="#D4D9F5"/>
<path d="M167.468 37.0396C167.468 37.0906 160.881 37.128 152.76 37.128C144.64 37.128 138.052 37.0906 138.052 37.0396C138.052 36.9886 144.633 36.9512 152.76 36.9512C160.887 36.9512 167.468 36.992 167.468 37.0396Z" fill="#D4D9F5"/>
<path d="M159.577 72.4199L151.115 92.0073C151.075 92.0985 151.063 92.1999 151.081 92.2979C151.1 92.396 151.148 92.4862 151.219 92.5565C151.29 92.6269 151.38 92.6742 151.479 92.692C151.577 92.7099 151.679 92.6976 151.77 92.6567L158.293 89.7871C158.357 89.7578 158.427 89.7423 158.497 89.7417C158.568 89.7412 158.638 89.7555 158.702 89.7838C158.767 89.812 158.825 89.8536 158.872 89.9058C158.919 89.9579 158.954 90.0195 158.976 90.0863L161.178 96.6653C161.211 96.7621 161.274 96.8461 161.358 96.9055C161.442 96.9649 161.542 96.9968 161.645 96.9968C161.748 96.9968 161.848 96.9649 161.932 96.9055C162.016 96.8461 162.079 96.7621 162.113 96.6653L170.069 75.5377L159.577 72.4199Z" fill="#ABB4EC"/>
<path d="M170.605 75.6941L174.657 96.6313C174.676 96.7292 174.724 96.819 174.795 96.8893C174.866 96.9595 174.956 97.0069 175.054 97.0253C175.153 97.0436 175.254 97.032 175.346 96.9921C175.438 96.9522 175.515 96.8857 175.568 96.8013L179.343 90.7799C179.38 90.7215 179.429 90.6712 179.486 90.6325C179.543 90.5937 179.608 90.5672 179.676 90.5548C179.744 90.5423 179.814 90.5441 179.881 90.56C179.949 90.576 180.012 90.6057 180.067 90.6473L185.6 94.8599C185.682 94.9214 185.781 94.9562 185.883 94.9596C185.985 94.9631 186.086 94.9351 186.172 94.8793C186.258 94.8236 186.324 94.7428 186.363 94.6481C186.401 94.5534 186.408 94.4493 186.385 94.3499L181.04 72.4199L170.605 75.6941Z" fill="#ABB4EC"/>
<g opacity="0.3">
<path opacity="0.3" d="M159.577 72.4199L151.115 92.0073C151.075 92.0985 151.063 92.1999 151.081 92.2979C151.1 92.396 151.148 92.4862 151.219 92.5565C151.29 92.6269 151.38 92.6742 151.479 92.692C151.577 92.7099 151.679 92.6976 151.77 92.6567L158.293 89.7871C158.357 89.7578 158.427 89.7423 158.497 89.7417C158.568 89.7412 158.638 89.7555 158.702 89.7838C158.767 89.812 158.825 89.8536 158.872 89.9058C158.919 89.9579 158.954 90.0195 158.976 90.0863L161.178 96.6653C161.211 96.7621 161.274 96.8461 161.358 96.9055C161.442 96.9649 161.542 96.9968 161.645 96.9968C161.748 96.9968 161.848 96.9649 161.932 96.9055C162.016 96.8461 162.079 96.7621 162.113 96.6653L170.069 75.5377L159.577 72.4199Z" fill="#2D3259"/>
</g>
<g opacity="0.3">
<path opacity="0.3" d="M170.605 75.6941L174.657 96.6313C174.676 96.7292 174.724 96.819 174.795 96.8893C174.866 96.9595 174.956 97.0069 175.054 97.0253C175.153 97.0436 175.254 97.032 175.346 96.9921C175.438 96.9522 175.515 96.8857 175.568 96.8013L179.343 90.7799C179.38 90.7215 179.429 90.6712 179.486 90.6325C179.543 90.5937 179.608 90.5672 179.676 90.5548C179.744 90.5423 179.814 90.5441 179.881 90.56C179.949 90.576 180.012 90.6057 180.067 90.6473L185.6 94.8599C185.682 94.9214 185.781 94.9562 185.883 94.9596C185.985 94.9631 186.086 94.9351 186.172 94.8793C186.258 94.8236 186.324 94.7428 186.363 94.6481C186.401 94.5534 186.408 94.4493 186.385 94.3499L181.04 72.4199L170.605 75.6941Z" fill="#2D3259"/>
</g>
<path d="M171.015 38.1016L173.793 36.0684L175.978 38.7238L179.176 37.4454L180.627 40.5598L184.047 40.111L184.672 43.4872L188.095 43.8986L187.86 47.3258L191.072 48.5702L189.99 51.8308L192.788 53.8368L190.928 56.7268L193.14 59.3584L190.611 61.6976L192.099 64.795L189.068 66.4338L189.734 69.8032L186.388 70.6396L186.19 74.0668L182.743 74.0498L181.695 77.3206L178.36 76.4502L176.527 79.3572L173.517 77.6878L171.015 80.0508L168.516 77.6878L165.506 79.3572L163.673 76.4502L160.338 77.3206L159.29 74.0498L155.843 74.0668L155.645 70.6396L152.3 69.8032L152.965 66.4338L149.934 64.795L151.419 61.6976L148.893 59.3584L151.105 56.7268L149.245 53.8368L152.044 51.8308L150.958 48.5702L154.173 47.3258L153.938 43.8986L157.361 43.4872L157.986 40.111L161.406 40.5598L162.857 37.4454L166.055 38.7238L168.236 36.0684L171.015 38.1016Z" fill="#ABB4EC"/>
<path d="M182.057 69.0576C188.155 62.983 188.156 53.1341 182.057 47.0595C175.959 40.9849 166.071 40.9849 159.973 47.0595C153.874 53.1342 153.874 62.983 159.973 69.0576C166.071 75.1323 175.959 75.1322 182.057 69.0576Z" fill="white"/>
<path d="M174.421 54.3729L178.609 54.9849C178.765 55.0073 178.911 55.0726 179.03 55.1733C179.15 55.2741 179.239 55.4063 179.288 55.5549C179.336 55.7036 179.342 55.8628 179.304 56.0144C179.266 56.166 179.186 56.3041 179.074 56.4129L176.039 59.3539C175.941 59.4484 175.868 59.5653 175.826 59.6945C175.783 59.8237 175.774 59.9612 175.797 60.0951L176.51 64.2601C176.537 64.4138 176.519 64.5719 176.46 64.7163C176.401 64.8607 176.302 64.9858 176.176 65.0774C176.049 65.169 175.899 65.2234 175.743 65.2346C175.587 65.2458 175.43 65.2133 175.292 65.1407L171.537 63.1721C171.417 63.1084 171.283 63.0751 171.146 63.0751C171.01 63.0751 170.876 63.1084 170.755 63.1721L167.001 65.1305C166.862 65.2024 166.706 65.2343 166.55 65.2226C166.394 65.2108 166.244 65.1559 166.118 65.064C165.992 64.9721 165.893 64.8468 165.835 64.7024C165.776 64.5579 165.759 64.4 165.786 64.2465L166.506 60.0917C166.529 59.9581 166.519 59.8209 166.478 59.6918C166.436 59.5628 166.364 59.4456 166.267 59.3505L163.236 56.4027C163.123 56.2936 163.044 56.1553 163.006 56.0034C162.968 55.8516 162.974 55.6922 163.023 55.5435C163.071 55.3947 163.161 55.2626 163.281 55.162C163.402 55.0615 163.548 54.9966 163.703 54.9747L167.895 54.3729C168.03 54.3543 168.158 54.303 168.268 54.2236C168.378 54.1441 168.467 54.0389 168.527 53.9173L170.407 50.1365C170.477 49.9967 170.584 49.879 170.717 49.7968C170.85 49.7145 171.003 49.6709 171.16 49.6709C171.316 49.6709 171.47 49.7145 171.603 49.7968C171.736 49.879 171.843 49.9967 171.913 50.1365L173.78 53.9241C173.842 54.0454 173.933 54.1498 174.044 54.228C174.156 54.3063 174.286 54.356 174.421 54.3729Z" fill="#ABB4EC"/>
<path d="M231.683 70.4141C231.683 70.4141 227.615 87.0163 209.398 83.2117C209.398 83.2117 214.678 66.3987 231.683 70.4141Z" fill="#454E90"/>
<path d="M222.891 95.5572C222.891 95.5572 214.528 107.977 200.704 99.389C200.704 99.389 210.125 87.1591 222.891 95.5572Z" fill="#454E90"/>
<path d="M209.558 114.505C209.558 114.505 197.359 124.838 185.665 112.03C185.685 112.03 198.905 102.197 209.558 114.505Z" fill="#454E90"/>
<path d="M196.639 74.3345C196.639 74.3345 210.169 80.8115 203.602 95.6559C203.602 95.6559 190.123 88.1079 196.639 74.3345Z" fill="#454E90"/>
<path d="M193.703 92.2319C193.703 92.2319 200.451 101.307 190.392 109.103C190.392 109.103 184.074 99.3141 193.703 92.2319Z" fill="#454E90"/>
<path d="M225 51C225 51 226.553 64.4572 211.961 66.6128C211.968 66.6128 211.248 52.666 225 51Z" fill="#454E90"/>
<path d="M204.073 37.3999C204.073 37.3999 215.873 42.3095 210.749 56.0999C210.749 56.0727 198.922 50.1907 204.073 37.3999Z" fill="#454E90"/>
<path d="M196.949 57.0454C196.949 57.0454 212.576 58.8202 211.2 75.7624C211.2 75.7624 195.243 72.9132 196.949 57.0454Z" fill="#454E90"/>
<path d="M174.711 116.181C174.711 116.181 174.776 116.158 174.909 116.12L175.493 115.967C176.009 115.831 176.77 115.651 177.732 115.338C180.452 114.5 183.082 113.395 185.583 112.04C189.296 110.019 192.723 107.517 195.775 104.598C197.58 102.88 199.262 101.04 200.81 99.0895L201.984 97.5187L202.574 96.7265C202.766 96.4545 202.94 96.1723 203.127 95.8935L204.23 94.1935L205.254 92.4187C205.421 92.1195 205.595 91.8237 205.759 91.5279C205.923 91.2321 206.063 90.9159 206.213 90.6133C206.513 90.0047 206.817 89.4063 207.107 88.8011C207.398 88.1959 207.626 87.5771 207.886 86.9719C208.012 86.6693 208.148 86.3701 208.265 86.0675L208.606 85.1495L209.258 83.3407C209.439 82.7321 209.599 82.1269 209.794 81.5319C209.882 81.2327 209.971 80.9369 210.057 80.6411C210.142 80.3453 210.203 80.0461 210.278 79.7503L210.691 77.9959C211.583 73.8756 211.974 69.6633 211.855 65.4499C211.762 62.6109 211.445 59.7836 210.906 56.9941C210.691 56.0081 210.504 55.2499 210.391 54.7331C210.333 54.4781 210.289 54.2843 210.258 54.1449C210.227 54.0055 210.22 53.9443 210.22 53.9443C210.22 53.9443 210.241 54.0089 210.275 54.1415L210.425 54.7263C210.551 55.2397 210.767 55.9979 210.975 56.9805C212.399 63.9297 212.357 71.0978 210.852 78.0299C210.715 78.6079 210.578 79.195 210.439 79.7911C210.367 80.0869 210.309 80.3895 210.22 80.6853C210.132 80.9811 210.046 81.2803 209.958 81.5795L209.422 83.3917L208.77 85.2073C208.66 85.5133 208.551 85.8193 208.428 86.1287C208.305 86.4381 208.176 86.7339 208.046 87.0399L207.268 88.8759C206.978 89.4811 206.67 90.0829 206.374 90.6915L205.916 91.6095C205.749 91.9087 205.575 92.2045 205.408 92.5037L204.384 94.2853L203.274 95.9853C203.087 96.2641 202.912 96.5463 202.718 96.8183L202.124 97.6173L200.946 99.1915C199.398 101.15 197.714 102.998 195.905 104.72C192.84 107.643 189.396 110.143 185.665 112.156C183.147 113.503 180.498 114.594 177.76 115.41C176.794 115.712 176.026 115.882 175.507 116.005L174.92 116.144L174.711 116.181Z" fill="#454E90"/>
<path d="M192.239 99.5488C192.257 99.6751 192.257 99.8033 192.239 99.9296C192.218 100.171 192.181 100.525 192.13 100.95C192.024 101.817 191.843 103.01 191.587 104.319C191.331 105.628 191.044 106.804 190.816 107.644C190.7 108.066 190.604 108.406 190.529 108.64C190.499 108.764 190.455 108.884 190.396 108.997C190.404 108.871 190.426 108.746 190.461 108.623C190.525 108.348 190.604 108.011 190.693 107.603C190.891 106.757 191.157 105.58 191.413 104.275C191.669 102.969 191.867 101.783 192.003 100.922C192.068 100.521 192.126 100.181 192.171 99.9024C192.181 99.7826 192.204 99.6641 192.239 99.5488Z" fill="#737690"/>
<path d="M195.564 113.026C195.435 113.032 195.307 113.021 195.181 112.992L194.157 112.839C193.283 112.71 192.072 112.54 190.744 112.384C189.416 112.227 188.187 112.115 187.307 112.044L186.262 111.952C186.133 111.948 186.005 111.929 185.88 111.898C186.008 111.881 186.138 111.881 186.266 111.898C186.515 111.898 186.873 111.898 187.314 111.932C188.201 111.976 189.42 112.068 190.764 112.224C192.109 112.38 193.318 112.564 194.178 112.734C194.615 112.816 194.963 112.887 195.202 112.941C195.325 112.955 195.447 112.983 195.564 113.026Z" fill="#737690"/>
<path d="M212.009 96.5602C211.863 96.6113 211.712 96.6477 211.558 96.669L210.323 96.9104C209.278 97.1178 207.841 97.417 206.264 97.7944C204.687 98.1718 203.271 98.5662 202.247 98.8586L201.035 99.1986C200.89 99.2493 200.74 99.2857 200.588 99.3074C200.723 99.2317 200.866 99.1724 201.015 99.1306C201.294 99.0286 201.697 98.8926 202.213 98.7294C203.237 98.4064 204.64 97.995 206.22 97.6142C207.8 97.2334 209.248 96.9512 210.316 96.7778C210.842 96.6894 211.268 96.6282 211.565 96.5908C211.712 96.5657 211.86 96.5554 212.009 96.5602Z" fill="#737690"/>
<path d="M200.066 83.8271C200.171 83.9548 200.264 84.0926 200.342 84.2385C200.516 84.5105 200.745 84.9185 201.008 85.4183C202.377 88.0795 203.214 90.9801 203.472 93.9591C203.52 94.5269 203.54 94.9791 203.54 95.3191C203.556 95.4842 203.556 95.6505 203.54 95.8155C203.506 95.6533 203.488 95.4882 203.486 95.3225C203.469 95.0063 203.428 94.5473 203.363 93.9795C203.04 91.0275 202.211 88.1524 200.912 85.4795C200.663 84.9661 200.455 84.5581 200.301 84.2759C200.208 84.1342 200.13 83.984 200.066 83.8271Z" fill="#737690"/>
<path d="M218.191 76.0854C218.08 76.181 217.96 76.2653 217.832 76.3371L216.829 76.9864C215.989 77.544 214.849 78.3464 213.654 79.3052C212.46 80.264 211.436 81.216 210.715 81.9198L209.869 82.763C209.772 82.8723 209.665 82.9715 209.548 83.0588C209.626 82.9369 209.717 82.823 209.818 82.7188C210.002 82.5046 210.278 82.202 210.627 81.8382C211.541 80.89 212.515 79.9998 213.542 79.1726C214.566 78.345 215.641 77.5809 216.76 76.8845C217.194 76.6193 217.545 76.4153 217.784 76.2793C217.911 76.1984 218.048 76.1334 218.191 76.0854Z" fill="#737690"/>
<path d="M201.127 63.7944C201.174 63.8223 201.218 63.8554 201.257 63.893L201.598 64.199C201.895 64.4676 202.319 64.879 202.827 65.3652C203.851 66.3648 205.216 67.7894 206.636 69.4452C208.056 71.101 209.251 72.6752 210.08 73.838C210.493 74.4194 210.821 74.8954 211.04 75.2286L211.289 75.6162C211.343 75.708 211.371 75.7556 211.364 75.759C211.323 75.7233 211.287 75.6821 211.258 75.6366L210.982 75.2694L209.978 73.9094C209.125 72.767 207.93 71.2098 206.5 69.5574C205.07 67.905 203.735 66.4668 202.745 65.4468L201.551 64.2602L201.23 63.9202C201.158 63.842 201.124 63.8012 201.127 63.7944Z" fill="#737690"/>
<path d="M219.948 55.3726C219.847 55.5225 219.733 55.6635 219.607 55.7942L218.658 56.9094C217.863 57.8546 216.794 59.184 215.695 60.714C214.596 62.244 213.682 63.6822 213.04 64.7396L212.309 65.9908C212.226 66.1498 212.129 66.3011 212.019 66.443C212.083 66.2753 212.159 66.1128 212.248 65.9568C212.405 65.6508 212.647 65.2122 212.954 64.675C213.569 63.6006 214.473 62.1488 215.576 60.612C216.678 59.0752 217.767 57.7526 218.586 56.8278C218.996 56.362 219.337 55.9948 219.58 55.7466C219.692 55.6118 219.815 55.4867 219.948 55.3726Z" fill="#737690"/>
<path d="M205.824 42.5952C205.917 42.7549 205.999 42.9208 206.07 43.0916C206.217 43.4112 206.411 43.8804 206.671 44.4516C207.165 45.6144 207.821 47.2396 208.493 49.0518C209.166 50.864 209.729 52.5198 210.115 53.7268C210.309 54.3286 210.456 54.8182 210.558 55.1582C210.618 55.3323 210.664 55.5108 210.695 55.692C210.611 55.5275 210.542 55.3557 210.49 55.1786L209.995 53.7642C209.582 52.5708 208.998 50.9218 208.326 49.113C207.654 47.3042 207.019 45.6756 206.554 44.4992C206.329 43.9314 206.145 43.4792 206.005 43.1018C205.928 42.9394 205.867 42.7697 205.824 42.5952Z" fill="#737690"/>
<path d="M27.3067 66.7184C27.3067 66.7184 31.1535 82.406 48.3669 78.8122C48.3567 78.8122 43.3664 62.924 27.3067 66.7184Z" fill="#454E90"/>
<path d="M35.6147 90.4775C35.6147 90.4775 43.5166 102.214 56.5726 94.0985C56.5726 94.0985 47.6706 82.5419 35.6147 90.4775Z" fill="#454E90"/>
<path d="M48.2031 108.382C48.2031 108.382 59.7333 118.15 70.7755 106.046C70.7755 106.046 58.2724 96.7507 48.2031 108.382Z" fill="#454E90"/>
<path d="M60.416 70.4243C60.416 70.4243 47.6297 76.5443 53.8351 90.5693C53.8317 90.5693 66.5839 83.4395 60.416 70.4243Z" fill="#454E90"/>
<path d="M63.1876 87.3359C63.1876 87.3359 56.8115 95.9107 66.3142 103.279C66.3142 103.279 72.2876 94.0305 63.1876 87.3359Z" fill="#454E90"/>
<path d="M33.6145 48.3721C33.6145 48.3721 32.1468 61.0881 45.9366 63.1247C45.9366 63.1247 46.6057 49.9463 33.6145 48.3721Z" fill="#454E90"/>
<path d="M53.3914 35.5029C53.3914 35.5029 42.2366 40.1439 47.0801 53.1829C47.0801 53.1659 58.2554 47.6001 53.3914 35.5029Z" fill="#454E90"/>
<path d="M60.1224 54.084C60.1224 54.084 45.353 55.7636 46.6534 71.764C46.6534 71.7708 61.7369 69.0814 60.1224 54.084Z" fill="#454E90"/>
<path d="M84.3742 111.054L84.1728 111.017L83.5891 110.888C83.0771 110.769 82.3194 110.609 81.3602 110.327C78.6428 109.573 75.9965 108.584 73.4515 107.372C71.6893 106.542 69.9795 105.607 68.3315 104.57C66.4348 103.39 64.6245 102.076 62.9146 100.64C61.0191 99.0578 59.2492 97.3323 57.6205 95.4787L56.378 93.9861C55.9753 93.4727 55.593 92.9389 55.1936 92.4119C54.9956 92.1467 54.7977 91.8781 54.5963 91.6129L54.0467 90.7799C53.6849 90.2155 53.2992 89.6579 52.9476 89.0799C52.265 87.8967 51.5823 86.7475 51.0191 85.5439C50.4047 84.3709 49.92 83.1639 49.4148 81.9807C45.8528 73.1596 44.9582 63.4933 46.8412 54.1721C47.046 53.1997 47.2542 52.4551 47.3737 51.9451C47.4385 51.6969 47.4863 51.5031 47.5204 51.3671C47.5546 51.2311 47.5785 51.1733 47.5785 51.1733C47.5785 51.1733 47.5785 51.2413 47.5375 51.3739C47.4965 51.5065 47.4658 51.7139 47.4078 51.9519C47.2986 52.4653 47.1006 53.2133 46.906 54.1857C46.3852 56.9408 46.0895 59.7334 46.022 62.5361C45.9238 69.1657 47.1322 75.75 49.5787 81.9161C50.0804 83.0891 50.5651 84.2961 51.1795 85.4657C51.7359 86.6625 52.4322 87.8083 53.0978 88.9881C53.4392 89.5661 53.8317 90.1203 54.1935 90.6881L54.7431 91.5245L55.337 92.3201C55.7329 92.8471 56.1152 93.3809 56.5146 93.8909L57.7536 95.3767C60.8491 98.8992 64.4382 101.959 68.41 104.462C72.4372 106.997 76.8039 108.954 81.3807 110.272C82.333 110.565 83.0874 110.735 83.5994 110.864L84.1762 111.013L84.3742 111.054Z" fill="#454E90"/>
<path d="M64.57 94.248C64.6074 94.3585 64.6337 94.4724 64.6485 94.588C64.6929 94.8532 64.7441 95.1728 64.8056 95.5502C64.9353 96.3628 65.1264 97.4848 65.3653 98.719C65.6043 99.9532 65.8569 101.062 66.048 101.864C66.1333 102.235 66.205 102.544 66.2665 102.816C66.3002 102.926 66.3197 103.041 66.3245 103.156C66.2693 103.048 66.2269 102.934 66.1982 102.816C66.1299 102.598 66.0344 102.275 65.9251 101.878C65.7067 101.082 65.4404 99.9736 65.1947 98.736C64.9489 97.4984 64.7851 96.356 64.6861 95.5502C64.6349 95.1422 64.6008 94.809 64.5837 94.5778C64.5661 94.4688 64.5615 94.3581 64.57 94.248Z" fill="#737690"/>
<path d="M61.44 106.985C61.55 106.94 61.6644 106.907 61.7813 106.886C62.0066 106.835 62.3411 106.767 62.7507 106.689C63.5733 106.536 64.7168 106.349 65.9866 106.206C67.2563 106.063 68.41 105.972 69.2463 105.934C69.6661 105.914 70.0041 105.9 70.2362 105.9C70.3574 105.884 70.4802 105.884 70.6014 105.9C70.4844 105.932 70.3641 105.949 70.243 105.951L69.2565 106.04C68.4237 106.111 67.2734 106.22 66.007 106.38C64.7407 106.539 63.6177 106.689 62.7712 106.811L61.7916 106.951C61.6764 106.977 61.5582 106.989 61.44 106.985Z" fill="#737690"/>
<path d="M45.8889 91.4196C46.0355 91.4145 46.1822 91.427 46.3258 91.457C46.6057 91.491 47.0084 91.5488 47.5034 91.6304C48.5001 91.7936 49.8654 92.0588 51.3604 92.4192C52.8555 92.7796 54.1901 93.1672 55.1492 93.4766C55.6271 93.6296 56.0128 93.7622 56.279 93.8574C56.4187 93.8988 56.5537 93.9547 56.6818 94.024C56.536 94.007 56.3928 93.9727 56.2551 93.922L55.1117 93.582C54.1457 93.3066 52.8077 92.9394 51.3161 92.579C49.8244 92.2186 48.4693 91.9364 47.4829 91.7392L46.3155 91.5114C46.1708 91.494 46.0279 91.4632 45.8889 91.4196Z" fill="#737690"/>
<path d="M57.1767 79.3936C57.1215 79.54 57.053 79.6812 56.9719 79.8152C56.8286 80.0804 56.6306 80.468 56.3951 80.9542C55.7849 82.2142 55.2825 83.5233 54.8932 84.8676C54.508 86.213 54.2352 87.5879 54.0774 88.9782C54.0194 89.512 53.9784 89.9471 53.9614 90.2463C53.9591 90.4031 53.9408 90.5591 53.9068 90.7121C53.8873 90.5565 53.8816 90.3995 53.8897 90.243C53.8897 89.9404 53.9068 89.5052 53.9511 88.968C54.0742 87.5627 54.3325 86.1726 54.7226 84.8166C55.1132 83.4624 55.6357 82.1494 56.2824 80.8964C56.5316 80.417 56.7466 80.0362 56.9105 79.7812C56.9844 79.6424 57.0737 79.5124 57.1767 79.3936Z" fill="#737690"/>
<path d="M40.0486 72.0801C40.1785 72.1275 40.3031 72.1879 40.4207 72.2603C40.6562 72.3861 40.9907 72.5799 41.4003 72.8315C42.4586 73.4885 43.4754 74.2095 44.445 74.9905C45.4134 75.7729 46.3322 76.6143 47.1962 77.5099C47.5375 77.8499 47.7867 78.1389 47.9608 78.3429C48.0573 78.4474 48.1431 78.5613 48.2168 78.6829C48.1037 78.601 48.0006 78.5063 47.9096 78.4007L47.104 77.5949C46.4213 76.9149 45.4588 76.0377 44.329 75.1231C43.1992 74.2085 42.1205 73.4571 41.3286 72.9335L40.3832 72.3147C40.2628 72.2499 40.1505 72.1711 40.0486 72.0801Z" fill="#737690"/>
<path d="M56.1732 60.4624C56.051 60.616 55.9175 60.7603 55.7739 60.8942L54.6509 62.0332C53.7122 62.9954 52.4356 64.3554 51.0976 65.916C49.7596 67.4766 48.6195 68.9488 47.8106 70.03L46.8617 71.3118C46.7529 71.4737 46.6319 71.6271 46.4998 71.7708C46.5881 71.5967 46.6897 71.4296 46.8036 71.271C47.0084 70.9548 47.3191 70.5026 47.7082 69.9552C48.4932 68.8536 49.6231 67.3678 50.9645 65.8004C52.3059 64.233 53.5893 62.9002 54.5622 61.9448C55.0468 61.4722 55.4428 61.0948 55.7261 60.8432C55.8657 60.7057 56.0152 60.5784 56.1732 60.4624Z" fill="#737690"/>
<path d="M38.3864 52.5029C38.5188 52.6056 38.6421 52.7193 38.755 52.8429C38.9837 53.0775 39.3045 53.4243 39.6902 53.8629C40.7003 55.0127 41.6504 56.2134 42.537 57.4601C43.561 58.9119 44.4348 60.2855 45.015 61.2987C45.3052 61.8053 45.5305 62.2201 45.6977 62.5125C45.784 62.6595 45.856 62.8143 45.9127 62.9749C45.8093 62.8397 45.7168 62.6964 45.6363 62.5465L44.9229 61.3633C44.3153 60.3671 43.4483 59.0105 42.4107 57.5621C41.373 56.1137 40.3627 54.8591 39.6117 53.9649C39.2704 53.5365 38.953 53.1829 38.7209 52.9109C38.5952 52.7871 38.4831 52.6503 38.3864 52.5029Z" fill="#737690"/>
<path d="M51.7393 40.4297C51.6963 40.5985 51.6392 40.7634 51.5686 40.9227C51.4355 41.2627 51.2614 41.7081 51.0498 42.2419C50.6129 43.3537 50.0258 44.8939 49.3773 46.6041C48.7287 48.3143 48.1894 49.8715 47.7867 51.0003C47.5955 51.5409 47.4453 51.9897 47.319 52.3365C47.2702 52.5034 47.205 52.6651 47.1245 52.8193C47.1524 52.6483 47.1947 52.48 47.2508 52.3161C47.3429 51.9761 47.4863 51.5307 47.6672 50.9561C48.0324 49.8171 48.5615 48.2361 49.1998 46.5361C49.8381 44.8361 50.4559 43.2925 50.9235 42.1909C51.159 41.6401 51.3536 41.1981 51.4935 40.8921C51.5607 40.7306 51.643 40.5758 51.7393 40.4297Z" fill="#737690"/>
</svg>
