<svg width="88" height="74" viewBox="0 0 88 74" fill="none" xmlns="http://www.w3.org/2000/svg">
<path d="M27.0809 13.5261H19.0916V10.7014C19.0916 8.70956 20.7009 7.02441 22.6865 7.02441L27.0809 7.09371V13.5261Z" fill="#CDF1FF"/>
<path d="M22.5144 7.02004C22.5144 7.02004 27.0617 6.60576 27.0617 12.5546V58.826H62.7461V10.8724C62.7459 10.3556 62.6441 9.84383 62.4466 9.36646C62.2491 8.8891 61.9597 8.45549 61.5949 8.09043C61.2302 7.72537 60.7973 7.43602 60.321 7.23895C59.8446 7.04187 59.3343 6.94093 58.819 6.9419L22.5144 7.02004Z" fill="white"/>
<path d="M22.5145 7.01981L48.9148 6.9343L55.308 6.91661L58.7074 6.90629C59.3029 6.88988 59.8945 7.00819 60.4382 7.25244C60.9819 7.49669 61.4638 7.86061 61.8482 8.3172C62.2414 8.78723 62.5206 9.34236 62.6638 9.93895C62.7015 10.0888 62.7295 10.241 62.7476 10.3945C62.7682 10.5419 62.7667 10.7026 62.777 10.8574C62.777 11.1651 62.777 11.4747 62.777 11.7863C62.777 13.0276 62.777 14.2892 62.777 15.5708C62.777 18.1312 62.777 20.7648 62.777 23.4717C62.777 34.2843 62.777 46.1761 62.777 58.6488V58.8641H62.7388H27.0544H27.0191V58.8287C27.0191 42.8088 27.0294 29.2053 27.0338 19.6119C27.0338 17.2117 27.0338 15.0622 27.0338 13.1883C27.0338 12.7195 27.0338 12.2684 27.0073 11.8364C26.9816 11.4218 26.9246 11.0098 26.8369 10.6039C26.7524 10.234 26.6354 9.8723 26.4871 9.52319C26.3475 9.2114 26.1761 8.91495 25.9756 8.6386C25.6323 8.17902 25.1922 7.80099 24.6867 7.53139C24.3173 7.33543 23.9211 7.19533 23.5109 7.11564C23.2621 7.0649 23.0093 7.03629 22.7555 7.03013C22.585 7.03013 22.4968 7.03013 22.4968 7.03013C22.583 7.02497 22.6693 7.02497 22.7555 7.03013C23.0101 7.03438 23.2639 7.06102 23.5139 7.10974C23.9239 7.18842 24.3201 7.32753 24.6896 7.52255C25.1986 7.79125 25.6419 8.16991 25.9874 8.63123C26.1896 8.90749 26.363 9.20392 26.5047 9.51582C26.6545 9.86632 26.773 10.2294 26.8589 10.6009C26.9478 11.0083 27.0057 11.4218 27.0323 11.8379C27.0647 12.2713 27.0603 12.7225 27.0603 13.1913C27.0603 15.0651 27.0603 17.2147 27.0603 19.6149C27.0603 29.2141 27.0676 42.8176 27.0735 58.8316L27.0382 58.7977H62.7226L62.6844 58.8361V58.6592C62.6844 46.182 62.6844 34.2946 62.6844 23.482C62.6844 20.7781 62.6844 18.1445 62.6844 15.5812V11.7863C62.6756 11.1656 62.73 10.5434 62.5742 9.95369C62.4401 9.37208 62.1752 8.82894 61.7997 8.36586C61.4224 7.91638 60.949 7.55797 60.4147 7.31727C59.8803 7.07658 59.2988 6.95979 58.7133 6.97558H55.3065L48.903 6.9859L22.5145 7.01981Z" fill="#0E1339"/>
<path d="M42.3363 21.0629C42.3363 21.0836 40.1655 21.1014 37.4863 21.1014C34.807 21.1014 32.6362 21.0836 32.6362 21.0629C32.6362 21.0422 34.8055 21.0244 37.4863 21.0244C40.167 21.0244 42.3363 21.0451 42.3363 21.0629Z" fill="#0E1339"/>
<path d="M44.5087 22.2245C44.5087 22.2467 41.853 22.263 38.5755 22.263C35.2981 22.263 32.6438 22.2467 32.6438 22.2245C32.6438 22.2023 35.2996 22.186 38.5755 22.186C41.8515 22.186 44.5087 22.2038 44.5087 22.2245Z" fill="#0E1339"/>
<path d="M45.2876 26.8022C45.2876 26.8229 42.5451 26.8406 39.1619 26.8406C35.7786 26.8406 33.0361 26.8229 33.0361 26.8022C33.0361 26.7814 35.7786 26.7637 39.1619 26.7637C42.5451 26.7637 45.2876 26.78 45.2876 26.8022Z" fill="#0E1339"/>
<path d="M53.2901 31.2636C53.2901 31.2843 48.7047 31.302 43.0492 31.302C37.3938 31.302 32.8083 31.2843 32.8083 31.2636C32.8083 31.2429 37.3924 31.2251 43.0492 31.2251C48.7061 31.2251 53.2901 31.2414 53.2901 31.2636Z" fill="#0E1339"/>
<path d="M53.2901 32.5937C53.2901 32.6159 48.7047 32.6321 43.0492 32.6321C37.3938 32.6321 32.8083 32.6159 32.8083 32.5937C32.8083 32.5715 37.3924 32.5552 43.0492 32.5552C48.7061 32.5552 53.2901 32.5729 53.2901 32.5937Z" fill="#0E1339"/>
<path d="M53.2901 33.9247C53.2901 33.9469 48.7047 33.9632 43.0492 33.9632C37.3938 33.9632 32.8083 33.9469 32.8083 33.9247C32.8083 33.9025 37.3924 33.8862 43.0492 33.8862C48.7061 33.8862 53.2901 33.904 53.2901 33.9247Z" fill="#0E1339"/>
<path d="M53.2901 35.2563C53.2901 35.277 48.7047 35.2947 43.0492 35.2947C37.3938 35.2947 32.8083 35.277 32.8083 35.2563C32.8083 35.2355 37.3924 35.2178 43.0492 35.2178C48.7061 35.2178 53.2901 35.2355 53.2901 35.2563Z" fill="#0E1339"/>
<path d="M53.2901 36.5873C53.2901 36.608 48.7047 36.6258 43.0492 36.6258C37.3938 36.6258 32.8083 36.608 32.8083 36.5873C32.8083 36.5666 37.3924 36.5488 43.0492 36.5488C48.7061 36.5488 53.2901 36.5651 53.2901 36.5873Z" fill="#0E1339"/>
<path d="M40.5757 37.9189C40.5757 37.9396 38.8356 37.9573 36.6913 37.9573C34.547 37.9573 32.8083 37.9396 32.8083 37.9189C32.8083 37.8981 34.547 37.8804 36.6913 37.8804C38.8356 37.8804 40.5757 37.8967 40.5757 37.9189Z" fill="#0E1339"/>
<path d="M36.0386 14.1866C36.0375 14.0724 36.06 13.9593 36.1046 13.8543C36.1492 13.7493 36.215 13.6548 36.2978 13.5765C36.3807 13.4983 36.4787 13.4381 36.5859 13.3997C36.693 13.3613 36.8069 13.3456 36.9204 13.3536C37.0497 13.3466 37.1789 13.3695 37.2979 13.4207C37.4169 13.4718 37.5226 13.5497 37.6068 13.6484L37.3202 13.9094C37.2761 13.8512 37.2192 13.8041 37.1539 13.7716C37.0886 13.7391 37.0168 13.7222 36.9439 13.7221C36.8231 13.7221 36.7072 13.7703 36.6218 13.856C36.5363 13.9417 36.4883 14.058 36.4883 14.1792C36.4883 14.3004 36.5363 14.4166 36.6218 14.5024C36.7072 14.5881 36.8231 14.6362 36.9439 14.6362C37.0168 14.6362 37.0886 14.6192 37.1539 14.5868C37.2192 14.5543 37.2761 14.5071 37.3202 14.449L37.6068 14.7085C37.5233 14.8085 37.418 14.8878 37.2989 14.9402C37.1798 14.9927 37.0503 15.0168 36.9204 15.0107C36.8077 15.0186 36.6945 15.0031 36.588 14.9653C36.4814 14.9275 36.3838 14.868 36.3011 14.7908C36.2184 14.7135 36.1524 14.62 36.1073 14.516C36.0621 14.4121 36.0387 14.2999 36.0386 14.1866Z" fill="#0E1339"/>
<path d="M39.0824 14.636V14.9854H37.8022V13.3857H39.053V13.7352H38.2476V14.005H38.9574V14.344H38.2476V14.6389L39.0824 14.636Z" fill="#0E1339"/>
<path d="M40.0304 14.5578H39.7849V14.9824H39.3337V13.3857H40.0686C40.5095 13.3857 40.777 13.6113 40.777 13.9755C40.7809 14.0812 40.7532 14.1858 40.6974 14.2756C40.6416 14.3655 40.5603 14.4365 40.4639 14.4797L40.8093 14.9824H40.3258L40.0304 14.5578ZM40.0304 13.7396H39.7805V14.2084H40.0304C40.217 14.2084 40.3111 14.1214 40.3111 13.9755C40.3111 13.8295 40.2214 13.7425 40.0348 13.7425L40.0304 13.7396Z" fill="#0E1339"/>
<path d="M41.3356 13.744H40.8462V13.3857H42.2747V13.744H41.7868V14.9854H41.3356V13.744Z" fill="#0E1339"/>
<path d="M42.4436 13.3857H42.8939V14.9854H42.4436V13.3857Z" fill="#0E1339"/>
<path d="M43.668 13.7352V14.0875H44.372V14.4369H43.668V14.9854H43.2168V13.3857H44.4675V13.7352H43.668Z" fill="#0E1339"/>
<path d="M44.6792 13.3857H45.1295V14.9854H44.6792V13.3857Z" fill="#0E1339"/>
<path d="M45.3699 14.1865C45.369 14.0724 45.3916 13.9594 45.4363 13.8545C45.481 13.7496 45.5468 13.6551 45.6296 13.5769C45.7124 13.4987 45.8104 13.4385 45.9174 13.4001C46.0245 13.3616 46.1383 13.3457 46.2517 13.3535C46.3808 13.3465 46.5097 13.3695 46.6285 13.4206C46.7473 13.4717 46.8527 13.5497 46.9366 13.6483L46.65 13.9093C46.606 13.851 46.5491 13.8038 46.4838 13.7713C46.4185 13.7389 46.3466 13.722 46.2738 13.722C46.1529 13.722 46.037 13.7702 45.9516 13.8559C45.8661 13.9416 45.8181 14.0579 45.8181 14.1791C45.8181 14.3003 45.8661 14.4165 45.9516 14.5023C46.037 14.588 46.1529 14.6361 46.2738 14.6361C46.3466 14.6362 46.4185 14.6193 46.4838 14.5868C46.5491 14.5543 46.606 14.5071 46.65 14.4489L46.9366 14.7084C46.8534 14.8084 46.7483 14.8877 46.6295 14.9401C46.5107 14.9926 46.3814 15.0167 46.2517 15.0106C45.7417 15.018 45.3699 14.673 45.3699 14.1865Z" fill="#0E1339"/>
<path d="M48.1741 14.6743H47.501L47.3746 14.9854H46.9146L47.6185 13.3857H48.0594L48.7649 14.9854H48.296L48.1741 14.6743ZM48.0433 14.3411L47.8375 13.8295L47.6318 14.3411H48.0433Z" fill="#0E1339"/>
<path d="M49.1574 13.744H48.668V13.3857H50.0965V13.744H49.6085V14.9854H49.1574V13.744Z" fill="#0E1339"/>
<path d="M50.2639 13.3857H50.7142V14.9854H50.2639V13.3857Z" fill="#0E1339"/>
<path d="M50.9548 14.1865C50.9548 13.7059 51.3311 13.3535 51.8367 13.3535C52.3422 13.3535 52.7185 13.7059 52.7185 14.1865C52.7185 14.6671 52.3422 15.018 51.8367 15.018C51.3311 15.018 50.9548 14.6657 50.9548 14.1865ZM52.2776 14.1865C52.2727 14.1023 52.2433 14.0214 52.1932 13.9537C52.143 13.8861 52.0741 13.8346 51.9952 13.8057C51.9162 13.7768 51.8305 13.7718 51.7487 13.7912C51.6668 13.8106 51.5925 13.8536 51.5347 13.9148C51.477 13.9761 51.4384 14.053 51.4237 14.1361C51.409 14.2191 51.4188 14.3047 51.452 14.3821C51.4852 14.4596 51.5403 14.5257 51.6105 14.5721C51.6807 14.6186 51.7629 14.6434 51.8469 14.6435C51.9054 14.6435 51.9631 14.6314 52.0167 14.608C52.0702 14.5846 52.1184 14.5504 52.1582 14.5075C52.1981 14.4647 52.2287 14.4141 52.2482 14.3588C52.2677 14.3036 52.2757 14.245 52.2717 14.1865H52.2776Z" fill="#0E1339"/>
<path d="M54.482 13.3857V14.9854H54.1102L53.4062 14.1332V14.9854H52.9653V13.3857H53.3357L54.0397 14.2379V13.3857H54.482Z" fill="#0E1339"/>
<path d="M56.2898 43.5375C56.2898 43.5582 54.2557 43.576 51.7484 43.576C49.2411 43.576 47.2056 43.5582 47.2056 43.5375C47.2056 43.5168 49.2396 43.499 51.7484 43.499C54.2572 43.499 56.2898 43.5168 56.2898 43.5375Z" fill="#0E1339"/>
<path d="M56.2898 44.8227C56.2898 44.8434 54.2557 44.8612 51.7484 44.8612C49.2411 44.8612 47.2056 44.8434 47.2056 44.8227C47.2056 44.802 49.2352 44.7812 51.7499 44.7812C54.2645 44.7812 56.2898 44.802 56.2898 44.8227Z" fill="#0E1339"/>
<path d="M55.6872 50.409C55.6851 50.3874 55.6851 50.3657 55.6872 50.3441C55.6872 50.2984 55.6799 50.2365 55.674 50.1569C55.674 50.1156 55.6711 50.0699 55.6652 50.0198C55.6652 49.9682 55.649 49.9136 55.6402 49.8546C55.622 49.7172 55.594 49.5812 55.5564 49.4477C55.4637 49.0787 55.315 48.7261 55.1155 48.4024C54.6492 47.6199 53.9254 47.0249 53.0688 46.72C52.2123 46.4151 51.2765 46.4194 50.4228 46.732C50.2484 46.7951 50.0785 46.8699 49.9142 46.9561C49.7479 47.048 49.5878 47.151 49.4351 47.2643C49.2801 47.3803 49.1328 47.5064 48.9942 47.6417C48.8571 47.7845 48.7295 47.9362 48.6121 48.0958C48.3695 48.4224 48.1814 48.7864 48.0551 49.1735C47.7866 49.9746 47.7866 50.8419 48.0551 51.643C48.1814 52.0301 48.3695 52.3941 48.6121 52.7207C48.7295 52.8803 48.8571 53.0319 48.9942 53.1748C49.1328 53.3101 49.2801 53.4362 49.4351 53.5522C49.7351 53.7799 50.0682 53.96 50.4228 54.0859C51.0774 54.3242 51.7835 54.3837 52.4686 54.2584C53.0144 54.156 53.5325 53.9387 53.9885 53.6208C54.4445 53.3029 54.8281 52.8916 55.1141 52.4141C55.3136 52.0903 55.4623 51.7378 55.555 51.3688C55.5927 51.2353 55.6207 51.0993 55.6387 50.9619C55.6476 50.9029 55.6578 50.8483 55.6637 50.7982C55.6696 50.7481 55.6637 50.7009 55.6725 50.6596C55.6725 50.58 55.6828 50.5122 55.6858 50.4724C55.6835 50.4513 55.6835 50.4301 55.6858 50.409C55.6877 50.4301 55.6877 50.4513 55.6858 50.4724V50.6611C55.6858 50.7024 55.6858 50.7496 55.6858 50.7997C55.6858 50.8498 55.6725 50.9058 55.6637 50.9663C55.6489 51.1047 55.6234 51.2417 55.5873 51.3761C55.4994 51.7495 55.3547 52.1071 55.1581 52.4362C54.6904 53.234 53.959 53.8424 53.0908 54.1559C52.2226 54.4693 51.2725 54.468 50.4051 54.1523C50.2272 54.0886 50.0539 54.0127 49.8863 53.9252C49.7163 53.8326 49.5532 53.7276 49.3984 53.6112C49.2391 53.4937 49.0879 53.3657 48.9457 53.2279C48.8058 53.0824 48.6757 52.9277 48.5562 52.7649C48.3086 52.4321 48.1165 52.0612 47.9875 51.6666C47.7132 50.8503 47.7132 49.9662 47.9875 49.1499C48.1168 48.7554 48.3089 48.3845 48.5562 48.0515C48.6758 47.8889 48.8064 47.7347 48.9472 47.5901C49.0889 47.4519 49.2396 47.3234 49.3984 47.2053C49.8442 46.875 50.3543 46.6424 50.8954 46.5226C51.4366 46.4027 51.9969 46.3982 52.5399 46.5094C53.0829 46.6206 53.5966 46.845 54.0476 47.1681C54.4987 47.4911 54.877 47.9056 55.1581 48.3847C55.3544 48.714 55.4992 49.0715 55.5873 49.4448C55.6235 49.5797 55.649 49.7172 55.6637 49.8561C55.6725 49.9166 55.6814 49.9711 55.6858 50.0212C55.6902 50.0714 55.6858 50.1185 55.6858 50.1613V50.3485C55.688 50.3686 55.6884 50.3888 55.6872 50.409Z" fill="#00ACE9"/>
<path d="M54.2089 50.9937C54.5323 49.6296 53.6922 48.2608 52.3324 47.9364C50.9726 47.6119 49.6081 48.4547 49.2846 49.8187C48.9612 51.1828 49.8013 52.5516 51.1611 52.8761C52.5209 53.2005 53.8854 52.3578 54.2089 50.9937Z" fill="#00ACE9"/>
<path d="M57.3773 48.2227L57.2715 48.2816L56.9555 48.4497L55.74 49.0851L53.8191 50.0891C53.6238 50.1912 53.4126 50.259 53.1945 50.2896C53.0758 50.3046 52.9552 50.2942 52.8407 50.2591C52.7262 50.2241 52.6204 50.1651 52.5302 50.0862C52.4344 50.003 52.3662 49.8924 52.3347 49.7692C52.3168 49.7049 52.315 49.6372 52.3297 49.5721C52.3443 49.507 52.3748 49.4465 52.4185 49.3962C52.5102 49.2956 52.6371 49.2343 52.7727 49.2252C52.8437 49.2155 52.916 49.2293 52.9785 49.2644C53.0411 49.2995 53.0906 49.354 53.1196 49.4198V49.4301C53.1233 49.8558 52.9723 50.2683 52.6948 50.5904C52.5498 50.7645 52.3705 50.9068 52.1682 51.0082C51.9659 51.1097 51.7449 51.1682 51.5191 51.1801C51.2808 51.193 51.0424 51.1577 50.8179 51.0764C50.5935 50.9951 50.3876 50.8695 50.2125 50.7069C50.0231 50.5404 49.8913 50.3179 49.8362 50.0715C49.8108 49.9416 49.8284 49.807 49.8862 49.6881C49.9449 49.5664 50.0465 49.4708 50.1713 49.4198C50.236 49.3949 50.3059 49.3868 50.3745 49.3964C50.4432 49.4059 50.5083 49.4327 50.5637 49.4743C50.6696 49.5591 50.7471 49.6744 50.7857 49.8046C50.8275 49.9305 50.8479 50.0626 50.8459 50.1953C50.8518 50.261 50.8518 50.3271 50.8459 50.3929C50.8428 50.4593 50.8344 50.5253 50.8209 50.5904C50.7175 51.1266 50.4267 51.6081 50.0008 51.9483C49.7862 52.1267 49.5367 52.2582 49.2684 52.3343C49.0002 52.4105 48.719 52.4296 48.443 52.3905C47.8741 52.2949 47.3637 51.9834 47.0174 51.5207C46.8152 51.2613 46.6754 50.9586 46.6088 50.6361C46.5367 50.3157 46.5617 49.9809 46.6808 49.6749C46.7454 49.5217 46.8552 49.3921 46.9953 49.3033C47.1375 49.2152 47.3071 49.1832 47.4715 49.2134C47.552 49.2318 47.6274 49.2677 47.6924 49.3187C47.7574 49.3697 47.8105 49.4344 47.8477 49.5083C47.9194 49.6479 47.9718 49.7967 48.0035 49.9506C48.1415 50.5466 48.1037 51.17 47.8948 51.7448C47.697 52.2983 47.3156 52.7667 46.8145 53.0717C46.3378 53.3633 45.7774 53.4863 45.2228 53.4211C44.9582 53.3888 44.7022 53.3057 44.4689 53.1764C44.2431 53.0487 44.0436 52.8791 43.881 52.6766C43.567 52.2958 43.395 51.8173 43.3945 51.3231C43.3993 51.0906 43.4492 50.8613 43.5415 50.6479C43.5811 50.5423 43.642 50.446 43.7204 50.3651C43.7988 50.2841 43.893 50.2203 43.9971 50.1776C44.103 50.1445 44.2159 50.1415 44.3234 50.1688C44.4243 50.202 44.5163 50.258 44.5923 50.3324C44.7341 50.4758 44.8403 50.6505 44.9024 50.8425C44.9662 51.0199 44.9995 51.2068 45.0009 51.3954C45.0009 51.4868 45.0009 51.5753 45.0009 51.6637C45.0009 51.7522 44.9936 51.8377 44.9847 51.9217C44.9296 52.5009 44.7613 53.0635 44.4895 53.5774C44.3186 53.9013 44.1072 54.2021 43.8604 54.4723C43.7767 54.5652 43.7061 54.63 43.6591 54.6743C43.612 54.7185 43.5871 54.7391 43.5871 54.7391C43.5871 54.7391 43.6091 54.7141 43.6547 54.6684C43.7002 54.6227 43.7664 54.5563 43.8487 54.462C44.0887 54.1886 44.295 53.8871 44.463 53.5641C44.7274 53.0519 44.8901 52.4932 44.9421 51.9188C44.9509 51.8347 44.9554 51.7492 44.9568 51.6622C44.9583 51.5753 44.9568 51.4868 44.9568 51.3969C44.9542 51.2132 44.9209 51.0313 44.8584 50.8587C44.7994 50.6754 44.6988 50.5083 44.5644 50.3707C44.494 50.3031 44.409 50.2526 44.316 50.2233C44.2191 50.199 44.1174 50.202 44.0221 50.2322C43.9253 50.2729 43.8379 50.3332 43.7654 50.4093C43.6928 50.4854 43.6366 50.5757 43.6003 50.6744C43.5146 50.8811 43.4692 51.1023 43.4665 51.3261C43.4695 51.806 43.6377 52.27 43.9427 52.6397C44.1014 52.8389 44.2978 53.0047 44.5205 53.1276C44.7431 53.2506 44.9878 53.3283 45.2405 53.3562C45.7799 53.4184 46.3246 53.298 46.7881 53.0142C47.2756 52.716 47.6457 52.2583 47.836 51.7183C48.0397 51.157 48.076 50.5484 47.9403 49.9668C47.9109 49.8196 47.8615 49.6773 47.7934 49.5436C47.7614 49.4785 47.7154 49.4214 47.6587 49.3763C47.602 49.3311 47.5361 49.2992 47.4656 49.2827C47.3201 49.2562 47.1701 49.2857 47.0453 49.3653C46.9174 49.4447 46.818 49.563 46.7616 49.7029C46.648 49.9938 46.6244 50.3124 46.694 50.6169C46.7585 50.9282 46.8938 51.2204 47.0894 51.4706C47.424 51.9167 47.9163 52.2174 48.465 52.3109C48.7311 52.3473 49.0018 52.3276 49.2599 52.2533C49.518 52.1789 49.7578 52.0514 49.9641 51.879C50.3763 51.5506 50.6578 51.0852 50.7577 50.5668C50.7812 50.4415 50.791 50.3139 50.7871 50.1864C50.7895 50.0613 50.7707 49.9367 50.7313 49.8179C50.6965 49.7024 50.6285 49.5998 50.5358 49.523C50.4898 49.4887 50.4359 49.4667 50.3791 49.459C50.3223 49.4512 50.2645 49.458 50.211 49.4788C50.1032 49.5238 50.0155 49.6066 49.9641 49.7117C49.9129 49.8169 49.8975 49.936 49.92 50.0508C49.9738 50.28 50.0982 50.4864 50.2757 50.6405C50.4434 50.7973 50.6408 50.9187 50.8561 50.9975C51.0715 51.0762 51.3004 51.1108 51.5293 51.0991C51.746 51.0877 51.958 51.0316 52.1519 50.9341C52.3459 50.8367 52.5177 50.7001 52.6566 50.5329C52.9255 50.2227 53.0728 49.825 53.0711 49.4139V49.4242C53.0469 49.3686 53.0047 49.3228 52.9514 49.2942C52.8981 49.2655 52.8367 49.2558 52.7771 49.2665C52.6573 49.2731 52.5446 49.326 52.4626 49.4139C52.4244 49.4576 52.3978 49.5101 52.3849 49.5667C52.3721 49.6234 52.3735 49.6823 52.3891 49.7383C52.4169 49.8528 52.4796 49.9559 52.5684 50.0331C52.6524 50.1077 52.7514 50.1634 52.8586 50.1964C52.9658 50.2295 53.0789 50.2392 53.1901 50.2248C53.4029 50.1967 53.6093 50.1318 53.8 50.0331L55.7254 49.0498L56.9496 48.4291L57.2685 48.2684L57.3773 48.2227Z" fill="#0E1339"/>
<path d="M44.2117 11.8529C44.2117 11.8751 41.1033 11.8929 37.2688 11.8929C33.4344 11.8929 30.3245 11.8751 30.3245 11.8529C30.3245 11.8307 33.4329 11.8145 37.2688 11.8145C41.1048 11.8145 44.2117 11.8322 44.2117 11.8529Z" fill="#CDF1FF"/>
<path d="M46.5266 11.8529C46.2074 11.9062 45.8817 11.9062 45.5625 11.8529C45.8819 11.8016 46.2073 11.8016 46.5266 11.8529Z" fill="#CDF1FF"/>
<path d="M60.3505 11.8529C60.3505 11.8751 57.514 11.8929 54.0176 11.8929C50.5211 11.8929 47.6846 11.8751 47.6846 11.8529C47.6846 11.8307 50.5182 11.8145 54.0176 11.8145C57.5169 11.8145 60.3505 11.8322 60.3505 11.8529Z" fill="#CDF1FF"/>
<path d="M44.2117 15.7289C44.2117 15.7511 41.1033 15.7674 37.2688 15.7674C33.4344 15.7674 30.3245 15.7511 30.3245 15.7289C30.3245 15.7067 33.4329 15.6904 37.2688 15.6904C41.1048 15.6904 44.2117 15.7082 44.2117 15.7289Z" fill="#CDF1FF"/>
<path d="M46.5266 15.7289C46.2073 15.7802 45.8819 15.7802 45.5625 15.7289C45.8819 15.6776 46.2073 15.6776 46.5266 15.7289Z" fill="#CDF1FF"/>
<path d="M60.3505 15.7289C60.3505 15.7511 57.514 15.7674 54.0176 15.7674C50.5211 15.7674 47.6846 15.7511 47.6846 15.7289C47.6846 15.7067 50.5182 15.6904 54.0176 15.6904C57.5169 15.6904 60.3505 15.7082 60.3505 15.7289Z" fill="#CDF1FF"/>
<path d="M56.9524 31.0703L53.309 39.5638C53.2916 39.6034 53.2865 39.6473 53.2944 39.6899C53.3024 39.7324 53.323 39.7715 53.3536 39.802C53.3842 39.8325 53.4232 39.853 53.4657 39.8608C53.5081 39.8685 53.5519 39.8632 53.5912 39.8454L56.3998 38.6011C56.4274 38.5884 56.4573 38.5817 56.4877 38.5814C56.518 38.5812 56.5481 38.5874 56.5759 38.5997C56.6037 38.6119 56.6285 38.63 56.6489 38.6526C56.6692 38.6752 56.6845 38.7019 56.6938 38.7309L57.6417 41.5837C57.6562 41.6256 57.6834 41.662 57.7195 41.6878C57.7556 41.7136 57.7988 41.7274 57.8431 41.7274C57.8874 41.7274 57.9306 41.7136 57.9666 41.6878C58.0027 41.662 58.0299 41.6256 58.0444 41.5837L61.4703 32.4223L56.9524 31.0703Z" fill="#00ACE9"/>
<path d="M61.7012 32.4901L63.4457 41.5689C63.4539 41.6113 63.4745 41.6503 63.5051 41.6808C63.5356 41.7112 63.5746 41.7318 63.6169 41.7397C63.6592 41.7477 63.703 41.7427 63.7424 41.7254C63.7819 41.708 63.8152 41.6792 63.8381 41.6426L65.4636 39.0316C65.4794 39.0063 65.5003 38.9845 65.5249 38.9677C65.5496 38.9509 65.5774 38.9394 65.6068 38.934C65.6361 38.9286 65.6662 38.9294 65.6952 38.9363C65.7242 38.9432 65.7514 38.9561 65.7752 38.9741L68.1576 40.8008C68.1928 40.8274 68.2353 40.8425 68.2794 40.844C68.3235 40.8455 68.367 40.8334 68.4039 40.8092C68.4409 40.785 68.4695 40.75 68.4859 40.709C68.5023 40.6679 68.5057 40.6227 68.4956 40.5797L66.194 31.0703L61.7012 32.4901Z" fill="#00ACE9"/>
<g opacity="0.3">
<path opacity="0.3" d="M56.9524 31.0703L53.309 39.5638C53.2916 39.6034 53.2865 39.6473 53.2944 39.6899C53.3024 39.7324 53.323 39.7715 53.3536 39.802C53.3842 39.8325 53.4232 39.853 53.4657 39.8608C53.5081 39.8685 53.5519 39.8632 53.5912 39.8454L56.3998 38.6011C56.4274 38.5884 56.4573 38.5817 56.4877 38.5814C56.518 38.5812 56.5481 38.5874 56.5759 38.5997C56.6037 38.6119 56.6285 38.63 56.6489 38.6526C56.6692 38.6752 56.6845 38.7019 56.6938 38.7309L57.6417 41.5837C57.6562 41.6256 57.6834 41.662 57.7195 41.6878C57.7556 41.7136 57.7988 41.7274 57.8431 41.7274C57.8874 41.7274 57.9306 41.7136 57.9666 41.6878C58.0027 41.662 58.0299 41.6256 58.0444 41.5837L61.4703 32.4223L56.9524 31.0703Z" fill="#2D3259"/>
</g>
<g opacity="0.3">
<path opacity="0.3" d="M61.7012 32.4901L63.4457 41.5689C63.4539 41.6113 63.4745 41.6503 63.5051 41.6808C63.5356 41.7112 63.5746 41.7318 63.6169 41.7397C63.6592 41.7477 63.703 41.7427 63.7424 41.7254C63.7819 41.708 63.8152 41.6792 63.8381 41.6426L65.4636 39.0316C65.4794 39.0063 65.5003 38.9845 65.5249 38.9677C65.5496 38.9509 65.5774 38.9394 65.6068 38.934C65.6361 38.9286 65.6662 38.9294 65.6952 38.9363C65.7242 38.9432 65.7514 38.9561 65.7752 38.9741L68.1576 40.8008C68.1928 40.8274 68.2353 40.8425 68.2794 40.844C68.3235 40.8455 68.367 40.8334 68.4039 40.8092C68.4409 40.785 68.4695 40.75 68.4859 40.709C68.5023 40.6679 68.5057 40.6227 68.4956 40.5797L66.194 31.0703L61.7012 32.4901Z" fill="#2D3259"/>
</g>
<path d="M61.8774 16.1888L63.0738 15.3071L64.0144 16.4586L65.3915 15.9042L66.0161 17.2547L67.4888 17.0601L67.7577 18.5241L69.2318 18.7025L69.1304 20.1886L70.5134 20.7282L70.0475 22.1421L71.2527 23.0119L70.4517 24.2651L71.4041 25.4062L70.315 26.4205L70.9558 27.7636L69.6507 28.4742L69.9373 29.9353L68.497 30.298L68.4117 31.7841L66.9274 31.7767L66.4762 33.195L65.0402 32.8176L64.251 34.0781L62.9547 33.3542L61.8774 34.3789L60.8016 33.3542L59.5053 34.0781L58.7161 32.8176L57.2802 33.195L56.829 31.7767L55.3446 31.7841L55.2594 30.298L53.8191 29.9353L54.1057 28.4742L52.8006 27.7636L53.4399 26.4205L52.3523 25.4062L53.3047 24.2651L52.5037 23.0119L53.7088 22.1421L53.2415 20.7282L54.6259 20.1886L54.5245 18.7025L55.9986 18.5241L56.2676 17.0601L57.7402 17.2547L58.3649 15.9042L59.742 16.4586L60.6811 15.3071L61.8774 16.1888Z" fill="#00ACE9"/>
<path d="M66.632 29.6127C69.2578 26.9786 69.2578 22.7079 66.632 20.0738C64.0061 17.4397 59.7488 17.4397 57.1229 20.0738C54.4971 22.7079 54.4971 26.9786 57.1229 29.6127C59.7488 32.2468 64.0061 32.2468 66.632 29.6127Z" fill="white"/>
<path d="M63.3442 23.2449L65.1476 23.5103C65.2144 23.52 65.2772 23.5483 65.3288 23.592C65.3804 23.6357 65.4188 23.6931 65.4396 23.7575C65.4604 23.822 65.4628 23.891 65.4465 23.9567C65.4302 24.0225 65.3959 24.0823 65.3474 24.1295L64.0409 25.4048C63.9987 25.4458 63.9671 25.4965 63.9489 25.5525C63.9307 25.6085 63.9265 25.6682 63.9365 25.7262L64.2437 27.5322C64.255 27.5989 64.2475 27.6674 64.222 27.7301C64.1966 27.7927 64.1542 27.8469 64.0996 27.8866C64.045 27.9264 63.9804 27.95 63.9132 27.9548C63.846 27.9597 63.7787 27.9456 63.719 27.9141L62.1023 27.0605C62.0505 27.0328 61.9927 27.0184 61.9341 27.0184C61.8754 27.0184 61.8176 27.0328 61.7658 27.0605L60.1491 27.9097C60.0894 27.9409 60.0221 27.9547 59.9549 27.9496C59.8878 27.9445 59.8234 27.9207 59.769 27.8808C59.7146 27.841 59.6723 27.7867 59.6471 27.724C59.6218 27.6614 59.6145 27.5929 59.6259 27.5263L59.936 25.7247C59.946 25.6668 59.9419 25.6073 59.9239 25.5514C59.906 25.4954 59.8749 25.4446 59.8331 25.4033L58.528 24.1251C58.4795 24.0778 58.4452 24.0178 58.429 23.952C58.4128 23.8861 58.4153 23.817 58.4363 23.7525C58.4573 23.688 58.4958 23.6307 58.5477 23.5871C58.5995 23.5435 58.6624 23.5154 58.7294 23.5059L60.5342 23.2449C60.5922 23.2369 60.6473 23.2147 60.6947 23.1802C60.7421 23.1458 60.7804 23.1001 60.8061 23.0474L61.6159 21.4079C61.6458 21.3473 61.6919 21.2963 61.7492 21.2606C61.8065 21.225 61.8725 21.2061 61.9399 21.2061C62.0074 21.2061 62.0734 21.225 62.1307 21.2606C62.1879 21.2963 62.2341 21.3473 62.264 21.4079L63.0679 23.0503C63.0946 23.1029 63.1338 23.1482 63.1819 23.1821C63.2301 23.2161 63.2858 23.2376 63.3442 23.2449Z" fill="#00ACE9"/>
<path d="M88 30.2008C88 30.2008 86.2481 37.3999 78.4043 35.7502C78.4043 35.7502 80.6779 28.4597 88 30.2008Z" fill="#0E1339"/>
<path d="M84.214 41.1033C84.214 41.1033 80.6132 46.489 74.6609 42.7649C74.6609 42.7649 78.7173 37.4618 84.214 41.1033Z" fill="#0E1339"/>
<path d="M78.4735 49.3196C78.4735 49.3196 73.2208 53.8 68.1855 48.2463C68.1944 48.2463 73.8865 43.9825 78.4735 49.3196Z" fill="#0E1339"/>
<path d="M72.9106 31.9009C72.9106 31.9009 78.7365 34.7095 75.9088 41.1463C75.9088 41.1463 70.1049 37.8733 72.9106 31.9009Z" fill="#0E1339"/>
<path d="M71.6466 39.6616C71.6466 39.6616 74.5522 43.5966 70.221 46.9772C70.221 46.9772 67.5005 42.7326 71.6466 39.6616Z" fill="#0E1339"/>
<path d="M85.1224 21.7822C85.1224 21.7822 85.7911 27.6176 79.5081 28.5523C79.5111 28.5523 79.201 22.5046 85.1224 21.7822Z" fill="#0E1339"/>
<path d="M76.1116 15.8853C76.1116 15.8853 81.1924 18.0142 78.9864 23.994C78.9864 23.9822 73.8939 21.4316 76.1116 15.8853Z" fill="#0E1339"/>
<path d="M73.0443 24.4038C73.0443 24.4038 79.7726 25.1734 79.1803 32.5199C79.1803 32.5199 72.3094 31.2844 73.0443 24.4038Z" fill="#0E1339"/>
<path d="M63.4692 50.0464C63.4692 50.0464 63.4972 50.0361 63.5545 50.0199L63.8058 49.9535C64.0277 49.8946 64.3555 49.8164 64.7699 49.6808C65.941 49.3172 67.0733 48.8382 68.1502 48.2507C69.7489 47.3744 71.2247 46.2892 72.5388 45.0234C73.3159 44.2789 74.0402 43.4808 74.7066 42.635L75.2122 41.9539L75.4664 41.6104C75.5487 41.4924 75.6237 41.3701 75.7045 41.2492L76.1792 40.512L76.6201 39.7424C76.6922 39.6127 76.7671 39.4844 76.8376 39.3562C76.9082 39.2279 76.9685 39.0908 77.0331 38.9596C77.1625 38.6957 77.2933 38.4362 77.4182 38.1738C77.5431 37.9113 77.6416 37.643 77.7533 37.3806C77.8076 37.2494 77.8664 37.1196 77.9164 36.9884L78.0634 36.5903L78.3441 35.806C78.422 35.5421 78.4911 35.2797 78.5748 35.0217C78.613 34.8919 78.6513 34.7637 78.688 34.6354C78.7247 34.5071 78.7512 34.3774 78.7835 34.2491L78.9614 33.4884C79.3454 31.7017 79.5136 29.8752 79.4625 28.0482C79.4223 26.8171 79.2857 25.5911 79.054 24.3815C78.9614 23.954 78.8805 23.6252 78.832 23.4011C78.807 23.2905 78.7879 23.2065 78.7747 23.1461C78.7615 23.0856 78.7585 23.0591 78.7585 23.0591C78.7585 23.0591 78.7674 23.0871 78.7821 23.1446L78.8467 23.3982C78.9011 23.6208 78.9937 23.9496 79.0834 24.3756C79.6964 27.3889 79.6784 30.4972 79.0304 33.5031C78.9717 33.7538 78.9124 34.0083 78.8526 34.2668C78.8217 34.3951 78.7968 34.5263 78.7585 34.6546C78.7203 34.7828 78.6836 34.9126 78.6454 35.0423L78.4146 35.8281L78.1339 36.6154C78.0869 36.7481 78.0399 36.8808 77.987 37.015C77.934 37.1491 77.8782 37.2774 77.8223 37.4101L77.4873 38.2062C77.3623 38.4686 77.2301 38.7296 77.1022 38.9935L76.9053 39.3915C76.8332 39.5213 76.7583 39.6496 76.6863 39.7793L76.2454 40.5518L75.7677 41.289C75.6869 41.4099 75.6119 41.5323 75.5281 41.6502L75.2724 41.9967L74.7654 42.6793C74.0989 43.5286 73.3735 44.3296 72.5946 45.0765C71.2749 46.3438 69.792 47.4282 68.1855 48.3008C67.1013 48.8852 65.9609 49.358 64.7817 49.7118C64.3658 49.843 64.0351 49.9167 63.8117 49.9698L63.5589 50.0302L63.4692 50.0464Z" fill="#0E1339"/>
<path d="M71.0161 42.834C71.0238 42.8888 71.0238 42.9443 71.0161 42.9991C71.0073 43.1038 70.9911 43.2571 70.969 43.4414C70.9235 43.8174 70.8456 44.3348 70.7354 44.9024C70.6251 45.4701 70.5017 45.9802 70.4032 46.3443C70.3532 46.5271 70.3121 46.6746 70.2797 46.7763C70.2671 46.8301 70.2478 46.8821 70.2224 46.9311C70.2261 46.8762 70.2354 46.8219 70.2503 46.7689C70.2783 46.6495 70.3121 46.5036 70.3503 46.3266C70.4355 45.9595 70.5502 45.4494 70.6604 44.8833C70.7706 44.3171 70.8559 43.8026 70.9147 43.4296C70.9426 43.2556 70.9676 43.1082 70.9867 42.9873C70.9913 42.9353 71.0011 42.884 71.0161 42.834Z" fill="#737690"/>
<path d="M72.4476 48.6785C72.3924 48.6809 72.337 48.6759 72.283 48.6637L71.8421 48.5974C71.4659 48.5414 70.9441 48.4676 70.3724 48.3998C69.8007 48.332 69.2716 48.2833 68.8924 48.2524L68.4427 48.2126C68.3871 48.2106 68.332 48.2027 68.2781 48.189C68.3332 48.1818 68.389 48.1818 68.4442 48.189C68.5514 48.189 68.7058 48.189 68.8954 48.2037C69.2775 48.2229 69.8022 48.2627 70.3812 48.3305C70.9603 48.3983 71.4806 48.478 71.8509 48.5517C72.0391 48.5871 72.189 48.618 72.2918 48.6416C72.3451 48.6473 72.3974 48.6597 72.4476 48.6785Z" fill="#737690"/>
<path d="M79.5287 41.5381C79.4658 41.5602 79.4008 41.576 79.3347 41.5853L78.8027 41.6899C78.3529 41.7799 77.7342 41.9096 77.0552 42.0733C76.3762 42.2369 75.7663 42.4079 75.3254 42.5347L74.8036 42.6822C74.7411 42.7041 74.6766 42.7199 74.6111 42.7293C74.6691 42.6965 74.7307 42.6708 74.7948 42.6527C74.9153 42.6084 75.0887 42.5495 75.3107 42.4787C75.7516 42.3386 76.3556 42.1602 77.0361 41.9951C77.7166 41.83 78.3397 41.7076 78.7997 41.6324C79.0261 41.5941 79.2098 41.5676 79.3377 41.5514C79.4007 41.5405 79.4647 41.536 79.5287 41.5381Z" fill="#737690"/>
<path d="M74.3862 36.0171C74.4317 36.0725 74.4716 36.1322 74.5053 36.1955C74.5802 36.3134 74.6787 36.4903 74.7919 36.7071C75.3813 37.861 75.7417 39.1188 75.853 40.4105C75.8735 40.6568 75.8824 40.8528 75.8824 41.0003C75.8893 41.0718 75.8893 41.1439 75.8824 41.2155C75.8677 41.1452 75.8598 41.0736 75.8589 41.0017C75.8515 40.8646 75.8339 40.6656 75.8059 40.4194C75.6669 39.1393 75.31 37.8926 74.7507 36.7336C74.6434 36.511 74.5538 36.3341 74.4876 36.2117C74.4477 36.1503 74.4137 36.0851 74.3862 36.0171Z" fill="#737690"/>
<path d="M82.1903 32.6602C82.1426 32.7016 82.0909 32.7381 82.036 32.7693L81.6039 33.0508C81.2423 33.2926 80.7514 33.6406 80.2371 34.0563C79.7227 34.4721 79.2817 34.8849 78.9716 35.1901L78.6071 35.5557C78.5656 35.6031 78.5193 35.6461 78.469 35.684C78.5028 35.6311 78.5417 35.5817 78.5851 35.5365C78.6645 35.4437 78.7835 35.3124 78.9334 35.1547C79.3274 34.7435 79.7466 34.3575 80.1885 33.9988C80.6299 33.64 81.0927 33.3086 81.5745 33.0066C81.7611 32.8916 81.9125 32.8032 82.0154 32.7442C82.0701 32.7092 82.1288 32.6809 82.1903 32.6602Z" fill="#737690"/>
<path d="M74.8431 27.3301C74.8633 27.3422 74.882 27.3565 74.899 27.3728L75.0459 27.5055C75.1738 27.622 75.356 27.8004 75.575 28.0112C76.0159 28.4447 76.6038 29.0624 77.2152 29.7804C77.8266 30.4984 78.341 31.181 78.6981 31.6852C78.876 31.9373 79.0171 32.1437 79.1111 32.2882L79.2184 32.4563C79.2419 32.4961 79.2537 32.5167 79.2507 32.5182C79.2332 32.5027 79.2178 32.4849 79.2052 32.4651L79.0861 32.3059L78.654 31.7162C78.2866 31.2208 77.7722 30.5456 77.1564 29.829C76.5406 29.1125 75.966 28.4889 75.5398 28.0466L75.0254 27.5321L74.8872 27.3846C74.8563 27.3507 74.8416 27.333 74.8431 27.3301Z" fill="#737690"/>
<path d="M82.9471 23.6782C82.9033 23.7432 82.8542 23.8044 82.8001 23.861L82.3915 24.3446C82.0491 24.7545 81.5891 25.3309 81.1158 25.9944C80.6426 26.6578 80.2487 27.2814 79.9724 27.74L79.6579 28.2825C79.6221 28.3515 79.5803 28.4171 79.533 28.4786C79.5603 28.4059 79.5933 28.3354 79.6314 28.2678C79.699 28.1351 79.8034 27.9449 79.9357 27.7119C80.2002 27.2461 80.5897 26.6165 81.0644 25.9501C81.5391 25.2838 82.0079 24.7102 82.3607 24.3092C82.537 24.1072 82.684 23.948 82.7884 23.8404C82.8366 23.782 82.8897 23.7277 82.9471 23.6782Z" fill="#737690"/>
<path d="M76.8655 18.1377C76.9056 18.207 76.9409 18.2789 76.9713 18.3529C77.0345 18.4915 77.1183 18.695 77.23 18.9427C77.4431 19.4469 77.7253 20.1516 78.0148 20.9374C78.3043 21.7232 78.5468 22.4412 78.7129 22.9646C78.7967 23.2256 78.8599 23.4379 78.9039 23.5853C78.9296 23.6608 78.9493 23.7382 78.9627 23.8168C78.9266 23.7454 78.897 23.6709 78.8746 23.5941L78.6614 22.9808C78.4836 22.4633 78.2323 21.7483 77.9428 20.964C77.6532 20.1796 77.3799 19.4734 77.18 18.9633C77.083 18.7171 77.0036 18.521 76.9434 18.3574C76.9101 18.287 76.884 18.2134 76.8655 18.1377Z" fill="#737690"/>
<path d="M0 28.5981C0 28.5981 1.65636 35.4006 9.06807 33.8423C9.06366 33.8423 6.91496 26.9528 0 28.5981Z" fill="#0E1339"/>
<path d="M3.57715 38.9007C3.57715 38.9007 6.97952 43.9901 12.6011 40.4708C12.6011 40.4708 8.76814 35.4596 3.57715 38.9007Z" fill="#0E1339"/>
<path d="M8.99756 46.6646C8.99756 46.6646 13.9622 50.9003 18.7167 45.6517C18.7167 45.6517 13.3332 41.6209 8.99756 46.6646Z" fill="#0E1339"/>
<path d="M14.2562 30.2051C14.2562 30.2051 8.75069 32.8588 11.4226 38.9404C11.4211 38.9404 16.912 35.8488 14.2562 30.2051Z" fill="#0E1339"/>
<path d="M15.4495 37.5386C15.4495 37.5386 12.7041 41.2568 16.7958 44.4516C16.7958 44.4516 19.3678 40.4415 15.4495 37.5386Z" fill="#0E1339"/>
<path d="M2.716 20.6426C2.716 20.6426 2.08403 26.1565 8.02163 27.0396C8.02163 27.0396 8.3097 21.3252 2.716 20.6426Z" fill="#0E1339"/>
<path d="M11.2316 15.0625C11.2316 15.0625 6.42858 17.0749 8.51409 22.7289C8.51409 22.7216 13.3259 20.3081 11.2316 15.0625Z" fill="#0E1339"/>
<path d="M14.1298 23.1196C14.1298 23.1196 7.77037 23.8479 8.33033 30.7861C8.33033 30.789 14.825 29.6228 14.1298 23.1196Z" fill="#0E1339"/>
<path d="M24.572 47.8231L24.4853 47.8068L24.234 47.7508C24.0135 47.6992 23.6873 47.6299 23.2743 47.5076C22.1042 47.1806 20.9648 46.752 19.869 46.2264C19.1102 45.8667 18.374 45.461 17.6644 45.0115C16.8477 44.4995 16.0683 43.93 15.332 43.3072C14.5159 42.6212 13.7538 41.873 13.0525 41.0692L12.5175 40.422C12.3441 40.1994 12.1795 39.9679 12.0075 39.7394C11.9223 39.6244 11.837 39.5079 11.7503 39.3929L11.5137 39.0317C11.3579 38.787 11.1918 38.5452 11.0405 38.2946C10.7465 37.7815 10.4526 37.2832 10.2101 36.7613C9.94554 36.2526 9.73684 35.7293 9.51933 35.2162C7.98559 31.3911 7.60039 27.1996 8.41117 23.1578C8.49935 22.7361 8.589 22.4132 8.64044 22.1921C8.66837 22.0845 8.68894 22.0004 8.70364 21.9415C8.71834 21.8825 8.72862 21.8574 8.72862 21.8574C8.72862 21.8574 8.72863 21.8869 8.71099 21.9444C8.69335 22.0019 8.68012 22.0918 8.65514 22.195C8.60811 22.4177 8.52287 22.742 8.43909 23.1637C8.21483 24.3583 8.08753 25.5693 8.05844 26.7846C8.01617 29.6593 8.53647 32.5144 9.58987 35.1882C9.80592 35.6968 10.0146 36.2202 10.2792 36.7274C10.5187 37.2463 10.8185 37.7432 11.1051 38.2548C11.2521 38.5054 11.4211 38.7457 11.5769 38.9919L11.8135 39.3546L12.0693 39.6996C12.2397 39.9281 12.4044 40.1596 12.5763 40.3807L13.1098 41.025C14.4427 42.5524 15.988 43.8792 17.6982 44.9644C19.4322 46.064 21.3124 46.9122 23.2831 47.484C23.6931 47.6108 24.0179 47.6845 24.2384 47.7405L24.4868 47.8054L24.572 47.8231Z" fill="#0E1339"/>
<path d="M16.0448 40.5356C16.0609 40.5835 16.0722 40.6329 16.0786 40.6831C16.0977 40.7981 16.1197 40.9367 16.1462 41.1003C16.202 41.4527 16.2843 41.9392 16.3872 42.4744C16.4901 43.0095 16.5989 43.4902 16.6812 43.8381C16.7179 43.9988 16.7488 44.133 16.7752 44.2509C16.7898 44.2988 16.7982 44.3483 16.8002 44.3983C16.7764 44.3515 16.7582 44.302 16.7458 44.2509C16.7164 44.1566 16.6753 44.0165 16.6283 43.844C16.5342 43.499 16.4195 43.0184 16.3137 42.4817C16.2079 41.9451 16.1374 41.4497 16.0947 41.1003C16.0727 40.9234 16.058 40.7789 16.0506 40.6787C16.0431 40.6314 16.0411 40.5834 16.0448 40.5356Z" fill="#737690"/>
<path d="M14.697 46.0585C14.7444 46.0391 14.7937 46.0248 14.844 46.0157C14.941 45.9936 15.085 45.9641 15.2614 45.9302C15.6156 45.8639 16.1079 45.7828 16.6547 45.7209C17.2014 45.659 17.6982 45.6192 18.0582 45.6029C18.239 45.5941 18.3845 45.5882 18.4844 45.5882C18.5366 45.5813 18.5895 45.5813 18.6417 45.5882C18.5914 45.6018 18.5395 45.6092 18.4874 45.6103L18.0626 45.6486C17.704 45.6796 17.2087 45.7268 16.6635 45.7961C16.1182 45.8654 15.6347 45.9302 15.2702 45.9833L14.8484 46.0437C14.7988 46.0552 14.7479 46.0602 14.697 46.0585Z" fill="#737690"/>
<path d="M8.00098 39.3091C8.06411 39.3069 8.12727 39.3123 8.1891 39.3253C8.30961 39.34 8.48304 39.3651 8.69615 39.4005C9.1253 39.4712 9.71318 39.5862 10.3569 39.7425C11.0006 39.8988 11.5753 40.0669 11.9883 40.201C12.194 40.2674 12.3601 40.3249 12.4748 40.3662C12.5349 40.3841 12.593 40.4084 12.6482 40.4384C12.5854 40.431 12.5237 40.4162 12.4645 40.3942L11.9721 40.2467C11.5562 40.1273 10.9801 39.9681 10.3378 39.8118C9.69554 39.6555 9.11207 39.5332 8.68733 39.4477L8.18469 39.3489C8.12236 39.3413 8.06086 39.328 8.00098 39.3091Z" fill="#737690"/>
<path d="M12.8614 34.0942C12.8377 34.1578 12.8082 34.2189 12.7733 34.2771C12.7115 34.3921 12.6263 34.5601 12.5249 34.771C12.2622 35.3174 12.0458 35.885 11.8782 36.4679C11.7124 37.0513 11.5949 37.6475 11.527 38.2503C11.502 38.4818 11.4843 38.6705 11.477 38.8003C11.476 38.8682 11.4681 38.9359 11.4535 39.0022C11.4451 38.9348 11.4426 38.8667 11.4461 38.7988C11.4461 38.6676 11.4535 38.4789 11.4726 38.2459C11.5256 37.6366 11.6368 37.0338 11.8047 36.4458C11.973 35.8586 12.1979 35.2892 12.4764 34.7459C12.5837 34.538 12.6763 34.3729 12.7468 34.2623C12.7786 34.2022 12.8171 34.1458 12.8614 34.0942Z" fill="#737690"/>
<path d="M5.48633 30.9233C5.54222 30.9439 5.59589 30.9701 5.64653 31.0015C5.74793 31.056 5.89197 31.1401 6.06833 31.2492C6.52398 31.5341 6.9618 31.8467 7.37931 32.1854C7.79628 32.5246 8.19189 32.8895 8.56389 33.2778C8.71086 33.4253 8.81815 33.5506 8.8931 33.639C8.93467 33.6844 8.9716 33.7337 9.00333 33.7865C8.95464 33.751 8.91025 33.7099 8.87106 33.6641L8.52421 33.3147C8.23027 33.0198 7.81581 32.6394 7.32934 32.2429C6.84286 31.8463 6.37844 31.5204 6.03747 31.2934L5.63036 31.0251C5.57852 30.997 5.53018 30.9628 5.48633 30.9233Z" fill="#737690"/>
<path d="M12.4293 25.8853C12.3767 25.9518 12.3192 26.0144 12.2573 26.0725L11.7738 26.5664C11.3696 26.9836 10.82 27.5733 10.2439 28.2501C9.66773 28.9268 9.17685 29.5651 8.82853 30.034L8.41995 30.5898C8.3731 30.66 8.32102 30.7265 8.26416 30.7888C8.30216 30.7133 8.34589 30.6409 8.39496 30.5721C8.48315 30.435 8.61689 30.2389 8.78444 30.0015C9.12247 29.5239 9.60894 28.8796 10.1865 28.1999C10.7641 27.5203 11.3167 26.9423 11.7356 26.5281C11.9443 26.3231 12.1148 26.1595 12.2368 26.0504C12.2969 25.9908 12.3612 25.9356 12.4293 25.8853Z" fill="#737690"/>
<path d="M4.77075 22.4341C4.82776 22.4786 4.88087 22.5279 4.92948 22.5815C5.02795 22.6832 5.1661 22.8336 5.33218 23.0238C5.76707 23.5224 6.17618 24.043 6.55791 24.5836C6.99882 25.2132 7.37506 25.8088 7.62491 26.2481C7.74984 26.4678 7.84684 26.6477 7.91885 26.7745C7.95601 26.8382 7.98701 26.9053 8.01144 26.975C7.96689 26.9163 7.92708 26.8542 7.8924 26.7892L7.58523 26.2761C7.32362 25.8442 6.95032 25.2559 6.50353 24.6279C6.05674 23.9998 5.62171 23.4558 5.29838 23.068C5.15141 22.8823 5.01472 22.7289 4.91478 22.611C4.86069 22.5573 4.81241 22.498 4.77075 22.4341Z" fill="#737690"/>
<path d="M10.5202 17.1987C10.5017 17.2719 10.4771 17.3434 10.4468 17.4125C10.3894 17.5599 10.3145 17.7531 10.2234 17.9845C10.0352 18.4666 9.78245 19.1345 9.50321 19.8761C9.22397 20.6177 8.99175 21.2929 8.81833 21.7824C8.73602 22.0168 8.67136 22.2114 8.61698 22.3618C8.59593 22.4341 8.56787 22.5043 8.5332 22.5711C8.54524 22.497 8.56343 22.424 8.58758 22.3529C8.62726 22.2055 8.68899 22.0124 8.76689 21.7632C8.92414 21.2693 9.15195 20.5838 9.42678 19.8466C9.70162 19.1094 9.96764 18.4401 10.169 17.9624C10.2704 17.7236 10.3542 17.5319 10.4144 17.3992C10.4433 17.3292 10.4788 17.2621 10.5202 17.1987Z" fill="#737690"/>
<path d="M25.466 9.1416C25.8834 9.17048 26.2967 9.04349 26.6251 8.78543C26.9535 8.52737 27.1733 8.15677 27.2418 7.74604C27.3103 7.33531 27.2224 6.91393 26.9953 6.56422C26.7682 6.21451 26.4183 5.96158 26.0138 5.85484C26.2569 5.5805 26.407 5.23694 26.4427 4.87293C26.4785 4.50891 26.398 4.14295 26.2129 3.82699C26.0277 3.51104 25.7473 3.26114 25.4113 3.11278C25.0753 2.96442 24.7009 2.92513 24.3412 3.0005C24.3082 2.64117 24.182 2.29652 23.9749 2.00029C23.7679 1.70405 23.4871 1.46638 23.16 1.31053C22.8329 1.15468 22.4708 1.086 22.109 1.11121C21.7473 1.13641 21.3983 1.25464 21.0963 1.45432C20.6724 1.14482 20.1568 0.985267 19.6313 1.00107C19.1058 1.01687 18.6007 1.20712 18.1965 1.54153C17.839 1.49173 17.4749 1.55821 17.1584 1.73106C16.842 1.90392 16.5902 2.17389 16.4405 2.50074C16.2908 2.82759 16.2513 3.19381 16.3279 3.54482C16.4044 3.89583 16.5929 4.21283 16.8653 4.44856" fill="#0E1339"/>
<path d="M17.921 3.21106L18.2863 3.19289C20.0788 3.104 21.8392 3.69043 23.2166 4.83531C24.594 5.98018 25.4872 7.59943 25.7183 9.37033C26.1675 12.7843 26.6186 16.5616 26.688 18.4021C26.8304 22.2176 23.0358 22.9916 23.0358 22.9916L23.5837 27.5502L21.5366 29.7595L14.2835 27.7228L12.6401 11.1745C12.0996 7.23184 13.9512 3.63803 17.921 3.21106Z" fill="#C17560"/>
<path d="M23.0686 22.9775C21.2948 23.0646 19.5332 22.644 17.9922 21.7656C17.9922 21.7656 19.3562 24.4365 23.1581 23.9041L23.0686 22.9775Z" fill="#7C4236"/>
<path d="M23.9816 13.417C23.9897 13.5584 23.9422 13.6974 23.8492 13.8045C23.7561 13.9117 23.6248 13.9786 23.483 13.9911C23.4139 14 23.3436 13.995 23.2764 13.9765C23.2092 13.958 23.1463 13.9263 23.0916 13.8834C23.0368 13.8404 22.9912 13.787 22.9575 13.7262C22.9237 13.6655 22.9025 13.5986 22.895 13.5296C22.8864 13.388 22.9337 13.2485 23.0268 13.1409C23.1199 13.0334 23.2515 12.9662 23.3936 12.9537C23.4629 12.9446 23.5334 12.9494 23.6009 12.9679C23.6683 12.9865 23.7313 13.0183 23.7861 13.0615C23.841 13.1047 23.8865 13.1584 23.9201 13.2195C23.9537 13.2806 23.9746 13.3477 23.9816 13.417Z" fill="#0E1339"/>
<path d="M24.9913 11.2671C24.9274 11.3416 24.4983 11.0564 23.9103 11.0855C23.3223 11.1145 22.9059 11.4307 22.8402 11.3616C22.8073 11.3307 22.8694 11.1999 23.0502 11.0546C23.2955 10.8663 23.5934 10.7584 23.903 10.7457C24.209 10.7294 24.5123 10.8109 24.7685 10.9783C24.9566 11.1073 25.0242 11.2344 24.9913 11.2671Z" fill="#0E1339"/>
<path d="M18.9561 13.5459C18.9642 13.6873 18.9167 13.8263 18.8237 13.9334C18.7306 14.0406 18.5993 14.1075 18.4575 14.12C18.3882 14.1289 18.3178 14.1239 18.2505 14.1052C18.1832 14.0866 18.1202 14.0548 18.0655 14.0116C18.0107 13.9685 17.9651 13.9148 17.9315 13.8539C17.8978 13.7929 17.8768 13.7259 17.8696 13.6567C17.8614 13.5153 17.9089 13.3764 18.0019 13.2692C18.095 13.162 18.2263 13.0951 18.3681 13.0826C18.4374 13.0735 18.5079 13.0783 18.5753 13.0969C18.6428 13.1154 18.7058 13.1472 18.7606 13.1904C18.8155 13.2336 18.861 13.2873 18.8946 13.3484C18.9282 13.4095 18.9491 13.4766 18.9561 13.5459Z" fill="#0E1339"/>
<path d="M19.2172 11.6618C19.1533 11.7363 18.7242 11.4528 18.1362 11.4801C17.5482 11.5074 17.1319 11.8235 17.0643 11.7544C17.0314 11.7254 17.0935 11.5946 17.2761 11.4492C17.5213 11.2606 17.8193 11.1527 18.1289 11.1403C18.4348 11.1236 18.738 11.2045 18.9945 11.3711C19.1807 11.5037 19.2501 11.6291 19.2172 11.6618Z" fill="#0E1339"/>
<path d="M21.5693 15.8953C21.5693 15.8626 21.9345 15.7808 22.5152 15.6773C22.6649 15.6536 22.8055 15.6173 22.8256 15.5137C22.8294 15.3589 22.7868 15.2065 22.7033 15.0759C22.5444 14.7125 22.3764 14.3491 22.2029 13.9603C21.5054 12.3723 20.9922 11.0624 21.0562 11.0351C21.1201 11.0078 21.7391 12.2724 22.4367 13.8622L22.9187 14.985C23.0219 15.161 23.06 15.3673 23.0265 15.5683C23.0066 15.6218 22.9749 15.6703 22.9339 15.7102C22.8928 15.7501 22.8434 15.7805 22.7891 15.799C22.7074 15.825 22.6227 15.8409 22.5371 15.8462C21.9418 15.908 21.5729 15.928 21.5693 15.8953Z" fill="#0E1339"/>
<path d="M19.6156 9.38726C19.5462 9.53806 19.0331 9.40179 18.4123 9.4127C17.7914 9.4236 17.2746 9.5526 17.2089 9.40179C17.1815 9.32912 17.2856 9.18922 17.5029 9.06022C17.7816 8.90361 18.0958 8.82044 18.4159 8.81857C18.7354 8.81368 19.0505 8.89331 19.3289 9.04932C19.5481 9.1765 19.6467 9.31458 19.6156 9.38726Z" fill="#0E1339"/>
<path d="M24.9003 8.85299C24.7834 8.99289 24.2904 8.87843 23.7079 8.90204C23.1254 8.92566 22.6342 9.04376 22.5136 8.90204C22.4607 8.83664 22.5319 8.69855 22.7401 8.56229C23.0305 8.3913 23.3613 8.29979 23.6987 8.29702C24.0347 8.28316 24.3682 8.35907 24.6647 8.51686C24.8765 8.65313 24.9514 8.78576 24.9003 8.85299Z" fill="#0E1339"/>
<path d="M25.2671 7.63757C25.2671 7.63757 24.1386 5.30286 22.9553 4.80322C21.5237 4.19819 20.9977 5.75708 19.6446 5.45185C18.2915 5.14661 16.9256 4.56702 15.6182 5.65715C14.1847 6.85267 14.9225 7.60668 14.9133 9.29094C14.8823 16.157 13.7227 18.1556 13.2041 14.9487C13.1475 14.5963 12.1469 14.3637 11.9259 12.8775C11.641 10.9516 11.4475 8.60416 11.8145 7.20878C12.1213 6.03325 12.7458 5.1993 13.8926 4.25815C15.7004 2.77375 18.2751 2.62294 20.0409 2.7047C21.8067 2.78646 25.278 4.64333 25.2671 7.63757Z" fill="#0E1339"/>
<path d="M13.4379 14.843C13.4265 14.7034 13.3867 14.5676 13.3209 14.4438C13.2552 14.32 13.1648 14.2108 13.0554 14.1228C12.9459 14.0348 12.8197 13.9698 12.6842 13.9318C12.5487 13.8939 12.407 13.8836 12.2674 13.9018C11.5571 14.0054 10.7828 14.4469 10.9034 15.9131C11.117 18.5113 13.6954 17.7609 13.6936 17.6864C13.6917 17.6119 13.5384 15.9295 13.4379 14.843Z" fill="#C17560"/>
<path d="M13.0454 16.7563C13.0326 16.7563 13.0016 16.7908 12.9286 16.8326C12.8241 16.8873 12.7024 16.8997 12.5889 16.8671C12.3041 16.789 12.0411 16.3711 11.9863 15.9041C11.9601 15.6822 11.9851 15.4573 12.0594 15.2464C12.077 15.163 12.1148 15.0852 12.1695 15.0196C12.2243 14.9541 12.2943 14.9028 12.3734 14.8703C12.4247 14.8527 12.4804 14.8532 12.5313 14.8718C12.5822 14.8903 12.6251 14.9257 12.6528 14.9721C12.693 15.0429 12.6802 15.0956 12.6948 15.0992C12.7094 15.1029 12.7478 15.0502 12.7167 14.9448C12.6975 14.8816 12.6569 14.8271 12.6017 14.7904C12.5251 14.7424 12.4327 14.7261 12.3442 14.745C12.2387 14.7746 12.1426 14.8308 12.0652 14.9082C11.9878 14.9855 11.9317 15.0813 11.9023 15.1865C11.8091 15.4206 11.7753 15.6739 11.8037 15.9241C11.864 16.4456 12.1689 16.9143 12.5597 16.9925C12.6316 17.0072 12.7059 17.0055 12.7771 16.9876C12.8482 16.9697 12.9144 16.9359 12.9706 16.8889C13.0454 16.818 13.0619 16.7599 13.0454 16.7563Z" fill="#7C4236"/>
<path d="M13.2443 9.7975C13.5949 10.0119 13.9656 10.2317 14.3764 10.2517C14.7873 10.2717 15.2438 10.0155 15.2895 9.60855C15.3114 9.42686 15.2566 9.21792 15.3698 9.06348C15.5049 8.88179 15.7697 8.92903 15.9907 8.94175C16.7558 8.98354 17.6013 8.10416 17.7583 7.35924C17.865 7.49238 18.018 7.58082 18.1871 7.60707C18.3562 7.63331 18.529 7.59544 18.6713 7.50095C18.9055 7.34157 19.1095 7.14228 19.2739 6.91228C19.4912 6.63975 19.8017 6.39083 20.1504 6.42172C20.344 6.43989 20.5303 6.54527 20.7238 6.51801C21.0671 6.47077 21.215 6.06197 21.2497 5.7204C21.2844 5.37882 21.3045 4.98092 21.5875 4.78288C21.8706 4.58484 22.2029 4.67932 22.5207 4.7102C22.8384 4.74109 23.2511 4.64661 23.3095 4.33592C23.319 4.25268 23.3115 4.16838 23.2873 4.08812C23.2631 4.00786 23.2229 3.93331 23.1689 3.86898C22.9411 3.56397 22.6166 3.34426 22.2478 3.24536C21.879 3.14646 21.4875 3.17413 21.1365 3.32391C20.9844 2.89803 20.709 2.52651 20.3449 2.25626C19.9808 1.986 19.5444 1.82911 19.0908 1.8054C18.6372 1.78168 18.1867 1.89221 17.7961 2.12301C17.4056 2.35382 17.0925 2.69457 16.8964 3.10225C16.606 2.8653 16.2624 2.70159 15.8949 2.625C15.5273 2.54842 15.1466 2.56123 14.785 2.66235C14.4235 2.76348 14.0918 2.94992 13.8182 3.20585C13.5445 3.46178 13.337 3.77964 13.2132 4.13243C12.8879 4.06345 12.5493 4.09149 12.2399 4.21304C11.9305 4.33458 11.664 4.54424 11.4737 4.81576C11.2835 5.08728 11.1779 5.40861 11.1704 5.73951C11.1628 6.07042 11.2534 6.3962 11.431 6.67608C10.9745 6.96679 10.5947 7.4519 10.6111 7.99151C10.6275 8.53113 11.1827 9.04168 11.7067 8.87271C11.6127 9.08984 11.605 9.33444 11.6854 9.55697C11.7658 9.77949 11.9282 9.9633 12.1396 10.0712C12.3511 10.179 12.5959 10.2029 12.8244 10.1379C13.0529 10.0729 13.248 9.92397 13.3703 9.7212" fill="#0E1339"/>
<path d="M21.3776 4.09229C21.3796 4.10858 21.3796 4.12505 21.3776 4.14134C21.3765 4.18814 21.3728 4.23484 21.3667 4.28124C21.3414 4.45947 21.2858 4.63212 21.2023 4.79179C21.0719 5.04525 20.8844 5.26535 20.6545 5.43497C20.3524 5.66819 19.9814 5.79589 19.599 5.79835L19.641 5.73839C19.732 5.97334 19.7261 6.23451 19.6246 6.46515C19.5187 6.70447 19.3784 6.92724 19.2083 7.1265C19.1266 7.24031 19.0336 7.34562 18.9307 7.44082C18.8112 7.53072 18.6714 7.58999 18.5235 7.61342C18.3704 7.64344 18.2123 7.63561 18.063 7.59063C17.9136 7.54565 17.7777 7.46488 17.6671 7.35543L17.762 7.32272C17.7393 7.59482 17.6597 7.8592 17.5282 8.09887C17.3968 8.33855 17.2164 8.54823 16.9987 8.71446C16.7593 8.90993 16.4626 9.02278 16.1533 9.03605C15.8618 9.03718 15.5722 8.98926 15.2968 8.89433L15.3662 8.85981C15.2465 9.18163 15.0475 9.46839 14.7874 9.69377C14.6689 9.80642 14.5265 9.89118 14.3707 9.94181C14.2149 9.99243 14.0496 10.0076 13.8871 9.98629C13.6094 9.94075 13.351 9.81533 13.144 9.6255C12.937 9.43566 12.7903 9.18971 12.7221 8.91795L12.7824 8.94339C12.5153 9.10446 12.2005 9.16865 11.8912 9.12508C11.6612 9.09354 11.4417 9.00892 11.2503 8.87798C11.1301 8.79516 11.0256 8.69182 10.9417 8.57274C10.9114 8.53269 10.8868 8.48867 10.8687 8.44193C10.978 8.5983 11.1154 8.7332 11.274 8.83983C11.4621 8.96084 11.6759 9.03672 11.8986 9.06149C12.1918 9.09815 12.4888 9.03405 12.7404 8.8798L12.7878 8.84891L12.8006 8.90342C12.8682 9.15565 13.0075 9.3831 13.2019 9.55843C13.3963 9.73377 13.6374 9.84953 13.8963 9.89181C14.0442 9.90906 14.1942 9.8934 14.3354 9.84596C14.4765 9.79851 14.6053 9.72047 14.7125 9.61746C14.9576 9.40209 15.1458 9.13005 15.2603 8.82529L15.2768 8.77624L15.3279 8.79259C15.5911 8.88264 15.8676 8.92808 16.146 8.92704C16.4318 8.91457 16.7057 8.80927 16.9257 8.62725C17.1327 8.47138 17.3046 8.27415 17.4304 8.04823C17.5562 7.82231 17.633 7.57271 17.6561 7.31545L17.6652 7.1919L17.7511 7.28457C17.8494 7.38067 17.9698 7.45156 18.1018 7.49112C18.2338 7.53068 18.3735 7.53774 18.5089 7.51168C18.6413 7.49247 18.7669 7.44063 18.8741 7.36088C18.9723 7.27334 19.0605 7.17523 19.137 7.06836C19.3027 6.87688 19.4398 6.66272 19.5443 6.43244C19.5912 6.33064 19.6174 6.2206 19.6215 6.10867C19.6256 5.99673 19.6074 5.8851 19.568 5.78018L19.5443 5.7184H19.61C19.9745 5.72182 20.3303 5.60702 20.6234 5.39136C20.8494 5.2309 21.0365 5.02235 21.1713 4.78089C21.28 4.56512 21.3498 4.33206 21.3776 4.09229Z" fill="#737690"/>
<path d="M21.5401 17.9029C21.52 17.8066 20.8845 17.9738 20.2892 17.5396C19.6939 17.1053 19.5844 16.424 19.4949 16.4494C19.4529 16.4494 19.4109 16.6311 19.4784 16.92C19.5719 17.2918 19.7935 17.6191 20.1048 17.8448C20.4048 18.0608 20.777 18.1532 21.1438 18.1028C21.4159 18.0574 21.5547 17.9465 21.5401 17.9029Z" fill="#0E1339"/>
<path d="M6 73C6 73 7.07593 63.5944 9.13937 60.6401L33.9336 61.6394L35 73.0314L6 73Z" fill="#0E1339"/>
<path d="M14.0094 24.9158C14.0094 24.9158 14.4878 27.4376 20.8973 29.0619C20.8973 29.0619 23.8372 27.1633 23.2401 24.665L30.6466 29.0674L32.4179 49.8072L34.7917 64.4132C27.451 68.1906 17.079 67.2948 7.20185 64.3187L10.0706 55.2961L9.82589 51.6241L6.60107 32.1252L12.3751 26.3802L14.0094 24.9158Z" fill="#ABE8FF"/>
<path d="M27.7603 32.2523L25.4882 32.4029C25.1954 32.4223 24.9738 32.6742 24.9933 32.9655L24.9942 32.9782C25.0137 33.2696 25.2669 33.49 25.5597 33.4706L27.8317 33.3201C28.1246 33.3007 28.3461 33.0488 28.3266 32.7574L28.3258 32.7447C28.3063 32.4534 28.0531 32.2329 27.7603 32.2523Z" fill="#00ACE9"/>
<path d="M14.4367 46.1046C14.4367 46.1228 14.1646 46.0519 13.7208 46.0301C13.4611 46.0187 13.2008 46.0297 12.9429 46.0628C12.6288 46.1076 12.3195 46.1812 12.019 46.2826C11.7203 46.3911 11.4329 46.528 11.1607 46.6914C10.9393 46.8261 10.7304 46.9799 10.5362 47.1511C10.2057 47.4455 10.0395 47.6689 10.0249 47.6562C10.0551 47.5983 10.0918 47.544 10.1345 47.4945C10.1784 47.4303 10.2272 47.3695 10.2805 47.3128C10.3466 47.2365 10.4167 47.1637 10.4906 47.0948C10.6824 46.9134 10.8916 46.7509 11.1151 46.6097C11.3909 46.4395 11.6833 46.2977 11.9879 46.1863C12.2946 46.0812 12.6117 46.0087 12.9338 45.9701C13.1963 45.94 13.4612 45.9358 13.7245 45.9574C13.8256 45.9635 13.9262 45.9756 14.0258 45.9938C14.1017 46.0034 14.1768 46.0186 14.2504 46.0392C14.3154 46.0518 14.3781 46.0738 14.4367 46.1046Z" fill="#7C4236"/>
<path d="M23.24 24.6616C23.3824 24.6616 28.3237 26.0388 29.0578 26.255C29.0962 26.2678 31.03 26.9364 31.0665 26.9418C31.5193 27 34.2913 28.0429 35.4125 30.5066C36.426 32.7323 38.0055 37.9558 38.0055 37.9558L30.4201 37.2454L30.7743 32.5469L24.2955 26.7692L23.24 24.6616Z" fill="#ABE8FF"/>
<path d="M30.3871 31.5044C30.409 31.5815 30.4224 31.6606 30.4272 31.7406C30.4472 31.895 30.4691 32.1185 30.4892 32.3947C30.5329 32.9397 30.5657 33.7119 30.5493 34.5568C30.5329 35.4016 30.4691 36.1665 30.4053 36.7171C30.3725 36.9914 30.3416 37.2149 30.316 37.3675C30.3085 37.4471 30.2926 37.5256 30.2687 37.6019C30.2638 37.5218 30.2675 37.4414 30.2796 37.3621C30.296 37.1895 30.3142 36.9714 30.3379 36.7098C30.3853 36.1647 30.4381 35.398 30.4545 34.555C30.4709 33.7119 30.4545 32.9506 30.4236 32.3983C30.409 32.1367 30.3981 31.9168 30.3908 31.7442C30.3816 31.6646 30.3804 31.5843 30.3871 31.5044Z" fill="#0E1339"/>
<path d="M30.9816 27.2358C30.9516 27.3958 30.9108 27.5537 30.8595 27.7082C30.6502 28.4627 30.5237 29.2376 30.4823 30.0193C30.482 30.1823 30.4699 30.345 30.4459 30.5062C30.4165 30.3451 30.4061 30.1811 30.4149 30.0175C30.4183 29.2265 30.5468 28.4411 30.7957 27.6901C30.8394 27.5318 30.9018 27.3793 30.9816 27.2358Z" fill="#0E1339"/>
<path d="M28.8552 34.2035L15.1597 34.9702C14.9749 34.9805 14.8014 35.0623 14.6762 35.198C14.551 35.3338 14.484 35.5128 14.4896 35.6969L14.9589 54.2838C14.9623 54.4138 14.992 54.5419 15.0461 54.6603C15.1002 54.7788 15.1777 54.8852 15.2739 54.9733C15.3701 55.0614 15.4831 55.1294 15.6062 55.1732C15.7293 55.2171 15.86 55.2359 15.9906 55.2286L29.392 54.4709C29.6459 54.455 29.8834 54.341 30.0539 54.1533C30.2245 53.9656 30.3146 53.719 30.3051 53.4662L29.6422 34.9175C29.639 34.8188 29.6159 34.7217 29.5743 34.632C29.5327 34.5423 29.4735 34.4618 29.4002 34.3952C29.3268 34.3286 29.2408 34.2774 29.1472 34.2445C29.0536 34.2115 28.9543 34.1976 28.8552 34.2035Z" fill="#0E1339"/>
<g opacity="0.3">
<path opacity="0.3" d="M10.582 54.6639C12.0118 55.4488 13.763 55.3307 15.37 55.04C17.5122 54.6538 19.5977 54.0038 21.5786 53.105C22.7984 52.5599 23.9981 51.8967 25.3183 51.6642C27.4658 51.2844 30.4313 51.5988 32.5751 51.1573L32.4491 49.4676L24.9056 48.5464L10.582 54.6639Z" fill="#2D3259"/>
</g>
<path d="M19.8986 34.9088C19.8986 34.9088 19.307 34.0403 19.5462 33.7732C19.7087 33.5915 23.7918 33.3335 24.062 33.5443C24.2191 33.6678 23.9032 34.6344 23.9032 34.6344L19.8986 34.9088Z" fill="#CDF1FF"/>
<path d="M19.8986 34.9088C19.9245 34.9004 19.9516 34.8961 19.9789 34.8961L20.2053 34.8725L21.0417 34.8016L23.8995 34.5872L23.8593 34.6181C23.9346 34.3969 23.9955 34.1712 24.0419 33.9422C24.0686 33.8315 24.0729 33.7167 24.0547 33.6043C24.0547 33.5898 24.0437 33.5916 24.0419 33.5825L24.0163 33.5698C23.9887 33.5616 23.9607 33.555 23.9323 33.5498C23.8739 33.5498 23.8118 33.5334 23.7497 33.5298C23.0429 33.5041 22.3352 33.5157 21.6297 33.5643C20.9759 33.6025 20.388 33.6479 19.9022 33.7169C19.8401 33.726 19.7817 33.7351 19.7196 33.7478C19.669 33.7559 19.6198 33.7712 19.5735 33.7933C19.5476 33.8335 19.5306 33.8788 19.5237 33.9261C19.5168 33.9734 19.5201 34.0217 19.5334 34.0676C19.5694 34.2285 19.6259 34.3842 19.7014 34.5309C19.7616 34.6545 19.8146 34.7471 19.8493 34.8107C19.8699 34.8417 19.8876 34.8746 19.9022 34.9088C19.8759 34.8818 19.8526 34.8519 19.8328 34.8198C19.7927 34.7598 19.7342 34.669 19.6685 34.5473C19.5863 34.3995 19.5248 34.2411 19.4859 34.0767C19.4696 34.0222 19.4656 33.9648 19.4741 33.9086C19.4826 33.8524 19.5035 33.7987 19.5352 33.7515C19.5903 33.7162 19.6527 33.6939 19.7178 33.6861C19.7762 33.6715 19.8365 33.6606 19.9004 33.6497C20.3916 33.5716 20.9796 33.5207 21.6333 33.4771C22.3429 33.4221 23.055 33.4082 23.7662 33.4353C23.8301 33.4353 23.894 33.4462 23.9597 33.4571C23.9931 33.4626 24.0261 33.4705 24.0583 33.4808C24.0779 33.4885 24.0963 33.4989 24.1131 33.5116C24.1295 33.5284 24.1426 33.5481 24.1515 33.5698C24.18 33.6978 24.18 33.8305 24.1515 33.9586C24.1053 34.1917 24.0443 34.4217 23.9688 34.6472L23.9597 34.6763H23.9287L21.0472 34.858L20.2163 34.9016L19.9953 34.9106C19.9631 34.9138 19.9306 34.9132 19.8986 34.9088Z" fill="#0E1339"/>
<path d="M28.4884 35.0906H28.4427L28.3058 35.1015L27.7817 35.1342L25.8515 35.2396L19.4841 35.5485L15.2531 35.7447L15.2933 35.7029C15.2933 37.1183 15.2933 38.3047 15.2933 39.155C15.2933 39.5674 15.2933 39.8927 15.2933 40.1252C15.2933 40.2324 15.2933 40.316 15.2933 40.3814C15.2977 40.4103 15.2977 40.4397 15.2933 40.4686C15.2913 40.4396 15.2913 40.4104 15.2933 40.3814C15.2933 40.3178 15.2933 40.2324 15.2933 40.1252C15.2933 39.8927 15.2823 39.5674 15.275 39.155C15.2641 38.3138 15.2495 37.1255 15.2312 35.7029V35.6629H15.2531L19.4804 35.454L25.8442 35.1778L27.7744 35.1033L28.3003 35.087H28.4354C28.4531 35.0848 28.4711 35.086 28.4884 35.0906Z" fill="#737690"/>
<path d="M23.6858 34.4855C23.6139 34.5026 23.5405 34.5129 23.4667 34.5164L22.8659 34.5691C22.3583 34.6091 21.6571 34.6581 20.8828 34.7072C20.1086 34.7562 19.4055 34.7944 18.8961 34.818L18.2935 34.8416C18.22 34.8483 18.146 34.8483 18.0725 34.8416C18.1437 34.8206 18.2174 34.809 18.2916 34.8071C18.4322 34.7926 18.6386 34.7744 18.8924 34.7544C19.4001 34.7126 20.1013 34.6636 20.8755 34.6145C21.6498 34.5655 22.3528 34.5273 22.8623 34.5037L23.4649 34.4819C23.5384 34.4737 23.6126 34.4749 23.6858 34.4855Z" fill="#0E1339"/>
<path d="M19.4512 34.7017L19.5406 35.8409L24.3706 35.5974L24.2993 34.4219L19.4512 34.7017Z" fill="#CDF1FF"/>
<path d="M19.4529 34.7016C19.4817 34.6951 19.5111 34.6915 19.5406 34.6906L19.809 34.6688L20.8224 34.5962C21.688 34.538 22.9078 34.4581 24.292 34.3745H24.3376V34.4199C24.3595 34.7833 24.3833 35.1758 24.4088 35.5682V35.6354H24.3614C22.3673 35.7354 20.6051 35.8171 19.5296 35.8607H19.5022V35.8353C19.4803 35.4719 19.4639 35.1921 19.4511 34.985L19.4401 34.7651C19.4376 34.741 19.4376 34.7166 19.4401 34.6925C19.4457 34.7194 19.4494 34.7468 19.4511 34.7742L19.4766 34.9995C19.4967 35.203 19.5241 35.4828 19.557 35.8298L19.5296 35.8044C20.6015 35.739 22.3655 35.6409 24.3577 35.541L24.3139 35.59V35.5628C24.2901 35.1703 24.2664 34.7851 24.2445 34.4145L24.2938 34.4581L20.848 34.6398L19.8218 34.687L19.5424 34.6961L19.4529 34.7016Z" fill="#0E1339"/>
<path d="M3.88599 40.694C3.88599 40.694 4.47398 45.0545 5.72848 48.3758C6.98298 51.6971 8.62826 54.5769 10.4762 54.6931C12.3242 54.8094 18.6661 53.6793 21.3321 52.1967C23.9982 50.7141 25.7987 49.7021 25.7987 49.7021L29.6334 47.0513L26.4195 43.4629C26.4195 43.4629 17.9539 46.0756 16.5424 46.1537C15.6953 46.1992 14.8458 46.1449 14.0115 45.992C14.0115 45.992 14.2324 42.5218 13.8398 41.1573C13.4472 39.7928 12.2347 37.2183 12.2347 37.2183L3.88599 40.694Z" fill="#C17560"/>
<path d="M26.7371 42.5395C26.9279 41.869 27.1658 41.2127 27.4492 40.5754C27.8729 39.6579 27.9788 38.6059 28.0226 38.0318C28.0664 37.4576 27.9623 36.3021 28.3878 36.0459C28.8133 35.7897 29.7939 35.7007 29.8231 37.1597C29.8523 38.6186 29.3885 39.3999 29.5675 40.0758C29.6749 40.48 29.8535 40.862 30.0952 41.2041L30.4129 40.986L30.7051 42.1979L26.7371 42.5395Z" fill="#C17560"/>
<path d="M14.3217 40.0938L17.3383 41.5764C17.3383 41.5764 22.5517 43.019 24.785 42.7465C27.0183 42.474 30.7032 42.2014 30.7032 42.2014C30.7032 42.2014 30.0495 39.4906 30.3106 37.5193C31.5495 36.5661 33.1175 36.1401 34.6713 36.3347C37.246 36.6581 37.9582 37.8409 38.0075 37.959C38.4567 39.1218 40.186 47.8956 37.4432 49.727C34.7005 51.5584 26.6257 50.045 24.7065 49.3763C23.0868 48.8113 18.6275 47.038 17.037 46.4057C16.6599 46.2553 16.2611 46.1657 15.8556 46.1405L13.9364 46.0224V44.5198C13.9474 43.2063 13.7628 41.8985 13.3886 40.6389L13.0398 39.1745L14.3217 40.0938Z" fill="#C17560"/>
<path d="M14.3218 40.0939L14.2378 40.0394L13.9968 39.8668L13.0417 39.1836L13.0637 39.1691C13.1458 39.5107 13.2463 39.9122 13.354 40.3682C13.4033 40.599 13.48 40.8352 13.5476 41.095C13.6151 41.3548 13.6772 41.6219 13.7302 41.909C13.855 42.5365 13.9332 43.1723 13.9639 43.8112C13.9822 44.1565 13.9822 44.5144 13.9785 44.885C13.9749 45.2557 13.9785 45.6354 13.9785 46.0297L13.9511 46.0006L15.2622 46.0787L15.9506 46.1223C16.1885 46.1404 16.424 46.1817 16.6537 46.2459C16.8886 46.3141 17.1191 46.3967 17.3439 46.493L18.0397 46.7691L19.4859 47.3415L22.5902 48.5479C23.138 48.755 23.6858 48.964 24.2336 49.1693C24.5149 49.271 24.7961 49.3764 25.0882 49.46C25.3804 49.5435 25.6762 49.6199 25.9775 49.6907C27.2201 49.9748 28.477 50.1931 29.7429 50.3448C31.0748 50.5144 32.4178 50.5831 33.7602 50.5501C34.4529 50.5299 35.1426 50.4509 35.8218 50.3139C36.164 50.2395 36.4993 50.1368 36.8243 50.0069C37.1529 49.875 37.4544 49.684 37.7136 49.4436C37.9634 49.1937 38.1635 48.899 38.3034 48.5751C38.4525 48.25 38.567 47.9102 38.6449 47.5613C38.8028 46.8521 38.8903 46.1291 38.906 45.4028C38.9311 43.9973 38.8377 42.5922 38.6266 41.2022C38.5298 40.5172 38.4148 39.8395 38.2724 39.1745C38.1993 38.842 38.1245 38.5114 38.0295 38.1916C38.0058 38.1116 37.9784 38.0299 37.951 37.959C37.9117 37.8885 37.8652 37.8221 37.8122 37.761C37.7068 37.6343 37.5887 37.5187 37.4598 37.4158C36.9367 37.0153 36.3343 36.7299 35.6921 36.5782C35.0686 36.4094 34.4246 36.3274 33.7784 36.3347C33.149 36.3504 32.5262 36.4669 31.9341 36.6799C31.3555 36.881 30.8139 37.175 30.3308 37.5502L30.3455 37.523C30.2626 38.3206 30.2675 39.1248 30.3601 39.9213C30.4405 40.6843 30.5655 41.442 30.7344 42.1906V42.236H30.6888C29.2279 42.3468 27.8255 42.4631 26.5144 42.5885L24.6135 42.7865C24.0199 42.8216 23.4244 42.8004 22.8349 42.7229C21.799 42.5967 20.7702 42.4184 19.7525 42.1888C18.8303 41.9871 18.0177 41.7818 17.3165 41.591L15.0778 40.4809L14.5227 40.1956C14.393 40.1302 14.3291 40.0939 14.3291 40.0939C14.3291 40.0939 14.3967 40.1229 14.5263 40.1865L15.107 40.4663L17.3549 41.5565C18.0543 41.7382 18.8687 41.9453 19.7908 42.1433C20.713 42.3414 21.7374 42.5412 22.8678 42.6666C23.4538 42.7411 24.0456 42.7606 24.6354 42.7247L26.5345 42.5231C27.8456 42.3923 29.2407 42.2742 30.7107 42.1597L30.6741 42.2087C30.5041 41.4572 30.3779 40.6964 30.2962 39.9304C30.2014 39.1273 30.1953 38.3164 30.2779 37.5121V37.4957L30.2907 37.4848C30.7814 37.1029 31.3316 36.8034 31.9195 36.5982C32.5206 36.3802 33.1534 36.2611 33.7931 36.2457C34.4477 36.2374 35.1003 36.3193 35.7323 36.4892C36.3875 36.6449 37.0023 36.9365 37.5365 37.3449C37.67 37.4537 37.7923 37.5755 37.9017 37.7083C37.959 37.775 38.0092 37.8475 38.0514 37.9245C38.0861 38.0081 38.1098 38.088 38.1354 38.1698C38.2322 38.495 38.3071 38.8275 38.3801 39.16C38.5244 39.8286 38.6394 40.5063 38.7453 41.1949C38.9453 42.5895 39.0277 43.9982 38.9918 45.4065C38.9764 46.1401 38.8883 46.8703 38.7289 47.5868C38.6477 47.9415 38.5308 48.2872 38.3801 48.6187C38.2352 48.9528 38.0283 49.2567 37.7702 49.5145C37.2333 50.0214 36.5212 50.2412 35.8401 50.3993C35.155 50.5379 34.459 50.6169 33.7602 50.6355C32.4128 50.6703 31.0647 50.6004 29.7283 50.4266C28.4585 50.2741 27.198 50.054 25.952 49.767C25.6507 49.6962 25.353 49.6199 25.059 49.5345C24.765 49.4491 24.4802 49.3437 24.1989 49.2419C23.6365 49.0348 23.0869 48.8241 22.5555 48.6169L19.4512 47.4051L18.005 46.8291L17.3111 46.5529C17.0886 46.4564 16.8606 46.3733 16.6281 46.304C16.4024 46.2417 16.1713 46.2003 15.9379 46.1805L15.2513 46.1369L13.9402 46.0551H13.9109V46.026C13.9109 45.6312 13.914 45.249 13.9201 44.8796C13.9201 44.5162 13.9201 44.1528 13.9091 43.8094C13.8804 43.1745 13.806 42.5424 13.6863 41.918C13.6316 41.6328 13.5695 41.3621 13.5037 41.1077C13.438 40.8533 13.365 40.6135 13.3211 40.3809L13.0381 39.18V39.1436L13.0673 39.1654L14.0132 39.8595L14.2506 40.0412L14.3218 40.0939Z" fill="#7C4236"/>
<path d="M35.1825 45.5598C35.1021 45.2769 35.0064 44.9985 34.8958 44.7259C34.6129 44.0752 34.1646 43.509 33.595 43.083C33.0254 42.6571 32.3541 42.3861 31.6472 42.2967C31.3537 42.2657 31.0586 42.2511 30.7634 42.2531C30.8409 42.2321 30.9206 42.2205 31.0008 42.2186C31.2192 42.2028 31.4386 42.2065 31.6564 42.2295C32.3807 42.3031 33.071 42.5722 33.6528 43.0077C34.2347 43.4431 34.6859 44.0284 34.9579 44.7004C35.0403 44.9014 35.1045 45.1094 35.1496 45.3218C35.1707 45.3994 35.1817 45.4794 35.1825 45.5598Z" fill="#7C4236"/>
<path d="M14.0095 24.916C13.721 25.1068 8.32678 27.3488 7.80088 27.6177C7.80088 27.6177 2.03784 29.798 2.72079 35.9028C3.10061 39.2913 3.72512 42.0584 3.72512 42.0584C3.72512 42.0584 6.18664 40.5795 7.92505 39.8691C10.1638 38.9606 12.8846 38.5536 12.8846 38.5536L11.3507 33.1338L14.0095 24.916Z" fill="#ABE8FF"/>
<path d="M11.2358 33.3242C11.2614 33.3242 11.6594 34.5415 12.1269 36.0586C12.5944 37.5757 12.9523 38.8149 12.9267 38.8221C12.9012 38.8294 12.5031 37.6066 12.0356 36.0877C11.5681 34.5688 11.2175 33.3315 11.2358 33.3242Z" fill="#0E1339"/>
<path d="M10.4522 31.593C10.2916 31.3905 10.1197 31.197 9.9373 31.0135L9.79852 30.8863L9.63782 30.7609C9.52085 30.6684 9.39894 30.5823 9.27261 30.5029C8.98248 30.3201 8.677 30.1627 8.35958 30.0323C7.78073 29.7858 7.16241 29.6437 6.53352 29.6126C6.27407 29.6113 6.015 29.6326 5.75928 29.6762C5.82327 29.6459 5.89071 29.6233 5.96014 29.609C6.14833 29.5669 6.34063 29.5456 6.53352 29.5454C7.17152 29.5581 7.80098 29.6938 8.38697 29.9451C8.71034 30.0778 9.02085 30.2395 9.31461 30.4284C9.44426 30.5229 9.57391 30.6101 9.67983 30.6991L9.84051 30.8318L9.97747 30.9662C10.0567 31.0416 10.13 31.123 10.1966 31.2097C10.2513 31.2717 10.3002 31.3386 10.3427 31.4095C10.3857 31.4666 10.4224 31.5281 10.4522 31.593Z" fill="#0E1339"/>
<path d="M4.97214 41.4151C4.95717 41.384 4.94672 41.351 4.9411 41.317C4.92284 41.2407 4.8991 41.1462 4.86988 41.0299C4.80962 40.7792 4.72928 40.4176 4.63432 39.967C4.45171 39.0695 4.21067 37.8213 4.00616 36.435C3.80164 35.0487 3.66833 33.7859 3.60077 32.8702C3.56608 32.4124 3.54416 32.0417 3.53503 31.7801C3.53503 31.6602 3.53503 31.5621 3.5259 31.4839C3.52197 31.4495 3.52197 31.4148 3.5259 31.3804C3.5358 31.4141 3.54133 31.4489 3.54234 31.4839C3.54234 31.5602 3.55695 31.6656 3.5679 31.7783C3.59164 32.0454 3.62451 32.4124 3.66286 32.8593C3.74868 33.7678 3.89111 35.0396 4.09563 36.4168C4.30015 37.794 4.52476 39.0477 4.69823 39.9488C4.78223 40.3903 4.85162 40.7519 4.90275 41.0154C4.92466 41.1335 4.94292 41.2298 4.9557 41.3061C4.96572 41.3416 4.97124 41.3782 4.97214 41.4151Z" fill="#0E1339"/>
<path d="M5.55848 41.0171C5.54514 40.9832 5.53595 40.9478 5.53109 40.9117C5.51466 40.8336 5.4964 40.73 5.47266 40.6101C5.42336 40.3357 5.35579 39.9578 5.27544 39.4981C5.11475 38.557 4.91024 37.2561 4.68746 35.8171C4.46468 34.3781 4.2912 33.07 4.17981 32.1234C4.12503 31.6492 4.0812 31.264 4.05929 30.9987L4.03372 30.6917C4.02977 30.656 4.02977 30.6201 4.03372 30.5845C4.04539 30.6186 4.05275 30.654 4.05564 30.6899C4.06659 30.7698 4.0812 30.8715 4.09764 30.9951C4.13416 31.2713 4.18529 31.651 4.24738 32.1143C4.37703 33.0591 4.56693 34.3636 4.78241 35.8026C4.99788 37.2416 5.19875 38.5279 5.34301 39.4872C5.4124 39.9506 5.46901 40.3285 5.51101 40.6046C5.52744 40.7282 5.54022 40.8299 5.55118 40.9099C5.55694 40.9453 5.55939 40.9812 5.55848 41.0171Z" fill="#0E1339"/>
<g opacity="0.3">
<path opacity="0.3" d="M12.8464 39.0244C13.8555 40.9493 14.3645 43.0948 14.3274 45.2654C16.0688 45.4314 17.7214 46.1087 19.0751 47.2113C18.2698 46.6663 16.2794 45.9922 13.9421 46.0267C14.0589 42.4147 13.6097 41.4391 12.8464 39.0244Z" fill="#2D3259"/>
</g>
<path d="M23.2401 24.6255C23.2806 24.7154 23.3094 24.81 23.326 24.9071C23.3497 25.0016 23.3789 25.1179 23.41 25.2578L23.4921 25.7411C23.6379 26.7759 23.7129 27.8194 23.7167 28.8643C23.735 30.1906 23.6857 31.7713 23.5341 33.5355C23.3736 35.4543 23.0979 37.3618 22.7088 39.2479L22.643 39.5658L22.4604 39.3005L21.8669 38.4684C20.5978 36.706 19.3689 35.0363 18.3244 33.4665C17.2799 31.8967 16.3869 30.4523 15.7058 29.195C15.1547 28.2081 14.6927 27.1744 14.3253 26.1063C14.2596 25.9246 14.2121 25.7429 14.1701 25.5993C14.1281 25.4558 14.0952 25.325 14.0733 25.2232C14.0427 25.1204 14.0243 25.0143 14.0186 24.9071C14.0441 24.9071 14.1519 25.3286 14.4294 26.0699C14.838 27.1134 15.3264 28.1241 15.8903 29.0932C16.5878 30.3269 17.5063 31.7532 18.5508 33.3157C19.5953 34.8782 20.8352 36.5334 22.108 38.2976L22.7015 39.1316L22.4458 39.1843C22.8339 37.3088 23.1168 35.4132 23.2931 33.5065C23.4611 31.7568 23.5305 30.1797 23.5378 28.8607C23.5515 27.8221 23.5063 26.7836 23.4027 25.7501L23.3461 25.265C23.3241 25.127 23.3041 25.0107 23.2895 24.9144C23.2611 24.8205 23.2445 24.7234 23.2401 24.6255Z" fill="#737690"/>
<path d="M21.0104 40.6687C20.9647 40.419 20.9926 40.1616 21.0907 39.9274C21.2167 39.6021 21.5143 39.2424 22.2064 39.2006C22.6272 39.1671 23.0506 39.1915 23.4646 39.2733C23.5678 39.2971 23.6651 39.3416 23.7505 39.4041C23.8359 39.4665 23.9076 39.5457 23.9613 39.6367L24.9893 41.3464L24.8633 41.9514L23.6618 42.2348L22.9022 41.3264L22.1096 41.4608C22.1096 41.4608 21.2258 41.6425 21.014 40.6687H21.0104Z" fill="#00ACE9"/>
<path d="M21.6133 39.3496C21.6133 39.3496 21.6279 39.3387 21.6571 39.326C21.6999 39.3073 21.7446 39.2933 21.7904 39.2842C21.962 39.2443 22.142 39.2629 22.3017 39.3369C22.538 39.4489 22.7306 39.6354 22.8495 39.8674L23.3024 40.665L23.8502 41.6589L23.8027 41.6389C24.157 41.5444 24.4528 41.4681 24.661 41.4172C24.7692 41.3838 24.8805 41.3613 24.9933 41.35C24.8914 41.3983 24.785 41.4367 24.6756 41.4645C24.4711 41.5281 24.1771 41.6171 23.8246 41.7188H23.7936L23.7772 41.6898C23.611 41.3954 23.4119 41.0593 23.2166 40.7032C22.8824 40.1581 22.6797 39.5549 22.2761 39.3878C22.1289 39.3144 21.9625 39.2878 21.7995 39.3115C21.7383 39.3278 21.6761 39.3406 21.6133 39.3496Z" fill="#0E1339"/>
<path d="M23.693 42.2435C23.6675 42.2435 23.673 42.1072 23.7058 41.9509C23.7386 41.7947 23.7841 41.6729 23.8097 41.6784C23.8352 41.6838 23.8297 41.8147 23.7987 41.9709C23.7677 42.1272 23.7185 42.2489 23.693 42.2435Z" fill="#0E1339"/>
<path d="M21.8943 41.4678C21.8943 41.4533 21.9746 41.4496 22.0933 41.4206C22.246 41.3814 22.3814 41.2932 22.4786 41.1698C22.5275 41.1067 22.5657 41.0362 22.5918 40.9609L22.6211 40.8755L22.6704 40.9445C22.7677 41.0586 22.846 41.1874 22.9023 41.3261C22.8858 41.3388 22.7617 41.2025 22.5991 40.9972L22.6777 40.9827C22.6527 41.0717 22.6105 41.155 22.5535 41.228C22.4442 41.3691 22.2835 41.4618 22.1061 41.486C21.9728 41.5005 21.8943 41.4787 21.8943 41.4678Z" fill="#0E1339"/>
<path d="M22.4095 40.3944C22.3965 40.3523 22.3873 40.3092 22.3821 40.2654C22.3592 40.1509 22.3034 40.0455 22.2214 39.962C22.1644 39.902 22.0902 39.8608 22.009 39.8439C21.9277 39.827 21.8432 39.8353 21.7667 39.8675C21.6746 39.9129 21.5972 39.9831 21.5432 40.0702C21.4893 40.1572 21.4611 40.2576 21.4618 40.3599C21.4549 40.4619 21.4763 40.5637 21.5237 40.6544C21.571 40.7451 21.6424 40.8211 21.7302 40.8741C21.8042 40.9114 21.8878 40.9255 21.97 40.9145C22.0522 40.9034 22.129 40.8678 22.1904 40.8123C22.2773 40.735 22.3406 40.6349 22.373 40.5234C22.3812 40.4794 22.3934 40.4362 22.4095 40.3944C22.4214 40.4391 22.4214 40.486 22.4095 40.5307C22.3849 40.6577 22.3211 40.774 22.2269 40.8632C22.1611 40.9265 22.0789 40.9706 21.9895 40.9904C21.8851 41.0121 21.7763 40.998 21.6809 40.9504C21.5787 40.889 21.4949 40.8015 21.4382 40.697C21.3815 40.5925 21.3539 40.4748 21.3584 40.3561C21.3629 40.2374 21.3992 40.1221 21.4636 40.0221C21.5281 39.9222 21.6182 39.8412 21.7248 39.7876C21.824 39.7472 21.9341 39.7414 22.037 39.7712C22.1238 39.7986 22.2018 39.8481 22.2634 39.9148C22.3486 40.0104 22.4004 40.1308 22.4114 40.2582C22.4229 40.3029 22.4222 40.35 22.4095 40.3944Z" fill="#0E1339"/>
<path d="M23.8243 39.7674C23.8243 39.7674 23.8243 39.7583 23.8481 39.7583C23.8606 39.7598 23.8725 39.7644 23.8827 39.7718C23.8929 39.7791 23.9011 39.7888 23.9065 39.8001L23.9595 39.8855L23.9905 39.94C24.0004 39.9527 24.0072 39.9675 24.0104 39.9833C24.0136 39.999 24.013 40.0153 24.0088 40.0308C24.0024 40.0498 23.9903 40.0663 23.9741 40.0781C23.958 40.0866 23.9408 40.0928 23.9229 40.0962L23.8408 40.1126L23.6582 40.1471L23.2363 40.2198C23.2193 40.2208 23.2022 40.2177 23.1867 40.2107C23.1711 40.2038 23.1574 40.1932 23.1469 40.1798C23.1345 40.1616 23.1241 40.1421 23.1158 40.1217L23.072 40.0236L23.0519 39.9745C23.0379 39.9503 23.034 39.9216 23.041 39.8946C23.0452 39.8803 23.0525 39.8671 23.0622 39.8558C23.072 39.8446 23.084 39.8355 23.0976 39.8292C23.1169 39.8221 23.1372 39.8178 23.1578 39.8164L23.5029 39.7783C23.6081 39.7571 23.7161 39.7534 23.8225 39.7674C23.7232 39.8072 23.6186 39.8329 23.5121 39.8437L23.1706 39.9036C23.1286 39.9036 23.1341 39.9037 23.1286 39.9182C23.1361 39.9415 23.1459 39.964 23.1578 39.9854L23.2016 40.0817C23.2085 40.0947 23.2146 40.108 23.2199 40.1217H23.229L23.6436 40.0563L23.8262 40.0308L23.9083 40.0199C23.9394 40.0199 23.9357 40.0199 23.9448 40.0054C23.954 39.9909 23.9211 39.94 23.9101 39.9073L23.8718 39.8146C23.8609 39.7692 23.8243 39.7747 23.8243 39.7674Z" fill="#0E1339"/>
<path d="M24.7175 41.2119C24.5952 41.2908 24.4566 41.3412 24.3121 41.3596C24.1719 41.4072 24.0235 41.4264 23.8757 41.4162C23.8648 41.3925 24.0455 41.3268 24.2811 41.2703C24.4207 41.2198 24.5696 41.1999 24.7175 41.2119Z" fill="#0E1339"/>
</svg>
