<svg width="142" height="148" viewBox="0 0 142 148" fill="none" xmlns="http://www.w3.org/2000/svg">
<path d="M134.064 19.4786L133.224 18.0818C126.133 6.31075 113.312 -0.781565 99.7951 0.0687892C98.0556 0.181616 96.3267 0.423507 94.6224 0.792495C82.3336 3.44488 71.6326 12.806 67.207 24.7942C64.5991 31.8467 63.8735 39.9631 58.9271 45.5609C52.4863 52.845 41.559 53.073 31.9499 52.7726C22.3409 52.4723 11.4028 52.7256 5.0087 60.0386C0.999847 64.6197 -0.27537 71.133 0.0479243 77.2664C0.902859 93.5028 12.1356 108.024 26.4216 115.239C40.7076 122.455 57.5261 123.102 73.1592 119.943C95.0714 115.496 115.906 103.28 128.407 84.4167C140.907 65.5533 144.079 39.84 134.064 19.4786Z" fill="#F4F5FB"/>
<path d="M26.7668 21.1273C30.0676 20.2588 33.573 20.7435 36.5143 22.475C39.4556 24.2065 41.5927 27.0435 42.4567 30.3637L47.7632 50.8809L44.0339 51.8614L38.7224 31.3435C38.1211 29.021 36.6279 27.036 34.5712 25.8251C32.5144 24.6142 30.0627 24.2766 27.7553 24.8867C25.4479 25.4967 23.4738 27.0043 22.2674 29.0779C21.061 31.1515 20.721 33.6212 21.3222 35.9437L17.5765 36.9321C16.7223 33.6133 17.2099 30.0862 18.9326 27.1238C20.6552 24.1613 23.4724 22.005 26.7668 21.1273Z" fill="#00ACE9"/>
<path d="M36.4415 22.5997C33.533 20.8877 30.0667 20.4085 26.8027 21.2673C23.5451 22.1354 20.7593 24.2677 19.0558 27.1971C17.3765 30.0849 16.8839 33.5151 17.6792 36.7558L21.1472 35.8405C20.5856 33.5221 20.9413 31.0704 22.1429 29.0053C23.3687 26.8986 25.3744 25.3668 27.7187 24.747C30.063 24.1271 32.5539 24.47 34.6435 25.7001C36.7331 26.9303 38.2501 28.9469 38.8609 31.3065L44.1356 51.6845L47.5871 50.7769L42.3174 30.4002C41.4631 27.1171 39.35 24.3118 36.4415 22.5997Z" fill="#E6E8F3" stroke="#161B46" stroke-width="0.288188"/>
<path d="M18.1989 48.9554L47.7388 41.1556C48.8453 40.8634 49.9758 41.5285 50.264 42.6412L54.8268 60.2556C55.115 61.3683 54.4517 62.507 53.3453 62.7992L23.8053 70.599C22.6989 70.8911 21.5683 70.226 21.2801 69.1134L16.7174 51.4989C16.4292 50.3863 17.0925 49.2475 18.1989 48.9554Z" fill="#00ACE9"/>
<path d="M32.2419 53.7934C32.1039 53.2685 32.1143 52.7149 32.2718 52.195C32.4294 51.6752 32.7279 51.2096 33.1337 50.8508C33.5395 50.492 34.0365 50.2543 34.5687 50.1643C35.1009 50.0744 35.6472 50.1358 36.146 50.3417C36.6448 50.5476 37.0763 50.8898 37.3919 51.3297C37.7076 51.7696 37.8948 52.2898 37.9325 52.8317C37.9702 53.3735 37.8569 53.9155 37.6053 54.3966C37.3538 54.8777 36.9739 55.2788 36.5086 55.5547L37.6025 59.7724L36.0716 60.1781L34.9807 55.9582C34.3516 55.9477 33.7437 55.7306 33.2493 55.3398C32.7549 54.949 32.4012 54.406 32.2419 53.7934Z" fill="#0E1339"/>
<path d="M53.0243 60.7094C53.1035 60.6898 52.2288 57.0587 51.074 52.6033C49.9192 48.1479 48.9255 44.5486 48.8464 44.5681C48.7673 44.5877 49.6419 48.2188 50.7989 52.6771C51.9558 57.1353 52.9502 60.7296 53.0243 60.7094Z" fill="#FAFAFF"/>
<path d="M38.1772 56.0941C38.2868 56.0223 38.3813 55.9294 38.4552 55.8207C38.6766 55.5372 38.8551 55.2221 38.9848 54.8859C39.215 54.3288 39.3199 53.7276 39.2921 53.1253C39.2643 52.5231 39.1045 51.9348 38.824 51.4026C38.5435 50.8705 38.1494 50.4077 37.6699 50.0475C37.1905 49.6873 36.6375 49.4387 36.0509 49.3194C35.7015 49.2332 35.3405 49.2036 34.9817 49.2318C34.7315 49.2552 34.5875 49.3015 34.5961 49.3129C35.0654 49.3422 35.5317 49.4075 35.991 49.5083C36.5358 49.6459 37.0457 49.8971 37.4877 50.2457C37.9297 50.5942 38.2941 51.0323 38.5573 51.5318C38.8205 52.0312 38.9768 52.5809 39.0159 53.1453C39.055 53.7098 38.9762 54.2764 38.7845 54.8087C38.6143 55.2518 38.4113 55.6815 38.1772 56.0941Z" fill="#FAFAFF"/>
<path d="M50.6619 28.6254L49.6344 27.9263L49.6059 29.1753C49.5733 30.1668 49.2578 31.1278 48.6973 31.9434L48.0033 32.9785L49.2431 33.0072C50.2263 33.046 51.1787 33.3632 51.9911 33.9225L53.0269 34.6465L53.1066 33.3693C53.1448 32.3762 53.4621 31.4145 54.0218 30.5961L54.7092 29.566L53.4759 29.5323C52.4709 29.5086 51.494 29.1937 50.6619 28.6254Z" fill="#E6E8F3"/>
<path d="M8.14606 24.4865L7.55465 24.0813L7.53554 24.8031C7.52794 25.3904 7.35316 25.9631 7.03198 26.4533L6.62974 27.0491L7.35121 27.075C7.92703 27.0871 8.48719 27.2661 8.96463 27.5906L9.55605 27.9958L9.57512 27.2324C9.58557 26.6534 9.76533 26.0904 10.0919 25.6138L10.4958 25.0064L9.77268 24.9921C9.19372 24.9832 8.62935 24.8078 8.14606 24.4865Z" fill="#E6E8F3"/>
<path d="M40.0843 7.56481L38.358 6.38578L38.3138 8.49951C38.273 10.1758 37.753 11.8047 36.8161 13.1907L35.6523 14.9247L37.7506 14.9692C39.4157 15.0117 41.034 15.5335 42.4142 16.4729L44.1355 17.6453L44.1731 15.5366C44.2121 13.8586 44.7304 12.2276 45.6659 10.8387L46.8297 9.10473L44.7364 9.0669C43.0754 9.02218 41.4616 8.5011 40.0843 7.56481Z" fill="#E6E8F3"/>
<path d="M136.778 130.08C136.778 130.137 108.654 130.186 73.9653 130.186C39.277 130.186 11.1465 130.137 11.1465 130.08C11.1465 130.024 39.2654 129.975 73.9653 129.975C108.665 129.975 136.778 130.02 136.778 130.08Z" fill="#2D3259"/>
<path d="M135.94 5.87891H104.404C103.085 5.87891 101.821 6.40663 100.888 7.34599C99.9555 8.28535 99.4316 9.5594 99.4316 10.8879V18.7939C99.4316 20.1224 99.9555 21.3964 100.888 22.3358C101.821 23.2752 103.085 23.8029 104.404 23.8029H104.731V28.3184L109.782 23.8029H135.94C137.259 23.8029 138.524 23.2752 139.456 22.3358C140.389 21.3964 140.913 20.1224 140.913 18.7939V10.8879C140.913 9.5594 140.389 8.28535 139.456 7.34599C138.524 6.40663 137.259 5.87891 135.94 5.87891Z" fill="white"/>
<path d="M135.94 5.87929H136.214C136.458 5.88261 136.701 5.90568 136.941 5.94827C137.099 5.9801 137.278 6.02785 137.468 6.07561C137.676 6.14254 137.88 6.22229 138.079 6.31439C138.58 6.54307 139.039 6.85519 139.438 7.23764C139.939 7.71767 140.339 8.29534 140.612 8.9356C140.916 9.70761 141.051 10.5365 141.007 11.3658C141.007 13.1327 141.007 15.149 141.007 17.3882C141.007 17.9506 141.007 18.5184 141.007 19.1127C140.948 20.0754 140.62 21.0018 140.061 21.7848C139.502 22.5678 138.734 23.1756 137.847 23.538C137.21 23.7917 136.53 23.9196 135.845 23.9147H133.765H129.414H109.793L109.882 23.8775L104.836 28.3983L104.604 28.6V23.7767L104.741 23.9147C103.756 23.9605 102.777 23.7309 101.913 23.2514C101.065 22.7661 100.37 22.051 99.9056 21.1874C99.6851 20.7577 99.5204 20.3011 99.4157 19.829C99.3296 19.362 99.2926 18.8871 99.3051 18.4123C99.3051 17.4837 99.3051 16.5604 99.3051 15.6531V11.6046C99.3051 11.1642 99.3051 10.7237 99.342 10.2727C99.4457 9.39717 99.7703 8.56296 100.285 7.84961C100.799 7.13625 101.487 6.56753 102.281 6.19765C103.048 5.84915 103.885 5.68737 104.725 5.72541H111.668H119.838L131.631 5.76786H134.823H135.656C135.845 5.76786 135.94 5.76786 135.94 5.76786H135.656H134.823H131.631L119.838 5.81562H111.668H104.72C103.916 5.77566 103.114 5.93031 102.381 6.26663C101.626 6.61757 100.973 7.15813 100.485 7.83643C99.9975 8.51473 99.6908 9.308 99.5948 10.1401C99.5604 10.5743 99.5499 11.01 99.5632 11.4454V18.2531C99.5505 18.7101 99.5858 19.1672 99.6686 19.6168C99.7704 20.063 99.9279 20.4945 100.137 20.9008C100.576 21.7189 101.235 22.3956 102.039 22.8535C102.862 23.3082 103.793 23.5249 104.731 23.4796H104.868V28.1383L104.636 28.0375L109.687 23.522L109.724 23.4849H109.777H129.398H133.749C135.155 23.4425 136.556 23.66 137.752 23.1347C138.606 22.7894 139.345 22.2074 139.884 21.456C140.423 20.7047 140.739 19.8149 140.797 18.8898C140.828 18.3168 140.797 17.7331 140.797 17.176C140.797 14.9368 140.797 12.9311 140.797 11.1535C140.846 10.3406 140.722 9.52653 140.433 8.7658C140.172 8.13742 139.786 7.56887 139.301 7.09439C138.915 6.71396 138.468 6.40183 137.979 6.17112C137.785 6.07851 137.586 5.99701 137.383 5.92704L136.857 5.78908C136.55 5.80382 136.244 5.83392 135.94 5.87929Z" fill="#2D3259"/>
<path d="M109.15 14.5283L110.162 15.0589L109.588 16.014L108.534 15.3878L108.566 16.534H107.438L107.465 15.3878L106.411 16.014L105.848 15.0589L106.854 14.5283L105.848 13.9711L106.411 13.0107L107.465 13.6528L107.438 12.4907H108.566L108.534 13.6528L109.588 13.0107L110.162 13.9711L109.15 14.5283Z" fill="#D4D9F5"/>
<path d="M113.838 14.5283L114.849 15.0589L114.275 16.014L113.222 15.3878L113.253 16.534H112.126V15.3878L111.072 16.014L110.509 15.0589L111.515 14.5283L110.509 13.9711L111.072 13.0107L112.126 13.6528V12.4907H113.253L113.222 13.6528L114.275 13.0107L114.849 13.9711L113.838 14.5283Z" fill="#D4D9F5"/>
<path d="M118.526 14.5283L119.537 15.0589L118.963 16.014L117.909 15.3878L117.936 16.534H116.809L116.835 15.3878L115.781 16.014L115.218 15.0589L116.224 14.5283L115.218 13.9711L115.781 13.0107L116.835 13.6528L116.809 12.4907H117.936L117.909 13.6528L118.963 13.0107L119.537 13.9711L118.526 14.5283Z" fill="#D4D9F5"/>
<path d="M123.214 14.5283L124.226 15.0589L123.651 16.014L122.598 15.3878L122.624 16.534H121.497L121.523 15.3878L120.47 16.014L119.906 15.0589L120.918 14.5283L119.906 13.9711L120.47 13.0107L121.523 13.6528L121.497 12.4907H122.624L122.598 13.6528L123.651 13.0107L124.226 13.9711L123.214 14.5283Z" fill="#D4D9F5"/>
<path d="M127.902 14.5283L128.913 15.0589L128.339 16.014L127.286 15.3878L127.312 16.534H126.206L126.232 15.3878L125.179 16.014L124.615 15.0589L125.627 14.5283L124.626 13.9711L125.189 13.0107L126.243 13.6528L126.217 12.4907H127.344L127.317 13.6528L128.371 13.0107L128.945 13.9711L127.902 14.5283Z" fill="#D4D9F5"/>
<path d="M132.59 14.5282L133.601 15.0588L133.053 16.0617L132 15.4356V16.5817H130.872L130.899 15.4356L129.893 16.0617L129.329 15.1066L130.34 14.576L129.329 14.0188L129.893 13.0584L130.946 13.7005L130.92 12.5385H132V13.7005L133.053 13.0584L133.627 14.0188L132.59 14.5282Z" fill="#D4D9F5"/>
<path d="M72.742 107.835C72.742 107.835 109.57 88.5072 117.556 99.1695C125.542 109.832 109.539 118.207 106.447 120.091C103.356 121.974 72.0743 132.677 72.0743 132.677L63.8213 123.805L72.742 107.835Z" fill="#161B46"/>
<path d="M87.2655 118.176L101.948 126.138L115.368 129.066C115.597 129.117 115.812 129.215 116.002 129.353C116.192 129.491 116.351 129.667 116.471 129.869C116.591 130.072 116.668 130.297 116.699 130.531C116.729 130.765 116.711 131.002 116.647 131.229C116.573 131.493 116.437 131.734 116.25 131.933C116.063 132.132 115.831 132.283 115.573 132.372C112.24 133.541 99.9712 137.778 98.9287 137.137C97.7218 136.392 82.8848 129.77 82.8848 129.77L87.2655 118.176Z" fill="#00ACE9"/>
<g opacity="0.6">
<path opacity="0.6" d="M116.647 131.229L97.9277 136.599L98.5543 136.925C99.0993 137.205 99.7258 137.28 100.321 137.137C101.908 136.759 106.273 135.585 115.548 132.398C115.815 132.306 116.055 132.15 116.246 131.942C116.438 131.735 116.576 131.482 116.647 131.208V131.229Z" fill="white"/>
</g>
<g opacity="0.6">
<path opacity="0.6" d="M94.6871 131.089C94.9139 130.973 95.1756 130.945 95.4214 131.012C95.6672 131.079 95.8795 131.236 96.0172 131.451C96.14 131.676 96.1728 131.939 96.1088 132.188C96.0448 132.436 95.8889 132.65 95.6731 132.786C95.4317 132.907 95.1546 132.933 94.8949 132.861C94.6352 132.788 94.4113 132.621 94.266 132.393C94.1612 132.145 94.1562 131.866 94.2521 131.615C94.3479 131.364 94.5371 131.161 94.7795 131.048" fill="white"/>
</g>
<path d="M108.425 131.317C108.507 131.255 107.911 130.515 107.911 129.413C107.911 128.311 108.538 127.587 108.456 127.52C108.373 127.452 108.214 127.618 107.988 127.944C107.704 128.379 107.551 128.887 107.547 129.408C107.535 129.928 107.674 130.441 107.947 130.882C108.183 131.213 108.394 131.348 108.425 131.317Z" fill="#161B46"/>
<path d="M110.951 131.27C111.054 131.234 110.813 130.505 110.982 129.62C111.152 128.735 111.619 128.135 111.537 128.068C111.455 128.001 110.802 128.544 110.623 129.558C110.443 130.572 110.874 131.332 110.951 131.27Z" fill="#161B46"/>
<path d="M104.871 131.995C104.973 131.958 104.598 130.841 104.747 129.439C104.896 128.037 105.456 127.007 105.358 126.956C105.261 126.904 104.521 127.897 104.383 129.403C104.244 130.908 104.794 132.046 104.871 131.995Z" fill="#161B46"/>
<path d="M100.208 129.946C100.316 129.946 100.388 128.953 100.896 127.876C101.405 126.8 102.088 126.061 102.016 125.978C101.944 125.895 101.091 126.537 100.562 127.721C100.033 128.906 100.11 129.961 100.208 129.946Z" fill="#161B46"/>
<path d="M95.8373 127.721C95.9452 127.721 95.8733 126.63 96.4999 125.523C97.1264 124.416 98.0406 123.883 97.9944 123.79C97.9481 123.696 97.7068 123.821 97.337 124.064C96.854 124.39 96.4559 124.828 96.1763 125.342C95.8935 125.854 95.7351 126.427 95.7141 127.013C95.709 127.457 95.7911 127.726 95.8373 127.721Z" fill="#161B46"/>
<path d="M95.652 125.124C95.652 125.124 95.4825 124.969 95.1025 124.814C94.5616 124.599 93.9837 124.496 93.4026 124.509C92.9763 124.48 92.5524 124.593 92.1957 124.829C92.0878 124.921 92.0095 125.042 91.9711 125.179C91.9326 125.315 91.9357 125.46 91.98 125.595C92.088 125.851 92.2852 126.059 92.5346 126.18C93.0509 126.401 93.6276 126.434 94.1655 126.274C94.7035 126.113 95.1692 125.769 95.4825 125.3C95.784 124.83 95.9396 124.281 95.9296 123.721C95.9195 123.162 95.7442 122.618 95.426 122.16C95.3463 122.044 95.2426 121.947 95.122 121.876C95.0014 121.804 94.8668 121.76 94.7276 121.746C94.5859 121.748 94.4483 121.794 94.334 121.878C94.2198 121.963 94.1347 122.081 94.0907 122.217C93.9817 122.625 93.9817 123.055 94.0907 123.464C94.2054 124.036 94.4211 124.582 94.7276 125.078C94.9484 125.424 95.1076 125.595 95.1281 125.595C94.7632 124.919 94.5001 124.192 94.3475 123.438C94.2577 123.081 94.2577 122.708 94.3475 122.351C94.3689 122.276 94.4141 122.21 94.4762 122.164C94.5384 122.117 94.6141 122.092 94.6916 122.093C94.7829 122.108 94.8698 122.143 94.9468 122.195C95.0238 122.246 95.0891 122.314 95.1384 122.393C95.3982 122.798 95.5364 123.271 95.5364 123.753C95.5364 124.236 95.3982 124.708 95.1384 125.114C94.8721 125.509 94.4808 125.801 94.0284 125.943C93.5761 126.084 93.0893 126.068 92.6476 125.895C92.4717 125.817 92.3283 125.68 92.2419 125.507C92.2145 125.433 92.2106 125.353 92.2309 125.277C92.2511 125.201 92.2945 125.133 92.3549 125.083C92.6586 124.88 93.0175 124.777 93.382 124.788C94.1525 124.763 94.9213 124.877 95.652 125.124Z" fill="#161B46"/>
<path d="M92.5293 120.07C92.5293 120.07 57.8275 98.89 53.1387 96.2723C49.1072 94.0116 36.3706 89.0296 31.8821 101.316C27.3935 113.603 51.562 131.757 51.562 131.757L72.0739 132.683L78.9198 130.049L86.6952 132.46L92.5293 120.07Z" fill="#161B46"/>
<path d="M68.1301 133.107L52.5741 139.186L41.6454 147.551C41.4588 147.694 41.2449 147.797 41.0171 147.853C40.7893 147.91 40.5525 147.918 40.3213 147.878C40.0901 147.839 39.8695 147.751 39.6732 147.622C39.4769 147.493 39.3091 147.324 39.1802 147.127C39.0331 146.899 38.9415 146.64 38.9129 146.371C38.8844 146.101 38.9197 145.828 39.0159 145.575C40.2998 142.269 45.0863 130.122 46.2469 129.744C47.5925 129.304 62.2343 122.258 62.2343 122.258L68.1301 133.107Z" fill="#00ACE9"/>
<g opacity="0.6">
<path opacity="0.6" d="M39.1798 147.101L47.2891 129.268L46.6368 129.537C46.0712 129.771 45.6068 130.2 45.3272 130.748C44.5825 132.212 42.6104 136.304 38.9949 145.487C38.892 145.75 38.855 146.036 38.8873 146.317C38.9195 146.599 39.02 146.868 39.1798 147.101Z" fill="white"/>
</g>
<g opacity="0.6">
<path opacity="0.6" d="M53.5648 130.391C53.5048 130.64 53.3549 130.858 53.1442 131.003C52.9335 131.147 52.677 131.207 52.4246 131.172C52.1759 131.12 51.9562 130.975 51.8109 130.765C51.6657 130.555 51.6059 130.297 51.644 130.044C51.7098 129.781 51.87 129.551 52.0937 129.399C52.3174 129.247 52.5889 129.184 52.856 129.222C53.1112 129.302 53.3254 129.479 53.4529 129.716C53.5804 129.952 53.6114 130.23 53.5391 130.489" fill="white"/>
</g>
<path d="M44.46 140.737C44.46 140.846 45.4049 140.856 46.2164 141.601C47.0278 142.346 47.187 143.267 47.2897 143.247C47.3924 143.226 47.3719 142.998 47.2897 142.615C47.1457 142.116 46.8634 141.668 46.476 141.325C46.0885 140.981 45.6119 140.756 45.1019 140.675C44.6962 140.634 44.46 140.706 44.46 140.737Z" fill="#161B46"/>
<path d="M42.8627 142.714C42.8267 142.817 43.5303 143.107 44.0849 143.816C44.6396 144.524 44.7988 145.264 44.9015 145.249C45.0042 145.233 45.0196 144.379 44.388 143.583C43.7563 142.786 42.8627 142.615 42.8627 142.714Z" fill="#161B46"/>
<path d="M46.2629 137.592C46.2218 137.695 47.29 138.135 48.2709 139.144C49.2518 140.153 49.6422 141.265 49.7449 141.213C49.8476 141.162 49.5805 139.961 48.5328 138.875C47.4852 137.789 46.2731 137.499 46.2629 137.592Z" fill="#161B46"/>
<path d="M50.8388 135.352C50.7618 135.43 51.4705 136.138 51.9687 137.24C52.4668 138.342 52.5644 139.335 52.6722 139.31C52.7801 139.284 52.8469 138.239 52.3025 137.064C51.7581 135.89 50.8902 135.269 50.8388 135.352Z" fill="#161B46"/>
<path d="M55.3572 133.459C55.2904 133.541 56.1583 134.188 56.5897 135.393C57.0211 136.599 56.8106 137.644 56.9184 137.664C57.0263 137.685 57.0827 137.426 57.1444 136.982C57.2114 136.4 57.1374 135.811 56.9287 135.264C56.7285 134.713 56.4011 134.219 55.9734 133.821C55.6396 133.526 55.3828 133.417 55.3572 133.459Z" fill="#161B46"/>
<path d="M57.4376 135.005C57.6488 134.978 57.8509 134.902 58.0282 134.783C58.542 134.509 58.9961 134.135 59.3635 133.681C59.6633 133.374 59.8531 132.976 59.9027 132.548C59.9077 132.406 59.8682 132.265 59.7899 132.146C59.7117 132.028 59.5984 131.936 59.4662 131.886C59.2042 131.802 58.9207 131.818 58.6701 131.932C58.1669 132.184 57.7661 132.603 57.5365 133.12C57.3069 133.636 57.2629 134.217 57.4119 134.762C57.5719 135.298 57.8863 135.774 58.3151 136.129C58.7439 136.485 59.2679 136.704 59.8205 136.759C59.9598 136.772 60.1003 136.755 60.2323 136.709C60.3644 136.662 60.485 136.588 60.5858 136.49C60.6758 136.381 60.7297 136.245 60.7398 136.103C60.75 135.962 60.7158 135.82 60.6422 135.699C60.4048 135.35 60.0783 135.073 59.6973 134.897C59.1896 134.614 58.6369 134.424 58.0641 134.333C57.8558 134.289 57.6407 134.289 57.4324 134.333C58.1795 134.494 58.8992 134.764 59.5689 135.135C59.8928 135.305 60.1698 135.554 60.3752 135.859C60.418 135.924 60.4382 136.001 60.4326 136.079C60.427 136.157 60.396 136.23 60.3444 136.288C60.2738 136.348 60.1917 136.392 60.1033 136.418C60.0149 136.444 59.9221 136.451 59.8308 136.438C59.3576 136.373 58.9128 136.172 58.5489 135.861C58.1849 135.549 57.917 135.139 57.7765 134.679C57.6523 134.219 57.6861 133.73 57.8726 133.291C58.059 132.853 58.3871 132.491 58.8037 132.263C58.9756 132.177 59.1727 132.157 59.3583 132.207C59.4322 132.233 59.4959 132.282 59.5402 132.347C59.5845 132.412 59.6071 132.49 59.6048 132.569C59.5615 132.929 59.4091 133.266 59.1683 133.536C58.6819 134.125 58.0959 134.622 57.4376 135.005Z" fill="#161B46"/>
<path d="M61.3509 137.018C61.7875 136.79 79.3566 129.584 79.3566 129.584L61.8953 120.872L51.3877 126.361L61.3509 137.018Z" fill="#161B46"/>
<path d="M39.6523 115.719L39.8937 115.791L40.587 116.024L43.2422 116.95L53 120.401L85.175 131.839L86.7158 132.32L86.5565 132.393L92.4164 120.044L92.4677 120.204L72.228 107.737L66.4041 104.115L64.8634 103.143L64.468 102.884C64.3807 102.827 64.3344 102.796 64.3396 102.791L64.4782 102.868L64.8891 103.106L66.4555 104.043L72.3204 107.597L92.6064 119.982L92.7039 120.044L92.6577 120.147L86.8133 132.512L86.762 132.615L86.6541 132.579L85.1134 132.098C84.3071 131.865 83.5368 131.581 82.7613 131.296L80.4502 130.468L75.9154 128.839L67.385 125.771L52.9384 120.598L43.2062 117.064L40.5665 116.092L39.8835 115.833C39.8041 115.8 39.7269 115.762 39.6523 115.719Z" fill="#0064A7"/>
<path d="M61.3513 137.018C61.1213 136.823 60.9035 136.614 60.6991 136.392L58.9941 134.618C57.5612 133.112 55.5942 130.996 53.4321 128.694L51.2597 126.35L51.1416 126.221L51.2957 126.144L56.6265 123.557L58.1672 122.822C58.351 122.729 58.5416 122.649 58.7373 122.584C58.5775 122.707 58.4053 122.813 58.2237 122.9L56.7292 123.665L51.4395 126.356L51.4754 126.149L53.6581 128.487C55.8202 130.81 57.7666 132.926 59.1635 134.467L60.8069 136.299C61.0099 136.521 61.1921 136.762 61.3513 137.018Z" fill="#0064A7"/>
<path d="M96.7871 102.708C96.8179 102.775 92.4936 104.669 87.132 106.93C81.7703 109.19 77.405 110.975 77.3742 110.908C77.3434 110.841 81.6676 108.947 87.0293 106.681C92.3909 104.415 96.7871 102.636 96.7871 102.708Z" fill="#0064A7"/>
<path d="M70.0819 49.4016C69.7172 49.4016 57.0475 49.2826 54.4899 51.859C51.9324 54.4353 46.6221 93.8926 46.6221 93.8926C49.3543 94.41 51.1312 95.4446 52.7849 96.262L74.3188 108.911L83.6401 104.032C83.943 103.864 84.205 103.63 84.4073 103.347C84.6095 103.064 84.747 102.739 84.8099 102.396C84.8728 102.054 84.8594 101.701 84.7708 101.364C84.6822 101.027 84.5205 100.714 84.2974 100.447L96.7001 55.2889C94.8639 53.8853 92.8277 52.769 90.6606 51.9779C87.0296 50.6329 70.0819 49.4016 70.0819 49.4016Z" fill="#0064A7"/>
<path d="M92.5301 53.592C92.5301 53.592 96.3408 54.4405 97.7993 56.8099C101.22 62.3609 111.727 82.0766 113.494 86.8154C115.363 91.8181 113.355 94.6634 112.005 96.7742C110.551 99.0453 102.565 99.0401 98.9446 95.1446C97.4039 93.4684 88.7451 85.5687 88.7451 85.5687L92.5301 53.592Z" fill="#0064A7"/>
<path d="M96.8648 60.9124C96.8271 61.0453 96.779 61.175 96.721 61.3004L96.2536 62.3971C95.8685 63.3542 95.3292 64.7458 94.7129 66.4841C93.4701 69.9657 91.9499 74.8339 90.3373 80.2349C88.7247 85.6359 87.3227 90.5247 86.2801 94.0944C85.7666 95.8688 85.3249 97.3019 85.0116 98.2848L84.6418 99.4178C84.6061 99.5514 84.558 99.6813 84.498 99.8058C84.5184 99.669 84.5493 99.5341 84.5905 99.4022C84.6727 99.116 84.7805 98.7332 84.914 98.2538C85.2016 97.2191 85.6022 95.8016 86.1004 94.0426C87.0967 90.4833 88.4731 85.5686 90.0805 80.1573C91.688 74.7459 93.2441 69.8882 94.5332 66.422C95.1751 64.6837 95.7452 63.318 96.1612 62.3557L96.6748 61.2797C96.7257 61.1511 96.7894 61.0281 96.8648 60.9124Z" fill="#161B46"/>
<path d="M55.0957 51.4088C55.0957 51.4088 51.095 53.7006 49.6314 55.0301C48.1677 56.3597 33.0482 78.093 31.1121 84.865C29.9874 88.7864 34.2757 96.8983 38.8978 96.5051C44.9425 95.9877 67.6217 87.2292 67.6217 87.2292L62.5322 76.0703L49.693 78.1396L59.0143 68.7034L55.5374 51.1553" fill="#0064A7"/>
<path d="M108.887 84.4874C108.807 84.4494 108.731 84.4026 108.661 84.3477L108.034 83.9132L105.759 82.2784C103.849 80.8816 101.219 78.9312 98.3227 76.7636L96.3865 75.3098L96.5663 75.284C94.7226 77.7103 93.0792 79.8262 91.8826 81.3213C91.284 82.1518 90.6156 82.929 89.8848 83.6442L91.749 81.2127L96.3711 75.1236L96.4482 75.0201L96.5509 75.0977L98.4922 76.5463C101.389 78.7139 103.998 80.685 105.882 82.1283L108.086 83.8304L108.681 84.3063C108.756 84.3588 108.825 84.4195 108.887 84.4874Z" fill="#161B46"/>
<path d="M72.9939 72.123L62.8252 76.7118L66.8824 85.5945L73.2404 81.3679L72.9939 72.123Z" fill="#B2655F"/>
<path d="M82.6023 72.9922L89.4071 68.3361C89.6461 68.1707 89.9347 68.0939 90.2236 68.1189L99.1187 68.8845C99.2925 68.899 99.4543 68.98 99.5708 69.1108C99.6873 69.2416 99.7497 69.4124 99.7452 69.5881C99.7549 69.7647 99.7263 69.9412 99.6616 70.1056C99.5969 70.2699 99.4975 70.4182 99.3703 70.54L84.9236 80.6643L74.1387 78.9416L82.6023 72.9922Z" fill="#F4F5FB"/>
<path d="M72.9941 72.123C72.9941 72.123 76.6661 69.3811 77.5289 69.231C78.3917 69.081 82.2692 69.0965 82.2692 69.0965L85.5355 70.9745L83.512 72.3558C82.11 72.0454 81.7094 71.497 81.7094 71.497L79.4497 71.647L72.9941 72.123Z" fill="#B2655F"/>
<path d="M77.1228 70.9332L82.9209 72.9664L91.2613 74.1511C91.2762 74.6204 91.112 75.0777 90.8025 75.4289C90.493 75.7802 90.0618 75.9986 89.5973 76.0394C88.5702 76.148 86.8343 76.267 86.8343 76.267C86.8343 76.267 86.4081 77.819 85.1087 78.1553C84.811 78.7442 84.3821 79.2559 83.8556 79.6504C83.7756 79.7 83.6892 79.7383 83.5989 79.7642C82.7977 79.997 81.2005 82.1853 80.1323 82.4802C79.0641 82.7751 73.2299 81.3886 73.2299 81.3886L72.9834 72.149L77.1228 70.9332Z" fill="#B2655F"/>
<path d="M78.8125 75.703C78.8125 75.6771 79.2747 75.8013 80.0091 75.9513C80.9737 76.1441 81.9499 76.272 82.9313 76.3342C83.9093 76.4025 84.8909 76.4025 85.8689 76.3342C86.6239 76.2824 87.0861 76.2152 87.0912 76.241C86.9865 76.2786 86.878 76.3046 86.7677 76.3186C86.5622 76.36 86.2541 76.4066 85.8792 76.448C84.8964 76.5498 83.9068 76.5671 82.921 76.4997C81.933 76.4401 80.9518 76.2947 79.9886 76.0651C79.6188 75.9772 79.3209 75.8944 79.1206 75.8272C79.0137 75.7974 78.9103 75.7558 78.8125 75.703Z" fill="#8E4842"/>
<path d="M79.9528 78.0984C79.9772 78.2934 79.9579 78.4913 79.8963 78.6778C79.8438 78.8906 79.7356 79.0853 79.583 79.2417C79.4802 79.3324 79.3605 79.4015 79.2309 79.4451C79.1012 79.4886 78.9643 79.5056 78.828 79.4952C78.5662 79.4738 78.3113 79.3999 78.0782 79.2779C77.8677 79.1693 77.693 79.0554 77.539 78.9727C77.2411 78.7916 77.0254 78.7243 77.0254 78.6985C77.2179 78.7104 77.4046 78.769 77.5698 78.8692C77.9518 79.1046 78.3757 79.2628 78.8178 79.3348C78.9335 79.3457 79.0502 79.3335 79.1613 79.2989C79.2723 79.2643 79.3755 79.2079 79.4649 79.1331C79.606 78.9981 79.7104 78.8289 79.7679 78.6416C79.819 78.4571 79.8807 78.2757 79.9528 78.0984Z" fill="#8E4842"/>
<path d="M84.2404 78.657C84.0362 78.7398 83.8221 78.7954 83.6036 78.8223C83.0938 78.9137 82.5795 78.9775 82.0629 79.0133C81.5377 79.0432 81.0114 79.0432 80.4862 79.0133C80.2666 79.0174 80.0474 78.9931 79.834 78.941C79.834 78.8894 80.8303 78.941 82.0526 78.8326C83.2749 78.7242 84.2301 78.6261 84.2404 78.657Z" fill="#8E4842"/>
<path d="M79.8393 81.0988C79.5622 81.3192 79.2332 81.4639 78.8841 81.5191C78.535 81.5743 78.1777 81.538 77.8467 81.4137C77.8467 81.3621 78.3089 81.4499 78.8738 81.3621C79.4387 81.2744 79.8393 81.0575 79.8393 81.0988Z" fill="#8E4842"/>
<path d="M81.9296 80.9952C81.9296 81.0365 81.6574 81.1088 81.3082 81.1604C81.0955 81.2112 80.8739 81.2112 80.6611 81.1604C80.854 81.0562 81.0688 80.9996 81.2877 80.9952C81.6369 80.9539 81.9245 80.9488 81.9296 80.9952Z" fill="#8E4842"/>
<path d="M82.9209 72.9664C81.9896 72.7449 81.0803 72.4384 80.2042 72.0507C79.4646 71.761 78.8021 71.4868 78.3296 71.2695C78.066 71.1706 77.8158 71.0384 77.585 70.8763C77.8532 70.9545 78.1158 71.0513 78.3707 71.166L80.2607 71.9007L82.1454 72.6405C82.6385 72.8112 82.9209 72.925 82.9209 72.9664Z" fill="#8E4842"/>
<path d="M91.4411 75.0356C91.4411 75.0356 90.7992 74.8132 91.4925 73.794C92.1858 72.7748 94.1271 74.0113 94.1271 74.0113L96.6076 75.496C96.6076 75.496 97.1623 76.7946 96.4741 77.1412L95.9606 77.7723C95.9606 77.7723 96.9312 78.7604 96.5409 79.6244C96.4196 79.8738 96.2247 80.0794 95.9829 80.2128C95.741 80.3461 95.4641 80.4009 95.1902 80.3694C95.1902 80.3694 95.3032 82.118 94.7383 82.7905C94.4762 83.156 94.0941 83.4162 93.6598 83.5251C93.4784 83.9882 93.1892 84.4005 92.8165 84.7274C92.4438 85.0542 91.9985 85.286 91.5182 85.4031C89.8542 85.8324 88.9812 85.8635 88.5292 85.1547C88.2247 84.6518 87.9782 84.1155 87.7948 83.5562C87.7948 83.5562 84.2255 81.6679 84.1485 80.7108C84.0714 79.7537 84.2358 79.6761 84.2358 79.6761C84.1565 79.4525 84.122 79.2153 84.1344 78.9782C84.1467 78.7411 84.2056 78.5088 84.3077 78.2948C84.6672 77.7102 86.0846 78.2224 86.0846 78.2224L90.64 79.2985C90.64 79.2985 86.9936 77.5757 86.5622 77.0118C86.1308 76.4479 86.5931 75.7547 88.0567 75.9306C89.5204 76.1065 93.9422 76.9394 93.9422 76.9394C93.8287 76.7041 93.6504 76.5065 93.4286 76.3703C93.1359 76.2462 92.2218 75.7133 92.2218 75.7133L91.4411 75.0356Z" fill="#B2655F"/>
<path d="M92.5296 82.0042C92.5296 82.0455 90.6704 81.5696 88.421 80.9436C86.1716 80.3176 84.3125 79.7692 84.3382 79.7278C84.3638 79.6865 86.1973 80.1624 88.4467 80.7884C90.6961 81.4144 92.5398 81.9628 92.5296 82.0042Z" fill="#8E4842"/>
<path d="M90.3569 84.503C89.9006 84.4484 89.4534 84.3336 89.0268 84.1616C88.7179 84.0603 88.4145 83.9429 88.1177 83.8098C88.0246 83.7696 87.9352 83.7211 87.8507 83.6649C87.828 83.6485 87.8073 83.6294 87.7891 83.608C87.7891 83.608 87.7891 83.5615 87.7891 83.5718C87.7891 83.5822 88.354 83.7684 89.0678 84.0064C89.5126 84.1291 89.9443 84.2955 90.3569 84.503Z" fill="#8E4842"/>
<path d="M94.26 79.9866C94.26 80.028 93.3613 79.8469 92.2622 79.6659C91.1632 79.4848 90.2644 79.3658 90.2696 79.3192C90.9472 79.3093 91.624 79.3735 92.2879 79.5106C92.9609 79.5943 93.6224 79.754 94.26 79.9866Z" fill="#8E4842"/>
<path d="M95.3745 77.6223C95.3436 77.6637 94.9841 77.405 94.4809 77.2239C93.9776 77.0429 93.541 76.9963 93.541 76.9497C93.8779 76.8882 94.2255 76.9315 94.5373 77.0739C94.8643 77.1687 95.1558 77.3597 95.3745 77.6223Z" fill="#8E4842"/>
<path d="M99.3553 69.7174H99.191L98.7133 69.6605C98.3025 69.6036 97.6862 69.526 96.9723 69.4432C95.4984 69.2725 93.4544 69.0914 91.1896 69.0397C90.6552 68.9667 90.1111 69.0307 89.6078 69.2259C89.384 69.3563 89.168 69.4997 88.9607 69.6553L88.3444 70.0951L86.2131 71.6109L84.77 72.6197L84.3694 72.8887C84.2821 72.9508 84.2307 72.9766 84.2256 72.9715C84.2662 72.9327 84.3091 72.8964 84.354 72.8628L84.734 72.5731L86.1515 71.5384L88.2622 69.9864L88.8734 69.5415C89.0861 69.3814 89.3073 69.2328 89.5359 69.0966C89.7888 68.9658 90.0682 68.895 90.3525 68.8896C90.6349 68.8896 90.9122 68.8896 91.1947 68.8896C93.1305 68.9381 95.0624 69.0884 96.9826 69.3397C97.7222 69.438 98.3179 69.5363 98.7236 69.6088L99.1961 69.6967C99.2499 69.6951 99.3036 69.7021 99.3553 69.7174Z" fill="#161B46"/>
<path d="M93.7831 70.5141C93.7346 70.4491 93.6689 70.3991 93.5935 70.3698C93.5182 70.3405 93.4362 70.3332 93.3569 70.3485H93.285C93.1498 70.3723 93.0267 70.4417 92.9357 70.5451C92.8819 70.6116 92.8525 70.6947 92.8525 70.7805C92.8525 70.8663 92.8819 70.9494 92.9357 71.0159C93.0041 71.0828 93.0926 71.1246 93.1874 71.1349C93.2772 71.1524 93.3697 71.1499 93.4584 71.1275C93.5471 71.1052 93.6299 71.0635 93.7009 71.0055C93.763 70.942 93.8042 70.8608 93.8189 70.7729C93.8336 70.6849 93.8211 70.5946 93.7831 70.5141Z" fill="white"/>
<path d="M73.5638 20.7669L72.5778 20.2496C72.139 19.9436 71.6008 19.8177 71.073 19.8978C70.5851 20.0375 70.2462 20.5083 69.7429 20.56C69.1574 20.6273 68.6747 20.0944 68.0892 20.1254C67.5037 20.1565 67.098 20.6428 66.5485 20.6428C66.1376 20.6428 65.7011 20.3479 65.3467 20.5496C65.2748 20.591 65.2132 20.648 65.1465 20.6945C64.9298 20.7951 64.692 20.8406 64.4538 20.8271C64.2156 20.8136 63.9844 20.7414 63.7804 20.6169C63.3715 20.3656 62.8831 20.2806 62.4143 20.3789C62.1404 20.5178 61.8989 20.7135 61.7055 20.9532C61.6044 21.072 61.4767 21.1649 61.3329 21.2243C61.1892 21.2836 61.0335 21.3077 60.8787 21.2946C60.7092 21.2584 60.5705 21.1498 60.4011 21.1084C59.8875 20.9739 59.4304 21.5429 58.8912 21.6878C58.3519 21.8327 57.8127 21.574 57.3505 21.8016C57.1806 21.8895 57.0484 22.0367 56.9784 22.2157C56.9085 22.3947 56.9056 22.5932 56.9704 22.7742C57.053 22.9522 57.1776 23.1071 57.3334 23.2253C57.4892 23.3434 57.6714 23.4212 57.864 23.4519C58.2674 23.5236 58.6821 23.4934 59.0709 23.364C59.3795 23.2345 59.7078 23.1593 60.0416 23.1415C60.8068 23.1674 61.4077 23.9641 62.1575 23.7985C62.5031 23.6691 62.818 23.4682 63.0819 23.2088C63.516 22.8944 64.0366 22.7244 64.5712 22.7225C64.9227 22.769 65.2796 22.7497 65.6241 22.6656C66.0298 22.5 66.2609 22.0706 66.682 21.9568C67.1031 21.843 67.5859 22.1172 68.0532 22.0706C68.3562 22.0448 68.6387 21.874 68.9469 21.8585C69.3834 21.8327 69.7788 22.1172 70.2154 22.081C70.6519 22.0448 71.0371 21.6723 71.4839 21.7085C71.6588 21.7397 71.8307 21.7864 71.9975 21.8482C72.0828 21.8784 72.1743 21.8872 72.2638 21.8737C72.3533 21.8601 72.4382 21.8247 72.511 21.7706C72.6086 21.6774 72.6394 21.5274 72.7575 21.4602C72.8515 21.4202 72.9553 21.4094 73.0554 21.4291L74.5037 21.5792L73.5638 20.7669Z" fill="#161B46"/>
<path d="M75.1192 20.7153C74.6313 20.3531 73.9791 19.9755 73.4296 20.2807C73.2293 20.3893 73.0804 20.5704 72.8801 20.6687C72.4179 20.886 71.8529 20.6014 71.3702 20.736C70.9542 20.8549 70.6769 21.2533 70.2917 21.4344C69.6703 21.7448 68.751 21.5637 68.371 22.1121C68.1604 22.4121 68.1244 22.8932 67.7598 22.976C67.6279 22.9894 67.4947 22.9735 67.3695 22.9295C66.9255 22.8199 66.4635 22.8058 66.0137 22.8881C65.7566 22.9226 65.5136 23.0263 65.3101 23.1881C64.9403 23.5244 64.9301 24.0986 64.5757 24.4504C64.0621 24.9678 63.1018 24.7246 62.4238 25.0609C62.1202 25.2538 61.8424 25.485 61.597 25.7489C61.0554 26.1689 60.4699 26.528 59.8509 26.8198C59.2294 27.1081 58.6971 27.5603 58.3102 28.1287C58.13 28.4003 58.0508 28.7272 58.0865 29.0518C58.1222 29.3764 58.2705 29.6779 58.5053 29.9032C58.6241 30.0078 58.7745 30.0689 58.9321 30.0764C59.0897 30.0839 59.2452 30.0374 59.3733 29.9446C59.4503 29.8721 59.5017 29.7687 59.5736 29.6859C59.7517 29.5448 59.9559 29.441 60.1744 29.3807C60.385 29.2979 60.6058 29.1375 60.6058 28.9202C60.6058 28.7857 60.5288 28.6253 60.6366 28.5322C60.6843 28.5012 60.7392 28.4834 60.7958 28.4805C61.3402 28.4236 62.0079 28.4494 62.3006 28.0045C62.3978 27.7943 62.4719 27.574 62.5214 27.3475C62.5979 27.1617 62.7184 26.9976 62.8724 26.8695C63.0264 26.7415 63.2092 26.6533 63.4048 26.6129C63.7386 26.5353 64.1135 26.587 64.3805 26.3801C64.6476 26.1732 64.6938 25.7024 64.966 25.4437C65.4231 25.0092 66.327 25.3247 66.7378 24.854C66.8405 24.735 66.897 24.5849 67.0254 24.497C67.3952 24.2538 67.842 24.7557 68.2785 24.6729C68.715 24.5901 68.7921 24.1556 69.054 23.9072C69.4436 23.6451 69.8717 23.4461 70.3225 23.3175C70.8618 23.0536 71.2521 22.5415 71.8221 22.3707C72.3357 22.2207 72.9212 22.3242 73.2858 21.9724C73.4244 21.8379 73.522 21.6465 73.7121 21.5844C73.8239 21.5611 73.9392 21.5611 74.051 21.5844C74.6151 21.6587 75.1877 21.5423 75.679 21.2533L75.1192 20.7153Z" fill="#161B46"/>
<path d="M74.2878 22.0292C73.6675 21.9214 73.0309 21.9587 72.4272 22.1381C71.8234 22.3175 71.2687 22.6342 70.8058 23.0639C70.6141 23.269 70.3924 23.4435 70.1484 23.5812C69.7322 23.7052 69.2976 23.7543 68.8645 23.7261C68.3839 23.7795 67.9286 23.9706 67.5526 24.2769C67.1766 24.5832 66.8958 24.9917 66.7434 25.454C66.5483 26.0489 66.4764 26.8301 65.9063 27.037C65.7985 27.0649 65.6937 27.103 65.593 27.1508C65.213 27.3888 65.4749 27.9993 65.4698 28.47C65.4698 29.246 64.607 29.7789 64.5762 30.5394C64.5841 30.8248 64.6524 31.1052 64.7765 31.362C65.0743 32.1035 65.4013 32.8277 65.7574 33.5348C65.9166 33.8503 66.1271 34.2021 66.4661 34.2487C66.9797 34.316 67.257 33.7314 67.4008 33.214C67.5437 32.8699 67.5547 32.4846 67.4316 32.1328C67.2878 31.8586 66.9951 31.6982 66.8667 31.4137C66.6664 30.9636 66.9899 30.4618 67.221 30.0324C67.6872 29.1605 67.8275 28.1491 67.6165 27.1819C68.1301 27.0836 68.4023 26.349 68.9364 26.2455C69.0864 26.237 69.2357 26.218 69.3832 26.1886C69.7375 26.0437 69.7786 25.5005 70.0919 25.2781C70.4052 25.0556 71.119 25.2263 71.2936 24.7866C71.345 24.6469 71.3193 24.4814 71.4066 24.3676C71.4786 24.2834 71.5795 24.2298 71.6891 24.2175L72.9833 23.8916C73.2348 23.8506 73.4716 23.7455 73.6715 23.5864C74.0053 23.2656 74.0566 22.6552 74.4778 22.4896L74.2878 22.0292Z" fill="#161B46"/>
<path d="M75.6587 19.4374C75.6074 18.6718 75.4636 17.7509 74.7908 17.4405C74.3954 17.2543 73.9126 17.3526 73.5223 17.1508C72.7725 16.7732 72.7109 15.5522 71.9816 15.1642C71.2523 14.7762 70.2765 15.3763 69.6911 14.8073C69.3881 14.5124 69.347 14.0209 69.1005 13.6743C68.9343 13.489 68.7303 13.3422 68.5025 13.244C68.2746 13.1457 68.0283 13.0984 67.7806 13.1052C67.2901 13.1264 66.7998 13.0599 66.3323 12.9086C65.562 12.5672 65.069 11.6049 64.2421 11.5377C63.5385 11.486 62.989 12.1068 62.5473 12.6758C62.4253 12.8108 62.3387 12.9744 62.2957 13.1518C62.2888 13.3126 62.3283 13.4719 62.4094 13.6105C62.4906 13.7492 62.6098 13.8612 62.7528 13.933C63.3126 14.2641 64.0316 14.2123 64.5503 14.6003C64.7261 14.7651 64.9131 14.9172 65.11 15.0556C65.4079 15.216 65.7828 15.1798 66.0704 15.3608C66.6302 15.7074 66.6199 16.6542 67.1797 17.006C67.7395 17.3577 68.3918 16.9439 68.9978 17.0836C69.8195 17.2801 70.2714 18.4338 71.1137 18.4648C71.4817 18.4091 71.8455 18.3279 72.2024 18.2217C72.4433 18.2066 72.6831 18.2646 72.8909 18.3882C73.0987 18.5117 73.265 18.6952 73.3682 18.9149C73.5017 19.2046 73.5223 19.5461 73.6815 19.8254C73.7863 19.9955 73.9282 20.1393 74.0964 20.246C74.2645 20.3527 74.4546 20.4194 74.6521 20.4411C75.0401 20.4807 75.4319 20.458 75.8128 20.3738L75.6587 19.4374Z" fill="#161B46"/>
<path d="M75.0223 21.8223C74.5087 20.8445 73.877 19.7995 72.8242 19.3443C72.2683 19.1878 71.7228 18.996 71.191 18.77C70.7699 18.5217 70.472 18.1233 70.0766 17.8388C69.1573 17.1818 67.8888 17.2232 66.7589 17.4042C65.6291 17.5853 64.4633 17.8698 63.354 17.5957C62.3576 17.3473 61.4897 16.6696 60.4677 16.6075C59.9096 16.6091 59.3558 16.7053 58.8294 16.8921L56.9703 17.4094C56.7678 17.4478 56.5857 17.5579 56.4567 17.7198C56.2565 18.0561 56.6468 18.4441 57.0165 18.5993C57.6236 18.8533 58.2906 18.9252 58.9373 18.8062C59.4345 18.6431 59.9552 18.5644 60.478 18.5734C60.826 18.6653 61.1688 18.7758 61.5051 18.9045C61.9451 18.9822 62.3953 18.9822 62.8353 18.9045L64.8896 18.6872C65.414 18.5849 65.9563 18.6315 66.4559 18.8217C66.8257 19.0028 67.1184 19.3391 67.5293 19.3908C67.9401 19.4426 68.4229 19.1011 68.88 19.1684C69.4244 19.2563 69.6965 19.8668 70.1947 20.0996C70.7802 20.3738 71.5505 20.053 72.1155 20.3686C72.5006 20.5807 72.665 21.0153 72.9115 21.3722C73.1173 21.6718 73.3854 21.9225 73.6973 22.1068C74.114 22.3268 74.5578 22.4903 75.0171 22.5931L75.0223 21.8223Z" fill="#161B46"/>
<path d="M76.1114 17.4767C75.8649 17.1352 75.49 16.7886 75.5979 16.3748C75.6492 16.173 75.8136 16.0074 75.8495 15.8005C75.9111 15.428 75.5362 15.1383 75.3976 14.7658C75.2589 14.3934 75.3976 13.8346 75.1613 13.4518C74.9251 13.069 74.3807 12.9914 73.9288 12.8776C73.6776 12.8342 73.4411 12.7288 73.2404 12.5708C73.0396 12.4128 72.8809 12.2072 72.7784 11.9722C72.7245 11.6302 72.7039 11.2836 72.7167 10.9375C72.6365 10.495 72.4073 10.0939 72.0677 9.80173C71.7281 9.50959 71.2989 9.34433 70.8525 9.33379C70.5925 9.35477 70.3309 9.3249 70.0821 9.24584C69.6456 9.03891 69.5686 8.47501 69.2964 8.05597C69.1291 7.76809 68.8789 7.53822 68.579 7.39686C68.2791 7.2555 67.9436 7.20932 67.617 7.26444C67.3089 7.32652 66.9699 7.65244 67.1497 7.91111C67.2216 8.01458 67.3551 8.05597 67.4527 8.13874C67.8019 8.4388 67.5502 9.04408 67.7557 9.45278C67.9611 9.86147 68.6185 9.97012 68.8188 10.4047C68.9728 10.741 68.7931 11.16 68.9369 11.5014C69.1166 11.9205 69.6559 12.0188 70.1078 12.0188C70.5598 12.0188 71.099 12.1429 71.2685 12.5361C71.3208 12.7285 71.3502 12.9265 71.3558 13.1259C71.3854 13.2993 71.4541 13.4635 71.5564 13.6061C71.6588 13.7487 71.7922 13.8658 71.9464 13.9484C72.3829 14.1709 72.9735 14.1295 73.256 14.5486C73.5384 14.9676 73.1276 15.6867 73.3895 16.1782C73.5795 16.5351 74.0366 16.6283 74.3807 16.8455C74.4634 16.8905 74.5272 16.9639 74.5605 17.0525C74.5702 17.1482 74.5486 17.2445 74.4988 17.3267C74.2266 17.8854 73.8825 18.5269 74.1445 19.0856C74.2696 19.3033 74.4292 19.4991 74.6169 19.665C75.1777 20.245 75.5871 20.956 75.8084 21.7344L76.286 19.6288C76.4472 19.2863 76.5159 18.907 76.4853 18.5292C76.4546 18.1513 76.3257 17.7883 76.1114 17.4767Z" fill="#161B46"/>
<path d="M78.7611 10.3685C78.8552 10.0677 78.8467 9.74388 78.7369 9.44855C78.627 9.15321 78.4222 8.9034 78.1551 8.73893C78.0173 8.66649 77.8659 8.62416 77.7108 8.6147C77.5557 8.60525 77.4003 8.62889 77.2549 8.68407C77.1095 8.73924 76.9773 8.82472 76.8669 8.93491C76.7565 9.0451 76.6705 9.17752 76.6144 9.32351C76.409 10.0116 76.9842 10.8186 76.6144 11.4394C76.4887 11.5885 76.3834 11.7538 76.3011 11.9309C76.1727 12.3862 76.7376 12.769 76.7428 13.2449C76.7479 13.7209 76.0905 14.0572 75.957 14.5641C75.8235 15.0711 76.3833 15.7592 76.1727 16.3231C76.0995 16.4752 76.0081 16.6176 75.9005 16.7473C75.2996 17.6371 75.6078 18.8167 75.9365 19.8513L77.2974 19.6496C77.0458 18.6977 78.3759 17.7458 77.924 16.8766C77.7083 16.4628 77.1177 16.1627 77.2512 15.7126C77.297 15.5956 77.367 15.4898 77.4566 15.4022L78.7251 14.0054C78.9332 13.8199 79.0757 13.5711 79.1309 13.2967C79.1874 12.6914 78.4375 12.2982 78.34 11.6929C78.2989 11.217 78.6224 10.7979 78.7611 10.3685Z" fill="#161B46"/>
<path d="M79.2286 18.1285C79.1002 17.6784 78.5198 17.5439 78.0628 17.6112C76.7994 17.8078 75.875 18.8735 75.0687 19.8668C74.1486 20.9386 73.314 22.0821 72.5727 23.2864C72.3974 23.5484 72.2785 23.8444 72.2235 24.1555C72.197 24.3111 72.2126 24.4711 72.2686 24.6185C72.3246 24.766 72.419 24.8955 72.5419 24.9936C72.6051 25.0381 72.6768 25.0687 72.7525 25.0834C72.8281 25.0981 72.906 25.0967 72.9811 25.0791C73.0562 25.0615 73.1268 25.0283 73.1882 24.9815C73.2497 24.9346 73.3007 24.8753 73.3379 24.8073L73.7128 24.7142C74.9426 22.6158 76.5729 20.7837 78.5096 19.3236C78.905 19.0132 79.3621 18.5941 79.2286 18.1285Z" fill="#00ACE9"/>
<path d="M72.2796 37.5908C71.9086 35.0809 71.7523 32.5435 71.8123 30.0067C71.8788 27.4619 72.5705 24.9735 73.8255 22.7639C74.0258 22.4328 75.5973 20.2807 75.9619 20.3894C76.2239 20.467 75.1094 22.5466 75.2019 22.8053C76.0544 25.2834 75.8849 28.0304 75.2019 30.5654C74.4966 33.0142 73.5216 35.3759 72.2951 37.6063" fill="#161B46"/>
<path d="M83.47 54.1146C83.8295 52.3608 84.1171 50.9795 84.1325 50.9795C84.1479 50.9795 90.2388 51.5486 91.7898 45.6457C92.5396 42.7952 93.6027 36.7993 94.5066 31.362C94.9801 28.5396 94.3805 25.641 92.8271 23.244C91.2738 20.847 88.8808 19.1276 86.1252 18.4286L85.5551 18.2838C79.3512 17.0991 74.8832 21.7396 73.8766 28.02L69.6602 49.8724L79.3255 60.1053L83.47 54.1146Z" fill="#B2655F"/>
<path d="M84.1329 50.9794C81.4205 50.2851 78.9626 48.8218 77.0508 46.7631C77.0508 46.7631 77.8417 51.5432 83.835 52.4951L84.1329 50.9794Z" fill="#8E4842"/>
<path d="M91.5076 36.0595C91.4551 36.2816 91.3179 36.4739 91.1257 36.5949C90.9335 36.7159 90.7017 36.7559 90.4805 36.7061C90.3716 36.6875 90.2675 36.6471 90.1743 36.5873C90.0811 36.5274 90.0008 36.4494 89.9381 36.3577C89.8754 36.2661 89.8315 36.1628 89.8091 36.0538C89.7868 35.9448 89.7863 35.8324 89.8077 35.7232C89.8615 35.5018 89.999 35.3103 90.1908 35.1895C90.3827 35.0687 90.6138 35.0282 90.8349 35.0765C90.9441 35.0945 91.0486 35.1345 91.1422 35.1941C91.2357 35.2538 91.3163 35.3318 91.3791 35.4236C91.442 35.5154 91.4857 35.6191 91.5078 35.7283C91.5299 35.8376 91.5298 35.9502 91.5076 36.0595Z" fill="#161B46"/>
<path d="M92.6376 33.4985C92.5092 33.5813 91.9905 32.9502 91.0969 32.7225C90.2033 32.4949 89.4175 32.7846 89.3456 32.6449C89.3148 32.5829 89.4689 32.4121 89.8079 32.2725C90.2688 32.1022 90.7703 32.0769 91.2458 32.2C91.7159 32.3169 92.1368 32.5815 92.4476 32.9554C92.6787 33.2399 92.7044 33.4623 92.6376 33.4985Z" fill="#161B46"/>
<path d="M83.3162 34.4713C83.2636 34.6936 83.1266 34.8863 82.9346 35.0082C82.7426 35.13 82.5109 35.1713 82.2891 35.1231C82.1802 35.1045 82.0761 35.0641 81.9829 35.0042C81.8897 34.9444 81.8094 34.8664 81.7467 34.7747C81.684 34.6831 81.6401 34.5797 81.6178 34.4708C81.5954 34.3618 81.5949 34.2494 81.6163 34.1402C81.6689 33.9181 81.8061 33.7258 81.9983 33.6048C82.1905 33.4838 82.4222 33.4438 82.6435 33.4935C82.7522 33.5115 82.8562 33.5514 82.9493 33.6107C83.0425 33.67 83.1228 33.7475 83.1856 33.8388C83.2483 33.93 83.2922 34.033 83.3147 34.1416C83.3371 34.2503 83.3377 34.3624 83.3162 34.4713Z" fill="#161B46"/>
<path d="M83.7014 31.6259C83.5678 31.7086 83.0491 31.0775 82.1607 30.8499C81.2722 30.6222 80.4813 30.912 80.4094 30.7723C80.3734 30.7154 80.5275 30.5395 80.8716 30.405C81.3297 30.2301 81.8304 30.203 82.3045 30.3274C82.7756 30.4415 83.1973 30.7065 83.5062 31.0827C83.7219 31.3672 83.763 31.5793 83.7014 31.6259Z" fill="#161B46"/>
<path d="M85.1963 39.4376C85.7121 39.4069 86.2298 39.4417 86.737 39.5411C86.9732 39.5773 87.2043 39.5876 87.2814 39.4376C87.3562 39.2003 87.3562 38.9455 87.2814 38.7082C87.2043 38.0925 87.1273 37.4459 87.04 36.7682C86.7216 34.0108 86.5572 31.7655 86.6651 31.7552C86.7729 31.7448 87.1222 33.9694 87.4406 36.7268C87.5176 37.4045 87.5844 38.0511 87.6511 38.672C87.7261 38.9888 87.6879 39.3222 87.5433 39.6135C87.4888 39.6859 87.4191 39.7452 87.3392 39.7872C87.2593 39.8293 87.1712 39.853 87.0811 39.8567C86.9443 39.8619 86.8075 39.8462 86.6754 39.8101C86.1688 39.7487 85.6719 39.6236 85.1963 39.4376Z" fill="#161B46"/>
<path d="M82.4071 39.3962C82.556 39.4221 82.3095 40.4309 82.9771 41.3259C83.6448 42.2209 84.713 42.3916 84.6822 42.5313C84.6513 42.671 84.4048 42.6658 83.958 42.5675C83.3825 42.4273 82.8738 42.0887 82.52 41.6105C82.1803 41.1524 82.0311 40.5789 82.1041 40.0119C82.1451 39.5877 82.3146 39.3704 82.4071 39.3962Z" fill="#161B46"/>
<path d="M84.5742 27.9216C84.4201 28.1493 83.5471 27.8026 82.4583 27.663C81.3695 27.5233 80.4348 27.5957 80.3527 27.337C80.3167 27.2181 80.5221 27.0215 80.9279 26.8714C81.4617 26.6921 82.0293 26.639 82.5868 26.7161C83.1443 26.7933 83.6767 26.9987 84.1428 27.3163C84.492 27.5698 84.641 27.813 84.5742 27.9216Z" fill="#161B46"/>
<path d="M93.0227 30.379C92.8121 30.5446 92.242 30.1773 91.4819 29.9755C90.7219 29.7738 90.0645 29.7634 89.972 29.5099C89.9361 29.3909 90.085 29.2099 90.4137 29.0805C90.8447 28.9422 91.3066 28.9351 91.7415 29.0603C92.1765 29.1855 92.565 29.4373 92.8583 29.7841C93.0843 30.0635 93.1151 30.2963 93.0227 30.379Z" fill="#161B46"/>
<path d="M73.2653 32.5519C73.1729 32.4846 69.5265 30.3273 68.6432 34.4039C67.7599 38.4805 72.0122 38.5426 72.043 38.4185C72.0738 38.2943 73.2653 32.5519 73.2653 32.5519Z" fill="#B2655F"/>
<path d="M71.1397 36.6026C71.1397 36.6026 71.0576 36.6388 70.9292 36.6647C70.7511 36.6975 70.5674 36.6605 70.4156 36.5612C70.0202 36.3077 69.8096 35.5266 69.9483 34.8075C70.0113 34.4555 70.1536 34.1228 70.3642 33.8349C70.4291 33.7155 70.522 33.614 70.6348 33.5391C70.7476 33.4642 70.8769 33.4184 71.0113 33.4055C71.0971 33.4009 71.1817 33.4268 71.2503 33.4789C71.3189 33.531 71.367 33.6057 71.3863 33.69C71.4171 33.8142 71.3863 33.8918 71.3863 33.9021C71.3863 33.9125 71.489 33.8556 71.4941 33.6797C71.4934 33.5742 71.4572 33.472 71.3914 33.39C71.3454 33.335 71.289 33.2898 71.2255 33.2569C71.1621 33.2241 71.0928 33.2042 71.0216 33.1986C70.8485 33.1965 70.6777 33.2387 70.525 33.321C70.3724 33.4033 70.2429 33.5231 70.1486 33.6693C69.8933 33.9828 69.7171 34.3537 69.635 34.7506C69.4861 35.5783 69.7377 36.4423 70.2872 36.7423C70.3894 36.7966 70.5022 36.8275 70.6176 36.8329C70.733 36.8383 70.8482 36.8179 70.9549 36.7734C71.1089 36.7009 71.15 36.613 71.1397 36.6026Z" fill="#8E4842"/>
<path d="M93.2846 24.0365C94.019 23.8089 92.4886 21.2532 91.03 20.1772C88.8217 18.5527 85.237 17.0731 82.854 17.2542C79.9883 17.456 77.4564 18.3406 75.587 20.5393C73.7541 22.792 72.5489 25.4952 72.0948 28.3718C71.8818 29.2339 71.9013 30.1376 72.1512 30.9895C72.5313 32.0242 73.5019 32.8105 73.1784 34.047C73.1164 34.2693 73.099 34.5018 73.1272 34.731C73.1554 34.9602 73.2287 35.1814 73.3427 35.3817C73.9179 36.3336 74.981 35.7749 75.5562 35.1127C76.7785 33.7003 77.2715 31.8121 77.7286 29.991C78.127 28.7185 78.3127 27.388 78.2781 26.0541C78.2216 25.3298 78.0367 24.6159 78.0162 23.8916C77.9864 23.5291 78.0348 23.1643 78.158 22.8223C78.2812 22.4803 78.4764 22.1692 78.7301 21.9102C78.8549 21.8122 78.9871 21.724 79.1255 21.6464C79.7942 21.267 80.5513 21.0742 81.3186 21.0878C82.086 21.1015 82.8358 21.3211 83.4908 21.724C85.6067 23.0173 89.2582 25.0505 90.4394 24.4866C92.1393 23.6692 92.6426 23.0122 92.6426 23.0122L93.2846 24.0365Z" fill="#161B46"/>
<path d="M50.1087 93.6287C50.2126 93.5684 50.3229 93.5198 50.4374 93.4839L51.3978 93.1062L55.0236 91.7404L67.5752 87.0844L67.5033 87.2603C66.4762 84.9788 65.3258 82.4956 64.1446 79.9244L62.4138 76.122L62.5525 76.1944L49.9803 78.1396C47.692 78.7879 45.5052 79.7561 43.4837 81.016C42.7647 81.4609 42.2255 81.8438 41.8557 82.1024L41.4448 82.4025C41.4008 82.4419 41.3505 82.4734 41.2959 82.4956L41.4243 82.3766L41.8197 82.0559C42.1741 81.7765 42.7082 81.3782 43.4221 80.9177C45.4341 79.6128 47.6244 78.6106 49.9238 77.943L62.4909 75.9668H62.5884L62.6347 76.0548C63.1945 77.2912 63.7799 78.5638 64.3705 79.8572C65.5415 82.4439 66.6765 84.9116 67.7139 87.1982L67.7755 87.3224L67.642 87.3741L55.0544 91.9267L51.4081 93.2252L50.4323 93.5615L50.1087 93.6287Z" fill="#161B46"/>
<path d="M57.6329 70.3796C57.3303 70.8349 56.9865 71.261 56.6058 71.6523C55.9381 72.4128 55.0034 73.4475 53.9404 74.5701C52.8773 75.6927 51.8861 76.6808 51.1414 77.3585C50.8484 77.6344 50.536 77.8885 50.2067 78.119C50.0783 78.1914 49.991 78.2639 49.878 78.2432C49.8654 78.229 49.8584 78.2105 49.8584 78.1915C49.8584 78.1724 49.8654 78.1539 49.878 78.1397V78.1139C49.878 78.1139 49.878 78.1811 49.9088 78.1915C50.0006 78.157 50.0844 78.1042 50.1554 78.0362C50.3659 77.8603 50.6689 77.5758 51.0181 77.224C51.732 76.5101 52.6975 75.5013 53.7555 74.3838L56.4774 71.523C56.8311 71.1109 57.2176 70.7285 57.6329 70.3796Z" fill="#161B46"/>
<path d="M60.0778 65.2684C60.0213 65.2684 60.1857 64.4561 60.1857 63.1473C60.184 62.3844 60.1187 61.6229 59.9905 60.871C59.6794 59.0224 59.0055 57.2549 58.0081 55.6718C57.5987 55.0269 57.1384 54.4162 56.6318 53.8456C55.7587 52.8782 55.0911 52.3919 55.1424 52.3505C55.3122 52.4377 55.4709 52.5454 55.6149 52.6712C55.7953 52.8028 55.9668 52.9463 56.1285 53.1006C56.353 53.2944 56.5673 53.4999 56.7704 53.7162C57.3055 54.2777 57.7886 54.8873 58.2136 55.5373C58.7274 56.3369 59.161 57.186 59.5077 58.0722C59.8385 58.9655 60.0827 59.889 60.237 60.8296C60.3541 61.598 60.4005 62.3755 60.3757 63.1525C60.369 63.45 60.3467 63.7471 60.3089 64.0423C60.2924 64.2668 60.2598 64.4899 60.2113 64.7097C60.1894 64.9006 60.1446 65.0882 60.0778 65.2684Z" fill="#161B46"/>
<path d="M73.1631 103.846C73.1631 103.8 73.8102 103.846 74.8476 103.846C77.5566 103.783 80.2006 102.998 82.51 101.57C83.3934 101.053 83.8966 100.618 83.9275 100.654C83.9583 100.69 83.8247 100.784 83.6039 100.98C83.2887 101.25 82.9577 101.5 82.6127 101.73C81.4694 102.495 80.2198 103.084 78.9048 103.479C77.5878 103.869 76.2201 104.057 74.8476 104.038C74.4336 104.035 74.0202 104.006 73.6099 103.95C73.4569 103.936 73.3065 103.902 73.1631 103.846Z" fill="#161B46"/>
<path d="M80.805 92.4235C80.709 92.5839 80.5934 92.7317 80.4609 92.8632C80.2298 93.1374 79.8806 93.5202 79.4338 93.991C78.5556 94.9274 77.2973 96.1845 75.8388 97.4934C74.3802 98.8022 73.009 99.93 71.987 100.706C71.4735 101.094 71.0575 101.404 70.7596 101.606C70.6161 101.726 70.4571 101.825 70.2871 101.901C70.4084 101.759 70.5464 101.632 70.698 101.523L71.8689 100.556C72.855 99.7438 74.2108 98.6056 75.6642 97.2968C77.1176 95.9879 78.3861 94.7566 79.3002 93.8565L80.3787 92.7908C80.6406 92.5424 80.7896 92.4079 80.805 92.4235Z" fill="#161B46"/>
</svg>
