<svg width="156" height="174" viewBox="0 0 156 174" fill="none" xmlns="http://www.w3.org/2000/svg">
<rect width="156" height="174" rx="16" fill="#F4F5FB"/>
<path d="M78 114C102.301 114 122 112.209 122 110C122 107.791 102.301 106 78 106C53.6995 106 34 107.791 34 110C34 112.209 53.6995 114 78 114Z" fill="#E6E8F3"/>
<path d="M68.1085 104.63L68.1888 100.073C68.1913 99.9314 68.2414 99.7952 68.3309 99.686C68.4204 99.5768 68.5441 99.501 68.682 99.4708C69.7086 99.2489 72.1394 98.6778 73.8103 97.8778C75.9744 96.8441 78.568 95.3266 80.4183 94.5738C82.462 93.7454 87.9372 91.1235 89.0087 90.76C89.1157 90.7231 89.2309 90.7166 89.3414 90.7411L110.159 95.2204C110.193 95.2276 110.228 95.2323 110.263 95.2346C110.6 95.2464 112.514 95.3597 112.623 96.2753C112.727 97.0943 112.599 100.141 112.55 101.243C112.544 101.362 112.505 101.477 112.436 101.574C112.367 101.672 112.273 101.748 112.163 101.793C110.242 102.584 101.375 106.31 99.1685 108.566C96.6905 111.098 93.79 113.267 92.6454 113.319C91.5008 113.371 87.3826 111.866 86.1719 111.486C85.0769 111.143 71.1435 106.176 68.5215 105.241C68.397 105.196 68.2899 105.112 68.2158 105.002C68.1416 104.893 68.104 104.762 68.1085 104.63Z" fill="#936754"/>
<path d="M112.636 96.2656C112.636 96.2656 105.792 99.3761 102.76 100.686C99.7269 101.996 97.5321 104.2 96.2341 105.543C94.9361 106.886 94.2966 107.785 92.1513 107.844C90.0061 107.903 83.5255 105.309 80.1743 103.952C76.9435 102.647 70.1066 100.287 68.5254 99.7443C68.4876 99.7317 68.4473 99.7282 68.4079 99.734C68.3684 99.7398 68.3309 99.7548 68.2983 99.7778C68.2657 99.8007 68.239 99.831 68.2202 99.8662C68.2014 99.9013 68.1912 99.9404 68.1903 99.9803L68.1737 100.846L68.1006 105.076C68.1006 105.076 84.9675 111.091 86.1758 111.471C87.3841 111.851 91.5023 113.359 92.6493 113.305C93.7963 113.251 96.6943 111.084 99.1723 108.552C101.65 106.019 112.535 101.628 112.535 101.628C112.535 101.628 112.754 97.271 112.636 96.2656Z" fill="#7C5142"/>
<path d="M80.2167 96.2794C79.8698 96.3289 79.6243 96.5626 79.6881 96.7797C79.7518 96.9968 80.1176 97.1691 80.4716 97.1479C80.8256 97.1266 81.1159 96.9119 81.097 96.6924C81.0781 96.4729 80.7477 96.2723 80.389 96.2676" fill="#7C5142"/>
<path d="M101.2 98.8302C100.855 98.8797 100.61 99.1134 100.673 99.3305C100.737 99.5476 101.101 99.7199 101.457 99.6986C101.813 99.6774 102.101 99.4626 102.08 99.2432C102.059 99.0237 101.733 98.8254 101.372 98.8184" fill="#7C5142"/>
<path d="M101.308 97.8604C101.11 97.8887 100.966 98.0232 101.004 98.1506C101.042 98.2781 101.252 98.3748 101.457 98.363C101.662 98.3512 101.83 98.2262 101.818 98.0987C101.806 97.9713 101.617 97.8627 101.41 97.8627" fill="#7C5142"/>
<path d="M96.9421 101.625C96.7415 101.653 96.5999 101.788 96.6377 101.915C96.6755 102.043 96.8855 102.139 97.0908 102.125C97.2961 102.111 97.4613 101.991 97.4495 101.863C97.4377 101.736 97.2489 101.627 97.0436 101.627" fill="#7C5142"/>
<path d="M78.3665 96.8838C78.1659 96.9121 78.0243 97.049 78.062 97.1741C78.0998 97.2992 78.298 97.4101 78.5128 97.3865C78.7275 97.3629 78.8857 97.2496 78.8739 97.1222C78.8621 96.9947 78.6733 96.8862 78.4656 96.8862" fill="#7C5142"/>
<path d="M68.5256 99.7461L68.6484 99.7815L69 99.8972L70.3499 100.353C71.5299 100.751 73.2126 101.334 75.3059 102.078C76.3467 102.451 77.4866 102.864 78.7043 103.322C79.9221 103.779 81.2059 104.315 82.5676 104.846C83.9294 105.377 85.3619 105.927 86.8652 106.449C87.6157 106.711 88.3843 106.96 89.1709 107.194C89.9635 107.44 90.7738 107.625 91.5946 107.747C91.6969 107.763 91.8003 107.771 91.9038 107.77C92.0076 107.77 92.1091 107.784 92.213 107.77L92.5245 107.754L92.8336 107.718C93.2417 107.67 93.6397 107.558 94.0136 107.388C94.7523 107.043 95.3069 106.444 95.8544 105.863C96.8896 104.732 98.0142 103.685 99.2174 102.734C100.315 101.88 101.514 101.167 102.788 100.61L106.092 99.1396L110.881 97.0156L112.186 96.4445L112.528 96.2982L112.643 96.251C112.643 96.251 112.608 96.2722 112.533 96.31L112.197 96.4657L110.902 97.0581L106.111 99.2317L102.807 100.716C101.544 101.275 100.355 101.988 99.267 102.84C98.071 103.79 96.9527 104.834 95.9229 105.962C95.3777 106.533 94.8137 107.157 94.0467 107.515C93.6642 107.689 93.2576 107.805 92.8407 107.857L92.5245 107.89L92.2082 107.909C92.1044 107.909 91.9958 107.909 91.8896 107.909C91.783 107.91 91.6765 107.902 91.571 107.886C90.7433 107.761 89.9261 107.575 89.1261 107.329C88.3394 107.093 87.5693 106.843 86.8156 106.578C85.31 106.054 83.8774 105.502 82.5157 104.966C81.154 104.431 79.8749 103.893 78.6595 103.435C77.4441 102.977 76.2995 102.555 75.2682 102.177L70.3334 100.414L68.9929 99.942L68.6436 99.8146C68.5658 99.765 68.5256 99.7461 68.5256 99.7461Z" fill="#161B46"/>
<g opacity="0.2">
<path opacity="0.2" d="M74.6753 97.4406C77.3657 98.9298 80.2425 100.464 83.3129 100.294C85.6729 100.162 87.8559 99.0265 89.9917 97.9999C93.7497 96.1848 97.6323 94.6398 101.61 93.3767C98.542 92.7112 95.5896 92.0339 92.5027 91.4179C91.5587 91.2291 89.9067 90.8751 89.3214 90.7264C89.1701 90.708 89.0167 90.7343 88.8801 90.802C88.2358 91.0781 85.8617 92.1118 85.1041 92.454C78.9115 95.26 78.305 95.5786 74.68 97.4359" fill="#2D3259"/>
</g>
<path d="M64.8226 80.189C64.747 80.3825 67.5271 90.6509 67.5271 90.6509C67.5271 90.6509 74.4986 92.3807 77.8026 91.5075C81.1066 90.6343 90.8132 87.1911 93.1095 86.8159C95.4058 86.4406 102.226 86.6318 105.559 87.0283C108.891 87.4247 112.615 87.3823 114.713 86.5563L114.763 85.9922L110.352 77.3074C107.802 77.5649 105.231 77.5174 102.693 77.1658C98.318 76.59 92.444 76.2478 87.665 78.2561C82.886 80.2645 80.4104 80.72 78.4728 80.9347C76.6532 81.1377 66.1371 79.724 64.8721 79.6226L64.8226 80.189Z" fill="#0085C8"/>
<path opacity="0.3" d="M64.8226 80.189C64.747 80.3825 67.5271 90.6509 67.5271 90.6509C67.5271 90.6509 74.4986 92.3807 77.8026 91.5075C81.1066 90.6343 90.8132 87.1911 93.1095 86.8159C95.4058 86.4406 102.226 86.6318 105.559 87.0283C108.891 87.4247 112.615 87.3823 114.713 86.5563L114.763 85.9922L110.352 77.3074C107.802 77.5649 105.231 77.5174 102.693 77.1658C98.318 76.59 92.444 76.2478 87.665 78.2561C82.886 80.2645 80.4104 80.72 78.4728 80.9347C76.6532 81.1377 66.1371 79.724 64.8721 79.6226L64.8226 80.189Z" fill="#2D3259"/>
<path d="M64.8721 79.628C64.7966 79.8216 67.579 90.0899 67.579 90.0899C67.579 90.0899 74.5481 91.8198 77.8521 90.9442C81.1561 90.0687 90.8652 86.6278 93.1591 86.2549C95.453 85.882 102.278 86.0685 105.608 86.4673C108.938 86.8662 112.664 86.819 114.763 85.9953L110.401 76.7488C107.852 77.0064 105.281 76.9588 102.743 76.6072C98.37 76.029 92.4936 75.6892 87.7146 77.6976C82.9356 79.7059 80.4599 80.159 78.5224 80.3762C76.5848 80.5933 64.8721 79.628 64.8721 79.628Z" fill="#0085C8"/>
<path opacity="0.3" d="M114.76 85.9971C112.662 86.8184 108.844 86.8278 105.511 86.429C102.179 86.0301 95.3635 85.8437 93.0625 86.2166C90.7615 86.5895 81.0619 90.028 77.7579 90.9083C74.4539 91.7885 67.6925 90.1696 67.6925 90.1696L67.5273 90.6416L66.5266 86.9104L66.6493 86.6178C68.9052 86.4033 71.1755 86.3859 73.4343 86.5659C76.8658 86.875 79.9125 87.6019 81.7345 87.1205C83.5564 86.639 86.4191 85.9405 87.8705 85.0956C89.3219 84.2507 92.7014 82.9574 96.1706 83.1698C99.6398 83.3822 101.424 83.7339 104.28 83.9345C107.135 84.1351 112.7 82.8394 113.21 82.7002L114.76 85.9971Z" fill="white"/>
<path opacity="0.3" d="M65.042 81.2181L65.1765 81.001C67.1049 81.811 69.1903 82.1787 71.2795 82.0771C74.8336 81.9285 82.6759 80.8971 83.1385 81.1591C83.601 81.4211 83.7851 81.3809 82.8057 82.0181C81.8263 82.6553 69.7596 85.2702 66.1441 84.718L65.9954 84.9115L65.042 81.2181Z" fill="white"/>
<path opacity="0.3" d="M111.152 78.3418C111.152 78.3418 107.477 80.0457 97.8934 79.1631C97.8934 79.1631 91.7267 78.9271 88.4085 80.8009C85.0904 82.6747 80.7786 84.0553 80.1485 84.3763C79.5184 84.6973 78.0245 85.0843 79.1526 85.3439C80.2807 85.6035 85.3216 84.1191 86.9996 83.1326C88.6776 82.1461 89.7584 81.8299 91.0446 81.424C92.3308 81.018 95.9629 80.952 99.9041 81.4074C103.845 81.8629 109.066 82.2169 110.392 81.5561C111.718 80.8953 112.247 80.6664 112.247 80.6664L111.152 78.3418Z" fill="white"/>
<g opacity="0.8">
<path opacity="0.8" d="M89.0572 77.5459C89.0572 77.5459 89.043 77.5601 89.0076 77.5789L88.8542 77.6639C88.7174 77.7394 88.5168 77.8456 88.2524 77.9778C87.7238 78.2374 86.9521 78.5985 85.9656 78.9737C84.8116 79.4128 83.6288 79.7724 82.4256 80.0499C80.9503 80.3846 79.4511 80.6032 77.9416 80.7036C75.2012 80.8495 72.4535 80.7793 69.7241 80.4936C68.6762 80.3968 67.8361 80.3024 67.2461 80.2387L66.5735 80.1584L66.3988 80.1348C66.3786 80.1332 66.3587 80.1284 66.3398 80.1207H66.3988L66.5758 80.1325L67.2508 80.1915L69.7312 80.4062C71.8245 80.5714 74.732 80.7933 77.9322 80.5809C79.4347 80.4806 80.9274 80.266 82.3973 79.939C83.599 79.6686 84.7815 79.3193 85.9373 78.8935C86.9214 78.53 87.6978 78.1855 88.2312 77.9329C88.4979 77.8102 88.7032 77.7111 88.8424 77.6427L89.0029 77.5671C89.0197 77.5572 89.0381 77.55 89.0572 77.5459Z" fill="white"/>
</g>
<g opacity="0.8">
<path opacity="0.8" d="M93.2629 76.8991C93.2629 76.9345 92.6021 76.9746 91.7926 77.0879C90.9831 77.2012 90.3341 77.3357 90.3247 77.3003C90.7919 77.1262 91.2798 77.0135 91.7761 76.9652C92.2665 76.877 92.7666 76.8548 93.2629 76.8991Z" fill="white"/>
</g>
<g opacity="0.8">
<path opacity="0.8" d="M107.517 77.671C107.517 77.704 104.921 77.5318 101.719 77.2863C98.5163 77.0409 95.9274 76.8143 95.9321 76.7766C95.9369 76.7388 98.5281 76.9158 101.728 77.1636C104.928 77.4114 107.52 77.638 107.517 77.671Z" fill="white"/>
</g>
<g opacity="0.8">
<path opacity="0.8" d="M68.1758 89.1405C68.131 89.057 68.0946 88.9692 68.0673 88.8785C68.0036 88.7086 67.9186 88.4608 67.8171 88.1516C67.6118 87.5357 67.3451 86.679 67.0666 85.7255C66.7882 84.7721 66.564 83.9036 66.4106 83.2711C66.3327 82.9573 66.2737 82.7 66.2359 82.523C66.2108 82.4312 66.195 82.3371 66.1887 82.2422C66.2313 82.3276 66.2631 82.4179 66.2831 82.5112L66.4932 83.2499L67.1846 85.6901L67.8926 88.1257C67.9776 88.4183 68.0484 88.6661 68.105 88.8643C68.1405 88.9529 68.1643 89.0457 68.1758 89.1405Z" fill="white"/>
</g>
<g opacity="0.3">
<path opacity="0.3" d="M66.156 80.0385C67.8835 82.1932 67.7018 85.7025 69.9792 87.2578C71.0766 88.013 72.4879 88.1027 73.8213 88.0791C78.3243 88.0005 82.7552 86.9346 86.8013 84.9568C89.5153 83.6281 92.0641 81.8888 94.9763 81.0817C100.692 79.5005 106.743 81.759 112.676 81.5135L110.701 77.1357L66.156 80.0385Z" fill="#2D3259"/>
</g>
<path d="M65.8255 74.2564C65.7618 74.4688 69.5118 85.2091 69.5118 85.2091C69.5118 85.2091 77.0804 86.5213 80.5378 85.3366C83.9952 84.1518 94.0889 79.7386 96.5079 79.1722C98.9269 78.6058 106.219 78.2778 109.804 78.4477C113.389 78.6176 117.356 78.2849 119.532 77.2488V76.6447L114.163 67.7168C111.463 68.1868 108.717 68.3326 105.983 68.151C101.263 67.8702 94.981 67.9528 90.0344 70.4615C85.0878 72.9702 82.4824 73.6428 80.4339 74.0204C78.5082 74.3767 67.1825 73.6711 65.8255 73.6593V74.2564Z" fill="#0085C8"/>
<path opacity="0.3" d="M65.8255 74.2564C65.7618 74.4688 69.5118 85.2091 69.5118 85.2091C69.5118 85.2091 77.0804 86.5213 80.5378 85.3366C83.9952 84.1518 94.0889 79.7386 96.5079 79.1722C98.9269 78.6058 106.219 78.2778 109.804 78.4477C113.389 78.6176 117.356 78.2849 119.532 77.2488V76.6447L114.163 67.7168C111.463 68.1868 108.717 68.3326 105.983 68.151C101.263 67.8702 94.981 67.9528 90.0344 70.4615C85.0878 72.9702 82.4824 73.6428 80.4339 74.0204C78.5082 74.3767 67.1825 73.6711 65.8255 73.6593V74.2564Z" fill="#2D3259"/>
<path d="M65.8373 73.6521C65.7712 73.8645 69.5236 84.6049 69.5236 84.6049C69.5236 84.6049 77.0898 85.917 80.5472 84.7323C84.0046 83.5476 94.0983 79.1344 96.5173 78.5609C98.9363 77.9874 106.231 77.6665 109.816 77.8364C113.401 78.0063 117.368 77.6735 119.544 76.6375L114.184 67.1055C111.485 67.5754 108.739 67.7212 106.004 67.5397C101.284 67.2589 95.0022 67.3415 90.0556 69.8501C85.1091 72.3588 82.5036 73.0314 80.4551 73.409C78.4067 73.7866 65.8373 73.6521 65.8373 73.6521Z" fill="#0085C8"/>
<path opacity="0.3" d="M119.544 76.6377C117.37 77.6737 113.297 77.9734 109.712 77.8035C106.127 77.6336 98.8346 77.9545 96.4156 78.528C93.9966 79.1015 83.9076 83.5171 80.4431 84.7018C76.9787 85.8865 69.6509 84.6829 69.6509 84.6829L69.5116 85.2092L68.157 81.2963L68.2655 80.9753C70.6554 80.5739 73.0757 80.3813 75.4989 80.3995C79.1853 80.4703 82.4916 81.0107 84.3961 80.3594C86.3007 79.708 89.3049 78.7428 90.7917 77.728C92.2785 76.7132 95.7808 75.0801 99.5001 75.0399C103.219 74.9998 105.145 75.2405 108.206 75.2358C111.267 75.2311 117.103 73.4257 117.646 73.2393L119.544 76.6377Z" fill="white"/>
<path opacity="0.3" d="M66.144 75.3345L66.2715 75.0985C68.3899 75.8163 70.6424 76.0494 72.863 75.7806C76.639 75.3487 84.932 73.6566 85.4441 73.8926C85.9562 74.1286 86.1521 74.0814 85.1562 74.8366C84.1603 75.5918 71.4871 79.3017 67.5836 78.9878L67.442 79.2049L66.144 75.3345Z" fill="white"/>
<path opacity="0.3" d="M115.107 68.7461C115.107 68.7461 111.319 70.8441 101.027 70.6341C101.027 70.6341 94.431 70.8489 91.035 73.1027C87.639 75.3565 83.1361 77.1619 82.4942 77.5513C81.8522 77.9407 80.2758 78.4599 81.5077 78.6605C82.7396 78.8611 87.9953 76.881 89.711 75.701C91.4268 74.521 92.543 74.1009 93.893 73.577C95.2429 73.0531 99.1038 72.7015 103.333 72.8808C107.562 73.0602 113.167 73.046 114.534 72.2389C115.9 71.4318 116.445 71.1486 116.445 71.1486L115.107 68.7461Z" fill="white"/>
<g opacity="0.8">
<path opacity="0.8" d="M91.479 69.5863L91.4271 69.6241L91.2689 69.7255C91.1297 69.8152 90.922 69.945 90.6506 70.1055C90.1078 70.4241 89.3101 70.8678 88.2906 71.3421C87.0934 71.8983 85.8594 72.3714 84.5972 72.7581C83.0532 73.2269 81.4752 73.5748 79.8772 73.7989C76.467 74.2709 73.3424 74.2402 71.0957 74.2025C69.9699 74.1812 69.0613 74.1458 68.4336 74.1199L67.7091 74.0868L67.5203 74.075H67.4565C67.4776 74.0714 67.4992 74.0714 67.5203 74.075H67.7091H68.4336L71.098 74.1175C73.3424 74.134 76.4623 74.1505 79.8607 73.6785C81.458 73.4576 83.0359 73.1143 84.5807 72.6519C85.8399 72.2711 87.0729 71.8084 88.2717 71.2666C89.296 70.7946 90.096 70.3722 90.6459 70.0654C90.9197 69.9143 91.1321 69.7916 91.276 69.7067L91.4389 69.6146C91.4577 69.5934 91.4766 69.5839 91.479 69.5863Z" fill="white"/>
</g>
<g opacity="0.8">
<path opacity="0.8" d="M95.913 68.5732C95.913 68.6086 95.205 68.7007 94.3602 68.8824C93.5153 69.0641 92.8238 69.26 92.812 69.2269C93.7987 68.8267 94.8488 68.6053 95.913 68.5732Z" fill="white"/>
</g>
<g opacity="0.8">
<path opacity="0.8" d="M111.178 68.3163C111.178 68.3493 108.395 68.3611 104.964 68.3422C101.532 68.3233 98.7522 68.2809 98.7522 68.2455C98.7522 68.2101 101.532 68.2006 104.966 68.2195C108.4 68.2384 111.178 68.2738 111.178 68.3163Z" fill="white"/>
</g>
<g opacity="0.8">
<path opacity="0.8" d="M70.0901 83.5479C70.0338 83.4631 69.9879 83.372 69.9532 83.2765C69.8753 83.0995 69.7644 82.8422 69.6322 82.5189C69.3655 81.877 69.0139 80.9849 68.6481 79.989C68.2823 78.993 67.9731 78.0844 67.7584 77.4213C67.6522 77.0909 67.5696 76.8219 67.5224 76.6354C67.4887 76.5404 67.4642 76.4424 67.4492 76.3428C67.4976 76.4315 67.5371 76.5248 67.5672 76.6213L67.8481 77.393L68.7708 79.9465L69.7148 82.4882L70.0004 83.2599C70.0395 83.3528 70.0695 83.4492 70.0901 83.5479Z" fill="white"/>
</g>
<path d="M116.556 55.7353C116.034 54.7535 114.965 54.18 113.892 53.8921C112.818 53.6042 111.697 53.5452 110.616 53.2856C108.546 52.7853 106.717 51.5628 104.673 50.9563C99.9793 49.5615 95.0635 51.4519 90.5865 53.4343C87.6082 53.852 85.4559 52.7522 82.5767 51.8885C79.6975 51.0247 76.5634 50.3167 73.7314 51.3292C71.6074 52.0891 69.769 53.7883 67.5105 53.8945C65.9599 53.9676 64.1663 53.3281 63.0029 54.3665C62.014 55.2397 62.1603 56.894 62.9108 57.9796C64.0531 59.6316 66.17 60.3066 68.1689 60.5048C70.1678 60.7031 72.2092 60.5284 74.168 61.0004C78.7913 62.1238 82.0504 66.5724 86.676 67.6722C90.216 68.5123 93.9023 67.2285 97.1898 65.6662C100.477 64.1038 103.715 62.2135 107.324 61.7391C108.777 61.548 110.255 61.5928 111.709 61.404C113.162 61.2152 114.647 60.7621 115.697 59.752C116.747 58.7419 117.243 57.0309 116.556 55.7353Z" fill="#0085C8"/>
<g opacity="0.8">
<path opacity="0.8" d="M116.556 55.7353C116.034 54.7535 114.965 54.18 113.892 53.8921C112.818 53.6042 111.697 53.5452 110.616 53.2856C108.546 52.7853 106.717 51.5628 104.673 50.9563C99.9793 49.5615 95.0635 51.4519 90.5865 53.4343C87.6082 53.852 85.4559 52.7522 82.5767 51.8885C79.6975 51.0247 76.5634 50.3167 73.7314 51.3292C71.6074 52.0891 69.769 53.7883 67.5105 53.8945C65.9599 53.9676 64.1663 53.3281 63.0029 54.3665C62.014 55.2397 62.1603 56.894 62.9108 57.9796C64.0531 59.6316 66.17 60.3066 68.1689 60.5048C70.1678 60.7031 72.2092 60.5284 74.168 61.0004C78.7913 62.1238 82.0504 66.5724 86.676 67.6722C90.216 68.5123 93.9023 67.2285 97.1898 65.6662C100.477 64.1038 103.715 62.2135 107.324 61.7391C108.777 61.548 110.255 61.5928 111.709 61.404C113.162 61.2152 114.647 60.7621 115.697 59.752C116.747 58.7419 117.243 57.0309 116.556 55.7353Z" fill="white"/>
</g>
<path d="M98.3511 58.7276C97.4032 56.9836 95.9811 55.5436 94.2492 54.5738C92.5173 53.6041 90.5463 53.1443 88.5641 53.2477C85.1469 53.4837 81.9396 55.577 80.2664 58.5506C80.0507 58.9361 79.9936 59.3905 80.1073 59.8174C80.2209 60.2443 80.4964 60.6102 80.8753 60.8374C85.7133 63.7143 92.2623 64.2901 97.2867 61.8711C97.8602 61.595 98.4667 61.2386 98.6838 60.6439C98.9009 60.0492 98.6626 59.3199 98.3511 58.7276Z" fill="#0085C8"/>
<g opacity="0.3">
<path opacity="0.3" d="M95.0705 59.8914C94.6615 59.874 94.253 59.9348 93.8669 60.0708C91.3165 60.7375 88.6125 60.4818 86.2323 59.3486C85.6565 59.0701 85.0287 58.6146 85.0523 57.9751C85.0985 57.6637 85.2112 57.3659 85.3827 57.1019C85.557 56.8368 85.6221 56.5147 85.5644 56.2027C85.4747 55.903 85.0712 55.6953 84.8328 55.8983C84.1083 56.2523 83.0605 57.1845 82.5295 57.7863C81.9985 58.3881 81.7271 59.299 82.0929 60.0165C82.3407 60.5074 82.8339 60.826 83.3248 61.0714C85.647 62.2372 88.3421 62.3151 90.9405 62.3694C92.4438 62.4001 94.0533 62.4024 95.3041 61.5646C95.618 61.3522 95.9248 61.036 95.9059 60.6584C95.8871 60.2808 95.4741 59.9457 95.0705 59.8914Z" fill="white"/>
</g>
<g opacity="0.8">
<path opacity="0.8" d="M91.9386 66.1048C91.3982 67.6128 85.5218 66.6122 82.8857 64.8941C80.7829 63.5253 79.1734 61.4178 76.8865 60.3889C74.8475 59.4685 72.5276 59.5204 70.2998 59.3033C68.0719 59.0861 65.1267 58.8761 63.7838 57.0801C63.7838 57.0801 63.2127 56.6223 64.2865 56.5303C65.3603 56.4382 64.7585 57.4554 67.902 57.9793C71.0455 58.5032 73.5094 56.5822 79.4377 61.3281C85.366 66.0741 87.6434 65.9608 88.8777 65.8924C90.112 65.824 92.1982 65.3803 91.9386 66.1048Z" fill="white"/>
</g>
<g opacity="0.8">
<path opacity="0.8" d="M64.5983 54.6284C64.2755 54.696 63.9677 54.8216 63.6897 54.9989C63.4343 55.2066 63.2191 55.4594 63.0548 55.7446C63.0407 55.7446 63.0548 55.6243 63.1398 55.4544C63.2508 55.2346 63.4126 55.0445 63.6118 54.8998C63.8124 54.7542 64.0444 54.658 64.2891 54.6189C64.3909 54.5916 64.4984 54.5949 64.5983 54.6284Z" fill="white"/>
</g>
<g opacity="0.8">
<path opacity="0.8" d="M75.8955 51.9284C75.4748 51.8812 75.0511 51.8662 74.6282 51.8835C74.1712 51.9177 73.7211 52.0137 73.29 52.1691C72.7646 52.3664 72.2702 52.6382 71.8221 52.9762C71.3336 53.3231 70.8781 53.6842 70.4226 53.9438C70.0204 54.1855 69.5786 54.3541 69.1176 54.4418C68.805 54.5006 68.4836 54.4942 68.1736 54.4229C68.0926 54.4033 68.0136 54.3765 67.9376 54.3426C67.8833 54.3214 67.855 54.3072 67.8573 54.3025C67.8597 54.2978 67.9753 54.3379 68.1901 54.378C68.4941 54.427 68.8046 54.419 69.1058 54.3544C69.552 54.2571 69.9788 54.0856 70.3684 53.847C70.812 53.5827 71.2628 53.2264 71.7537 52.8747C72.211 52.5307 72.7168 52.2563 73.2546 52.0605C73.6959 51.9076 74.1569 51.8193 74.6234 51.7986C74.9391 51.7829 75.2554 51.8003 75.5674 51.8505C75.6518 51.8625 75.7354 51.8798 75.8176 51.9024C75.8444 51.9082 75.8705 51.9169 75.8955 51.9284Z" fill="white"/>
</g>
<g opacity="0.8">
<path opacity="0.8" d="M106.448 56.264C106.448 56.264 106.264 56.2923 105.938 56.3537C105.477 56.443 105.027 56.5872 104.6 56.7832C103.967 57.0772 103.367 57.438 102.811 57.8594C102.176 58.3314 101.527 58.9001 100.843 59.5114C99.4694 60.7197 98.0817 61.6566 96.9819 62.1475C96.5525 62.3464 96.1052 62.5045 95.6462 62.6195C95.4833 62.6643 95.3535 62.6808 95.2662 62.6974C95.2233 62.7097 95.1787 62.7153 95.134 62.7139C95.134 62.7139 95.3134 62.6643 95.632 62.5723C96.0833 62.4376 96.523 62.2663 96.9465 62.0602C98.3296 61.3487 99.6121 60.4567 100.76 59.4075C101.445 58.8057 102.101 58.2275 102.745 57.7555C103.31 57.3329 103.92 56.975 104.565 56.6888C105 56.4987 105.459 56.3655 105.929 56.2923C106.056 56.2723 106.185 56.2589 106.313 56.2522C106.359 56.2509 106.404 56.2548 106.448 56.264Z" fill="white"/>
</g>
<g opacity="0.8">
<path opacity="0.8" d="M114.524 59.2324C114.714 59.1132 114.895 58.9807 115.067 58.8359C115.471 58.4754 115.724 57.9752 115.775 57.4359C115.826 56.8966 115.67 56.358 115.34 55.9284C115.196 55.753 115.038 55.5888 114.868 55.4375C114.868 55.4375 114.932 55.4587 115.031 55.5272C115.168 55.6259 115.291 55.7426 115.397 55.8741C115.578 56.0911 115.715 56.3418 115.799 56.6117C115.882 56.8817 115.912 57.1655 115.886 57.447C115.859 57.7284 115.778 58.0019 115.645 58.2516C115.513 58.5013 115.332 58.7224 115.114 58.902C114.985 59.0114 114.842 59.1027 114.689 59.1734C114.638 59.2032 114.582 59.2232 114.524 59.2324Z" fill="white"/>
</g>
<g opacity="0.8">
<path opacity="0.8" d="M79.9475 53.0634C78.2596 52.1303 76.2984 51.8172 74.4039 52.1784C73.2003 52.4144 71.9707 52.9974 71.4114 54.0877C71.2344 54.4181 71.848 54.5856 72.143 54.5078C72.438 54.4299 72.7235 54.1089 72.9808 53.9484C74.3037 53.1313 75.8962 52.8708 77.4105 53.2239C78.1846 53.408 78.9351 53.7526 79.7304 53.7408C79.9664 53.7408 80.2543 53.6369 80.2472 53.4056C80.2378 53.2475 80.0844 53.1413 79.9475 53.0634Z" fill="white"/>
</g>
<g opacity="0.8">
<path opacity="0.8" d="M88.453 53.8831C88.3313 53.9196 88.2065 53.9441 88.0801 53.9563C87.9597 53.9728 87.811 53.9964 87.6435 54.0365C87.4759 54.0766 87.28 54.1049 87.07 54.1687C86.86 54.2324 86.6287 54.289 86.388 54.3763C86.1472 54.4637 85.8924 54.5604 85.6257 54.669C84.4773 55.1666 83.4314 55.8732 82.5412 56.7529C82.3406 56.9582 82.1447 57.1517 81.9842 57.3499C81.8254 57.5271 81.6758 57.7122 81.5358 57.9046C81.3989 58.0721 81.2998 58.242 81.196 58.3766C81.0921 58.5111 81.019 58.6456 80.96 58.7518C80.8998 58.8639 80.8312 58.9712 80.7546 59.0728C80.7999 58.9534 80.8551 58.8382 80.9198 58.7282C80.9853 58.5945 81.0594 58.4652 81.1417 58.3411C81.2361 58.1925 81.3352 58.0202 81.4674 57.8456C81.6038 57.6479 81.7511 57.458 81.9087 57.2768C82.0692 57.0738 82.2627 56.8756 82.4633 56.6655C83.3561 55.7672 84.416 55.0521 85.5832 54.5604C85.8546 54.4542 86.1095 54.348 86.3596 54.2749C86.5864 54.1977 86.8172 54.133 87.0511 54.0813C87.2635 54.0223 87.4618 53.9964 87.6317 53.9633C87.7783 53.9353 87.9265 53.9156 88.0754 53.9043C88.2006 53.8883 88.3267 53.8812 88.453 53.8831Z" fill="white"/>
</g>
<g opacity="0.8">
<path opacity="0.8" d="M90.7541 54.001C90.5566 54.0144 90.3582 54.0017 90.1641 53.9632C89.9662 53.9651 89.7689 53.9429 89.5764 53.8971C89.766 53.8216 89.9731 53.802 90.1735 53.8405C90.3782 53.8384 90.5794 53.894 90.7541 54.001Z" fill="white"/>
</g>
<path d="M69.6704 41.9384L69.7459 37.5724C69.748 37.4369 69.7958 37.3062 69.8814 37.2013C69.9671 37.0963 70.0856 37.0234 70.2179 36.9942C71.202 36.7841 73.5219 36.2343 75.1314 35.4696C77.2059 34.4761 79.6933 33.0247 81.4727 32.3025C83.4292 31.5072 88.6778 28.9985 89.7044 28.6469C89.8068 28.6112 89.9171 28.6046 90.023 28.628L109.97 32.9161C110.003 32.9243 110.037 32.929 110.071 32.9303C110.392 32.9421 112.228 33.0506 112.337 33.9285C112.436 34.7144 112.316 37.6337 112.266 38.6887C112.261 38.8029 112.223 38.9132 112.158 39.0069C112.092 39.1005 112.001 39.1735 111.896 39.2173C110.055 39.9749 101.556 43.5455 99.4418 45.7073C97.0676 48.1357 94.2875 50.2125 93.1901 50.2621C92.0928 50.3117 88.1468 48.8697 86.9881 48.5063C85.9379 48.1759 72.5921 43.4157 70.0692 42.5213C69.9498 42.4786 69.8469 42.3992 69.7753 42.2945C69.7037 42.1898 69.667 42.0652 69.6704 41.9384Z" fill="#936754"/>
<path d="M112.336 33.9238C112.336 33.9238 105.792 36.9045 102.87 38.16C99.9485 39.4155 97.8622 41.5277 96.6256 42.8139C95.389 44.1001 94.7683 44.9639 92.7127 45.0205C90.6572 45.0772 84.4527 42.5897 81.2337 41.2917C78.1374 40.0409 71.5836 37.7801 70.0709 37.2609C70.0337 37.246 69.9934 37.2407 69.9537 37.2457C69.9139 37.2507 69.8761 37.2656 69.8438 37.2893C69.8115 37.3129 69.7857 37.3443 69.7688 37.3806C69.752 37.4169 69.7447 37.4569 69.7476 37.4969L69.7334 38.3276L69.6626 42.3797C69.6626 42.3797 85.8262 48.1475 86.9874 48.5157C88.1485 48.8839 92.0897 50.3211 93.1894 50.2715C94.2892 50.222 97.0669 48.1475 99.4411 45.7167C101.815 43.2859 112.246 39.0828 112.246 39.0828C112.246 39.0828 112.456 34.8867 112.336 33.9238Z" fill="#7C5142"/>
<path d="M81.2738 33.9378C80.9434 33.985 80.7074 34.2092 80.7688 34.4098C80.8301 34.6104 81.1794 34.7827 81.5192 34.7615C81.8591 34.7402 82.1376 34.5373 82.1187 34.3249C82.0998 34.1125 81.7836 33.9237 81.4414 33.9189" fill="#7C5142"/>
<path d="M101.386 36.3831C101.053 36.4303 100.819 36.6545 100.881 36.8551C100.942 37.0557 101.291 37.228 101.629 37.2068C101.966 37.1855 102.247 36.9708 102.228 36.7702C102.209 36.5696 101.895 36.369 101.553 36.3643" fill="#7C5142"/>
<path d="M101.499 35.4534C101.306 35.4817 101.171 35.6091 101.207 35.7318C101.242 35.8546 101.443 35.9466 101.641 35.9348C101.839 35.923 101.997 35.805 101.985 35.6823C101.974 35.5596 101.794 35.4463 101.596 35.4463" fill="#7C5142"/>
<path d="M97.2956 39.052C97.1021 39.0803 96.9676 39.2101 97.003 39.3305C97.0384 39.4508 97.239 39.5452 97.4348 39.5334C97.6307 39.5216 97.7936 39.4036 97.7818 39.2809C97.77 39.1582 97.5882 39.0449 97.39 39.0449" fill="#7C5142"/>
<path d="M79.5017 34.5159C79.3082 34.5442 79.1736 34.674 79.209 34.7944C79.2444 34.9147 79.445 35.0091 79.6433 34.9973C79.8415 34.9855 79.9996 34.8675 79.9878 34.7448C79.976 34.6221 79.7967 34.5088 79.5984 34.5088" fill="#7C5142"/>
<path d="M70.0708 37.261L70.1864 37.2941L70.5239 37.405L71.8172 37.8392C72.9406 38.2216 74.5619 38.7832 76.5584 39.4912C77.5567 39.8476 78.6494 40.2417 79.8176 40.6712C80.9858 41.1008 82.213 41.6152 83.5181 42.1297C84.8232 42.6442 86.1967 43.1681 87.6363 43.6661C88.3553 43.9178 89.0924 44.1538 89.8476 44.3741C90.607 44.6096 91.3834 44.7863 92.1698 44.9027C92.2681 44.9188 92.3676 44.9267 92.4672 44.9263C92.5663 44.9263 92.6631 44.9405 92.7622 44.9263L93.0619 44.9098L93.3569 44.8768C93.7442 44.8274 94.122 44.7209 94.4779 44.5605C95.1859 44.2301 95.7169 43.6472 96.2408 43.0997C97.2325 42.0142 98.3106 41.0111 99.4646 40.1001C100.519 39.2968 101.669 38.6277 102.889 38.1083L106.056 36.6923L110.646 34.6603L111.897 34.1128L112.225 33.9736L112.336 33.9287L112.23 33.9854L111.909 34.134L110.668 34.7028L106.091 36.7725L102.929 38.1885C101.717 38.7215 100.576 39.4033 99.533 40.2181C98.3863 41.1281 97.3146 42.1288 96.3282 43.2106C95.8066 43.7581 95.2662 44.3552 94.5298 44.6998C94.1629 44.8657 93.7731 44.9755 93.3734 45.0254L93.0714 45.0608L92.7669 45.0774C92.6654 45.0774 92.564 45.0774 92.4601 45.0774C92.3582 45.0778 92.2564 45.0699 92.1557 45.0538C91.3619 44.9368 90.5784 44.7585 89.8122 44.5204C89.057 44.2938 88.3191 44.0578 87.5985 43.8124C86.1566 43.3121 84.783 42.7811 83.478 42.269C82.1729 41.7568 80.9457 41.24 79.7798 40.7987C78.614 40.3574 77.526 39.9562 76.5301 39.5951L71.8101 37.903L70.5239 37.4475L70.1888 37.3248L70.0708 37.261Z" fill="#161B46"/>
<g opacity="0.3">
<path opacity="0.3" d="M96.0497 30.9407C93.7912 30.4687 91.4784 29.9707 89.1915 30.2869C86.9448 30.5961 84.8798 31.6557 82.8809 32.7295C80.6924 33.9048 78.5243 35.1179 76.3767 36.3687C76.2859 36.4218 76.2073 36.4936 76.1461 36.5792C76.0849 36.6648 76.0425 36.7623 76.0215 36.8654C76.0006 36.9685 76.0017 37.0749 76.0246 37.1776C76.0476 37.2803 76.092 37.377 76.1549 37.4613C77.434 38.5823 79.0435 38.3605 80.6129 37.6973C82.2814 37.0035 83.57 35.6559 84.9813 34.5302C86.3926 33.4045 88.1437 32.4416 89.9255 32.7437C90.8435 32.9018 91.6719 33.3809 92.5592 33.6594C93.5268 33.9638 94.5511 34.0228 95.5635 34.0795L100.933 34.3839C101.134 34.4 101.334 34.3467 101.501 34.233C101.667 34.1193 101.79 33.9519 101.848 33.7588C101.906 33.5657 101.897 33.3585 101.821 33.1716C101.745 32.9848 101.607 32.8296 101.43 32.7319C99.8469 31.7973 97.8905 31.3324 96.0497 30.9407Z" fill="white"/>
</g>
<path d="M90.7586 37.0889C90.8164 37.3202 90.8332 37.5598 90.8082 37.7969C90.8234 38.0353 90.7986 38.2746 90.735 38.5049C90.6789 38.2733 90.6622 38.034 90.6855 37.7969C90.6703 37.5584 90.695 37.3192 90.7586 37.0889Z" fill="#161B46"/>
<path d="M90.8653 31.1299C90.9173 31.6253 90.9291 32.1241 90.9007 32.6214C90.9121 33.1186 90.8829 33.6158 90.8134 34.1082C90.7586 33.6138 90.7467 33.1155 90.778 32.619C90.7653 32.1211 90.7945 31.6229 90.8653 31.1299Z" fill="#161B46"/>
<path d="M90.9401 26.7354C90.9966 26.9668 91.0134 27.2062 90.9896 27.4434C91.0048 27.6818 90.9801 27.9211 90.9165 28.1514C90.8587 27.9201 90.842 27.6804 90.8669 27.4434C90.8513 27.2049 90.876 26.9656 90.9401 26.7354Z" fill="#161B46"/>
<path d="M89.64 69.626C89.5824 69.3946 89.5657 69.1551 89.5904 68.918C89.5751 68.6795 89.5999 68.4402 89.6636 68.21C89.7215 68.4412 89.7383 68.6809 89.7132 68.918C89.7283 69.1564 89.7036 69.3957 89.64 69.626Z" fill="#161B46"/>
<path d="M89.5717 73.5312C89.5165 73.2086 89.5015 72.8805 89.5269 72.5542C89.5128 72.2265 89.539 71.8984 89.6048 71.5771C89.6613 71.9004 89.6763 72.2295 89.6496 72.5566C89.6635 72.8834 89.6373 73.2107 89.5717 73.5312Z" fill="#161B46"/>
<path d="M89.5079 76.8994C89.4512 76.668 89.4344 76.4285 89.4583 76.1914C89.4432 75.953 89.4679 75.7137 89.5315 75.4834C89.5891 75.7147 89.6058 75.9543 89.5811 76.1914C89.5967 76.4298 89.5719 76.6692 89.5079 76.8994Z" fill="#161B46"/>
<path d="M89.909 89.2656C89.8373 88.7955 89.8461 88.3167 89.9349 87.8496C89.9911 88.0812 90.0078 88.3205 89.9845 88.5576C90.0015 88.7962 89.9759 89.0359 89.909 89.2656Z" fill="#161B46"/>
<path d="M89.8292 93.9909C89.7728 93.6002 89.7586 93.2046 89.7867 92.8109C89.7742 92.4157 89.8019 92.0204 89.8693 91.6309C89.9227 92.0218 89.9362 92.4172 89.9095 92.8109C89.922 93.2059 89.8951 93.6012 89.8292 93.9909Z" fill="#161B46"/>
<path d="M89.7625 97.7695C89.705 97.5382 89.6882 97.2986 89.713 97.0615C89.6977 96.8231 89.7224 96.5838 89.7861 96.3535C89.8427 96.585 89.8595 96.8244 89.8357 97.0615C89.8509 97.2999 89.8261 97.5392 89.7625 97.7695Z" fill="#161B46"/>
<path d="M90.7446 49.8516C90.7172 50.3379 90.729 50.8256 90.78 51.31C90.8457 50.8268 90.8749 50.3392 90.8673 49.8516H90.7446Z" fill="#161B46"/>
<path d="M100.426 14.0363C99.8008 14.3824 99.1001 14.5683 98.3859 14.5774C97.6718 14.5865 96.9666 14.4184 96.3333 14.0882C95.7527 13.7767 95.243 13.3306 94.6223 13.1088C94.0966 12.9486 93.5368 12.937 93.0049 13.0753C92.473 13.2136 91.9897 13.4964 91.6086 13.8923L91.5283 18.5557C92.0853 17.6825 93.0576 17.024 94.0866 17.1397C94.889 17.227 95.6135 17.6565 96.4041 17.8075C96.9319 17.907 97.4758 17.8803 97.9914 17.7296C98.5069 17.5788 98.9796 17.3084 99.3707 16.9402C99.7619 16.5721 100.06 16.1167 100.242 15.6112C100.424 15.1057 100.483 14.5645 100.416 14.0315L100.426 14.0363Z" fill="#0085C8"/>
<path d="M91.6486 11.5986C91.684 11.5986 91.6486 14.6053 91.566 18.3152C91.4834 22.0251 91.3914 25.0294 91.3583 25.0294C91.3253 25.0294 91.3583 22.0228 91.4433 18.3128C91.5283 14.6029 91.6156 11.5963 91.6486 11.5986Z" fill="#161B46"/>
<path d="M93.8481 14.4775C93.8835 14.4775 93.9094 15.0534 93.9897 15.759C94.0699 16.4647 94.1737 17.0311 94.1383 17.0381C93.9874 16.631 93.896 16.2041 93.867 15.7708C93.8 15.3427 93.7937 14.9074 93.8481 14.4775Z" fill="#161B46"/>
<path d="M56.5426 33.5527L59.4359 32.2075C60.9322 33.3087 62.7864 33.8104 64.6338 33.6139C66.4812 33.4173 68.1883 32.5368 69.4194 31.1454C70.6505 29.754 71.3166 27.9524 71.2867 26.0948C71.2568 24.2372 70.5331 22.4579 69.2578 21.1069C67.9826 19.7558 66.248 18.9307 64.3952 18.7937C62.5424 18.6567 60.7054 19.2178 59.2453 20.3666C57.7853 21.5155 56.8077 23.1689 56.505 25.002C56.2023 26.835 56.5962 28.715 57.6093 30.2723L56.5426 33.5527Z" fill="white"/>
<path d="M56.5434 33.553C56.6095 33.3453 56.9257 32.3352 57.5771 30.2631C57.5793 30.2553 57.5845 30.2487 57.5916 30.2447C57.5987 30.2407 57.607 30.2397 57.6149 30.2419L57.57 30.282C56.8483 29.1851 56.4305 27.9163 56.3593 26.6051C56.3359 26.2115 56.3478 25.8166 56.3947 25.4251C56.4231 25.2245 56.4443 25.0192 56.4797 24.8139C56.5151 24.6086 56.5741 24.4033 56.6237 24.1956C57.143 22.3601 58.3411 20.7908 59.9749 19.806C60.8797 19.2586 61.8912 18.911 62.9414 18.7865C64.051 18.662 65.1745 18.7845 66.2312 19.1452C67.337 19.5165 68.3379 20.1468 69.1505 20.9836C69.9849 21.8328 70.604 22.8694 70.9559 24.0068C71.2865 25.0958 71.3672 26.2453 71.1919 27.3698C71.0306 28.4341 70.6375 29.4501 70.0402 30.3457C68.9707 31.9565 67.3217 33.0932 65.4359 33.5199C64.6352 33.6856 63.8137 33.727 63.0004 33.6427C61.7019 33.496 60.4657 33.0074 59.4179 32.2267H59.4486L56.5411 33.5435L59.4226 32.1747C59.4274 32.1724 59.4326 32.1712 59.438 32.1712C59.4433 32.1712 59.4485 32.1724 59.4533 32.1747C60.4979 32.9364 61.7244 33.4101 63.0098 33.5483C63.8144 33.6249 64.626 33.5796 65.417 33.4137C67.2756 32.9894 68.9012 31.8697 69.96 30.2844C70.5498 29.4068 70.939 28.4101 71.0999 27.3651C71.2695 26.2599 71.1888 25.1309 70.8639 24.0611C70.5161 22.9428 69.9069 21.9235 69.0868 21.0875C68.2864 20.2651 67.302 19.6447 66.2147 19.2773C65.1753 18.9228 64.0706 18.8019 62.9791 18.9233C61.9453 19.0445 60.9492 19.3848 60.0575 19.9216C58.448 20.8898 57.2669 22.4337 56.7535 24.2404C56.7039 24.4457 56.6543 24.6487 56.6071 24.8493C56.5599 25.0499 56.5505 25.2552 56.5222 25.4535C56.4743 25.8393 56.4601 26.2286 56.4797 26.6169C56.547 27.9154 56.9539 29.1735 57.6597 30.2655C57.6652 30.2712 57.6682 30.2788 57.6682 30.2867C57.6682 30.2947 57.6652 30.3023 57.6597 30.308C57.6542 30.3118 57.6476 30.3139 57.6408 30.3139C57.6341 30.3139 57.6275 30.3118 57.6219 30.308H57.6715C56.9399 32.3423 56.6119 33.3477 56.5434 33.553Z" fill="#161B46"/>
<path d="M63.7956 28.2994L60.6946 26.7395L63.8051 25.1748L66.9203 26.6404L63.7956 28.2994ZM61.2209 26.7395L63.7838 28.0328L66.3798 26.6522L63.798 25.4368L61.2209 26.7395Z" fill="#0085C8"/>
<path d="M63.7933 29.3214L60.6946 27.7615L61.8604 27.1738L61.9666 27.3862L61.2209 27.7615L63.7909 29.0547L66.4011 27.6694L65.6223 27.2706L65.7308 27.0605L66.9108 27.6647L63.7933 29.3214Z" fill="#0085C8"/>
<path d="M63.7108 24.3564L60.8623 25.7913L63.6967 27.2168L66.5593 25.6969L63.7108 24.3564Z" fill="#0085C8"/>
<path d="M39.2659 82.7871C39.2659 82.7871 39.6057 90.3533 39.8889 92.8926C40.1721 95.432 42.5911 106.312 42.5911 106.312L46.3388 106.585L45.2508 83.7405L39.2659 82.7871Z" fill="#936754"/>
<path d="M51.4763 83.748C51.4763 83.748 50.5323 89.7212 49.8007 92.7161C49.0691 95.7109 45.8147 104.639 45.8147 104.639L43.4995 96.2277L45.2506 83.7504L51.4763 83.748Z" fill="#936754"/>
<path d="M45.5247 85.1426C45.5277 85.1613 45.5277 85.1805 45.5247 85.1992C45.5247 85.2417 45.5247 85.296 45.5247 85.3597C45.5247 85.5131 45.5247 85.7184 45.5459 85.9804C45.5648 86.5303 45.5908 87.3067 45.6215 88.2601C45.6899 90.1859 45.8079 92.8456 45.9401 95.7838C46.0722 98.722 46.1761 101.382 46.2209 103.31C46.2469 104.273 46.2563 105.054 46.2587 105.592C46.2587 105.854 46.2587 106.064 46.2587 106.213C46.2587 106.279 46.2587 106.331 46.2587 106.375C46.2607 106.394 46.2607 106.412 46.2587 106.43C46.2557 106.412 46.2557 106.393 46.2587 106.375V106.213C46.2587 106.062 46.2469 105.854 46.2374 105.594C46.2209 105.044 46.1949 104.268 46.1619 103.312C46.0958 101.386 45.9755 98.7267 45.8457 95.7885C45.7159 92.8503 45.6097 90.1906 45.5625 88.2625C45.5389 87.2996 45.5294 86.5208 45.5271 85.9804C45.5271 85.7184 45.5271 85.5084 45.5271 85.3597V85.1992C45.5232 85.1806 45.5224 85.1615 45.5247 85.1426Z" fill="#7C5142"/>
<path d="M42.4144 105.575C42.4144 105.575 45.3715 106.859 46.2824 105.016L46.771 105.724L49.3882 110.861C49.4737 111.023 49.4969 111.21 49.4534 111.388C49.4099 111.565 49.3027 111.721 49.1522 111.824C49.0375 111.901 48.9032 111.944 48.7652 111.946C48.6272 111.949 48.4912 111.913 48.3734 111.841C47.1037 111.055 42.4451 108.15 42.3766 107.635L42.11 106.292C42.0845 106.158 42.0996 106.019 42.1534 105.892C42.2072 105.766 42.2972 105.659 42.412 105.584L42.4144 105.575Z" fill="#0085C8"/>
<g opacity="0.6">
<path opacity="0.6" d="M49.0362 111.889L42.2795 107.169L42.3409 107.462C42.381 107.785 42.5462 107.882 42.7397 108.052C43.3132 108.561 44.8331 109.647 48.3542 111.844C48.4555 111.907 48.5709 111.944 48.6899 111.951C48.8089 111.959 48.9279 111.936 49.0362 111.887V111.889Z" fill="white"/>
</g>
<g opacity="0.6">
<path opacity="0.6" d="M42.9025 106.128C43.0009 106.172 43.0793 106.252 43.1229 106.35C43.1664 106.449 43.172 106.561 43.1385 106.663C43.0975 106.762 43.0201 106.842 42.9223 106.886C42.8244 106.93 42.7135 106.935 42.6122 106.899C42.5093 106.851 42.4273 106.767 42.3813 106.663C42.3353 106.559 42.3285 106.442 42.3621 106.333C42.415 106.233 42.5045 106.158 42.6119 106.122C42.7193 106.087 42.8362 106.095 42.9379 106.144" fill="white"/>
</g>
<path d="M46.8111 109.212C46.8535 109.212 46.9314 108.827 47.3019 108.546C47.6725 108.265 48.0642 108.268 48.0619 108.223C48.0595 108.178 47.9675 108.169 47.7999 108.18C47.5832 108.201 47.3768 108.283 47.2052 108.416C47.0321 108.551 46.9024 108.733 46.8323 108.94C46.7922 109.106 46.7922 109.209 46.8111 109.212Z" fill="#161B46"/>
<path d="M47.4998 110.031C47.5399 110.055 47.7145 109.781 48.0473 109.604C48.3801 109.427 48.701 109.417 48.7034 109.368C48.7057 109.318 48.3517 109.254 47.9741 109.464C47.5965 109.675 47.462 110.019 47.4998 110.031Z" fill="#161B46"/>
<path d="M45.6399 108.223C45.68 108.249 45.9444 107.832 46.4423 107.515C46.9403 107.199 47.4217 107.105 47.4146 107.058C47.4076 107.01 46.8836 107.032 46.355 107.388C45.8264 107.744 45.6116 108.212 45.6399 108.223Z" fill="#161B46"/>
<path d="M45.1682 106.588C45.1965 106.626 45.5434 106.385 46.0367 106.26C46.5299 106.135 46.9476 106.171 46.9524 106.126C46.9571 106.081 46.5252 105.972 45.9966 106.112C45.4679 106.251 45.1399 106.562 45.1682 106.588Z" fill="#161B46"/>
<path d="M46.32 106.186C46.3082 106.097 46.2768 106.012 46.228 105.936C46.1094 105.718 45.949 105.526 45.756 105.37C45.6291 105.241 45.4631 105.158 45.284 105.134C45.2242 105.132 45.1654 105.149 45.1156 105.182C45.0658 105.215 45.0273 105.262 45.0055 105.318C44.9712 105.429 44.9779 105.549 45.0244 105.655C45.1299 105.866 45.3049 106.034 45.5199 106.131C45.7349 106.228 45.9766 106.247 46.2044 106.186C46.4297 106.119 46.6298 105.986 46.7791 105.805C46.9284 105.623 47.02 105.401 47.0422 105.167C47.0477 105.108 47.0404 105.049 47.0208 104.993C47.0013 104.937 46.9699 104.886 46.9289 104.844C46.8832 104.805 46.8263 104.781 46.7664 104.777C46.7065 104.773 46.6468 104.788 46.5961 104.82C46.4504 104.922 46.334 105.06 46.2586 105.221C46.14 105.435 46.0601 105.669 46.0226 105.91C46.0057 105.999 46.0057 106.091 46.0226 106.179C46.0909 105.863 46.2046 105.559 46.3601 105.276C46.4318 105.139 46.5355 105.021 46.6622 104.933C46.6896 104.915 46.7222 104.907 46.755 104.909C46.7878 104.911 46.819 104.924 46.8439 104.945C46.8689 104.975 46.8874 105.01 46.8984 105.047C46.9094 105.084 46.9125 105.124 46.9076 105.162C46.8816 105.364 46.7982 105.553 46.6672 105.709C46.5362 105.864 46.3632 105.978 46.169 106.038C45.975 106.091 45.7689 106.076 45.5842 105.997C45.3995 105.918 45.2471 105.778 45.1518 105.601C45.1174 105.527 45.1099 105.444 45.1306 105.365C45.1412 105.334 45.1617 105.307 45.1889 105.288C45.2161 105.27 45.2486 105.26 45.2816 105.261C45.4327 105.281 45.5744 105.346 45.6875 105.448C45.9408 105.654 46.155 105.904 46.32 106.186Z" fill="#161B46"/>
<path d="M43.4884 26.2487C43.6467 25.6685 43.9773 25.1501 44.4366 24.7618C44.8958 24.3735 45.462 24.1338 46.0605 24.0742C46.6589 24.0146 47.2613 24.138 47.7881 24.4281C48.3148 24.7182 48.7412 25.1613 49.0108 25.6988C49.5158 26.7042 49.4828 28.0258 50.3371 28.7668C50.9248 29.2648 51.7932 29.3379 52.3667 29.8548C53.5798 30.9451 52.8151 33.3027 54.1037 34.3034C53.2693 34.9542 52.2935 35.3997 51.2552 35.6037C51.1882 35.2476 51.0174 34.9191 50.7643 34.6597C50.9743 35.2639 50.6274 35.9507 50.1082 36.3235C49.589 36.6964 48.94 36.8262 48.3075 36.9253C46.7877 37.1613 45.2159 37.2864 43.7197 36.9253C42.2234 36.5643 40.798 35.6557 40.116 34.2751C39.9437 33.9234 39.8139 33.5387 39.5283 33.2697C39.2428 33.0007 38.7849 32.8779 38.4026 32.6986C37.8786 32.4421 37.4421 32.0364 37.1482 31.5325C36.8542 31.0286 36.7159 30.4489 36.7506 29.8666C37.7489 29.8241 38.4522 28.8777 38.8746 27.9786C39.297 27.0794 39.6392 26.0505 40.47 25.4959C40.7468 25.3116 41.062 25.1929 41.3916 25.1487C41.7212 25.1046 42.0565 25.1361 42.3721 25.241C42.6877 25.3459 42.9752 25.5214 43.2128 25.754C43.4504 25.9867 43.6318 26.2705 43.7433 26.5838" fill="#161B46"/>
<path d="M49.4466 29.4514C49.3333 27.8961 47.6388 26.3574 46.0883 26.5368L41.0615 27.5468L41.0875 28.387L41.5312 40.7204L45.4204 44.4964L47.1008 40.7204V37.5462C47.1008 37.5462 49.0879 37.1945 49.4608 34.5938C49.6614 33.2982 49.574 31.1812 49.4466 29.4514Z" fill="#936754"/>
<path d="M48.4844 31.4999C48.4857 31.5868 48.4532 31.6708 48.3938 31.7342C48.3343 31.7976 48.2526 31.8354 48.1657 31.8397C48.1235 31.8432 48.081 31.8383 48.0407 31.8252C48.0004 31.8121 47.9631 31.7911 47.931 31.7634C47.8989 31.7357 47.8727 31.7019 47.8538 31.6639C47.835 31.626 47.8239 31.5846 47.8212 31.5423C47.8186 31.4555 47.8504 31.3711 47.9096 31.3075C47.9688 31.2439 48.0506 31.2062 48.1374 31.2025C48.1799 31.1986 48.2226 31.2033 48.2632 31.2162C48.3038 31.2292 48.3414 31.2501 48.3737 31.2779C48.4061 31.3056 48.4325 31.3395 48.4515 31.3777C48.4705 31.4158 48.4817 31.4573 48.4844 31.4999Z" fill="#161B46"/>
<path d="M48.9156 30.5553C48.8731 30.6001 48.6206 30.4161 48.2619 30.4208C47.9031 30.4255 47.6412 30.6072 47.6034 30.5647C47.5657 30.5223 47.6247 30.4656 47.738 30.3807C47.8922 30.2724 48.0758 30.2139 48.2642 30.2131C48.4512 30.209 48.6344 30.2662 48.7858 30.3759C48.892 30.4633 48.9297 30.5411 48.9156 30.5553Z" fill="#161B46"/>
<path d="M45.1822 31.4998C45.1835 31.5868 45.151 31.6708 45.0916 31.7342C45.0322 31.7976 44.9504 31.8354 44.8636 31.8397C44.8212 31.8432 44.7786 31.8383 44.7381 31.8253C44.6977 31.8122 44.6603 31.7912 44.628 31.7635C44.5957 31.7359 44.5692 31.7021 44.5501 31.6641C44.531 31.6261 44.5197 31.5847 44.5167 31.5423C44.5148 31.4553 44.547 31.3709 44.6066 31.3074C44.6662 31.2438 44.7483 31.2062 44.8353 31.2025C44.8777 31.1986 44.9205 31.2033 44.9611 31.2162C45.0016 31.2292 45.0392 31.2501 45.0716 31.2779C45.1039 31.3056 45.1304 31.3395 45.1494 31.3777C45.1684 31.4158 45.1795 31.4573 45.1822 31.4998Z" fill="#161B46"/>
<path d="M45.3879 30.6646C45.3478 30.7095 45.0929 30.5254 44.7342 30.5301C44.3755 30.5348 44.1159 30.7165 44.0758 30.6741C44.0356 30.6316 44.097 30.5749 44.2126 30.49C44.3659 30.3799 44.5502 30.3212 44.7389 30.3224C44.9247 30.319 45.1067 30.3752 45.2581 30.4829C45.3761 30.5679 45.4092 30.6457 45.3879 30.6646Z" fill="#161B46"/>
<path d="M46.7165 33.3099C46.9044 33.2479 47.0996 33.2106 47.2971 33.199C47.3891 33.199 47.4765 33.1683 47.4906 33.1069C47.4972 33.0121 47.475 32.9175 47.4269 32.8355C47.3372 32.616 47.2452 32.3848 47.1484 32.1417C46.7614 31.1528 46.4805 30.341 46.5207 30.3245C46.5608 30.308 46.9077 31.0986 47.2924 32.0874C47.3868 32.3234 47.4741 32.5594 47.5591 32.7954C47.6177 32.9052 47.6361 33.0322 47.611 33.1541C47.5976 33.1861 47.5773 33.2147 47.5516 33.238C47.5259 33.2612 47.4954 33.2785 47.4623 33.2886C47.4117 33.3036 47.3593 33.3115 47.3065 33.3122C47.1105 33.3356 46.9124 33.3348 46.7165 33.3099Z" fill="#161B46"/>
<path d="M47.0964 37.553C45.8452 37.5846 44.6092 37.2745 43.521 36.6562C43.521 36.6562 44.4178 38.4664 47.1011 38.1997L47.0964 37.553Z" fill="#7C5142"/>
<path d="M46.5748 34.1762C46.5054 34.0908 46.4156 34.0244 46.3137 33.9832C46.2118 33.9419 46.101 33.9271 45.9919 33.9402C45.9129 33.9484 45.8365 33.9724 45.7671 34.011C45.6978 34.0495 45.6369 34.1017 45.5883 34.1644C45.5407 34.2244 45.5128 34.2977 45.5086 34.3742C45.5044 34.4507 45.524 34.5266 45.5647 34.5915C45.6228 34.6558 45.6989 34.701 45.7832 34.7212C45.8674 34.7415 45.9558 34.7357 46.0367 34.7048C46.2054 34.6429 46.3602 34.5482 46.4922 34.4263C46.5324 34.3976 46.5668 34.3616 46.5937 34.3201C46.6071 34.3002 46.6142 34.2768 46.6142 34.2529C46.6142 34.2289 46.6071 34.2055 46.5937 34.1856" fill="#7C5142"/>
<path d="M45.664 33.5694C45.723 33.5694 45.7278 33.9541 46.0629 34.2255C46.398 34.4969 46.8133 34.4615 46.8157 34.5063C46.8181 34.5511 46.726 34.5818 46.549 34.5889C46.3213 34.594 46.0991 34.5188 45.9213 34.3765C45.7501 34.2408 45.6391 34.0434 45.6121 33.8266C45.5956 33.6638 45.6381 33.567 45.664 33.5694Z" fill="#161B46"/>
<path d="M45.4586 29.652C45.4232 29.7488 45.0645 29.7063 44.6444 29.7629C44.2243 29.8196 43.8868 29.9352 43.8302 29.8479C43.8042 29.8078 43.8632 29.7157 43.9978 29.6119C44.1793 29.4931 44.3863 29.4187 44.6019 29.3948C44.8167 29.3659 45.0353 29.3894 45.2391 29.4632C45.3949 29.5293 45.4728 29.6119 45.4586 29.652Z" fill="#161B46"/>
<path d="M48.8877 29.3332C48.8239 29.4134 48.5761 29.3332 48.2788 29.3332C47.9814 29.3332 47.7313 29.3945 47.6723 29.3096C47.6487 29.2694 47.6864 29.1868 47.795 29.109C47.9414 29.0149 48.1124 28.9665 48.2864 28.9699C48.4603 28.9733 48.6294 29.0282 48.772 29.1278C48.8782 29.2081 48.916 29.293 48.8877 29.3332Z" fill="#161B46"/>
<path d="M46.0085 26.6457C45.9615 27.1906 45.7539 27.7093 45.4119 28.1361C45.0699 28.5629 44.609 28.8787 44.0875 29.0434C43.6697 29.1661 43.1435 29.2535 43.0019 29.6641C42.8603 30.0747 43.2379 30.4925 43.4267 30.9055C43.5331 31.1621 43.5616 31.4444 43.5087 31.7172C43.4558 31.99 43.3239 32.2411 43.1293 32.4395C42.8933 32.6589 42.6077 32.7982 42.3953 33.0318C42.259 33.1902 42.16 33.3772 42.1057 33.579C42.0514 33.7808 42.0431 33.9922 42.0815 34.1977C42.162 34.6104 42.371 34.987 42.6785 35.2738C41.6968 35.3092 40.6301 34.7877 40.3185 33.8578C40.1392 33.3009 40.2501 32.6967 40.3398 32.1185C40.5398 30.7982 40.6188 29.4624 40.5758 28.1277C40.5437 27.9018 40.5859 27.6715 40.6961 27.4717C40.8464 27.3045 41.0483 27.1923 41.2696 27.1531C42.6634 26.7496 44.0825 26.4398 45.5176 26.2256" fill="#161B46"/>
<path d="M45.4348 26.2558C45.674 26.774 45.9925 27.2517 46.3788 27.6718C46.5731 27.8793 46.8125 28.0393 47.0785 28.1396C47.3445 28.2398 47.6299 28.2776 47.9128 28.25L47.6225 27.7379C48.3985 28.5673 49.3378 29.227 50.3814 29.6754C49.8834 28.689 49.3689 27.6812 48.5547 26.9355C47.7405 26.1897 46.5511 25.7555 45.5103 26.1189" fill="#161B46"/>
<path d="M63.1162 45.2491C63.1162 45.2491 64.0224 44.1895 64.4024 44.1446C64.7824 44.0998 65.1435 44.3689 65.5706 44.4585C65.9978 44.5482 68.0179 44.5931 68.0864 44.6945C68.1369 44.7825 68.175 44.877 68.1996 44.9754C68.1996 44.9754 70.4228 45.117 70.647 45.2491C70.7803 45.327 70.8947 45.4334 70.9821 45.5607C70.9821 45.5607 71.768 45.6055 71.9261 45.7967C71.9261 45.7967 72.4429 45.8415 72.4642 46.1105C72.4642 46.1105 68.235 46.6958 67.7914 46.6722C67.1056 46.566 66.4258 46.4242 65.7547 46.2474L65.2827 46.448L65.1434 46.92L63.1162 45.2491Z" fill="#936754"/>
<path d="M68.5748 45.0437C68.0636 45.0503 67.5532 45.0012 67.0526 44.8974C66.545 44.832 66.0457 44.7125 65.5635 44.541C66.07 44.593 66.5734 44.6717 67.0715 44.777C67.577 44.8395 68.0788 44.9285 68.5748 45.0437Z" fill="#7C5142"/>
<path d="M70.975 45.5606C70.4465 45.6815 69.9074 45.7503 69.3655 45.7659C68.8269 45.8242 68.2839 45.8306 67.7441 45.7848C68.2792 45.7079 68.8181 45.6614 69.3584 45.6455C69.8954 45.5885 70.435 45.5601 70.975 45.5606Z" fill="#7C5142"/>
<path d="M71.8975 45.8057C71.8975 45.8057 71.9211 45.8057 71.9423 45.8293C71.9557 45.8519 71.9611 45.8784 71.9577 45.9045C71.9542 45.9306 71.9422 45.9548 71.9235 45.9732C71.8632 46.0204 71.7873 46.0432 71.7111 46.0369L71.4349 46.0535C71.0267 46.0747 70.4626 46.0936 69.8396 46.1077C69.2165 46.1219 68.6596 46.129 68.2442 46.1266C68.0228 46.1372 67.8008 46.1277 67.5811 46.0983C67.7991 46.0587 68.0203 46.039 68.2419 46.0393C68.6501 46.0181 69.2142 45.9992 69.8372 45.985C70.4603 45.9709 71.0172 45.9638 71.4326 45.9661H71.7087C71.7718 45.9776 71.8368 45.9667 71.8928 45.9355C71.9059 45.9235 71.9155 45.9081 71.9205 45.8911C71.9255 45.874 71.9257 45.8559 71.9211 45.8387C71.9117 45.8175 71.8951 45.8104 71.8975 45.8057Z" fill="#7C5142"/>
<path d="M37.4986 65.9414C37.4986 65.9414 36.4909 69.9369 36.8355 72.1954C37.18 74.4539 38.5323 86.9855 38.5323 86.9855L39.8374 87.0469L51.9465 87.6062C51.9465 87.6062 53.8511 76.3726 54.6039 73.0969C55.3567 69.8212 53.9997 65.9414 53.9997 65.9414L47.1133 62.7129L37.4986 65.9414Z" fill="#737690"/>
<path d="M40.9747 37.7842L39.9977 39.4857L35.5137 41.4422L37.2483 49.7022L39.8065 57.1645L36.0966 69.781L55.2126 71.4779C55.2126 71.4779 53.2798 59.3569 52.5741 56.9167L51.9322 50.5636L51.649 40.2952L47.5308 39.068L47.0281 38.3152L45.1543 43.8683L40.9747 37.7842Z" fill="#737690"/>
<path d="M30.0171 56.7681C30.0171 56.7681 28.7969 54.9722 29.0542 53.7001C29.3114 52.4281 34.4444 42.4689 34.4444 42.4689L35.5041 41.4541L35.9572 42.3297L37.2387 49.7235L33.727 54.4435L38.447 58.5075C38.447 58.7647 36.7407 62.0215 36.7407 62.0215C36.7407 62.0215 30.0808 57.6036 30.0171 56.7681Z" fill="#737690"/>
<path d="M30.5408 55.0757C30.6634 54.965 30.8038 54.8756 30.9561 54.8114C31.6714 54.4522 32.4671 54.2832 33.2666 54.3205C33.4316 54.3175 33.5959 54.3422 33.7527 54.3937C33.1991 54.3964 32.6465 54.4445 32.1007 54.5376C31.5666 54.673 31.0448 54.853 30.5408 55.0757Z" fill="#161B46"/>
<path d="M33.7529 54.3917C33.7293 54.4295 33.0095 53.8466 31.9616 53.4477C31.3237 53.2268 30.6597 53.0903 29.9863 53.0418C30.1837 53.0026 30.3861 52.9954 30.5858 53.0206C31.0705 53.0547 31.5475 53.1596 32.0018 53.3321C32.4556 53.5039 32.8868 53.7306 33.2856 54.0071C33.4584 54.1131 33.6156 54.2425 33.7529 54.3917Z" fill="#161B46"/>
<path d="M51.644 40.2959C52.3257 41.2096 52.956 42.1606 53.532 43.1444C54.424 44.6784 56.9964 50.2244 56.9964 50.2244L62.6038 44.8767L65.6718 47.1517C65.6718 47.1517 58.6933 55.5887 57.4118 55.9993C56.1303 56.41 55.5238 55.6406 55.5238 55.6406L51.9673 50.897L51.4009 44.374L51.644 40.2959Z" fill="#737690"/>
<path d="M52.7205 57.4335C52.7106 57.4169 52.7019 57.3996 52.6946 57.3816L52.6285 57.2211C52.5718 57.0795 52.494 56.8671 52.3925 56.6005C52.1565 56.0671 51.8166 55.3025 51.3376 54.3844C50.3936 52.5365 48.9492 50.0585 47.2736 47.3729C45.598 44.6872 44.0145 42.2965 42.8557 40.5737C42.2775 39.7217 41.8102 39.0279 41.4775 38.5394L41.107 37.9824L41.0126 37.8361C40.9913 37.8031 40.9819 37.7865 40.9842 37.7842C40.9977 37.7984 41.0103 37.8134 41.022 37.829L41.1258 37.9683L41.5176 38.5111C41.8574 38.9831 42.3365 39.6722 42.9336 40.5241C44.1136 42.2351 45.7042 44.6211 47.3846 47.3068C49.0649 49.9925 50.495 52.4846 51.4225 54.3443C51.8945 55.2694 52.2249 56.0435 52.4444 56.5816C52.5482 56.853 52.619 57.0677 52.6804 57.2117L52.7347 57.3769C52.733 57.3964 52.7282 57.4155 52.7205 57.4335Z" fill="#161B46"/>
<path d="M35.2705 45.0958C35.3012 45.084 36.0375 46.8186 36.9225 48.9709C37.8075 51.1232 38.4825 52.879 38.4495 52.8932C38.4164 52.9074 37.6848 51.1704 36.7975 49.0181C35.9101 46.8658 35.2399 45.1076 35.2705 45.0958Z" fill="#161B46"/>
<path d="M51.2053 42.3721C51.2407 42.3721 51.4555 44.3781 51.6773 46.8561C51.8991 49.3341 52.0691 51.3401 52.036 51.3542C52.003 51.3684 51.7859 49.3482 51.564 46.8702C51.3422 44.3922 51.1723 42.3744 51.2053 42.3721Z" fill="#161B46"/>
<path d="M55.2079 71.4778C55.144 71.4884 55.0791 71.4924 55.0144 71.4896C54.8869 71.4896 54.6981 71.4896 54.4574 71.4896C53.9854 71.4896 53.2774 71.4613 52.4113 71.3952L49.3881 71.1474L47.604 70.994L45.6829 70.8713C43.0515 70.7085 40.6703 70.4961 38.9616 70.2318C38.105 70.1067 37.4182 69.9722 36.9438 69.8778L36.4081 69.755C36.3446 69.7432 36.2822 69.7258 36.2217 69.7031C36.2844 69.708 36.3468 69.7174 36.4081 69.7314L36.9556 69.8306C37.4276 69.9108 38.1191 70.0312 38.9758 70.1468C40.6844 70.3828 43.0633 70.5858 45.6947 70.7486L47.6134 70.8737L49.3999 71.0365L52.4207 71.315C53.2798 71.3905 53.9783 71.4283 54.4598 71.4472L55.0167 71.466C55.0807 71.465 55.1446 71.4689 55.2079 71.4778Z" fill="#161B46"/>
<path d="M48.9161 45.8057C48.7548 45.9446 48.5801 46.0671 48.3946 46.1715C48.0642 46.3815 47.5993 46.6623 47.0801 46.9573C46.5609 47.2523 46.0794 47.5072 45.7278 47.6819C45.5447 47.7901 45.3499 47.8771 45.1472 47.9415C45.3176 47.8147 45.4983 47.7026 45.6877 47.6063L47.0187 46.8511L48.3497 46.0959C48.5292 45.9819 48.7188 45.8848 48.9161 45.8057Z" fill="#161B46"/>
<path d="M49.7137 47.6416C49.559 47.7637 49.3903 47.8667 49.211 47.9484C48.8924 48.1207 48.444 48.3472 47.9413 48.5762C47.4386 48.8051 46.9713 48.9939 46.6315 49.119C46.4519 49.1999 46.2634 49.2593 46.0698 49.296C46.237 49.1928 46.4141 49.1066 46.5985 49.0387L47.8894 48.4629L49.1732 47.8705C49.3458 47.7774 49.5267 47.7007 49.7137 47.6416Z" fill="#161B46"/>
<path d="M46.7022 82.7567C46.6845 82.6332 46.6766 82.5085 46.6786 82.3838C46.6786 82.1478 46.6597 81.7961 46.6409 81.3666C46.6007 80.5076 46.5111 79.3229 46.3293 78.0249C46.1476 76.7269 45.8998 75.5657 45.6992 74.7209C45.5977 74.3031 45.5151 73.9657 45.4632 73.732C45.4257 73.6126 45.3981 73.4902 45.3806 73.3662C45.4345 73.479 45.4772 73.5967 45.5081 73.7179C45.5836 73.9539 45.6803 74.2819 45.7913 74.6996C46.0797 75.7866 46.3027 76.8899 46.4591 78.0036C46.6164 79.1152 46.7094 80.2349 46.7376 81.3572C46.7376 81.7891 46.7376 82.1383 46.7376 82.3791C46.7376 82.5058 46.7257 82.6322 46.7022 82.7567Z" fill="#161B46"/>
<g opacity="0.3">
<path opacity="0.3" d="M38.5034 61.9979C38.7073 62.0207 38.9137 61.9933 39.1046 61.918C39.2954 61.8427 39.465 61.7219 39.5985 61.5661C39.8864 61.2758 40.0988 60.9171 40.3914 60.6221C40.808 60.2677 41.2719 59.9731 41.7697 59.7465C42.2705 59.5204 42.701 59.1633 43.0157 58.7128C43.2966 58.2408 43.3107 57.5753 42.9119 57.2024C42.4399 56.754 41.6469 56.931 41.0735 57.252C40.2733 57.7129 39.6139 58.3831 39.1661 59.1906C38.7183 59.9981 38.499 60.9123 38.5317 61.8351" fill="#2D3259"/>
</g>
<path d="M38.3834 58.6867L40.583 56.0907L42.445 55.8193C42.489 55.9288 42.489 56.0511 42.445 56.1605C42.401 56.27 42.3165 56.3583 42.209 56.407C41.9069 56.5745 40.9535 56.6595 40.9535 56.6595L40.3753 57.3533L41.265 56.9002L42.9972 56.7327C42.9972 56.7327 43.1436 57.2047 42.7612 57.3533C42.7612 57.3533 42.5937 57.8891 42.3294 58.0613C42.104 58.1774 41.8592 58.251 41.6072 58.2785C41.6072 58.2785 41.8432 58.5428 41.6804 58.7505C41.5175 58.9581 40.7057 59.0856 40.7057 59.0856L39.4478 59.7228C39.4478 59.7228 38.813 61.6651 38.4755 61.7123C38.138 61.7595 37.1421 61.219 37.1421 61.219L38.3834 58.6867Z" fill="#936754"/>
<path d="M41.2648 56.8956C41.3002 56.9452 40.8896 57.1953 40.3798 57.4691C40.0767 57.6485 39.7612 57.8062 39.4358 57.9411C39.4122 57.908 39.804 57.6343 40.3185 57.3605C40.5733 57.2236 40.8094 57.1056 40.9793 57.023C41.1492 56.9404 41.2578 56.8932 41.2648 56.8956Z" fill="#7C5142"/>
<path d="M42.8318 57.3627C42.666 57.4008 42.4967 57.4213 42.3267 57.424C41.9257 57.452 41.5339 57.557 41.1727 57.7332C40.7526 57.9432 40.3939 58.2052 40.1107 58.335C39.9667 58.4263 39.8064 58.4888 39.6387 58.5191C39.7782 58.4241 39.9232 58.3374 40.0729 58.2595C40.3396 58.1014 40.6889 57.8417 41.1231 57.6223C41.4974 57.437 41.9091 57.3401 42.3267 57.3391C42.4954 57.3246 42.6652 57.3325 42.8318 57.3627Z" fill="#7C5142"/>
<g opacity="0.3">
<path opacity="0.3" d="M54.6672 71.4685C49.0933 72.876 43.2096 72.3903 37.9419 70.0879L54.6672 71.4685Z" fill="#2D3259"/>
</g>
<path d="M26.7483 138.416C26.7483 137.328 26.9989 136.352 27.5003 135.488C28.0123 134.624 28.7003 133.952 29.5643 133.472C30.4389 132.981 31.3936 132.736 32.4283 132.736C33.6123 132.736 34.6629 133.029 35.5803 133.616C36.5083 134.192 37.1803 135.013 37.5963 136.08H35.4043C35.1163 135.493 34.7163 135.056 34.2043 134.768C33.6923 134.48 33.1003 134.336 32.4283 134.336C31.6923 134.336 31.0363 134.501 30.4603 134.832C29.8843 135.163 29.4309 135.637 29.1003 136.256C28.7803 136.875 28.6203 137.595 28.6203 138.416C28.6203 139.237 28.7803 139.957 29.1003 140.576C29.4309 141.195 29.8843 141.675 30.4603 142.016C31.0363 142.347 31.6923 142.512 32.4283 142.512C33.1003 142.512 33.6923 142.368 34.2043 142.08C34.7163 141.792 35.1163 141.355 35.4043 140.768H37.5963C37.1803 141.835 36.5083 142.656 35.5803 143.232C34.6629 143.808 33.6123 144.096 32.4283 144.096C31.3829 144.096 30.4283 143.856 29.5643 143.376C28.7003 142.885 28.0123 142.208 27.5003 141.344C26.9989 140.48 26.7483 139.504 26.7483 138.416ZM43.5553 144.144C42.7233 144.144 41.9713 143.957 41.2993 143.584C40.6273 143.2 40.0993 142.667 39.7153 141.984C39.3313 141.291 39.1393 140.491 39.1393 139.584C39.1393 138.688 39.3366 137.893 39.7313 137.2C40.1259 136.507 40.6646 135.973 41.3473 135.6C42.0299 135.227 42.7926 135.04 43.6353 135.04C44.4779 135.04 45.2406 135.227 45.9233 135.6C46.6059 135.973 47.1446 136.507 47.5393 137.2C47.9339 137.893 48.1313 138.688 48.1313 139.584C48.1313 140.48 47.9286 141.275 47.5233 141.968C47.1179 142.661 46.5633 143.2 45.8593 143.584C45.1659 143.957 44.3979 144.144 43.5553 144.144ZM43.5553 142.56C44.0246 142.56 44.4619 142.448 44.8673 142.224C45.2833 142 45.6193 141.664 45.8753 141.216C46.1313 140.768 46.2593 140.224 46.2593 139.584C46.2593 138.944 46.1366 138.405 45.8913 137.968C45.6459 137.52 45.3206 137.184 44.9153 136.96C44.5099 136.736 44.0726 136.624 43.6033 136.624C43.1339 136.624 42.6966 136.736 42.2913 136.96C41.8966 137.184 41.5819 137.52 41.3473 137.968C41.1126 138.405 40.9953 138.944 40.9953 139.584C40.9953 140.533 41.2353 141.269 41.7153 141.792C42.2059 142.304 42.8193 142.56 43.5553 142.56ZM54.3824 135.04C55.0757 135.04 55.6944 135.184 56.2384 135.472C56.793 135.76 57.225 136.187 57.5344 136.752C57.8437 137.317 57.9984 138 57.9984 138.8V144H56.1904V139.072C56.1904 138.283 55.993 137.68 55.5984 137.264C55.2037 136.837 54.665 136.624 53.9824 136.624C53.2997 136.624 52.7557 136.837 52.3504 137.264C51.9557 137.68 51.7584 138.283 51.7584 139.072V144H49.9344V135.184H51.7584V136.192C52.057 135.829 52.4357 135.547 52.8944 135.344C53.3637 135.141 53.8597 135.04 54.3824 135.04ZM63.525 144.144C62.8317 144.144 62.2077 144.021 61.653 143.776C61.109 143.52 60.677 143.179 60.357 142.752C60.037 142.315 59.8663 141.829 59.845 141.296H61.733C61.765 141.669 61.941 141.984 62.261 142.24C62.5917 142.485 63.0023 142.608 63.493 142.608C64.005 142.608 64.3997 142.512 64.677 142.32C64.965 142.117 65.109 141.861 65.109 141.552C65.109 141.221 64.949 140.976 64.629 140.816C64.3197 140.656 63.8237 140.48 63.141 140.288C62.4797 140.107 61.941 139.931 61.525 139.76C61.109 139.589 60.7463 139.328 60.437 138.976C60.1383 138.624 59.989 138.16 59.989 137.584C59.989 137.115 60.1277 136.688 60.405 136.304C60.6823 135.909 61.077 135.6 61.589 135.376C62.1117 135.152 62.709 135.04 63.381 135.04C64.3837 135.04 65.189 135.296 65.797 135.808C66.4157 136.309 66.7463 136.997 66.789 137.872H64.965C64.933 137.477 64.773 137.163 64.485 136.928C64.197 136.693 63.8077 136.576 63.317 136.576C62.837 136.576 62.469 136.667 62.213 136.848C61.957 137.029 61.829 137.269 61.829 137.568C61.829 137.803 61.9143 138 62.085 138.16C62.2557 138.32 62.4637 138.448 62.709 138.544C62.9543 138.629 63.317 138.741 63.797 138.88C64.437 139.051 64.9597 139.227 65.365 139.408C65.781 139.579 66.1383 139.835 66.437 140.176C66.7357 140.517 66.8903 140.971 66.901 141.536C66.901 142.037 66.7623 142.485 66.485 142.88C66.2077 143.275 65.813 143.584 65.301 143.808C64.7997 144.032 64.2077 144.144 63.525 144.144ZM76.8559 135.184V144H75.0319V142.96C74.7439 143.323 74.3652 143.611 73.8959 143.824C73.4372 144.027 72.9465 144.128 72.4239 144.128C71.7305 144.128 71.1065 143.984 70.5519 143.696C70.0079 143.408 69.5759 142.981 69.2559 142.416C68.9465 141.851 68.7919 141.168 68.7919 140.368V135.184H70.5999V140.096C70.5999 140.885 70.7972 141.493 71.1919 141.92C71.5865 142.336 72.1252 142.544 72.8079 142.544C73.4905 142.544 74.0292 142.336 74.4239 141.92C74.8292 141.493 75.0319 140.885 75.0319 140.096V135.184H76.8559ZM81.0865 132.16V144H79.2625V132.16H81.0865ZM85.6093 136.672V141.552C85.6093 141.883 85.6839 142.123 85.8333 142.272C85.9933 142.411 86.2599 142.48 86.6333 142.48H87.7533V144H86.3133C85.4919 144 84.8626 143.808 84.4253 143.424C83.9879 143.04 83.7693 142.416 83.7693 141.552V136.672H82.7293V135.184H83.7693V132.992H85.6093V135.184H87.7533V136.672H85.6093ZM88.8264 139.552C88.8264 138.667 89.0077 137.883 89.3704 137.2C89.7437 136.517 90.245 135.989 90.8744 135.616C91.5144 135.232 92.2184 135.04 92.9864 135.04C93.6797 135.04 94.2824 135.179 94.7944 135.456C95.317 135.723 95.733 136.059 96.0424 136.464V135.184H97.8824V144H96.0424V142.688C95.733 143.104 95.3117 143.451 94.7784 143.728C94.245 144.005 93.637 144.144 92.9544 144.144C92.197 144.144 91.5037 143.952 90.8744 143.568C90.245 143.173 89.7437 142.629 89.3704 141.936C89.0077 141.232 88.8264 140.437 88.8264 139.552ZM96.0424 139.584C96.0424 138.976 95.9144 138.448 95.6584 138C95.413 137.552 95.0877 137.211 94.6824 136.976C94.277 136.741 93.8397 136.624 93.3704 136.624C92.901 136.624 92.4637 136.741 92.0584 136.976C91.653 137.2 91.3224 137.536 91.0664 137.984C90.821 138.421 90.6984 138.944 90.6984 139.552C90.6984 140.16 90.821 140.693 91.0664 141.152C91.3224 141.611 91.653 141.963 92.0584 142.208C92.4744 142.443 92.9117 142.56 93.3704 142.56C93.8397 142.56 94.277 142.443 94.6824 142.208C95.0877 141.973 95.413 141.632 95.6584 141.184C95.9144 140.725 96.0424 140.192 96.0424 139.584ZM102.406 136.672V141.552C102.406 141.883 102.481 142.123 102.63 142.272C102.79 142.411 103.057 142.48 103.43 142.48H104.55V144H103.11C102.289 144 101.659 143.808 101.222 143.424C100.785 143.04 100.566 142.416 100.566 141.552V136.672H99.5261V135.184H100.566V132.992H102.406V135.184H104.55V136.672H102.406ZM107.159 134.016C106.829 134.016 106.551 133.904 106.327 133.68C106.103 133.456 105.991 133.179 105.991 132.848C105.991 132.517 106.103 132.24 106.327 132.016C106.551 131.792 106.829 131.68 107.159 131.68C107.479 131.68 107.751 131.792 107.975 132.016C108.199 132.24 108.311 132.517 108.311 132.848C108.311 133.179 108.199 133.456 107.975 133.68C107.751 133.904 107.479 134.016 107.159 134.016ZM108.055 135.184V144H106.231V135.184H108.055ZM114.274 144.144C113.442 144.144 112.69 143.957 112.018 143.584C111.346 143.2 110.818 142.667 110.434 141.984C110.05 141.291 109.858 140.491 109.858 139.584C109.858 138.688 110.055 137.893 110.45 137.2C110.845 136.507 111.383 135.973 112.066 135.6C112.749 135.227 113.511 135.04 114.354 135.04C115.197 135.04 115.959 135.227 116.642 135.6C117.325 135.973 117.863 136.507 118.258 137.2C118.653 137.893 118.85 138.688 118.85 139.584C118.85 140.48 118.647 141.275 118.242 141.968C117.837 142.661 117.282 143.2 116.578 143.584C115.885 143.957 115.117 144.144 114.274 144.144ZM114.274 142.56C114.743 142.56 115.181 142.448 115.586 142.224C116.002 142 116.338 141.664 116.594 141.216C116.85 140.768 116.978 140.224 116.978 139.584C116.978 138.944 116.855 138.405 116.61 137.968C116.365 137.52 116.039 137.184 115.634 136.96C115.229 136.736 114.791 136.624 114.322 136.624C113.853 136.624 113.415 136.736 113.01 136.96C112.615 137.184 112.301 137.52 112.066 137.968C111.831 138.405 111.714 138.944 111.714 139.584C111.714 140.533 111.954 141.269 112.434 141.792C112.925 142.304 113.538 142.56 114.274 142.56ZM125.101 135.04C125.794 135.04 126.413 135.184 126.957 135.472C127.512 135.76 127.944 136.187 128.253 136.752C128.562 137.317 128.717 138 128.717 138.8V144H126.909V139.072C126.909 138.283 126.712 137.68 126.317 137.264C125.922 136.837 125.384 136.624 124.701 136.624C124.018 136.624 123.474 136.837 123.069 137.264C122.674 137.68 122.477 138.283 122.477 139.072V144H120.653V135.184H122.477V136.192C122.776 135.829 123.154 135.547 123.613 135.344C124.082 135.141 124.578 135.04 125.101 135.04Z" fill="#161B46"/>
</svg>
