<svg width="56" height="64" viewBox="0 0 56 64" fill="none" xmlns="http://www.w3.org/2000/svg">
<path d="M8 16C8 11.5817 11.5817 8 16 8H40.7231C42.823 8 44.8388 8.82566 46.3353 10.2988L53.6121 17.4619C55.1398 18.9657 56 21.0196 56 23.1632V56C56 60.4183 52.4183 64 48 64H16C11.5817 64 8 60.4183 8 56V16Z" fill="#FFF2F0"/>
<path d="M41.3947 39.8796C40.836 39.2145 40.0196 38.7532 39.0967 38.5806C37.6374 38.308 36.2518 38.2076 34.9495 38.2327C33.7643 36.9848 32.6183 35.5117 31.8363 33.8937C32.5203 31.5414 32.8822 29.5072 33.0858 28.3612C33.1907 27.7721 33.034 27.1453 32.6664 26.6845C32.3191 26.2494 31.8167 26 31.2881 26C31.2877 26 31.2873 26 31.2869 26C30.7728 26.0002 30.336 26.2193 30.0239 26.6333C28.9791 28.0203 29.6932 31.3778 29.8474 32.0385C30.0053 32.7078 30.2295 33.3594 30.5052 33.991C29.9628 35.7736 29.2313 37.7096 28.2412 39.5412C24.9365 40.7977 22.9676 42.5244 22.806 42.6696C22.2575 43.2259 21.9863 43.7844 22.0005 44.3301C22.0086 44.6392 22.1151 45.0962 22.5774 45.517C22.9315 45.839 23.3846 46 23.8448 46C24.3115 46 24.7859 45.8344 25.1713 45.5037C26.7666 44.1351 28.0449 42.4367 29.0707 40.6329C30.606 40.0877 32.424 39.657 34.4698 39.5549C35.9412 41.0402 37.4078 42.174 38.3275 42.8321C39.3043 43.531 40.6097 43.4403 41.4327 42.6177C42.2023 41.8473 42.1881 40.8237 41.3947 39.8796ZM24.3812 44.5027C24.0853 44.7567 23.6514 44.7736 23.3952 44.5402C23.2968 44.4504 23.2458 44.368 23.2438 44.2952C23.2422 44.2355 23.2685 44.0091 23.6445 43.6261C23.672 43.6018 24.9067 42.5192 27.0634 41.4734C26.2951 42.5894 25.4074 43.6223 24.3812 44.5027ZM31.0021 27.4341C31.0661 27.3492 31.1361 27.2965 31.2879 27.2965C31.5048 27.2965 31.6457 27.4325 31.7105 27.5136C31.8445 27.6815 31.9016 27.9101 31.8635 28.1247V28.1249C31.7145 28.9614 31.4785 30.2895 31.0887 31.8674C31.0773 31.8218 31.0661 31.7763 31.0551 31.7305C30.7321 30.3457 30.5021 28.0976 31.0021 27.4341ZM29.9301 38.982C30.4754 37.8372 30.9308 36.6786 31.3121 35.5579C31.9027 36.5542 32.6006 37.484 33.3341 38.3306C32.1076 38.4555 30.9697 38.6876 29.9301 38.982ZM40.5714 41.6824C40.1726 42.0823 39.5245 42.1157 39.0311 41.763C38.3535 41.2781 37.3617 40.5215 36.3004 39.5536C37.1294 39.5939 37.9896 39.6909 38.8773 39.8568C39.5237 39.9774 40.0856 40.2889 40.4596 40.7337C40.9433 41.31 40.7284 41.5253 40.5714 41.6824Z" fill="#E74C3C"/>
</svg>
