<svg width="54" height="71" viewBox="0 0 54 71" fill="none" xmlns="http://www.w3.org/2000/svg">
<path d="M44.8506 70.9998V70.9753C45.3467 70.332 45.5883 69.5284 45.5294 68.7182L50.4769 58.0217C49.6019 57.5516 48.683 57.1681 47.7333 56.8768C46.6482 56.5759 45.5211 56.4543 44.3968 56.517L41.2361 66.866L36.5788 70.1616C36.5788 70.1616 35.3971 70.5705 34.0928 70.9998H44.8506Z" fill="#AA6550"/>
<path d="M11.702 50.4323C11.3422 50.9352 10.4754 64.4449 10.4754 64.6616C10.4754 64.6616 9.46951 67.4625 9.61262 68.6851C9.6699 69.2662 9.76689 69.8427 9.90293 70.4106L9.56355 70.9994H38.5211C39.5065 69.9772 40.1566 69.2616 40.1566 69.2616C40.1566 69.2616 39.9399 66.5303 39.2938 65.5816C38.6478 64.633 37.2126 61.9016 37.2126 61.9016C37.2126 61.9016 38.2185 60.3928 38.288 59.7468C38.3575 59.1007 38.6478 40.8848 38.6478 40.8848L39.2938 25.257L28.8059 23.5929L25.9436 22.3376L16.8663 21.7324L15.3289 25.0649L6.98755 29.6608L11.702 43.3176V50.4323Z" fill="#ABB4EC"/>
<path d="M6.98748 29.6611C6.98748 29.6611 2.35069 38.7057 2.8618 40.9137L1.63513 50.952C1.63513 50.952 0.31443 52.2645 0.723318 53.3808C1.13221 54.497 2.24438 58.2874 2.24438 58.2874C2.24438 58.2874 5.90394 53.0577 9.35904 53.4625V51.9415C9.35904 51.9415 10.1768 52.2563 10.3772 50.9315C10.5098 50.2689 10.5098 49.5865 10.3772 48.9239L11.6979 43.2976L6.98748 29.6611Z" fill="#ABB4EC"/>
<path d="M20.5953 26.2712C20.4561 26.2373 20.3194 26.1936 20.1864 26.1404C19.9288 26.0504 19.5567 25.9114 19.0906 25.7724L18.9107 25.7233C18.8575 25.7233 18.7635 25.6988 18.7921 25.7233C18.7448 25.847 18.7253 25.9796 18.7349 26.1117C18.7349 26.398 18.7349 26.7046 18.7349 27.0276C18.7471 27.7262 18.8086 28.4231 18.9189 29.113V29.158L18.9557 29.3665L18.8126 29.2152C18.3014 28.6796 17.819 28.1684 17.3692 27.7023C16.9194 27.2362 16.5514 26.7946 16.2488 26.4143C15.9999 26.1212 15.7717 25.8111 15.566 25.4861C15.4965 25.3716 15.4474 25.2776 15.4147 25.2122C15.382 25.1468 15.3697 25.114 15.3738 25.11C15.3779 25.1059 15.4556 25.2367 15.6069 25.4616C15.8283 25.7723 16.0658 26.0712 16.3183 26.3571C16.625 26.7373 17.0216 27.1503 17.455 27.6205L18.9025 29.1252L18.7962 29.1825V29.1334C18.6814 28.4386 18.6212 27.7359 18.6163 27.0317C18.6163 26.7046 18.6163 26.398 18.6163 26.1076C18.6121 25.9677 18.6372 25.8284 18.6899 25.6988C18.6899 25.6988 18.6899 25.662 18.7471 25.6333C18.7702 25.6295 18.7936 25.6295 18.8167 25.6333L18.9189 25.6538L19.1029 25.7028C19.5731 25.8582 19.9206 26.0095 20.1905 26.1117C20.329 26.1553 20.4643 26.2086 20.5953 26.2712Z" fill="#161B46"/>
<path d="M19.5117 27.0483C19.4189 27.0662 19.3361 27.118 19.2794 27.1936C19.2227 27.2692 19.1962 27.3632 19.205 27.4572C19.2058 27.5537 19.2428 27.6463 19.3087 27.7168C19.3746 27.7872 19.4646 27.8303 19.5608 27.8375C19.6084 27.8359 19.6552 27.8249 19.6985 27.8051C19.7419 27.7853 19.7808 27.757 19.8132 27.722C19.8455 27.6871 19.8706 27.646 19.8869 27.6012C19.9032 27.5565 19.9105 27.5089 19.9083 27.4613C19.8935 27.3767 19.8615 27.296 19.8143 27.2242C19.7893 27.1673 19.7498 27.1179 19.6998 27.081C19.6026 27.0424 19.4944 27.0424 19.3972 27.081" fill="#161B46"/>
<path d="M21.2291 29.9512C21.0369 29.9512 20.9265 30.1597 20.9224 30.3601C20.9212 30.4567 20.9577 30.55 21.0241 30.6202C21.0905 30.6904 21.1816 30.732 21.2781 30.7362C21.3257 30.7352 21.3727 30.7246 21.4161 30.7049C21.4594 30.6852 21.4984 30.657 21.5305 30.6218C21.5626 30.5866 21.5872 30.5453 21.6029 30.5003C21.6186 30.4553 21.6249 30.4076 21.6216 30.3601C21.6053 30.2758 21.5734 30.1954 21.5275 30.1229C21.5026 30.0671 21.4648 30.018 21.4171 29.9798C21.364 29.9471 21.1514 29.943 21.1146 29.9798" fill="#161B46"/>
<path d="M23.5394 36.3955C23.4462 36.4125 23.3628 36.4641 23.3059 36.5399C23.2491 36.6157 23.2229 36.7101 23.2327 36.8044C23.2325 36.9011 23.2692 36.9943 23.3353 37.065C23.4014 37.1356 23.4919 37.1784 23.5885 37.1847C23.6361 37.1837 23.683 37.173 23.7264 37.1533C23.7698 37.1337 23.8087 37.1054 23.8408 37.0702C23.8729 37.035 23.8976 36.9937 23.9132 36.9487C23.9289 36.9037 23.9353 36.856 23.9319 36.8085C23.9189 36.7233 23.8868 36.6422 23.8379 36.5713C23.8143 36.5147 23.7763 36.4653 23.7275 36.4282C23.6743 36.3955 23.4617 36.3873 23.4249 36.4282" fill="#161B46"/>
<path d="M24.7659 28.2339C24.5737 28.2339 24.4633 28.4424 24.4593 28.6428C24.4581 28.7394 24.4946 28.8327 24.561 28.9029C24.6274 28.9731 24.7185 29.0147 24.815 29.019C24.8626 29.018 24.9095 29.0073 24.9529 28.9876C24.9963 28.9679 25.0352 28.9397 25.0674 28.9045C25.0995 28.8693 25.1241 28.828 25.1398 28.783C25.1554 28.738 25.1618 28.6903 25.1585 28.6428C25.1441 28.558 25.112 28.4772 25.0644 28.4056C25.0395 28.3498 25.0017 28.3008 24.954 28.2625C24.9009 28.2298 24.6882 28.2257 24.6514 28.2625" fill="#161B46"/>
<path d="M23.0936 30.2498C23.0873 30.2132 23.0873 30.1759 23.0936 30.1394C23.0936 30.0658 23.1304 29.9594 23.1672 29.8204C23.2675 29.4293 23.3904 29.0443 23.5352 28.6674C24.0381 27.3826 24.69 26.1612 25.4774 25.0282L25.5632 24.9056L25.5919 25.0487C25.69 25.5353 25.8168 26.0382 25.9721 26.5452C26.1784 27.2132 26.4269 27.8674 26.7163 28.5038H26.6018C26.8829 27.8605 27.2252 27.2457 27.624 26.6679C27.9593 26.1363 28.2455 25.662 28.4418 25.249C28.6105 24.9307 28.7475 24.5965 28.8507 24.2514C28.912 24.006 28.9284 23.8711 28.9407 23.8711C28.9352 24.002 28.9174 24.132 28.8875 24.2595C28.8058 24.6137 28.6822 24.9568 28.5195 25.2818C28.2729 25.7771 27.9999 26.259 27.7017 26.7251C27.3142 27.2977 26.9815 27.9055 26.7081 28.5406L26.655 28.6837L26.5936 28.5488C26.2966 27.9086 26.0438 27.2487 25.8372 26.5738C25.6818 26.0627 25.5551 25.5557 25.4569 25.065L25.5714 25.0896C24.7851 26.2141 24.1229 27.4206 23.5965 28.6878C23.4043 29.1662 23.2776 29.5546 23.1876 29.8245C23.1646 29.968 23.1332 30.11 23.0936 30.2498Z" fill="#161B46"/>
<path d="M24.8274 37.3234C24.8157 37.1956 24.8157 37.0669 24.8274 36.9391C24.8274 36.6447 24.8274 36.3012 24.8274 35.9005C24.8274 34.9642 24.8642 33.7825 24.8847 32.474C24.9092 31.8034 24.8847 31.1697 24.9583 30.585C24.975 30.4457 25.0066 30.3086 25.0523 30.1761C25.1014 30.0452 25.1546 29.9226 25.2036 29.7999C25.2977 29.5546 25.404 29.3419 25.498 29.1416C25.6725 28.7845 25.8238 28.4737 25.9519 28.2093C26.0025 28.092 26.0641 27.9797 26.1359 27.874C26.1009 27.9967 26.0544 28.1159 25.9969 28.2298C25.8783 28.4996 25.7434 28.8145 25.588 29.1825C25.5021 29.3828 25.3958 29.5914 25.3099 29.8367L25.1668 30.2047C25.125 30.3379 25.0963 30.4748 25.081 30.6136C25.0278 31.1819 25.0442 31.8402 25.0196 32.4945C24.9828 33.8029 24.9501 34.9846 24.9256 35.921C24.9256 36.3298 24.8929 36.6651 24.8806 36.9595C24.8727 37.0821 24.855 37.2038 24.8274 37.3234Z" fill="#161B46"/>
<path d="M22.0508 70.9994C22.0508 70.9994 22.0508 70.8563 22.0712 70.5905C22.0917 70.3247 22.1244 69.924 22.1448 69.4129C22.198 68.3948 22.2552 66.9146 22.3043 65.0869C22.4106 61.4314 22.4842 56.3775 22.521 50.7758C22.521 47.9872 22.5415 45.3253 22.521 42.9087C22.5006 40.4922 22.4679 38.3169 22.3779 36.4851C22.2932 35.0393 22.3796 33.5886 22.6355 32.1632C22.7148 31.7788 22.8158 31.3993 22.9381 31.0264C23.0321 30.7729 23.0853 30.6421 23.0853 30.6421C23.0853 30.6421 23.0485 30.777 22.9626 31.051C22.851 31.4264 22.7582 31.8071 22.6846 32.1918C22.4479 33.6153 22.3752 35.0613 22.4679 36.5015C22.5701 38.3251 22.6232 40.5045 22.6355 42.9251C22.6478 45.3457 22.6559 48.0035 22.6355 50.7962C22.5987 56.3775 22.5087 61.4273 22.382 65.0869C22.3247 66.9146 22.2511 68.3907 22.1816 69.4129C22.153 69.924 22.108 70.3206 22.0835 70.5864C22.059 70.8522 22.0508 70.9994 22.0508 70.9994Z" fill="#161B46"/>
<path d="M44.6666 56.5166C44.6666 56.5166 43.7998 56.5902 43.5994 56.0014C43.4482 55.2895 43.3606 54.5657 43.3377 53.8383L44.6666 52.4645V46.9649L38.6682 40.9134L39.3143 25.2856C39.3143 25.2856 40.9498 25.8008 42.4423 27.8698C43.9347 29.9388 53.2492 45.5093 53.5436 47.4965C53.838 49.4837 53.0488 53.4458 53.0488 53.4458C53.0488 53.4458 54.1651 54.1491 53.9034 54.8033C53.6417 55.4575 51.6095 58.2911 51.6095 58.2911L44.6666 56.5166Z" fill="#ABB4EC"/>
<path d="M8.34912 30.6875C8.3771 30.7225 8.40045 30.761 8.41863 30.802L8.59854 31.1414L9.2405 32.3967C9.51036 32.9405 9.82521 33.5702 10.1728 34.2612C10.5649 35.0222 10.901 35.8107 11.1786 36.6205C11.6092 38.1191 11.7793 39.6806 11.6816 41.2368C11.657 41.8338 11.6243 42.3122 11.5957 42.6434C11.5957 42.7865 11.5712 42.9133 11.563 43.0237C11.56 43.0694 11.5518 43.1147 11.5384 43.1586C11.5341 43.1137 11.5341 43.0685 11.5384 43.0237V42.6393C11.5384 42.2672 11.5671 41.797 11.5834 41.2368C11.6579 39.6937 11.4825 38.1486 11.0641 36.6614C10.7896 35.8568 10.459 35.0726 10.0746 34.3143L9.1669 32.4335C8.92565 31.9264 8.72529 31.5012 8.56174 31.1618C8.50449 31.031 8.45135 30.9165 8.40228 30.8143C8.37923 30.7744 8.36137 30.7318 8.34912 30.6875Z" fill="#161B46"/>
<path d="M39.5431 27.5757C39.5501 27.7768 39.5377 27.978 39.5063 28.1768C39.4613 28.5856 39.4082 29.1499 39.3468 29.8123C39.216 31.1903 39.0811 33.0834 38.9747 35.2096C38.8684 37.3359 38.8071 39.2331 38.7621 40.6151C38.7376 41.2775 38.7131 41.8418 38.6967 42.2507C38.7009 42.4522 38.6844 42.6536 38.6476 42.8518C38.6203 42.6526 38.6094 42.4516 38.6149 42.2507C38.6149 41.8623 38.6149 41.3021 38.6149 40.6151C38.6149 39.229 38.664 37.3154 38.7662 35.2015C38.8684 33.0875 39.032 31.178 39.1996 29.8C39.2814 29.1131 39.3632 28.5734 39.4245 28.1645C39.4472 27.9652 39.4869 27.7682 39.5431 27.5757Z" fill="#161B46"/>
<path d="M48.3997 44.5039C48.4242 44.5652 47.4756 44.9128 46.4452 45.5629C45.4148 46.2131 44.7034 46.9286 44.6543 46.8836C45.6057 45.6986 46.9227 44.8618 48.3997 44.5039Z" fill="#161B46"/>
<path d="M49.2094 45.9064C49.2094 45.9718 48.1913 46.0413 46.9728 46.3153C45.7543 46.5892 44.7975 46.945 44.7729 46.8877C46.1409 46.1793 47.6703 45.841 49.2094 45.9064Z" fill="#161B46"/>
<path d="M4.62419 49.6931C4.62419 49.6931 4.60374 49.6931 4.57103 49.6931C4.53832 49.6931 4.53014 49.7299 4.53423 49.6931H4.62419L5.22526 49.8035C5.88741 49.9291 6.53631 50.1166 7.1634 50.3636C7.79321 50.6174 8.36698 50.9925 8.8521 51.4676C9.00192 51.6135 9.13873 51.7723 9.26098 51.9419C9.30775 52.0021 9.34372 52.0699 9.3673 52.1423C9.34686 52.1423 9.17921 51.8806 8.80712 51.5331C8.31594 51.0849 7.74806 50.729 7.13068 50.4822C6.51046 50.2366 5.87203 50.0397 5.22118 49.8934L4.63237 49.7421C4.59914 49.7345 4.56637 49.7249 4.53423 49.7135C4.53423 49.7135 4.51379 49.6726 4.53423 49.6685H4.55468H4.59148C4.61193 49.6563 4.62828 49.6931 4.62419 49.6931Z" fill="#161B46"/>
<path d="M6.01025 47.3086C6.07416 47.3446 6.13324 47.3886 6.18607 47.4394C6.29647 47.5294 6.44777 47.6684 6.62768 47.8483C7.56539 48.7872 8.31363 49.8978 8.83158 51.1194C8.92972 51.3525 8.99922 51.5283 9.0442 51.6796C9.07204 51.749 9.08994 51.8219 9.09736 51.8963C9.07691 51.8963 8.96242 51.6101 8.7498 51.1562C8.1909 49.9723 7.45309 48.8814 6.56226 47.9219C6.36678 47.7281 6.18248 47.5233 6.01025 47.3086Z" fill="#161B46"/>
<path d="M4.99614 50.3838C4.72308 50.3863 4.45009 50.374 4.17836 50.347C3.89166 50.3399 3.60506 50.3646 3.32378 50.4206C2.98146 50.4972 2.64735 50.6068 2.32609 50.7477C2.00244 50.878 1.70783 51.0712 1.45925 51.3161C1.2583 51.5187 1.08878 51.7502 0.956314 52.003C0.735514 52.4405 0.653745 52.739 0.633301 52.7308C0.634794 52.6581 0.64861 52.5862 0.67418 52.5182C0.724627 52.3268 0.79308 52.1406 0.878624 51.9621C1.15128 51.3511 1.65371 50.8722 2.27703 50.6291C2.60679 50.4856 2.95081 50.3773 3.30334 50.3061C3.59318 50.2531 3.88852 50.2366 4.18245 50.257C4.43187 50.2775 4.63223 50.3102 4.77125 50.3306C4.8482 50.3385 4.9238 50.3564 4.99614 50.3838Z" fill="#161B46"/>
<path d="M7.59263 36.5918C7.69297 36.6339 7.78886 36.686 7.87886 36.7472C8.12733 36.9062 8.3613 37.0868 8.57805 37.2869C9.28495 37.9627 9.85789 38.766 10.2668 39.6544C10.6696 40.5366 11.0125 41.4451 11.2931 42.3735C11.4003 42.6513 11.4665 42.9434 11.4893 43.2403C11.4967 43.3206 11.4967 43.4013 11.4893 43.4816C11.4858 43.51 11.4775 43.5376 11.4648 43.5633C11.4648 43.5633 11.4648 43.4448 11.4648 43.2403C11.4221 42.9528 11.3452 42.6714 11.2358 42.4021C10.9303 41.4867 10.5754 40.5886 10.1727 39.7116C9.76943 38.8357 9.21589 38.0373 8.53716 37.3523C7.96472 36.8371 7.55583 36.6163 7.59263 36.5918Z" fill="#161B46"/>
<path d="M53.5478 54.1005C53.5478 54.1332 53.0121 53.8551 52.1126 53.5566C50.941 53.1821 49.7263 52.9595 48.498 52.8942C47.817 52.8592 47.1346 52.8592 46.4536 52.8942C45.9052 52.9073 45.3586 52.9606 44.818 53.0537C44.3185 53.1456 43.8518 53.367 43.4646 53.6957C43.5332 53.5715 43.6298 53.4651 43.7467 53.3849C44.0539 53.1524 44.4085 52.9905 44.7853 52.9106C45.3338 52.7894 45.8922 52.7182 46.4536 52.698C47.1344 52.6573 47.8171 52.6573 48.498 52.698C49.7456 52.7626 50.9771 53.0092 52.1535 53.4299C52.5064 53.5634 52.8506 53.7191 53.1839 53.896C53.4292 54.0064 53.556 54.0841 53.5478 54.1005Z" fill="#161B46"/>
<path d="M24.1447 38.2889C21.1352 42.4882 11.3464 55.1228 11.3464 55.1228L19.4056 69.0946C19.4996 69.2578 19.6318 69.3959 19.7908 69.4969C19.9498 69.5979 20.1309 69.6588 20.3186 69.6745C20.5063 69.6902 20.6951 69.6601 20.8686 69.5869C21.0422 69.5136 21.1954 69.3994 21.3151 69.254C24.3982 65.5168 33.2302 54.8039 35.6262 51.9294C35.7955 51.7199 35.8879 51.4587 35.8879 51.1893C35.8879 50.92 35.7955 50.6587 35.6262 50.4492L26.0255 38.248C25.9131 38.104 25.7687 37.9881 25.6036 37.9098C25.4386 37.8314 25.2575 37.7927 25.0748 37.7967C24.8922 37.8006 24.713 37.8472 24.5515 37.9327C24.39 38.0181 24.2507 38.1401 24.1447 38.2889Z" fill="#E6E8F3"/>
<path d="M21.7565 54.3254C22.3526 54.3254 22.8359 53.8421 22.8359 53.246C22.8359 52.6498 22.3526 52.1665 21.7565 52.1665C21.1603 52.1665 20.677 52.6498 20.677 53.246C20.677 53.8421 21.1603 54.3254 21.7565 54.3254Z" fill="white"/>
<path d="M25.4202 37.8433C25.4202 37.8433 25.5061 37.9496 25.6614 38.1622C25.8168 38.3748 26.0703 38.7019 26.3402 39.0945L28.7935 42.5373L32.4408 47.6566L33.4958 49.1368C33.6716 49.3944 33.8597 49.6356 34.0355 49.9096C34.2062 50.1913 34.3085 50.5093 34.334 50.8377C34.3594 51.1733 34.3033 51.5099 34.1704 51.8191C34.0256 52.1181 33.8367 52.3937 33.6102 52.6368L32.3304 54.2029L23.4862 65.0343C22.3576 66.4041 21.4417 67.5204 20.7916 68.3055L20.0556 69.1928C19.8879 69.3931 19.7898 69.4953 19.7898 69.4953C19.7898 69.4953 19.8716 69.3849 20.0351 69.1764L20.7548 68.2768L23.4166 64.9771L32.2486 54.1538L33.5244 52.5837C33.7496 52.3422 33.9346 52.0661 34.0723 51.7659C34.1973 51.4763 34.2493 51.1604 34.2236 50.8459C34.2005 50.5353 34.1053 50.2342 33.9455 49.9668C33.7779 49.7133 33.5857 49.4557 33.4099 49.2022L32.3631 47.722L28.7363 42.5864L26.2829 39.119L25.6246 38.1745C25.4938 37.9618 25.4202 37.8433 25.4202 37.8433Z" fill="#161B46"/>
<path d="M18.2851 59.6042L20.0842 59.3384L25.2852 56.5702L27.665 55.7852C27.8328 56.0173 27.9085 56.3034 27.8775 56.5881C27.8466 56.8729 27.7111 57.136 27.4973 57.3267C27.0462 57.8269 26.4476 58.1706 25.7882 58.308C25.7882 58.308 24.8109 59.228 24.7823 59.6042C24.7613 59.8543 24.8243 60.1043 24.9613 60.3146C25.0983 60.5249 25.3015 60.6835 25.5388 60.7654C26.3025 61.005 27.0869 61.1734 27.8817 61.2683L28.2252 60.9044C28.2252 60.9044 29.1165 61.3828 29.1165 61.9389C29.1065 62.3128 29.0318 62.6822 28.8957 63.0307L28.585 63.1983C28.585 63.1983 28.6995 63.873 28.5318 64.0938C28.3642 64.3146 27.4401 64.5027 27.4401 64.5027C27.4634 64.6864 27.4195 64.8724 27.3166 65.0264C27.2137 65.1804 27.0586 65.2921 26.8799 65.3409L26.2093 65.5944C26.3027 65.7582 26.3285 65.952 26.2811 66.1345C26.2338 66.317 26.1171 66.4739 25.9558 66.5716C25.3711 67.0459 23.3021 67.5244 23.3021 67.5244C23.2042 67.5749 23.0955 67.6013 22.9852 67.6013C22.875 67.6013 22.7663 67.5749 22.6684 67.5244C22.2963 67.3526 18.1706 64.9197 18.1706 64.9197L16.9971 64.335L18.2851 59.6042Z" fill="#AA6550"/>
<path d="M8.90524 53.4624L18.2851 59.5957L16.9972 64.3347C16.9972 64.3347 9.63716 61.8078 7.25334 60.3604C4.86952 58.9129 2.78418 57.5881 2.78418 57.5881L3.62649 56.3042C4.19932 55.4314 4.98019 54.7147 5.89879 54.2187C6.81739 53.7226 7.84491 53.4627 8.8889 53.4624H8.90524Z" fill="#AA6550"/>
<path d="M30.3842 8.87344C30.3104 7.12064 29.5788 5.46002 28.3353 4.22254C27.0917 2.98505 25.4275 2.26158 23.6744 2.19629H23.3146C19.4097 2.27398 17.2916 5.63504 17.4797 9.55628L16.9114 22.6693L25.498 24.9101C25.8205 24.6736 26.0844 24.3664 26.2694 24.012C26.4544 23.6575 26.5556 23.2653 26.5652 22.8656V21.9742C26.5652 21.9742 30.3352 21.5367 30.5233 17.7954C30.6418 15.9963 30.5274 12.259 30.3842 8.87344Z" fill="#AA6550"/>
<path d="M26.5977 21.9863C24.8662 21.9529 23.1837 21.4049 21.7646 20.4121C21.7646 20.4121 22.8155 23.1517 26.5691 22.9554L26.5977 21.9863Z" fill="#723C31"/>
<path d="M29.0552 11.1752C29.051 11.3144 28.9927 11.4465 28.8927 11.5434C28.7927 11.6404 28.6589 11.6946 28.5196 11.6945C28.4514 11.6972 28.3835 11.6863 28.3196 11.6624C28.2558 11.6384 28.1973 11.6019 28.1478 11.5551C28.0983 11.5082 28.0586 11.4519 28.0312 11.3895C28.0037 11.327 27.9891 11.2598 27.988 11.1916C27.9923 11.0524 28.0506 10.9203 28.1506 10.8233C28.2506 10.7264 28.3844 10.6722 28.5237 10.6723C28.5918 10.6696 28.6598 10.6805 28.7237 10.7044C28.7875 10.7284 28.8459 10.7649 28.8955 10.8117C28.945 10.8586 28.9847 10.9149 29.0121 10.9773C29.0395 11.0397 29.0542 11.107 29.0552 11.1752Z" fill="#161B46"/>
<path d="M29.6359 10.1774C29.5664 10.2469 29.1739 9.93206 28.5974 9.91161C28.0208 9.89117 27.5874 10.161 27.5302 10.0874C27.4729 10.0138 27.5711 9.93206 27.7591 9.8053C28.0148 9.64209 28.3148 9.5621 28.6178 9.57632C28.9155 9.58829 29.2018 9.69421 29.4356 9.8789C29.6155 10.022 29.6727 10.1488 29.6359 10.1774Z" fill="#161B46"/>
<path d="M23.4617 11.2981C23.4574 11.4373 23.3991 11.5693 23.2991 11.6663C23.1991 11.7632 23.0653 11.8174 22.926 11.8173C22.8576 11.8206 22.7891 11.8101 22.7248 11.7864C22.6605 11.7627 22.6016 11.7263 22.5516 11.6794C22.5016 11.6325 22.4616 11.576 22.4339 11.5133C22.4062 11.4506 22.3914 11.3829 22.3904 11.3144C22.3987 11.1781 22.4588 11.0501 22.5584 10.9566C22.6579 10.8631 22.7895 10.8112 22.926 10.8115C23.0613 10.8059 23.1934 10.8538 23.2937 10.9449C23.3939 11.0359 23.4543 11.1628 23.4617 11.2981Z" fill="#161B46"/>
<path d="M23.8461 10.1041C23.7847 10.1777 23.3554 9.90782 22.783 9.94871C22.2105 9.9896 21.8098 10.3085 21.7403 10.2431C21.6708 10.1777 21.7648 10.0836 21.9406 9.93644C22.1738 9.74774 22.4592 9.63501 22.7584 9.61342C23.0572 9.59386 23.3545 9.6682 23.6089 9.82604C23.8052 9.94871 23.8747 10.0714 23.8461 10.1041Z" fill="#161B46"/>
<path d="M25.7719 14.9004C26.0791 14.8196 26.3948 14.7756 26.7123 14.7695C26.8636 14.7695 27.0026 14.7368 27.0313 14.6346C27.0488 14.4839 27.0202 14.3313 26.9495 14.1971C26.8227 13.8373 26.696 13.457 26.5406 13.0604C26.0009 11.4453 25.6124 10.1164 25.6778 10.0959C25.7433 10.0755 26.2339 11.3676 26.7778 12.9827L27.1498 14.1276C27.2358 14.3071 27.2561 14.5112 27.2071 14.7041C27.1833 14.7558 27.1482 14.8014 27.1043 14.8375C27.0604 14.8736 27.0088 14.8993 26.9536 14.9126C26.8719 14.932 26.788 14.9403 26.7041 14.9372C26.3931 14.9636 26.0799 14.9512 25.7719 14.9004Z" fill="#161B46"/>
<path d="M24.0176 7.62199C23.9563 7.77736 23.3838 7.67923 22.7051 7.73648C22.0263 7.79372 21.4784 7.95319 21.3884 7.81008C21.3516 7.74057 21.4539 7.59745 21.6788 7.45434C21.98 7.28007 22.3169 7.17662 22.664 7.15183C23.0112 7.12703 23.3594 7.18154 23.6823 7.31123C23.9481 7.42163 24.0462 7.54021 24.0176 7.62199Z" fill="#161B46"/>
<path d="M29.554 8.95132C29.4477 9.07808 29.0552 8.92679 28.5809 8.90226C28.1066 8.87773 27.6936 8.95542 27.6077 8.81639C27.5709 8.74688 27.6364 8.62013 27.8204 8.50155C28.0628 8.3622 28.3413 8.29827 28.6202 8.31794C28.8992 8.3376 29.1659 8.43996 29.3864 8.61195C29.55 8.76733 29.599 8.88999 29.554 8.95132Z" fill="#161B46"/>
<path d="M24.0626 15.2518C24.1566 15.2518 24.1362 15.8733 24.6514 16.3394C25.1666 16.8056 25.8371 16.7483 25.8412 16.8464C25.8453 16.9446 25.6859 16.9609 25.4037 16.9568C25.038 16.9499 24.687 16.812 24.4142 16.5684C24.1495 16.3372 23.9865 16.0111 23.9603 15.6607C23.9481 15.399 24.0217 15.2436 24.0626 15.2518Z" fill="#161B46"/>
<path d="M29.182 3.47182C29.2432 3.31728 29.2516 3.14681 29.2057 2.98702C29.1598 2.82724 29.0623 2.68714 28.9285 2.58862C28.7608 2.46595 28.3928 2.48231 28.2006 2.40462C27.9133 2.27175 27.6395 2.11154 27.3829 1.92622C26.5518 1.40996 25.5969 1.12744 24.6188 1.10844C24.4613 1.11615 24.3034 1.10518 24.1485 1.07573C23.9959 1.03483 23.8468 0.9815 23.7029 0.916267C23.0668 0.670268 22.3761 0.600816 21.7038 0.715263C21.0315 0.829711 20.4027 1.1238 19.8838 1.5664C19.7438 1.70974 19.5874 1.83601 19.4177 1.94258C19.2182 2.03412 19.01 2.10536 18.7962 2.1552C17.9457 2.42915 17.316 3.14062 16.7518 3.82347C16.2652 4.39591 15.75 5.12782 16.0117 5.83111C16.0631 5.92512 16.0898 6.03063 16.0894 6.13777C16.0517 6.25941 15.9757 6.36557 15.8726 6.44035C15.6171 6.70041 15.4557 7.03843 15.4142 7.4007C15.3727 7.76296 15.4535 8.1287 15.6437 8.43982C15.5659 8.47285 15.4956 8.5214 15.4372 8.58251C15.3788 8.64362 15.3335 8.716 15.304 8.79523C15.2745 8.87445 15.2615 8.95886 15.2658 9.04328C15.2701 9.1277 15.2915 9.21036 15.3288 9.28621C15.3902 9.36642 15.4347 9.45822 15.4597 9.55608C15.4518 9.68339 15.4015 9.80436 15.3166 9.89955C15.1657 10.1393 15.0943 10.4205 15.1127 10.7032C15.131 10.9859 15.2382 11.2555 15.4188 11.4738L16.028 12.5491L17.2792 14.7449C17.9334 14.6345 18.6367 13.5673 18.8248 11.9603C19.0334 10.1531 19.201 8.05137 18.8739 6.26044C18.8366 6.16021 18.8366 6.04992 18.8739 5.94969C18.9475 5.81884 19.1315 5.80248 19.2828 5.79022C19.937 5.73235 20.559 5.48034 21.0689 5.06653C21.5789 4.65272 21.9536 4.09598 22.145 3.46773C22.4975 3.75663 22.9267 3.93642 23.3799 3.98508C23.8331 4.03374 24.2906 3.94915 24.6965 3.74169C24.7538 3.70902 24.8159 3.68556 24.8805 3.67218C25.0399 3.67218 25.1626 3.80302 25.2648 3.92569C25.7813 4.55462 26.4916 4.99463 27.2847 5.17689C27.4617 5.20172 27.6339 5.2527 27.7958 5.32817C27.967 5.43906 28.119 5.57718 28.2456 5.73706C28.4764 5.99522 28.7388 6.22327 29.0266 6.41582C29.2086 6.56104 29.4358 6.63773 29.6685 6.63253C30.0774 6.58755 30.286 6.15004 30.3228 5.75751C30.425 4.77209 30.3391 3.99929 29.182 3.47182Z" fill="#161B46"/>
<path d="M15.7704 8.76706C15.8033 8.45823 15.7696 8.14595 15.6717 7.85123C15.5737 7.5565 15.4138 7.28616 15.2027 7.05838C14.9916 6.83061 14.7341 6.65068 14.4477 6.5307C14.1612 6.41072 13.8524 6.35347 13.542 6.3628C13.3574 6.35654 13.1737 6.38978 13.003 6.4603C12.8324 6.53082 12.6788 6.63698 12.5525 6.77169C12.431 6.91116 12.3665 7.09125 12.3718 7.27612C12.3771 7.46099 12.4518 7.63709 12.5811 7.76937C12.4971 7.71162 12.4008 7.67441 12.2998 7.66075C12.1988 7.64709 12.096 7.65736 11.9997 7.69074C11.9034 7.72412 11.8163 7.77966 11.7455 7.85289C11.6746 7.92612 11.6219 8.01499 11.5917 8.11232C11.5615 8.20965 11.5546 8.31271 11.5716 8.4132C11.5885 8.51369 11.6289 8.60879 11.6893 8.69081C11.7498 8.77284 11.8287 8.8395 11.9197 8.88542C12.0107 8.93134 12.1112 8.95522 12.2131 8.95515C11.8042 9.06964 11.6734 9.63391 11.7592 10.0632C11.7793 10.2235 11.8307 10.3783 11.9107 10.5186C11.9907 10.659 12.0976 10.7821 12.2254 10.881C12.3566 10.9731 12.5184 11.011 12.6769 10.9866C12.8354 10.9622 12.9783 10.8775 13.0758 10.7502C13.0758 11.2858 13.726 11.6252 14.2494 11.5148C14.7636 11.3531 15.2085 11.0234 15.5128 10.5784C15.5562 10.5172 15.6156 10.4691 15.6846 10.4394C15.7687 10.4291 15.8539 10.4291 15.9381 10.4394C16.1793 10.4108 16.2897 10.1164 16.3102 9.87106C16.3723 9.1636 16.1826 8.45691 15.7745 7.87568" fill="#161B46"/>
<path d="M15.3615 7.34033C15.4222 7.55146 15.4484 7.77099 15.4392 7.99046C15.4557 8.10924 15.4488 8.2301 15.4188 8.3462C15.35 8.45675 15.2749 8.56324 15.1939 8.66513C15.0654 8.89972 15.0112 9.16778 15.0385 9.43384C15.0463 9.5778 15.0627 9.72117 15.0876 9.86317C15.0876 9.93269 15.1162 9.99402 15.1203 10.084C15.122 10.1332 15.1122 10.1821 15.0916 10.2269C15.071 10.2716 15.0402 10.3109 15.0017 10.3416C14.8247 10.4726 14.6701 10.6314 14.5437 10.8118C14.327 11.1348 14.2698 11.3801 14.2371 11.372C14.2261 11.1454 14.2892 10.9215 14.417 10.7341C14.5324 10.5198 14.6895 10.3308 14.879 10.178C14.8949 10.1667 14.9072 10.151 14.9144 10.1329C14.9216 10.1148 14.9236 10.095 14.9199 10.0758C14.9113 10.0111 14.899 9.94692 14.8831 9.88362C14.8566 9.73211 14.8389 9.57921 14.83 9.42566C14.7988 9.11677 14.8707 8.80623 15.0344 8.54246C15.1121 8.41571 15.2307 8.33393 15.2593 8.26442C15.2859 8.17008 15.297 8.07201 15.292 7.97411C15.2834 7.76056 15.3069 7.54694 15.3615 7.34033Z" fill="#6878D8"/>
<path d="M15.1899 8.88965C15.3208 8.90325 15.453 8.88356 15.5742 8.8324C15.7037 8.76508 15.8062 8.65539 15.8645 8.52165C15.932 8.34019 15.9599 8.14641 15.9463 7.95329V7.75293L16.1058 7.8756C16.1899 7.92011 16.2823 7.94675 16.3773 7.95386C16.4722 7.96096 16.5676 7.94839 16.6574 7.91691C16.7472 7.88543 16.8296 7.83573 16.8993 7.77092C16.969 7.70612 17.0246 7.62761 17.0626 7.54031C17.1642 7.33294 17.216 7.10473 17.2139 6.87383V6.7716H17.3161C17.8926 6.7716 18.4364 6.65711 18.6532 6.39951C18.7399 6.29834 18.7864 6.16884 18.784 6.0356C18.784 5.94156 18.7513 5.89249 18.784 5.88431C18.8167 5.87614 18.8412 5.91703 18.874 6.02334C18.8907 6.10162 18.8907 6.18258 18.8737 6.26083C18.8568 6.33909 18.8234 6.41284 18.7758 6.4772C18.6282 6.66531 18.4203 6.79673 18.187 6.84929C17.9115 6.93413 17.6248 6.97687 17.3365 6.97605L17.4388 6.87383C17.445 7.13976 17.3875 7.40333 17.2711 7.64254C17.2199 7.75565 17.1451 7.85656 17.0519 7.93856C16.9586 8.02056 16.849 8.08178 16.7302 8.11813C16.6115 8.15449 16.4864 8.16516 16.3632 8.14943C16.24 8.13369 16.1216 8.09192 16.0158 8.02689L16.1671 7.9492C16.1749 8.16921 16.1301 8.3879 16.0363 8.58707C15.9557 8.74663 15.8187 8.87052 15.6519 8.93463C15.333 9.03276 15.1735 8.89783 15.1899 8.88965Z" fill="#ABB4EC"/>
<path d="M16.7026 3.90512C16.6786 3.81545 16.6858 3.72028 16.7231 3.63525C16.8091 3.39342 16.9868 3.19514 17.2178 3.08326C17.3788 2.99988 17.5613 2.9671 17.7412 2.98921C17.8231 3.0089 17.9066 3.02121 17.9906 3.02601C18.0438 3.02601 18.0929 2.97286 18.1542 2.89517C18.2962 2.71807 18.4887 2.58832 18.7062 2.52308C18.9198 2.43162 19.1436 2.36573 19.3727 2.32681C19.599 2.30213 19.8278 2.33884 20.035 2.43309C20.2422 2.52734 20.4202 2.67566 20.5503 2.86246L20.4317 2.82566C20.6793 2.73192 20.946 2.69969 21.2088 2.73174C21.4716 2.76379 21.7227 2.85916 21.9405 3.00966C22.0677 3.10111 22.1588 3.2342 22.1981 3.38583C22.1981 3.49214 22.1981 3.54939 22.1777 3.5453C22.1615 3.45445 22.1257 3.36822 22.0727 3.29265C22.0197 3.21708 21.9509 3.15399 21.871 3.10779C21.6656 2.98937 21.4359 2.91901 21.1994 2.90202C20.9629 2.88502 20.7256 2.92182 20.5053 3.00966L20.4317 3.03828L20.3867 2.97694C20.2749 2.8234 20.1245 2.70209 19.9507 2.62527C19.777 2.54845 19.5861 2.51884 19.3972 2.53943C19.1853 2.57602 18.9782 2.63637 18.7798 2.71934C18.5946 2.76735 18.4289 2.87164 18.3055 3.01783C18.2717 3.06878 18.2278 3.11216 18.1764 3.14524C18.125 3.17832 18.0673 3.20038 18.007 3.21001C17.9076 3.20518 17.8089 3.19011 17.7126 3.16503C17.566 3.14048 17.4155 3.15895 17.2792 3.21819C17.0706 3.30545 16.9007 3.46521 16.8008 3.66797C16.7313 3.81108 16.7231 3.90512 16.7026 3.90512Z" fill="#ABB4EC"/>
<path d="M25.1298 1.12501C25.1298 1.12501 25.2852 1.08821 25.506 1.22724C25.5723 1.27209 25.626 1.33328 25.6618 1.4049C25.6976 1.47652 25.7144 1.55615 25.7105 1.63613C25.7035 1.69713 25.6801 1.75511 25.6428 1.80387C25.6054 1.85263 25.5556 1.89035 25.4985 1.91301C25.4414 1.93567 25.3793 1.94242 25.3187 1.93254C25.2581 1.92267 25.2013 1.89653 25.1544 1.85693L25.2934 1.70564C25.5143 1.88292 25.6611 2.13631 25.705 2.41615C25.7488 2.696 25.6866 2.98214 25.5306 3.21853C25.3466 3.48839 25.1462 3.5579 25.1217 3.53746C25.0971 3.51701 25.2566 3.39844 25.3834 3.12857C25.4654 2.96877 25.5054 2.79072 25.4997 2.61119C25.494 2.43165 25.4427 2.25651 25.3506 2.10226C25.2946 2.00873 25.2242 1.92456 25.1421 1.85284L25.2852 1.69746C25.305 1.71118 25.3286 1.71852 25.3527 1.71852C25.3768 1.71852 25.4003 1.71118 25.4202 1.69746C25.4448 1.68877 25.4666 1.67351 25.4831 1.65333C25.4997 1.63315 25.5105 1.60882 25.5142 1.58297C25.5216 1.52798 25.5154 1.47202 25.4962 1.41998C25.4769 1.36795 25.4452 1.32142 25.4038 1.28448C25.2689 1.19044 25.1176 1.15364 25.1298 1.12501Z" fill="#ABB4EC"/>
<path d="M15.0997 9.7073C15.0997 9.7073 15.1856 9.80952 15.3818 9.86677C15.4383 9.88285 15.4974 9.88751 15.5557 9.88049C15.6139 9.87347 15.6702 9.8549 15.7212 9.82588C15.7846 9.78915 15.8382 9.7376 15.8774 9.67565C15.9166 9.6137 15.9401 9.54319 15.9461 9.47015V9.30659L16.077 9.40881C16.1755 9.47996 16.2886 9.52825 16.4082 9.55018C16.5277 9.5721 16.6506 9.56711 16.768 9.53557C16.8991 9.49418 17.0177 9.42041 17.1127 9.32107C17.2078 9.22173 17.2762 9.10002 17.3118 8.96721C17.3247 8.87498 17.3247 8.7814 17.3118 8.68917C17.3098 8.64864 17.3168 8.60817 17.3324 8.57069C17.348 8.53322 17.3716 8.49966 17.4018 8.47246C17.4565 8.43466 17.5197 8.4108 17.5858 8.40295C17.7584 8.36728 17.9232 8.30079 18.0723 8.20668C18.3312 8.04741 18.5441 7.82331 18.6898 7.55655C18.812 7.29775 18.8947 7.02209 18.9351 6.73877C18.9759 6.88598 18.9872 7.03982 18.9682 7.19141C18.9493 7.34299 18.9005 7.48933 18.8247 7.62197C18.6926 7.9159 18.4852 8.16978 18.2236 8.35797C18.0547 8.4674 17.8679 8.54629 17.6716 8.59103C17.6387 8.59424 17.6067 8.60397 17.5776 8.61966C17.5776 8.61966 17.5776 8.61966 17.5776 8.67281C17.5836 8.78401 17.574 8.8955 17.549 9.00401C17.5117 9.16303 17.4346 9.30993 17.3248 9.43085C17.215 9.55177 17.0763 9.64271 16.9216 9.69509C16.7669 9.74747 16.6014 9.75956 16.4407 9.73022C16.2801 9.70088 16.1295 9.63107 16.0034 9.52739L16.1424 9.46606C16.1313 9.56603 16.0946 9.66146 16.0359 9.74311C15.9772 9.82477 15.8984 9.88989 15.8071 9.93219C15.7391 9.96341 15.6652 9.97957 15.5904 9.97957C15.5156 9.97957 15.4417 9.96341 15.3737 9.93219C15.1242 9.85859 15.0874 9.7073 15.0997 9.7073Z" fill="#ABB4EC"/>
<path d="M11.6816 8.73435C11.6816 8.73435 11.653 8.67301 11.7225 8.59533C11.7492 8.56813 11.781 8.54652 11.8161 8.53177C11.8512 8.51702 11.8889 8.50942 11.927 8.50942C11.965 8.50942 12.0027 8.51702 12.0378 8.53177C12.0729 8.54652 12.1047 8.56813 12.1314 8.59533H12.0169C12.0795 8.48034 12.1666 8.38054 12.272 8.30302C12.3775 8.2255 12.4987 8.17216 12.6272 8.14679C12.7556 8.12142 12.888 8.12464 13.015 8.15622C13.1421 8.18781 13.2606 8.24699 13.3621 8.32955C13.4377 8.3891 13.5027 8.46098 13.5543 8.54217L13.403 8.51355C13.6052 8.37221 13.855 8.31637 14.0982 8.35817C14.2888 8.39436 14.4616 8.49376 14.5888 8.6403C14.7973 8.89381 14.7769 9.10644 14.7565 9.10235C14.736 9.09826 14.6869 8.92652 14.4866 8.73844C14.3743 8.63239 14.231 8.56504 14.0777 8.54626C13.8865 8.5196 13.6925 8.56957 13.538 8.68528L13.448 8.7507L13.3867 8.65666C13.3453 8.59688 13.2958 8.5432 13.2395 8.49719C13.1504 8.42456 13.0456 8.37379 12.9335 8.34894C12.8213 8.32409 12.7048 8.32585 12.5934 8.35408C12.4132 8.4049 12.2559 8.51605 12.1478 8.66893L12.0905 8.75479L12.0333 8.68119C11.9972 8.65267 11.9525 8.63716 11.9065 8.63716C11.8605 8.63716 11.8158 8.65267 11.7797 8.68119C11.6816 8.69346 11.6816 8.73843 11.6816 8.73435Z" fill="#ABB4EC"/>
<path d="M12.9983 6.67362C12.9983 6.67362 12.9983 6.61637 13.0514 6.54277C13.1007 6.49932 13.1586 6.46669 13.2213 6.44697C13.2839 6.42725 13.3501 6.42088 13.4154 6.42829C13.8166 6.49565 14.1798 6.70631 14.4376 7.02118C14.705 7.31433 14.8911 7.67239 14.9773 8.05975C15.0386 8.35824 15.01 8.54633 14.9773 8.54633C14.8364 8.04294 14.5958 7.57298 14.2699 7.16429C14.0411 6.88678 13.7352 6.68331 13.3908 6.57958C13.3225 6.56625 13.2521 6.56775 13.1843 6.58397C13.1166 6.6002 13.0532 6.63077 12.9983 6.67362Z" fill="#ABB4EC"/>
<path d="M29.3619 3.59061C29.3619 3.59061 29.4682 3.62332 29.4682 3.78279C29.4637 3.87557 29.4242 3.96321 29.3578 4.02813C29.3319 4.05488 29.3002 4.07538 29.2652 4.08807C29.2301 4.10076 29.1927 4.1053 29.1556 4.10136C29.1186 4.09742 29.0829 4.0851 29.0514 4.06532C29.0198 4.04555 28.9931 4.01884 28.9734 3.98724L29.1493 3.95453C29.1419 4.08963 29.0938 4.21934 29.0113 4.32662C28.9289 4.4339 28.8159 4.51371 28.6872 4.55559C28.5684 4.59023 28.4421 4.59023 28.3233 4.55559L28.4501 4.45746C28.4476 4.61374 28.4142 4.76798 28.3519 4.91132C28.2967 5.03236 28.2014 5.1306 28.082 5.18937C27.8694 5.28341 27.7345 5.18937 27.7508 5.16892C27.7672 5.14848 27.8776 5.16892 28.0166 5.07488C28.1019 4.99658 28.167 4.89875 28.2061 4.78978C28.2453 4.68082 28.2575 4.56397 28.2415 4.44928V4.32661L28.3683 4.35115C28.4513 4.37316 28.5387 4.37316 28.6218 4.35115C28.7112 4.32128 28.7905 4.26729 28.8512 4.19513C28.9118 4.12297 28.9513 4.03545 28.9652 3.94226L29.0307 3.39844L29.1411 3.90955C29.1411 3.93408 29.2147 3.95453 29.2596 3.90955C29.3079 3.87375 29.3437 3.82368 29.3619 3.76643C29.3905 3.66421 29.3455 3.60697 29.3619 3.59061Z" fill="#ABB4EC"/>
<path d="M17.8804 22.5059L16.9114 22.6817L20.7345 26.2227L20.8939 27.6538C21.4254 28.211 21.9045 28.816 22.3251 29.4611L23.0038 30.3402L23.7194 28.353C23.9184 27.7861 24.1688 27.2386 24.4676 26.7174L25.5021 24.906L26.3812 23.7734L26.1155 23.3195L17.8804 22.5059Z" fill="#AA6550"/>
<path d="M15.104 11.0608C15.0199 11.5131 14.8982 11.9576 14.7401 12.3896C14.6856 12.636 14.5394 12.8523 14.3312 12.9948C14.0684 13.1377 13.7728 13.2095 13.4738 13.203C13.1747 13.1966 12.8825 13.1121 12.6261 12.958C12.48 12.8617 12.3602 12.7305 12.2774 12.5763C12.1946 12.4222 12.1514 12.2498 12.1518 12.0748C12.1471 11.867 12.2217 11.6653 12.3603 11.5105L12.4503 11.6864C12.155 11.7111 11.8594 11.6432 11.6044 11.4923C11.3494 11.3414 11.1477 11.1148 11.0274 10.844C10.9421 10.6262 10.9063 10.3922 10.9225 10.1588C10.9388 9.92543 11.0067 9.6986 11.1214 9.49471C11.1935 9.35794 11.2945 9.23847 11.4173 9.14457C11.5402 9.05067 11.682 8.98458 11.8329 8.95089C12.0537 8.91818 12.1641 8.99587 12.1559 8.99996C12.0532 8.99965 11.9506 9.00786 11.8492 9.02449C11.7174 9.06948 11.596 9.14042 11.492 9.23312C11.3881 9.32582 11.3038 9.4384 11.2441 9.56422C11.1525 9.75027 11.1015 9.95365 11.0945 10.1609C11.0874 10.3681 11.1245 10.5745 11.2032 10.7664C11.3095 10.9966 11.4845 11.1882 11.7041 11.3149C11.9238 11.4416 12.1773 11.4971 12.4298 11.4737L12.6997 11.4492L12.5198 11.6536C12.4229 11.7679 12.3694 11.9127 12.3685 12.0625C12.3691 12.2031 12.4041 12.3414 12.4704 12.4654C12.5367 12.5894 12.6322 12.6954 12.7488 12.774C12.9795 12.9245 13.2503 13.0015 13.5257 12.9948C13.7758 13.0053 14.0243 12.9488 14.2453 12.8312C14.4255 12.7144 14.5565 12.5354 14.6133 12.3283C14.7449 11.8941 14.909 11.4704 15.104 11.0608Z" fill="#ABB4EC"/>
<path d="M22.5253 6.47299C22.5253 6.47299 22.4353 6.47299 22.3004 6.41166C22.1113 6.30237 21.9666 6.13016 21.8915 5.92508C21.8255 5.76864 21.8047 5.59681 21.8314 5.42912C21.8581 5.26143 21.9314 5.1046 22.0428 4.97646C22.1749 4.80982 22.3586 4.69172 22.565 4.64067C22.7715 4.58961 22.989 4.60848 23.1836 4.69433C23.2444 4.72738 23.2948 4.77655 23.3294 4.83643C23.3641 4.8963 23.3815 4.96456 23.3799 5.0337C23.3732 5.10658 23.3407 5.17466 23.2882 5.22565C23.2357 5.27664 23.1667 5.30718 23.0937 5.31175C22.9883 5.31103 22.8841 5.28932 22.7872 5.2479C22.6904 5.20648 22.6027 5.14617 22.5294 5.0705C22.4055 4.95361 22.3178 4.80368 22.2765 4.63847C22.2352 4.47325 22.242 4.29966 22.2963 4.13824C22.3659 3.929 22.512 3.75376 22.7052 3.64757C22.8442 3.57806 22.9342 3.58215 22.9342 3.59032C22.9342 3.5985 22.8606 3.6353 22.7502 3.71708C22.5928 3.83139 22.4789 3.99574 22.4272 4.18322C22.3924 4.31628 22.3954 4.4564 22.4359 4.58785C22.4763 4.7193 22.5526 4.83687 22.6561 4.92739C22.7094 4.98215 22.7729 5.02587 22.8431 5.05604C22.9132 5.08621 22.9887 5.10224 23.065 5.10321C23.1304 5.10321 23.155 5.0705 23.1591 5.02143C23.1585 4.99165 23.1499 4.96258 23.134 4.93736C23.1182 4.91214 23.0957 4.89172 23.0691 4.87832C22.9157 4.82001 22.748 4.81072 22.5891 4.85173C22.4302 4.89274 22.2879 4.98204 22.1818 5.1073C22.0882 5.20905 22.024 5.33427 21.9959 5.46963C21.9678 5.60499 21.977 5.74543 22.0224 5.87601C22.0836 6.06105 22.199 6.22344 22.3536 6.34215C22.4558 6.42392 22.5335 6.45664 22.5253 6.47299Z" fill="#161B46"/>
<path d="M17.6798 12.3039C17.6144 12.2752 15.1366 11.4452 15.1202 14.0089C15.1038 16.5727 17.6798 16.0534 17.6839 15.9879C17.688 15.9225 17.6798 12.3039 17.6798 12.3039Z" fill="#AA6550"/>
<path d="M16.9072 15.0105C16.9072 15.0105 16.8622 15.0391 16.7845 15.0759C16.6781 15.1176 16.5598 15.1176 16.4533 15.0759C16.2888 14.9696 16.1553 14.8217 16.0663 14.6473C15.9772 14.4728 15.9358 14.2779 15.9463 14.0823C15.9413 13.8612 15.986 13.6418 16.0772 13.4403C16.1019 13.3605 16.1458 13.2878 16.2049 13.2287C16.264 13.1696 16.3367 13.1257 16.4165 13.101C16.4676 13.089 16.5212 13.0946 16.5687 13.1168C16.6162 13.1391 16.6548 13.1767 16.6782 13.2236C16.7109 13.2972 16.6782 13.3504 16.7068 13.3545C16.7355 13.3586 16.7641 13.3095 16.7436 13.2032C16.7297 13.1405 16.6952 13.0844 16.6455 13.0437C16.6103 13.0169 16.5701 12.9973 16.5273 12.9861C16.4845 12.9748 16.4399 12.9722 16.3961 12.9783C16.2894 12.9997 16.1902 13.0487 16.1084 13.1205C16.0266 13.1922 15.9651 13.2842 15.93 13.3872C15.8193 13.6018 15.7645 13.8409 15.7705 14.0823C15.7557 14.3103 15.8088 14.5377 15.923 14.7356C16.0373 14.9335 16.2076 15.0932 16.4124 15.1945C16.4811 15.2155 16.5536 15.2205 16.6245 15.2092C16.6954 15.1978 16.7627 15.1704 16.8213 15.129C16.9031 15.0718 16.9154 15.0146 16.9072 15.0105Z" fill="#723C31"/>
</svg>
