<svg width="36" height="70" viewBox="0 0 36 70" fill="none" xmlns="http://www.w3.org/2000/svg">
<path d="M3 70.0002L4 64.0002C6 57.5002 29.5 62.5002 31.5 63.0002C33.1 63.4002 33.8333 67.8335 34 70.0002H3Z" fill="#2D3259"/>
<path d="M29.0998 43.2185L33.0007 32.3484C33.0007 32.3484 30.5289 31.3142 28.3532 30.5889L25.7311 27.9626L21.7916 25.9585L12.8612 26.1817L9.42809 30.2456C9.42809 30.2456 4.3299 31.4429 3.04248 32.1424L5.90054 47.5914V54.9469C5.90054 54.9469 5.20106 59.9163 4.70755 60.6158C4.21403 61.3153 3.84926 61.2381 4.19257 63.5769H30.6061C30.6061 63.5769 31.8077 63.6284 31.8936 62.7186C31.9794 61.8089 30.353 56.9767 30.353 56.9767L29.0998 43.2185Z" fill="#6878D8"/>
<g opacity="0.3">
<path opacity="0.3" d="M25.6497 58.9549C25.2862 58.9942 24.9313 59.0912 24.5983 59.2425C24.4052 59.3412 24.2336 59.4742 24.0491 59.5901C23.4104 59.9487 22.722 60.2105 22.0063 60.3668C21.4371 60.5771 20.8208 60.6261 20.2254 60.5084C19.6418 60.3368 19.2041 59.8561 18.6805 59.5472C18.157 59.2382 18.1999 58.4099 17.6549 58.2597C16.6335 58.0108 15.05 58.4786 14.0329 58.2254C12.9851 57.9452 11.92 57.7344 10.8444 57.5946C9.66427 57.4701 8.26957 56.9981 7.03794 57.2513C6.46718 57.3714 6.01657 58.1095 5.49731 58.2769C5.77141 58.6606 6.14318 58.9641 6.57404 59.1557C7.0049 59.3474 7.47918 59.4203 7.94771 59.3669C8.60859 59.2596 9.23513 58.8734 9.90459 58.9378C10.4369 59.0758 10.9361 59.3195 11.3722 59.6544C11.9632 59.9982 12.6224 60.2077 13.3034 60.2681C14.093 60.3368 14.8955 60.2037 15.6765 60.3368C16.6206 60.4956 17.4532 61.032 18.3415 61.3882C20.1749 62.1223 22.2223 62.1131 24.0491 61.3624C24.9073 61.0019 25.7442 60.4655 26.684 60.3625C27.5208 60.2681 28.4263 60.5127 29.1773 60.1308C29.7867 59.8218 30.1343 59.1695 30.4647 58.5558C28.8519 58.5653 27.2421 58.6987 25.6497 58.9549Z" fill="#2D3259"/>
</g>
<path d="M14.0455 32.4858C13.9448 32.5268 13.8416 32.5612 13.7365 32.5888C13.4616 32.7009 13.2009 32.8449 12.9598 33.0179C12.3504 33.4471 11.5307 34.0865 10.6682 34.8332C10.4321 35.0435 10.2047 35.2624 9.98152 35.4426L9.87424 35.5413V35.3954C9.87424 34.5157 9.87424 33.7346 9.87424 33.0823C9.87424 32.8334 9.87424 32.6103 9.87424 32.4043C9.86256 32.3232 9.86256 32.2408 9.87424 32.1597C9.89037 32.2402 9.89756 32.3222 9.89569 32.4043V33.0823C9.89569 33.7346 9.91715 34.5157 9.92573 35.3954L9.90858 35.3525C10.1231 35.1508 10.3377 34.9448 10.5909 34.7388C11.3285 34.0904 12.1069 33.4898 12.9211 32.9407C13.1746 32.7775 13.4488 32.649 13.7365 32.5588C13.8341 32.5155 13.9389 32.4907 14.0455 32.4858Z" fill="#161B46"/>
<path d="M16.3973 52.887C16.3624 52.8292 16.335 52.7672 16.3158 52.7025C16.2643 52.5566 16.1999 52.3764 16.1184 52.1661C15.9126 51.4899 15.762 50.7981 15.6678 50.0976C15.5332 49.0615 15.4601 48.0183 15.4489 46.9735C15.4231 45.7933 15.4489 44.4973 15.3245 43.1456C15.2372 41.8739 14.9965 40.6174 14.6078 39.4035C14.2516 38.2834 13.8911 37.2835 13.6723 36.3995C13.485 35.7177 13.3785 35.0162 13.3547 34.3096C13.3406 34.0516 13.3521 33.7928 13.389 33.5371C13.389 33.5371 13.389 33.8118 13.389 34.3096C13.4344 35.0097 13.5538 35.703 13.7452 36.378C13.9727 37.2363 14.346 38.2319 14.7065 39.352C15.1093 40.5719 15.3559 41.8379 15.4403 43.1198C15.5433 44.4802 15.5347 45.7805 15.5562 46.9563C15.5628 47.9975 15.6259 49.0375 15.745 50.0719C15.8356 50.7698 15.979 51.4598 16.1741 52.136L16.3458 52.681C16.3677 52.7484 16.3849 52.8173 16.3973 52.887Z" fill="#161B46"/>
<path d="M18.0626 51.7575C18.0237 51.6312 17.995 51.5021 17.9767 51.3713C17.9338 51.1224 17.8737 50.7619 17.8094 50.3113C17.6806 49.4144 17.539 48.1656 17.4403 46.7923C17.3416 45.4191 17.3159 44.1574 17.3159 43.2519C17.3159 42.8228 17.3159 42.4323 17.3159 42.1791C17.3105 42.0482 17.3205 41.9171 17.3459 41.7886C17.3578 41.9185 17.3578 42.0492 17.3459 42.1791C17.3459 42.4838 17.3459 42.84 17.3674 43.2519C17.3674 44.1574 17.436 45.3976 17.5304 46.7838C17.6249 48.1699 17.7579 49.4015 17.8609 50.2984C17.9081 50.7061 17.951 51.0623 17.9896 51.3627C18.0238 51.4923 18.0482 51.6242 18.0626 51.7575Z" fill="#161B46"/>
<path d="M18.2472 41.0638C18.2913 41.0476 18.3386 41.042 18.3853 41.0474C18.432 41.0529 18.4767 41.0692 18.516 41.095C18.5552 41.1209 18.5878 41.1557 18.6112 41.1964C18.6346 41.2372 18.6481 41.2829 18.6506 41.3298C18.6448 41.3774 18.6278 41.4229 18.6012 41.4627C18.5745 41.5025 18.5388 41.5355 18.497 41.5589C18.4552 41.5823 18.4084 41.5955 18.3606 41.5975C18.3127 41.5994 18.265 41.5901 18.2214 41.5702C18.1818 41.5448 18.1487 41.5104 18.125 41.4698C18.1013 41.4291 18.0877 41.3834 18.0851 41.3365C18.0826 41.2895 18.0913 41.2426 18.1105 41.1996C18.1298 41.1567 18.159 41.1189 18.1957 41.0895" fill="#161B46"/>
<path d="M16.1486 40.7383C16.1924 40.722 16.2395 40.7163 16.286 40.7217C16.3325 40.7271 16.3771 40.7435 16.416 40.7695C16.455 40.7954 16.4872 40.8303 16.5101 40.8711C16.533 40.9119 16.5458 40.9576 16.5477 41.0044C16.5481 41.054 16.5355 41.1028 16.5111 41.146C16.4867 41.1892 16.4514 41.2253 16.4087 41.2505C16.366 41.2758 16.3174 41.2894 16.2678 41.29C16.2182 41.2906 16.1693 41.2782 16.1261 41.2539C16.0828 41.2297 16.0466 41.1945 16.0212 41.1519C15.9958 41.1093 15.982 41.0608 15.9812 41.0112C15.9805 40.9616 15.9928 40.9126 16.0169 40.8693C16.0409 40.8259 16.076 40.7896 16.1185 40.764" fill="#161B46"/>
<path d="M16.5349 48.2815C16.579 48.2654 16.6263 48.2598 16.673 48.2652C16.7197 48.2706 16.7645 48.2869 16.8037 48.3128C16.8429 48.3387 16.8756 48.3734 16.8989 48.4142C16.9223 48.455 16.9358 48.5007 16.9383 48.5476C16.9387 48.5972 16.9261 48.6461 16.9017 48.6893C16.8773 48.7325 16.842 48.7685 16.7993 48.7938C16.7566 48.8191 16.708 48.8327 16.6584 48.8333C16.6088 48.8338 16.5599 48.8214 16.5167 48.7972C16.4734 48.7729 16.4372 48.7377 16.4118 48.6951C16.3864 48.6525 16.3726 48.604 16.3719 48.5544C16.3711 48.5048 16.3834 48.4559 16.4075 48.4125C16.4315 48.3691 16.4666 48.3329 16.5091 48.3073" fill="#161B46"/>
<path d="M20.9548 36.6394C20.9979 36.6178 21.046 36.6075 21.0942 36.6097C21.1425 36.6118 21.1894 36.6262 21.2305 36.6516C21.2716 36.677 21.3055 36.7124 21.3291 36.7546C21.3526 36.7968 21.3649 36.8443 21.3649 36.8926C21.3649 36.9409 21.3526 36.9884 21.3291 37.0306C21.3055 37.0728 21.2716 37.1082 21.2305 37.1336C21.1894 37.159 21.1425 37.1734 21.0942 37.1756C21.046 37.1777 20.9979 37.1674 20.9548 37.1458C20.9156 37.1202 20.883 37.0859 20.8594 37.0455C20.8359 37.005 20.8221 36.9597 20.8192 36.913C20.8163 36.8663 20.8243 36.8196 20.8426 36.7766C20.861 36.7336 20.889 36.6954 20.9247 36.6652" fill="#161B46"/>
<path d="M13.904 33.2063C13.9472 33.1847 13.9952 33.1744 14.0434 33.1765C14.0917 33.1787 14.1386 33.1931 14.1797 33.2185C14.2208 33.2439 14.2547 33.2793 14.2783 33.3215C14.3018 33.3637 14.3142 33.4112 14.3142 33.4595C14.3142 33.5078 14.3018 33.5553 14.2783 33.5975C14.2547 33.6397 14.2208 33.6751 14.1797 33.7005C14.1386 33.7259 14.0917 33.7403 14.0434 33.7425C13.9952 33.7446 13.9472 33.7343 13.904 33.7127C13.8648 33.6871 13.8322 33.6528 13.8086 33.6124C13.7851 33.5719 13.7713 33.5266 13.7684 33.4799C13.7655 33.4332 13.7735 33.3865 13.7918 33.3435C13.8101 33.3005 13.8383 33.2623 13.8739 33.2321" fill="#161B46"/>
<path d="M28.3619 30.5713C28.4072 30.6946 28.4445 30.8208 28.4735 30.9489C28.5615 31.3081 28.6288 31.6721 28.6752 32.0389C28.832 33.3503 28.832 34.6757 28.6752 35.987V36.0943L28.5937 36.0214C27.6536 35.1886 26.4715 34.6788 25.2206 34.5666L25.2893 34.4722C25.3417 34.644 25.3388 34.828 25.2811 34.9982C25.2233 35.1683 25.1136 35.3161 24.9675 35.4206C24.6826 35.6272 24.3583 35.7733 24.0148 35.8497C23.3031 36.0776 22.6746 36.5105 22.2081 37.0942C21.74 37.6089 21.3098 38.1568 20.9206 38.7335C20.2445 39.7086 19.6829 40.7583 19.247 41.862C18.9551 42.606 18.7185 43.3705 18.5389 44.1493C18.4745 44.4239 18.4316 44.6428 18.4059 44.7887C18.3965 44.8651 18.3778 44.94 18.3501 45.0118C18.3527 44.9355 18.3613 44.8594 18.3758 44.7844C18.3758 44.6342 18.4316 44.4153 18.4874 44.1407C18.6469 43.3526 18.8708 42.579 19.1569 41.8276C19.585 40.7108 20.1424 39.6479 20.8177 38.6606C21.2148 38.0774 21.6536 37.5238 22.1308 37.0041C22.6114 36.401 23.2593 35.9532 23.9933 35.7167C24.3186 35.652 24.627 35.5205 24.8988 35.3305C25.0212 35.2426 25.1142 35.1197 25.1655 34.978C25.2168 34.8363 25.2241 34.6824 25.1863 34.5365L25.1434 34.4378H25.2507C26.5266 34.557 27.7303 35.0836 28.6838 35.9398L28.5894 35.9785C28.7537 34.6756 28.7695 33.3583 28.6366 32.0518C28.6001 31.6858 28.5442 31.3219 28.4692 30.9618C28.4692 30.8331 28.422 30.7429 28.4091 30.6743C28.3886 30.6424 28.3727 30.6077 28.3619 30.5713Z" fill="#161B46"/>
<path d="M21.6287 41.7891L21.8647 41.7247L22.547 41.5703C23.1435 41.4501 23.9932 41.2441 25.0618 41.051C25.6482 40.9375 26.2476 40.9058 26.8427 40.9566C27.1769 40.9867 27.5049 41.0648 27.8169 41.1883C28.1602 41.3113 28.4591 41.5339 28.6751 41.8277C28.8637 42.1625 28.929 42.5527 28.8597 42.9306C28.8155 43.3187 28.7128 43.6978 28.555 44.055C28.4005 44.4155 28.2804 44.7802 28.1559 45.1707C28.0315 45.5613 27.8727 45.9346 27.7268 46.3208C27.6495 46.5268 27.5766 46.75 27.5208 46.9216L27.4006 46.8658C27.4833 46.7029 27.5186 46.52 27.5027 46.338C27.4868 46.156 27.4202 45.982 27.3105 45.8359C27.1332 45.515 26.84 45.274 26.4908 45.1622C25.7956 44.9519 25.0704 45.1622 24.4052 45.2437L22.5041 45.5613L21.6458 45.7029C21.5021 45.7376 21.3507 45.7225 21.2167 45.66C21.1589 45.614 21.1139 45.554 21.086 45.4855C21.0582 45.4171 21.0485 45.3427 21.0579 45.2694C21.0803 44.4622 21.1707 43.6583 21.3283 42.8663C21.3841 42.5873 21.4356 42.3727 21.4742 42.2268C21.4904 42.1524 21.5119 42.0793 21.5385 42.008C21.5385 42.008 21.5386 42.0852 21.4999 42.2311C21.4613 42.377 21.427 42.6131 21.3798 42.8748C21.2433 43.6662 21.1659 44.4666 21.148 45.2694C21.142 45.3272 21.1502 45.3855 21.1719 45.4394C21.1936 45.4932 21.2281 45.541 21.2725 45.5784C21.3875 45.6295 21.5171 45.6372 21.6373 45.5999L22.4955 45.454L24.3966 45.1278C25.0575 45.0291 25.787 44.8188 26.5423 45.0377C26.9212 45.1597 27.24 45.4203 27.435 45.7672C27.5434 45.94 27.6163 46.1325 27.6495 46.3337C27.6783 46.5466 27.6262 46.7625 27.5036 46.9388L27.2804 47.2521L27.3877 46.8787C27.4435 46.677 27.5208 46.4496 27.598 46.265C27.7439 45.8745 27.8898 45.4969 28.0271 45.1192C28.1645 44.7416 28.2803 44.3511 28.4348 43.9949C28.5885 43.6503 28.6884 43.2841 28.7309 42.9092C28.799 42.5606 28.7428 42.1992 28.5722 41.8878C28.3709 41.6144 28.0932 41.4068 27.774 41.2913C27.4715 41.1701 27.1538 41.0907 26.8299 41.0553C26.2454 41.0038 25.6566 41.0298 25.079 41.1325C24.0147 41.3171 23.1521 41.5059 22.5556 41.6132L21.869 41.7419C21.7145 41.7891 21.6287 41.7891 21.6287 41.7891Z" fill="#161B46"/>
<path d="M18.9853 51.8572C18.9763 51.7716 18.9763 51.6853 18.9853 51.5997C18.9806 51.3596 18.9993 51.1195 19.0411 50.883C19.1853 50.1107 19.4336 49.3614 19.7792 48.6558C20.1697 47.8233 20.5259 47.0808 20.7233 46.5101C20.9207 45.9393 20.9979 45.5831 21.0237 45.5874C21.0232 45.6758 21.0116 45.7637 20.9893 45.8492C20.949 46.0838 20.8902 46.3148 20.8134 46.5401C20.5552 47.2743 20.2499 47.991 19.8993 48.6858C19.5494 49.3781 19.2843 50.1101 19.1097 50.8659C18.9981 51.4838 19.0153 51.8572 18.9853 51.8572Z" fill="#161B46"/>
<path d="M14.6765 53.53C14.6765 53.53 19.1997 51.1526 19.3542 51.586C19.5086 52.0194 19.5945 52.3027 19.5945 52.3027C19.5945 52.3027 22.6886 51.7834 23.122 52.101C23.122 52.101 23.7185 51.071 24.1948 51.1097C24.8622 51.0734 25.5254 50.9815 26.1775 50.835L29.4218 41.8917L33.0008 32.3477C33.0008 32.3477 35.3396 33.3218 35.4212 37.4973C35.5027 41.6729 35.1036 50.6247 34.6659 52.6074C34.2281 54.59 32.4858 57.9244 31.2327 58.4008C29.9797 58.8771 24.6884 59.1904 24.6884 59.1904C24.6884 59.1904 24.345 59.8427 22.916 60.4392C21.487 61.0357 19.7404 61.2545 19.0023 60.7396C18.2641 60.2246 14.6765 53.53 14.6765 53.53Z" fill="#6878D8"/>
<path d="M24.4996 59.1821C24.4029 59.116 24.3125 59.0413 24.2292 58.959C24.0575 58.8045 23.8001 58.577 23.5383 58.2852C22.0549 56.7619 20.8235 55.0119 19.8906 53.1012C19.7104 52.7364 19.573 52.436 19.4915 52.2429C19.4406 52.1356 19.4003 52.0234 19.3713 51.9082C19.4361 52.0076 19.4921 52.1124 19.5387 52.2215C19.6374 52.4232 19.7833 52.715 19.9678 53.0798C20.9473 54.949 22.1694 56.6805 23.6027 58.2294C23.8773 58.5298 24.1005 58.7659 24.2635 58.9289C24.35 59.0058 24.429 59.0905 24.4996 59.1821Z" fill="#161B46"/>
<path d="M25.388 55.4449C24.9249 54.8991 24.4949 54.3258 24.1006 53.7284C23.6678 53.1555 23.2708 52.5564 22.9119 51.9346C23.8145 53.0512 24.6458 54.2237 25.4009 55.4449H25.388Z" fill="#161B46"/>
<path d="M28.9498 54.6635C28.8217 54.4588 28.7057 54.2467 28.6022 54.0284C28.3255 53.5175 28.0084 53.0296 27.6538 52.5693C27.2986 52.1107 26.9083 51.6802 26.4866 51.2819C26.3011 51.1325 26.1249 50.972 25.9587 50.8013C26.174 50.9178 26.3731 51.0621 26.551 51.2304C27.4512 51.9952 28.182 52.9394 28.6967 54.0027C28.8094 54.211 28.8945 54.4332 28.9498 54.6635Z" fill="#161B46"/>
<path d="M34.7991 34.6095C34.7627 34.696 34.7166 34.7781 34.6618 34.8541C34.5673 35.0086 34.4214 35.2232 34.2326 35.485C33.7405 36.162 33.2059 36.807 32.6319 37.4161C32.0563 38.0263 31.4429 38.5996 30.7952 39.1327C30.542 39.3344 30.336 39.4889 30.1901 39.5919C30.1181 39.6517 30.0388 39.7021 29.9541 39.742C29.9541 39.742 30.2502 39.476 30.7308 39.0597C31.2115 38.6434 31.8638 38.0427 32.5375 37.3432C33.2113 36.6437 33.7649 35.9527 34.1554 35.4464C34.5459 34.94 34.7562 34.601 34.7991 34.6095Z" fill="#161B46"/>
<path d="M3.04281 32.1426C3.04281 32.1426 -0.390308 33.1811 0.0388318 39.7298C0.467972 46.2784 -0.0856219 51.4281 0.223359 52.8872C0.53234 54.3463 2.36907 56.5049 4.76796 56.6293C7.16686 56.7538 10.2095 53.4279 10.2095 53.4279L7.96504 44.3859C7.96504 44.3859 6.61326 46.1926 5.72494 46.772L3.04281 32.1426Z" fill="#6878D8"/>
<path d="M8.3509 45.6262C8.49376 45.6158 8.63718 45.6158 8.78004 45.6262C9.0504 45.6262 9.44521 45.6262 9.93872 45.579C11.2553 45.5026 12.5639 45.3233 13.8525 45.0425L13.8053 45.1069C13.7689 44.5659 13.703 44.0272 13.6079 43.4933C13.4963 43.0299 13.492 42.4505 13.0371 42.3089C12.8244 42.2435 12.6031 42.2102 12.3805 42.2102L11.7239 42.1759C10.8657 42.1501 10.0932 42.1759 9.4452 42.2059C8.7972 42.236 8.27365 42.296 7.91317 42.3347L7.48403 42.3776C7.43551 42.3823 7.38665 42.3823 7.33813 42.3776C7.38338 42.3592 7.43111 42.3476 7.47976 42.3432C7.57417 42.3432 7.71149 42.3003 7.9089 42.2746C8.26938 42.2188 8.7929 42.1501 9.44091 42.1029C10.2019 42.0452 10.9653 42.0266 11.7282 42.0471L12.3934 42.0729C12.6293 42.0717 12.864 42.1079 13.0886 42.1802C13.2105 42.224 13.3195 42.2976 13.4057 42.3943C13.4919 42.4909 13.5525 42.6077 13.5821 42.7338C13.6508 42.9741 13.6937 43.2144 13.7409 43.459C13.8406 43.9994 13.9065 44.5455 13.9383 45.094V45.1498H13.8825C12.5865 45.4312 11.2683 45.5977 9.94302 45.6476C9.44522 45.6476 9.0504 45.6476 8.78004 45.6476H8.46678L8.3509 45.6262Z" fill="#161B46"/>
<path d="M10.2864 53.5519C10.8396 53.6844 11.4095 53.7336 11.9772 53.6978C12.5887 53.6636 13.1805 53.4698 13.6937 53.1357C13.8364 53.0337 13.9557 52.9025 14.0438 52.7508C14.1318 52.5991 14.1866 52.4304 14.2044 52.2559C14.222 51.8687 14.2019 51.4806 14.1443 51.0973C13.9899 49.518 13.8482 48.0933 13.7409 46.9775C13.698 46.4926 13.6637 46.0763 13.6337 45.7287C13.6231 45.5758 13.6231 45.4224 13.6337 45.2695C13.6685 45.4193 13.6929 45.5713 13.7066 45.7244C13.7495 46.0677 13.7967 46.484 13.8568 46.9689C13.977 48.0761 14.1272 49.5051 14.286 51.0844C14.3451 51.4777 14.3638 51.876 14.3418 52.2731C14.3217 52.4641 14.2612 52.6486 14.1642 52.8143C14.0673 52.9801 13.9362 53.1233 13.7796 53.2344C13.5013 53.4335 13.1884 53.579 12.8569 53.6635C12.5766 53.7407 12.2889 53.7882 11.9986 53.8051C11.5784 53.8343 11.1561 53.8011 10.7456 53.7064C10.6338 53.6808 10.5235 53.6493 10.4151 53.612L10.2864 53.5519Z" fill="#161B46"/>
<path d="M5.32983 56.4745C5.32983 56.4745 5.53152 56.4488 5.88771 56.3715C6.3875 56.2568 6.86466 56.0596 7.29957 55.7879C7.94594 55.3862 8.4745 54.8206 8.8316 54.1486C9.26857 53.3254 9.43523 52.3854 9.30794 51.4622C9.2381 50.9856 9.13778 50.514 9.00757 50.0503C8.89687 49.6156 8.69336 49.2101 8.41106 48.8616C8.3426 48.7624 8.31073 48.6426 8.32093 48.5226C8.33456 48.4167 8.35609 48.312 8.38531 48.2093C8.43069 48.0187 8.46223 47.8251 8.47971 47.6299C8.51045 47.2789 8.49459 46.9254 8.43251 46.5786C8.34321 46.0732 8.16136 45.5888 7.89608 45.1495C7.70297 44.8405 7.56994 44.6903 7.57852 44.6818C7.58711 44.6732 7.61714 44.7161 7.68151 44.7847C7.77616 44.8908 7.86225 45.0041 7.93899 45.1238C8.42838 45.8669 8.65778 46.7512 8.59129 47.6385C8.57628 47.8396 8.54472 48.0391 8.49689 48.235C8.44968 48.441 8.3896 48.6341 8.49689 48.7972C8.78949 49.1518 9.00047 49.5664 9.11485 50.0117C9.24837 50.4824 9.35157 50.9611 9.42382 51.445C9.55642 52.3962 9.38044 53.3649 8.92173 54.2087C8.55013 54.894 8.00189 55.4674 7.33391 55.8694C6.88612 56.1366 6.39532 56.3239 5.88342 56.423C5.7414 56.4479 5.59815 56.4651 5.45428 56.4745H5.32983Z" fill="#161B46"/>
<path d="M7.14077 48.2516C7.02876 48.3279 6.91273 48.3981 6.79317 48.4619C6.57002 48.5992 6.26105 48.8095 5.86624 49.0712C5.41385 49.3936 4.90179 49.6226 4.35995 49.745C4.01817 49.7977 3.66901 49.7759 3.33643 49.6811C3.00384 49.5863 2.69572 49.4207 2.43312 49.1957C1.90183 48.7589 1.50588 48.1799 1.29159 47.5263C1.10997 46.9971 1.05702 46.4322 1.13711 45.8784C1.19123 45.5062 1.32916 45.1511 1.5405 44.8399C1.59991 44.7575 1.66594 44.68 1.73792 44.6082C1.78512 44.561 1.81516 44.5352 1.81945 44.5395C1.49762 44.9242 1.2935 45.3936 1.23153 45.8913C1.16834 46.4299 1.22849 46.9758 1.40747 47.4877C1.62051 48.115 2.00568 48.6696 2.51895 49.0884C2.76636 49.3025 3.05675 49.4612 3.37061 49.5537C3.68446 49.6463 4.0145 49.6705 4.3385 49.6248C4.86788 49.5091 5.37033 49.2935 5.81902 48.9897C6.21382 48.7408 6.53569 48.5391 6.76742 48.4189C6.88329 48.3589 6.97771 48.3117 7.04208 48.2859L7.14077 48.2516Z" fill="#161B46"/>
<path d="M32.6748 56.9593C32.5768 57.1357 32.4664 57.305 32.3444 57.4657C32.1993 57.6642 32.029 57.8431 31.838 57.9978C31.5699 58.1996 31.2715 58.3575 30.9539 58.4656C30.5555 58.5947 30.1438 58.6782 29.7266 58.7145C29.2975 58.7746 28.7825 58.8303 28.2546 58.8861C27.199 58.9977 26.0016 59.105 24.6756 59.2123H24.7056C24.3181 59.5456 23.9096 59.8538 23.4826 60.1349C23.031 60.4498 22.5288 60.6849 21.9978 60.8301C21.4399 60.9946 20.8627 61.0841 20.2812 61.0962C19.9778 61.1027 19.6753 61.0622 19.3843 60.976C19.2326 60.929 19.0882 60.8611 18.9552 60.7743C18.8313 60.6755 18.7203 60.5617 18.6247 60.4353C17.8729 59.397 17.1808 58.3167 16.552 57.1996C15.8825 56.0581 15.2131 54.8694 14.5393 53.6506L14.5093 53.5862L14.5737 53.5562L14.8526 53.4189C15.6594 52.9897 16.4104 52.5134 17.1914 52.0928C17.5747 51.8701 17.9841 51.6957 18.4102 51.5736C18.636 51.5188 18.8738 51.5431 19.0839 51.6422C19.1953 51.6875 19.2933 51.7606 19.3684 51.8545C19.4435 51.9484 19.4933 52.06 19.5131 52.1787L19.4272 52.1229C20.5491 51.7747 21.7379 51.6997 22.8947 51.904L22.8303 51.9341C22.9906 51.6842 23.1985 51.4685 23.4422 51.2991C23.686 51.1297 23.9607 51.0101 24.2508 50.947C24.786 50.8149 25.3345 50.7444 25.8858 50.7368L25.8343 50.7711C27.2633 47.6427 28.2933 44.9734 28.9842 43.0938L29.7609 40.9052C29.8425 40.6606 29.9111 40.476 29.9626 40.3258C30.0141 40.1756 30.0356 40.1284 30.0356 40.1284C30.0356 40.1284 30.0356 40.1971 29.9798 40.3301L29.7953 40.9137C29.6279 41.4244 29.3661 42.1711 29.0443 43.1152C28.3748 45.0034 27.3577 47.6813 25.9416 50.8397V50.8741H25.9073C25.3646 50.8833 24.8248 50.9539 24.298 51.0844C23.7442 51.2065 23.2613 51.5428 22.9548 52.0199L22.9333 52.0542H22.8904C21.7534 51.8541 20.5851 51.9292 19.483 52.2731L19.4101 52.2988V52.2173C19.3948 52.1228 19.3556 52.0338 19.2963 51.9587C19.2369 51.8836 19.1594 51.8249 19.071 51.7882C18.8884 51.6992 18.68 51.6779 18.4831 51.7281C18.0703 51.8493 17.674 52.0208 17.303 52.2388C16.5262 52.6679 15.7753 53.1485 14.9599 53.5648L14.6766 53.7021L14.7067 53.612C15.3761 54.8308 16.0456 56.0195 16.7108 57.1567C17.3344 58.2699 18.0222 59.346 18.7707 60.3795C18.8576 60.4985 18.9601 60.6053 19.0753 60.6971C19.1976 60.7779 19.3305 60.8414 19.4702 60.8859C19.7488 60.9673 20.0382 61.0064 20.3284 61.0018C20.898 60.9894 21.4635 60.9028 22.0107 60.7443C22.5299 60.6028 23.0217 60.3751 23.4655 60.0706C23.8895 59.7923 24.2951 59.4869 24.6799 59.1565C26.0059 59.0578 27.2033 58.9548 28.2589 58.8518C28.7868 58.8003 29.2803 58.7488 29.7309 58.693C30.1432 58.6596 30.5505 58.5804 30.9454 58.457C31.2522 58.3599 31.5419 58.2151 31.8036 58.0278C31.9918 57.8763 32.1617 57.7035 32.31 57.5129C32.4049 57.3959 32.4937 57.2742 32.5761 57.1481L32.6748 56.9593Z" fill="#161B46"/>
<g opacity="0.3">
<path opacity="0.3" d="M5.45026 49.1623C5.11923 49.404 4.74906 49.5869 4.35596 49.703C3.89579 49.7802 3.42307 49.6969 3.01704 49.467C2.64455 49.2438 2.30993 48.9628 2.02573 48.6344C1.71675 48.3083 1.56225 47.8191 1.2876 47.4629C1.31026 48.0711 1.38059 48.6766 1.4979 49.2739C1.58784 49.8624 1.89384 50.3964 2.35618 50.7716C2.59367 50.9184 2.86008 51.0121 3.13719 51.0462C3.90513 51.1539 4.68585 50.975 5.33022 50.5436C5.97459 50.1122 6.43746 49.4585 6.6304 48.7074C6.22406 48.823 5.82906 48.9752 5.45026 49.1623Z" fill="#2D3259"/>
</g>
<g opacity="0.3">
<path opacity="0.3" d="M9.47952 49.0027C9.33584 48.7321 9.22904 48.4434 9.16196 48.1444C9.05038 47.5265 9.30358 46.857 9.11047 46.2691C9.03474 46.043 8.90024 45.8412 8.72075 45.6844C8.54126 45.5275 8.32325 45.4212 8.08911 45.3765C8.49761 46.433 8.59005 47.5856 8.35518 48.6937C8.69775 48.9885 8.93314 49.3884 9.02463 49.8309C9.28959 50.5512 9.40565 51.3177 9.36582 52.0841C9.32599 52.8505 9.1311 53.6008 8.79291 54.2897L8.69848 54.4656C9.17409 54.1362 9.56044 53.6939 9.82283 53.1782C10.4794 51.8865 10.0889 50.3159 9.47952 49.0027Z" fill="#2D3259"/>
</g>
<g opacity="0.3">
<path opacity="0.3" d="M18.8823 42.6479C18.745 43.2359 21.0623 39.3221 22.9377 38.3007C23.929 37.7643 25.152 37.597 25.9417 36.7816C26.0153 36.6934 26.1005 36.6154 26.1949 36.5498C26.3365 36.4874 26.4933 36.4679 26.6459 36.4938C26.7985 36.5198 26.9401 36.59 27.0531 36.6958C27.277 36.9209 27.4808 37.165 27.6625 37.4253C28.0307 37.8554 28.527 38.1563 29.0787 38.2836C29.1171 37.6879 29.0621 37.0899 28.9156 36.5112C28.8939 36.3897 28.844 36.2751 28.7697 36.1765C28.6967 36.0821 28.568 36.0563 28.4864 35.9705C28.0107 35.3691 27.3526 34.9384 26.6111 34.7432C26.1464 34.6142 25.6683 34.5394 25.1864 34.52C25.3409 34.7861 25.1864 35.0607 24.9933 35.2925C24.8375 35.4425 24.6452 35.549 24.4354 35.6015C23.4167 35.9401 22.5061 36.5428 21.7962 37.3481C21.4464 37.7514 21.1293 38.1819 20.8478 38.6355C20.1182 39.8585 19.3973 40.9228 19.0068 42.2574" fill="#2D3259"/>
</g>
<g opacity="0.3">
<path opacity="0.3" d="M10.3921 35.0741C10.3574 35.0642 10.3772 35.0691 10.3921 35.0741V35.0741Z" fill="#2D3259"/>
</g>
<g opacity="0.3">
<path opacity="0.3" d="M14.8267 32.9711C14.7152 32.7611 14.5392 32.5926 14.3245 32.4905C13.8954 32.3102 13.4019 32.6192 13.0371 32.9196C12.1194 33.5833 11.2411 34.2997 10.4065 35.0653C10.4007 35.5168 10.4468 35.9675 10.5438 36.4085L13.2345 34.2929C13.5069 34.0519 13.8172 33.8577 14.1529 33.7178C14.3218 33.6504 14.5045 33.6249 14.6854 33.6436C14.8662 33.6623 15.0399 33.7246 15.1914 33.8251C15.1193 33.5217 14.996 33.2329 14.8267 32.9711Z" fill="#2D3259"/>
</g>
<g opacity="0.3">
<path opacity="0.3" d="M17.5047 44.6426C17.4226 45.1964 17.3939 45.7569 17.4189 46.3162C17.5949 47.9126 17.7107 50.0626 18.0884 51.6461C18.6236 49.3075 18.4197 46.8604 17.5047 44.6426Z" fill="#2D3259"/>
</g>
<g opacity="0.3">
<path opacity="0.3" d="M18.0625 51.7591L18.0882 51.6519C18.0774 51.687 18.0688 51.7229 18.0625 51.7591Z" fill="#2D3259"/>
</g>
<g opacity="0.3">
<path opacity="0.3" d="M25.8211 50.6943C26.8425 50.6943 27.7308 51.3509 28.5418 51.9818C28.7525 52.1277 28.9442 52.2992 29.1126 52.4924C29.3335 52.8043 29.4803 53.1624 29.5417 53.5395C29.5863 53.6541 29.6006 53.7783 29.5834 53.9001C29.5661 54.0218 29.5178 54.1371 29.443 54.2347C29.3511 54.3064 29.2378 54.3454 29.1212 54.3454C29.0046 54.3454 28.8913 54.3064 28.7993 54.2347C28.6211 54.0889 28.475 53.9077 28.3702 53.7026C27.8541 52.9028 27.227 52.1803 26.5077 51.5569C26.2079 51.3377 25.9602 51.0548 25.7825 50.7287" fill="#2D3259"/>
</g>
<path d="M27.5851 29.9321C27.6207 29.9926 27.6482 30.0575 27.6666 30.1252C27.7213 30.3057 27.7658 30.4891 27.7996 30.6745C27.8998 31.29 27.9329 31.9144 27.8983 32.537C27.8683 33.2623 27.8211 33.9145 27.7567 34.3909C27.7369 34.6479 27.6805 34.9008 27.5893 35.1419C27.5679 35.1419 27.6237 34.8501 27.6623 34.378C27.7009 33.906 27.731 33.2494 27.7653 32.5284C27.7993 31.9142 27.7792 31.2981 27.7052 30.6874C27.6451 30.2025 27.5636 29.9407 27.5851 29.9321Z" fill="white"/>
<path d="M21.4956 25.937C21.6331 25.9816 21.7666 26.0376 21.8947 26.1044L22.9547 26.5979C23.4891 26.8332 24.0042 27.1102 24.4953 27.4261C25.0921 27.8394 25.557 28.416 25.8342 29.0869C26.11 29.7532 26.2472 30.4686 26.2376 31.1897C26.2272 31.7674 26.1582 32.3425 26.0316 32.9062C25.9243 33.3912 25.8128 33.7645 25.7312 34.0392C25.6979 34.187 25.649 34.3308 25.5853 34.4683C25.6055 34.323 25.637 34.1795 25.6797 34.0392C25.7484 33.7731 25.8428 33.3826 25.9372 32.8977C26.2375 31.6488 26.1598 30.3388 25.7141 29.1341C25.4453 28.4858 24.9991 27.9265 24.4266 27.5205C23.9452 27.1997 23.4418 26.9129 22.9204 26.6623L21.8733 26.1301C21.7419 26.077 21.6155 26.0124 21.4956 25.937Z" fill="white"/>
<path d="M23.7144 35.6607C23.7729 35.1305 23.8646 34.6045 23.989 34.0858C24.0676 33.5561 24.178 33.0316 24.3195 32.5151C24.3127 33.0529 24.2465 33.5883 24.122 34.1115C24.0421 34.6411 23.9054 35.1604 23.7144 35.6607Z" fill="white"/>
<path d="M11.8015 33.5159C11.7122 33.3011 11.6432 33.0784 11.5955 32.8508C11.4882 32.4216 11.3552 31.8509 11.2308 31.2072C11.1063 30.5634 11.0076 29.9755 10.9475 29.5507C10.9048 29.3215 10.8847 29.0886 10.8875 28.8555C10.9585 29.0766 11.0101 29.3035 11.0419 29.5335C11.1449 30.0614 11.2479 30.5978 11.3595 31.1814C11.4711 31.765 11.5827 32.3015 11.6899 32.8293C11.7515 33.0535 11.7889 33.2837 11.8015 33.5159Z" fill="white"/>
<path d="M14.4449 39.961C14.4006 39.9807 14.3546 39.9965 14.3075 40.0082C14.2131 40.0339 14.0758 40.0768 13.8784 40.1155C13.37 40.223 12.8529 40.2847 12.3335 40.3C11.6769 40.3343 10.8916 40.3 10.0247 40.2657C9.08954 40.1953 8.14977 40.214 7.21813 40.3215L2.11994 40.845L0.575046 40.9995L0.145906 41.0338C0.0973868 41.0386 0.0485193 41.0386 0 41.0338C0.0455014 41.0162 0.0931071 41.0047 0.14161 40.9995L0.570751 40.9394L2.11137 40.742C3.3988 40.5875 5.21406 40.3815 7.20527 40.1798C8.14421 40.0721 9.09151 40.0577 10.0333 40.1369C10.8916 40.1798 11.6769 40.2185 12.3292 40.197C12.8456 40.1895 13.3607 40.1421 13.8698 40.0554C14.2474 39.9996 14.4406 39.9481 14.4449 39.961Z" fill="white"/>
<path d="M16.157 37.7423C16.157 37.781 15.7279 37.7423 15.2172 37.8325C14.7065 37.9226 14.316 38.0728 14.2988 38.0384C14.5722 37.8655 14.878 37.75 15.1974 37.6991C15.5169 37.6482 15.8434 37.6629 16.157 37.7423Z" fill="white"/>
<path d="M15.6291 35.1286C15.6291 35.1715 15.2 35.0814 14.6679 35.1758C14.3571 35.2544 14.0506 35.3489 13.7495 35.4591C13.9934 35.2216 14.3085 35.0708 14.6464 35.0299C14.9759 34.9534 15.3214 34.9881 15.6291 35.1286Z" fill="white"/>
<path d="M17.0626 40.3302C17.0626 40.3731 16.6035 40.2916 16.0499 40.3302C15.4963 40.3688 15.05 40.4632 15.0371 40.4289C15.3457 40.2645 15.6918 40.1832 16.0413 40.1929C16.3878 40.155 16.7384 40.2021 17.0626 40.3302Z" fill="white"/>
<path d="M17.2644 43.7506C16.9773 43.764 16.6896 43.7467 16.4061 43.6991C16.1105 43.6922 15.8191 43.6281 15.5479 43.5102C15.8351 43.4996 16.1227 43.5183 16.4061 43.566C16.7014 43.572 16.9928 43.6346 17.2644 43.7506Z" fill="white"/>
<path d="M17.4964 47.0807C17.1728 47.1384 16.8415 47.1384 16.5179 47.0807C16.1821 47.078 15.8548 46.9749 15.5781 46.7846C15.5781 46.7632 16.0073 46.8919 16.5351 46.9477C16.8589 46.9622 17.1807 47.0068 17.4964 47.0807Z" fill="white"/>
<path d="M17.7107 50.059C17.4739 50.2966 17.189 50.4807 16.8752 50.5992C16.5614 50.7176 16.2258 50.7675 15.8911 50.7456C15.8911 50.7155 16.3203 50.6726 16.8266 50.4752C17.333 50.2778 17.6892 50.0375 17.7107 50.059Z" fill="white"/>
<path d="M21.9247 36.8797C21.5803 36.4166 21.4267 35.8391 21.4956 35.2661C21.5733 35.5343 21.6364 35.8065 21.6844 36.0815C21.7791 36.343 21.8593 36.6094 21.9247 36.8797Z" fill="white"/>
<path d="M20.7274 38.6091C20.3713 38.4544 20.0853 38.173 19.9249 37.8195C19.7213 37.4872 19.6508 37.0901 19.7275 36.708C19.7828 37.0713 19.8882 37.4251 20.0408 37.7594C20.231 38.0718 20.4619 38.3576 20.7274 38.6091Z" fill="white"/>
<path d="M19.0196 40.9995C18.6894 40.7447 18.4368 40.4029 18.29 40.0125C18.1033 39.6398 18.0273 39.2213 18.0712 38.8066C18.1584 39.199 18.2731 39.5848 18.4145 39.961C18.5937 40.3198 18.7958 40.6667 19.0196 40.9995Z" fill="white"/>
<path d="M18.3417 43.8705C18.1251 43.8319 17.9249 43.7296 17.7667 43.5767C17.6085 43.4239 17.4994 43.2273 17.4534 43.0122C17.4877 43.0122 17.6122 43.2568 17.8568 43.4928C18.1014 43.7289 18.3546 43.8319 18.3417 43.8705Z" fill="white"/>
<path d="M13.4748 36.3439C13.4748 36.3439 13.4276 36.3439 13.3375 36.3439H12.9512C12.6165 36.3439 12.1316 36.3224 11.5351 36.3224C10.3378 36.3224 8.6813 36.3868 6.86175 36.5542C5.0422 36.7215 3.39428 36.9146 2.20127 37.0434L0.785112 37.185L0.403171 37.2193H0.265869L0.398902 37.1893L0.780816 37.1335L2.18841 36.949C3.37713 36.7988 5.02502 36.5842 6.84886 36.4211C8.40625 36.2712 9.97058 36.2053 11.5351 36.2237C12.1359 36.2237 12.6208 36.2666 12.9555 36.2924L13.3418 36.3267L13.4748 36.3439Z" fill="white"/>
<path d="M9.50968 32.4342C9.50968 32.4728 7.76736 32.6788 5.61308 32.8934C3.4588 33.108 1.70791 33.2539 1.70362 33.2195C1.69933 33.1852 3.42019 32.9749 5.60022 32.7604C7.78025 32.5458 9.50539 32.3999 9.50968 32.4342Z" fill="white"/>
<path d="M2.64793 49.0845C2.42874 48.8807 2.29913 48.5983 2.28744 48.2992C2.22865 48.0028 2.28711 47.6951 2.45052 47.4409C2.42089 47.7174 2.41085 47.9956 2.42048 48.2735C2.47545 48.5492 2.5515 48.8204 2.64793 49.0845Z" fill="white"/>
<path d="M5.44984 48.9604C5.40693 48.9604 5.41551 48.4883 5.23527 47.9476C5.05503 47.4069 4.78038 47.0336 4.80613 47.0078C5.05873 47.2601 5.2483 47.5684 5.3594 47.9076C5.4705 48.2469 5.5 48.6076 5.44555 48.9604H5.44984Z" fill="white"/>
<path d="M7.76307 47.6305C7.67664 47.2253 7.56629 46.8255 7.43263 46.4332C7.17085 45.8067 6.82754 45.3132 6.79321 45.4591C6.79321 45.4591 6.79323 45.3904 6.88764 45.4119C6.98205 45.4333 7.03354 45.5192 7.10221 45.6007C7.29089 45.8376 7.44413 46.1007 7.55709 46.3817C7.73631 46.772 7.80744 47.2033 7.76307 47.6305Z" fill="white"/>
<path d="M8.80611 49.9175C8.79231 49.9513 8.77656 49.9842 8.75891 50.0162C8.71505 50.1069 8.66485 50.1943 8.6087 50.278C8.40677 50.593 8.166 50.8813 7.89204 51.1362C6.98498 52.0153 5.77141 52.5069 4.50827 52.5069C3.24512 52.5069 2.03158 52.0153 1.12452 51.1362C0.849541 50.8823 0.608626 50.5938 0.407837 50.278C0.35046 50.1928 0.298854 50.1039 0.253353 50.0119C0.235284 49.9823 0.220885 49.9506 0.210449 49.9175C0.492529 50.3376 0.820702 50.7248 1.18887 51.0719C2.09036 51.9114 3.27643 52.3781 4.50827 52.3781C5.7401 52.3781 6.9262 51.9114 7.82768 51.0719C8.19486 50.7238 8.52294 50.3367 8.80611 49.9175Z" fill="white"/>
<path d="M13.4838 43.6522C13.223 43.8057 12.9279 43.8913 12.6255 43.9011C12.0719 43.9698 11.308 44.0384 10.4798 44.0856C9.65154 44.1328 8.86192 44.1457 8.30404 44.1457C8.0251 44.1457 7.80193 44.1457 7.64315 44.1457C7.56226 44.1477 7.48145 44.1391 7.40283 44.12C7.70174 44.0822 8.00276 44.0636 8.30404 44.0642C8.85763 44.0642 9.62579 44.017 10.4712 43.9698C11.3166 43.9226 12.0848 43.8668 12.6169 43.8239C12.8337 43.8105 13.0491 43.779 13.2606 43.7294C13.3979 43.6779 13.4795 43.6436 13.4838 43.6522Z" fill="white"/>
<path d="M13.5609 48.1064C13.3382 48.2004 13.1047 48.2667 12.8657 48.3038C12.2995 48.4104 11.7253 48.4693 11.1492 48.4798C10.4711 48.4798 9.86177 48.4798 9.41117 48.4369C9.24001 48.4185 9.06736 48.4185 8.8962 48.4369C8.77604 48.4369 8.71596 48.497 8.71167 48.4841C8.70738 48.4712 8.75886 48.424 8.88331 48.3854C9.05847 48.351 9.23753 48.3409 9.41544 48.3553C9.84458 48.3553 10.4711 48.3553 11.132 48.3553C11.7064 48.3426 12.2795 48.2967 12.8486 48.218C13.0835 48.1665 13.3215 48.1292 13.5609 48.1064Z" fill="white"/>
<path d="M13.7711 51.6895C13.583 51.7909 13.3825 51.8674 13.1746 51.9169C12.6851 52.0654 12.1842 52.173 11.6769 52.2388C11.1679 52.308 10.6541 52.3353 10.1406 52.3203C9.9284 52.3266 9.71631 52.3049 9.50977 52.2559C9.71862 52.226 9.92983 52.2159 10.1406 52.2259C10.5311 52.2259 11.0675 52.183 11.6555 52.1057C12.1591 52.0382 12.659 51.9451 13.1532 51.8268C13.3555 51.7658 13.562 51.72 13.7711 51.6895Z" fill="white"/>
<path d="M29.4179 39.7805C29.3088 39.8119 29.1965 39.8306 29.0832 39.8363C28.8643 39.8663 28.5467 39.8921 28.1562 39.9178C26.1058 40.032 24.0502 39.819 22.0667 39.287C21.6891 39.1883 21.3844 39.0939 21.1784 39.0209C21.0684 38.9908 20.962 38.9491 20.8608 38.8965C20.9732 38.9095 21.0839 38.934 21.1913 38.9694C21.4058 39.0295 21.7105 39.1068 22.0925 39.1969C24.0755 39.6738 26.1132 39.8845 28.1519 39.8234L29.0789 39.7848C29.1914 39.7712 29.3051 39.7697 29.4179 39.7805Z" fill="white"/>
<path d="M35.1724 39.4419C34.9336 39.4753 34.6924 39.4883 34.4514 39.4805C34.0223 39.4805 33.3915 39.5191 32.7134 39.5749C32.0354 39.6307 31.426 39.7037 30.9969 39.7637C30.778 39.7981 30.5677 39.8109 30.4819 39.841C30.3961 39.871 30.3746 39.9569 30.3703 39.9611C30.366 39.9654 30.3703 39.9611 30.3703 39.9054C30.3703 39.8496 30.4175 39.8238 30.4776 39.7938C30.6475 39.7399 30.821 39.6983 30.9969 39.6693C31.426 39.5878 32.0526 39.4934 32.7134 39.4376C33.2943 39.3892 33.8773 39.372 34.46 39.3861C34.6988 39.3804 34.9375 39.3991 35.1724 39.4419Z" fill="white"/>
<path d="M32.6746 36.8968C32.5704 36.9064 32.4656 36.9064 32.3614 36.8968L31.5031 36.8024C30.7907 36.7252 29.8123 36.5707 28.7265 36.4591C27.6408 36.3475 26.6495 36.2574 25.9371 36.1801L25.0788 36.0814C24.9757 36.0751 24.8736 36.0579 24.7742 36.03C24.8767 36.0161 24.9806 36.0161 25.0831 36.03L25.9414 36.0857C26.6581 36.1415 27.658 36.2231 28.7308 36.3218C29.8037 36.4205 30.7993 36.605 31.5117 36.708L32.37 36.8453C32.4731 36.851 32.5753 36.8683 32.6746 36.8968Z" fill="white"/>
<path d="M34.1295 34.3608C33.8807 34.2378 33.6386 34.1018 33.4042 33.9531C32.2309 33.3002 30.943 32.8791 29.6106 32.7129C29.3314 32.6939 29.0535 32.6595 28.7781 32.6099C28.8536 32.6001 28.93 32.6001 29.0055 32.6099C29.2104 32.6077 29.4152 32.6163 29.6192 32.6356C30.9764 32.751 32.2882 33.18 33.4514 33.8887C33.6261 33.9942 33.7952 34.1088 33.9578 34.232C34.0737 34.305 34.138 34.3565 34.1295 34.3608Z" fill="white"/>
<path d="M35.1808 45.1622C35.0954 45.1848 35.0074 45.1963 34.919 45.1966C34.7517 45.1966 34.5113 45.2223 34.2109 45.2223C33.4292 45.2297 32.6479 45.1852 31.8721 45.0893C31.0978 44.9892 30.3309 44.8386 29.5762 44.6387C29.2887 44.5571 29.057 44.4885 28.8982 44.4327C28.8132 44.4092 28.7311 44.3761 28.6536 44.334C28.6536 44.334 29.0183 44.4112 29.5977 44.5443C30.177 44.6773 30.9881 44.8404 31.8893 44.9734C32.7905 45.1064 33.6058 45.1322 34.2109 45.1451C34.816 45.1579 35.1765 45.1408 35.1808 45.1622Z" fill="white"/>
<path d="M34.0607 53.2644C33.9476 53.2521 33.8356 53.2306 33.726 53.2C33.5114 53.1442 33.2067 53.0584 32.8377 52.9254C31.8714 52.5733 30.9597 52.0865 30.1298 51.4792C29.3044 50.8628 28.5629 50.1415 27.924 49.3335C27.6794 49.0288 27.4949 48.7756 27.3533 48.5996C27.2808 48.511 27.2162 48.4163 27.1602 48.3164C27.2465 48.3933 27.3255 48.4781 27.3962 48.5696L27.997 49.2691C28.6503 50.0504 29.3936 50.7519 30.2113 51.359C31.0315 51.9593 31.9258 52.4512 32.872 52.8224C33.5973 53.1271 34.0693 53.2386 34.0607 53.2644Z" fill="white"/>
<path d="M29.3361 58.2767C29.3361 58.2767 29.2503 58.1995 29.1173 58.045C28.9842 57.8905 28.7911 57.6545 28.5594 57.367C28.0959 56.7876 27.4736 55.9766 26.8213 55.0539C26.169 54.1313 25.6112 53.2773 25.2207 52.6464C25.0232 52.3332 24.8688 52.0757 24.7658 51.8954C24.7058 51.8058 24.6568 51.7093 24.6199 51.6079C24.6918 51.6894 24.7564 51.7769 24.813 51.8697L25.2979 52.5949C25.727 53.2086 26.2806 54.054 26.9329 54.9767C27.5852 55.8993 28.1903 56.719 28.6495 57.3069L29.173 58.0107C29.2371 58.093 29.2918 58.1823 29.3361 58.2767Z" fill="white"/>
<path d="M25.2676 58.8648C25.1863 58.8008 25.1116 58.729 25.0444 58.6503C24.9028 58.5086 24.714 58.2941 24.4823 58.0237C23.8815 57.3207 23.3268 56.5796 22.8215 55.8051C22.3128 55.0326 21.8513 54.2301 21.4397 53.4019C21.2852 53.08 21.165 52.8182 21.0878 52.638C21.0434 52.5441 21.0075 52.4465 20.9805 52.3462C21.0422 52.4301 21.094 52.5208 21.135 52.6165L21.5255 53.3547C21.8559 53.9812 22.3408 54.8309 22.9331 55.7321C23.5253 56.6333 24.1132 57.4143 24.5552 57.9636L25.083 58.6159C25.1529 58.6924 25.2147 58.7758 25.2676 58.8648Z" fill="white"/>
<path d="M19.4701 53.6468C18.7988 53.7474 18.14 53.9186 17.5046 54.1575C17.0617 54.3386 16.6412 54.5705 16.2516 54.8484L15.8954 55.1059C15.8712 55.1266 15.8558 55.1557 15.8524 55.1874C15.8524 55.2089 15.8524 55.2089 15.8524 55.2174C15.8524 55.226 15.8524 55.2174 15.8095 55.2174C15.8034 55.1949 15.8034 55.1711 15.8094 55.1485C15.8155 55.1259 15.8273 55.1053 15.8439 55.0887C15.9481 54.9836 16.0584 54.8848 16.1743 54.7926C16.558 54.4884 16.9828 54.2399 17.436 54.0545C17.8865 53.8636 18.3619 53.7379 18.8479 53.6811C19.0522 53.6375 19.2622 53.6259 19.4701 53.6468Z" fill="white"/>
<path d="M21.8689 57.2686C21.8689 57.2686 21.6672 57.3973 21.3668 57.6204C20.9692 57.9273 20.5281 58.1732 20.0579 58.35C19.5861 58.5242 19.0888 58.6199 18.586 58.6332C18.3788 58.6494 18.1703 58.6335 17.968 58.586C18.6627 58.5651 19.3508 58.4436 20.0107 58.2255C20.4651 58.0494 20.8972 57.8204 21.2981 57.5432C21.4677 57.4137 21.6619 57.3203 21.8689 57.2686Z" fill="white"/>
<path d="M26.319 49.1446C26.2439 49.1825 26.1624 49.2058 26.0786 49.2133C25.8537 49.2589 25.6256 49.2876 25.3963 49.2991C24.644 49.3307 23.8904 49.2991 23.1433 49.2047C22.2851 49.106 21.4826 48.973 20.9161 48.8528C20.6372 48.7928 20.4097 48.737 20.2509 48.6983C20.1692 48.6831 20.0898 48.6572 20.0149 48.6211C20.3237 48.647 20.6304 48.6929 20.9333 48.7584C21.504 48.8528 22.2851 48.973 23.1605 49.0717C23.9006 49.1653 24.6461 49.2098 25.392 49.2047C25.9671 49.1919 26.3147 49.1232 26.319 49.1446Z" fill="white"/>
<path d="M28.2888 44.0077C28.0148 43.7949 27.7011 43.6388 27.3661 43.5485C26.5558 43.3377 25.7171 43.2566 24.8814 43.3082C24.0421 43.3627 23.2084 43.4832 22.3881 43.6687L21.6371 43.8318C21.5466 43.859 21.4527 43.8735 21.3582 43.8747C21.4429 43.8331 21.5322 43.8014 21.6242 43.7803C21.8002 43.7288 22.0534 43.6558 22.3666 43.5743C23.1874 43.3618 24.0266 43.2282 24.8728 43.1752C25.724 43.1214 26.5781 43.2172 27.3962 43.4584C27.6456 43.5315 27.8797 43.6493 28.0871 43.806C28.1674 43.8587 28.2361 43.9273 28.2888 44.0077Z" fill="white"/>
<path d="M31.7651 61.813C31.4278 61.9671 31.0734 62.0809 30.7094 62.152C29.7192 62.3345 28.711 62.4007 27.7054 62.3494L23.2124 62.1949C21.5301 62.1263 19.6805 62.0877 17.7408 61.9289C15.8011 61.7701 13.9859 61.3495 12.3079 61.2723C10.8218 61.2021 9.33235 61.2812 7.86201 61.5083C6.60892 61.7014 5.60044 61.9375 4.90952 62.0919L4.11562 62.2894L3.83667 62.3494C5.1486 61.9377 6.48998 61.6264 7.84915 61.4182C9.32486 61.1734 10.822 61.0828 12.3165 61.1478C14.0073 61.2208 15.8226 61.6542 17.7537 61.7958C19.6848 61.9375 21.5387 61.9975 23.2167 62.0705L27.684 62.255C28.6879 62.315 29.6955 62.2632 30.688 62.1005C30.9546 62.0477 31.2183 61.9804 31.4776 61.8988C31.6664 61.8388 31.7651 61.813 31.7651 61.813Z" fill="white"/>
<path d="M6.63023 40.1282C6.55199 40.0478 6.48159 39.9601 6.41996 39.8664C6.25688 39.6518 6.08093 39.4072 5.87924 39.1326C5.30274 38.3158 4.65662 37.5505 3.94811 36.8452L2.76797 35.6908C2.41178 35.3518 2.08565 35.0429 1.78525 34.7639L1.13295 34.1288C1.04685 34.0558 0.970433 33.9722 0.905518 33.8799C0.998457 33.9426 1.08601 34.0129 1.16729 34.0902L1.8496 34.691L2.8538 35.6007L4.04253 36.7551C4.75824 37.4631 5.39956 38.2424 5.95648 39.0811C6.17534 39.3943 6.3427 39.6561 6.46286 39.8363C6.52888 39.9274 6.58499 40.0252 6.63023 40.1282Z" fill="#161B46"/>
<path d="M11.7327 27.765L13.5394 31.7431C13.5394 31.7431 14.8525 31.4728 15.3074 33.0305C15.7623 34.5883 16.7751 38.575 16.7751 38.575L17.3501 41.579L17.8265 39.0042C17.8265 39.0042 18.3543 37.4292 18.9723 37.0173C19.5902 36.6053 22.238 34.4424 22.238 34.4424C22.238 34.4424 24.0833 32.8761 24.5339 31.9319C24.7927 31.4122 24.9928 30.8653 25.1304 30.3012L24.3794 28.6962C23.7657 28.2671 21.2338 26.6621 21.2338 26.6621H12.8656L11.7327 27.765Z" fill="#B78876"/>
<path d="M3.04245 56.1696C2.80172 56.434 2.59816 56.7299 2.43737 57.0493C2.36584 57.186 2.3374 57.3412 2.35578 57.4944C2.37417 57.6476 2.43852 57.7917 2.54036 57.9076C3.12828 58.5685 4.25693 59.8044 4.42 59.6799C4.58307 59.5555 5.53574 58.7273 5.23105 58.4955C4.92636 58.2638 4.42 58.65 4.42 58.65L3.73765 57.8561L4.42 57.6244C4.42 57.6244 5.62587 58.5341 6.09792 58.3367C6.44024 58.1704 6.74872 57.9419 7.0077 57.663L17.5259 58.9075L14.5906 53.7578L8.87447 54.32L8.91738 54.2814C7.89602 56.2082 4.5659 57.1008 3.04245 56.1438V56.1696Z" fill="#B78876"/>
<path d="M29.0314 14.629C29.1348 14.5965 29.228 14.5379 29.3022 14.4589C29.3763 14.3799 29.4288 14.2831 29.4547 14.1779C29.4806 14.0727 29.4789 13.9626 29.4499 13.8582C29.4209 13.7538 29.3654 13.6587 29.2889 13.5819C29.6065 13.406 29.5164 12.8996 29.2889 12.6335C29.0615 12.3674 28.6796 12.2044 28.4822 11.8954C28.5841 11.917 28.6895 11.917 28.7914 11.8954C28.8934 11.8739 28.9897 11.8312 29.0742 11.7702C29.1587 11.7091 29.2295 11.6311 29.282 11.541C29.3345 11.451 29.3675 11.351 29.379 11.2474C29.5148 11.2582 29.6504 11.2236 29.7643 11.149C29.8782 11.0743 29.9641 10.9639 30.0083 10.835C30.0526 10.7062 30.0527 10.5663 30.0087 10.4374C29.9647 10.3085 29.8791 10.1979 29.7653 10.123C30.1086 10.0973 30.0786 9.53083 29.7953 9.33772C29.4785 9.20802 29.1529 9.10048 28.8212 9.01586C28.2551 8.38168 27.5049 7.94051 26.6755 7.75419L28.0788 6.71138C28.1967 6.63954 28.293 6.53725 28.3577 6.41527C28.4821 6.13633 28.2633 5.82735 28.0315 5.62995C27.5386 5.20938 26.9325 4.94366 26.2892 4.86608C26.0832 4.86608 25.8215 4.86608 25.7571 5.07207C25.3039 4.90291 24.816 4.84836 24.3367 4.91328C24.0656 4.89461 23.797 4.97548 23.5814 5.14073C23.7084 4.90375 23.8771 4.69153 24.0792 4.51418C24.1802 4.42565 24.2614 4.31685 24.3176 4.19486C24.3738 4.07286 24.4037 3.94041 24.4053 3.8061C24.3796 3.53574 24.0534 3.30401 23.8303 3.4585C24.0835 3.33834 24.0491 2.93924 23.8303 2.76329C23.5965 2.61474 23.3211 2.54551 23.0449 2.56589C22.8518 2.56589 22.6158 2.59593 22.5557 2.78046C22.5204 2.68342 22.458 2.59854 22.3759 2.53586C22.2938 2.47317 22.1955 2.4353 22.0926 2.42672C21.9897 2.41815 21.8864 2.43922 21.7951 2.48746C21.7038 2.5357 21.6282 2.60908 21.5773 2.69892C21.5102 2.6394 21.4318 2.59406 21.3467 2.56563C21.2617 2.5372 21.1717 2.52626 21.0823 2.53348C20.9929 2.54069 20.9059 2.56591 20.8265 2.60762C20.7471 2.64933 20.677 2.70666 20.6203 2.77617C20.5143 2.71828 20.3972 2.68344 20.2767 2.67392C20.1563 2.6644 20.0352 2.68042 19.9213 2.72093C19.8075 2.76144 19.7035 2.82553 19.6162 2.90899C19.5288 2.99246 19.4601 3.09344 19.4144 3.20531C19.659 2.77617 19.9079 2.34703 20.1568 1.95222C20.2985 1.71619 20.3242 1.27418 20.0495 1.30422C20.1415 1.28819 20.2284 1.2508 20.3033 1.19507C20.3781 1.13934 20.4389 1.06682 20.4807 0.983339C20.5224 0.899856 20.544 0.807743 20.5436 0.714406C20.5433 0.62107 20.521 0.529116 20.4787 0.445938C20.3678 0.282581 20.2118 0.155018 20.0297 0.0788158C19.8476 0.00261349 19.6472 -0.0189337 19.453 0.0167982L19.114 0.506018C18.9819 0.415577 18.825 0.368189 18.6649 0.370343C18.5048 0.372497 18.3492 0.424084 18.2195 0.518047C18.0899 0.612009 17.9924 0.743752 17.9405 0.89524C17.8886 1.04673 17.8848 1.21056 17.9296 1.3643C17.8843 1.32971 17.8321 1.30512 17.7766 1.29216C17.721 1.2792 17.6634 1.27816 17.6075 1.28911C17.5515 1.30006 17.4985 1.32275 17.4519 1.35568C17.4054 1.38861 17.3663 1.43104 17.3374 1.48016C17.2336 1.68852 17.1947 1.92323 17.2258 2.15391C17.126 2.08844 17.0104 2.05104 16.8911 2.04563C16.7718 2.04023 16.6533 2.06702 16.548 2.12321C16.4426 2.17939 16.3544 2.26289 16.2924 2.36494C16.2304 2.46699 16.1971 2.58383 16.1959 2.70321C15.8495 2.5238 15.4608 2.4422 15.0715 2.46719C15.1586 2.32547 15.197 2.15923 15.1809 1.9937C15.1649 1.82817 15.0952 1.67241 14.9826 1.55006C14.8699 1.42771 14.7205 1.34546 14.5568 1.31581C14.3932 1.28615 14.2243 1.31071 14.0759 1.38575C14.061 1.27749 14.0226 1.17379 13.9635 1.08189C13.9043 0.989992 13.8259 0.91211 13.7335 0.853676C13.6412 0.795242 13.5372 0.757667 13.4288 0.743575C13.3204 0.729483 13.2103 0.73921 13.1061 0.772082C12.9859 0.317194 12.3851 -0.0175351 12.0246 0.282863C11.6641 0.583261 11.8487 1.19264 12.0804 1.62178L12.8271 3.02078L10.3939 1.73336C10.3208 1.68662 10.236 1.66134 10.1493 1.6604C10.0291 1.6604 9.94758 1.78485 9.84459 1.83635C9.74159 1.88785 9.51844 1.87068 9.35966 1.92218C8.93052 2.05092 8.93052 2.70751 9.23092 3.05082C9.57429 3.33874 9.93393 3.60668 10.3081 3.85331L9.22662 4.0593C9.18627 3.91351 9.11648 3.77753 9.02154 3.65976C8.9266 3.54199 8.80855 3.44493 8.67464 3.37456C8.54073 3.30418 8.39383 3.262 8.24299 3.25061C8.09214 3.23921 7.94057 3.25885 7.79761 3.3083C7.6517 2.9092 7.11527 2.87916 6.69042 2.87916C6.30594 2.84973 5.92408 2.96276 5.61757 3.19672C5.46319 3.38651 5.3789 3.62368 5.3789 3.86833C5.3789 4.11297 5.46319 4.35015 5.61757 4.53993C5.93874 4.90882 6.34333 5.19572 6.7977 5.37676C6.72475 5.7029 6.3042 5.80589 5.97806 5.7544C5.66121 5.64961 5.32256 5.6289 4.99531 5.69432C4.56617 5.8531 4.39451 6.39811 3.96966 6.5526C3.83627 6.58004 3.70663 6.62326 3.58345 6.68134C3.43544 6.80927 3.34182 6.98884 3.32168 7.18344C3.27018 7.41946 3.21869 7.6512 3.1629 7.88723C3.12887 8.00126 3.12006 8.12134 3.13713 8.23912C3.21437 8.62105 3.74651 8.70688 4.10699 8.55668C4.43908 8.35389 4.79328 8.18975 5.16268 8.06746C4.63073 8.27588 4.16925 8.63167 3.83236 9.09311C3.54912 9.58662 3.66499 10.3505 4.20141 10.5436C4.73784 10.7367 5.27425 10.269 5.66906 9.8484C6.06387 9.42784 6.63035 8.99012 7.1539 9.22614" fill="#161B46"/>
<path d="M28.2504 14.2945C28.3564 14.2323 28.4771 14.1993 28.6 14.1989C28.7229 14.1985 28.8437 14.2307 28.9502 14.2922C29.0566 14.3537 29.1448 14.4423 29.2058 14.549C29.2669 14.6557 29.2985 14.7767 29.2975 14.8996C29.5516 14.9705 29.7816 15.1094 29.9626 15.3013C30.1437 15.4931 30.269 15.7308 30.3251 15.9885C30.3811 16.2463 30.3658 16.5145 30.2808 16.7642C30.1958 17.014 30.0442 17.2358 29.8425 17.4058C29.5207 17.6762 28.8855 17.6848 28.8169 17.2728C28.7518 17.4457 28.6448 17.5997 28.5055 17.7211C28.3662 17.8424 28.1989 17.9273 28.0187 17.968C28.0982 18.0963 28.1503 18.2398 28.1717 18.3892C28.1931 18.5387 28.1834 18.691 28.1431 18.8365C28.1027 18.982 28.0327 19.1176 27.9375 19.2347C27.8422 19.3519 27.7238 19.448 27.5895 19.5172C27.7383 19.6392 27.8544 19.7963 27.9276 19.9743C28.0007 20.1523 28.0285 20.3457 28.0085 20.537C27.9885 20.7284 27.9213 20.9119 27.813 21.0709C27.7047 21.2299 27.5586 21.3596 27.3878 21.4483C27.4357 21.5554 27.4621 21.6709 27.4654 21.7881C27.4686 21.9054 27.4488 22.0221 27.407 22.1317C27.3651 22.2413 27.3021 22.3416 27.2215 22.4268C27.1409 22.512 27.0443 22.5805 26.9372 22.6285C26.8302 22.6764 26.7147 22.7027 26.5975 22.706C26.4802 22.7093 26.3634 22.6894 26.2539 22.6476C26.1443 22.6057 26.044 22.5427 25.9588 22.4621C25.8735 22.3815 25.805 22.2849 25.7571 22.1779C25.647 22.5249 25.4418 22.8341 25.1649 23.0705C25.093 23.124 25.011 23.1623 24.9238 23.1831C24.8367 23.2039 24.7462 23.2068 24.6579 23.1915C24.5695 23.1763 24.4853 23.1432 24.4101 23.0944C24.335 23.0455 24.2706 22.9819 24.2208 22.9074C24.1692 23.0812 24.0798 23.2415 23.959 23.3766C23.8381 23.5118 23.6889 23.6185 23.5219 23.689C23.3549 23.7596 23.1743 23.7923 22.9931 23.7848C22.812 23.7773 22.6348 23.7297 22.4742 23.6455C22.4916 23.8434 22.4341 24.0405 22.3132 24.1981C22.1923 24.3557 22.0168 24.4622 21.8212 24.4967C21.6256 24.5312 21.4242 24.4911 21.2567 24.3844C21.0892 24.2776 20.9678 24.112 20.9164 23.9202L18.8737 24.0747C18.4227 24.1176 17.9686 24.1176 17.5176 24.0747C16.9397 24.0112 16.3851 23.8111 15.8998 23.491C15.7568 23.3718 15.5877 23.288 15.4063 23.2464C15.1907 23.2415 14.9776 23.2933 14.7883 23.3966C14.2593 23.5966 13.688 23.6582 13.1285 23.5756C12.569 23.493 12.0398 23.2689 11.5912 22.9246C11.4646 22.8039 11.3198 22.7039 11.1621 22.6285C10.9633 22.5755 10.7557 22.5652 10.5527 22.5984C10.0504 22.6322 9.54586 22.6033 9.05069 22.5126C8.83543 22.4931 8.62634 22.4301 8.43606 22.3276C8.24577 22.2251 8.07822 22.0851 7.9435 21.9161C7.71606 21.547 7.89631 20.9376 8.32545 20.9076C8.33658 20.7675 8.31572 20.6267 8.26442 20.4958C8.21312 20.365 8.13272 20.2475 8.02934 20.1523C7.92255 20.0612 7.78516 20.0141 7.64494 20.0205C7.50471 20.0268 7.37213 20.0862 7.27405 20.1866C7.23374 20.2409 7.20774 20.3045 7.1984 20.3714C7.18907 20.4384 7.19671 20.5066 7.22064 20.5699C7.24457 20.6331 7.28401 20.6893 7.33534 20.7333C7.38666 20.7774 7.44822 20.8078 7.51436 20.8218C7.3975 20.8926 7.26494 20.9334 7.12847 20.9406C6.992 20.9478 6.85587 20.9211 6.73223 20.8629C6.60859 20.8046 6.50128 20.7167 6.41985 20.607C6.33843 20.4972 6.28544 20.3691 6.26558 20.2338C6.26028 19.9522 6.36251 19.6792 6.55147 19.4703C6.74043 19.2614 7.0019 19.1324 7.28264 19.1095C7.13728 18.7163 7.09013 18.2935 7.14531 17.8779C7.01085 18.0678 6.80902 18.1993 6.58096 18.2455C6.35291 18.2918 6.1158 18.2493 5.91798 18.1268C5.82395 18.3202 5.69129 18.4924 5.52818 18.6326C5.36507 18.7729 5.17495 18.8782 4.96957 18.9421C4.76202 18.9984 4.54142 18.9819 4.34461 18.8952C4.1478 18.8085 3.98668 18.6569 3.88813 18.4658C3.84988 18.3678 3.83481 18.2623 3.84407 18.1576C3.85333 18.0528 3.88669 17.9516 3.94153 17.8619C3.99637 17.7721 4.07121 17.6963 4.16022 17.6402C4.24922 17.5842 4.34996 17.5495 4.45459 17.5388C4.38238 17.4219 4.34125 17.2884 4.3351 17.1511C4.32896 17.0138 4.358 16.8771 4.41947 16.7542C4.48094 16.6312 4.57282 16.526 4.68637 16.4486C4.79992 16.3711 4.93136 16.3239 5.06826 16.3115C5.00705 16.0396 5.03791 15.7551 5.15598 15.5026C5.27405 15.2502 5.47264 15.0441 5.72056 14.9168C5.64018 14.9693 5.5494 15.0037 5.45445 15.0178C5.35949 15.0319 5.26261 15.0252 5.17047 14.9983C5.07832 14.9714 4.9931 14.9249 4.92064 14.8619C4.84818 14.799 4.79021 14.7211 4.7507 14.6336C4.52755 15.0627 3.89242 15.0198 3.46328 14.8095C3.26766 14.7567 3.09703 14.6364 2.98157 14.4699C2.86612 14.3034 2.81331 14.1014 2.83246 13.8997C2.86088 13.6645 2.97189 13.4471 3.14572 13.2861C3.57566 12.9566 4.10177 12.7772 4.64342 12.7754C4.90999 12.1088 5.06372 11.4025 5.0983 10.6855C4.80004 10.7234 4.49812 10.6528 4.24759 10.4865C3.99707 10.3203 3.81465 10.0695 3.73364 9.78L6.69042 7.94327C6.69042 7.94327 13.5567 6.8833 13.7798 6.8833C14.003 6.8833 28.332 14.2516 28.332 14.2516C28.4231 14.3266 28.5295 14.3807 28.6436 14.4103C28.7578 14.4399 28.8771 14.4442 28.9931 14.4229C29.1092 14.4017 29.2192 14.3554 29.3155 14.2873C29.4118 14.2191 29.4921 14.1308 29.5507 14.0285C29.6564 13.8134 29.7018 13.5738 29.6821 13.335C29.6625 13.0963 29.5785 12.8673 29.4391 12.6724C29.1518 12.2871 28.7971 11.957 28.392 11.6983C28.8557 11.7229 29.3128 11.5797 29.6795 11.2949C29.7884 11.1978 29.8656 11.07 29.9008 10.9284C29.936 10.7868 29.9277 10.6378 29.8769 10.5009C29.7138 10.1061 29.2546 10.1362 28.9628 9.90874C28.8054 9.76094 28.6773 9.58478 28.5852 9.38948" fill="#161B46"/>
<path d="M20.9721 9.55221L13.3764 7.57817C10.9388 7.30352 9.29952 10.2946 9.12786 12.7278C8.93904 15.4443 8.81459 18.7658 9.12786 20.7957C9.74582 24.8768 12.8657 25.4175 12.8657 25.4175C12.8657 25.4175 12.8657 26.0097 12.8657 27.4903V27.9194L21.3798 27.9966L22.2381 10.9898C22.2416 10.6362 22.1142 10.2939 21.8805 10.0285C21.6468 9.76311 21.3233 9.59348 20.9721 9.55221Z" fill="#B78876"/>
<path d="M10.4882 15.706C10.4847 15.8423 10.535 15.9745 10.6281 16.0741C10.7212 16.1736 10.8498 16.2326 10.986 16.2381C11.0526 16.2446 11.1197 16.2375 11.1834 16.2172C11.2472 16.1969 11.3061 16.1639 11.3567 16.1202C11.4072 16.0764 11.4484 16.0229 11.4776 15.9627C11.5068 15.9026 11.5236 15.8372 11.5267 15.7704C11.5291 15.6344 11.4785 15.5028 11.3856 15.4035C11.2927 15.3042 11.1648 15.2449 11.0289 15.2383C10.9625 15.2324 10.8956 15.2399 10.8321 15.2605C10.7687 15.281 10.71 15.314 10.6595 15.3577C10.6091 15.4013 10.568 15.4546 10.5385 15.5144C10.5091 15.5743 10.492 15.6394 10.4882 15.706Z" fill="#161B46"/>
<path d="M9.84005 14.4701C9.90442 14.5387 10.2992 14.2512 10.8614 14.2555C11.4236 14.2598 11.8355 14.543 11.8956 14.4744C11.9557 14.4057 11.8613 14.3242 11.6853 14.1911C11.4432 14.0198 11.1537 13.9283 10.8571 13.9294C10.5646 13.9247 10.2785 14.0151 10.0417 14.1869C9.86579 14.3242 9.80572 14.44 9.84005 14.4701Z" fill="#161B46"/>
<path d="M15.9171 15.9029C15.9147 16.0396 15.9659 16.1718 16.0597 16.2713C16.1536 16.3707 16.2826 16.4295 16.4192 16.4351C16.4855 16.4403 16.5522 16.4324 16.6154 16.4116C16.6786 16.3909 16.737 16.3578 16.7873 16.3143C16.8377 16.2708 16.8788 16.2177 16.9084 16.1581C16.9381 16.0985 16.9555 16.0337 16.9599 15.9673C16.9634 15.831 16.9131 15.6988 16.82 15.5993C16.7268 15.4997 16.5983 15.4408 16.4621 15.4352C16.3955 15.4299 16.3286 15.4378 16.2651 15.4585C16.2017 15.4792 16.1429 15.5122 16.0923 15.5557C16.0416 15.5992 16.0001 15.6522 15.97 15.7118C15.94 15.7714 15.922 15.8364 15.9171 15.9029Z" fill="#161B46"/>
<path d="M15.3674 14.6163C15.4318 14.685 15.8309 14.3932 16.393 14.3975C16.9552 14.4018 17.3629 14.6893 17.4273 14.6206C17.4917 14.552 17.393 14.4661 17.2127 14.3331C16.9709 14.1612 16.6812 14.0697 16.3845 14.0713C16.0924 14.0694 15.8071 14.1595 15.5691 14.3288C15.3932 14.4618 15.3331 14.582 15.3674 14.6163Z" fill="#161B46"/>
<path d="M13.299 18.7702C13.0022 18.6771 12.6953 18.6195 12.385 18.5985C12.239 18.5985 12.106 18.5556 12.0803 18.4569C12.0711 18.3073 12.1053 18.1583 12.179 18.0278L12.6081 16.9378C13.0091 16.0143 13.3349 15.0599 13.5822 14.084C13.1068 14.9723 12.705 15.898 12.3807 16.8519C12.2348 17.2339 12.0974 17.5986 11.9515 17.9505C11.8613 18.1232 11.8326 18.3215 11.87 18.5127C11.8913 18.563 11.9235 18.608 11.9643 18.6444C12.0051 18.6808 12.0535 18.7076 12.106 18.723C12.1858 18.745 12.2679 18.758 12.3506 18.7616C12.6648 18.8083 12.984 18.8112 13.299 18.7702Z" fill="#161B46"/>
<path d="M12.8613 25.4258C14.7814 25.4667 16.6752 24.9751 18.3329 24.0054C18.3329 24.0054 16.9382 26.8205 12.8613 26.4128V25.4258Z" fill="#AA6550"/>
<path d="M13.2305 20.041C13.3605 19.8509 13.5346 19.6951 13.7378 19.5867C13.9411 19.4784 14.1675 19.4208 14.3978 19.4188C14.5569 19.4145 14.714 19.4545 14.8517 19.5343C14.9894 19.6142 15.1021 19.7307 15.1774 19.871C15.2526 20.0112 15.2874 20.1696 15.2778 20.3285C15.2682 20.4873 15.2146 20.6404 15.123 20.7706C15.0182 20.9132 14.8731 21.0213 14.7065 21.081C14.5398 21.1406 14.359 21.1491 14.1875 21.1053C13.8631 21.001 13.5686 20.82 13.3292 20.5775C13.255 20.5203 13.1948 20.4469 13.1533 20.3629C13.1319 20.3154 13.1231 20.2633 13.1276 20.2115C13.1321 20.1596 13.1498 20.1098 13.179 20.0668" fill="#AA6550"/>
<path d="M14.9512 19.1734C14.8568 19.1734 14.8525 19.7785 14.3289 20.2077C13.8054 20.6368 13.1531 20.5638 13.1488 20.6368C13.1445 20.7098 13.2904 20.757 13.5779 20.7655C13.9361 20.7738 14.2857 20.6553 14.5649 20.4308C14.8286 20.2163 15.0005 19.9094 15.0456 19.5725C15.0584 19.3193 14.9898 19.1691 14.9512 19.1734Z" fill="#161B46"/>
<path d="M15.1183 13.3157C15.1741 13.4702 15.7363 13.4015 16.4058 13.4831C17.0752 13.5646 17.5988 13.7534 17.6932 13.6161C17.7318 13.5517 17.6417 13.4058 17.4271 13.2556C17.143 13.0678 16.8176 12.9515 16.4787 12.9166C16.1413 12.8718 15.798 12.9101 15.4788 13.0282C15.2213 13.1226 15.0969 13.2428 15.1183 13.3157Z" fill="#161B46"/>
<path d="M10.0549 12.8437C10.1536 12.9725 10.5441 12.8437 11.0076 12.8437C11.471 12.8437 11.8659 12.9382 11.9603 12.8051C11.9989 12.7407 11.9603 12.612 11.7671 12.4876C11.5383 12.3373 11.2683 12.2622 10.9947 12.273C10.7215 12.2774 10.4563 12.3658 10.2351 12.5262C10.0677 12.6506 10.012 12.7837 10.0549 12.8437Z" fill="#161B46"/>
<path d="M22.2597 15.1826C22.3151 15.3164 22.3263 15.4643 22.2915 15.6049C22.2568 15.7454 22.178 15.8711 22.0666 15.9637C22.0112 15.9982 21.9493 16.0208 21.8847 16.0302C21.8202 16.0396 21.7543 16.0355 21.6914 16.0182C21.6285 16.0008 21.5699 15.9706 21.5192 15.9295C21.4686 15.8883 21.427 15.8371 21.3972 15.7791C21.2212 16.0194 20.8135 15.7791 20.8693 15.4616C20.6461 15.586 20.3586 15.2899 20.4402 15.0324C20.187 15.1311 20.011 14.7149 19.8995 14.4402C19.8192 14.2921 19.7303 14.1488 19.6334 14.0111C19.347 13.5503 19.1981 13.0173 19.2042 12.4747C18.9006 12.0297 18.7308 11.507 18.715 10.9685L18.5863 9.9514L18.3975 9.71966C18.399 9.83463 18.3647 9.94723 18.2994 10.0418C18.234 10.1364 18.1408 10.2083 18.0327 10.2475C17.8316 10.301 17.6201 10.301 17.419 10.2475L16.8139 10.1316L16.4363 10.2432C16.5104 10.5754 16.4711 10.9229 16.3247 11.2302C16.2781 11.4501 16.1549 11.6463 15.9771 11.7838C15.9302 11.8058 15.8783 11.8144 15.8268 11.8089C15.7753 11.8033 15.7264 11.7838 15.6853 11.7524C15.6441 11.721 15.6124 11.6789 15.5935 11.6307C15.5746 11.5826 15.5692 11.5301 15.578 11.4791C15.5428 11.5119 15.5006 11.5363 15.4546 11.5504C15.4086 11.5645 15.36 11.5679 15.3125 11.5605C15.2649 11.553 15.2197 11.5349 15.1802 11.5074C15.1407 11.48 15.108 11.4439 15.0845 11.4019C14.973 11.2147 14.9248 10.9964 14.9472 10.7796C14.9568 10.2507 15.1242 9.73664 15.4278 9.3034C15.0759 9.63384 14.724 9.96427 14.3764 10.299C14.3079 10.3759 14.2184 10.4311 14.1189 10.4578C14.1234 10.4983 14.1189 10.5394 14.1058 10.578C14.0927 10.6167 14.0713 10.652 14.0431 10.6815C14.0148 10.7109 13.9805 10.7338 13.9424 10.7486C13.9044 10.7633 13.8635 10.7695 13.8228 10.7668C13.6675 10.7221 13.5307 10.6289 13.4323 10.5007C13.1748 10.2346 12.9002 9.77545 13.1276 9.47076C13.0075 9.44931 12.9474 9.24761 13.0246 9.13603C12.6298 9.44501 12.2307 9.7497 11.8316 10.0544C11.9518 9.98144 12.0848 10.1703 12.0591 10.3248C12.021 10.4681 11.9327 10.593 11.8102 10.6766C11.9169 10.8454 11.9665 11.044 11.9518 11.2431C12.1664 11.05 12.4925 11.4062 12.4238 11.7152C12.3861 11.8549 12.3044 11.9788 12.1908 12.0684C12.0771 12.1581 11.9377 12.2088 11.793 12.213C11.6763 12.2329 11.5564 12.2082 11.457 12.1438C11.3576 12.0794 11.2861 11.98 11.2566 11.8654C10.9948 11.9254 10.7416 11.565 10.8274 11.2689C10.6343 11.3933 10.467 11.0543 10.4584 10.7968C10.4364 10.3247 10.5048 9.85277 10.6601 9.40639C10.6601 9.47076 10.5914 9.52655 10.5442 9.49222C10.5325 9.48255 10.5231 9.47043 10.5166 9.4567C10.5102 9.44298 10.5068 9.428 10.5068 9.41283C10.5068 9.39766 10.5102 9.38268 10.5166 9.36895C10.5231 9.35523 10.5325 9.3431 10.5442 9.33344C10.3253 9.88274 10.1151 10.432 9.87903 10.9813C9.67407 11.4113 9.55041 11.8754 9.51427 12.3503C9.51427 12.5477 9.48852 12.8181 9.32545 12.8352C9.2801 12.8366 9.23534 12.8247 9.19671 12.8009C8.70163 12.5223 8.31805 12.0811 8.11097 11.5521C8.02635 11.3685 7.96992 11.1732 7.9436 10.9728C7.96624 10.553 8.02075 10.1355 8.10668 9.72395C8.10729 9.53748 8.11876 9.35121 8.14102 9.16607C8.2192 8.89014 8.36697 8.63893 8.57016 8.43653C9.21387 7.68983 9.89189 6.91738 10.7545 6.61269C11.2823 6.42816 11.8445 6.43245 12.3723 6.25221C12.6965 6.12756 13.0131 5.98427 13.3207 5.82307C14.6258 5.26772 16.0542 5.0664 17.4619 5.23944C18.2581 5.26731 19.043 5.43735 19.7793 5.74154C20.5816 6.16881 21.3069 6.72724 21.925 7.39372C22.9765 8.37135 23.848 9.52613 24.4998 10.8054C25.026 11.8437 25.2392 13.0126 25.1135 14.1698C24.9461 15.3242 24.2552 16.4057 23.2682 16.6503L22.8863 16.2211" fill="#161B46"/>
<path d="M21.1481 15.9761C21.2038 15.9504 23.4139 15.2466 23.3967 17.521C23.3796 19.7955 21.0966 19.3106 21.0923 19.2376C21.088 19.1647 21.1481 15.9761 21.1481 15.9761Z" fill="#B78876"/>
<path d="M21.7958 18.3885C21.7958 18.3885 21.8344 18.4143 21.8988 18.4486C21.9939 18.4861 22.0998 18.4861 22.1949 18.4486C22.3396 18.3576 22.4583 18.2308 22.5395 18.0804C22.6207 17.93 22.6617 17.7612 22.6584 17.5903C22.6666 17.3944 22.6299 17.1992 22.5511 17.0196C22.5303 16.9485 22.4924 16.8836 22.4408 16.8305C22.3892 16.7774 22.3254 16.7377 22.255 16.7149C22.2099 16.7015 22.1615 16.705 22.1188 16.7247C22.0762 16.7445 22.0422 16.7791 22.0232 16.8222C21.9889 16.8822 22.0232 16.9294 21.9932 16.9337C21.9632 16.938 21.946 16.8951 21.9632 16.8007C21.9769 16.7449 22.0085 16.6951 22.0533 16.6591C22.1168 16.6139 22.1948 16.594 22.2721 16.6033C22.3688 16.6194 22.4595 16.6608 22.5349 16.7234C22.6103 16.786 22.6677 16.8674 22.7013 16.9595C22.7974 17.157 22.8431 17.3752 22.8343 17.5946C22.8432 17.7974 22.7921 17.9983 22.6876 18.1723C22.583 18.3463 22.4296 18.4856 22.2464 18.573C22.1853 18.5896 22.1213 18.5924 22.0589 18.5812C21.9966 18.5701 21.9375 18.5453 21.8859 18.5087C21.7958 18.4443 21.7872 18.3928 21.7958 18.3885Z" fill="#AA6550"/>
<path d="M13.7066 15.2807C13.7222 15.0607 13.7567 14.8425 13.8096 14.6284C13.9632 14.044 14.3094 13.5284 14.7923 13.165C15.1218 12.9159 15.5056 12.7482 15.9123 12.6758C16.3779 12.5913 16.8576 12.6313 17.3027 12.7917C17.5441 12.8764 17.7702 12.9996 17.9722 13.1565C18.1894 13.3115 18.3794 13.5014 18.5344 13.7186C18.866 14.1727 19.0448 14.7205 19.0448 15.2828C19.0448 15.8452 18.866 16.3929 18.5344 16.8471C18.3772 17.0624 18.1876 17.2521 17.9722 17.4092C17.769 17.5632 17.5432 17.6848 17.3027 17.7697C16.9535 17.8964 16.5817 17.9487 16.2111 17.9235C15.8405 17.8982 15.4792 17.7958 15.1504 17.623C14.8217 17.4501 14.5325 17.2105 14.3017 16.9195C14.0708 16.6285 13.9032 16.2925 13.8096 15.933C13.7567 15.7189 13.7222 15.5007 13.7066 15.2807C13.7019 15.3378 13.7019 15.3952 13.7066 15.4524C13.701 15.5223 13.701 15.5926 13.7066 15.6626C13.7176 15.758 13.7348 15.8527 13.758 15.9459C13.8835 16.4539 14.1525 16.915 14.533 17.2742C14.9135 17.6334 15.3894 17.8754 15.9037 17.9714C16.3857 18.0637 16.8836 18.0252 17.3457 17.8598C17.5955 17.7724 17.83 17.6464 18.0409 17.4865C18.2653 17.3243 18.4623 17.1273 18.6245 16.9028C18.9708 16.4329 19.1573 15.8644 19.1566 15.2807C19.1552 14.6973 18.9689 14.1294 18.6245 13.6585C18.4612 13.4351 18.2643 13.2382 18.0409 13.0749C17.8299 12.9163 17.5953 12.7918 17.3457 12.7059C16.8869 12.5451 16.3932 12.511 15.9166 12.6072C15.4015 12.703 14.925 12.9455 14.5444 13.3055C14.1637 13.6656 13.8952 14.128 13.7709 14.637C13.7474 14.7287 13.7302 14.8219 13.7194 14.9159C13.7141 14.9859 13.7141 15.0562 13.7194 15.1262C13.7114 15.1773 13.7071 15.2289 13.7066 15.2807Z" fill="#ABB4EC"/>
<path d="M7.28677 15.281C7.30795 15.0617 7.34234 14.8438 7.38976 14.6287C7.54343 14.0442 7.88964 13.5287 8.37248 13.1653C8.70241 12.9168 9.08607 12.7493 9.49256 12.6761C9.95957 12.5916 10.4406 12.6316 10.8873 12.7919C11.1278 12.8785 11.3536 13.0015 11.5567 13.1567C11.7726 13.3118 11.9611 13.5018 12.1146 13.7189C12.4488 14.1719 12.6291 14.7201 12.6291 15.2831C12.6291 15.8461 12.4488 16.3943 12.1146 16.8473C11.9587 17.0624 11.7706 17.252 11.5567 17.4095C11.3524 17.5617 11.1268 17.6832 10.8873 17.77C10.5378 17.8966 10.1657 17.949 9.79477 17.9238C9.42387 17.8986 9.06231 17.7963 8.73318 17.6234C8.40405 17.4506 8.11457 17.211 7.88326 16.92C7.65194 16.629 7.48387 16.2929 7.38976 15.9332C7.34234 15.7181 7.30795 15.5003 7.28677 15.281C7.28104 15.338 7.28104 15.3955 7.28677 15.4526C7.28104 15.5226 7.28104 15.5929 7.28677 15.6629C7.29785 15.7583 7.31505 15.8529 7.33827 15.9461C7.4637 16.4541 7.73273 16.9153 8.11323 17.2744C8.49372 17.6336 8.9696 17.8757 9.48397 17.9717C9.96594 18.064 10.4638 18.0254 10.9259 17.8601C11.1757 17.7727 11.4102 17.6467 11.6211 17.4867C11.8465 17.3257 12.0437 17.1285 12.2047 16.9031C12.5531 16.434 12.7412 15.8652 12.7412 15.281C12.7412 14.6967 12.5531 14.1279 12.2047 13.6588C12.0425 13.4344 11.8455 13.2374 11.6211 13.0752C11.4101 12.9165 11.1755 12.792 10.9259 12.7061C10.5669 12.5752 10.1843 12.5216 9.8031 12.5489C9.42194 12.5762 9.05084 12.6837 8.71414 12.8644C8.37744 13.0451 8.08273 13.2949 7.84931 13.5975C7.6159 13.9001 7.44906 14.2485 7.35972 14.6201C7.33616 14.7118 7.31896 14.805 7.30822 14.899C7.30039 14.9689 7.30039 15.0394 7.30822 15.1093C7.29531 15.1657 7.28813 15.2232 7.28677 15.281Z" fill="#ABB4EC"/>
<path d="M12.5608 14.6507C12.5608 14.6764 12.8354 14.5691 13.1702 14.5606C13.5049 14.552 13.7753 14.6378 13.7839 14.6078C13.6026 14.485 13.3832 14.4317 13.1659 14.4576C12.9479 14.4501 12.7341 14.5184 12.5608 14.6507Z" fill="#ABB4EC"/>
<path d="M19.1182 15.5472C19.4816 15.6975 19.8645 15.7957 20.2554 15.839C20.6393 15.9166 21.0317 15.944 21.4226 15.9206C21.4226 15.8905 20.9034 15.839 20.2726 15.736C19.6417 15.633 19.1267 15.5215 19.1182 15.5472Z" fill="#ABB4EC"/>
<path d="M13.9901 14.8564C13.9678 15.0268 13.9765 15.1998 14.0158 15.3671C14.087 15.7722 14.2325 16.1607 14.4449 16.5129C14.6615 16.868 14.9547 17.1701 15.3032 17.397C15.3735 17.4481 15.4537 17.4841 15.5387 17.5025C15.6237 17.521 15.7115 17.5216 15.7967 17.5042C15.6336 17.4789 15.4773 17.4205 15.3376 17.3326C15.0146 17.1025 14.7404 16.8108 14.5308 16.4743C14.3151 16.134 14.1584 15.7596 14.0673 15.3671C14.0201 15.0496 14.0072 14.8564 13.9901 14.8564Z" fill="white"/>
<path d="M8.11954 16.5903C8.05785 16.4418 7.98467 16.2983 7.90067 16.1612C7.82281 16.0097 7.76236 15.8499 7.72044 15.6848C7.6841 15.4833 7.6841 15.2769 7.72044 15.0754C7.76236 14.6973 7.87135 14.3296 8.0423 13.9897C8.17962 13.7322 8.32123 13.6121 8.30836 13.5949C8.29549 13.5778 8.26115 13.6164 8.20108 13.6765C8.11533 13.7582 8.04033 13.8504 7.97791 13.9511C7.78524 14.2925 7.66267 14.6689 7.61742 15.0583C7.5828 15.2751 7.5901 15.4965 7.6389 15.7106C7.68652 15.8804 7.75575 16.0433 7.84488 16.1955C7.91745 16.3393 8.00991 16.4722 8.11954 16.5903Z" fill="white"/>
<path d="M22.7534 19.1654C22.7534 19.1654 22.8092 19.1955 22.8993 19.2641C23.0256 19.3579 23.1176 19.4906 23.1611 19.6418C23.1966 19.7503 23.2026 19.8663 23.1784 19.9779C23.1543 20.0895 23.1009 20.1927 23.0237 20.2769C22.93 20.3792 22.8101 20.454 22.6771 20.4933C22.544 20.5326 22.4027 20.535 22.2684 20.5001C22.1353 20.4556 22.0158 20.3778 21.9212 20.2742C21.8266 20.1705 21.76 20.0444 21.7277 19.9078C21.7013 19.7962 21.6992 19.6803 21.7214 19.5677C21.7436 19.4552 21.7897 19.3488 21.8565 19.2555C21.9441 19.1224 22.0636 19.0132 22.2041 18.938C22.3028 18.8822 22.3629 18.865 22.3586 18.8564C22.2975 18.8581 22.2375 18.8727 22.1826 18.8994C22.0292 18.9691 21.8963 19.077 21.7964 19.2126C21.7186 19.3129 21.664 19.4292 21.6365 19.5531C21.6091 19.6771 21.6095 19.8055 21.6376 19.9293C21.6708 20.0836 21.7436 20.2265 21.849 20.3439C21.9544 20.4613 22.0886 20.5492 22.2384 20.5988C22.3913 20.6391 22.5524 20.6364 22.7038 20.5909C22.8553 20.5455 22.9912 20.4591 23.0967 20.3413C23.1862 20.236 23.2456 20.1085 23.2684 19.9722C23.2826 19.8535 23.2694 19.7331 23.2297 19.6203C23.1755 19.4593 23.0681 19.3215 22.925 19.2298C22.874 19.1946 22.815 19.1725 22.7534 19.1654Z" fill="#ABB4EC"/>
<path d="M13.3162 8.7454C13.2353 8.66679 13.1813 8.56468 13.1617 8.45359C13.1506 8.39229 13.1541 8.32924 13.172 8.26957C13.1899 8.2099 13.2217 8.15531 13.2647 8.11027C13.3193 8.05437 13.3881 8.01443 13.4638 7.99477C13.5394 7.9751 13.619 7.97646 13.6939 7.9987L13.7883 8.03303L13.7497 7.93862C13.7125 7.85322 13.7041 7.75805 13.7258 7.66748C13.7475 7.57691 13.798 7.49584 13.8698 7.43652C13.9478 7.36889 14.0476 7.33165 14.1509 7.33165C14.2542 7.33165 14.3539 7.36889 14.432 7.43652L14.5092 7.36786C14.4951 7.35177 14.4849 7.3327 14.4792 7.31208C14.4677 7.27613 14.4647 7.23797 14.4707 7.20069C14.4767 7.16341 14.4913 7.12806 14.5135 7.09751C14.5343 7.06626 14.5616 7.03979 14.5934 7.01982C14.6252 6.99984 14.6608 6.98683 14.698 6.98164C14.7726 6.96238 14.8509 6.96238 14.9255 6.98164C15.0065 7.01802 15.0942 7.03703 15.183 7.03742C15.2902 7.03742 15.3375 6.93872 15.3933 6.9001C15.4483 6.85877 15.5072 6.82285 15.5692 6.79281C15.6841 6.74097 15.808 6.71183 15.934 6.70699C16.1199 6.69933 16.3043 6.74393 16.4661 6.83573C16.5777 6.9001 16.6335 6.95589 16.6378 6.9473C16.5986 6.88857 16.5474 6.83883 16.4876 6.8014C16.3483 6.70935 16.1883 6.65333 16.022 6.63835C15.8558 6.62337 15.6884 6.6499 15.5349 6.71557C15.4646 6.74604 15.3983 6.78495 15.3375 6.83144C15.2731 6.87864 15.2216 6.93872 15.1658 6.94302C15.093 6.93709 15.0217 6.9182 14.9555 6.88722C14.8641 6.8636 14.7681 6.8636 14.6766 6.88722C14.5759 6.9051 14.4864 6.96221 14.4277 7.04601C14.3976 7.08923 14.3777 7.13873 14.3695 7.19077C14.3613 7.24281 14.3651 7.29603 14.3805 7.3464C14.391 7.38023 14.4069 7.41212 14.4277 7.44082L14.5049 7.36786C14.4072 7.285 14.2833 7.23952 14.1552 7.23952C14.0271 7.23952 13.9031 7.285 13.8054 7.36786C13.7211 7.44375 13.6625 7.54408 13.6379 7.65486C13.6132 7.76564 13.6238 7.88134 13.6681 7.98583L13.7239 7.92574C13.6331 7.89796 13.5363 7.89694 13.4449 7.92282C13.3536 7.9487 13.2716 8.00038 13.2089 8.07165C13.1596 8.12419 13.1244 8.18828 13.1064 8.25803C13.0884 8.32778 13.0882 8.40093 13.1059 8.47075C13.1233 8.55965 13.1684 8.64077 13.2347 8.70249C13.2819 8.7454 13.3119 8.7454 13.3162 8.7454Z" fill="white"/>
<path d="M10.767 9.4148C10.6787 9.33824 10.6108 9.24091 10.5695 9.13157C10.5276 9.00438 10.5368 8.86584 10.5953 8.74534C10.6329 8.66782 10.689 8.60069 10.7586 8.54982C10.8281 8.49895 10.9091 8.46589 10.9944 8.45353H11.0674L11.0202 8.39774C10.9483 8.32566 10.8948 8.23735 10.8641 8.14026C10.8335 8.04317 10.8267 7.94014 10.8442 7.83986C10.8582 7.78842 10.8842 7.74102 10.92 7.7015C10.9558 7.66198 11.0004 7.63146 11.0502 7.61241C11.0985 7.58869 11.1528 7.57971 11.2062 7.58658C11.2596 7.59344 11.3098 7.61586 11.3506 7.65104L11.6381 7.96002L11.4278 7.59096C11.393 7.52554 11.3723 7.45352 11.3671 7.37959C11.3619 7.30565 11.3724 7.23145 11.3978 7.16182C11.4264 7.08618 11.4737 7.019 11.5352 6.96649C11.5967 6.91398 11.6705 6.87784 11.7497 6.86142C11.8646 6.83157 11.9863 6.84375 12.093 6.89575L12.2089 6.95154L12.1617 6.82709C12.093 6.65543 12.2689 6.44944 12.4492 6.42799C12.6378 6.41197 12.8264 6.45875 12.9856 6.56102L13.0843 6.61252L13.0543 6.50953C13.0394 6.44354 13.0427 6.37475 13.0639 6.31051C13.085 6.24626 13.1232 6.18897 13.1744 6.14476C13.2746 6.06081 13.3967 6.00722 13.5263 5.99027C13.742 5.95079 13.963 5.95079 14.1786 5.99027C14.367 6.04021 14.5508 6.10626 14.7279 6.18767C14.6901 6.15089 14.6467 6.12046 14.5992 6.09755C14.4633 6.02686 14.3192 5.97351 14.17 5.93877C13.9488 5.88087 13.7183 5.86774 13.492 5.90015C13.3473 5.91801 13.2106 5.97598 13.0972 6.06751C13.0323 6.12198 12.9836 6.19318 12.9564 6.27338C12.9292 6.35357 12.9244 6.4397 12.9427 6.5224L13.0114 6.46661C12.8329 6.35223 12.6219 6.29947 12.4106 6.31641C12.2913 6.33656 12.1841 6.40092 12.1102 6.49665C12.0694 6.54529 12.042 6.60373 12.0307 6.6662C12.0194 6.72866 12.0246 6.793 12.0458 6.85284L12.1145 6.78847C11.9809 6.72419 11.829 6.70899 11.6853 6.74555C11.5894 6.76666 11.5002 6.81094 11.4254 6.87453C11.3505 6.93812 11.2925 7.01908 11.2562 7.11032C11.2239 7.19657 11.2107 7.28877 11.2173 7.38061C11.224 7.47245 11.2504 7.56177 11.2948 7.64245L11.372 7.58238C11.3178 7.53295 11.25 7.50084 11.1774 7.49013C11.1047 7.47943 11.0306 7.49063 10.9644 7.5223C10.901 7.54762 10.8446 7.5877 10.7998 7.6392C10.755 7.69069 10.7232 7.75213 10.7069 7.8184C10.6874 7.93237 10.6961 8.04936 10.7319 8.15927C10.7678 8.26918 10.8299 8.3687 10.9129 8.44924L10.9386 8.38487C10.8447 8.40315 10.7565 8.44394 10.6818 8.50373C10.6071 8.56352 10.5479 8.64053 10.5095 8.72818C10.4802 8.79592 10.4651 8.86894 10.4651 8.94275C10.4651 9.01655 10.4802 9.08957 10.5095 9.15732C10.5423 9.24304 10.5953 9.31959 10.664 9.38047C10.7412 9.40622 10.767 9.41909 10.767 9.4148Z" fill="white"/>
<path d="M5.29567 9.8916C5.29692 9.83836 5.30941 9.78598 5.33234 9.7379C5.35526 9.68983 5.38811 9.64715 5.4287 9.61266C5.52099 9.52829 5.64275 9.48359 5.76771 9.48821C5.9347 9.49939 6.09863 9.53856 6.25264 9.60408H6.30843V9.544C6.30711 9.44114 6.34279 9.34123 6.40896 9.26246C6.47512 9.18369 6.56737 9.13131 6.66892 9.11486C6.91679 9.08224 7.1688 9.1225 7.39417 9.23073L7.71173 9.3466L7.43707 9.1449C7.40402 9.10929 7.37852 9.06737 7.36208 9.02165C7.34564 8.97593 7.33861 8.92737 7.34141 8.87887C7.34422 8.83037 7.3568 8.78293 7.3784 8.73942C7.4 8.6959 7.43018 8.6572 7.46711 8.62564C7.55693 8.55821 7.65969 8.51007 7.76898 8.48422C7.87828 8.45838 7.99173 8.45539 8.10223 8.47544H8.13227H8.33398L8.16661 8.35957C8.1218 8.32033 8.08668 8.27124 8.06399 8.21617C8.0413 8.16109 8.03165 8.10151 8.03581 8.04209C8.03996 7.98267 8.05779 7.92501 8.08793 7.87363C8.11807 7.82225 8.15968 7.77853 8.20952 7.7459C8.31219 7.69009 8.42927 7.66639 8.54557 7.67787C8.66187 7.68935 8.77203 7.73547 8.86182 7.81027L9.07209 7.97764L8.93047 7.75019C8.85133 7.61399 8.80964 7.45927 8.80964 7.30174C8.80964 7.14422 8.85133 6.98949 8.93047 6.85329C8.99517 6.74701 9.08335 6.65695 9.18823 6.59001C9.29311 6.52306 9.41193 6.48101 9.53557 6.46707C9.69865 6.44729 9.86408 6.46944 10.0162 6.53144C10.1192 6.57435 10.1707 6.61297 10.175 6.60868C10.1793 6.60439 10.175 6.60868 10.1406 6.57435L10.0291 6.5014C9.87331 6.42543 9.69946 6.39423 9.52698 6.41128C9.39306 6.42285 9.26355 6.46482 9.14829 6.53397C9.03302 6.60313 8.93505 6.69766 8.86182 6.81038C8.77214 6.95937 8.72475 7.12999 8.72475 7.30389C8.72475 7.47779 8.77214 7.64841 8.86182 7.7974L8.93047 7.73732C8.82503 7.64851 8.69504 7.59395 8.5578 7.58092C8.42056 7.56788 8.28259 7.597 8.16232 7.66437C8.09974 7.70473 8.04741 7.75907 8.00943 7.82312C7.97145 7.88717 7.94885 7.95916 7.94345 8.03343C7.92859 8.1143 7.93727 8.19774 7.96847 8.27381C7.99966 8.34989 8.05206 8.41541 8.11941 8.46257L8.14946 8.36816H8.11941C7.99399 8.34666 7.86546 8.35159 7.74206 8.38262C7.61865 8.41366 7.50306 8.47012 7.40273 8.5484C7.31203 8.63732 7.25707 8.75641 7.24825 8.88312C7.24257 8.94626 7.25252 9.00981 7.27722 9.06819C7.30191 9.12656 7.34061 9.17796 7.38987 9.21785L7.43277 9.13632C7.19178 9.0192 6.92025 8.9802 6.65603 9.02474C6.53371 9.04626 6.42315 9.11092 6.34442 9.20697C6.26568 9.30303 6.22399 9.42413 6.22689 9.54829L6.27839 9.50967C6.11435 9.44456 5.9399 9.40967 5.76344 9.40668C5.69565 9.40579 5.62838 9.41864 5.56569 9.44445C5.50299 9.47027 5.44617 9.50851 5.39865 9.55687C5.33639 9.61583 5.29688 9.69484 5.28707 9.78003C5.27911 9.81727 5.2821 9.85602 5.29567 9.8916Z" fill="#ABB4EC"/>
<path d="M8.16626 4.67295C8.16626 4.67295 8.20917 4.70299 8.29929 4.72445C8.43192 4.73912 8.56576 4.73912 8.69839 4.72445C8.89279 4.70609 9.08875 4.73556 9.26915 4.81028C9.31931 4.83394 9.36349 4.86861 9.39841 4.9117C9.43333 4.9548 9.45808 5.0052 9.47084 5.05918C9.48824 5.11367 9.48763 5.17232 9.46908 5.22643C9.45053 5.28054 9.41502 5.32723 9.36785 5.35958L9.43652 5.41108C9.45798 5.27804 9.62104 5.1965 9.76694 5.11068C9.91514 5.0168 10.0774 4.94726 10.2476 4.90469C10.3298 4.88276 10.4156 4.87792 10.4998 4.89047C10.5839 4.90302 10.6646 4.93269 10.7368 4.97764C10.8021 5.01636 10.856 5.07171 10.893 5.13806C10.9299 5.2044 10.9486 5.27936 10.9471 5.35529V5.47974L11.0415 5.3982C11.2288 5.2362 11.4639 5.13977 11.711 5.12355C11.9064 5.10532 12.1033 5.13325 12.286 5.20509C12.4428 5.2749 12.5877 5.36904 12.7151 5.48403C12.6935 5.44195 12.6645 5.40414 12.6293 5.37245C12.5331 5.27926 12.4213 5.20372 12.2989 5.1493C12.1101 5.0659 11.904 5.02911 11.6981 5.04202C11.4302 5.05302 11.1736 5.15264 10.9685 5.32525L11.0501 5.36816C11.057 5.27297 11.037 5.17774 10.9922 5.09346C10.9474 5.00918 10.8797 4.93928 10.7969 4.89181C10.7144 4.83895 10.6219 4.80366 10.5252 4.78815C10.4285 4.77264 10.3296 4.77725 10.2347 4.80169C10.0547 4.84913 9.88257 4.92288 9.72404 5.02056C9.65109 5.06776 9.57383 5.11068 9.50088 5.16647C9.42238 5.22104 9.36845 5.30425 9.35069 5.3982V5.49261L9.43223 5.4454C9.49817 5.40418 9.54837 5.34203 9.57482 5.2689C9.60127 5.19577 9.60243 5.11589 9.57812 5.04202C9.56332 4.97584 9.53306 4.91411 9.4898 4.8619C9.44653 4.80968 9.39151 4.76846 9.32924 4.74162C9.13469 4.66362 8.92296 4.63845 8.71555 4.66866C8.58568 4.6814 8.4549 4.6814 8.32504 4.66866C8.21346 4.68154 8.16626 4.66866 8.16626 4.67295Z" fill="#ABB4EC"/>
<path d="M13.2476 2.70315C13.3385 2.70917 13.4289 2.72208 13.5179 2.74178C13.6147 2.77642 13.7027 2.83212 13.7754 2.90485C13.8671 2.9975 13.9246 3.11855 13.9385 3.24816V3.30395H13.99C14.0669 3.29065 14.146 3.30432 14.2141 3.34263C14.2821 3.38094 14.3348 3.44155 14.3633 3.51423C14.4229 3.69741 14.4303 3.89353 14.3848 4.08069L14.3547 4.28239L14.4792 4.11502V4.08928C14.5231 4.0389 14.5781 3.99948 14.64 3.97415C14.7018 3.94882 14.7687 3.93828 14.8354 3.94337C14.9613 3.94827 15.0808 4.00036 15.1701 4.08928C15.2443 4.1705 15.3008 4.26618 15.3363 4.3703C15.3717 4.47443 15.3853 4.58475 15.3761 4.69436C15.3594 4.84245 15.3203 4.98715 15.2602 5.1235C15.2339 5.17435 15.2124 5.2275 15.1958 5.28229C15.1958 5.28229 15.243 5.23937 15.2988 5.14067C15.3769 4.99977 15.4279 4.84547 15.449 4.68578C15.4656 4.56393 15.4549 4.43993 15.4178 4.3227C15.3807 4.20546 15.3181 4.0979 15.2345 4.00774C15.1814 3.95027 15.1171 3.9044 15.0454 3.87303C14.9738 3.84166 14.8964 3.82547 14.8182 3.82547C14.74 3.82547 14.6626 3.84166 14.591 3.87303C14.5193 3.9044 14.455 3.95027 14.4019 4.00774L14.3762 4.04207L14.4706 4.08069C14.5196 3.87288 14.5076 3.65536 14.4363 3.45415C14.3966 3.36204 14.326 3.28672 14.2366 3.24125C14.1473 3.19579 14.0448 3.18305 13.947 3.20525L14.0028 3.24387C13.9821 3.0945 13.911 2.9567 13.8011 2.85335C13.7196 2.77564 13.6189 2.72086 13.5093 2.69457C13.4399 2.68059 13.3684 2.68059 13.2991 2.69457C13.2817 2.69591 13.2644 2.69878 13.2476 2.70315Z" fill="#ABB4EC"/>
<path d="M17.7322 5.81871C17.7782 5.81831 17.8235 5.80807 17.8652 5.78867C17.9832 5.73962 18.0888 5.66485 18.1742 5.56981C18.3037 5.42636 18.3861 5.24661 18.4102 5.05484C18.4017 4.95739 18.4243 4.85975 18.4746 4.7759C18.5347 4.70294 18.6591 4.65574 18.7364 4.53987C18.8073 4.42894 18.833 4.29508 18.8082 4.16579C18.7835 4.03649 18.7102 3.92158 18.6033 3.84466V3.92191C18.7911 3.75422 18.9379 3.54576 19.0325 3.31253C19.0769 3.22445 19.1017 3.12785 19.1054 3.0293C19.1054 3.0293 19.0625 3.128 18.981 3.28678C18.8768 3.50085 18.7309 3.69198 18.5518 3.84895L18.5047 3.88758L18.5561 3.9262C18.6365 3.99114 18.6907 4.08288 18.7088 4.18458C18.7269 4.28627 18.7078 4.39108 18.6548 4.47979C18.6033 4.56991 18.4918 4.60853 18.4016 4.70723C18.3384 4.80839 18.3097 4.92739 18.3201 5.04625C18.3026 5.221 18.2339 5.38669 18.1227 5.5226C18.0109 5.64338 17.8787 5.7436 17.7322 5.81871Z" fill="white"/>
<path d="M19.0498 6.7198C19.0782 6.72505 19.1073 6.72505 19.1356 6.7198C19.2169 6.72856 19.2989 6.72856 19.3803 6.7198C19.6734 6.66312 19.94 6.51247 20.1398 6.29066H20.0712C20.1445 6.383 20.2361 6.45923 20.3402 6.51461C20.4443 6.56998 20.5587 6.60331 20.6763 6.61251C20.8054 6.62199 20.9352 6.60595 21.0582 6.56531C21.196 6.52468 21.3128 6.43245 21.3843 6.30783C21.4031 6.26095 21.4161 6.21195 21.423 6.16192C21.4351 6.12501 21.4574 6.09228 21.4873 6.06751C21.5587 6.01479 21.6407 5.97818 21.7276 5.96022C21.8208 5.94098 21.9096 5.9046 21.9894 5.85294C22.0342 5.82763 22.0713 5.79079 22.097 5.74626C22.1226 5.70173 22.1359 5.65114 22.1353 5.59974L22.071 5.64695C22.2735 5.71967 22.495 5.71967 22.6975 5.64695C22.8606 5.60014 23.0086 5.51136 23.1266 5.38947C23.2001 5.31319 23.257 5.22262 23.294 5.1234C23.3198 5.05474 23.324 5.01611 23.3198 5.01611C23.2608 5.13927 23.1825 5.25226 23.088 5.35084C22.9753 5.45461 22.8402 5.53098 22.6932 5.574C22.5069 5.62984 22.3072 5.62076 22.1267 5.54825L22.0538 5.51821V5.59116C22.0528 5.62617 22.0422 5.66023 22.0233 5.68971C22.0045 5.71919 21.9779 5.74298 21.9465 5.75853C21.8743 5.80424 21.7943 5.83624 21.7105 5.85294C21.6108 5.87342 21.5169 5.91594 21.4358 5.97739C21.3912 6.01434 21.3584 6.06358 21.3414 6.119C21.3414 6.1705 21.32 6.222 21.3028 6.25633C21.2411 6.35319 21.1467 6.42475 21.0367 6.45802C20.9277 6.49491 20.8125 6.5095 20.6977 6.50094C20.4873 6.48339 20.292 6.38494 20.1527 6.22629L20.1184 6.18337L20.084 6.222C19.8979 6.43248 19.6526 6.58202 19.3803 6.65114C19.17 6.71551 19.0498 6.70693 19.0498 6.7198Z" fill="white"/>
<path d="M27.156 9.87381C27.156 9.87381 27.156 9.87381 27.156 9.83948C27.1601 9.80384 27.1601 9.76783 27.156 9.73219C27.169 9.58743 27.153 9.44152 27.1088 9.30305C27.04 9.10053 26.9463 8.90736 26.8298 8.728C26.7647 8.61218 26.6886 8.50295 26.6024 8.40185C26.5518 8.34483 26.4905 8.29818 26.4221 8.26453C26.3837 8.24459 26.341 8.23419 26.2977 8.23419C26.2544 8.23419 26.2117 8.24459 26.1732 8.26453L26.2376 8.30745C26.2476 8.18042 26.223 8.05304 26.1663 7.93892C26.1096 7.82479 26.023 7.7282 25.9157 7.65944C25.7936 7.58636 25.652 7.55252 25.51 7.56249C25.368 7.57247 25.2326 7.62578 25.1218 7.71523L25.2077 7.75386C25.2082 7.67882 25.1909 7.60472 25.1574 7.5376C25.1238 7.47048 25.0749 7.41225 25.0146 7.36763C24.954 7.32185 24.8823 7.29296 24.8069 7.28391C24.7315 7.27486 24.6551 7.28598 24.5854 7.31613C24.5056 7.34665 24.4358 7.39863 24.3837 7.46633L24.4781 7.50495C24.4805 7.45822 24.4716 7.41161 24.4522 7.36903C24.4328 7.32646 24.4034 7.28918 24.3666 7.26034C24.3019 7.20403 24.2204 7.17081 24.1348 7.16593C23.9847 7.16698 23.8373 7.20533 23.7057 7.27751H23.77C23.6701 7.12505 23.5172 7.01499 23.3409 6.96853C23.176 6.92781 23.0037 6.92781 22.8388 6.96853C22.5603 7.05333 22.2978 7.18385 22.0621 7.35476L22.1179 7.40196C22.1306 7.37271 22.1353 7.34061 22.1315 7.30894C22.1277 7.27728 22.1156 7.24718 22.0964 7.22172C22.0633 7.18051 22.0206 7.14808 21.9719 7.12731C21.8853 7.09076 21.791 7.07602 21.6973 7.08439C21.5487 7.10373 21.404 7.1457 21.2682 7.20885C21.1878 7.24665 21.1116 7.29267 21.0407 7.34617C21.0139 7.36295 20.9894 7.38314 20.9678 7.40625C20.9678 7.40625 21.0751 7.3333 21.2853 7.24747C21.413 7.19491 21.5473 7.16025 21.6844 7.14447C21.7669 7.13766 21.8497 7.15245 21.9247 7.18739C22.002 7.22172 22.0707 7.29468 22.032 7.37192L21.9762 7.4835L22.0878 7.41913C22.3167 7.25853 22.5704 7.13674 22.8388 7.05865C22.9895 7.02014 23.1474 7.02014 23.298 7.05865C23.4572 7.09462 23.5959 7.19172 23.6842 7.329V7.36334H23.7228C23.8447 7.29884 23.9798 7.26358 24.1176 7.26034C24.2378 7.26034 24.3708 7.37192 24.3623 7.49208V7.67232L24.4695 7.52641C24.5106 7.47272 24.5655 7.43119 24.6283 7.40625C24.6837 7.38456 24.7435 7.37675 24.8026 7.38348C24.8617 7.39021 24.9183 7.41129 24.9674 7.44487C25.0139 7.47997 25.0516 7.52534 25.0777 7.57746C25.1037 7.62957 25.1174 7.68701 25.1176 7.74527V7.88689L25.2034 7.81822C25.2982 7.74269 25.4136 7.69741 25.5345 7.68822C25.6554 7.67904 25.7762 7.70639 25.8814 7.76673C25.9748 7.82557 26.0507 7.90834 26.1013 8.00645C26.1518 8.10456 26.1752 8.21442 26.1689 8.32461V8.41044L26.2419 8.36753C26.3492 8.30315 26.4822 8.39327 26.5723 8.48339C26.6557 8.57956 26.7304 8.68296 26.7955 8.79237C26.9153 8.96342 27.012 9.14957 27.083 9.34596C27.1448 9.51468 27.1696 9.69467 27.156 9.87381Z" fill="white"/>
<path d="M26.585 12.8826C26.585 12.8826 26.585 12.8826 26.6365 12.8183C26.6814 12.7526 26.7216 12.6837 26.7567 12.6123C26.8169 12.4959 26.845 12.3655 26.8382 12.2346C26.8302 12.1526 26.8038 12.0734 26.761 12.0029C26.7097 11.918 26.6286 11.8553 26.5335 11.8269V11.8827C26.5834 11.8085 26.6119 11.7219 26.6157 11.6326C26.6195 11.5432 26.5984 11.4545 26.555 11.3763C26.5015 11.2872 26.4213 11.2173 26.3258 11.1764C26.2302 11.1356 26.1242 11.126 26.0228 11.1489L26.07 11.2219C26.1179 11.1549 26.1437 11.0746 26.1437 10.9923C26.1437 10.9099 26.1179 10.8297 26.07 10.7627C26.0173 10.7 25.9517 10.6496 25.8776 10.6148C25.8035 10.5799 25.7228 10.5616 25.6409 10.561C25.5551 10.561 25.4778 10.561 25.4135 10.561C25.3815 10.5533 25.3519 10.538 25.3272 10.5163C25.3025 10.4946 25.2835 10.4672 25.2718 10.4365C25.2379 10.3564 25.1931 10.2813 25.1388 10.2134C25.073 10.1448 24.9875 10.0983 24.8942 10.0803C24.713 10.0613 24.5304 10.0613 24.3492 10.0803C24.1949 10.0948 24.0409 10.0486 23.9201 9.9516C23.8692 9.88849 23.8219 9.82258 23.7784 9.7542C23.724 9.68505 23.6532 9.63049 23.5725 9.59542C23.4958 9.5623 23.4125 9.5474 23.3291 9.55186C23.2457 9.55633 23.1645 9.58005 23.0918 9.62116L23.1519 9.68554C23.1938 9.61108 23.2109 9.52525 23.2009 9.44042C23.1909 9.35558 23.1542 9.27612 23.0961 9.21348C22.9965 9.10245 22.8585 9.03342 22.7099 9.02037C22.4834 9.00928 22.2568 9.03833 22.0404 9.10619C21.9006 9.14628 21.7654 9.20094 21.637 9.26927C21.5903 9.28799 21.5468 9.31406 21.5083 9.34652C21.686 9.27271 21.868 9.20966 22.0533 9.15769C22.2642 9.1004 22.4834 9.08007 22.7013 9.09761C22.8287 9.10925 22.947 9.16912 23.0317 9.26498C23.0763 9.31435 23.1047 9.37615 23.1131 9.44212C23.1216 9.50808 23.1096 9.57505 23.0789 9.63404L22.9674 9.79711L23.139 9.69841C23.2 9.66681 23.2677 9.65031 23.3364 9.65031C23.4051 9.65031 23.4728 9.66681 23.5338 9.69841C23.6006 9.72474 23.6586 9.76936 23.7012 9.82715C23.7462 9.89935 23.7964 9.9682 23.8514 10.0331C23.9165 10.1013 24 10.149 24.0917 10.1705C24.182 10.1894 24.2741 10.1981 24.3664 10.1962C24.5403 10.1768 24.7159 10.1768 24.8899 10.1962C24.9633 10.2064 25.0304 10.2431 25.0787 10.2992C25.1284 10.3586 25.1689 10.4252 25.1989 10.4966C25.2172 10.5414 25.2465 10.581 25.2839 10.6117C25.3214 10.6424 25.3659 10.6633 25.4135 10.6726C25.4935 10.6769 25.5737 10.6769 25.6538 10.6726C25.7228 10.6714 25.7912 10.6854 25.8543 10.7136C25.9173 10.7418 25.9734 10.7834 26.0185 10.8356C26.0548 10.8855 26.0744 10.9456 26.0744 11.0073C26.0744 11.069 26.0548 11.1291 26.0185 11.1789L25.937 11.2819L26.0658 11.2519C26.1466 11.237 26.2301 11.2457 26.3061 11.2769C26.3822 11.3081 26.4477 11.3605 26.4949 11.4278C26.5326 11.4931 26.5524 11.5671 26.5524 11.6424C26.5524 11.7177 26.5326 11.7917 26.4949 11.857L26.4692 11.8999H26.5164C26.5897 11.9244 26.6541 11.97 26.7015 12.0312C26.7489 12.0923 26.777 12.1661 26.7824 12.2432C26.7926 12.3641 26.7704 12.4856 26.718 12.5951C26.6451 12.7839 26.5764 12.8783 26.585 12.8826Z" fill="#ABB4EC"/>
<path d="M26.4092 19.1393C26.4092 19.1393 26.4478 19.1393 26.5122 19.105C26.6024 19.0618 26.6816 18.9987 26.7439 18.9204C26.8469 18.7999 26.9085 18.6495 26.9199 18.4913C26.9243 18.386 26.9076 18.2808 26.8707 18.1821C26.8339 18.0833 26.7776 17.9929 26.7053 17.9162V17.972C26.8305 17.8228 26.9226 17.6488 26.9756 17.4614C26.9992 17.351 26.9902 17.2363 26.9499 17.1309C26.9293 17.0738 26.8969 17.0217 26.8547 16.9781C26.8126 16.9344 26.7616 16.9002 26.7053 16.8777V16.9678C26.7908 16.9082 26.8594 16.8275 26.9045 16.7335C26.9496 16.6395 26.9697 16.5354 26.9628 16.4314C26.9561 16.3125 26.9191 16.1973 26.8555 16.0967C26.7914 16.0001 26.6982 15.9264 26.5894 15.8864C26.4907 15.8392 26.4435 15.7963 26.4435 15.6976C26.4401 15.594 26.4168 15.492 26.3748 15.3972C26.2883 15.2212 26.1546 15.0726 25.9886 14.9681L25.6024 14.6934C25.4166 14.552 25.2031 14.4511 24.9758 14.3973C24.9131 14.3904 24.8498 14.3904 24.787 14.3973H24.7227C24.8049 14.4071 24.8866 14.4214 24.9673 14.4402C25.1838 14.5067 25.3861 14.6129 25.5638 14.7535L25.9414 15.041C26.0885 15.1347 26.2072 15.2667 26.2847 15.4229C26.3231 15.508 26.3436 15.6 26.3448 15.6933C26.3454 15.7536 26.3649 15.8121 26.4006 15.8607C26.4419 15.9043 26.4915 15.9393 26.5465 15.9637C26.6381 16.0008 26.7167 16.0643 26.7725 16.1459C26.8282 16.2276 26.8586 16.324 26.8598 16.4228C26.8639 16.5063 26.8468 16.5895 26.81 16.6646C26.7732 16.7396 26.718 16.8041 26.6495 16.852L26.5637 16.9078L26.6581 16.9421C26.7419 16.9836 26.8088 17.0529 26.8471 17.1383C26.8855 17.2236 26.893 17.3196 26.8684 17.4099C26.8202 17.585 26.7369 17.7485 26.6237 17.8905V17.9205L26.6495 17.9463C26.7152 18.0138 26.7669 18.0938 26.8015 18.1814C26.8361 18.2691 26.853 18.3627 26.8512 18.457C26.8493 18.6046 26.7996 18.7477 26.7096 18.8646C26.6292 18.9757 26.5269 19.0691 26.4092 19.1393Z" fill="#ABB4EC"/>
<path d="M23.2123 16.4702C23.261 16.4698 23.3092 16.4596 23.3539 16.4401C23.4838 16.3978 23.6056 16.334 23.7144 16.2513C23.8938 16.1295 24.041 15.9661 24.1435 15.775C24.2171 15.6558 24.2431 15.5133 24.2165 15.3759C24.2038 15.3376 24.183 15.3025 24.1556 15.2729C24.1282 15.2433 24.0948 15.2199 24.0577 15.2042C24.0173 15.1842 23.9717 15.1772 23.9271 15.1841C23.8826 15.191 23.8413 15.2115 23.8088 15.2428L23.886 15.29C23.9477 15.1682 23.9716 15.0307 23.9547 14.8952C23.9376 14.8181 23.8935 14.7495 23.8302 14.7021C23.7957 14.6798 23.7567 14.6652 23.716 14.6593C23.6753 14.6534 23.6337 14.6563 23.5942 14.6678C23.538 14.6886 23.4781 14.6973 23.4183 14.6935C23.3796 14.6935 23.3711 14.6335 23.3754 14.5562C23.3749 14.3965 23.3135 14.243 23.2037 14.1271C23.1177 14.0313 23.0066 13.9616 22.8829 13.9259C22.7592 13.8902 22.628 13.8901 22.5042 13.9254L22.5729 13.9897C22.6051 13.8941 22.6122 13.7917 22.5934 13.6925C22.5746 13.5932 22.5306 13.5005 22.4656 13.4233C22.4279 13.3898 22.3836 13.3645 22.3356 13.349C22.2876 13.3335 22.2368 13.3281 22.1866 13.3332C22.1362 13.3366 22.0878 13.3541 22.0468 13.3837C22.0059 13.4133 21.974 13.4538 21.9549 13.5005H22.045C22.0567 13.2401 21.9957 12.9816 21.8691 12.7538C21.7748 12.5772 21.643 12.4234 21.4828 12.3032C21.3835 12.2229 21.272 12.1592 21.1524 12.1144C21.1119 12.0953 21.0683 12.0837 21.0237 12.0801C21.1754 12.1522 21.3193 12.2399 21.4528 12.3419C21.597 12.4606 21.7165 12.6064 21.8047 12.771C21.9188 12.9888 21.9708 13.2337 21.9549 13.4791L21.9292 13.8524L22.0407 13.4962C22.0794 13.3718 22.2939 13.3546 22.3969 13.4576C22.4484 13.5235 22.4824 13.6013 22.4959 13.6838C22.5094 13.7663 22.502 13.8508 22.4742 13.9297L22.4484 14.0198L22.5385 13.9897C22.6427 13.9601 22.7532 13.9604 22.8572 13.9908C22.9613 14.0212 23.0546 14.0803 23.1265 14.1614C23.2203 14.26 23.2739 14.3901 23.2767 14.5262C23.2707 14.566 23.2707 14.6065 23.2767 14.6463C23.282 14.6719 23.2939 14.6957 23.3112 14.7152C23.3285 14.7348 23.3506 14.7495 23.3754 14.7579C23.4511 14.7792 23.5313 14.7792 23.6071 14.7579C23.6315 14.7448 23.6588 14.7379 23.6865 14.7379C23.7142 14.7379 23.7415 14.7448 23.7659 14.7579C23.8092 14.7908 23.8396 14.8379 23.8517 14.8909C23.8655 15.0088 23.8446 15.1281 23.7916 15.2343L23.6929 15.4832L23.8689 15.2815C23.9375 15.1999 24.1049 15.2815 24.1264 15.3759C24.1486 15.4919 24.1288 15.6121 24.0706 15.7149C23.9819 15.8975 23.8527 16.0575 23.6929 16.1827C23.5495 16.3042 23.3872 16.4013 23.2123 16.4702Z" fill="#ABB4EC"/>
<path d="M18.0625 10.1272C18.1719 10.111 18.2762 10.0699 18.3672 10.007C18.4755 9.94834 18.5693 9.86624 18.6418 9.76671C18.6871 9.70582 18.7195 9.63642 18.7372 9.56267C18.7549 9.48892 18.7575 9.41235 18.7448 9.33757C18.735 9.30017 18.7206 9.26413 18.7019 9.23028L18.6805 9.30324C18.745 9.2688 18.8011 9.22056 18.8449 9.16197C18.8886 9.10337 18.919 9.03586 18.9337 8.96422C18.956 8.84852 18.9329 8.72867 18.8693 8.62949C18.7534 8.46642 18.6204 8.44925 18.6247 8.45783C18.629 8.46642 18.7277 8.51362 18.8092 8.66382C18.8516 8.75031 18.8637 8.84856 18.8435 8.94276C18.8284 8.99907 18.802 9.0517 18.7658 9.09745C18.7296 9.14319 18.6846 9.18109 18.6333 9.20883L18.5903 9.23458V9.28178C18.6047 9.30713 18.6149 9.33468 18.6204 9.36332C18.6328 9.42688 18.6324 9.49228 18.6191 9.55566C18.6058 9.61905 18.58 9.67914 18.5431 9.73238C18.4802 9.8242 18.4001 9.9029 18.3071 9.96411C18.2205 10.0104 18.1385 10.065 18.0625 10.1272Z" fill="#ABB4EC"/>
<path d="M15.6551 9.02418C15.5929 8.90868 15.5674 8.77691 15.5822 8.64654C15.5934 8.57692 15.6215 8.51114 15.6642 8.455C15.7069 8.39887 15.7627 8.35411 15.8268 8.32468C15.9073 8.28997 15.996 8.27881 16.0826 8.29248C16.1692 8.30615 16.2501 8.3441 16.316 8.40193L16.3804 8.46201V8.37618C16.4004 8.26847 16.4396 8.16525 16.4962 8.07149C16.5243 8.02479 16.5616 7.98432 16.6059 7.95259C16.6502 7.92085 16.7005 7.89852 16.7537 7.88696C16.9168 7.88696 17.1013 8.01999 17.0584 8.15303H17.1528C17.1783 7.9516 17.2796 7.76744 17.4361 7.63806C17.5586 7.53969 17.7084 7.48127 17.8652 7.47069C18.0118 7.46905 18.1575 7.49526 18.2943 7.54794C18.2943 7.54794 18.2643 7.51361 18.1914 7.47928C18.0883 7.4297 17.9752 7.40472 17.8609 7.40632C17.6839 7.40661 17.5118 7.46545 17.3717 7.57369C17.1909 7.71133 17.0721 7.91503 17.0413 8.14015H17.14C17.1542 8.0855 17.152 8.02787 17.1337 7.97444C17.1154 7.92102 17.0817 7.87418 17.037 7.83975C16.9508 7.7677 16.8399 7.73227 16.728 7.74105C16.6597 7.75421 16.5949 7.78166 16.538 7.8216C16.481 7.86153 16.4332 7.91306 16.3975 7.97279C16.3319 8.07697 16.2895 8.19406 16.2731 8.3161L16.3546 8.28606C16.2747 8.21594 16.1757 8.17115 16.0703 8.1574C15.9648 8.14365 15.8577 8.16154 15.7624 8.20882C15.688 8.24455 15.624 8.29885 15.5766 8.3665C15.5293 8.43415 15.5002 8.51286 15.4921 8.59504C15.4806 8.69898 15.5016 8.80391 15.5522 8.89544C15.572 8.94818 15.608 8.99326 15.6551 9.02418Z" fill="#ABB4EC"/>
<path d="M3.22287 33.2798L1.59644 44.1885C1.59644 44.1885 1.66509 47.7933 3.22287 47.6216C4.78065 47.45 7.25679 44.4803 7.25679 44.4803L6.61738 34.3269L3.22287 33.2798Z" fill="#B78876"/>
<path d="M5.13258 27.7396L3.2229 33.2798L6.61741 34.3312C6.61741 34.3312 8.13228 33.2369 8.41981 32.6147L8.80172 31.8808C8.84057 31.9245 8.89131 31.9558 8.94772 31.9711C9.00412 31.9863 9.06374 31.9848 9.11928 31.9667C9.32098 31.9109 9.69434 31.3616 9.69434 31.3616C9.73475 31.4154 9.78726 31.4591 9.84764 31.4889C9.90803 31.5187 9.9746 31.5339 10.0419 31.5332C10.2737 31.5332 10.2994 31.3315 10.4453 31.1041C10.5912 30.8766 10.4453 27.8426 10.4453 27.8426C10.4453 27.8426 11.0504 28.5936 11.4838 28.6237C11.9173 28.6537 12.0289 28.4777 12.0289 28.4777L11.3079 26.7097L9.38108 25.7055C9.30227 25.6639 9.21329 25.6454 9.12444 25.6523C9.03559 25.6591 8.95047 25.691 8.87896 25.7441L7.24394 26.95L6.0209 27.0401C5.82075 27.0574 5.63 27.1328 5.47217 27.2571C5.31433 27.3814 5.19629 27.5491 5.13258 27.7396Z" fill="#B78876"/>
<path d="M6.47583 29.4432C6.47583 29.3874 6.70327 29.3359 6.79339 29.1299C6.88351 28.924 6.76335 28.7266 6.79339 28.7008C6.82343 28.6751 6.88351 28.7008 6.95217 28.7952C6.99253 28.8585 7.01677 28.9307 7.02276 29.0055C7.02874 29.0803 7.01629 29.1555 6.98651 29.2244C6.95972 29.2963 6.91412 29.3597 6.8545 29.408C6.79487 29.4563 6.7234 29.4877 6.6475 29.499C6.55738 29.5119 6.47583 29.4733 6.47583 29.4432Z" fill="#AA6550"/>
<path d="M5.93506 32.3477C6.18832 31.892 6.383 31.4061 6.51441 30.9015C6.5683 30.3828 6.55531 29.8592 6.47578 29.3438C6.49724 29.3438 6.60022 29.4939 6.68176 29.7729C6.77559 30.1538 6.78583 30.5505 6.71175 30.9357C6.63767 31.3209 6.48103 31.6855 6.25262 32.0044C6.10242 32.2447 5.95222 32.3477 5.93506 32.3477Z" fill="#AA6550"/>
<path d="M7.25257 27.6622C7.40443 27.6268 7.56018 27.6109 7.71604 27.6149C8.01644 27.6149 8.44987 27.5892 9.00346 27.5806L8.93049 27.6192C8.94274 27.6033 8.95959 27.5914 8.97876 27.5853C8.99794 27.5791 9.01853 27.579 9.03778 27.5849H9.06355L9.085 27.6064L9.11504 27.6493L9.17083 27.7265L9.27812 27.8939C9.3525 28.0055 9.42544 28.1213 9.49696 28.2415C9.64287 28.4904 9.80166 28.7522 9.96044 29.0268V29.0569C9.96044 29.3272 9.96044 29.6104 9.96044 29.9151V29.9666L9.92183 30.001L9.22233 30.6318L8.50135 31.2111L8.40695 31.2841L8.34257 31.1897C8.24103 31.0326 8.16972 30.858 8.1323 30.6747C8.07827 30.4879 8.09507 30.2877 8.1795 30.1125L8.57003 29.8207C8.72023 29.7049 8.7374 29.7049 8.66016 29.5761C8.47648 29.3546 8.36028 29.085 8.32542 28.7994L8.42411 28.8637C8.05736 28.9454 7.67797 28.9527 7.30836 28.8852C7.17236 28.871 7.0408 28.8286 6.92212 28.7607C7.40866 28.8352 7.90477 28.8192 8.3855 28.7135L8.46704 28.6921V28.7779C8.50586 29.0352 8.61926 29.2754 8.79319 29.4688C8.82734 29.5092 8.85167 29.557 8.86433 29.6083C8.87698 29.6597 8.87761 29.7133 8.86614 29.7649C8.8241 29.8527 8.75686 29.9259 8.67302 29.9752L8.28678 30.2799L8.30826 30.2542C8.2794 30.3973 8.27973 30.5449 8.30923 30.6879C8.33872 30.831 8.39676 30.9666 8.4799 31.0867L8.32542 31.0652L9.04207 30.4816L9.76302 29.9066L9.72012 29.9924C9.72012 29.7006 9.72012 29.4173 9.72012 29.1341V29.1856L9.29098 28.396C9.21803 28.2758 9.14937 28.1557 9.085 28.0441L8.98201 27.8767L8.93479 27.8038L8.90904 27.7694C8.90904 27.7694 8.90904 27.7694 8.90904 27.748C8.91859 27.7382 8.92591 27.7265 8.93049 27.7136V27.7952L7.64307 27.7566C7.50947 27.7415 7.3783 27.7098 7.25257 27.6622Z" fill="#AA6550"/>
<path d="M8.9175 30.8416C8.96471 30.8803 8.84454 31.1034 8.80592 31.3995C8.7673 31.6956 8.80592 31.9402 8.75013 31.966C8.69434 31.9917 8.52697 31.73 8.58276 31.3652C8.63855 31.0004 8.87459 30.7944 8.9175 30.8416Z" fill="#AA6550"/>
<path d="M7.85327 27.1341C8.14685 27.0212 8.46386 26.9828 8.77591 27.0225C9.12241 27.0083 9.46859 27.0578 9.79726 27.1684C9.86134 27.1956 9.91534 27.2422 9.95175 27.3015C9.97699 27.3484 9.99852 27.3971 10.0161 27.4474C10.0505 27.5418 10.0805 27.6405 10.1105 27.7392C10.1746 27.9447 10.2262 28.154 10.265 28.3657C10.4052 29.1108 10.3759 29.8779 10.1792 30.6101C10.1109 30.9211 9.9474 31.2031 9.71143 31.4169C9.83528 31.1378 9.94137 30.8512 10.029 30.5587C10.1646 29.8426 10.1646 29.1075 10.029 28.3915C9.99039 28.1855 9.93888 27.9838 9.8831 27.7907C9.85735 27.692 9.8273 27.5976 9.79726 27.5075C9.76722 27.4173 9.76294 27.4045 9.75006 27.3873C9.73719 27.3701 9.71573 27.3573 9.68998 27.3401C9.38665 27.2371 9.0702 27.1779 8.75016 27.1642C8.47122 27.1642 8.23949 27.1384 8.085 27.1341C8.0079 27.1409 7.93037 27.1409 7.85327 27.1341Z" fill="#AA6550"/>
<path d="M3.2229 33.2794C3.22925 33.2269 3.24076 33.1752 3.25724 33.1249C3.29586 33.0048 3.33877 32.8631 3.39027 32.6958L3.90095 31.0607C4.13698 30.357 4.41591 29.5201 4.72919 28.576L4.97809 27.8422C5.04631 27.5542 5.21914 27.3018 5.46302 27.1341C5.59234 27.0472 5.7386 26.9887 5.89216 26.9625C6.05095 26.9367 6.17969 26.9324 6.3213 26.9195L7.20963 26.8509H7.15813L8.01641 26.2115L8.44555 25.881L8.67298 25.7137C8.75352 25.6426 8.84669 25.5873 8.94764 25.5506C9.06098 25.5163 9.18191 25.5163 9.29524 25.5506C9.39055 25.5899 9.48365 25.6343 9.57417 25.6836L10.0891 25.954L11.1448 26.5033L11.3165 26.5934H11.3551V26.632C11.5954 27.2371 11.8357 27.825 12.0718 28.4044L12.0975 28.4644L12.0589 28.5031C11.9884 28.5731 11.9036 28.6271 11.8102 28.6612C11.7169 28.6953 11.6172 28.7087 11.5182 28.7005C11.3352 28.7003 11.1567 28.6433 11.0075 28.5374C10.7421 28.3524 10.505 28.1298 10.3037 27.8765L10.4925 27.8036C10.5226 28.6061 10.5483 29.3699 10.544 30.0909C10.544 30.2754 10.544 30.4514 10.544 30.6273C10.5525 30.8131 10.5172 30.9983 10.441 31.168L10.3209 31.3869C10.2958 31.4336 10.2617 31.4747 10.2204 31.5079C10.1791 31.5411 10.1315 31.5656 10.0806 31.58C9.98536 31.5962 9.88752 31.5854 9.79806 31.549C9.70861 31.5127 9.63107 31.452 9.57417 31.374H9.71149C9.59344 31.55 9.45832 31.7138 9.3081 31.8632C9.22969 31.9498 9.12338 32.006 9.00773 32.022C8.94849 32.0261 8.8891 32.0167 8.83407 31.9943C8.77904 31.972 8.7298 31.9375 8.69014 31.8933H8.81461L8.4713 32.5456C8.36697 32.7455 8.23394 32.9291 8.07647 33.0906C7.83073 33.3411 7.56838 33.5748 7.29117 33.7901C7.06372 33.966 6.88776 34.0948 6.76331 34.1806C6.70267 34.2286 6.63639 34.2689 6.56592 34.3008C6.6185 34.2443 6.67593 34.1926 6.73756 34.1463L7.23967 33.7171C7.50194 33.4926 7.75124 33.2533 7.98637 33.0005C8.27255 32.6402 8.50658 32.2415 8.68157 31.816L8.73307 31.7216L8.80602 31.8032C8.83083 31.8273 8.8605 31.8459 8.89305 31.8578C8.92561 31.8696 8.9603 31.8744 8.99484 31.8718C9.07424 31.8571 9.14577 31.8145 9.19655 31.7517C9.33554 31.6068 9.46186 31.4503 9.57417 31.2839L9.64284 31.1852L9.71579 31.2839C9.75344 31.3326 9.80383 31.37 9.86137 31.392C9.91891 31.414 9.98139 31.4196 10.0419 31.4083C10.1406 31.4083 10.1964 31.2324 10.2823 31.0779C10.3409 30.9338 10.3658 30.7782 10.3552 30.623C10.3552 30.4514 10.3552 30.2754 10.3552 30.0952C10.3552 29.3828 10.3209 28.6189 10.2823 27.8207V27.5075L10.484 27.7478C10.6872 27.9999 10.9273 28.2198 11.1963 28.4001C11.31 28.4819 11.4468 28.5255 11.5868 28.5245C11.7135 28.5349 11.8397 28.4999 11.943 28.4258V28.5288L11.1963 26.7693L11.2478 26.8251L11.0762 26.735L10.0205 26.1857C9.84883 26.0913 9.67717 26.0012 9.50552 25.9154C9.32099 25.8124 9.19653 25.7394 9.04633 25.7909C8.97041 25.8235 8.89959 25.8668 8.83606 25.9197L8.6129 26.087L8.18376 26.4132L7.32548 27.0526H7.29973H7.26969L6.38139 27.1169C6.11165 27.102 5.84295 27.1614 5.60462 27.2886C5.39022 27.4307 5.23705 27.6482 5.17548 27.898C5.08965 28.1469 5.00384 28.3915 4.91801 28.6275C4.58757 29.5673 4.29146 30.3956 4.05973 31.0951C3.82799 31.7946 3.63059 32.301 3.4761 32.7044L3.31303 33.1335C3.28987 33.1861 3.25953 33.2352 3.2229 33.2794Z" fill="#AA6550"/>
</svg>
