<svg width="88" height="90" viewBox="0 0 88 90" fill="none" xmlns="http://www.w3.org/2000/svg">
<ellipse cx="43.7496" cy="44" rx="43.4762" ry="44" fill="#CDF1FF"/>
<path d="M20.0427 65.912C20.0574 65.6917 20.1245 65.4781 20.2384 65.289C20.3523 65.0999 20.5097 64.9407 20.6975 64.8247C26.5108 60.9781 30.8913 52.449 31.3287 45.2294C31.3287 44.8187 31.3528 44.4007 31.3673 43.9802C31.7032 33.6583 33.223 21.1376 34.5881 17.8009C37.1106 11.6323 45.6542 11.0524 45.6542 11.0524C56.9886 10.243 59.0109 18.951 60.1514 26.8833C60.8617 31.8147 63.6041 49.4336 63.6041 49.4336L61.5165 50.2382C59.0641 57.5085 53.5431 63.3895 46.3549 66.0956C44.2674 66.8809 42.489 67.1974 41.6675 66.5209C38.354 69.8878 34.2558 72.3786 29.7412 73.7694C27.9122 74.3276 25.9937 74.6996 24.0874 74.5208C22.8527 74.4049 21.548 73.9965 20.8086 72.9962C20.4884 72.5628 20.2981 72.0472 20.2599 71.5097C20.2217 70.9722 20.3371 70.4349 20.5926 69.9605C20.8482 69.486 21.2334 69.0941 21.7033 68.8303C22.1732 68.5665 22.7084 68.4418 23.2465 68.4707C22.8189 67.0717 19.9919 67.4801 20.0427 65.912Z" fill="#161B46"/>
<path d="M44.1385 14.2587L44.8489 13.5822L52.5106 16.67C53.0451 16.7005 53.5488 16.93 53.9226 17.3132C54.2964 17.6964 54.5133 18.2056 54.5305 18.7407L54.4629 43.7144C54.4629 45.4058 54.1319 46.8748 53.1098 48.223L52.0346 49.6437C49.5798 52.8839 44.5444 52.6181 42.5921 49.047C42.4724 48.8455 42.3813 48.6284 42.3215 48.4018C42.2724 48.2181 42.2336 48.0318 42.2056 47.8437C41.9784 45.8358 41.9639 44.0938 41.9639 44.0938C41.8262 41.8878 41.7803 40.9841 41.7803 41.0035C41.7803 41.0228 37.0881 40.4647 35.8196 34.4411C35.189 31.445 35.3073 27.323 35.4861 23.2687C35.7326 17.6438 39.6275 14.2539 44.1385 14.2587Z" fill="#A2675F"/>
<path d="M45.71 26.6224C45.7181 26.8253 45.8054 27.017 45.953 27.1565C46.1006 27.296 46.297 27.3723 46.5001 27.369C46.5996 27.3722 46.6988 27.3554 46.7917 27.3196C46.8846 27.2838 46.9694 27.2297 47.0411 27.1606C47.1127 27.0914 47.1698 27.0086 47.2088 26.9169C47.2479 26.8253 47.2681 26.7268 47.2684 26.6272C47.2602 26.424 47.1731 26.2321 47.0255 26.0922C46.878 25.9523 46.6816 25.8755 46.4783 25.8782C46.3787 25.8756 46.2797 25.8929 46.1869 25.9291C46.0941 25.9653 46.0094 26.0196 45.9379 26.0889C45.8663 26.1582 45.8093 26.2411 45.7702 26.3327C45.731 26.4243 45.7106 26.5228 45.71 26.6224Z" fill="#161B46"/>
<path d="M37.7891 26.835C37.7972 27.038 37.8845 27.2297 38.0321 27.3692C38.1797 27.5087 38.3761 27.5849 38.5792 27.5816C38.6787 27.5848 38.7779 27.5681 38.8708 27.5323C38.9637 27.4965 39.0485 27.4424 39.1202 27.3732C39.1918 27.304 39.2489 27.2212 39.2879 27.1296C39.327 27.038 39.3472 26.9394 39.3475 26.8398C39.3387 26.6369 39.2514 26.4453 39.104 26.3055C38.9565 26.1657 38.7606 26.0888 38.5574 26.0908C38.4578 26.0883 38.3588 26.1056 38.266 26.1418C38.1732 26.1779 38.0885 26.2323 38.017 26.3016C37.9454 26.3709 37.8884 26.4537 37.8493 26.5453C37.8101 26.6369 37.7897 26.7354 37.7891 26.835Z" fill="#161B46"/>
<path d="M36.2889 24.8683C36.3903 24.9649 36.9581 24.4986 37.7966 24.4575C38.635 24.4164 39.2704 24.8078 39.355 24.6991C39.3985 24.6508 39.2898 24.4744 39.0143 24.2908C38.6386 24.0594 38.2009 23.9489 37.7603 23.9743C37.3197 23.9917 36.8962 24.1501 36.5522 24.4261C36.3179 24.6266 36.2309 24.8199 36.2889 24.8683Z" fill="#161B46"/>
<path d="M44.7938 24.9504C44.905 25.035 45.4221 24.5131 46.2436 24.3875C47.0651 24.2618 47.7464 24.5832 47.8189 24.4672C47.8576 24.4165 47.7319 24.2497 47.4372 24.0975C47.0401 23.9036 46.5926 23.8378 46.1566 23.9091C45.7253 23.9742 45.3259 24.1747 45.0161 24.4817C44.7987 24.7161 44.7407 24.9118 44.7938 24.9504Z" fill="#161B46"/>
<path d="M41.8652 31.0489C41.8652 31.0029 41.3409 30.9377 40.4928 30.8725C40.2777 30.8725 40.0724 30.829 40.0289 30.684C39.9995 30.4642 40.0383 30.2407 40.14 30.0437C40.3164 29.5146 40.4976 28.9613 40.6909 28.3814C41.4544 26.0183 41.9932 24.0782 41.899 24.0492C41.8048 24.0202 41.1065 25.9096 40.3454 28.2751C40.1618 28.8566 39.987 29.4131 39.8211 29.9447C39.7002 30.2099 39.6762 30.5092 39.7534 30.7903C39.7882 30.8642 39.8393 30.9291 39.903 30.9802C39.9666 31.0312 40.0411 31.0671 40.1207 31.0851C40.2405 31.1109 40.3631 31.1215 40.4855 31.1165C41.3384 31.1189 41.8652 31.0972 41.8652 31.0489Z" fill="#161B46"/>
<path d="M41.7881 40.9939C44.6497 40.8948 47.4276 40.0031 49.8122 38.4182C49.8122 38.4182 47.9784 42.7239 41.8727 42.4605L41.7881 40.9939Z" fill="#7A4A45"/>
<path d="M42.3219 33.0518C42.4708 32.843 42.6706 32.6757 42.9023 32.5657C43.1341 32.4558 43.3901 32.4069 43.646 32.4236C43.8319 32.4302 44.0145 32.4745 44.1827 32.5539C44.3509 32.6332 44.5012 32.7459 44.6246 32.8851C44.7436 33.0192 44.8185 33.1865 44.8393 33.3646C44.86 33.5426 44.8255 33.7228 44.7405 33.8806C44.5303 34.2116 44.0616 34.3083 43.6557 34.214C43.2535 34.0935 42.8791 33.8948 42.5539 33.6293C42.46 33.5634 42.3782 33.4816 42.3123 33.3877C42.2795 33.3429 42.2607 33.2894 42.2581 33.234C42.2555 33.1786 42.2693 33.1236 42.2978 33.076" fill="#7A4A45"/>
<path d="M44.3615 31.5054C44.2238 31.5054 44.2672 32.4139 43.5231 33.0977C42.7789 33.7815 41.8027 33.7307 41.8027 33.8588C41.8027 33.9168 42.0274 34.0255 42.4358 34.0158C42.9726 33.9989 43.4861 33.7926 43.8855 33.4335C44.2649 33.0891 44.4961 32.6111 44.5306 32.0998C44.5354 31.718 44.4219 31.4982 44.3615 31.5054Z" fill="#161B46"/>
<path d="M43.9917 21.6837C44.1077 21.8963 44.9195 21.6619 45.9102 21.6305C46.9008 21.5991 47.7296 21.7417 47.8262 21.5218C47.8697 21.4155 47.7006 21.2246 47.343 21.053C46.8782 20.8501 46.3733 20.756 45.8666 20.7777C45.36 20.7995 44.865 20.9366 44.4194 21.1787C44.0932 21.3768 43.9386 21.5822 43.9917 21.6837Z" fill="#161B46"/>
<path d="M36.4097 21.2633C36.5667 21.4445 37.1345 21.2198 37.828 21.1739C38.5214 21.128 39.1158 21.2391 39.2414 21.0313C39.297 20.9323 39.1931 20.7462 38.9273 20.5795C38.5715 20.381 38.1647 20.2928 37.7586 20.3259C37.3525 20.359 36.9654 20.512 36.6464 20.7656C36.4097 20.9733 36.3396 21.1715 36.4097 21.2633Z" fill="#161B46"/>
<path d="M54.3769 29.3961C54.3769 29.3961 50.0857 30.7323 47.6574 20.1373C46.8263 16.513 43.4678 13.5822 43.4678 13.5822L44.8305 13.1738C44.8305 13.1738 53.2872 15.5586 53.437 15.6649C53.5868 15.7712 55.5608 20.0358 55.5608 20.0358L54.3769 29.3961Z" fill="#161B46"/>
<path d="M53.318 28.9999C53.2986 28.5481 53.7674 27.456 54.2095 27.3642C55.3935 27.1226 57.5463 27.1057 57.7203 30.1331C57.9619 34.2721 53.7505 33.6559 53.736 33.5375C53.7215 33.4192 53.3856 30.5632 53.318 28.9999Z" fill="#A2675F"/>
<path d="M54.9127 31.8969C54.9296 31.8824 54.9876 31.9428 55.1108 31.9911C55.2869 32.0548 55.4809 32.0479 55.652 31.9718C56.0797 31.7881 56.4083 31.0729 56.3769 30.3263C56.3663 29.9706 56.2771 29.6216 56.116 29.3043C56.0717 29.1793 55.9981 29.0667 55.9015 28.9759C55.8048 28.8851 55.6878 28.8187 55.5602 28.7824C55.4762 28.7647 55.3886 28.7769 55.3126 28.8171C55.2367 28.8573 55.1773 28.9228 55.1446 29.0023C55.0963 29.1231 55.1277 29.2028 55.106 29.2125C55.0842 29.2221 55.0118 29.1472 55.0359 28.9709C55.0531 28.8666 55.1051 28.7713 55.1833 28.7003C55.2934 28.6089 55.4343 28.563 55.5771 28.5722C55.7489 28.5968 55.9115 28.6647 56.0497 28.7696C56.1879 28.8744 56.2972 29.0127 56.3672 29.1714C56.5624 29.5206 56.6702 29.9119 56.6813 30.3118C56.7031 31.1478 56.3213 31.9524 55.7318 32.1578C55.6224 32.1971 55.5055 32.211 55.39 32.1985C55.2744 32.1859 55.1633 32.1472 55.0649 32.0853C54.9248 31.9959 54.8982 31.9041 54.9127 31.8969Z" fill="#7A4A45"/>
<path d="M51.4644 27.369C51.2559 27.3391 51.0494 27.2972 50.8458 27.2434C50.295 27.076 49.7905 26.7833 49.372 26.3881C49.0815 26.1196 48.8236 25.818 48.6036 25.4892C48.3555 25.1083 48.1459 24.7036 47.9778 24.2811C47.6196 23.2967 47.3219 22.2913 47.0862 21.2706C46.7963 20.193 46.4798 19.1733 46.1343 18.2673C45.8341 17.4614 45.473 16.6795 45.0542 15.9284C44.773 15.4235 44.4565 14.939 44.1071 14.4787C43.9863 14.3144 43.88 14.196 43.8099 14.1114C43.7777 14.0677 43.7413 14.0272 43.7012 13.9906C43.7282 14.038 43.7589 14.0833 43.793 14.1259C43.8558 14.2129 43.9573 14.3361 44.0733 14.5052C44.4074 14.9741 44.7125 15.4631 44.9866 15.9695C45.3915 16.7229 45.7435 17.5036 46.04 18.3059C46.3783 19.212 46.69 20.2268 46.9799 21.3044C47.2166 22.3293 47.5185 23.3381 47.8836 24.3246C48.057 24.7523 48.2723 25.1619 48.5263 25.5472C48.7537 25.8795 49.0197 26.1837 49.3188 26.4533C49.75 26.8497 50.2693 27.1379 50.8338 27.2941C51.0393 27.3489 51.2517 27.3742 51.4644 27.369Z" fill="#161B46"/>
<path d="M57.1236 45.0288C57.1426 44.963 57.1571 44.896 57.1671 44.8282C57.1937 44.6833 57.2275 44.4876 57.271 44.2411C57.3604 43.7095 57.4861 42.9533 57.6431 41.9941L57.5441 41.9796C57.5223 42.1294 57.5006 42.2961 57.4764 42.4628V42.4483C57.4498 42.5039 57.4184 42.5667 57.3894 42.6343L57.4933 42.6706C58.1243 40.4919 58.5681 38.2633 58.8198 36.0092C58.9804 34.5778 59.0651 33.139 59.0735 31.6987C59.059 30.1861 59.0735 28.5794 58.6652 26.975C58.4994 26.3175 58.2458 25.6852 57.9113 25.0952C57.5823 24.5285 57.1987 23.9952 56.766 23.503C55.9252 22.5365 55.0191 21.6932 54.1904 20.8645L49.7615 16.496L46.7437 13.5604L45.9198 12.7703L45.7023 12.5673C45.6798 12.542 45.6538 12.52 45.625 12.5021C45.6432 12.5314 45.6651 12.5582 45.6902 12.5818L45.8932 12.7968C46.0865 12.9926 46.3547 13.2656 46.693 13.6135L49.6576 16.5927C50.9189 17.8467 52.4121 19.3375 54.072 20.9926C54.8983 21.8261 55.802 22.667 56.6307 23.6262C57.5128 24.5943 58.1493 25.7602 58.4864 27.0258C58.8826 28.5963 58.8778 30.1958 58.8947 31.7035C58.8889 33.1371 58.8082 34.5695 58.6531 35.9947C58.4119 38.2425 57.9885 40.4671 57.387 42.6464L57.4909 42.6851C57.5199 42.6174 57.5489 42.5546 57.573 42.4966C57.5948 42.3251 57.6165 42.1583 57.6334 42.0134L57.5344 41.9989C57.3967 42.9654 57.2928 43.7216 57.2082 44.2532C57.1768 44.4948 57.1502 44.7002 57.1309 44.8451C57.1229 44.906 57.1205 44.9675 57.1236 45.0288Z" fill="#45496B"/>
<path d="M60.3927 25.895C60.377 25.8331 60.3526 25.7737 60.3202 25.7187C60.255 25.5906 60.1752 25.4287 60.0786 25.2354C59.8684 24.815 59.5374 24.2182 59.1121 23.4958C58.6869 22.7733 58.1263 21.9325 57.474 21.0288C56.8216 20.1252 56.0508 19.1708 55.1931 18.2116C54.3353 17.2523 53.4558 16.3946 52.6319 15.6432C51.808 14.8917 51.0276 14.2587 50.3534 13.7513C49.6793 13.2439 49.1236 12.8501 48.7274 12.5988L48.2683 12.3064C48.2172 12.2683 48.1611 12.2374 48.1016 12.2146C48.1445 12.2617 48.1932 12.3031 48.2465 12.3378C48.3649 12.4248 48.5099 12.5287 48.6839 12.6592C49.068 12.9298 49.6117 13.3381 50.2713 13.8673C50.9309 14.3964 51.6944 15.0319 52.5135 15.7809C53.3326 16.5299 54.1734 17.378 55.0336 18.3445C55.8938 19.3109 56.65 20.2508 57.3145 21.14C57.9789 22.0292 58.5347 22.8603 58.9792 23.5731C59.4238 24.2859 59.7742 24.8682 60.0013 25.2789L60.2743 25.7477C60.3081 25.8011 60.3478 25.8506 60.3927 25.895Z" fill="#45496B"/>
<path d="M54.8643 59.2553C54.9724 59.1272 55.0679 58.9888 55.1494 58.8422C55.3233 58.5716 55.5722 58.1777 55.8911 57.6993C56.7119 56.4502 57.5991 55.246 58.5489 54.092C59.4891 52.9319 60.5537 51.8786 61.7238 50.9509C62.2249 50.5875 62.7452 50.2512 63.2823 49.9434C63.1209 49.9905 62.9647 50.0536 62.8159 50.1318C62.6373 50.2141 62.4646 50.3086 62.2989 50.4145C62.0735 50.5447 61.8557 50.6875 61.6465 50.8422C60.4404 51.7516 59.3513 52.8066 58.404 53.9832C57.4442 55.1412 56.5635 56.3625 55.7679 57.6389C55.4635 58.1222 55.2315 58.5329 55.0769 58.8156C54.9926 58.9553 54.9214 59.1025 54.8643 59.2553Z" fill="#161B46"/>
<path d="M58.2926 79.8027L65.1522 49.2572L58.1452 45.5146C58.0003 45.3044 54.4557 43.7048 54.4557 43.7048C53.5189 45.2153 52.2861 46.5205 50.8314 47.5417C46.5886 50.1029 42.3313 48.0105 41.9689 44.0842L38.0836 45.1763L30.5934 46.469C30.5934 46.469 24.4829 62.3916 25.2923 68.6206C26.1018 74.8495 24.9734 85.6281 24.9734 85.6281L24.3428 89.192L30.7191 89.3224H31.7677L45.9894 89.2427L58.4013 89.192C56.9323 84.983 58.2926 79.8027 58.2926 79.8027Z" fill="#00ACE9"/>
<path d="M20.1249 82.3879C18.9157 82.446 17.714 82.1693 16.6521 81.5883C15.5901 81.0072 14.7091 80.1443 14.1062 79.0946C13.7031 78.4019 13.4844 77.6175 13.4707 76.8162C13.4707 73.4987 15.5365 68.7413 16.2227 67.0282C17.211 64.5589 26.6317 47.4571 27.7649 47.6987C28.8981 47.9403 29.5142 48.0297 29.5142 48.0297L24.1502 72.3607L41.2109 75.1587L39.3384 81.6824L20.1249 82.3879Z" fill="#A2675F"/>
<path d="M19.6826 56.6386L28.3519 61.2294L31.2175 46.4592C31.2175 46.4592 27.5449 46.7902 26.332 48.3318C25.119 49.8733 19.6826 56.6386 19.6826 56.6386Z" fill="#00ACE9"/>
<path d="M30.1903 73.3514L27.8538 68.2774L26.8342 64.5275L23.7294 62.1113C23.7294 62.1113 22.7001 62.2321 23.019 63.0319C23.338 63.8317 24.8988 65.2693 24.8988 65.2693L25.817 67.8329L24.3238 65.2282L22.1492 64.1506L19.9915 64.3101C19.9915 64.3101 19.5929 65.2765 20.5932 65.3079H21.6708L23.309 66.6272L24.3334 69.1038L22.7895 66.7069L20.511 65.8975L19.0613 66.2672C19.0613 66.2672 18.6626 66.9075 19.3803 66.992C20.0979 67.0766 20.5883 67.0718 20.5883 67.0718L21.9052 67.8377L23.0649 70.2684L21.0257 68.6012L18.3896 68.2871C18.3896 68.2871 17.9499 68.9226 18.6312 69.1618C19.3271 69.4489 20.0077 69.7714 20.6705 70.1282L22.1371 72.1554L30.1903 73.3514Z" fill="#A2675F"/>
<path d="M30.1899 73.3514L22.1247 72.182H22.1077V72.1675L20.6339 70.1427L20.6508 70.1548C20.1893 69.9132 19.7085 69.6715 19.2011 69.4444C19.073 69.3888 18.945 69.3309 18.8145 69.2801C18.6756 69.2349 18.542 69.1749 18.4158 69.1013C18.3492 69.0563 18.2949 68.9954 18.2578 68.9241C18.2206 68.8528 18.2019 68.7734 18.2032 68.693C18.2111 68.5357 18.2621 68.3836 18.3506 68.2532L18.3651 68.2291H18.3989L21.035 68.5408H21.0519L23.0911 70.2176L23.0042 70.2852L21.842 67.8691L21.8661 67.8932L20.5469 67.1273H20.5783C20.228 67.1273 19.8679 67.0983 19.4983 67.0596C19.3961 67.0653 19.294 67.0484 19.1991 67.0099C19.1043 66.9715 19.0192 66.9126 18.9498 66.8374C18.8912 66.7429 18.8721 66.6292 18.8966 66.5208C18.9183 66.4205 18.9558 66.3242 19.0078 66.2357V66.214H19.0319L20.4817 65.8419H20.501H20.5179L22.806 66.6682H22.8254V66.6851L24.391 69.0844L24.2823 69.1424L23.7314 67.8159C23.5744 67.4293 23.4149 67.0476 23.2482 66.6658L23.2675 66.69L21.6293 65.3707L21.668 65.3852H21.0301C20.8173 65.3947 20.604 65.3874 20.3923 65.3635C20.2769 65.35 20.1677 65.3043 20.0771 65.2317C19.9866 65.159 19.9182 65.0624 19.88 64.9527C19.8261 64.7355 19.8439 64.5066 19.9308 64.3004V64.2665H19.9718L22.1295 64.1071H22.1464H22.1609L24.3355 65.1871H24.35V65.204L25.8432 67.8087L25.7369 67.857L24.8501 65.2958L24.8646 65.32C24.3174 64.8153 23.8115 64.2675 23.3521 63.6818C23.2428 63.5374 23.1435 63.3856 23.0549 63.2276C22.9581 63.0667 22.9102 62.8812 22.9172 62.6936C22.9293 62.5995 22.9637 62.5096 23.0175 62.4315C23.0712 62.3533 23.1429 62.2891 23.2264 62.2442C23.381 62.1543 23.5518 62.096 23.729 62.0726H23.7483H23.7653L26.8652 64.4888H26.8773V64.5033L27.8897 68.2557L30.1899 73.3514L27.822 68.2943L26.8072 64.5396L26.8241 64.5637L23.7169 62.162H23.7532C23.5908 62.1846 23.4341 62.2379 23.2917 62.3191C23.2215 62.3562 23.1611 62.4095 23.1157 62.4747C23.0703 62.5398 23.0412 62.6149 23.0307 62.6936C23.0138 63.0174 23.2482 63.3266 23.4487 63.6093C23.9057 64.1882 24.4082 64.7295 24.9516 65.2282V65.2402L25.8722 67.8038L25.7683 67.8521L24.2727 65.2499L24.2992 65.2717L22.1247 64.194H22.1561L19.9984 64.3535L20.0516 64.3173C19.9766 64.4961 19.9606 64.6941 20.0057 64.8827C20.0358 64.9715 20.0911 65.0496 20.1649 65.1076C20.2387 65.1655 20.3278 65.2007 20.4212 65.2088C20.6267 65.23 20.8334 65.2365 21.0398 65.2282H21.6946L21.7115 65.2427L23.3497 66.5619H23.3642V66.5764L23.8474 67.7265C24.0334 68.1808 24.2219 68.6326 24.3959 69.053L24.2847 69.111L22.7408 66.7141L22.7722 66.7383L20.4962 65.9289H20.5251L19.0754 66.2985L19.1141 66.272C19.0621 66.3399 19.0292 66.4205 19.0186 66.5054C19.008 66.5903 19.0201 66.6765 19.0537 66.7552C19.101 66.82 19.1708 66.8649 19.2494 66.8808C19.3357 66.9034 19.4238 66.918 19.5128 66.9243C19.8776 66.9606 20.2376 66.9847 20.5807 66.9896H20.5952H20.6097L21.9265 67.7555H21.9434V67.7724L23.1008 70.2031L23.2095 70.4326L23.0138 70.2708L20.977 68.5794H21.006L18.3699 68.2629L18.4158 68.2412C18.3401 68.355 18.2952 68.4865 18.2853 68.6229C18.2829 68.6876 18.2972 68.7518 18.3269 68.8094C18.3565 68.8669 18.4004 68.9159 18.4545 68.9515C18.5756 69.0185 18.7026 69.0743 18.8338 69.1182C18.9667 69.1714 19.0948 69.2294 19.2228 69.2849C19.7302 69.5266 20.2135 69.7682 20.6725 70.0098L22.1367 72.0394L22.1102 72.0225L30.1899 73.3514Z" fill="#7A4A45"/>
<g opacity="0.3">
<path opacity="0.3" d="M58.4336 81.7307C58.4336 81.7307 56.4523 85.8817 53.8791 87.0971C51.4894 88.2254 49.9721 88.4695 47.1282 88.2617C45.7389 88.1626 41.211 87.2831 39.5728 86.812L28.5381 82.0762L51.7335 85.7319L58.4336 81.7307Z" fill="#161B46"/>
</g>
<path d="M64.0945 50.7721C64.0945 50.7721 68.2455 49.3006 68.3253 58.6054C68.405 67.9101 57.4935 83.5259 55.6234 85.0626C53.7532 86.5993 51.6367 87.6334 46.0287 86.8023C38.9952 85.7609 28.8955 82.0786 28.8955 82.0786L35.0737 76.3329L47.6137 75.7675L57.8076 54.812C57.8076 54.812 60.6152 50.3662 64.0945 50.7721Z" fill="#A2675F"/>
<path d="M39.3379 81.6775C39.3379 81.6775 42.4475 83.6346 45.9582 83.5332C49.469 83.4317 52.5762 84.5673 53.028 84.258C53.4798 83.9487 53.5306 83.3906 53.028 83.1393C52.5254 82.888 50.4016 82.5884 50.4016 82.5884L48.5653 81.8346C48.5653 81.8346 54.8353 82.3734 55.3355 82.1318C55.8356 81.8902 56.3382 81.5301 56.1376 80.9793C56.0904 80.8266 55.9978 80.6919 55.8723 80.5931C55.7467 80.4943 55.594 80.436 55.4345 80.4259C55.4345 80.4259 56.79 80.4767 56.7393 79.9258C56.6998 79.6921 56.6128 79.469 56.4835 79.2703C56.3542 79.0716 56.1855 78.9016 55.9878 78.7709C55.7873 78.6718 53.1561 77.6014 53.1561 77.6014L49.7734 76.9297L53.0208 76.7992L55.8574 77.5918C55.8574 77.5918 56.9906 77.7198 56.7393 76.7654C56.488 75.811 53.0256 74.76 53.0256 74.76L48.6136 74.4556C48.6136 74.4556 52.0229 73.9578 52.3732 72.9044C52.7236 71.8509 52.1316 71.2493 52.1316 71.2493C52.1316 71.2493 49.7154 72.2037 48.5701 72.4042C47.4249 72.6047 46.0138 73.0542 44.1582 73.808C43.1534 74.2053 42.1709 74.6569 41.2153 75.1611" fill="#A2675F"/>
<path d="M41.211 75.1587L41.3898 75.0572C41.5082 74.992 41.687 74.8978 41.9238 74.7794C42.407 74.5378 43.1029 74.2116 44.0307 73.8274C45.1561 73.3512 46.3091 72.9429 47.4834 72.6048C47.8265 72.513 48.1889 72.4284 48.5659 72.3632C48.9493 72.2873 49.3277 72.1881 49.6991 72.066C50.4698 71.8244 51.2744 71.5344 52.1153 71.2083H52.1442L52.1636 71.23C52.3154 71.4126 52.4258 71.626 52.4872 71.8554C52.5485 72.0849 52.5593 72.3249 52.5188 72.5589L52.4825 72.7377L52.4342 72.9141C52.3929 73.0348 52.3262 73.1452 52.2385 73.2378C52.0599 73.4158 51.8524 73.562 51.6248 73.6703C51.1607 73.8936 50.6749 74.0685 50.1751 74.1922C49.6625 74.3292 49.1431 74.4388 48.619 74.5208V74.4145L53.0334 74.7141H53.0455C53.9566 74.9908 54.8419 75.3466 55.6912 75.7773C55.9082 75.8925 56.1165 76.0233 56.3146 76.1687C56.4161 76.2447 56.5107 76.3296 56.5973 76.4224C56.69 76.5171 56.7594 76.6321 56.8002 76.7582C56.8363 76.8863 56.8445 77.0206 56.8244 77.1521C56.8145 77.2209 56.791 77.2871 56.7553 77.3468C56.7196 77.4065 56.6725 77.4586 56.6166 77.5C56.3885 77.6383 56.1202 77.6954 55.8555 77.6619L53.0165 76.8718H53.0358L49.7885 77.0023V76.879L52.2046 77.3623L53.1711 77.5532H53.1832L56.0029 78.7202C56.2271 78.8553 56.4152 79.0427 56.5514 79.2662C56.702 79.4785 56.7861 79.7309 56.793 79.9911C56.782 80.0623 56.7529 80.1294 56.7084 80.1861C56.664 80.2428 56.6058 80.2871 56.5393 80.3149C56.4243 80.3723 56.3013 80.4122 56.1744 80.4333C55.9291 80.4789 55.6797 80.4984 55.4303 80.4912V80.368C55.5422 80.3737 55.6517 80.4021 55.7522 80.4515C55.8528 80.501 55.9422 80.5704 56.015 80.6555C56.1607 80.8218 56.2399 81.0361 56.2373 81.2572C56.2265 81.3659 56.1943 81.4715 56.1424 81.5677C56.0906 81.6639 56.0202 81.7489 55.9352 81.8177C55.7794 81.9527 55.6063 82.0664 55.4206 82.156C55.3729 82.1849 55.3206 82.2053 55.266 82.2164C55.2152 82.2282 55.1634 82.2355 55.1113 82.2381C55.0098 82.2502 54.9084 82.2526 54.8093 82.2551C54.6088 82.2551 54.4106 82.2551 54.2125 82.2551C53.8162 82.2551 53.4248 82.2309 53.0382 82.2116C51.4919 82.1318 50.0035 82.0086 48.5538 81.8902L48.5804 81.7815L50.4143 82.5353C51.0908 82.6368 51.748 82.7455 52.3883 82.8905C52.5477 82.9292 52.7072 82.9678 52.8715 83.021C53.0359 83.0651 53.1853 83.1527 53.304 83.2747C53.362 83.3396 53.4047 83.4168 53.429 83.5004C53.4532 83.584 53.4584 83.672 53.4442 83.7579C53.4121 83.9243 53.3274 84.0759 53.2025 84.1904C53.1737 84.2189 53.143 84.2456 53.1107 84.2702C53.0766 84.2985 53.0383 84.3213 52.9972 84.3378C52.9186 84.36 52.8371 84.3698 52.7555 84.3668C52.6009 84.3643 52.4467 84.3506 52.294 84.3257C51.992 84.2846 51.6997 84.2267 51.4097 84.1735C50.8323 84.0648 50.2693 83.9585 49.7184 83.8715C48.7005 83.7015 47.6719 83.6038 46.6402 83.5791C46.3986 83.5791 46.1569 83.5791 45.9371 83.5791C45.7172 83.5791 45.4804 83.5791 45.2605 83.5791C45.0407 83.5791 44.8256 83.5501 44.6154 83.5284L44.0089 83.4438C42.7932 83.227 41.6117 82.8492 40.4958 82.3203C40.1092 82.1367 39.8217 81.982 39.6308 81.8733C39.4399 81.7646 39.3457 81.6969 39.3457 81.6969C39.3714 81.7093 39.3963 81.723 39.4206 81.738L39.6381 81.8564C39.8338 81.9603 40.1213 82.1125 40.5103 82.2889C41.6273 82.8039 42.8067 83.1711 44.0186 83.381L44.6227 83.4607C44.8304 83.4825 45.0455 83.4921 45.2629 83.5091C45.4804 83.526 45.7051 83.5091 45.9346 83.5091C46.1642 83.5091 46.401 83.5091 46.6402 83.5091C47.6765 83.5288 48.7101 83.6233 49.7329 83.7917C50.2814 83.8763 50.8443 83.9802 51.4242 84.0889C51.7142 84.1421 52.0065 84.1977 52.3037 84.2387C52.4525 84.2612 52.6027 84.2741 52.7531 84.2774C52.8249 84.2787 52.8965 84.2698 52.9657 84.2508C53.0284 84.2203 53.0849 84.1785 53.1325 84.1276C53.2393 84.0267 53.3119 83.8949 53.3403 83.7507C53.3514 83.6796 53.3466 83.6069 53.3261 83.5379C53.3057 83.469 53.27 83.4054 53.2219 83.352C53.1148 83.2434 52.9804 83.1658 52.8329 83.1273C52.6831 83.0766 52.526 83.0403 52.3689 83.0017C51.7359 82.8591 51.0763 82.76 50.4046 82.6537H50.3901L48.5538 81.8902L48.2155 81.7525L48.5804 81.7815C50.0132 81.9023 51.5088 82.0231 53.0576 82.098C53.4442 82.1173 53.8356 82.1342 54.2294 82.1415C54.4251 82.1415 54.6233 82.1415 54.819 82.1415C54.918 82.1415 55.0171 82.1415 55.1137 82.127C55.1608 82.1223 55.2076 82.115 55.2539 82.1053C55.2976 82.0968 55.3393 82.0805 55.3771 82.0569C55.5508 81.9701 55.7131 81.8622 55.8603 81.7356C55.9342 81.6766 55.9955 81.6035 56.0407 81.5205C56.0859 81.4375 56.1142 81.3464 56.1237 81.2523C56.1231 81.062 56.0536 80.8783 55.928 80.7353C55.8674 80.6651 55.7934 80.6077 55.7105 80.5662C55.6276 80.5247 55.5373 80.5001 55.4448 80.4937V80.3704C55.6876 80.3766 55.9305 80.358 56.1696 80.3149C56.2847 80.2963 56.3963 80.2605 56.5006 80.2085C56.5486 80.1896 56.591 80.1588 56.624 80.1191C56.6569 80.0794 56.6793 80.0321 56.6891 79.9814C56.6743 79.745 56.5902 79.5181 56.4475 79.3291C56.3217 79.1252 56.1506 78.9532 55.9473 78.8265L53.1445 77.6595L52.1781 77.4686L49.7619 76.9854L49.2424 76.8815L49.7715 76.8597L53.0189 76.7317H53.0382L55.8773 77.5411C56.1119 77.5734 56.3505 77.5249 56.5538 77.4034C56.6367 77.3279 56.6944 77.2288 56.7191 77.1194C56.7437 77.0101 56.7341 76.8958 56.6915 76.7921C56.6004 76.5774 56.4472 76.3949 56.2518 76.2677C56.0597 76.1251 55.857 75.9974 55.6453 75.886C54.8033 75.4572 53.9252 75.103 53.0213 74.8277H53.0358L48.6214 74.5208L48.1382 74.487L48.6214 74.4121C49.1412 74.3311 49.6565 74.2239 50.1654 74.0908C50.6548 73.9675 51.1307 73.7959 51.5861 73.5785C51.803 73.4758 52.0014 73.3378 52.1732 73.1702C52.2513 73.0871 52.3107 72.9883 52.3472 72.8802L52.3979 72.7135L52.4294 72.542C52.4689 72.3227 52.4604 72.0975 52.4045 71.8819C52.3486 71.6662 52.2466 71.4653 52.1056 71.2928H52.1563C51.3155 71.6166 50.5109 71.9065 49.7401 72.1457C49.3643 72.2657 48.9819 72.3641 48.5949 72.4405C48.2204 72.5057 47.87 72.5879 47.5172 72.6821C46.3436 73.0143 45.1914 73.4177 44.0669 73.8902C43.1367 74.2647 42.4288 74.5909 41.9528 74.818L41.4115 75.0838L41.211 75.1587Z" fill="#7A4A45"/>
<path d="M48.7275 79.4354C49.0764 79.4871 49.4284 79.5145 49.781 79.5175C50.4285 79.5562 51.3249 79.6311 52.3035 79.7809C53.2821 79.9307 54.1615 80.1216 54.7922 80.2762C55.129 80.3816 55.473 80.4623 55.8215 80.5178C55.5046 80.3613 55.1716 80.2398 54.8284 80.1554C54.0102 79.9129 53.1763 79.7273 52.3325 79.5997C51.4893 79.4721 50.6385 79.4018 49.7858 79.3895C49.4325 79.3655 49.0775 79.3809 48.7275 79.4354Z" fill="#7A4A45"/>
<path d="M26.7447 61.4082C26.6143 62.0147 26.5031 62.5196 26.4258 62.9062C26.3801 63.0878 26.3494 63.2729 26.334 63.4595C26.4052 63.2854 26.4602 63.105 26.4983 62.9207C26.5949 62.539 26.7206 62.0388 26.8728 61.4396C27.1845 60.1856 27.5977 58.4508 28.0446 56.5299C28.7695 53.3889 29.3711 50.7142 29.5258 49.883V49.8177L29.4726 49.854C29.3786 49.9103 29.2911 49.9767 29.2117 50.0521C29.3134 50.0118 29.4106 49.9608 29.5016 49.8999L29.4605 49.8709C29.2189 50.6827 28.5835 53.3381 27.8489 56.4888" fill="#161B46"/>
<path d="M52.709 62.1209L66.7229 68.3668C66.7229 68.3668 72.1617 51.5815 64.1496 48.8778L60.1315 49.8177L52.709 62.1209Z" fill="#00ACE9"/>
<path d="M39.3375 81.6776C39.3375 81.7139 35.0391 81.8999 29.7332 82.0956C24.4273 82.2913 20.124 82.4218 20.124 82.388C20.124 82.3541 24.4224 82.1657 29.7284 81.97C35.0343 81.7743 39.3375 81.6486 39.3375 81.6776Z" fill="#7A4A45"/>
<path d="M22.1352 72.141C22.1352 72.1627 21.8598 72.1893 21.4273 72.2956C20.8659 72.4389 20.3314 72.6722 19.8447 72.9867C19.3546 73.3012 18.9337 73.7122 18.6076 74.1947C18.366 74.5644 18.2717 74.8302 18.25 74.823C18.2563 74.7572 18.2726 74.6929 18.2983 74.6321C18.3617 74.463 18.4427 74.301 18.5399 74.1488C18.8532 73.6425 19.278 73.2144 19.7819 72.8973C20.2798 72.5732 20.8337 72.3446 21.4152 72.2231C21.5908 72.1891 21.7683 72.1657 21.9468 72.1531C22.0084 72.1379 22.0722 72.1338 22.1352 72.141Z" fill="#7A4A45"/>
<path d="M55.1259 60.1277C55.1187 60.1737 55.1048 60.2185 55.0848 60.2606L54.9447 60.6278C54.8214 60.9444 54.633 61.401 54.3938 61.964C53.9105 63.0875 53.2147 64.6218 52.3883 66.2914C51.562 67.961 50.7719 69.4542 50.1896 70.527C49.8997 71.0633 49.6605 71.4934 49.4913 71.793L49.2956 72.1337C49.2749 72.1742 49.2498 72.2123 49.2207 72.2473C49.2334 72.2034 49.2512 72.1613 49.2739 72.1216L49.4478 71.7689C49.6145 71.4499 49.8368 71.015 50.1123 70.4859C50.6728 69.401 51.4484 67.9054 52.2868 66.2358C53.1253 64.5662 53.8235 63.0416 54.3237 61.9277L54.9108 60.6085L55.0751 60.2509C55.088 60.2083 55.105 60.167 55.1259 60.1277Z" fill="#161B46"/>
<path d="M71.0234 89.5357C71.0234 89.8036 58.0372 90 42.0286 90C26.0199 90 13.0234 89.8036 13.0234 89.5357C13.0234 89.2678 25.9994 89 42.0198 89C58.0402 89 71.0234 89.2857 71.0234 89.5357Z" fill="#161B46"/>
</svg>
