<svg width="156" height="174" viewBox="0 0 156 174" fill="none" xmlns="http://www.w3.org/2000/svg">
<rect width="156" height="174" rx="16" fill="#FFF2E7"/>
<g clip-path="url(#clip0_1456_45623)">
<path d="M127.848 119.196C127.848 119.234 105.529 119.262 78.0027 119.262C50.4768 119.262 28.1521 119.224 28.1521 119.196C28.1521 119.169 50.4667 119.131 78.0027 119.131C105.539 119.131 127.848 119.151 127.848 119.196Z" fill="#161B46"/>
<path d="M110.165 18.2905L103.928 10.292L102.401 20.3493L94.1734 20.0721L99.3217 26.8333L94.1406 33.6322L102.721 31.9413L103.961 40.5748L110.901 33.8212L119.646 39.8995L117.73 31.0618L127.654 29.4994L119.935 24.9458L124.436 17.1842L116.722 20.2006L115.785 10.6272L110.165 18.2905Z" fill="white"/>
<path d="M110.165 18.2906L115.757 10.6097L115.807 10.5416V10.6248C116.059 13.2657 116.392 16.5014 116.757 20.2008L116.697 20.1655L124.408 17.1415L124.544 17.0886L124.471 17.2146C123.075 19.6262 121.565 22.2369 119.975 24.9787L119.955 24.9006L127.676 29.4542L127.823 29.5399L127.656 29.5651L117.733 31.13L117.783 31.0544C118.395 33.8667 119.043 36.8504 119.701 39.8895L119.736 40.0533L119.6 39.9576L111.813 34.5471L110.855 33.8819H110.939L104.006 40.6203L103.915 40.7085L103.898 40.5825C103.474 37.6392 103.061 34.7622 102.658 31.9515L102.734 32.0045L94.1655 33.6929L94.0093 33.7231L94.105 33.5971L99.2887 26.7931V26.8611L94.1277 20.1025L94.0622 20.0168H94.1706L102.398 20.3041L102.353 20.3419C102.949 16.4292 103.462 13.0767 103.89 10.2846L103.903 10.209L103.948 10.2695L110.16 18.2881C110.012 18.1016 107.925 15.4422 103.898 10.3098L103.956 10.2947C103.536 13.0818 103.032 16.4351 102.444 20.3545V20.3948H102.403L94.1731 20.1227L94.2159 20.042L99.3693 26.7981L99.397 26.8334L99.3693 26.8687L94.1907 33.6727L94.1328 33.5769L102.701 31.881H102.766V31.9465C103.169 34.7571 103.584 37.635 104.009 40.58L103.898 40.5422L110.853 33.7685L110.893 33.7307L110.936 33.7634L111.896 34.4287L119.681 39.8417L119.58 39.9072C118.922 36.8655 118.277 33.8844 117.667 31.0721L117.654 31.0065H117.72L127.644 29.4416L127.624 29.5525L119.907 24.9938L119.857 24.9661L119.887 24.9182L124.39 17.1591L124.453 17.2322L116.737 20.2411L116.684 20.2638V20.2058C116.329 16.509 116.014 13.2733 115.759 10.6298L115.817 10.6449L110.165 18.2906Z" fill="#161B46"/>
<path d="M114.857 24.671C114.774 24.0452 114.501 23.46 114.074 22.9952C113.674 22.5224 113.137 22.1873 112.536 22.0376C112.025 21.9226 111.489 21.9792 111.013 22.1988C110.536 22.4183 110.145 22.7885 109.9 23.2523C109.65 22.8123 109.265 22.4638 108.803 22.2571C108.341 22.0505 107.825 21.9966 107.33 22.1031C106.728 22.2476 106.187 22.5772 105.783 23.0456C105.35 23.5058 105.071 24.0886 104.984 24.7139C104.884 25.512 105.043 26.3213 105.437 27.0222C105.898 27.7319 106.521 28.3219 107.254 28.7433C108.444 29.4666 110.011 30.3763 110.011 30.3763C110.011 30.3763 111.344 29.3885 112.544 28.6778C113.282 28.2635 113.911 27.6796 114.378 26.9743C114.78 26.2776 114.948 25.4702 114.857 24.671Z" fill="#00ACE9"/>
<path d="M91.7643 29.1017C92.7775 29.1017 93.5988 28.2804 93.5988 27.2672C93.5988 26.254 92.7775 25.4326 91.7643 25.4326C90.7511 25.4326 89.9297 26.254 89.9297 27.2672C89.9297 28.2804 90.7511 29.1017 91.7643 29.1017Z" fill="white"/>
<path d="M93.5987 27.2667C93.5835 27.2667 93.5987 27.1029 93.5155 26.8257C93.4078 26.4333 93.1718 26.0882 92.8452 25.8454C92.6077 25.6657 92.3289 25.5484 92.0344 25.5044C91.7398 25.4603 91.4389 25.491 91.1593 25.5934C90.8304 25.7134 90.5451 25.9294 90.3403 26.2133C90.1762 26.4344 90.0661 26.6907 90.0187 26.9619C89.9714 27.2331 89.9883 27.5116 90.0678 27.7751C90.1474 28.0386 90.2876 28.2798 90.4771 28.4795C90.6666 28.6791 90.9003 28.8317 91.1593 28.9249C91.4392 29.0257 91.7398 29.0555 92.034 29.0115C92.3283 28.9675 92.607 28.8512 92.8452 28.6729C93.1713 28.4296 93.4071 28.0847 93.5155 27.6926C93.5911 27.4154 93.5835 27.2491 93.5987 27.2516C93.6035 27.2901 93.6035 27.329 93.5987 27.3675C93.5978 27.4812 93.5843 27.5945 93.5583 27.7052C93.4648 28.1185 93.2305 28.4864 92.8956 28.7459C92.6636 28.9263 92.3926 29.0498 92.1043 29.1063C91.7725 29.1696 91.4298 29.1435 91.1114 29.0307C90.7577 28.9057 90.4501 28.6764 90.2294 28.373C89.9873 28.0493 89.8564 27.6558 89.8564 27.2516C89.8564 26.8473 89.9873 26.4539 90.2294 26.1302C90.4494 25.8261 90.7572 25.5966 91.1114 25.4725C91.4296 25.3585 91.7726 25.3324 92.1043 25.3969C92.4559 25.4656 92.7801 25.6343 93.038 25.8829C93.296 26.1315 93.4766 26.4492 93.5583 26.798C93.5842 26.9078 93.5978 27.0203 93.5987 27.1331C93.6049 27.1774 93.6049 27.2224 93.5987 27.2667Z" fill="#161B46"/>
<path d="M78.5037 27.5286C79.3152 25.5403 78.3626 23.1211 76.6389 21.8359C74.9152 20.5507 72.6069 20.2609 70.4825 20.5759C68.3582 20.8909 66.3498 21.7804 64.3917 22.6448C63.502 21.739 62.3783 21.0979 61.1458 20.7929C59.9133 20.4879 58.6203 20.531 57.4108 20.9173C56.2013 21.3037 55.1228 22.0181 54.2953 22.9812C53.4679 23.9442 52.9239 25.118 52.7241 26.3719C51.9555 26.1678 51.1457 26.178 50.3825 26.4013C49.6193 26.6247 48.9318 27.0526 48.3944 27.6388C47.857 28.2249 47.4903 28.947 47.334 29.7267C47.1777 30.5064 47.2378 31.314 47.5077 32.062L57.1014 35.5044L67.4838 54.0465C70.538 56.685 75.5604 56.6472 78.5718 53.9608C81.5832 51.2745 82.1955 46.29 79.9199 42.956C80.5114 42.4355 81.0136 41.8218 81.4067 41.1391C83.08 40.1311 84.3904 38.5258 84.8365 36.6031C85.779 32.556 82.6239 28.0401 78.5037 27.5286Z" fill="#161B46"/>
<path d="M71.8764 66.0062C71.2993 62.9822 70.8961 60.9334 70.9011 60.9536C70.9062 60.9737 76.5862 58.7839 76.246 50.8736C76.0772 46.9323 74.6156 40.7129 73.2548 35.6629C72.0301 31.1269 67.8318 26.0869 63.3436 27.5056L49.7533 34.0198C48.39 34.4482 48.143 35.7259 48.4555 37.1219L48.4706 37.7998L53.6013 59.6457L55.766 69.4082C56.2298 71.4108 57.4257 73.1676 59.1188 74.3334C60.8119 75.4991 62.8798 75.9895 64.9161 75.7082C66.0223 75.5547 67.0858 75.1779 68.0419 74.6007C68.998 74.0235 69.8267 73.2579 70.4777 72.3504C71.1287 71.443 71.5884 70.4126 71.8288 69.322C72.0693 68.2314 72.0855 67.1032 71.8764 66.0062Z" fill="#B5836D"/>
<path d="M72.0276 43.3436C72.0813 43.6009 72.0322 43.869 71.891 44.0908C71.7498 44.3125 71.5275 44.4703 71.2716 44.5305C71.1485 44.5659 71.0195 44.5763 70.8923 44.5611C70.7651 44.5459 70.6423 44.5054 70.531 44.442C70.4196 44.3786 70.3221 44.2936 70.2442 44.1919C70.1663 44.0903 70.1095 43.974 70.0771 43.8501C70.0235 43.5927 70.0725 43.3246 70.2137 43.1029C70.355 42.8811 70.5772 42.7233 70.8331 42.6632C70.9562 42.6285 71.085 42.6186 71.212 42.6341C71.3389 42.6496 71.4616 42.6902 71.5727 42.7535C71.6839 42.8168 71.7813 42.9015 71.8594 43.0028C71.9375 43.1041 71.9947 43.22 72.0276 43.3436Z" fill="#161B46"/>
<path d="M72.4688 39.9927C72.3731 40.1438 71.5137 39.7407 70.4528 39.9624C69.3919 40.1842 68.7266 40.8671 68.5855 40.7612C68.5175 40.7159 68.5855 40.4588 68.8829 40.1439C69.276 39.7319 69.7878 39.4526 70.347 39.345C70.897 39.2309 71.4691 39.2954 71.9799 39.529C72.3605 39.7129 72.5167 39.9221 72.4688 39.9927Z" fill="#161B46"/>
<path d="M62.7844 44.9266C62.8381 45.1839 62.7891 45.4521 62.6478 45.6738C62.5066 45.8955 62.2843 46.0533 62.0284 46.1135C61.9052 46.1485 61.7761 46.1586 61.6489 46.1431C61.5217 46.1276 61.3989 46.0868 61.2876 46.0232C61.1763 45.9596 61.0789 45.8744 61.001 45.7726C60.9231 45.6709 60.8663 45.5546 60.834 45.4306C60.7803 45.1732 60.8293 44.9051 60.9706 44.6834C61.1118 44.4616 61.3341 44.3039 61.59 44.2437C61.7132 44.2086 61.8423 44.1986 61.9695 44.2141C62.0967 44.2296 62.2195 44.2704 62.3308 44.334C62.442 44.3976 62.5395 44.4828 62.6174 44.5845C62.6953 44.6863 62.7521 44.8026 62.7844 44.9266Z" fill="#161B46"/>
<path d="M62.3131 41.8318C62.2173 41.9856 61.358 41.5798 60.2971 41.8016C59.2361 42.0234 58.5709 42.7088 58.4297 42.6004C58.3617 42.5551 58.4297 42.298 58.7271 41.983C59.12 41.572 59.6306 41.2929 60.1887 41.1842C60.7396 41.0712 61.3121 41.1356 61.8242 41.3682C62.2022 41.5622 62.3609 41.7714 62.3131 41.8318Z" fill="#161B46"/>
<path d="M67.6254 48.5679C67.6078 48.51 68.2453 48.263 69.2836 47.9077C69.5482 47.8245 69.7876 47.7212 69.8027 47.5272C69.8178 47.3331 69.654 47.0484 69.4574 46.7712L68.2403 44.856C66.5342 42.1495 65.2415 39.9017 65.3498 39.8336C65.4582 39.7656 66.9324 41.9051 68.6258 44.6216C69.0391 45.2936 69.4348 45.9328 69.8128 46.5393C69.9766 46.8241 70.2235 47.1391 70.1681 47.5725C70.148 47.6757 70.1046 47.7729 70.0413 47.8567C69.978 47.9406 69.8964 48.0088 69.8027 48.0564C69.6614 48.1283 69.5115 48.1816 69.3566 48.2151C68.3083 48.4873 67.643 48.636 67.6254 48.5679Z" fill="#161B46"/>
<path d="M70.9012 60.954C67.2982 61.7437 63.5467 61.5168 60.0652 60.2988C60.0652 60.2988 63.757 65.1901 71.2918 62.9121L70.9012 60.954Z" fill="#7F594B"/>
<path d="M61.7361 38.9664C61.6655 39.2713 60.5769 39.2562 59.3345 39.5535C58.0921 39.8509 57.1144 40.3095 56.9153 40.0575C56.8271 39.9416 56.9733 39.6468 57.3513 39.3167C57.8589 38.9063 58.4536 38.6174 59.0899 38.4719C59.7262 38.3265 60.3874 38.3284 61.0229 38.4775C61.5067 38.6211 61.7663 38.8227 61.7361 38.9664Z" fill="#161B46"/>
<path d="M71.8714 36.8925C71.7 37.1798 70.7878 37.1042 69.747 37.3033C68.7063 37.5024 67.8621 37.8552 67.6101 37.6435C67.4967 37.5402 67.5849 37.2705 67.9225 36.9656C68.3925 36.5693 68.9612 36.308 69.5681 36.2096C70.1662 36.0926 70.7849 36.1414 71.3573 36.3507C71.7756 36.5397 71.952 36.7565 71.8714 36.8925Z" fill="#161B46"/>
<path d="M53.1173 28.9472C53.269 29.7198 53.5892 30.4495 54.055 31.0844C54.5208 31.7192 55.1208 32.2435 55.8123 32.6201C56.5038 32.9966 57.2698 33.2161 58.0558 33.263C58.8418 33.3098 59.6285 33.1828 60.3598 32.891C61.4887 32.4399 62.6555 31.5907 63.7971 32.0115C64.9966 32.455 65.3645 34.0552 66.4758 34.6878C68.0659 35.5899 70.0038 34.0553 71.8182 34.2216C73.2244 34.3476 74.308 35.4488 75.4042 36.3409C76.5004 37.233 78.0225 37.9789 79.2724 37.3186C78.9473 36.1443 78.6197 34.9549 78.0351 33.8839C77.4504 32.8129 76.5785 31.8553 75.4445 31.4042C74.8246 31.1522 74.1417 31.0665 73.5495 30.7566C72.2693 30.0888 71.7048 28.5919 70.7775 27.4806C70.1682 26.774 69.3996 26.2226 68.535 25.8721C67.6704 25.5215 66.7348 25.3818 65.8055 25.4646C64.2658 25.6133 62.7991 26.3793 61.2519 26.3037C60.1103 26.2483 59.0166 25.7317 57.8725 25.7443C55.6423 25.767 53.9565 27.7074 52.7065 29.5545" fill="#161B46"/>
<path d="M60.6117 30.6232C59.6037 30.5426 57.4995 30.3132 56.814 29.5824C55.3298 27.9948 53.1046 27.1532 51.1063 27.6672C50.0776 27.9598 49.1713 28.5774 48.5227 29.4277C47.8741 30.278 47.518 31.3153 47.5077 32.3847C45.0658 32.8887 42.9893 34.9047 42.2812 37.4524C41.9406 38.7466 41.9199 40.1042 42.2211 41.4081C42.5223 42.7121 43.1362 43.9231 44.0099 44.9368C44.434 45.4758 44.8204 46.0433 45.1666 46.6353C44.6805 47.231 44.2518 47.8714 43.8865 48.548C42.2384 52.1364 46.6433 53.5426 46.6433 53.5426C46.6433 55.9618 48.8685 55.9668 50.2999 55.9668C51.6758 55.9668 52.4973 59.7897 53.6111 59.6486L52.5477 47.86C52.7135 47.9233 52.8894 47.9557 53.0668 47.9558C55.7657 48.0213 55.0828 42.9158 54.2285 41.5902C54.9845 40.5822 55.7708 39.544 56.2723 38.3495C56.7737 37.155 56.8241 34.1562 56.4109 32.8962C57.3533 32.7602 61.0502 30.661 60.6117 30.6232Z" fill="#161B46"/>
<path d="M52.946 48.4844C52.5353 46.8691 50.5369 46.1357 49.287 47.2244C48.599 47.8292 48.1858 48.8523 48.6041 50.5735C49.7229 55.1599 54.0977 53.0935 54.075 52.9574C54.0599 52.8868 53.4248 50.3794 52.946 48.4844Z" fill="#B5836D"/>
<path d="M52.2485 51.5748C52.2258 51.5748 52.183 51.6504 52.062 51.7462C51.8923 51.8732 51.68 51.9292 51.4698 51.9024C50.9406 51.8445 50.3459 51.1742 50.1216 50.3526C50.0139 49.962 49.9949 49.5521 50.0662 49.1531C50.0739 48.9999 50.1191 48.8508 50.1977 48.7191C50.2764 48.5873 50.3861 48.4767 50.5172 48.3971C50.6028 48.35 50.7023 48.3346 50.7981 48.3535C50.894 48.3724 50.9801 48.4244 51.0414 48.5005C51.1346 48.6139 51.1296 48.7121 51.1548 48.7147C51.18 48.7172 51.2354 48.6139 51.1548 48.4324C51.1021 48.322 51.0132 48.2331 50.9028 48.1804C50.8285 48.1496 50.7489 48.1338 50.6684 48.1338C50.588 48.1338 50.5084 48.1496 50.4341 48.1804C50.0863 48.2913 49.8469 48.6844 49.7713 49.0952C49.6723 49.5398 49.6844 50.002 49.8066 50.4408C50.0586 51.3581 50.7466 52.1091 51.4547 52.1368C51.5863 52.1432 51.7177 52.1198 51.839 52.0683C51.9603 52.0168 52.0684 51.9386 52.1552 51.8394C52.2686 51.6882 52.2686 51.5799 52.2485 51.5748Z" fill="#7F594B"/>
<path d="M44.8469 39.7274C44.7668 39.6958 44.6913 39.6534 44.6227 39.6014C44.4176 39.4617 44.2215 39.3094 44.0355 39.1453C43.3385 38.5435 42.8045 37.7755 42.4832 36.9125C42.2672 36.3083 42.1897 35.6633 42.2564 35.0251C42.325 34.2851 42.6059 33.5806 43.0653 32.9965C43.3208 32.6722 43.6382 32.4019 43.9989 32.2012C44.3597 32.0004 44.7567 31.8733 45.167 31.8272C45.6094 31.7651 46.0602 31.806 46.4842 31.9467C46.9082 32.0875 47.2939 32.3243 47.6114 32.6386L47.4098 32.7772L47.3871 32.7293C46.6084 31.1342 46.3791 29.3122 46.9184 27.833C47.4577 26.3537 48.6118 25.313 49.766 25.061C50.2172 24.9475 50.6866 24.9258 51.1463 24.9972C51.606 25.0687 52.0467 25.2317 52.4422 25.4768C52.6542 25.6101 52.846 25.773 53.0117 25.9606C53.0711 26.0252 53.1219 26.0972 53.1629 26.1748C52.9316 25.9388 52.6727 25.7315 52.3918 25.5574C51.6069 25.1143 50.6795 24.9966 49.8088 25.2298C48.7227 25.5095 47.6114 26.5024 47.1351 27.9212C46.6588 29.3399 46.8529 31.0838 47.6114 32.6336L47.634 32.6815L47.9591 33.3745L47.4324 32.8201C47.1406 32.5342 46.7872 32.3191 46.3993 32.1911C46.0114 32.0631 45.5993 32.0257 45.1947 32.0817C44.8148 32.1221 44.4466 32.2374 44.1114 32.4208C43.7762 32.6041 43.4806 32.852 43.2417 33.1502C42.8064 33.7007 42.5348 34.3627 42.458 35.0603C42.3874 35.6694 42.4528 36.2865 42.6495 36.8672C42.9484 37.7128 43.4463 38.4743 44.101 39.0873C44.5597 39.5157 44.8621 39.7097 44.8469 39.7274Z" fill="#161B46"/>
<path d="M64.7798 50.5459C64.6442 51.1079 64.6211 51.6911 64.7118 52.262C64.7589 52.547 64.8634 52.8195 65.0189 53.0629C65.1744 53.3064 65.3777 53.5157 65.6165 53.6783C66.1203 53.9598 66.7132 54.0365 67.2721 53.8925H67.2897C67.6287 53.8111 67.9319 53.6214 68.1534 53.3522C68.3748 53.083 68.5025 52.7489 68.517 52.4006L68.5875 50.9239C67.5594 50.8357 65.8055 50.6316 64.7798 50.5459Z" fill="#7F594B"/>
<path d="M68.4743 53.2674C68.4743 53.2851 68.3609 53.3632 68.1568 53.5194C68.0298 53.6198 67.8968 53.7124 67.7586 53.7966C67.5647 53.9007 67.3554 53.973 67.1387 54.0108C66.8773 54.0621 66.6094 54.0723 66.3449 54.0411C66.0338 54.0084 65.7353 53.9002 65.4755 53.7261C65.1913 53.5113 64.9591 53.2353 64.7959 52.9186C64.6328 52.6019 64.5429 52.2526 64.533 51.8965C64.5084 51.4335 64.55 50.9694 64.6565 50.5181L64.6792 50.4072H64.79C65.8888 50.5231 66.8388 50.634 67.5142 50.7222C67.8775 50.7471 68.2372 50.8096 68.5877 50.9087C68.2257 50.937 67.8618 50.9286 67.5016 50.8835C66.8212 50.8381 65.8686 50.76 64.7699 50.6617L64.9034 50.5609C64.8096 50.9902 64.7723 51.4299 64.7926 51.8688C64.8014 52.1867 64.8795 52.4989 65.0214 52.7835C65.1633 53.0682 65.3656 53.3184 65.6141 53.5169C66.0566 53.8017 66.5903 53.9088 67.1084 53.8168C67.3098 53.7942 67.5063 53.7397 67.6906 53.6555C67.8518 53.5799 67.9854 53.4892 68.0988 53.4237C68.2113 53.3452 68.3394 53.2919 68.4743 53.2674Z" fill="#161B46"/>
<path d="M64.6441 48.6357C64.3767 48.3211 64.0769 48.0356 63.7495 47.784C63.3872 47.5224 62.9857 47.32 62.56 47.1842C62.042 47.0128 61.4934 46.9536 60.9508 47.0105C60.4081 47.0674 59.8837 47.2391 59.4125 47.5143C59.0245 47.7346 58.6748 48.0163 58.3768 48.3484C58.1095 48.6596 57.8747 48.9974 57.6763 49.3565C57.7051 49.2478 57.7465 49.143 57.7997 49.044C57.9352 48.7717 58.1045 48.5177 58.3037 48.288C58.81 47.6744 59.4908 47.2291 60.2559 47.0113C61.021 46.7935 61.8342 46.8133 62.5877 47.0683C63.0228 47.2132 63.4307 47.4296 63.7948 47.7084C64.0381 47.8958 64.2573 48.1125 64.4475 48.3535C64.5252 48.4385 64.5913 48.5334 64.6441 48.6357Z" fill="#7F594B"/>
<path d="M64.7798 50.5459C64.6442 51.1079 64.6211 51.6911 64.7118 52.262C64.7589 52.547 64.8634 52.8195 65.0189 53.0629C65.1744 53.3064 65.3777 53.5157 65.6165 53.6783C66.1203 53.9598 66.7132 54.0365 67.2721 53.8925H67.2897C67.6287 53.8111 67.9319 53.6214 68.1534 53.3522C68.3748 53.083 68.5025 52.7489 68.517 52.4006L68.5875 50.9239C67.5594 50.8357 65.8055 50.6316 64.7798 50.5459Z" fill="#7F594B"/>
<path d="M68.4743 53.2674C68.4743 53.2851 68.3609 53.3632 68.1568 53.5194C68.0298 53.6198 67.8968 53.7124 67.7586 53.7966C67.5647 53.9007 67.3554 53.973 67.1387 54.0108C66.8773 54.0621 66.6094 54.0723 66.3449 54.0411C66.0338 54.0084 65.7353 53.9002 65.4755 53.7261C65.1913 53.5113 64.9591 53.2353 64.7959 52.9186C64.6328 52.6019 64.5429 52.2526 64.533 51.8965C64.5084 51.4335 64.55 50.9694 64.6565 50.5181L64.6792 50.4072H64.79C65.8888 50.5231 66.8388 50.634 67.5142 50.7222C67.8775 50.7471 68.2372 50.8096 68.5877 50.9087C68.2257 50.937 67.8618 50.9286 67.5016 50.8835C66.8212 50.8381 65.8686 50.76 64.7699 50.6617L64.9034 50.5609C64.8096 50.9902 64.7723 51.4299 64.7926 51.8688C64.8014 52.1867 64.8795 52.4989 65.0214 52.7835C65.1633 53.0682 65.3656 53.3184 65.6141 53.5169C66.0566 53.8017 66.5903 53.9088 67.1084 53.8168C67.3098 53.7942 67.5063 53.7397 67.6906 53.6555C67.8518 53.5799 67.9854 53.4892 68.0988 53.4237C68.2113 53.3452 68.3394 53.2919 68.4743 53.2674Z" fill="#161B46"/>
<path d="M64.6441 48.6357C64.3767 48.3211 64.0769 48.0356 63.7495 47.784C63.3872 47.5224 62.9857 47.32 62.56 47.1842C62.042 47.0128 61.4934 46.9536 60.9508 47.0105C60.4081 47.0674 59.8837 47.2391 59.4125 47.5143C59.0245 47.7346 58.6748 48.0163 58.3768 48.3484C58.1095 48.6596 57.8747 48.9974 57.6763 49.3565C57.7051 49.2478 57.7465 49.143 57.7997 49.044C57.9352 48.7717 58.1045 48.5177 58.3037 48.288C58.81 47.6744 59.4908 47.2291 60.2559 47.0113C61.021 46.7935 61.8342 46.8133 62.5877 47.0683C63.0228 47.2132 63.4307 47.4296 63.7948 47.7084C64.0381 47.8958 64.2573 48.1125 64.4475 48.3535C64.5252 48.4385 64.5913 48.5334 64.6441 48.6357Z" fill="#7F594B"/>
<path d="M49.9448 52.9355C49.7624 53.0441 49.5933 53.1734 49.4408 53.321C49.0538 53.7648 48.8112 54.3159 48.7452 54.9011C48.6823 55.3001 48.6908 55.7071 48.7704 56.1031C48.866 56.5552 49.076 56.9751 49.3803 57.3228C49.7236 57.7063 50.1564 57.9989 50.6403 58.1745C51.1496 58.3774 51.7086 58.4204 52.243 58.298C52.7777 58.1784 53.2662 57.9062 53.6492 57.5143C54.0056 57.1487 54.2541 56.6917 54.3674 56.1938C54.4724 55.774 54.4875 55.3366 54.4115 54.9106C54.3355 54.4845 54.1701 54.0793 53.9264 53.7217C53.5844 53.2419 53.0758 52.9068 52.5 52.7817C52.2878 52.7466 52.0721 52.7365 51.8574 52.7515C51.9107 52.7346 51.9656 52.7236 52.0212 52.7187C52.1832 52.701 52.3468 52.7053 52.5076 52.7313C53.1068 52.8409 53.6414 53.1753 54.002 53.6663C54.2605 54.0329 54.4373 54.4507 54.5203 54.8916C54.6033 55.3324 54.5907 55.786 54.4833 56.2215C54.3687 56.7415 54.1122 57.2195 53.7424 57.6025C53.3419 58.0138 52.8307 58.3001 52.2707 58.4265C51.7116 58.5546 51.1267 58.508 50.5949 58.293C50.0959 58.1089 49.6514 57.8021 49.3022 57.4009C48.9872 57.0369 48.7719 56.5976 48.6772 56.1258C48.6017 55.7168 48.6017 55.2974 48.6772 54.8885C48.752 54.2873 49.0169 53.7258 49.4332 53.2857C49.5515 53.1733 49.6846 53.0775 49.8288 53.001C49.8655 52.9758 49.9043 52.9538 49.9448 52.9355Z" fill="#737690"/>
<path d="M54.7478 64.8195L47.6565 67.4604L42.7954 81.837L49.7607 105.941L45.6606 119.196H88.0168L84.141 107.604C84.7584 103.32 87.4926 93.4038 87.1197 88.7973C86.3083 78.8231 82.3645 64.7262 82.3645 64.7262L71.478 64.1895C68.9681 70.5953 57.7692 71.0842 54.7478 64.8195Z" fill="#737690"/>
<g opacity="0.3">
<path opacity="0.3" d="M69.1799 68.1006C69.1799 68.1006 69.2354 68.2165 69.3362 68.4156C69.8225 69.3757 71.3396 72.2662 72.4786 73.1683C73.8545 74.2595 75.5177 75.6883 75.5177 75.6883C77.1381 86.1942 80.3335 95.2813 84.746 103.275L81.9185 88.6411L77.1784 71.2128L69.2354 68.2165" fill="#2D3259"/>
</g>
<g opacity="0.3">
<path opacity="0.3" d="M55.6099 105.371L46.6211 117.986C51.6082 116.726 56.308 113.685 58.6793 109.118C58.959 108.579 59.2236 108.01 59.6873 107.606C60.5365 106.85 61.7663 106.483 62.8423 106.137C66.1889 105.064 67.716 103.907 68.9508 101.468C65.8386 105.434 60.2316 106.848 55.6099 105.371Z" fill="#2D3259"/>
</g>
<path d="M82.1909 64.7642C82.1909 64.7642 85.036 64.1493 88.7807 68.9071C92.0567 73.0676 96.1593 79.6549 96.1593 79.6549L86.291 83.8709L82.2363 66.2309L82.1909 64.7642Z" fill="#737690"/>
<path d="M32.5417 89.8257C32.5417 89.8257 35.9362 73.5515 39.2802 70.9836C42.6898 68.3654 49.7609 66.7803 49.7609 66.7803L49.4283 93.9056L32.5417 89.8257Z" fill="#737690"/>
<path d="M46.4697 78.4248C46.4933 78.4712 46.5111 78.5203 46.5226 78.571C46.5529 78.6667 46.5907 78.8104 46.6411 78.9969C46.7368 79.3698 46.8654 79.9091 46.9989 80.5844C47.3427 82.3404 47.5834 84.115 47.7197 85.8991C47.8622 87.6838 47.8959 89.4755 47.8205 91.2642C47.8028 91.9497 47.7499 92.5041 47.7197 92.8871C47.7045 93.066 47.6919 93.2122 47.6793 93.3256C47.6781 93.3776 47.6705 93.4292 47.6567 93.4793C47.6522 93.4282 47.6522 93.3767 47.6567 93.3256C47.6567 93.2097 47.6567 93.0736 47.6718 92.8821C47.6869 92.499 47.7247 91.9471 47.7323 91.2617C47.7788 89.4763 47.7317 87.6897 47.5911 85.9092C47.4554 84.1297 47.2283 82.3583 46.9107 80.6021C46.7898 79.9267 46.6738 79.3849 46.5932 79.0094C46.5554 78.833 46.5226 78.6894 46.4974 78.5785C46.4824 78.5285 46.4731 78.4769 46.4697 78.4248Z" fill="#161B46"/>
<path d="M71.3927 94.4424C71.3987 94.4934 71.3987 94.545 71.3927 94.5961C71.3927 94.6969 71.3927 94.8481 71.3927 95.0396C71.3756 95.583 71.314 96.1241 71.2088 96.6575C70.8745 98.4321 70.1119 100.098 68.9872 101.511C67.8624 102.924 66.4096 104.041 64.7551 104.764C64.2585 104.986 63.7454 105.168 63.2204 105.309C63.0339 105.362 62.8877 105.387 62.7895 105.409C62.7393 105.423 62.6877 105.432 62.6357 105.435C62.6822 105.412 62.7313 105.395 62.7819 105.384C62.8777 105.351 63.0339 105.319 63.2053 105.258C63.722 105.101 64.2272 104.908 64.7173 104.681C66.3427 103.941 67.77 102.826 68.8824 101.428C69.9948 100.031 70.7609 98.39 71.1181 96.6398C71.2292 96.1113 71.3041 95.5758 71.3423 95.0371C71.36 94.8456 71.36 94.6969 71.3701 94.5961C71.3711 94.5441 71.3787 94.4925 71.3927 94.4424Z" fill="#161B46"/>
<path d="M46.5555 80.2624C46.4317 80.1886 46.3145 80.1043 46.2052 80.0104C45.9859 79.8441 45.6634 79.6098 45.2602 79.33C44.2087 78.5998 43.1053 77.947 41.959 77.377C40.8097 76.8124 39.6204 76.3332 38.4007 75.9432C37.9345 75.7945 37.5515 75.6912 37.2869 75.608C37.148 75.5747 37.0116 75.5318 36.8787 75.4795C37.0209 75.4939 37.1616 75.52 37.2995 75.5576C37.5691 75.6156 37.9547 75.7164 38.4285 75.855C39.6622 76.2204 40.8627 76.69 42.0169 77.2586C43.1704 77.8304 44.2739 78.498 45.3156 79.2544C45.7113 79.5468 46.0263 79.7912 46.2354 79.9726C46.3498 80.0603 46.4569 80.1572 46.5555 80.2624Z" fill="white"/>
<path d="M71.5942 71.1443C71.5744 71.1509 71.5542 71.156 71.5337 71.1595L71.3497 71.1922L70.6441 71.3081L68.046 71.7239C65.8511 72.0767 62.8246 72.5858 59.4906 73.2057C56.1566 73.8256 53.1503 74.438 50.9755 74.8966L48.4001 75.4409L47.6995 75.5871L47.5181 75.6224H47.4551C47.4551 75.6224 47.4752 75.6224 47.5156 75.5997L47.6945 75.5543L48.39 75.383C48.9948 75.2393 49.8718 75.0377 50.9554 74.7983C53.1251 74.317 56.1314 73.6895 59.4679 73.0696C62.8044 72.4497 65.8335 71.9558 68.0359 71.6257C69.1347 71.4593 70.0242 71.3308 70.6416 71.2502L71.3523 71.1595L71.5362 71.1393C71.5557 71.1376 71.5753 71.1393 71.5942 71.1443Z" fill="white"/>
<path d="M88.5359 69.0479C88.5637 69.0705 87.8077 69.9702 86.8501 71.0639C85.8925 72.1575 85.0861 73.0068 85.0659 72.9841C85.5938 72.2843 86.1564 71.6115 86.7518 70.9681C87.3136 70.2982 87.9091 69.6573 88.5359 69.0479Z" fill="white"/>
<path d="M55.5442 89.1523L46.9762 99.5826L47.1324 93.2826L34.8424 90.3796C34.8424 90.3796 34.7895 93.9076 34.8147 101.339C34.8147 103.32 35.3968 109.857 36.2082 112.893C37.254 116.819 44.3478 120.355 48.3345 116.953C51.7793 114.012 63.0261 91.9092 63.0261 91.9092L55.5442 89.1523Z" fill="#B5836D"/>
<path d="M55.5444 89.1523C55.5166 89.208 55.4828 89.2603 55.4436 89.3086C55.3756 89.4094 55.2697 89.5606 55.1286 89.737C54.8464 90.1049 54.4281 90.624 53.9064 91.2666C52.8657 92.5468 51.4066 94.2906 49.7913 96.2361L45.666 101.198L44.4287 102.71L44.0986 103.126C44.0611 103.175 44.0198 103.221 43.9751 103.264C44.0041 103.209 44.0379 103.157 44.0759 103.108C44.1565 103 44.2599 102.856 44.3884 102.677C44.6681 102.309 45.0789 101.783 45.5955 101.137C46.6261 99.8472 48.0777 98.0857 49.6905 96.1504L55.5444 89.1523Z" fill="#7F594B"/>
<path d="M72.844 76.1318C72.844 76.1318 71.1959 76.9609 71.0371 78.8761C70.8784 80.7913 71.0371 85.7003 71.0371 85.7003L73.8797 85.3374L72.844 76.1318Z" fill="#7F594B"/>
<path d="M72.6023 80.892C72.5393 79.8311 72.3503 78.7475 71.8287 77.8277C71.3849 77.1111 70.8002 76.4921 70.1101 76.0083C69.3385 75.4205 68.4763 74.9626 67.5573 74.6525C66.2897 74.2361 64.9349 74.1604 63.6288 74.4327C62.3226 74.7051 61.111 75.3161 60.1155 76.2044C59.12 77.0927 58.3755 78.2272 57.9567 79.494C57.5379 80.7608 57.4595 82.1154 57.7293 83.4221L57.7117 83.349C57.7117 83.4045 57.7343 83.4574 57.7444 83.5128C57.7545 83.5683 57.757 83.5733 57.7646 83.6035C58.1476 85.3902 58.7171 86.8443 60.1258 88.0513C61.0532 88.8451 62.2653 89.2156 63.4623 89.4499C65.2994 89.8128 67.2927 89.8809 68.9609 89.0291C70.3575 88.2681 71.4316 87.0275 71.9849 85.5364C72.5246 84.0512 72.7353 82.4666 72.6023 80.892Z" fill="#FFBE8D"/>
<path d="M72.4562 79.776C72.5771 80.7588 72 81.6987 71.6397 82.6236C71.4078 83.2208 71.1357 83.8634 70.5788 84.1809C70.1705 84.4128 69.6564 84.4329 69.281 84.7177C68.9685 84.947 68.7921 85.325 68.4746 85.5493C67.7186 86.081 66.6098 85.5191 65.7857 85.9298C65.545 86.0782 65.3174 86.2468 65.1053 86.4338C64.9977 86.5244 64.8716 86.5905 64.7358 86.6275C64.6 86.6645 64.4578 86.6715 64.3191 86.648C63.9965 86.5623 63.8151 86.2297 63.5203 86.0583C63.1599 85.8416 62.7088 85.8996 62.2905 85.8895C61.6177 85.8619 60.9666 85.6432 60.4137 85.2589C59.8607 84.8747 59.4287 84.3408 59.1682 83.7198C59.1682 83.7198 58.4954 84.5514 58.1602 84.2238C57.9361 83.9838 57.7788 83.6892 57.7041 83.3695L57.7217 83.4426C57.4519 82.1359 57.5303 80.7813 57.9491 79.5145C58.3679 78.2477 59.1124 77.1132 60.1079 76.2249C61.1035 75.3366 62.315 74.7256 63.6212 74.4532C64.9273 74.1809 66.2821 74.2566 67.5497 74.673C68.4687 74.9831 69.331 75.441 70.1025 76.0288C70.7927 76.5126 71.3773 77.1316 71.8211 77.8482C72.1552 78.4438 72.3709 79.0984 72.4562 79.776Z" fill="#00ACE9"/>
<g opacity="0.3">
<path opacity="0.3" d="M71.0773 78.5555C71.0063 78.2904 70.882 78.0426 70.7119 77.8272C69.8068 76.5699 68.513 75.6453 67.0302 75.1963C65.561 74.7553 64.0969 74.9897 62.663 75.5391C62.4944 75.5841 62.3502 75.6936 62.2616 75.844C62.1729 75.9944 62.147 76.1736 62.1892 76.3429C62.2407 76.5099 62.3346 76.6606 62.4618 76.7804C62.5891 76.9001 62.7452 76.9847 62.915 77.0259C63.2563 77.1053 63.6119 77.1001 63.9507 77.0107C64.2934 76.9402 64.6286 76.8369 64.9738 76.7991C65.8059 76.7504 66.6307 76.9781 67.32 77.4467C68.0007 77.9144 68.6474 78.4298 69.2553 78.989C69.4784 79.202 69.7413 79.369 70.029 79.4804C70.1741 79.5333 70.3308 79.5465 70.4828 79.5186C70.6347 79.4907 70.7765 79.4227 70.8933 79.3216C70.984 79.2185 71.0481 79.0948 71.0802 78.9613C71.1122 78.8278 71.1112 78.6885 71.0773 78.5555Z" fill="white"/>
</g>
<g opacity="0.3">
<path opacity="0.3" d="M65.8058 81.9384C65.1354 81.7545 64.45 82.1047 63.825 82.4071C63.2001 82.7095 62.4391 82.9691 61.8368 82.6188C61.2925 82.3038 60.985 81.5403 60.355 81.5176C60.1528 81.5267 59.9592 81.6023 59.8043 81.7326C59.6494 81.8629 59.5418 82.0406 59.4982 82.2383C59.423 82.6399 59.4955 83.0552 59.7023 83.4076C60.0106 83.9756 60.4879 84.4338 61.068 84.7187C61.6482 85.0035 62.3025 85.1011 62.9405 84.9977C63.5403 84.8868 64.1023 84.5995 64.7045 84.5391C65.2438 84.4887 65.8688 84.597 66.2619 84.2241C66.5769 83.9267 66.8768 83.6949 67.0179 83.0699C67.1187 82.5936 66.8969 82.1526 65.8058 81.9384Z" fill="white"/>
</g>
<g opacity="0.3">
<path opacity="0.3" d="M69.1574 82.0059C69.0617 81.6607 68.6055 81.4868 68.2477 81.517H68.225C68.122 81.5487 68.0274 81.6031 67.9482 81.6761C67.869 81.7491 67.8072 81.839 67.7673 81.9391C67.7274 82.0392 67.7104 82.147 67.7177 82.2545C67.725 82.362 67.7562 82.4665 67.8092 82.5603C67.8983 82.7158 68.0396 82.8345 68.2081 82.8954C68.3765 82.9564 68.5611 82.9555 68.729 82.893C68.892 82.8175 69.0238 82.6879 69.102 82.5261C69.1801 82.3644 69.1997 82.1805 69.1574 82.0059Z" fill="white"/>
</g>
<g opacity="0.3">
<path opacity="0.3" d="M63.074 81.5821C63.6536 81.2278 64.3115 81.0216 64.9896 80.9816C65.6677 80.9416 66.3452 81.0691 66.9624 81.3528C67.4535 80.8443 68.0899 80.5001 68.7843 80.3674C68.4958 79.8158 68.0835 79.3385 67.5797 78.9728C67.0758 78.6072 66.4942 78.3632 65.8803 78.2599C65.2664 78.1567 64.6369 78.197 64.0412 78.3777C63.4454 78.5584 62.8996 78.8746 62.4465 79.3015C62.0585 79.6719 61.7283 80.2188 61.9173 80.7202C62.0786 81.1512 62.5524 81.3654 62.9808 81.5342" fill="#2D3259"/>
</g>
<path d="M69.9183 80.4331C69.611 80.3835 69.2994 80.3657 68.9885 80.3802C68.6491 80.4148 68.3196 80.515 68.0183 80.675C67.6417 80.8809 67.282 81.1159 66.9422 81.3781L66.912 81.3957L66.8767 81.3831C66.7008 81.3183 66.5216 81.2628 66.3399 81.2168C65.8611 81.0955 65.3652 81.0563 64.8733 81.1009C64.4711 81.1403 64.0757 81.2309 63.6965 81.3705C63.0463 81.6225 62.6885 81.8569 62.6733 81.8342C62.7509 81.7667 62.8354 81.7076 62.9253 81.6578C63.1671 81.513 63.4199 81.3874 63.6813 81.2823C64.065 81.1282 64.4676 81.0265 64.8783 80.9799C65.3848 80.9273 65.8966 80.9639 66.3903 81.0883C66.578 81.1368 66.763 81.1948 66.9447 81.2622H66.8817C67.2291 80.9977 67.5984 80.7634 67.9855 80.5616C68.2997 80.4031 68.6424 80.3088 68.9935 80.2844C69.227 80.2728 69.461 80.2932 69.689 80.3449C69.7689 80.3645 69.8459 80.3942 69.9183 80.4331Z" fill="#161B46"/>
<path d="M68.7667 80.247C68.5193 79.8834 68.2291 79.5509 67.9023 79.2566C67.5412 78.9474 67.1294 78.7027 66.6852 78.5334C66.1431 78.328 65.5614 78.2487 64.9842 78.3015C64.4059 78.3565 63.8459 78.5334 63.3411 78.8206C62.9296 79.0563 62.5642 79.3645 62.2626 79.7304C62.056 79.9751 61.9024 80.26 61.8115 80.567C61.751 80.7862 61.7535 80.9148 61.7409 80.9148C61.7354 80.8839 61.7354 80.8524 61.7409 80.8215C61.7439 80.7318 61.7541 80.6425 61.7712 80.5544C61.8467 80.233 61.9931 79.9325 62.1996 79.6749C62.4983 79.2885 62.8688 78.9634 63.2907 78.7173C63.8072 78.4127 64.3846 78.226 64.9816 78.1705C65.5813 78.1153 66.1855 78.2016 66.7456 78.4225C67.1988 78.5978 67.6163 78.8539 67.9779 79.1785C68.2213 79.3973 68.4349 79.6473 68.613 79.9219C68.6614 79.9963 68.7052 80.0738 68.744 80.1537C68.7563 80.1835 68.7639 80.2149 68.7667 80.247Z" fill="#161B46"/>
<path d="M59.0268 83.0589C59.0009 82.9565 58.9849 82.8519 58.9789 82.7465C58.9478 82.4611 58.9335 82.1742 58.9361 81.8871C58.9376 81.4597 58.9679 81.0329 59.0268 80.6095C59.1729 79.5688 59.4843 78.5582 59.9491 77.6158C60.1391 77.2329 60.3546 76.8633 60.5943 76.5095C60.7535 76.2709 60.9269 76.042 61.1134 75.824C61.1762 75.7393 61.249 75.6623 61.3301 75.5947C61.3503 75.6098 61.0605 75.9526 60.6724 76.5624C60.4455 76.9181 60.241 77.2876 60.06 77.6687C59.8387 78.1355 59.6501 78.6172 59.4955 79.1101C59.3452 79.6056 59.229 80.1107 59.1478 80.6221C59.0834 81.0394 59.0439 81.4601 59.0293 81.8821C59.0067 82.6104 59.052 83.0564 59.0268 83.0589Z" fill="white"/>
<path d="M61.0227 85.4108C60.9665 85.2739 60.9227 85.1322 60.8916 84.9875C60.8426 84.8219 60.803 84.6536 60.7732 84.4835C60.7379 84.2844 60.685 84.0576 60.6598 83.8031C60.6199 83.5274 60.5947 83.2498 60.5842 82.9715C60.559 82.6716 60.5691 82.349 60.5842 82.0113C60.6137 81.2768 60.709 80.5465 60.869 79.829C61.0387 79.1145 61.2732 78.4169 61.5695 77.745C61.7157 77.44 61.8467 77.1452 62.003 76.8882C62.1347 76.6421 62.2794 76.4032 62.4364 76.1725C62.57 75.9532 62.7161 75.7743 62.8371 75.6105C62.9388 75.4702 63.0482 75.3356 63.1647 75.2073C63.2564 75.0909 63.3585 74.9829 63.4696 74.8848C63.3932 75.0084 63.309 75.1271 63.2176 75.2401C63.1269 75.351 63.021 75.4921 62.9076 75.6559C62.7942 75.8197 62.6556 76.0036 62.5271 76.2229C62.3986 76.4421 62.2449 76.674 62.1088 76.9386C61.9727 77.2032 61.8341 77.4905 61.693 77.7929C61.1102 79.1285 60.7796 80.5604 60.7178 82.0164C60.7178 82.349 60.6976 82.6691 60.7178 82.9664C60.7379 83.2638 60.7505 83.541 60.7782 83.793C60.806 84.045 60.8412 84.2718 60.8715 84.4709C60.9017 84.6699 60.9345 84.8413 60.9672 84.9749C60.9964 85.1186 61.0149 85.2643 61.0227 85.4108Z" fill="white"/>
<path d="M63.8122 86.1491C63.6908 85.9585 63.5974 85.7514 63.535 85.5342C63.3562 85.0197 63.2435 84.4845 63.1998 83.9416C63.1541 83.3989 63.1787 82.8526 63.2729 82.3162C63.2989 82.0921 63.3575 81.8731 63.4468 81.666C63.4315 81.8883 63.4038 82.1096 63.3636 82.3288C63.2996 82.8606 63.2886 83.3975 63.3309 83.9315C63.3753 84.465 63.4732 84.9926 63.6232 85.5065C63.6979 85.7171 63.7609 85.9316 63.8122 86.1491Z" fill="white"/>
<path d="M64.7622 77.5102C64.7762 76.9834 64.8962 76.4649 65.115 75.9856C65.2937 75.4905 65.5687 75.0358 65.9239 74.6475C65.9567 74.6701 65.556 75.2422 65.236 76.036C64.9159 76.8298 64.8 77.5177 64.7622 77.5102Z" fill="white"/>
<path d="M67.429 78.4249C67.3578 77.9515 67.3853 77.4685 67.5096 77.0062C67.5922 76.5336 67.7696 76.0827 68.0312 75.6807C68.069 75.6983 67.8019 76.2754 67.6381 77.0339C67.4743 77.7924 67.4693 78.4249 67.429 78.4249Z" fill="white"/>
<path d="M67.0984 85.5038C66.9937 85.3779 66.9088 85.2369 66.8464 85.0855C66.4877 84.373 66.2663 83.5993 66.1937 82.8049C66.1656 82.6423 66.1656 82.4761 66.1937 82.3135C66.234 82.3135 66.2794 83.0695 66.5364 83.9414C66.7935 84.8133 67.1362 85.4836 67.0984 85.5038Z" fill="white"/>
<path d="M70.5232 77.666C70.5009 77.7781 70.468 77.8878 70.4249 77.9936C70.3445 78.2908 70.2897 78.5943 70.2611 78.9008C70.2246 79.3568 70.2136 79.8145 70.2284 80.2717C70.2532 80.8372 70.2423 81.4036 70.1956 81.9677C70.1681 82.2613 70.1124 82.5516 70.0293 82.8346C69.9906 82.9727 69.9409 83.1076 69.8806 83.2378C69.8456 83.3046 69.7987 83.3644 69.742 83.4142C69.7103 83.4402 69.6736 83.4597 69.6342 83.4714C69.5948 83.4831 69.5535 83.4868 69.5127 83.4822C69.374 83.4444 69.2556 83.354 69.1825 83.2302C69.1044 83.1319 69.0339 83.0336 68.9658 82.9379C68.8443 82.7593 68.734 82.5733 68.6357 82.381C68.4945 82.1016 68.3822 81.8086 68.3005 81.5065C68.2648 81.3981 68.2437 81.2854 68.2375 81.1713C68.3675 81.5721 68.5285 81.9622 68.7189 82.3381C68.8202 82.5246 68.933 82.7048 69.0565 82.8774C69.1221 82.9681 69.1926 83.0639 69.2708 83.1571C69.3489 83.2504 69.4295 83.3461 69.5228 83.3587C69.616 83.3713 69.7092 83.2831 69.7748 83.1722C69.83 83.05 69.8755 82.9236 69.9108 82.7942C69.9905 82.5177 70.0437 82.2341 70.0696 81.9475C70.1157 81.3893 70.13 80.829 70.1124 80.2692C70.1032 79.8072 70.1234 79.3451 70.1729 78.8857C70.2107 78.5752 70.2808 78.2694 70.3821 77.9735C70.4182 77.8663 70.4655 77.7633 70.5232 77.666Z" fill="white"/>
<path d="M74.5982 82.0085L73.633 79.5918C73.633 79.5918 72.7031 80.058 72.7535 81.7111C72.8039 83.3642 72.5015 83.8808 72.5015 83.8808C72.5015 83.8808 71.5187 83.6742 71.2617 85.3802C71.0046 87.0863 69.2986 88.8427 69.2986 88.8427L64.1805 89.2081C64.1805 89.2081 61.2295 88.1598 60.0401 87.1795C58.8507 86.1992 59.2135 84.9115 58.9565 82.5276C58.6995 80.1437 57.1925 81.2878 57.1925 81.2878C57.1925 81.2878 57.4445 83.4071 56.7767 85.3198C56.1089 87.2324 55.5369 88.936 55.5369 89.1426L60.4987 93.8978C60.7639 93.3266 61.1869 92.843 61.7177 92.5042C62.2486 92.1653 62.8652 91.9852 63.495 91.9852C63.495 91.9852 70.6266 92.0381 71.4028 91.4686C72.179 90.899 72.4889 89.6088 72.4889 89.6088C72.4889 89.6088 74.1899 87.1342 74.6536 86.3782C75.2559 85.4105 74.5982 82.0085 74.5982 82.0085Z" fill="#B5836D"/>
<path d="M72.2444 84.0239C72.2444 84.0239 72.2595 84.0063 72.2973 83.9811C72.357 83.9512 72.4222 83.934 72.4888 83.9307C72.6119 83.9306 72.7332 83.9599 72.8427 84.016C72.9523 84.072 73.0469 84.1534 73.1188 84.2532C73.3035 84.5648 73.3722 84.9316 73.3129 85.2889C73.2801 85.6795 73.2373 86.1054 73.1869 86.5489C73.1067 87.3131 72.9746 88.0708 72.7912 88.8169C72.7181 89.1042 72.6451 89.3335 72.5896 89.4898C72.5656 89.5725 72.5318 89.652 72.4888 89.7267C72.4687 89.7267 72.577 89.3713 72.7005 88.7943C72.857 88.0447 72.9756 87.2878 73.0558 86.5263C73.1037 86.0802 73.1516 85.6543 73.1919 85.2663C73.253 84.9353 73.2006 84.5935 73.0432 84.2961C72.9816 84.2031 72.8996 84.1254 72.8036 84.0686C72.7076 84.0119 72.6 83.9777 72.4888 83.9685C72.4053 83.9764 72.3231 83.995 72.2444 84.0239Z" fill="#7F594B"/>
<path d="M59.8408 94.5729C59.9212 94.3627 60.0325 94.1656 60.1709 93.9882C60.4831 93.5441 60.8554 93.1455 61.2772 92.8038C61.5123 92.6117 61.7655 92.4429 62.0332 92.2998C62.2513 92.1899 62.4813 92.1053 62.7187 92.0478C62.8096 92.0233 62.9023 92.0056 62.9959 91.9949C63.0658 91.9832 63.1367 91.9781 63.2075 91.9798C63.326 91.9798 63.389 91.9798 63.389 91.9949C63.389 92.01 63.137 92.0176 62.7439 92.1386C62.5166 92.2084 62.297 92.3012 62.0887 92.4158C61.8351 92.5595 61.5933 92.7229 61.3654 92.9046C60.9514 93.24 60.5776 93.6223 60.2516 94.0437C59.992 94.3662 59.8559 94.5829 59.8408 94.5729Z" fill="#7F594B"/>
<path d="M80.5831 52.3029C81.0425 52.5026 81.4481 52.8084 81.7666 53.1952C82.085 53.582 82.3073 54.0387 82.4151 54.528C82.8208 56.2265 82.1026 57.3807 81.2912 58.1417C80.5352 58.8574 77.0072 62.2317 74.2503 62.5542C71.4934 62.8768 69.7647 63.1414 67.9503 61.8184C66.335 60.639 66.4811 58.1593 67.9503 56.8615C69.4195 55.5637 72.8189 53.5855 74.5502 52.6128C76.2814 51.6401 79.0081 51.1966 80.5831 52.3029Z" fill="#FFBE8D"/>
<path d="M81.024 53.424C80.9661 53.716 80.8352 53.9886 80.6435 54.2165C80.4518 54.4443 80.2056 54.6198 79.9278 54.7269C79.3457 54.9385 78.6678 55.0973 78.3579 55.6391C78.1663 55.9818 78.1311 56.4732 77.7682 56.6269C77.4733 56.7529 77.1105 56.5715 76.8181 56.7025C76.1831 56.9923 76.7173 58.1868 76.1352 58.5724C75.8076 58.7866 75.3792 58.5724 75.0592 58.3431C74.7391 58.1137 74.3662 57.8391 73.9957 57.9726C73.4136 58.1717 73.4615 59.1091 72.9273 59.4166C72.6173 59.598 72.2191 59.4922 71.8991 59.3284C71.5992 59.1289 71.269 58.9791 70.9213 58.8849C70.4947 58.8571 70.0699 58.9609 69.7042 59.1822C69.3401 59.4051 68.9297 59.5413 68.5047 59.5804C68.0788 59.5804 67.2169 59.3284 67.1993 58.9126C67.1993 58.9126 66.5668 58.1944 67.9276 56.8512C68.9683 55.8256 72.4963 53.7037 72.4963 53.7037C72.4963 53.7037 75.8605 51.2694 78.8392 51.6424C78.8493 51.66 81.4146 51.8742 81.024 53.424Z" fill="#00ACE9"/>
<path d="M77.418 54.084C77.418 54.1041 77.0678 54.2528 76.5386 54.588C76.0094 54.9231 75.3189 55.4372 74.5226 55.9815C73.8542 56.4642 73.1048 56.8235 72.31 57.0425C72.0673 57.1016 71.8189 57.1346 71.5691 57.1407C71.4772 57.1487 71.3846 57.1428 71.2944 57.1231C71.6282 57.0892 71.9591 57.032 72.2848 56.9517C73.0601 56.712 73.7912 56.3478 74.4495 55.8732C75.2357 55.3339 75.9338 54.8123 76.4856 54.5073C76.7013 54.3837 76.9243 54.2735 77.1534 54.1772C77.2364 54.1328 77.3256 54.1014 77.418 54.084Z" fill="#161B46"/>
<g opacity="0.3">
<path opacity="0.3" d="M77.4133 53.1242C77.2451 53.0865 77.0694 53.1006 76.9093 53.1645C75.7022 53.5249 74.737 54.4094 73.7668 55.2133C72.7966 56.0172 71.703 56.7984 70.448 56.879C70.9791 57.1324 71.5832 57.1878 72.1515 57.0353C74.349 56.3775 75.6266 54.7673 77.4082 54.0843C77.5053 54.0343 77.5877 53.9599 77.6473 53.8685C77.7069 53.777 77.7418 53.6717 77.7484 53.5627C77.735 53.467 77.6971 53.3763 77.6384 53.2995C77.5797 53.2227 77.5021 53.1623 77.4133 53.1242Z" fill="#2D3259"/>
</g>
<path d="M68.583 59.288C68.463 59.3482 68.3256 59.3642 68.1949 59.3333C68.033 59.3134 67.8776 59.2575 67.7402 59.1698C67.6027 59.082 67.4865 58.9646 67.4003 58.8262C67.314 58.6877 67.2598 58.5318 67.2417 58.3697C67.2235 58.2076 67.2418 58.0435 67.2953 57.8894C67.3784 57.6525 67.4994 57.5492 67.507 57.5593C67.5145 57.5693 67.4389 57.6928 67.386 57.9146C67.3484 58.0561 67.3402 58.2037 67.3619 58.3485C67.3837 58.4933 67.4348 58.6321 67.5123 58.7563C67.5898 58.8805 67.6919 58.9875 67.8123 59.0707C67.9327 59.1539 68.069 59.2116 68.2126 59.2401C68.4242 59.293 68.5805 59.2653 68.583 59.288Z" fill="white"/>
<path d="M72.4233 59.1015C72.223 59.131 72.0184 59.0994 71.8362 59.0108C71.5237 58.9025 71.3045 58.7412 71.3322 58.7109C71.525 58.7439 71.7124 58.8033 71.8891 58.8873C72.0762 58.9339 72.2559 59.006 72.4233 59.1015Z" fill="white"/>
<path d="M73.91 56.584C73.7865 56.6971 73.6441 56.7876 73.4891 56.8511C73.129 57.0283 72.748 57.1595 72.3551 57.2417C71.9606 57.3216 71.5577 57.3521 71.1556 57.3324C70.9894 57.3342 70.8241 57.3078 70.6667 57.2543C71.2231 57.2489 71.7782 57.2017 72.3274 57.1132C72.8677 56.9775 73.3968 56.8006 73.91 56.584Z" fill="white"/>
<path d="M75.6716 58.1343C75.6716 58.167 75.4373 58.2074 75.1676 58.0864C74.898 57.9654 74.7795 57.7613 74.8098 57.7412C74.84 57.721 74.9912 57.8646 75.2231 57.968C75.4549 58.0713 75.6691 58.0965 75.6716 58.1343Z" fill="white"/>
<path d="M77.6223 56.1328C77.6223 56.1706 77.5265 56.2033 77.403 56.2084C77.2796 56.2134 77.1813 56.1857 77.1788 56.1504C77.1762 56.1151 77.277 56.0799 77.398 56.0748C77.519 56.0698 77.6198 56.0975 77.6223 56.1328Z" fill="white"/>
<path d="M80.4043 53.7894C80.4194 53.7894 80.4043 53.9154 80.301 54.0818C80.1589 54.2923 79.9631 54.4611 79.734 54.5706C79.5095 54.6759 79.271 54.7481 79.0259 54.7848C78.8394 54.8151 78.7235 54.8201 78.7184 54.8025C78.7134 54.7848 78.8268 54.747 79.0032 54.6941C79.2342 54.6294 79.4593 54.5451 79.676 54.4421C79.8862 54.3401 80.0732 54.196 80.2254 54.0188C80.3388 53.8902 80.3841 53.7819 80.4043 53.7894Z" fill="white"/>
<g opacity="0.2">
<path opacity="0.2" d="M73.996 53.0205C73.9027 53.081 73.8095 53.144 73.7188 53.2095L73.996 53.0205Z" fill="white"/>
<path opacity="0.2" d="M79.638 52.0579C79.3628 51.8773 79.0397 51.7834 78.7106 51.7883C77.0481 51.6895 75.3972 52.121 73.9957 53.0205C73.8058 53.1336 73.6404 53.2836 73.5093 53.4615C73.4456 53.5538 73.4183 53.6665 73.4327 53.7777C73.4472 53.8889 73.5023 53.9909 73.5875 54.0638C73.7891 54.2049 74.0637 54.1041 74.283 53.9958C75.0087 53.6279 75.6967 53.1692 76.4678 52.9097C77.2389 52.6501 78.1436 52.6173 78.8215 53.0684C79.0382 53.2146 79.2575 53.4137 79.517 53.3859C79.6605 53.3519 79.7868 53.267 79.8725 53.147C79.9582 53.027 79.9976 52.88 79.9832 52.7333C79.9762 52.6028 79.9418 52.4752 79.8824 52.3589C79.8229 52.2426 79.7396 52.14 79.638 52.0579Z" fill="white"/>
</g>
<g opacity="0.2">
<path opacity="0.2" d="M72.6577 57.824C72.6111 57.7989 72.5593 57.7851 72.5065 57.7836L70.5031 57.5543C69.8831 57.4812 69.2431 57.4132 68.6433 57.5997C68.492 57.6159 68.3506 57.683 68.2425 57.7902C68.1344 57.8974 68.066 58.0382 68.0486 58.1894C68.0545 58.3268 68.1139 58.4566 68.2143 58.5507C68.3146 58.6449 68.4478 58.6961 68.5853 58.6934C68.8316 58.6349 69.0573 58.5103 69.238 58.333C69.658 58.0324 70.1798 57.9101 70.6895 57.9928C71.2641 58.086 71.816 58.4388 72.388 58.328C72.509 58.313 72.6198 58.2526 72.698 58.1591C72.7182 58.1349 72.7333 58.1067 72.7423 58.0764C72.7513 58.0461 72.754 58.0142 72.7502 57.9828C72.7464 57.9514 72.7363 57.9212 72.7204 57.8938C72.7044 57.8665 72.6831 57.8427 72.6577 57.824Z" fill="white"/>
</g>
<path d="M82.1428 55.6915C82.1151 55.6261 82.0703 55.5694 82.0131 55.5273C81.9559 55.4851 81.8884 55.4592 81.8177 55.4521C81.5456 55.5126 81.5934 55.8327 81.6665 55.9738C81.6844 56.0039 81.7081 56.0302 81.7362 56.0511C81.7643 56.0719 81.7963 56.0871 81.8303 56.0955C81.8643 56.1039 81.8996 56.1055 81.9342 56.1002C81.9688 56.0949 82.002 56.0828 82.0319 56.0645C82.0895 56.0237 82.1317 55.9648 82.1518 55.8972C82.1719 55.8296 82.1688 55.7572 82.1428 55.6915Z" fill="#EB996E"/>
<path d="M78.6398 58.6302C78.6242 58.5926 78.5986 58.56 78.5657 58.536C78.5328 58.512 78.494 58.4975 78.4534 58.4941C78.2971 58.5269 78.3249 58.7109 78.3652 58.794C78.3758 58.8112 78.3896 58.8262 78.406 58.8381C78.4224 58.8499 78.4409 58.8584 78.4606 58.8631C78.4802 58.8678 78.5006 58.8686 78.5206 58.8654C78.5405 58.8621 78.5596 58.855 78.5768 58.8444C78.6101 58.8211 78.6344 58.7873 78.6459 58.7484C78.6573 58.7094 78.6552 58.6678 78.6398 58.6302Z" fill="#EB996E"/>
<path d="M80.9637 55.4632C80.9454 55.427 80.9187 55.3957 80.8858 55.372C80.8529 55.3484 80.8148 55.333 80.7747 55.3271C80.6184 55.3624 80.6461 55.5464 80.689 55.627C80.6991 55.6444 80.7126 55.6595 80.7286 55.6716C80.7447 55.6837 80.763 55.6924 80.7825 55.6974C80.8019 55.7023 80.8222 55.7033 80.8421 55.7003C80.8619 55.6973 80.881 55.6904 80.8982 55.6799C80.931 55.6557 80.9551 55.6215 80.967 55.5825C80.9788 55.5434 80.9776 55.5016 80.9637 55.4632Z" fill="#EB996E"/>
<path d="M75.8225 74.0506C75.8225 74.0506 83.4909 99.364 83.9672 100.8C84.4434 102.237 87.4952 110.714 93.8733 108.776C101.078 106.591 95.6952 92.0812 95.6952 92.0812L92.6712 81.0915L87.8278 82.6741L83.9218 70.5957L75.8225 74.0506Z" fill="#B5836D"/>
<path d="M67.6682 61.8989C67.6682 61.8989 68.7266 67.3825 69.3365 68.2115C69.9463 69.0406 73.2677 72.367 73.2677 72.367L76.8687 74.7484L83.9575 70.7038L82.6849 65.0565L81.1023 58.381L79.2779 59.7922L79.4719 61.8435C79.4719 61.8435 76.8083 57.4108 75.8129 58.381C74.8175 59.3512 76.5915 61.3445 77.1459 63.0052C77.7003 64.6659 77.2568 65.5529 77.2568 65.5529C77.2568 65.5529 76.8133 65.6638 76.2035 64.613C75.7625 63.857 74.132 60.3819 72.7385 59.1799C72.6171 59.0724 72.4665 59.0035 72.3059 58.982C72.1453 58.9604 71.9818 58.9871 71.8364 59.0587C71.691 59.1303 71.5703 59.2436 71.4894 59.3841C71.4086 59.5246 71.3715 59.686 71.3827 59.8477L71.4407 60.6793L73.6003 66.1073L74.3765 67.4329L72.305 65.8856C72.305 65.8856 71.3651 63.0783 70.3823 61.5184C70.1904 61.2079 69.884 60.9854 69.5293 60.8991C69.1747 60.8128 68.8003 60.8696 68.4872 61.0573L68.9484 62.8943C68.9484 62.8943 68.9484 61.8435 67.6682 61.8989Z" fill="#B5836D"/>
<path d="M73.2573 70.3788C73.14 70.3347 73.029 70.2754 72.9271 70.2024C72.723 70.0764 72.4383 69.8748 72.0955 69.6153C71.7528 69.3557 71.3395 69.0483 70.8885 68.7106C70.6474 68.5212 70.4498 68.2823 70.3089 68.01C70.235 67.8663 70.1767 67.7151 70.135 67.5589L70.0065 67.0927C69.6688 65.8327 69.4243 64.6635 69.2102 63.8344C69.1043 63.4186 69.0136 63.0784 68.9582 62.8541C68.9165 62.7363 68.8861 62.6148 68.8674 62.4912C68.9238 62.6028 68.9702 62.7192 69.006 62.839C69.0867 63.0658 69.1925 63.3959 69.311 63.8092C69.5478 64.6357 69.815 65.7949 70.1426 67.0575C70.2107 67.3645 70.3086 67.6641 70.4349 67.9521C70.5654 68.2095 70.7493 68.4363 70.9741 68.6173C71.4252 68.9525 71.8284 69.2776 72.1611 69.5422C72.4937 69.8068 72.7709 70.021 72.9649 70.1596C73.159 70.2982 73.2623 70.3713 73.2573 70.3788Z" fill="#7F594B"/>
<path d="M76.435 68.8459C76.435 68.861 76.314 68.8862 76.1149 68.8711C75.8508 68.8496 75.5936 68.775 75.3589 68.6518C75.1265 68.5312 74.9201 68.3659 74.7516 68.1655C74.6256 68.0092 74.5777 67.8933 74.5903 67.8857C75.0629 68.4219 75.7174 68.764 76.4274 68.8459H76.435Z" fill="#7F594B"/>
<path d="M79.764 65.8859C79.2082 65.8231 78.6657 65.6734 78.1562 65.4424C78.4364 65.4546 78.7132 65.5081 78.9778 65.6012C79.2529 65.6552 79.5181 65.7512 79.764 65.8859Z" fill="#7F594B"/>
<path d="M81.0717 65.6631C80.9392 65.5074 80.8328 65.3312 80.7567 65.1415C80.549 64.6974 80.3681 64.2413 80.2149 63.7756C80.0284 63.2338 79.8595 62.7449 79.7108 62.4022C79.6229 62.2203 79.5455 62.0335 79.479 61.8428C79.6119 61.9987 79.719 62.1748 79.7965 62.3644C80.0032 62.8086 80.1833 63.2647 80.3358 63.7303C80.5223 64.2721 80.6936 64.7609 80.8398 65.1037C80.9278 65.2855 81.0052 65.4723 81.0717 65.6631Z" fill="#7F594B"/>
<path d="M96.1113 103.068C96.1091 103.049 96.1091 103.03 96.1113 103.01C96.1113 102.965 96.139 102.912 96.1566 102.844C96.1894 102.698 96.2675 102.489 96.3129 102.207C96.4756 101.417 96.4978 100.605 96.3784 99.8075C96.2499 98.7995 95.8492 97.6352 95.3528 96.3803C95.1008 95.7503 94.8488 95.09 94.5816 94.397C94.4607 94.0467 94.3296 93.7015 94.1835 93.3512C94.0373 93.001 93.8609 92.6607 93.6644 92.3256C92.9176 91.0628 92.1068 89.839 91.2351 88.659C90.4488 87.5552 89.7508 86.5523 89.2191 85.6728C88.7907 84.9838 88.4182 84.2616 88.1052 83.5131C87.9918 83.2611 87.9389 83.0318 87.886 82.8907C87.8658 82.8252 87.8507 82.7697 87.8356 82.7269C87.8286 82.7083 87.8244 82.6888 87.823 82.6689C87.8348 82.6848 87.8433 82.7028 87.8482 82.7219L87.9112 82.8806C87.9717 83.0218 88.0322 83.236 88.1632 83.493C88.4921 84.2305 88.8745 84.9431 89.3073 85.6249C89.8466 86.4943 90.5496 87.4897 91.3409 88.5884C91.734 89.1403 92.1498 89.7174 92.5682 90.3272C92.9865 90.9371 93.4073 91.5721 93.7853 92.2601C93.9844 92.6003 94.1482 92.9531 94.3095 93.2983C94.4708 93.6436 94.5917 94.0064 94.7102 94.3542C94.9622 95.0447 95.2268 95.7049 95.4662 96.3349C95.9576 97.5949 96.3532 98.7667 96.4742 99.7949C96.5862 100.602 96.5495 101.423 96.3658 102.217C96.3182 102.432 96.2576 102.644 96.1844 102.852L96.1289 103.015C96.1252 103.034 96.1192 103.051 96.1113 103.068Z" fill="#7F594B"/>
<path d="M73.2777 72.367C73.2777 72.367 73.2222 72.3191 73.1214 72.2183L72.6704 71.7748C72.2773 71.3816 71.6951 70.7995 70.9593 70.036C70.5914 69.6554 70.1857 69.2296 69.7522 68.7508C69.5114 68.5114 69.3106 68.2348 69.1575 67.9318C69.0161 67.5949 68.895 67.2499 68.7946 66.8986C68.3763 65.447 68.0059 63.7712 67.6304 61.9064V61.8535H67.6883C67.9943 61.8282 68.3005 61.9005 68.5628 62.0602C68.6977 62.156 68.809 62.2815 68.888 62.4269C68.9671 62.5723 69.0118 62.7339 69.0189 62.8993H68.9181C68.7745 62.3298 68.6157 61.7048 68.4544 61.0622V61.0219L68.4897 61.0018C68.6041 60.9254 68.7266 60.862 68.8551 60.8128C68.9894 60.7649 69.1308 60.7402 69.2734 60.7397C69.5663 60.7348 69.852 60.8309 70.0823 61.0118C70.1957 61.1052 70.2928 61.2168 70.3696 61.342C70.4477 61.4629 70.5284 61.594 70.5989 61.7099C70.7451 61.9619 70.8812 62.2139 71.0122 62.4785C71.5408 63.5766 72.002 64.706 72.3932 65.8603L72.3705 65.8301L74.4444 67.3748L74.3512 67.4555L73.5751 66.1325C73.0106 64.7188 72.4259 63.2496 71.8262 61.7426C71.6591 61.366 71.5307 60.9734 71.4431 60.5708C71.4019 60.3661 71.3733 60.1591 71.3574 59.9509C71.3339 59.7269 71.395 59.5022 71.5288 59.3209C71.6641 59.14 71.86 59.0139 72.0807 58.9656C72.3036 58.9181 72.5363 58.9578 72.7308 59.0765C72.7787 59.1067 72.8216 59.1445 72.8669 59.1773L72.9803 59.2882C73.0559 59.3638 73.1341 59.4368 73.2021 59.5175C73.3457 59.6762 73.4793 59.84 73.6103 60.0215C74.2854 60.9512 74.8902 61.93 75.4197 62.9497L76.2059 64.4365C76.3314 64.6783 76.4818 64.9063 76.6545 65.1169C76.7397 65.2183 76.837 65.3088 76.9443 65.3866C77.039 65.4604 77.1544 65.5027 77.2744 65.5075L77.2316 65.5403C77.4129 64.9915 77.4443 64.4042 77.3223 63.8393C77.2179 63.2775 77.0338 62.7336 76.7754 62.224C76.5234 61.72 76.2437 61.216 75.9942 60.712C75.8672 60.4667 75.7545 60.2142 75.6566 59.956C75.5531 59.6932 75.4968 59.4142 75.4902 59.1319C75.4869 58.9883 75.5132 58.8454 75.5674 58.7124C75.6216 58.5793 75.7025 58.4588 75.8052 58.3583C75.8595 58.306 75.9241 58.2656 75.9948 58.2396C76.0655 58.2135 76.1408 58.2025 76.216 58.2071C76.3577 58.2168 76.4955 58.2581 76.6192 58.328C77.0712 58.61 77.4718 58.9671 77.8036 59.3839C78.4475 60.1551 79.0322 60.9739 79.5525 61.8334L79.4492 61.8686C79.3836 61.163 79.3181 60.4801 79.2577 59.8174V59.7896L79.2803 59.772L81.1073 58.3608L81.1678 58.3154L81.1855 58.3885C82.075 62.1836 82.8134 65.258 83.272 67.4C83.5064 68.466 83.6878 69.2951 83.8138 69.8621C83.8743 70.1418 83.9196 70.3661 83.9524 70.5047C83.9852 70.6433 83.9927 70.7239 83.9927 70.7239C83.9927 70.7239 83.9726 70.6508 83.9373 70.5072C83.902 70.3636 83.8516 70.1468 83.7861 69.8696C83.655 69.3026 83.4635 68.4761 83.2191 67.4126C82.7428 65.2757 81.9919 62.2038 81.0897 58.4112L81.1678 58.4389L79.3433 59.8552L79.3635 59.8098C79.429 60.47 79.4954 61.153 79.5626 61.8586L79.5853 62.0929L79.4592 61.8913C78.9411 61.0379 78.359 60.225 77.7179 59.4595C77.3944 59.0553 77.0051 58.7086 76.5663 58.4339C76.4689 58.3607 76.3504 58.3211 76.2286 58.3211C76.1068 58.3211 75.9883 58.3607 75.8909 58.4339C75.8003 58.5241 75.729 58.6319 75.6813 58.7506C75.6337 58.8693 75.6107 58.9965 75.6137 59.1243C75.6219 59.3921 75.6764 59.6565 75.775 59.9056C75.8711 60.1638 75.9821 60.4162 76.1077 60.6616C76.3597 61.1656 76.6394 61.6494 76.8914 62.1736C77.1562 62.694 77.3446 63.2499 77.4508 63.8242C77.5796 64.4153 77.5448 65.0304 77.35 65.6033V65.6335H77.3198C77.1631 65.6427 77.0086 65.5933 76.8863 65.4949C76.7699 65.4115 76.6648 65.3133 76.5738 65.2026C76.3928 64.9867 76.2356 64.7518 76.1051 64.502L75.2811 63.0001C74.7547 61.9878 74.1542 61.0157 73.4843 60.092C73.2408 59.758 72.9573 59.455 72.6401 59.1899C72.4731 59.0912 72.2753 59.0582 72.0852 59.0973C71.8951 59.1364 71.7264 59.2449 71.612 59.4016C71.36 59.714 71.4885 60.1576 71.549 60.5456C71.6336 60.9416 71.7594 61.3276 71.9244 61.6973C72.5217 63.2093 73.1063 64.6734 73.6683 66.0896L74.4419 67.4152L74.5982 67.6823L74.3462 67.4983L72.2772 65.951H72.2621V65.9334C71.8752 64.7843 71.4182 63.6599 70.8938 62.5667C70.7653 62.3147 70.6292 62.0476 70.4855 61.8107C70.3599 61.5637 70.1948 61.339 69.9967 61.1454C69.8411 61.0223 69.6567 60.9409 69.461 60.9087C69.2653 60.8765 69.0646 60.8947 68.8778 60.9614C68.7553 61.0074 68.6386 61.0674 68.53 61.1404L68.5552 61.0799C68.714 61.7225 68.8702 62.3399 69.0138 62.9195L68.9105 62.9346C68.9038 62.786 68.8636 62.6408 68.7929 62.5099C68.7222 62.379 68.6229 62.2657 68.5023 62.1786C68.257 62.0306 67.9713 61.9635 67.6858 61.9871L67.7312 61.9291C68.0991 63.7914 68.462 65.4571 68.8752 66.9162C68.9719 67.2649 69.0897 67.6074 69.2281 67.9418C69.3763 68.2395 69.5721 68.511 69.8077 68.7457C70.2361 69.227 70.6393 69.6554 71.0047 70.041L72.6956 71.805L73.1366 72.2586C73.2298 72.3241 73.2777 72.367 73.2777 72.367Z" fill="#7F594B"/>
<path d="M77.1938 52.0182C77.0038 51.9239 76.8343 51.793 76.6951 51.633C76.5558 51.473 76.4495 51.287 76.3824 51.0858L76.1833 49.8838L76.0724 51.1438C75.951 51.5603 75.6823 51.9186 75.3164 52.1518C75.5126 52.2491 75.6868 52.3856 75.8281 52.5529C75.9694 52.7202 76.0748 52.9148 76.1379 53.1245L76.269 54.1048L76.4681 53.0716C76.5718 52.6622 76.8325 52.3101 77.1938 52.0913L77.2467 52.0611L77.1938 52.0182Z" fill="white"/>
<path d="M79.0834 119.256L78.7407 109.35L115.676 109.252V119.125L79.0834 119.256Z" fill="#00ACE9"/>
<path d="M94.2287 109.35L85.9631 90.3975H106.438L115.676 109.252L94.2287 109.35Z" fill="#00ACE9"/>
<path d="M85.9632 90.3975L83.1812 94.7571L89.025 108.184L94.2289 109.35L85.9632 90.3975Z" fill="#00ACE9"/>
<path d="M115.676 109.252H115.565H115.248L114.02 109.27L109.507 109.31L94.6164 109.398H94.1855L94.1678 109.358L88.3315 95.9515C87.5957 94.2405 86.9984 92.857 86.5826 91.8918L86.1139 90.7855C86.0635 90.6646 86.0257 90.5688 85.9955 90.4983C85.9809 90.4657 85.9691 90.432 85.9602 90.3975C85.9602 90.3975 85.9778 90.4277 86.0081 90.4932L86.1391 90.7755C86.2525 91.0275 86.4188 91.4004 86.6305 91.8717L88.4172 95.9163C89.9166 99.3435 91.9906 104.076 94.2863 109.323L94.2258 109.285H94.6114L109.505 109.234H114.018H115.245H115.563C115.601 109.237 115.639 109.243 115.676 109.252Z" fill="#161B46"/>
<path d="M94.2286 119.274C94.1933 119.274 94.1631 117.052 94.1631 114.312C94.1631 111.573 94.1933 109.351 94.2286 109.351C94.2639 109.351 94.2941 111.571 94.2941 114.312C94.2941 117.054 94.2664 119.274 94.2286 119.274Z" fill="#161B46"/>
<path d="M105.521 100.47C105.539 100.153 105.52 99.8347 105.466 99.522C105.393 99.157 105.256 98.8079 105.06 98.4913C104.802 98.0711 104.468 97.7028 104.075 97.4052C103.035 96.6356 101.735 96.3045 100.453 96.4829C100.088 96.5342 99.7293 96.6272 99.3849 96.7601C99.0297 96.9058 98.6951 97.0973 98.3895 97.3296C98.0637 97.568 97.7895 97.8698 97.5833 98.2169C97.377 98.5639 97.2431 98.9491 97.1894 99.3492C97.1358 99.7493 97.1635 100.156 97.271 100.545C97.3785 100.934 97.5635 101.298 97.8149 101.614C98.0473 101.92 98.3194 102.193 98.6238 102.428C99.2902 102.918 100.07 103.232 100.89 103.34C101.711 103.448 102.545 103.347 103.316 103.045C103.773 102.861 104.193 102.594 104.553 102.259C104.825 102.005 105.05 101.704 105.216 101.372C105.352 101.083 105.454 100.781 105.521 100.47C105.524 100.49 105.524 100.512 105.521 100.533C105.521 100.583 105.503 100.643 105.491 100.716C105.476 100.816 105.451 100.914 105.418 101.009C105.398 101.067 105.382 101.13 105.357 101.193L105.267 101.394C105.105 101.738 104.882 102.048 104.609 102.312C104.245 102.662 103.817 102.94 103.349 103.131C102.119 103.62 100.747 103.605 99.5285 103.088C99.1804 102.939 98.8506 102.75 98.5457 102.526C98.2303 102.286 97.9489 102.005 97.7091 101.689C97.4467 101.361 97.2536 100.982 97.1414 100.577C97.0292 100.172 97.0003 99.7477 97.0563 99.3309C97.1124 98.9141 97.2523 98.513 97.4675 98.1517C97.6828 97.7904 97.969 97.4765 98.3088 97.2288C98.6237 96.9886 98.9695 96.7919 99.337 96.6442C100.128 96.342 100.982 96.2466 101.82 96.367C102.658 96.4874 103.451 96.8196 104.125 97.3321C104.523 97.6403 104.859 98.0208 105.115 98.4535C105.309 98.7799 105.442 99.1384 105.508 99.5119C105.536 99.6471 105.55 99.7847 105.551 99.9227C105.56 100.023 105.56 100.124 105.551 100.225L105.531 100.409C105.529 100.449 105.524 100.472 105.521 100.47Z" fill="white"/>
<path d="M105.521 100.47C105.521 100.47 105.478 100.455 105.4 100.457C105.342 100.463 105.286 100.481 105.236 100.509C105.186 100.538 105.142 100.577 105.107 100.623C104.986 100.768 104.879 100.924 104.787 101.09C104.666 101.316 104.508 101.521 104.321 101.697C104.213 101.801 104.094 101.893 103.966 101.972C103.822 102.063 103.657 102.113 103.487 102.118C103.395 102.116 103.303 102.095 103.219 102.056C103.135 102.018 103.06 101.962 102.998 101.893C102.891 101.755 102.762 101.636 102.615 101.541C102.456 101.471 102.279 101.457 102.111 101.503C101.929 101.555 101.758 101.64 101.607 101.755C101.443 101.866 101.282 101.994 101.103 102.105C100.918 102.229 100.703 102.303 100.481 102.319C100.365 102.332 100.249 102.317 100.14 102.276C100.031 102.235 99.934 102.168 99.8558 102.082C99.7254 101.904 99.6556 101.689 99.6567 101.468C99.6562 101.274 99.6325 101.081 99.5861 100.893C99.5686 100.81 99.531 100.732 99.4766 100.666C99.4221 100.601 99.3524 100.55 99.2737 100.518C99.1095 100.485 98.9389 100.516 98.7974 100.606C98.6445 100.693 98.4811 100.761 98.311 100.807C98.139 100.839 97.9613 100.812 97.807 100.729C97.6718 100.655 97.5534 100.554 97.4593 100.432C97.3003 100.222 97.2121 99.9669 97.2073 99.7036C97.2005 99.5099 97.2174 99.3161 97.2577 99.1265C97.2904 98.9728 97.3207 98.8544 97.3433 98.7737C97.3523 98.7325 97.3667 98.6927 97.3862 98.6553C97.3862 98.6553 97.3585 98.8266 97.3081 99.1366C97.2782 99.3223 97.2689 99.5108 97.2803 99.6986C97.2913 99.9446 97.3795 100.181 97.5323 100.374C97.6163 100.492 97.7312 100.586 97.8645 100.643C97.9978 100.701 98.1444 100.721 98.2883 100.702C98.4471 100.654 98.5995 100.587 98.7419 100.502C98.9096 100.396 99.1123 100.36 99.3064 100.402C99.4045 100.439 99.492 100.5 99.5613 100.579C99.6307 100.658 99.6798 100.753 99.7046 100.855C99.7539 101.052 99.7801 101.254 99.7827 101.458C99.7815 101.65 99.8405 101.839 99.9515 101.997C100.017 102.067 100.098 102.122 100.188 102.155C100.278 102.188 100.375 102.2 100.471 102.188C100.884 102.171 101.201 101.871 101.539 101.647C101.708 101.529 101.897 101.444 102.096 101.395C102.295 101.341 102.507 101.36 102.693 101.447C102.85 101.55 102.989 101.678 103.104 101.825C103.154 101.885 103.217 101.934 103.287 101.968C103.357 102.002 103.434 102.022 103.512 102.025C103.805 101.991 104.077 101.857 104.281 101.644C104.466 101.476 104.623 101.281 104.747 101.064C104.848 100.899 104.963 100.744 105.092 100.601C105.134 100.553 105.184 100.515 105.241 100.488C105.298 100.461 105.36 100.446 105.422 100.444C105.455 100.446 105.487 100.454 105.516 100.47C105.513 100.462 105.523 100.47 105.521 100.47Z" fill="white"/>
<path d="M103.596 99.0364C103.433 99.1383 103.251 99.206 103.062 99.2355C102.607 99.3341 102.137 99.3341 101.683 99.2355C101.226 99.1357 100.796 98.937 100.423 98.6534C100.265 98.5441 100.129 98.4055 100.022 98.2452C100.04 98.23 100.191 98.3838 100.476 98.5778C100.848 98.8277 101.264 99.007 101.701 99.107C102.138 99.2055 102.591 99.2209 103.034 99.1524C103.384 99.0969 103.588 99.0213 103.596 99.0364Z" fill="white"/>
<path d="M94.564 97.5389L94.7706 97.1685C94.7972 97.1093 94.8358 97.0562 94.8839 97.0126C94.9321 96.9691 94.9887 96.936 95.0504 96.9155C95.112 96.8951 95.1772 96.8876 95.2418 96.8936C95.3064 96.8997 95.3691 96.9191 95.4259 96.9506C95.4826 96.9821 95.5322 97.0251 95.5715 97.0768C95.6108 97.1285 95.6389 97.1878 95.654 97.2509C95.6692 97.3141 95.671 97.3796 95.6595 97.4435C95.648 97.5074 95.6233 97.5682 95.5871 97.6221L95.3804 97.995L94.564 97.5389ZM95.4258 97.5389C95.4482 97.5057 95.4634 97.4682 95.4705 97.4288C95.4777 97.3894 95.4766 97.3489 95.4673 97.3099C95.458 97.2709 95.4408 97.2343 95.4166 97.2024C95.3925 97.1704 95.3619 97.1438 95.327 97.1242C95.292 97.1046 95.2534 97.0925 95.2135 97.0886C95.1737 97.0848 95.1334 97.0892 95.0954 97.1016C95.0573 97.1141 95.0222 97.1343 94.9923 97.161C94.9624 97.1877 94.9384 97.2203 94.9218 97.2567L94.826 97.4306L95.33 97.7103L95.4258 97.5389Z" fill="white"/>
<path d="M96.2447 96.4152L96.3782 96.526L95.9146 97.0855L95.1938 96.4882L95.6449 95.9414L95.7785 96.0548L95.466 96.4328L95.6222 96.5613L95.8994 96.2287L96.028 96.3345L95.7508 96.6697L95.9196 96.8083L96.2447 96.4152Z" fill="white"/>
<path d="M95.8591 95.7319L96.0204 95.5908L96.5244 96.1629L96.8772 95.8529L96.9931 95.9865L96.4765 96.4375L95.8591 95.7319Z" fill="white"/>
<path d="M96.542 95.1733L96.7209 95.0498L97.2526 95.8209L97.0737 95.9444L96.542 95.1733Z" fill="white"/>
<path d="M97.1519 95.3169C97.1214 95.2589 97.1032 95.1952 97.0983 95.1299C97.0934 95.0646 97.1019 94.9989 97.1234 94.9371C97.1449 94.8752 97.1789 94.8183 97.2232 94.7701C97.2676 94.7219 97.3213 94.6833 97.3812 94.6566C97.4436 94.62 97.5135 94.5983 97.5856 94.593C97.6577 94.5878 97.73 94.5992 97.797 94.6264L97.734 94.8028C97.6945 94.7847 97.6515 94.7753 97.608 94.7753C97.5645 94.7753 97.5215 94.7847 97.482 94.8028C97.4444 94.8192 97.4106 94.8432 97.3826 94.8732C97.3546 94.9032 97.3331 94.9386 97.3193 94.9773C97.3056 95.016 97.3 95.057 97.3027 95.098C97.3055 95.1389 97.3167 95.1788 97.3355 95.2153C97.3543 95.2517 97.3804 95.2839 97.4122 95.3099C97.444 95.3359 97.4808 95.355 97.5203 95.3662C97.5597 95.3774 97.6011 95.3803 97.6418 95.3749C97.6824 95.3694 97.7215 95.3557 97.7567 95.3345C97.7969 95.3141 97.832 95.2849 97.8595 95.2492C97.8869 95.2134 97.9061 95.172 97.9155 95.1279L98.0969 95.1783C98.0748 95.2791 98.0223 95.3707 97.9465 95.4407C97.8707 95.5107 97.7753 95.5557 97.673 95.5697C97.5708 95.5837 97.4667 95.566 97.3749 95.519C97.283 95.472 97.2078 95.3979 97.1594 95.3068L97.1519 95.3169Z" fill="white"/>
<path d="M97.9329 94.417L98.1345 94.3389L98.4671 95.2133L98.2655 95.2914L97.9329 94.417Z" fill="white"/>
<path d="M98.4724 94.6992C98.4435 94.6033 98.4438 94.501 98.4733 94.4053C98.5028 94.3096 98.5602 94.2249 98.638 94.1619C98.7159 94.0989 98.8108 94.0606 98.9106 94.0518C99.0103 94.0429 99.1104 94.064 99.1982 94.1124C99.2859 94.1607 99.3572 94.2341 99.403 94.3231C99.4489 94.4122 99.4672 94.5129 99.4555 94.6123C99.4439 94.7118 99.4029 94.8056 99.3377 94.8816C99.2726 94.9577 99.1863 95.0126 99.0898 95.0394C99.0269 95.0593 98.9607 95.0663 98.8951 95.0598C98.8294 95.0533 98.7658 95.0336 98.7081 95.0018C98.6503 94.9699 98.5997 94.9267 98.5591 94.8747C98.5186 94.8227 98.4891 94.763 98.4724 94.6992ZM99.2536 94.4976C99.2379 94.4423 99.2063 94.3928 99.1627 94.3554C99.1191 94.318 99.0654 94.2942 99.0083 94.2871C98.9513 94.28 98.8934 94.2899 98.8419 94.3156C98.7905 94.3412 98.7477 94.3814 98.719 94.4313C98.6903 94.4811 98.6769 94.5382 98.6806 94.5956C98.6842 94.653 98.7046 94.708 98.7393 94.7538C98.7741 94.7996 98.8215 94.8342 98.8758 94.8532C98.93 94.8721 98.9887 94.8747 99.0444 94.8605C99.0825 94.8518 99.1184 94.8354 99.1499 94.8122C99.1814 94.789 99.2078 94.7596 99.2274 94.7258C99.247 94.692 99.2594 94.6545 99.264 94.6157C99.2685 94.5769 99.2649 94.5375 99.2536 94.5001V94.4976Z" fill="white"/>
<path d="M99.6565 94.4725L99.5935 93.9533L99.8077 93.9281L99.8682 94.4321C99.8909 94.6085 99.9765 94.6841 100.105 94.6564C100.234 94.6287 100.304 94.5607 100.284 94.3843L100.223 93.8803L100.435 93.8525L100.496 94.3742C100.506 94.4312 100.505 94.4897 100.492 94.5461C100.479 94.6026 100.454 94.6558 100.42 94.7024C100.385 94.749 100.342 94.788 100.292 94.8171C100.242 94.8462 100.186 94.8647 100.129 94.8714C100.071 94.8781 100.013 94.873 99.9572 94.8563C99.9018 94.8396 99.8503 94.8117 99.806 94.7743C99.7618 94.7369 99.7257 94.6908 99.7 94.6389C99.6742 94.587 99.6595 94.5303 99.6565 94.4725Z" fill="white"/>
<path d="M100.655 94.6815L100.728 94.5177C100.818 94.5792 100.926 94.6117 101.035 94.611C101.164 94.611 101.216 94.5656 101.214 94.5102C101.214 94.3338 100.672 94.4623 100.667 94.1145C100.667 93.9558 100.791 93.8222 101.058 93.8197C101.171 93.8159 101.284 93.8429 101.383 93.8978L101.317 94.0616C101.24 94.0177 101.154 93.9934 101.065 93.9911C100.937 93.9911 100.889 94.0415 100.889 94.1019C100.889 94.2733 101.433 94.1473 101.438 94.49C101.438 94.6462 101.31 94.7823 101.045 94.7848C100.907 94.7919 100.771 94.7558 100.655 94.6815Z" fill="white"/>
<path d="M102.078 93.875L102.497 93.9531C102.56 93.9603 102.622 93.9806 102.678 94.0126C102.734 94.0447 102.782 94.0879 102.821 94.1395C102.859 94.1911 102.886 94.2501 102.901 94.3127C102.915 94.3753 102.917 94.4403 102.905 94.5035C102.894 94.5668 102.869 94.627 102.833 94.6803C102.797 94.7337 102.751 94.7791 102.697 94.8138C102.643 94.8484 102.582 94.8715 102.518 94.8817C102.455 94.8919 102.39 94.8889 102.328 94.8729L101.909 94.7973L102.078 93.875ZM102.348 94.6965C102.387 94.7079 102.428 94.7109 102.469 94.7054C102.509 94.6999 102.548 94.686 102.583 94.6646C102.618 94.6431 102.647 94.6147 102.671 94.581C102.694 94.5473 102.709 94.5091 102.717 94.469C102.724 94.4288 102.723 94.3875 102.714 94.3478C102.704 94.3081 102.686 94.2708 102.662 94.2384C102.637 94.2059 102.606 94.179 102.57 94.1594C102.534 94.1398 102.494 94.1279 102.454 94.1245L102.26 94.0892L102.154 94.6612L102.348 94.6965Z" fill="white"/>
<path d="M103.064 94.5455C103.096 94.4509 103.156 94.3681 103.236 94.3078C103.316 94.2475 103.412 94.2123 103.512 94.2068C103.612 94.2013 103.711 94.2257 103.797 94.2768C103.884 94.328 103.952 94.4036 103.995 94.4941C104.038 94.5845 104.053 94.6857 104.038 94.7847C104.024 94.8837 103.98 94.9761 103.912 95.05C103.845 95.1239 103.757 95.176 103.659 95.1997C103.562 95.2234 103.46 95.2176 103.366 95.1831C103.303 95.1629 103.245 95.1299 103.195 95.0864C103.145 95.0428 103.105 94.9895 103.077 94.9298C103.048 94.87 103.033 94.8051 103.03 94.739C103.028 94.6729 103.039 94.6071 103.064 94.5455ZM103.82 94.8378C103.839 94.7838 103.842 94.7253 103.828 94.6696C103.814 94.6139 103.784 94.5635 103.742 94.5247C103.7 94.4858 103.647 94.4603 103.59 94.4513C103.534 94.4422 103.475 94.45 103.423 94.4737C103.371 94.4975 103.327 94.536 103.296 94.5846C103.266 94.6332 103.25 94.6897 103.252 94.7471C103.253 94.8045 103.272 94.8601 103.304 94.9072C103.337 94.9542 103.383 94.9906 103.436 95.0117C103.473 95.0261 103.511 95.033 103.55 95.032C103.589 95.031 103.627 95.022 103.663 95.0058C103.698 94.9895 103.73 94.9662 103.756 94.9374C103.782 94.9085 103.802 94.8746 103.814 94.8378H103.82Z" fill="white"/>
<path d="M105.176 95.0846L104.672 95.8734L104.523 95.7776L104.432 95.0493L104.13 95.5281L103.948 95.4147L104.452 94.626L104.604 94.7217L104.692 95.4475L104.994 94.9687L105.176 95.0846Z" fill="white"/>
<path d="M105.09 95.6789L105.448 95.2959L105.607 95.4421L105.254 95.8201C105.133 95.9511 105.14 96.0569 105.236 96.1451C105.332 96.2333 105.438 96.2333 105.559 96.1048L105.912 95.7268L106.068 95.873L105.72 96.2636C105.682 96.3043 105.637 96.3371 105.586 96.3602C105.535 96.3833 105.481 96.3963 105.425 96.3982C105.37 96.4002 105.314 96.3912 105.262 96.3718C105.21 96.3524 105.162 96.3229 105.122 96.285C105.081 96.2471 105.048 96.2016 105.025 96.151C105.002 96.1004 104.989 96.0458 104.987 95.9902C104.985 95.9346 104.994 95.8792 105.013 95.8271C105.033 95.775 105.062 95.7272 105.1 95.6865L105.09 95.6789Z" fill="white"/>
<path d="M106.246 96.3603L106.06 96.1259L106.196 96.0176L106.7 96.6526L106.561 96.761L106.375 96.5291L105.783 97.0029L105.649 96.8341L106.246 96.3603Z" fill="white"/>
<path d="M106.053 97.1914L106.232 97.1662C106.226 97.2766 106.253 97.3862 106.31 97.4812C106.378 97.5896 106.441 97.6097 106.491 97.5795C106.64 97.4888 106.252 97.0906 106.547 96.9067C106.68 96.8235 106.862 96.8613 107 97.0881C107.062 97.1837 107.097 97.2943 107.101 97.4081L106.927 97.4384C106.924 97.3493 106.898 97.2626 106.852 97.1864C106.786 97.078 106.718 97.0604 106.668 97.0906C106.521 97.1813 106.92 97.582 106.617 97.7635C106.486 97.8441 106.305 97.8038 106.164 97.577C106.088 97.4628 106.049 97.3282 106.053 97.1914Z" fill="white"/>
<path d="M107.267 100.296C107.247 100.311 107.225 100.323 107.202 100.331L106.987 100.427V100.409C106.984 100.744 106.94 101.076 106.856 101.4C106.721 101.927 106.493 102.426 106.184 102.874C105.788 103.461 105.272 103.958 104.672 104.333C103.968 104.762 103.178 105.03 102.358 105.117C101.385 105.225 100.4 105.113 99.4753 104.789C98.7247 104.522 98.02 104.14 97.3862 103.658C96.9603 103.335 96.5655 102.973 96.2069 102.576C96.0809 102.435 95.9851 102.324 95.9246 102.244C95.8914 102.206 95.8619 102.164 95.8364 102.12C95.8364 102.12 95.9801 102.272 96.2421 102.541C96.6131 102.92 97.0142 103.268 97.4417 103.582C98.0734 104.048 98.7717 104.416 99.5131 104.673C100.421 104.986 101.388 105.093 102.343 104.986C103.145 104.902 103.919 104.644 104.611 104.23C105.202 103.868 105.711 103.388 106.105 102.818C106.414 102.382 106.647 101.896 106.793 101.382C106.881 101.065 106.937 100.74 106.96 100.412V100.399L107.179 100.321C107.206 100.306 107.236 100.297 107.267 100.296Z" fill="white"/>
<path d="M79.0834 116.146C79.0532 116.126 80.0738 114.589 81.364 112.712C82.6542 110.834 83.7202 109.327 83.7504 109.35C83.7807 109.373 82.7601 110.907 81.4698 112.785C80.1796 114.662 79.1137 116.171 79.0834 116.146Z" fill="white"/>
<path d="M81.2128 119.249C81.1826 119.226 82.74 117.006 84.693 114.29C86.6459 111.573 88.2512 109.386 88.2789 109.408C88.3066 109.431 86.7518 111.649 84.7988 114.365C82.8458 117.082 81.2406 119.269 81.2128 119.249Z" fill="white"/>
<path d="M92.7118 109.351C92.7396 109.371 91.2578 111.604 89.4006 114.335C87.5433 117.067 86.0112 119.269 85.9809 119.249C85.9507 119.229 87.4324 116.996 89.2922 114.262C91.152 111.528 92.6816 109.328 92.7118 109.351Z" fill="white"/>
<path d="M98.16 109.408C98.1429 109.446 98.1209 109.482 98.0944 109.514L97.8878 109.801L97.1167 110.85C96.469 111.734 95.5921 112.974 94.632 114.347C93.6718 115.721 92.7823 116.953 92.112 117.828C91.7793 118.263 91.5046 118.614 91.3081 118.851C91.2174 118.959 91.1443 119.05 91.0813 119.123C91.0183 119.196 91.0006 119.216 90.9956 119.214C91.0132 119.176 91.0352 119.14 91.0611 119.108L91.2678 118.82C91.4618 118.556 91.7214 118.2 92.0389 117.772C92.6865 116.885 93.5635 115.645 94.5236 114.272C95.4837 112.898 96.3733 111.666 97.0436 110.794C97.3788 110.356 97.6534 110.005 97.8475 109.769L98.0743 109.496C98.0991 109.464 98.1279 109.434 98.16 109.408Z" fill="white"/>
<path d="M104.316 109.343C104.298 109.38 104.276 109.414 104.251 109.446L104.046 109.734C103.867 109.986 103.61 110.338 103.29 110.782C102.66 111.671 101.834 112.929 100.937 114.333C100.04 115.736 99.2005 116.989 98.5503 117.861C98.2252 118.299 97.9556 118.649 97.7615 118.886L97.5373 119.158C97.5137 119.191 97.4857 119.221 97.4541 119.247C97.4541 119.247 97.4717 119.209 97.5171 119.141L97.7212 118.856C97.9027 118.604 98.1597 118.251 98.4772 117.808C99.1072 116.918 99.9338 115.658 100.828 114.257C101.723 112.856 102.567 111.601 103.217 110.729C103.542 110.29 103.81 109.938 104.004 109.703L104.228 109.431C104.283 109.368 104.311 109.34 104.316 109.343Z" fill="white"/>
<path d="M110.76 109.474C110.76 109.474 110.742 109.511 110.697 109.577L110.495 109.862C110.316 110.114 110.062 110.459 109.739 110.9C109.117 111.782 108.298 113.027 107.411 114.428C106.524 115.829 105.689 117.059 105.044 117.928C104.722 118.362 104.457 118.709 104.266 118.936L104.044 119.203C103.991 119.264 103.963 119.294 103.958 119.292C103.975 119.255 103.996 119.22 104.021 119.188L104.223 118.903C104.404 118.651 104.659 118.306 104.979 117.865C105.604 116.983 106.423 115.738 107.31 114.337C108.197 112.936 109.031 111.706 109.674 110.839C109.996 110.404 110.263 110.056 110.455 109.831L110.677 109.562C110.7 109.529 110.728 109.499 110.76 109.474Z" fill="white"/>
<path d="M115.676 110.152C115.704 110.172 114.326 112.218 112.594 114.72C110.863 117.223 109.434 119.234 109.407 119.214C109.379 119.193 110.755 117.147 112.486 114.645C114.217 112.142 115.646 110.124 115.676 110.152Z" fill="white"/>
<g opacity="0.3">
<path opacity="0.3" d="M94.2288 109.35V119.274L115.676 119.125V109.252L94.2288 109.35Z" fill="#2D3259"/>
</g>
</g>
<path d="M25.3964 136.08C25.1084 135.525 24.7084 135.109 24.1964 134.832C23.6844 134.544 23.0924 134.4 22.4204 134.4C21.6844 134.4 21.0284 134.565 20.4524 134.896C19.8764 135.227 19.4231 135.696 19.0924 136.304C18.7724 136.912 18.6124 137.616 18.6124 138.416C18.6124 139.216 18.7724 139.925 19.0924 140.544C19.4231 141.152 19.8764 141.621 20.4524 141.952C21.0284 142.283 21.6844 142.448 22.4204 142.448C23.4124 142.448 24.2178 142.171 24.8364 141.616C25.4551 141.061 25.8338 140.309 25.9724 139.36H21.7964V137.904H27.9244V139.328C27.8071 140.192 27.4978 140.987 26.9964 141.712C26.5058 142.437 25.8604 143.019 25.0604 143.456C24.2711 143.883 23.3911 144.096 22.4204 144.096C21.3751 144.096 20.4204 143.856 19.5564 143.376C18.6924 142.885 18.0044 142.208 17.4924 141.344C16.9911 140.48 16.7404 139.504 16.7404 138.416C16.7404 137.328 16.9911 136.352 17.4924 135.488C18.0044 134.624 18.6924 133.952 19.5564 133.472C20.4311 132.981 21.3858 132.736 22.4204 132.736C23.6044 132.736 24.6551 133.029 25.5724 133.616C26.5004 134.192 27.1724 135.013 27.5884 136.08H25.3964ZM29.1154 139.552C29.1154 138.667 29.2968 137.883 29.6594 137.2C30.0328 136.517 30.5341 135.989 31.1634 135.616C31.8034 135.232 32.5074 135.04 33.2754 135.04C33.9688 135.04 34.5714 135.179 35.0834 135.456C35.6061 135.723 36.0221 136.059 36.3314 136.464V135.184H38.1714V144H36.3314V142.688C36.0221 143.104 35.6008 143.451 35.0674 143.728C34.5341 144.005 33.9261 144.144 33.2434 144.144C32.4861 144.144 31.7928 143.952 31.1634 143.568C30.5341 143.173 30.0328 142.629 29.6594 141.936C29.2968 141.232 29.1154 140.437 29.1154 139.552ZM36.3314 139.584C36.3314 138.976 36.2034 138.448 35.9474 138C35.7021 137.552 35.3768 137.211 34.9714 136.976C34.5661 136.741 34.1288 136.624 33.6594 136.624C33.1901 136.624 32.7528 136.741 32.3474 136.976C31.9421 137.2 31.6114 137.536 31.3554 137.984C31.1101 138.421 30.9874 138.944 30.9874 139.552C30.9874 140.16 31.1101 140.693 31.3554 141.152C31.6114 141.611 31.9421 141.963 32.3474 142.208C32.7634 142.443 33.2008 142.56 33.6594 142.56C34.1288 142.56 34.5661 142.443 34.9714 142.208C35.3768 141.973 35.7021 141.632 35.9474 141.184C36.2034 140.725 36.3314 140.192 36.3314 139.584ZM41.4952 134.016C41.1645 134.016 40.8872 133.904 40.6632 133.68C40.4392 133.456 40.3272 133.179 40.3272 132.848C40.3272 132.517 40.4392 132.24 40.6632 132.016C40.8872 131.792 41.1645 131.68 41.4952 131.68C41.8152 131.68 42.0872 131.792 42.3112 132.016C42.5352 132.24 42.6472 132.517 42.6472 132.848C42.6472 133.179 42.5352 133.456 42.3112 133.68C42.0872 133.904 41.8152 134.016 41.4952 134.016ZM42.3912 135.184V144H40.5672V135.184H42.3912ZM49.2339 135.04C49.9273 135.04 50.5459 135.184 51.0899 135.472C51.6446 135.76 52.0766 136.187 52.3859 136.752C52.6953 137.317 52.8499 138 52.8499 138.8V144H51.0419V139.072C51.0419 138.283 50.8446 137.68 50.4499 137.264C50.0553 136.837 49.5166 136.624 48.8339 136.624C48.1513 136.624 47.6073 136.837 47.2019 137.264C46.8073 137.68 46.6099 138.283 46.6099 139.072V144H44.7859V135.184H46.6099V136.192C46.9086 135.829 47.2873 135.547 47.7459 135.344C48.2153 135.141 48.7113 135.04 49.2339 135.04ZM56.1046 134.016C55.7739 134.016 55.4966 133.904 55.2726 133.68C55.0486 133.456 54.9366 133.179 54.9366 132.848C54.9366 132.517 55.0486 132.24 55.2726 132.016C55.4966 131.792 55.7739 131.68 56.1046 131.68C56.4246 131.68 56.6966 131.792 56.9206 132.016C57.1446 132.24 57.2566 132.517 57.2566 132.848C57.2566 133.179 57.1446 133.456 56.9206 133.68C56.6966 133.904 56.4246 134.016 56.1046 134.016ZM57.0006 135.184V144H55.1766V135.184H57.0006ZM63.8433 135.04C64.5366 135.04 65.1553 135.184 65.6993 135.472C66.254 135.76 66.686 136.187 66.9953 136.752C67.3046 137.317 67.4593 138 67.4593 138.8V144H65.6513V139.072C65.6513 138.283 65.454 137.68 65.0593 137.264C64.6646 136.837 64.126 136.624 63.4433 136.624C62.7606 136.624 62.2166 136.837 61.8113 137.264C61.4166 137.68 61.2193 138.283 61.2193 139.072V144H59.3953V135.184H61.2193V136.192C61.518 135.829 61.8966 135.547 62.3553 135.344C62.8246 135.141 63.3206 135.04 63.8433 135.04ZM73.3379 135.04C74.0206 135.04 74.6233 135.179 75.1459 135.456C75.6793 135.723 76.0953 136.059 76.3939 136.464V135.184H78.2339V144.144C78.2339 144.955 78.0633 145.675 77.7219 146.304C77.3806 146.944 76.8846 147.445 76.2339 147.808C75.5939 148.171 74.8259 148.352 73.9299 148.352C72.7353 148.352 71.7433 148.069 70.9539 147.504C70.1646 146.949 69.7166 146.192 69.6099 145.232H71.4179C71.5566 145.691 71.8499 146.059 72.2979 146.336C72.7566 146.624 73.3006 146.768 73.9299 146.768C74.6659 146.768 75.2579 146.544 75.7059 146.096C76.1646 145.648 76.3939 144.997 76.3939 144.144V142.672C76.0846 143.088 75.6633 143.44 75.1299 143.728C74.6073 144.005 74.0099 144.144 73.3379 144.144C72.5699 144.144 71.8659 143.952 71.2259 143.568C70.5966 143.173 70.0953 142.629 69.7219 141.936C69.3593 141.232 69.1779 140.437 69.1779 139.552C69.1779 138.667 69.3593 137.883 69.7219 137.2C70.0953 136.517 70.5966 135.989 71.2259 135.616C71.8659 135.232 72.5699 135.04 73.3379 135.04ZM76.3939 139.584C76.3939 138.976 76.2659 138.448 76.0099 138C75.7646 137.552 75.4393 137.211 75.0339 136.976C74.6286 136.741 74.1913 136.624 73.7219 136.624C73.2526 136.624 72.8153 136.741 72.4099 136.976C72.0046 137.2 71.6739 137.536 71.4179 137.984C71.1726 138.421 71.0499 138.944 71.0499 139.552C71.0499 140.16 71.1726 140.693 71.4179 141.152C71.6739 141.611 72.0046 141.963 72.4099 142.208C72.8259 142.443 73.2633 142.56 73.7219 142.56C74.1913 142.56 74.6286 142.443 75.0339 142.208C75.4393 141.973 75.7646 141.632 76.0099 141.184C76.2659 140.725 76.3939 140.192 76.3939 139.584ZM99.2659 132.88L95.9699 144H93.9059L91.5699 135.584L89.0899 144L87.0419 144.016L83.8899 132.88H85.8259L88.1299 141.936L90.6259 132.88H92.6739L94.9939 141.888L97.3139 132.88H99.2659ZM108.85 139.376C108.85 139.707 108.829 140.005 108.786 140.272H102.05C102.104 140.976 102.365 141.541 102.834 141.968C103.304 142.395 103.88 142.608 104.562 142.608C105.544 142.608 106.237 142.197 106.642 141.376H108.61C108.344 142.187 107.858 142.853 107.154 143.376C106.461 143.888 105.597 144.144 104.562 144.144C103.72 144.144 102.962 143.957 102.29 143.584C101.629 143.2 101.106 142.667 100.722 141.984C100.349 141.291 100.162 140.491 100.162 139.584C100.162 138.677 100.344 137.883 100.706 137.2C101.08 136.507 101.597 135.973 102.258 135.6C102.93 135.227 103.698 135.04 104.562 135.04C105.394 135.04 106.136 135.221 106.786 135.584C107.437 135.947 107.944 136.459 108.306 137.12C108.669 137.771 108.85 138.523 108.85 139.376ZM106.946 138.8C106.936 138.128 106.696 137.589 106.226 137.184C105.757 136.779 105.176 136.576 104.482 136.576C103.853 136.576 103.314 136.779 102.866 137.184C102.418 137.579 102.152 138.117 102.066 138.8H106.946ZM111.573 134.016C111.243 134.016 110.965 133.904 110.741 133.68C110.517 133.456 110.405 133.179 110.405 132.848C110.405 132.517 110.517 132.24 110.741 132.016C110.965 131.792 111.243 131.68 111.573 131.68C111.893 131.68 112.165 131.792 112.389 132.016C112.613 132.24 112.725 132.517 112.725 132.848C112.725 133.179 112.613 133.456 112.389 133.68C112.165 133.904 111.893 134.016 111.573 134.016ZM112.469 135.184V144H110.645V135.184H112.469ZM118.416 135.04C119.099 135.04 119.701 135.179 120.224 135.456C120.757 135.723 121.173 136.059 121.472 136.464V135.184H123.312V144.144C123.312 144.955 123.141 145.675 122.8 146.304C122.459 146.944 121.963 147.445 121.312 147.808C120.672 148.171 119.904 148.352 119.008 148.352C117.813 148.352 116.821 148.069 116.032 147.504C115.243 146.949 114.795 146.192 114.688 145.232H116.496C116.635 145.691 116.928 146.059 117.376 146.336C117.835 146.624 118.379 146.768 119.008 146.768C119.744 146.768 120.336 146.544 120.784 146.096C121.243 145.648 121.472 144.997 121.472 144.144V142.672C121.163 143.088 120.741 143.44 120.208 143.728C119.685 144.005 119.088 144.144 118.416 144.144C117.648 144.144 116.944 143.952 116.304 143.568C115.675 143.173 115.173 142.629 114.8 141.936C114.437 141.232 114.256 140.437 114.256 139.552C114.256 138.667 114.437 137.883 114.8 137.2C115.173 136.517 115.675 135.989 116.304 135.616C116.944 135.232 117.648 135.04 118.416 135.04ZM121.472 139.584C121.472 138.976 121.344 138.448 121.088 138C120.843 137.552 120.517 137.211 120.112 136.976C119.707 136.741 119.269 136.624 118.8 136.624C118.331 136.624 117.893 136.741 117.488 136.976C117.083 137.2 116.752 137.536 116.496 137.984C116.251 138.421 116.128 138.944 116.128 139.552C116.128 140.16 116.251 140.693 116.496 141.152C116.752 141.611 117.083 141.963 117.488 142.208C117.904 142.443 118.341 142.56 118.8 142.56C119.269 142.56 119.707 142.443 120.112 142.208C120.517 141.973 120.843 141.632 121.088 141.184C121.344 140.725 121.472 140.192 121.472 139.584ZM130.268 135.04C130.94 135.04 131.537 135.184 132.06 135.472C132.593 135.76 133.009 136.187 133.308 136.752C133.617 137.317 133.772 138 133.772 138.8V144H131.964V139.072C131.964 138.283 131.766 137.68 131.372 137.264C130.977 136.837 130.438 136.624 129.756 136.624C129.073 136.624 128.529 136.837 128.124 137.264C127.729 137.68 127.532 138.283 127.532 139.072V144H125.708V132.16H127.532V136.208C127.841 135.835 128.23 135.547 128.7 135.344C129.18 135.141 129.702 135.04 130.268 135.04ZM138.226 136.672V141.552C138.226 141.883 138.301 142.123 138.45 142.272C138.61 142.411 138.877 142.48 139.25 142.48H140.37V144H138.93C138.109 144 137.48 143.808 137.042 143.424C136.605 143.04 136.386 142.416 136.386 141.552V136.672H135.346V135.184H136.386V132.992H138.226V135.184H140.37V136.672H138.226Z" fill="#161B46"/>
<defs>
<clipPath id="clip0_1456_45623">
<rect width="126" height="126" fill="white" transform="translate(15)"/>
</clipPath>
</defs>
</svg>
