<svg width="12" height="16" viewBox="0 0 12 16" fill="none" xmlns="http://www.w3.org/2000/svg">
<path d="M10.2427 7.32002C11.284 8.36069 11.284 10.0494 10.2427 11.0907L6.47132 14.862C6.21132 15.122 5.78865 15.122 5.52865 14.862L1.75732 11.0907C0.715985 10.0494 0.715985 8.36069 1.75732 7.31935C2.79865 6.27802 4.48732 6.27802 5.52865 7.31935L5.99932 7.79069L6.47132 7.31935C7.51265 6.27802 9.20132 6.27802 10.2427 7.31935V7.32002ZM5.99998 0.666687C7.47332 0.666687 8.66665 1.86002 8.66665 3.33335C8.66665 4.80669 7.47332 6.00002 5.99998 6.00002C4.52665 6.00002 3.33332 4.80669 3.33332 3.33335C3.33332 1.86002 4.52665 0.666687 5.99998 0.666687Z" fill="url(#paint0_linear_6665_1832)"/>
<defs>
<linearGradient id="paint0_linear_6665_1832" x1="0.976318" y1="0.666687" x2="11.314" y2="0.878368" gradientUnits="userSpaceOnUse">
<stop stop-color="#00ACE9"/>
<stop offset="1" stop-color="#0095E9"/>
</linearGradient>
</defs>
</svg>
