<svg width="146" height="111" viewBox="0 0 146 111" fill="none" xmlns="http://www.w3.org/2000/svg">
<path d="M21.8898 12.1673C21.8898 12.1673 38.2521 21.6552 41.747 23.8568C45.2419 26.0585 50.4073 27.2517 52.6629 29.5149C54.4026 31.2662 63.2708 37.8403 66.2384 38.5794C69.206 39.3184 69.9758 28.264 69.9758 28.264C69.9758 28.264 56.2579 18.93 52.7937 16.9016C49.3296 14.8732 24.4648 6.65161 24.4648 6.65161L21.8898 12.1673Z" fill="#B78876"/>
<path d="M12.887 10.1542C12.887 10.1542 15.8546 12.7446 16.6706 12.8255C17.4866 12.9063 22.2671 12.1057 22.2671 12.1057L24.9383 6.92104C24.9383 6.92104 20.381 3.30295 19.3264 2.74099C18.2718 2.17903 12.0132 0.262207 12.0132 0.262207C11.9366 0.288968 11.8669 0.332446 11.8092 0.38949C11.7515 0.446535 11.7072 0.515714 11.6796 0.592003C11.652 0.668292 11.6417 0.749779 11.6494 0.830547C11.6572 0.911316 11.6829 0.989337 11.7245 1.05895C11.7245 1.05895 9.63452 -0.265109 8.97634 0.943488C8.91202 0.894583 8.83657 0.862386 8.75676 0.849776C8.67695 0.837166 8.59526 0.844538 8.51899 0.871231C8.44273 0.897924 8.37427 0.943102 8.31974 1.00273C8.26521 1.06236 8.22631 1.13458 8.20653 1.21292C8.13215 1.39772 8.09781 1.59618 8.10577 1.79523C8.11373 1.99427 8.16381 2.18937 8.25272 2.36763C8.25272 2.36763 7.43287 3.13744 7.99483 3.88415C8.55679 4.63087 12.7638 7.59847 12.7638 7.59847L14.6652 9.56533C14.6652 9.56533 12.9832 8.27975 12.325 8.29515C11.6668 8.31054 11.7707 9.0842 11.7707 9.0842L12.887 10.1542Z" fill="#B78876"/>
<path d="M14.2187 6.42067C13.1577 5.83629 12.1297 5.19381 11.1395 4.49616C10.1141 3.85425 9.12468 3.15652 8.17575 2.40613C9.23652 2.99096 10.2645 3.63342 11.255 4.33064C12.2802 4.97292 13.2696 5.67063 14.2187 6.42067Z" fill="#995037"/>
<path d="M15.1194 4.76944C14.8029 4.62671 14.5002 4.45537 14.2149 4.25752L12.0787 2.94114C11.2434 2.42537 10.4929 1.95194 9.95786 1.60168C9.65609 1.4276 9.37242 1.22388 9.11107 0.99353C9.43141 1.12775 9.73925 1.29004 10.031 1.47851C10.5852 1.80183 11.3512 2.24832 12.1826 2.77179C13.014 3.29526 13.7607 3.77254 14.2919 4.13819C14.5886 4.31966 14.866 4.53119 15.1194 4.76944Z" fill="#995037"/>
<path d="M16.5089 3.4338C16.4781 3.48383 15.4504 2.89108 14.1572 2.2252C12.8639 1.55932 11.7862 1.07049 11.8092 1.01276C12.0656 1.06087 12.3143 1.14375 12.5483 1.25909C12.9947 1.44 13.599 1.71328 14.2495 2.04815C14.9 2.38301 15.4735 2.71788 15.8777 2.97577C16.1072 3.10016 16.3194 3.25415 16.5089 3.4338Z" fill="#995037"/>
<path d="M17.8407 10.8316C17.5612 10.8408 17.2823 10.8004 17.017 10.7123C15.7043 10.3657 14.5249 9.63534 13.6298 8.61457C13.4355 8.41283 13.2745 8.18159 13.1525 7.92944C13.7849 8.61554 14.4954 9.22527 15.2695 9.74619C16.0799 10.2098 16.9432 10.5742 17.8407 10.8316Z" fill="#995037"/>
<path d="M56.8776 28.314L49.4913 4.83485C44.526 4.28444 39.5069 6.95182 36.6201 11.0241C33.7333 15.0964 32.8365 20.3734 33.5216 25.3194C33.8449 27.6519 34.4954 29.9383 34.7225 32.2785C34.9496 34.6187 34.7225 37.1167 33.3946 39.072C32.0667 41.0273 29.7573 42.3245 28.8604 44.5261C27.7057 47.3359 29.2684 50.4344 30.5001 53.2095C31.7318 55.9847 32.5016 59.6413 30.2961 61.7236C31.1008 61.713 31.8912 61.5096 32.6011 61.1306C33.311 60.7515 33.9197 60.2078 34.3761 59.545C34.568 60.1351 34.6409 60.7573 34.5907 61.3757C34.5405 61.9941 34.3681 62.5964 34.0836 63.1478C37.4823 63.9984 41.0619 62.6204 44.0218 60.7383C49.3071 57.3731 53.3952 52.4255 55.7036 46.6005C58.012 40.7756 58.4229 34.3707 56.8776 28.2986V28.314Z" fill="#161B46"/>
<path d="M40.2036 12.7215L39.6031 14.6152C39.5685 16.1548 40.3306 19.007 41.1928 19.6459L60.8229 33.4409C62.1639 34.3826 63.7774 34.8573 65.4148 34.7919L67.1507 34.7187C71.1229 34.5532 73.6941 30.3039 71.8311 26.7897C71.7454 26.6173 71.6395 26.4558 71.5155 26.3086C71.3946 26.1731 71.2661 26.0446 71.1306 25.9237C70.2633 25.0714 69.3086 24.3128 68.2823 23.6604C66.6041 22.3325 65.9113 21.7975 65.9267 21.8091C65.9421 21.8206 68.0899 17.7791 64.0022 13.4451C61.9699 11.2896 58.0785 8.476 54.8222 6.27435C54.1669 5.86584 53.4432 5.57898 52.686 5.42756C47.2897 4.17662 41.8741 7.44446 40.2036 12.7215Z" fill="#B78876"/>
<path d="M57.8937 10.1774C58.0479 10.2984 58.1501 10.4738 58.1794 10.6676C58.2087 10.8614 58.163 11.0592 58.0515 11.2204C57.9991 11.3011 57.9311 11.3704 57.8514 11.4243C57.7717 11.4782 57.682 11.5156 57.5877 11.5343C57.4933 11.5529 57.3961 11.5525 57.3019 11.533C57.2077 11.5134 57.1184 11.4752 57.0392 11.4206C56.8845 11.3001 56.7815 11.125 56.7515 10.9311C56.7214 10.7373 56.7665 10.5392 56.8776 10.3775C56.9307 10.2971 56.9993 10.2281 57.0793 10.1745C57.1594 10.1208 57.2493 10.0836 57.3438 10.065C57.4384 10.0464 57.5356 10.0467 57.63 10.066C57.7245 10.0853 57.8141 10.1231 57.8937 10.1774Z" fill="#161B46"/>
<path d="M56.1578 8.61078C56.1809 8.7455 55.4958 8.9418 55.0031 9.58459C54.5104 10.2274 54.4642 10.951 54.3334 10.9587C54.2718 10.9587 54.191 10.7816 54.1987 10.4622C54.2199 10.0349 54.3732 9.62469 54.6375 9.28821C54.8942 8.95204 55.2515 8.70662 55.6575 8.58769C55.9615 8.50686 56.154 8.5492 56.1578 8.61078Z" fill="#161B46"/>
<path d="M53.3018 16.2934C53.456 16.4145 53.5582 16.5899 53.5875 16.7837C53.6168 16.9775 53.5711 17.1753 53.4597 17.3365C53.4072 17.4172 53.3392 17.4865 53.2595 17.5404C53.1798 17.5943 53.0901 17.6317 52.9958 17.6504C52.9014 17.669 52.8042 17.6686 52.7101 17.6491C52.6159 17.6295 52.5265 17.5913 52.4474 17.5367C52.2926 17.4162 52.1896 17.2411 52.1596 17.0472C52.1296 16.8533 52.1747 16.6553 52.2857 16.4936C52.3388 16.4132 52.4074 16.3442 52.4875 16.2906C52.5675 16.2369 52.6574 16.1997 52.7519 16.1811C52.8465 16.1625 52.9437 16.1628 53.0381 16.1821C53.1326 16.2014 53.2222 16.2392 53.3018 16.2934Z" fill="#161B46"/>
<path d="M51.4043 15.0271C51.4235 15.1618 50.7384 15.3542 50.2496 16.0009C49.7607 16.6475 49.7107 17.3634 49.5798 17.3711C49.5182 17.3711 49.4374 17.1979 49.4451 16.8746C49.4707 16.4541 49.6238 16.0513 49.8839 15.7199C50.1419 15.386 50.499 15.1421 50.9039 15.0232C51.2041 14.9116 51.3966 14.9616 51.4043 15.0271Z" fill="#161B46"/>
<path d="M57.9746 16.3704C58.1304 15.9502 58.3372 15.5508 58.5904 15.181C58.6982 15.004 58.7867 14.8231 58.6982 14.7115C58.5389 14.5654 58.3388 14.4714 58.1247 14.442L56.5004 13.9647C54.191 13.2642 52.3588 12.6253 52.3896 12.5329C52.4204 12.4405 54.3141 12.9178 56.6043 13.6299L58.2209 14.1341C58.4988 14.1848 58.7505 14.3304 58.933 14.5459C58.9726 14.6149 58.9959 14.692 59.0013 14.7714C59.0066 14.8508 58.9938 14.9303 58.9638 15.004C58.9194 15.1144 58.8598 15.218 58.7867 15.3119C58.5623 15.698 58.2893 16.0537 57.9746 16.3704Z" fill="#161B46"/>
<path d="M65.9266 21.7976C64.2673 24.0174 62.0249 25.7335 59.4487 26.7552C59.4487 26.7552 63.8828 27.6751 67.0467 22.6752L65.9266 21.7976Z" fill="#995037"/>
<path d="M59.314 17.8408C59.0656 17.8429 58.8219 17.9088 58.6062 18.0321C58.3906 18.1555 58.2102 18.3321 58.0823 18.5451C57.9856 18.6974 57.9205 18.8674 57.8907 19.0453C57.861 19.2231 57.8672 19.4051 57.9091 19.5805C57.9508 19.7488 58.0428 19.9005 58.1727 20.0153C58.3027 20.1301 58.4644 20.2026 58.6366 20.2233C58.8317 20.2082 59.0179 20.1354 59.1715 20.014C59.325 19.8927 59.439 19.7284 59.4988 19.542C59.6265 19.1554 59.6762 18.7472 59.645 18.3411C59.6479 18.2287 59.631 18.1167 59.595 18.0101C59.5776 17.9598 59.5456 17.9157 59.5031 17.8835C59.4607 17.8513 59.4096 17.8324 59.3564 17.8292" fill="#995037"/>
<path d="M56.9584 18.6067C57.0316 18.4989 57.7282 19.034 58.6866 18.8184C59.645 18.6029 60.1416 17.8023 60.2262 17.8715C60.3109 17.9408 60.2263 18.141 60.003 18.4643C59.693 18.8772 59.2473 19.1675 58.7444 19.2841C58.2612 19.3983 57.7526 19.3181 57.3279 19.0609C57.0277 18.8646 56.9161 18.6529 56.9584 18.6067Z" fill="#161B46"/>
<path d="M49.041 13.3951C49.168 13.5952 48.5906 14.1649 48.098 14.9963C47.6053 15.8277 47.3282 16.5898 47.1088 16.5705C47.001 16.5705 46.9163 16.3242 46.9355 15.947C46.9818 15.4586 47.1386 14.9872 47.394 14.5684C47.6494 14.1496 47.9967 13.7945 48.4097 13.5298C48.7369 13.3373 48.9794 13.3027 49.041 13.3951Z" fill="#161B46"/>
<path d="M53.2017 6.62852C53.2633 6.85561 52.7668 7.18278 52.3511 7.7101C51.9354 8.23741 51.6891 8.76858 51.4581 8.75319C51.3465 8.75319 51.258 8.55689 51.2695 8.25666C51.3012 7.8624 51.4561 7.48807 51.7122 7.18663C51.9604 6.87807 52.2978 6.6536 52.6783 6.54384C52.9708 6.47071 53.1786 6.5246 53.2017 6.62852Z" fill="#161B46"/>
<path d="M50.0186 24.3495C49.6722 24.08 48.5445 23.8529 48.225 24.1532C47.3782 24.9576 46.1773 26.6627 48.4906 28.4718C51.6545 30.9429 53.4943 27.2593 53.3942 27.1824C53.2942 27.1054 51.2195 25.2694 50.0186 24.3495Z" fill="#B78876"/>
<path d="M51.4428 27.2286C51.4235 27.2286 51.4428 27.3133 51.4081 27.4403C51.3618 27.6149 51.2502 27.7651 51.0963 27.8598C50.7114 28.0985 49.9609 27.9637 49.3797 27.5327C49.1032 27.3277 48.8747 27.065 48.7099 26.7628C48.6345 26.6555 48.5863 26.5315 48.5696 26.4014C48.5528 26.2713 48.568 26.1391 48.6137 26.0161C48.6467 25.9403 48.7051 25.8784 48.7789 25.8411C48.8527 25.8039 48.9373 25.7936 49.0179 25.8121C49.141 25.8391 49.1872 25.9084 49.2065 25.893C49.2257 25.8776 49.2065 25.7852 49.0563 25.7082C48.9637 25.6652 48.8594 25.6544 48.76 25.6774C48.6257 25.713 48.5109 25.8002 48.4405 25.9199C48.365 26.0699 48.3292 26.2368 48.3366 26.4046C48.344 26.5724 48.3944 26.7355 48.4828 26.8783C48.6513 27.2272 48.9023 27.5298 49.2142 27.7597C49.8646 28.237 50.7153 28.3756 51.208 28.0215C51.2988 27.9557 51.3736 27.8704 51.4269 27.7718C51.4802 27.6732 51.5106 27.5638 51.5159 27.4518C51.5159 27.2786 51.4581 27.2055 51.4428 27.2286Z" fill="#995037"/>
<path d="M52.2395 33.7373L55.1802 57.2972L50.2727 57.9592V31.1969L52.2395 33.7373Z" fill="#5C5F7E"/>
<path opacity="0.3" d="M52.2395 33.7373L55.1802 57.2972L50.2727 57.9592V31.1969L52.2395 33.7373Z" fill="#0E1339"/>
<path d="M46.3851 29.538L46.185 65.2378C46.185 65.2378 46.5391 65.8383 48.3327 65.2378C50.1264 64.6374 51.5159 66.6389 51.5159 66.6389L50.9578 32.7135L50.2726 26.6551L46.3851 29.538Z" fill="#0064A7"/>
<path d="M44.7993 16.5206C44.7993 16.5206 45.1842 10.2389 47.0356 7.97956C48.887 5.72017 52.8746 5.46228 52.8746 5.46228C52.8746 5.46228 51.2695 3.88418 47.1511 4.73867C45.8699 4.96066 44.6536 5.46286 43.589 6.2094C42.5244 6.95594 41.6378 7.9284 40.9926 9.05728C39.8379 10.9818 39.6108 14.6153 39.6108 14.6153L44.7993 16.5206Z" fill="#0064A7"/>
<path d="M63.294 27.6982C63.294 27.6982 79.9372 25.4965 83.613 28.4911C87.2888 31.4856 97.2925 39.8265 100.633 45.2228C102.142 47.6554 104.275 56.639 103.736 63.0015L84.0018 63.6558L82.8471 53.9024L69.1907 46.8817C69.1907 46.8817 59.7875 42.7633 59.2217 36.4663C58.6559 30.1692 63.294 27.6982 63.294 27.6982Z" fill="#B78876"/>
<path d="M63.294 27.6982C63.294 27.6982 75.6532 33.1523 76.4846 35.4309C76.4846 35.4309 77.8241 38.5679 77.3198 40.6656L72.1082 48.3983L81.7732 53.3636L93.2741 36.5817L85.6799 28.9376C84.7138 28.0946 83.0588 26.7475 81.8309 26.4011C80.369 26.0859 78.8915 25.8482 77.4045 25.689C75.7571 25.4542 70.3646 25.5158 70.3646 25.5158L63.294 27.6982Z" fill="#161B46"/>
<path d="M90.3026 52.7784C89.0864 53.0695 87.8555 53.2956 86.6152 53.4559C85.3849 53.6788 84.1438 53.8381 82.8971 53.9332C84.1132 53.6417 85.3441 53.4155 86.5845 53.2557C87.8144 53.0303 89.0556 52.871 90.3026 52.7784Z" fill="#995037"/>
<path d="M86.1957 32.6172C86.1649 32.6172 85.9725 32.2015 85.5645 31.5626C84.4896 29.8953 82.9282 28.5986 81.0919 27.8482C80.3913 27.5634 79.9372 27.4633 79.9372 27.4171C80.0492 27.4164 80.1607 27.432 80.2682 27.4633C80.5652 27.5268 80.8572 27.6117 81.1419 27.7174C83.0479 28.4093 84.6536 29.7429 85.6838 31.4894C85.8399 31.7496 85.9762 32.0211 86.0918 32.3016C86.1726 32.5133 86.2111 32.6172 86.1957 32.6172Z" fill="#161B46"/>
<path d="M90.5374 33.822L78.9095 51.8816L81.777 53.3558L93.2741 36.574L90.5374 33.822Z" fill="#E6F7FD" fill-opacity="0.5"/>
<path d="M26.7666 97.9161L17.9138 98.6859L15.9084 96.5228C14.9346 95.5105 14.2957 96.4881 13.2834 97.4619L0.901043 109.329C0.901043 109.329 1.5092 111.13 2.79477 110.641C4.08035 110.152 14.6883 107.35 14.6883 107.35L23.7066 106.857L26.7666 97.9161Z" fill="#00ACE9"/>
<path d="M26.7666 97.9161C26.756 97.9675 26.7405 98.0178 26.7204 98.0662C26.6857 98.1778 26.6357 98.328 26.5741 98.5204L25.9852 100.287C25.4579 101.846 24.7035 104.094 23.7643 106.881V106.927H23.7143L14.6883 107.439L8.11031 109.213L4.56534 110.206C3.96489 110.379 3.36444 110.552 2.76014 110.756C2.59505 110.812 2.41986 110.83 2.24694 110.81C2.07402 110.79 1.90759 110.732 1.7594 110.641C1.47818 110.451 1.24496 110.198 1.07812 109.902C0.975933 109.728 0.889623 109.545 0.820234 109.355L0.800987 109.298L0.847174 109.252L10.2196 100.279C11.6514 98.9092 13.0063 97.6313 14.2611 96.4111C14.4285 96.2603 14.6231 96.1427 14.8346 96.0647C14.9443 96.0271 15.0604 96.0119 15.176 96.0198C15.2917 96.0277 15.4046 96.0587 15.5082 96.1109C15.7 96.2065 15.8723 96.337 16.0162 96.4958L16.4281 96.9423L17.9677 98.6243L17.9138 98.6051L24.4264 98.0701L26.1623 97.9354L26.6088 97.9007H26.755C26.7015 97.9101 26.6476 97.9165 26.5934 97.92L26.1353 97.9661L24.3802 98.1394L17.9253 98.7475H17.8907L17.8676 98.7206L16.3049 97.0501C16.0594 96.7351 15.7643 96.4621 15.4312 96.2418C15.3452 96.1991 15.2515 96.174 15.1556 96.168C15.0598 96.1621 14.9637 96.1754 14.8731 96.2071C14.6818 96.2811 14.5057 96.3893 14.3534 96.5266C13.1218 97.7391 11.7592 99.0323 10.335 100.406L0.985739 109.405L1.01269 109.302C1.0764 109.478 1.15628 109.648 1.25132 109.81C1.4017 110.077 1.61102 110.306 1.86332 110.479C1.98709 110.557 2.12673 110.606 2.27194 110.623C2.41715 110.639 2.56425 110.623 2.70241 110.576C3.29901 110.372 3.91101 110.191 4.51146 110.025L8.05642 109.036L14.6575 107.262L23.6797 106.792L23.6181 106.838C24.5803 104.082 25.3578 101.865 25.8967 100.322L26.5241 98.5474C26.5934 98.351 26.6511 98.1971 26.6896 98.0816L26.7666 97.9161Z" fill="#161B46"/>
<path d="M12.4713 98.4011C12.4944 98.3741 12.7484 98.5897 13.2103 98.8322C13.8103 99.1559 14.4745 99.3427 15.1553 99.3793C15.8361 99.4159 16.5166 99.3014 17.1478 99.0439C17.6367 98.8514 17.9176 98.659 17.9176 98.6936C17.7171 98.9081 17.4712 99.0752 17.1979 99.1824C16.5547 99.4885 15.8451 99.6288 15.1338 99.5905C14.4226 99.5522 13.7322 99.3365 13.1256 98.963C12.8698 98.8247 12.6467 98.6331 12.4713 98.4011Z" fill="#161B46"/>
<path d="M4.57309 105.834C4.78028 105.9 4.96797 106.016 5.11965 106.172C5.52169 106.524 5.81203 106.986 5.95489 107.5C6.09163 108.008 6.12047 108.539 6.03957 109.059C6.02505 109.276 5.96886 109.487 5.87407 109.683C5.84618 109.472 5.84618 109.258 5.87407 109.048C5.90844 108.547 5.86296 108.044 5.73935 107.558C5.60138 107.079 5.34909 106.64 5.00418 106.28C4.75015 106.007 4.55385 105.861 4.57309 105.834Z" fill="#161B46"/>
<path d="M83.0318 59.0293L83.6707 62.1624L80.6492 64.9222C80.6492 64.9222 72.8857 69.3216 73.8672 78.617L63.0322 91.1841C63.0322 91.1841 45.6884 93.6398 41.0581 94.3557C37.209 94.9523 22.1978 98.4011 22.1978 98.4011L22.7328 107.539C22.7328 107.539 59.264 106.515 61.5773 106.311C66.1961 105.926 69.718 107.004 73.5093 103.836C76.2459 101.561 94.9908 82.9164 94.9908 82.9164L94.8406 57.4435L83.0318 59.0293Z" fill="#0064A7"/>
<path d="M18.7144 13.9801C18.7144 13.9801 35.0882 23.4719 38.5716 25.6889C42.055 27.9059 47.2358 29.0876 49.4875 31.3508C51.2311 33.0983 60.0992 39.6763 63.063 40.4115C66.0268 41.1466 66.8004 30.096 66.8004 30.096C66.8004 30.096 53.0901 20.7621 49.6376 18.7337C46.185 16.7052 21.3087 8.4837 21.3087 8.4837L18.7144 13.9801Z" fill="#B78876"/>
<path d="M68.8981 39.4223C68.8673 39.4223 68.6749 38.9566 68.3015 38.2176C67.3263 36.2946 65.9802 34.5836 64.3409 33.183C63.7135 32.6442 63.2939 32.3478 63.3132 32.317C63.4259 32.3615 63.5321 32.4211 63.6288 32.4941C63.9066 32.6727 64.1751 32.8654 64.4332 33.0714C66.1492 34.4305 67.5239 36.1716 68.4478 38.156C68.5917 38.4546 68.7202 38.7603 68.8327 39.0721C68.8717 39.1849 68.8937 39.303 68.8981 39.4223Z" fill="#995037"/>
<path d="M65.1107 28.9298C65.0714 28.9134 65.0339 28.8927 64.999 28.8682L64.6873 28.6758L63.4941 27.906L59.1216 25.0577L52.6552 20.8237L50.7846 19.5921L49.8223 18.957L49.576 18.7992L49.3181 18.6683L48.7946 18.4066C47.3589 17.7522 45.8308 17.1595 44.2604 16.5629C37.9673 14.2072 32.2053 12.2442 28.0406 10.7893L23.11 9.09573L21.7705 8.62615L21.4241 8.50298C21.3838 8.49094 21.345 8.47414 21.3086 8.45294L21.428 8.48373L21.7821 8.58766L23.1331 9.01875L28.0868 10.6777C32.263 12.0864 38.0327 14.0225 44.3297 16.3858C45.904 16.9786 47.432 17.5752 48.8793 18.2372L49.4143 18.5066L49.6799 18.6413L49.9224 18.803L50.8885 19.4381L52.7514 20.6736L59.1986 24.9538L63.5364 27.8559L64.6911 28.6527L64.9913 28.8644C65.0341 28.8803 65.0742 28.9024 65.1107 28.9298Z" fill="#995037"/>
<path d="M18.7144 13.9802C18.7579 13.9938 18.7993 14.0133 18.8376 14.0379L19.1801 14.2265L20.4965 14.9694L25.304 17.733L32.417 21.8745C33.7487 22.6674 35.1498 23.495 36.6009 24.3533L38.7948 25.6889C39.5488 26.1403 40.3275 26.5489 41.1273 26.9129C42.7478 27.6635 44.3798 28.287 45.9155 28.9953C46.6731 29.3331 47.4085 29.7188 48.1172 30.15C48.2904 30.2616 48.4636 30.3655 48.6253 30.4848L49.1102 30.8697C49.4105 31.1392 49.6991 31.4086 49.9763 31.6665C51.131 32.6826 52.3049 33.591 53.4058 34.407C54.5066 35.223 55.5497 35.9813 56.5119 36.6433C58.0224 37.708 59.5915 38.6872 61.2116 39.5762C61.6513 39.8173 62.105 40.032 62.5703 40.219L62.9552 40.3499C62.9983 40.3612 63.0397 40.378 63.0784 40.3999L62.9514 40.3692L62.5665 40.2575C62.092 40.0864 61.6303 39.8819 61.1847 39.6455C59.5458 38.7822 57.9621 37.8181 56.4427 36.7588C55.4689 36.1044 54.4219 35.3577 53.3134 34.5417C52.2049 33.7257 51.0348 32.825 49.8493 31.805C48.7831 30.6503 47.3551 29.8805 45.827 29.18C44.2989 28.4795 42.667 27.8559 41.0388 27.1015C40.2315 26.7359 39.4462 26.3234 38.6871 25.866L36.4931 24.5304L32.3207 22.0439L25.2347 17.8561L20.4619 15.0348L19.1686 14.265L18.8337 14.061L18.7144 13.9802Z" fill="#995037"/>
<path d="M9.71153 11.971C9.71153 11.971 12.6791 14.5575 13.4951 14.6422C14.3111 14.7269 19.0916 13.9186 19.0916 13.9186L21.7667 8.75319C21.7667 8.75319 17.2056 5.13125 16.151 4.56929C15.0963 4.00733 8.83779 2.09436 8.83779 2.09436C8.7613 2.12066 8.69166 2.16372 8.63395 2.22039C8.57624 2.27707 8.53193 2.34593 8.50426 2.42193C8.47659 2.49793 8.46626 2.57916 8.47402 2.65968C8.48178 2.74019 8.50744 2.81794 8.54912 2.88726C8.54912 2.88726 6.46294 1.5632 5.80475 2.77179C5.73998 2.71853 5.66269 2.68268 5.58019 2.66765C5.49769 2.65261 5.41272 2.65887 5.33333 2.68585C5.25393 2.71283 5.18273 2.75963 5.12647 2.82182C5.07022 2.88401 5.03076 2.95953 5.01185 3.04123C4.93758 3.22618 4.90362 3.42485 4.91225 3.62398C4.92088 3.8231 4.9719 4.0181 5.06189 4.19594C5.06189 4.19594 4.2382 4.96574 4.80401 5.71246C5.36982 6.45917 9.6153 9.41523 9.6153 9.41523L11.5129 11.3821C11.5129 11.3821 9.83469 10.0965 9.17266 10.1119C8.51062 10.1273 8.6184 10.901 8.6184 10.901L9.71153 11.971Z" fill="#B78876"/>
<path d="M11.0433 8.23744C9.9825 7.65261 8.95456 7.01014 7.96404 6.31292C6.93764 5.67201 5.94697 4.97559 4.99644 4.22675C6.05779 4.81056 7.0858 5.45306 8.07566 6.15126C9.10259 6.79138 10.0933 7.48784 11.0433 8.23744Z" fill="#995037"/>
<path d="M11.944 6.58615C11.6285 6.4399 11.3259 6.26737 11.0394 6.07038L8.91477 4.75785C8.08338 4.23823 7.32897 3.76866 6.79396 3.41454C6.49219 3.24047 6.20852 3.03675 5.94717 2.8064C6.26887 2.93925 6.57695 3.10296 6.86709 3.29523C7.4252 3.6147 8.18731 4.06503 9.0187 4.58465C9.85009 5.10427 10.6007 5.5854 11.128 5.95106C11.4225 6.13207 11.6962 6.34506 11.944 6.58615Z" fill="#995037"/>
<path d="M13.3334 5.2467C13.2138 5.20212 13.099 5.14537 12.9909 5.07735L12.0363 4.57697C11.2126 4.15743 10.0271 3.57237 8.59912 2.90649L8.55678 2.88724V2.84106C8.53323 2.69995 8.52548 2.55665 8.53369 2.41382C8.53356 2.32241 8.56056 2.23302 8.61126 2.15696C8.66196 2.08091 8.73409 2.02161 8.81852 1.98657H8.84546L12.6945 3.24136L14.6383 3.88415C14.9539 3.98807 15.2618 4.0843 15.562 4.19592C15.8489 4.33426 16.1243 4.49514 16.3857 4.67705C17.3942 5.36603 18.2641 6.03191 18.9915 6.60157C19.719 7.17122 20.304 7.62541 20.7005 7.94873L21.1585 8.33363C21.213 8.37621 21.2633 8.4239 21.3086 8.47604C21.2454 8.446 21.186 8.40853 21.1316 8.36442L20.6543 8.01416L18.9222 6.70549C18.1832 6.16277 17.3056 5.50844 16.2972 4.83486C16.0515 4.66457 15.7943 4.51153 15.5274 4.37682C15.2349 4.2729 14.9192 4.17667 14.6075 4.07275L12.6829 3.43381L8.83391 2.16363H8.87625C8.81851 2.16363 8.74923 2.30989 8.74154 2.42921C8.72383 2.5569 8.72383 2.68643 8.74154 2.81412L8.6915 2.74868C10.1156 3.43381 11.2934 4.03811 12.1056 4.48844C12.4905 4.71169 12.8254 4.89645 13.0371 5.02731C13.1424 5.09122 13.2416 5.16466 13.3334 5.2467Z" fill="#995037"/>
<path d="M14.6652 12.6484C14.3858 12.6521 14.1077 12.6105 13.8415 12.5252C13.188 12.3556 12.5638 12.0883 11.9902 11.7323C11.4147 11.3766 10.8958 10.9368 10.4505 10.4275C10.2548 10.2278 10.0947 9.99607 9.9771 9.74237C11.2002 11.1725 12.8368 12.1878 14.6614 12.6484H14.6652Z" fill="#995037"/>
<path d="M124.982 91.2111L125.49 103.393L125.429 106.342C125.429 107.747 126.584 107.496 127.969 107.496L145.117 107.581C145.117 107.581 145.933 105.861 144.67 105.318C143.408 104.775 133.847 99.4365 133.847 99.4365L134.47 90.4297L124.982 91.2111Z" fill="#00ACE9"/>
<path d="M124.982 91.2111C125.034 91.1976 125.087 91.1898 125.14 91.188L125.618 91.1418L127.484 90.9724L134.463 90.3566H134.543V90.4374C134.37 92.9932 134.159 96.0531 133.939 99.448L133.893 99.3633L140.101 102.785C141.198 103.386 142.322 103.998 143.473 104.606L144.347 105.056C144.497 105.129 144.636 105.187 144.793 105.272C144.874 105.31 144.951 105.358 145.021 105.414C145.095 105.466 145.158 105.531 145.209 105.606C145.424 105.897 145.519 106.26 145.475 106.619C145.444 106.967 145.355 107.308 145.213 107.627L145.171 107.673H145.105H144.062L130.629 107.6H127.615C127.127 107.633 126.637 107.614 126.153 107.543C126.026 107.521 125.905 107.474 125.796 107.404C125.688 107.335 125.594 107.244 125.521 107.138C125.394 106.924 125.33 106.679 125.337 106.43C125.36 105.509 125.379 104.622 125.394 103.77C125.394 102.92 125.344 102.096 125.321 101.315C125.21 98.1971 125.113 95.6721 125.052 93.9131C125.021 93.0509 124.998 92.3735 124.982 91.9116C124.982 91.6922 124.982 91.5267 124.982 91.3958C124.977 91.3395 124.977 91.2828 124.982 91.2264C124.982 91.2264 124.982 91.2919 124.982 91.4112C124.982 91.5305 124.982 91.7153 125.009 91.9385C125.036 92.4081 125.067 93.0932 125.113 93.9554C125.194 95.7067 125.313 98.224 125.46 101.33C125.487 102.1 125.556 102.92 125.544 103.77C125.533 104.621 125.517 105.506 125.502 106.426C125.494 106.643 125.549 106.857 125.66 107.042C125.721 107.13 125.799 107.205 125.89 107.263C125.98 107.32 126.081 107.359 126.187 107.377C126.658 107.441 127.134 107.457 127.607 107.423H130.625L144.058 107.481H145.101L145.013 107.535C145.145 107.239 145.227 106.923 145.255 106.6C145.296 106.291 145.218 105.978 145.036 105.726C144.811 105.503 144.539 105.333 144.239 105.229L143.365 104.775C142.211 104.167 141.087 103.551 139.99 102.951L133.785 99.5134L133.739 99.4865V99.4326C133.981 96.0377 134.201 92.9778 134.382 90.4258L134.455 90.499L127.527 91.034L125.644 91.1726L125.152 91.2072L124.982 91.2111Z" fill="#161B46"/>
<path d="M129.209 107.396C129.174 107.396 129.143 107.073 128.978 106.573C128.769 105.925 128.423 105.33 127.962 104.829C127.496 104.33 126.929 103.936 126.299 103.674C125.814 103.478 125.487 103.42 125.49 103.386C125.784 103.372 126.077 103.423 126.349 103.536C127.024 103.762 127.632 104.154 128.116 104.676C128.601 105.198 128.948 105.833 129.124 106.523C129.22 106.803 129.249 107.102 129.209 107.396Z" fill="#161B46"/>
<path d="M140.055 107.55C139.951 107.358 139.896 107.142 139.897 106.923C139.853 106.39 139.964 105.855 140.217 105.383C140.475 104.925 140.825 104.525 141.245 104.209C141.406 104.063 141.594 103.949 141.799 103.874C141.799 103.901 141.626 104.055 141.341 104.321C140.969 104.653 140.653 105.043 140.405 105.476C140.171 105.915 140.049 106.406 140.048 106.904C140.07 107.118 140.072 107.335 140.055 107.55Z" fill="#161B46"/>
<path d="M103.713 56.2541L104.063 59.0755C104.063 59.0755 123.231 54.1718 129.863 54.1718C133.685 54.1718 137.653 58.5289 136.895 65.4957C136.056 73.1938 134.07 98.9823 134.07 98.9823L125.333 99.5904C125.333 99.5904 123.1 84.4676 122.931 78.8056C122.816 76.2621 122.975 73.7135 123.404 71.2038C123.404 71.2038 118.401 74.7064 114.078 76.5924C110.572 78.1321 100.741 83.59 92.6505 83.105C84.9524 82.647 80.6492 77.0351 81.4652 70.7034C82.3851 63.5519 86.0379 60.7344 86.0379 60.7344L94.8521 57.482L103.713 56.2541Z" fill="#0064A7"/>
<path d="M95.0023 82.9164C94.9081 82.9448 94.8115 82.9641 94.7136 82.9741C94.4375 83.0254 94.1586 83.0601 93.8784 83.078C92.8478 83.157 91.8113 83.0909 90.7991 82.8817C90.0979 82.7364 89.4103 82.5317 88.7438 82.2697C87.9819 81.9645 87.2511 81.5869 86.5614 81.142C84.9562 80.1379 83.6329 78.7419 82.7158 77.0855C81.7987 75.4291 81.318 73.5667 81.319 71.6733C81.3083 70.8529 81.3753 70.0332 81.5191 69.2253C81.6541 68.5237 81.8485 67.8348 82.1003 67.1661C82.458 66.1954 82.9517 65.2805 83.5668 64.4487C83.7311 64.2218 83.9084 64.0046 84.098 63.7982C84.1588 63.7211 84.2257 63.6491 84.2981 63.5827C84.2485 63.6669 84.1918 63.7467 84.1288 63.8213C84.021 63.9791 83.8247 64.2062 83.6322 64.4949C83.0471 65.3348 82.576 66.2485 82.2312 67.2123C81.712 68.6395 81.4653 70.1513 81.5037 71.6695C81.5128 73.5322 81.9903 75.3627 82.8923 76.9924C83.7943 78.6222 85.0918 79.9988 86.6653 80.9957C87.3435 81.4371 88.0612 81.8146 88.8092 82.1235C89.4652 82.3836 90.1409 82.5908 90.8299 82.7432C91.8305 82.9614 92.8553 83.0481 93.8784 83.0011C94.2402 83.0011 94.5212 82.9433 94.7098 82.9318C94.8067 82.9183 94.9045 82.9131 95.0023 82.9164Z" fill="#161B46"/>
<path d="M106.68 58.3249C106.68 58.3788 104.852 58.9485 102.562 59.6028C100.272 60.2571 98.4048 60.7383 98.3894 60.6844C98.374 60.6305 100.218 60.0608 102.508 59.4103C104.798 58.7599 106.68 58.271 106.68 58.3249Z" fill="#161B46"/>
<path d="M126.899 64.9491C126.922 64.9722 126.603 65.334 126.129 65.9075C125.518 66.6752 124.972 67.4928 124.497 68.3516C124.027 69.2155 123.63 70.1166 123.308 71.046C123.194 71.4378 123.059 71.8232 122.904 72.2007C122.904 72.09 122.919 71.9798 122.95 71.8735C122.989 71.6657 123.062 71.3654 123.17 70.9998C123.748 69.0967 124.718 67.3358 126.018 65.8305C126.212 65.6008 126.419 65.3824 126.638 65.1762C126.799 65.0338 126.888 64.9491 126.899 64.9491Z" fill="#161B46"/>
</svg>
