<svg width="96" height="187" viewBox="0 0 96 187" fill="none" xmlns="http://www.w3.org/2000/svg">
<path d="M35.0127 118.07C34.7643 118.094 30.5999 131.952 30.5999 131.952C30.5999 131.952 16.129 144.44 13.9518 149.194C11.7747 153.948 4.23971 168.618 4.23971 168.618L12.9582 173.002L37.5649 143.646C37.5649 143.646 40.2876 142.458 41.2813 140.87C42.2749 139.282 53.7648 120.754 53.7648 120.754L49.8683 112.337L35.0127 118.07Z" fill="#B78876"/>
<path d="M65.849 119.249C65.849 119.249 77.5825 128.094 78.766 129.799C78.9804 130.11 78.766 131.055 78.766 131.055C78.766 131.055 72.2004 135.108 70.3885 140.694C68.5766 146.281 60.8906 165.277 60.8906 165.277C60.8906 165.277 68.9906 170.445 69.2682 169.884C69.5458 169.324 88.712 141.732 90.3875 139.496C92.063 137.261 94.5471 134.138 94.9659 131.338C95.3848 128.537 94.4107 123.233 89.9394 118.484C85.4681 113.735 79.3359 106.755 79.3359 106.755L63.1312 109.965L62.5662 116.37L65.849 119.229" fill="#B78876"/>
<path d="M38.0228 93.1663C38.0228 93.1663 39.0748 100.872 41.744 104.32C44.4131 107.769 51.4074 114.096 54.8559 115.094C58.3043 116.093 65.021 120.754 65.021 120.754L66.2971 119.78L64.3001 114.096L70.8561 116.653L82.0586 106.965C82.0586 106.965 72.7167 98.0954 70.33 95.3629C68.3597 93.1952 66.2805 91.129 64.1004 89.1723L39.747 91.8755L37.8328 93.6533" fill="#161B46"/>
<path d="M38.1445 95.3629C38.1445 95.3629 38.578 102.893 39.6496 104.793L33.5515 118.202L50.2677 116.711C50.2677 116.711 53.8281 122.921 53.9109 123.087C53.9937 123.252 59.975 117.695 59.975 117.695L56.1466 101.568L38.1445 95.3629Z" fill="#161B46"/>
<path d="M65.021 120.754C64.9072 120.7 64.7966 120.64 64.6898 120.574L63.7497 120.023L60.3403 117.924L57.9975 116.463C57.15 115.946 56.2732 115.352 55.2942 114.826C54.8072 114.558 54.3201 114.295 53.7746 114.052C53.229 113.808 52.6933 113.623 52.1185 113.394C50.9417 112.928 49.8019 112.372 48.7091 111.733C46.6092 110.503 44.7199 108.944 43.1126 107.116C41.7973 105.625 40.7046 103.952 39.8688 102.148C39.3032 100.933 38.8689 99.6608 38.5732 98.3535C38.4806 97.8908 38.4076 97.5304 38.3783 97.282C38.3533 97.1585 38.3402 97.0329 38.3394 96.907C38.3806 97.0275 38.4116 97.1513 38.4319 97.2771C38.4758 97.5206 38.5585 97.8762 38.6706 98.3341C38.9984 99.6214 39.4536 100.873 40.0295 102.07C40.882 103.838 41.9789 105.478 43.288 106.941C44.8962 108.745 46.7802 110.284 48.8698 111.5C49.9443 112.131 51.0644 112.681 52.2208 113.146C52.7809 113.37 53.3508 113.565 53.8866 113.818C54.4224 114.071 54.9289 114.334 55.416 114.607C56.3901 115.148 57.2766 115.747 58.1192 116.268L60.4474 117.753L63.8082 119.921L64.7141 120.52C64.8259 120.585 64.929 120.663 65.021 120.754Z" fill="#45496B"/>
<path d="M71.7133 115.62C71.6071 115.576 71.5045 115.524 71.4064 115.464L70.559 114.977C69.8235 114.553 68.7714 113.92 67.4807 113.117C64.9041 111.514 61.4021 109.22 57.6614 106.468C53.9207 103.716 50.6622 101.11 48.3535 99.1182C47.1991 98.1441 46.2786 97.3258 45.6503 96.7511L44.9343 96.0887C44.7687 95.9377 44.6859 95.8549 44.6956 95.8451C44.7922 95.9055 44.8834 95.9739 44.9684 96.0497L45.7185 96.678L48.4704 98.9819C50.8034 100.93 54.0814 103.531 57.8124 106.264C61.5433 108.996 65.0307 111.324 67.5781 112.966L70.6076 114.914L71.4308 115.44C71.5316 115.489 71.6264 115.549 71.7133 115.62Z" fill="white"/>
<path d="M73.1307 114.524C73.024 114.485 72.9226 114.433 72.8287 114.368L72.0007 113.881C71.2847 113.453 70.257 112.815 68.9955 112.006C66.4773 110.399 63.0484 108.085 59.3807 105.372C55.7131 102.659 52.5033 100.049 50.2287 98.1051C49.089 97.131 48.1781 96.3371 47.5644 95.7721L46.8533 95.1243C46.765 95.0521 46.685 94.9704 46.6147 94.8807C46.7133 94.938 46.8048 95.0067 46.8874 95.0853L47.6278 95.699L50.3456 97.9687C52.6446 99.8732 55.869 102.455 59.5317 105.168C63.1945 107.881 66.5991 110.209 69.0929 111.86L72.0542 113.808L72.8579 114.339C72.9539 114.393 73.0451 114.455 73.1307 114.524Z" fill="white"/>
<path d="M82.8233 132.443C82.2248 132.027 81.585 131.672 80.914 131.387C80.2149 131.182 79.4969 131.048 78.7709 130.987C79.5154 130.836 80.2872 130.892 81.0019 131.15C81.7165 131.408 82.3466 131.857 82.8233 132.448V132.443Z" fill="#995037"/>
<path d="M37.9935 143.062C37.9595 143.12 37.6088 142.964 37.2191 142.711C36.8295 142.458 36.5372 142.224 36.5762 142.151C36.6151 142.078 36.961 142.248 37.3555 142.497C37.75 142.745 38.0325 143.003 37.9935 143.062Z" fill="#995037"/>
<path d="M75.566 66.962L85.1807 70.0305L82.6723 76.5718C82.6723 76.5718 71.723 76.226 69.877 75.8266C68.0311 75.4272 68.0652 72.4171 68.0652 72.4171L75.566 66.962Z" fill="#B78876"/>
<path d="M84.2309 70.5273L87.3482 67.0399L90.8941 67.0837C90.8941 67.0837 93.4658 68.1163 93.9723 68.1066C93.953 68.2957 93.8818 68.4758 93.7667 68.6271C93.6515 68.7783 93.4968 68.8949 93.3196 68.9638C93.3196 68.9638 94.5763 68.9638 94.8539 69.3876C95.1315 69.8113 94.6542 70.6539 94.2548 71.141C94.3538 71.5438 94.3916 71.9592 94.3668 72.3733C94.3395 72.7948 94.1869 73.1984 93.9285 73.5325L93.2125 73.9173C93.3532 74.0485 93.4518 74.2185 93.496 74.4057C93.5402 74.5929 93.528 74.7891 93.4609 74.9694C93.2174 75.4102 92.861 75.7783 92.4283 76.036C92.4283 76.036 93.081 76.3039 92.8764 76.8446C92.6718 77.3852 92.4916 77.6385 92.0776 77.8187C91.6636 77.9989 87.8255 78.5055 86.9975 78.3058C86.1695 78.1061 82.6967 76.6059 82.6967 76.6059L84.2309 70.5273Z" fill="#B78876"/>
<path d="M94.2987 71.3018C94.2987 71.3407 93.7629 71.2336 92.9008 71.1508C92.4722 71.1118 91.9607 71.0777 91.3909 71.0826C91.1035 71.0826 90.8113 71.0826 90.4947 71.0826C90.1415 71.13 89.7834 71.0431 89.4913 70.8391C89.3403 70.7185 89.2424 70.5437 89.2186 70.352C89.2071 70.1666 89.2549 69.9824 89.3549 69.8259C89.4448 69.6857 89.5617 69.5647 89.6988 69.4702C89.836 69.3757 89.9906 69.3095 90.1537 69.2756C90.4245 69.216 90.6999 69.1802 90.9769 69.1684L91.688 69.1148C92.1547 69.0558 92.6259 69.0395 93.0956 69.0661C92.6389 69.1823 92.1727 69.2573 91.7026 69.2902C91.2789 69.3584 90.7285 69.373 90.2122 69.5045C90.0804 69.5322 89.9556 69.5862 89.8451 69.6632C89.7347 69.7402 89.6409 69.8386 89.5692 69.9526C89.4904 70.0605 89.4552 70.1941 89.4705 70.3268C89.4859 70.4595 89.5507 70.5815 89.652 70.6686C89.8971 70.8317 90.1934 70.8992 90.4849 70.8585C90.7967 70.8585 91.1035 70.8585 91.3909 70.8585C91.9046 70.8655 92.4172 70.9078 92.9251 70.9852C93.3959 71.0235 93.8586 71.1302 94.2987 71.3018Z" fill="#995037"/>
<path d="M93.2369 73.6299C93.2369 73.664 92.8326 73.5812 92.1848 73.5277C91.3271 73.4978 90.4764 73.362 89.652 73.1234C89.41 73.0617 89.1724 72.9835 88.9409 72.8896C88.8103 72.8294 88.7027 72.7286 88.6341 72.6022C88.5869 72.486 88.5605 72.3623 88.5561 72.2369C88.5391 72.1174 88.5508 71.9955 88.5902 71.8814C88.622 71.7779 88.6714 71.6807 88.7363 71.594C88.8417 71.4344 88.9774 71.2971 89.1357 71.1897C89.3611 71.035 89.6271 70.9503 89.9004 70.9462C90.0904 70.9462 90.1927 70.9852 90.1878 70.9998C89.8489 71.0274 89.5231 71.1433 89.2429 71.3358C89.1095 71.4365 88.997 71.5623 88.9117 71.706C88.8637 71.7819 88.826 71.8638 88.7997 71.9496C88.7842 72.0382 88.7842 72.1288 88.7997 72.2174C88.8097 72.3127 88.8326 72.4061 88.8679 72.4951C88.9108 72.573 88.9798 72.6333 89.0627 72.6655C89.2826 72.7492 89.507 72.8208 89.7348 72.8799C90.5479 73.1177 91.381 73.2808 92.2238 73.3669C92.5752 73.3887 92.9192 73.478 93.2369 73.6299Z" fill="#995037"/>
<path d="M92.4868 75.9435C91.9905 75.869 91.5016 75.7516 91.0256 75.5928L89.4523 75.1447C89.1262 75.0706 88.8116 74.9526 88.5172 74.794C88.3543 74.6843 88.2259 74.5306 88.147 74.3508C88.1067 74.2524 88.0889 74.1463 88.0948 74.0401C88.1007 73.9339 88.1302 73.8304 88.1811 73.7371C88.2856 73.5733 88.4295 73.4384 88.5997 73.3448C88.7699 73.2512 88.961 73.2018 89.1552 73.2013C89.5059 73.2013 89.8225 73.2013 90.1294 73.2305C90.679 73.2601 91.2259 73.3285 91.7659 73.4351C92.1297 73.5107 92.4865 73.6166 92.8326 73.7517C93.0761 73.8491 93.2028 73.9222 93.193 73.9368C93.1833 73.9514 92.6426 73.7566 91.7318 73.6153C91.198 73.5317 90.6596 73.4796 90.1196 73.4595C89.8128 73.4595 89.4816 73.4302 89.1698 73.4595C89.0168 73.4575 88.8658 73.494 88.7305 73.5654C88.5952 73.6369 88.48 73.7411 88.3954 73.8686C88.3371 73.9991 88.3308 74.1469 88.3779 74.2818C88.425 74.4167 88.5218 74.5285 88.6487 74.5943C88.9194 74.745 89.2095 74.8581 89.5108 74.9304L91.0694 75.4175C91.5564 75.5509 92.0307 75.7269 92.4868 75.9435Z" fill="#995037"/>
<path d="M91.4493 77.3463C91.0215 77.396 90.5884 77.373 90.1683 77.2781C89.7057 77.204 89.2496 77.0933 88.8045 76.9469C88.5132 76.8759 88.2521 76.7138 88.0593 76.4842C87.9609 76.3435 87.9014 76.1793 87.8869 76.0082C87.8723 75.8372 87.9032 75.6653 87.9765 75.51C88.0502 75.3581 88.1621 75.2279 88.3013 75.1323C88.4405 75.0366 88.6022 74.9788 88.7704 74.9645C89.0581 74.9452 89.3469 74.9782 89.6228 75.0619C90.0733 75.1774 90.5172 75.3172 90.9525 75.4808C91.3643 75.607 91.7561 75.7906 92.1166 76.0263C91.7023 75.9225 91.2942 75.7956 90.8941 75.6464C90.519 75.5344 90.0709 75.4029 89.5692 75.286C89.3185 75.2192 89.0587 75.1929 88.7997 75.208C88.6738 75.2217 88.5535 75.2668 88.4497 75.3391C88.3458 75.4115 88.2618 75.5088 88.2054 75.622C88.1506 75.7341 88.127 75.8589 88.1373 75.9832C88.1476 76.1076 88.1913 76.2268 88.2639 76.3283C88.4249 76.5179 88.6412 76.6524 88.8825 76.7131C89.3143 76.8652 89.7551 76.9905 90.2024 77.0881C90.9671 77.2683 91.4542 77.3073 91.4493 77.3463Z" fill="#995037"/>
<path d="M93.4025 68.9639C93.4268 69.0515 92.3163 69.3292 90.933 69.2464C90.7626 69.2464 90.5921 69.222 90.446 69.1977C90.368 69.1977 90.2755 69.1587 90.2122 69.1538H90.1294C90.1102 69.1489 90.0901 69.1489 90.0709 69.1538C89.8699 69.32 89.6548 69.4683 89.428 69.5971C89.2196 69.7361 88.9769 69.8153 88.7266 69.826C88.7266 69.787 88.9701 69.6847 89.3354 69.4412C89.5511 69.2933 89.7562 69.1306 89.9492 68.9541C89.9971 68.9252 90.0499 68.9054 90.105 68.8957H90.2511L90.4801 68.9298C90.6359 68.9541 90.8015 68.9639 90.9671 68.9736C91.6393 69.0077 92.2579 68.9736 92.6962 68.9736C92.9308 68.949 93.1672 68.9457 93.4025 68.9639Z" fill="#995037"/>
<path d="M88.2736 72.1395C88.2395 72.1395 88.3321 71.9544 88.3954 71.6524C88.4681 71.2707 88.5201 70.8854 88.5513 70.4981C88.5843 70.1213 88.5327 69.7419 88.4003 69.3876C88.2931 69.1148 88.1665 68.9736 88.1957 68.9492C88.2249 68.9249 88.3954 69.0271 88.561 69.3048C88.7595 69.6746 88.8442 70.0949 88.8045 70.5127C88.7778 70.9192 88.6976 71.3205 88.5659 71.706C88.4538 72.047 88.298 72.1639 88.2736 72.1395Z" fill="#995037"/>
<path d="M82.8185 69.2804L81.1965 76.5183L82.6772 76.5718L84.7862 69.9039L82.8185 69.2804Z" fill="#161B46"/>
<path d="M85.0744 69.1865L82.1601 68.0132L81.7927 68.9259L84.7069 70.0992L85.0744 69.1865Z" fill="#161B46"/>
<path d="M73.3498 6.16123C72.9305 6.04253 72.5498 5.81558 72.2459 5.50319C71.942 5.1908 71.7256 4.80396 71.6185 4.3815C71.5115 3.95904 71.5174 3.51585 71.6358 3.09641C71.7541 2.67697 71.9808 2.29606 72.2929 1.99192C72.884 1.50305 73.5786 1.15495 74.324 0.973949C74.7998 0.757473 75.3381 0.721127 75.8388 0.871665C76.0986 1.02875 76.3108 1.25369 76.4524 1.5223C76.594 1.79091 76.6597 2.09303 76.6424 2.39619C76.6424 3.00502 76.5061 3.61386 76.5742 4.2227C76.7642 4.03274 77.1246 4.19347 77.1928 4.45162C77.2163 4.58397 77.2022 4.72024 77.1523 4.84504C77.1024 4.96983 77.0186 5.07819 76.9103 5.15787C76.6932 5.31335 76.4653 5.45333 76.2284 5.57675C76.1114 5.64026 76.0081 5.72634 75.9245 5.83C75.8409 5.93366 75.7786 6.05286 75.7414 6.18071" fill="#161B46"/>
<path d="M74.3727 6.95515C74.1323 7.07963 73.8685 7.15262 73.5983 7.16946C73.463 7.17724 73.3286 7.14304 73.2136 7.07155C73.0985 7.00006 73.0083 6.89477 72.9553 6.77007C72.9258 6.65096 72.9308 6.52592 72.9696 6.40952C73.0084 6.29311 73.0795 6.19011 73.1745 6.11252C73.3682 5.95967 73.5925 5.85007 73.8321 5.79106C74.3306 5.63681 74.8403 5.52119 75.3566 5.44524C75.5665 5.3964 75.7848 5.3964 75.9946 5.44524C76.1015 5.4748 76.1959 5.53829 76.2635 5.62614C76.3312 5.71399 76.3684 5.82144 76.3697 5.93231C76.3697 6.19533 76.0921 6.3658 75.8485 6.47782C75.2396 6.75161 74.5952 6.93852 73.9343 7.03308" fill="#45496B"/>
<path d="M68.8688 24.9523C68.276 22.8305 67.867 20.6615 67.6463 18.4695C67.4306 16.266 67.7654 14.0434 68.6204 12.0012C68.7617 11.6943 69.9014 9.66813 70.2277 9.72658C70.4615 9.76554 69.7163 11.6748 69.8186 11.894C70.76 13.988 71.0403 16.3192 70.6223 18.5766C70.2694 20.7647 69.6731 22.9065 68.8445 24.9621" fill="#161B46"/>
<path d="M73.4521 45.2582C70.0427 44.9465 67.5635 40.4898 67.8021 37.0803L69.2633 16.565C69.4777 11.0368 72.8676 6.55574 78.3861 6.92105L78.8732 6.98436C81.3352 7.2927 83.5911 8.51584 85.1928 10.4108C86.7944 12.3058 87.6247 14.7339 87.5187 17.2128C87.3092 22.0007 87.0316 27.2854 86.6663 29.823C85.9406 35.0785 80.5731 35.2392 80.5731 35.2392C80.5731 35.2392 80.4562 36.4618 80.3295 38.0155C80.2627 38.842 80.0329 39.647 79.6533 40.3841C79.2737 41.1213 78.7518 41.7759 78.1178 42.3103C77.4838 42.8447 76.7503 43.2481 75.9595 43.4975C75.1687 43.7468 74.3364 43.837 73.5106 43.7629L73.4521 45.2582Z" fill="#B78876"/>
<path d="M80.5779 35.2392C78.1475 34.9293 75.8569 33.9285 73.9782 32.3558C73.9782 32.3558 75.1715 36.3936 80.4854 36.5786L80.5779 35.2392Z" fill="#995037"/>
<path d="M84.567 20.5541C84.5449 20.7502 84.4469 20.9298 84.294 21.0546C84.141 21.1793 83.9453 21.2392 83.7488 21.2214C83.6521 21.217 83.5573 21.1935 83.4699 21.152C83.3825 21.1105 83.3043 21.0519 83.2399 20.9798C83.1755 20.9076 83.1261 20.8233 83.0947 20.7318C83.0633 20.6403 83.0506 20.5434 83.0571 20.4469C83.0793 20.2508 83.1773 20.0712 83.3302 19.9464C83.4832 19.8217 83.6789 19.7619 83.8754 19.7797C83.9721 19.784 84.0669 19.8076 84.1543 19.8491C84.2416 19.8905 84.3199 19.9491 84.3843 20.0212C84.4487 20.0934 84.4981 20.1777 84.5295 20.2692C84.5609 20.3607 84.5736 20.4576 84.567 20.5541Z" fill="#161B46"/>
<path d="M86.1257 19.2536C86.0234 19.3413 85.5071 18.8493 84.6937 18.7665C83.8803 18.6837 83.2325 18.9954 83.1692 18.8883C83.1058 18.7811 83.2471 18.674 83.5296 18.5181C83.9089 18.3174 84.3416 18.2407 84.7667 18.2989C85.188 18.3475 85.5824 18.5302 85.8919 18.8201C86.1159 19.0295 86.1792 19.2195 86.1257 19.2536Z" fill="#161B46"/>
<path d="M76.5304 19.8673C76.5071 20.0638 76.4081 20.2435 76.2543 20.3681C76.1006 20.4927 75.9043 20.5525 75.7072 20.5346C75.6108 20.5303 75.5162 20.5067 75.4291 20.4651C75.3419 20.4236 75.264 20.365 75.2 20.2927C75.1359 20.2205 75.087 20.1361 75.0562 20.0447C75.0254 19.9532 75.0132 19.8564 75.0205 19.7602C75.0426 19.5641 75.1406 19.3844 75.2936 19.2597C75.4465 19.135 75.6422 19.0751 75.8388 19.0929C75.9354 19.0972 76.0302 19.1208 76.1176 19.1623C76.205 19.2038 76.2832 19.2623 76.3476 19.3345C76.4121 19.4066 76.4614 19.4909 76.4928 19.5824C76.5242 19.6739 76.537 19.7708 76.5304 19.8673Z" fill="#161B46"/>
<path d="M78.1621 18.5912C78.0598 18.6789 77.5386 18.1869 76.7301 18.1041C75.9216 18.0213 75.2689 18.3379 75.2056 18.2259C75.1423 18.1139 75.2835 18.0116 75.566 17.8557C75.9462 17.6575 76.3781 17.5809 76.8032 17.6365C77.224 17.6898 77.6176 17.8738 77.9283 18.1626C78.1523 18.3671 78.2157 18.5522 78.1621 18.5912Z" fill="#161B46"/>
<path d="M80.3101 25.1716C80.753 25.0885 81.205 25.064 81.6544 25.0985C81.8638 25.0985 82.0635 25.0985 82.1414 24.9475C82.1865 24.7366 82.1643 24.5169 82.0781 24.3192L81.6641 22.668C81.0991 20.3252 80.7143 18.4062 80.8069 18.3867C80.8994 18.3672 81.4401 20.2473 82.0099 22.5901C82.1463 23.1697 82.2729 23.7201 82.3947 24.2461C82.4923 24.5118 82.4923 24.8036 82.3947 25.0693C82.3569 25.1393 82.3034 25.1995 82.2383 25.2451C82.1732 25.2908 82.0983 25.3206 82.0197 25.3323C81.9015 25.3443 81.7823 25.3443 81.6641 25.3323C81.2078 25.3354 80.7529 25.2814 80.3101 25.1716Z" fill="#161B46"/>
<path d="M77.8358 25.4297C77.9673 25.4297 77.8601 26.321 78.5323 27.037C79.2044 27.753 80.1542 27.7725 80.1445 27.8991C80.1445 27.9527 79.9155 28.0404 79.521 28.0014C79.0052 27.9451 78.5258 27.7088 78.167 27.3341C77.8271 26.9711 77.6389 26.4919 77.6409 25.9947C77.6507 25.6245 77.7773 25.4199 77.8358 25.4297Z" fill="#161B46"/>
<path d="M78.5274 15.3035C78.4202 15.5129 77.6263 15.3035 76.6619 15.3035C75.6975 15.3035 74.8987 15.4642 74.8013 15.2499C74.7575 15.1476 74.9133 14.9577 75.2494 14.7629C75.6956 14.5532 76.1838 14.4482 76.6767 14.4558C77.1697 14.4634 77.6544 14.5834 78.0939 14.8067C78.4251 15.0064 78.5761 15.2012 78.5274 15.3035Z" fill="#161B46"/>
<path d="M86.1549 16.5212C85.9893 16.6868 85.4535 16.4238 84.7862 16.3312C84.1189 16.2387 83.5344 16.302 83.4273 16.0926C83.3835 15.9903 83.4955 15.8198 83.7634 15.6785C84.1199 15.505 84.5218 15.4471 84.9129 15.5129C85.3031 15.5657 85.6682 15.7356 85.9601 16C86.1549 16.2435 86.2036 16.4432 86.1549 16.5212Z" fill="#161B46"/>
<path d="M69.1903 20.5005C69.1075 20.4518 65.7077 18.976 65.3717 22.5901C65.0356 26.2041 68.7325 25.795 68.7471 25.6927C68.7617 25.5904 69.1903 20.5005 69.1903 20.5005Z" fill="#B78876"/>
<path d="M67.7729 24.2217C67.7729 24.2217 67.7047 24.2607 67.5927 24.2996C67.4322 24.3528 67.2572 24.3405 67.1056 24.2655C66.8867 24.0958 66.7165 23.8714 66.6121 23.6148C66.5078 23.3582 66.4731 23.0786 66.5114 22.8043C66.5329 22.4931 66.6227 22.1904 66.7744 21.9179C66.818 21.8081 66.8879 21.7107 66.9779 21.6343C67.0679 21.5578 67.1753 21.5047 67.2907 21.4795C67.365 21.4681 67.441 21.4827 67.5058 21.5209C67.5706 21.5591 67.6202 21.6184 67.6463 21.6889C67.6852 21.7912 67.6463 21.8643 67.6755 21.8692C67.7047 21.874 67.7583 21.8156 67.7437 21.6646C67.7307 21.5737 67.6878 21.4898 67.6219 21.4259C67.5289 21.3413 67.4067 21.2959 67.281 21.2993C67.1318 21.3145 66.9888 21.3671 66.8654 21.4523C66.7419 21.5374 66.642 21.6523 66.5747 21.7864C66.3921 22.0804 66.285 22.415 66.263 22.7605C66.2143 23.4862 66.526 24.2217 67.0326 24.4019C67.1267 24.4396 67.2281 24.4557 67.3292 24.4489C67.4304 24.4422 67.5288 24.4128 67.617 24.363C67.7583 24.3142 67.7827 24.2266 67.7729 24.2217Z" fill="#995037"/>
<path d="M85.6678 11.027C86.2815 10.7494 84.6937 8.70859 83.3007 7.93415C81.2111 6.77006 77.9429 5.8836 75.8923 6.28299C73.4229 6.77006 71.3139 7.79777 69.9209 9.89217C68.5745 12.0286 67.8198 14.4844 67.7339 17.0082C67.6394 17.774 67.7521 18.5511 68.0603 19.2585C68.4938 20.1011 69.4241 20.6856 69.2877 21.7864C69.2572 21.9848 69.2665 22.1874 69.315 22.3822C69.3635 22.577 69.4503 22.7602 69.5702 22.9212C70.1742 23.6811 71.0314 23.0869 71.4649 22.4342C72.3806 21.085 72.6095 19.4046 72.8141 17.7876C73.0223 16.6459 73.0437 15.4779 72.8774 14.3294C72.7508 13.7108 72.5121 13.1166 72.4195 12.4931C72.354 12.1841 72.3567 11.8645 72.4274 11.5566C72.498 11.2487 72.635 10.96 72.8287 10.7104C72.9254 10.6097 73.0314 10.5184 73.1453 10.4377C73.687 10.0397 74.3247 9.793 74.9932 9.72282C75.6617 9.65263 76.3368 9.76151 76.9493 10.0383C78.8976 10.9296 82.307 12.2983 83.2812 11.6846C83.9667 11.3102 84.5658 10.7957 85.0395 10.1747L85.6678 11.027Z" fill="#161B46"/>
<path d="M81.3913 6.95518C81.3913 6.95518 81.6446 7.14027 81.971 7.52505C82.4115 8.02269 82.7595 8.59507 82.9987 9.21518C83.2378 9.84914 83.2752 10.5415 83.1058 11.1975C82.9597 11.6846 82.7308 11.9379 82.7113 11.9184C82.6918 11.8989 82.8379 11.631 82.9305 11.1537C83.0376 10.5325 82.9788 9.89404 82.76 9.30285C82.5233 8.70817 82.2106 8.14662 81.8297 7.63221C81.653 7.42788 81.5055 7.20003 81.3913 6.95518Z" fill="#45496B"/>
<path d="M83.7536 8.89368C83.7829 8.89368 83.8803 9.06416 83.9387 9.38075C84.0008 9.80164 83.9675 10.2311 83.8413 10.6374C83.7126 11.0448 83.4908 11.4167 83.1935 11.7236C82.9646 11.9525 82.7844 12.0401 82.7649 12.0158C83.1112 11.5712 83.3917 11.0791 83.5978 10.5546C83.7295 10.0114 83.782 9.45194 83.7536 8.89368Z" fill="#45496B"/>
<path d="M72.7556 5.40622C72.7556 5.40622 72.6339 5.34777 72.4877 5.17243C72.2358 4.84841 72.0926 4.4531 72.0786 4.04288C72.0646 3.63267 72.1805 3.22851 72.4098 2.88808C72.5822 2.63729 72.8087 2.42834 73.0725 2.27662C73.3364 2.12489 73.6309 2.03425 73.9343 2.01135C74.0238 2.00396 74.1137 2.01627 74.1979 2.0474C74.282 2.07854 74.3583 2.12775 74.4214 2.19157C74.522 2.33274 74.5655 2.50673 74.5432 2.67864C74.5218 2.95657 74.4844 3.23304 74.4311 3.50665C74.3436 3.97079 74.2082 4.42457 74.0269 4.8607C73.8815 5.2707 73.6619 5.65044 73.3791 5.98096C73.345 5.95661 73.5934 5.53286 73.8661 4.79251C74.0173 4.35976 74.1314 3.91492 74.2071 3.46282C74.2516 3.19668 74.2825 2.92844 74.2996 2.65916C74.3163 2.5479 74.2939 2.43432 74.2363 2.33769C74.1941 2.30072 74.1444 2.27332 74.0906 2.25735C74.0368 2.24138 73.9802 2.23721 73.9246 2.24515C73.6587 2.26626 73.4006 2.3452 73.1684 2.47645C72.9362 2.60769 72.7355 2.78807 72.5803 3.00497C72.3192 3.36308 72.2042 3.80718 72.2588 4.247C72.3262 4.66848 72.4969 5.06673 72.7556 5.40622Z" fill="#45496B"/>
<path d="M57.6906 35.8091C58.1338 35.624 62.5613 33.9485 64.1686 33.5442C65.7759 33.1399 68.1528 32.8331 68.1528 32.8331C68.1528 32.8331 74.2509 36.6322 75.4589 37.3092C76.6668 37.9863 80.3295 38.1957 80.3295 38.1957C80.3295 38.1957 80.3295 44.8832 79.9399 47.3185C78.8472 53.8487 77.3572 60.3063 75.4783 66.6551C72.7751 75.7195 71.0168 78.4227 71.0168 78.4227C71.0168 78.4227 71.3918 82.3192 70.257 84.7546C69.1221 87.1899 67.768 89.6253 67.768 89.6253L66.2825 90.7066C66.2825 90.7066 61.4118 88.6755 56.9503 90.7066C52.4887 92.7376 41.5248 96.9508 39.0895 96.4004C36.6541 95.85 37.7354 93.4244 38.276 91.1254C38.8167 88.8265 43.551 80.8483 43.551 80.8483L44.0917 78.0087L45.134 76.9664L49.1085 52.6714C49.1085 52.6714 56.546 36.2767 57.6906 35.8091Z" fill="#0064A7"/>
<path d="M54.4662 51.3222C54.4662 51.3222 56.4145 58.2337 61.1098 58.9936C65.2255 59.6608 67.3102 58.5065 68.3038 55.8714C69.2974 53.2364 70.1255 41.5711 70.1255 41.5711C70.1255 41.5711 70.2375 37.2703 68.9175 36.3984C67.5976 35.5266 54.4662 51.3222 54.4662 51.3222Z" fill="#B78876"/>
<path d="M47.1894 79.051C47.1894 79.051 47.6765 82.29 48.4217 83.045C48.4217 83.045 54.0717 89.5571 54.3444 89.8299C54.6172 90.1026 55.5378 90.5799 56.0151 90.3169C56.171 90.1927 56.2998 90.0378 56.3936 89.8619C56.4874 89.686 56.5442 89.4928 56.5606 89.2941C56.5606 89.2941 58.0218 90.2682 58.6745 89.9078C58.8491 89.8212 58.9886 89.677 59.0693 89.4995C59.15 89.3221 59.1671 89.1222 59.1177 88.9337C59.1177 88.9337 60.2428 89.5133 60.9588 88.8314C61.1736 88.5927 61.3358 88.3115 61.4348 88.006C61.5338 87.7006 61.5675 87.3777 61.5336 87.0584C61.5336 87.0584 62.5077 87.8085 63.0678 87.1948C63.4574 86.6913 63.7047 86.0925 63.7838 85.4609L62.9656 83.9996C62.9656 83.9996 60.652 80.7947 59.936 79.9083C59.22 79.0218 57.5006 78.3058 56.2537 77.8967C55.0068 77.4875 52.0893 74.2388 52.0893 74.2388L47.1894 79.051Z" fill="#B78876"/>
<path d="M66.8864 35.2148C64.2889 34.2072 61.4011 34.2509 58.8352 35.3366C54.7633 37.0072 47.8713 39.8371 46.8825 40.2073C45.4652 40.7528 30.4099 45.6624 28.5542 51.7703C28.5542 51.7703 27.6092 53.6504 28.5542 55.1505C29.9131 57.3131 33.9119 66.7184 40.2438 72.0616L47.1894 79.051L52.1624 74.3459C52.1624 74.3459 46.2542 63.6645 44.5105 59.5195C42.7668 55.3746 41.8414 54.4005 41.8414 54.4005C41.8414 54.4005 47.9541 52.9782 51.8799 51.9992C55.8056 51.0202 60.7153 49.4908 60.7153 49.4908C60.7153 49.4908 67.5878 46.9824 68.898 45.0147C70.2083 43.0469 71.0801 38.3613 68.898 36.3984C68.3005 35.8912 67.62 35.4908 66.8864 35.2148Z" fill="#B78876"/>
<path d="M37.5649 44.0697C37.5649 44.0697 42.6743 51.254 43.1419 52.837L43.6046 54.4345C43.7106 54.6062 43.8736 54.7349 44.0652 54.7982C44.2567 54.8614 44.4644 54.8551 44.6518 54.7804C45.2898 54.493 48.7188 53.2704 48.7188 53.2704C48.7188 53.2704 49.4591 50.7864 47.8421 47.7568C46.603 45.5435 45.2302 43.4078 43.7312 41.3616C42.5534 41.1976 41.3532 41.364 40.2644 41.8421C39.1756 42.3203 38.2411 43.0915 37.5649 44.0697Z" fill="#161B46"/>
<path d="M36.4398 53.5968C37.3979 53.3404 38.3977 53.279 39.3799 53.4162C40.3622 53.5535 41.3069 53.8865 42.158 54.3956C41.2398 54.0854 40.3006 53.8412 39.3476 53.665C38.381 53.5769 37.4095 53.5541 36.4398 53.5968Z" fill="#995037"/>
<path d="M62.0109 50.7816C61.6574 50.5961 61.283 50.4539 60.8955 50.3578C60.4717 50.2776 60.038 50.2628 59.6097 50.314C59.0801 50.3766 58.5547 50.471 58.0364 50.5965C56.9113 50.8498 55.8933 51.0592 55.153 51.2005C54.7578 51.302 54.3528 51.3608 53.945 51.3758C54.3234 51.2193 54.7167 51.1018 55.1189 51.0251C55.8446 50.84 56.8577 50.6014 57.978 50.353C58.5077 50.2216 59.0467 50.1304 59.5902 50.0802C60.0408 50.041 60.4949 50.0755 60.9345 50.1825C61.3503 50.256 61.7293 50.467 62.0109 50.7816Z" fill="#995037"/>
<path d="M66.7988 37.0413C67.0357 37.3635 67.229 37.7157 67.3735 38.0885C67.8116 38.9652 68.0179 39.9394 67.9726 40.9184C67.9128 41.4545 67.7766 41.9794 67.5683 42.477C67.4136 42.8846 67.2195 43.2761 66.9887 43.646C66.5845 44.2841 66.1656 44.5325 66.151 44.5032C66.4031 44.2041 66.6327 43.8866 66.8377 43.5534C67.0383 43.181 67.2093 42.7934 67.3492 42.3942C67.5374 41.9141 67.6618 41.4114 67.7193 40.8989C67.7648 39.9599 67.5984 39.0227 67.2323 38.1567C67.0576 37.7974 66.9127 37.4243 66.7988 37.0413Z" fill="#995037"/>
<path d="M34.7692 47.2065L38.1445 52.5009C38.2279 52.6302 38.3554 52.7247 38.5032 52.7668C38.6511 52.8089 38.8093 52.7958 38.9482 52.7298L50.8765 46.9191C50.9562 46.8806 51.0268 46.8258 51.0839 46.7581C51.1409 46.6904 51.1829 46.6114 51.2073 46.5264C51.2317 46.4413 51.2378 46.352 51.2253 46.2644C51.2128 46.1768 51.1819 46.0929 51.1347 46.018L47.7544 40.7236C47.6727 40.5939 47.5457 40.4992 47.3981 40.4578C47.2506 40.4164 47.0928 40.4313 46.9556 40.4996L35.0127 46.3103C34.9349 46.3502 34.8663 46.4058 34.8113 46.4737C34.7562 46.5416 34.716 46.6203 34.693 46.7046C34.6701 46.789 34.6651 46.8772 34.6782 46.9636C34.6913 47.05 34.7223 47.1327 34.7692 47.2065Z" fill="#161B46"/>
<path d="M38.9385 51.5316L36.1135 47.0604L46.9605 41.4834L49.917 46.1203L38.9385 51.5316Z" fill="#45496B"/>
<path d="M45.9912 42.8229C45.7442 43.1966 45.4638 43.5471 45.1535 43.8701C44.5641 44.5666 43.8579 45.4044 43.0688 46.3298L41.028 48.8236C40.7635 49.1858 40.4686 49.5247 40.1464 49.8367C40.3542 49.4385 40.6005 49.0617 40.8819 48.7116C41.3689 48.0443 42.0654 47.1383 42.874 46.1691C43.6825 45.1998 44.4521 44.3474 45.0219 43.7337C45.3123 43.3971 45.6372 43.0918 45.9912 42.8229Z" fill="white"/>
<path d="M42.4356 44.8637C42.4941 44.9027 42.2505 45.3508 41.895 45.8379C41.5394 46.3249 41.2033 46.7097 41.1449 46.6659C41.0864 46.622 41.33 46.1788 41.6855 45.6917C42.0411 45.2047 42.382 44.8199 42.4356 44.8637Z" fill="white"/>
<path d="M71.6208 167.892L71.3431 168.579C71.3431 168.579 81.0066 178.033 80.2175 180.269L57.2522 170.62L61.6066 163.475C64.3586 166.504 67.0228 167.819 71.6208 167.892Z" fill="#161B46"/>
<path d="M57.2522 170.635L58.2994 168.92L79.823 178.715C79.823 178.715 80.6607 179.592 80.2419 180.264L57.2522 170.635Z" fill="#D0D1DA"/>
<path d="M71.3967 168.676C71.3431 168.784 70.7635 168.599 70.0573 168.73C69.351 168.862 68.8639 169.217 68.7811 169.12C68.6983 169.022 69.1367 168.452 69.9891 168.311C70.8415 168.17 71.4649 168.584 71.3967 168.676Z" fill="#D0D1DA"/>
<path d="M73.3839 170.683C73.3839 170.805 72.7995 170.79 72.2199 171.102C71.6402 171.414 71.3188 171.872 71.2116 171.823C71.1045 171.774 71.2944 171.107 72.025 170.727C72.7556 170.347 73.4278 170.576 73.3839 170.683Z" fill="#D0D1DA"/>
<path d="M73.5447 174.141C73.4327 174.141 73.5106 173.498 74.0561 173.002C74.6016 172.505 75.2299 172.485 75.2397 172.597C75.2494 172.709 74.7818 172.904 74.3435 173.318C73.9051 173.732 73.6567 174.175 73.5447 174.141Z" fill="#D0D1DA"/>
<path d="M71.5428 168.676C71.5752 168.631 71.6014 168.582 71.6208 168.53C71.6845 168.387 71.7366 168.239 71.7766 168.087C71.9261 167.52 71.9345 166.924 71.801 166.353C71.7574 166.164 71.6988 165.978 71.6256 165.798C71.5509 165.593 71.4422 165.402 71.3042 165.233C71.2256 165.14 71.1275 165.065 71.0168 165.014C70.9536 164.987 70.8857 164.974 70.8171 164.974C70.7485 164.974 70.6806 164.987 70.6174 165.014C70.4983 165.078 70.3985 165.173 70.3283 165.288C70.2581 165.404 70.22 165.536 70.218 165.671C70.1934 166.192 70.2763 166.713 70.4615 167.201C70.6363 167.742 70.9772 168.214 71.4357 168.55C71.6862 168.708 71.977 168.791 72.2734 168.789C72.5472 168.788 72.82 168.757 73.0868 168.696C73.5953 168.607 74.0878 168.443 74.548 168.209C74.6634 168.143 74.7615 168.051 74.8343 167.94C74.9072 167.829 74.9526 167.703 74.9669 167.571C74.9789 167.435 74.9408 167.3 74.8598 167.191C74.7788 167.09 74.668 167.016 74.5432 166.981C74.3251 166.924 74.0941 166.939 73.8856 167.025C73.7032 167.091 73.5244 167.165 73.3498 167.249C72.8171 167.5 72.3246 167.828 71.8886 168.224C71.7707 168.328 71.6586 168.438 71.5526 168.555C71.4844 168.638 71.4503 168.681 71.4551 168.686C71.46 168.691 71.6256 168.54 71.9422 168.287C72.3899 167.931 72.8809 167.633 73.4034 167.4C73.7284 167.21 74.1049 167.127 74.4798 167.162C74.5673 167.184 74.6438 167.238 74.6956 167.312C74.7474 167.386 74.771 167.476 74.7623 167.566C74.7499 167.668 74.7134 167.765 74.6558 167.85C74.5982 167.934 74.5212 168.004 74.4311 168.053C73.9927 168.272 73.5253 168.428 73.043 168.516C72.7991 168.595 72.5419 168.626 72.2861 168.606C72.0303 168.586 71.7811 168.516 71.5526 168.399C71.1364 168.086 70.8269 167.652 70.6661 167.157C70.4917 166.702 70.4105 166.217 70.4274 165.73C70.4263 165.632 70.4504 165.536 70.4973 165.451C70.5443 165.366 70.6125 165.294 70.6953 165.243C70.785 165.215 70.8813 165.218 70.9693 165.251C71.0572 165.283 71.1321 165.344 71.1824 165.423C71.3084 165.567 71.4089 165.732 71.4795 165.91C71.5555 166.08 71.6174 166.256 71.6646 166.436C71.804 166.986 71.819 167.56 71.7084 168.116C71.6305 168.487 71.5428 168.667 71.5428 168.676Z" fill="#D0D1DA"/>
<path d="M62.5467 167.473C62.498 167.532 63.3893 168.297 64.3488 169.353C64.5924 169.617 64.7872 169.884 64.9966 170.133C65.178 170.362 65.424 170.532 65.7029 170.62C65.8979 170.68 66.1082 170.664 66.2922 170.576C66.4189 170.503 66.4578 170.43 66.4481 170.425C66.3409 170.479 66.224 170.51 66.1043 170.518C65.9846 170.526 65.8647 170.509 65.7516 170.469C65.5096 170.367 65.3017 170.198 65.1525 169.982C64.9674 169.743 64.758 169.456 64.5144 169.188C64.1007 168.728 63.6529 168.3 63.175 167.907C62.9869 167.734 62.7754 167.588 62.5467 167.473Z" fill="#D0D1DA"/>
<path d="M15.4374 172.821L14.9942 173.416C14.9942 173.416 21.9446 185.008 20.6149 186.985L0.839966 171.833L6.15388 165.457C8.04858 169.071 11.01 171.584 15.4374 172.821Z" fill="#161B46"/>
<path d="M0.839966 171.833L2.12096 170.298L20.6003 185.398C20.6003 185.398 21.1897 186.454 20.6003 187L0.839966 171.833Z" fill="#D0D1DA"/>
<path d="M15.0429 173.523C14.9698 173.615 14.4535 173.289 13.7375 173.235C13.0216 173.182 12.4614 173.396 12.403 173.289C12.3445 173.182 12.9144 172.734 13.7765 172.802C14.6386 172.87 15.1111 173.45 15.0429 173.523Z" fill="#D0D1DA"/>
<path d="M16.4359 175.968C16.3872 176.08 15.8417 175.924 15.2036 176.08C14.5656 176.236 14.1369 176.596 14.0444 176.518C13.9519 176.44 14.3074 175.846 15.1062 175.666C15.905 175.486 16.5041 175.875 16.4359 175.968Z" fill="#D0D1DA"/>
<path d="M15.7102 179.353C15.6079 179.309 15.8465 178.72 16.4992 178.379C17.1519 178.038 17.7656 178.174 17.7412 178.286C17.7169 178.398 17.2249 178.467 16.694 178.773C16.1631 179.08 15.8173 179.416 15.7102 179.353Z" fill="#D0D1DA"/>
<path d="M15.1744 173.562C15.1744 173.562 15.2182 173.528 15.2913 173.445C15.3897 173.321 15.4777 173.189 15.5543 173.05C15.8405 172.539 15.9993 171.966 16.017 171.38C16.0191 171.186 16.0093 170.993 15.9878 170.8C15.9671 170.584 15.9094 170.373 15.8173 170.177C15.7681 170.065 15.693 169.966 15.5981 169.889C15.5451 169.845 15.4837 169.812 15.4176 169.792C15.3515 169.772 15.2821 169.765 15.2134 169.772C15.0814 169.803 14.9603 169.869 14.8632 169.963C14.7662 170.058 14.6969 170.177 14.663 170.308C14.5055 170.805 14.4524 171.329 14.5071 171.847C14.5373 172.415 14.7451 172.958 15.1013 173.401C15.3063 173.614 15.5656 173.768 15.8514 173.844C16.1159 173.912 16.3871 173.949 16.66 173.956C17.176 173.994 17.6947 173.954 18.1991 173.839C18.3273 173.804 18.4454 173.739 18.5436 173.649C18.6418 173.559 18.7173 173.448 18.7641 173.323C18.8128 173.196 18.8128 173.056 18.7641 172.929C18.7129 172.811 18.626 172.712 18.5157 172.646C18.3167 172.537 18.088 172.494 17.863 172.524C17.67 172.541 17.4781 172.569 17.2883 172.607C16.7177 172.713 16.1662 172.904 15.6517 173.172C15.5113 173.243 15.3747 173.321 15.2426 173.406C15.1549 173.469 15.1111 173.503 15.1159 173.508C15.3118 173.432 15.5037 173.346 15.6907 173.25C16.2092 173.017 16.7562 172.853 17.3175 172.763C17.6797 172.66 18.0654 172.675 18.4183 172.807C18.4967 172.85 18.557 172.92 18.5883 173.004C18.6195 173.088 18.6197 173.181 18.5887 173.265C18.5504 173.359 18.4902 173.443 18.4132 173.51C18.3362 173.577 18.2445 173.625 18.1455 173.649C17.6653 173.75 17.1735 173.782 16.6843 173.747C16.1679 173.775 15.6608 173.601 15.2718 173.26C14.9489 172.851 14.76 172.353 14.7312 171.833C14.6745 171.342 14.7193 170.844 14.8627 170.371C14.9357 170.167 15.0721 169.977 15.2474 169.957C15.3391 169.956 15.4287 169.984 15.5038 170.036C15.579 170.089 15.6358 170.163 15.6663 170.25C15.7498 170.428 15.8041 170.619 15.8271 170.815C15.8542 170.999 15.8673 171.184 15.866 171.37C15.8657 171.936 15.7358 172.494 15.4861 173.002C15.301 173.357 15.1598 173.552 15.1744 173.562Z" fill="#D0D1DA"/>
<path d="M6.76272 170.118C6.69453 170.162 7.36669 171.126 8.0291 172.393C8.19471 172.709 8.31647 173.021 8.45772 173.308C8.57093 173.582 8.76457 173.815 9.01297 173.976C9.18594 174.083 9.39341 174.119 9.59259 174.078C9.73384 174.044 9.78741 173.981 9.78254 173.971C9.6655 173.998 9.54415 174.001 9.42601 173.979C9.30787 173.957 9.19547 173.911 9.09578 173.844C8.89079 173.681 8.73282 173.465 8.63794 173.221C8.52104 172.943 8.3944 172.612 8.22393 172.291C7.94129 171.74 7.61556 171.212 7.24979 170.712C7.11628 170.492 6.9523 170.292 6.76272 170.118Z" fill="#D0D1DA"/>
</svg>
