<svg width="16" height="16" viewBox="0 0 16 16" fill="none" xmlns="http://www.w3.org/2000/svg">
<g clip-path="url(#clip0_0_159)">
<path d="M5.99992 2H9.99992L11.3333 3.33333H13.9999C14.1767 3.33333 14.3463 3.40357 14.4713 3.5286C14.5963 3.65362 14.6666 3.82319 14.6666 4V13.3333C14.6666 13.5101 14.5963 13.6797 14.4713 13.8047C14.3463 13.9298 14.1767 14 13.9999 14H1.99992C1.82311 14 1.65354 13.9298 1.52851 13.8047C1.40349 13.6797 1.33325 13.5101 1.33325 13.3333V4C1.33325 3.82319 1.40349 3.65362 1.52851 3.5286C1.65354 3.40357 1.82311 3.33333 1.99992 3.33333H4.66659L5.99992 2ZM7.99992 12.6667C9.06078 12.6667 10.0782 12.2452 10.8283 11.4951C11.5785 10.7449 11.9999 9.72753 11.9999 8.66667C11.9999 7.6058 11.5785 6.58839 10.8283 5.83824C10.0782 5.08809 9.06078 4.66667 7.99992 4.66667C6.93905 4.66667 5.92164 5.08809 5.17149 5.83824C4.42135 6.58839 3.99992 7.6058 3.99992 8.66667C3.99992 9.72753 4.42135 10.7449 5.17149 11.4951C5.92164 12.2452 6.93905 12.6667 7.99992 12.6667ZM7.99992 11.3333C7.29268 11.3333 6.6144 11.0524 6.1143 10.5523C5.6142 10.0522 5.33325 9.37391 5.33325 8.66667C5.33325 7.95942 5.6142 7.28115 6.1143 6.78105C6.6144 6.28095 7.29268 6 7.99992 6C8.70716 6 9.38544 6.28095 9.88554 6.78105C10.3856 7.28115 10.6666 7.95942 10.6666 8.66667C10.6666 9.37391 10.3856 10.0522 9.88554 10.5523C9.38544 11.0524 8.70716 11.3333 7.99992 11.3333Z" fill="white"/>
</g>
<defs>
<clipPath id="clip0_0_159">
<rect width="16" height="16" fill="white"/>
</clipPath>
</defs>
</svg>
