<svg width="80" height="80" viewBox="0 0 80 80" fill="none" xmlns="http://www.w3.org/2000/svg">
<ellipse cx="39.4525" cy="75.4385" rx="7.94864" ry="1.75439" fill="#F4F5FB"/>
<path d="M68.1204 14.4078L67.7374 13.7678C64.5037 8.3598 58.6586 5.099 52.4953 5.4942C51.7005 5.54486 50.9105 5.65448 50.1314 5.8222C44.5259 7.0398 39.6564 11.3406 37.6361 16.851C36.4479 20.091 36.1153 23.8222 33.8539 26.395C30.918 29.7422 25.935 29.8478 21.5524 29.7086C17.1698 29.5694 12.1837 29.6878 9.26038 33.0494C7.44021 35.1534 6.86185 38.147 7.00526 40.9598C7.39608 48.4222 12.5209 55.0942 19.031 58.411C25.541 61.7278 33.2141 62.0254 40.3435 60.5662C50.33 58.5214 59.8264 52.9086 65.5343 44.2462C71.2422 35.5838 72.6873 23.7662 68.1204 14.4078Z" fill="#F4F5FB"/>
<path d="M39.2679 12.9939C39.2219 12.86 39.1462 12.7386 39.0468 12.639C38.9474 12.5395 38.8268 12.4644 38.6943 12.4195C38.5809 12.404 38.4757 12.3512 38.3949 12.2691C38.3593 12.1946 38.3364 12.1145 38.3271 12.0323C38.3081 11.9724 38.2775 11.917 38.237 11.8694C38.1965 11.8218 38.147 11.783 38.0914 11.7552C38.0358 11.7275 37.9753 11.7113 37.9135 11.7078C37.8516 11.7043 37.7897 11.7134 37.7314 11.7347C37.6781 11.7653 37.62 11.7864 37.5596 11.7971C37.3106 11.8115 37.2634 11.3267 37.0144 11.3427C37.0896 11.4191 37.1393 11.5176 37.1562 11.6243C37.1636 11.6772 37.1533 11.7312 37.1271 11.7776C37.1008 11.824 37.06 11.8601 37.0112 11.8803C36.748 11.9603 36.6094 11.4435 36.3383 11.4851C36.1933 11.5075 36.0893 11.6931 35.9443 11.6643C35.8871 11.6469 35.8336 11.6187 35.7867 11.5811C35.7026 11.534 35.604 11.5213 35.5109 11.5453C35.4179 11.5694 35.3373 11.6285 35.2856 11.7107C35.2021 11.8547 35.1926 12.0739 35.0366 12.1219C34.9863 12.1291 34.9352 12.1252 34.8865 12.1106C34.8378 12.0959 34.7928 12.0709 34.7545 12.0371C34.6932 12.1768 34.6646 12.329 34.671 12.4819C34.5185 12.5015 34.3794 12.5806 34.2833 12.7024C34.1871 12.8243 34.1414 12.9792 34.1557 13.1347C33.9928 13.1628 33.837 13.2231 33.6971 13.3123C33.6281 13.358 33.5731 13.4223 33.5383 13.4981C33.5035 13.5739 33.4902 13.6581 33.5001 13.7411C33.5106 13.7775 33.5164 13.8151 33.5174 13.8531C33.5118 13.8938 33.4948 13.9321 33.4686 13.9635C33.3621 14.0798 33.269 14.2081 33.1912 14.3459C33.1555 14.4162 33.148 14.4978 33.1703 14.5736C33.1927 14.6494 33.2431 14.7134 33.311 14.7523C33.3457 14.7651 33.3866 14.7715 33.4071 14.8019C33.4126 14.8147 33.4155 14.8286 33.4155 14.8427C33.4155 14.8567 33.4126 14.8706 33.4071 14.8835C33.3707 14.9911 33.3175 15.0921 33.2495 15.1827C33.1807 15.2739 33.1486 15.3883 33.1597 15.5027C33.1818 15.6147 33.3063 15.7091 33.4071 15.6627L33.0683 16.0867C33.0005 16.1715 32.9296 16.2771 32.9659 16.3795C33.0147 16.5123 33.2086 16.5155 33.3268 16.4387C33.4449 16.3619 33.5237 16.2339 33.6419 16.1603C33.6933 16.1352 33.7419 16.1046 33.7869 16.0691C33.82 16.0371 33.8468 15.9939 33.8893 15.9811C33.9776 15.9587 34.0343 16.0947 33.9886 16.1731C33.9307 16.2464 33.8537 16.3018 33.7664 16.3331C33.6861 16.3731 33.6088 16.4467 33.6088 16.5379C33.6088 16.5827 33.6388 16.6211 33.6419 16.6659C33.6545 16.8259 33.4245 16.8563 33.3409 16.9859C33.3189 17.0365 33.3083 17.0916 33.3099 17.147C33.3116 17.2023 33.3254 17.2566 33.3504 17.3059C33.3977 17.4355 33.5348 17.5875 33.6419 17.4995C33.6782 17.4691 33.6939 17.4195 33.727 17.3843C33.7707 17.3494 33.8221 17.3258 33.8767 17.3155C34.0092 17.2726 34.1264 17.1914 34.214 17.0819C34.0564 17.1651 33.861 17.2867 33.8673 17.4723C33.8772 17.5494 33.899 17.6245 33.9319 17.6947C33.9823 17.8387 33.9823 17.9955 34.0296 18.1411C34.0466 18.2147 34.0864 18.2808 34.1431 18.3297C34.1998 18.3787 34.2705 18.4079 34.3448 18.4131C34.2939 18.4706 34.2635 18.544 34.2587 18.6212C34.2539 18.6984 34.2749 18.775 34.3182 18.8387C34.3616 18.9023 34.4248 18.9492 34.4977 18.9719C34.5706 18.9945 34.6488 18.9916 34.7199 18.9635C34.7557 18.9428 34.7954 18.9303 34.8365 18.9267C34.8812 18.9341 34.9229 18.9547 34.9562 18.9859C35.0673 19.0622 35.1968 19.1062 35.3307 19.113C35.4647 19.1197 35.5979 19.089 35.7158 19.0243L35.615 18.9235C35.8624 19.0238 36.1297 19.0633 36.395 19.0387C36.6566 18.9939 36.9104 18.7779 36.9072 18.5075C36.9072 18.3907 36.8647 18.2531 36.9482 18.1731C36.9807 18.1498 37.0178 18.1337 37.0569 18.126C37.096 18.1183 37.1363 18.119 37.1751 18.1283L38.1664 18.2211C38.3249 18.2507 38.4884 18.2358 38.6391 18.1779C38.6758 18.1617 38.7089 18.1384 38.7366 18.1092C38.7644 18.08 38.7862 18.0456 38.8008 18.0078C38.8155 17.9701 38.8226 17.9298 38.8219 17.8892C38.8212 17.8487 38.8127 17.8087 38.7967 17.7715C38.925 17.6686 39.0788 17.6038 39.2411 17.5843C39.4223 17.5651 39.6052 17.6035 39.7864 17.5843C39.8778 17.5863 39.968 17.5623 40.0468 17.5151C40.1256 17.4679 40.1899 17.3993 40.2324 17.3171C40.2986 17.1459 40.1284 16.9091 39.9597 16.9779C40.0968 16.7363 40.5475 16.9267 40.6988 16.6947C40.8218 16.5043 40.6137 16.2787 40.5523 16.0547C40.6106 15.9971 40.702 15.9843 40.7634 15.9283C40.8911 15.8099 40.8076 15.5939 40.6973 15.4579C40.5869 15.3219 40.4451 15.1747 40.4814 15.0035C40.5176 14.8323 40.7335 14.7107 40.713 14.5331C40.7042 14.4852 40.6782 14.4423 40.6401 14.4128C40.602 14.3832 40.5544 14.3691 40.5066 14.3731C40.5239 14.0275 39.8857 13.9955 39.8494 13.6515C39.846 13.6245 39.851 13.5971 39.8636 13.5731C39.8772 13.5536 39.8957 13.5381 39.9172 13.5283C40.0192 13.4918 40.1249 13.4672 40.2324 13.4547C40.3395 13.4291 40.453 13.3555 40.4609 13.2451C40.4688 13.1347 40.2891 13.0531 40.245 13.1555C40.2279 13.1223 40.2036 13.0935 40.1739 13.0713C40.1443 13.049 40.1101 13.0338 40.0738 13.0269C40.0376 13.02 40.0003 13.0215 39.9647 13.0313C39.9291 13.0411 39.8962 13.0589 39.8683 13.0835C39.8456 13.028 39.8051 12.9819 39.7532 12.9529C39.7014 12.9238 39.6415 12.9134 39.5831 12.9235C39.465 12.9459 39.3538 12.9964 39.2585 13.0707" fill="#2D3259"/>
<path d="M37.2767 12.1089C37.2767 12.1089 37.2956 12.1201 37.324 12.1457C37.3636 12.1844 37.3915 12.2338 37.4044 12.2881C37.4241 12.3728 37.4152 12.4619 37.3792 12.5409C37.3288 12.6431 37.2634 12.737 37.1853 12.8193L37.1711 12.8353L37.1901 12.8449C37.3274 12.9127 37.4384 13.0254 37.5052 13.1649C37.5448 13.2405 37.5663 13.3245 37.5679 13.4101C37.5695 13.4958 37.5513 13.5806 37.5147 13.6577C37.4828 13.7287 37.4352 13.7914 37.3756 13.8408C37.3161 13.8902 37.2461 13.925 37.1711 13.9425L37.1191 13.9521L37.1664 13.9761C37.2431 14.017 37.3106 14.0734 37.3649 14.142C37.4191 14.2105 37.4588 14.2897 37.4816 14.3745C37.5177 14.5113 37.506 14.6566 37.4485 14.7857C37.4116 14.8705 37.358 14.9467 37.2909 15.0097C37.2421 15.0529 37.2121 15.0705 37.2137 15.0737L37.2373 15.0625C37.2586 15.0493 37.2791 15.0349 37.2988 15.0193C37.3716 14.9584 37.4303 14.8819 37.4706 14.7953C37.5337 14.6618 37.5493 14.5103 37.5147 14.3665C37.4916 14.2766 37.4502 14.1925 37.3932 14.1198C37.3362 14.0471 37.2649 13.9872 37.1838 13.9441V13.9777C37.2643 13.9597 37.3396 13.9231 37.4039 13.8706C37.4681 13.8181 37.5195 13.7513 37.5541 13.6753C37.5952 13.5909 37.6147 13.4974 37.6108 13.4033C37.6064 13.3145 37.5833 13.2278 37.5431 13.1489C37.4696 13.0076 37.3521 12.8951 37.209 12.8289V12.8529C37.288 12.7675 37.3529 12.6697 37.4012 12.5633C37.4376 12.4791 37.4448 12.3849 37.4217 12.2961C37.4068 12.2391 37.3749 12.1882 37.3303 12.1505L37.2909 12.1265L37.2767 12.1089Z" fill="#5C5F7E"/>
<path d="M34.125 13.4771L34.1376 13.4963C34.1471 13.5091 34.1597 13.5283 34.1786 13.5507C34.2352 13.6126 34.2999 13.6665 34.3708 13.7107C34.4816 13.7801 34.6048 13.8269 34.7333 13.8483C34.8977 13.8763 35.0665 13.8587 35.2218 13.7971L35.1982 13.7827C35.2048 13.8992 35.2364 14.0129 35.2908 14.1157C35.3453 14.2185 35.4212 14.308 35.5134 14.3779C35.6136 14.4514 35.7341 14.491 35.8577 14.491C35.9813 14.491 36.1018 14.4514 36.202 14.3779L36.1737 14.3619C36.1632 14.4488 36.1751 14.537 36.2083 14.6179C36.2393 14.6896 36.2819 14.7556 36.3344 14.8131C36.4236 14.9045 36.5311 14.9754 36.6496 15.0211C36.7245 15.0519 36.8014 15.0775 36.8797 15.0979C36.9075 15.1065 36.936 15.1129 36.9648 15.1171C36.9387 15.1038 36.9112 15.0936 36.8828 15.0867C36.8062 15.0627 36.731 15.0344 36.6575 15.0019C36.5449 14.9537 36.4431 14.8829 36.3581 14.7939C36.3048 14.7375 36.264 14.6702 36.2384 14.5965C36.2129 14.5229 36.2031 14.4445 36.2099 14.3667V14.3234L36.1768 14.3507C36.0824 14.4187 35.9695 14.4553 35.8538 14.4553C35.738 14.4553 35.6251 14.4187 35.5307 14.3507C35.4427 14.2841 35.3701 14.1987 35.3181 14.1006C35.2661 14.0025 35.2359 13.8939 35.2297 13.7827V13.7603L35.2076 13.7698C35.0576 13.8303 34.8944 13.8491 34.7349 13.8243C34.6091 13.8056 34.4881 13.7621 34.3787 13.6963C34.2842 13.636 34.1987 13.5621 34.125 13.4771Z" fill="#5C5F7E"/>
<path d="M34.4395 15.6804C34.4395 15.6804 34.4395 15.69 34.4395 15.706C34.4492 15.7304 34.4656 15.7514 34.4867 15.7668C34.5652 15.8164 34.6545 15.8455 34.7468 15.8516C34.8844 15.8645 35.0226 15.8337 35.1423 15.7636C35.2883 15.6741 35.3961 15.5326 35.4449 15.3668H35.4118C35.5124 15.5041 35.6538 15.6051 35.8152 15.6548C35.945 15.6966 36.0828 15.7065 36.2171 15.6836C36.307 15.6703 36.3946 15.6438 36.4771 15.6052C36.5082 15.593 36.5374 15.5763 36.5638 15.5556C36.4518 15.6043 36.3343 15.6386 36.2139 15.658C36.0832 15.6761 35.9502 15.664 35.8247 15.6228C35.6714 15.573 35.5375 15.4756 35.4417 15.3444L35.4197 15.314L35.4086 15.3508C35.3673 15.4937 35.2792 15.6181 35.1589 15.7034C35.0386 15.7886 34.8932 15.8296 34.7468 15.8196C34.658 15.8148 34.5714 15.7902 34.493 15.7476C34.4679 15.7323 34.449 15.7085 34.4395 15.6804Z" fill="#5C5F7E"/>
<path d="M39.6257 13.3945C39.6062 13.522 39.5646 13.645 39.5028 13.7577C39.4258 13.8917 39.3138 14.0013 39.1792 14.0745C39.0445 14.1476 38.8925 14.1814 38.7401 14.1721C38.6434 14.1676 38.5484 14.1454 38.4596 14.1065H38.4375V14.1289C38.4137 14.2622 38.3656 14.3897 38.2957 14.5049C38.2396 14.5963 38.1712 14.6793 38.0924 14.7513C38.0624 14.7783 38.0308 14.8034 37.9978 14.8265C37.9864 14.835 37.9732 14.8407 37.9593 14.8432C37.9453 14.8457 37.931 14.8449 37.9174 14.8409C37.9089 14.8382 37.9012 14.8335 37.8949 14.8271C37.8885 14.8207 37.8839 14.8128 37.8812 14.8041C37.8794 14.7979 37.8794 14.7912 37.8812 14.7849C37.8812 14.7849 37.8812 14.7849 37.8812 14.8057C37.883 14.8161 37.8874 14.8259 37.8941 14.834C37.9007 14.8422 37.9093 14.8484 37.919 14.8521C37.9341 14.8583 37.9505 14.8606 37.9667 14.8589C37.9829 14.8573 37.9984 14.8516 38.012 14.8425C38.0479 14.8214 38.0817 14.7967 38.1129 14.7689C38.1971 14.6981 38.2699 14.6145 38.3288 14.5209C38.4026 14.4033 38.4534 14.2724 38.4785 14.1353L38.4548 14.1481C38.5471 14.1891 38.6458 14.213 38.7464 14.2185C38.9054 14.2293 39.0641 14.1936 39.2038 14.1156C39.3434 14.0377 39.4581 13.9207 39.5343 13.7785C39.5812 13.6947 39.6132 13.6032 39.6289 13.5081C39.6304 13.482 39.6304 13.4558 39.6289 13.4297C39.6273 13.4041 39.6273 13.3945 39.6257 13.3945Z" fill="#5C5F7E"/>
<path d="M36.7213 16.3204C36.9719 15.9236 37.4132 15.6932 37.856 15.5572C38.0398 15.4891 38.2373 15.4677 38.4312 15.4948C38.5276 15.5105 38.6172 15.5547 38.689 15.6219C38.7607 15.6891 38.8114 15.7762 38.8346 15.8724L38.6944 16.1604C38.5525 16.666 38.0293 16.9364 37.6826 17.3268C37.525 17.4964 37.3816 17.7108 37.1563 17.722C37.0395 17.7209 36.9272 17.6759 36.8411 17.5956C36.4786 17.2996 36.4708 16.7092 36.7213 16.3204Z" fill="#33BDED"/>
<path d="M36.0568 19.5926C35.9241 19.3858 35.8672 19.1383 35.896 18.8932C35.9248 18.6481 36.0375 18.4211 36.2144 18.2518C36.0347 18.0022 36.1198 17.6326 36.3215 17.4022C36.5414 17.1846 36.807 17.0205 37.0985 16.9222C37.2026 16.5756 37.4337 16.2828 37.7442 16.1042C38.0548 15.9256 38.421 15.8747 38.7673 15.9622C39.1519 15.439 39.9241 15.3894 40.5308 15.599C40.6756 15.6613 40.8284 15.7023 40.9846 15.7206C41.0992 15.7172 41.2134 15.7065 41.3266 15.6886C41.957 15.631 42.559 16.1062 42.778 16.7094C42.8063 16.8082 42.8471 16.9029 42.8994 16.991C42.9873 17.0914 43.0874 17.1801 43.1972 17.255C43.3065 17.3499 43.3944 17.4677 43.4548 17.6002C43.5151 17.7328 43.5466 17.877 43.5471 18.023C43.5471 18.271 43.4588 18.5286 43.5471 18.7574C43.5928 18.8726 43.681 18.967 43.7172 19.087C43.8181 19.431 43.432 19.7606 43.4856 20.1158C43.4966 20.1878 43.525 20.2566 43.5423 20.3286C43.5745 20.476 43.5544 20.6301 43.4856 20.7638C43.4168 20.8562 43.366 20.961 43.3359 21.0726C43.3373 21.1605 43.3505 21.2477 43.3753 21.3318C43.4084 21.5446 42.9261 22.335 42.7449 22.4422L37.3963 22.2502C37.1962 22.1952 37.018 22.0783 36.8864 21.9157C36.7548 21.7531 36.6763 21.553 36.6619 21.343C36.6671 21.2728 36.653 21.2024 36.621 21.1398C36.5809 21.0964 36.5327 21.0616 36.4791 21.0374C36.1419 20.8342 36.1214 20.3526 36.175 19.959C36.1838 19.9061 36.1838 19.852 36.175 19.799C36.1493 19.723 36.1092 19.6529 36.0568 19.5926Z" fill="#2D3259"/>
<path d="M37.5808 19.7027C37.6096 19.1813 37.7759 18.6774 38.0623 18.2436C38.3487 17.8099 38.7447 17.4622 39.2087 17.2371C39.6448 17.0517 40.1133 16.9575 40.5861 16.9603C41.0249 16.9361 41.4607 17.0477 41.8358 17.2803C42.1273 17.3635 43.1642 18.4163 43.1721 19.5075C43.1816 20.7219 43.1469 22.2019 42.9578 23.0963C42.5749 24.8947 41.1928 25.0499 41.1928 25.0499C41.1928 25.0499 41.1849 25.4899 41.1739 26.0627L42.0375 26.1667C42.0233 26.9123 41.1234 28.6083 41.1234 28.6083H37.5777L36.7598 26.1171L37.5777 25.9395L37.5808 19.7027Z" fill="#A2675F"/>
<path d="M40.3043 22.6501C40.318 22.5576 40.3645 22.4734 40.4351 22.4133C40.4996 22.3558 40.5812 22.322 40.6669 22.317C40.7525 22.3121 40.8374 22.3364 40.9079 22.3861C40.981 22.443 41.0378 22.5186 41.0724 22.6053C41.107 22.6919 41.1182 22.7864 41.1048 22.8789C41.0658 22.9339 41.0156 22.9799 40.9578 23.0138C40.8999 23.0477 40.8356 23.0688 40.7692 23.0757C40.7482 23.0773 40.7271 23.0773 40.7061 23.0757C40.6003 23.0759 40.4984 23.0353 40.4209 22.9621C40.3794 22.9225 40.3473 22.8738 40.3271 22.8197C40.3069 22.7657 40.2991 22.7077 40.3043 22.6501Z" fill="#6F4C47"/>
<path d="M42.5152 20.8837C42.5124 20.9443 42.4865 21.0013 42.4429 21.0428C42.3994 21.0843 42.3417 21.107 42.282 21.1061C42.2526 21.1068 42.2234 21.1014 42.1961 21.0905C42.1688 21.0795 42.1439 21.0631 42.1229 21.0422C42.1019 21.0214 42.0853 20.9965 42.0739 20.969C42.0625 20.9415 42.0566 20.9119 42.0566 20.8821C42.0595 20.8216 42.0854 20.7645 42.1289 20.723C42.1725 20.6815 42.2302 20.6588 42.2899 20.6597C42.3192 20.6591 42.3484 20.6644 42.3758 20.6754C42.4031 20.6863 42.428 20.7027 42.449 20.7236C42.4699 20.7445 42.4866 20.7694 42.498 20.7969C42.5094 20.8244 42.5152 20.8539 42.5152 20.8837Z" fill="#2D3259"/>
<path d="M42.7356 20.1603C42.7057 20.1891 42.5387 20.0499 42.2928 20.0371C42.047 20.0243 41.8594 20.1379 41.8342 20.1059C41.809 20.0739 41.8531 20.0387 41.9351 19.9859C42.0457 19.9158 42.1753 19.8827 42.3054 19.8915C42.4336 19.8981 42.5562 19.9463 42.6553 20.0291C42.7278 20.0851 42.7514 20.1411 42.7356 20.1603Z" fill="#2D3259"/>
<path d="M41.1863 22.0517C41.3186 22.017 41.4547 21.9998 41.5913 22.0005C41.6544 22.0005 41.7142 21.9877 41.7269 21.9445C41.7362 21.8787 41.7252 21.8116 41.6953 21.7525L41.5377 21.2565C41.3155 20.5477 41.1595 19.9765 41.1879 19.9589C41.2163 19.9413 41.418 20.5173 41.6386 21.2245L41.7962 21.7237C41.8314 21.8031 41.8381 21.8926 41.8151 21.9765C41.8048 21.9986 41.7897 22.0181 41.7708 22.0333C41.752 22.0486 41.7299 22.0592 41.7064 22.0645C41.6708 22.0689 41.6348 22.0689 41.5992 22.0645C41.4616 22.078 41.3229 22.0737 41.1863 22.0517Z" fill="#2D3259"/>
<path d="M41.1959 25.0225C40.3519 24.9895 39.5336 24.7192 38.832 24.2417C38.832 24.2417 39.3804 25.5361 41.177 25.4673L41.1959 25.0225Z" fill="#6F4C47"/>
<path d="M40.4514 22.1842C40.4908 22.1842 40.4767 22.4546 40.6957 22.6642C40.9148 22.8738 41.2 22.8562 41.2 22.893C41.2 22.9298 41.1338 22.9426 41.014 22.9394C40.8573 22.9329 40.7078 22.8706 40.5917 22.7634C40.48 22.66 40.4122 22.5166 40.4026 22.3634C40.3994 22.2402 40.4278 22.181 40.4514 22.1842Z" fill="#2D3259"/>
<path d="M42.686 19.2114C42.6419 19.2706 42.4544 19.2114 42.2337 19.2242C42.0131 19.237 41.8256 19.2802 41.7799 19.2242C41.7594 19.1954 41.7877 19.1378 41.8665 19.0802C41.9753 19.0083 42.1024 18.9705 42.2322 18.9714C42.3609 18.9683 42.4877 19.0027 42.5978 19.0706C42.6781 19.125 42.7065 19.1826 42.686 19.2114Z" fill="#2D3259"/>
<path d="M39.7882 20.7768C39.7865 20.8375 39.8083 20.8965 39.8489 20.9411C39.8896 20.9857 39.9459 21.0123 40.0057 21.0152C40.0348 21.018 40.0642 21.015 40.0921 21.0062C40.12 20.9974 40.146 20.9831 40.1684 20.964C40.1909 20.9449 40.2094 20.9215 40.2228 20.8952C40.2362 20.8688 40.2444 20.84 40.2468 20.8104C40.2481 20.7496 40.2262 20.6906 40.1856 20.6459C40.1451 20.6011 40.0891 20.5741 40.0293 20.5704C40.0001 20.5675 39.9705 20.5706 39.9425 20.5795C39.9145 20.5884 39.8884 20.6029 39.866 20.6221C39.8435 20.6413 39.8251 20.6649 39.8117 20.6915C39.7984 20.718 39.7904 20.747 39.7882 20.7768Z" fill="#2D3259"/>
<path d="M39.3566 20.0645C39.385 20.0965 39.5615 19.9685 39.8073 19.9733C40.0532 19.9781 40.2344 20.1077 40.2612 20.0773C40.288 20.0469 40.2454 20.0085 40.1682 19.9477C40.0621 19.8713 39.9357 19.8295 39.8057 19.8277C39.6773 19.8256 39.5516 19.8648 39.4464 19.9397C39.3692 20.0005 39.344 20.0517 39.3566 20.0645Z" fill="#2D3259"/>
<path d="M39.3333 19.2213C39.3806 19.2805 39.5728 19.2213 39.8061 19.2213C40.0393 19.2213 40.2284 19.2661 40.2788 19.2069C40.2993 19.1797 40.2694 19.1221 40.1859 19.0661C40.0715 18.9976 39.9412 18.9614 39.8084 18.9614C39.6757 18.9614 39.5453 18.9976 39.431 19.0661C39.3396 19.1349 39.3112 19.2005 39.3333 19.2213Z" fill="#2D3259"/>
<path d="M37.7836 21.4036C37.7836 21.2692 37.6543 20.9412 37.5235 20.914C37.1753 20.8388 36.5418 20.8324 36.4866 21.7364C36.4125 22.9716 37.6496 22.794 37.6543 22.7588C37.6591 22.7236 37.7584 21.8708 37.7836 21.4036Z" fill="#A2675F"/>
<path d="M37.3454 22.2853C37.3454 22.2853 37.3233 22.2997 37.2871 22.3141C37.2364 22.3343 37.1802 22.3343 37.1295 22.3141C37.0034 22.2581 36.9073 22.0437 36.9152 21.8213C36.9179 21.7146 36.9448 21.61 36.994 21.5157C37.007 21.4771 37.0292 21.4423 37.0586 21.4144C37.088 21.3865 37.1237 21.3663 37.1626 21.3557C37.1874 21.3506 37.2132 21.3545 37.2354 21.3668C37.2576 21.3791 37.2748 21.399 37.2839 21.4229C37.2981 21.4581 37.2839 21.4821 37.2965 21.4853C37.3092 21.4885 37.3233 21.4661 37.317 21.4149C37.3119 21.3834 37.2963 21.3546 37.2729 21.3333C37.2572 21.3195 37.2389 21.309 37.2192 21.3024C37.1994 21.2958 37.1786 21.2933 37.1579 21.2949C37.1073 21.3019 37.0593 21.3219 37.0185 21.3529C36.9777 21.384 36.9454 21.4252 36.9246 21.4725C36.8668 21.5768 36.8344 21.6937 36.8301 21.8133C36.8301 22.0629 36.9341 22.3029 37.1074 22.3653C37.1394 22.377 37.1735 22.3814 37.2073 22.3781C37.2411 22.3748 37.2737 22.3638 37.3028 22.3461C37.3407 22.3157 37.3501 22.2885 37.3454 22.2853Z" fill="#6F4C47"/>
<path d="M43.4527 19.5207C43.3361 19.4522 43.2411 19.3514 43.1789 19.2302C43.1167 19.1089 43.0897 18.9721 43.1013 18.8359C42.9342 18.8759 42.7861 18.6535 42.6931 18.5047C42.6001 18.3559 42.493 18.2775 42.5087 18.1063C42.5174 18.0727 42.5174 18.0374 42.5087 18.0039C42.4867 17.9559 42.4299 17.9367 42.3795 17.9191C42.252 17.869 42.1388 17.7872 42.0505 17.6813C41.9621 17.5754 41.9013 17.4486 41.8736 17.3127C41.6046 17.4145 41.3149 17.447 41.0305 17.4071C40.9624 17.4971 40.8728 17.5681 40.7702 17.6132C40.6676 17.6584 40.5554 17.6763 40.4441 17.6653C40.3328 17.6542 40.2261 17.6146 40.134 17.5501C40.042 17.4856 39.9676 17.3984 39.9179 17.2967C39.8724 17.3696 39.812 17.4318 39.7408 17.479C39.6695 17.5262 39.5891 17.5573 39.505 17.5703C39.3374 17.5959 39.1669 17.5959 38.9992 17.5703C39.0215 17.7398 38.983 17.9118 38.8907 18.0549C38.7984 18.198 38.6585 18.3026 38.4965 18.3495C38.4739 18.3505 38.4518 18.3565 38.4316 18.367C38.4115 18.3775 38.3939 18.3922 38.3799 18.4103C38.3562 18.4519 38.3799 18.5047 38.3909 18.5495C38.4102 18.622 38.4149 18.6977 38.4048 18.7721C38.3946 18.8465 38.3699 18.9181 38.3319 18.9826C38.294 19.0471 38.2437 19.1032 38.1839 19.1475C38.1242 19.1918 38.0563 19.2235 37.9843 19.2407C38.0284 19.2849 38.062 19.3388 38.0826 19.3981C38.1033 19.4575 38.1103 19.5208 38.1034 19.5833C38.0964 19.6459 38.0755 19.706 38.0423 19.7592C38.0092 19.8123 37.9645 19.8572 37.9118 19.8903C37.8661 19.9143 37.8078 19.9447 37.8109 19.9975C37.8145 20.0173 37.8226 20.0359 37.8346 20.0519C37.9305 20.1717 37.9897 20.3174 38.0048 20.4711C38.0106 20.548 37.987 20.6241 37.9388 20.6838C37.8907 20.7434 37.8217 20.7818 37.7463 20.7911C37.7875 20.8253 37.8213 20.8679 37.8454 20.9161C37.8696 20.9643 37.8836 21.0171 37.8866 21.0711C37.8866 21.1783 37.77 21.2823 37.6738 21.2311C37.6329 21.2119 37.0325 21.0583 37.0072 21.0199C36.6921 20.5255 37.1491 20.0247 37.2153 19.4375C37.2922 18.8491 37.5031 18.287 37.8314 17.7959C37.9606 17.5852 38.1163 17.3927 38.2948 17.2231C38.5092 17.0426 38.7428 16.8869 38.9913 16.7591C39.3013 16.566 39.6396 16.4245 39.9936 16.3399C40.6602 16.2199 41.3299 16.4999 41.9272 16.8199C42.1589 16.9352 42.3745 17.081 42.5686 17.2535C42.7847 17.4767 42.9597 17.7373 43.0855 18.0231C43.2968 18.422 43.424 18.8612 43.459 19.3127" fill="#2D3259"/>
<path d="M43.7159 19.0944C43.7035 19.0455 43.6832 18.999 43.656 18.9568C43.6323 18.9152 43.5992 18.8656 43.5677 18.7968C43.5328 18.7232 43.5135 18.6431 43.511 18.5616C43.5096 18.4592 43.517 18.357 43.5331 18.256C43.5522 18.1348 43.5554 18.0116 43.5425 17.8896C43.5236 17.7483 43.4758 17.6126 43.4023 17.4912C43.363 17.4243 43.3159 17.3625 43.262 17.3072C43.2047 17.2491 43.143 17.1956 43.0776 17.1472C43.0096 17.1002 42.9499 17.0417 42.9011 16.9744C42.8564 16.8998 42.8215 16.8197 42.7971 16.736C42.7364 16.5561 42.6446 16.3887 42.5261 16.2416C42.4011 16.0826 42.2476 15.9491 42.0738 15.848C41.9824 15.795 41.8857 15.7521 41.7854 15.72C41.6829 15.689 41.577 15.6708 41.4702 15.6656C41.4177 15.6626 41.3651 15.6626 41.3126 15.6656L41.155 15.6864C41.0464 15.7042 40.9353 15.6988 40.8288 15.6704C40.7216 15.6416 40.6161 15.5968 40.5057 15.5616C40.394 15.5259 40.2796 15.4991 40.1638 15.4816C40.0454 15.4636 39.9257 15.4561 39.806 15.4592C39.6844 15.4625 39.5635 15.4786 39.4452 15.5072C39.2015 15.5634 38.9811 15.6954 38.8148 15.8848C38.7975 15.904 38.7817 15.9248 38.7659 15.944H38.7864C38.4351 15.8567 38.0643 15.9089 37.7497 16.09C37.4351 16.2712 37.2005 16.5675 37.0939 16.9184L37.1049 16.9072C36.9475 16.9675 36.7943 17.0386 36.6464 17.12C36.5074 17.1954 36.3835 17.2963 36.2807 17.4176C36.1847 17.5376 36.1226 17.682 36.1011 17.8352C36.0778 17.9841 36.1116 18.1364 36.1957 18.2608V18.24C36.0233 18.4032 35.9119 18.622 35.8805 18.8592C35.8493 19.0717 35.8828 19.2889 35.9766 19.4816C35.9988 19.5251 36.0236 19.5673 36.0507 19.608C36.0794 19.6446 36.1057 19.683 36.1295 19.7232C36.1514 19.7605 36.1639 19.8029 36.1657 19.8464C36.1657 19.8892 36.1625 19.932 36.1563 19.9744C36.134 20.1301 36.1303 20.2881 36.1452 20.4448C36.1554 20.5713 36.1896 20.6947 36.2461 20.808C36.289 20.8915 36.3505 20.9639 36.4257 21.0192C36.4856 21.064 36.5408 21.0832 36.5707 21.1088C36.6007 21.1344 36.6117 21.1488 36.6133 21.1472C36.6022 21.1304 36.5884 21.1158 36.5723 21.104C36.5439 21.0784 36.4888 21.0576 36.4305 21.0112C36.3581 20.9551 36.2989 20.8836 36.2571 20.8016C36.2036 20.6892 36.1715 20.5676 36.1626 20.4432C36.1495 20.2879 36.1543 20.1317 36.1767 19.9776C36.1845 19.9337 36.1881 19.8893 36.1878 19.8448C36.1864 19.7972 36.1728 19.7509 36.1484 19.7104C36.1246 19.6697 36.0983 19.6307 36.0696 19.5936C36.0435 19.554 36.0198 19.5128 35.9987 19.4704C35.9078 19.2825 35.8764 19.0707 35.9088 18.864C35.9389 18.6335 36.047 18.4208 36.2146 18.2624L36.2256 18.2528V18.2416C36.1458 18.1244 36.1142 17.9804 36.1373 17.84C36.1576 17.6921 36.2182 17.553 36.3123 17.4384C36.4124 17.3204 36.5332 17.2222 36.6684 17.1488C36.8092 17.0721 36.9545 17.0042 37.1034 16.9456C37.2073 16.6044 37.4357 16.3164 37.7417 16.1403C38.0478 15.9643 38.4085 15.9135 38.7502 15.9984H38.7612L38.7707 15.9888L38.8164 15.9312C38.9794 15.7471 39.1947 15.6191 39.4326 15.5648C39.5484 15.5374 39.6667 15.5219 39.7856 15.5184C39.9031 15.5154 40.0207 15.5228 40.137 15.5408C40.2509 15.5572 40.3632 15.5834 40.4727 15.6192C40.5814 15.6528 40.687 15.6992 40.7989 15.7264C40.8539 15.7418 40.9105 15.7509 40.9675 15.7536C41.0244 15.756 41.0814 15.7528 41.1377 15.744C41.1928 15.744 41.2464 15.728 41.2953 15.7232C41.3478 15.7201 41.4004 15.7201 41.4529 15.7232C41.5596 15.7266 41.6655 15.7438 41.768 15.7744C41.8664 15.805 41.961 15.8469 42.0501 15.8992C42.3821 16.0931 42.6348 16.4013 42.7624 16.768C42.7874 16.854 42.8234 16.9363 42.8696 17.0128C42.921 17.0819 42.9833 17.1419 43.054 17.1904C43.1192 17.2384 43.1803 17.292 43.2368 17.3504C43.2888 17.4046 43.3353 17.4641 43.3755 17.528C43.4473 17.6466 43.4944 17.7789 43.5141 17.9168C43.5301 18.0373 43.5301 18.1594 43.5141 18.28C43.4989 18.3821 43.4926 18.4855 43.4952 18.5888C43.4987 18.6718 43.5197 18.7531 43.5567 18.8272C43.5898 18.8912 43.6245 18.9408 43.6481 18.9872C43.6673 19.0186 43.6847 19.0512 43.7001 19.0848C43.7053 19.0881 43.7105 19.0913 43.7159 19.0944Z" fill="#2D3259"/>
<path d="M39.3467 15.7283C39.3467 15.7283 39.3798 15.7107 39.4412 15.6851C39.5265 15.6473 39.6178 15.6251 39.7107 15.6195C39.8477 15.61 39.9848 15.6376 40.1078 15.6995C40.2578 15.7773 40.3793 15.9018 40.4545 16.0547C40.4778 16.0999 40.4958 16.1477 40.5081 16.1971C40.5148 16.2189 40.5169 16.2419 40.5142 16.2645C40.5115 16.2871 40.504 16.3089 40.4924 16.3283L40.4608 16.3683L40.5113 16.3571C40.6394 16.3282 40.7736 16.3518 40.8848 16.4227C40.9741 16.4781 41.0428 16.5619 41.0802 16.6611C41.1057 16.7268 41.1185 16.7969 41.118 16.8675C41.118 16.9171 41.118 16.9443 41.118 16.9459C41.118 16.9475 41.118 16.9459 41.118 16.9267C41.1223 16.9078 41.1249 16.8885 41.1259 16.8691C41.1352 16.7757 41.119 16.6814 41.0789 16.5967C41.0389 16.512 40.9766 16.4402 40.8989 16.3891C40.7808 16.3121 40.6375 16.2856 40.5002 16.3155L40.5176 16.3443C40.5326 16.321 40.5426 16.2946 40.5466 16.267C40.5507 16.2394 40.5489 16.2112 40.5412 16.1843C40.5282 16.129 40.5092 16.0754 40.4845 16.0243C40.4048 15.8654 40.2773 15.7365 40.1204 15.6563C40.0129 15.6042 39.8953 15.5771 39.7761 15.5771C39.657 15.5771 39.5393 15.6042 39.4318 15.6563C39.4087 15.6679 39.3866 15.6812 39.3656 15.6963C39.353 15.7203 39.3467 15.7267 39.3467 15.7283Z" fill="#2D3259"/>
<path d="M37.2988 17.0435C37.2988 17.0435 37.3099 17.0611 37.3382 17.0899C37.3792 17.1291 37.4241 17.164 37.4722 17.1939C37.5437 17.2412 37.6252 17.2708 37.7101 17.2803C37.8185 17.2951 37.9283 17.2676 38.0174 17.2035H37.9907L38.0237 17.2563L38.0631 17.3075C38.1436 17.3997 38.2446 17.4711 38.3578 17.5155C38.4499 17.5512 38.5477 17.5691 38.6462 17.5683C38.7121 17.5657 38.7774 17.5538 38.8401 17.5331C38.8634 17.5261 38.8857 17.5159 38.9063 17.5027C38.8214 17.5259 38.7341 17.5388 38.6462 17.5411C38.5517 17.5386 38.4583 17.5191 38.3704 17.4835C38.2629 17.4398 38.1673 17.3707 38.0915 17.2819C38.0789 17.2659 38.0663 17.2515 38.0537 17.2339L38.0222 17.1843L38.0111 17.1683L37.9954 17.1795C37.9132 17.2377 37.813 17.2638 37.7133 17.2531C37.6323 17.2444 37.554 17.2188 37.4832 17.1779C37.4194 17.1365 37.3578 17.0917 37.2988 17.0435Z" fill="#2D3259"/>
<path d="M36.5957 18.1558C36.5957 18.1558 36.5957 18.1654 36.5957 18.1798C36.6003 18.2013 36.6083 18.2218 36.6193 18.2406C36.6631 18.31 36.7304 18.3607 36.8085 18.383C36.9244 18.4113 37.046 18.4047 37.1583 18.3638C37.2252 18.3453 37.291 18.3229 37.3553 18.2966C37.4295 18.2705 37.4921 18.2183 37.5318 18.1494L37.5397 18.1302H37.5113C37.6148 18.228 37.7329 18.3085 37.8612 18.3686C37.9674 18.4185 38.0853 18.4374 38.2016 18.423C38.2798 18.4141 38.3543 18.3843 38.4175 18.3366C38.4344 18.3243 38.4498 18.3097 38.4632 18.2934C38.4726 18.2822 38.4773 18.2758 38.4758 18.2758C38.4742 18.2758 38.4537 18.295 38.4096 18.3254C38.3457 18.3658 38.2734 18.3905 38.1984 18.3975C38.0874 18.4083 37.9756 18.3878 37.8753 18.3382C37.7511 18.2766 37.6364 18.1968 37.5349 18.1014L37.516 18.0854L37.5066 18.1094L37.4987 18.1254C37.4624 18.1858 37.4068 18.2315 37.3411 18.255C37.2783 18.281 37.2141 18.3034 37.1488 18.3222C37.0428 18.3631 36.9276 18.3731 36.8163 18.351C36.7422 18.332 36.677 18.2873 36.632 18.2246C36.6173 18.2032 36.6051 18.1801 36.5957 18.1558Z" fill="#2D3259"/>
<path d="M41.8469 13.6579C41.8469 13.6579 41.765 13.6579 41.62 13.6579C41.4163 13.6666 41.2171 13.7212 41.0369 13.8179C40.7696 13.9582 40.5606 14.1908 40.4475 14.4739C40.4129 14.5527 40.3964 14.6385 40.3994 14.7247C40.4025 14.811 40.4248 14.8954 40.4649 14.9715C40.4878 15.0076 40.5176 15.0386 40.5525 15.0627C40.5875 15.0868 40.6269 15.1036 40.6684 15.1119C40.7098 15.1203 40.7525 15.1201 40.7939 15.1114C40.8353 15.1026 40.8745 15.0855 40.9093 15.0611C40.9389 15.0302 40.9595 14.9916 40.969 14.9495C40.9784 14.9075 40.9763 14.8636 40.9628 14.8227C40.9359 14.737 40.8876 14.6598 40.8226 14.5987C40.6898 14.4845 40.5236 14.4181 40.3498 14.4099C40.2018 14.3967 40.0528 14.4187 39.9146 14.4743C39.7765 14.5298 39.653 14.6174 39.554 14.7299C39.4204 14.8858 39.3354 15.0785 39.3097 15.2835C39.2908 15.4291 39.3097 15.5107 39.2987 15.5123C39.2902 15.4936 39.2849 15.4736 39.2829 15.4531C39.2768 15.3957 39.2768 15.3377 39.2829 15.2803C39.2911 15.1457 39.3256 15.0142 39.3845 14.8934C39.4433 14.7725 39.5254 14.6649 39.6258 14.5766C39.7262 14.4884 39.8429 14.4214 39.9691 14.3796C40.0953 14.3378 40.2285 14.322 40.3608 14.3331C40.4528 14.3378 40.5436 14.3561 40.6303 14.3875C40.724 14.4187 40.81 14.47 40.8825 14.5379C40.9568 14.6097 41.0112 14.7003 41.0401 14.8003C41.0574 14.8554 41.0596 14.9143 41.0466 14.9707C41.0335 15.027 41.0057 15.0787 40.966 15.1203C40.9239 15.1586 40.8729 15.1855 40.8178 15.1984C40.7626 15.2113 40.7052 15.2097 40.6508 15.1939C40.5463 15.1694 40.455 15.1053 40.3955 15.0147C40.3495 14.9282 40.3237 14.8321 40.3202 14.7339C40.3166 14.6357 40.3354 14.538 40.375 14.4483C40.4956 14.1499 40.7199 13.9067 41.0054 13.7651C41.1944 13.6685 41.4037 13.6197 41.6153 13.6227C41.6718 13.6242 41.7282 13.6301 41.7839 13.6403C41.8327 13.6483 41.8469 13.6547 41.8469 13.6579Z" fill="#5C5F7E"/>
<path d="M32.7963 16.7827C32.8042 16.7827 32.7963 16.8675 32.8405 17.0131C32.8961 17.2192 33.0049 17.4065 33.1556 17.5555C33.263 17.6676 33.3934 17.7544 33.5374 17.8097C33.6815 17.865 33.8357 17.8875 33.9893 17.8755C34.1695 17.8637 34.3444 17.8089 34.4999 17.7155C34.6666 17.6179 34.7989 17.4696 34.8781 17.2915C34.9178 17.2075 34.9272 17.1121 34.9048 17.0218C34.8823 16.9314 34.8294 16.852 34.7552 16.7971H34.804C34.764 16.8583 34.7459 16.9316 34.7528 17.0048C34.7597 17.0779 34.7911 17.1464 34.8419 17.1987C34.8928 17.248 34.9533 17.2858 35.0196 17.3098C35.0858 17.3337 35.1563 17.3433 35.2264 17.3379C35.4725 17.3266 35.7117 17.2517 35.9214 17.1203C36.0617 17.035 36.1795 16.9164 36.2649 16.7747C36.3232 16.6739 36.339 16.6147 36.3469 16.6147C36.346 16.6305 36.3433 16.646 36.339 16.6611C36.3271 16.7059 36.3108 16.7494 36.2901 16.7907C36.2103 16.9437 36.0931 17.0732 35.9497 17.1667C35.7343 17.3109 35.4855 17.3953 35.228 17.4115C35.1472 17.4181 35.066 17.4073 34.9897 17.3797C34.9133 17.3521 34.8436 17.3085 34.7851 17.2515C34.7264 17.185 34.6876 17.1029 34.6732 17.0147C34.6643 16.967 34.6662 16.9179 34.6788 16.8711C34.6913 16.8242 34.7142 16.7809 34.7457 16.7443L34.7662 16.7187L34.7946 16.7363C34.8855 16.801 34.9511 16.8961 34.9799 17.0049C35.0087 17.1137 34.9989 17.2293 34.9522 17.3315C34.8655 17.5266 34.7205 17.689 34.5377 17.7955C34.3718 17.8967 34.1841 17.9554 33.9909 17.9667C33.828 17.9783 33.6647 17.953 33.5126 17.8927C33.3605 17.8324 33.2235 17.7385 33.1115 17.6179C32.9587 17.4592 32.8537 17.2593 32.8089 17.0419C32.7974 16.9834 32.7911 16.924 32.79 16.8643C32.7916 16.8003 32.7932 16.7827 32.7963 16.7827Z" fill="#5C5F7E"/>
<path d="M43.8334 15.9077C43.8334 15.9077 43.8491 15.9077 43.8743 15.9365C43.9088 15.9693 43.939 16.0064 43.9642 16.0469C44.0599 16.1999 44.0922 16.3851 44.054 16.5621C44.0211 16.6939 43.9501 16.8127 43.8501 16.9031C43.7501 16.9935 43.6257 17.0514 43.493 17.0693C43.4138 17.083 43.3327 17.0802 43.2547 17.0609C43.1766 17.0416 43.1033 17.0064 43.0391 16.9573C43.0019 16.9303 42.9707 16.8956 42.9476 16.8555C42.9245 16.8154 42.9099 16.7708 42.9049 16.7246C42.8998 16.6785 42.9044 16.6317 42.9183 16.5875C42.9322 16.5432 42.9551 16.5024 42.9855 16.4677C43.022 16.439 43.0643 16.4188 43.1094 16.4085C43.1544 16.3982 43.2012 16.3981 43.2463 16.4082C43.2914 16.4182 43.3337 16.4383 43.3704 16.4668C43.407 16.4953 43.437 16.5317 43.4583 16.5733C43.4923 16.6498 43.5041 16.7345 43.4923 16.8175C43.4806 16.9005 43.4459 16.9784 43.3921 17.0421C43.2975 17.1509 43.1738 17.2293 43.036 17.2677C42.9195 17.3029 42.798 17.318 42.6767 17.3125C42.5041 17.302 42.3338 17.267 42.1708 17.2085C42.1104 17.191 42.0526 17.1651 41.999 17.1317C42.0606 17.1413 42.1212 17.1563 42.1803 17.1765C42.3425 17.2228 42.5098 17.2486 42.6782 17.2533C42.7926 17.2543 42.9064 17.2371 43.0155 17.2021C43.1379 17.1648 43.2473 17.0926 43.3307 16.9941C43.3745 16.9419 43.4029 16.8781 43.4127 16.8102C43.4225 16.7423 43.4131 16.6729 43.3858 16.6101C43.3709 16.5794 43.3494 16.5525 43.323 16.5312C43.2966 16.5099 43.2658 16.4948 43.233 16.487C43.2002 16.4792 43.166 16.4789 43.1331 16.4861C43.1001 16.4932 43.0691 16.5077 43.0423 16.5285C43.0183 16.5532 43.0005 16.5834 42.9906 16.6166C42.9808 16.6498 42.979 16.6849 42.9855 16.7189C42.9982 16.7884 43.0351 16.8509 43.0895 16.8949C43.1453 16.9368 43.2087 16.9672 43.276 16.9842C43.3433 17.0012 43.4133 17.0046 43.4819 16.9941C43.6015 16.9794 43.7142 16.9291 43.8058 16.8497C43.8975 16.7704 43.9641 16.6653 43.9973 16.5477C44.0361 16.3857 44.0148 16.2148 43.9374 16.0677C43.8806 15.9573 43.8271 15.9141 43.8334 15.9077Z" fill="#5C5F7E"/>
<path d="M37.3644 66.4726C37.3424 66.5302 36.9279 66.607 36.9689 67.5126C37.0098 68.4182 36.6978 69.4982 36.7199 69.9414C36.7419 70.3846 36.8775 72.007 37.8829 72.1286C38.5259 72.2054 38.8426 71.6486 38.986 71.263C39.0531 71.0773 39.083 70.8799 39.0743 70.6822L38.9324 67.1622C38.93 67.037 38.9028 66.9136 38.8525 66.7992C38.8021 66.6849 38.7296 66.582 38.6393 66.4966C38.4489 66.3418 38.2162 66.2501 37.9727 66.2342C37.8606 66.2291 37.7486 66.2476 37.6439 66.2887C37.5392 66.3297 37.4441 66.3924 37.3644 66.4726Z" fill="#E8E8ED"/>
<path d="M37.3992 66.6564C37.3802 66.7092 36.9926 66.7812 37.032 67.626C37.0714 68.4708 36.7798 69.4772 36.7987 69.89C36.8176 70.3028 36.9406 71.81 37.883 71.9284C38.4834 72.0004 38.7781 71.482 38.9089 71.1284C38.9706 70.9553 38.9985 70.7716 38.9908 70.5876L38.8521 67.3044C38.8495 67.1876 38.8238 67.0725 38.7768 66.9659C38.7297 66.8593 38.6621 66.7633 38.5779 66.6836C38.4006 66.5396 38.1837 66.4547 37.957 66.4404C37.8545 66.4368 37.7524 66.454 37.6566 66.4911C37.5607 66.5282 37.4732 66.5844 37.3992 66.6564Z" fill="#33BDED"/>
<path d="M38.6069 69.3765C38.4265 69.492 38.2175 69.5534 38.0042 69.5534C37.7908 69.5534 37.5818 69.492 37.4014 69.3765C37.5989 69.4257 37.8004 69.4573 38.0034 69.4709C38.2068 69.4567 38.4087 69.4251 38.6069 69.3765Z" fill="#2D3259"/>
<path d="M38.6147 69.7951C38.4399 69.9233 38.2264 69.9855 38.0112 69.9711C37.7962 69.9855 37.5831 69.9226 37.4092 69.7935C37.6066 69.8436 37.8081 69.8753 38.0112 69.8879C38.2147 69.875 38.4166 69.844 38.6147 69.7951Z" fill="#2D3259"/>
<path d="M38.6069 70.2534C38.4268 70.3699 38.2177 70.4318 38.0042 70.4318C37.7906 70.4318 37.5815 70.3699 37.4014 70.2534C37.5988 70.3037 37.8003 70.3358 38.0034 70.3494C38.207 70.3362 38.409 70.304 38.6069 70.2534Z" fill="#2D3259"/>
<path d="M38.0646 69.2479C37.9733 69.2365 37.8862 69.2024 37.8109 69.1487C37.7237 69.0992 37.6432 69.0384 37.5713 68.9679C37.528 68.9274 37.4885 68.883 37.4532 68.8351C37.4286 68.807 37.4117 68.7728 37.4043 68.7359C37.4004 68.7133 37.4024 68.69 37.4101 68.6683C37.4179 68.6467 37.4311 68.6275 37.4484 68.6127C37.4787 68.5886 37.5152 68.574 37.5536 68.5706C37.5919 68.5672 37.6304 68.5752 37.6643 68.5935C37.722 68.62 37.7752 68.6557 37.8219 68.6991C37.8975 68.7687 37.9577 68.8538 37.9984 68.9487C38.0434 69.0322 38.058 69.1291 38.0394 69.2223C38.0252 69.2223 38.0205 69.1167 37.9448 68.9743C37.9022 68.8906 37.8432 68.8166 37.7715 68.7567C37.6974 68.6911 37.5792 68.6127 37.5083 68.6751C37.4768 68.6991 37.4894 68.7407 37.5225 68.7871C37.5556 68.8335 37.595 68.8751 37.6312 68.9135C37.6969 68.9826 37.7692 69.0448 37.8471 69.0991C37.9225 69.1443 37.9951 69.1939 38.0646 69.2479Z" fill="#2D3259"/>
<path d="M38.0277 69.2805C38.0109 69.1886 38.0202 69.0937 38.0545 69.0069C38.0838 68.9104 38.1279 68.8191 38.1853 68.7365C38.2189 68.6873 38.2569 68.6412 38.2987 68.5989C38.3208 68.5764 38.3439 68.5551 38.3681 68.5349C38.3954 68.509 38.4275 68.4888 38.4626 68.4757C38.4804 68.4713 38.4991 68.474 38.515 68.4832C38.5309 68.4924 38.5426 68.5075 38.5477 68.5253C38.5521 68.5459 38.5521 68.5672 38.5477 68.5877C38.5444 68.6196 38.5386 68.6512 38.5304 68.6821C38.5174 68.7408 38.4979 68.7977 38.4721 68.8517C38.429 68.9437 38.3709 69.0275 38.3003 69.0997C38.2412 69.171 38.1629 69.2233 38.075 69.2501C38.0671 69.2389 38.1553 69.1845 38.2578 69.0597C38.3167 68.9875 38.3655 68.9072 38.4028 68.8213C38.424 68.7695 38.4408 68.716 38.4532 68.6613C38.4532 68.6325 38.4642 68.6037 38.4674 68.5749C38.4705 68.5461 38.4674 68.5429 38.4674 68.5429H38.4768C38.4768 68.5429 38.4768 68.5637 38.4768 68.5573C38.455 68.5691 38.4344 68.583 38.4154 68.5989C38.3933 68.6181 38.3712 68.6373 38.3508 68.6581C38.2448 68.763 38.1611 68.8888 38.1049 69.0277C38.0482 69.1701 38.0419 69.2805 38.0277 69.2805Z" fill="#2D3259"/>
<path d="M41.3422 69.2305C41.3642 69.2913 41.7787 69.3713 41.7377 70.3201C41.6968 71.2689 42.0088 72.4001 41.9867 72.8609C41.9647 73.3217 41.8291 75.0225 40.8237 75.1489C40.1807 75.2305 39.864 74.6465 39.7206 74.2433C39.6536 74.0487 39.6237 73.8429 39.6323 73.6369L39.7741 69.9569C39.7781 69.6948 39.8834 69.4448 40.0673 69.2609C40.2556 69.1005 40.4888 69.0042 40.7339 68.9857C40.8466 68.9805 40.959 68.9996 41.0639 69.0418C41.1687 69.084 41.2636 69.1483 41.3422 69.2305Z" fill="#E8E8ED"/>
<path d="M41.3077 69.4224C41.3267 69.4784 41.7143 69.5536 41.6749 70.4384C41.6355 71.3232 41.9271 72.3744 41.9082 72.808C41.8893 73.2416 41.7663 74.8224 40.8239 74.9408C40.2235 75.016 39.9288 74.472 39.798 74.096C39.7362 73.9146 39.7084 73.7231 39.7161 73.5312L39.8485 70.1024C39.8529 69.8579 39.9513 69.6248 40.1227 69.4528C40.2977 69.3029 40.5151 69.2132 40.7436 69.1968C40.8479 69.1928 40.9518 69.2108 41.049 69.2496C41.1461 69.2884 41.2342 69.3473 41.3077 69.4224Z" fill="#33BDED"/>
<path d="M40.1006 72.2687C40.298 72.322 40.5002 72.3552 40.7042 72.3679C40.9077 72.3551 41.1094 72.3213 41.3062 72.2671C41.1269 72.3859 40.9174 72.4491 40.7034 72.4491C40.4893 72.4491 40.2799 72.3859 40.1006 72.2671V72.2687Z" fill="#2D3259"/>
<path d="M40.0928 72.7091C40.2905 72.7611 40.4926 72.7943 40.6963 72.8083C40.8997 72.7938 41.1012 72.7601 41.2983 72.7075C41.1261 72.8406 40.9123 72.906 40.6963 72.8915C40.4802 72.9055 40.2662 72.8408 40.0928 72.7091Z" fill="#2D3259"/>
<path d="M40.1006 73.1881C40.298 73.2414 40.5002 73.2746 40.7042 73.2873C40.9077 73.2745 41.1094 73.2407 41.3062 73.1865C41.1269 73.3053 40.9174 73.3685 40.7034 73.3685C40.4893 73.3685 40.2799 73.3053 40.1006 73.1865V73.1881Z" fill="#2D3259"/>
<path d="M40.6396 72.1347C40.6396 72.1235 40.731 72.0787 40.865 71.9747C40.9434 71.9162 41.0162 71.8503 41.0825 71.7779C41.1207 71.7357 41.1564 71.6914 41.1896 71.6451C41.2227 71.5971 41.2322 71.5539 41.2007 71.5267C41.1297 71.4627 41.0084 71.5507 40.9343 71.6179C40.8633 71.6825 40.8051 71.7601 40.7626 71.8467C40.6901 71.9955 40.6853 72.1043 40.6712 72.1027C40.6535 72.007 40.6673 71.908 40.7106 71.8211C40.7496 71.7236 40.8081 71.6353 40.8823 71.5619C40.9291 71.5164 40.9822 71.4781 41.0399 71.4483C41.0741 71.4282 41.1133 71.419 41.1527 71.4219C41.192 71.4247 41.2296 71.4395 41.2605 71.4643C41.2779 71.4795 41.2913 71.4989 41.2993 71.5207C41.3073 71.5425 41.3097 71.5661 41.3063 71.5891C41.3 71.6264 41.2848 71.6615 41.2621 71.6915C41.2254 71.7407 41.1854 71.7872 41.1424 71.8307C41.0714 71.9047 40.9914 71.9692 40.9044 72.0227C40.8274 72.083 40.7361 72.1217 40.6396 72.1347Z" fill="#2D3259"/>
<path d="M40.6785 72.1602C40.6643 72.1602 40.658 72.053 40.5981 71.8962C40.5641 71.8053 40.5185 71.7192 40.4626 71.6402C40.43 71.5935 40.3936 71.5497 40.3539 71.509C40.3329 71.487 40.3109 71.4662 40.2877 71.4466C40.2656 71.429 40.2373 71.4018 40.2262 71.4018C40.2152 71.4018 40.2404 71.4018 40.2388 71.3922C40.2375 71.4029 40.2375 71.4136 40.2388 71.4242C40.242 71.4543 40.2468 71.4842 40.253 71.5138C40.265 71.5684 40.2813 71.6219 40.3019 71.6738C40.3392 71.7636 40.388 71.8481 40.4468 71.925C40.5493 72.0562 40.6391 72.1138 40.6312 72.125C40.541 72.0961 40.4614 72.0404 40.4027 71.965C40.3321 71.8883 40.2746 71.8001 40.2325 71.7042C40.2075 71.6482 40.1879 71.5898 40.1742 71.5298C40.1673 71.4976 40.1621 71.465 40.1585 71.4322C40.1542 71.4111 40.1542 71.3893 40.1585 71.3682C40.1643 71.3491 40.1773 71.333 40.1947 71.3234C40.2115 71.3173 40.2299 71.3173 40.2467 71.3234C40.2822 71.3379 40.3144 71.3597 40.3413 71.3874C40.3659 71.4082 40.389 71.4306 40.4106 71.4546C40.4526 71.4991 40.4906 71.5473 40.5241 71.5986C40.5814 71.6856 40.625 71.7812 40.6533 71.8818C40.6861 71.9707 40.6948 72.0668 40.6785 72.1602Z" fill="#2D3259"/>
<path d="M39.6908 60.6995C32.7331 60.6995 25.2917 50.1795 21.3977 43.7571C21.3047 43.5971 21.2322 43.4819 21.1802 43.3987C21.0882 43.2536 21.0136 43.0978 20.958 42.9347C20.9359 42.8675 20.75 42.2739 21.1329 42.0771L21.2038 42.2211C20.9359 42.3571 21.0998 42.8611 21.1077 42.8835C21.1592 43.0342 21.2279 43.1781 21.3126 43.3123L21.5316 43.6723C28.4577 55.0963 35.1616 61.0739 40.4031 60.5011C42.7449 60.2451 46.609 58.7059 51.7165 52.8291C54.9313 49.1283 57.4339 45.0675 58.2565 43.3747C58.5953 42.6771 58.2911 42.5059 58.2785 42.4979L58.3479 42.3555C58.4408 42.4087 58.5097 42.4965 58.5401 42.6003C58.6126 42.8163 58.5653 43.1011 58.3967 43.4467C57.571 45.1443 55.0605 49.2227 51.8347 52.9363C48.998 56.2003 44.7147 60.1907 40.4204 60.6595C40.1781 60.6864 39.9345 60.6998 39.6908 60.6995Z" fill="#2D3259"/>
<path d="M57.6701 41.8309C57.6701 41.8309 56.3448 40.8357 55.9619 40.6405C55.5789 40.4453 55.0163 40.4805 54.9832 40.4485C54.9501 40.4165 54.4537 40.0005 54.4537 40.0005L53.3506 41.6005C53.3506 41.6005 54.4001 42.8229 54.9895 43.0133C55.5789 43.2037 55.8689 43.0485 55.8689 43.0485C55.8689 43.0485 56.255 43.2821 56.4315 42.9413C56.4315 42.9413 57.0855 43.1797 57.1233 42.6949C57.1233 42.6949 57.4054 43.1669 57.6638 43.2053C57.9223 43.2437 57.9144 43.0133 57.864 42.8229C57.8135 42.6325 57.3912 42.0965 57.3912 42.0965C57.3912 42.0965 57.6575 42.0469 57.6701 41.8309Z" fill="#A2675F"/>
<path d="M55.4297 42.4613L57.9512 42.7253C58.0379 42.7342 58.1245 42.708 58.1922 42.6522C58.2598 42.5964 58.3029 42.5157 58.3121 42.4277C58.3166 42.3841 58.3127 42.34 58.3004 42.2979C58.2881 42.2558 58.2678 42.2166 58.2406 42.1826C58.2133 42.1485 58.1797 42.1203 58.1417 42.0995C58.1036 42.0787 58.0619 42.0657 58.0189 42.0613L55.4975 41.7973C55.4545 41.7926 55.4111 41.7967 55.3697 41.8091C55.3282 41.8216 55.2896 41.8422 55.2561 41.8699C55.2226 41.8975 55.1947 41.9317 55.1742 41.9703C55.1537 42.0089 55.1409 42.0512 55.1366 42.0949C55.132 42.1385 55.136 42.1826 55.1483 42.2247C55.1605 42.2667 55.1809 42.3059 55.2081 42.34C55.2354 42.374 55.269 42.4023 55.307 42.4231C55.345 42.4439 55.3867 42.4569 55.4297 42.4613Z" fill="#2D3259"/>
<path d="M57.5773 42.015C57.155 42.175 56.6617 41.9526 56.408 41.6566C56.3031 41.7528 56.1746 41.8186 56.0361 41.847C55.9151 41.8796 55.7908 41.8973 55.6657 41.8998C55.1504 41.863 54.8242 41.6742 54.4365 41.3286" fill="#A2675F"/>
<path d="M54.4365 41.3285C54.446 41.3157 54.5941 41.4517 54.8557 41.6149C55.0115 41.7076 55.1806 41.7751 55.3569 41.8149C55.4607 41.8376 55.566 41.8526 55.672 41.8597C55.7848 41.8556 55.8969 41.839 56.0061 41.8101C56.0775 41.7939 56.1471 41.7709 56.2141 41.7413C56.274 41.7188 56.3279 41.6827 56.3717 41.6357L56.4017 41.5925L56.4363 41.6293C56.6402 41.8596 56.921 42.005 57.2243 42.0373C57.3445 42.0424 57.4649 42.0349 57.5836 42.0149C57.5559 42.034 57.5249 42.0476 57.4922 42.0549C57.4044 42.0817 57.3127 42.0931 57.2211 42.0885C56.9007 42.0704 56.6 41.925 56.3843 41.6837H56.4474C56.3959 41.7465 56.3291 41.7946 56.2535 41.8229C56.1819 41.8549 56.1075 41.8801 56.0313 41.8981C55.9145 41.929 55.7944 41.9457 55.6736 41.9477C55.5632 41.9393 55.4536 41.9222 55.3458 41.8965C55.1632 41.8516 54.9894 41.7753 54.8321 41.6709C54.7273 41.602 54.6286 41.5238 54.5374 41.4373C54.4984 41.4066 54.4643 41.3699 54.4365 41.3285Z" fill="#6F4C47"/>
<path d="M57.112 42.6877C57.0818 42.5523 57.0341 42.4216 56.9702 42.2989C56.9443 42.2404 56.906 42.1885 56.8581 42.1467C56.8101 42.105 56.7537 42.0744 56.6929 42.0573C56.6319 42.0428 56.5679 42.051 56.5123 42.0803C56.4568 42.1097 56.4135 42.1583 56.3903 42.2173C56.3777 42.2769 56.3777 42.3385 56.3903 42.3981C56.4155 42.5693 56.4407 42.7405 56.4675 42.9117" fill="#A2675F"/>
<path d="M56.471 42.9175C56.4342 42.832 56.4103 42.7414 56.4001 42.6487C56.3844 42.5639 56.3654 42.4679 56.3481 42.3527C56.3357 42.2864 56.3451 42.2178 56.3749 42.1575C56.4122 42.0932 56.4727 42.0462 56.5435 42.0263C56.6092 42.0081 56.6787 42.0096 56.7436 42.0306C56.8084 42.0516 56.8659 42.0912 56.9091 42.1447C56.975 42.2248 57.0248 42.3172 57.0557 42.4167C57.0989 42.5003 57.1185 42.5944 57.1124 42.6887C57.1014 42.6887 57.0778 42.5895 57.0021 42.4391C56.9659 42.3509 56.9159 42.2693 56.854 42.1975C56.8197 42.1565 56.7748 42.1262 56.7243 42.1101C56.6739 42.0939 56.6199 42.0926 56.5687 42.1063C56.518 42.12 56.4741 42.1525 56.4458 42.1975C56.4224 42.2426 56.4146 42.2945 56.4238 42.3447C56.4348 42.4455 56.4474 42.5447 56.4584 42.6407C56.4757 42.7318 56.4799 42.8251 56.471 42.9175Z" fill="#6F4C47"/>
<path d="M55.8723 43.0628C55.9084 42.8625 55.8808 42.6557 55.7935 42.4724C55.7523 42.4107 55.7065 42.3524 55.6564 42.298C55.6061 42.2422 55.5704 42.1745 55.5524 42.1012C55.5437 42.0644 55.5453 42.0259 55.557 41.99C55.5687 41.9541 55.59 41.9222 55.6186 41.898C55.6549 41.879 55.6951 41.8691 55.736 41.8691C55.7768 41.8691 55.8171 41.879 55.8534 41.898C56.0612 41.9695 56.2343 42.1188 56.3372 42.3156C56.4162 42.5189 56.4496 42.7375 56.4349 42.9556" fill="#A2675F"/>
<path d="M56.4377 42.9551C56.4219 42.9551 56.4282 42.7951 56.3825 42.5455C56.3564 42.403 56.2908 42.2709 56.1934 42.1647C56.0734 42.0371 55.9187 41.9485 55.749 41.9103C55.7309 41.9059 55.7121 41.9055 55.6939 41.9091C55.6757 41.9128 55.6585 41.9205 55.6435 41.9316C55.6285 41.9427 55.616 41.957 55.607 41.9735C55.598 41.99 55.5927 42.0083 55.5914 42.0272C55.5887 42.0662 55.5937 42.1055 55.6062 42.1426C55.6186 42.1797 55.6383 42.2139 55.6639 42.2431C55.7112 42.3087 55.7695 42.3663 55.812 42.4351C55.8513 42.4982 55.8786 42.5683 55.8924 42.6416C55.908 42.7444 55.908 42.8491 55.8924 42.952C55.891 42.9899 55.883 43.0273 55.8688 43.0624C55.8688 43.0624 55.8688 43.0223 55.8688 42.9503C55.8691 42.8509 55.859 42.7517 55.8388 42.6543C55.8233 42.5895 55.7961 42.5282 55.7585 42.4735C55.7191 42.4143 55.6607 42.3599 55.6009 42.2895C55.5678 42.2525 55.5424 42.209 55.5264 42.1617C55.5105 42.1144 55.5041 42.0642 55.5079 42.0143C55.5106 41.9852 55.5194 41.9569 55.5336 41.9314C55.5477 41.9058 55.567 41.8836 55.5902 41.8661C55.6134 41.8486 55.6399 41.8363 55.6681 41.8298C55.6962 41.8234 55.7254 41.823 55.7537 41.8287C55.9428 41.8672 56.1147 41.9665 56.2438 42.112C56.3472 42.2305 56.4135 42.3775 56.4345 42.5343C56.4487 42.6366 56.4529 42.74 56.4471 42.8431C56.4509 42.8808 56.4477 42.9188 56.4377 42.9551Z" fill="#6F4C47"/>
<path d="M55.3792 43.0103C55.4023 42.9598 55.4133 42.9046 55.4114 42.849C55.4095 42.7934 55.3947 42.739 55.3682 42.6903C55.3143 42.6419 55.2551 42.6 55.1917 42.5655C55.1639 42.542 55.1411 42.513 55.1248 42.4802C55.1085 42.4474 55.0991 42.4115 55.0971 42.3748C55.0951 42.3382 55.1005 42.3015 55.1131 42.267C55.1257 42.2326 55.1452 42.2011 55.1702 42.1747C55.1953 42.1482 55.2255 42.1273 55.2589 42.1132C55.2924 42.0991 55.3283 42.0922 55.3644 42.0928C55.4006 42.0935 55.4363 42.1017 55.4692 42.1169C55.5021 42.1322 55.5316 42.1542 55.5557 42.1815C55.5557 42.1815 55.915 42.4887 55.8709 42.8039" fill="#A2675F"/>
<path d="M55.8717 42.8069C55.8624 42.7414 55.8482 42.6767 55.8292 42.6133C55.764 42.4584 55.6629 42.3217 55.5345 42.2149C55.5 42.1791 55.4553 42.1551 55.4068 42.1463C55.3582 42.1374 55.3081 42.144 55.2634 42.1653C55.212 42.1942 55.1735 42.242 55.1559 42.2989C55.1383 42.3558 55.1429 42.4174 55.1689 42.4709C55.2083 42.5765 55.3438 42.5909 55.4084 42.6933C55.4273 42.7306 55.4384 42.7714 55.4411 42.8133C55.4438 42.8551 55.438 42.897 55.4242 42.9365C55.4069 42.9893 55.3927 43.0165 55.3879 43.0149C55.3832 43.0133 55.3879 42.9829 55.3879 42.9301C55.4013 42.8607 55.3901 42.7888 55.3564 42.7269C55.3243 42.6905 55.2844 42.662 55.2398 42.6437C55.1785 42.6142 55.1282 42.5654 55.0964 42.5045C55.0631 42.4349 55.0548 42.3557 55.0728 42.2805C55.0827 42.2386 55.1021 42.1995 55.1295 42.1665C55.1568 42.1334 55.1913 42.1073 55.2303 42.0901C55.2911 42.0613 55.3593 42.0529 55.425 42.0662C55.4908 42.0794 55.5506 42.1136 55.596 42.1637C55.7312 42.282 55.8315 42.4359 55.8859 42.6085C55.9065 42.674 55.9014 42.7451 55.8717 42.8069Z" fill="#6F4C47"/>
<path d="M21.653 41.424C21.653 41.424 23.0319 40.5168 23.4322 40.3504C23.8325 40.184 24.3778 40.2592 24.4203 40.224L24.9861 39.728L25.971 41.4096C25.971 41.4096 24.8474 42.64 24.247 42.792C23.6465 42.944 23.3676 42.7696 23.3676 42.7696C23.3676 42.7696 22.9673 42.9792 22.8129 42.6272C22.8129 42.6272 22.1447 42.8224 22.1368 42.336C22.1368 42.336 21.8216 42.7888 21.5663 42.816C21.311 42.8432 21.3268 42.6096 21.3898 42.4224C21.4529 42.2352 21.9115 41.728 21.9115 41.728C21.9115 41.728 21.6514 41.64 21.653 41.424Z" fill="#A2675F"/>
<path d="M23.8499 42.1992L21.3143 42.2984C21.2712 42.3003 21.2281 42.2935 21.1876 42.2785C21.1471 42.2634 21.1099 42.2403 21.0783 42.2105C21.0466 42.1808 21.0211 42.1449 21.0032 42.1051C20.9853 42.0652 20.9753 42.0222 20.9739 41.9784C20.9705 41.89 21.0017 41.8037 21.0608 41.7387C21.1199 41.6736 21.202 41.6349 21.2891 41.6312L23.8247 41.532C23.8677 41.5303 23.9107 41.5372 23.9511 41.5524C23.9915 41.5675 24.0286 41.5906 24.0602 41.6203C24.0919 41.6501 24.1174 41.6858 24.1354 41.7256C24.1534 41.7653 24.1635 41.8083 24.1651 41.852C24.1685 41.9404 24.1372 42.0266 24.0782 42.0917C24.0191 42.1568 23.937 42.1954 23.8499 42.1992Z" fill="#2D3259"/>
<path d="M21.7344 41.6134C22.1441 41.7974 22.65 41.6134 22.9226 41.3318C23.0212 41.4347 23.1454 41.5088 23.2819 41.5462C23.4008 41.5868 23.5241 41.6126 23.6491 41.623C24.1644 41.623 24.5017 41.4534 24.9098 41.1318" fill="#A2675F"/>
<path d="M24.9103 41.1316C24.9103 41.1316 24.8804 41.1716 24.811 41.2276C24.7127 41.3091 24.6072 41.3814 24.4959 41.4436C24.3319 41.5372 24.1533 41.6016 23.9679 41.634C23.8592 41.6533 23.749 41.6635 23.6386 41.6644C23.5185 41.6551 23.3999 41.6309 23.2856 41.5924C23.2104 41.5697 23.1375 41.5397 23.0681 41.5028C22.9943 41.4691 22.9303 41.4167 22.8821 41.3508L22.9452 41.3604C22.7146 41.5873 22.4058 41.7136 22.0847 41.7124C21.9928 41.7095 21.9019 41.6923 21.8152 41.6612C21.7569 41.6356 21.727 41.618 21.7286 41.6132C21.8452 41.6426 21.9646 41.6587 22.0847 41.6612C22.3871 41.646 22.6735 41.5191 22.89 41.3044L22.9247 41.2676L22.9531 41.314C22.9959 41.3644 23.0499 41.4039 23.1106 41.4292C23.1757 41.4633 23.2437 41.4912 23.3139 41.5124C23.4209 41.5478 23.5313 41.5714 23.6433 41.5828C23.7488 41.5829 23.8542 41.5749 23.9585 41.5588C24.1368 41.5305 24.3097 41.4738 24.4706 41.3908C24.7496 41.2452 24.9024 41.1204 24.9103 41.1316Z" fill="#6F4C47"/>
<path d="M22.1553 42.3167C22.1913 42.1838 22.2442 42.0563 22.3129 41.9375C22.3421 41.8807 22.3834 41.8313 22.4339 41.7928C22.4843 41.7543 22.5426 41.7278 22.6044 41.7151C22.6665 41.7045 22.7303 41.7171 22.7839 41.7507C22.8375 41.7842 22.8774 41.8364 22.8959 41.8975C22.9043 41.958 22.9 42.0196 22.8833 42.0783C22.8471 42.2479 22.8108 42.4159 22.773 42.5855" fill="#A2675F"/>
<path d="M22.7785 42.5855C22.7751 42.4928 22.7852 42.4 22.8085 42.3103C22.8258 42.2143 22.8447 42.1183 22.862 42.0175C22.874 41.9678 22.8696 41.9156 22.8494 41.8687C22.8239 41.8222 22.7824 41.7869 22.7328 41.7695C22.6823 41.7526 22.6282 41.7506 22.5766 41.7636C22.525 41.7766 22.4781 41.8042 22.4413 41.8431C22.3772 41.9116 22.324 41.9899 22.2837 42.0751C22.2002 42.2207 22.1702 42.3183 22.1592 42.3167C22.1585 42.2218 22.1841 42.1286 22.2333 42.0479C22.2692 41.9512 22.3226 41.8622 22.3909 41.7855C22.4377 41.7357 22.4976 41.7004 22.5634 41.6837C22.6292 41.667 22.6983 41.6696 22.7628 41.6911C22.8301 41.7128 22.8862 41.7606 22.919 41.8242C22.9517 41.8877 22.9585 41.9618 22.9377 42.0303C22.9141 42.1439 22.8888 42.2399 22.8668 42.3231C22.8512 42.4148 22.8214 42.5033 22.7785 42.5855Z" fill="#6F4C47"/>
<path d="M23.3673 42.7702C23.3437 42.568 23.384 42.3635 23.4823 42.1862C23.5281 42.1295 23.5776 42.076 23.6305 42.0262C23.6844 41.9735 23.7244 41.9081 23.7471 41.8358C23.7579 41.7997 23.7586 41.7613 23.7491 41.7248C23.7397 41.6884 23.7204 41.6553 23.6935 41.6294C23.6585 41.6079 23.619 41.5951 23.5782 41.592C23.5374 41.589 23.4965 41.5957 23.4587 41.6118C23.2464 41.6698 23.0642 41.8084 22.9497 41.999C22.8571 42.1991 22.8102 42.4179 22.8126 42.639" fill="#A2675F"/>
<path d="M22.8127 42.6275C22.8127 42.6275 22.8033 42.5875 22.8049 42.5139C22.8056 42.4107 22.8161 42.3079 22.8364 42.2067C22.867 42.0517 22.9428 41.9096 23.0539 41.7987C23.1917 41.662 23.3689 41.5734 23.5597 41.5459C23.5886 41.5419 23.618 41.544 23.646 41.5523C23.6739 41.5606 23.6999 41.5748 23.722 41.594C23.7442 41.6132 23.7622 41.637 23.7746 41.6637C23.7871 41.6904 23.7939 41.7196 23.7945 41.7491C23.7948 41.7992 23.7851 41.8487 23.7662 41.8949C23.7472 41.941 23.7194 41.9829 23.6842 42.0179C23.6259 42.0835 23.5644 42.1347 23.5266 42.1907C23.4856 42.2425 23.4546 42.3017 23.4352 42.3651C23.4081 42.4606 23.3918 42.5588 23.3864 42.6579C23.3864 42.7299 23.3785 42.7699 23.3722 42.7699C23.3592 42.7341 23.3533 42.6961 23.3549 42.6579C23.3472 42.5543 23.3557 42.4501 23.3801 42.3491C23.3972 42.2765 23.4283 42.208 23.4715 42.1475C23.5187 42.0835 23.5802 42.0291 23.6291 41.9667C23.6838 41.9104 23.7149 41.8347 23.7157 41.7555C23.7156 41.7367 23.7113 41.7182 23.7034 41.7012C23.6955 41.6842 23.684 41.6692 23.6697 41.6571C23.6555 41.6451 23.6388 41.6364 23.6209 41.6315C23.603 41.6267 23.5843 41.6259 23.566 41.6291C23.3947 41.6561 23.2351 41.7341 23.1074 41.8531C23.004 41.9532 22.9303 42.0807 22.8947 42.2211C22.8317 42.4659 22.8285 42.6291 22.8127 42.6275Z" fill="#6F4C47"/>
<path d="M23.8655 42.7493C23.8459 42.6972 23.8385 42.6411 23.8439 42.5855C23.8494 42.53 23.8676 42.4765 23.897 42.4293C23.9537 42.3848 24.015 42.3467 24.0798 42.3157C24.1096 42.2943 24.1346 42.2669 24.1533 42.2351C24.1721 42.2034 24.1841 42.168 24.1887 42.1313C24.1933 42.0946 24.1903 42.0573 24.1799 42.0218C24.1695 41.9863 24.152 41.9534 24.1285 41.9251C24.1049 41.8969 24.0758 41.8739 24.0431 41.8577C24.0103 41.8414 23.9746 41.8323 23.9382 41.8308C23.9017 41.8293 23.8654 41.8355 23.8315 41.849C23.7975 41.8625 23.7667 41.8831 23.741 41.9093C23.741 41.9093 23.3628 42.1925 23.3912 42.5109" fill="#A2675F"/>
<path d="M23.3911 42.5157C23.379 42.4819 23.3737 42.446 23.3753 42.41C23.3769 42.374 23.3855 42.3387 23.4006 42.3061C23.4653 42.1381 23.5744 41.9914 23.7158 41.8822C23.7641 41.8352 23.8259 41.8051 23.8922 41.7962C23.9585 41.7873 24.0258 41.8 24.0845 41.8326C24.121 41.8532 24.1524 41.8818 24.1764 41.9165C24.2004 41.9511 24.2164 41.9908 24.2232 42.0326C24.2368 42.1089 24.2234 42.1876 24.1854 42.2549C24.1486 42.3145 24.0931 42.3596 24.0278 42.3829C23.9831 42.3993 23.9424 42.4249 23.908 42.4581C23.8696 42.5176 23.8539 42.5893 23.8639 42.6597C23.8639 42.7141 23.8639 42.7445 23.8639 42.7445C23.8639 42.7445 23.8466 42.7189 23.834 42.6645C23.822 42.6244 23.8185 42.5821 23.8236 42.5405C23.8288 42.4989 23.8425 42.4588 23.8639 42.4229C23.9332 42.3238 24.0703 42.3189 24.116 42.2165C24.1459 42.165 24.1546 42.1037 24.1405 42.0457C24.1264 41.9877 24.0904 41.9376 24.0404 41.9062C23.9974 41.882 23.9482 41.872 23.8993 41.8775C23.8505 41.8829 23.8046 41.9035 23.7678 41.9366C23.6348 42.0361 23.5268 42.166 23.4526 42.3157C23.4268 42.3806 23.4063 42.4475 23.3911 42.5157Z" fill="#6F4C47"/>
<path d="M34.3373 40.8003C33.2704 42.4691 31.9514 44.0003 32.6984 48.3939C33.4611 52.8739 35.2608 58.1315 35.2608 58.1315C35.2608 58.1315 34.7486 60.3827 35.2403 62.3379C35.5265 63.3976 35.926 64.4224 36.4317 65.3939C36.7016 65.922 36.8974 66.4859 37.0132 67.0691C37.0889 67.4483 37.1566 67.7859 37.1503 67.7283C37.2133 67.8972 37.3254 68.0427 37.4718 68.1453C37.6182 68.248 37.7919 68.303 37.9698 68.303C38.1477 68.303 38.3214 68.248 38.4678 68.1453C38.6141 68.0427 38.7263 67.8972 38.7893 67.7283C38.7893 67.7283 38.8964 65.0579 38.7893 63.6739C38.6821 62.2899 38.7893 60.0019 38.7893 60.0019C38.7893 60.0019 39.0256 58.1891 39.0745 56.5203C39.1233 54.8515 39.0745 48.6515 39.0745 48.6515L39.2321 41.2451L34.3373 40.8003Z" fill="#2D3259"/>
<path d="M39.8369 68.9731C39.8369 68.9731 39.9945 70.0579 40.0796 70.4531C40.1757 70.8867 40.4925 71.2019 40.7998 71.2115C41.293 71.2243 41.4806 70.8275 41.5688 70.4307C41.6571 70.0339 41.7973 68.9907 41.7973 68.9907L39.8369 68.9731Z" fill="#A2675F"/>
<path d="M44.704 40.938C45.2079 42.5813 45.5577 44.2694 45.7488 45.9796C46.116 49.7444 43.5299 55.0436 43.3046 57.426C43.0792 59.8084 43.3046 61.7252 43.2652 63.0068C43.2069 65.298 41.9887 69.1956 41.9887 69.1956C41.3063 69.9956 40.8414 70.0548 39.8376 69.3348C39.8376 69.3348 39.2513 66.4964 39.3648 64.4356C39.4783 62.3748 39.6185 60.2116 39.6185 60.2116C39.6185 60.2116 39.0512 57.7844 39.0607 57.5204C39.0701 57.2564 39.0607 45.154 39.0607 45.154L39.2356 41.2804L44.704 40.938Z" fill="#2D3259"/>
<path d="M33.3726 43.4342C33.3688 43.4474 33.364 43.4602 33.3584 43.4726L33.3143 43.5814C33.2749 43.6774 33.2166 43.8198 33.1567 44.0054C32.9709 44.5306 32.8646 45.0814 32.8415 45.639C32.821 46.4662 32.8876 47.2933 33.04 48.1062C33.1976 49.0262 33.4356 50.0262 33.6704 51.0822C34.1432 53.191 34.6286 55.0822 35.0761 56.423C35.2983 57.095 35.4985 57.6294 35.6403 57.9974L35.8073 58.4214C35.8247 58.4662 35.8373 58.503 35.8499 58.5318C35.8553 58.5446 35.859 58.5581 35.8609 58.5718C35.8532 58.5604 35.8468 58.548 35.842 58.535L35.7916 58.4278C35.7506 58.3334 35.6876 58.1926 35.6103 58.0102C35.4528 57.6454 35.2495 57.1126 35.0225 56.4422C34.4494 54.6893 33.9712 52.9058 33.59 51.0998C33.36 50.0454 33.1173 49.0438 32.9597 48.119C32.8101 47.3005 32.7498 46.4677 32.78 45.6358C32.8077 45.0759 32.9226 44.524 33.1204 44.0006C33.1929 43.8166 33.2544 43.6806 33.2985 43.5814L33.3521 43.4758C33.3631 43.4454 33.371 43.4326 33.3726 43.4342Z" fill="white"/>
<path d="M38.3462 59.2191C38.3462 59.2191 38.321 59.2623 38.2611 59.3295C38.2257 59.372 38.1855 59.4101 38.1414 59.4431C38.0864 59.4904 38.0267 59.5317 37.9633 59.5663C37.7765 59.6668 37.5706 59.7253 37.3596 59.7377C37.1485 59.7502 36.9373 59.7162 36.7404 59.6383C36.5248 59.5532 36.3241 59.4333 36.1463 59.2831C36.0045 59.159 35.8766 59.0195 35.7649 58.8671L35.642 58.6895L35.5632 58.5455C35.5373 58.5062 35.5176 58.463 35.5049 58.4175C35.5049 58.4175 35.5411 58.4543 35.59 58.5279L35.6798 58.6623L35.8106 58.8319C35.9266 58.9743 36.0553 59.1056 36.1951 59.2239C36.3688 59.3643 36.5621 59.4776 36.7688 59.5599C36.9558 59.6342 37.1559 59.6685 37.3566 59.6605C37.5573 59.6525 37.7542 59.6025 37.9349 59.5135C38.0805 59.4282 38.2182 59.3296 38.3462 59.2191Z" fill="#2D3259"/>
<path d="M42.635 59.7983C42.5655 59.8958 42.4777 59.9785 42.3766 60.0415C42.1396 60.2064 41.8698 60.3162 41.5862 60.3632C41.3027 60.4103 41.0124 60.3933 40.7361 60.3135C40.6225 60.2859 40.5154 60.2359 40.4209 60.1663C40.4209 60.1535 40.5501 60.2095 40.7566 60.2575C41.0269 60.3171 41.3059 60.3253 41.5792 60.2815C41.8523 60.2353 42.1143 60.137 42.3514 59.9919C42.5232 59.8799 42.6224 59.7871 42.635 59.7983Z" fill="#2D3259"/>
<path d="M39.0962 47.5298C39.0985 47.5633 39.0985 47.597 39.0962 47.6306V47.9218C39.0962 48.1858 39.0962 48.549 39.1073 48.9922C39.1073 49.9058 39.1073 51.1506 39.1073 52.525C39.1073 53.8994 39.0899 55.1442 39.0852 56.0578C39.0773 56.501 39.071 56.8578 39.0679 57.1282C39.0679 57.2466 39.0679 57.3442 39.0584 57.4194C39.0593 57.4532 39.0561 57.4871 39.049 57.5202C39.043 57.4869 39.0404 57.4532 39.0411 57.4194C39.0411 57.3442 39.0411 57.2466 39.0411 57.1282C39.0411 56.8642 39.0411 56.501 39.0332 56.0578C39.0332 55.1442 39.0332 53.8994 39.0332 52.525C39.0332 51.1506 39.0474 49.9058 39.0537 48.9922C39.0537 48.549 39.0647 48.1922 39.0694 47.9218C39.0694 47.8034 39.0694 47.7058 39.0773 47.6306C39.0796 47.5963 39.0859 47.5625 39.0962 47.5298Z" fill="#2D3259"/>
<path d="M41.9443 45.669C41.053 45.8536 40.2525 46.3467 39.6797 47.0642C39.7389 46.9413 39.8165 46.8285 39.9098 46.7298C40.1219 46.4781 40.3719 46.2621 40.6504 46.0898C40.928 45.9189 41.23 45.7926 41.5456 45.7154C41.6751 45.678 41.8098 45.6623 41.9443 45.669Z" fill="#2D3259"/>
<path d="M39.0947 47.5304C39.0769 47.4755 39.0553 47.4221 39.0301 47.3704C38.9452 47.2388 38.8429 47.1198 38.7259 47.0168C38.3347 46.6734 37.9126 46.3681 37.4652 46.1048C37.0229 45.8319 36.5615 45.5924 36.0847 45.388C35.9403 45.3271 35.7918 45.2769 35.6403 45.2376C35.5331 45.212 35.4717 45.212 35.4717 45.204C35.5293 45.1911 35.589 45.1911 35.6466 45.204C35.8033 45.231 35.9569 45.2738 36.1052 45.332C36.5924 45.5214 37.0614 45.756 37.5062 46.0328C37.9597 46.297 38.3825 46.612 38.7669 46.972C38.8846 47.0822 38.9836 47.2114 39.06 47.3544C39.0902 47.4076 39.1023 47.4694 39.0947 47.5304Z" fill="#2D3259"/>
<path d="M37.3848 67.6993C37.3769 67.6993 37.3848 67.5665 37.3548 67.3329C37.3077 67.0028 37.2193 66.6802 37.0916 66.3729C36.9341 65.9809 36.7056 65.5361 36.4818 65.0241C36.2378 64.4674 36.0334 63.8936 35.8703 63.3073C35.5739 62.2418 35.4192 61.1408 35.4102 60.0337C35.4102 59.6097 35.4275 59.2657 35.4464 59.0305C35.4574 58.9201 35.4669 58.8305 35.4748 58.7585C35.4766 58.7265 35.4819 58.6948 35.4905 58.6641C35.4946 58.6959 35.4946 58.7282 35.4905 58.7601L35.4779 59.0321C35.47 59.2689 35.4574 59.6097 35.4685 60.0321C35.5076 61.7412 35.8754 63.4261 36.5511 64.9921C36.7702 65.5041 37.0002 65.9521 37.1452 66.3521C37.2697 66.6639 37.3509 66.9919 37.3863 67.3265C37.3946 67.4174 37.3972 67.5088 37.3942 67.6001C37.3953 67.6334 37.3921 67.6667 37.3848 67.6993Z" fill="white"/>
<path d="M43.0596 60.1284C43.0684 60.1596 43.0727 60.192 43.0722 60.2244C43.0722 60.2964 43.0848 60.3844 43.0927 60.4996C43.1006 60.6148 43.11 60.7668 43.1132 60.938C43.1164 61.1092 43.1242 61.3028 43.1132 61.5172C43.1132 61.9476 43.0911 62.4596 43.0486 63.0276C43.006 63.5956 42.9304 64.2148 42.8295 64.8628C42.6525 65.9689 42.4163 67.0644 42.122 68.1444C42.0101 68.5588 41.9124 68.8932 41.8399 69.122C41.8052 69.2292 41.7784 69.3156 41.7563 69.3844C41.7475 69.4153 41.7359 69.4453 41.7217 69.474C41.7237 69.4418 41.7301 69.41 41.7406 69.3796C41.7579 69.3092 41.7816 69.2196 41.8099 69.1124C41.8714 68.8804 41.9675 68.5444 42.0652 68.13C42.2764 67.298 42.538 66.1428 42.7492 64.85C42.8484 64.21 42.9225 63.5844 42.9729 63.0212C43.0234 62.458 43.0486 61.946 43.0549 61.5172C43.0549 61.3028 43.0549 61.1092 43.0549 60.938C43.0549 60.7668 43.0549 60.618 43.0549 60.5012C43.0549 60.3844 43.0549 60.2964 43.0549 60.2244C43.0531 60.1923 43.0546 60.1602 43.0596 60.1284Z" fill="white"/>
<path d="M44.9255 43.5552C44.9335 43.5671 44.9399 43.58 44.9444 43.5936C44.9586 43.6224 44.976 43.6608 44.9964 43.7072C45.0169 43.7536 45.0469 43.8192 45.0737 43.8944C45.1005 43.9696 45.132 44.0544 45.1651 44.1568C45.3388 44.7218 45.4327 45.309 45.444 45.9008C45.4561 46.7767 45.3806 47.6516 45.2187 48.512C45.0369 49.5667 44.7959 50.61 44.4969 51.6368C44.1896 52.7328 43.8571 53.7648 43.5939 54.7104C43.371 55.5526 43.2129 56.4112 43.1211 57.2784C43.0439 58.0192 43.0218 58.6224 43.014 59.0384C43.014 59.2416 43.014 59.4032 43.014 59.5184V59.6432C43.0164 59.6575 43.0164 59.6721 43.014 59.6864C43.0119 59.6721 43.0119 59.6575 43.014 59.6432C43.014 59.6112 43.014 59.5696 43.014 59.5184C43.014 59.4096 43.0061 59.248 43.0029 59.0384C43.0029 58.6208 43.0155 58.016 43.0849 57.2784C43.1675 56.4067 43.3187 55.5431 43.5372 54.696C43.7988 53.744 44.1281 52.7136 44.4354 51.6192C44.7327 50.5948 44.9752 49.5549 45.1619 48.504C45.3258 47.6485 45.4065 46.7787 45.403 45.9072C45.3922 45.3151 45.3021 44.7273 45.1351 44.16C45.1036 44.0608 45.0752 43.9728 45.0516 43.896C45.028 43.8192 44.9996 43.7584 44.9807 43.7072L44.9381 43.5904C44.9327 43.5791 44.9285 43.5673 44.9255 43.5552Z" fill="white"/>
<path d="M43.5984 26.0809C43.5984 26.0809 45.6392 26.5609 46.5737 28.9401C46.5737 28.9401 47.0465 30.0729 47.5539 31.4825C48.0614 32.8921 48.8982 34.7865 48.8982 34.7865L54.4533 40.0009L53.4273 41.6553C53.4273 41.6553 47.6926 38.1593 46.9661 37.4585C46.2002 36.7145 44.3297 31.7705 44.3297 31.7705L42.8184 25.9209L43.5984 26.0809Z" fill="#A2675F"/>
<path d="M35.6694 26.0225C35.6694 26.0225 33.6853 26.3857 32.7556 28.7697C32.7556 28.7697 32.2828 29.9041 31.7754 31.3121C31.2679 32.7201 30.4311 34.6177 30.4311 34.6177L24.8682 39.8401L25.8941 41.4929C25.8941 41.4929 31.6288 37.9985 32.3553 37.2961C33.1038 36.5697 34.9114 31.8209 34.9902 31.6161V31.6017L36.418 25.9121L35.6694 26.0225Z" fill="#A2675F"/>
<path d="M34.7343 32.1601C34.7343 32.1601 35.0794 36.4321 35.1283 37.0849C35.2102 38.1745 33.357 41.2817 32.7881 43.2289C32.7881 43.2289 36.0108 45.2833 39.5771 45.1489C43.1433 45.0145 45.4331 43.1505 45.4331 43.1505C45.1605 41.3521 43.8998 38.7057 43.8021 37.0705L44.4183 33.1985C44.5235 32.0916 44.4473 30.9746 44.1929 29.8929L43.0425 25.9601L41.1955 25.6401C41.1955 25.6401 41.216 27.5201 39.295 27.5281C37.593 27.5409 37.5804 25.7681 37.5804 25.7681L35.9352 25.9697L34.7343 32.1601Z" fill="#33BDED"/>
<path d="M34.8984 34.1987C34.8984 34.1987 38.5624 36.2547 38.1101 37.0787C37.6578 37.9027 35.1254 37.2643 35.1254 37.2643L34.8984 34.1987Z" fill="#A2675F"/>
<path d="M44.2999 33.9351C44.2999 33.9351 40.576 36.2215 41.0283 37.0487C41.4806 37.8759 43.8019 37.0695 43.8019 37.0695L44.2999 33.9351Z" fill="#A2675F"/>
<path d="M34.4855 29.6255C34.5226 29.7735 34.5469 29.9244 34.558 30.0767C34.5958 30.3823 34.6431 30.7551 34.6951 31.1679C34.7471 31.5807 34.7818 31.9823 34.7976 32.2639C34.8131 32.416 34.8131 32.5694 34.7976 32.7215C34.7641 32.5726 34.743 32.4211 34.7345 32.2687C34.6983 31.9631 34.6557 31.5903 34.6085 31.1775C34.5612 30.7647 34.5139 30.3647 34.4934 30.0831C34.4753 29.9312 34.4727 29.7779 34.4855 29.6255Z" fill="#6F4C47"/>
<path d="M38.9784 33.6004C38.9784 33.6004 38.9406 33.6404 38.8602 33.6932C38.7462 33.7668 38.6253 33.829 38.4994 33.8788C38.0809 34.0492 37.6244 34.0994 37.1796 34.0241C36.7349 33.9488 36.3192 33.7507 35.9779 33.4516C35.8746 33.3625 35.7802 33.2633 35.6958 33.1556C35.6617 33.1181 35.6336 33.0755 35.6123 33.0292C35.6249 33.0196 35.751 33.1892 36.0142 33.4052C36.3561 33.6842 36.763 33.8694 37.1957 33.9428C37.6284 34.0162 38.0724 33.9754 38.4852 33.8244C38.7956 33.7108 38.9706 33.5876 38.9784 33.6004Z" fill="#2D3259"/>
<g opacity="0.3">
<path opacity="0.3" d="M35.7949 33.2437C35.9013 33.5807 36.0982 33.8809 36.3636 34.1104C36.6289 34.34 36.9521 34.4897 37.2968 34.5428C37.9917 34.6276 38.6946 34.17 39.0665 33.5685C38.5606 33.8245 38.1367 34.0116 37.5363 34.018C36.9359 34.0244 36.1684 33.7221 35.7949 33.2437Z" fill="#2D3259"/>
</g>
<path d="M40.7432 33.5105C40.7432 33.4977 40.926 33.6193 41.2427 33.7345C41.6562 33.8816 42.0991 33.9223 42.5318 33.8529C42.9634 33.7768 43.3692 33.5919 43.7122 33.3153C43.9769 33.1025 44.103 32.9297 44.114 32.9393C44.0938 32.9858 44.0661 33.0285 44.0321 33.0657C43.9476 33.1729 43.8531 33.2715 43.75 33.3601C43.4085 33.6589 42.9929 33.8568 42.5483 33.9324C42.1037 34.008 41.6473 33.9584 41.2285 33.7889C41.1023 33.739 40.9814 33.6763 40.8677 33.6017C40.7873 33.5489 40.7432 33.5153 40.7432 33.5105Z" fill="#2D3259"/>
<g opacity="0.3">
<path opacity="0.3" d="M43.9327 33.1538C43.826 33.4907 43.629 33.7907 43.3637 34.0201C43.0984 34.2496 42.7754 34.3995 42.4309 34.453C41.7343 34.5362 41.033 34.0802 40.6611 33.477C41.167 33.7346 41.5909 33.9218 42.1913 33.9282C42.7918 33.9346 43.5576 33.6306 43.9327 33.1538Z" fill="#2D3259"/>
</g>
<path d="M43.342 40.6982C43.3197 40.7144 43.296 40.7283 43.2711 40.7398L43.0615 40.8438C42.8771 40.9318 42.6108 41.0582 42.2735 41.2086C41.4138 41.6067 40.5349 41.9608 39.6402 42.2694C39.1122 42.4454 38.6017 42.5894 38.1336 42.695C37.7176 42.7893 37.2967 42.8599 36.8729 42.9062C36.6917 42.9318 36.5278 42.9382 36.3828 42.9478C36.2378 42.9574 36.1149 42.9622 36.014 42.9622H35.7792C35.752 42.966 35.7245 42.966 35.6973 42.9622C35.724 42.9549 35.7515 42.9511 35.7792 42.951L36.0124 42.9366C36.1133 42.9366 36.2362 42.9254 36.3796 42.9078C36.523 42.8902 36.6948 42.8838 36.865 42.855C37.2243 42.8118 37.653 42.7318 38.1163 42.6262C38.5796 42.5206 39.0886 42.3718 39.615 42.1974C40.6629 41.8438 41.588 41.447 42.2546 41.1606L43.0425 40.8198L43.26 40.7302C43.2854 40.7151 43.3131 40.7043 43.342 40.6982Z" fill="#2D3259"/>
<path d="M41.1955 40.6788C41.1955 40.6788 41.1514 40.7108 41.0615 40.754C40.9717 40.7972 40.8441 40.8532 40.6802 40.914C39.8232 41.2377 38.9154 41.4003 38.0011 41.394C37.8262 41.394 37.686 41.386 37.5883 41.3748C37.5349 41.3761 37.4816 41.3686 37.4307 41.3524C37.4307 41.3396 37.6481 41.3524 37.9948 41.3348C38.901 41.309 39.7985 41.1472 40.6581 40.8548C40.9906 40.7492 41.1908 40.6676 41.1955 40.6788Z" fill="#2D3259"/>
<path d="M43.3758 30.97C43.1126 31.0293 42.8429 31.053 42.5736 31.0404C42.3047 31.0549 42.0351 31.0339 41.7715 30.978C42.038 30.9508 42.3061 30.9439 42.5736 30.9572C42.841 30.9419 43.109 30.9462 43.3758 30.97Z" fill="white"/>
<path d="M43.2486 30.7413C42.7832 30.7968 42.3131 30.7968 41.8477 30.7413C42.3131 30.6858 42.7832 30.6858 43.2486 30.7413Z" fill="white"/>
</svg>
