<svg width="156" height="174" viewBox="0 0 156 174" fill="none" xmlns="http://www.w3.org/2000/svg">
<rect width="156" height="174" rx="16" fill="#F8F3FA"/>
<path d="M25.1568 142.528H28.9168V144H23.3328V132.88H25.1568V142.528ZM34.2662 144.144C33.4342 144.144 32.6822 143.957 32.0102 143.584C31.3382 143.2 30.8102 142.667 30.4262 141.984C30.0422 141.291 29.8502 140.491 29.8502 139.584C29.8502 138.688 30.0475 137.893 30.4422 137.2C30.8369 136.507 31.3755 135.973 32.0582 135.6C32.7409 135.227 33.5035 135.04 34.3462 135.04C35.1889 135.04 35.9515 135.227 36.6342 135.6C37.3169 135.973 37.8555 136.507 38.2502 137.2C38.6449 137.893 38.8422 138.688 38.8422 139.584C38.8422 140.48 38.6395 141.275 38.2342 141.968C37.8289 142.661 37.2742 143.2 36.5702 143.584C35.8769 143.957 35.1089 144.144 34.2662 144.144ZM34.2662 142.56C34.7355 142.56 35.1729 142.448 35.5782 142.224C35.9942 142 36.3302 141.664 36.5862 141.216C36.8422 140.768 36.9702 140.224 36.9702 139.584C36.9702 138.944 36.8475 138.405 36.6022 137.968C36.3569 137.52 36.0315 137.184 35.6262 136.96C35.2209 136.736 34.7835 136.624 34.3142 136.624C33.8449 136.624 33.4075 136.736 33.0022 136.96C32.6075 137.184 32.2929 137.52 32.0582 137.968C31.8235 138.405 31.7062 138.944 31.7062 139.584C31.7062 140.533 31.9462 141.269 32.4262 141.792C32.9169 142.304 33.5302 142.56 34.2662 142.56ZM43.8453 144.144C43.152 144.144 42.528 144.021 41.9733 143.776C41.4293 143.52 40.9973 143.179 40.6773 142.752C40.3573 142.315 40.1866 141.829 40.1653 141.296H42.0533C42.0853 141.669 42.2613 141.984 42.5813 142.24C42.912 142.485 43.3226 142.608 43.8133 142.608C44.3253 142.608 44.72 142.512 44.9973 142.32C45.2853 142.117 45.4293 141.861 45.4293 141.552C45.4293 141.221 45.2693 140.976 44.9493 140.816C44.64 140.656 44.144 140.48 43.4613 140.288C42.8 140.107 42.2613 139.931 41.8453 139.76C41.4293 139.589 41.0666 139.328 40.7573 138.976C40.4586 138.624 40.3093 138.16 40.3093 137.584C40.3093 137.115 40.448 136.688 40.7253 136.304C41.0026 135.909 41.3973 135.6 41.9093 135.376C42.432 135.152 43.0293 135.04 43.7013 135.04C44.704 135.04 45.5093 135.296 46.1173 135.808C46.736 136.309 47.0666 136.997 47.1093 137.872H45.2853C45.2533 137.477 45.0933 137.163 44.8053 136.928C44.5173 136.693 44.128 136.576 43.6373 136.576C43.1573 136.576 42.7893 136.667 42.5333 136.848C42.2773 137.029 42.1493 137.269 42.1493 137.568C42.1493 137.803 42.2346 138 42.4053 138.16C42.576 138.32 42.784 138.448 43.0293 138.544C43.2746 138.629 43.6373 138.741 44.1173 138.88C44.7573 139.051 45.28 139.227 45.6853 139.408C46.1013 139.579 46.4586 139.835 46.7573 140.176C47.056 140.517 47.2106 140.971 47.2213 141.536C47.2213 142.037 47.0826 142.485 46.8053 142.88C46.528 143.275 46.1333 143.584 45.6213 143.808C45.12 144.032 44.528 144.144 43.8453 144.144ZM50.1202 134.016C49.7895 134.016 49.5122 133.904 49.2882 133.68C49.0642 133.456 48.9522 133.179 48.9522 132.848C48.9522 132.517 49.0642 132.24 49.2882 132.016C49.5122 131.792 49.7895 131.68 50.1202 131.68C50.4402 131.68 50.7122 131.792 50.9362 132.016C51.1602 132.24 51.2722 132.517 51.2722 132.848C51.2722 133.179 51.1602 133.456 50.9362 133.68C50.7122 133.904 50.4402 134.016 50.1202 134.016ZM51.0162 135.184V144H49.1922V135.184H51.0162ZM57.8589 135.04C58.5523 135.04 59.1709 135.184 59.7149 135.472C60.2696 135.76 60.7016 136.187 61.0109 136.752C61.3203 137.317 61.4749 138 61.4749 138.8V144H59.6669V139.072C59.6669 138.283 59.4696 137.68 59.0749 137.264C58.6803 136.837 58.1416 136.624 57.4589 136.624C56.7763 136.624 56.2323 136.837 55.8269 137.264C55.4323 137.68 55.2349 138.283 55.2349 139.072V144H53.4109V135.184H55.2349V136.192C55.5336 135.829 55.9123 135.547 56.3709 135.344C56.8403 135.141 57.3363 135.04 57.8589 135.04ZM67.3536 135.04C68.0362 135.04 68.6389 135.179 69.1616 135.456C69.6949 135.723 70.1109 136.059 70.4096 136.464V135.184H72.2496V144.144C72.2496 144.955 72.0789 145.675 71.7376 146.304C71.3962 146.944 70.9002 147.445 70.2496 147.808C69.6096 148.171 68.8416 148.352 67.9456 148.352C66.7509 148.352 65.7589 148.069 64.9696 147.504C64.1802 146.949 63.7322 146.192 63.6256 145.232H65.4336C65.5722 145.691 65.8656 146.059 66.3136 146.336C66.7722 146.624 67.3162 146.768 67.9456 146.768C68.6816 146.768 69.2736 146.544 69.7216 146.096C70.1802 145.648 70.4096 144.997 70.4096 144.144V142.672C70.1002 143.088 69.6789 143.44 69.1456 143.728C68.6229 144.005 68.0256 144.144 67.3536 144.144C66.5856 144.144 65.8816 143.952 65.2416 143.568C64.6122 143.173 64.1109 142.629 63.7376 141.936C63.3749 141.232 63.1936 140.437 63.1936 139.552C63.1936 138.667 63.3749 137.883 63.7376 137.2C64.1109 136.517 64.6122 135.989 65.2416 135.616C65.8816 135.232 66.5856 135.04 67.3536 135.04ZM70.4096 139.584C70.4096 138.976 70.2816 138.448 70.0256 138C69.7802 137.552 69.4549 137.211 69.0496 136.976C68.6442 136.741 68.2069 136.624 67.7376 136.624C67.2682 136.624 66.8309 136.741 66.4256 136.976C66.0202 137.2 65.6896 137.536 65.4336 137.984C65.1882 138.421 65.0656 138.944 65.0656 139.552C65.0656 140.16 65.1882 140.693 65.4336 141.152C65.6896 141.611 66.0202 141.963 66.4256 142.208C66.8416 142.443 67.2789 142.56 67.7376 142.56C68.2069 142.56 68.6442 142.443 69.0496 142.208C69.4549 141.973 69.7802 141.632 70.0256 141.184C70.2816 140.725 70.4096 140.192 70.4096 139.584ZM93.2816 132.88L89.9856 144H87.9216L85.5856 135.584L83.1056 144L81.0576 144.016L77.9056 132.88H79.8416L82.1456 141.936L84.6416 132.88H86.6896L89.0096 141.888L91.3296 132.88H93.2816ZM102.866 139.376C102.866 139.707 102.845 140.005 102.802 140.272H96.0659C96.1193 140.976 96.3806 141.541 96.8499 141.968C97.3193 142.395 97.8953 142.608 98.5779 142.608C99.5593 142.608 100.253 142.197 100.658 141.376H102.626C102.359 142.187 101.874 142.853 101.17 143.376C100.477 143.888 99.6126 144.144 98.5779 144.144C97.7353 144.144 96.9779 143.957 96.3059 143.584C95.6446 143.2 95.1219 142.667 94.7379 141.984C94.3646 141.291 94.1779 140.491 94.1779 139.584C94.1779 138.677 94.3593 137.883 94.7219 137.2C95.0953 136.507 95.6126 135.973 96.2739 135.6C96.9459 135.227 97.7139 135.04 98.5779 135.04C99.4099 135.04 100.151 135.221 100.802 135.584C101.453 135.947 101.959 136.459 102.322 137.12C102.685 137.771 102.866 138.523 102.866 139.376ZM100.962 138.8C100.951 138.128 100.711 137.589 100.242 137.184C99.7726 136.779 99.1913 136.576 98.4979 136.576C97.8686 136.576 97.3299 136.779 96.8819 137.184C96.4339 137.579 96.1673 138.117 96.0819 138.8H100.962ZM105.589 134.016C105.258 134.016 104.981 133.904 104.757 133.68C104.533 133.456 104.421 133.179 104.421 132.848C104.421 132.517 104.533 132.24 104.757 132.016C104.981 131.792 105.258 131.68 105.589 131.68C105.909 131.68 106.181 131.792 106.405 132.016C106.629 132.24 106.741 132.517 106.741 132.848C106.741 133.179 106.629 133.456 106.405 133.68C106.181 133.904 105.909 134.016 105.589 134.016ZM106.485 135.184V144H104.661V135.184H106.485ZM112.432 135.04C113.114 135.04 113.717 135.179 114.24 135.456C114.773 135.723 115.189 136.059 115.488 136.464V135.184H117.328V144.144C117.328 144.955 117.157 145.675 116.816 146.304C116.474 146.944 115.978 147.445 115.328 147.808C114.688 148.171 113.92 148.352 113.024 148.352C111.829 148.352 110.837 148.069 110.048 147.504C109.258 146.949 108.81 146.192 108.704 145.232H110.512C110.65 145.691 110.944 146.059 111.392 146.336C111.85 146.624 112.394 146.768 113.024 146.768C113.76 146.768 114.352 146.544 114.8 146.096C115.258 145.648 115.488 144.997 115.488 144.144V142.672C115.178 143.088 114.757 143.44 114.224 143.728C113.701 144.005 113.104 144.144 112.432 144.144C111.664 144.144 110.96 143.952 110.32 143.568C109.69 143.173 109.189 142.629 108.816 141.936C108.453 141.232 108.272 140.437 108.272 139.552C108.272 138.667 108.453 137.883 108.816 137.2C109.189 136.517 109.69 135.989 110.32 135.616C110.96 135.232 111.664 135.04 112.432 135.04ZM115.488 139.584C115.488 138.976 115.36 138.448 115.104 138C114.858 137.552 114.533 137.211 114.128 136.976C113.722 136.741 113.285 136.624 112.816 136.624C112.346 136.624 111.909 136.741 111.504 136.976C111.098 137.2 110.768 137.536 110.512 137.984C110.266 138.421 110.144 138.944 110.144 139.552C110.144 140.16 110.266 140.693 110.512 141.152C110.768 141.611 111.098 141.963 111.504 142.208C111.92 142.443 112.357 142.56 112.816 142.56C113.285 142.56 113.722 142.443 114.128 142.208C114.533 141.973 114.858 141.632 115.104 141.184C115.36 140.725 115.488 140.192 115.488 139.584ZM124.283 135.04C124.955 135.04 125.553 135.184 126.075 135.472C126.609 135.76 127.025 136.187 127.323 136.752C127.633 137.317 127.787 138 127.787 138.8V144H125.979V139.072C125.979 138.283 125.782 137.68 125.387 137.264C124.993 136.837 124.454 136.624 123.771 136.624C123.089 136.624 122.545 136.837 122.139 137.264C121.745 137.68 121.547 138.283 121.547 139.072V144H119.723V132.16H121.547V136.208C121.857 135.835 122.246 135.547 122.715 135.344C123.195 135.141 123.718 135.04 124.283 135.04ZM132.242 136.672V141.552C132.242 141.883 132.317 142.123 132.466 142.272C132.626 142.411 132.893 142.48 133.266 142.48H134.386V144H132.946C132.125 144 131.495 143.808 131.058 143.424C130.621 143.04 130.402 142.416 130.402 141.552V136.672H129.362V135.184H130.402V132.992H132.242V135.184H134.386V136.672H132.242Z" fill="#161B46"/>
<path d="M78.52 118.272C109.859 118.272 135.264 113.618 135.264 107.876C135.264 102.135 109.859 97.4805 78.52 97.4805C47.1814 97.4805 21.7764 102.135 21.7764 107.876C21.7764 113.618 47.1814 118.272 78.52 118.272Z" fill="#EFDAF7"/>
<path d="M76.1522 103.175C78.1422 103.329 80.2354 103.218 81.7934 103.848C82.5883 104.172 83.2295 104.479 83.4998 105.539C83.733 106.456 83.0017 107.985 82.3207 108.652C80.3361 110.608 79.565 111.522 79.0165 113.7C78.4681 115.878 77.6917 118.204 75.6833 119.397C75.2371 119.689 74.714 119.841 74.1809 119.834C73.9098 119.83 73.6451 119.752 73.415 119.608C73.1849 119.465 72.9981 119.262 72.8746 119.02C72.66 118.491 72.9541 117.934 73.2217 117.449C74.0325 115.997 74.7108 114.452 74.9148 112.799C75.1189 111.146 74.9148 110.542 73.8841 109.089C72.713 107.69 70.7363 106.572 68.5344 105.534L73.0389 102.95L76.1522 103.175Z" fill="#936754"/>
<path d="M74.0769 84.7341C74.0769 84.7341 71.8511 85.1607 70.9582 84.9408C63.9286 83.2132 48.9659 75.4019 43.3459 78.8121C38.3486 81.8433 39.6363 86.7611 42.816 90.8999C45.9346 94.9778 65.8046 105.288 65.8046 105.288L72.4685 99.8293L69.8904 98.6714L70.8283 98.5283C72.5462 98.7609 74.2905 98.7117 75.9926 98.3826L84.4053 96.7451V88.0012L74.0769 84.7341Z" fill="#161B46"/>
<path d="M101.973 87.3486C101.973 87.3486 105.11 90.666 105.619 96.5298C105.791 98.517 104.747 102.184 103.046 103.634C99.9151 106.263 95.8738 107.552 91.7985 107.221L72.9857 106.294L72.4558 99.2112C72.4558 99.2112 80.116 96.3469 82.2596 95.9468L84.3926 95.6819V87.9978L93.7698 88.5065C96.756 88.6629 101.973 87.3486 101.973 87.3486Z" fill="#161B46"/>
<path d="M94.1356 91.8739C93.9987 91.916 93.8587 91.947 93.7169 91.9667C93.452 92.0143 93.0545 92.0938 92.5749 92.1998C90.0651 92.7509 87.6477 93.6602 85.3969 94.8998C84.965 95.1357 84.6206 95.3344 84.3821 95.4748C84.2629 95.5544 84.137 95.6236 84.0059 95.6815C84.1143 95.5829 84.2313 95.4942 84.3556 95.4165C84.5835 95.2602 84.9226 95.0482 85.3492 94.7992C87.5874 93.5106 90.0209 92.5959 92.5537 92.0912C93.0386 91.9984 93.4334 91.9322 93.709 91.9004C93.8501 91.879 93.9929 91.8701 94.1356 91.8739Z" fill="#737690"/>
<path d="M102.512 103.228C102.641 103.141 102.765 103.045 102.883 102.942C103.185 102.644 103.399 102.27 103.503 101.858C103.638 101.242 103.669 100.607 103.595 99.9797C103.556 99.2039 103.473 98.4308 103.349 97.6639C103.227 96.8996 103.004 96.1548 102.687 95.4488C102.423 94.8744 102.071 94.345 101.643 93.8802C101.241 93.4543 100.773 93.0964 100.257 92.8203C100.297 92.8296 100.336 92.8438 100.373 92.8627C100.483 92.9057 100.589 92.9562 100.691 93.0137C101.07 93.2265 101.415 93.4944 101.714 93.8086C102.16 94.2763 102.527 94.8132 102.801 95.3984C103.13 96.1129 103.36 96.8688 103.484 97.6454C103.61 98.4172 103.689 99.1958 103.723 99.9771C103.791 100.617 103.749 101.264 103.598 101.89C103.482 102.313 103.246 102.694 102.92 102.987C102.829 103.064 102.731 103.131 102.626 103.186C102.59 103.206 102.552 103.22 102.512 103.228Z" fill="#737690"/>
<path d="M72.3792 99.2902C72.4423 99.2563 72.5078 99.227 72.5752 99.2028L73.1502 98.9775C73.6483 98.7815 74.377 98.5165 75.2699 98.1826C76.1629 97.8488 77.2546 97.499 78.4708 97.1387C79.687 96.7783 81.0277 96.402 82.4585 96.0788C84.9043 95.5173 87.4053 95.2311 89.9147 95.2256H90.5983L91.2078 95.2574C91.5893 95.2759 91.9152 95.2971 92.1828 95.3316L92.7949 95.4031C92.8663 95.4083 92.9371 95.419 93.0069 95.4349C92.9355 95.4413 92.8637 95.4413 92.7923 95.4349L92.1775 95.3899C91.9126 95.3634 91.584 95.3501 91.2051 95.3395L90.5957 95.3183H89.9147C87.421 95.3599 84.9386 95.6645 82.5089 96.2272C81.0833 96.5372 79.74 96.9002 78.5343 97.2632C77.3287 97.6262 76.2397 97.9759 75.3309 98.278L73.1873 99.0199L72.6044 99.2213C72.5318 99.2519 72.4564 99.275 72.3792 99.2902Z" fill="#737690"/>
<path d="M69.6184 99.6437C69.6017 99.6256 69.5866 99.6061 69.5733 99.5854C69.5442 99.5377 69.5044 99.4794 69.4568 99.4052L69.0143 98.7136L68.6989 98.2129C68.5797 98.03 68.434 97.8393 68.3015 97.6299C68.01 97.2139 67.6974 96.729 67.3079 96.2256C67.1144 95.9606 66.9157 95.6957 66.7064 95.4307C66.4971 95.1657 66.2612 94.8769 66.0281 94.5854C65.567 93.9946 65.0265 93.4037 64.4701 92.7731C63.2325 91.4285 61.9169 90.158 60.53 88.9681C59.1311 87.7896 57.6642 86.6943 56.1368 85.6878C55.4241 85.2427 54.751 84.8055 54.0939 84.4451C53.768 84.2623 53.458 84.0742 53.1506 83.9152L52.263 83.4542C51.7039 83.1494 51.174 82.9242 50.7182 82.7016C50.4877 82.5957 50.2757 82.4897 50.077 82.4022L49.5312 82.1717L48.776 81.8485L48.5799 81.761L48.5164 81.7266L48.5852 81.7478L48.7866 81.822C48.9721 81.8961 49.2265 81.9968 49.5524 82.1214L50.1035 82.3413C50.3049 82.4261 50.5169 82.5268 50.75 82.6301C51.2084 82.8421 51.7437 83.0673 52.308 83.3667L53.201 83.8198C53.511 83.9788 53.8237 84.1669 54.1522 84.3497C54.812 84.7075 55.4771 85.1446 56.2057 85.5871C57.7423 86.59 59.2165 87.6855 60.6201 88.8674C62.0107 90.0598 63.3274 91.3358 64.5628 92.6883C65.1192 93.3242 65.6571 93.9204 66.1182 94.5166C66.3487 94.8107 66.5845 95.0889 66.7912 95.3671L67.3847 96.1753C67.7716 96.684 68.0789 97.1742 68.3651 97.5928C68.5029 97.8048 68.6301 98.0009 68.7546 98.1837L69.0593 98.6924C69.2395 98.9919 69.3799 99.2224 69.4806 99.3999C69.523 99.4768 69.5574 99.5377 69.5866 99.5854C69.6157 99.6331 69.621 99.641 69.6184 99.6437Z" fill="#737690"/>
<path d="M60.0231 88.7559C59.9408 88.6542 59.8681 88.5451 59.8058 88.43C59.6733 88.2128 59.4799 87.9001 59.2361 87.5265C58.5991 86.5399 57.9037 85.5922 57.1535 84.6887C56.401 83.787 55.5968 82.9297 54.7449 82.1211C54.4164 81.8138 54.1487 81.5647 53.95 81.3978C53.8488 81.3169 53.754 81.2283 53.6665 81.1328C53.78 81.1997 53.8866 81.2778 53.9845 81.366C54.1832 81.5197 54.4641 81.7581 54.8006 82.0575C55.6763 82.8478 56.4945 83.6997 57.2489 84.6065C58.0035 85.514 58.6915 86.4748 59.3077 87.4814C59.5435 87.8683 59.7237 88.1863 59.8376 88.4115C59.9094 88.5206 59.9715 88.6359 60.0231 88.7559Z" fill="#737690"/>
<path d="M45.9434 85.9523C45.909 85.9788 45.3472 85.1892 44.4834 84.3837C43.6196 83.5782 42.8009 83.0589 42.8247 83.0244C43.0226 83.1008 43.209 83.2042 43.3785 83.3318C43.8035 83.6149 44.2041 83.9331 44.5762 84.283C44.9501 84.6316 45.2932 85.012 45.6016 85.4197C45.7387 85.5813 45.8536 85.7604 45.9434 85.9523Z" fill="#161B46"/>
<path d="M72.4773 99.291L61.1553 100.573L61.7991 106.384H74.8435L72.4773 99.291Z" fill="#936754"/>
<path d="M65.0156 106.355C63.2827 106.405 59.9467 107.918 58.7729 109.047C57.5991 110.176 56.783 111.617 56.1233 113.103C55.9033 113.599 55.641 114.163 55.0978 114.301C54.8356 114.346 54.5662 114.318 54.3184 114.222C54.0706 114.125 53.8537 113.963 53.6909 113.753C53.3768 113.337 53.1924 112.837 53.1609 112.317C52.9171 110.04 54.287 108.077 55.6728 106.36C57.0586 104.643 57.4163 103.914 57.7926 101.209C57.9197 100.284 58.6881 98.8111 59.544 98.4561C60.535 98.0454 61.147 98.3633 61.8731 98.8005L64.4221 100.255" fill="#936754"/>
<path d="M74.8442 106.384C74.7382 106.401 74.6307 106.407 74.5236 106.4H73.6545C72.9205 106.4 71.9057 106.427 70.7875 106.45C69.6694 106.474 68.6493 106.48 67.9126 106.45C67.547 106.45 67.2476 106.427 67.0435 106.411C66.9365 106.41 66.8299 106.398 66.7256 106.374C66.8314 106.355 66.9391 106.349 67.0462 106.358H67.9153C68.6492 106.358 69.6614 106.334 70.7849 106.31C71.9084 106.286 72.9205 106.281 73.6545 106.31C74.0228 106.31 74.3196 106.334 74.5262 106.35C74.6333 106.348 74.7401 106.359 74.8442 106.384Z" fill="#7C5142"/>
<path d="M70.0444 88.6816C70.1265 88.7839 70.1984 88.8939 70.2591 89.0102C70.3419 89.1409 70.4171 89.2762 70.4843 89.4156C70.5638 89.5746 70.6618 89.7548 70.7492 89.9667C70.8367 90.1787 70.9347 90.4039 71.0142 90.6583C71.0937 90.9127 71.1811 91.1882 71.2606 91.4718C71.5901 92.737 71.68 94.0526 71.5256 95.3509C71.4806 95.6477 71.4461 95.9312 71.3852 96.1908C71.3242 96.4505 71.2712 96.6943 71.2076 96.9115C71.144 97.1288 71.0778 97.3249 71.0195 97.4945C70.972 97.6409 70.9153 97.7843 70.8499 97.9237C70.8041 98.0469 70.7473 98.1657 70.6804 98.2788C70.7091 98.1507 70.7499 98.0256 70.8022 97.9052C70.8446 97.7859 70.8976 97.6402 70.9453 97.4706C70.993 97.3011 71.0646 97.1076 71.1149 96.8877C71.1652 96.6678 71.2288 96.4293 71.2712 96.1696C71.3136 95.91 71.3587 95.6397 71.3984 95.3376C71.5396 94.0547 71.4544 92.757 71.1467 91.5036C71.0699 91.2174 71.001 90.9445 70.9135 90.6954C70.8261 90.4463 70.7439 90.2132 70.6618 90.0038C70.5797 89.7945 70.4922 89.6117 70.418 89.4474C70.3438 89.2831 70.2776 89.148 70.2193 89.0367C70.1507 88.9237 70.0922 88.8049 70.0444 88.6816Z" fill="#737690"/>
<path d="M75.2039 93.4112C75.175 93.2868 75.1581 93.1599 75.1535 93.0323C75.1535 92.9104 75.1297 92.7673 75.1032 92.5871C75.0767 92.407 75.0581 92.2188 75.0131 92.0042C74.9236 91.5013 74.8014 91.0048 74.6474 90.5178C74.4538 89.9225 74.2165 89.3424 73.9373 88.7822C73.6518 88.2285 73.325 87.697 72.9596 87.1924C72.6579 86.7793 72.3295 86.3863 71.9766 86.016C71.8308 85.8517 71.6825 85.7192 71.5606 85.5973C71.4387 85.4754 71.3247 85.3747 71.232 85.2952C71.1353 85.2157 71.0466 85.127 70.967 85.0303C71.0763 85.0969 71.1799 85.1722 71.2771 85.2555C71.3981 85.3431 71.5132 85.4387 71.6215 85.5417C71.7513 85.6583 71.905 85.7881 72.0561 85.9471C72.4229 86.3108 72.7621 86.7014 73.0709 87.1156C73.825 88.1313 74.3979 89.2697 74.764 90.4807C74.9137 90.9744 75.0279 91.4783 75.1058 91.9883C75.1456 92.2056 75.1562 92.407 75.1747 92.5792C75.1926 92.7278 75.2015 92.8773 75.2012 93.027C75.2135 93.1547 75.2144 93.2833 75.2039 93.4112Z" fill="#737690"/>
<path d="M103.351 99.1748C103.343 99.2003 103.333 99.2251 103.322 99.249L103.224 99.4636C103.097 99.7382 102.952 100.004 102.789 100.259C102.533 100.659 102.243 101.036 101.923 101.387C101.494 101.848 101.023 102.267 100.516 102.638C99.1812 103.595 97.6713 104.28 96.0722 104.654C94.2757 105.107 92.2381 105.256 90.1157 105.282C85.863 105.282 82.0183 105.266 79.2361 105.253L75.9373 105.227L75.0417 105.211H74.8085C74.7821 105.214 74.7554 105.214 74.729 105.211H74.8085H75.0417H75.9373L79.2361 105.192H90.113C92.2328 105.166 94.2598 105.023 96.0404 104.58C97.6339 104.198 99.1371 103.508 100.465 102.548C100.973 102.185 101.445 101.775 101.875 101.324C102.197 100.98 102.491 100.611 102.752 100.219C102.919 99.9722 103.072 99.7155 103.208 99.4504L103.316 99.2437C103.326 99.2199 103.338 99.1969 103.351 99.1748Z" fill="#00ACE9"/>
<path d="M104.928 94.0127C104.783 94.6207 104.594 95.2175 104.364 95.7986C104.175 96.396 103.943 96.9787 103.669 97.5421C103.815 96.9331 104.003 96.3354 104.234 95.7535C104.421 95.1566 104.653 94.5747 104.928 94.0127Z" fill="#00ACE9"/>
<path d="M58.4285 99.516L58.3676 99.4948L58.1847 99.418L57.4958 99.1159C56.8996 98.8509 56.0385 98.4614 54.9839 97.9553C53.9294 97.4492 52.684 96.8213 51.3459 96.0423C49.8878 95.2052 48.5033 94.2461 47.2071 93.1753C44.8678 91.2016 42.9277 88.7984 41.4918 86.0954C41.0558 85.2781 40.6725 84.4338 40.3445 83.5676C40.2199 83.2655 40.1484 83.0217 40.0795 82.8601L40.0185 82.6746C40.0185 82.6322 40 82.6084 40 82.6084C40.0138 82.6269 40.0245 82.6475 40.0318 82.6693C40.0503 82.717 40.0742 82.7753 40.106 82.8495C40.1722 83.0085 40.2544 83.2496 40.371 83.549C40.7208 84.4012 41.1171 85.2335 41.558 86.0424C43.0116 88.7183 44.9517 91.0996 47.2787 93.064C48.5677 94.1299 49.9422 95.0879 51.3883 95.9283C52.7132 96.71 53.9585 97.3459 55.0051 97.8626C56.0517 98.3793 56.9076 98.782 57.4985 99.0629L58.1768 99.3888L58.3517 99.4763C58.41 99.5028 58.4312 99.5133 58.4285 99.516Z" fill="#00ACE9"/>
<path d="M77.6914 22.0395C77.4916 21.7049 77.2017 21.4333 76.8548 21.2557C76.5079 21.078 76.118 21.0016 75.7297 21.035C75.3414 21.0684 74.9704 21.2104 74.659 21.4448C74.3476 21.6791 74.1083 21.9963 73.9686 22.3601C73.8907 22.6807 73.7695 22.9891 73.6083 23.2769C73.0784 23.995 71.7535 23.7857 71.3349 24.5726C70.8818 25.4099 71.9284 26.4115 71.674 27.3283C71.47 28.0622 70.5294 28.3881 70.3147 29.1221C70.0286 30.0892 71.1944 31.0458 70.9136 32.0155C70.6751 32.8502 69.4986 33.1576 69.3238 34.0055C69.1197 34.9408 70.2723 35.7013 70.2538 36.6551C70.2299 37.8793 68.3593 38.555 68.5315 39.7685C68.6242 40.4389 69.3397 40.8867 69.4589 41.5544C69.6841 42.8077 67.7419 43.6741 67.9724 44.9327C68.0837 45.521 68.6401 45.8999 69.1224 46.2576C69.6046 46.6153 70.1001 47.124 70.0021 47.7175C69.904 48.3111 69.2204 48.6582 68.8495 49.1643C68.2771 49.9406 69.186 51.957 70.0683 52.3439L73.7355 49.6041C73.7355 49.6041 72.6756 48.7271 73.5103 47.9216C74.3449 47.1161 73.7991 46.7557 73.7752 46.1463C73.7752 46.1463 74.594 46.8352 74.3052 47.5533C74.1898 47.8315 74.1468 48.1343 74.1802 48.4337C74.2136 48.733 74.3222 49.019 74.4959 49.2649L80.0629 46.7637L80.6644 41.4643L77.6914 22.0395Z" fill="#161B46"/>
<path d="M69.5313 46.7562C69.4131 46.7751 69.293 46.7796 69.1736 46.7695C68.7268 46.744 68.298 46.5848 67.9427 46.3127C67.5874 46.0406 67.3221 45.668 67.1811 45.2433C67.073 44.9175 67.0378 44.572 67.0777 44.2311C67.1392 43.8582 67.2666 43.4993 67.454 43.1712C67.6368 42.8162 67.8647 42.4664 68.0369 42.0769C68.2313 41.6821 68.3059 41.2391 68.2515 40.8024C68.172 40.3546 67.8302 39.9943 67.56 39.573C67.4017 39.3591 67.3171 39.0997 67.3188 38.8337C67.3303 38.6952 67.3736 38.5613 67.4453 38.4423C67.517 38.3232 67.6152 38.2223 67.7322 38.1474C67.9566 38.0016 68.1912 37.8723 68.4344 37.7606C68.6722 37.6559 68.874 37.4836 69.0146 37.2651C69.0742 37.1494 69.1099 37.0229 69.1194 36.8932C69.129 36.7634 69.1123 36.6331 69.0703 36.5099C68.9901 36.2466 68.8665 35.9986 68.7046 35.776C68.5457 35.5481 68.3575 35.3255 68.2012 35.0765C68.0276 34.8267 67.9142 34.5401 67.87 34.2392C67.8427 33.9245 67.9376 33.6114 68.135 33.3648C68.3391 33.1358 68.5715 32.9337 68.8265 32.7633C69.0725 32.6002 69.3023 32.4138 69.5128 32.2069C69.7132 32.008 69.8322 31.7416 69.8466 31.4596C69.8313 31.1802 69.7515 30.9082 69.6135 30.6647C69.481 30.3998 69.3273 30.1666 69.2028 29.9043C69.0602 29.6444 68.9941 29.3496 69.012 29.0537C69.0281 28.9072 69.0722 28.765 69.1418 28.6351C69.2167 28.5113 69.3056 28.3966 69.4068 28.2933C69.7963 27.8958 70.2944 27.6256 70.5038 27.1645C70.6021 26.9369 70.6334 26.6859 70.5938 26.4412C70.5549 26.1965 70.4928 25.956 70.4084 25.7231C70.2115 25.2728 70.1208 24.7832 70.1434 24.2923C70.17 24.0509 70.2763 23.8252 70.4455 23.651C70.6091 23.4893 70.8117 23.3725 71.0337 23.3119C71.4576 23.1847 71.8763 23.1688 72.2552 23.0761C72.436 23.048 72.6094 22.9844 72.7654 22.8889C72.9214 22.7934 73.0569 22.6679 73.164 22.5196C73.3601 22.2308 73.4661 21.9023 73.6569 21.6426C73.8198 21.4233 74.0258 21.2397 74.2623 21.103C74.4988 20.9663 74.7608 20.8794 75.0321 20.8477C75.3741 20.7979 75.7232 20.839 76.0442 20.9669C76.1268 20.9983 76.2059 21.0382 76.2801 21.0862C76.3078 21.1005 76.3336 21.1183 76.3569 21.1391C76.3569 21.1391 76.2509 21.0729 76.0336 20.9908C75.7151 20.8784 75.3735 20.8475 75.04 20.9007C74.7769 20.9367 74.5238 21.0257 74.2961 21.1623C74.0684 21.299 73.8708 21.4804 73.7152 21.6956C73.535 21.9605 73.4343 22.2732 73.2329 22.5779C73.0058 22.8983 72.6608 23.1156 72.2737 23.1821C71.8842 23.2774 71.4629 23.2986 71.0602 23.4232C70.86 23.4825 70.6779 23.5909 70.5303 23.7385C70.3795 23.8968 70.2863 24.1012 70.2653 24.3188C70.2466 24.7914 70.3373 25.262 70.5303 25.6939C70.6177 25.9336 70.6816 26.1812 70.721 26.4332C70.766 26.7018 70.7329 26.9777 70.6256 27.2281C70.3872 27.7421 69.8731 28.023 69.5075 28.394C69.416 28.4894 69.336 28.5953 69.269 28.7093C69.2073 28.8244 69.1686 28.9504 69.1551 29.0802C69.1411 29.3508 69.2036 29.6198 69.3353 29.8566C69.4545 30.1083 69.6002 30.3521 69.7433 30.6117C69.8946 30.8756 69.9809 31.1717 69.995 31.4755C69.9798 31.7918 69.8476 32.0912 69.6241 32.3155C69.408 32.5303 69.171 32.7229 68.9166 32.8905C68.673 33.0542 68.4506 33.2473 68.2542 33.4655C68.0732 33.6818 67.9847 33.9607 68.0078 34.2418C68.0482 34.521 68.1535 34.7869 68.3151 35.0182C68.4662 35.2593 68.649 35.4766 68.8159 35.715C68.9857 35.951 69.1155 36.2133 69.2001 36.4914C69.2463 36.631 69.2639 36.7784 69.2521 36.925C69.2403 37.0715 69.1992 37.2142 69.1312 37.3446C68.9769 37.5846 68.7559 37.7743 68.4953 37.8904C68.2575 38.0003 68.0274 38.126 67.8064 38.2667C67.7041 38.3301 67.618 38.4166 67.555 38.5192C67.492 38.6217 67.4538 38.7376 67.4434 38.8575C67.4443 39.0978 67.5213 39.3315 67.6633 39.5253C67.9283 39.9333 68.278 40.3043 68.3628 40.7971C68.4221 41.2559 68.3427 41.7219 68.135 42.1352C67.9548 42.538 67.7243 42.8851 67.5414 43.2322C67.3544 43.5538 67.227 43.9066 67.1652 44.2735C67.1229 44.6012 67.1537 44.9342 67.2553 45.2486C67.4181 45.7587 67.7634 46.1907 68.225 46.4621C68.5158 46.6335 68.8404 46.7393 69.1763 46.7721C69.4068 46.7642 69.5287 46.7377 69.5313 46.7562Z" fill="#161B46"/>
<path d="M69.7005 50.7695C69.6729 50.7563 69.6478 50.7384 69.6263 50.7165C69.56 50.6515 69.5187 50.5652 69.5097 50.4728C69.4954 50.3234 69.5307 50.1734 69.6104 50.0462C69.7204 49.8716 69.8913 49.7441 70.09 49.6885C70.3285 49.6179 70.5709 49.5613 70.816 49.5189C70.957 49.4949 71.0916 49.4426 71.2118 49.3652C71.332 49.2878 71.4353 49.1868 71.5155 49.0684C71.552 49.0006 71.5733 48.9257 71.5779 48.8488C71.5825 48.7719 71.5702 48.695 71.542 48.6233C71.4721 48.4672 71.3831 48.3203 71.2771 48.1861C71.1545 48.0331 71.0749 47.8502 71.0465 47.6562C71.0334 47.4506 71.0843 47.246 71.1923 47.0706C71.2903 46.8904 71.4095 46.7235 71.5155 46.5407C71.6315 46.3717 71.6967 46.1731 71.7037 45.9683C71.6871 45.7572 71.5927 45.5599 71.4387 45.4145C71.2903 45.2503 71.1075 45.1045 70.9485 44.9217C70.8541 44.8342 70.7823 44.725 70.7394 44.6037C70.6964 44.4823 70.6836 44.3523 70.7021 44.2248C70.7219 44.091 70.7864 43.9678 70.8849 43.8751C70.9779 43.7831 71.0853 43.7071 71.2029 43.6499C71.4334 43.5333 71.6772 43.4538 71.9103 43.3504C72.1455 43.2649 72.3533 43.1176 72.5118 42.9238C72.5806 42.8191 72.626 42.7006 72.6447 42.5767C72.6635 42.4528 72.6552 42.3262 72.6204 42.2058C72.547 41.9458 72.4522 41.6923 72.3369 41.448C72.211 41.1896 72.1218 40.9149 72.072 40.6319C72.0395 40.3345 72.089 40.034 72.215 39.7628C72.4429 39.2328 72.8351 38.7585 72.9569 38.1942C73.011 37.9121 72.972 37.6201 72.8457 37.3622C72.7091 37.094 72.5588 36.8331 72.3952 36.5805C72.2191 36.3178 72.1108 36.0156 72.0799 35.7008C72.0777 35.3824 72.1885 35.0735 72.3926 34.8291C72.5754 34.5827 72.7874 34.3786 72.9702 34.1534C73.1611 33.9497 73.2882 33.6945 73.3359 33.4194C73.3537 33.1465 73.2851 32.8748 73.1398 32.6431C73.0099 32.3993 72.8457 32.1715 72.7079 31.925C72.5562 31.6805 72.4738 31.3993 72.4694 31.1116C72.4946 30.8329 72.5913 30.5655 72.7503 30.3352C72.8907 30.1074 73.0444 29.8954 73.153 29.6702C73.2696 29.4567 73.3071 29.209 73.259 28.9706C73.1557 28.5016 72.7874 28.1254 72.6973 27.6299C72.655 27.3852 72.7112 27.1338 72.8536 26.9304C72.9866 26.7463 73.1394 26.5775 73.3094 26.4269C73.4645 26.2871 73.6008 26.1277 73.7148 25.9527C73.8099 25.7795 73.8617 25.5858 73.8658 25.3883C73.8817 24.9961 73.7942 24.6172 73.8154 24.2489C73.8368 23.9013 73.9442 23.5644 74.1281 23.2685C74.2701 23.0304 74.4596 22.8239 74.6848 22.6621C74.91 22.5003 75.166 22.3865 75.437 22.3279C75.7769 22.2531 76.13 22.2631 76.4651 22.357C76.5818 22.3886 76.694 22.4349 76.799 22.4948C76.799 22.4948 76.685 22.4418 76.4598 22.3835C76.1272 22.3033 75.7803 22.3033 75.4476 22.3835C75.1867 22.4448 74.9409 22.5586 74.7254 22.7181C74.5099 22.8775 74.3292 23.0793 74.1944 23.3109C74.0213 23.5967 73.9212 23.9206 73.9029 24.2542C73.8843 24.6093 73.9744 24.9829 73.9638 25.3936C73.9619 25.6079 73.9064 25.8183 73.8022 26.0057C73.6858 26.1906 73.545 26.3591 73.3835 26.5064C73.22 26.652 73.0733 26.8156 72.9464 26.994C72.8834 27.083 72.839 27.1838 72.8158 27.2903C72.7926 27.3968 72.7911 27.5069 72.8112 27.614C72.8881 28.0592 73.2564 28.4328 73.3783 28.9388C73.4319 29.2036 73.3926 29.4787 73.267 29.7178C73.1504 29.9563 73.002 30.1709 72.8589 30.3935C72.7102 30.605 72.6189 30.8516 72.5939 31.1089C72.5995 31.373 72.6774 31.6306 72.8192 31.8535C72.949 32.0893 73.1159 32.3172 73.2537 32.5715C73.4122 32.8276 73.4863 33.127 73.4657 33.4274C73.4131 33.7248 73.276 34.0007 73.0709 34.2223C72.8828 34.4528 72.6708 34.6595 72.4986 34.8927C72.3102 35.1143 72.2085 35.3967 72.2124 35.6876C72.2423 35.9791 72.3443 36.2587 72.5092 36.501C72.6761 36.7571 72.8282 37.0225 72.9649 37.2959C73.1023 37.5807 73.1451 37.9019 73.0868 38.2127C72.9517 38.8274 72.5569 39.2911 72.3343 39.8025C72.218 40.0504 72.1713 40.3251 72.1991 40.5974C72.2456 40.8667 72.3275 41.1287 72.4429 41.3764C72.5617 41.6324 72.6575 41.8984 72.7291 42.1713C72.7684 42.309 72.7771 42.4536 72.7547 42.5951C72.7323 42.7365 72.6792 42.8713 72.5992 42.9901C72.4273 43.2036 72.2 43.3659 71.9421 43.4591C71.7037 43.5624 71.4625 43.6446 71.2426 43.7532C71.1352 43.7931 71.0389 43.8582 70.9619 43.943C70.8849 44.0279 70.8294 44.13 70.8001 44.2407C70.7861 44.351 70.7985 44.4631 70.8363 44.5676C70.8741 44.6722 70.9361 44.7663 71.0174 44.8422C71.1684 45.0144 71.3486 45.1602 71.5049 45.3351C71.6746 45.5013 71.7782 45.7235 71.7964 45.9604C71.7869 46.1852 71.7143 46.4028 71.5871 46.5884C71.4784 46.7712 71.3565 46.9355 71.2612 47.1183C71.162 47.2766 71.1139 47.4616 71.1234 47.6482C71.1498 47.8245 71.222 47.9908 71.3327 48.1305C71.4405 48.2721 71.5295 48.4271 71.5977 48.5915C71.6288 48.6739 71.6416 48.7621 71.6352 48.85C71.6288 48.9378 71.6033 49.0232 71.5606 49.1002C71.4735 49.2261 71.362 49.3332 71.2327 49.4151C71.1035 49.4971 70.9591 49.5522 70.8081 49.5772C70.5431 49.6381 70.2914 49.662 70.0821 49.7335C69.8933 49.7827 69.7292 49.8997 69.621 50.0621C69.5428 50.1812 69.5056 50.3226 69.515 50.4648C69.5214 50.5262 69.5414 50.5854 69.5734 50.6381C69.6055 50.6908 69.6489 50.7357 69.7005 50.7695Z" fill="#737690"/>
<path d="M102.382 87.3489L97.7686 71.9808L99.2074 47.6038C96.2715 46.014 92.7845 44.7368 87.8137 44.5381L79.8647 45.1369L71.0969 49.5168L72.9517 64.2543L75.9299 76.9728L74.0937 84.7496C81.5817 90.1284 91.5524 90.722 102.382 87.3489Z" fill="#00ACE9"/>
<path d="M95.4312 61.8157C95.4312 61.8157 104.403 62.2768 104.403 61.5348C104.403 60.0166 103.931 55.7056 102.649 52.3511C101.676 49.8127 99.9992 47.942 99.0983 47.5604C97.021 46.6675 95.4312 61.8157 95.4312 61.8157Z" fill="#00ACE9"/>
<path d="M71.21 49.4287C71.21 49.4287 69.5168 50.8357 67.7336 55.0646C65.6139 60.0804 65.0071 61.1138 65.0071 61.1138L70.325 68.305L73.2131 65.0671L71.21 49.4287Z" fill="#00ACE9"/>
<path d="M75.9138 76.9564C75.9138 76.9564 75.9138 76.9378 75.8926 76.8981C75.8714 76.8583 75.8635 76.7948 75.8449 76.7232C75.8025 76.5589 75.7469 76.3311 75.6754 76.0475C75.5296 75.4593 75.3283 74.6061 75.0871 73.5515C74.6049 71.4318 73.969 68.5172 73.2854 65.2898L71.5339 57.0149C71.3087 55.9683 71.1232 55.1151 71.004 54.511C70.9457 54.2221 70.898 53.9969 70.8635 53.8273C70.8503 53.7558 70.8397 53.6975 70.8291 53.6498V53.5889C70.8399 53.6067 70.8471 53.6265 70.8503 53.6472C70.8635 53.6949 70.8794 53.7505 70.898 53.822C70.9404 53.9881 70.996 54.2133 71.0649 54.4977C71.208 55.0859 71.4067 55.9391 71.6479 56.9964C72.1274 59.1161 72.7581 62.0307 73.439 65.2607C74.12 68.4907 74.748 71.4027 75.2011 73.5303C75.4289 74.5902 75.6144 75.4328 75.7469 76.0369C75.8078 76.3231 75.8555 76.551 75.89 76.7179L75.9244 76.8954C75.9245 76.9162 75.9209 76.9368 75.9138 76.9564Z" fill="#161B46"/>
<g opacity="0.3">
<path opacity="0.3" d="M96.7933 46.4001C95.6153 45.7035 94.2285 45.4472 92.8793 45.6766C91.5301 45.9061 90.306 46.6065 89.4245 47.6534L89.3026 46.7525C89.2285 47.7276 88.4442 48.8272 88.5528 49.4631C88.6614 50.099 89.1834 50.6899 89.8273 50.7164C90.7388 50.7535 91.5734 49.7334 92.4187 50.0752C92.6995 50.1865 92.9062 50.4355 93.1818 50.5627C93.7992 50.8489 94.5066 50.4514 95.0525 50.0566C95.6884 49.6062 96.3128 49.139 96.9258 48.6549C97.2676 48.39 97.6332 48.0641 97.6703 47.6295C97.7154 47.0996 97.2517 46.6703 96.7933 46.4001Z" fill="#2D3259"/>
</g>
<path d="M98.0439 48.0615C97.4807 48.4218 96.9781 48.8689 96.5548 49.3864C96.1148 49.963 95.7695 50.6061 95.532 51.2915C95.24 52.134 94.9984 52.9931 94.8086 53.8643C94.6169 54.7361 94.499 55.6224 94.4562 56.514C94.4059 57.3354 94.39 58.0773 94.3635 58.7C94.337 59.3226 94.3132 59.8261 94.2814 60.1758C94.2681 60.3481 94.2496 60.4832 94.239 60.5759C94.2375 60.6228 94.2295 60.6691 94.2151 60.7137C94.2089 60.6671 94.2089 60.6199 94.2151 60.5733C94.2151 60.4647 94.2151 60.3322 94.231 60.1705C94.2443 59.8234 94.2575 59.32 94.2708 58.6973C94.284 58.0746 94.2893 57.3301 94.3317 56.506C94.368 55.6081 94.4842 54.7152 94.6788 53.8378C94.8702 52.9613 95.1162 52.0976 95.4154 51.2517C95.6622 50.5582 96.0202 49.9094 96.4753 49.3307C96.7884 48.9455 97.1562 48.608 97.567 48.3291C97.7127 48.2311 97.8319 48.1702 97.9141 48.1225C97.9535 48.0948 97.9974 48.0742 98.0439 48.0615Z" fill="#161B46"/>
<path d="M90.5135 82.259C90.469 82.2574 90.4246 82.2521 90.381 82.2431L90.0021 82.1742C89.6735 82.1132 89.2072 82.0099 88.619 81.8695C87.105 81.5065 85.6112 81.0643 84.1437 80.5446C82.6752 80.0249 81.2345 79.4297 79.8273 78.7614C79.2974 78.4964 78.8576 78.2844 78.5634 78.1281L78.2243 77.9426C78.1834 77.9237 78.1451 77.8997 78.1104 77.8711C78.1552 77.8796 78.1982 77.8957 78.2375 77.9188L78.5873 78.0778C78.8867 78.2235 79.3265 78.4275 79.8697 78.6713C80.9561 79.1641 82.4744 79.8054 84.1887 80.4148C85.903 81.0242 87.4876 81.4747 88.6428 81.7794C89.2204 81.9277 89.6894 82.0443 90.0127 82.1238L90.3863 82.2192C90.4306 82.2252 90.4736 82.2386 90.5135 82.259Z" fill="#161B46"/>
<path d="M91.136 79.2384C91.0908 79.249 91.0447 79.2552 90.9983 79.257L90.6035 79.2888C90.259 79.3126 89.7609 79.3338 89.1461 79.3444C85.9356 79.3956 82.7312 79.0458 79.6073 78.3031C79.0085 78.16 78.5262 78.0381 78.195 77.9348L77.8161 77.8182C77.7709 77.808 77.7273 77.792 77.6863 77.7705C77.733 77.7709 77.7794 77.778 77.8241 77.7917L78.2109 77.8818C78.5421 77.9639 79.027 78.0779 79.6285 78.2077C82.7561 78.8958 85.949 79.244 89.1514 79.2464C89.7662 79.2464 90.2616 79.2464 90.6061 79.2331H91.0036C91.0477 79.2286 91.0924 79.2304 91.136 79.2384Z" fill="#161B46"/>
<g opacity="0.3">
<path opacity="0.3" d="M98.9076 76.8245C98.4307 76.0455 97.498 75.701 96.6422 75.3778C92.005 73.6242 87.7516 70.9886 84.1171 67.6168C82.3869 66.0085 80.7414 64.1961 78.5687 63.2661C76.396 62.336 73.4681 62.6143 72.1909 64.6042L72.9858 65.1341C76.9921 66.4589 79.6524 70.142 82.5432 73.2183C84.7159 75.5288 87.1404 77.5902 89.5596 79.6437C91.1123 80.9686 92.8478 82.3517 94.8854 82.3517C95.9161 82.322 96.9054 81.9396 97.6881 81.2683C98.4708 80.597 98.9995 79.6775 99.1859 78.6634C99.3106 78.0367 99.2122 77.3862 98.9076 76.8245Z" fill="#2D3259"/>
</g>
<path d="M58.1819 38.1865H57.4903C57.2034 38.1866 56.9224 38.2683 56.6803 38.4222C56.4382 38.5762 56.2449 38.7958 56.1231 39.0556C56.0133 39.2881 55.9649 39.5449 55.9825 39.8014C56.0002 40.0579 56.0832 40.3056 56.2238 40.5209L57.2836 42.1769C57.2836 42.1769 56.2238 42.7546 56.5205 43.9098C56.5205 43.9098 55.821 44.3364 56.1867 45.7646C56.1867 45.7646 55.723 46.9623 56.2874 47.7943C56.8517 48.6263 58.6482 51.8138 58.6482 51.8138V55.3379L63.4176 54.7868V50.7116C63.753 50.1467 63.9912 49.5296 64.1224 48.8859C64.3238 47.8552 63.5581 43.9045 63.5581 43.9045L61.3641 41.3741L58.9052 40.4096C58.7445 40.6748 58.6888 40.9904 58.7489 41.2946C58.7626 41.3552 58.7812 41.4146 58.8045 41.4721L58.4389 41.3052L57.6175 39.8108V39.6121C57.6175 39.6121 59.6392 39.159 58.8655 38.4409C58.6749 38.2779 58.4327 38.1878 58.1819 38.1865Z" fill="#936754"/>
<path d="M61.1948 47.6013C61.1948 47.6013 61.2611 47.6595 61.3114 47.8026C61.3847 48.0077 61.3958 48.2299 61.3432 48.4412C61.3231 48.518 61.286 48.5893 61.2346 48.6499C61.1833 48.7104 61.1189 48.7586 61.0464 48.791C60.8783 48.862 60.6903 48.8705 60.5165 48.8148C60.1429 48.7009 59.9044 48.3458 59.6607 48.0411C59.5463 47.8918 59.4085 47.762 59.2526 47.6569C59.1083 47.5652 58.9383 47.5224 58.7677 47.535L57.8456 47.5907C57.5622 47.6199 57.2769 47.6261 56.9924 47.6092C57.2706 47.5484 57.5533 47.5103 57.8377 47.4953C58.1026 47.4688 58.41 47.437 58.7624 47.4078C58.959 47.3906 59.156 47.437 59.3241 47.5403C59.4943 47.6527 59.644 47.7934 59.7666 47.9563C60.0157 48.2716 60.2409 48.5949 60.5615 48.6929C60.7056 48.7434 60.8626 48.7434 61.0067 48.6929C61.0649 48.6694 61.1173 48.6335 61.1603 48.5877C61.2033 48.542 61.2359 48.4875 61.2558 48.428C61.3073 48.2335 61.3073 48.0289 61.2558 47.8344C61.2266 47.6781 61.1842 47.6066 61.1948 47.6013Z" fill="#7C5142"/>
<path d="M59.4193 41.9464C59.4193 41.9623 59.3133 41.9464 59.1755 41.8669C58.9924 41.7585 58.8479 41.5954 58.7623 41.4005C58.6768 41.2056 58.6545 40.9888 58.6986 40.7806C58.7331 40.6216 58.7913 40.5395 58.8072 40.5474C58.7772 40.8152 58.8052 41.0863 58.8894 41.3423C59.0198 41.58 59.2006 41.7862 59.4193 41.9464Z" fill="#161B46"/>
<path d="M59.0086 47.4395C59.0245 47.4395 59.0351 47.5507 58.9927 47.7256C58.9353 47.9514 58.8265 48.1609 58.6747 48.3377C58.5227 48.515 58.3324 48.6554 58.1183 48.7484C57.954 48.8173 57.8533 48.8252 57.8374 48.8093C58.1174 48.6754 58.3663 48.4843 58.568 48.2484C58.7697 48.0125 58.9198 47.7369 59.0086 47.4395Z" fill="#7C5142"/>
<path d="M61.9477 50.2104C61.691 49.8782 61.3769 49.5946 61.0203 49.3731C60.6419 49.1914 60.2332 49.0809 59.8147 49.0472C59.9354 48.9976 60.0671 48.9811 60.1963 48.9995C60.5091 49.0163 60.8142 49.1028 61.0893 49.2527C61.3643 49.4026 61.6024 49.6122 61.7861 49.866C61.8682 49.9653 61.9238 50.0838 61.9477 50.2104Z" fill="#7C5142"/>
<path d="M61.9847 47.6461C62.171 47.9757 62.3017 48.3338 62.3716 48.706C62.4483 49.068 62.4715 49.4394 62.4405 49.8082C62.3424 50.407 62.0669 52.1081 62.4564 52.5082C62.8459 52.9083 65.469 55.0599 65.469 55.0599H67.1198C67.1198 55.0599 63.7679 52.9905 63.3175 51.5994C62.8671 50.2083 63.3016 49.4638 63.0737 48.5973C62.7589 47.6431 62.3828 46.7102 61.9476 45.8046L58.1162 39.501L57.4829 39.6494L61.9847 47.6461Z" fill="#D4D9F5"/>
<path d="M61.9837 47.6463C61.9837 47.6463 61.9493 47.5986 61.8936 47.5033C61.838 47.4079 61.7505 47.2621 61.6472 47.0846L60.7198 45.4736L57.4289 39.6841L57.3892 39.6152L57.466 39.5966L58.0966 39.4482H58.139L58.1629 39.4853L62.0023 45.7863C62.3176 46.4619 62.6382 47.18 62.919 47.9299C63.0791 48.3053 63.1758 48.7046 63.2052 49.1116C63.2052 49.5197 63.1602 49.9065 63.1655 50.2934C63.167 50.6744 63.2214 51.0534 63.3271 51.4195C63.4301 51.7739 63.6112 52.1007 63.857 52.376C64.3372 52.9158 64.8698 53.4066 65.4468 53.8413C66.0086 54.2705 66.5729 54.6653 67.132 55.0177L67.3122 55.1317H65.4283L65.4124 55.1184C64.3737 54.2573 63.4225 53.473 62.6064 52.747C62.4962 52.6602 62.4005 52.5564 62.3229 52.4396C62.2665 52.3165 62.2306 52.1849 62.2169 52.0501C62.1901 51.8037 62.1857 51.5554 62.2036 51.3082C62.2319 50.8758 62.2823 50.4451 62.3547 50.0178C62.4179 49.678 62.4179 49.3295 62.3547 48.9897C62.3265 48.736 62.2732 48.4857 62.1957 48.2425C62.1554 48.0909 62.105 47.9422 62.0446 47.7974C62.019 47.7492 61.996 47.6997 61.9758 47.649C62.088 47.8296 62.177 48.0237 62.2407 48.2266C62.324 48.4702 62.3835 48.7214 62.4183 48.9765C62.4808 49.3226 62.4808 49.677 62.4183 50.0231C62.3626 50.41 62.3043 50.8366 62.2805 51.3055C62.2666 51.5486 62.2737 51.7924 62.3017 52.0342C62.3148 52.1583 62.3489 52.2792 62.4024 52.3919C62.4765 52.4933 62.5659 52.5827 62.6673 52.6569C63.4887 53.3749 64.4453 54.1566 65.4866 55.0098H65.4495H67.1002L67.0684 55.1237C66.5014 54.7704 65.9344 54.3765 65.3673 53.942C64.7773 53.5044 64.2331 53.0081 63.7431 52.4608C63.4828 52.1715 63.2908 51.8274 63.1814 51.4539C63.0735 51.0764 63.0173 50.686 63.0144 50.2934C63.0144 49.8986 63.0648 49.4985 63.0542 49.1169C63.031 48.7249 62.9414 48.3396 62.7892 47.9775C62.511 47.2356 62.1904 46.5176 61.8777 45.8578L58.0701 39.5383L58.1364 39.5648L57.5031 39.7106L57.5402 39.6258L60.7887 45.4551L61.6843 47.0793L61.9175 47.5086C61.9599 47.5933 61.9837 47.6463 61.9837 47.6463Z" fill="#161B46"/>
<path d="M57.1777 42.3965C57.396 42.166 57.6653 41.9899 57.9639 41.8822C58.2625 41.7745 58.5822 41.7383 58.8974 41.7764C59.5293 41.8576 60.1254 42.1157 60.617 42.521C61.1057 42.9218 61.5579 43.3652 61.9684 43.8458C62.2653 44.1202 62.4838 44.4686 62.6016 44.8554C62.6811 45.2502 62.4665 45.735 62.0717 45.796C61.6769 45.8569 61.3669 45.531 61.0993 45.2343C60.7331 44.844 60.3201 44.5005 59.8698 44.2115C59.6013 44.0171 59.2925 43.8858 58.9663 43.8273C58.5633 43.8075 58.1612 43.8791 57.7898 44.0366" fill="#936754"/>
<path d="M57.7874 44.0455C57.8262 44.0232 57.8671 44.0046 57.9093 43.9899C58.0282 43.9431 58.1493 43.9024 58.2723 43.868C58.4686 43.8115 58.6722 43.7847 58.8765 43.7885C59.1496 43.8097 59.4142 43.8931 59.6502 44.0323C60.2568 44.3786 60.805 44.8186 61.2744 45.3359C61.4054 45.4775 61.5595 45.5958 61.7302 45.6857C61.8133 45.7278 61.906 45.7473 61.999 45.7422C62.0921 45.7371 62.1821 45.7075 62.2601 45.6565C62.3384 45.5958 62.4036 45.5199 62.4518 45.4334C62.5001 45.3469 62.5304 45.2516 62.541 45.1531C62.5616 44.9443 62.5172 44.7342 62.4138 44.5516C62.1782 44.188 61.9046 43.8505 61.5977 43.5447C61.3268 43.2418 61.0365 42.9568 60.7286 42.6915C60.2212 42.2306 59.5888 41.93 58.9109 41.8277C58.4524 41.7732 57.9884 41.866 57.5861 42.0927C57.4439 42.1846 57.3085 42.2864 57.1807 42.3974C57.2031 42.3586 57.2308 42.3229 57.2628 42.2914C57.3516 42.1986 57.4513 42.1168 57.5596 42.0477C57.9656 41.7934 58.4448 41.6815 58.9215 41.7297C59.6243 41.8222 60.2832 42.1231 60.8134 42.5935C61.1271 42.8606 61.4228 43.1483 61.6984 43.4546C62.016 43.7667 62.2977 44.1133 62.5383 44.488C62.657 44.695 62.7063 44.9346 62.6787 45.1716C62.6658 45.2889 62.629 45.4022 62.5707 45.5047C62.5124 45.6072 62.4337 45.6968 62.3396 45.7678C62.2423 45.8319 62.1297 45.8692 62.0134 45.8757C61.897 45.8822 61.781 45.8578 61.6772 45.8049C61.4926 45.7086 61.3266 45.5803 61.187 45.426C60.7258 44.9123 60.1898 44.4711 59.5972 44.1171C59.3773 43.975 59.1282 43.8844 58.8685 43.8521C58.6708 43.842 58.4726 43.8608 58.2803 43.9077C57.965 43.9978 57.806 44.0588 57.7874 44.0455Z" fill="#7C5142"/>
<path d="M57.0537 45.6057C57.8937 45.8071 58.8422 45.6057 59.5815 46.0482C59.8238 46.2053 60.044 46.3942 60.236 46.61L61.3939 47.805C61.6059 48.0249 61.8973 48.2633 62.1888 48.1229C62.2545 48.0878 62.3109 48.0375 62.3533 47.9762C62.3957 47.9149 62.4228 47.8444 62.4326 47.7705C62.452 47.5054 62.382 47.2414 62.2338 47.0207C61.9587 46.5109 61.6562 46.0165 61.3276 45.5395C61.1605 45.2944 60.9697 45.0663 60.758 44.8585C60.4267 44.5046 60.0299 44.2184 59.5895 44.0159C58.9906 43.8304 58.5455 43.7509 57.944 44.0159" fill="#936754"/>
<path d="M57.9405 44.0161C57.9763 43.9897 58.0155 43.9683 58.0571 43.9526C58.1737 43.8988 58.2965 43.8596 58.4227 43.836C58.8964 43.7764 59.3773 43.8536 59.8085 44.0585C60.0967 44.2158 60.3638 44.409 60.6034 44.6335C60.8877 44.8769 61.1397 45.1556 61.3533 45.4629C61.5785 45.7835 61.8037 46.1279 62.021 46.4936C62.1296 46.6764 62.2356 46.8672 62.3363 47.0633C62.46 47.2653 62.5209 47.4996 62.5112 47.7363C62.5006 47.8634 62.4485 47.9836 62.3628 48.0781C62.3192 48.1257 62.2665 48.1641 62.2077 48.1909C62.149 48.2178 62.0855 48.2326 62.021 48.2344C61.7861 48.2104 61.5696 48.0965 61.4169 47.9165L60.5637 47.0341C60.2987 46.7692 60.0337 46.475 59.7873 46.2578C59.5443 46.0582 59.2558 45.9217 58.9474 45.8603C58.375 45.7464 57.8875 45.7623 57.5642 45.7119C57.4377 45.6968 57.3121 45.6747 57.188 45.6457C57.1439 45.6388 57.101 45.6254 57.0608 45.6059C57.0608 45.6059 57.241 45.6351 57.5695 45.6589C58.0367 45.6668 58.5029 45.7022 58.9659 45.7649C59.2926 45.8223 59.5996 45.9608 59.8588 46.1677C60.1238 46.3929 60.3888 46.6711 60.6538 46.9467L61.5069 47.8184C61.6387 47.9656 61.8196 48.0598 62.0157 48.0834C62.1109 48.0756 62.1998 48.0328 62.2654 47.9633C62.3309 47.8939 62.3684 47.8026 62.3707 47.7071C62.378 47.497 62.3227 47.2895 62.2118 47.111C62.1137 46.9202 62.0077 46.7321 61.9018 46.5492C61.6871 46.1862 61.4646 45.8418 61.2473 45.5212C61.0399 45.221 60.797 44.947 60.5239 44.7051C60.2968 44.4838 60.0432 44.2916 59.7688 44.1327C59.3588 43.9275 58.9013 43.836 58.4439 43.8678C58.2733 43.9071 58.1052 43.9567 57.9405 44.0161Z" fill="#7C5142"/>
<path d="M58.585 39.2832C58.2907 39.4728 57.9636 39.6058 57.6205 39.6754C57.2879 39.7898 56.9329 39.8243 56.5845 39.776C56.5845 39.7363 57.0402 39.6913 57.586 39.5402C57.9118 39.4286 58.2458 39.3426 58.585 39.2832Z" fill="#7C5142"/>
<path d="M64.5763 61.1778L63.4369 54.3125L58.6675 55.1922C58.6675 55.1922 58.9166 64.5509 59.1444 66.8508C59.5127 70.5815 61.3596 74.5348 64.1788 73.8353C66.8099 73.1809 69.918 67.6828 69.918 67.6828L64.5763 61.1778Z" fill="#936754"/>
<path d="M88.5103 22.4876C88.6931 22.7843 89.1727 22.7287 89.4111 22.4876C89.6204 22.2075 89.7462 21.8741 89.7741 21.5257C89.8009 21.1766 89.9468 20.8473 90.1875 20.593C90.4525 20.3678 90.948 20.3996 91.0619 20.7282C90.8499 20.1638 91.5229 19.5014 92.082 19.7266C92.1264 19.4438 92.2708 19.1864 92.4889 19.0011C92.707 18.8158 92.9844 18.7149 93.2706 18.7168C93.5568 18.7187 93.8328 18.8233 94.0485 19.0116C94.2641 19.1998 94.405 19.4592 94.4455 19.7425C94.5668 19.6123 94.7273 19.5254 94.9026 19.4951C95.078 19.4649 95.2584 19.493 95.4162 19.575C95.5741 19.6571 95.7006 19.7887 95.7766 19.9496C95.8525 20.1105 95.8736 20.2918 95.8366 20.4658C96.0117 20.4965 96.1768 20.5688 96.3181 20.6766C96.4593 20.7845 96.5725 20.9248 96.6482 21.0856C96.7238 21.2465 96.7596 21.4232 96.7525 21.6008C96.7455 21.7784 96.6958 21.9516 96.6077 22.106C96.8248 22.1266 97.0302 22.2138 97.196 22.3555C97.3617 22.4972 97.4797 22.6865 97.5339 22.8978C97.5881 23.109 97.5758 23.3318 97.4987 23.5358C97.4216 23.7398 97.2835 23.915 97.1032 24.0376C97.1627 24.1819 97.185 24.3388 97.1682 24.494C97.1513 24.6492 97.0958 24.7977 97.0067 24.9258C96.9175 25.0539 96.7977 25.1577 96.6581 25.2275C96.5184 25.2973 96.3636 25.3309 96.2076 25.3254C96.0071 25.6596 95.6825 25.9009 95.3048 25.9967C94.927 26.0925 94.5267 26.035 94.1912 25.8367C93.5248 26.0955 92.8042 26.1833 92.0951 26.0921C91.3861 26.001 90.7111 25.7337 90.1319 25.3148" fill="#161B46"/>
<path d="M88.7914 26.131C88.7711 25.7179 88.5964 25.3275 88.302 25.037C88.0076 24.7466 87.6149 24.5772 87.2016 24.5624L78.3066 22.9514C75.4874 22.8481 73.8631 26.4225 73.879 29.2444C73.8949 32.379 74.0407 36.2051 74.5706 38.5183C75.6305 43.1499 79.2658 43.4997 79.2658 43.4997C79.2658 43.4997 79.3003 44.9517 79.3983 46.9919C79.43 47.6528 79.594 48.3006 79.8808 48.8969C80.1675 49.4932 80.5711 50.0259 81.0675 50.4633C81.564 50.9007 82.1432 51.2339 82.7709 51.4432C83.3986 51.6526 84.0619 51.7337 84.7215 51.6819C85.9794 51.5827 87.1516 51.0058 87.9976 50.0696C88.8436 49.1334 89.2993 47.909 89.271 46.6475L88.7914 26.131Z" fill="#936754"/>
<path d="M75.4573 32.58C75.4662 32.7367 75.5361 32.8837 75.6519 32.9897C75.7678 33.0956 75.9204 33.1521 76.0774 33.147C76.1543 33.1477 76.2307 33.133 76.3019 33.1038C76.3731 33.0746 76.4378 33.0315 76.4921 32.9769C76.5464 32.9223 76.5892 32.8575 76.6181 32.7861C76.647 32.7148 76.6613 32.6384 76.6603 32.5614C76.6507 32.4049 76.5807 32.2583 76.465 32.1525C76.3493 32.0466 76.197 31.99 76.0403 31.9944C75.9633 31.9937 75.8869 32.0083 75.8157 32.0376C75.7445 32.0668 75.6798 32.1099 75.6255 32.1645C75.5712 32.219 75.5284 32.2839 75.4995 32.3552C75.4706 32.4266 75.4563 32.503 75.4573 32.58Z" fill="#161B46"/>
<path d="M74.9173 30.871C74.9968 30.9452 75.4287 30.5769 76.0752 30.5345C76.7217 30.4921 77.2172 30.7809 77.2835 30.6988C77.3152 30.659 77.2305 30.5239 77.0185 30.3887C76.7263 30.2124 76.3863 30.1318 76.046 30.1582C75.7091 30.1805 75.388 30.3095 75.1293 30.5265C74.9358 30.6908 74.8802 30.8392 74.9173 30.871Z" fill="#161B46"/>
<path d="M81.5069 32.3974C81.5165 32.5537 81.5866 32.7001 81.7024 32.8054C81.8181 32.9108 81.9704 32.9669 82.1269 32.9618C82.2038 32.9629 82.28 32.9485 82.3512 32.9196C82.4225 32.8907 82.4871 32.8478 82.5415 32.7934C82.5958 32.7391 82.6387 32.6744 82.6676 32.6032C82.6966 32.532 82.7109 32.4557 82.7098 32.3789C82.7009 32.2221 82.6311 32.0751 82.5152 31.9691C82.3994 31.8632 82.2467 31.8067 82.0898 31.8118C82.0128 31.8111 81.9365 31.8258 81.8653 31.855C81.7941 31.8842 81.7294 31.9274 81.6751 31.9819C81.6208 32.0365 81.5779 32.1013 81.549 32.1727C81.5202 32.244 81.5058 32.3204 81.5069 32.3974Z" fill="#161B46"/>
<path d="M81.3001 30.8574C81.3796 30.9316 81.8142 30.5633 82.458 30.5209C83.1019 30.4785 83.6 30.77 83.6663 30.6852C83.6981 30.6481 83.6133 30.513 83.4013 30.3752C83.1083 30.2011 82.7687 30.1216 82.4289 30.1473C82.0922 30.1689 81.7712 30.2969 81.5121 30.513C81.3187 30.6799 81.2604 30.8389 81.3001 30.8574Z" fill="#161B46"/>
<path d="M79.284 35.8128C79.284 35.7757 78.8786 35.7333 78.2242 35.6962C78.0572 35.6962 77.8983 35.6671 77.8638 35.5584C77.8382 35.3884 77.865 35.2147 77.9407 35.0603C78.0678 34.6487 78.2021 34.2186 78.3434 33.7699C78.8972 31.9337 79.2867 30.4287 79.2125 30.4075C79.1383 30.3863 78.6296 31.8568 78.0731 33.6931L77.6783 34.9887C77.5897 35.1957 77.5757 35.427 77.6386 35.6432C77.6674 35.7031 77.7101 35.7552 77.7631 35.7953C77.8161 35.8353 77.8779 35.8622 77.9433 35.8737C78.0314 35.8836 78.1202 35.8836 78.2083 35.8737C78.8786 35.8737 79.284 35.8499 79.284 35.8128Z" fill="#161B46"/>
<path d="M79.2688 43.4915C81.4765 43.3735 83.6082 42.6452 85.4266 41.3877C85.4266 41.3877 84.0647 44.7157 79.3483 44.5991L79.2688 43.4915Z" fill="#7C5142"/>
<path d="M80.8789 29.1966C80.9531 29.3688 81.5943 29.2416 82.3574 29.2787C83.1205 29.3158 83.7512 29.4828 83.8386 29.3185C83.8783 29.2416 83.7618 29.0827 83.5021 28.929C83.1585 28.7405 82.7755 28.6353 82.3839 28.6216C81.9933 28.6008 81.6034 28.6744 81.2472 28.8362C80.9743 28.9687 80.8577 29.1145 80.8789 29.1966Z" fill="#161B46"/>
<path d="M75.0498 29.2863C75.1717 29.4268 75.6062 29.2439 76.1415 29.1989C76.6767 29.1538 77.1378 29.2307 77.2305 29.0691C77.2729 28.9922 77.1908 28.8491 76.9841 28.7246C76.7065 28.5763 76.3911 28.5138 76.0778 28.5449C75.7646 28.576 75.4677 28.6994 75.2247 28.8995C75.0445 29.0638 74.9942 29.2201 75.0498 29.2863Z" fill="#161B46"/>
<path d="M77.1677 22.8688C76.9027 23.4491 78.0262 24.5222 78.6356 24.7236C79.245 24.925 80.0346 24.8217 80.3632 25.3754C80.7395 26.0034 79.9737 27.0182 81.2455 27.7019C81.6483 27.9165 82.2339 27.4634 82.5704 27.7707C82.9864 28.1523 82.4432 28.8094 82.4617 29.3606C82.4962 30.4522 84.4888 30.5397 84.6212 31.6234C84.7034 32.307 83.9403 32.9482 84.2052 33.5894C84.4702 34.2307 85.5672 34.183 85.8374 34.8295C86.1845 35.6641 84.7776 36.3849 84.9498 37.2698C85.122 38.1548 86.5926 38.1469 86.8867 38.9895C87.1384 39.7102 86.3276 40.4972 86.6032 41.2073C86.9185 42.0207 88.291 41.9015 88.6593 42.6911C89.1045 43.645 87.5995 44.7446 88.1082 45.664C88.2778 45.9714 88.6699 46.08 88.9031 46.345C89.6503 47.2035 89.5841 49.0742 88.813 49.824H89.3642C90.192 49.81 91.0035 49.5912 91.7262 49.1871C92.4489 48.783 93.0602 48.2062 93.5056 47.5082L93.964 48.5681C95.4319 48.1017 96.5766 47.1399 97.753 46.1516C98.0451 45.9074 98.3918 45.7375 98.7636 45.6563C99.1355 45.5751 99.5215 45.585 99.8887 45.6852L100.215 45.7727C101.198 45.8469 102.485 45.3593 103.307 44.8108C102.223 44.5936 101.64 43.4118 101.37 42.3413C101.1 41.2709 100.935 40.0759 100.124 39.3233C99.2475 38.5072 97.7265 38.3244 97.3238 37.2036C97.0058 36.3186 97.5888 35.3091 97.3105 34.4135C97.0323 33.5179 95.9592 33.0648 95.5485 32.209C94.9894 31.0431 95.7976 29.501 95.0848 28.4226C94.3138 27.2488 92.2444 27.421 91.6588 26.1438C91.3382 25.4364 91.5978 24.4798 91.0414 23.9393C90.5936 23.5074 89.8331 23.579 89.3642 23.1709C88.6752 22.5747 89.0118 21.3479 88.4129 20.6617C87.6048 19.7343 85.9461 20.553 84.9074 19.8933C84.2529 19.4773 84.0356 18.5817 83.3891 18.1551C82.5121 17.5721 81.3621 18.0968 80.3685 18.4439C79.6001 18.7089 78.7919 18.8652 78.0447 19.1937C77.2975 19.5223 76.598 20.0628 76.333 20.8339C76.0681 21.6049 76.3993 22.6012 77.1703 22.8635" fill="#161B46"/>
<path d="M101.862 41.0804C101.891 41.0991 101.916 41.1214 101.939 41.1467C101.989 41.1944 102.064 41.2633 102.154 41.3587C102.269 41.4761 102.374 41.6038 102.466 41.7402C102.602 41.924 102.693 42.1374 102.731 42.3629C102.747 42.505 102.734 42.649 102.692 42.7857C102.65 42.9225 102.581 43.0491 102.488 43.1578C102.377 43.2869 102.224 43.3716 102.056 43.3963C101.965 43.4056 101.873 43.3968 101.786 43.3705C101.698 43.3441 101.617 43.3006 101.547 43.2426C101.271 42.9572 101.113 42.5792 101.102 42.1827C101.078 41.7538 101.078 41.3239 101.102 40.895C101.126 40.4445 101.165 39.9729 101.229 39.4853C101.261 39.2416 101.3 38.9925 101.343 38.7408C101.392 38.4905 101.408 38.2348 101.391 37.9803C101.385 37.8538 101.351 37.7302 101.29 37.619C101.23 37.5078 101.144 37.4121 101.041 37.3391C100.807 37.2109 100.539 37.1617 100.275 37.1987C99.9881 37.2292 99.6997 37.2433 99.4112 37.2411C99.2553 37.24 99.1016 37.2045 98.961 37.1372C98.8204 37.0698 98.6964 36.9723 98.5978 36.8516C98.4156 36.5922 98.3167 36.2835 98.3143 35.9666C98.3076 35.655 98.3315 35.3434 98.3858 35.0365C98.4365 34.7318 98.4463 34.4217 98.415 34.1144C98.3973 33.9634 98.3489 33.8175 98.2728 33.6858C98.1967 33.5542 98.0945 33.4394 97.9725 33.3487C97.6983 33.1794 97.4092 33.0357 97.1087 32.9194C96.7901 32.779 96.524 32.5417 96.3482 32.2411C96.0064 31.6237 96.0117 30.9004 96.0249 30.2221C96.0363 29.8856 96.0195 29.5488 95.9746 29.2152C95.9307 28.8911 95.8099 28.5822 95.6222 28.3143C95.2221 27.7844 94.5782 27.5644 93.9926 27.2995C93.692 27.1747 93.4059 27.0175 93.1394 26.8305C92.8715 26.6363 92.6698 26.3643 92.5618 26.0515C92.488 25.7481 92.4427 25.4385 92.4267 25.1267C92.4164 24.8382 92.2982 24.5639 92.0955 24.3583C91.87 24.1871 91.6029 24.0791 91.3218 24.0457C91.0346 24.0057 90.7523 23.9364 90.4792 23.839C90.2035 23.7307 89.9803 23.5199 89.8565 23.2508C89.7564 22.9971 89.7 22.7283 89.6896 22.4559C89.6525 21.9259 89.6657 21.396 89.4246 20.9879C89.1776 20.5957 88.8035 20.3002 88.3647 20.1506C87.9676 20.0024 87.5485 19.9218 87.1247 19.9122C86.7219 19.891 86.3298 19.8963 85.9827 19.8804C85.6485 19.8738 85.3157 19.8347 84.989 19.7638C84.7097 19.7005 84.4417 19.5951 84.1941 19.4511C83.8468 19.2637 83.5684 18.9704 83.3992 18.6138C83.3399 18.491 83.3048 18.3578 83.2959 18.2217C83.3282 18.3512 83.3707 18.4779 83.4231 18.6006C83.5994 18.9414 83.8772 19.2191 84.218 19.3955C84.4608 19.5401 84.7244 19.6464 84.9996 19.7108C85.3234 19.7758 85.6525 19.8104 85.9827 19.8141C86.3377 19.8141 86.7193 19.8141 87.1273 19.8353C87.5604 19.8426 87.9892 19.9214 88.3965 20.0685C88.8581 20.224 89.252 20.5337 89.512 20.9455C89.777 21.396 89.7585 21.9418 89.8009 22.4585C89.811 22.7208 89.8647 22.9796 89.9598 23.2243C90.0713 23.467 90.2727 23.657 90.5216 23.7542C90.7884 23.8459 91.0635 23.9115 91.343 23.9503C91.6468 23.9856 91.9353 24.1029 92.1776 24.2894C92.4048 24.5147 92.5382 24.8177 92.5512 25.1373C92.5689 25.4409 92.6133 25.7424 92.6837 26.0382C92.7845 26.3238 92.9692 26.5722 93.2136 26.751C93.4721 26.9321 93.7503 27.0833 94.043 27.2014C94.3371 27.3339 94.6418 27.4664 94.9359 27.6174C95.2441 27.7713 95.5153 27.99 95.7308 28.2587C95.9333 28.5428 96.0634 28.872 96.1097 29.2178C96.1578 29.5601 96.1755 29.9059 96.1627 30.2512C96.1468 30.9295 96.1627 31.629 96.4674 32.1987C96.6289 32.4761 96.875 32.6943 97.1696 32.8214C97.4776 32.9425 97.7738 33.0915 98.0546 33.2666C98.1905 33.3681 98.3041 33.4964 98.3884 33.6436C98.4728 33.7909 98.526 33.9538 98.5448 34.1224C98.5804 34.441 98.5706 34.7631 98.5156 35.0789C98.4621 35.3788 98.4381 35.6832 98.4441 35.9878C98.4455 36.2771 98.5332 36.5593 98.6958 36.7986C98.784 36.9053 98.8944 36.9914 99.0194 37.0509C99.1443 37.1104 99.2808 37.1419 99.4192 37.143C99.7023 37.1456 99.9854 37.1323 100.267 37.1033C100.557 37.0656 100.852 37.1232 101.107 37.2676C101.224 37.3503 101.321 37.4587 101.39 37.5845C101.459 37.7103 101.498 37.8503 101.504 37.9936C101.522 38.2597 101.504 38.527 101.451 38.7885C101.406 39.0534 101.369 39.284 101.335 39.5277C101.269 40.0126 101.224 40.4816 101.2 40.9294C101.17 41.3536 101.164 41.7791 101.181 42.2039C101.19 42.5784 101.334 42.9371 101.587 43.2134C101.646 43.265 101.716 43.304 101.79 43.3284C101.865 43.3527 101.944 43.3618 102.023 43.3552C102.101 43.3485 102.178 43.3262 102.248 43.2896C102.317 43.2529 102.379 43.2027 102.429 43.1419C102.519 43.0405 102.587 42.9214 102.629 42.7923C102.67 42.6632 102.684 42.5269 102.67 42.392C102.64 42.1735 102.559 41.965 102.435 41.7826C102.346 41.6471 102.246 41.5187 102.138 41.3984L101.934 41.1785C101.906 41.149 101.882 41.1161 101.862 41.0804Z" fill="#161B46"/>
<path d="M91.6077 47.8628L91.7348 47.8071C91.8196 47.77 91.9468 47.7197 92.1032 47.6402C92.2983 47.5454 92.4695 47.4077 92.6039 47.2374C92.6922 47.1227 92.7475 46.9861 92.7639 46.8423C92.7802 46.6985 92.757 46.5529 92.6967 46.4213C92.6072 46.2767 92.4644 46.173 92.2992 46.1325C92.1244 46.0769 91.9309 46.0557 91.7322 45.9868C91.627 45.9535 91.5308 45.8964 91.4513 45.8198C91.372 45.7319 91.3245 45.62 91.3162 45.5019C91.3346 45.2657 91.4161 45.0388 91.552 44.8448C91.6805 44.6435 91.7595 44.4147 91.7825 44.177C91.8037 43.9262 91.756 43.6742 91.6448 43.4484C91.5184 43.208 91.3229 43.011 91.0834 42.883C90.8439 42.755 90.5715 42.7018 90.3014 42.7303H90.2457V42.672C90.2407 42.2503 90.3748 41.8387 90.6273 41.5009C90.8853 41.1616 91.1123 40.7997 91.3056 40.4198C91.3935 40.2235 91.443 40.0121 91.4513 39.7971C91.4613 39.5819 91.3915 39.3705 91.2553 39.2036C90.9691 38.8644 90.4604 38.7876 90.0338 38.5836C89.7907 38.4897 89.5907 38.3095 89.472 38.0775C89.3741 37.8307 89.3741 37.5559 89.472 37.3091C89.6284 36.8268 89.9437 36.3949 89.9278 35.9048C89.9092 35.6594 89.8094 35.4273 89.6443 35.245C89.4755 35.0553 89.2779 34.8935 89.0587 34.7654C88.6215 34.5004 88.1048 34.3149 87.6756 33.9705C87.4016 33.7595 87.2134 33.4564 87.1456 33.1173C87.0993 32.7849 87.132 32.4463 87.241 32.129C87.3284 31.8163 87.4397 31.5169 87.506 31.2122C87.5392 31.0645 87.5517 30.9129 87.5431 30.7617C87.5282 30.6167 87.4802 30.4771 87.4026 30.3537C87.2275 30.1142 86.9761 29.9414 86.6899 29.8635C86.3963 29.7763 86.1108 29.6637 85.8367 29.527C85.7001 29.4495 85.5819 29.3433 85.4904 29.2156C85.3989 29.088 85.3362 28.942 85.3067 28.7877C85.2645 28.4914 85.2816 28.1897 85.3571 27.9001C85.4154 27.6192 85.4869 27.3463 85.5214 27.0734C85.5689 26.8072 85.546 26.5332 85.4551 26.2785C85.3507 26.0445 85.1767 25.8484 84.957 25.7167C84.7399 25.5865 84.5052 25.4884 84.2601 25.4253C83.7752 25.2954 83.2771 25.2557 82.8213 25.0888C82.5877 25.0176 82.3706 24.9005 82.1828 24.7443C82.0148 24.5941 81.8756 24.4145 81.7721 24.2144C81.568 23.8222 81.4594 23.4195 81.2951 23.075C81.1508 22.7424 80.9225 22.453 80.6327 22.2351C80.4007 22.0608 80.1339 21.9386 79.8504 21.8768C79.5669 21.8151 79.2734 21.8153 78.9899 21.8774C78.6292 21.9595 78.2959 22.1339 78.0228 22.3834C77.8373 22.5583 77.7578 22.6723 77.7578 22.667C77.8254 22.5552 77.9083 22.4535 78.0042 22.3649C78.2748 22.1039 78.6107 21.9209 78.9767 21.835C79.2684 21.7658 79.5717 21.761 79.8655 21.821C80.1592 21.8809 80.4364 22.0041 80.6778 22.1821C80.9812 22.4034 81.2215 22.7003 81.3746 23.0432C81.5469 23.4009 81.6581 23.801 81.8595 24.1773C81.9572 24.3692 82.0892 24.5417 82.249 24.686C82.4224 24.8305 82.6209 24.9419 82.8346 25.0146C83.2718 25.1736 83.7646 25.208 84.2654 25.3378C84.5226 25.4024 84.769 25.5041 84.9967 25.6399C85.2374 25.7852 85.4279 26.0006 85.5426 26.2573C85.6415 26.5265 85.6689 26.8169 85.6221 27.0999C85.5876 27.3834 85.5161 27.659 85.4578 27.9372C85.3879 28.2097 85.3717 28.4931 85.4101 28.7718C85.4366 28.9086 85.4928 29.0378 85.5748 29.1505C85.6567 29.2631 85.7624 29.3563 85.8844 29.4236C86.1523 29.5549 86.4306 29.6639 86.7164 29.7496C87.0294 29.8326 87.305 30.0195 87.498 30.2795C87.5882 30.4208 87.6436 30.5816 87.6597 30.7485C87.6674 30.9128 87.6549 31.0774 87.6226 31.2387C87.559 31.5593 87.4477 31.8587 87.3576 32.1661C87.2551 32.4629 87.2233 32.7795 87.2648 33.0908C87.33 33.3999 87.5051 33.6748 87.7577 33.8645C88.1631 34.201 88.6692 34.3759 89.1249 34.6594C89.3572 34.7951 89.5665 34.9668 89.7449 35.1681C89.9272 35.3737 90.0371 35.6334 90.0576 35.9074C90.0709 36.4665 89.737 36.9063 89.5939 37.3594C89.5092 37.5767 89.5092 37.8178 89.5939 38.0351C89.7009 38.2371 89.8767 38.394 90.0894 38.4776C90.3014 38.5756 90.5292 38.6445 90.7518 38.7426C90.9827 38.8236 91.1901 38.9601 91.3559 39.14C91.5112 39.331 91.5904 39.5725 91.5785 39.8183C91.5682 40.0489 91.5142 40.2755 91.4195 40.486C91.2223 40.8717 90.9909 41.2388 90.728 41.583C90.487 41.8988 90.3575 42.2855 90.3597 42.6826L90.2987 42.6323C90.5915 42.6035 90.8862 42.6641 91.144 42.8059C91.4017 42.9478 91.6105 43.1644 91.7428 43.4272C91.8555 43.662 91.905 43.9221 91.8864 44.1818C91.8678 44.4416 91.7818 44.692 91.6368 44.9084C91.509 45.0884 91.4296 45.2982 91.4063 45.5178C91.4155 45.6163 91.4551 45.7096 91.5197 45.7846C91.5843 45.8596 91.6706 45.9127 91.7667 45.9364C91.9521 46.0027 92.1482 46.0292 92.3284 46.0875C92.5095 46.1354 92.6645 46.2524 92.7603 46.4134C92.8356 46.5623 92.8571 46.7327 92.8212 46.8956C92.7955 47.0376 92.7375 47.1718 92.6516 47.2878C92.5082 47.4608 92.3269 47.5986 92.1217 47.6905C91.9555 47.7622 91.7835 47.8198 91.6077 47.8628Z" fill="#737690"/>
<path d="M99.1415 45.4127C99.2206 45.2981 99.2856 45.1745 99.335 45.0444C99.4633 44.6672 99.4366 44.2545 99.2608 43.897C99.1327 43.6426 98.9278 43.435 98.6752 43.3035C98.5282 43.2246 98.3866 43.1361 98.2512 43.0385C98.1748 42.9836 98.1099 42.9142 98.0604 42.8342C98.0108 42.7541 97.9775 42.6651 97.9624 42.5722C97.9068 42.1721 98.1823 41.817 98.1744 41.4169C98.1706 41.3156 98.1436 41.2166 98.0953 41.1274C98.0471 41.0383 97.9789 40.9615 97.8962 40.9029C97.7121 40.7767 97.5138 40.6726 97.3053 40.5929C97.0786 40.5066 96.8646 40.3898 96.6694 40.2458C96.4628 40.0813 96.3264 39.8446 96.2878 39.5834C96.203 39.0534 96.37 38.5235 96.3806 37.9936C96.3993 37.7259 96.3315 37.4593 96.1871 37.2331C96.0123 37.0179 95.7798 36.8571 95.5168 36.7694C95.2365 36.6697 94.9622 36.5538 94.6954 36.4223C94.5499 36.3519 94.4231 36.2484 94.3251 36.12C94.227 35.9915 94.1605 35.8419 94.131 35.683C94.1033 35.3663 94.1184 35.0472 94.176 34.7345C94.2085 34.5871 94.2104 34.4347 94.1817 34.2866C94.153 34.1385 94.0942 33.9979 94.0091 33.8733C93.7811 33.6561 93.5024 33.4994 93.1983 33.4176C92.8636 33.3228 92.5677 33.1243 92.3531 32.8505C92.1756 32.5411 92.1127 32.179 92.1755 31.8278C92.2353 31.4853 92.3239 31.1484 92.4405 30.8209C92.5497 30.4998 92.5947 30.1604 92.573 29.822C92.5523 29.6565 92.4962 29.4974 92.4084 29.3557C92.3206 29.2139 92.2032 29.0928 92.0642 29.0006C91.763 28.833 91.4348 28.7191 91.0945 28.664C90.7527 28.5978 90.4055 28.5422 90.069 28.4441C89.7231 28.3584 89.406 28.1829 89.1496 27.9354C88.9088 27.6818 88.7277 27.3777 88.6197 27.0451C88.413 26.3933 88.3547 25.7203 88.2222 25.1082C88.1617 24.8018 88.0601 24.505 87.9201 24.2258C87.7773 23.9618 87.5658 23.7412 87.3081 23.5873C86.7781 23.3037 86.1555 23.3779 85.5805 23.4044C85.2898 23.4275 84.9975 23.4186 84.7087 23.3779C84.4203 23.3354 84.1471 23.2216 83.9138 23.0467C83.466 22.6943 83.2143 22.2068 82.9229 21.8014C82.7861 21.5979 82.6261 21.4112 82.4459 21.245C82.2698 21.0918 82.0748 20.9618 81.8656 20.8581C81.1056 20.5124 80.2441 20.4624 79.4491 20.7177C78.8515 20.9139 78.2986 21.2263 77.8222 21.6371C77.5183 21.8938 77.2349 22.1738 76.9743 22.4744L76.773 22.7129C76.7279 22.7659 76.7014 22.7924 76.7014 22.7924C76.7176 22.7612 76.7372 22.7319 76.7597 22.7049C76.8021 22.6466 76.8657 22.5645 76.9531 22.4585C77.2052 22.1473 77.4846 21.8591 77.7878 21.5974C78.2647 21.1736 78.8214 20.8493 79.4253 20.6435C80.2431 20.3726 81.1327 20.418 81.9186 20.7707C82.1365 20.8761 82.3396 21.0098 82.5228 21.1681C82.7099 21.3386 82.8763 21.5308 83.0182 21.7404C83.3177 22.1511 83.572 22.6281 83.9933 22.9566C84.2103 23.1168 84.4632 23.2214 84.7299 23.2614C85.01 23.3 85.2934 23.3079 85.5752 23.2852C85.8666 23.2693 86.1634 23.2428 86.4681 23.2561C86.7822 23.2587 87.0915 23.334 87.3717 23.476C87.6512 23.6406 87.881 23.8777 88.0367 24.1622C88.1838 24.4529 88.2908 24.7622 88.3547 25.0817C88.4533 25.7277 88.586 26.368 88.7521 27.0001C88.8508 27.3123 89.0183 27.5985 89.2423 27.8373C89.4815 28.07 89.779 28.2339 90.1035 28.3116C90.4294 28.407 90.7739 28.46 91.1183 28.5289C91.4762 28.586 91.8209 28.7072 92.1358 28.8866C92.2919 28.9888 92.424 29.1238 92.5228 29.2821C92.6216 29.4404 92.6848 29.6183 92.7081 29.8034C92.7317 30.1623 92.6849 30.5223 92.5703 30.8633C92.4583 31.1831 92.3741 31.512 92.3186 31.8463C92.2595 32.1659 92.3149 32.4961 92.4749 32.779C92.6722 33.0334 92.9449 33.2189 93.2539 33.3089C93.5807 33.398 93.879 33.5695 94.1204 33.8071C94.2286 33.9421 94.2974 34.1044 94.3191 34.2761C94.3377 34.4389 94.3377 34.6034 94.3191 34.7663C94.2622 35.0656 94.2453 35.3713 94.2688 35.6751C94.2948 35.8159 94.3537 35.9486 94.4407 36.0624C94.5278 36.1761 94.6404 36.2676 94.7696 36.3296C95.0273 36.4597 95.2927 36.5738 95.5645 36.6714C95.8473 36.7707 96.0969 36.9469 96.2852 37.1801C96.4357 37.4237 96.5078 37.7077 96.4919 37.9936C96.476 38.55 96.3117 39.0693 96.3885 39.5595C96.4222 39.7961 96.5443 40.011 96.7303 40.161C96.9179 40.3007 97.1239 40.414 97.3424 40.4975C97.5579 40.5811 97.7626 40.6906 97.9518 40.8234C98.044 40.8914 98.1195 40.9795 98.1728 41.0809C98.226 41.1823 98.2555 41.2945 98.2592 41.409C98.2592 41.8541 97.9942 42.2039 98.034 42.5563C98.0631 42.7263 98.1584 42.8777 98.2989 42.9776C98.4301 43.0745 98.5673 43.163 98.7096 43.2426C98.9723 43.3806 99.1834 43.6 99.3111 43.8679C99.3986 44.0513 99.4483 44.2504 99.4574 44.4534C99.4665 44.6564 99.4348 44.8592 99.3641 45.0497C99.3152 45.1845 99.2395 45.308 99.1415 45.4127Z" fill="#737690"/>
<path d="M80.1139 37.914C80.007 37.7622 79.9531 37.5795 79.9604 37.394C79.9677 37.2086 80.0358 37.0307 80.1543 36.8878C80.2728 36.7449 80.4349 36.645 80.6158 36.6035C80.7968 36.5619 80.9863 36.5811 81.1552 36.658C81.3674 36.7709 81.5458 36.9383 81.6719 37.1429C81.7506 37.2394 81.8086 37.3511 81.8423 37.471C81.876 37.5908 81.8848 37.7164 81.868 37.8398C81.8376 37.9355 81.7878 38.024 81.7217 38.0997C81.6556 38.1754 81.5746 38.2366 81.4838 38.2796C81.3475 38.3539 81.1973 38.3991 81.0427 38.4123C80.8881 38.4256 80.7324 38.4065 80.5855 38.3565C80.4393 38.3046 80.3076 38.2186 80.2011 38.1058C80.0947 37.9929 80.0167 37.8563 79.9735 37.7073" fill="#7C5142"/>
<path d="M81.631 36.5305C81.684 36.5437 81.7052 36.7001 81.631 36.9385C81.5217 37.248 81.3221 37.5177 81.0581 37.7127C80.7941 37.9078 80.4778 38.0193 80.1498 38.0328C79.9007 38.0328 79.7576 37.9666 79.7603 37.9136C79.7603 37.797 80.3167 37.752 80.8202 37.3837C81.3236 37.0154 81.5197 36.5013 81.631 36.5305Z" fill="#161B46"/>
<path d="M64.8858 54.5381C64.8281 54.333 64.8259 54.1162 64.8794 53.91C64.933 53.7038 65.0403 53.5154 65.1905 53.3643C65.4977 53.0654 65.902 52.8867 66.3299 52.8609C66.7036 52.8204 67.081 52.8895 67.4162 53.0596C67.6079 53.1511 67.7748 53.2872 67.9028 53.4567C68.0308 53.6261 68.1161 53.8239 68.1517 54.0332C68.1873 54.2426 68.1721 54.4574 68.1072 54.6597C68.0424 54.8619 67.9299 55.0456 67.7792 55.1952C67.4509 55.5358 67.0062 55.7402 66.5339 55.7676C66.1377 55.8113 65.7399 55.7003 65.4237 55.4575C65.2774 55.3484 65.155 55.2106 65.0639 55.0525C64.9727 54.8944 64.9149 54.7194 64.8937 54.5381" fill="#00ACE9"/>
<path d="M60.9194 56.0109C59.3508 56.4242 57.6311 54.7841 57.1542 53.6659C57.1216 53.6106 57.1029 53.5482 57.0996 53.4841C57.0964 53.4199 57.1088 53.3559 57.1357 53.2976C57.183 53.2482 57.2421 53.2116 57.3075 53.1913C57.3728 53.1709 57.4422 53.1674 57.5093 53.181C58.3055 53.2263 59.0663 53.5255 59.68 54.0348C60.2937 54.5441 60.7281 55.2367 60.9194 56.0109Z" fill="#0064A7"/>
<path d="M59.0586 55.2903C59.0003 55.0857 58.9978 54.8691 59.0514 54.6632C59.1049 54.4573 59.2127 54.2694 59.3633 54.1192C59.6707 53.8201 60.0747 53.6406 60.5027 53.6131C60.8767 53.5741 61.2539 53.644 61.5891 53.8144C61.7778 53.9066 61.942 54.0424 62.068 54.2105C62.1939 54.3786 62.2781 54.5743 62.3136 54.7813C62.3491 54.9884 62.3348 55.2009 62.2719 55.4014C62.209 55.6018 62.0994 55.7844 61.9521 55.9342C61.6236 56.2762 61.1776 56.4808 60.7041 56.5065C60.3091 56.5498 59.9127 56.4398 59.5965 56.1992C59.4493 56.0904 59.3262 55.9523 59.235 55.7936C59.1437 55.6349 59.0864 55.459 59.0666 55.2771" fill="#00ACE9"/>
<path d="M67.3106 54.9778C67.2576 54.1458 67.7478 53.0886 68.1823 52.3785C68.6205 51.6632 69.268 51.0999 70.0371 50.7649C70.0612 50.746 70.0897 50.7337 70.12 50.7294C70.1502 50.725 70.1811 50.7286 70.2095 50.7398C70.2379 50.7511 70.2629 50.7696 70.2819 50.7935C70.3009 50.8174 70.3134 50.8459 70.318 50.8761C70.5265 51.3477 70.607 51.8658 70.5515 52.3784C70.4959 52.891 70.3063 53.3799 70.0016 53.7958C69.6969 54.2117 69.288 54.54 68.816 54.7475C68.344 54.955 67.8257 55.0345 67.3132 54.9778" fill="#0064A7"/>
<path d="M72.9994 53.0958C73.2861 52.7082 73.5362 52.2949 73.7466 51.8611C73.956 51.4235 74.0413 50.9368 73.9931 50.4541C73.9924 50.4179 73.9837 50.3822 73.9677 50.3497C73.9517 50.3172 73.9287 50.2886 73.9003 50.266C73.8682 50.2516 73.8335 50.2441 73.7983 50.2441C73.7631 50.2441 73.7284 50.2516 73.6963 50.266C72.812 50.5395 72.036 51.0838 71.4778 51.8222C70.9197 52.5605 70.6076 53.4556 70.5856 54.3809L70.5591 54.6194C71.3531 55.0057 72.2661 55.0684 73.1054 54.7943C73.7886 54.6171 74.4293 54.3044 74.9893 53.8748C75.5539 53.4391 75.9326 52.8058 76.0492 52.1022C75.4991 52.0336 74.9406 52.0871 74.4135 52.2588C73.8864 52.4306 73.4036 52.7163 72.9994 53.0958Z" fill="#0064A7"/>
<path d="M62.9676 52.4793C62.1727 51.7745 61.0916 51.438 60.0344 51.2764C60.0103 51.81 60.0926 52.3431 60.2766 52.8446C60.4606 53.346 60.7425 53.8059 61.1061 54.1973C61.4696 54.5887 61.9074 54.9038 62.3939 55.1242C62.8805 55.3447 63.4061 55.4661 63.94 55.4814L63.993 55.3622C64.2686 54.3182 63.7757 53.1841 62.9676 52.4793Z" fill="#0064A7"/>
<path d="M57.636 55.2794C57.636 55.2794 59.4908 61.6386 63.1738 63.8908C67.9856 66.8319 75.2192 62.9184 75.834 61.3789C76.4487 59.8395 77.5245 53.5889 77.5245 53.5889L57.636 55.2794Z" fill="#D4D9F5"/>
<path d="M57.6369 55.2803H57.7296L58.0131 55.2512L59.1207 55.1505L63.2701 54.7769L77.52 53.5342H77.6075L77.5916 53.619C77.2524 55.5426 76.8815 57.5776 76.3992 59.6549C76.2932 60.0948 76.1899 60.5293 76.0574 60.9586C76.0256 61.0672 75.9885 61.1732 75.9514 61.2792C75.9302 61.3322 75.9143 61.3852 75.8931 61.4382C75.8719 61.4912 75.8401 61.5442 75.811 61.5945C75.6845 61.7829 75.5359 61.9554 75.3685 62.1085C74.7115 62.6812 73.9807 63.1633 73.1958 63.542C72.445 63.916 71.6641 64.2262 70.8614 64.4694C70.0933 64.7075 69.3047 64.8734 68.5058 64.9649C67.0233 65.166 65.5139 64.9891 64.118 64.4509C62.9232 63.9296 61.8776 63.118 61.0761 62.09C60.4045 61.2618 59.8169 60.3689 59.322 59.4244C58.9464 58.7141 58.6085 57.9844 58.3099 57.2384C58.0608 56.6264 57.8965 56.1388 57.7799 55.8076C57.7243 55.6433 57.6872 55.5161 57.6634 55.4313C57.6395 55.3466 57.6289 55.2962 57.6289 55.2989C57.6472 55.3403 57.6632 55.3828 57.6766 55.426C57.7057 55.5161 57.7508 55.6407 57.8064 55.7997C57.923 56.1256 58.0952 56.6105 58.3523 57.2172C58.6586 57.9577 59.0026 58.682 59.383 59.3873C59.8807 60.3264 60.47 61.2139 61.1424 62.037C61.9459 63.0378 62.9845 63.8243 64.1657 64.3263C65.5453 64.8523 67.0353 65.0218 68.4979 64.8192C70.1153 64.6173 71.6858 64.1377 73.1401 63.4016C73.9142 63.0296 74.6344 62.5546 75.2811 61.9893C75.4381 61.8437 75.5785 61.681 75.6997 61.5044L75.7712 61.3666C75.7924 61.3163 75.8083 61.2633 75.8269 61.2129C75.8613 61.1096 75.9011 61.0063 75.9302 60.9003C76.0601 60.4763 76.1634 60.0418 76.272 59.6046C76.749 57.5325 77.1252 55.4976 77.4644 53.5766L77.5359 53.6561L63.331 54.8325L59.1631 55.1664L58.0396 55.2538L57.7455 55.275L57.6369 55.2803Z" fill="#161B46"/>
<path d="M62.5085 62.5109C62.4259 62.4537 62.3503 62.387 62.2833 62.3122C62.1455 62.1797 61.9521 61.9783 61.7189 61.7213C61.1171 61.0498 60.5654 60.3351 60.0682 59.583C59.5691 58.8325 59.1263 58.046 58.7433 57.2301C58.5976 56.9148 58.4784 56.6577 58.4174 56.4776C58.375 56.3861 58.343 56.2901 58.322 56.1914C58.382 56.273 58.431 56.362 58.4678 56.4564C58.5499 56.6286 58.6744 56.8803 58.8308 57.185C59.2398 57.9846 59.6936 58.7604 60.19 59.5088C60.687 60.2542 61.2249 60.9716 61.801 61.6577C62.021 61.9227 62.2038 62.132 62.331 62.2751C62.3997 62.346 62.4594 62.4252 62.5085 62.5109Z" fill="white"/>
<path d="M76.4917 54.657C76.4312 54.6744 76.369 54.6859 76.3063 54.6915L75.7763 54.763C75.3179 54.8266 74.6529 54.9061 73.8288 54.9988C72.1834 55.1843 69.9046 55.4095 67.3848 55.6029C64.865 55.7964 62.5756 55.9182 60.9222 55.9845C60.0929 56.0163 59.4252 56.0401 58.9615 56.0481H58.4315C58.3689 56.0522 58.3061 56.0522 58.2434 56.0481C58.3042 56.0338 58.3664 56.0266 58.4289 56.0269L58.9588 55.9924L60.9169 55.8838C62.5703 55.7911 64.8544 55.6533 67.3742 55.4625C69.894 55.2717 72.1701 55.0598 73.8182 54.8981L75.771 54.7073L76.301 54.6597C76.3643 54.6522 76.4282 54.6513 76.4917 54.657Z" fill="white"/>
<path d="M94.9331 61.9567L93.6083 68.8274L79.9519 61.5752L76.8835 64.8184C76.8835 64.8184 89.8829 76.7075 92.6067 78.8802C95.3306 81.053 99.0375 78.5437 100.121 74.5109C101.205 70.4781 102.644 65.2715 103.054 61.8879L94.9331 61.9567Z" fill="#936754"/>
<path d="M81.1231 62.4231C81.1231 62.4231 77.1778 59.429 75.7761 59.7337C75.3597 59.8165 74.9542 59.9472 74.5678 60.1232C74.1062 60.3519 73.5992 60.4741 73.084 60.4809C72.5673 60.4809 71.9129 60.4809 71.2796 60.4491C70.066 60.3935 69.6898 60.7141 69.5944 61.1804C69.5709 61.2858 69.5703 61.3949 69.5926 61.5005C69.6149 61.6061 69.6596 61.7057 69.7236 61.7926C69.7876 61.8794 69.8695 61.9516 69.9638 62.0041C70.0581 62.0567 70.1625 62.0884 70.2701 62.0972C71.056 62.1397 71.8369 62.2488 72.6044 62.4231C73.3357 62.6616 72.4799 62.5106 71.5658 63.1041C70.6516 63.6976 66.9315 63.8195 66.9315 63.8195L64.9071 62.2721C64.7889 62.1811 64.6439 62.1316 64.4947 62.1313C64.3455 62.131 64.2004 62.1799 64.0818 62.2704C63.9632 62.361 63.8778 62.4881 63.8387 62.6321C63.7997 62.7761 63.8092 62.9289 63.8658 63.067L63.8817 63.0988L63.6962 62.9107C63.6017 62.8168 63.4773 62.7589 63.3446 62.7469C63.212 62.7349 63.0792 62.7695 62.9694 62.8449C62.8595 62.9202 62.7793 63.0315 62.7427 63.1596C62.7061 63.2877 62.7154 63.4246 62.7688 63.5466C62.7742 63.5539 62.7787 63.562 62.7821 63.5704L64.4302 65.1602L66.9315 66.1963L71.261 65.7697C71.261 65.7697 74.4407 64.6117 75.0421 64.4289C75.6436 64.2461 77.668 64.8211 79.2154 66.5487L81.1231 62.4231Z" fill="#936754"/>
<path d="M96.8932 74.8081C96.872 74.8081 96.7581 74.4372 96.5355 73.8463C96.2442 73.074 95.9008 72.3224 95.5074 71.5967C95.1095 70.8739 94.6615 70.1797 94.1667 69.5194C93.7878 69.0106 93.5334 68.7112 93.5493 68.6953C93.6244 68.7509 93.6921 68.8159 93.7507 68.8887C93.8726 69.0159 94.0421 69.212 94.2435 69.4584C94.7646 70.1071 95.2274 70.8005 95.6266 71.5305C96.0268 72.2597 96.3611 73.0232 96.6256 73.8118C96.7263 74.1139 96.8004 74.363 96.8402 74.5352C96.8717 74.6229 96.8896 74.715 96.8932 74.8081Z" fill="#7C5142"/>
<path d="M71.3194 65.7677C71.1989 65.7999 71.0755 65.8203 70.9511 65.8287C70.7126 65.8578 70.3655 65.8976 69.9389 65.9373C69.0857 66.0274 67.896 66.0989 66.5871 66.1519C66.2629 66.1784 65.9366 66.1605 65.6173 66.0989C65.3206 66.0242 65.0391 65.8987 64.7853 65.728C64.3691 65.4356 63.9947 65.088 63.6724 64.6946C63.3942 64.3661 63.1822 64.0905 63.0339 63.8997C62.95 63.8065 62.8754 63.7054 62.8113 63.5977C62.9094 63.6757 62.9983 63.7645 63.0762 63.8626L63.7493 64.6257C64.0744 65.0032 64.4476 65.3364 64.8595 65.6167C65.1028 65.7768 65.3716 65.8942 65.6544 65.9638C65.9629 66.0193 66.2773 66.0344 66.5897 66.0089C67.9146 65.9559 69.0804 65.9002 69.9389 65.8366L70.9537 65.7704C71.0753 65.7578 71.1977 65.7569 71.3194 65.7677Z" fill="#7C5142"/>
<path d="M70.2594 65.6643C70.1724 65.6826 70.0832 65.6888 69.9944 65.6829H69.2949C68.7041 65.6829 67.88 65.6828 66.95 65.6564H66.9367C66.8042 65.6272 66.6718 65.5954 66.5207 65.5557C66.273 65.4975 66.0335 65.4085 65.808 65.2907C65.5985 65.1706 65.412 65.0146 65.2568 64.8297C64.9707 64.4825 64.7269 64.1672 64.5229 63.897C64.3188 63.6267 64.1678 63.4015 64.0645 63.2425C64.0056 63.1607 63.9575 63.0716 63.9214 62.9775C63.9915 63.0461 64.0545 63.1216 64.1095 63.2028C64.2234 63.3511 64.3904 63.5684 64.5997 63.8281L65.3522 64.7396C65.672 65.0884 66.0924 65.3292 66.5552 65.4285C66.6956 65.4656 66.836 65.4974 66.9659 65.5265H66.9526C67.8827 65.5477 68.7067 65.5742 69.2976 65.6007L69.9944 65.6352C70.0838 65.6307 70.1732 65.6405 70.2594 65.6643Z" fill="#7C5142"/>
<path d="M75.2697 62.8999C75.2697 62.937 74.7398 62.8045 74.1012 62.7171C73.4627 62.6296 72.9248 62.6217 72.9221 62.5819C73.3177 62.5052 73.7242 62.5052 74.1198 62.5819C74.52 62.6128 74.9105 62.7208 75.2697 62.8999Z" fill="#7C5142"/>
<path d="M92.1933 26.3934C92.1229 26.4117 92.049 26.4117 91.9786 26.3934C91.787 26.3602 91.6056 26.2832 91.4487 26.1682C91.2062 25.9944 91.0319 25.7414 90.9558 25.4528C90.8684 25.1348 90.8817 24.7692 90.7704 24.4406C90.7192 24.2833 90.6141 24.1491 90.4736 24.0617C90.3313 23.9865 90.1786 23.9329 90.0205 23.9027C89.8679 23.8694 89.7201 23.8168 89.5807 23.7464C89.4589 23.6834 89.3536 23.5927 89.2733 23.4814C89.1653 23.3194 89.0856 23.1402 89.0375 22.9515C89.003 22.819 88.9898 22.7448 89.0004 22.7422C89.0378 22.8016 89.0672 22.8658 89.0878 22.933C89.1545 23.108 89.2435 23.2737 89.3528 23.4258C89.4285 23.5246 89.5254 23.6051 89.6363 23.6616C89.769 23.7227 89.9087 23.7672 90.0523 23.7941C90.2241 23.8245 90.3903 23.8808 90.5452 23.961C90.7134 24.0636 90.84 24.2221 90.9029 24.4088C91.0274 24.7824 91.0035 25.1401 91.0804 25.4369C91.1451 25.7025 91.2972 25.9386 91.5123 26.1073C91.7151 26.2522 91.9478 26.35 92.1933 26.3934Z" fill="#737690"/>
<path d="M97.1512 22.0098C97.1845 22.0484 97.2073 22.095 97.2175 22.1449C97.2581 22.2878 97.2526 22.4399 97.2016 22.5794C97.166 22.6916 97.1019 22.7927 97.0155 22.8726C96.9291 22.9525 96.8234 23.0085 96.7088 23.0352C96.5568 23.0703 96.3977 23.0582 96.2528 23.0004C96.1079 22.9426 95.9841 22.842 95.898 22.7119H95.9986C95.9227 22.9315 95.7971 23.1306 95.6317 23.2938C95.4662 23.4569 95.2654 23.5797 95.0448 23.6526C94.7962 23.7371 94.5288 23.7491 94.2737 23.687C94.0068 23.6172 93.7634 23.4773 93.5689 23.2816C93.3645 23.0762 93.2246 22.8156 93.1661 22.5318L93.2774 22.5688C92.8503 22.9326 92.3349 23.1776 91.783 23.279C91.3449 23.3638 90.8941 23.3583 90.4582 23.2631C90.1693 23.2038 89.8913 23.1001 89.6341 22.9557C89.5646 22.9187 89.4981 22.8762 89.4354 22.8285C89.3903 22.7994 89.3692 22.7808 89.3718 22.7782C89.7188 22.9616 90.0898 23.0954 90.4741 23.1756C90.8994 23.2535 91.3359 23.2481 91.7592 23.1597C92.2873 23.0559 92.7794 22.8167 93.1873 22.4655L93.2748 22.3887L93.2986 22.5053C93.3513 22.7629 93.4795 22.999 93.6669 23.1836C93.8428 23.3621 94.0633 23.4902 94.3055 23.5545C94.5366 23.611 94.7789 23.6018 95.005 23.528C95.208 23.4624 95.3933 23.3515 95.5471 23.2037C95.7009 23.0559 95.819 22.875 95.8926 22.6748L95.9297 22.5609L95.9933 22.6642C96.0669 22.7772 96.1726 22.8655 96.2968 22.9179C96.4209 22.9704 96.558 22.9844 96.6902 22.9584C96.7925 22.9361 96.8876 22.8886 96.9668 22.8201C97.0459 22.7516 97.1066 22.6643 97.1433 22.5662C97.1949 22.4386 97.2096 22.299 97.1857 22.1634C97.1708 22.113 97.1593 22.0617 97.1512 22.0098Z" fill="#737690"/>
<path d="M94.7213 19.249C94.7213 19.249 94.7664 19.249 94.8193 19.3047C94.8554 19.3468 94.8813 19.3967 94.8951 19.4504C94.9089 19.5042 94.9102 19.5604 94.8988 19.6147C94.8768 19.6991 94.8321 19.7758 94.7695 19.8365C94.7069 19.8973 94.6288 19.9397 94.5438 19.9591C94.3314 20.0042 94.1104 19.9829 93.9105 19.8982L93.9873 19.8161C94.1702 20.2241 93.9158 20.7699 93.4574 21.0058C93.115 21.1651 92.7407 21.2439 92.3631 21.2363C92.057 21.2614 91.7489 21.23 91.4542 21.1435C91.2538 21.0756 91.0815 20.9433 90.9641 20.7673C90.8846 20.6401 90.8793 20.5553 90.8872 20.5553C90.8952 20.5553 90.9217 20.6295 91.0064 20.7381C91.1325 20.8868 91.2992 20.9955 91.486 21.0508C91.7711 21.1199 92.066 21.1397 92.3578 21.1091C92.7146 21.1112 93.0675 21.0342 93.3912 20.8839C93.7913 20.6745 94.0112 20.195 93.8681 19.8637L93.8098 19.7313L93.945 19.7843C94.1214 19.8649 94.3175 19.8925 94.5093 19.8637C94.5797 19.8507 94.6454 19.8193 94.6998 19.7728C94.7542 19.7263 94.7955 19.6663 94.8193 19.5988C94.8313 19.5544 94.8342 19.508 94.8278 19.4625C94.8214 19.417 94.8059 19.3732 94.7822 19.3338C94.7531 19.2729 94.716 19.257 94.7213 19.249Z" fill="#737690"/>
</svg>
