<svg width="88" height="90" viewBox="0 0 88 90" fill="none" xmlns="http://www.w3.org/2000/svg">
<ellipse cx="44.2496" cy="44" rx="43.4762" ry="44" fill="#CDF1FF"/>
<path d="M52.4582 23.499L52.7037 43.2867C52.7446 46.6505 52.1173 51.6009 46.7942 51.4281C42.1893 50.9236 40.9665 46.5642 40.9302 43.4231C40.9302 41.9321 40.8984 40.6956 40.8847 40.5411C40.8847 40.5411 35.8435 40.1274 35.4298 35.1453C35.2253 32.7405 35.2025 27.7448 35.2389 23.2308C35.2579 20.8913 36.1571 18.6447 37.7576 16.9381C39.358 15.2315 41.5423 14.1901 43.8758 14.0211L44.3577 13.9848C49.5535 13.9075 52.5355 18.2896 52.4582 23.499Z" fill="#A2675F"/>
<path d="M40.8848 40.5411C43.1919 40.3691 45.4009 39.5375 47.2488 38.1455C47.2488 38.1455 45.9306 41.9048 40.9257 41.8185L40.8848 40.5411Z" fill="#7A4A45"/>
<path d="M43.7395 25.2719C43.8395 25.3719 44.4168 24.9082 45.2487 24.8855C46.0806 24.8628 46.7079 25.2719 46.7942 25.1673C46.8806 25.0628 46.7351 24.9355 46.4624 24.7446C46.0969 24.4976 45.6622 24.3734 45.2214 24.39C44.784 24.4069 44.3641 24.5666 44.0259 24.8446C43.7759 25.0355 43.694 25.2264 43.7395 25.2719Z" fill="#161B46"/>
<path d="M44.5939 25.931C44.6033 26.1067 44.6816 26.2716 44.8118 26.3899C44.942 26.5081 45.1136 26.5703 45.2894 26.5629C45.3757 26.5635 45.4613 26.5468 45.541 26.5138C45.6208 26.4808 45.6931 26.4321 45.7537 26.3707C45.8143 26.3092 45.8619 26.2362 45.8939 26.156C45.9258 26.0758 45.9413 25.99 45.9394 25.9038C45.9278 25.7289 45.8488 25.5654 45.7191 25.4476C45.5894 25.3298 45.4191 25.2668 45.2439 25.2719C45.1576 25.2713 45.0721 25.288 44.9923 25.321C44.9126 25.354 44.8403 25.4027 44.7797 25.4641C44.719 25.5256 44.6714 25.5986 44.6395 25.6788C44.6076 25.759 44.5921 25.8447 44.5939 25.931Z" fill="#161B46"/>
<path d="M41.649 31.0768C41.2368 30.9784 40.8135 30.9341 40.3898 30.945C40.1943 30.945 40.0034 30.9132 39.9625 30.7813C39.9321 30.5802 39.9622 30.3745 40.0489 30.1904C40.1989 29.704 40.358 29.1949 40.5035 28.6585C41.1489 26.4811 41.6035 24.6946 41.5172 24.6673C41.4308 24.64 40.8307 26.3901 40.1852 28.5676L39.7307 30.1086C39.6236 30.3524 39.6075 30.6266 39.6852 30.8814C39.7177 30.9487 39.7654 31.0077 39.8246 31.0534C39.8837 31.0992 39.9528 31.1305 40.0261 31.145C40.1379 31.1575 40.2508 31.1575 40.3625 31.145C40.7925 31.1809 41.2253 31.158 41.649 31.0768Z" fill="#161B46"/>
<path d="M44.0944 21.7217C44.1762 21.9035 44.8444 21.7671 45.6445 21.8081C46.4445 21.849 47.1037 22.0262 47.1946 21.8444C47.2355 21.7626 47.1128 21.5899 46.84 21.4262C46.4814 21.2229 46.0791 21.1091 45.6672 21.0944C45.2582 21.0731 44.8504 21.1544 44.4808 21.3307C44.1989 21.4717 44.0626 21.6308 44.0944 21.7217Z" fill="#161B46"/>
<path d="M36.1716 23.6809C36.2579 23.8309 36.908 23.6809 37.6989 23.64C38.4899 23.5991 39.1445 23.7173 39.2263 23.5582C39.2627 23.4809 39.1309 23.3491 38.8581 23.2263C38.4868 23.08 38.0884 23.0149 37.6898 23.0354C37.2875 23.0473 36.8923 23.1449 36.5307 23.3218C36.2579 23.4627 36.1307 23.6036 36.1716 23.6809Z" fill="#161B46"/>
<path d="M52.3223 27.2402C52.4041 27.1947 55.6725 25.9765 55.8134 29.3903C55.9543 32.8042 52.495 32.2451 52.4814 32.1451C52.4677 32.045 52.3223 27.2402 52.3223 27.2402Z" fill="#A2675F"/>
<path d="M53.4723 30.7905C53.4723 30.7905 53.536 30.8314 53.636 30.8723C53.7817 30.9314 53.9448 30.9314 54.0905 30.8723C54.4496 30.7268 54.7269 30.1404 54.7178 29.5086C54.7135 29.2155 54.6452 28.927 54.5178 28.6631C54.486 28.5554 54.4278 28.4574 54.3484 28.378C54.269 28.2986 54.1709 28.2403 54.0632 28.2085C53.9946 28.1925 53.9225 28.2016 53.86 28.2341C53.7975 28.2666 53.7487 28.3204 53.7223 28.3858C53.6769 28.4812 53.7223 28.5494 53.686 28.5585C53.6496 28.5676 53.6087 28.5039 53.6314 28.3585C53.6468 28.273 53.6919 28.1957 53.7587 28.1403C53.8494 28.0667 53.965 28.0309 54.0814 28.0403C54.223 28.0628 54.3565 28.1209 54.4694 28.2092C54.5823 28.2974 54.6709 28.4129 54.7269 28.5449C54.8835 28.8341 54.9678 29.157 54.9724 29.4858C54.9724 30.1768 54.6497 30.8496 54.1633 30.9996C54.0731 31.0304 53.9772 31.0402 53.8827 31.0284C53.7881 31.0166 53.6976 30.9834 53.6178 30.9314C53.4814 30.8768 53.445 30.7996 53.4723 30.7905Z" fill="#7A4A45"/>
<path d="M42.4575 33.4407C42.4211 33.3543 43.0893 33.1543 43.5575 32.5315C43.7499 32.2506 43.9028 31.9447 44.0121 31.6224C44.1121 31.3723 44.1894 31.2178 44.2258 31.2314C44.2621 31.2451 44.2531 31.4087 44.1985 31.686C44.1226 32.0488 43.9673 32.3903 43.7439 32.6861C43.5197 32.9846 43.2178 33.2158 42.8711 33.3543C42.6439 33.4634 42.4666 33.4725 42.4575 33.4407Z" fill="#161B46"/>
<path d="M28.6118 18.7578C28.6753 18.5639 28.8102 18.4015 28.9891 18.3033C29.3876 18.123 29.8266 18.0509 30.2619 18.0941C31.5915 18.0687 32.888 17.6754 34.0076 16.9577C34.5301 16.2061 35.1139 15.4991 35.7531 14.8439C37.2623 13.2847 38.4806 12.2256 39.7898 11.7119C41.4535 11.0391 44.231 10.7709 45.9629 11.2255C47.6948 11.6801 49.254 13.0847 49.4949 14.8621C50.4677 14.0393 51.9269 14.0439 53.1088 14.5212H53.1406C54.4589 14.9758 55.209 16.3849 55.5954 17.7305C55.9817 19.076 56.1499 20.5125 56.8636 21.7171C57.0136 21.9671 57.1909 22.2717 57.0591 22.5308C56.9998 22.6277 56.9123 22.7041 56.8082 22.7496C56.7041 22.7951 56.5886 22.8076 56.4772 22.7854C56.2552 22.7378 56.046 22.6432 55.8636 22.5081C56.009 22.8626 56.159 23.2127 56.3181 23.5627C55.84 23.645 55.3492 23.6123 54.8862 23.4672C54.6431 24.6667 54.3289 25.8507 53.9452 27.0129C53.4536 26.9558 52.9579 27.0786 52.5497 27.3584C52.0951 27.7721 51.8815 28.5539 51.1178 28.2675C50.7269 28.1175 50.3677 27.2948 50.2359 26.9038C49.3703 24.2529 49.0835 21.4472 49.3949 18.676C48.8481 18.0749 48.1886 17.5868 47.4539 17.2395L47.513 17.2941C46.122 16.8122 44.5446 16.3349 43.2264 16.9895C42.199 17.4941 41.599 18.5578 40.8307 19.4079C40.1239 20.19 39.2663 20.8211 38.3093 21.2632C37.3524 21.7054 36.3159 21.9494 35.2622 21.9808C35.1895 23.3854 35.3077 25.3674 35.2304 26.7674L34.0485 24.5128C33.9538 24.3528 33.8688 24.1874 33.7939 24.0173L33.7666 23.9673C33.6486 23.694 33.5166 23.427 33.3712 23.1672C33.2095 23.2937 33.0086 23.3595 32.8034 23.3531C32.5983 23.3468 32.4018 23.2687 32.2483 23.1325C32.0947 22.9962 31.9938 22.8105 31.9631 22.6075C31.9324 22.4045 31.9738 22.1972 32.0802 22.0217C32.1985 21.8586 32.3411 21.7145 32.5029 21.5944C32.3311 21.7614 32.1189 21.881 31.8871 21.9415C31.6552 22.0021 31.4117 22.0015 31.1801 21.9399C30.9536 21.8705 30.756 21.7291 30.6173 21.5371C30.4786 21.345 30.4065 21.113 30.4119 20.8761C30.4291 20.7148 30.4892 20.561 30.5859 20.4307C30.6826 20.3004 30.8125 20.1984 30.9619 20.1352C30.3453 20.1833 29.7283 20.0472 29.1891 19.7443C28.8345 19.5124 28.4936 19.1988 28.6118 18.7578Z" fill="#161B46"/>
<path d="M47.9268 15.4213C48.1053 15.5592 48.2725 15.7112 48.4268 15.8758C48.8226 16.3505 49.0861 16.9213 49.1905 17.5305C49.2772 17.9476 49.3199 18.3727 49.3178 18.7988C49.3178 19.2533 49.2859 19.7488 49.2496 20.267C49.205 20.8098 49.1929 21.3547 49.2132 21.899C49.227 22.1895 49.265 22.4784 49.3269 22.7627C49.3693 23.067 49.4899 23.3552 49.6769 23.5991C49.7642 23.6956 49.8749 23.768 49.9983 23.8094C50.1217 23.8508 50.2536 23.8598 50.3815 23.8355C50.6257 23.7881 50.8477 23.662 51.0133 23.4763C51.2746 23.1014 51.4315 22.6637 51.4679 22.2081H51.3633C51.5163 22.5834 51.7214 22.9354 51.9725 23.2536C52.216 23.5466 52.5625 23.7353 52.9407 23.7809C53.117 23.7972 53.2944 23.7658 53.4544 23.69C53.6043 23.6142 53.7267 23.4934 53.8044 23.3445C53.8814 23.2059 53.9177 23.0483 53.909 22.8899C53.9024 22.7466 53.8461 22.61 53.7499 22.5035L53.6953 22.549C54.0013 22.9043 54.3815 23.1883 54.809 23.3809C54.9167 23.4306 55.0276 23.4732 55.1409 23.5082L55.2591 23.54C55.2229 23.5196 55.1848 23.5029 55.1454 23.49C55.0351 23.4478 54.9273 23.3993 54.8227 23.3445C54.4265 23.147 54.0752 22.87 53.7908 22.5308L53.7362 22.5808C53.818 22.6846 53.8654 22.8113 53.8719 22.9432C53.8784 23.0752 53.8437 23.2059 53.7726 23.3172C53.7013 23.4498 53.5899 23.5564 53.4544 23.6218C53.3131 23.6896 53.1556 23.7164 52.9998 23.6991C52.6436 23.6559 52.3179 23.4767 52.0907 23.199C51.849 22.8876 51.653 22.5432 51.5088 22.1763L51.4361 22.0172L51.4043 22.1899C51.36 22.6255 51.2034 23.0422 50.9497 23.3991C50.8015 23.5661 50.6013 23.6782 50.3815 23.7173C50.2734 23.7402 50.1611 23.7337 50.0564 23.6985C49.9517 23.6634 49.8583 23.6008 49.786 23.5172C49.6135 23.2879 49.501 23.0192 49.4587 22.7354C49.4025 22.458 49.3661 22.177 49.3496 21.8944C49.3256 21.3533 49.3363 20.8113 49.3814 20.2716C49.4132 19.7534 49.445 19.2624 49.4405 18.7942C49.4369 18.363 49.3882 17.9334 49.295 17.5123C49.1656 16.8903 48.8721 16.3143 48.445 15.844C48.2952 15.677 48.1204 15.5344 47.9268 15.4213Z" fill="#5C5F7E"/>
<path d="M32.5342 20.2671L32.5751 20.3034L32.6978 20.3944C32.8634 20.5036 33.0366 20.6008 33.216 20.6853C33.883 20.9909 34.6162 21.1238 35.348 21.0717C36.4271 20.9958 37.4619 20.6125 38.33 19.9671C39.3843 19.1575 40.2641 18.1432 40.9165 16.985C41.2757 16.385 41.5711 15.7668 41.8984 15.194C42.1954 14.6374 42.5704 14.1262 43.0121 13.6757C43.4104 13.2702 43.9044 12.9716 44.4486 12.8075C44.6938 12.7376 44.9484 12.7069 45.2032 12.7166C45.4401 12.7304 45.6741 12.7762 45.8987 12.853C46.5852 13.089 47.1569 13.5763 47.4988 14.2167C47.6135 14.4544 47.7004 14.7046 47.7579 14.9622C47.759 14.9455 47.759 14.9288 47.7579 14.9122C47.7579 14.8713 47.7579 14.8167 47.7579 14.7576C47.7158 14.5631 47.6518 14.374 47.567 14.194C47.2283 13.5358 46.6511 13.0317 45.9532 12.7848C45.7218 12.7029 45.4801 12.6539 45.235 12.6393C44.9702 12.6244 44.7047 12.652 44.4486 12.7211C43.8846 12.8944 43.3733 13.2071 42.9621 13.6303C42.5127 14.0879 42.1301 14.6067 41.8257 15.1713C41.4984 15.7441 41.2029 16.3623 40.8438 16.9578C40.2009 18.1027 39.3335 19.1061 38.2936 19.908C37.4389 20.5547 36.4166 20.9428 35.348 21.0262C34.6274 21.0825 33.9038 20.964 33.2388 20.6807C32.9952 20.5582 32.7599 20.42 32.5342 20.2671Z" fill="#5C5F7E"/>
<path d="M32.0801 18.076C32.1348 18.1263 32.1959 18.1691 32.2619 18.2033C32.4317 18.304 32.6078 18.3936 32.7892 18.4715C33.0598 18.586 33.3396 18.6773 33.6256 18.7442C33.9781 18.8253 34.3371 18.874 34.6984 18.8897C35.059 18.8969 35.4195 18.8726 35.7758 18.817C36.0646 18.7695 36.3489 18.6981 36.6258 18.6033C36.8132 18.538 36.9955 18.459 37.1713 18.3669C37.2376 18.3381 37.3001 18.3015 37.3577 18.2578C37.3577 18.2578 37.0713 18.376 36.6031 18.526C36.3262 18.6098 36.0436 18.6736 35.7576 18.717C35.4069 18.767 35.0526 18.7883 34.6984 18.7806C34.3452 18.7673 33.9939 18.7232 33.6484 18.6488C33.3649 18.5893 33.0868 18.5073 32.8165 18.4033C32.3346 18.2169 32.0801 18.0578 32.0801 18.076Z" fill="#5C5F7E"/>
<path d="M36.1347 25.5855C36.2302 25.6856 36.8075 25.2219 37.6439 25.1992C38.4803 25.1764 39.0985 25.5901 39.1895 25.481C39.2804 25.3719 39.1258 25.2492 38.8576 25.0582C38.4909 24.8138 38.0571 24.6899 37.6166 24.7037C37.1781 24.7219 36.7571 24.8814 36.4165 25.1582C36.1711 25.3492 36.0847 25.5401 36.1347 25.5855Z" fill="#161B46"/>
<path d="M37.3399 26.0765C37.3504 26.2526 37.4297 26.4174 37.5606 26.5356C37.6916 26.6538 37.8637 26.7158 38.0399 26.7084C38.126 26.7096 38.2115 26.6935 38.2912 26.661C38.3709 26.6285 38.4433 26.5802 38.5039 26.5191C38.5646 26.458 38.6123 26.3853 38.6443 26.3054C38.6763 26.2254 38.6918 26.1399 38.6899 26.0538C38.6771 25.8786 38.5972 25.715 38.4668 25.5973C38.3363 25.4796 38.1655 25.4168 37.9899 25.4219C37.9042 25.4219 37.8192 25.4389 37.7401 25.4718C37.6609 25.5048 37.5891 25.5531 37.5286 25.6139C37.4682 25.6748 37.4204 25.747 37.388 25.8264C37.3556 25.9057 37.3393 25.9908 37.3399 26.0765Z" fill="#161B46"/>
<path d="M23.7386 66.4155L23.525 76.2344C23.525 76.2344 19.7656 78.2345 18.7974 78.3572C17.8291 78.48 12.3242 77.7845 12.3242 77.7845L12.6106 83.753C12.6106 83.753 21.343 85.8759 24.0704 85.935C26.7979 85.9941 28.0025 85.8759 28.4935 85.2668C28.9844 84.6576 30.7663 83.903 31.2527 81.1529C31.7391 78.4027 30.3436 66.4155 30.3436 66.4155H23.7386Z" fill="#A2675F"/>
<path d="M28.4074 80.8482C27.9927 79.8771 27.4197 78.9816 26.7118 78.198C25.9528 77.4637 25.0753 76.8628 24.1162 76.4207C24.4355 76.4566 24.7445 76.5555 25.0254 76.7116C26.4257 77.3713 27.5375 78.5187 28.1528 79.9391C28.2922 80.2241 28.3784 80.5322 28.4074 80.8482Z" fill="#7A4A45"/>
<path d="M13.0102 78.3571C13.0102 78.3571 11.8738 75.9569 10.0237 75.2023C8.17356 74.4478 5.77795 74.6523 4.89153 74.1386C4.0051 73.625 1.50039 73.1159 1.25492 73.9705C1.00945 74.8251 2.58683 75.3978 4.19603 75.9342C5.80522 76.4706 6.4689 76.707 6.31889 77.3934C6.16888 78.0798 4.19603 79.4481 3.61417 79.6163C3.03231 79.7845 1.23674 80.0254 1.22765 80.8482C1.21856 81.671 1.76405 81.5664 2.69138 81.5664C3.64565 81.5054 4.59478 81.3809 5.53248 81.1937C5.53248 81.1937 5.98705 81.3028 5.76885 81.571C5.55066 81.8392 4.43695 82.8347 5.08699 83.5211C5.2988 83.723 5.55371 83.8741 5.83247 83.9631C6.11124 84.0521 6.40658 84.0766 6.69619 84.0347L7.99628 83.7938C7.99628 83.7938 8.7145 85.0575 9.29636 84.5439C9.87822 84.0302 9.4691 84.6666 9.4691 84.6666C9.4691 84.6666 10.1191 85.8121 10.801 85.7439C11.4829 85.6758 13.983 84.262 13.983 84.262L15.4695 82.3892L13.0102 78.3571Z" fill="#A2675F"/>
<path d="M6.92396 82.9484C6.89214 82.9484 7.03306 82.6621 7.37853 82.3211C7.56096 82.1346 7.7142 81.9215 7.83311 81.6893C7.91088 81.5645 7.95211 81.4204 7.95211 81.2733C7.95211 81.1263 7.91088 80.9822 7.83311 80.8574C7.73399 80.7487 7.60725 80.6688 7.46637 80.6264C7.32548 80.584 7.17573 80.5805 7.03305 80.6165C6.78259 80.6788 6.55147 80.8022 6.36028 80.9756C6.02844 81.2802 5.85116 81.5211 5.81934 81.4938C5.91907 81.2504 6.07481 81.0339 6.27391 80.8619C6.47065 80.6451 6.72417 80.4876 7.00578 80.4074C7.18785 80.3549 7.38108 80.3553 7.56296 80.4084C7.74484 80.4615 7.90789 80.5652 8.03312 80.7074C8.15652 80.8667 8.2179 81.0654 8.20586 81.2665C8.19491 81.4428 8.14689 81.6147 8.06494 81.7711C7.92382 82.0176 7.74075 82.2376 7.52399 82.4211C7.11942 82.7393 6.94669 82.9621 6.92396 82.9484Z" fill="#7A4A45"/>
<path d="M9.66484 83.6621C9.63302 83.6621 10.0012 83.0575 10.5376 82.0847C10.8577 81.5199 11.1313 80.9301 11.3559 80.321C11.501 79.9783 11.5901 79.6146 11.6195 79.2436C11.6197 79.1585 11.6025 79.0743 11.5689 78.9961C11.5352 78.9179 11.486 78.8474 11.424 78.789C11.3563 78.7356 11.2758 78.7008 11.1905 78.6881C11.1052 78.6753 11.018 78.685 10.9376 78.7163C10.574 78.8209 10.3649 79.2027 10.1649 79.5436L9.58301 80.5437C9.21935 81.1665 8.88297 81.7347 8.5875 82.2302C8.33396 82.5827 8.14326 82.9764 8.02382 83.3939C8.00108 83.5446 8.00108 83.6978 8.02382 83.8485C8.02382 83.8485 7.992 83.8166 7.96472 83.7348C7.92527 83.6163 7.91284 83.4905 7.92836 83.3666C8.01472 82.9269 8.18948 82.5094 8.44203 82.1393C8.72387 81.6347 9.04207 81.0574 9.39664 80.4255L9.96486 79.4209C10.135 79.0027 10.461 78.6669 10.874 78.4845C10.9912 78.4436 11.1168 78.433 11.2392 78.4536C11.3616 78.4743 11.4768 78.5256 11.5741 78.6027C11.6608 78.6833 11.7299 78.7811 11.7768 78.8899C11.8238 78.9987 11.8476 79.116 11.8468 79.2345C11.8126 79.6326 11.7144 80.0224 11.5559 80.3891C11.3182 81.0034 11.0261 81.5952 10.6831 82.1574C10.3967 82.6393 10.1421 83.0166 9.96486 83.2711C9.88273 83.4143 9.78183 83.5457 9.66484 83.6621Z" fill="#7A4A45"/>
<path d="M11.7829 84.6667C11.8206 84.509 11.877 84.3563 11.9511 84.2121C12.0738 83.9439 12.2557 83.553 12.4875 83.0711C12.7193 82.5893 13.0012 82.012 13.2967 81.3937C13.462 81.0846 13.5494 80.7397 13.5512 80.3891C13.5476 80.2148 13.4887 80.046 13.383 79.9073C13.3385 79.8422 13.2765 79.7909 13.2041 79.7596C13.1317 79.7282 13.0519 79.718 12.9739 79.73C12.6557 79.8118 12.4557 80.2209 12.2329 80.5119L11.6102 81.421C11.2329 81.9938 10.892 82.5211 10.5874 82.9802L9.89643 84.0621C9.82168 84.1972 9.72834 84.3212 9.61914 84.4303C9.66948 84.2843 9.73822 84.1453 9.8237 84.0166C9.96916 83.753 10.1828 83.3802 10.4556 82.9257C10.7283 82.4711 11.0556 81.9256 11.4374 81.3347C11.6284 81.0392 11.8329 80.7301 12.0511 80.4255C12.1602 80.2664 12.2648 80.1118 12.3921 79.9709C12.5168 79.7792 12.7051 79.6376 12.9239 79.5709C13.0441 79.5497 13.1678 79.5633 13.2805 79.61C13.3933 79.6567 13.4903 79.7346 13.5603 79.8346C13.6934 80.0082 13.7668 80.2203 13.7694 80.4391C13.7674 80.8263 13.6706 81.2071 13.4876 81.5483C13.1694 82.1802 12.8739 82.7347 12.6284 83.2075C12.383 83.6803 12.1739 84.0576 12.0329 84.3167C11.9629 84.4423 11.879 84.5597 11.7829 84.6667Z" fill="#7A4A45"/>
<path d="M4.40098 74.3251C4.45553 74.2978 4.5919 74.6251 4.42825 74.9933C4.2646 75.3615 3.93731 75.4842 3.91913 75.4251C3.90094 75.3661 4.10096 75.1979 4.22369 74.9024C4.34643 74.6069 4.35097 74.3387 4.40098 74.3251Z" fill="#7A4A45"/>
<path d="M14.2876 83.7257C14.48 83.4794 14.6446 83.2126 14.7786 82.9302C14.8991 82.6169 14.9607 82.284 14.9604 81.9484C14.9536 81.5376 14.8687 81.1319 14.7104 80.7528C14.3974 80.0595 13.9685 79.4246 13.4421 78.8754C13.2078 78.6555 12.9989 78.41 12.8193 78.1436C13.0896 78.32 13.3369 78.5291 13.5557 78.7663C14.1357 79.2996 14.5999 79.9463 14.9195 80.6664C15.0871 81.0729 15.1721 81.5087 15.1695 81.9484C15.1595 82.3099 15.076 82.6656 14.924 82.9939C14.8055 83.3056 14.5799 83.5651 14.2876 83.7257Z" fill="#7A4A45"/>
<path d="M35.5713 45.9278L41.3126 43.6777L51.8951 43.0776L56.8727 44.9687L50.0541 48.7553L44.1809 48.5371L35.5713 45.9278Z" fill="#A2675F"/>
<path d="M71.9869 61.4152C71.9869 61.4152 69.4276 53.5692 67.0502 49.0326C66.6017 48.1862 65.9768 47.4459 65.2177 46.8617C64.4586 46.2774 63.5829 45.8629 62.6499 45.646C59.9225 45.0005 55.5176 43.9277 52.872 43.0776C52.872 43.0776 50.09 45.9778 44.7988 45.9006C39.6257 45.8233 38.5438 44.655 38.5438 44.655L31.3115 47.4279C31.3115 47.4279 26.1703 49.2735 25.2838 51.5509C24.3974 53.8283 22.8428 66.4155 22.8428 66.4155H30.3387L30.1978 88.7624L30.3387 89.5C30.8615 89.5909 65.2711 89.5 65.2711 89.5L62.7681 70.3612L62.6681 64.2381L71.9869 61.4152Z" fill="#00ACE9"/>
<path opacity="0.2" d="M50.5947 58.3786L51.6675 66.2382L56.8724 68.5611L60.7136 65.2836V57.9922L50.5947 58.3786Z" fill="#161B46"/>
<path d="M60.5771 60.6106C60.5771 60.6743 58.4178 60.7288 55.7495 60.7288C53.0811 60.7288 50.9219 60.6743 50.9219 60.6106C50.9219 60.547 53.0857 60.4924 55.7495 60.4924C57.3596 60.4513 58.9708 60.4907 60.5771 60.6106Z" fill="#161B46"/>
<path d="M26.2656 54.7965C26.2916 54.864 26.3098 54.9341 26.3202 55.0056C26.3565 55.1602 26.402 55.3602 26.4611 55.6057C26.6469 56.3567 26.8777 57.096 27.152 57.8194C27.4975 58.7286 27.9839 59.8423 28.5794 61.0696C29.1749 62.297 29.6568 63.7562 30.1886 65.3154V65.3517C30.1886 67.2201 30.1886 69.2611 30.1477 71.3976C30.0977 76.1661 30.0522 80.4891 30.0204 83.6302C29.9931 85.1758 29.9704 86.4395 29.9568 87.335C29.9568 87.7578 29.934 88.0942 29.925 88.3442C29.924 88.4612 29.9165 88.578 29.9022 88.6942C29.882 88.5772 29.8744 88.4583 29.8795 88.3396C29.8795 88.0896 29.8795 87.7532 29.8795 87.335C29.8795 86.4259 29.8795 85.1758 29.8795 83.6257C29.8795 80.4755 29.9159 76.1615 29.9431 71.3976C29.9431 69.2611 29.9795 67.2155 29.9977 65.3517V65.3836C29.4749 63.8289 28.9703 62.3834 28.4294 61.1424C27.9074 60.0756 27.4431 58.9815 27.0384 57.8649C26.7746 57.1335 26.5619 56.3847 26.402 55.6238C26.352 55.3556 26.3111 55.1693 26.2974 55.0102C26.2787 54.9404 26.2681 54.8687 26.2656 54.7965Z" fill="#161B46"/>
<path d="M63.2181 51.1509C63.235 51.3718 63.235 51.5937 63.2181 51.8146C63.2181 52.2691 63.1772 52.8919 63.1499 53.6329C63.0908 55.2011 63.009 57.2922 62.9181 59.606C62.8271 61.9198 62.718 64.0108 62.6453 65.5791C62.6044 66.311 62.568 66.9428 62.5408 67.3974C62.5404 67.6203 62.5176 67.8427 62.4726 68.0611C62.4532 67.8403 62.4532 67.6182 62.4726 67.3974C62.4726 66.9428 62.4726 66.32 62.5044 65.5791C62.5453 64.0517 62.6135 61.9425 62.709 59.606C62.8044 57.2695 62.9135 55.1602 63.0135 53.6374C63.059 52.8737 63.109 52.2737 63.1499 51.8191C63.1495 51.5946 63.1723 51.3707 63.2181 51.1509Z" fill="#161B46"/>
<g opacity="0.3">
<path opacity="0.3" d="M26.4793 55.9285C26.3482 59.352 27.5697 62.6897 29.8795 65.22C29.1749 62.0016 27.4157 59.0059 26.4793 55.9285Z" fill="#161B46"/>
</g>
<g opacity="0.3">
<path opacity="0.3" d="M41.708 86.7895C43.3384 86.5724 44.8252 85.7436 45.8674 84.4712C46.9647 83.2448 47.9039 81.8856 48.663 80.4255C49.6454 78.4411 50.2028 76.2735 50.2995 74.0614C48.2812 79.4845 45.3173 83.7666 41.708 86.7895Z" fill="#161B46"/>
</g>
<path d="M50.9403 71.7068C50.9374 71.7745 50.9267 71.8416 50.9084 71.9068C50.8766 72.0613 50.8357 72.2477 50.7857 72.4705C50.7357 72.6932 50.6584 73.0114 50.5539 73.3523C50.4493 73.6933 50.3448 74.0842 50.1857 74.507C49.8459 75.4998 49.4466 76.4713 48.9901 77.4163C48.4252 78.5713 47.7891 79.6902 47.0855 80.7665C46.3676 81.8361 45.5811 82.858 44.7308 83.8258C44.0333 84.6106 43.2879 85.3515 42.4988 86.0441C42.167 86.3487 41.8442 86.5941 41.5897 86.8169C41.3351 87.0396 41.0669 87.2214 40.8578 87.3624L40.4032 87.6851C40.2941 87.7578 40.235 87.7942 40.2305 87.7851C40.2719 87.7327 40.3209 87.6867 40.3759 87.6487L40.8305 87.2896C41.0305 87.1396 41.2851 86.9487 41.5351 86.7169C41.7851 86.485 42.1215 86.235 42.4443 85.9259C43.2141 85.2216 43.9441 84.475 44.6308 83.6894C45.4642 82.7218 46.2384 81.7047 46.9491 80.6437C47.651 79.5766 48.2885 78.4685 48.8583 77.3253C49.3215 76.3911 49.7328 75.432 50.0902 74.4524C50.2584 74.0388 50.372 73.6524 50.4857 73.316C50.5993 72.9796 50.6902 72.6887 50.7539 72.4477C50.8175 72.2068 50.8766 72.0477 50.9221 71.8977C50.9193 71.8335 50.9254 71.7693 50.9403 71.7068Z" fill="#161B46"/>
<path d="M49.9361 61.9517C49.9346 62.0589 49.9209 62.1657 49.8952 62.2699C49.8588 62.4971 49.8043 62.7972 49.7361 63.179C49.6679 63.5609 49.577 64.0518 49.436 64.6018C49.2951 65.1519 49.1679 65.7883 48.9542 66.4701C48.8496 66.8111 48.7451 67.1702 48.636 67.5429C48.5269 67.9157 48.3769 68.2975 48.2451 68.693C47.9814 69.4931 47.6314 70.3204 47.2814 71.1977C46.4656 73.0765 45.5256 74.8988 44.4675 76.6526C43.3871 78.399 42.1888 80.0696 40.8809 81.653C40.2627 82.3666 39.6854 83.053 39.0899 83.6485C38.799 83.9486 38.5262 84.2531 38.2444 84.5213L37.4307 85.2941C36.9216 85.7941 36.417 86.2032 35.9897 86.576C35.5624 86.9488 35.1806 87.2488 34.8578 87.4852L34.126 88.0397C34.0426 88.1066 33.9545 88.1674 33.8623 88.2216C33.9332 88.1407 34.0124 88.0675 34.0987 88.0034L34.8033 87.417C35.1169 87.167 35.4897 86.8578 35.9079 86.476C36.3261 86.0942 36.817 85.6805 37.3216 85.1759L38.1217 84.394C38.399 84.1213 38.6672 83.8213 38.9535 83.5167C39.5399 82.9167 40.1082 82.2303 40.7218 81.5166C43.3253 78.3671 45.4681 74.8637 47.0859 71.1113C47.4405 70.2431 47.795 69.4203 48.0632 68.6294C48.1996 68.2339 48.3496 67.8566 48.4678 67.4838L48.7951 66.4201C49.0224 65.7428 49.1633 65.1155 49.3088 64.57C49.4542 64.0245 49.5679 63.5472 49.6497 63.1563C49.7315 62.7653 49.7997 62.4881 49.8497 62.2471C49.871 62.1466 49.8999 62.0478 49.9361 61.9517Z" fill="#161B46"/>
<path d="M70.6503 61.8242C70.6503 61.8242 73.4991 80.9999 73.0914 84.3302C72.9992 85.9999 71.9992 89.4999 71.9992 89.4999H63.9992C63.9992 89.4999 65.0772 82.7847 65.0636 81.5801C65.0499 80.3754 62.668 64.2335 62.668 64.2335L70.6503 61.8242Z" fill="#A2675F"/>
<path d="M78.2715 89.5357C78.2715 89.8036 65.2853 90 49.2766 90C33.2679 90 20.2715 89.8036 20.2715 89.5357C20.2715 89.2678 33.2474 89 49.2678 89C65.2882 89 78.2715 89.2857 78.2715 89.5357Z" fill="#161B46"/>
</svg>
