<svg width="156" height="174" viewBox="0 0 156 174" fill="none" xmlns="http://www.w3.org/2000/svg">
<rect width="156" height="174" rx="16" fill="#E6F7FD" fill-opacity="0.5"/>
<path d="M140.264 95.8021C140.264 95.8396 114.239 95.8718 82.1459 95.8718C50.0529 95.8718 24.022 95.8396 24.022 95.8021C24.022 95.7646 50.0422 95.7324 82.1459 95.7324C114.25 95.7324 140.264 95.7619 140.264 95.8021Z" fill="#D4D9F5"/>
<path d="M78.5199 118.272C109.859 118.272 135.264 113.618 135.264 107.876C135.264 102.135 109.859 97.4805 78.5199 97.4805C47.1812 97.4805 21.7762 102.135 21.7762 107.876C21.7762 113.618 47.1812 118.272 78.5199 118.272Z" fill="#CDF1FF"/>
<path d="M100.174 107.876C100.165 107.801 100.13 107.731 100.075 107.678C99.9097 107.531 99.7153 107.419 99.5043 107.351C98.6959 107.078 97.863 106.883 97.0173 106.77C93.9075 106.329 90.7764 106.054 87.6373 105.947C83.6602 105.77 78.9192 105.695 73.6557 105.816C71.0266 105.88 68.2662 105.992 65.412 106.209C63.9836 106.322 62.5337 106.456 61.0704 106.657C60.3388 106.759 59.6018 106.874 58.8728 107.032C58.5105 107.109 58.1526 107.206 57.8008 107.322C57.6241 107.378 57.4528 107.449 57.289 107.536C57.1335 107.616 56.9647 107.74 56.9566 107.874C56.9486 108.008 57.1308 108.142 57.2863 108.214C57.4501 108.301 57.6214 108.373 57.7982 108.428C58.1499 108.545 58.5077 108.643 58.8702 108.721C59.5991 108.879 60.3361 108.989 61.0678 109.096C62.531 109.294 63.9809 109.431 65.4094 109.543C68.2636 109.76 71.0374 109.873 73.6557 109.937C78.9192 110.058 83.6629 109.983 87.64 109.806C90.779 109.697 93.91 109.423 97.02 108.983C97.8658 108.869 98.6987 108.673 99.507 108.399C99.7185 108.332 99.9131 108.221 100.078 108.072C100.132 108.02 100.167 107.951 100.177 107.876C100.178 107.915 100.171 107.954 100.155 107.989C100.14 108.025 100.117 108.057 100.089 108.083C99.9255 108.237 99.7307 108.354 99.5177 108.426C98.7102 108.712 97.8762 108.916 97.028 109.037C93.9196 109.497 90.7882 109.786 87.648 109.902C83.6709 110.095 78.9246 110.17 73.6584 110.066C71.0266 110.004 68.2636 109.894 65.404 109.677C63.9756 109.567 62.5203 109.433 61.0544 109.232C60.32 109.131 59.5804 109.015 58.846 108.855C58.4748 108.777 58.108 108.68 57.7472 108.562C57.5627 108.502 57.3834 108.427 57.2112 108.337C57.1221 108.292 57.0392 108.235 56.9647 108.169C56.9166 108.136 56.8772 108.092 56.85 108.041C56.8227 107.99 56.8085 107.933 56.8085 107.875C56.8085 107.817 56.8227 107.76 56.85 107.709C56.8772 107.658 56.9166 107.614 56.9647 107.582C57.0386 107.514 57.1216 107.457 57.2112 107.413C57.3835 107.324 57.5627 107.25 57.7472 107.19C58.1077 107.071 58.4745 106.973 58.846 106.896C59.583 106.737 60.32 106.628 61.0544 106.518C62.5203 106.319 63.9756 106.183 65.404 106.073C68.2609 105.858 71.032 105.749 73.6557 105.687C78.9219 105.572 83.6655 105.657 87.6453 105.848C90.7856 105.965 93.917 106.255 97.0253 106.716C97.8737 106.835 98.7079 107.04 99.5151 107.327C99.7285 107.397 99.9235 107.515 100.086 107.67C100.115 107.696 100.138 107.728 100.153 107.764C100.168 107.799 100.175 107.838 100.174 107.876Z" fill="white"/>
<path d="M113.076 107.876C113.066 107.756 113.027 107.639 112.963 107.536C112.749 107.25 112.466 107.022 112.14 106.874C111.307 106.435 109.964 106.03 108.217 105.66C104.711 104.926 99.5552 104.32 93.166 103.953C86.7769 103.586 79.147 103.417 70.6862 103.669C66.4572 103.798 62.0191 104.025 57.4363 104.473C55.1449 104.701 52.8186 104.979 50.4683 105.387C49.2971 105.596 48.1233 105.834 46.9655 106.159C46.3893 106.318 45.8251 106.517 45.2771 106.756C45.0022 106.875 44.7408 107.022 44.4972 107.196C44.3752 107.269 44.2707 107.367 44.1911 107.485C44.1114 107.603 44.0586 107.736 44.0363 107.876C44.0569 108.017 44.1085 108.15 44.1873 108.268C44.2661 108.386 44.3702 108.485 44.4919 108.557C44.7354 108.732 44.9968 108.88 45.2718 108.999C45.8232 109.239 46.391 109.438 46.9709 109.597C48.1248 109.913 49.2939 110.17 50.4736 110.369C52.8133 110.779 55.1422 111.058 57.4416 111.283C62.0244 111.728 66.4652 111.955 70.6942 112.087C79.155 112.331 86.7742 112.173 93.1741 111.8C99.5739 111.428 104.722 110.83 108.225 110.093C109.975 109.726 111.315 109.321 112.148 108.879C112.474 108.732 112.757 108.505 112.971 108.22C113.036 108.117 113.074 108 113.084 107.879C113.084 107.879 113.084 107.909 113.084 107.97C113.07 108.065 113.038 108.156 112.99 108.238C112.777 108.53 112.494 108.763 112.167 108.916C111.331 109.367 109.991 109.779 108.241 110.157C104.736 110.91 99.5766 111.524 93.1848 111.91C86.793 112.296 79.163 112.462 70.6969 112.226C66.4652 112.1 62.0218 111.875 57.4336 111.422C55.1395 111.197 52.8106 110.918 50.4656 110.508C49.2918 110.299 48.1152 110.063 46.9494 109.734C46.3621 109.574 45.787 109.371 45.2289 109.128C44.9449 109.006 44.6753 108.854 44.4249 108.672C44.2952 108.579 44.1797 108.467 44.0818 108.34C43.9709 108.212 43.9099 108.048 43.9099 107.878C43.9099 107.708 43.9709 107.544 44.0818 107.416C44.1799 107.291 44.2954 107.18 44.4249 107.089C44.6762 106.908 44.9456 106.755 45.2289 106.63C45.7875 106.389 46.3625 106.188 46.9494 106.027C48.1152 105.7 49.2918 105.462 50.4656 105.253C52.8106 104.843 55.1422 104.567 57.4336 104.342C62.0218 103.897 66.4625 103.672 70.6942 103.538C79.1577 103.302 86.7903 103.471 93.1821 103.854C99.5739 104.237 104.733 104.853 108.238 105.607C109.988 105.982 111.328 106.397 112.165 106.847C112.492 107 112.775 107.234 112.987 107.525C113.034 107.604 113.066 107.69 113.081 107.78C113.076 107.844 113.076 107.876 113.076 107.876Z" fill="white"/>
<path d="M129.083 107.876C129.075 107.697 129.033 107.522 128.958 107.359C128.703 106.895 128.328 106.509 127.872 106.241C126.717 105.467 124.774 104.746 122.22 104.097C117.104 102.798 109.514 101.744 100.102 101.082C89.0753 100.349 78.0185 100.179 66.9745 100.573C60.7408 100.798 54.1989 101.198 47.4561 101.978C44.0873 102.374 40.6649 102.862 37.2345 103.586C35.5115 103.935 33.8111 104.388 32.1425 104.942C31.2996 105.221 30.4827 105.573 29.7011 105.995C29.3142 106.206 28.9542 106.464 28.6291 106.761C28.297 107.042 28.089 107.443 28.0502 107.876C28.0672 108.092 28.1266 108.301 28.225 108.494C28.3235 108.686 28.4589 108.857 28.6237 108.996C28.9483 109.295 29.3083 109.552 29.6957 109.763C30.4762 110.187 31.2934 110.539 32.1372 110.816C33.8108 111.373 35.5166 111.827 37.2453 112.178C40.6757 112.896 44.098 113.381 47.4695 113.786C54.2123 114.565 60.7569 114.965 66.9906 115.187C78.0354 115.584 89.0933 115.414 100.121 114.678C109.533 114.019 117.123 112.963 122.239 111.666C124.79 111.014 126.733 110.296 127.891 109.522C128.342 109.254 128.713 108.868 128.963 108.407C129.038 108.244 129.081 108.069 129.089 107.89C129.089 107.89 129.089 107.935 129.089 108.024C129.088 108.08 129.078 108.136 129.059 108.19C129.043 108.267 129.018 108.341 128.984 108.412C128.738 108.881 128.367 109.273 127.912 109.546C126.757 110.334 124.812 111.063 122.26 111.719C117.141 113.038 109.549 114.107 100.137 114.78C89.1055 115.527 78.043 115.706 66.9933 115.316C60.7569 115.096 54.2097 114.699 47.4614 113.922C44.0873 113.523 40.6623 113.038 37.2238 112.314C35.4898 111.963 33.7786 111.508 32.0997 110.95C31.2481 110.666 30.423 110.307 29.6341 109.878C29.2345 109.656 28.8636 109.386 28.5299 109.074C28.3373 108.935 28.1805 108.752 28.0723 108.54C27.9642 108.328 27.9078 108.094 27.9078 107.856C27.9078 107.618 27.9642 107.384 28.0723 107.172C28.1805 106.96 28.3373 106.777 28.5299 106.638C28.866 106.333 29.2376 106.069 29.6367 105.853C30.4252 105.423 31.2503 105.064 32.1023 104.781C33.7815 104.225 35.4927 103.77 37.2265 103.419C40.6623 102.701 44.0873 102.213 47.4587 101.811C54.207 101.031 60.7515 100.638 66.9879 100.415C78.0367 100.023 89.0984 100.202 100.129 100.951C109.522 101.664 117.128 102.736 122.233 104.044C124.787 104.703 126.733 105.432 127.888 106.22C128.343 106.493 128.713 106.885 128.96 107.354C128.994 107.424 129.019 107.497 129.035 107.573C129.054 107.627 129.064 107.683 129.065 107.74C129.083 107.828 129.083 107.876 129.083 107.876Z" fill="white"/>
<path d="M80.8327 101.49C76.4402 101.203 72.0262 100.917 67.623 101.102C63.2197 101.286 58.779 101.962 54.8876 103.514C53.3546 104.119 51.7788 104.998 51.5081 106.279C51.216 107.662 52.6096 108.959 54.2605 109.627C57.6641 110.967 61.869 110.267 65.412 109.131C68.9549 107.995 72.38 106.451 76.199 106.137C79.3828 105.869 82.5747 106.515 85.579 107.338C88.5833 108.161 91.5071 109.182 94.6159 109.75C97.7247 110.318 101.126 110.396 104.017 109.372C105.564 108.836 107.022 107.82 107.11 106.542C107.174 105.633 106.518 104.762 105.607 104.162C104.695 103.562 103.556 103.195 102.412 102.889C95.0769 100.933 87.0664 101.169 79.2863 101.431" fill="#ABE8FF"/>
<path d="M99.424 53.8062C99.4315 53.4946 99.3532 53.1868 99.1977 52.9166C99.0423 52.6464 98.8155 52.424 98.5423 52.2739C98.2691 52.1237 97.9599 52.0515 97.6484 52.0651C97.3369 52.0787 97.0352 52.1776 96.7761 52.351C96.2877 52.6573 95.8921 53.0909 95.6318 53.6052C94.9135 54.9238 94.8278 56.4809 94.6777 57.9736C94.5441 59.4589 94.1003 60.8996 93.3752 62.2027L98.8638 55.6635C99.2382 55.1173 99.4339 54.4684 99.424 53.8062Z" fill="#00ACE9"/>
<g opacity="0.2">
<path opacity="0.2" d="M99.424 53.8062C99.4315 53.4946 99.3532 53.1868 99.1977 52.9166C99.0423 52.6464 98.8155 52.424 98.5423 52.2739C98.2691 52.1237 97.9599 52.0515 97.6484 52.0651C97.3369 52.0787 97.0352 52.1776 96.7761 52.351C96.2877 52.6573 95.8921 53.0909 95.6318 53.6052C94.9135 54.9238 94.8278 56.4809 94.6777 57.9736C94.5441 59.4589 94.1003 60.8996 93.3752 62.2027L98.8638 55.6635C99.2382 55.1173 99.4339 54.4684 99.424 53.8062Z" fill="#0E1339"/>
</g>
<path d="M93.1367 50.2339C93.461 50.5019 104.149 62.7709 104.149 62.7709L98.368 67.3617L91.0248 58.2096L93.1367 50.2339Z" fill="#936754"/>
<path d="M61.2876 54.3794C61.0035 54.6956 52.3685 66.1714 52.3685 66.1714L57.7741 72.0299L64.4071 62.0147L61.2876 54.3794Z" fill="#936754"/>
<path d="M61.384 61.9831C62.0138 62.2726 62.3702 62.9453 62.6087 63.5911C62.8473 64.237 63.0241 64.9311 63.4717 65.4671C63.9193 66.0031 64.7554 66.2899 65.3182 65.8825C65.881 65.4752 65.881 64.6899 65.6398 64.0762C65.3197 63.3404 64.7696 62.7282 64.072 62.3315C63.3761 61.9405 62.624 61.6594 61.8423 61.498" fill="#00ACE9"/>
<g opacity="0.2">
<path opacity="0.2" d="M61.384 61.9831C62.0138 62.2726 62.3702 62.9453 62.6087 63.5911C62.8473 64.237 63.0241 64.9311 63.4717 65.4671C63.9193 66.0031 64.7554 66.2899 65.3182 65.8825C65.881 65.4752 65.881 64.6899 65.6398 64.0762C65.3197 63.3404 64.7696 62.7282 64.072 62.3315C63.3761 61.9405 62.624 61.6594 61.8423 61.498" fill="#0E1339"/>
</g>
<path d="M111.629 85.1888C111.435 85.1362 111.238 85.0986 111.039 85.0763L89.4972 76.042H68.084L46.9656 84.3848C44.8216 85.0977 41.7637 89.2812 43.4977 94.2794C43.5459 94.4188 43.5969 94.5474 43.6478 94.6841C45.036 98.1681 48.8872 99.9691 52.4918 99.0043C55.4103 98.2244 59.6018 97.0827 63.9166 95.9008H64.4017L77.8365 92.0898C79.9403 92.6714 84.3623 93.8908 89.2774 95.2415C95.2512 96.8844 101.951 98.7255 106.086 99.8216C109.702 100.789 113.556 98.9774 114.93 95.5015C114.984 95.3702 115.032 95.2335 115.08 95.0968C116.831 90.0852 113.773 85.9017 111.629 85.1888Z" fill="#737690"/>
<path d="M77.6704 92.1221L77.7455 92.0953L77.9625 92.0283L78.8148 91.779L82.0308 90.8625L81.9933 90.9268L79.8493 83.0476L79.9216 83.1039H77.7321C76.9736 83.1039 76.1964 83.1736 75.4031 83.2057L70.4451 83.4737C64.3187 83.8302 58.7818 84.2456 54.7752 84.5698L50.0182 84.9558L48.7264 85.0603L48.3914 85.0844C48.3531 85.0885 48.3145 85.0885 48.2762 85.0844C48.3128 85.0733 48.3506 85.0661 48.3887 85.063L48.7237 85.0254L50.0101 84.8861C51.1304 84.7735 52.7491 84.6181 54.7511 84.4412C58.755 84.0848 64.2945 83.6506 70.421 83.2942L75.3817 83.0262C76.1857 82.994 76.9549 82.9377 77.7133 82.9297H79.9859V82.9886C80.8194 86.1242 81.5403 88.8391 82.0817 90.8812L82.0951 90.9295L82.0469 90.9429L78.8309 91.8139L77.9706 92.0363L77.7481 92.0899C77.7246 92.1057 77.6982 92.1167 77.6704 92.1221Z" fill="#161B46"/>
<path d="M70.6943 83.3048C70.6702 83.3424 70.0753 83.002 69.4294 82.4633C68.7835 81.9246 68.3413 81.3913 68.3735 81.3699C68.4056 81.3484 68.9095 81.7987 69.5393 82.332C70.1691 82.8653 70.7211 83.262 70.6943 83.3048Z" fill="#161B46"/>
<path d="M109.088 85.9688C108.99 85.9759 108.891 85.9759 108.793 85.9688L107.949 85.9178L104.846 85.7061L94.616 85.0093L84.3703 84.3902L81.2642 84.208L80.412 84.1517C80.314 84.1494 80.2163 84.1395 80.1199 84.1223C80.2179 84.1129 80.3166 84.1129 80.4147 84.1223L81.2616 84.149L84.3677 84.2777C86.9941 84.3983 90.6174 84.5912 94.6187 84.8485C98.6199 85.1058 102.238 85.3711 104.856 85.5855L107.957 85.8535L108.799 85.9339C108.896 85.9364 108.993 85.9481 109.088 85.9688Z" fill="#161B46"/>
<path d="M78.0268 85.5563C77.9973 85.5241 78.3511 85.1998 78.9112 85.0605C79.4713 84.9211 79.9376 85.0283 79.9242 85.0605C79.9108 85.0926 79.474 85.0792 78.9541 85.2159C78.4342 85.3526 78.0563 85.5965 78.0268 85.5563Z" fill="#161B46"/>
<path d="M78.611 86.9173C78.611 86.869 78.9969 86.7859 79.4847 86.727C79.9725 86.668 80.3745 86.66 80.3799 86.7055C80.3852 86.7511 79.9939 86.8395 79.5062 86.8958C79.0184 86.9521 78.6164 86.9628 78.611 86.9173Z" fill="#161B46"/>
<path d="M78.8736 88.499C78.8736 88.4481 79.3534 88.4347 79.9108 88.2685C80.4683 88.1024 80.8783 87.8665 80.9078 87.9094C80.6509 88.1785 80.3197 88.365 79.9564 88.4454C79.3695 88.6062 78.8683 88.5419 78.8736 88.499Z" fill="#161B46"/>
<path d="M79.3989 90.1979C79.3989 90.147 79.8572 90.1121 80.3771 89.9111C80.897 89.7102 81.2722 89.4448 81.3017 89.485C81.3312 89.5252 80.9935 89.8683 80.4388 90.0719C79.884 90.2756 79.3963 90.2435 79.3989 90.1979Z" fill="#161B46"/>
<path d="M89.2158 82.4873C89.2507 82.5221 88.8916 82.9402 88.4922 83.4842C88.0929 84.0282 87.7927 84.4918 87.7499 84.4677C87.707 84.4436 87.9428 83.9317 88.3529 83.3824C88.7629 82.833 89.1837 82.4551 89.2158 82.4873Z" fill="#161B46"/>
<path d="M79.9993 83.0075L74.8671 82.2303C74.8671 82.2303 74.4008 81.0216 73.6102 80.96C72.8196 80.8983 72.088 81.764 71.5118 81.7184C70.9356 81.6729 64.0426 79.3466 63.6486 82.4688L66.5162 83.6507" fill="#936754"/>
<path d="M96.8377 85.8349L81.5617 89.1099L80.1895 83.8651L85.8416 83.5971C85.8416 83.5971 86.5197 82.4902 87.3076 82.5733C88.0955 82.6564 88.6476 83.6453 89.2372 83.6936C89.8268 83.7418 97.0092 82.6939 96.8377 85.8349Z" fill="#936754"/>
<path d="M67.816 76.5728C67.816 76.5728 67.7732 76.5969 67.6847 76.6371L67.2908 76.8193C66.945 76.9801 66.4305 77.2079 65.7658 77.4947C64.4258 78.0682 62.4989 78.8588 60.095 79.8156C57.691 80.7723 54.8261 81.8926 51.6744 83.2218C50.0986 83.8838 48.4102 84.5109 46.8022 85.4355L46.502 85.6151C46.4828 85.6255 46.4648 85.6381 46.4484 85.6526V85.6338C46.4911 85.656 46.5374 85.6706 46.5851 85.6767C46.8139 85.7129 47.0449 85.7326 47.2765 85.7357C47.7482 85.7491 48.2226 85.7357 48.7023 85.7357C49.6617 85.7116 50.6372 85.6687 51.6208 85.6178C55.5631 85.4087 59.3124 85.1273 62.7214 84.8674L71.7798 84.1464L77.8848 83.6372L79.5464 83.5032L79.9779 83.4711C80.0744 83.4711 80.1253 83.4711 80.1253 83.4711C80.1253 83.4711 80.0744 83.4711 79.9779 83.4925L79.5491 83.5381L77.8902 83.6989L71.7878 84.251C69.2123 84.4761 66.1437 84.736 62.7321 85.004C59.3204 85.272 55.5711 85.5561 51.6288 85.7652C50.6426 85.8161 49.6671 85.859 48.7076 85.8804C48.2252 85.8804 47.7482 85.8965 47.2712 85.8804C47.0324 85.8778 46.7942 85.8581 46.5583 85.8214C46.4888 85.8108 46.4223 85.7862 46.3626 85.7491C46.3487 85.7383 46.3374 85.7245 46.3295 85.7087C46.3216 85.6929 46.3174 85.6756 46.3171 85.658C46.3181 85.6269 46.3305 85.5973 46.3519 85.5749C46.3788 85.5501 46.4085 85.5285 46.4404 85.5106L46.7405 85.331C48.3646 84.3984 50.0584 83.7766 51.6342 83.1173C54.7886 81.7934 57.6615 80.6839 60.0682 79.7378C62.4748 78.7918 64.4205 78.0146 65.7524 77.4572L67.2881 76.8086L67.6847 76.6398L67.816 76.5728Z" fill="white"/>
<path d="M88.9452 76.5728C88.9797 76.5798 89.0131 76.5915 89.0443 76.6076L89.3311 76.7282L90.4245 77.1999L94.4445 78.9124L107.767 84.4761C109.051 84.9708 110.304 85.5436 111.519 86.1913C111.666 86.2717 111.811 86.3548 111.95 86.4405C112.026 86.4818 112.098 86.5284 112.167 86.5799C112.187 86.5982 112.205 86.6179 112.221 86.6388C112.232 86.6541 112.24 86.6715 112.244 86.69C112.248 86.7084 112.249 86.7275 112.245 86.746C112.245 86.7943 112.213 86.8104 112.189 86.8372C112.167 86.8521 112.145 86.8656 112.122 86.8774C111.801 86.9626 111.47 87.0032 111.138 86.998C110.495 87.0114 109.868 86.998 109.262 86.9631C106.821 86.8452 104.629 86.6442 102.787 86.4754C100.946 86.3065 99.4615 86.143 98.4351 86.0305L97.2532 85.8938L96.945 85.8536C96.9105 85.8505 96.8764 85.8442 96.8431 85.8348H96.9477L97.2559 85.859L98.4404 85.9715L102.798 86.3708C104.639 86.5263 106.831 86.7192 109.27 86.8291C109.879 86.8532 110.503 86.8747 111.146 86.8586C111.461 86.8635 111.774 86.8266 112.079 86.7487L112.116 86.7273C112.116 86.7273 112.133 86.7139 112.116 86.7273C112.1 86.7407 112.116 86.7085 112.084 86.6871C112.052 86.6656 111.958 86.604 111.886 86.5611C111.747 86.478 111.605 86.395 111.46 86.3146C110.249 85.6736 109.002 85.1044 107.724 84.6101C102.519 82.4393 97.8079 80.4668 94.4151 79.0089C92.7186 78.2799 91.3491 77.6689 90.3951 77.2535L89.3231 76.7604L89.0417 76.6264L88.9452 76.5728Z" fill="white"/>
<path d="M77.6597 45.8276C78.2851 45.8713 78.9126 45.7813 79.5004 45.5634C80.0882 45.3455 80.6229 45.0049 81.0687 44.5641C81.5145 44.1234 81.8613 43.5927 82.0859 43.0074C82.3104 42.4221 82.4077 41.7956 82.3711 41.1698C82.3068 40.0603 82.2505 39.2134 82.2505 39.2134C82.2505 39.2134 85.7479 38.6774 85.7908 35.1746C85.8337 31.6719 85.228 23.6506 85.228 23.6506C83.2407 22.7977 81.0617 22.4908 78.9161 22.7617C76.7705 23.0326 74.7362 23.8715 73.0233 25.1916L72.5034 25.5909L73.5754 41.7192C73.6462 42.7814 74.0986 43.7822 74.8492 44.5372C75.5998 45.2922 76.5979 45.7505 77.6597 45.8276Z" fill="#936754"/>
<path d="M82.2585 39.1704C80.6451 39.2003 79.0592 38.7497 77.7025 37.876C77.7025 37.876 78.7745 40.3925 82.2585 40.0762V39.1704Z" fill="#7C5142"/>
<path d="M72.9348 29.2117C72.8759 29.1849 70.5228 28.5015 70.6113 30.8893C70.6997 33.2772 73.0688 32.7091 73.0715 32.6421C73.0742 32.5751 72.9348 29.2117 72.9348 29.2117Z" fill="#936754"/>
<path d="M72.3131 31.766C72.3131 31.766 72.2729 31.7955 72.2032 31.8303C72.1054 31.8752 71.9942 31.881 71.8923 31.8464C71.6243 31.7607 71.4099 31.3667 71.3858 30.9379C71.3736 30.7331 71.4066 30.5282 71.4823 30.3376C71.5028 30.2624 71.5409 30.1933 71.5936 30.136C71.6463 30.0786 71.712 30.0347 71.7851 30.0079C71.8326 29.9938 71.8836 29.9968 71.9291 30.0164C71.9747 30.036 72.0119 30.0709 72.0343 30.1151C72.0692 30.1795 72.0558 30.2277 72.0692 30.2331C72.0826 30.2384 72.1174 30.1902 72.096 30.0937C72.0822 30.0341 72.0469 29.9816 71.9968 29.9463C71.964 29.9223 71.9266 29.9053 71.887 29.8961C71.8474 29.8868 71.8064 29.8857 71.7663 29.8927C71.6688 29.9148 71.5785 29.9616 71.5043 30.0288C71.4302 30.0959 71.3746 30.181 71.3429 30.2759C71.2473 30.4857 71.205 30.7159 71.2196 30.9459C71.2491 31.4283 71.5117 31.8705 71.8601 31.959C71.9247 31.9762 71.9923 31.9784 72.0578 31.9654C72.1233 31.9524 72.185 31.9245 72.238 31.8839C72.3104 31.8223 72.3211 31.7687 72.3131 31.766Z" fill="#7C5142"/>
<path d="M77.3622 28.8448C77.4239 28.7778 77.8017 29.0592 78.3404 29.0565C78.8791 29.0538 79.2704 28.7885 79.3293 28.8528C79.3883 28.9172 79.2945 29.0002 79.123 29.1208C78.8876 29.2854 78.6061 29.3708 78.319 29.3647C78.04 29.3665 77.7677 29.2792 77.5418 29.1155C77.389 28.9895 77.3327 28.8716 77.3622 28.8448Z" fill="#161B46"/>
<path d="M82.6417 28.7425C82.7033 28.6782 83.0812 28.957 83.6199 28.957C84.1586 28.957 84.5498 28.6889 84.6088 28.7533C84.6356 28.7801 84.574 28.898 84.4024 29.0213C84.1659 29.1833 83.8852 29.2685 83.5985 29.2652C83.3195 29.2641 83.0478 29.1761 82.8213 29.0132C82.6685 28.8899 82.6122 28.772 82.6417 28.7425Z" fill="#161B46"/>
<path d="M81.2348 32.6634C81.5182 32.574 81.8118 32.5208 82.1085 32.5053C82.2452 32.4919 82.3765 32.4651 82.3979 32.3713C82.4097 32.2294 82.3779 32.0872 82.3068 31.9639L81.9021 30.9187C81.3393 29.434 80.9293 28.2092 80.9909 28.1878C81.0526 28.1663 81.5564 29.3536 82.1192 30.841L82.5078 31.8915C82.5942 32.0562 82.6189 32.2463 82.5775 32.4275C82.5583 32.4763 82.528 32.5199 82.4889 32.5548C82.4498 32.5897 82.403 32.615 82.3524 32.6285C82.2765 32.6498 82.198 32.6606 82.1192 32.6607C81.8256 32.6979 81.5286 32.6988 81.2348 32.6634Z" fill="#161B46"/>
<path d="M79.6563 33.0332C79.742 33.0332 79.7447 33.6121 80.2432 34.0248C80.7417 34.4376 81.3635 34.3759 81.3661 34.4563C81.3661 34.4938 81.2295 34.5716 80.9668 34.5769C80.6251 34.5834 80.2924 34.4674 80.0288 34.25C79.7739 34.0434 79.6103 33.7451 79.5732 33.4192C79.5517 33.1753 79.608 33.0306 79.6563 33.0332Z" fill="#161B46"/>
<path d="M79.4257 27.1215C79.3721 27.2689 78.8361 27.1992 78.2063 27.2743C77.5765 27.3493 77.0673 27.5235 76.9816 27.3922C76.9467 27.3279 77.0352 27.1912 77.2496 27.0491C77.526 26.8743 77.8388 26.7651 78.1639 26.7298C78.4891 26.6945 78.818 26.7341 79.1256 26.8455C79.34 26.9393 79.4472 27.0518 79.4257 27.1215Z" fill="#161B46"/>
<path d="M84.3677 27.6362C84.2739 27.7568 83.9041 27.6362 83.4592 27.6362C83.0143 27.6362 82.6364 27.7166 82.5507 27.5906C82.5132 27.5263 82.5721 27.4057 82.7356 27.2905C82.9568 27.1514 83.2144 27.0814 83.4755 27.0895C83.7366 27.0976 83.9894 27.1834 84.2015 27.336C84.3596 27.4486 84.4106 27.5745 84.3677 27.6362Z" fill="#161B46"/>
<path d="M86.9298 21.4557C86.9542 21.2389 86.9233 21.0195 86.8399 20.818C86.7565 20.6164 86.6232 20.4393 86.4527 20.3033C86.2771 20.1745 86.0613 20.1126 85.8441 20.1288C85.6269 20.145 85.4227 20.2383 85.2682 20.3917C85.3002 20.2457 85.3014 20.0946 85.2716 19.948C85.2419 19.8015 85.1817 19.6629 85.0952 19.541C85.0086 19.419 84.8975 19.3166 84.769 19.2402C84.6405 19.1638 84.4974 19.1151 84.3489 19.0973C83.7808 19.0624 83.293 19.4912 82.7409 19.6333C82.1906 19.7486 81.6178 19.6818 81.1088 19.443C80.5916 19.2366 80.1092 18.9472 79.5839 18.7569C78.4776 18.353 77.2565 18.4021 76.1861 18.8933C75.1158 19.3846 74.2825 20.2785 73.8674 21.3806C73.1036 21.1421 72.2353 21.5307 71.7636 22.1846C71.3177 22.8596 71.1399 23.6768 71.2651 24.476C71.3405 25.0117 71.4744 25.5374 71.6645 26.0438C71.6645 26.0894 71.6645 26.135 71.6645 26.1778C71.6993 28.0994 71.9191 30.3586 72.7365 30.3694C74.1676 30.3908 73.8272 27.6894 73.8272 27.6894C75.5799 27.0113 74.926 24.3822 75.3655 23.9856C75.8051 23.589 76.7216 22.6456 80.3932 24.5377C81.819 25.2666 83.7138 25.2425 84.7482 25.0067L84.8394 24.9906H84.8608C84.8721 24.9878 84.883 24.9833 84.893 24.9772C85.2256 24.8944 85.543 24.7596 85.8336 24.5779C86.1775 24.3797 86.4496 24.0775 86.6108 23.7149C86.6862 23.5327 86.7074 23.3325 86.6717 23.1385C86.636 22.9446 86.5451 22.765 86.4098 22.6215C86.6924 22.2914 86.873 21.8864 86.9298 21.4557Z" fill="#161B46"/>
<path d="M83.4405 16.8838C83.4405 16.8838 83.4673 16.9159 83.5075 16.9803C83.5647 17.074 83.6114 17.1738 83.6468 17.2777C83.7813 17.6645 83.8073 18.0806 83.7219 18.4811C83.6065 19.0851 83.2604 19.6205 82.7571 19.9738C82.1728 20.3624 81.3715 20.4375 80.6131 20.3222C79.8546 20.207 79.1391 19.9577 78.4878 19.8237C77.9187 19.6784 77.3241 19.6637 76.7485 19.7809C76.3616 19.8674 76.0035 20.0519 75.7086 20.3169C75.505 20.5098 75.4406 20.6492 75.4165 20.6411C75.3924 20.6331 75.4165 20.6036 75.4674 20.5366C75.525 20.4399 75.5934 20.35 75.6711 20.2686C75.9627 19.9816 76.3282 19.7812 76.727 19.6897C77.3146 19.5488 77.9271 19.5488 78.5146 19.6897C79.1766 19.8184 79.8761 20.0676 80.6318 20.1748C81.3345 20.32 82.0659 20.2078 82.6928 19.8586C83.1722 19.5281 83.5069 19.0265 83.6281 18.4569C83.7182 18.0722 83.7081 17.6708 83.5986 17.2911C83.5128 17.0231 83.4271 16.8838 83.4405 16.8838Z" fill="#737690"/>
<path d="M82.5346 17.5352C82.6062 17.6048 82.6631 17.6881 82.7018 17.7802C82.7405 17.8723 82.7602 17.9713 82.7597 18.0712C82.7776 18.2887 82.7369 18.5071 82.6418 18.7036C82.5233 18.9433 82.3369 19.1428 82.1058 19.2772C81.8755 19.4104 81.6159 19.485 81.35 19.4942C81.1359 19.502 80.9219 19.473 80.7176 19.4085C80.5262 19.3638 80.3493 19.2716 80.203 19.1405C80.203 19.1217 80.4067 19.2289 80.739 19.312C81.1739 19.427 81.6364 19.3704 82.0307 19.1539C82.2407 19.0333 82.4132 18.8571 82.5292 18.6447C82.62 18.4682 82.666 18.2722 82.6632 18.0738C82.6476 17.8888 82.6043 17.7072 82.5346 17.5352Z" fill="#161B46"/>
<path d="M94.7742 75.0718C94.8143 75.597 94.697 76.1222 94.4374 76.5804C94.1777 77.0387 93.7874 77.4092 93.3163 77.6446L89.4973 76.0366L84.7885 76.3529L86.6458 71.3091C86.6458 71.3091 91.9361 71.9576 92.6838 72.558C93.4315 73.1583 94.8331 74.2785 94.7742 75.0718Z" fill="#00ACE9"/>
<g opacity="0.4">
<path opacity="0.4" d="M94.7742 75.0718C94.8143 75.597 94.697 76.1222 94.4374 76.5804C94.1777 77.0387 93.7874 77.4092 93.3163 77.6446L89.4973 76.0366L84.7885 76.3529L86.6458 71.3091C86.6458 71.3091 91.9361 71.9576 92.6838 72.558C93.4315 73.1583 94.8331 74.2785 94.7742 75.0718Z" fill="#0E1339"/>
</g>
<path d="M94.7742 75.0718C94.8143 75.597 94.697 76.1222 94.4374 76.5804C94.1777 77.0387 93.7874 77.4092 93.3163 77.6446L89.4973 76.0366L84.7885 76.3529L86.6458 71.3091C86.6458 71.3091 91.9361 71.9576 92.6838 72.558C93.4315 73.1583 94.8331 74.2785 94.7742 75.0718Z" fill="#00ACE9"/>
<g opacity="0.4">
<path opacity="0.4" d="M94.7742 75.0718C94.8143 75.597 94.697 76.1222 94.4374 76.5804C94.1777 77.0387 93.7874 77.4092 93.3163 77.6446L89.4973 76.0366L84.7885 76.3529L86.6458 71.3091C86.6458 71.3091 91.9361 71.9576 92.6838 72.558C93.4315 73.1583 94.8331 74.2785 94.7742 75.0718Z" fill="#0E1339"/>
</g>
<path d="M98.7405 52.4099L98.368 52.0776L90.2878 45.7501C87.7927 43.0996 85.9783 42.3009 82.4702 41.8855C81.8967 41.8185 82.7999 41.9284 82.4702 41.8855C79.7902 42.7136 76.1749 42.794 73.4815 41.9632C72.2353 42.0142 71.2008 42.4001 70.1395 42.6038C66.7949 43.2443 65.0073 45.6054 63.7209 47.9289L57.2514 58.7802L57.5194 59.209C58.4234 60.6056 59.7687 61.6594 61.3411 62.2026L61.7752 62.4197C63.2981 63.1442 64.6114 64.2445 65.5916 65.6169L68.4404 60.6402L67.6364 68.6158L67.0843 76.4495C70.8832 77.5346 74.8248 78.0371 78.7745 77.9396C84.4025 77.9664 92.2442 71.1082 94.7741 75.072C94.8089 73.0405 92.2522 70.248 91.542 68.908C89.3417 64.7191 89.7545 63.0254 89.5963 59.8817L93.3751 62.1999L94.0532 60.8733C94.6267 59.7531 95.7201 57.258 96.1275 55.315C96.1275 55.3177 96.5724 51.689 98.7405 52.4099Z" fill="#00ACE9"/>
<path d="M68.4565 52.6025C68.4803 52.7098 68.4902 52.8197 68.486 52.9295C68.486 53.1412 68.5021 53.4467 68.5074 53.8246C68.5074 54.5777 68.5235 55.6202 68.5074 56.7726C68.4913 57.925 68.4887 58.9675 68.4699 59.7206C68.4699 60.0985 68.4511 60.404 68.4404 60.6157C68.4429 60.7256 68.4321 60.8354 68.4083 60.9427C68.3847 60.8354 68.3748 60.7255 68.3788 60.6157C68.3788 60.404 68.3627 60.0985 68.3573 59.7206C68.3573 58.9675 68.3439 57.925 68.3573 56.7726C68.3707 55.6202 68.3761 54.5804 68.3922 53.8246C68.3922 53.4494 68.4109 53.1439 68.4217 52.9322C68.4196 52.8213 68.4313 52.7106 68.4565 52.6025Z" fill="#161B46"/>
<path d="M90.0601 65.2525C90.0239 65.0858 90.0015 64.9164 89.9931 64.746C89.9609 64.3922 89.9207 63.9259 89.8698 63.3604C89.7707 62.192 89.6474 60.5732 89.5214 58.7857C89.3955 56.9981 89.2883 55.3794 89.2213 54.2082C89.1891 53.6427 89.165 53.1737 89.1462 52.82C89.1327 52.6496 89.1327 52.4785 89.1462 52.3081C89.1824 52.4748 89.2048 52.6442 89.2132 52.8146C89.2454 53.1684 89.2883 53.6347 89.3365 54.2002C89.4357 55.3714 89.5589 56.9874 89.6849 58.775C89.8109 60.5625 89.9181 62.1812 89.9877 63.3524C90.0172 63.9179 90.0413 64.3869 90.0601 64.7433C90.0736 64.9128 90.0736 65.083 90.0601 65.2525Z" fill="#161B46"/>
<g opacity="0.2">
<path opacity="0.2" d="M72.4524 42.2419C74.1771 44.6613 76.4006 46.6828 78.9728 48.17C79.9108 48.706 80.9212 49.1884 82.0012 49.2769C83.8638 49.4269 85.6192 48.4112 87.0638 47.2267C87.6346 46.7603 88.2001 46.2297 88.4413 45.5329C88.6825 44.8361 88.4949 43.9249 87.8436 43.5926C87.6111 43.4892 87.3581 43.4399 87.1038 43.4483C86.8494 43.4566 86.6003 43.5224 86.375 43.6408C85.9258 43.8773 85.5004 44.1564 85.1047 44.4743C84.1713 45.1314 83.1156 45.5945 82.0001 45.8361C80.8845 46.0778 79.7318 46.0931 78.6102 45.8812C77.4886 45.6693 76.421 45.2344 75.4705 44.6024C74.52 43.9704 73.7061 43.154 73.0768 42.2017" fill="#0E1339"/>
</g>
<path d="M83.6279 61.5109C83.599 61.132 83.5417 60.7557 83.4564 60.3853C83.3468 59.9542 83.1724 59.5421 82.9392 59.1633C82.6339 58.661 82.2366 58.2209 81.768 57.8661C81.1588 57.4039 80.4429 57.1024 79.6865 56.9895C78.9301 56.8766 78.1575 56.956 77.4398 57.2203C77.0252 57.367 76.6356 57.5768 76.2847 57.842C75.9133 58.1117 75.5875 58.4392 75.3199 58.8122C74.7454 59.5942 74.4356 60.5392 74.4356 61.5096C74.4356 62.48 74.7454 63.425 75.3199 64.207C75.5875 64.58 75.9133 64.9075 76.2847 65.1772C76.6356 65.4425 77.0252 65.6522 77.4398 65.7989C78.1553 66.0603 78.9249 66.1382 79.6782 66.0253C80.4315 65.9125 81.1445 65.6126 81.7519 65.1531C82.2205 64.7983 82.6178 64.3582 82.9231 63.8559C83.1564 63.4771 83.3308 63.0651 83.4403 62.6339C83.5253 62.2643 83.5826 61.889 83.6118 61.5109C83.6149 61.5359 83.6149 61.5611 83.6118 61.586C83.6118 61.6423 83.6118 61.7146 83.6118 61.8057C83.6123 61.9261 83.6024 62.0462 83.5824 62.1649C83.565 62.3276 83.5354 62.4889 83.4939 62.6473C83.3929 63.0863 83.2238 63.5068 82.9928 63.8935C82.6568 64.4665 82.2023 64.9612 81.6597 65.3443C81.1171 65.7275 80.4989 65.9903 79.8465 66.1152C79.0219 66.2726 78.1703 66.205 77.3809 65.9195C76.9537 65.7707 76.5523 65.5564 76.1909 65.2844C75.8072 65.0087 75.4713 64.6719 75.1967 64.2874C74.6015 63.4835 74.2803 62.5098 74.2803 61.5096C74.2803 60.5094 74.6015 59.5357 75.1967 58.7318C75.3382 58.5431 75.4922 58.364 75.6576 58.1958C75.8267 58.0338 76.0057 57.8825 76.1936 57.7429C76.5553 57.4713 76.9567 57.2571 77.3835 57.1077C78.1732 56.8236 79.0245 56.756 79.8491 56.9121C80.5016 57.0369 81.1198 57.2997 81.6624 57.6829C82.205 58.0661 82.6595 58.5607 82.9955 59.1338C83.2265 59.5205 83.3956 59.941 83.4966 60.38C83.5381 60.5383 83.5677 60.6996 83.585 60.8624C83.6051 60.981 83.6149 61.1012 83.6145 61.2215C83.6145 61.3126 83.6145 61.385 83.6145 61.4439C83.6213 61.4658 83.6258 61.4882 83.6279 61.5109Z" fill="white"/>
<path d="M78.8415 66.1368C78.8013 66.1368 78.7719 64.0652 78.7719 61.5085C78.7719 58.9518 78.8013 56.8828 78.8415 56.8828C78.8817 56.8828 78.9112 58.9518 78.9112 61.5085C78.9112 64.0652 78.8791 66.1368 78.8415 66.1368Z" fill="white"/>
<path d="M82.6551 64.3197C82.5451 64.2579 82.441 64.1861 82.3442 64.1053L81.5402 63.4835C80.8541 62.9475 79.9161 62.2105 78.887 61.3851L78.8039 61.3208H78.8951C77.9517 62.2078 77.0941 63.0038 76.4697 63.572L75.7246 64.242C75.6379 64.3282 75.5428 64.4054 75.4406 64.4724C75.5136 64.3751 75.5962 64.2853 75.6871 64.2044L76.3919 63.5157C76.9976 62.9288 77.8445 62.1194 78.8039 61.2323L78.8468 61.1895L78.8951 61.227L78.9755 61.294C80.0073 62.1194 80.9345 62.8725 81.6045 63.4219C81.9181 63.6899 82.1834 63.907 82.3898 64.0785C82.4851 64.1509 82.5739 64.2316 82.6551 64.3197Z" fill="white"/>
<g opacity="0.2">
<path opacity="0.2" d="M75.0225 73.8901C76.9913 74.2375 79.0177 74.0358 80.8794 73.3073C82.7412 72.5788 84.3662 71.3515 85.5764 69.7602C85.9623 69.243 86.3161 68.6078 86.1553 67.9834C85.9945 67.3589 85.2763 66.9248 84.6036 66.9409C83.9264 66.9993 83.2901 67.2899 82.8026 67.7636C81.5752 68.8356 80.873 70.4142 79.6482 71.4942C78.541 72.464 77.0979 72.9614 75.6282 72.8798C75.4037 72.8632 75.178 72.8722 74.9555 72.9066C74.8227 72.9262 74.7003 72.9896 74.6075 73.0866C74.5148 73.1837 74.4571 73.309 74.4437 73.4426C74.4437 73.7106 74.6527 73.8231 75.0199 73.8928" fill="#0E1339"/>
</g>
<g opacity="0.2">
<path opacity="0.2" d="M89.2614 55.0039L89.5937 59.8842L93.3752 62.1997L94.1658 60.7284L89.2614 55.0039Z" fill="#0E1339"/>
</g>
<path d="M98.8129 52.4878C98.6657 52.4412 98.5138 52.4116 98.36 52.3993C97.9386 52.3959 97.5309 52.5486 97.2156 52.8281C96.763 53.262 96.452 53.8225 96.3232 54.4361C96.1382 55.1195 95.9614 55.8887 95.7148 56.6766C95.3035 58.0243 94.7984 59.3416 94.2033 60.6189C93.9755 61.1093 93.7745 61.4979 93.6324 61.7632C93.5654 61.9051 93.4856 62.0406 93.3939 62.1679C93.4482 62.0211 93.5118 61.8779 93.5842 61.7391C93.7102 61.4711 93.8978 61.0718 94.1202 60.5787C94.6862 59.2947 95.1758 57.9783 95.5862 56.6364C95.8327 55.8512 96.0096 55.0927 96.2052 54.3986C96.3462 53.7665 96.6795 53.1935 97.1593 52.7584C97.4957 52.474 97.9282 52.3292 98.368 52.3538C98.4863 52.3614 98.6023 52.3895 98.711 52.4368C98.7469 52.4496 98.7811 52.4667 98.8129 52.4878Z" fill="#161B46"/>
<path d="M65.589 65.6167C65.4935 65.511 65.4041 65.4001 65.321 65.2844C65.0755 64.9806 64.8143 64.6899 64.5384 64.4134C64.1308 64.0043 63.6766 63.6445 63.185 63.3414C62.633 62.993 61.9871 62.6767 61.309 62.3337C60.6697 62.0142 60.0504 61.6562 59.4545 61.2617C58.9665 60.9355 58.517 60.5552 58.1145 60.1281C57.8457 59.8386 57.6135 59.5173 57.423 59.1713C57.37 59.0777 57.3226 58.9811 57.281 58.8819C57.2515 58.8149 57.2381 58.78 57.2435 58.7773C57.5078 59.2399 57.8243 59.6706 58.1868 60.0611C58.593 60.4725 59.0423 60.8391 59.5268 61.1545C60.1223 61.5397 60.7387 61.8913 61.3734 62.2077C62.046 62.5508 62.6973 62.8724 63.2494 63.2315C63.7445 63.5451 64.1983 63.9196 64.6001 64.3464C64.8729 64.6303 65.1254 64.933 65.3558 65.2522C65.4362 65.3648 65.4979 65.4532 65.5354 65.5202C65.5572 65.5501 65.5752 65.5825 65.589 65.6167Z" fill="#161B46"/>
<path d="M87.0129 67.2383C87.0043 67.2909 86.989 67.3423 86.9673 67.391C86.9271 67.4902 86.8816 67.6403 86.7958 67.8225C86.572 68.3452 86.303 68.8474 85.9918 69.3233C84.972 70.9134 83.5512 72.2067 81.8725 73.0729C80.1938 73.939 78.3164 74.3475 76.4296 74.2572C75.8616 74.233 75.2968 74.1604 74.7412 74.0402C74.5455 74.0026 74.3955 73.9544 74.2936 73.9303C74.2402 73.9188 74.1881 73.9017 74.1382 73.8794C74.1926 73.88 74.2467 73.8881 74.299 73.9035C74.4035 73.9196 74.567 73.9598 74.7519 73.9892C75.3072 74.086 75.8688 74.1424 76.4323 74.1581C78.298 74.2216 80.1489 73.8056 81.808 72.9498C83.4671 72.0939 84.879 70.8269 85.9088 69.2697C86.2237 68.8017 86.5032 68.3108 86.7449 67.8011C86.836 67.6215 86.8896 67.4768 86.9379 67.3803C86.9581 67.3306 86.9832 67.283 87.0129 67.2383Z" fill="#161B46"/>
<g opacity="0.2">
<path opacity="0.2" d="M65.8274 65.0538C66.1374 61.1527 67.0234 57.3189 68.4565 53.6772V60.6131L65.8274 65.0538Z" fill="#0E1339"/>
</g>
<path d="M72.3157 42.1024C73.4896 44.619 76.6037 46.0474 79.3213 46.5727C80.6915 46.8247 82.1017 46.7542 83.44 46.3668C84.7783 45.9793 86.008 45.2854 87.0316 44.3402C88.7468 42.7322 89.7572 40.4998 91.3545 38.7712C92.7418 37.3078 94.5051 36.2545 96.4513 35.7265C98.3974 35.1985 100.451 35.2162 102.388 35.7777L102.6 31.9721C101.297 31.1279 97.9446 30.8223 96.4116 31.0528C93.3573 31.527 90.5967 33.1429 88.6879 35.574C87.0048 37.7394 86.0079 40.5239 83.7808 42.1158C82.1728 43.2656 80.1655 43.2736 78.2117 42.944C76.258 42.6143 74.9395 40.8268 73.4306 39.543L72.3157 42.1024Z" fill="#161B46"/>
<path d="M73.4092 39.5459C73.9194 40.1941 74.5523 40.7353 75.2718 41.1387C75.9914 41.542 76.7833 41.7996 77.6025 41.8967C78.4216 41.9937 79.2518 41.9284 80.0457 41.7044C80.8396 41.4804 81.5815 41.1021 82.2291 40.5911C82.5775 40.3231 83.0331 39.9827 83.4163 40.1891C83.7218 40.3499 83.7969 40.7439 83.8371 41.0842C83.9309 41.8721 84.0059 42.7431 83.5423 43.3863C83.0786 44.0295 82.288 44.2198 81.5376 44.3485C79.7581 44.6433 77.8687 44.6165 76.2178 43.8902C74.5669 43.1639 73.5512 41.3469 73.4092 39.5459Z" fill="#161B46"/>
<path d="M84.5473 41.4729C84.5223 41.5096 84.4925 41.5429 84.4589 41.572C84.3972 41.631 84.3115 41.7248 84.1909 41.84C83.8393 42.1428 83.4555 42.4061 83.0465 42.6253C82.4381 42.9516 81.7812 43.1778 81.1008 43.2953C80.2655 43.4409 79.4091 43.4144 78.5843 43.2175C77.7677 42.9992 76.9889 42.6585 76.2742 42.2072C75.9418 42.0089 75.631 41.8186 75.3415 41.6283C75.0749 41.4499 74.8207 41.2539 74.5804 41.0414C74.2282 40.7392 73.9189 40.3902 73.6612 40.0042C73.5922 39.8986 73.5304 39.7885 73.4762 39.6746C73.4387 39.5969 73.4226 39.554 73.428 39.5513C73.4334 39.5486 73.5191 39.7094 73.696 39.9721C73.9666 40.3416 74.2816 40.6764 74.634 40.969C74.8773 41.1704 75.1313 41.3583 75.3951 41.5318C75.6819 41.7141 75.9981 41.9017 76.3304 42.0973C77.0369 42.5343 77.8034 42.8656 78.6058 43.0809C79.4126 43.2743 80.25 43.3044 81.0687 43.1693C81.738 43.0589 82.3862 42.8455 82.9902 42.5368C83.399 42.3294 83.7859 42.0816 84.1453 41.7971C84.2735 41.6821 84.4077 41.5738 84.5473 41.4729Z" fill="#737690"/>
<path d="M89.1542 41.4941C88.6163 41.2588 88.0936 40.9903 87.5891 40.6901C87.0614 40.4327 86.5504 40.1427 86.0588 39.8218C86.6181 40.0164 87.1567 40.2659 87.6668 40.5668C88.1908 40.8281 88.6888 41.1386 89.1542 41.4941Z" fill="#737690"/>
<path d="M91.0221 39.0606C90.4299 38.8116 89.8559 38.5214 89.3042 38.1923C88.7313 37.9009 88.1797 37.5696 87.6533 37.2007C88.2467 37.4471 88.8209 37.7373 89.3712 38.069C89.9448 38.3592 90.4965 38.6906 91.0221 39.0606Z" fill="#737690"/>
<path d="M92.8285 37.0456C92.6661 36.9341 92.5169 36.8046 92.3836 36.6596L91.3572 35.6841L90.3281 34.7167C90.1767 34.5915 90.0393 34.4504 89.918 34.2959C90.0889 34.3925 90.2481 34.5085 90.3924 34.6416C90.6604 34.8721 91.0543 35.2017 91.4644 35.5823C91.8744 35.9629 92.2201 36.322 92.464 36.59C92.6038 36.7262 92.7262 36.8793 92.8285 37.0456Z" fill="#737690"/>
<path d="M93.1019 32.0312C93.2466 32.2029 93.3749 32.3877 93.4851 32.5833C93.7531 32.9719 94.0345 33.4329 94.3641 33.9394C94.6938 34.4459 94.9993 34.9015 95.2566 35.2794C95.3923 35.459 95.509 35.6521 95.605 35.8556C95.4427 35.6995 95.298 35.5261 95.1735 35.3384C94.9243 35.0061 94.5946 34.5344 94.2462 33.9984C93.8978 33.4624 93.6057 32.9746 93.402 32.6155C93.2794 32.4332 93.1787 32.2371 93.1019 32.0312Z" fill="#737690"/>
<path d="M97.3095 31.2378C97.3814 31.4312 97.4335 31.6315 97.465 31.8354C97.5614 32.2616 97.6713 32.7493 97.7946 33.2907C97.9179 33.832 98.0439 34.3144 98.1484 34.7379C98.2126 34.9345 98.2548 35.1376 98.2743 35.3436C98.1778 35.1602 98.104 34.9658 98.0546 34.7647C97.9366 34.4002 97.7866 33.891 97.6579 33.3228C97.5293 32.7547 97.4274 32.2321 97.3685 31.8542C97.3226 31.6521 97.3028 31.4449 97.3095 31.2378Z" fill="#737690"/>
<path d="M100.603 31.1895C100.643 31.1895 100.627 32.0953 100.684 33.2075C100.74 34.3197 100.842 35.2175 100.801 35.2229C100.735 35.0353 100.693 34.8397 100.678 34.6413C100.625 34.2768 100.571 33.773 100.544 33.2129C100.517 32.6527 100.52 32.1409 100.544 31.7817C100.539 31.5826 100.559 31.3836 100.603 31.1895Z" fill="#737690"/>
<path d="M86.7556 44.5439C86.2579 44.1563 85.7895 43.7326 85.354 43.2762C84.8875 42.8516 84.4522 42.3939 84.0515 41.9067C84.5488 42.2957 85.0173 42.7203 85.4532 43.1771C85.9208 43.5995 86.3562 44.0564 86.7556 44.5439Z" fill="#737690"/>
<path d="M82.9714 46.4951C82.7353 45.945 82.5409 45.3779 82.3898 44.7987C82.1941 44.2326 82.0436 43.6519 81.9396 43.062C82.1778 43.6116 82.3731 44.1788 82.5238 44.7585C82.7183 45.3247 82.8679 45.9054 82.9714 46.4951Z" fill="#737690"/>
<path d="M78.7612 46.4389C78.7995 45.908 78.8847 45.3815 79.0158 44.8657C79.1016 44.34 79.2325 43.8226 79.4071 43.3193C79.3673 43.85 79.2821 44.3763 79.1525 44.8925C79.0667 45.4182 78.9358 45.9356 78.7612 46.4389Z" fill="#737690"/>
<path d="M75.588 45.2274C75.6885 44.7396 75.8601 44.2691 76.0972 43.8311C76.2952 43.3735 76.5579 42.9466 76.8771 42.5635C76.9119 42.5876 76.5769 43.1584 76.2232 43.9035C75.8694 44.6485 75.6229 45.2408 75.588 45.2274Z" fill="#737690"/>
<path d="M74.7063 41.1777C74.5597 41.6092 74.3531 42.0179 74.0926 42.3918C73.8744 42.7887 73.6039 43.1547 73.2886 43.4799C73.4952 43.0774 73.728 42.6888 73.9854 42.3167C74.2003 41.9216 74.4411 41.5411 74.7063 41.1777Z" fill="#737690"/>
<path d="M78.2519 41.9848C78.2894 41.9848 78.2653 42.2072 78.2385 42.4672C78.2117 42.7271 78.1903 42.9388 78.1501 42.9415C78.1099 42.9442 78.0697 42.7218 78.0991 42.4511C78.1286 42.1804 78.2144 41.9741 78.2519 41.9848Z" fill="#737690"/>
<path d="M80.8703 43.2337C80.7553 42.9611 80.6926 42.6692 80.6854 42.3734C80.6281 42.0841 80.6281 41.7864 80.6854 41.4971C80.7657 41.7781 80.8107 42.0679 80.8194 42.36C80.8736 42.6479 80.8907 42.9415 80.8703 43.2337Z" fill="#737690"/>
<path d="M82.7517 40.3979C82.8422 40.7499 82.9058 41.1083 82.9419 41.4699C83.0248 41.8225 83.0803 42.1809 83.1081 42.5419C82.8238 41.8648 82.7018 41.1306 82.7517 40.3979Z" fill="#737690"/>
<path d="M58.436 71.6629L75.253 61.9077C75.8835 61.5428 76.4119 61.025 76.7894 60.402C77.1669 59.779 77.3814 59.071 77.4131 58.3433L77.858 48.103C77.8588 47.9705 77.8105 47.8423 77.7224 47.7434C77.6343 47.6444 77.5126 47.5815 77.3809 47.567C77.2586 47.5577 77.1367 47.5907 77.0358 47.6604C76.9348 47.7302 76.8608 47.8325 76.8262 47.9502L74.6822 55.6338L54.6599 64.1133C54.1276 64.3391 53.6472 64.6717 53.2483 65.0904C52.8495 65.5092 52.5408 66.0052 52.3411 66.5479C52.1414 67.0906 52.0551 67.6685 52.0875 68.2458C52.1199 68.8232 52.2702 69.3878 52.5293 69.9048C52.7886 70.4205 53.1507 70.8778 53.5933 71.2484C54.0359 71.619 54.5496 71.8951 55.1029 72.0598C55.6562 72.2245 56.2373 72.2742 56.8105 72.206C57.3837 72.1377 57.9369 71.9529 58.436 71.6629Z" fill="#936754"/>
<path d="M74.6768 55.6284C74.6147 55.6663 74.5502 55.7003 74.4838 55.7303L73.921 55.9983L71.836 56.9523C70.0699 57.7563 67.6204 58.8283 64.8975 59.9807C62.1746 61.1331 59.6902 62.1247 57.8839 62.8349C56.9834 63.186 56.2491 63.4647 55.7399 63.6389L55.153 63.8533C55.086 63.8826 55.0159 63.9042 54.944 63.9177C55.0084 63.8837 55.0746 63.8532 55.1423 63.8265L55.7185 63.588C56.2357 63.3817 56.9566 63.0869 57.8464 62.7277C59.642 62.0041 62.1183 60.9884 64.8412 59.8387C67.5641 58.689 70.019 57.6223 71.7931 56.8478L73.8969 55.9339L74.4731 55.6901C74.5389 55.663 74.6071 55.6424 74.6768 55.6284Z" fill="#7C5142"/>
<path d="M53.001 70.7868C53.001 70.7734 53.2261 70.7493 53.6201 70.6528C53.8593 70.5925 54.0919 70.5081 54.3142 70.4009C54.6044 70.2517 54.8807 70.0768 55.1396 69.8783C55.4317 69.6585 55.7533 69.4173 56.0883 69.152C56.4233 68.8867 56.7744 68.5865 57.1416 68.2729C57.9199 67.5594 58.7852 66.9471 59.7171 66.4505C60.668 65.9826 61.6959 65.6912 62.7508 65.5903C63.6112 65.5105 64.4785 65.5548 65.3263 65.7216C65.8958 65.837 66.4517 66.0113 66.9852 66.2415C67.1728 66.3219 67.3122 66.3996 67.4087 66.4479C67.46 66.4681 67.5079 66.4961 67.5507 66.5309C67.4982 66.5155 67.4471 66.4958 67.3979 66.472C67.2961 66.4345 67.1541 66.3621 66.9638 66.2897C66.4274 66.0826 65.8729 65.9256 65.3075 65.8207C64.4687 65.668 63.6126 65.6337 62.7642 65.7189C61.7261 65.8257 60.7152 66.116 59.7787 66.5765C58.8575 67.0689 57.9998 67.6719 57.2247 68.3721C56.8548 68.683 56.5011 68.9778 56.1527 69.2431C55.8043 69.5084 55.488 69.7416 55.1879 69.956C54.9216 70.1548 54.6372 70.328 54.3383 70.4732C54.1092 70.5749 53.8703 70.653 53.6254 70.7064C53.4244 70.7466 53.2663 70.768 53.1564 70.7787C53.1051 70.7878 53.0529 70.7905 53.001 70.7868Z" fill="#161B46"/>
<path d="M56.2277 69.2054C56.2277 69.2054 56.2438 69.3019 56.284 69.4734C56.3444 69.6997 56.4594 69.9076 56.619 70.0791C56.8545 70.3341 57.1489 70.5273 57.4766 70.6419C57.8789 70.7737 58.3152 70.7576 58.7067 70.5963L58.8219 70.5427L58.7898 70.6312C58.6315 70.2528 58.3764 69.9228 58.0501 69.6744C57.7838 69.4725 57.4764 69.3316 57.1496 69.2617C56.8454 69.2082 56.5357 69.1929 56.2277 69.2161C56.3044 69.18 56.3871 69.1582 56.4716 69.1518C56.7031 69.1193 56.9383 69.1238 57.1684 69.1652C57.5143 69.2259 57.8416 69.3653 58.1251 69.5726C58.4807 69.827 58.759 70.1748 58.9291 70.5776L58.9559 70.6392L58.897 70.666L58.771 70.725C58.3445 70.9029 57.8674 70.9172 57.431 70.7651C57.086 70.6376 56.7796 70.4235 56.5413 70.1434C56.3799 69.9555 56.2717 69.7279 56.2277 69.4841C56.2063 69.3924 56.2063 69.2971 56.2277 69.2054Z" fill="#161B46"/>
<path d="M56.2277 69.2056C56.5223 69.2981 56.8021 69.4326 57.0585 69.6049C57.3377 69.7386 57.5945 69.9149 57.8196 70.1275C57.5249 70.035 57.2451 69.9005 56.9888 69.7282C56.7095 69.5945 56.4527 69.4182 56.2277 69.2056Z" fill="#161B46"/>
<path d="M58.7603 67.1228C58.8033 67.1991 58.8418 67.2779 58.8755 67.3587C58.9865 67.5649 59.1456 67.7414 59.3391 67.8732C59.628 68.0657 59.9589 68.1861 60.3039 68.2243C60.726 68.2599 61.1468 68.144 61.4912 67.8974L61.5903 67.817V67.9108C61.3493 67.5797 61.026 67.3173 60.6523 67.1496C60.346 67.0148 60.0141 66.9481 59.6795 66.954C59.3706 66.9704 59.0652 67.0272 58.771 67.1228C58.8379 67.0698 58.9143 67.0298 58.9961 67.0049C59.2133 66.9186 59.4433 66.8688 59.6768 66.8575C60.0272 66.8353 60.3779 66.8959 60.7006 67.0344C61.1032 67.2048 61.451 67.483 61.7056 67.8384L61.7431 67.892L61.6922 67.9322C61.6573 67.959 61.6225 67.9912 61.5823 68.018C61.2113 68.2845 60.7558 68.4064 60.3013 68.361C59.937 68.3152 59.5903 68.1779 59.2936 67.9617C59.0938 67.8151 58.9366 67.6181 58.838 67.3908C58.7941 67.3077 58.7677 67.2165 58.7603 67.1228Z" fill="#161B46"/>
<path d="M58.7603 67.123C59.0696 67.1428 59.3742 67.2097 59.6634 67.3214C59.965 67.3889 60.255 67.5009 60.5237 67.6537C59.9122 67.5649 59.3177 67.3842 58.7603 67.1177V67.123Z" fill="#161B46"/>
<path d="M54.3142 70.387C54.3142 70.387 54.3785 70.3147 54.4803 70.1834C54.6204 69.9968 54.7124 69.7787 54.7483 69.5482C54.8068 69.2066 54.7801 68.8559 54.6706 68.5271C54.5297 68.1276 54.2501 67.7919 53.8827 67.5811L53.7701 67.5221L53.8586 67.4927C53.6721 67.8166 53.5672 68.1809 53.5527 68.5544C53.5382 68.9279 53.6147 69.2993 53.7755 69.6367C53.9213 69.9111 54.1014 70.166 54.3115 70.3951C54.2354 70.3562 54.1673 70.3035 54.1105 70.2396C53.691 69.825 53.4481 69.2642 53.4325 68.6745C53.4211 68.2395 53.5286 67.8096 53.7433 67.431L53.7755 67.3721L53.8345 67.4042L53.9577 67.4685C54.3534 67.6961 54.6526 68.06 54.7993 68.4923C54.9068 68.8395 54.9244 69.2084 54.8502 69.5643C54.8017 69.8068 54.6888 70.0318 54.5232 70.2155C54.4661 70.2865 54.3949 70.3449 54.3142 70.387Z" fill="#161B46"/>
<path d="M54.3142 70.3876C54.2033 70.0984 54.1381 69.7937 54.1212 69.4844C54.0583 69.1814 54.0402 68.8708 54.0676 68.5625C54.1786 68.8517 54.2437 69.1564 54.2606 69.4657C54.3235 69.7687 54.3416 70.0793 54.3142 70.3876Z" fill="#161B46"/>
<path d="M60.58 66.196C60.58 66.196 60.6604 66.1639 60.7971 66.0942C60.989 65.9978 61.1539 65.855 61.2768 65.6788C61.4613 65.4202 61.5791 65.1201 61.6198 64.8051C61.6645 64.4211 61.5694 64.0339 61.3518 63.7144C61.3304 63.6795 61.3036 63.65 61.2821 63.6179L61.3759 63.6313C61.0659 63.844 60.818 64.1354 60.6577 64.4755C60.5259 64.7518 60.4564 65.0537 60.454 65.3599C60.4603 65.6428 60.5027 65.9238 60.58 66.196C60.58 66.196 60.5264 66.129 60.4728 65.9897C60.3994 65.7875 60.3586 65.5749 60.3522 65.3599C60.3397 65.0371 60.4031 64.7158 60.5371 64.4219C60.7008 64.0561 60.9623 63.7426 61.2929 63.516L61.3465 63.4785L61.384 63.5294C61.4081 63.5643 61.4376 63.5964 61.4617 63.634C61.6997 63.9811 61.8018 64.4037 61.7485 64.8212C61.6985 65.1559 61.5638 65.4724 61.3572 65.7404C61.2182 65.9212 61.033 66.061 60.8212 66.1451C60.7458 66.1806 60.6632 66.198 60.58 66.196Z" fill="#161B46"/>
<path d="M60.58 66.1959C60.5995 65.9127 60.6656 65.6348 60.7757 65.3731C60.8475 65.0952 60.9624 64.8303 61.116 64.5879C61.0969 64.872 61.0308 65.1509 60.9204 65.4133C60.8489 65.6905 60.734 65.9546 60.58 66.1959Z" fill="#161B46"/>
<path d="M62.7455 65.641C62.7438 65.7217 62.7375 65.8022 62.7267 65.8822C62.7198 66.0967 62.7639 66.3098 62.8554 66.504C62.9934 66.7898 63.1984 67.038 63.453 67.2276C63.7686 67.453 64.1551 67.5567 64.5411 67.5197L64.6564 67.5063L64.6001 67.5813C64.5649 67.2069 64.4318 66.8482 64.2142 66.5415C64.0337 66.2887 63.7994 66.079 63.5281 65.9278C63.273 65.7972 63.003 65.6983 62.7241 65.633C62.801 65.6171 62.8803 65.6171 62.9572 65.633C63.4936 65.7214 63.9744 66.0156 64.2972 66.453C64.5358 66.7739 64.6823 67.1539 64.7207 67.5519V67.6189H64.659L64.5304 67.6349C64.1114 67.6735 63.6929 67.5571 63.3539 67.308C63.0831 67.0983 62.8723 66.821 62.7428 66.504C62.6515 66.2951 62.6191 66.0653 62.649 65.8393C62.666 65.7668 62.6989 65.6991 62.7455 65.641Z" fill="#161B46"/>
<path d="M62.7454 65.6411C62.9827 65.7979 63.1935 65.9915 63.3699 66.2146C63.5784 66.4072 63.754 66.6327 63.8898 66.882C63.6519 66.7259 63.441 66.5322 63.2653 66.3084C63.0555 66.1171 62.8797 65.8914 62.7454 65.6411Z" fill="#161B46"/>
<path d="M64.3052 65.5793C64.5601 65.6043 64.8168 65.5588 65.0476 65.448C65.2883 65.3196 65.4949 65.1359 65.6506 64.912C65.8319 64.631 65.9079 64.2949 65.865 63.9632C65.865 63.9284 65.8516 63.8962 65.8463 63.8641L65.924 63.9177C65.6027 63.9615 65.2987 64.0891 65.0422 64.2875C64.8321 64.4491 64.6601 64.655 64.5384 64.8905C64.4339 65.1129 64.3556 65.3468 64.3052 65.5873C64.2908 65.5202 64.2908 65.4508 64.3052 65.3836C64.326 65.1981 64.3767 65.017 64.4553 64.8476C64.5734 64.5917 64.7485 64.3662 64.9672 64.1884C65.2388 63.969 65.5648 63.8273 65.9106 63.7783H65.9776V63.8426C65.9866 63.8787 65.9929 63.9155 65.9963 63.9525C66.0445 64.3173 65.9578 64.6871 65.7525 64.9924C65.5808 65.2323 65.3512 65.425 65.0851 65.5525C64.9047 65.6374 64.7048 65.6725 64.5062 65.6543C64.3722 65.6195 64.3026 65.5873 64.3052 65.5793Z" fill="#161B46"/>
<path d="M64.3052 65.5796C64.5817 65.171 64.9337 64.8189 65.3424 64.5425C65.2225 64.7646 65.0615 64.9619 64.868 65.124C64.6 65.392 64.332 65.6091 64.3052 65.5796Z" fill="#161B46"/>
<path d="M57.4954 68.0023C57.4954 68.0023 57.5597 67.9326 57.6642 67.8013C57.8033 67.6141 57.8952 67.3963 57.9322 67.1661C57.9896 66.8236 57.963 66.4723 57.8545 66.1424C57.7128 65.7433 57.4334 65.4079 57.0666 65.1963L56.9514 65.1374L57.0425 65.1079C56.8397 65.4647 56.7343 65.8686 56.737 66.279C56.7408 66.6129 56.8166 66.942 56.9594 67.2438C57.1047 67.5187 57.2848 67.7736 57.4954 68.0023C57.4199 67.9626 57.3518 67.91 57.2944 67.8468C57.1267 67.6843 56.9873 67.495 56.8817 67.2867C56.7146 66.9775 56.6227 66.6331 56.6137 66.2817C56.6014 65.8466 56.7089 65.4164 56.9246 65.0382L56.9567 64.9819L57.013 65.0114L57.139 65.0757C57.5348 65.3024 57.8334 65.6668 57.9778 66.0995C58.0897 66.4505 58.1082 66.8246 58.0314 67.1849C57.9821 67.4282 57.8672 67.6534 57.6991 67.8361C57.6444 67.906 57.5748 67.9628 57.4954 68.0023Z" fill="#161B46"/>
<path d="M57.4953 68.0023C57.3876 67.7123 57.3234 67.408 57.3051 67.0992C57.2421 66.7961 57.2241 66.4855 57.2515 66.1772C57.3594 66.4673 57.4245 66.7716 57.4444 67.0804C57.5089 67.3832 57.5261 67.6942 57.4953 68.0023Z" fill="#161B46"/>
<path d="M99.0299 68.7982L81.8779 61.1361C81.2347 60.8477 80.6746 60.4019 80.2493 59.8398C79.824 59.2777 79.5472 58.6175 79.4445 57.9201L78 48.1435C77.9816 48.0143 78.0133 47.883 78.0885 47.7764C78.1637 47.6698 78.2768 47.596 78.4046 47.5699C78.5211 47.5466 78.6421 47.5649 78.7465 47.6217C78.8508 47.6786 78.9319 47.7703 78.9755 47.8808L81.8136 55.0418L101.892 61.1656C104.406 61.9696 105.376 64.3146 104.524 66.5256C104.326 67.0461 104.024 67.5206 103.636 67.9199C103.248 68.3193 102.782 68.6351 102.268 68.848C101.753 69.0608 101.2 69.1662 100.644 69.1577C100.087 69.1491 99.5377 69.0268 99.0299 68.7982Z" fill="#936754"/>
<path d="M81.8083 55.0415C81.8777 55.0519 81.9459 55.0689 82.012 55.0924L82.5882 55.2693L84.7028 55.9339C86.485 56.4967 88.9506 57.2739 91.6708 58.1021C94.391 58.9302 96.8807 59.6565 98.679 60.1737L100.807 60.7847L101.386 60.9563C101.453 60.9745 101.519 60.9969 101.584 61.0233C101.514 61.0174 101.445 61.0039 101.378 60.9831L100.793 60.8383C100.287 60.7097 99.5553 60.5141 98.6495 60.2675C96.8458 59.7771 94.3615 59.0669 91.6279 58.2361C88.8943 57.4053 86.4367 56.6147 84.6599 56.0277L82.5614 55.3202L81.9933 55.1192C81.9294 55.0989 81.8676 55.0729 81.8083 55.0415Z" fill="#7C5142"/>
<path d="M104.149 67.4095C104.096 67.4165 104.043 67.4165 103.991 67.4095C103.839 67.411 103.686 67.4039 103.535 67.388C103.293 67.3633 103.055 67.3121 102.825 67.2353C102.523 67.1273 102.232 66.9909 101.957 66.8279C101.648 66.651 101.316 66.4581 100.96 66.2383C100.603 66.0186 100.236 65.772 99.8501 65.5094C99.0349 64.9174 98.1502 64.4277 97.2156 64.0515C96.2727 63.6988 95.2744 63.5173 94.2676 63.5155C93.4449 63.5208 92.6269 63.6398 91.8369 63.8692C91.3039 64.0262 90.787 64.2335 90.2932 64.4883C90.1163 64.5767 89.9877 64.6598 89.8939 64.7054C89.8502 64.7355 89.8024 64.759 89.7518 64.7751C89.7921 64.7403 89.8351 64.7089 89.8805 64.6813C89.9689 64.6277 90.0949 64.5365 90.2664 64.4401C90.7556 64.1656 91.272 63.9428 91.8074 63.7754C92.6041 63.5303 93.4315 63.3995 94.265 63.3868C95.2897 63.3816 96.3069 63.5633 97.2666 63.9228C98.212 64.3054 99.1053 64.8061 99.9251 65.4129C100.311 65.6809 100.676 65.9275 101.024 66.1499C101.372 66.3723 101.707 66.5706 102.007 66.7502C102.277 66.9151 102.56 67.0558 102.854 67.171C103.078 67.2506 103.308 67.308 103.543 67.3425C103.932 67.3934 104.151 67.3961 104.149 67.4095Z" fill="#161B46"/>
<path d="M100.892 66.2171C100.922 66.3031 100.931 66.3952 100.917 66.4851C100.9 66.7244 100.819 66.9549 100.683 67.1525C100.479 67.4468 100.202 67.6832 99.8795 67.8385C99.4792 68.0249 99.0248 68.0592 98.6011 67.935L98.4725 67.8894L98.4135 67.8707L98.4323 67.8064C98.5538 67.4035 98.7827 67.0413 99.0942 66.7585C99.5177 66.3777 100.071 66.1743 100.641 66.1903C100.723 66.1867 100.805 66.1995 100.882 66.2279C100.583 66.238 100.287 66.2839 100 66.3645C99.6943 66.4651 99.4143 66.6316 99.18 66.8523C98.8909 67.1224 98.679 67.4647 98.5663 67.8439L98.5234 67.7608L98.6413 67.801C99.0331 67.9166 99.4533 67.888 99.8258 67.7206C100.128 67.5781 100.392 67.3637 100.592 67.0962C100.73 66.9153 100.822 66.7038 100.86 66.4798C100.887 66.3109 100.882 66.2198 100.892 66.2171Z" fill="#161B46"/>
<path d="M100.893 66.2173C100.699 66.4453 100.47 66.6407 100.214 66.7962C99.9876 66.9903 99.7317 67.1477 99.4561 67.2625C99.6505 67.0353 99.8793 66.84 100.134 66.6836C100.362 66.4907 100.618 66.3334 100.893 66.2173Z" fill="#161B46"/>
<path d="M98.2501 64.4724C98.2566 64.5634 98.2438 64.6547 98.2126 64.7404C98.142 64.9689 98.0115 65.1743 97.8347 65.3354C97.5715 65.5742 97.2512 65.7412 96.9048 65.8205C96.4727 65.9118 96.0222 65.8402 95.6398 65.6195C95.5969 65.598 95.5594 65.5712 95.5246 65.5498L95.4709 65.515L95.5031 65.456C95.7139 65.0926 96.0196 64.7933 96.3875 64.5904C96.685 64.4277 97.0162 64.3359 97.355 64.3223C97.58 64.3126 97.8051 64.3379 98.0223 64.3974C98.1036 64.4122 98.1811 64.4432 98.2501 64.4885C97.9576 64.4284 97.6587 64.405 97.3604 64.4188C97.0027 64.4507 96.6581 64.5685 96.3557 64.7621C96.0534 64.9557 95.8022 65.2195 95.6237 65.531L95.6023 65.4399C95.6371 65.4614 95.6719 65.4855 95.7095 65.5042C96.0629 65.7075 96.4776 65.777 96.878 65.6999C97.2053 65.6294 97.5107 65.4804 97.7677 65.2657C97.9402 65.1213 98.0753 64.9374 98.1617 64.7297C98.1839 64.6416 98.2135 64.5556 98.2501 64.4724Z" fill="#161B46"/>
<path d="M98.2501 64.4726C98.0051 64.6497 97.7337 64.7871 97.4461 64.88C97.1799 65.0141 96.894 65.1046 96.5992 65.148C97.1067 64.835 97.6601 64.6035 98.2393 64.4619L98.2501 64.4726Z" fill="#161B46"/>
<path d="M102.849 67.1579C102.767 67.128 102.693 67.0804 102.632 67.0186C102.453 66.86 102.32 66.6564 102.246 66.429C102.136 66.0906 102.116 65.7296 102.187 65.3811C102.284 64.95 102.535 64.569 102.892 64.3091L103.004 64.2367L103.058 64.1992L103.098 64.2555C103.342 64.597 103.488 64.998 103.522 65.4159C103.548 65.7547 103.495 66.0949 103.369 66.4102C103.288 66.6206 103.173 66.8162 103.029 66.9891C102.924 67.1097 102.854 67.1633 102.849 67.1579C103.026 66.917 103.171 66.6539 103.281 66.3754C103.399 66.0367 103.434 65.6742 103.383 65.3191C103.331 64.9639 103.194 64.6265 102.983 64.3359L103.077 64.3547C103.045 64.3761 103.007 64.3975 102.972 64.4243C102.643 64.6645 102.409 65.0141 102.313 65.4106C102.241 65.7375 102.25 66.077 102.34 66.3995C102.401 66.6171 102.514 66.8166 102.669 66.9811C102.779 67.0963 102.857 67.1472 102.849 67.1579Z" fill="#161B46"/>
<path d="M102.849 67.1582C102.788 66.8656 102.774 66.5655 102.806 66.2684C102.792 65.9697 102.824 65.6706 102.9 65.3813C102.962 65.6737 102.977 65.974 102.945 66.2711C102.959 66.57 102.927 66.8693 102.849 67.1582Z" fill="#161B46"/>
<path d="M96.4036 63.7838C96.3242 63.7954 96.2431 63.7871 96.1677 63.7597C95.9547 63.7012 95.7619 63.5853 95.6103 63.4247C95.3842 63.1882 95.2226 62.8975 95.1413 62.5805C95.0465 62.1855 95.1009 61.7694 95.2941 61.412C95.3155 61.3718 95.3396 61.337 95.3584 61.3048L95.3905 61.2485L95.4495 61.2807C95.7912 61.4677 96.0742 61.7461 96.2669 62.0847C96.4241 62.3545 96.5158 62.6574 96.5349 62.9691C96.5509 63.1761 96.5328 63.3844 96.4813 63.5855C96.469 63.6599 96.4416 63.7311 96.4009 63.7945C96.4452 63.529 96.4578 63.2591 96.4384 62.9905C96.4057 62.697 96.3087 62.4142 96.1543 62.1624C95.9658 61.8542 95.6997 61.601 95.3825 61.4281L95.4736 61.404C95.4549 61.4361 95.4334 61.4683 95.4147 61.5031C95.2392 61.8314 95.1851 62.211 95.2619 62.5751C95.3357 62.8724 95.479 63.148 95.68 63.3791C95.8162 63.5343 95.9882 63.6539 96.1811 63.7275C96.2563 63.7421 96.3305 63.7609 96.4036 63.7838Z" fill="#161B46"/>
<path d="M96.4035 63.7838C96.0988 63.3292 95.8731 62.8263 95.7362 62.2964C96.041 62.751 96.2666 63.2539 96.4035 63.7838Z" fill="#161B46"/>
<path d="M94.2757 63.4517C94.3231 63.5169 94.3551 63.592 94.3694 63.6714C94.4205 63.8856 94.4131 64.1096 94.348 64.32C94.2521 64.6336 94.0767 64.917 93.8388 65.1427C93.5387 65.416 93.1486 65.5696 92.7427 65.5742C92.7008 65.5769 92.6587 65.5769 92.6167 65.5742H92.5524V65.5072C92.5486 65.1201 92.6506 64.7392 92.8472 64.4057C93.007 64.1374 93.2261 63.9091 93.4877 63.7384C93.6615 63.6246 93.8524 63.5395 94.0532 63.4865C94.1245 63.4614 94.2001 63.4504 94.2757 63.4543C94.0186 63.5473 93.7731 63.6696 93.544 63.8188C93.2764 64.0101 93.0591 64.2633 92.9107 64.5569C92.7622 64.8505 92.6871 65.1756 92.6918 65.5045L92.6274 65.4348C92.6649 65.4376 92.7025 65.4376 92.74 65.4348C93.1131 65.4298 93.4723 65.292 93.7531 65.0463C93.9778 64.8378 94.1497 64.5787 94.2542 64.2905C94.3234 64.0956 94.3445 63.8869 94.3159 63.6821C94.2979 63.6062 94.2845 63.5292 94.2757 63.4517Z" fill="#161B46"/>
<path d="M94.2757 63.4517C94.1723 63.7067 94.0264 63.9423 93.8442 64.1485C93.7018 64.3813 93.5205 64.588 93.3082 64.7595C93.4132 64.5062 93.559 64.2717 93.7397 64.0654C93.8834 63.8328 94.0645 63.6254 94.2757 63.4517Z" fill="#161B46"/>
<path d="M92.7721 63.5507C92.7721 63.5507 92.7105 63.5963 92.5792 63.6284C92.3906 63.6675 92.1949 63.6536 92.0137 63.5882C91.7435 63.4959 91.5023 63.3341 91.3142 63.1192C91.0852 62.8465 90.9632 62.4997 90.9712 62.1437C90.9712 62.1062 90.9712 62.0686 90.9712 62.0365V61.9722H91.0382C91.3759 61.9837 91.704 62.0875 91.9869 62.2723C92.2161 62.4194 92.4071 62.6187 92.5443 62.8539C92.6371 63.0091 92.7041 63.1784 92.7427 63.3551C92.7622 63.4183 92.7677 63.4851 92.7587 63.5507C92.6814 63.326 92.5818 63.1096 92.4613 62.9048C92.3042 62.668 92.0924 62.4725 91.8437 62.3348C91.5951 62.1972 91.3169 62.1215 91.0328 62.1142L91.1052 62.0499C91.1052 62.082 91.1052 62.1142 91.1052 62.149C91.0977 62.4709 91.204 62.785 91.4053 63.0361C91.5761 63.2383 91.7931 63.3965 92.0378 63.4971C92.2732 63.5814 92.527 63.5999 92.7721 63.5507Z" fill="#161B46"/>
<path d="M92.7722 63.5506C92.5504 63.4601 92.3483 63.3272 92.1773 63.1594C91.8718 62.9128 91.6413 62.6877 91.6708 62.6582C91.8922 62.7494 92.0942 62.8823 92.2657 63.0495C92.5686 63.296 92.7964 63.5158 92.7722 63.5506Z" fill="#161B46"/>
<path d="M99.5526 65.1909C99.4716 65.1596 99.3978 65.1122 99.3355 65.0515C99.1553 64.893 99.0218 64.6882 98.9496 64.4593C98.8399 64.1209 98.8196 63.7599 98.8907 63.4114C98.9872 62.9801 99.2378 62.5989 99.5955 62.3394L99.7081 62.2643L99.7617 62.2295L99.7992 62.2831C100.044 62.625 100.191 63.027 100.225 63.4462C100.251 63.785 100.199 64.1251 100.073 64.4405C99.9911 64.6503 99.8751 64.845 99.7295 65.0167C99.6277 65.14 99.558 65.1936 99.5526 65.1882C99.7299 64.9472 99.8749 64.6842 99.9841 64.4057C100.103 64.067 100.138 63.7045 100.086 63.3493C100.034 62.9941 99.8973 62.6568 99.6866 62.3662L99.7804 62.3849L99.6759 62.4519C99.3467 62.6926 99.1132 63.042 99.0166 63.4382C98.9448 63.7651 98.954 64.1046 99.0434 64.4271C99.1029 64.6455 99.2163 64.8454 99.3731 65.0087C99.483 65.1239 99.5607 65.1802 99.5526 65.1909Z" fill="#161B46"/>
<path d="M99.5526 65.1909C99.4925 64.8983 99.4781 64.5982 99.5098 64.3011C99.4956 64.0024 99.5272 63.7032 99.6036 63.4141C99.6642 63.7066 99.6796 64.0067 99.6491 64.3038C99.6614 64.6027 99.6289 64.9017 99.5526 65.1909Z" fill="#161B46"/>
<path d="M47.1073 132.88V144H45.2833V136.384L41.8913 144H40.6273L37.2193 136.384V144H35.3953V132.88H37.3633L41.2673 141.6L45.1553 132.88H47.1073ZM57.5847 139.376C57.5847 139.707 57.5634 140.005 57.5207 140.272H50.7847C50.838 140.976 51.0994 141.541 51.5687 141.968C52.038 142.395 52.614 142.608 53.2967 142.608C54.278 142.608 54.9714 142.197 55.3767 141.376H57.3447C57.078 142.187 56.5927 142.853 55.8887 143.376C55.1954 143.888 54.3314 144.144 53.2967 144.144C52.454 144.144 51.6967 143.957 51.0247 143.584C50.3634 143.2 49.8407 142.667 49.4567 141.984C49.0834 141.291 48.8967 140.491 48.8967 139.584C48.8967 138.677 49.078 137.883 49.4407 137.2C49.814 136.507 50.3314 135.973 50.9927 135.6C51.6647 135.227 52.4327 135.04 53.2967 135.04C54.1287 135.04 54.87 135.221 55.5207 135.584C56.1714 135.947 56.678 136.459 57.0407 137.12C57.4034 137.771 57.5847 138.523 57.5847 139.376ZM55.6807 138.8C55.67 138.128 55.43 137.589 54.9607 137.184C54.4914 136.779 53.91 136.576 53.2167 136.576C52.5874 136.576 52.0487 136.779 51.6007 137.184C51.1527 137.579 50.886 138.117 50.8007 138.8H55.6807ZM58.7717 139.552C58.7717 138.667 58.953 137.883 59.3157 137.2C59.689 136.517 60.1904 135.989 60.8197 135.616C61.4597 135.232 62.169 135.04 62.9477 135.04C63.5237 135.04 64.089 135.168 64.6437 135.424C65.209 135.669 65.657 136 65.9877 136.416V132.16H67.8277V144H65.9877V142.672C65.689 143.099 65.273 143.451 64.7397 143.728C64.217 144.005 63.6144 144.144 62.9317 144.144C62.1637 144.144 61.4597 143.952 60.8197 143.568C60.1904 143.173 59.689 142.629 59.3157 141.936C58.953 141.232 58.7717 140.437 58.7717 139.552ZM65.9877 139.584C65.9877 138.976 65.8597 138.448 65.6037 138C65.3584 137.552 65.033 137.211 64.6277 136.976C64.2224 136.741 63.785 136.624 63.3157 136.624C62.8464 136.624 62.409 136.741 62.0037 136.976C61.5984 137.2 61.2677 137.536 61.0117 137.984C60.7664 138.421 60.6437 138.944 60.6437 139.552C60.6437 140.16 60.7664 140.693 61.0117 141.152C61.2677 141.611 61.5984 141.963 62.0037 142.208C62.4197 142.443 62.857 142.56 63.3157 142.56C63.785 142.56 64.2224 142.443 64.6277 142.208C65.033 141.973 65.3584 141.632 65.6037 141.184C65.8597 140.725 65.9877 140.192 65.9877 139.584ZM71.1514 134.016C70.8208 134.016 70.5434 133.904 70.3194 133.68C70.0954 133.456 69.9834 133.179 69.9834 132.848C69.9834 132.517 70.0954 132.24 70.3194 132.016C70.5434 131.792 70.8208 131.68 71.1514 131.68C71.4714 131.68 71.7434 131.792 71.9674 132.016C72.1914 132.24 72.3034 132.517 72.3034 132.848C72.3034 133.179 72.1914 133.456 71.9674 133.68C71.7434 133.904 71.4714 134.016 71.1514 134.016ZM72.0474 135.184V144H70.2234V135.184H72.0474ZM76.5702 136.672V141.552C76.5702 141.883 76.6449 142.123 76.7942 142.272C76.9542 142.411 77.2209 142.48 77.5942 142.48H78.7142V144H77.2742C76.4529 144 75.8235 143.808 75.3862 143.424C74.9489 143.04 74.7302 142.416 74.7302 141.552V136.672H73.6902V135.184H74.7302V132.992H76.5702V135.184H78.7142V136.672H76.5702ZM79.7873 139.552C79.7873 138.667 79.9686 137.883 80.3313 137.2C80.7046 136.517 81.206 135.989 81.8353 135.616C82.4753 135.232 83.1793 135.04 83.9473 135.04C84.6406 135.04 85.2433 135.179 85.7553 135.456C86.278 135.723 86.694 136.059 87.0033 136.464V135.184H88.8433V144H87.0033V142.688C86.694 143.104 86.2726 143.451 85.7393 143.728C85.206 144.005 84.598 144.144 83.9153 144.144C83.158 144.144 82.4646 143.952 81.8353 143.568C81.206 143.173 80.7046 142.629 80.3313 141.936C79.9686 141.232 79.7873 140.437 79.7873 139.552ZM87.0033 139.584C87.0033 138.976 86.8753 138.448 86.6193 138C86.374 137.552 86.0486 137.211 85.6433 136.976C85.238 136.741 84.8006 136.624 84.3313 136.624C83.862 136.624 83.4246 136.741 83.0193 136.976C82.614 137.2 82.2833 137.536 82.0273 137.984C81.782 138.421 81.6593 138.944 81.6593 139.552C81.6593 140.16 81.782 140.693 82.0273 141.152C82.2833 141.611 82.614 141.963 83.0193 142.208C83.4353 142.443 83.8726 142.56 84.3313 142.56C84.8006 142.56 85.238 142.443 85.6433 142.208C86.0486 141.973 86.374 141.632 86.6193 141.184C86.8753 140.725 87.0033 140.192 87.0033 139.584ZM93.3671 136.672V141.552C93.3671 141.883 93.4417 142.123 93.5911 142.272C93.7511 142.411 94.0177 142.48 94.3911 142.48H95.5111V144H94.0711C93.2497 144 92.6204 143.808 92.1831 143.424C91.7457 143.04 91.5271 142.416 91.5271 141.552V136.672H90.4871V135.184H91.5271V132.992H93.3671V135.184H95.5111V136.672H93.3671ZM98.1202 134.016C97.7895 134.016 97.5122 133.904 97.2882 133.68C97.0642 133.456 96.9522 133.179 96.9522 132.848C96.9522 132.517 97.0642 132.24 97.2882 132.016C97.5122 131.792 97.7895 131.68 98.1202 131.68C98.4402 131.68 98.7122 131.792 98.9362 132.016C99.1602 132.24 99.2722 132.517 99.2722 132.848C99.2722 133.179 99.1602 133.456 98.9362 133.68C98.7122 133.904 98.4402 134.016 98.1202 134.016ZM99.0162 135.184V144H97.1922V135.184H99.0162ZM105.235 144.144C104.403 144.144 103.651 143.957 102.979 143.584C102.307 143.2 101.779 142.667 101.395 141.984C101.011 141.291 100.819 140.491 100.819 139.584C100.819 138.688 101.016 137.893 101.411 137.2C101.806 136.507 102.344 135.973 103.027 135.6C103.71 135.227 104.472 135.04 105.315 135.04C106.158 135.04 106.92 135.227 107.603 135.6C108.286 135.973 108.824 136.507 109.219 137.2C109.614 137.893 109.811 138.688 109.811 139.584C109.811 140.48 109.608 141.275 109.203 141.968C108.798 142.661 108.243 143.2 107.539 143.584C106.846 143.957 106.078 144.144 105.235 144.144ZM105.235 142.56C105.704 142.56 106.142 142.448 106.547 142.224C106.963 142 107.299 141.664 107.555 141.216C107.811 140.768 107.939 140.224 107.939 139.584C107.939 138.944 107.816 138.405 107.571 137.968C107.326 137.52 107 137.184 106.595 136.96C106.19 136.736 105.752 136.624 105.283 136.624C104.814 136.624 104.376 136.736 103.971 136.96C103.576 137.184 103.262 137.52 103.027 137.968C102.792 138.405 102.675 138.944 102.675 139.584C102.675 140.533 102.915 141.269 103.395 141.792C103.886 142.304 104.499 142.56 105.235 142.56ZM116.062 135.04C116.755 135.04 117.374 135.184 117.918 135.472C118.473 135.76 118.905 136.187 119.214 136.752C119.523 137.317 119.678 138 119.678 138.8V144H117.87V139.072C117.87 138.283 117.673 137.68 117.278 137.264C116.883 136.837 116.345 136.624 115.662 136.624C114.979 136.624 114.435 136.837 114.03 137.264C113.635 137.68 113.438 138.283 113.438 139.072V144H111.614V135.184H113.438V136.192C113.737 135.829 114.115 135.547 114.574 135.344C115.043 135.141 115.539 135.04 116.062 135.04Z" fill="#161B46"/>
</svg>
