<svg width="53" height="52" viewBox="0 0 53 52" fill="none" xmlns="http://www.w3.org/2000/svg">
<path d="M23.2097 2.35372C24.9753 0.415915 28.0247 0.415915 29.7903 2.35371C31.2246 3.928 33.4444 4.5228 35.4737 3.87659C37.9716 3.08117 40.6125 4.6059 41.1726 7.16684C41.6276 9.24738 43.2526 10.8724 45.3332 11.3274C47.8941 11.8875 49.4188 14.5284 48.6234 17.0263C47.9772 19.0556 48.572 21.2754 50.1463 22.7097C52.0841 24.4753 52.0841 27.5247 50.1463 29.2903C48.572 30.7246 47.9772 32.9444 48.6234 34.9737C49.4188 37.4716 47.8941 40.1125 45.3332 40.6726C43.2526 41.1276 41.6276 42.7526 41.1726 44.8332C40.6125 47.3941 37.9716 48.9188 35.4737 48.1234C33.4444 47.4772 31.2246 48.072 29.7903 49.6463C28.0247 51.5841 24.9753 51.5841 23.2097 49.6463C21.7754 48.072 19.5556 47.4772 17.5263 48.1234C15.0284 48.9188 12.3875 47.3941 11.8274 44.8332C11.3724 42.7526 9.74738 41.1276 7.66684 40.6726C5.1059 40.1125 3.58117 37.4716 4.37659 34.9737C5.0228 32.9444 4.428 30.7246 2.85372 29.2903C0.915915 27.5247 0.915915 24.4753 2.85371 22.7097C4.428 21.2754 5.0228 19.0556 4.37659 17.0263C3.58117 14.5284 5.1059 11.8875 7.66684 11.3274C9.74738 10.8724 11.3724 9.24738 11.8274 7.16684C12.3875 4.6059 15.0284 3.08117 17.5263 3.87659C19.5556 4.5228 21.7754 3.928 23.2097 2.35372Z" fill="#F9FCFF" stroke="#E6E8F3"/>
</svg>
