<svg width="76" height="73" viewBox="0 0 76 73" fill="none" xmlns="http://www.w3.org/2000/svg">
<path d="M11.0166 21.3019C11.0166 21.3019 11.3682 21.0126 11.6117 21.3019C11.8552 21.5912 11.7637 22.0929 11.5659 22.5342C11.3682 22.9755 10.3574 23.8562 10.3574 23.8562L10.7456 21.6901L11.0166 21.3019Z" fill="#AE7461"/>
<path d="M1.48605 30.7029C2.02072 30.1536 -0.0538582 36.0917 0.00107312 40.8689C0.0541734 45.5582 1.20773 47.1348 3.25118 46.8564C5.29463 46.5781 11.5568 39.5762 11.5568 39.5762L15.3086 28.4068C15.3086 28.4068 12.9283 27.9729 10.9324 29.6281C8.93657 31.2834 5.54182 36.4707 5.54182 36.4707L5.57295 30.0621L1.48605 30.7029Z" fill="#AE7461"/>
<path d="M1.40186 30.2103C1.40186 30.2103 1.67102 27.5077 2.23132 26.1436C2.79162 24.7795 3.78405 22.6298 3.86644 22.4156C3.94884 22.2014 4.88084 20.2751 6.0051 20.3227C6.15239 20.1414 6.35249 20.0105 6.57759 19.9482C6.8027 19.8858 7.04163 19.8951 7.2612 19.9748C7.2612 19.9748 8.51913 19.5189 9.08126 20.2421C9.08126 20.2421 7.63657 20.189 7.63657 20.6962C7.64859 21.0215 7.77133 21.3328 7.98446 21.5788C7.98446 21.5788 7.74277 22.8367 7.98446 23.1041C8.22616 23.3714 10.59 23.4703 10.59 23.4703C10.6358 23.4813 10.2678 24.2027 9.59029 24.9717C8.18771 26.5666 7.16416 26.5446 7.16416 26.5446L6.39146 27.6817C6.39146 27.6817 5.99778 29.2069 6.04356 29.7306C6.07468 30.0748 5.89707 31.7026 5.53086 31.9736C4.84239 32.4827 1.40186 30.8585 1.40186 30.8585V30.2103Z" fill="#161B46"/>
<path d="M8.93286 20.2403C8.93286 20.2403 9.55175 20.1707 9.94909 20.4911C9.94909 20.4911 10.7438 20.3813 10.8902 20.9232C11.0367 21.4652 10.7071 23.4245 10.5991 23.549C10.4911 23.6735 9.80443 24.5249 9.22216 24.2667C9.22216 24.2667 8.72412 24.6732 8.27185 24.4151C8.27185 24.4151 7.8031 24.2887 7.77563 23.8657C7.77761 23.7735 7.80076 23.6829 7.8433 23.601C7.88585 23.519 7.94664 23.448 8.021 23.3933L8.45312 23.0418L7.80676 20.46C8.16219 20.3074 8.54613 20.2325 8.93286 20.2403Z" fill="#AE7461"/>
<path d="M8.93293 20.2401C8.90738 20.2431 8.88157 20.2431 8.85603 20.2401L8.63081 20.2602C8.3499 20.2817 8.07485 20.3517 7.81782 20.4671L7.83247 20.4378C7.9991 21.0842 8.22798 21.9722 8.49531 23.0141V23.0416L8.47334 23.058C8.35981 23.1514 8.24446 23.2412 8.12544 23.3419C8.00202 23.4255 7.90386 23.5414 7.84163 23.6769C7.81706 23.7467 7.80956 23.8214 7.81975 23.8946C7.82995 23.9679 7.85754 24.0377 7.90022 24.0981C7.99388 24.2239 8.12546 24.3163 8.27559 24.3618H8.28657C8.4087 24.4292 8.5495 24.4549 8.68757 24.435C8.83349 24.4117 8.97309 24.3587 9.09772 24.2794C9.12702 24.2592 9.15815 24.2391 9.18378 24.2189L9.20759 24.2006L9.23322 24.2116C9.48224 24.3215 9.76239 24.2116 9.97846 24.056C10.1945 23.8996 10.3885 23.7148 10.5552 23.5067L10.5699 23.4755L10.5845 23.4316C10.595 23.4016 10.6036 23.3711 10.6102 23.34C10.6285 23.2778 10.6413 23.2137 10.6541 23.1569C10.6816 23.0306 10.7036 22.9079 10.7255 22.7907C10.7676 22.5454 10.8006 22.3073 10.8281 22.0766C10.8555 21.8459 10.8738 21.6243 10.8793 21.4119C10.8971 21.2145 10.8734 21.0156 10.8098 20.8278C10.7674 20.7529 10.7089 20.6883 10.6387 20.6386C10.5684 20.5889 10.488 20.5554 10.4033 20.5404C10.2534 20.5048 10.0986 20.4949 9.9455 20.5111H9.93451H9.92536C9.71479 20.357 9.46436 20.2668 9.20393 20.2511C9.02082 20.2364 8.92561 20.2511 8.92561 20.2401C8.92561 20.2291 8.94941 20.2401 8.99702 20.2273C9.06653 20.2231 9.13624 20.2231 9.20576 20.2273C9.47569 20.2325 9.73784 20.3186 9.95832 20.4744H9.93818C10.0981 20.4541 10.2603 20.4609 10.4179 20.4946C10.5121 20.5112 10.6015 20.5481 10.6799 20.6028C10.7584 20.6575 10.8239 20.7287 10.872 20.8114C10.9436 21.0087 10.9723 21.2191 10.9562 21.4284C10.9562 21.6445 10.9343 21.8679 10.9105 22.1004C10.8867 22.333 10.8537 22.5728 10.8134 22.82C10.7914 22.9427 10.7695 23.069 10.7438 23.1862C10.7292 23.2485 10.7164 23.3126 10.6999 23.3693C10.6999 23.4023 10.6834 23.4334 10.6724 23.4664L10.6559 23.5158C10.6471 23.5355 10.6367 23.5545 10.6248 23.5726C10.4538 23.7873 10.2542 23.9777 10.0316 24.1384C9.91264 24.2195 9.78162 24.2813 9.64338 24.3215C9.4955 24.3649 9.33721 24.3565 9.19477 24.2977H9.24421C9.21336 24.3223 9.18094 24.345 9.14716 24.3654C9.01162 24.4521 8.85943 24.5095 8.70039 24.5339C8.5421 24.5567 8.38069 24.5271 8.2408 24.4496H8.25178C8.0797 24.3986 7.92915 24.2925 7.82332 24.1475C7.77202 24.0747 7.73921 23.9904 7.72773 23.9021C7.71624 23.8137 7.72643 23.7239 7.7574 23.6403C7.82562 23.4915 7.93406 23.3646 8.07051 23.2741L8.41841 22.9921L8.40376 23.0361L7.77388 20.4506V20.4287L7.79219 20.4195C8.0568 20.3074 8.3399 20.2453 8.62715 20.2364C8.72602 20.2364 8.8011 20.2364 8.85237 20.2364C8.87924 20.2332 8.90646 20.2344 8.93293 20.2401Z" fill="#6F4439"/>
<path d="M9.22241 24.2665C9.33434 24.1285 9.45677 23.9993 9.58862 23.8802C9.80835 23.644 10.1526 23.3144 10.2478 22.8273C10.2904 22.5984 10.3125 22.3662 10.3137 22.1333C10.3137 21.9155 10.3265 21.7195 10.3137 21.5584C10.3104 21.4303 10.2951 21.3028 10.2679 21.1775C10.2478 21.0878 10.2222 21.0457 10.2277 21.042C10.2331 21.0384 10.3577 21.2252 10.3815 21.5529C10.3961 21.7195 10.3961 21.9191 10.3961 22.1352C10.4001 22.374 10.3799 22.6127 10.3357 22.8475C10.286 23.0862 10.1813 23.31 10.0299 23.5011C9.90873 23.654 9.77522 23.7967 9.63074 23.9278C9.50714 24.055 9.37024 24.1685 9.22241 24.2665Z" fill="#6F4439"/>
<path d="M9.22204 20.6431C9.27917 20.6616 9.33163 20.6922 9.37585 20.7328C9.43009 20.7764 9.48147 20.8235 9.52966 20.8738C9.56075 20.9051 9.59009 20.9381 9.61755 20.9727C9.65148 21.0112 9.67983 21.0544 9.70178 21.1008C9.75752 21.337 9.77484 21.5806 9.75305 21.8223C9.73974 22.1141 9.71102 22.405 9.66699 22.6938C9.656 22.7707 9.64318 22.8458 9.62853 22.9209L9.60473 23.0326C9.59322 23.0707 9.57915 23.108 9.56262 23.1443C9.49533 23.2724 9.41161 23.3912 9.31359 23.4977C9.15344 23.6751 8.98088 23.8409 8.79724 23.9939C8.64343 24.1257 8.51343 24.2264 8.42004 24.2942C8.3756 24.3326 8.3256 24.3641 8.27173 24.3876C8.27173 24.3766 8.45483 24.2173 8.75329 23.9444C8.92747 23.7854 9.09252 23.6167 9.24768 23.4391C9.33791 23.3378 9.41539 23.2259 9.47839 23.1058C9.49304 23.0747 9.50036 23.0417 9.51318 23.0106L9.53515 22.9026L9.5736 22.6792C9.61938 22.3752 9.64867 22.0841 9.66515 21.8168C9.69074 21.586 9.68148 21.3527 9.63769 21.1246C9.59877 21.0469 9.54949 20.9749 9.49121 20.9104C9.44783 20.8576 9.40071 20.8081 9.35021 20.7621C9.30534 20.7248 9.26255 20.6851 9.22204 20.6431Z" fill="#6F4439"/>
<path d="M8.23153 20.5605C8.53661 20.7834 8.75165 21.1082 8.8376 21.4761C8.77535 22.0675 8.7076 23.276 8.34322 23.362C8.26706 23.3792 8.18805 23.3796 8.11175 23.363C8.03545 23.3464 7.96372 23.3132 7.90158 23.2659C7.83945 23.2186 7.78844 23.1583 7.75212 23.0892C7.7158 23.0201 7.69507 22.9438 7.69137 22.8658C7.69137 22.5875 7.92941 21.6079 7.92941 21.6079C7.92941 21.6079 7.14572 20.7693 7.79574 20.4141" fill="#AE7461"/>
<path d="M7.79592 20.4214C7.7739 20.4461 7.74865 20.4677 7.72085 20.4855C7.6502 20.5432 7.6001 20.6222 7.57802 20.7108C7.51577 20.9415 7.68239 21.282 7.95888 21.5878L7.9717 21.6043V21.6244C7.90761 21.8918 7.83986 22.1939 7.7886 22.5198C7.74519 22.6782 7.74079 22.8447 7.77578 23.0051C7.80354 23.083 7.85018 23.1529 7.91152 23.2085C7.97286 23.2641 8.047 23.3037 8.12734 23.3237C8.17551 23.3381 8.22631 23.3417 8.27603 23.3341C8.32576 23.3265 8.37316 23.3079 8.41481 23.2797C8.48598 23.2043 8.53864 23.1134 8.56862 23.0142C8.63145 22.8153 8.67679 22.6113 8.70412 22.4045C8.73525 22.2049 8.75539 22.0145 8.7737 21.835C8.78468 21.7471 8.79384 21.6611 8.80116 21.5768C8.80704 21.5386 8.81071 21.5001 8.81215 21.4615C8.80796 21.4252 8.79936 21.3895 8.78652 21.3553C8.70679 21.1311 8.58706 20.9233 8.43312 20.7419C8.37631 20.6768 8.31513 20.6156 8.25002 20.5588C8.25002 20.5588 8.27199 20.5588 8.31227 20.5881C8.36848 20.6238 8.42013 20.6662 8.46608 20.7144C8.63794 20.8908 8.77136 21.1009 8.85793 21.3315C8.87365 21.3708 8.88412 21.4121 8.88905 21.4542C8.89297 21.4968 8.89297 21.5397 8.88905 21.5823C8.88905 21.6647 8.87624 21.7526 8.86708 21.8405C8.85243 22.0236 8.83412 22.2067 8.80666 22.4136C8.78022 22.6272 8.73487 22.838 8.67116 23.0435C8.63511 23.159 8.57238 23.2644 8.48805 23.3511C8.43575 23.3886 8.37566 23.4139 8.31226 23.425C8.24886 23.436 8.18378 23.4327 8.12185 23.4152C8.02554 23.3917 7.93662 23.3446 7.86309 23.2781C7.78956 23.2116 7.73376 23.1278 7.70071 23.0344C7.67121 22.9447 7.66306 22.8494 7.6769 22.756C7.6769 22.6681 7.69887 22.5839 7.71535 22.5015C7.77578 22.1719 7.84902 21.8716 7.9186 21.6043L7.92775 21.6391C7.79604 21.4922 7.68849 21.3253 7.60915 21.1447C7.54192 21.0052 7.5251 20.8466 7.56155 20.6961C7.59013 20.6019 7.65026 20.5205 7.73183 20.4654C7.76296 20.4324 7.79409 20.4178 7.79592 20.4214Z" fill="#6F4439"/>
<path d="M5.25781 26.0464C5.55823 26.2004 5.87125 26.3284 6.19348 26.4291C6.52454 26.498 6.8608 26.5391 7.19872 26.5518C6.85802 26.6189 6.50657 26.6083 6.17053 26.5208C5.83449 26.4333 5.52251 26.2712 5.25781 26.0464Z" fill="#737690"/>
<path d="M6.32016 22.6479C6.23568 22.5576 6.16919 22.4519 6.12424 22.3367C5.99965 22.0677 5.91749 21.7811 5.88071 21.4871C5.84255 21.1927 5.85183 20.8941 5.90818 20.6027C5.92334 20.4804 5.96056 20.3619 6.01804 20.2529C5.95399 20.6574 5.93985 21.0682 5.97593 21.4761C6.04179 21.8794 6.15742 22.273 6.32016 22.6479Z" fill="#737690"/>
<path d="M6.13881 28.8391C6.06268 28.8106 5.98966 28.7744 5.92092 28.7311C5.83707 28.6865 5.75632 28.6363 5.67922 28.5809C5.57263 28.513 5.4705 28.4384 5.37343 28.3575L5.20132 28.2184C5.14455 28.1671 5.08779 28.1122 5.01821 28.0554C4.8937 27.9455 4.78018 27.81 4.652 27.6745C4.39351 27.3649 4.16598 27.0307 3.97268 26.6766C3.78414 26.3199 3.63201 25.9451 3.51858 25.5579C3.46915 25.3747 3.42337 25.2081 3.3959 25.0452C3.36508 24.8951 3.34246 24.7435 3.32816 24.5911C3.30801 24.4537 3.30984 24.3256 3.30252 24.2139C3.29597 24.1188 3.29597 24.0233 3.30252 23.9282C3.30086 23.8472 3.30761 23.7662 3.32266 23.6865C3.3428 23.6865 3.32266 24.0344 3.39407 24.5837C3.41421 24.7211 3.43252 24.8712 3.47098 25.0305C3.50943 25.1898 3.54971 25.3564 3.60098 25.5341C3.71696 25.9139 3.86902 26.2818 4.05508 26.6327C4.24508 26.9814 4.46697 27.3118 4.71792 27.6196C4.8406 27.7551 4.94863 27.8906 5.06948 28.0005L5.23794 28.1653L5.40273 28.3081C5.84035 28.6615 6.1498 28.8226 6.13881 28.8391Z" fill="#737690"/>
<path d="M5.53074 31.5432C5.45947 31.5383 5.3889 31.5261 5.32017 31.5066C5.23826 31.4907 5.15751 31.4692 5.07848 31.4425C4.98692 31.4132 4.87889 31.3839 4.76537 31.3363C4.49658 31.232 4.23793 31.1033 3.99267 30.9518C3.69332 30.7641 3.41306 30.5476 3.15588 30.3054C2.90268 30.0583 2.67396 29.7872 2.4729 29.4961C2.31051 29.2595 2.17074 29.0081 2.05542 28.7454C2.00875 28.6454 1.96839 28.5427 1.93457 28.4377C1.90139 28.3592 1.87386 28.2785 1.85217 28.196C1.82989 28.1282 1.81455 28.0583 1.8064 27.9873C1.82654 27.9873 1.90161 28.2766 2.10852 28.7197C2.232 28.9747 2.37526 29.2196 2.53698 29.4521C2.73923 29.7346 2.96593 29.9986 3.21447 30.2413C3.46654 30.4794 3.7399 30.694 4.03112 30.8822C4.27062 31.0346 4.52234 31.1669 4.78368 31.2777C5.23778 31.4626 5.53624 31.5249 5.53074 31.5432Z" fill="#737690"/>
<path d="M5.30005 42.2951C5.30554 42.215 5.32029 42.1357 5.34399 42.0589C5.38061 41.9088 5.42822 41.6927 5.48132 41.4181C5.61852 40.7135 5.69752 39.9988 5.71753 39.2812C5.73594 38.5631 5.69491 37.8447 5.59485 37.1334C5.5564 36.8606 5.5216 36.639 5.49231 36.4871C5.47347 36.4091 5.46303 36.3293 5.46118 36.249C5.49072 36.3237 5.5134 36.4009 5.52893 36.4797C5.56921 36.6299 5.61499 36.8459 5.6626 37.1224C5.78181 37.8362 5.8327 38.5597 5.81457 39.2831C5.7948 40.0065 5.70528 40.7264 5.54724 41.4327C5.48498 41.7037 5.42822 41.9198 5.38061 42.0681C5.36134 42.1463 5.33435 42.2223 5.30005 42.2951Z" fill="#6F4439"/>
<path d="M7.43164 72.9999C7.43164 72.9999 8.6914 63.8447 11.1816 59.1316L12.3169 54.9L31.6143 52.8364L33.405 56.2898C33.405 56.2898 37.3546 61.1091 37.3546 72.9999H22.7612L21.9811 70.2533L20.736 72.9999H7.43164Z" fill="#161B46"/>
<path d="M21.9939 65.9555C21.9636 65.9568 21.9332 65.9531 21.9041 65.9446L21.646 65.8933C21.51 65.8667 21.3756 65.8331 21.2431 65.7926C21.0893 65.7468 20.9099 65.7029 20.7195 65.6278L20.4192 65.5197C20.3148 65.4813 20.2104 65.43 20.0987 65.3843C19.8772 65.2945 19.6501 65.1718 19.4103 65.0492C18.378 64.4903 17.461 63.7411 16.7076 62.8409C16.5392 62.6304 16.3762 62.4326 16.2425 62.233C16.1748 62.1341 16.1052 62.0408 16.0466 61.9474L15.88 61.6746C15.7701 61.5024 15.6969 61.3358 15.6145 61.193C15.5459 61.0749 15.4847 60.9525 15.4314 60.8268C15.3911 60.7297 15.3563 60.6437 15.3289 60.5851C15.3158 60.5576 15.306 60.5287 15.2996 60.499C15.2996 60.499 15.3197 60.5247 15.3472 60.5778C15.3746 60.6309 15.4167 60.7187 15.4644 60.8121C15.512 60.9055 15.5742 61.0373 15.6475 61.1783C15.7207 61.3193 15.8086 61.4823 15.9221 61.6489L16.0924 61.9181C16.1528 62.0096 16.2242 62.1012 16.292 62.1982C16.4275 62.3942 16.5923 62.5882 16.7607 62.7952C17.1399 63.2337 17.5545 63.6403 18.0004 64.011C18.4525 64.3733 18.9332 64.6984 19.4377 64.9833C19.6758 65.1078 19.8973 65.2304 20.117 65.322C20.2251 65.3714 20.3276 65.4227 20.432 65.463L20.7268 65.5765C20.9099 65.6534 21.093 65.7029 21.245 65.7596C21.3969 65.8164 21.5306 65.8475 21.6405 65.875L21.8932 65.9427C21.9271 65.9426 21.961 65.9469 21.9939 65.9555Z" fill="#737690"/>
<path d="M31.6139 52.8365L30.3432 49.3447L32.5771 29.3863L27.1718 27.9893L19.6261 27.7476L14.6493 28.7931C14.6493 28.7931 11.2417 35.0919 11.4212 38.9993C11.6006 42.9068 12.4447 45.018 12.4447 45.018L13.0709 49.6798L12.593 55.7113C12.593 55.7113 14.5779 60.32 20.8144 60.1772C27.051 60.0344 31.6139 52.8365 31.6139 52.8365Z" fill="#AE7461"/>
<path d="M12.9355 49.8022L12.3001 46.1108C12.3001 46.1108 10.8499 42.3974 10.698 40.5078C10.546 38.6181 12.7432 34.502 12.7432 34.502C12.7432 34.502 13.8107 40.5444 18.9468 40.0042C24.0829 39.4641 27.3294 34.502 27.3294 34.502L30.9383 44.1259L30.3433 49.5495L12.9355 49.8022Z" fill="#454E90"/>
<path d="M30.7829 47.239C30.7829 47.2646 26.7363 47.2866 21.7467 47.2866C16.7571 47.2866 12.7104 47.2646 12.7104 47.239C12.7104 47.2134 16.7552 47.1914 21.7467 47.1914C26.7381 47.1914 30.7829 47.2134 30.7829 47.239Z" fill="#161B46"/>
<g opacity="0.3">
<path opacity="0.3" d="M20.1865 39.7515C20.1865 39.7515 21.0306 45.8672 22.4405 48.4453C23.8504 51.0234 25.0187 51.8199 26.4908 51.1442C27.963 50.4686 30.4367 48.7034 30.4367 48.7034L30.7077 46.3066L20.1865 39.7515Z" fill="#2D3259"/>
</g>
<path d="M27.324 34.6907L28.5544 29.1848L28.7375 28.3938C28.7705 28.2509 28.5544 28.1887 28.5178 28.3333L27.2873 33.8393L27.1042 34.6303C27.0713 34.7731 27.2873 34.8354 27.324 34.6907Z" fill="#161B46"/>
<path d="M12.637 31.146C12.6436 31.3098 12.6374 31.4739 12.6187 31.6367C12.6022 31.937 12.5894 32.3527 12.6096 32.8122C12.6297 33.2718 12.6773 33.6857 12.7194 33.9841C12.752 34.1441 12.7722 34.3063 12.7798 34.4693C12.7197 34.3166 12.6773 34.1575 12.6535 33.9951C12.5774 33.6061 12.5309 33.2119 12.5143 32.8159C12.4972 32.4207 12.5094 32.0247 12.551 31.6312C12.561 31.4667 12.5899 31.3039 12.637 31.146Z" fill="#6F4439"/>
<path d="M12.8239 35.4159L13.7083 28.6264C13.7284 28.4817 13.4995 28.4835 13.4794 28.6264L12.595 35.4159C12.5749 35.5624 12.8037 35.5605 12.8239 35.4159Z" fill="#161B46"/>
<path d="M21.7245 45.7745C21.6577 45.7782 21.5908 45.7745 21.5249 45.7635C21.3442 45.745 21.165 45.7144 20.9884 45.672C20.7249 45.6111 20.4661 45.5316 20.2139 45.434C19.9059 45.3109 19.6078 45.1646 19.3221 44.9963C19.0394 44.8235 18.7707 44.6288 18.5183 44.4141C18.3142 44.2366 18.1227 44.0451 17.9452 43.8409C17.8262 43.7036 17.7155 43.5593 17.6138 43.4088C17.5726 43.3559 17.5382 43.2981 17.5112 43.2367C17.5259 43.2257 17.6943 43.4601 17.9965 43.786C18.1777 43.981 18.3709 44.1645 18.5751 44.3353C18.8268 44.5431 19.093 44.7328 19.3716 44.9029C19.6525 45.0695 19.945 45.2158 20.2468 45.3406C20.4933 45.4412 20.7459 45.5262 21.003 45.5951C21.4443 45.7159 21.7281 45.7489 21.7245 45.7745Z" fill="#161B46"/>
<path d="M17.7533 28C17.7128 28.0899 17.684 28.1845 17.6674 28.2816C17.6437 28.3761 17.6145 28.4924 17.5834 28.6323L17.5013 29.1156C17.3555 30.1504 17.2805 31.1939 17.2767 32.2388C17.2584 33.5651 17.3077 35.1458 17.4593 36.91C17.6199 38.8288 17.8955 40.7363 18.2846 42.6224L18.3504 42.9403L18.533 42.6751L19.1265 41.8429C20.3956 40.0805 21.6245 38.4108 22.669 36.841C23.7135 35.2712 24.6065 33.8268 25.2876 32.5695C25.8387 31.5826 26.3007 30.549 26.6681 29.4808C26.7338 29.2991 26.7813 29.1174 26.8233 28.9739C26.8653 28.8303 26.8982 28.6995 26.9201 28.5978C26.9507 28.4949 26.9691 28.3888 26.9749 28.2816C26.9493 28.2816 26.8416 28.7031 26.564 29.4444C26.1554 30.4879 25.667 31.4986 25.1031 32.4677C24.4056 33.7014 23.4871 35.1277 22.4426 36.6902C21.3981 38.2527 20.1582 39.9079 18.8854 41.6721L18.292 42.5061L18.5476 42.5588C18.1595 40.6833 17.8766 38.7878 17.7003 36.881C17.5323 35.1313 17.4629 33.5542 17.4556 32.2352C17.442 31.1966 17.4871 30.1582 17.5907 29.1247L17.6473 28.6395C17.6693 28.5015 17.6893 28.3852 17.704 28.2889C17.7323 28.195 17.7489 28.098 17.7533 28Z" fill="#737690"/>
<path d="M19.9831 44.0432C20.0287 43.7935 20.0008 43.5361 19.9027 43.3019C19.7767 42.9767 19.4791 42.6169 18.787 42.5751C18.3662 42.5416 17.9429 42.566 17.5288 42.6478C17.4256 42.6716 17.3283 42.7161 17.2429 42.7786C17.1575 42.841 17.0858 42.9202 17.0321 43.0112L16.0041 44.7209L16.1301 45.3259L17.3316 45.6093L18.0913 44.7009L18.8838 44.8353C18.8838 44.8353 19.7676 45.017 19.9794 44.0432H19.9831Z" fill="#ABB4EC"/>
<path d="M19.3801 42.7241C19.3801 42.7241 19.3655 42.7132 19.3363 42.7005C19.2935 42.6818 19.2488 42.6678 19.203 42.6587C19.0314 42.6188 18.8514 42.6374 18.6917 42.7114C18.4554 42.8234 18.2628 43.0099 18.1439 43.2419L17.691 44.0396L17.1432 45.0334L17.1907 45.0134C16.8364 44.9189 16.5406 44.8426 16.3324 44.7917C16.2242 44.7583 16.1129 44.7358 16.0001 44.7245C16.102 44.7728 16.2084 44.8112 16.3178 44.839C16.5224 44.9026 16.8163 44.9916 17.1688 45.0934H17.1998L17.2163 45.0643C17.3824 44.7699 17.5815 44.4338 17.7769 44.0777C18.111 43.5326 18.3137 42.9294 18.7173 42.7623C18.8646 42.6889 19.0309 42.6623 19.1939 42.686C19.2551 42.7023 19.3173 42.7151 19.3801 42.7241Z" fill="#0E1339"/>
<path d="M17.3004 45.618C17.3259 45.618 17.3204 45.4817 17.2876 45.3254C17.2548 45.1692 17.2093 45.0475 17.1838 45.0529C17.1582 45.0584 17.1637 45.1892 17.1947 45.3454C17.2257 45.5017 17.2749 45.6234 17.3004 45.618Z" fill="#0E1339"/>
<path d="M19.0991 44.8423C19.0991 44.8278 19.0188 44.8241 18.9001 44.7951C18.7475 44.7559 18.6121 44.6677 18.5148 44.5443C18.466 44.4812 18.4277 44.4107 18.4016 44.3354L18.3724 44.25L18.3231 44.319C18.2257 44.4331 18.1474 44.5619 18.0911 44.7006C18.1076 44.7133 18.2318 44.577 18.3943 44.3717L18.3158 44.3572C18.3407 44.4462 18.3829 44.5295 18.4399 44.6025C18.5492 44.7436 18.7099 44.8363 18.8873 44.8605C19.0206 44.875 19.0991 44.8532 19.0991 44.8423Z" fill="#0E1339"/>
<path d="M18.5839 43.7689C18.5969 43.7269 18.6061 43.6837 18.6113 43.6399C18.6342 43.5255 18.69 43.4201 18.772 43.3365C18.829 43.2765 18.9032 43.2353 18.9844 43.2184C19.0657 43.2016 19.1502 43.2098 19.2267 43.242C19.3188 43.2874 19.3963 43.3576 19.4502 43.4447C19.5041 43.5317 19.5323 43.6321 19.5316 43.7344C19.5385 43.8364 19.5171 43.9382 19.4698 44.0289C19.4224 44.1196 19.351 44.1956 19.2632 44.2486C19.1892 44.2859 19.1056 44.3 19.0234 44.289C18.9413 44.2779 18.8644 44.2423 18.803 44.1868C18.7161 44.1095 18.6528 44.0094 18.6204 43.8979C18.6123 43.8539 18.6 43.8107 18.5839 43.7689C18.572 43.8136 18.572 43.8605 18.5839 43.9052C18.6085 44.0323 18.6723 44.1485 18.7665 44.2377C18.8323 44.3011 18.9145 44.3451 19.0039 44.3649C19.1083 44.3866 19.2171 44.3725 19.3125 44.3249C19.4147 44.2635 19.4985 44.1761 19.5552 44.0716C19.6119 43.967 19.6395 43.8493 19.635 43.7306C19.6306 43.612 19.5942 43.4966 19.5298 43.3966C19.4654 43.2967 19.3752 43.2157 19.2687 43.1621C19.1694 43.1217 19.0594 43.116 18.9564 43.1457C18.8696 43.1731 18.7916 43.2226 18.73 43.2893C18.6448 43.3849 18.593 43.5054 18.5821 43.6327C18.5706 43.6775 18.5712 43.7245 18.5839 43.7689Z" fill="#0E1339"/>
<path d="M17.1691 43.1419C17.1691 43.1419 17.1691 43.1328 17.1453 43.1328C17.1329 43.1343 17.121 43.139 17.1107 43.1463C17.1005 43.1536 17.0923 43.1633 17.0869 43.1746L17.034 43.26L17.0029 43.3145C16.993 43.3272 16.9862 43.342 16.983 43.3578C16.9798 43.3735 16.9804 43.3898 16.9846 43.4053C16.991 43.4243 17.0031 43.4408 17.0193 43.4526C17.0354 43.4611 17.0526 43.4673 17.0705 43.4708L17.1526 43.4871L17.3352 43.5216L17.7571 43.5943C17.7741 43.5953 17.7912 43.5922 17.8067 43.5852C17.8223 43.5783 17.836 43.5677 17.8465 43.5543C17.8589 43.5361 17.8693 43.5166 17.8776 43.4962L17.9214 43.3981L17.9415 43.349C17.9555 43.3248 17.9594 43.2961 17.9525 43.2691C17.9482 43.2548 17.9409 43.2416 17.9312 43.2303C17.9214 43.2191 17.9094 43.21 17.8958 43.2037C17.8765 43.1966 17.8562 43.1923 17.8356 43.191L17.4905 43.1528C17.3853 43.1316 17.2773 43.1279 17.1709 43.1419C17.2703 43.1817 17.3748 43.2074 17.4813 43.2182L17.8228 43.2782C17.8648 43.2782 17.8593 43.2782 17.8648 43.2927C17.8573 43.316 17.8475 43.3385 17.8356 43.3599L17.7918 43.4562C17.7849 43.4692 17.7788 43.4825 17.7735 43.4962H17.7644L17.3499 43.4308L17.1673 43.4053L17.0851 43.3944C17.054 43.3944 17.0577 43.3944 17.0486 43.3799C17.0394 43.3654 17.0723 43.3145 17.0833 43.2818L17.1216 43.1891C17.1326 43.1437 17.1691 43.1492 17.1691 43.1419Z" fill="#0E1339"/>
<path d="M16.2759 44.5864C16.3983 44.6653 16.5368 44.7158 16.6813 44.7341C16.8215 44.7817 16.9699 44.8009 17.1177 44.7907C17.1286 44.767 16.9479 44.7013 16.7123 44.6448C16.5727 44.5943 16.4239 44.5744 16.2759 44.5864Z" fill="#0E1339"/>
<path d="M24.7934 1.82905C24.9844 1.59873 25.2262 1.41574 25.4997 1.29439C25.7732 1.17305 26.071 1.11664 26.37 1.12959C26.6117 1.14058 26.879 1.19368 27.0768 1.05269C27.2028 0.933426 27.3074 0.793464 27.3862 0.638873C27.4676 0.534957 27.569 0.448516 27.6846 0.384719C27.8001 0.320922 27.9273 0.28108 28.0586 0.267576C28.1899 0.254072 28.3225 0.267183 28.4486 0.306125C28.5747 0.345068 28.6916 0.409041 28.7925 0.49422C28.8763 0.595317 28.9774 0.680851 29.0909 0.746904C29.578 0.957474 30.0284 0.040121 30.5118 0.254353C30.3065 0.349927 30.1357 0.50661 30.0229 0.702959C29.9687 0.802197 29.9494 0.916744 29.9679 1.02828C29.9865 1.13982 30.042 1.2419 30.1255 1.31819C30.5924 1.66975 31.2479 0.756059 31.7587 1.03804C32.0352 1.19002 32.1048 1.63313 32.4161 1.6844C32.5403 1.68815 32.6643 1.67018 32.7823 1.6313C32.9862 1.59953 33.1946 1.64685 33.3647 1.76359C33.5349 1.88033 33.6541 2.05767 33.6978 2.25935C33.7582 2.60358 33.6154 3.0412 33.8937 3.25361C34.0659 3.38544 34.3094 3.34333 34.52 3.29389C34.54 3.6145 34.4854 3.93538 34.3607 4.23138C34.6507 4.38392 34.87 4.64315 34.9725 4.95438C35.075 5.2656 35.0526 5.60447 34.91 5.89947C35.2145 6.07592 35.4814 6.31046 35.6955 6.58977C35.8 6.73092 35.863 6.89851 35.8772 7.07357C35.8914 7.24863 35.8564 7.42418 35.7761 7.58037C35.7283 7.64402 35.6889 7.71356 35.6589 7.78727C35.6411 7.87216 35.6475 7.96032 35.6772 8.04179C35.7687 8.36222 35.9354 8.66618 35.95 8.99943C35.9647 9.33268 35.7468 9.71353 35.4135 9.70987C35.3348 9.70987 35.2487 9.68973 35.1865 9.73734C35.1654 9.75783 35.1485 9.78229 35.1369 9.80932C35.1253 9.83634 35.1191 9.86539 35.1187 9.89481C35.115 10.1342 35.149 10.3727 35.2194 10.6016C35.2913 10.8326 35.2716 11.0823 35.1645 11.2992C35.04 11.5025 34.7195 11.594 34.5566 11.4201C34.6793 11.7863 34.8001 12.1525 34.9228 12.5059C34.996 12.7219 35.0601 12.9838 34.9136 13.1559C34.7195 13.3829 34.3295 13.2456 34.1519 13.0058C33.9743 12.7659 33.9066 12.4564 33.7235 12.2239C33.6392 12.1361 33.5644 12.0397 33.5001 11.9364C33.458 11.8504 33.4378 11.7442 33.3591 11.6892C33.1998 11.5775 32.9929 11.8028 33.0222 11.9932C33.0863 12.176 33.2005 12.3372 33.3518 12.4583C33.4854 12.5993 33.5989 12.8043 33.5129 12.9765C33.4708 13.0607 33.3902 13.1193 33.3499 13.2035C33.2144 13.4965 33.6484 13.74 33.7161 14.0549C33.7692 14.2875 33.6136 14.5127 33.458 14.6921C33.2748 14.9137 32.883 15.1096 32.7255 14.8588C32.6919 14.764 32.6638 14.6674 32.6413 14.5695C32.5792 14.4679 32.4938 14.3826 32.3923 14.3204C32.159 14.1383 31.984 13.892 31.8887 13.6118C32.1561 13.8956 32.4381 14.2765 32.2971 14.6372C32.2189 14.7803 32.1202 14.911 32.0041 15.0254C31.799 15.2726 31.6837 15.5747 31.4841 15.8311C31.2845 16.0874 30.9348 16.265 30.6455 16.1313C30.7059 16.2821 30.7136 16.4488 30.6673 16.6045C30.621 16.7601 30.5233 16.8955 30.3903 16.9887C30.2573 17.0818 30.0966 17.1272 29.9345 17.1175C29.7724 17.1078 29.6184 17.0435 29.4974 16.9352C29.4404 16.8673 29.3691 16.8129 29.2887 16.7759C29.1946 16.7585 29.0975 16.768 29.0085 16.8033C28.7306 16.8722 28.4391 16.8631 28.166 16.7768C27.893 16.6905 27.6491 16.5305 27.4613 16.3145L27.7378 16.1918C27.172 16.1606 26.5824 16.124 26.0898 15.8384C25.5973 15.5527 25.2512 14.943 25.4545 14.4138C25.5423 14.1849 25.7273 13.9433 25.6192 13.7235C25.5708 13.654 25.5082 13.5954 25.4357 13.5516C25.3631 13.5078 25.2822 13.4796 25.1981 13.469L23.1492 12.9197C22.8159 12.83 22.4662 12.7366 22.2336 12.4802C22.0011 12.2239 21.9443 11.7753 22.2153 11.5647C22.0371 11.2657 21.7773 11.0237 21.4664 10.8671C21.1204 10.6931 20.734 10.6327 20.3678 10.4734C20.0016 10.3141 19.6775 10.0065 19.6738 9.61832C19.6702 9.23014 20.1792 8.8859 20.4667 9.1514C20.3696 8.57279 19.3296 8.61491 19.1978 8.05278C19.0897 7.58952 19.672 7.30022 19.954 6.91753C19.8789 6.75823 19.705 6.66667 19.6244 6.51104C19.4559 6.18328 19.7819 5.8189 20.1005 5.6358C20.4191 5.45269 20.8128 5.26959 20.8659 4.90338C20.919 4.53717 20.5747 4.13983 20.745 3.80475C20.795 3.71231 20.878 3.64212 20.9774 3.60818C21.0769 3.57424 21.1854 3.57905 21.2815 3.62165C21.4976 2.92951 22.7976 3.33966 23.1125 2.69147C23.1409 2.64083 23.1518 2.5823 23.1437 2.52485C23.1303 2.47681 23.1044 2.43319 23.0686 2.39851C22.8885 2.24765 22.6912 2.11858 22.4808 2.01399C22.2849 1.88398 22.1146 1.64778 22.1787 1.42988C22.2428 1.21199 22.6621 1.18086 22.6749 1.41524C22.7332 1.36254 22.8028 1.32381 22.8783 1.30196C22.9538 1.28011 23.0333 1.27573 23.1107 1.28913C23.1882 1.30254 23.2615 1.33339 23.3253 1.37935C23.3891 1.4253 23.4415 1.48516 23.4788 1.5544C23.5626 1.45746 23.6776 1.39287 23.804 1.3718C23.9304 1.35074 24.0602 1.37452 24.1709 1.43904C24.3934 1.57007 24.5817 1.75206 24.7202 1.97004" fill="#161B46"/>
<path d="M28.5306 9.00494C28.2285 8.06378 27.443 7.357 26.6007 6.83698C26.2603 6.59768 25.8658 6.44668 25.4526 6.39753C25.2451 6.37743 25.0362 6.41879 24.8519 6.51645C24.6676 6.61412 24.5162 6.76378 24.4163 6.94684L24.5408 7.62982C24.5627 8.72845 25.4966 9.56524 26.0056 10.5467C26.2235 10.9733 26.4194 11.4915 26.8754 11.6453C27.1211 11.7096 27.3819 11.6809 27.6078 11.5647C28.4995 11.1381 28.8346 9.9461 28.5306 9.00494Z" fill="#454E90"/>
<path d="M29.1349 14.0496C29.3891 13.5982 29.4767 13.0719 29.3823 12.5625C29.2879 12.0531 29.0176 11.5931 28.6186 11.2628C28.9628 10.7134 28.7303 9.95173 28.2652 9.49946C27.8001 9.0472 27.1666 8.83113 26.5477 8.62606C26.0588 7.18869 24.2845 6.33908 22.8563 6.86093C21.9646 5.82456 20.3166 5.83371 19.055 6.36288C18.7568 6.51413 18.4387 6.62262 18.1102 6.68515C17.8659 6.69453 17.6213 6.68841 17.3778 6.66684C16.0302 6.63937 14.8143 7.72335 14.4481 9.0179C14.4026 9.22901 14.33 9.43334 14.2321 9.62581C14.0856 9.86751 13.8384 10.0268 13.6351 10.2246C13.4169 10.4395 13.2475 10.6989 13.1385 10.9852C13.0295 11.2715 12.9835 11.5778 13.0034 11.8835C13.0401 12.4017 13.2653 12.9308 13.1023 13.4234C13.0199 13.6706 12.846 13.883 12.7892 14.1357C12.6244 14.8681 13.4905 15.5071 13.4301 16.2597C13.4173 16.4117 13.366 16.56 13.3403 16.712C13.2902 17.0257 13.3553 17.3469 13.5235 17.6165C13.6535 17.8234 13.8457 18.0028 13.8897 18.2409C13.8975 18.4253 13.8815 18.6099 13.8421 18.7902C13.8036 19.2388 14.9407 20.8245 15.349 21.0204L26.7015 19.8302C27.1194 19.6843 27.4815 19.4121 27.7377 19.0512C27.9939 18.6903 28.1316 18.2587 28.1315 17.8161C28.1106 17.6706 28.1309 17.5221 28.1901 17.3876C28.2674 17.2894 28.3648 17.2088 28.4758 17.1514C29.1624 16.6753 29.1349 15.6628 28.9647 14.8479C28.9337 14.7347 28.9226 14.617 28.9317 14.5C28.9696 14.3381 29.0386 14.1852 29.1349 14.0496Z" fill="#161B46"/>
<path d="M25.8866 14.463C25.6925 12.4488 24.1709 10.2918 22.067 9.53927C20.7395 9.0632 19.7599 9.17307 19.0916 9.17307C18.1543 9.18997 17.2444 9.49138 16.4823 10.0373C15.8726 10.2552 13.8237 12.6136 13.9628 14.9006C14.1185 17.4439 14.4096 20.5402 14.9443 22.3859C16.0172 26.0938 18.9726 26.2146 18.9726 26.2146L19.1099 28.2013L18.9469 34.0771L26.088 29.5508L27.1244 28.7854L25.8866 14.463Z" fill="#AE7461"/>
<path d="M20.247 21.0878C20.2068 20.9102 20.1033 20.7533 19.9559 20.6465C19.8214 20.5461 19.6576 20.4927 19.4898 20.4947C19.322 20.4967 19.1596 20.5539 19.0275 20.6575C18.7602 20.8699 18.7474 21.2068 18.8261 21.573C18.9982 21.7781 19.1301 21.985 19.3974 21.9886C19.4389 21.9914 19.4805 21.9914 19.5219 21.9886C19.7313 21.9729 19.9272 21.8795 20.0712 21.7268C20.1477 21.641 20.2034 21.5387 20.2339 21.4279C20.2644 21.317 20.2689 21.2006 20.247 21.0878Z" fill="#6F4439"/>
<path d="M15.9514 17.772C15.9661 17.8986 16.0297 18.0143 16.1285 18.0947C16.2274 18.1751 16.3537 18.2137 16.4806 18.2023C16.543 18.1998 16.6042 18.1847 16.6607 18.158C16.7171 18.1313 16.7676 18.0935 16.8091 18.0468C16.8507 18.0002 16.8824 17.9457 16.9024 17.8865C16.9224 17.8273 16.9302 17.7647 16.9255 17.7025C16.9112 17.5759 16.8481 17.46 16.7496 17.3793C16.6511 17.2986 16.525 17.2595 16.3982 17.2703C16.3356 17.2731 16.2742 17.2884 16.2177 17.3153C16.1611 17.3422 16.1105 17.3801 16.0689 17.4269C16.0272 17.4736 15.9954 17.5283 15.9752 17.5876C15.955 17.6468 15.9469 17.7096 15.9514 17.772Z" fill="#161B46"/>
<path d="M15.0119 16.2137C15.0797 16.2686 15.4129 15.95 15.9275 15.8878C16.442 15.8255 16.865 16.0361 16.9126 15.9665C16.9382 15.9336 16.8613 15.8274 16.68 15.7267C16.4343 15.598 16.1547 15.5487 15.8799 15.5857C15.6056 15.6168 15.3487 15.7356 15.1474 15.9244C15.0193 16.0672 14.979 16.1881 15.0119 16.2137Z" fill="#161B46"/>
<path d="M18.5824 19.9562C18.5824 19.925 18.2492 19.9104 17.7145 19.9085C17.579 19.9085 17.449 19.9085 17.4161 19.8115C17.3874 19.6757 17.4015 19.5343 17.4564 19.4068C17.5406 19.0687 17.6297 18.7135 17.7237 18.3412C18.0899 16.8269 18.3389 15.5946 18.273 15.5745C18.2071 15.5543 17.8628 16.7756 17.4966 18.2899C17.4087 18.6561 17.3264 19.0223 17.2458 19.3592C17.1834 19.5307 17.1834 19.7187 17.2458 19.8902C17.2712 19.9348 17.3062 19.973 17.3484 20.0022C17.3905 20.0313 17.4387 20.0506 17.4893 20.0587C17.566 20.0677 17.6434 20.0677 17.72 20.0587C18.2547 20.0239 18.5843 19.9855 18.5824 19.9562Z" fill="#161B46"/>
<path d="M18.9763 26.1816C20.7671 25.9875 22.469 25.3004 23.8927 24.1968C23.8927 24.1968 22.8764 27.0312 19.0441 27.1503L18.9763 26.1816Z" fill="#6F4439"/>
<path d="M14.9881 14.4359C15.0613 14.5732 15.4715 14.5329 15.9347 14.619C16.398 14.705 16.7715 14.8772 16.8887 14.7728C16.94 14.7215 16.9033 14.5897 16.755 14.445C16.5497 14.263 16.2984 14.1409 16.0284 14.0922C15.7584 14.0434 15.4802 14.0698 15.2243 14.1685C15.0357 14.2601 14.9569 14.37 14.9881 14.4359Z" fill="#161B46"/>
<path d="M21.5691 17.3415C21.581 17.4683 21.5432 17.5948 21.4636 17.6942C21.3839 17.7937 21.2688 17.8582 21.1424 17.8743C21.0809 17.8847 21.0179 17.8827 20.9571 17.8683C20.8964 17.8539 20.8392 17.8275 20.7888 17.7906C20.7385 17.7538 20.696 17.7072 20.664 17.6536C20.6319 17.6001 20.6109 17.5406 20.6023 17.4788C20.5903 17.352 20.6281 17.2255 20.7078 17.1261C20.7874 17.0266 20.9025 16.962 21.0289 16.946C21.0904 16.9356 21.1534 16.9376 21.2142 16.952C21.2749 16.9664 21.3322 16.9928 21.3825 17.0296C21.4329 17.0665 21.4753 17.1131 21.5074 17.1667C21.5394 17.2202 21.5604 17.2797 21.5691 17.3415Z" fill="#161B46"/>
<path d="M22.1768 15.5271C22.1219 15.5949 21.7301 15.355 21.2045 15.4008C20.679 15.4465 20.3202 15.7432 20.2579 15.6846C20.2268 15.659 20.278 15.5381 20.441 15.4026C20.6534 15.2251 20.9158 15.1182 21.1917 15.0968C21.4652 15.0725 21.7393 15.1367 21.9736 15.2799C22.1457 15.3788 22.2098 15.496 22.1768 15.5271Z" fill="#161B46"/>
<path d="M21.6989 13.3645C21.6367 13.511 21.2137 13.5165 20.7468 13.6593C20.2799 13.8021 19.9118 14.0108 19.7837 13.9211C19.7251 13.8772 19.7507 13.738 19.888 13.5805C20.0797 13.3712 20.3266 13.2201 20.6003 13.1447C20.8706 13.0618 21.1589 13.0574 21.4316 13.1319C21.6275 13.1997 21.7246 13.2986 21.6989 13.3645Z" fill="#161B46"/>
<path d="M25.7235 18.0978C25.6888 17.8158 25.9323 17.1109 26.2051 17.0322C26.9375 16.8234 28.2797 16.7172 28.5287 18.6014C28.8674 21.1795 26.2088 20.9817 26.1941 20.9158C26.1795 20.8499 25.8389 19.0701 25.7235 18.0978Z" fill="#AE7461"/>
<path d="M26.782 19.8796C26.793 19.8705 26.8314 19.9053 26.912 19.9309C27.0249 19.9624 27.1455 19.9493 27.2489 19.8943C27.5071 19.7569 27.6792 19.2955 27.6316 18.8286C27.6096 18.6066 27.5377 18.3925 27.421 18.2024C27.3864 18.125 27.3335 18.0572 27.2668 18.0049C27.2002 17.9526 27.1217 17.9173 27.0384 17.9021C26.985 17.8952 26.9309 17.9072 26.8854 17.9359C26.84 17.9647 26.806 18.0084 26.7893 18.0596C26.7637 18.1365 26.7893 18.1859 26.7747 18.1914C26.76 18.1969 26.7124 18.1566 26.7198 18.0468C26.7252 17.9811 26.7537 17.9194 26.8003 17.8728C26.8318 17.8414 26.8693 17.8165 26.9104 17.7995C26.9516 17.7825 26.9957 17.7738 27.0402 17.7739C27.1489 17.7811 27.2539 17.816 27.3453 17.8753C27.4366 17.9346 27.5113 18.0163 27.562 18.1127C27.7004 18.3216 27.7859 18.561 27.8111 18.8103C27.8642 19.3321 27.6609 19.8522 27.3039 20.0096C27.2371 20.039 27.1645 20.0529 27.0916 20.0504C27.0187 20.0479 26.9473 20.0289 26.8827 19.995C26.7948 19.9419 26.7747 19.887 26.782 19.8796Z" fill="#6F4439"/>
<path d="M13.3878 14.9756C13.8694 14.5855 14.1459 14.1003 14.0378 13.4906C14.404 13.551 14.6915 13.0621 14.8563 12.738C15.0211 12.4139 15.25 12.2326 15.1896 11.8738C15.1703 11.8043 15.1703 11.7308 15.1896 11.6614C15.2298 11.5552 15.347 11.5076 15.4496 11.4618C15.7136 11.3386 15.9426 11.1512 16.1156 10.9167C16.2887 10.6823 16.4002 10.4083 16.4402 10.1196C17.0262 10.2923 17.6459 10.3168 18.2438 10.191C18.4024 10.3688 18.6036 10.5035 18.8284 10.5824C19.0532 10.6614 19.2944 10.6821 19.5293 10.6426C19.7643 10.6031 19.9855 10.5047 20.1721 10.3566C20.3588 10.2084 20.5048 10.0154 20.5966 9.79552C20.7035 9.94167 20.8406 10.0631 20.9986 10.1516C21.1565 10.24 21.3317 10.2935 21.5122 10.3082C21.8727 10.336 22.2354 10.3113 22.5888 10.235C22.5662 10.593 22.6733 10.9472 22.8906 11.2327C23.1078 11.5182 23.4206 11.7159 23.7717 11.7895C23.82 11.7902 23.8676 11.8004 23.9119 11.8196C23.9562 11.8388 23.9963 11.8665 24.0299 11.9012C24.0493 11.9476 24.0593 11.9974 24.0593 12.0477C24.0593 12.098 24.0493 12.1478 24.0299 12.1942C23.9991 12.3489 23.9998 12.5081 24.032 12.6625C24.0643 12.8169 24.1273 12.9631 24.2174 13.0926C24.3075 13.222 24.4228 13.3319 24.5564 13.4157C24.69 13.4995 24.8391 13.5555 24.9948 13.5803C24.9075 13.6796 24.8438 13.7973 24.8085 13.9247C24.7732 14.0521 24.7673 14.1858 24.7911 14.3158C24.8148 14.4459 24.8678 14.5688 24.9459 14.6755C25.024 14.7821 25.1252 14.8697 25.242 14.9316C25.3427 14.9774 25.4746 15.0305 25.4727 15.1403C25.4689 15.1826 25.4537 15.2231 25.4288 15.2575C25.2449 15.5238 25.1408 15.8369 25.1285 16.1602C25.145 16.4825 25.405 16.8121 25.7254 16.7865C25.6448 16.8654 25.5808 16.9597 25.5374 17.0638C25.494 17.1679 25.472 17.2797 25.4727 17.3925C25.4965 17.6178 25.7529 17.8173 25.9506 17.7111C26.0367 17.6654 27.2891 17.2534 27.3367 17.1618C27.9446 16.0815 26.8899 15.1001 26.6647 13.8806C26.4097 12.6621 25.8764 11.519 25.1065 10.5408C24.8009 10.118 24.4407 9.73754 24.0353 9.40917C23.5534 9.06238 23.0337 8.77123 22.4863 8.54126C21.785 8.21716 21.0636 7.8949 20.289 7.80884C18.8553 7.65137 17.4729 8.33801 16.2479 9.09057C15.7717 9.36409 15.3345 9.70035 14.9479 10.0903C14.5204 10.5897 14.1856 11.1614 13.9591 11.7785C13.5929 12.6556 13.3274 13.5895 13.353 14.5361" fill="#161B46"/>
<path d="M12.7764 14.1355C12.7948 14.0327 12.83 13.9337 12.8807 13.8425C12.9247 13.7491 12.9888 13.6411 13.0474 13.5037C13.11 13.3448 13.1387 13.1746 13.1316 13.0039C13.1208 12.7892 13.0908 12.576 13.0419 12.3667C12.9834 12.1147 12.9588 11.8561 12.9686 11.5976C12.9887 11.2991 13.0704 11.008 13.2085 10.7425C13.2829 10.5976 13.3738 10.4619 13.4795 10.3379C13.5921 10.2107 13.7146 10.0925 13.8457 9.98448C13.983 9.87611 14.1012 9.74552 14.1954 9.59813C14.279 9.43548 14.3405 9.26246 14.3785 9.0836C14.5984 8.28018 15.0985 7.58197 15.7884 7.11523C15.9746 6.99126 16.1735 6.88752 16.3817 6.80578C16.5971 6.72548 16.8216 6.67198 17.05 6.64648C17.1669 6.63513 17.2842 6.63024 17.4016 6.63183C17.5188 6.63183 17.636 6.64465 17.7513 6.65197C17.9848 6.67168 18.2198 6.64301 18.4416 6.56775C18.6668 6.4945 18.8829 6.38464 19.1154 6.29492C19.5826 6.10784 20.0776 5.99955 20.5803 5.97449C20.8394 5.96575 21.0987 5.9817 21.3548 6.02209C21.8843 6.10223 22.3755 6.34619 22.7592 6.71972L22.8709 6.83508L22.827 6.82409C23.5617 6.58594 24.3598 6.63895 25.0566 6.97218C25.7534 7.3054 26.2956 7.89342 26.5715 8.61485L26.5477 8.59105C26.876 8.69305 27.1976 8.81536 27.5108 8.95726C27.8171 9.09554 28.0952 9.28922 28.3311 9.52855C28.5541 9.76586 28.708 10.0597 28.776 10.3782C28.8461 10.686 28.7956 11.009 28.6351 11.2809V11.2369C29.0262 11.5528 29.2938 11.9961 29.3913 12.4893C29.4906 12.9291 29.4522 13.3887 29.2814 13.8059C29.2414 13.9008 29.1943 13.9927 29.1404 14.0805C29.0873 14.1666 29.0324 14.249 28.9903 14.3332C28.949 14.4155 28.9282 14.5066 28.9299 14.5987C28.936 14.6882 28.9494 14.777 28.9701 14.8642C29.0395 15.1872 29.0708 15.5172 29.0635 15.8475C29.0591 16.1143 29.0037 16.3778 28.9006 16.6238C28.8217 16.805 28.702 16.9654 28.5508 17.0926C28.4281 17.197 28.3146 17.2446 28.2542 17.3013C28.2225 17.3277 28.1943 17.3578 28.17 17.3911C28.1885 17.3537 28.2147 17.3206 28.2469 17.294C28.3073 17.2336 28.419 17.1823 28.538 17.0779C28.6838 16.9506 28.7984 16.7915 28.8731 16.6129C28.972 16.3698 29.0236 16.11 29.0251 15.8475C29.0295 15.5201 28.9963 15.1932 28.9262 14.8734C28.9036 14.7833 28.8889 14.6914 28.8822 14.5987C28.8805 14.4998 28.9025 14.4018 28.9463 14.3131C28.9913 14.2242 29.0415 14.138 29.0965 14.0549C29.1485 13.9682 29.1938 13.8776 29.232 13.7839C29.3958 13.377 29.4316 12.9299 29.3345 12.5022C29.2388 12.0247 28.9798 11.5955 28.6021 11.2882L28.5801 11.2699L28.5948 11.2461C28.7462 10.9882 28.7921 10.6819 28.7229 10.391C28.6566 10.0856 28.5085 9.80393 28.2945 9.57615C28.0632 9.34608 27.7921 9.15995 27.4943 9.02684C27.1837 8.88478 26.8645 8.76247 26.5385 8.66063H26.522V8.64415C26.2518 7.94439 25.7244 7.37433 25.0478 7.05063C24.3711 6.72693 23.5963 6.67405 22.8819 6.90283H22.8581L22.838 6.88269L22.7299 6.77099C22.3582 6.40908 21.8824 6.17278 21.3695 6.09534C21.119 6.05463 20.865 6.03929 20.6114 6.04956C20.3613 6.06067 20.1126 6.09314 19.868 6.14661C19.6283 6.19911 19.3932 6.27075 19.1649 6.36084C18.9378 6.4469 18.7199 6.55859 18.4874 6.63549C18.3687 6.67571 18.2458 6.70272 18.1212 6.71606C17.9993 6.72642 17.8768 6.72642 17.755 6.71606L17.4053 6.69409C17.2917 6.69409 17.1764 6.69409 17.0647 6.70874C16.842 6.7337 16.6232 6.78534 16.4128 6.86254C16.2097 6.94222 16.0157 7.04351 15.8342 7.16467C15.4829 7.4011 15.1808 7.70329 14.9443 8.05456C14.7173 8.3735 14.5481 8.72987 14.4445 9.10741C14.4038 9.2917 14.3385 9.46969 14.2504 9.63658C14.1511 9.78892 14.0274 9.9238 13.8842 10.0357C13.7531 10.1412 13.6307 10.2569 13.5179 10.3818C13.4138 10.5022 13.3241 10.6343 13.2506 10.7755C13.1139 11.0343 13.0323 11.3186 13.0107 11.6104C12.999 11.8649 13.0212 12.1199 13.0767 12.3685C13.124 12.5798 13.1522 12.7949 13.1609 13.0112C13.1668 13.1864 13.1343 13.3608 13.0657 13.5221C13.0052 13.6594 12.9393 13.7674 12.8936 13.859C12.8564 13.9266 12.8245 13.997 12.7983 14.0695C12.7837 14.1098 12.7782 14.1373 12.7764 14.1355Z" fill="#737690"/>
<path d="M21.5727 6.44157C21.5727 6.44157 21.4994 6.41044 21.3657 6.36467C21.1785 6.29987 20.9816 6.26766 20.7835 6.26945C20.4905 6.26974 20.2029 6.34811 19.9503 6.4965C19.644 6.68225 19.4038 6.95961 19.2637 7.28935C19.2218 7.38829 19.1905 7.4914 19.1703 7.59696C19.1592 7.6433 19.1581 7.69149 19.1673 7.73825C19.1765 7.78502 19.1956 7.82926 19.2234 7.86796L19.2967 7.94669L19.1886 7.93021C18.9118 7.88999 18.6301 7.95893 18.4031 8.12247C18.2226 8.25414 18.0891 8.44027 18.0223 8.65348C17.9775 8.79475 17.9613 8.94351 17.9747 9.0911C17.9747 9.19547 17.9985 9.2504 17.993 9.25223C17.9875 9.25406 17.9838 9.23941 17.9765 9.21378C17.9635 9.17498 17.9537 9.13517 17.9472 9.09476C17.9196 8.90235 17.9435 8.70606 18.0165 8.52592C18.0895 8.34578 18.209 8.18824 18.3628 8.06937C18.6029 7.88965 18.9046 7.8126 19.2015 7.85514L19.1667 7.91923C19.1306 7.87254 19.1053 7.81844 19.0926 7.76082C19.08 7.7032 19.0802 7.64348 19.0934 7.58598C19.1136 7.47386 19.1468 7.36448 19.1923 7.26005C19.3373 6.91413 19.5904 6.62444 19.9137 6.43425C20.1777 6.28199 20.4788 6.20593 20.7835 6.21452C20.9869 6.21832 21.188 6.25928 21.3767 6.33537C21.4278 6.35645 21.4773 6.38092 21.525 6.40861C21.558 6.42876 21.5745 6.43974 21.5727 6.44157Z" fill="#737690"/>
<path d="M26.1211 8.89348C26.1211 8.89348 26.0991 8.9356 26.0423 8.99785C25.9618 9.08634 25.8722 9.16612 25.775 9.23589C25.6274 9.34376 25.4581 9.41812 25.2788 9.45378C25.0506 9.49932 24.8136 9.45819 24.6141 9.33843L24.6709 9.32195L24.6086 9.4373C24.5848 9.47576 24.5574 9.51238 24.5336 9.549C24.3774 9.75586 24.1723 9.9207 23.9366 10.0287C23.7466 10.1189 23.5406 10.1706 23.3306 10.1807C23.1901 10.1876 23.0494 10.1734 22.9131 10.1386C22.8631 10.127 22.8151 10.1085 22.7703 10.0837C22.9511 10.1191 23.1355 10.1332 23.3196 10.1258C23.5206 10.1077 23.7167 10.0531 23.8982 9.96464C24.12 9.85763 24.3133 9.69949 24.4621 9.50322C24.486 9.4666 24.5116 9.43181 24.5336 9.39702L24.594 9.28899L24.6141 9.25054L24.6507 9.27251C24.8336 9.38271 25.0502 9.42304 25.2605 9.38604C25.4314 9.35565 25.5941 9.29019 25.7384 9.19377C25.9929 9.02715 26.1119 8.88433 26.1211 8.89348Z" fill="#737690"/>
<path d="M27.7782 11.1217C27.781 11.1375 27.781 11.1536 27.7782 11.1693C27.772 11.2154 27.7578 11.26 27.736 11.3011C27.6549 11.4545 27.5189 11.5715 27.3552 11.6289C27.1113 11.7001 26.8521 11.7001 26.6081 11.6289C26.4635 11.5996 26.3205 11.5629 26.1797 11.519C26.0192 11.4736 25.8794 11.3739 25.7842 11.2371L25.764 11.1968L25.8263 11.2078C25.6192 11.4257 25.3803 11.6109 25.1177 11.7571C24.8987 11.8768 24.651 11.9338 24.4017 11.9219C24.2339 11.9134 24.0712 11.8617 23.9293 11.7717C23.8915 11.7483 23.8565 11.7207 23.8249 11.6893C23.803 11.6655 23.7938 11.6545 23.7956 11.6527C23.7975 11.6509 23.8469 11.6912 23.9458 11.7461C24.0865 11.8225 24.2435 11.864 24.4035 11.8669C24.6413 11.8715 24.876 11.8121 25.0829 11.6948C25.3379 11.5462 25.5698 11.3611 25.7713 11.1455L25.808 11.1089L25.8336 11.1565L25.8519 11.1895C25.9367 11.3114 26.0619 11.3996 26.2053 11.4385C26.3445 11.4861 26.4891 11.519 26.6228 11.552C26.8556 11.6179 27.1022 11.6179 27.335 11.552C27.4905 11.503 27.6235 11.4005 27.7104 11.2627C27.7358 11.2171 27.7584 11.17 27.7782 11.1217Z" fill="#737690"/>
<path d="M29.4167 1.56738C29.4167 1.56738 29.3727 1.56738 29.2958 1.604C29.1877 1.65152 29.096 1.72986 29.0322 1.82922C28.93 1.98112 28.8823 2.1631 28.8967 2.34558C28.9225 2.5842 28.9842 2.81755 29.0798 3.03771L29.0944 3.078H29.0523C28.7317 3.10932 28.4298 3.24357 28.1917 3.46068C28.0577 3.58043 27.9535 3.72993 27.8877 3.89719C27.8219 4.06446 27.7962 4.24482 27.8127 4.42381C27.8252 4.58744 27.8751 4.74602 27.9586 4.8873C28.0421 5.02857 28.1569 5.14878 28.2943 5.23863L28.3895 5.29539L28.2778 5.30821C28.0958 5.33247 27.9207 5.39373 27.7632 5.48819C27.6058 5.58266 27.4693 5.70835 27.3623 5.85752C27.1911 6.10025 27.1084 6.39431 27.1279 6.69065C27.1423 6.88258 27.1959 7.06953 27.2854 7.23996C27.3494 7.36264 27.397 7.42307 27.3934 7.42307C27.3792 7.41104 27.3663 7.39754 27.3549 7.38278C27.3204 7.34179 27.2897 7.29766 27.2634 7.25095C27.1606 7.07784 27.098 6.88386 27.0803 6.68332C27.0529 6.37868 27.1318 6.07394 27.3037 5.8209C27.4152 5.66034 27.5592 5.52504 27.7264 5.42378C27.8936 5.32251 28.0802 5.25756 28.2741 5.23314L28.2595 5.30272C28.111 5.20785 27.9867 5.07968 27.8965 4.92839C27.8062 4.77709 27.7524 4.60684 27.7395 4.43114C27.7191 4.23546 27.748 4.03779 27.8237 3.85619C27.8973 3.68498 28.0065 3.53142 28.1441 3.40575C28.3975 3.17746 28.7195 3.03965 29.0596 3.01391L29.0303 3.05785C28.9322 2.83153 28.8704 2.59115 28.8472 2.34558C28.8341 2.14972 28.8898 1.95542 29.0047 1.79626C29.0754 1.69463 29.1768 1.61828 29.294 1.57837C29.3241 1.56773 29.3555 1.56156 29.3874 1.56006L29.4167 1.56738Z" fill="#737690"/>
<path d="M34.7066 6.5896C34.6949 6.60151 34.6813 6.61141 34.6663 6.6189C34.6279 6.6468 34.5875 6.67189 34.5455 6.69397C34.3872 6.78003 34.2168 6.84176 34.0401 6.87707C33.7684 6.93338 33.4879 6.93338 33.2162 6.87707C32.8667 6.81111 32.5419 6.65092 32.2768 6.41382L32.3354 6.40283C32.2389 6.62863 32.0931 6.82999 31.9087 6.99219C31.7243 7.15439 31.506 7.27334 31.2698 7.34033C31.0155 7.40744 30.7465 7.39279 30.501 7.29847C30.2555 7.20415 30.0459 7.03493 29.902 6.81482L29.9679 6.80383C29.9257 6.98225 29.8373 7.14643 29.7115 7.2799C29.5992 7.40213 29.4659 7.50322 29.3179 7.57836C29.0746 7.69269 28.8102 7.75506 28.5415 7.76147C28.3691 7.76615 28.1966 7.75942 28.0251 7.74133C27.9634 7.73773 27.9021 7.72854 27.842 7.71386C27.903 7.70949 27.9642 7.70949 28.0251 7.71386C28.1442 7.71386 28.3181 7.72668 28.5378 7.71386C28.7978 7.70376 29.0531 7.64149 29.2886 7.53076C29.4367 7.46004 29.5677 7.35789 29.6724 7.2314C29.7771 7.10491 29.8529 6.95713 29.8946 6.79834L29.9148 6.70678L29.9624 6.78735C30.0995 6.991 30.2964 7.14717 30.5259 7.23438C30.7554 7.3216 31.0063 7.33558 31.2441 7.27441C31.4688 7.20943 31.6764 7.09565 31.8521 6.94119C32.0278 6.78673 32.1672 6.5954 32.2604 6.38086L32.2823 6.33691L32.3189 6.36987C32.5738 6.59961 32.8855 6.75702 33.2217 6.8258C33.4853 6.88441 33.758 6.88939 34.0237 6.84045C34.2626 6.79164 34.4929 6.70707 34.7066 6.5896Z" fill="#737690"/>
<path d="M32.4599 10.7043C32.4599 10.7043 32.4599 10.7245 32.4361 10.7538C32.4004 10.7957 32.3523 10.8252 32.2988 10.838C32.1056 10.8775 31.9056 10.8687 31.7165 10.8124C31.4322 10.736 31.1791 10.572 30.9933 10.3436C30.7651 10.0609 30.652 9.70263 30.6765 9.34021L30.7388 9.375C30.4368 9.57109 30.0801 9.66541 29.7207 9.64416C29.4305 9.62837 29.1478 9.54565 28.8949 9.40246C28.7258 9.30749 28.5706 9.18982 28.4335 9.05273C28.3819 9.00428 28.3358 8.95024 28.2961 8.8916C28.4854 9.0702 28.6957 9.22514 28.9224 9.35302C29.1697 9.48572 29.4439 9.56083 29.7244 9.57275C30.0672 9.58866 30.4065 9.49712 30.6948 9.31091L30.7589 9.26697V9.3457V9.35486C30.7353 9.66634 30.8194 9.97648 30.997 10.2334C31.1747 10.4904 31.4351 10.6786 31.7348 10.7666C31.9156 10.8248 32.107 10.8417 32.2951 10.816C32.3286 10.8092 32.3604 10.7957 32.3887 10.7766C32.4169 10.7574 32.4412 10.7329 32.4599 10.7043Z" fill="#737690"/>
<path d="M23.7865 2.35059C23.7304 2.61624 23.7236 2.88995 23.7664 3.15808C23.8187 3.44606 23.9392 3.71731 24.118 3.94909C24.2949 4.16846 24.5206 4.34346 24.7772 4.46013C25.0337 4.5768 25.314 4.63191 25.5956 4.62108H25.6432V4.66869C25.5907 4.94823 25.5907 5.23509 25.6432 5.51463C25.6868 5.73656 25.7633 5.95072 25.8703 6.15001C25.9086 6.22628 25.9533 6.29917 26.0039 6.3679C26.0197 6.39385 26.0417 6.41547 26.0679 6.43082C26.0941 6.44616 26.1237 6.45474 26.1541 6.45579C26.1728 6.45624 26.1914 6.45254 26.2085 6.44494C26.2256 6.43734 26.2408 6.42604 26.253 6.41185C26.2611 6.40111 26.2678 6.38943 26.2731 6.37706C26.2731 6.37706 26.2731 6.39354 26.2639 6.41917C26.2524 6.43814 26.2363 6.45393 26.2171 6.46512C26.1979 6.47631 26.1763 6.48254 26.1541 6.48326C26.1186 6.48376 26.0836 6.47589 26.0518 6.46031C26.02 6.44472 25.9923 6.42184 25.971 6.39354C25.915 6.32489 25.8654 6.25135 25.8227 6.17381C25.7071 5.97237 25.6231 5.75438 25.5736 5.52745C25.5127 5.24062 25.5071 4.9448 25.5572 4.65587L25.5956 4.69982C25.3807 4.7105 25.1656 4.68323 24.9602 4.61925C24.6354 4.5219 24.345 4.33394 24.1232 4.07741C23.9013 3.82088 23.7572 3.50641 23.7078 3.1709C23.6758 2.97041 23.6795 2.76584 23.7188 2.56665C23.7293 2.51268 23.7433 2.45946 23.7609 2.40735C23.7672 2.38751 23.7758 2.36846 23.7865 2.35059Z" fill="#737690"/>
<path d="M20.1627 20.3664C20.0895 20.3554 20.0492 20.8553 19.5933 21.1757C19.1373 21.4961 18.61 21.4009 18.6008 21.4705C18.5917 21.5016 18.7125 21.5767 18.9359 21.6005C19.2282 21.6274 19.5207 21.5502 19.7617 21.3826C19.9937 21.2224 20.154 20.978 20.2085 20.7015C20.2359 20.4946 20.1902 20.3664 20.1627 20.3664Z" fill="#161B46"/>
<path d="M30.5174 35.8283C30.5174 35.8283 27.5621 38.4504 27.6024 40.6843L23.2976 33.9094L19.2693 36.4216C19.2693 36.4216 20.3459 41.847 21.3329 43.9985C22.3198 46.1499 24.2918 49.3341 25.7274 49.6491C27.1629 49.964 31.0191 47.3163 32.6854 45.456C34.3516 43.5956 36.1643 36.7988 36.4848 33.8856C36.8821 30.2784 32.5938 29.394 32.5938 29.394" fill="#AE7461"/>
<path d="M32.5772 29.397C32.5772 29.397 32.6303 29.397 32.731 29.4281C32.8317 29.4592 32.9819 29.494 33.1741 29.5581C33.7383 29.743 34.2748 30.0035 34.769 30.3326C35.126 30.5716 35.4472 30.8602 35.7229 31.1896C36.0522 31.5844 36.2887 32.048 36.4151 32.5464C36.5451 33.1216 36.5557 33.7174 36.4462 34.2969C36.3595 34.9072 36.2442 35.5523 36.1001 36.2323C35.8145 37.5799 35.4391 39.0429 34.9466 40.5883C34.8294 40.9747 34.6884 41.3629 34.5547 41.7602C34.4211 42.1575 34.2654 42.553 34.097 42.9504C34.0146 43.1518 33.9322 43.3532 33.8388 43.551C33.7454 43.7487 33.6557 43.9538 33.5532 44.1479C33.4506 44.342 33.3536 44.5489 33.2291 44.7375L33.046 45.0268C32.9874 45.1238 32.9086 45.2099 32.8409 45.3033C32.7018 45.4869 32.5494 45.6601 32.3849 45.8215C32.2238 45.9862 32.0572 46.1492 31.8832 46.3067C31.5408 46.6235 31.1783 46.9292 30.8029 47.2222C30.0386 47.8272 29.2294 48.3732 28.3823 48.8555C27.9454 49.1039 27.4899 49.3182 27.02 49.4964C26.7827 49.5859 26.5375 49.6528 26.2876 49.6959C26.028 49.7468 25.7594 49.7253 25.5112 49.6337C25.0351 49.4151 24.6107 49.0981 24.2661 48.7035C23.9088 48.3197 23.5784 47.9116 23.2773 47.4822C22.6768 46.6296 22.1383 45.735 21.666 44.8052C21.4287 44.3532 21.219 43.8873 21.038 43.41C20.8549 42.9376 20.7102 42.4578 20.5637 41.9818C20.0144 40.0756 19.5878 38.2098 19.2234 36.43V36.4007L19.249 36.3842L23.2755 33.872L23.3103 33.8501L23.3304 33.883L27.6261 40.6579L27.5748 40.6726C27.5867 40.2338 27.6734 39.8004 27.8311 39.3908C27.9754 39.033 28.15 38.6881 28.353 38.3599C28.6778 37.8419 29.0453 37.352 29.4516 36.8951C29.7822 36.5091 30.1402 36.1475 30.5228 35.813L30.4532 35.8825L30.2335 36.1004C30.0504 36.2835 29.7867 36.5545 29.4626 36.9299C29.063 37.3874 28.7023 37.8773 28.3841 38.3947C28.1845 38.7214 28.013 39.0644 27.8714 39.4201C27.7181 39.8242 27.6345 40.2514 27.6242 40.6835V40.7788L27.573 40.6982L23.259 33.9343L23.3139 33.9471L19.2856 36.4611L19.3058 36.4154C19.672 38.1915 20.0931 40.0555 20.6498 41.9579C20.7944 42.4304 20.9409 42.9101 21.1222 43.3788C21.3037 43.8527 21.5128 44.3155 21.7484 44.7649C22.2186 45.6875 22.754 46.5754 23.3506 47.4218C23.6493 47.8475 23.9772 48.2519 24.332 48.6321C24.6655 49.0201 25.0782 49.3323 25.5423 49.5476C25.7761 49.6358 26.03 49.6561 26.2747 49.6062C26.5246 49.5643 26.7698 49.4987 27.0072 49.4103C27.4721 49.2342 27.9226 49.0224 28.3548 48.7768C29.1983 48.2984 30.0039 47.756 30.7645 47.1545C31.1404 46.8615 31.4993 46.5563 31.8411 46.2389C32.0132 46.0833 32.178 45.9222 32.341 45.7574C32.5037 45.5985 32.6542 45.4278 32.7914 45.2465C32.8574 45.155 32.9324 45.0726 32.991 44.9773L33.1741 44.6917C33.2986 44.5086 33.3902 44.3017 33.4964 44.1076C33.6026 43.9135 33.6795 43.7103 33.7802 43.5143C33.8809 43.3184 33.9633 43.117 34.0384 42.9174C34.2087 42.5219 34.3497 42.1209 34.498 41.7309C34.6463 41.3409 34.7726 40.949 34.8916 40.5627C35.386 39.021 35.7651 37.5616 36.0544 36.2158C36.2008 35.5438 36.3199 34.8993 36.4059 34.2859C36.5176 33.7143 36.5095 33.1257 36.3821 32.5574C36.2608 32.0657 36.0305 31.6077 35.7083 31.217C35.4373 30.8883 35.1203 30.6003 34.7671 30.3619C34.2784 30.0303 33.7476 29.7655 33.1888 29.5746C33.0057 29.5087 32.85 29.4647 32.7493 29.4373L32.5772 29.397Z" fill="#6F4439"/>
<path d="M12.1702 25.0576C12.1702 25.0576 12.2892 26.1819 12.4412 26.4858C12.5931 26.7898 13.0454 26.6268 13.1736 26.3613C13.3018 26.0958 13.2779 25.4641 13.2779 25.4641L12.1702 25.0576Z" fill="#AE7461"/>
<path d="M13.2302 23.6442C13.1624 23.7083 12.0528 24.7319 12.1663 25.1091C12.2799 25.4863 13.0947 25.8415 13.2302 25.8415C13.3657 25.8415 14.9532 29.6134 15.5648 30.117C15.9145 30.4088 16.2923 30.6652 16.6927 30.8824C16.6927 30.8824 18.304 36.1924 18.8259 36.533C19.3477 36.8735 23.539 34.0409 23.539 34.0409C23.539 34.0409 23.81 33.6747 23.6745 33.4916C23.539 33.3085 20.4354 28.0314 20.4354 28.0314C20.4354 28.0314 18.4633 24.1112 18.1008 23.6369C17.7382 23.1627 16.7641 22.6848 16.1086 23.3183C16.1086 23.3183 15.0209 22.9521 14.6126 23.4099C14.6126 23.4172 13.7227 23.1755 13.2302 23.6442Z" fill="#161B46"/>
<path d="M28.1736 43.8974C28.1571 43.8974 28.234 43.6978 28.2871 43.37C28.3187 43.1795 28.3328 42.9864 28.3292 42.7933C28.3235 42.5566 28.2946 42.3212 28.2432 42.0901C28.1868 41.86 28.109 41.6356 28.0106 41.42C27.9279 41.2456 27.8299 41.0789 27.7177 40.9219C27.5236 40.6528 27.3698 40.5118 27.3826 40.499C27.3954 40.4861 27.4284 40.5264 27.4979 40.5887C27.5979 40.6769 27.6893 40.7743 27.7708 40.8798C27.8934 41.0367 28.0001 41.2054 28.0894 41.3834C28.1959 41.6022 28.2788 41.8317 28.3366 42.0682C28.3898 42.3056 28.4168 42.5481 28.4171 42.7914C28.4164 42.9903 28.3949 43.1885 28.353 43.3829C28.328 43.5139 28.2899 43.6421 28.2395 43.7655C28.2029 43.8534 28.1809 43.8992 28.1736 43.8974Z" fill="#6F4439"/>
<path d="M19.575 26.5992C19.4946 26.6133 19.4132 26.6207 19.3315 26.6212C19.1759 26.6212 18.9488 26.634 18.6687 26.6359C18.1084 26.6359 17.3338 26.6102 16.4824 26.5278C15.631 26.4454 14.8656 26.3209 14.3163 26.2111C14.0416 26.1561 13.8201 26.1067 13.6681 26.0682C13.5887 26.0528 13.5108 26.0302 13.4355 26.0005C13.5165 26.0013 13.597 26.0117 13.6754 26.0316L14.3291 26.1433C14.8784 26.2367 15.6438 26.3502 16.4916 26.4326C17.3393 26.515 18.112 26.5516 18.6705 26.5681L19.3315 26.5828C19.4131 26.579 19.4948 26.5845 19.575 26.5992Z" fill="#737690"/>
<path d="M20.8109 28.7674C20.8109 28.7839 20.5527 28.8352 20.1407 28.9505C19.0632 29.2517 18.0482 29.7428 17.1433 30.4007C16.7954 30.6534 16.594 30.8255 16.583 30.8145C16.6202 30.7638 16.6639 30.7183 16.713 30.679C16.8009 30.5948 16.9327 30.4813 17.103 30.3476C17.995 29.652 19.024 29.1528 20.1224 28.8828C20.333 28.8315 20.5051 28.7985 20.6241 28.7821C20.6855 28.7694 20.7483 28.7645 20.8109 28.7674Z" fill="#737690"/>
<path d="M22.7739 31.9549C22.7739 31.9805 21.6258 32.2753 20.1976 32.6122C18.7694 32.9492 17.5994 33.2037 17.5994 33.178C17.5994 33.1524 18.7456 32.8576 20.1738 32.5207C21.602 32.1838 22.7666 31.9293 22.7739 31.9549Z" fill="#737690"/>
<path d="M45.282 73.0001C45.282 73.0001 44.3766 71.3944 45.6661 64.7492C46.4063 60.9366 49.6837 56.0205 49.6837 56.0205C49.6837 56.0205 65.3739 56.4098 65.3878 56.66C65.4017 56.9102 70.1892 61.7742 70.8843 66.8328C71.5794 71.8914 71.4438 73.0001 71.4438 73.0001H45.282Z" fill="#2D3259"/>
<path d="M57.669 67.1122C57.6447 67.1122 57.5265 65.1103 57.4048 62.641C57.2832 60.1716 57.2067 58.1663 57.2311 58.1646C57.2554 58.1628 57.3753 60.1647 57.4952 62.6358C57.6151 65.1069 57.695 67.1105 57.669 67.1122Z" fill="#737690"/>
<path d="M59.08 58.794C58.795 58.7801 58.5152 59.0703 58.4353 59.3153C58.3746 59.4968 58.3787 59.6937 58.4469 59.8725C58.5151 60.0513 58.6432 60.2009 58.8094 60.2959C58.9755 60.3908 59.1695 60.4252 59.3581 60.3932C59.5468 60.3611 59.7185 60.2647 59.8441 60.1203C59.9696 59.9758 60.0412 59.7923 60.0466 59.601C60.052 59.4097 59.9909 59.2225 59.8737 59.0712C59.7566 58.9199 59.5905 58.8139 59.404 58.7713C59.2174 58.7286 59.0219 58.752 58.8506 58.8374" fill="#737690"/>
<path d="M53.7277 28.6386L54.7582 26.032L60.9063 25.707L63.4174 26.032L63.6937 26.7532L65.3984 56.9101C65.3984 56.9101 59.4431 58.1109 56.4646 57.6938C53.4861 57.2767 49.988 55.9178 49.988 55.9178V38.768L53.7277 28.6386Z" fill="white"/>
<path d="M62.981 29.8639C62.9701 29.8839 62.956 29.9021 62.9393 29.9177L62.8055 30.0672C62.6874 30.1975 62.5101 30.3834 62.2842 30.6128C61.6503 31.2411 60.9777 31.8291 60.2701 32.3732L60.2423 32.3975L60.2163 32.3697C59.5518 31.6406 58.9353 30.8692 58.3708 30.0602L58.1883 29.7943H58.263L56.7842 31.7841C56.7268 31.8635 56.6576 31.9338 56.5792 31.9926C56.4978 32.0544 56.3957 32.0825 56.2942 32.0708C56.1992 32.0509 56.1129 32.0017 56.0474 31.93C55.986 31.8671 55.928 31.801 55.8736 31.7319L55.2915 31.0003L54.4539 29.9438L54.2297 29.6536C54.2023 29.6211 54.1779 29.5862 54.1567 29.5493C54.1894 29.577 54.2185 29.6085 54.2436 29.6432C54.3027 29.7127 54.3826 29.8048 54.48 29.9212L55.3401 30.9638L55.931 31.6868C56.037 31.8136 56.143 31.9683 56.3029 31.9943C56.4627 32.0204 56.607 31.8814 56.7164 31.7354L58.1866 29.7422L58.2231 29.6918L58.2596 29.7439L58.442 30.0081C59.0045 30.8137 59.6162 31.5838 60.2736 32.3141H60.218C60.9255 31.7726 61.6025 31.1925 62.246 30.5763C62.4823 30.3522 62.663 30.1714 62.7864 30.055C62.8455 29.9977 62.8924 29.9525 62.9289 29.9142C62.9439 29.8952 62.9615 29.8782 62.981 29.8639Z" fill="#2D3259"/>
<g opacity="0.3">
<path opacity="0.3" d="M55.9573 31.7771C55.9573 31.7771 56.7358 32.7364 56.9547 32.4966C57.1737 32.2568 58.3293 30.4669 58.4683 30.3921C58.6073 30.3174 60.001 32.825 60.5536 32.6512C61.1062 32.4774 63.0542 30.5242 63.0542 30.5242L63.0925 29.7544L60.2478 32.3436L58.2285 29.7718L56.529 31.9822C56.529 31.9822 56.1641 32.262 55.9573 31.7771Z" fill="#2D3259"/>
</g>
<path d="M51.069 11.3027C51.069 11.3027 49.4616 17.3154 49.3226 21.5711L49.2756 22.9874C49.2756 22.9874 52.8259 25.9415 55.8009 26.1153L58.2963 19.9811L51.069 11.3027Z" fill="#161B46"/>
<path d="M66.8303 14.9903C66.1526 12.057 65.8919 8.64408 63.4521 6.73256C61.6431 5.31281 59.5804 4.91661 57.2831 5.01392C56.1518 5.06084 54.8746 5.58217 53.8875 6.13998C52.5373 6.90459 51.9656 8.4564 51.3122 9.86572C50.0071 12.6896 50.1722 16.5126 51.0567 17.5744L62.8543 23.8042C65.2107 22.5791 66.6861 22.0908 67.0632 18.9507C67.2155 17.627 67.1367 16.287 66.8303 14.9903Z" fill="#161B46"/>
<path d="M63.3286 9.06312L55.905 6.87182C53.5121 6.52427 51.7987 9.41762 51.5519 11.8227C51.2791 14.4936 51.0497 17.7658 51.2878 19.7764C51.7674 23.8184 54.8276 24.4509 54.8276 24.4509L54.805 26.074L58.1866 29.6676L63.3547 26.213L64.5364 10.5454C64.5575 10.1919 64.445 9.84344 64.2214 9.56892C63.9977 9.29441 63.6791 9.11389 63.3286 9.06312Z" fill="#895F53"/>
<path d="M52.9144 15.4804C52.9095 15.6142 52.9561 15.7447 53.0448 15.845C53.1334 15.9453 53.2572 16.0076 53.3906 16.0191C53.4559 16.0271 53.5221 16.0218 53.5854 16.0037C53.6486 15.9856 53.7076 15.955 53.7588 15.9137C53.81 15.8723 53.8524 15.8212 53.8835 15.7632C53.9145 15.7052 53.9337 15.6415 53.9397 15.576C53.9446 15.4422 53.898 15.3117 53.8093 15.2114C53.7207 15.1112 53.5969 15.0488 53.4635 15.0373C53.3982 15.0293 53.332 15.0346 53.2687 15.0527C53.2055 15.0708 53.1465 15.1014 53.0953 15.1428C53.0441 15.1841 53.0017 15.2353 52.9706 15.2933C52.9396 15.3513 52.9204 15.4149 52.9144 15.4804Z" fill="#161B46"/>
<path d="M52.0436 14.2446C52.1045 14.3141 52.5059 14.0413 53.062 14.0708C53.618 14.1004 54.0108 14.3871 54.0733 14.3211C54.1046 14.2932 54.0438 14.1699 53.8718 14.0326C53.6387 13.8571 53.357 13.7581 53.0654 13.7493C52.777 13.7368 52.4922 13.8165 52.2522 13.977C52.0767 14.0934 52.0141 14.2133 52.0436 14.2446Z" fill="#161B46"/>
<path d="M57.7836 15.4804C57.7786 15.6142 57.8253 15.7447 57.9139 15.845C58.0026 15.9453 58.1264 16.0076 58.2597 16.0191C58.3251 16.0273 58.3914 16.0223 58.4547 16.0042C58.5181 15.9862 58.5772 15.9556 58.6284 15.9142C58.6797 15.8729 58.7221 15.8216 58.7531 15.7635C58.7841 15.7054 58.803 15.6416 58.8088 15.576C58.8138 15.4422 58.7671 15.3117 58.6785 15.2114C58.5898 15.1112 58.466 15.0488 58.3327 15.0373C58.2674 15.0293 58.2011 15.0346 58.1379 15.0527C58.0746 15.0708 58.0156 15.1014 57.9644 15.1428C57.9132 15.1841 57.8708 15.2353 57.8398 15.2933C57.8087 15.3513 57.7896 15.4149 57.7836 15.4804Z" fill="#161B46"/>
<path d="M57.4986 14.3179C57.5594 14.3891 57.9608 14.1145 58.5152 14.1441C59.0695 14.1736 59.4657 14.4604 59.5283 14.3943C59.5596 14.3648 59.4987 14.2414 59.3267 14.1059C59.0932 13.9298 58.8109 13.8303 58.5186 13.8209C58.2304 13.8096 57.9459 13.8893 57.7054 14.0485C57.5316 14.1597 57.4673 14.2779 57.4986 14.3179Z" fill="#161B46"/>
<path d="M55.3386 17.9045C55.3386 17.8732 54.9997 17.8002 54.4437 17.7063C54.3029 17.6872 54.1708 17.6525 54.15 17.5552C54.1441 17.4086 54.1829 17.2638 54.2612 17.1398L54.7217 16.0781C55.3647 14.5662 55.8356 13.3203 55.773 13.2977C55.7105 13.2751 55.1422 14.4759 54.501 15.9895L54.0579 17.0582C53.9614 17.2252 53.9275 17.4211 53.9623 17.6108C53.9804 17.6616 54.01 17.7076 54.049 17.745C54.0879 17.7824 54.1349 17.8102 54.1865 17.8263C54.2643 17.8508 54.3448 17.8654 54.4263 17.8697C54.9858 17.9201 55.3351 17.9357 55.3386 17.9045Z" fill="#161B46"/>
<path d="M54.8104 24.4508C56.7006 24.5568 58.583 24.1356 60.2479 23.2344C60.2479 23.2344 58.8073 25.9939 54.8018 25.4587L54.8104 24.4508Z" fill="#5C3B34"/>
<path d="M57.1373 19.1365C57.0686 19.0225 56.9729 18.9272 56.8586 18.859C56.7444 18.7908 56.6151 18.7518 56.4822 18.7455C56.2962 18.7252 56.1083 18.7547 55.9375 18.831C55.7668 18.9074 55.6195 19.0278 55.5107 19.18C55.4332 19.3235 55.4116 19.4906 55.4499 19.6492C55.4829 19.7291 55.4499 19.6891 55.516 19.7465C55.7156 19.9678 55.9661 20.1372 56.2458 20.24C56.3972 20.284 56.5583 20.2815 56.7083 20.2328C56.8582 20.1842 56.9901 20.0916 57.0869 19.9672C57.1704 19.8465 57.2192 19.7053 57.2281 19.5589C57.237 19.4124 57.2056 19.2664 57.1373 19.1365Z" fill="#5C3B34"/>
<path d="M57.0538 18.3776C56.9652 18.3671 56.9356 18.9701 56.4021 19.3733C55.8686 19.7765 55.2309 19.6826 55.2222 19.766C55.2118 19.8025 55.3595 19.8894 55.6288 19.9085C55.981 19.9292 56.3292 19.8253 56.6124 19.6149C56.8849 19.4128 57.0676 19.1122 57.1216 18.7773C57.1563 18.527 57.099 18.3758 57.0538 18.3776Z" fill="#161B46"/>
<path d="M57.2881 12.2809C57.3281 12.4356 57.8859 12.4182 58.5271 12.559C59.1684 12.6997 59.6741 12.9274 59.7731 12.8023C59.8183 12.7414 59.7401 12.5903 59.5437 12.4252C59.2787 12.2197 58.9706 12.0772 58.6424 12.0082C58.3143 11.9393 57.9748 11.9458 57.6496 12.0272C57.4028 12.1002 57.2725 12.2062 57.2881 12.2809Z" fill="#161B46"/>
<path d="M52.0907 12.7539C52.2158 12.8634 52.612 12.6722 53.1334 12.5923C53.6547 12.5124 54.0839 12.5402 54.1656 12.3959C54.1986 12.3264 54.1135 12.2117 53.9084 12.1196C53.632 12.0122 53.3311 11.9839 53.0395 12.038C52.7408 12.0804 52.4608 12.2084 52.2332 12.4064C52.0733 12.561 52.0334 12.6983 52.0907 12.7539Z" fill="#161B46"/>
<path d="M55.8824 6.43896C55.8824 6.46851 55.8702 6.49631 55.8633 6.52585H55.8772L55.8824 6.43896Z" fill="#2D3259"/>
<path d="M61.7456 25.8844C61.6552 25.9098 61.5604 25.916 61.4674 25.9025C61.3745 25.889 61.2854 25.8561 61.2059 25.806C61.1265 25.7559 61.0584 25.6896 61.0062 25.6115C60.954 25.5334 60.9188 25.4452 60.9028 25.3526C60.7752 24.5437 60.7682 23.7203 60.882 22.9094C61.0123 21.7937 61.7699 20.626 61.8638 19.5051C62.0376 17.3694 61.8551 16.1721 61.617 14.3805C60.6109 14.2554 59.6725 13.6524 59.0104 12.8704C58.2041 11.932 57.7175 10.7677 57.2431 9.62425C57.2725 10.7554 57.6546 11.849 58.3361 12.7522C58.1101 12.7871 57.8789 12.7685 57.6613 12.6979C57.4437 12.6272 57.2457 12.5066 57.0832 12.3456C56.7613 12.0204 56.5109 11.6315 56.3482 11.2039C55.9137 10.1856 55.6721 9.09551 55.6357 7.98903C55.4845 9.57222 55.662 11.1696 56.157 12.681C55.8755 12.5941 55.5731 12.6723 55.2881 12.714C55.0031 12.7557 54.6625 12.7487 54.4558 12.5402C54.3308 12.3863 54.2518 12.2001 54.2281 12.0032C53.9515 10.6577 53.9069 9.27486 54.096 7.91431C53.7151 8.63523 53.406 9.39191 53.1733 10.1734C52.9426 10.9624 52.9366 11.8001 53.1559 12.5923C53.1235 12.6257 53.0848 12.6522 53.0419 12.6703C52.9991 12.6885 52.9531 12.6978 52.9065 12.6978C52.86 12.6978 52.814 12.6885 52.7712 12.6703C52.7283 12.6522 52.6896 12.6257 52.6572 12.5923C52.5302 12.4535 52.4537 12.276 52.44 12.0884C52.334 11.4124 52.4521 10.7242 52.572 10.0517C52.1706 10.7642 52.0368 11.5914 51.8144 12.3769C51.5919 13.1623 51.2374 13.9721 50.5545 14.4204C50.4391 13.3928 50.473 12.3539 50.6553 11.3359C50.7891 10.4931 51.1888 9.65727 51.5589 8.88919C51.9511 8.03831 52.504 7.27122 53.1872 6.63011C54.3723 5.58746 54.8676 6.03927 55.62 6.43374L55.7087 6.47197C55.7087 6.45286 55.7087 6.43374 55.7087 6.41637L55.7417 6.25476C57.7217 5.81196 59.7843 5.90858 61.7143 6.53453C63.1393 6.99851 63.2783 10.0674 63.6259 8.60941C63.8361 7.72663 64.9796 8.53295 64.9935 8.55728C66.6739 11.5897 68.4568 16.3997 68.5385 24.0007L61.7456 25.8844Z" fill="#161B46"/>
<g opacity="0.3">
<path opacity="0.3" d="M51.8477 45.7031C50.7703 52.77 49.6934 59.8368 48.6172 66.9037L48.8674 69.201C49.1507 69.5242 49.7154 69.4165 50.0039 69.0967C50.2924 68.777 50.3775 68.3304 50.4488 67.9064C51.6791 60.5748 52.3429 53.1181 51.8477 45.7031Z" fill="#2D3259"/>
</g>
<path d="M51.7467 27.8482L48.0974 28.5607C47.3194 28.7224 46.5991 29.0903 46.0121 29.626C45.4251 30.1616 44.993 30.8452 44.7609 31.6052C44.6458 31.981 44.5627 32.3659 44.5124 32.7556C44.1944 35.2198 42.6878 41.8823 42.6878 41.8823C42.6878 41.8823 39.3287 43.4793 39.1828 44.8486C39.0368 46.218 40.3453 48.703 40.3453 48.703C40.3453 48.703 41.7963 52.5156 43.7218 53.3115C45.8349 54.1804 47.305 51.5546 47.305 51.5546C47.3189 51.7944 47.3276 51.9282 47.3276 51.9282L41.7963 64.44C43.2039 66.9511 45.847 69.8914 48.5319 70.5309C48.5319 70.5309 51.6476 51.0872 51.8232 46.8401C51.9987 42.593 54.7252 26.0879 54.7252 26.0879L51.7467 27.8482Z" fill="#ABB4EC"/>
<path d="M38.9481 30.7098C38.9481 30.7098 38.3642 30.4769 38.2009 30.9652C38.0949 31.2815 37.8811 32.1174 37.7421 32.6648C37.7024 32.8234 37.6973 32.9887 37.7273 33.1494C37.7573 33.3102 37.8216 33.4626 37.9159 33.5962L38.3607 34.2183C38.2061 34.6121 38.1818 35.0452 38.2912 35.4538C38.2912 35.4538 37.6048 36.1489 37.6917 36.7641C37.6917 36.7641 36.8124 37.3237 37.0366 38.2551C37.2608 39.1865 39.8656 42.0086 39.8656 42.0086L41.5304 42.53L43.6731 40.9052C43.6731 40.9052 44.1579 38.2985 44.071 37.176C43.9667 35.8275 43.4628 35.6937 43.4628 35.6937L41.2211 33.584L40.4217 32.4475C40.4217 32.4475 39.6693 32.5657 39.8048 33.5371L39.134 33.0627L38.9603 32.2599C38.9603 32.2599 39.4538 31.2554 38.9481 30.7098Z" fill="#895F53"/>
<path d="M37.1147 26.0926C37.2503 26.1691 39.8587 33.7474 39.8587 33.7474L40.4912 34.0637L37.6847 25.9258L37.1147 26.0926Z" fill="#2D3259"/>
<path d="M39.5615 35.204C39.5896 35.2163 39.6164 35.2314 39.6415 35.2492L39.8604 35.3899L40.6615 35.9112C40.8353 36.019 41.0091 36.1389 41.2228 36.2588C41.3236 36.3196 41.4296 36.3787 41.5408 36.4326C41.6491 36.4934 41.7664 36.5362 41.8884 36.5594C41.9471 36.5674 42.007 36.5602 42.0622 36.5386C42.116 36.5119 42.1585 36.4669 42.1821 36.4117C42.2318 36.2843 42.2571 36.1488 42.2568 36.012C42.2648 35.9433 42.2648 35.8739 42.2568 35.8052C42.2368 35.7391 42.2056 35.6768 42.1647 35.621C42.0789 35.4992 41.9804 35.3868 41.871 35.2856C41.4468 34.8953 40.9905 34.5412 40.5069 34.2274C40.1205 33.9592 39.7138 33.7216 39.2905 33.5166C39.2106 33.4848 39.1233 33.477 39.039 33.4939C38.9548 33.5109 38.8773 33.552 38.816 33.6122C38.7137 33.7007 38.6242 33.803 38.5502 33.9163C38.4233 34.1022 38.3764 34.2169 38.366 34.2135C38.3726 34.1838 38.3831 34.1552 38.3972 34.1283C38.433 34.0485 38.4743 33.9713 38.5206 33.8972C38.5915 33.777 38.6799 33.668 38.783 33.574C38.8485 33.5127 38.9269 33.467 39.0124 33.4402C39.1114 33.4095 39.2182 33.4156 39.313 33.4575C39.7457 33.6535 40.1608 33.886 40.5538 34.1526C41.0475 34.4651 41.5127 34.8204 41.944 35.2144C42.0566 35.3199 42.1585 35.4363 42.2481 35.5619C42.2952 35.6265 42.3305 35.6989 42.3524 35.7757C42.3646 35.8521 42.3675 35.9297 42.3611 36.0068C42.3605 36.1557 42.3316 36.3032 42.2759 36.4413C42.2441 36.5163 42.1869 36.5779 42.1143 36.615C42.0436 36.6427 41.9669 36.6511 41.8919 36.6394C41.7593 36.6153 41.6318 36.5689 41.5148 36.5021C41.4018 36.4413 41.2958 36.3787 41.1933 36.3161C40.99 36.1928 40.8058 36.0694 40.6372 35.9582C40.3018 35.734 40.0342 35.5446 39.85 35.4125L39.6415 35.2578C39.5841 35.2283 39.5598 35.2074 39.5615 35.204Z" fill="#5C3B34"/>
<path d="M38.3816 36.5994C38.4314 36.5835 38.4826 36.5724 38.5345 36.5664L38.9707 36.4934L39.6658 36.9973C39.9508 37.2962 40.2914 37.649 40.6841 38.0174C40.7832 38.1095 40.8857 38.2033 40.9934 38.292C41.0929 38.3865 41.2114 38.4588 41.341 38.504C41.4062 38.5189 41.4744 38.5137 41.5365 38.4888C41.5986 38.464 41.6517 38.4208 41.6885 38.3649C41.7744 38.2462 41.8304 38.1085 41.8519 37.9635C41.857 37.893 41.8386 37.8227 41.7997 37.7637C41.7644 37.6953 41.7249 37.6292 41.6816 37.5656C41.5964 37.437 41.5078 37.3136 41.4105 37.1954C41.2228 36.9591 41.0299 36.7401 40.844 36.5334C40.5163 36.1667 40.1645 35.8225 39.7909 35.5029C39.6511 35.3795 39.4845 35.2903 39.3043 35.2422C39.1685 35.2089 39.0266 35.2089 38.8908 35.2422C38.774 35.274 38.6627 35.3232 38.5606 35.3882C38.581 35.3631 38.6057 35.342 38.6336 35.3256C38.7096 35.2743 38.7927 35.2345 38.8803 35.2074C39.0212 35.1644 39.1707 35.1578 39.3148 35.1883C39.5071 35.2308 39.6861 35.3197 39.8361 35.4473C40.2186 35.7624 40.5775 36.1051 40.91 36.4725C41.0994 36.6776 41.2941 36.8965 41.4852 37.1364C41.5791 37.2545 41.6729 37.3779 41.7615 37.51C41.805 37.5777 41.8484 37.6438 41.8866 37.7185C41.9346 37.7946 41.956 37.8844 41.9475 37.9739C41.925 38.1327 41.8654 38.2839 41.7737 38.4153C41.7234 38.4818 41.657 38.5345 41.5808 38.5683C41.5032 38.6007 41.4171 38.6068 41.3358 38.5856C41.1924 38.5368 41.0613 38.4574 40.9517 38.3528C40.8422 38.2624 40.7397 38.1668 40.6407 38.0747C40.2479 37.6994 39.9108 37.3431 39.631 37.0321L38.9481 36.5108H38.9637L38.5258 36.5629C38.4789 36.5791 38.4306 36.5913 38.3816 36.5994Z" fill="#5C3B34"/>
<path d="M41.1117 38.3785C41.1052 38.4301 41.0911 38.4805 41.07 38.528C41.0522 38.5874 41.0301 38.6455 41.004 38.7018C40.9814 38.7395 40.9512 38.7722 40.9153 38.7976C40.8794 38.823 40.8386 38.8407 40.7954 38.8495C40.5824 38.8812 40.3652 38.8712 40.156 38.8199C39.9086 38.7404 39.6708 38.6337 39.447 38.5019C39.162 38.3438 38.9013 38.1839 38.6789 38.0379H38.7293L38.6789 38.0866C38.6261 38.1488 38.5549 38.1927 38.4755 38.2117C38.4116 38.2322 38.3458 38.2468 38.2792 38.2551C38.1725 38.2684 38.0652 38.2748 37.9577 38.2743C37.8645 38.2837 37.7705 38.2736 37.6814 38.2447C37.705 38.2415 37.729 38.2415 37.7526 38.2447L37.9577 38.2343C38.0446 38.2343 38.1506 38.2169 38.2688 38.1961C38.3312 38.1849 38.3928 38.1692 38.453 38.1491C38.5152 38.1325 38.571 38.0974 38.6128 38.0484L38.6632 37.9962L38.6841 37.9736L38.7136 37.991C38.9378 38.13 39.2002 38.2864 39.4817 38.4428C39.6987 38.5709 39.9281 38.6769 40.1664 38.7591C40.3634 38.8114 40.5681 38.8285 40.7711 38.8095C40.8061 38.8031 40.8395 38.7898 40.8693 38.7704C40.8991 38.751 40.9248 38.7259 40.9449 38.6965C40.9779 38.6409 40.9988 38.5801 41.0214 38.5367C41.0424 38.4792 41.0729 38.4258 41.1117 38.3785Z" fill="#5C3B34"/>
<path d="M43.7478 40.2104L40.0186 42.0455L40.1923 45.5384C40.1923 45.5384 42.8615 45.8859 45.2318 42.8744L43.7478 40.2104Z" fill="#895F53"/>
<path d="M41.7876 64.4381C41.7944 64.4162 41.8025 64.3948 41.8119 64.3738L41.8901 64.1879L42.196 63.4772L43.3464 60.841C44.3334 58.5976 45.7114 55.4696 47.2789 51.9107V51.9298C47.2511 50.9723 47.2146 49.9731 47.1677 48.9548C47.0599 46.6575 46.9348 44.4696 46.8514 42.4799C46.768 40.4902 46.7159 38.6934 46.7002 37.1867C46.6846 35.6801 46.7002 34.4585 46.7002 33.6157L46.7228 32.646C46.7228 32.5382 46.7228 32.4548 46.7228 32.394C46.7228 32.3332 46.7228 32.3071 46.7228 32.3071C46.7243 32.3361 46.7243 32.3651 46.7228 32.394C46.7228 32.4548 46.7228 32.5382 46.7228 32.646C46.7228 32.8719 46.7228 33.1986 46.7228 33.6174C46.7228 34.4602 46.7228 35.6784 46.7437 37.185C46.7645 38.6916 46.8236 40.4867 46.9174 42.4747C47.0113 44.4627 47.126 46.654 47.2407 48.9513C47.2876 49.9696 47.3223 50.9688 47.3519 51.9281V51.9368V51.9472L43.3933 60.8636C42.9015 61.9775 42.5018 62.8707 42.2238 63.4963L41.904 64.1914C41.8693 64.2696 41.8397 64.3287 41.8206 64.3738C41.811 64.396 41.8 64.4175 41.7876 64.4381Z" fill="#2D3259"/>
<path d="M51.6163 44.7284C51.6088 44.7142 51.6036 44.699 51.6007 44.6832L51.5677 44.5477C51.5381 44.4225 51.4981 44.247 51.446 44.0263C51.3522 43.571 51.2166 42.909 51.0985 42.0853C50.9803 41.2616 50.8517 40.2763 50.7509 39.1797C50.6501 38.0832 50.5771 36.8737 50.5181 35.6035C50.4972 35.1308 50.4763 34.6651 50.4555 34.2133C50.4451 33.9856 50.4364 33.7614 50.426 33.5407L50.4103 33.2106V33.0472V32.9638C50.4103 32.9499 50.4103 32.9343 50.4103 32.9186V32.8891C50.4134 32.8826 50.4175 32.8768 50.4225 32.8717C50.4288 32.8656 50.4366 32.8611 50.4451 32.8587C50.4536 32.8563 50.4625 32.856 50.4711 32.8578C50.5024 32.8752 50.4937 32.8769 50.5024 32.8856L50.4399 32.8717L51.4165 32.1905V32.2618L50.3564 31.7648L50.3269 31.7509L50.3356 31.7213C50.4955 31.1183 50.6831 30.5831 50.8569 30.1087C51.0307 29.6343 51.1819 29.2259 51.3122 28.8923C51.4425 28.5586 51.5485 28.2962 51.6215 28.119C51.658 28.0355 51.6858 27.9678 51.7067 27.9174C51.7161 27.8941 51.7272 27.8714 51.7397 27.8496C51.7364 27.8743 51.7293 27.8983 51.7188 27.9209L51.6424 28.1277L51.3643 28.9149C51.241 29.252 51.0915 29.6638 50.9264 30.1313C50.7613 30.5987 50.5789 31.1426 50.4242 31.7404L50.4034 31.697L51.4669 32.1888L51.5312 32.2183L51.4738 32.26L50.5007 32.9447L50.4381 32.9308C50.4381 32.9308 50.4694 32.9082 50.4659 32.9082C50.4624 32.9082 50.4659 32.9082 50.4659 32.9082C50.4713 32.9133 50.4779 32.9169 50.485 32.9186H50.4989V32.9551V33.0333V33.1949C50.4989 33.3044 50.5094 33.4139 50.5163 33.5234C50.5267 33.7458 50.5354 33.97 50.5459 34.1976C50.5667 34.6512 50.5893 35.1169 50.6102 35.5878C50.6692 36.8564 50.744 38.0641 50.8361 39.1606C50.9282 40.2571 51.0429 41.2459 51.1593 42.0644C51.2757 42.8829 51.3991 43.5502 51.4825 44.0072C51.5277 44.232 51.5624 44.4057 51.5868 44.5285L51.6111 44.6658C51.6146 44.718 51.6163 44.7284 51.6163 44.7284Z" fill="#2D3259"/>
<path d="M46.874 43.1643C46.8583 43.1643 46.8514 43.0079 46.7662 42.7734C46.6583 42.468 46.4582 42.2037 46.1936 42.017C45.929 41.8302 45.613 41.7302 45.2891 41.7307C45.0406 41.7307 44.8895 41.7776 44.886 41.762C45.0103 41.699 45.148 41.6668 45.2874 41.6681C45.6281 41.6481 45.9656 41.7438 46.2451 41.9397C46.5246 42.1356 46.7297 42.4202 46.8271 42.7473C46.877 42.8803 46.8932 43.0236 46.874 43.1643Z" fill="#2D3259"/>
<path d="M45.5726 42.3059C45.5359 42.3948 45.4923 42.4808 45.4423 42.5631C45.3911 42.6637 45.3331 42.7607 45.2685 42.8533C45.192 42.961 45.1138 43.0913 45.0061 43.2182C44.954 43.2825 44.8983 43.3503 44.8427 43.4215C44.7871 43.4928 44.7159 43.5571 44.6498 43.63C44.5068 43.782 44.356 43.9264 44.198 44.0627C43.469 44.6883 42.6056 45.1373 41.6748 45.3747C41.4722 45.4268 41.2668 45.4674 41.0597 45.4964C40.9641 45.5103 40.8702 45.5277 40.7799 45.5346L40.5192 45.552C40.3693 45.5606 40.219 45.5606 40.0691 45.552C39.9564 45.5533 39.8437 45.5463 39.732 45.5311C39.6361 45.5249 39.5408 45.5109 39.447 45.4894C39.447 45.4668 39.8571 45.5311 40.514 45.4894L40.7712 45.4668C40.8615 45.4582 40.9537 45.439 41.0492 45.4251C41.2404 45.3991 41.442 45.3452 41.6522 45.2965C42.568 45.0526 43.4188 44.61 44.1442 44.0002C44.3019 43.8679 44.4527 43.7275 44.596 43.5797C44.662 43.5084 44.7315 43.4458 44.7889 43.3763C44.8462 43.3068 44.9036 43.2425 44.9626 43.18C45.371 42.6656 45.5535 42.2955 45.5726 42.3059Z" fill="#2D3259"/>
<path d="M41.5113 38.5298C41.5391 38.5298 41.5269 38.886 41.6468 39.3013C41.7667 39.7167 41.9614 40.0156 41.937 40.0312C41.762 39.8264 41.6334 39.5862 41.5599 39.3271C41.4864 39.0679 41.4698 38.7959 41.5113 38.5298Z" fill="#5C3B34"/>
<path d="M41.6329 36.561C41.6572 36.5697 41.6225 36.7174 41.5981 36.9086C41.5738 37.0997 41.5686 37.2422 41.5425 37.244C41.5165 37.2457 41.4817 37.091 41.5078 36.8964C41.5338 36.7018 41.6051 36.561 41.6329 36.561Z" fill="#5C3B34"/>
<path d="M68.7417 54.0551L72.2815 30.2322L65.7476 27.8376C65.7476 27.8376 64.2166 26.4301 63.4016 25.7002L63.1149 29.3842C63.1149 29.3842 62.2234 44.4453 63.6154 52.0271C65.0073 59.6089 64.8092 59.3552 65.8275 64.2904C66.5678 67.8806 66.6964 71.0173 67.8051 71.3335C68.9138 71.6498 72.7802 65.9969 72.7802 65.9969L68.7417 54.0551Z" fill="#ABB4EC"/>
<path d="M72.2747 30.2319C72.2747 30.2319 74.2558 31.2033 74.5512 33.9698C74.8136 36.4027 75.2463 51.3473 75.189 52.5481C75.1316 53.7489 74.0959 57.1584 72.2348 57.2765C69.2893 57.4642 68.4795 55.1912 68.4795 55.1912L69.2632 47.5608L72.2747 30.2319Z" fill="#ABB4EC"/>
<path d="M64.7816 43.9276V43.8824C64.7816 43.8477 64.7955 43.806 64.8059 43.7521C64.8302 43.6322 64.8632 43.4654 64.9049 43.2551C64.9831 42.8207 65.1031 42.1934 65.2143 41.4131C65.4471 39.8491 65.6452 37.6821 65.7599 35.2788C65.7877 34.7123 65.8138 34.158 65.8381 33.6228C65.8503 33.3551 65.8624 33.091 65.8746 32.8338C65.8746 32.7052 65.8885 32.5766 65.8937 32.4515C65.8937 32.389 65.8937 32.3264 65.9024 32.2638V32.1717C65.9033 32.1579 65.9033 32.1439 65.9024 32.13C65.9029 32.1254 65.9029 32.1208 65.9024 32.1161C65.9058 32.1195 65.9099 32.122 65.9144 32.1235C65.919 32.125 65.9238 32.1255 65.9285 32.1248C65.9389 32.1248 65.9563 32.1127 65.9528 32.1144L65.892 32.1266L64.9188 31.4419L64.8632 31.4019L64.9241 31.3741L65.9893 30.8841L65.9702 30.924C65.8749 30.4967 65.8023 30.0645 65.753 29.6294C65.7043 29.2454 65.6557 28.9152 65.6035 28.6493C65.5514 28.3834 65.494 28.1767 65.4523 28.0394C65.4315 27.9751 65.4141 27.9247 65.4019 27.883C65.3944 27.8658 65.3892 27.8477 65.3863 27.8291C65.3968 27.8446 65.405 27.8616 65.4106 27.8795C65.4245 27.9143 65.4471 27.9646 65.4715 28.0324C65.5417 28.2314 65.5997 28.4345 65.6452 28.6406C65.7026 28.9082 65.7564 29.2384 65.819 29.6207C65.8816 30.003 65.932 30.4392 66.0466 30.9067V30.9345L66.0206 30.9466L64.9606 31.4454V31.3776L65.9372 32.0588L65.8763 32.071V32.0588C65.8851 32.0498 65.8968 32.0442 65.9094 32.0431C65.9213 32.0423 65.9331 32.046 65.9424 32.0536L65.9511 32.064C65.952 32.0692 65.952 32.0745 65.9511 32.0796C65.952 32.09 65.952 32.1005 65.9511 32.1109C65.9511 32.13 65.9511 32.1457 65.9511 32.1613V32.2569V32.4463C65.9511 32.5732 65.9372 32.7 65.932 32.8286C65.9198 33.0875 65.9094 33.3499 65.8972 33.6175C65.8729 34.1539 65.8474 34.706 65.8207 35.2736C65.7372 37.3293 65.5458 39.3792 65.2473 41.4148C65.1291 42.1951 64.9988 42.8207 64.9102 43.2534C64.8598 43.4619 64.8215 43.6287 64.7937 43.7486L64.7625 43.8755C64.7719 43.8916 64.7784 43.9092 64.7816 43.9276Z" fill="#2D3259"/>
<g opacity="0.3">
<path opacity="0.3" d="M55.1734 56.2067C55.1734 56.2067 54.7268 56.7871 55.7086 56.9644C56.6904 57.1416 67.8051 56.3214 67.8051 56.3214L69.9182 57.5482L69.6419 56.662L67.8728 54.7817L55.1734 56.2067Z" fill="#2D3259"/>
</g>
<path d="M68.5316 37.7181L54.5357 38.4323C54.3768 38.4402 54.2265 38.5068 54.1139 38.6191C54.0012 38.7315 53.9342 38.8816 53.9258 39.0405L52.9961 55.6412C52.9911 55.7316 53.0052 55.822 53.0374 55.9066C53.0697 55.9912 53.1194 56.0681 53.1834 56.1322C53.2473 56.1963 53.324 56.2462 53.4085 56.2787C53.493 56.3111 53.5834 56.3255 53.6738 56.3207L67.2526 55.6099C67.4084 55.602 67.556 55.5377 67.6679 55.429C67.7798 55.3203 67.8484 55.1746 67.8608 55.0191L69.2058 38.4132C69.2131 38.3218 69.2008 38.23 69.1698 38.1437C69.1388 38.0575 69.0897 37.9789 69.0259 37.9131C68.9621 37.8473 68.885 37.7959 68.7998 37.7623C68.7146 37.7286 68.6231 37.7136 68.5316 37.7181Z" fill="#2D3259"/>
<path d="M71.4682 34.0796C71.4637 34.1298 71.4561 34.1797 71.4456 34.229C71.4248 34.335 71.397 34.4758 71.364 34.653L71.0564 36.217C70.8009 37.5325 70.4673 39.345 70.1475 41.3729C69.8278 43.4009 69.5845 45.2273 69.4229 46.5566C69.343 47.217 69.2787 47.7522 69.2335 48.1328C69.2109 48.3066 69.1935 48.456 69.1814 48.562C69.1768 48.6118 69.1687 48.6611 69.157 48.7097C69.1524 48.66 69.1524 48.61 69.157 48.5603C69.1675 48.4525 69.1779 48.31 69.1935 48.1293C69.2265 47.7557 69.2804 47.217 69.3534 46.5497C69.4994 45.2168 69.734 43.38 70.0485 41.3573C70.363 39.3345 70.714 37.5169 70.9851 36.2049C71.1207 35.548 71.2354 35.018 71.3205 34.653C71.3622 34.4793 71.3935 34.3368 71.4178 34.2325C71.4303 34.1802 71.4471 34.129 71.4682 34.0796Z" fill="#2D3259"/>
<path d="M68.8165 48.5898C68.8165 48.5898 69.6229 48.6367 70.3353 49.8288L71.6995 50.6977C71.6995 50.6977 72.8933 52.5727 71.6995 54.3244C70.5056 56.076 69.065 54.5868 69.065 54.5868C69.065 54.5868 67.6227 55.301 67.2213 55.1776C66.8199 55.0542 64.0933 53.5841 63.6867 53.247C63.5685 53.1462 62.6892 52.1365 62.6892 52.1365C62.6892 52.1365 61.4728 51.8759 61.3303 51.5961C61.1878 51.3163 61.1809 50.6768 62.0028 50.7394C62.0028 50.7394 61.2035 50.4978 61.1114 50.0947C61.0193 49.6915 61.1114 49.1667 62.5276 49.3683C63.9439 49.5699 66.6583 50.3241 66.9728 50.2476C67.0056 50.2291 67.0325 50.2015 67.05 50.1681C67.0676 50.1347 67.0752 50.097 67.0719 50.0594C67.0686 50.0218 67.0546 49.986 67.0314 49.9562C67.0083 49.9264 66.9771 49.9039 66.9415 49.8914C66.8407 49.8444 63.6398 48.6002 63.1272 48.4595C62.5728 48.3083 62.4929 47.0693 63.6398 47.3647C64.7867 47.6601 68.5229 48.5585 68.5229 48.5585L68.8165 48.5898Z" fill="#895F53"/>
<path d="M66.7087 53.3358C66.5076 53.2908 66.3096 53.2327 66.1161 53.162C65.7529 53.0421 65.2472 52.8822 64.6912 52.7189C64.1351 52.5555 63.6224 52.4217 63.2523 52.3261C63.0496 52.2829 62.8504 52.2248 62.6562 52.1524C62.7119 52.1519 62.7673 52.1583 62.8213 52.1715C62.9273 52.1889 63.0803 52.2184 63.2679 52.2566C63.6416 52.3366 64.1559 52.4617 64.7172 52.625C65.2785 52.7884 65.779 52.9604 66.137 53.0942C66.3107 53.162 66.4602 53.2176 66.5592 53.268C66.6118 53.2839 66.6621 53.3067 66.7087 53.3358Z" fill="#5C3B34"/>
<path d="M67.1676 51.8531C67.0978 51.855 67.028 51.8504 66.9591 51.8392C66.8253 51.8235 66.6307 51.7992 66.3926 51.7627C65.9165 51.6914 65.2596 51.5785 64.5402 51.4151C63.8207 51.2518 63.176 51.0971 62.712 50.9651C62.4792 50.9008 62.2932 50.8452 62.1647 50.8035C62.0965 50.7854 62.0302 50.7609 61.9666 50.7305C62.0367 50.7352 62.1061 50.7481 62.1733 50.7687L62.7277 50.9042C63.1951 51.0189 63.8416 51.1736 64.5593 51.3265C65.277 51.4794 65.9304 51.6046 66.403 51.6914L66.9643 51.7957C67.0344 51.8056 67.1027 51.8249 67.1676 51.8531Z" fill="#5C3B34"/>
<path d="M71.0478 51.5337C71.0554 51.5826 71.0554 51.6325 71.0478 51.6814C71.0415 51.8141 71.024 51.9461 70.9957 52.0759C70.8116 52.9509 70.3023 53.7235 69.5708 54.2376C69.4609 54.3151 69.3446 54.3831 69.2232 54.441C69.1381 54.4827 69.0894 54.5035 69.0877 54.4966C69.0859 54.4896 69.2614 54.3871 69.529 54.1855C69.8718 53.9217 70.1684 53.6029 70.4066 53.2419C70.6438 52.8798 70.8199 52.4812 70.9279 52.062C71.0166 51.7405 71.0305 51.532 71.0478 51.5337Z" fill="#5C3B34"/>
<path d="M71.4997 54.7817C71.4858 54.7695 71.6735 54.5888 71.8855 54.2326C72.1639 53.7705 72.3189 53.2446 72.3356 52.7054C72.3524 52.1662 72.2303 51.6317 71.9811 51.1533C71.7934 50.7849 71.6162 50.592 71.6336 50.5815C71.6817 50.6188 71.7244 50.6627 71.7604 50.7119C71.8673 50.8402 71.9621 50.978 72.0437 51.1237C72.3147 51.6071 72.4487 52.1554 72.4312 52.7093C72.4138 53.2632 72.2455 53.8019 71.9446 54.2673C71.8552 54.4071 71.7534 54.5385 71.6405 54.66C71.5993 54.7067 71.5519 54.7476 71.4997 54.7817Z" fill="#2D3259"/>
<path d="M74.6501 48.8223C74.6397 48.838 74.4208 48.6694 74.0263 48.4748C73.795 48.3636 73.555 48.2718 73.3086 48.2002C73.0086 48.1155 72.7015 48.0585 72.3911 48.0299C72.0776 48.0093 71.7628 48.018 71.4509 48.056C71.197 48.0895 70.9464 48.1448 70.702 48.2211C70.2832 48.3532 70.0416 48.487 70.0347 48.4696C70.085 48.4302 70.1398 48.397 70.198 48.3705C70.2634 48.3327 70.3313 48.2996 70.4013 48.2715C70.4926 48.2295 70.586 48.1924 70.6811 48.1603C70.9277 48.0739 71.182 48.0116 71.4405 47.9743C71.7577 47.9306 72.0785 47.919 72.398 47.9396C72.7169 47.9663 73.0324 48.0245 73.3399 48.1133C73.5896 48.1897 73.8316 48.2891 74.0628 48.4105C74.1516 48.4565 74.238 48.5069 74.3217 48.5617C74.387 48.6003 74.4497 48.6433 74.5094 48.6903C74.5616 48.7282 74.6089 48.7726 74.6501 48.8223Z" fill="#2D3259"/>
<g opacity="0.3">
<path opacity="0.3" d="M65.5045 28.1382C65.5045 28.1382 66.6844 30.8908 66.5193 31.1202C66.3542 31.3495 65.7339 31.5129 65.7339 31.5129C65.7339 31.5129 66.7504 31.9508 66.7487 32.3418C66.7487 33.1186 65.6591 37.7167 65.6591 37.7167L65.9285 32.1003L64.9536 31.4173L66.0154 30.9238L65.5045 28.1382Z" fill="#2D3259"/>
</g>
<path d="M68.4743 38.3096C68.4485 38.314 68.4224 38.3169 68.3961 38.3183L68.165 38.3357L67.277 38.3948L64.0135 38.5929L59.1704 38.8744L56.3118 39.0377L55.5611 39.0794L55.1823 39.102C55.1197 39.102 55.0502 39.102 54.9946 39.1125C54.9394 39.1205 54.8876 39.144 54.8452 39.1802C54.8025 39.2171 54.7712 39.2653 54.7548 39.3193C54.7423 39.3764 54.7353 39.4346 54.7339 39.493L54.7079 39.8806L54.6557 40.6643C54.3655 44.8679 54.1031 48.6718 53.9137 51.4383C53.8147 52.8129 53.74 53.9268 53.6791 54.7001C53.6496 55.0824 53.6253 55.3796 53.6096 55.5863C53.6009 55.6854 53.594 55.7601 53.5905 55.8175C53.587 55.8748 53.5801 55.8957 53.5801 55.8957C53.5801 55.8957 53.5801 55.8696 53.5801 55.8175C53.5801 55.7653 53.5801 55.6837 53.5922 55.5863C53.6044 55.3778 53.6218 55.0807 53.6426 54.6984C53.6913 53.9233 53.7625 52.8094 53.8494 51.4349C54.0336 48.6753 54.2856 44.8696 54.5654 40.6608C54.5828 40.399 54.6001 40.1383 54.6175 39.8788L54.6436 39.4913C54.6446 39.4229 54.6527 39.3547 54.6679 39.288C54.6907 39.2204 54.7316 39.1603 54.7861 39.1142C54.8421 39.0672 54.9101 39.0365 54.9824 39.0256C55.0537 39.0256 55.111 39.0256 55.1771 39.0134L55.5559 38.9926L56.3066 38.9509L59.1669 38.7927L64.0101 38.5303L67.2753 38.3565L68.1633 38.3148L68.3944 38.3062L68.4743 38.3096Z" fill="#737690"/>
</svg>
