<svg width="273" height="235" viewBox="0 0 273 235" fill="none" xmlns="http://www.w3.org/2000/svg">
<path d="M263.477 221.503C263.477 221.076 204.494 220.71 131.748 220.71C59.0017 220.71 0 221.076 0 221.503C0 221.931 58.977 222.297 131.748 222.297C204.518 222.297 263.477 221.962 263.477 221.503Z" fill="#0E1339"/>
<path d="M30.653 39.1107L32.0713 36.7675C44.0488 16.9613 65.6982 5.02257 88.5267 6.46951C91.4708 6.65446 94.3973 7.05782 97.2822 7.67627C118.021 12.1226 136.075 27.8808 143.564 48.056C147.965 59.9185 149.196 73.5796 157.572 82.9935C168.447 95.2486 186.903 95.6352 203.136 95.1256C219.369 94.6159 237.831 95.0553 248.664 107.357C255.441 115.066 257.595 126.021 257.046 136.343C255.605 163.665 236.617 188.093 212.504 200.237C188.392 212.381 159.971 213.47 133.571 208.128C96.5817 200.647 61.408 180.097 40.2606 148.375C19.1132 116.654 13.7315 73.3687 30.653 39.1107Z" fill="#F4F5FB"/>
<path d="M22.111 158.006L23.1777 155.608L24.6324 157.812C25.7875 159.578 27.4261 160.973 29.352 161.83L31.7442 162.899L29.5459 164.357C27.7826 165.514 26.3906 167.157 25.5375 169.089L24.4384 171.487L23.0161 169.283C21.845 167.531 20.2109 166.14 18.2965 165.265L15.8721 164.195L18.0702 162.737C19.8418 161.581 21.2444 159.939 22.111 158.006Z" fill="#E6E8F3"/>
<path d="M15.6416 100.082L17.7963 95.2703L20.6822 99.697C23.0008 103.217 26.2697 106.006 30.1093 107.742L34.919 109.859L30.4941 112.746C26.9815 115.089 24.1955 118.369 22.4521 122.215L20.2974 127.027L17.4115 122.6C15.0929 119.081 11.8241 116.291 7.98453 114.555L3.1748 112.4L7.59973 109.513C11.1179 107.193 13.9063 103.923 15.6416 100.082Z" fill="#E6E8F3"/>
<path d="M56.9487 127.464L58.5667 123.851L60.7338 127.146C62.4664 129.797 64.9234 131.894 67.8127 133.188L71.4243 134.806L68.1305 136.974C65.4735 138.699 63.3753 141.159 62.0917 144.056L60.4737 147.669L58.3067 144.374C56.5701 141.716 54.1015 139.618 51.199 138.333L47.6162 136.714L50.91 134.546C53.5593 132.813 55.6553 130.355 56.9487 127.464Z" fill="#E6E8F3"/>
<path d="M64.3506 187.522C64.3506 187.522 68.117 189.959 69.857 189.874C71.5971 189.79 78.4394 181.306 78.4394 181.306L74.8751 178.61L66.0962 180.065L64.3618 187.443" fill="#161B46"/>
<path d="M139.022 63.0813C139.767 65.9027 139.794 68.8657 139.1 71.7002C138.407 74.5347 137.016 77.1506 135.054 79.3095C133.252 81.2524 130.956 82.8415 129.817 85.2336C128.554 87.884 128.963 91.0005 128.402 93.8868C127.841 96.773 125.393 99.839 122.587 99.1427C125.248 103.073 129.289 105.943 133.622 107.914C137.955 109.885 142.603 111.041 147.223 112.193C149.793 112.827 152.566 113.456 155.025 112.468C158.207 111.193 159.79 107.695 161.064 104.511L172.167 76.7658" fill="#161B46"/>
<path d="M177.034 52.0192C177.032 50.9787 176.64 49.9769 175.935 49.2117C175.231 48.4464 174.265 47.9735 173.228 47.8863L153.656 38.9019C146.589 38.3066 139.533 50.9579 139.241 58.0444C138.916 65.9058 139.937 75.3844 140.993 81.2299C143.114 92.9883 151.046 93.2129 151.046 93.2129L151.719 112.238L176.282 112.193L177.034 52.0192Z" fill="#B5715A"/>
<path d="M144.394 67.4498C144.399 67.8441 144.559 68.2207 144.837 68.4995C145.116 68.7784 145.492 68.9376 145.887 68.9434C146.079 68.954 146.272 68.926 146.453 68.8611C146.635 68.7962 146.802 68.6957 146.944 68.5655C147.086 68.4352 147.201 68.2779 147.281 68.1027C147.362 67.9275 147.407 67.738 147.413 67.5452C147.409 67.1514 147.251 66.7748 146.973 66.4958C146.695 66.2168 146.32 66.0574 145.926 66.0515C145.733 66.0394 145.539 66.0663 145.357 66.1305C145.174 66.1948 145.006 66.2951 144.863 66.4256C144.72 66.5561 144.605 66.714 144.524 66.8899C144.444 67.0659 144.399 67.2562 144.394 67.4498Z" fill="#161B46"/>
<path d="M142.457 63.4294C142.619 63.5698 143.809 63.3789 145.398 63.7326C146.986 64.0864 148.081 64.7602 148.272 64.6985C148.362 64.6704 148.204 64.4458 147.711 64.1369C147.005 63.7117 146.232 63.408 145.426 63.2385C144.654 63.0579 143.855 63.0199 143.069 63.1262C142.563 63.216 142.372 63.3845 142.457 63.4294Z" fill="#161B46"/>
<path d="M159.739 66.6638C159.744 67.0591 159.902 67.4371 160.181 67.7172C160.46 67.9973 160.837 68.1573 161.232 68.1631C161.425 68.1737 161.618 68.1457 161.799 68.0808C161.981 68.0159 162.147 67.9154 162.29 67.7851C162.432 67.6549 162.547 67.4976 162.627 67.3224C162.708 67.1472 162.753 66.9576 162.759 66.7649C162.755 66.3705 162.597 65.9934 162.319 65.7134C162.042 65.4335 161.666 65.2729 161.272 65.2656C161.079 65.255 160.886 65.283 160.704 65.3478C160.522 65.4127 160.355 65.5131 160.212 65.6432C160.07 65.7734 159.954 65.9307 159.873 66.1059C159.792 66.2811 159.746 66.4708 159.739 66.6638Z" fill="#161B46"/>
<path d="M157.511 64.3168C157.747 64.3729 158.774 63.5475 160.469 63.0534C162.164 62.5592 163.573 62.6547 163.719 62.4918C163.792 62.4132 163.523 62.2728 162.905 62.2223C162.01 62.1694 161.113 62.2759 160.256 62.5368C159.422 62.7598 158.639 63.141 157.949 63.6598C157.505 64.0473 157.387 64.3 157.511 64.3168Z" fill="#161B46"/>
<path d="M151.775 75.1768C151.775 75.0814 150.764 74.9298 149.12 74.7557C148.704 74.722 148.312 74.649 148.233 74.3626C148.191 73.9348 148.279 73.5043 148.486 73.1273C148.856 72.1109 149.243 71.0496 149.647 69.9322C151.258 65.3894 152.415 61.6608 152.229 61.5935C152.044 61.5261 150.59 65.1648 148.979 69.7075C148.598 70.8306 148.227 71.8975 147.857 72.9139C147.605 73.422 147.541 74.0029 147.677 74.5535C147.74 74.7082 147.839 74.8456 147.966 74.954C148.093 75.0625 148.244 75.1389 148.407 75.1768C148.638 75.233 148.876 75.2594 149.114 75.2554C150.759 75.2948 151.775 75.2779 151.775 75.1768Z" fill="#161B46"/>
<path d="M151.045 93.3476C156.604 93.3165 162.045 91.7419 166.762 88.7992C166.762 88.7992 163.298 97.4804 151.477 96.6269L151.045 93.3476Z" fill="#884C3B"/>
<path d="M152.14 79.1355C152.462 78.5721 152.906 78.0876 153.439 77.7175C153.972 77.3474 154.581 77.1009 155.221 76.9961C155.594 76.9531 155.971 77.024 156.302 77.1994C156.634 77.3748 156.905 77.6465 157.079 77.9788C157.266 78.4138 157.345 78.8875 157.31 79.3596C157.275 79.8318 157.126 80.2885 156.877 80.691C156.637 81.1143 156.279 81.4581 155.846 81.6796C155.413 81.9012 154.924 81.9909 154.441 81.9376C153.641 81.7272 152.922 81.2835 152.375 80.6629C152.189 80.5139 152.042 80.321 151.949 80.1014C151.9 79.9604 151.885 79.8102 151.903 79.6622C151.922 79.5143 151.974 79.3726 152.055 79.2479" fill="#884C3B"/>
<path d="M156.602 76.2099C156.333 76.2099 156.366 77.9675 154.884 79.2534C153.403 80.5393 151.517 80.3765 151.517 80.6348C151.517 80.7471 151.943 80.9661 152.74 80.9717C153.77 80.9609 154.763 80.5893 155.547 79.9216C156.3 79.2746 156.775 78.3612 156.871 77.3723C156.928 76.6311 156.72 76.1987 156.602 76.2099Z" fill="#161B46"/>
<path d="M156.265 56.5844C156.479 57.0056 158.067 56.5844 159.987 56.5844C161.906 56.5844 163.506 56.9101 163.714 56.4834C163.798 56.2812 163.484 55.9218 162.816 55.5512C161.927 55.1296 160.954 54.9165 159.971 54.9282C158.987 54.9399 158.019 55.176 157.141 55.6186C156.484 55.9948 156.175 56.3823 156.265 56.5844Z" fill="#161B46"/>
<path d="M140.98 61.4586C141.345 61.8236 142.732 61.4025 144.404 61.3407C146.077 61.2789 147.503 61.5148 147.823 61.1161C147.957 60.9252 147.727 60.5546 147.099 60.2289C146.227 59.8022 145.26 59.6088 144.292 59.6673C143.333 59.6991 142.399 59.9796 141.581 60.4816C141.008 60.8971 140.823 61.2846 140.98 61.4586Z" fill="#161B46"/>
<path d="M189.096 81.157C188.08 75.9235 184.903 59.1562 180.222 50.4132C175.54 41.6702 170.191 38.2168 164.994 36.9365C163.02 36.4001 160.942 36.3818 158.96 36.8835C156.978 37.3851 155.158 38.3898 153.678 39.8003C151.393 41.9454 150.736 48.0436 150.736 48.0436C150.736 48.0436 163.27 50.5199 167.632 57.5334C172.65 65.5858 173.913 69.6681 173.913 69.6681L175.597 74.0985C175.597 74.0985 176.921 95.6669 176.483 99.9289L195.31 106.729C191.268 98.4127 190.118 86.4072 189.096 81.157Z" fill="#161B46"/>
<path d="M151.505 47.9482C151.505 47.9482 143.243 47.5214 140.796 55.6355C139.673 59.3079 139.561 69.9826 139.561 69.9826C139.561 69.9826 137.793 61.5204 138.062 56.7417C138.332 51.9631 140.571 45.8818 144.147 42.4564C147.621 39.1266 150.585 37.5318 156.944 37.7677C156.944 37.7677 156.035 39.5758 154.469 42.0241C153.683 43.2538 152.448 43.3886 151.505 47.9482Z" fill="#161B46"/>
<path d="M173.84 70.2912C173.913 67.6745 176.714 65.8664 179.004 67.1242C180.261 67.8093 181.249 69.2299 181.199 72.0095C181.069 79.4048 173.671 77.7483 173.66 77.535C173.666 77.4226 173.761 73.3516 173.84 70.2912Z" fill="#B5715A"/>
<path d="M175.967 74.7725C176.001 74.7725 176.096 74.868 176.315 74.969C176.618 75.1052 176.962 75.1192 177.275 75.0083C178.061 74.7332 178.74 73.5034 178.801 72.2007C178.83 71.5661 178.717 70.9331 178.47 70.3476C178.407 70.1152 178.287 69.902 178.121 69.7267C177.956 69.5514 177.75 69.4195 177.522 69.3425C177.374 69.2989 177.216 69.3088 177.076 69.3704C176.935 69.4321 176.821 69.5415 176.753 69.6794C176.652 69.8872 176.697 70.0332 176.657 70.0444C176.618 70.0557 176.5 69.9209 176.567 69.6177C176.608 69.4334 176.714 69.27 176.865 69.1572C177.071 69.0087 177.327 68.9463 177.578 68.9831C177.881 69.0474 178.163 69.1885 178.396 69.3931C178.629 69.5976 178.805 69.8587 178.908 70.1511C179.21 70.7985 179.351 71.5095 179.318 72.2232C179.245 73.7112 178.453 75.0926 177.381 75.3846C177.182 75.4381 176.973 75.4463 176.77 75.4084C176.567 75.3705 176.375 75.2875 176.208 75.1656C175.978 74.9522 175.944 74.7837 175.967 74.7725Z" fill="#884C3B"/>
<path d="M159.88 36.7064C159.88 36.7626 159.038 36.9423 157.758 37.5094C156.09 38.2494 154.654 39.4296 153.605 40.9235C152.573 42.4284 151.768 44.0761 151.213 45.8144C150.764 47.1452 150.54 47.9931 150.489 47.9763C150.5 47.7709 150.534 47.5675 150.59 47.3698C150.669 46.9824 150.82 46.4321 151.017 45.7527C151.521 43.967 152.315 42.2766 153.369 40.7494C153.964 39.9115 154.683 39.1692 155.502 38.5482C156.171 38.0484 156.901 37.6353 157.674 37.3185C157.968 37.1932 158.27 37.0863 158.578 36.9984C158.805 36.9186 159.038 36.8548 159.274 36.8075C159.47 36.7471 159.674 36.7131 159.88 36.7064Z" fill="#0064A7"/>
<path d="M185.818 93.9768C185.788 93.9275 185.766 93.8746 185.75 93.8196C185.705 93.7016 185.655 93.5444 185.582 93.3535C185.373 92.7492 185.212 92.1297 185.099 91.5005C184.769 89.1761 184.769 86.8169 185.099 84.4926C185.251 83.0157 185.464 81.4042 185.604 79.6746C185.786 77.8388 185.75 75.9879 185.498 74.1604C185.16 72.1529 184.456 70.2247 183.421 68.4721C182.308 66.5882 180.938 64.8684 179.351 63.3622C176.101 60.2345 172.307 58.1063 168.883 56.242C165.459 54.3778 162.293 52.7718 159.79 51.1883C157.808 49.9426 155.895 48.5911 154.059 47.1397C153.408 46.6231 152.936 46.2075 152.588 45.9268L152.212 45.6011C152.134 45.5225 152.089 45.4832 152.094 45.4775L152.235 45.5786C152.336 45.6572 152.465 45.7527 152.622 45.8818L154.132 47.0498C155.445 48.0493 157.382 49.4588 159.902 51.0142C162.422 52.5696 165.549 54.1812 169.012 56.0174C172.475 57.8536 176.264 59.9987 179.553 63.1657C181.158 64.6913 182.545 66.4317 183.673 68.3374C184.721 70.1242 185.43 72.0885 185.767 74.1324C186.014 75.9814 186.04 77.8531 185.846 79.7083C185.694 81.4491 185.47 83.0775 185.284 84.5206C184.944 86.8311 184.915 89.1768 185.2 91.4948C185.304 92.1208 185.446 92.7397 185.627 93.3479C185.688 93.5444 185.733 93.696 185.767 93.8196C185.788 93.8705 185.805 93.9231 185.818 93.9768Z" fill="#0064A7"/>
<path d="M67.0791 178.144C67.2086 178.027 67.3565 177.932 67.5169 177.864C67.9386 177.637 68.3801 177.449 68.836 177.302C70.3505 176.816 71.9649 176.729 73.5229 177.049C75.0779 177.377 76.5245 178.094 77.7271 179.133C78.0868 179.444 78.4175 179.788 78.715 180.16C78.9283 180.43 79.0237 180.587 79.0069 180.598C78.99 180.609 78.5185 180.037 77.5924 179.295C76.393 178.321 74.9772 177.649 73.4641 177.336C71.951 177.024 70.3849 177.079 68.8977 177.499C67.7527 177.824 67.1016 178.195 67.0791 178.144Z" fill="#161B46"/>
<path d="M75.1895 173.961C75.5712 174.155 75.9182 174.411 76.2166 174.719C77.7437 176.119 78.8219 177.94 79.3151 179.952C79.4401 180.361 79.4988 180.788 79.4891 181.216C79.1165 179.847 78.5833 178.528 77.9006 177.285C77.1317 176.073 76.2216 174.958 75.1895 173.961Z" fill="#161B46"/>
<path d="M118.051 222.135C118.051 222.135 124.012 193.098 136.647 187.483L186.743 186.011C186.743 186.011 203.296 197.102 205.946 222.297L118.051 222.135Z" fill="#161B46"/>
<path d="M151.292 98.452C151.292 98.452 152.768 107.745 162.68 106.622C172.593 105.499 176.472 99.9569 176.472 99.9569L190.246 104.376L192.413 131.032C184.558 146.334 180.152 163.173 179.503 180.362C179.391 183.243 179.29 186.404 177.37 188.555C176.191 189.88 174.485 190.605 172.801 191.177C167.439 192.972 161.768 193.658 156.133 193.194C150.498 192.729 145.017 191.124 140.021 188.476C140.021 188.476 135.811 142.869 136.327 141.577C136.844 140.286 143.736 101.917 143.736 101.917L151.292 98.452Z" fill="#E6E8F3"/>
<path d="M136.647 100.558C136.647 100.558 127.891 101.175 125.544 102.349C123.198 103.523 92.5004 142.049 91.3048 142.639C90.3281 143.127 72.0576 160.113 64.5192 176.555C63.0318 179.795 61.8811 184.416 64.3284 187.482C64.3284 187.482 73.1297 176.426 78.4172 181.278L102.059 157.306L126.757 142.897L136.647 100.558Z" fill="#0064A7"/>
<g opacity="0.3">
<path opacity="0.3" d="M145.6 175.853C155.995 155.773 155.995 126.675 151.039 99.957L146.593 137.922L145.6 175.853Z" fill="#0E1339"/>
</g>
<path d="M123.182 107.599L123.962 140.168C123.962 140.168 127.077 176.252 127.678 176.252C128.278 176.252 130.024 188.965 127.678 194.636C125.332 200.308 117.709 207.939 117.709 207.939L127.29 218.305C127.29 218.305 136.271 204.025 139.022 194.833C141.772 185.641 149.384 171.76 150.557 145.929C151.73 120.099 151.247 94.8975 151.247 94.8975L143.714 100.356L136.473 100.507L123.182 107.599Z" fill="#0064A7"/>
<path d="M140.549 193.098C140.549 193.098 140.549 192.991 140.627 192.789C140.706 192.587 140.768 192.278 140.88 191.891L141.828 188.426C142.625 185.411 143.754 181.036 144.798 175.561C145.32 172.827 145.819 169.811 146.162 166.577C146.324 164.948 146.448 163.258 146.487 161.523C146.542 159.734 146.444 157.944 146.195 156.172C146.057 155.257 145.841 154.355 145.55 153.476C145.252 152.584 144.989 151.674 144.59 150.787L144.029 149.439L143.422 148.103C143.03 147.204 142.581 146.317 142.137 145.419C140.341 141.842 138.242 138.253 135.963 134.66C133.998 131.554 131.983 128.561 129.94 125.731L129.861 125.619L129.968 125.535L144.624 113.501L144.719 113.726L131.809 115.214L131.551 115.242L131.714 115.04C135.401 110.548 138.393 106.864 140.464 104.32L142.85 101.417L143.479 100.665C143.625 100.496 143.703 100.418 143.703 100.418L143.501 100.687L142.9 101.456L140.549 104.337L131.876 115.118L131.781 114.95L144.691 113.417L145.123 113.366L144.786 113.642L130.148 125.714L130.176 125.518C132.224 128.354 134.24 131.347 136.21 134.457C138.455 138.057 140.588 141.651 142.384 145.25C142.833 146.149 143.282 147.036 143.675 147.945L144.281 149.287L144.843 150.641C145.224 151.534 145.505 152.449 145.808 153.347C146.099 154.241 146.314 155.158 146.454 156.088C146.701 157.875 146.795 159.68 146.734 161.484C146.695 163.236 146.566 164.932 146.397 166.566C146.044 169.834 145.533 172.849 145 175.589C143.922 181.07 142.755 185.439 141.935 188.448C141.514 189.948 141.172 191.11 140.93 191.896C140.807 192.278 140.717 192.576 140.65 192.789C140.582 193.002 140.549 193.098 140.549 193.098Z" fill="#161B46"/>
<path d="M176.472 91.9608C176.472 91.9608 181.322 99.4404 181.827 99.957C181.827 99.957 202.315 105.758 203.527 108.2C208.512 118.274 204.487 121.896 203.527 135.743C202.332 152.954 196.573 176.909 196.573 176.909C196.573 176.909 204.678 208.158 205.554 209.882C206.429 211.606 177.966 222.078 174.946 218.136C171.926 214.194 169.563 200.617 169.563 200.617C169.563 200.617 166.756 173.029 167.84 162.04C168.923 151.051 174.014 139.753 175.81 126.478C177.64 112.451 176.472 91.9608 176.472 91.9608Z" fill="#0064A7"/>
<path d="M168.866 168.952C168.872 168.815 168.893 168.68 168.928 168.547C168.99 168.261 169.068 167.879 169.164 167.424C169.259 166.97 169.411 166.301 169.562 165.622C169.714 164.942 170.028 164.151 170.303 163.292C171.877 158.84 174.012 154.607 176.657 150.696C179.299 146.788 182.278 143.118 185.559 139.73C186.822 138.433 187.889 137.428 188.647 136.754C189.023 136.417 189.331 136.192 189.539 136.001C189.643 135.914 189.756 135.839 189.876 135.777C189.876 135.777 188.192 137.248 185.711 139.87C182.485 143.29 179.539 146.965 176.904 150.859C174.277 154.747 172.125 158.936 170.494 163.336C170.213 164.19 169.933 164.959 169.719 165.644C169.506 166.329 169.399 166.93 169.276 167.43C169.152 167.93 169.057 168.272 168.984 168.553C168.955 168.689 168.915 168.822 168.866 168.952Z" fill="#161B46"/>
<path d="M181.805 100.305C181.888 100.424 181.958 100.552 182.012 100.687C182.147 100.968 182.327 101.344 182.574 101.81C183.04 102.821 183.696 104.236 184.51 105.971C184.918 106.854 185.36 107.813 185.835 108.846L186.576 110.446C186.823 111.008 187.103 111.569 187.311 112.165C188.209 114.568 189.197 117.218 190.236 119.964L192.559 126.208L192.615 126.36L192.458 126.394L186.986 127.579L187.064 127.41L189.815 133.452C190.123 134.16 190.376 134.727 190.561 135.137L190.746 135.586C190.771 135.635 190.788 135.688 190.797 135.743C190.763 135.7 190.735 135.653 190.713 135.603L190.494 135.17L189.691 133.514L186.851 127.511L186.783 127.376L186.935 127.343L192.397 126.124L192.301 126.309L189.944 120.099C188.916 117.331 187.94 114.697 187.047 112.299C186.84 111.687 186.565 111.131 186.318 110.575L185.599 108.969L184.331 106.061C183.562 104.314 182.927 102.888 182.478 101.872L181.99 100.749C181.916 100.606 181.854 100.458 181.805 100.305Z" fill="#161B46"/>
<path d="M195.293 173.41C195.293 173.41 205.773 183.894 211.161 183.293C216.55 182.693 223.588 171.013 223.588 166.97C223.588 162.927 218.537 136.861 218.537 136.861L220.63 127.051L200.985 126.674L197.055 156.89L195.293 173.41Z" fill="#0064A7"/>
<path d="M208.04 103.377C208.026 103.452 208.004 103.526 207.973 103.596L207.737 104.219L207.344 105.23C207.17 105.623 206.979 106.078 206.755 106.583C206.3 107.6 205.705 108.829 204.959 110.222C204.212 111.614 203.275 113.159 202.152 114.798C199.513 118.651 196.386 122.147 192.851 125.198C190.773 127.01 188.538 128.634 186.172 130.049C183.632 131.591 180.855 132.705 177.954 133.346C175.034 133.98 172.005 133.907 169.119 133.132C167.751 132.752 166.442 132.186 165.229 131.448C164.073 130.731 163.028 129.849 162.125 128.831C160.515 126.919 159.13 124.828 158 122.598C156.877 120.548 155.856 118.622 155.002 116.825C154.224 115.211 153.547 113.549 152.976 111.85C152.552 110.566 152.222 109.252 151.988 107.92C151.785 106.784 151.694 105.631 151.719 104.477C151.725 104.554 151.725 104.631 151.719 104.708C151.719 104.87 151.719 105.089 151.758 105.37C151.821 106.219 151.927 107.065 152.078 107.903C152.329 109.226 152.675 110.531 153.111 111.805C153.697 113.49 154.383 115.138 155.165 116.741C156.03 118.527 157.062 120.442 158.191 122.486C159.318 124.696 160.697 126.769 162.299 128.662C163.189 129.656 164.218 130.517 165.353 131.217C166.546 131.937 167.832 132.488 169.175 132.857C172.016 133.614 174.997 133.683 177.87 133.059C180.74 132.423 183.487 131.323 186.003 129.802C188.356 128.397 190.582 126.789 192.655 124.996C196.181 121.967 199.306 118.5 201.956 114.68C203.078 113.052 204.01 111.508 204.796 110.143C205.582 108.779 206.16 107.543 206.631 106.538C206.861 106.033 207.064 105.584 207.243 105.196L207.658 104.197L207.922 103.585C207.954 103.511 207.993 103.441 208.04 103.377Z" fill="#161B46"/>
<path d="M203.891 104.096C203.792 104.227 203.681 104.349 203.56 104.46L202.583 105.46L198.924 109.093L193.518 114.484C192.434 115.538 191.246 116.479 189.971 117.291C188.594 118.188 187.024 118.748 185.391 118.925C183.746 119.119 182.081 118.799 180.625 118.01C179.954 117.629 179.366 117.117 178.896 116.505C178.427 115.892 178.085 115.192 177.892 114.444C177.56 113.11 177.406 111.737 177.431 110.362C177.431 109.082 177.476 107.891 177.499 106.802C177.603 105.094 177.482 103.38 177.139 101.703C177.021 101.255 176.861 100.819 176.662 100.401C176.589 100.255 176.523 100.105 176.466 99.9514C176.561 100.084 176.644 100.225 176.713 100.373C176.938 100.786 177.117 101.223 177.246 101.675C177.637 103.356 177.792 105.084 177.706 106.808C177.706 107.897 177.656 109.087 177.673 110.362C177.659 111.712 177.82 113.057 178.15 114.366C178.336 115.078 178.664 115.746 179.113 116.33C179.563 116.913 180.124 117.401 180.765 117.763C182.173 118.517 183.777 118.821 185.363 118.633C186.951 118.46 188.477 117.918 189.819 117.05C191.081 116.246 192.258 115.317 193.333 114.276C194.377 113.299 195.309 112.294 196.235 111.418C197.161 110.542 198.009 109.7 198.789 108.941L202.505 105.37L203.521 104.41C203.638 104.298 203.762 104.193 203.891 104.096Z" fill="#161B46"/>
<path d="M129.552 180.424C129.534 180.375 129.523 180.324 129.519 180.272L129.451 179.818C129.401 179.396 129.328 178.807 129.232 178.066C129.041 176.516 128.772 174.32 128.441 171.614C127.778 166.167 126.841 158.637 125.96 150.309C125.516 146.143 125.146 142.173 124.837 138.551C124.528 134.929 124.332 131.672 124.214 128.926C124.136 127.556 124.096 126.315 124.063 125.226C124.029 124.136 124.001 123.199 124.001 122.418C124.001 121.638 124.001 121.076 124.001 120.649V120.194C123.996 120.142 123.996 120.09 124.001 120.037C124.008 120.088 124.008 120.139 124.001 120.189C124.001 120.312 124.001 120.464 124.029 120.649C124.029 121.076 124.051 121.666 124.096 122.418C124.096 123.182 124.152 124.103 124.209 125.226C124.265 126.349 124.315 127.556 124.399 128.921C124.545 131.661 124.798 134.918 125.09 138.534C125.382 142.15 125.78 146.12 126.212 150.287C127.099 158.609 128.003 166.139 128.609 171.591C128.901 174.303 129.17 176.51 129.311 178.054C129.384 178.801 129.44 179.391 129.479 179.818C129.479 180.005 129.49 180.156 129.513 180.272C129.534 180.32 129.548 180.372 129.552 180.424Z" fill="#161B46"/>
<path d="M220.653 127.051H219.216L215.186 127.011L200.985 126.798L201.119 126.691C200.322 130.908 199.677 135.715 199.177 140.797C198.29 150.124 197.92 158.603 197.465 164.729C197.246 167.795 197.039 170.272 196.904 171.979C196.82 172.821 196.747 173.478 196.702 173.95C196.674 174.157 196.657 174.326 196.64 174.461C196.636 174.518 196.627 174.574 196.612 174.629C196.605 174.571 196.605 174.513 196.612 174.455C196.612 174.326 196.612 174.152 196.64 173.944C196.679 173.472 196.73 172.821 196.792 171.973C196.921 170.289 197.095 167.778 197.286 164.718C197.69 158.592 198.027 150.118 198.919 140.769C199.413 135.676 200.07 130.864 200.889 126.641V126.529H201.002L215.197 126.849L219.233 126.961L220.299 127H220.574C220.625 127.04 220.653 127.045 220.653 127.051Z" fill="#161B46"/>
<path d="M215.853 134.171C216.703 134.171 217.391 133.482 217.391 132.632C217.391 131.782 216.703 131.094 215.853 131.094C215.004 131.094 214.315 131.782 214.315 132.632C214.315 133.482 215.004 134.171 215.853 134.171Z" fill="#E6E8F3"/>
<path d="M217.391 132.632C217.351 132.513 217.317 132.391 217.29 132.267C217.19 131.955 216.993 131.681 216.729 131.487C216.536 131.349 216.312 131.262 216.077 131.231C215.842 131.201 215.603 131.229 215.382 131.313C215.113 131.413 214.882 131.594 214.719 131.83C214.555 132.065 214.468 132.345 214.468 132.632C214.468 132.919 214.555 133.199 214.719 133.435C214.882 133.671 215.113 133.851 215.382 133.952C215.604 134.035 215.843 134.062 216.078 134.031C216.313 133.999 216.536 133.911 216.729 133.772C216.995 133.579 217.191 133.305 217.29 132.992C217.316 132.87 217.35 132.75 217.391 132.632C217.391 132.632 217.442 132.767 217.391 133.02C217.317 133.383 217.119 133.709 216.83 133.941C216.613 134.114 216.355 134.23 216.081 134.276C215.807 134.322 215.526 134.298 215.264 134.205C214.946 134.082 214.673 133.867 214.48 133.586C214.288 133.305 214.185 132.973 214.185 132.632C214.185 132.292 214.288 131.959 214.48 131.679C214.673 131.398 214.946 131.182 215.264 131.06C215.526 130.967 215.807 130.943 216.081 130.989C216.355 131.035 216.613 131.15 216.83 131.324C217.119 131.553 217.318 131.877 217.391 132.239C217.447 132.492 217.408 132.632 217.391 132.632Z" fill="#161B46"/>
<path d="M172.139 181.53C172.988 181.53 173.677 180.842 173.677 179.992C173.677 179.142 172.988 178.453 172.139 178.453C171.289 178.453 170.601 179.142 170.601 179.992C170.601 180.842 171.289 181.53 172.139 181.53Z" fill="#E6E8F3"/>
<path d="M173.665 179.992C173.665 179.992 173.632 179.857 173.559 179.632C173.458 179.319 173.262 179.046 172.998 178.852C172.787 178.698 172.537 178.605 172.277 178.584C172.017 178.563 171.756 178.614 171.523 178.733C171.29 178.851 171.094 179.032 170.958 179.254C170.821 179.477 170.749 179.733 170.749 179.994C170.749 180.256 170.821 180.512 170.958 180.734C171.094 180.957 171.29 181.138 171.523 181.256C171.756 181.374 172.017 181.426 172.277 181.405C172.537 181.384 172.787 181.291 172.998 181.137C173.262 180.942 173.458 180.669 173.559 180.357C173.632 180.132 173.637 179.992 173.665 179.992C173.701 180.12 173.701 180.256 173.665 180.385C173.595 180.747 173.395 181.072 173.104 181.3C172.889 181.474 172.632 181.59 172.359 181.637C172.086 181.684 171.805 181.661 171.544 181.569C171.224 181.448 170.949 181.233 170.755 180.951C170.561 180.67 170.457 180.336 170.457 179.994C170.457 179.652 170.561 179.319 170.755 179.037C170.949 178.756 171.224 178.54 171.544 178.419C171.805 178.328 172.086 178.304 172.359 178.351C172.632 178.399 172.889 178.515 173.104 178.689C173.395 178.916 173.595 179.241 173.665 179.604C173.702 179.731 173.702 179.865 173.665 179.992Z" fill="#161B46"/>
<path d="M176.86 203.436C176.86 203.741 176.769 204.04 176.6 204.293C176.43 204.547 176.189 204.745 175.907 204.862C175.625 204.979 175.314 205.01 175.015 204.95C174.715 204.891 174.44 204.743 174.225 204.527C174.009 204.312 173.862 204.036 173.802 203.737C173.743 203.437 173.773 203.127 173.89 202.845C174.007 202.562 174.205 202.321 174.458 202.152C174.712 201.982 175.011 201.891 175.316 201.891C175.725 201.891 176.118 202.054 176.408 202.344C176.697 202.633 176.86 203.026 176.86 203.436Z" fill="#E6E8F3"/>
<path d="M176.86 203.436C176.832 203.436 176.826 203.295 176.753 203.071C176.655 202.757 176.458 202.483 176.192 202.29C176.029 202.166 175.841 202.079 175.642 202.034C175.442 201.99 175.236 201.989 175.036 202.031C174.836 202.074 174.647 202.159 174.483 202.282C174.32 202.404 174.184 202.56 174.086 202.739C173.988 202.919 173.93 203.117 173.915 203.321C173.901 203.525 173.931 203.73 174.003 203.921C174.075 204.113 174.187 204.286 174.333 204.43C174.478 204.574 174.652 204.685 174.844 204.755C175.067 204.838 175.306 204.865 175.541 204.834C175.776 204.803 175.999 204.714 176.192 204.575C176.459 204.384 176.656 204.109 176.753 203.795C176.826 203.57 176.832 203.43 176.86 203.436C176.896 203.562 176.896 203.696 176.86 203.823C176.79 204.186 176.591 204.512 176.298 204.738C176.082 204.912 175.824 205.028 175.55 205.076C175.276 205.123 174.995 205.099 174.732 205.008C174.413 204.887 174.138 204.671 173.944 204.39C173.749 204.108 173.646 203.775 173.646 203.433C173.646 203.091 173.749 202.757 173.944 202.476C174.138 202.194 174.413 201.979 174.732 201.858C174.995 201.766 175.276 201.743 175.55 201.79C175.824 201.837 176.082 201.953 176.298 202.127C176.591 202.354 176.79 202.679 176.86 203.042C176.895 203.171 176.895 203.307 176.86 203.436Z" fill="#161B46"/>
<path d="M218.57 136.861C218.57 136.945 214.54 136.821 209.589 136.597C204.639 136.372 200.608 136.119 200.608 136.035C200.608 135.951 204.639 136.074 209.589 136.305C214.54 136.535 218.57 136.782 218.57 136.861Z" fill="#161B46"/>
<path d="M129.755 166.936L123.962 169.25L111.361 137.703C110.654 135.933 109.606 134.32 108.276 132.955C106.946 131.591 105.361 130.502 103.611 129.75C101.86 128.998 99.9786 128.599 98.0738 128.575C96.169 128.551 94.2781 128.902 92.509 129.609C90.7399 130.315 89.1273 131.364 87.7633 132.694C86.3992 134.024 85.3105 135.611 84.5591 137.362C83.8078 139.113 83.4086 140.995 83.3843 142.901C83.3601 144.806 83.7113 146.698 84.4178 148.468L97.0191 180.014L91.2264 182.333L78.6195 150.787C77.6089 148.257 77.1063 145.553 77.1403 142.829C77.1743 140.105 77.7443 137.414 78.8178 134.911C79.8912 132.407 81.4471 130.139 83.3966 128.237C85.346 126.335 87.6509 124.836 90.1796 123.825C92.7083 122.814 95.4113 122.311 98.1342 122.345C100.857 122.379 103.547 122.949 106.049 124.023C111.104 126.192 115.09 130.281 117.131 135.39L129.755 166.936Z" fill="#E6E8F3"/>
<path d="M129.755 166.936L129.497 166.307L128.761 164.46L125.955 157.452C124.731 154.408 123.232 150.714 121.498 146.379C120.63 144.222 119.706 141.92 118.725 139.472C117.698 137.052 116.867 134.356 115.273 131.908C113.62 129.331 111.403 127.163 108.79 125.568C108.448 125.36 108.111 125.147 107.763 124.951L106.674 124.417C105.945 124.067 105.195 123.762 104.429 123.502C104.041 123.356 103.632 123.277 103.233 123.159C102.835 123.041 102.43 122.918 102.015 122.862C101.181 122.695 100.338 122.583 99.4892 122.525C97.7531 122.395 96.0075 122.478 94.2915 122.772L92.9949 123.075L92.3438 123.227L91.7039 123.44L90.4241 123.884C90.0031 124.047 89.599 124.254 89.1836 124.445C85.7598 126.04 82.8452 128.553 80.764 131.706C79.106 134.206 78.0153 137.038 77.5682 140.005C77.1212 142.971 77.3288 146 78.1764 148.877C78.7938 150.831 79.6358 152.757 80.4216 154.717L90.1042 178.953L91.4288 182.26L91.238 182.182L97.0307 179.862L96.9521 180.053C94.4431 173.781 91.9958 167.638 89.6102 161.675L86.0964 152.859L84.3788 148.563C83.823 147.134 83.477 145.632 83.3516 144.104C83.1546 141.116 83.8732 138.138 85.4116 135.569C85.5818 135.252 85.7692 134.945 85.9729 134.648L86.6184 133.783C87.5384 132.695 88.5992 131.734 89.773 130.925C90.0649 130.723 90.3736 130.56 90.6767 130.364L91.1257 130.1L91.6028 129.881C92.8474 129.282 94.1702 128.863 95.532 128.634C96.8558 128.425 98.2011 128.389 99.5341 128.528C102.099 128.827 104.54 129.795 106.612 131.335C108.575 132.758 110.135 134.666 111.142 136.872C111.26 137.136 111.383 137.4 111.501 137.658C111.619 137.916 111.714 138.191 111.815 138.455L112.444 140.022C112.852 141.063 113.256 142.079 113.657 143.071L118.012 154.015C120.628 160.619 122.677 165.807 124.041 169.222L123.985 169.193L128.363 167.47L129.435 167.054L129.794 166.919L129.457 167.065C129.222 167.161 128.896 167.301 128.402 167.498L124.018 169.272H123.979V169.233C122.598 165.807 120.527 160.653 117.878 154.071C116.553 150.775 115.071 147.12 113.488 143.138L112.27 140.095C112.062 139.578 111.849 139.056 111.641 138.528L111.322 137.731C111.204 137.473 111.086 137.214 110.962 136.956C110.469 135.896 109.851 134.899 109.121 133.986C108.348 133.058 107.466 132.227 106.494 131.509C104.448 130.007 102.045 129.064 99.5229 128.775C98.2138 128.644 96.8933 128.682 95.5937 128.887C94.2612 129.116 92.9671 129.53 91.7488 130.117L91.2829 130.33L90.8395 130.594C90.5476 130.774 90.2389 130.936 89.9526 131.127C89.3799 131.523 88.8342 131.956 88.3192 132.425C87.7977 132.895 87.31 133.402 86.8598 133.941L86.2255 134.794C86.001 135.075 85.8438 135.395 85.6642 135.693C84.1579 138.218 83.4551 141.142 83.6491 144.076C83.7764 145.575 84.1166 147.048 84.6595 148.451C85.2208 149.871 85.7821 151.309 86.3827 152.752L89.9021 161.562L97.2496 179.941L97.3057 180.076L97.171 180.132C95.285 180.879 93.3485 181.659 91.3783 182.446L91.238 182.502L91.1875 182.367L89.8628 179.054C86.5455 170.754 83.3123 162.646 80.1859 154.818C79.4169 152.853 78.5805 150.949 77.9406 148.95C77.3778 146.965 77.0944 144.91 77.0987 142.847C77.1462 140.825 77.4652 138.819 78.0473 136.883C78.6496 135.002 79.501 133.209 80.5788 131.554C82.6814 128.366 85.6245 125.822 89.0826 124.204C89.5092 124.018 89.9189 123.811 90.3455 123.642L91.6365 123.199C91.8554 123.131 92.0687 123.047 92.282 122.985L92.9444 122.834L94.2578 122.53C95.9959 122.231 97.7644 122.148 99.5229 122.283C100.379 122.343 101.23 122.459 102.071 122.631C102.488 122.708 102.9 122.807 103.306 122.929C103.71 123.053 104.126 123.131 104.513 123.277C105.297 123.545 106.065 123.856 106.814 124.209L107.937 124.771C108.285 124.967 108.627 125.192 108.97 125.394C111.607 127.013 113.843 129.209 115.509 131.818C117.114 134.306 117.939 137.012 118.961 139.444L121.723 146.384C123.44 150.714 124.916 154.442 126.129 157.491L128.896 164.499L129.615 166.318C129.682 166.706 129.755 166.936 129.755 166.936Z" fill="#161B46"/>
<path d="M126.628 145.307L82.6069 162.912C79.7255 164.065 78.3234 167.336 79.4753 170.218L93.0458 204.177C94.1977 207.06 97.4674 208.463 100.349 207.31L144.369 189.705C147.251 188.553 148.653 185.282 147.501 182.399L133.93 148.44C132.779 145.557 129.509 144.155 126.628 145.307Z" fill="#00ACE9"/>
<g opacity="0.3">
<path opacity="0.3" d="M126.43 145.387L82.8049 162.833C79.8142 164.03 78.3589 167.425 79.5545 170.417L92.9667 203.98C94.1623 206.972 97.556 208.427 100.547 207.231L144.171 189.785C147.162 188.589 148.617 185.193 147.422 182.201L134.01 148.638C132.814 145.647 129.42 144.191 126.43 145.387Z" fill="#0E1339"/>
</g>
<path d="M120.229 147.865L80.1117 163.909C77.239 165.058 75.8412 168.319 76.9896 171.193L90.5726 205.184C91.721 208.057 94.9809 209.456 97.8536 208.307L137.971 192.263C140.843 191.114 142.241 187.853 141.093 184.979L127.51 150.989C126.361 148.115 123.101 146.716 120.229 147.865Z" fill="#00ACE9"/>
<path d="M113.463 171.965C113.098 170.965 112.483 170.095 111.687 169.453C110.89 168.811 109.944 168.423 108.954 168.332C107.965 168.241 106.972 168.45 106.086 168.937C105.201 169.424 104.459 170.169 103.943 171.087C103.428 172.006 103.16 173.062 103.169 174.137C103.178 175.212 103.465 176.263 103.996 177.171C104.527 178.079 105.282 178.808 106.176 179.277C107.069 179.746 108.066 179.936 109.054 179.824L111.471 186.378C111.616 186.765 111.896 187.075 112.251 187.238C112.606 187.402 113.006 187.407 113.364 187.252C113.541 187.176 113.703 187.062 113.84 186.918C113.977 186.774 114.086 186.602 114.161 186.412C114.237 186.222 114.277 186.018 114.279 185.812C114.282 185.605 114.247 185.4 114.176 185.208L111.754 178.654C112.672 177.892 113.336 176.827 113.644 175.62C113.953 174.412 113.889 173.129 113.463 171.965Z" fill="#161B46"/>
<path d="M141.526 186.011C141.447 186.039 138.332 178.318 134.565 168.767C130.799 159.215 127.796 151.444 127.875 151.416C127.953 151.388 131.063 159.109 134.835 168.66C138.607 178.212 141.599 185.983 141.526 186.011Z" fill="#161B46"/>
<path d="M114.016 179.75C114.627 179.115 115.159 178.408 115.599 177.644C116.053 176.807 116.357 175.897 116.497 174.955C116.689 173.806 116.603 172.628 116.246 171.519C115.89 170.41 115.273 169.403 114.448 168.581C113.79 167.889 113.015 167.319 112.158 166.897C111.354 166.536 110.51 166.27 109.644 166.105C109.884 166.091 110.125 166.106 110.362 166.15C111.012 166.246 111.646 166.435 112.242 166.711C113.138 167.121 113.95 167.692 114.639 168.396C115.504 169.242 116.149 170.286 116.519 171.437C116.889 172.589 116.972 173.814 116.761 175.005C116.608 175.974 116.274 176.905 115.779 177.751C115.453 178.323 115.047 178.845 114.572 179.301C114.406 179.474 114.22 179.625 114.016 179.75Z" fill="#161B46"/>
<path d="M114.279 151.809C114.307 151.882 107.571 154.751 99.2305 158.216C90.8895 161.68 84.0752 164.432 84.0752 164.359C84.0752 164.286 90.7828 161.416 99.1294 157.946C107.476 154.476 114.245 151.736 114.279 151.809Z" fill="white"/>
<path d="M103.227 179.75C103.075 179.676 102.935 179.58 102.812 179.464C102.464 179.17 102.148 178.841 101.869 178.481C100.921 177.291 100.359 175.84 100.258 174.321C100.158 172.803 100.524 171.29 101.308 169.985C101.54 169.593 101.813 169.226 102.122 168.89C102.226 168.758 102.351 168.644 102.492 168.553C102.537 168.593 102.026 169.115 101.487 170.086C100.777 171.372 100.45 172.834 100.544 174.3C100.639 175.766 101.151 177.174 102.021 178.358C102.694 179.273 103.261 179.705 103.227 179.75Z" fill="white"/>
<path d="M106.87 181.704C106.87 181.789 106.433 181.783 105.922 181.704C105.411 181.626 105.001 181.485 105.018 181.401C105.035 181.317 105.456 181.328 105.967 181.401C106.477 181.474 106.87 181.626 106.87 181.704Z" fill="white"/>
<path d="M88.7395 125.714C88.4223 125.919 88.0944 126.106 87.7573 126.276C86.8681 126.787 86.0216 127.369 85.2258 128.017C82.2038 130.502 80.0582 133.891 79.1045 137.686C78.1507 141.481 78.439 145.483 79.927 149.102C80.2021 149.776 80.3761 150.141 80.3536 150.152C80.2935 150.074 80.2427 149.989 80.2021 149.899C80.1123 149.731 79.9663 149.484 79.8204 149.147C79.3887 148.204 79.0467 147.223 78.7988 146.216C77.9442 142.871 78.0867 139.349 79.2088 136.084C80.3308 132.819 82.3835 129.954 85.1135 127.843C85.927 127.201 86.799 126.637 87.718 126.158C88.0435 125.984 88.3073 125.877 88.4813 125.799C88.5645 125.762 88.651 125.734 88.7395 125.714Z" fill="white"/>
<path d="M82.0659 155.773C81.729 155.295 81.4713 154.766 81.3025 154.206C81.0458 153.676 80.8789 153.107 80.8086 152.522C81.1506 152.997 81.4088 153.527 81.572 154.089C81.828 154.619 81.9949 155.188 82.0659 155.773Z" fill="white"/>
<g opacity="0.3">
<path opacity="0.3" d="M124.063 122.592C121.543 129.808 122.789 137.922 125.595 145.053C125.595 145.031 124.13 130.145 124.063 122.592Z" fill="#0E1339"/>
</g>
<g opacity="0.3">
<path opacity="0.3" d="M168.193 175.269C170.971 168.991 173.755 162.691 177.337 156.834C180.918 150.977 185.195 145.412 190.668 141.296C192.149 140.173 194.917 138.085 194.917 138.085C194.917 138.085 194.176 136.681 193.446 135.518C192.604 134.171 191.201 131.835 190.46 130.684L193.744 131.341C193.744 131.341 191.498 126.163 191.56 126.511C190.093 126.894 188.608 127.199 187.109 127.427C188.26 130.178 189.483 132.666 190.634 135.417C184.46 140.331 179.408 146.513 175.176 153.049C170.943 159.585 168.013 167.172 168.165 174.949" fill="#0E1339"/>
</g>
<path d="M179.929 76.7266C180.002 76.6648 180.176 76.7266 180.373 76.9456C180.636 77.2848 180.772 77.7065 180.754 78.136C180.755 78.4456 180.69 78.7518 180.564 79.0344C180.408 79.3767 180.171 79.6756 179.873 79.9048C179.534 80.1727 179.132 80.3481 178.705 80.4139C178.278 80.4798 177.842 80.4338 177.438 80.2805C177.034 80.1272 176.677 79.8718 176.402 79.5393C176.126 79.2067 175.941 78.8084 175.865 78.3831C175.799 78.047 175.811 77.7002 175.9 77.3693C175.988 77.0383 176.151 76.7321 176.376 76.4739C176.649 76.1438 177.028 75.9194 177.448 75.8393C177.746 75.8 177.909 75.873 177.931 75.9685C177.976 76.1707 177.493 76.429 177.229 77.0579C177.081 77.377 177.061 77.7407 177.173 78.0742C177.229 78.2659 177.329 78.442 177.464 78.5885C177.6 78.7349 177.768 78.8478 177.955 78.9181C178.142 78.9883 178.342 79.0141 178.541 78.9934C178.739 78.9727 178.93 78.906 179.099 78.7986C179.404 78.6265 179.631 78.3428 179.733 78.0069C179.946 77.3611 179.755 76.8613 179.929 76.7266Z" fill="#E6E8F3"/>
<path d="M78.5635 196.736C78.5635 196.736 80.4775 202.913 81.4654 204.154C82.4533 205.395 89.0599 206.063 89.0599 206.063L78.5635 196.736Z" fill="#B5715A"/>
<path d="M86.4782 186.921L90.1436 189.863L101.022 198.253C101.022 198.253 100.954 200.274 98.5071 199.814C96.52 199.437 92.1138 197.006 92.1138 197.006C92.1138 197.006 97.289 201.869 97.4686 204.143V204.559C97.4641 205.062 97.2626 205.544 96.9073 205.901L90.8621 201.863C90.8621 201.863 92.1587 204.143 93.4328 206.507C93.6242 206.982 93.6866 207.499 93.6137 208.006C93.5407 208.513 93.335 208.992 93.0175 209.393L79.5461 198.09L79.4619 189.667L86.4502 186.915" fill="#B5715A"/>
<path d="M85.0459 192.199C85.2191 192.21 85.3895 192.248 85.5511 192.312C85.7082 192.368 85.8935 192.452 86.1124 192.547C86.3313 192.643 86.5558 192.783 86.814 192.929C87.8356 193.536 89.1322 194.518 90.5692 195.596C91.772 196.532 93.038 197.384 94.358 198.146C95.3852 198.707 96.0812 198.921 96.0419 198.971C95.8706 198.96 95.7022 198.922 95.5423 198.859C95.3512 198.803 95.1637 198.736 94.981 198.657C94.7318 198.562 94.4882 198.453 94.2513 198.331C92.8861 197.616 91.5879 196.78 90.3727 195.832C88.9358 194.749 87.6672 193.743 86.6849 193.103L86.017 192.693L85.4893 192.418C85.333 192.364 85.1841 192.29 85.0459 192.199Z" fill="#884C3B"/>
<path d="M83.8115 196.304C84.2261 196.502 84.6176 196.745 84.979 197.028C85.6694 197.506 86.6012 198.202 87.5947 199.011C88.5882 199.819 89.4583 200.589 90.0701 201.167C90.4198 201.457 90.7344 201.787 91.0075 202.15C90.6204 201.913 90.2591 201.636 89.9298 201.324L87.4095 199.235L84.8556 197.191C84.4785 196.932 84.1288 196.634 83.8115 196.304Z" fill="#884C3B"/>
<path d="M65.6423 186.011C65.5469 186.118 65.6872 186.32 65.777 186.511C67.242 189.571 79.8097 198.264 79.8097 198.264L86.6632 186.578C86.6632 186.578 91.642 188.987 93.6852 188.431C95.3691 187.971 98.5348 187.628 97.053 184.675C97.053 184.675 90.0311 183.383 87.6455 182.356C85.2599 181.328 83.7669 180.795 83.7669 180.795C81.0425 180.859 78.3204 180.59 75.6616 179.992C75.6616 179.992 71.463 179.402 65.6423 186.011Z" fill="#B5715A"/>
<path d="M92.6969 209.118C92.14 208.743 91.6092 208.33 91.1084 207.883C90.0755 207.046 88.7733 205.985 87.3251 204.817C85.877 203.649 84.5186 202.509 83.5981 201.678C83.1322 201.268 82.7617 200.925 82.5091 200.684C82.3688 200.568 82.2442 200.434 82.1387 200.285C82.6981 200.659 83.2308 201.072 83.7328 201.521L87.5104 204.586C88.9866 205.788 90.3169 206.894 91.2375 207.725C91.7033 208.135 92.0794 208.478 92.3264 208.719C92.5734 208.961 92.7137 209.107 92.6969 209.118Z" fill="#884C3B"/>
<path d="M210.498 84.543L214.826 85.2224L215.348 81.915L213.664 81.6511L213.9 80.1462L212.339 79.8991L212.547 78.5795L214.349 78.8603L214.528 77.7372L211.643 77.2824L211.711 76.85L211.643 77.2824L211.711 76.85C211.734 76.577 211.649 76.3058 211.473 76.0954C211.297 75.8851 211.046 75.7526 210.773 75.727C210.501 75.7093 210.233 75.7968 210.025 75.9714C209.816 76.1459 209.682 76.3942 209.651 76.6647C208.812 82.018 207.972 87.3656 207.13 92.7076L206.457 96.9864C205.058 97.0245 203.723 97.584 202.715 98.5552C201.707 99.5264 201.098 100.839 201.008 102.237C200.917 103.634 201.352 105.014 202.226 106.108C203.1 107.201 204.351 107.928 205.734 108.146C207.116 108.365 208.53 108.058 209.699 107.288C210.867 106.517 211.706 105.338 212.05 103.981C212.394 102.624 212.219 101.187 211.559 99.9522C210.899 98.7175 209.802 97.7739 208.483 97.3065C209.134 93.1886 209.783 89.0708 210.431 84.9529L210.498 84.543ZM210.739 103.236C210.611 104.051 210.244 104.809 209.684 105.416C209.125 106.022 208.398 106.448 207.597 106.641C206.795 106.835 205.954 106.786 205.18 106.501C204.406 106.216 203.734 105.708 203.249 105.041C202.763 104.374 202.486 103.579 202.453 102.754C202.42 101.93 202.631 101.114 203.061 100.41C203.491 99.7065 204.12 99.1458 204.868 98.7992C205.616 98.4526 206.45 98.3357 207.265 98.4633C207.808 98.5487 208.329 98.7405 208.797 99.0276C209.266 99.3148 209.673 99.6916 209.996 100.137C210.319 100.582 210.551 101.086 210.678 101.621C210.806 102.156 210.827 102.71 210.739 103.253V103.236Z" fill="#E6E8F3"/>
<path d="M210.74 103.253C210.773 102.659 210.711 102.064 210.555 101.49C210.363 100.839 210.01 100.248 209.527 99.7714C208.913 99.148 208.114 98.7402 207.248 98.609L207.321 98.3676L208.191 98.7494L207.248 98.609C206.512 98.4956 205.759 98.5883 205.072 98.8768C204.385 99.1653 203.792 99.6383 203.357 100.243C202.922 100.849 202.664 101.562 202.609 102.306C202.555 103.049 202.708 103.793 203.05 104.455C203.409 105.169 203.977 105.756 204.678 106.139C205.268 106.47 205.931 106.648 206.608 106.656C207.284 106.665 207.952 106.505 208.551 106.19C209.367 105.756 210.018 105.065 210.403 104.224C210.532 103.909 210.645 103.586 210.74 103.258C210.752 103.346 210.752 103.435 210.74 103.522C210.698 103.778 210.628 104.028 210.532 104.269C210.173 105.163 209.517 105.904 208.674 106.369C208.174 106.644 207.624 106.816 207.057 106.875C206.489 106.934 205.916 106.879 205.37 106.713C204.824 106.547 204.317 106.274 203.878 105.909C203.439 105.544 203.077 105.096 202.814 104.589C202.448 103.883 202.285 103.088 202.344 102.295C202.402 101.501 202.679 100.739 203.145 100.094C203.61 99.4484 204.245 98.9448 204.98 98.6391C205.714 98.3333 206.519 98.2374 207.305 98.3619L207.232 98.6034L206.322 98.1879L207.305 98.3619C208.219 98.5133 209.058 98.9588 209.696 99.631C210.186 100.142 210.538 100.771 210.717 101.456C210.829 101.892 210.871 102.343 210.841 102.792C210.825 102.949 210.791 103.104 210.74 103.253Z" fill="#161B46"/>
<path d="M210.499 84.5431C210.499 84.5431 210.499 84.6778 210.454 84.9474H210.415H210.454C210.297 86.1659 209.618 90.6525 208.59 97.301L208.529 97.1887C209.819 97.6727 210.888 98.6124 211.533 99.8305C212.178 101.049 212.355 102.461 212.031 103.801C211.707 105.141 210.904 106.316 209.773 107.104C208.642 107.892 207.262 108.238 205.893 108.078C204.525 107.918 203.262 107.262 202.343 106.235C201.425 105.207 200.914 103.878 200.907 102.5C200.901 101.121 201.399 99.7879 202.308 98.7516C203.216 97.7152 204.473 97.0474 205.84 96.8743C206.048 96.8406 206.255 96.8349 206.457 96.8181L206.317 96.9416C207.036 92.4045 207.726 88.0302 208.371 83.931C208.697 81.8814 209.011 79.8992 209.314 78.0013C209.387 77.524 209.466 77.0579 209.539 76.5918C209.577 76.3332 209.699 76.0943 209.887 75.9125C210.075 75.7307 210.318 75.6161 210.577 75.5867C210.832 75.5623 211.087 75.6229 211.303 75.7591C211.52 75.8952 211.685 76.0992 211.773 76.3391C211.845 76.5733 211.845 76.8238 211.773 77.0579V77.2207V77.2657L211.532 77.232V77.1983V77.1197L211.588 76.794L211.823 76.8333L211.756 77.2657L211.655 77.1309L214.54 77.5914H214.652V77.7037C214.585 78.108 214.529 78.4786 214.467 78.8267V78.9334H214.361L212.559 78.6414L212.677 78.5572C212.598 79.0345 212.531 79.4612 212.463 79.8768L212.379 79.7645L213.945 80.0172H214.035V80.1126C213.945 80.6741 213.867 81.1458 213.788 81.6119L213.715 81.5108L215.399 81.786H215.478V81.8646C215.268 83.1224 215.081 84.2249 214.916 85.172V85.2338H214.855L211.661 84.6722L210.824 84.5262L210.538 84.4701H210.808L211.633 84.588L214.877 85.0597L214.804 85.1102C214.95 84.1612 215.113 83.0606 215.304 81.8028L215.371 81.8927L213.687 81.64H213.603V81.5557L213.833 80.0508L213.912 80.1575L212.351 79.9161H212.25V79.8206C212.312 79.3995 212.379 78.9727 212.452 78.4954V78.3943H212.553L214.361 78.6695L214.231 78.7593C214.293 78.3943 214.349 78.0237 214.411 77.6363L214.507 77.7654L211.616 77.3162H211.498V77.1983L211.565 76.7603L211.801 76.7996L211.751 77.1253V77.2039V77.2376C211.268 77.159 211.621 77.2376 211.509 77.1927V77.1534V76.9905C211.569 76.7966 211.569 76.5893 211.509 76.3953C211.44 76.2069 211.311 76.0468 211.141 75.9401C210.972 75.8333 210.771 75.7861 210.572 75.8057C210.367 75.8289 210.175 75.9199 210.028 76.0644C209.88 76.2088 209.785 76.3984 209.758 76.6031L209.539 78.0069L208.613 83.9422C207.973 88.0414 207.283 92.4157 206.575 96.9529V97.0652H206.452C206.261 97.0652 206.059 97.0652 205.862 97.1157C204.747 97.2687 203.705 97.7628 202.881 98.5303C202.056 99.2979 201.489 100.301 201.256 101.404C201.023 102.506 201.136 103.654 201.58 104.689C202.024 105.725 202.776 106.598 203.735 107.19C204.921 107.925 206.343 108.178 207.709 107.897C208.88 107.65 209.939 107.028 210.725 106.125C211.511 105.221 211.98 104.086 212.063 102.892C212.145 101.697 211.836 100.508 211.182 99.5053C210.528 98.5025 209.565 97.7404 208.439 97.3347L208.36 97.3066V97.2224C209.427 90.5739 210.162 86.0929 210.381 84.8688C210.471 84.6498 210.499 84.5431 210.499 84.5431Z" fill="#161B46"/>
<path d="M200.968 100.816L207.905 98.9912L211.509 99.4517C211.837 99.4953 212.148 99.6211 212.414 99.8175C212.68 100.014 212.892 100.274 213.03 100.575L215.365 105.662C215.365 105.662 218.733 108.47 218.346 110.154C217.958 111.839 214.832 126.955 214.832 126.955L205.531 126.675C203.904 124.657 202.926 122.195 202.725 119.611C202.623 117.488 203.432 116.191 203.23 115.068C203.095 114.298 203.572 112.928 203.791 111.873L204.072 110.851L203.454 111.148C203.189 111.278 202.897 111.343 202.602 111.338C202.307 111.334 202.017 111.26 201.756 111.123C201.495 110.986 201.27 110.789 201.099 110.548C200.928 110.308 200.815 110.031 200.771 109.739C200.768 109.685 200.768 109.63 200.771 109.576C200.74 108.978 200.837 108.381 201.055 107.823C201.273 107.265 201.606 106.76 202.034 106.342L205.542 102.894C205.542 102.894 201.664 105.106 200.968 100.816Z" fill="#B5715A"/>
<path d="M212.772 109.256C212.555 109.26 212.338 109.235 212.127 109.183L210.404 108.874L207.85 108.38C207.373 108.29 206.867 108.161 206.357 108.116C206.107 108.075 205.851 108.094 205.61 108.171C205.369 108.248 205.15 108.381 204.97 108.559C204.668 108.985 204.475 109.479 204.409 109.997C204.297 110.519 204.19 111.019 204.089 111.502C203.871 112.331 203.719 113.176 203.634 114.029C203.62 114.309 203.673 114.588 203.789 114.843C203.905 115.098 204.081 115.322 204.302 115.494C204.474 115.606 204.664 115.687 204.863 115.736C204.808 115.752 204.75 115.752 204.695 115.736C204.529 115.722 204.369 115.668 204.229 115.579C203.975 115.41 203.767 115.181 203.624 114.911C203.482 114.641 203.41 114.339 203.415 114.034C203.466 113.161 203.598 112.295 203.808 111.446C203.904 110.963 204.005 110.457 204.111 109.941C204.189 109.368 204.414 108.824 204.762 108.363C204.972 108.152 205.229 107.993 205.512 107.902C205.796 107.81 206.096 107.787 206.39 107.835C206.904 107.9 207.414 107.994 207.917 108.116L210.454 108.677L212.138 109.076C212.356 109.11 212.569 109.171 212.772 109.256Z" fill="#884C3B"/>
<path d="M209.157 116.938C209.157 116.938 209.157 117.224 208.804 117.499C208.578 117.653 208.308 117.73 208.035 117.718C207.689 117.7 207.347 117.634 207.019 117.522C206.126 117.295 205.342 116.763 204.802 116.017C204.533 115.519 204.388 114.963 204.38 114.397C204.372 113.83 204.502 113.271 204.757 112.765C204.975 112.232 205.266 111.731 205.621 111.277C205.808 111.053 206.05 110.88 206.323 110.778C206.588 110.695 206.869 110.676 207.142 110.721C208.018 110.901 208.873 111.174 209.691 111.536C210.242 111.769 210.776 112.039 211.29 112.344C211.495 112.441 211.685 112.567 211.852 112.72C211.852 112.765 211.032 112.271 209.635 111.727C208.825 111.401 207.987 111.153 207.131 110.985C206.898 110.95 206.66 110.969 206.435 111.041C206.215 111.134 206.022 111.281 205.874 111.468C205.542 111.899 205.27 112.374 205.066 112.878C204.828 113.341 204.704 113.854 204.704 114.374C204.704 114.895 204.828 115.408 205.066 115.871C205.564 116.574 206.286 117.087 207.114 117.325C207.423 117.442 207.746 117.519 208.074 117.555C208.318 117.577 208.563 117.524 208.776 117.404C208.943 117.286 209.075 117.125 209.157 116.938Z" fill="#884C3B"/>
<path d="M209.067 115.927C209.067 115.961 208.904 116.056 208.59 116.09C208.18 116.131 207.767 116.052 207.401 115.863C207.035 115.673 206.733 115.382 206.53 115.023C206.378 114.753 206.356 114.557 206.39 114.546C206.423 114.534 206.766 115.208 207.54 115.601C208.026 115.798 208.543 115.908 209.067 115.927Z" fill="#884C3B"/>
<path d="M209.741 117.808C209.696 117.87 209.258 117.612 208.944 117.089C208.629 116.567 208.59 116.056 208.669 116.05C208.747 116.045 208.904 116.466 209.191 116.938C209.477 117.409 209.797 117.741 209.741 117.808Z" fill="#884C3B"/>
<path d="M209.556 122.957C209.169 122.165 208.981 121.291 209.01 120.41C209.038 119.529 209.281 118.669 209.719 117.903C209.52 118.729 209.381 119.568 209.303 120.413C209.326 121.266 209.41 122.116 209.556 122.957Z" fill="#884C3B"/>
<path d="M209.381 118.358C208.567 118.68 207.824 119.161 207.198 119.773C206.571 120.386 206.073 121.117 205.733 121.924C205.727 121.655 205.789 121.388 205.912 121.149C206.162 120.553 206.529 120.013 206.99 119.56C207.451 119.108 207.999 118.755 208.601 118.521C208.843 118.4 209.111 118.344 209.381 118.358Z" fill="#884C3B"/>
<path d="M206.53 106.796C206.614 106.796 206.659 107.083 206.564 107.408C206.468 107.734 206.283 107.97 206.21 107.914C206.137 107.858 206.21 107.622 206.283 107.352C206.356 107.083 206.451 106.791 206.53 106.796Z" fill="#884C3B"/>
<path d="M214.781 106.897C214.297 106.694 213.833 106.446 213.395 106.156C212.553 105.673 211.408 104.983 210.156 104.202C209.581 103.829 208.972 103.512 208.337 103.253C207.823 103.052 207.273 102.957 206.721 102.972C206.21 103.008 205.712 103.145 205.256 103.377C205.256 103.377 205.346 103.248 205.587 103.107C205.932 102.912 206.315 102.795 206.71 102.765C207.292 102.721 207.878 102.801 208.427 103C209.087 103.25 209.717 103.57 210.308 103.955C211.565 104.73 212.693 105.449 213.501 105.982C213.954 106.249 214.383 106.555 214.781 106.897Z" fill="#884C3B"/>
<path d="M210.493 84.7227C210.536 83.4487 210.675 82.1798 210.909 80.9268C211.044 79.6596 211.281 78.4053 211.616 77.1758C211.573 78.4497 211.434 79.7186 211.2 80.9717C211.061 82.2383 210.824 83.4923 210.493 84.7227Z" fill="#161B46"/>
<g opacity="0.3">
<path opacity="0.3" d="M211.616 77.3665C211.911 78.5441 211.967 79.7691 211.781 80.969C211.595 82.1688 211.17 83.3191 210.532 84.3519C210.936 82.3023 211.34 79.5283 211.616 77.3665Z" fill="#0E1339"/>
</g>
</svg>
