<svg width="15" height="15" viewBox="0 0 15 15" fill="none" xmlns="http://www.w3.org/2000/svg">
<path d="M0.333313 14.6667C0.333313 13.2522 0.895216 11.8956 1.89541 10.8954C2.8956 9.89523 4.25216 9.33332 5.66665 9.33332C7.08113 9.33332 8.43769 9.89523 9.43788 10.8954C10.4381 11.8956 11 13.2522 11 14.6667H0.333313ZM5.66665 8.66666C3.45665 8.66666 1.66665 6.87666 1.66665 4.66666C1.66665 2.45666 3.45665 0.666656 5.66665 0.666656C7.87665 0.666656 9.66665 2.45666 9.66665 4.66666C9.66665 6.87666 7.87665 8.66666 5.66665 8.66666ZM10.5753 10.1553C11.5951 10.4174 12.5062 10.9946 13.1789 11.8045C13.8516 12.6145 14.2516 13.6161 14.322 14.6667H12.3333C12.3333 12.9267 11.6666 11.3427 10.5753 10.1553ZM9.22665 8.63799C9.78531 8.13831 10.2321 7.52621 10.5377 6.84182C10.8433 6.15743 11.0008 5.41618 11 4.66666C11.0014 3.75563 10.7684 2.85957 10.3233 2.06466C11.0784 2.21638 11.7577 2.6249 12.2456 3.22079C12.7336 3.81667 13.0001 4.56314 13 5.33332C13.0002 5.8083 12.8988 6.27783 12.7027 6.71044C12.5066 7.14305 12.2203 7.52875 11.863 7.84169C11.5057 8.15462 11.0856 8.38756 10.6309 8.5249C10.1762 8.66224 9.69745 8.70079 9.22665 8.63799Z" fill="url(#paint0_linear_6565_2425)"/>
<defs>
<linearGradient id="paint0_linear_6565_2425" x1="0.333313" y1="0.666656" x2="14.7199" y2="1.08824" gradientUnits="userSpaceOnUse">
<stop stop-color="#00ACE9"/>
<stop offset="1" stop-color="#0095E9"/>
</linearGradient>
</defs>
</svg>
