<svg width="156" height="174" viewBox="0 0 156 174" fill="none" xmlns="http://www.w3.org/2000/svg">
<rect width="156" height="174" rx="16" fill="#E6F7FD" fill-opacity="0.5"/>
<g clip-path="url(#clip0_1456_45320)">
<path d="M113.315 68.5967C113.399 68.051 113.374 67.494 113.242 66.9579C113.11 66.4217 112.873 65.917 112.546 65.4727C112.218 65.0283 111.805 64.6532 111.332 64.3688C110.859 64.0844 110.334 63.8964 109.788 63.8155C109.687 63.7888 109.58 63.8013 109.488 63.8504C109.436 63.9021 109.399 63.9663 109.379 64.0367C109.359 64.1071 109.358 64.1814 109.375 64.2524C109.476 65.317 109.911 66.3225 110.618 67.1246C111.325 67.9267 112.268 68.4843 113.312 68.7173" fill="#737690"/>
<path d="M107.449 76.3239C108.505 78.5 110.024 79.9687 111.903 80.0384C112.281 80.0518 112.565 79.8052 112.924 79.7838C113.133 79.8314 113.335 79.9071 113.524 80.0089C113.623 80.053 113.73 80.0776 113.838 80.0812C115.781 79.9767 117.437 78.6099 118.552 76.3292C120.106 73.1266 119.624 69.6882 117.48 68.643C117.198 68.5022 116.904 68.3874 116.601 68.3C116.252 68.205 115.89 68.1635 115.529 68.1767C114.693 68.2315 113.871 68.4178 113.093 68.7288L112.988 68.7663C111.246 67.9971 109.853 67.9918 108.505 68.643C106.371 69.6828 105.894 73.1213 107.449 76.3239Z" fill="#00ACE9"/>
<path d="M107.481 73.0809C107.378 72.881 107.318 72.662 107.304 72.4377C107.238 71.8942 107.303 71.3428 107.494 70.8297C107.684 70.3192 107.99 69.8603 108.389 69.4897C108.546 69.3286 108.735 69.2018 108.944 69.1172C108.96 69.1386 108.746 69.2753 108.464 69.5648C108.098 69.9407 107.815 70.3891 107.633 70.8812C107.451 71.3733 107.375 71.8981 107.408 72.4216C107.44 72.829 107.513 73.0729 107.481 73.0809Z" fill="#F4F5FB"/>
<path d="M107.88 74.6034C107.839 74.6034 107.77 74.4613 107.727 74.2657C107.684 74.07 107.676 73.9039 107.727 73.8958C107.778 73.8878 107.837 74.0379 107.88 74.2335C107.923 74.4292 107.92 74.5926 107.88 74.6034Z" fill="#F4F5FB"/>
<path d="M117.745 63.3604C117.758 63.3872 117.345 63.5399 116.74 63.8964C116.387 64.1095 116.051 64.3487 115.735 64.6119C115.352 64.9388 114.998 65.2974 114.676 65.6839C114.36 66.0763 114.079 66.495 113.835 66.9355C113.639 67.2976 113.47 67.6738 113.331 68.0611C113.098 68.7257 113.028 69.1599 112.998 69.1545C112.997 69.0516 113.008 68.9489 113.033 68.849C113.05 68.7289 113.073 68.6099 113.103 68.4925C113.14 68.3559 113.173 68.1977 113.232 68.0289C113.359 67.6299 113.52 67.2425 113.714 66.8712C113.956 66.4189 114.24 65.9901 114.561 65.5901C114.889 65.1994 115.253 64.8404 115.649 64.5181C115.974 64.2536 116.322 64.0186 116.689 63.816C116.842 63.7248 116.989 63.6605 117.118 63.5989C117.226 63.546 117.337 63.4986 117.45 63.4568C117.544 63.4125 117.643 63.3801 117.745 63.3604Z" fill="#161B46"/>
<path d="M105.733 55.6494C106.264 56.3683 106.757 57.1144 107.21 57.8845C107.704 58.6301 108.158 59.4012 108.571 60.1947C108.04 59.475 107.546 58.7281 107.092 57.9569C106.6 57.2117 106.146 56.4415 105.733 55.6494Z" fill="#161B46"/>
<path d="M104.264 52.2325C104.264 52.1923 104.471 52.2325 104.548 52.4576C104.626 52.6827 104.514 52.8355 104.481 52.8114C104.449 52.7873 104.481 52.6559 104.417 52.5059C104.353 52.3558 104.24 52.27 104.264 52.2325Z" fill="#161B46"/>
<path d="M110.102 49.1455C110.139 49.1455 110.474 51.4369 110.852 54.275C111.23 57.1131 111.501 59.4206 111.463 59.426C111.426 59.4313 111.088 57.1346 110.713 54.2938C110.338 51.453 110.062 49.1482 110.102 49.1455Z" fill="#161B46"/>
<path d="M118.592 53.8839C118.626 53.9 118.077 55.2802 117.362 56.9686C116.646 58.657 116.04 60.0104 116.003 59.997C115.965 59.9836 116.517 58.6007 117.233 56.9123C117.948 55.2239 118.557 53.8705 118.592 53.8839Z" fill="#161B46"/>
<path d="M119.726 51.4453C119.761 51.4614 119.726 51.6034 119.672 51.7616C119.618 51.9197 119.522 52.0296 119.487 52.0296C119.452 52.0296 119.487 51.8741 119.541 51.716C119.594 51.5579 119.688 51.4319 119.726 51.4453Z" fill="#161B46"/>
<path d="M125.763 57.365C125.785 57.3971 124.233 58.4879 122.301 59.8038C120.368 61.1197 118.782 62.1595 118.76 62.13C118.739 62.1005 120.288 61.0044 122.223 59.6885C124.158 58.3727 125.742 57.3328 125.763 57.365Z" fill="#161B46"/>
<path d="M122.861 63.5745C122.365 63.6577 121.863 63.6963 121.36 63.6898C120.858 63.7285 120.354 63.7196 119.854 63.663C120.35 63.58 120.852 63.5423 121.355 63.5504C121.856 63.5117 122.361 63.5197 122.861 63.5745Z" fill="#161B46"/>
<path d="M106.797 62.6553C106.776 62.6874 105.189 61.6824 103.246 60.4094C101.303 59.1364 99.7486 58.0778 99.762 58.0457C99.7754 58.0135 101.37 59.0185 103.313 60.2915C105.256 61.5645 106.818 62.6231 106.797 62.6553Z" fill="#161B46"/>
<path d="M105.052 64.6227C104.565 64.6379 104.078 64.6065 103.597 64.5289C103.111 64.496 102.629 64.418 102.158 64.2957C102.645 64.2805 103.132 64.3119 103.613 64.3895C104.099 64.4221 104.581 64.5001 105.052 64.6227Z" fill="#161B46"/>
<path d="M49.0554 72.829C48.8704 72.561 48.6024 72.3117 48.5328 71.9874C48.5176 71.714 48.5239 71.4398 48.5515 71.1674C48.5377 71.0172 48.4945 70.8713 48.4242 70.7379C48.354 70.6044 48.2581 70.4862 48.1421 70.3899C48.0261 70.2935 47.8923 70.221 47.7482 70.1765C47.6042 70.1319 47.4528 70.1162 47.3026 70.1302C47.6805 69.7818 47.6082 69.1064 47.2303 68.758C47.0303 68.5946 46.7915 68.4856 46.5371 68.4414C46.2826 68.3973 46.0211 68.4196 45.7777 68.5061C46.045 68.1575 46.2042 67.7383 46.2359 67.3002C46.2675 66.862 46.1701 66.4243 45.9558 66.0409C45.7414 65.6575 45.4195 65.3453 45.0297 65.1428C44.6399 64.9403 44.1993 64.8564 43.7624 64.9015C43.8708 65.1661 43.8981 65.4569 43.8408 65.737C43.7835 66.0171 43.6443 66.2739 43.4408 66.4747C43.0785 66.7706 42.6435 66.964 42.1812 67.0348C41.7185 67.1025 41.2724 67.2552 40.8653 67.485C40.665 67.6041 40.5061 67.7819 40.4103 67.9942C40.3144 68.2066 40.2861 68.4433 40.3293 68.6723C39.5601 68.876 38.7615 69.1306 38.2174 69.7121C37.6734 70.2937 37.5099 71.3014 38.0754 71.8561C37.77 71.9605 37.5 72.1487 37.2965 72.3992C37.0929 72.6497 36.9639 72.9524 36.9242 73.2727C36.8845 73.593 36.9357 73.9181 37.072 74.2107C37.2083 74.5033 37.4241 74.7517 37.6948 74.9274L47.9968 76.5354C48.5631 76.1022 48.9997 75.5219 49.259 74.8577C49.3826 74.5265 49.4284 74.1714 49.3931 73.8197C49.3578 73.4679 49.2423 73.129 49.0554 72.829Z" fill="#00ACE9"/>
<path d="M37.9495 80.0083L36.4407 73.9086L37.1964 74.2517L37.9495 73.5361L38.5659 74.2517L39.4691 73.5361L40.2677 74.2517L41.2245 73.5361L42.0767 74.2517L43.3524 73.5361L44.0438 74.2517L45.2123 73.5361L45.8501 74.2517L47.1285 73.5361L47.8816 74.2517L49.0394 73.5361L49.5084 74.2517L50.583 73.8551L48.4551 80.748L37.9495 80.0083Z" fill="#00ACE9"/>
<path opacity="0.3" d="M37.9495 80.0083L36.4407 73.9086L37.1964 74.2517L37.9495 73.5361L38.5659 74.2517L39.4691 73.5361L40.2677 74.2517L41.2245 73.5361L42.0767 74.2517L43.3524 73.5361L44.0438 74.2517L45.2123 73.5361L45.8501 74.2517L47.1285 73.5361L47.8816 74.2517L49.0394 73.5361L49.5084 74.2517L50.583 73.8551L48.4551 80.748L37.9495 80.0083Z" fill="#2D3259"/>
<path d="M38.2121 80.0478C38.1745 80.0478 37.9173 78.7614 37.6359 77.1615C37.3545 75.5615 37.1561 74.2564 37.1963 74.251C37.2365 74.2456 37.4911 75.5347 37.7725 77.1374C38.0539 78.74 38.2496 80.0398 38.2121 80.0478Z" fill="#161B46"/>
<path d="M39.0941 80.0908C39.0174 79.811 38.9654 79.5249 38.9387 79.2359C38.8663 78.6999 38.7806 77.971 38.7109 77.1562C38.6412 76.3415 38.6037 75.6018 38.5903 75.0658C38.564 74.7779 38.564 74.4881 38.5903 74.2002C38.641 74.4844 38.6705 74.7719 38.6787 75.0605C38.7216 75.6367 38.7779 76.3522 38.8395 77.1455C38.9012 77.9388 38.9762 78.6517 39.0271 79.2252C39.07 79.5118 39.0924 79.8011 39.0941 80.0908Z" fill="#161B46"/>
<path d="M40.2443 80.1688C40.2123 79.8832 40.2007 79.5957 40.2095 79.3085C40.2095 78.735 40.1881 78.0221 40.1747 77.2342C40.1613 76.4462 40.1747 75.6878 40.1747 75.1545C40.1707 74.8673 40.1923 74.5803 40.239 74.2969C40.2711 74.5824 40.2828 74.8699 40.2738 75.1572C40.2738 75.728 40.2953 76.4409 40.3087 77.2315C40.3221 78.0221 40.3087 78.7778 40.3087 79.3085C40.3125 79.5966 40.2909 79.8844 40.2443 80.1688Z" fill="#161B46"/>
<path d="M41.4876 80.3134C41.45 80.3134 41.5358 78.9734 41.6805 77.3305C41.8252 75.6877 41.9726 74.3557 42.0128 74.3584C42.053 74.3611 41.9646 75.6984 41.8199 77.3439C41.6752 78.9894 41.5251 80.3187 41.4876 80.3134Z" fill="#161B46"/>
<path d="M42.9185 80.3134C42.881 80.3134 43.0739 78.9493 43.3526 77.277C43.6314 75.6047 43.8886 74.2593 43.9235 74.2647C43.9583 74.27 43.768 75.6315 43.4893 77.3011C43.2106 78.9707 42.956 80.3215 42.9185 80.3134Z" fill="#161B46"/>
<path d="M44.1215 80.4106C44.084 80.4106 44.4565 79.0009 44.9523 77.2857C45.4481 75.5705 45.8769 74.1876 45.9144 74.1983C45.9519 74.209 45.5714 75.608 45.0863 77.3286C44.6012 79.0491 44.159 80.4213 44.1215 80.4106Z" fill="#161B46"/>
<path d="M45.5396 80.5437C45.5047 80.5303 46.0005 79.1126 46.6491 77.3786C47.2976 75.6447 47.8524 74.2484 47.8872 74.2618C47.9221 74.2752 47.429 75.6929 46.7804 77.4269C46.1318 79.1608 45.5717 80.5571 45.5396 80.5437Z" fill="#161B46"/>
<path d="M46.9762 80.5445C46.9414 80.5284 47.4827 79.1348 48.1876 77.4276C48.8924 75.7205 49.49 74.3483 49.5275 74.3644C49.5651 74.3805 49.0237 75.7741 48.3189 77.4812C47.614 79.1884 47.0137 80.5579 46.9762 80.5445Z" fill="#161B46"/>
<g opacity="0.6">
<path opacity="0.6" d="M47.3111 70.1302C47.689 69.7818 47.6167 69.1064 47.2388 68.758C47.0388 68.5946 46.8 68.4856 46.5456 68.4414C46.2911 68.3973 46.0296 68.4196 45.7862 68.5061C46.0535 68.1575 46.2127 67.7383 46.2444 67.3002C46.276 66.862 46.1786 66.4243 45.9643 66.0409C45.7499 65.6575 45.428 65.3453 45.0382 65.1428C44.6484 64.9403 44.2078 64.8564 43.7709 64.9015C43.8793 65.1661 43.9066 65.4569 43.8493 65.737C43.792 66.0171 43.6528 66.2739 43.4493 66.4747C43.087 66.7706 42.652 66.964 42.1897 67.0348C41.727 67.1025 41.2809 67.2552 40.8738 67.485C40.6735 67.6041 40.5146 67.7819 40.4188 67.9942C40.3229 68.2066 40.2946 68.4433 40.3378 68.6723C39.9138 68.7752 39.5002 68.9169 39.1023 69.0957C39.1686 69.3605 39.3115 69.5999 39.5132 69.7839C39.7148 69.9679 39.9662 70.0883 40.2359 70.1302C40.5307 70.1812 40.833 70.1679 41.1221 70.0911C41.4112 70.0143 41.6803 69.8759 41.9109 69.6853C41.9109 69.6853 41.1981 71.3737 42.9267 71.8025C43.397 71.9379 43.8969 71.9309 44.3634 71.7826C44.8298 71.6343 45.2419 71.3512 45.5477 70.969C45.5477 70.969 47.0244 71.3603 47.3111 70.1302Z" fill="white"/>
</g>
<path d="M41.9834 68.2881H41.887C41.8168 68.3002 41.7538 68.3381 41.7103 68.3944C41.6669 68.4508 41.6461 68.5214 41.6522 68.5923C41.6582 68.6631 41.6907 68.7292 41.7431 68.7773C41.7955 68.8254 41.8641 68.8521 41.9352 68.8521C42.0064 68.8521 42.0749 68.8254 42.1273 68.7773C42.1797 68.7292 42.2122 68.6631 42.2182 68.5923C42.2243 68.5214 42.2035 68.4508 42.1601 68.3944C42.1166 68.3381 42.0536 68.3002 41.9834 68.2881Z" fill="#00ACE9"/>
<path d="M44.9314 69.334H44.835C44.7641 69.3461 44.7004 69.3843 44.6564 69.4411C44.6124 69.498 44.5914 69.5692 44.5975 69.6409C44.6035 69.7125 44.6363 69.7792 44.6892 69.8278C44.7421 69.8764 44.8113 69.9034 44.8832 69.9034C44.9551 69.9034 45.0243 69.8764 45.0772 69.8278C45.1301 69.7792 45.1629 69.7125 45.1689 69.6409C45.175 69.5692 45.154 69.498 45.11 69.4411C45.066 69.3843 45.0023 69.3461 44.9314 69.334Z" fill="#00ACE9"/>
<path d="M43.9634 67.79H43.8669C43.7968 67.8021 43.7338 67.8401 43.6903 67.8964C43.6468 67.9527 43.6261 68.0233 43.6321 68.0942C43.6382 68.1651 43.6706 68.2311 43.7231 68.2793C43.7755 68.3274 43.844 68.3541 43.9152 68.3541C43.9863 68.3541 44.0549 68.3274 44.1073 68.2793C44.1597 68.2311 44.1922 68.1651 44.1982 68.0942C44.2043 68.0233 44.1835 67.9527 44.1401 67.8964C44.0966 67.8401 44.0335 67.8021 43.9634 67.79Z" fill="#00ACE9"/>
<path d="M43.2292 69.8086H43.1354C43.0644 69.8204 43.0004 69.8584 42.9561 69.9152C42.9119 69.9719 42.8906 70.0433 42.8965 70.115C42.9024 70.1868 42.9351 70.2536 42.988 70.3024C43.0409 70.3512 43.1103 70.3782 43.1823 70.3782C43.2542 70.3782 43.3236 70.3512 43.3765 70.3024C43.4295 70.2536 43.4622 70.1868 43.4681 70.115C43.474 70.0433 43.4527 69.9719 43.4084 69.9152C43.3642 69.8584 43.3002 69.8204 43.2292 69.8086Z" fill="#737690"/>
<path d="M45.4759 66.7266H45.3794C45.3078 66.7387 45.2434 66.7772 45.1989 66.8345C45.1544 66.8919 45.1331 66.9638 45.1392 67.0362C45.1453 67.1085 45.1783 67.1759 45.2317 67.225C45.2851 67.2741 45.3551 67.3014 45.4276 67.3014C45.5002 67.3014 45.5701 67.2741 45.6236 67.225C45.677 67.1759 45.71 67.1085 45.7161 67.0362C45.7221 66.9638 45.7008 66.8919 45.6563 66.8345C45.6118 66.7772 45.5474 66.7387 45.4759 66.7266Z" fill="#737690"/>
<path d="M46.5638 69.5381H46.4673C46.3972 69.5502 46.3341 69.5881 46.2907 69.6445C46.2472 69.7008 46.2264 69.7714 46.2325 69.8423C46.2385 69.9131 46.271 69.9792 46.3234 70.0273C46.3758 70.0754 46.4444 70.1021 46.5155 70.1021C46.5867 70.1021 46.6552 70.0754 46.7076 70.0273C46.7601 69.9792 46.7925 69.9131 46.7986 69.8423C46.8046 69.7714 46.7839 69.7008 46.7404 69.6445C46.6969 69.5881 46.6339 69.5502 46.5638 69.5381Z" fill="#737690"/>
<path d="M39.9949 69.2052C39.9949 69.2293 39.7886 69.2186 39.4804 69.3043C39.0809 69.4161 38.7272 69.6516 38.47 69.977C38.2213 70.3086 38.0827 70.7097 38.0734 71.124C38.0734 71.4456 38.127 71.6413 38.1055 71.6466C38.0139 71.489 37.9684 71.3089 37.9742 71.1267C37.9522 70.6821 38.089 70.2442 38.3601 69.8912C38.6355 69.5422 39.0242 69.3005 39.4589 69.2078C39.6339 69.1569 39.8195 69.156 39.9949 69.2052Z" fill="white"/>
<path d="M44.1809 65.5361C44.2323 65.5898 44.27 65.6551 44.2908 65.7264C44.3618 65.9171 44.3848 66.1224 44.3578 66.3241C44.3208 66.6288 44.182 66.9121 43.9638 67.128C43.682 67.3729 43.3284 67.5196 42.9561 67.5461C42.5729 67.597 42.2111 67.5917 41.8841 67.6426C41.6029 67.6734 41.3348 67.7779 41.1069 67.9454C40.9554 68.0599 40.8371 68.2125 40.7639 68.3876C40.7156 68.5136 40.713 68.5913 40.6996 68.5913C40.6779 68.5197 40.6779 68.4432 40.6996 68.3716C40.7576 68.1742 40.8734 67.9988 41.0319 67.8677C41.2678 67.6775 41.5515 67.5561 41.852 67.5167C42.1816 67.455 42.5488 67.4577 42.924 67.4094C43.2677 67.3837 43.5953 67.2527 43.862 67.0342C44.065 66.8408 44.2003 66.587 44.2479 66.3107C44.288 66.0508 44.2651 65.7852 44.1809 65.5361Z" fill="white"/>
<path d="M43.6558 71.21C43.6558 71.2234 43.5352 71.3092 43.294 71.3199C43.1353 71.3265 42.9773 71.2955 42.8329 71.2295C42.6885 71.1634 42.5617 71.0641 42.4629 70.9398C42.3642 70.8154 42.2962 70.6694 42.2646 70.5138C42.2329 70.3582 42.2385 70.1973 42.2809 70.0442C42.3452 69.8111 42.4605 69.7039 42.4712 69.7146C42.4819 69.7253 42.4122 69.8486 42.3774 70.063C42.3511 70.2006 42.3547 70.3423 42.3881 70.4784C42.4215 70.6145 42.4838 70.7418 42.5707 70.8516C42.6577 70.9615 42.7673 71.0513 42.8921 71.115C43.0169 71.1787 43.154 71.2148 43.294 71.2207C43.5137 71.2368 43.6477 71.1886 43.6558 71.21Z" fill="white"/>
<path d="M46.1075 70.6845C46.1075 70.7193 45.869 70.789 45.5715 70.7032C45.2741 70.6175 45.1106 70.4352 45.1374 70.4004C45.1642 70.3656 45.3518 70.4942 45.609 70.5692C45.8663 70.6443 46.1075 70.6443 46.1075 70.6845Z" fill="white"/>
<path d="M38.3629 72.3779C38.1368 72.4843 37.9206 72.6108 37.717 72.7558C37.542 72.9352 37.3832 73.1298 37.2427 73.3374C37.2848 73.0703 37.4207 72.827 37.626 72.6512C37.8313 72.4753 38.0926 72.3785 38.3629 72.3779Z" fill="white"/>
<path d="M40.1739 71.7193C40.2007 71.7487 40.1123 71.872 40.0479 72.0382C39.9836 72.2043 39.9568 72.3544 39.9193 72.3571C39.8818 72.3598 39.8362 72.1856 39.9193 71.9872C40.0024 71.7889 40.1525 71.7005 40.1739 71.7193Z" fill="white"/>
<path d="M35.7603 59.1387C36.2906 59.8584 36.7843 60.6044 37.2396 61.3738C37.7317 62.1201 38.1852 62.8912 38.5984 63.6839C38.0673 62.9647 37.5735 62.2187 37.119 61.4488C36.6263 60.7029 36.1727 59.9318 35.7603 59.1387Z" fill="#161B46"/>
<path d="M34.2837 55.7223C34.2837 55.6847 34.4874 55.7357 34.5651 55.9474C34.6428 56.1591 34.5302 56.3253 34.4981 56.3011C34.4659 56.277 34.4981 56.1484 34.4338 55.9956C34.3694 55.8429 34.2676 55.7598 34.2837 55.7223Z" fill="#161B46"/>
<path d="M40.1287 52.6348C40.1662 52.6348 40.5012 54.9262 40.8791 57.767C41.257 60.6078 41.5276 62.9099 41.4901 62.9152C41.4526 62.9206 41.1176 60.6238 40.7397 57.783C40.3618 54.9422 40.0885 52.6401 40.1287 52.6348Z" fill="#161B46"/>
<path d="M48.6187 57.3761C48.6536 57.3761 48.1042 58.7697 47.3886 60.4581C46.6731 62.1465 46.0674 63.5026 46.0299 63.4865C45.9924 63.4704 46.5471 62.0902 47.26 60.4045C47.9729 58.7188 48.5839 57.36 48.6187 57.3761Z" fill="#161B46"/>
<path d="M49.7524 54.937C49.7872 54.9504 49.7524 55.0924 49.6988 55.2505C49.6452 55.4087 49.5514 55.5186 49.5139 55.5186C49.4764 55.5186 49.5139 55.3631 49.5702 55.2023C49.6264 55.0415 49.7176 54.9209 49.7524 54.937Z" fill="#161B46"/>
<path d="M55.7904 60.8542C55.8118 60.8864 54.2628 61.9798 52.3279 63.293C50.3929 64.6062 48.809 65.6514 48.7876 65.6193C48.7661 65.5871 50.3152 64.4937 52.2501 63.1778C54.1851 61.8619 55.769 60.8221 55.7904 60.8542Z" fill="#161B46"/>
<path d="M52.8886 67.0636C52.3931 67.1499 51.8906 67.1885 51.3878 67.1789C50.886 67.216 50.3819 67.2079 49.8816 67.1547C50.377 67.0686 50.8796 67.03 51.3824 67.0395C51.8842 67.0023 52.3882 67.0104 52.8886 67.0636Z" fill="#161B46"/>
<path d="M36.8243 66.1445C36.8029 66.1767 35.2163 65.1717 33.2733 63.8987C31.3303 62.6257 29.7893 61.5671 29.7893 61.5349C29.7893 61.5028 31.3973 62.5078 33.3403 63.7835C35.2833 65.0591 36.8457 66.1124 36.8243 66.1445Z" fill="#161B46"/>
<path d="M35.0795 68.1121C34.5934 68.1289 34.1068 68.0975 33.6269 68.0183C33.1406 67.9893 32.6584 67.9111 32.1877 67.7852C32.6739 67.7718 33.1602 67.8041 33.6403 67.8816C34.1263 67.9123 34.6082 67.9894 35.0795 68.1121Z" fill="#161B46"/>
<path d="M134.371 124.035C134.371 124.075 108.772 124.105 77.1986 124.105C45.6255 124.105 20.0208 124.075 20.0208 124.035C20.0208 123.995 45.6148 123.96 77.1959 123.96C108.777 123.96 134.371 123.997 134.371 124.035Z" fill="#161B46"/>
<path d="M92.957 61.7599L91.7 38.0446C91.5982 36.1177 91.491 34.1639 90.896 32.3282C90.3011 30.4924 89.1567 28.753 87.4442 27.8633C85.7317 26.9735 83.4242 27.1263 82.0842 28.5386L83.0142 29.8197C82.2566 44.3399 81.935 58.8718 82.0493 73.4152C82.0493 74.5033 82.0922 75.6691 82.7301 76.5508C83.8021 78.0302 85.9729 78.0141 87.7953 77.8506C89.3524 77.7086 91.1212 77.4459 91.9922 76.1461C92.3246 75.5882 92.5389 74.9679 92.622 74.3237C93.3992 70.1965 93.1794 65.9541 92.957 61.7599Z" fill="#161B46"/>
<path d="M79.8926 29.9129C80.3857 28.8409 81.8195 28.3907 82.9532 28.7578C84.0868 29.125 84.931 30.1193 85.4322 31.202C85.6546 31.6422 85.7755 32.1266 85.7859 32.6197C85.7889 32.8658 85.7346 33.1093 85.6271 33.3307C85.5197 33.5521 85.3621 33.7455 85.1668 33.8954C84.947 34.0325 84.6962 34.1117 84.4375 34.1258C84.1788 34.1399 83.9208 34.0883 83.6875 33.9758C83.223 33.7444 82.8357 33.3832 82.5726 32.936" fill="#00ACE9"/>
<path d="M89.9369 43.8277C89.476 38.7089 86.7692 33.7295 82.4329 30.9637C78.0967 28.1979 72.1685 27.9246 67.8296 30.6796C65.0692 32.4323 63.086 35.2356 61.947 38.3069C60.808 41.3782 61.3011 43.9054 61.3279 47.1723C61.3279 48.8661 61.5557 53.4167 63.0163 54.2717L85.8204 58.364C88.7443 54.1269 90.3979 48.9331 89.9369 43.8277Z" fill="#161B46"/>
<path d="M74.645 31.7681C68.0897 31.8351 62.8154 37.1817 62.5019 43.6137C62.2339 49.2417 62.0758 54.9313 62.3143 56.9628C63.0325 63.0919 68.4783 65.7424 70.1801 65.8925C70.3543 65.9086 70.2846 65.8925 70.1988 65.8925C70.2051 65.8967 70.2103 65.9022 70.214 65.9087C70.2177 65.9153 70.2199 65.9226 70.2203 65.93L69.5637 73.1151C69.4163 77.7971 73.9187 104.471 78.6757 104.653C83.4327 104.836 85.314 78.0785 85.5526 73.3858L86.9783 44.013C87.1364 37.2835 81.5969 31.7064 74.645 31.7681Z" fill="#B78876"/>
<path d="M70.1983 65.9109C70.1983 65.9109 70.1983 65.9109 70.1796 65.9109C69.9759 65.8947 70.0965 65.9055 70.1983 65.9109Z" fill="#B78876"/>
<path d="M64.3102 48.0143C64.2992 48.2716 64.3891 48.5229 64.5609 48.7147C64.7326 48.9065 64.9726 49.0235 65.2295 49.0408C65.3555 49.0572 65.4836 49.0483 65.6061 49.0145C65.7287 48.9808 65.8433 48.9229 65.9431 48.8443C66.043 48.7656 66.1261 48.6678 66.1877 48.5566C66.2492 48.4454 66.2879 48.323 66.3015 48.1966C66.314 47.9394 66.2249 47.6877 66.0534 47.4957C65.8819 47.3036 65.6418 47.1867 65.3849 47.1701C65.2587 47.1537 65.1305 47.1626 65.0078 47.1963C64.8851 47.23 64.7703 47.2879 64.6702 47.3665C64.5702 47.4451 64.4868 47.5429 64.425 47.6541C64.3631 47.7654 64.3241 47.8878 64.3102 48.0143Z" fill="#161B46"/>
<path d="M64.0911 45.305C64.15 45.4685 65.0586 45.3345 66.0207 45.8062C66.9828 46.2778 67.4759 47.0711 67.6287 47.0122C67.7037 46.988 67.685 46.7442 67.4786 46.3797C67.1862 45.9018 66.7605 45.5199 66.2538 45.2809C65.7574 45.0306 65.1966 44.9371 64.6458 45.0129C64.2572 45.0852 64.0643 45.23 64.0911 45.305Z" fill="#161B46"/>
<path d="M74.6157 48.3548C74.6032 48.6119 74.6923 48.8637 74.8637 49.0557C75.0352 49.2477 75.2753 49.3647 75.5322 49.3812C75.6582 49.3973 75.7861 49.3881 75.9085 49.3542C76.031 49.3203 76.1454 49.2624 76.2452 49.1838C76.345 49.1052 76.4281 49.0076 76.4897 48.8965C76.5514 48.7855 76.5903 48.6633 76.6042 48.537C76.6153 48.2798 76.5253 48.0285 76.3536 47.8367C76.1818 47.6449 75.9419 47.5279 75.685 47.5106C75.5591 47.4945 75.4314 47.5038 75.3091 47.5377C75.1869 47.5716 75.0726 47.6296 74.9731 47.7082C74.8735 47.7868 74.7906 47.8845 74.7292 47.9955C74.6679 48.1065 74.6292 48.2287 74.6157 48.3548Z" fill="#161B46"/>
<path d="M74.6451 46.9448C74.8086 47.0198 75.4491 46.2962 76.5506 45.9639C77.652 45.6316 78.6222 45.8567 78.6946 45.6959C78.7374 45.6263 78.5445 45.4601 78.121 45.3502C77.5364 45.212 76.9253 45.2342 76.3522 45.4145C75.7856 45.5807 75.2756 45.8996 74.8782 46.3364C74.6183 46.6714 74.5674 46.9126 74.6451 46.9448Z" fill="#161B46"/>
<path d="M70.4209 53.4142C70.4209 53.3553 69.767 53.2159 68.6923 53.039C68.4243 52.9988 68.1563 52.9372 68.1241 52.7496C68.092 52.562 68.1938 52.2672 68.3412 51.959L69.2417 49.941C70.4959 47.0626 71.4152 44.6935 71.2973 44.6453C71.1793 44.597 70.0671 46.8911 68.8129 49.7668C68.51 50.477 68.2206 51.1523 67.9472 51.7982C67.8293 52.101 67.6364 52.4414 67.757 52.8514C67.7936 52.9482 67.8517 53.0354 67.9269 53.1064C68.0021 53.1774 68.0924 53.2305 68.1911 53.2615C68.3417 53.308 68.4974 53.3359 68.6548 53.3446C69.7402 53.4437 70.4155 53.4759 70.4209 53.4142Z" fill="#161B46"/>
<path d="M70.2282 65.9053C70.2282 65.9053 74.358 66.3984 79.6751 63.5361C79.6751 63.5361 77.7991 68.8559 70.0513 67.8402L70.2282 65.9053Z" fill="#995037"/>
<path d="M74.5511 41.5551C74.6797 41.8231 75.7383 41.6087 77.0033 41.6542C78.2682 41.6998 79.3134 41.9517 79.4608 41.6811C79.5251 41.5524 79.3268 41.2978 78.898 41.0539C78.3197 40.7579 77.6822 40.5957 77.0327 40.5795C76.3832 40.5632 75.7384 40.6933 75.146 40.9601C74.7092 41.1799 74.4948 41.4157 74.5511 41.5551Z" fill="#161B46"/>
<path d="M64.0639 43.6651C64.2435 43.9117 64.9939 43.6919 65.8837 43.716C66.7734 43.7401 67.5185 43.9385 67.7034 43.6946C67.7838 43.5767 67.6766 43.3328 67.355 43.0943C66.9217 42.8064 66.4141 42.6509 65.894 42.6466C65.3738 42.6423 64.8637 42.7895 64.4258 43.0701C64.0988 43.2926 63.9835 43.5606 64.0639 43.6651Z" fill="#161B46"/>
<path d="M81.3344 46.7518C81.3665 46.7678 81.2218 47.06 80.8868 47.2529C80.7931 47.3219 80.6862 47.3708 80.5728 47.3966C80.4594 47.4224 80.3418 47.4246 80.2275 47.403C80.2275 47.3601 80.5143 47.3146 80.8145 47.135C81.1146 46.9554 81.3022 46.7276 81.3344 46.7518Z" fill="#995037"/>
<path d="M81.4977 47.9685C81.4816 48.0033 81.2297 47.9042 80.892 47.8774C80.6885 47.8886 80.4845 47.8886 80.281 47.8774C80.4636 47.7551 80.687 47.7098 80.9028 47.7514C81.2672 47.7675 81.5191 47.9363 81.4977 47.9685Z" fill="#995037"/>
<path d="M63.6591 47.5476C63.6591 47.5851 63.4447 47.5798 63.1955 47.5476C62.9462 47.5154 62.7533 47.4377 62.7587 47.4002C62.764 47.3627 62.9731 47.3654 63.2196 47.4002C63.4662 47.435 63.6645 47.5101 63.6591 47.5476Z" fill="#995037"/>
<path d="M63.4424 47.5957C63.4665 47.6252 63.354 47.7458 63.1932 47.8637C63.0323 47.9816 62.8823 48.0513 62.8608 48.0192C62.8394 47.987 62.9493 47.8691 63.1101 47.7512C63.2709 47.6333 63.421 47.5636 63.4424 47.5957Z" fill="#995037"/>
<path d="M76.2739 56.1562C76.317 55.8497 76.2744 55.5373 76.151 55.2535C76.0276 54.9698 75.828 54.7256 75.5745 54.5482C75.5745 54.5348 75.6924 54.5482 75.8425 54.6581C76.0341 54.7937 76.1851 54.979 76.2793 55.1941C76.3745 55.4103 76.4079 55.6488 76.3758 55.8828C76.349 56.0544 76.29 56.1562 76.2739 56.1562Z" fill="#995037"/>
<path d="M67.1543 32.2853C65.7865 33.2238 64.629 34.4366 63.7551 35.8466C62.8813 37.2565 62.3103 38.8329 62.0784 40.4754L62.5286 43.225C62.6948 41.9628 62.7752 40.545 64.0884 39.1702C64.9701 38.251 66.6022 37.388 68.3335 36.9485C73.2888 35.6862 74.9585 33.8879 77.1453 30.6505C73.9374 29.8465 69.8933 30.428 67.1543 32.2853Z" fill="#161B46"/>
<path d="M88.5436 39.5533C87.1634 34.5873 82.6476 30.645 77.5556 29.9375L77.1509 30.6504L73.3989 35.0509C73.0853 35.4154 72.7584 35.8094 72.6887 36.2837C72.5949 36.9216 72.9888 37.5407 73.4927 37.9507C74.6853 38.9262 76.3576 38.9879 77.8986 39.0227C79.4396 39.0575 81.1146 39.1915 82.2482 40.2475C83.6472 41.5633 83.6177 43.7958 83.146 45.6584C82.6621 47.8812 82.5068 50.1629 82.6851 52.4307C82.8566 54.1433 85.1212 49.9839 86.6086 50.8469C87.024 51.0881 85.9038 57.8149 86.3406 57.6005C86.7774 57.3861 86.7265 54.9794 86.8766 54.5292C87.6404 52.0957 88.4069 49.6516 88.8142 47.1351C89.2216 44.6185 89.227 42.0109 88.5436 39.5533Z" fill="#161B46"/>
<path d="M84.3223 52.4713C84.4376 50.8633 86.2251 49.81 87.6107 50.6515C88.3718 51.1125 88.9507 52.021 88.8328 53.7389C88.546 58.3163 84.0088 57.0835 84.0088 56.9549C84.0088 56.8718 84.1883 54.3633 84.3223 52.4713Z" fill="#B78876"/>
<path d="M85.5039 55.3013C85.5253 55.2879 85.5816 55.3629 85.7103 55.4353C85.8947 55.528 86.1077 55.5462 86.3052 55.4862C86.801 55.3415 87.2593 54.5991 87.337 53.7763C87.3752 53.3851 87.3248 52.9903 87.1896 52.6213C87.1563 52.475 87.0879 52.339 86.9903 52.2251C86.8927 52.1112 86.7689 52.0227 86.6295 51.9673C86.5395 51.9372 86.4417 51.9394 86.3531 51.9737C86.2646 52.0079 86.1907 52.072 86.1444 52.1549C86.0748 52.2782 86.0989 52.372 86.0747 52.3774C86.0506 52.3827 85.9809 52.2943 86.0292 52.1094C86.064 51.9999 86.1349 51.9055 86.2302 51.8414C86.3626 51.7559 86.5231 51.7251 86.6778 51.7556C86.863 51.8053 87.0324 51.9016 87.1698 52.0353C87.3073 52.169 87.4082 52.3357 87.463 52.5194C87.6315 52.9288 87.6977 53.3731 87.656 53.8139C87.5648 54.7358 87.0342 55.5666 86.3615 55.714C86.2363 55.7409 86.1067 55.7397 85.9821 55.7105C85.8574 55.6813 85.7408 55.6248 85.6406 55.5451C85.5039 55.4138 85.5039 55.3093 85.5039 55.3013Z" fill="#995037"/>
<path d="M85.4797 33.542C86.0954 34.2589 86.6418 35.0324 87.1119 35.8522C87.6316 36.7359 88.0797 37.6599 88.4519 38.6152C88.9068 39.7868 89.2487 40.9992 89.4729 42.2359C89.8886 44.4875 89.864 46.7982 89.4006 49.0404C89.3627 49.2447 89.3144 49.4468 89.2558 49.6461C89.2022 49.8364 89.154 50.016 89.1085 50.1821C89.0325 50.47 88.9385 50.7529 88.827 51.029C88.7466 51.2487 88.6797 51.4229 88.6287 51.565C88.6088 51.6273 88.5828 51.6874 88.551 51.7445C88.5635 51.6797 88.5814 51.6161 88.6046 51.5543C88.6475 51.4176 88.7038 51.2407 88.7761 51.0183C88.8801 50.7399 88.9695 50.4563 89.0441 50.1687C89.087 49.9999 89.1299 49.8203 89.1781 49.6327C89.2355 49.4337 89.2811 49.2314 89.3148 49.027C89.7472 46.7967 89.7582 44.5051 89.347 42.2708C89.1234 41.0429 88.7879 39.8381 88.3447 38.6715C87.979 37.7197 87.5418 36.7969 87.0368 35.9111C86.9296 35.7208 86.8251 35.5413 86.7286 35.3751C86.6321 35.209 86.5196 35.0562 86.4258 34.9088L86.1578 34.5041C86.0774 34.3808 85.9916 34.2736 85.9219 34.1745L85.5923 33.7189C85.5492 33.6637 85.5115 33.6044 85.4797 33.542Z" fill="#737690"/>
<path d="M85.9223 34.9355C85.9214 34.983 85.9133 35.03 85.8981 35.0749C85.859 35.2077 85.7973 35.3328 85.7159 35.4447C85.3881 35.8327 84.951 36.1129 84.4617 36.2487C83.856 36.4471 83.1217 36.6266 82.3177 36.8062C81.4346 37 80.5391 37.1316 79.6377 37.2001C78.7306 37.2679 77.8189 37.241 76.9175 37.1197C76.1801 37.02 75.4558 36.8403 74.7574 36.5837C74.2873 36.4127 73.8343 36.1982 73.404 35.9432C73.2512 35.8548 73.136 35.7771 73.0609 35.7235C72.9859 35.6699 72.9457 35.6404 72.9484 35.635C72.951 35.6297 73.1199 35.7315 73.4308 35.903C73.8683 36.1375 74.3235 36.3374 74.7922 36.5007C75.4879 36.7404 76.2063 36.9083 76.9362 37.0018C77.8296 37.1128 78.7318 37.1353 79.6296 37.0688C81.2639 36.9294 82.8801 36.626 84.4536 36.163C84.931 36.0393 85.3621 35.7795 85.6945 35.4153C85.7941 35.2678 85.8709 35.106 85.9223 34.9355Z" fill="#737690"/>
<path d="M85.0967 33.3545C85.0967 33.3545 85.0753 33.392 85.0217 33.4483C84.9456 33.5338 84.8651 33.6152 84.7805 33.6922C84.4712 33.9774 84.1304 34.2264 83.7648 34.4345C82.5406 35.1055 81.1648 35.4515 79.7689 35.4395C78.3844 35.4198 77.0078 35.2272 75.6711 34.866C75.1566 34.7374 74.7439 34.6221 74.4598 34.5391C74.3109 34.5025 74.1649 34.455 74.0229 34.397C74.1749 34.4161 74.3253 34.4457 74.4732 34.4855L75.6926 34.7695C77.0269 35.1008 78.3943 35.2807 79.7689 35.3055C81.1426 35.3149 82.4978 34.9882 83.7165 34.3541C84.2101 34.0698 84.6727 33.7348 85.0967 33.3545Z" fill="#737690"/>
<path d="M84.1646 32.84C84.0606 32.8876 83.9519 32.9245 83.8403 32.9499C83.6286 33.0169 83.3177 33.0946 82.9318 33.175C80.9081 33.5941 78.8188 33.5822 76.8 33.1401C76.414 33.0544 76.1058 32.974 75.8968 32.9043C75.7845 32.879 75.6756 32.8404 75.5725 32.7891C75.687 32.7988 75.8001 32.8204 75.9102 32.8534C76.1246 32.9043 76.4462 32.9713 76.8214 33.0437C78.8326 33.4286 80.8975 33.4404 82.913 33.0785C83.299 33.0115 83.6125 32.9472 83.8269 32.8989C83.9366 32.8655 84.05 32.8457 84.1646 32.84Z" fill="#737690"/>
<path d="M78.0516 28.9463C78.0253 29.0588 77.9876 29.1684 77.939 29.2732C77.8248 29.5645 77.696 29.8498 77.5531 30.1282C76.6136 31.9843 75.2333 33.5818 73.5331 34.7806C73.2782 34.9626 73.0144 35.1316 72.7425 35.2872C72.6454 35.3495 72.5421 35.4016 72.4343 35.4426C72.5162 35.3654 72.606 35.2972 72.7023 35.2389C72.8872 35.1183 73.1499 34.9361 73.4634 34.7029C75.1181 33.4729 76.4837 31.896 77.4647 30.0826C77.655 29.7369 77.797 29.4528 77.8908 29.2518C77.932 29.1439 77.986 29.0413 78.0516 28.9463Z" fill="#737690"/>
<path d="M61.7832 38.776C61.7832 38.776 61.8046 38.7331 61.8609 38.6581C61.9172 38.583 61.9976 38.4731 62.1102 38.3365C62.4244 37.9483 62.7581 37.5762 63.1098 37.2216C63.6305 36.6912 64.1993 36.2103 64.8089 35.7851C65.1723 35.5372 65.5509 35.3126 65.9426 35.1124C66.3646 34.9016 66.8018 34.7225 67.2504 34.5764C68.8291 34.0668 70.4952 33.8844 72.1468 34.0404C72.6448 34.0871 73.1391 34.1676 73.6261 34.2816C73.7976 34.3191 73.929 34.3593 74.0201 34.3835C74.0667 34.3935 74.1118 34.4097 74.1541 34.4317C74.1541 34.4317 73.9611 34.3995 73.6181 34.3352C73.13 34.242 72.637 34.1767 72.1414 34.1396C70.5033 34.0161 68.8568 34.2118 67.2933 34.7158C65.74 35.2459 64.3316 36.1304 63.1795 37.2993C62.7292 37.7388 62.3755 38.1033 62.153 38.3713L61.885 38.6768C61.8207 38.7358 61.7859 38.7813 61.7832 38.776Z" fill="#737690"/>
<path d="M65.2195 33.8587C65.3295 33.7709 65.447 33.6929 65.5706 33.6255C65.7082 33.5375 65.8504 33.457 65.9967 33.3843C66.1682 33.2959 66.3585 33.1887 66.5836 33.0976C66.8219 32.9845 67.0662 32.8843 67.3152 32.7974C67.5832 32.6902 67.8727 32.6071 68.1782 32.5133C69.519 32.1346 70.9166 31.9976 72.3054 32.1086C72.6243 32.1408 72.9272 32.1676 73.2059 32.2185C73.4846 32.2694 73.7419 32.315 73.9831 32.3713C74.2243 32.4276 74.428 32.4865 74.6129 32.5401C74.7712 32.583 74.9269 32.6349 75.0792 32.6956C75.2128 32.7376 75.3428 32.7905 75.4678 32.8537C75.3298 32.8308 75.1943 32.7949 75.0631 32.7465C74.9345 32.7063 74.779 32.658 74.5914 32.6152C74.4038 32.5723 74.1975 32.508 73.9616 32.4678C73.7258 32.4276 73.4685 32.3686 73.1898 32.3338C72.9111 32.2989 72.6109 32.2668 72.2947 32.2373C71.6089 32.1941 70.9207 32.204 70.2364 32.2668C69.5535 32.3384 68.8771 32.462 68.213 32.6366C67.9102 32.7277 67.6181 32.8054 67.3554 32.9046C67.0928 33.0038 66.8436 33.0949 66.6238 33.1726C66.404 33.2503 66.2057 33.3602 66.0342 33.4406C65.8627 33.521 65.7153 33.596 65.5974 33.6604C65.4772 33.7369 65.3508 33.8033 65.2195 33.8587Z" fill="#737690"/>
<path d="M87.9456 56.4536C88.0314 56.408 88.1654 56.4536 88.3209 56.6197C88.5357 56.8626 88.6786 57.1605 88.7336 57.48C88.777 57.7174 88.777 57.9608 88.7336 58.1982C88.6831 58.4954 88.5648 58.777 88.3879 59.021C88.1866 59.2991 87.9171 59.5206 87.6053 59.6642C87.2348 59.8396 86.8144 59.8785 86.4181 59.7741C86.0315 59.6675 85.6912 59.4356 85.4506 59.1148C85.2449 58.8439 85.1095 58.5262 85.0566 58.1902C85.0168 57.9246 85.0301 57.6537 85.0959 57.3933C85.1617 57.1329 85.2786 56.8881 85.4399 56.6733C85.6263 56.4109 85.8799 56.2036 86.1742 56.073C86.3805 55.9899 86.5253 56.0006 86.5842 56.073C86.7102 56.2258 86.4556 56.609 86.3162 57.145C86.2378 57.4009 86.2378 57.6744 86.3162 57.9302C86.3501 58.0443 86.4094 58.1491 86.4897 58.2369C86.57 58.3246 86.6693 58.393 86.7799 58.4368C86.8758 58.4604 86.9766 58.4548 87.0693 58.4207C87.1894 58.3754 87.2995 58.3071 87.3936 58.2197C87.5802 58.0335 87.7015 57.7919 87.7393 57.5309C87.8465 56.9896 87.7688 56.542 87.9456 56.4536Z" fill="#00ACE9"/>
<path d="M73.9077 56.4238C73.7751 56.062 73.5382 55.7477 73.227 55.5206C72.9553 55.3307 72.6324 55.2278 72.301 55.2256C71.9695 55.2234 71.6453 55.322 71.3712 55.5084C71.0971 55.6947 70.8861 55.9599 70.7662 56.2689C70.6462 56.5779 70.6231 56.916 70.6997 57.2385L70.6354 57.3135C70.5973 57.3959 70.5856 57.488 70.6019 57.5772C70.6182 57.6665 70.6617 57.7485 70.7265 57.812C70.8589 57.9365 71.0186 58.0282 71.1928 58.08C71.6816 58.2941 72.215 58.3861 72.7472 58.348C73.0123 58.3251 73.2661 58.2301 73.4811 58.0732C73.696 57.9164 73.8639 57.7037 73.9666 57.4582C74.0683 57.1171 74.0475 56.7511 73.9077 56.4238Z" fill="#7C5142"/>
<path d="M74.302 56.0031C74.302 56.1263 73.3881 56.2335 72.3456 56.6409C71.3031 57.0483 70.5473 57.5735 70.4696 57.4797C70.4348 57.4369 70.5822 57.2412 70.8823 56.9973C71.6832 56.3674 72.6556 55.9938 73.6722 55.9253C74.0608 55.9039 74.2993 55.9495 74.302 56.0031Z" fill="#161B46"/>
<path d="M69.6918 71.7002L55.4155 74.6187C53.5689 74.8063 49.6856 77.5855 48.6511 79.1265C42.3076 88.5628 44.3363 112.852 44.3363 113.162L62.2763 101.692L69.6918 71.7002Z" fill="#737690"/>
<path d="M54.9658 74.849L69.6924 71.7C69.6924 71.7 74.9131 101.922 78.6758 101.85C82.4385 101.778 88.0558 69.7275 88.0558 69.7275L101.378 74.0504C101.378 74.0504 98.7758 96.3131 98.162 100.282C97.5483 104.251 96.6264 124.035 96.6264 124.035L62.9067 123.96C62.9067 123.96 62.3465 108.478 60.1087 100.848C57.8709 93.2177 54.9658 74.849 54.9658 74.849Z" fill="#737690"/>
<path d="M87.1121 70.1514L101.287 73.5255C103.128 73.772 106.915 76.6745 107.906 78.2476C113.944 87.8796 111.141 112.093 111.122 112.404L93.5655 100.376L87.1121 70.1514Z" fill="#737690"/>
<path d="M82.1755 106.104C82.1443 106.151 82.1074 106.194 82.0656 106.232L81.7279 106.586C81.4331 106.891 80.9963 107.32 80.4469 107.843C79.3481 108.891 77.783 110.287 75.9659 111.721C74.1489 113.155 72.4203 114.347 71.1419 115.17C70.5041 115.58 69.9815 115.904 69.617 116.119L69.1962 116.365C69.1489 116.398 69.0975 116.424 69.0435 116.443C69.0863 116.406 69.132 116.372 69.1801 116.341L69.5875 116.073C69.9439 115.845 70.4585 115.508 71.0856 115.087C72.3452 114.245 74.0577 113.039 75.8721 111.603C77.6865 110.166 79.2596 108.792 80.3745 107.765C80.932 107.251 81.3768 106.832 81.685 106.538L82.0415 106.205C82.0827 106.167 82.1275 106.133 82.1755 106.104Z" fill="#161B46"/>
<path d="M82.7198 97.8546C82.7151 97.8913 82.7061 97.9273 82.693 97.9618C82.6689 98.0369 82.6367 98.1414 82.5938 98.27C82.5054 98.538 82.3687 98.94 82.1838 99.4492C81.9988 99.9584 81.7657 100.58 81.4816 101.296C81.3396 101.652 81.1815 102.033 81.0099 102.435C80.8426 102.867 80.6363 103.283 80.3935 103.678C80.3284 103.785 80.2539 103.885 80.1711 103.978C80.0912 104.077 80.0014 104.167 79.9031 104.246C79.7024 104.426 79.4556 104.547 79.1902 104.595C78.9067 104.624 78.6204 104.58 78.3593 104.466C78.0981 104.352 77.871 104.172 77.7001 103.944C76.873 103.046 76.1887 102.026 75.6714 100.921C75.1038 99.7038 74.6185 98.4503 74.2188 97.1685C73.7846 95.8419 73.3425 94.4698 72.9217 93.0521C71.2119 87.3892 69.9925 82.1686 69.2287 78.3683C68.8427 76.4709 68.5747 74.9245 68.3871 73.8579C68.3041 73.3219 68.2371 72.9145 68.1888 72.6278C68.1709 72.492 68.1549 72.3848 68.1406 72.3062C68.1364 72.2697 68.1364 72.2328 68.1406 72.1963C68.1521 72.2311 68.1602 72.267 68.1647 72.3035L68.229 72.6224C68.2799 72.9092 68.355 73.3219 68.4514 73.8498C68.6551 74.9218 68.9392 76.4548 69.3359 78.3496C70.1238 82.1418 71.3566 87.3517 73.0637 93.0119C73.4872 94.4269 73.9294 95.7991 74.3582 97.1257C74.7561 98.4018 75.2368 99.6507 75.7973 100.864C76.304 101.958 76.9735 102.968 77.7832 103.86C77.9407 104.076 78.1515 104.247 78.3948 104.356C78.6382 104.466 78.9058 104.51 79.1714 104.485C79.419 104.443 79.6495 104.331 79.8361 104.163C79.9351 104.084 80.025 103.994 80.1041 103.895C80.184 103.806 80.2566 103.71 80.3212 103.609C80.5631 103.22 80.7694 102.81 80.9376 102.384C81.1162 101.984 81.2761 101.606 81.4173 101.25C81.7094 100.537 81.9533 99.9102 82.1409 99.4144C82.3285 98.9186 82.4732 98.5193 82.5751 98.2459L82.6876 97.9404C82.7037 97.8895 82.7198 97.8546 82.7198 97.8546Z" fill="#161B46"/>
<path d="M66.4335 79.6414C66.2828 79.2195 66.0475 78.8328 65.742 78.5051C65.5876 78.3433 65.3951 78.2227 65.1821 78.1543C64.9691 78.086 64.7424 78.0721 64.5226 78.1138C64.0912 78.2264 63.7186 78.623 63.2898 78.5801C62.7002 78.5212 62.4564 77.76 61.9284 77.4947C61.799 77.4404 61.6591 77.4155 61.5189 77.4219C61.3786 77.4283 61.2416 77.4658 61.1177 77.5318C60.9937 77.5977 60.886 77.6904 60.8024 77.8031C60.7187 77.9158 60.6612 78.0458 60.634 78.1835L60.701 78.2022C60.4341 78.3356 60.2281 78.5656 60.1248 78.8454C60.1028 78.9148 60.0947 78.9878 60.1009 79.0602C60.1072 79.1327 60.1278 79.2032 60.1614 79.2677C60.195 79.3322 60.241 79.3894 60.2969 79.4361C60.3527 79.4827 60.4171 79.5179 60.4866 79.5396C60.8591 79.6066 61.178 79.1751 61.5586 79.226C61.9766 79.2849 62.0946 79.8585 62.4269 80.0997C62.8289 80.3864 63.381 80.1345 63.8044 79.8853C64.2278 79.636 64.7933 79.3975 65.1819 79.6977C65.3644 79.8859 65.5051 80.1106 65.5946 80.3569C65.7179 80.5874 65.9404 80.8125 66.1976 80.775C66.3065 80.7473 66.4035 80.6851 66.474 80.5976C66.5446 80.5102 66.5849 80.4022 66.5889 80.2899C66.5894 80.0645 66.5361 79.8421 66.4335 79.6414Z" fill="white"/>
<path d="M108.587 97.3266C108.436 96.9053 108.202 96.5188 107.898 96.1902C107.744 96.0289 107.551 95.9088 107.338 95.841C107.125 95.7731 106.899 95.7596 106.679 95.8016C106.248 95.9142 105.888 96.3082 105.444 96.2653C104.854 96.209 104.613 95.4452 104.082 95.1933C103.953 95.1384 103.813 95.113 103.673 95.119C103.533 95.125 103.396 95.1623 103.273 95.2281C103.149 95.2938 103.041 95.3865 102.958 95.4991C102.874 95.6118 102.817 95.7417 102.79 95.8794L102.855 95.9008C102.588 96.0325 102.381 96.2618 102.278 96.5413C102.235 96.6821 102.249 96.8344 102.317 96.9649C102.385 97.0955 102.502 97.1937 102.643 97.2381C103.013 97.3051 103.332 96.871 103.715 96.9246C104.098 96.9782 104.238 97.5544 104.583 97.7983C104.985 98.0823 105.535 97.8304 105.961 97.5812C106.387 97.3319 106.947 97.0934 107.336 97.3963C107.518 97.5837 107.66 97.8074 107.751 98.0528C107.874 98.2833 108.094 98.5111 108.354 98.4709C108.463 98.4436 108.56 98.3815 108.631 98.2939C108.702 98.2064 108.742 98.0982 108.745 97.9858C108.746 97.7566 108.692 97.5305 108.587 97.3266Z" fill="white"/>
<path d="M59.361 88.8201C59.6879 89.0881 60.2052 88.8817 60.4517 88.5521C60.6983 88.2224 60.776 87.7802 60.9368 87.3916C61.0976 87.003 61.4085 86.6144 61.8292 86.601C61.9954 86.601 62.1589 86.6519 62.3224 86.6305C62.7512 86.5796 62.9495 86.0945 63.188 85.7354C63.582 85.1377 64.3886 84.7706 65.0479 85.0573C65.7072 85.3441 65.9216 86.3973 65.3293 86.802C64.8067 87.1585 63.9491 86.9253 63.598 87.4506C63.247 87.9759 63.7133 88.745 63.3032 89.1872C62.8932 89.6294 62.0704 89.2435 61.58 89.6026C61.1512 89.9162 61.2584 90.6049 61.5612 91.0418C61.8641 91.4786 62.317 91.819 62.518 92.3121C62.8959 93.2313 62.25 94.2631 61.4889 94.8983C61.2562 95.1207 60.9621 95.2683 60.6447 95.3217C59.9881 95.378 59.4842 94.7536 59.2162 94.1506C58.8634 93.3435 58.6939 92.4682 58.7199 91.5877C58.7458 90.7073 58.9666 89.8435 59.3663 89.0586" fill="white"/>
<path d="M95.321 81.4262C95.731 81.3351 95.8918 80.8044 95.7819 80.3971C95.6721 79.9897 95.3773 79.6654 95.1736 79.2983C94.9699 78.9311 94.86 78.4433 95.1119 78.1083C95.2111 77.9743 95.3558 77.8805 95.4416 77.7385C95.6667 77.3713 95.4121 76.9157 95.2808 76.5057C95.0583 75.8223 95.2808 74.962 95.9079 74.6297C96.535 74.2974 97.4998 74.7798 97.4489 75.4953C97.4007 76.1251 96.6851 76.6504 96.8781 77.2534C97.071 77.8564 97.95 77.969 98.0546 78.5666C98.1591 79.1642 97.3283 79.5662 97.3042 80.1746C97.2854 80.7106 97.8884 81.051 98.419 81.0858C98.9497 81.1206 99.491 80.9813 100.011 81.1287C100.965 81.3967 101.375 82.5491 101.391 83.5407C101.421 83.8616 101.353 84.1841 101.196 84.4653C100.834 85.0147 100.03 85.02 99.3919 84.8566C98.5411 84.6297 97.751 84.2172 97.0787 83.6486C96.4063 83.08 95.8682 82.3695 95.5032 81.5682" fill="white"/>
<path d="M72.908 102.503C72.5574 102.137 72.1286 101.855 71.6537 101.678C71.1686 101.539 70.5656 101.678 70.3137 102.115C70.1904 102.34 70.1744 102.613 70.0457 102.833C69.6839 103.449 68.754 103.305 68.1188 103.637C67.3148 104.058 67.221 105.403 67.9794 105.92C67.6498 106.596 67.3443 107.325 67.4059 108.064C67.4676 108.804 68.0062 109.579 68.7459 109.643C69.1238 109.675 69.5044 109.53 69.8796 109.597C70.311 109.672 70.6407 110.007 70.9971 110.265C71.3536 110.522 71.8494 110.704 72.2165 110.463C72.7525 110.099 72.6453 109.024 73.2885 108.901C73.854 108.791 74.4624 109.605 74.8965 109.225C75.1645 108.992 75.0118 108.547 75.1484 108.223C75.3628 107.721 76.0757 107.764 76.5662 107.523C76.8272 107.391 77.0299 107.167 77.1349 106.894C77.24 106.621 77.2399 106.319 77.1347 106.046C77.0295 105.773 76.8267 105.549 76.5657 105.418C76.3046 105.286 76.0039 105.256 75.722 105.333C74.8242 105.601 74.4141 106.829 73.4868 106.941C72.8704 107.011 72.1817 106.539 71.6725 106.893C71.3777 107.097 71.2812 107.507 70.9837 107.697C70.8011 107.791 70.59 107.813 70.3918 107.76C70.1936 107.706 70.0224 107.581 69.9117 107.408C69.8089 107.227 69.7483 107.025 69.7344 106.817C69.7205 106.609 69.7536 106.4 69.8313 106.207C70.0457 105.583 70.5308 105.095 70.9998 104.631C71.2169 104.417 71.4983 104.186 71.785 104.28C71.9539 104.331 72.0691 104.481 72.2219 104.57C72.6882 104.838 73.2939 104.358 73.3689 103.827C73.444 103.297 73.1652 102.782 72.8919 102.318" fill="white"/>
<path d="M49.7715 94.8658C49.4209 94.4998 48.9922 94.2176 48.5173 94.0404C48.0322 93.8984 47.4292 94.0404 47.1773 94.4772C47.054 94.7024 47.0379 94.9731 46.9093 95.1955C46.5475 95.8092 45.6175 95.6672 44.9823 95.9995C44.1783 96.4203 44.0845 97.7656 44.843 98.2829C44.5133 98.9582 44.2078 99.6872 44.2695 100.427C44.3311 101.167 44.8698 101.941 45.6095 102.003C45.9873 102.035 46.3679 101.893 46.7431 101.96C47.1746 102.035 47.5042 102.37 47.8607 102.627C48.2171 102.884 48.7129 103.067 49.0774 102.823C49.6134 102.461 49.5089 101.386 50.1494 101.26C50.7149 101.15 51.3232 101.968 51.7574 101.585C52.0254 101.354 51.8726 100.909 52.0093 100.585C52.2237 100.084 52.9366 100.124 53.427 99.8855C53.688 99.7536 53.8907 99.5295 53.9958 99.2567C54.1008 98.9838 54.1007 98.6816 53.9956 98.4088C53.8904 98.1359 53.6876 97.9119 53.4265 97.7802C53.1654 97.6485 52.8648 97.6184 52.5828 97.6959C51.685 97.9639 51.275 99.1914 50.3477 99.3039C49.7313 99.3736 49.0425 98.9019 48.5333 99.2557C48.2385 99.4567 48.1421 99.8667 47.8446 100.06C47.661 100.158 47.4468 100.183 47.2454 100.13C47.0439 100.077 46.8701 99.9493 46.7592 99.7729C46.6563 99.5913 46.5957 99.3888 46.5818 99.1804C46.5679 98.9721 46.601 98.7634 46.6788 98.5696C46.8932 97.9452 47.3783 97.4601 47.8473 96.9938C48.0643 96.7821 48.3457 96.5516 48.6325 96.6427C48.8013 96.6963 48.9166 96.8464 49.0693 96.9321C49.5357 97.2001 50.1413 96.7231 50.2164 96.1898C50.2914 95.6564 50.0127 95.1473 49.7393 94.6836" fill="white"/>
<path d="M95.1142 90.6938C94.7634 90.3293 94.3359 90.0473 93.8626 89.8684C93.3775 89.729 92.7719 89.8684 92.5226 90.3052C92.3993 90.5303 92.3833 90.8037 92.2546 91.0235C91.8901 91.6399 90.9602 91.4951 90.3277 91.8275C89.5237 92.2455 89.4299 93.5936 90.1857 94.1108C89.856 94.7862 89.5532 95.5151 89.6121 96.2548C89.6711 96.9945 90.2125 97.7663 90.9521 97.8307C91.33 97.8628 91.7133 97.7208 92.0858 97.7851C92.5173 97.8628 92.8469 98.1978 93.2033 98.4524C93.5598 98.707 94.0583 98.8919 94.4227 98.6507C94.9587 98.2863 94.8515 97.2143 95.4947 97.0883C96.0629 96.9784 96.6686 97.7931 97.1028 97.4126C97.3708 97.1794 97.2153 96.7345 97.3547 96.4129C97.5664 95.9118 98.282 95.952 98.7697 95.7108C99.0383 95.5838 99.2489 95.36 99.3592 95.0842C99.4696 94.8084 99.4715 94.501 99.3646 94.2239C99.2578 93.9467 99.05 93.7202 98.7831 93.5899C98.5161 93.4596 98.2098 93.435 97.9255 93.5212C97.0277 93.7892 96.6177 95.0167 95.6904 95.1292C95.074 95.1962 94.3879 94.7272 93.876 95.0783C93.5839 95.282 93.4874 95.692 93.1899 95.8823C93.006 95.9806 92.7917 96.0054 92.5902 95.9516C92.3887 95.8979 92.2151 95.7697 92.1045 95.5929C92.0019 95.4117 91.9411 95.2097 91.9267 95.002C91.9123 94.7942 91.9447 94.5858 92.0215 94.3922C92.2385 93.7678 92.7209 93.28 93.1926 92.8164C93.407 92.6047 93.6884 92.3742 93.9779 92.4653C94.144 92.5189 94.2593 92.669 94.412 92.7547C94.881 93.0227 95.484 92.5457 95.5617 92.0124C95.6395 91.4791 95.3554 90.9672 95.082 90.5035" fill="white"/>
<path d="M74.7092 121.674C74.8714 121.674 75.032 121.643 75.1815 121.58C75.331 121.517 75.4662 121.425 75.5791 121.308C75.692 121.192 75.7802 121.054 75.8384 120.902C75.8967 120.751 75.9237 120.59 75.9179 120.427C75.8697 119.851 75.406 119.248 75.7115 118.761C75.9608 118.364 76.5584 118.356 76.8747 118.013C77.3437 117.506 76.9765 116.558 77.475 116.081C77.743 115.812 78.1477 115.812 78.5175 115.812C78.949 115.812 79.4662 115.869 79.6699 116.252C79.8468 116.587 79.6699 117.016 79.3885 117.273C79.0862 117.503 78.7622 117.704 78.421 117.871C78.2513 117.958 78.1039 118.083 77.9905 118.236C77.877 118.39 77.8006 118.567 77.7671 118.755C77.743 119.117 77.9708 119.439 78.1075 119.776C78.2441 120.114 78.2281 120.58 77.8957 120.736C77.7531 120.767 77.6133 120.81 77.4777 120.864C77.3035 120.977 77.2767 121.21 77.2097 121.4C76.9604 122.009 76.1886 122.172 75.5347 122.253C75.3755 122.285 75.2115 122.285 75.0523 122.253C74.9736 122.232 74.9028 122.189 74.8488 122.129C74.7949 122.068 74.7602 121.993 74.7494 121.912C74.7494 121.751 74.9236 121.596 75.071 121.668" fill="white"/>
<path d="M53.8563 76.8379C53.7223 76.5002 53.4918 76.1786 53.5186 75.8141L53.7572 75.1709L51.5971 76.46L51.6694 77.4837C51.587 77.8642 51.463 78.2345 51.2996 78.5879C51.1468 78.7728 50.8092 78.7219 50.8092 78.7219C50.6644 78.6495 50.4822 78.805 50.4902 78.9658C50.5007 79.0463 50.5352 79.1219 50.5892 79.1826C50.6432 79.2433 50.7143 79.2864 50.7931 79.3061C50.9514 79.3383 51.1145 79.3383 51.2728 79.3061C51.9294 79.2257 52.7012 79.0622 52.9505 78.4539C53.0282 78.2636 53.055 78.0304 53.2185 77.9179C53.3418 77.8375 53.5052 77.8482 53.6392 77.7892C53.9796 77.6499 53.9903 77.1729 53.8563 76.8379Z" fill="white"/>
<path d="M93.826 114.652C93.8453 114.492 93.8322 114.33 93.7875 114.176C93.7429 114.021 93.6676 113.877 93.566 113.752C93.4645 113.627 93.3389 113.523 93.1966 113.448C93.0543 113.372 92.8983 113.326 92.7379 113.312C92.1617 113.288 91.5051 113.674 91.0602 113.312C90.6984 113.018 90.7654 112.423 90.4652 112.066C90.0204 111.53 89.0341 111.785 88.6214 111.23C88.4016 110.935 88.4418 110.528 88.4901 110.158C88.549 109.729 88.6669 109.223 89.0716 109.067C89.4281 108.933 89.8301 109.164 90.0498 109.475C90.2402 109.804 90.399 110.15 90.5242 110.509C90.589 110.69 90.6956 110.853 90.8353 110.985C90.9751 111.116 91.1439 111.213 91.3282 111.268C91.682 111.34 92.033 111.152 92.3841 111.061C92.7352 110.97 93.2042 111.04 93.3087 111.388C93.3226 111.535 93.3477 111.68 93.3838 111.822C93.4749 112.005 93.7027 112.064 93.8796 112.163C94.4558 112.487 94.5201 113.275 94.5174 113.931C94.5271 114.094 94.5033 114.256 94.4477 114.408C94.4204 114.486 94.3701 114.553 94.3035 114.601C94.2369 114.649 94.1572 114.675 94.0752 114.676C93.9144 114.66 93.7831 114.462 93.8715 114.328" fill="white"/>
<path d="M58.0475 85.708L50.8598 89.3877C51.2564 95.7339 50.7472 105.599 50.439 109.273L48.2521 110.664C47.7965 114.665 51.8272 123.684 55.8097 124.807C59.7922 125.929 63.6139 124.756 64.6537 122.451C67.3337 116.49 61.5315 96.2243 61.5315 96.2243L58.0475 85.708Z" fill="#B78876"/>
<path d="M58.0475 85.708L50.8598 89.3877C51.2564 95.7339 50.7472 105.599 50.439 109.273L48.2521 110.664C47.7965 114.665 51.8272 123.684 55.8097 124.807C59.7922 125.929 63.6139 124.756 64.6537 122.451C67.3337 116.49 61.5315 96.2243 61.5315 96.2243L58.0475 85.708Z" fill="#B78876"/>
<path d="M58.0475 85.7082C58.0475 85.7082 57.4338 83.055 56.2091 81.9321C56.2091 81.9321 54.4108 81.2675 52.7653 80.7422C51.1197 80.2169 48.4773 80.8172 46.218 80.7422C43.9588 80.6672 34.083 79.8096 34.083 79.8096C34.083 79.8096 33.0378 79.8096 32.5527 80.2571C32.5527 80.2571 29.8727 79.5844 29.0017 81.9027V82.3127L29.7119 82.7602C29.7119 82.7602 33.0003 82.72 33.7105 82.7602C34.4207 82.8004 41.5575 85.7082 41.5575 85.7082C41.5575 85.7082 43.6131 86.9089 44.8083 86.9464C46.0036 86.9839 45.6284 86.8714 48.1342 87.3189C50.64 87.7665 50.8598 89.3879 50.8598 89.3879L58.0475 85.7082Z" fill="#B78876"/>
<path d="M47.6841 83.9208C47.6386 83.934 47.5919 83.943 47.5447 83.9476C47.4509 83.9476 47.3143 83.9744 47.1374 83.9878C46.6372 84.0259 46.1353 84.0376 45.6339 84.0226C45.2856 84.0175 44.9382 83.9879 44.5941 83.9342C44.2242 83.8699 43.8356 83.7707 43.4309 83.6662C42.6269 83.4384 41.7452 83.149 40.834 82.8247C40.4588 82.6907 40.0917 82.5567 39.7379 82.4227H39.762L37.2643 82.42H37.2V82.3557C37.2351 81.8851 37.4233 81.4389 37.736 81.0854C37.9822 80.8214 38.2952 80.6288 38.6418 80.5279C38.8601 80.4615 39.0863 80.4245 39.3145 80.418C39.3942 80.4098 39.4747 80.4144 39.553 80.4314C39.2507 80.4467 38.9517 80.5008 38.6632 80.5922C38.3345 80.7002 38.0397 80.8924 37.8083 81.1497C37.52 81.4928 37.349 81.9191 37.3206 82.3664L37.2616 82.3021H39.7647H39.7781L40.8689 82.7014C41.7801 83.023 42.6537 83.3151 43.4551 83.5509C43.8571 83.6662 44.2403 83.768 44.6021 83.8377C44.9409 83.8932 45.2828 83.9272 45.6259 83.9395C46.2583 83.9717 46.7702 83.961 47.124 83.9395L47.5313 83.9235C47.5819 83.9153 47.6333 83.9144 47.6841 83.9208Z" fill="#995037"/>
<path d="M45.5375 85.5991C45.4843 85.5989 45.4312 85.5926 45.3794 85.5804C45.2749 85.5643 45.1114 85.5375 44.9292 85.4973C44.5406 85.4169 43.9804 85.2909 43.2944 85.106C41.9168 84.7415 40.0784 84.0581 38.055 83.2863C37.4788 83.0612 36.9186 82.8414 36.3853 82.6163C36.1173 82.5037 35.8493 82.3965 35.6081 82.2706C35.3708 82.1632 35.1188 82.0918 34.8604 82.0589C34.3857 81.9879 33.9066 81.9503 33.4266 81.9463C32.9844 81.9463 32.5824 81.9463 32.234 81.9463H32.1938V81.9061C32.1085 81.4765 32.1371 81.0321 32.2769 80.617C32.3948 80.3303 32.5449 80.2391 32.5449 80.2499C32.5162 80.2776 32.4894 80.3071 32.4645 80.3383C32.397 80.4279 32.3437 80.5273 32.3064 80.6331C32.1889 81.0432 32.175 81.476 32.2662 81.8927L32.2206 81.8579C32.5744 81.8364 32.9764 81.823 33.4212 81.8284C33.9063 81.8264 34.3909 81.8596 34.8711 81.9275C35.1428 81.962 35.4077 82.0379 35.6564 82.1527C35.9002 82.2706 36.1629 82.3778 36.4255 82.4903C36.9615 82.7101 37.519 82.9299 38.0952 83.1523C40.1132 83.9241 41.9463 84.6236 43.3104 85.0095C43.9912 85.2052 44.5459 85.3472 44.9318 85.441L45.374 85.5509C45.4308 85.5582 45.486 85.5744 45.5375 85.5991Z" fill="#995037"/>
<path d="M50.9321 88.6113C50.941 88.6354 50.9464 88.6607 50.9482 88.6864C50.9482 88.7426 50.9669 88.815 50.9776 88.9061C51.0018 89.1018 51.0446 89.3885 51.0795 89.7611C51.1626 90.5034 51.2456 91.5808 51.2912 92.9154C51.3368 94.25 51.3341 95.842 51.259 97.6054C51.184 99.3688 51.0393 101.304 50.8383 103.33C50.6102 105.228 50.5028 107.138 50.5167 109.049C50.5454 110.609 50.8167 112.155 51.3207 113.632C51.6626 114.625 52.1562 115.56 52.784 116.403C52.8938 116.556 53.001 116.671 53.0922 116.789C53.1672 116.882 53.2468 116.972 53.3307 117.057L53.4808 117.223L53.529 117.282C53.2401 117.023 52.9763 116.738 52.7411 116.43C52.0904 115.594 51.5791 114.658 51.2269 113.659C50.7083 112.176 50.4287 110.62 50.3988 109.049C50.3738 107.136 50.474 105.224 50.6989 103.325C50.8999 101.301 51.05 99.3689 51.1304 97.6081C51.2108 95.8473 51.2269 94.2581 51.192 92.9261C51.1572 91.5942 51.0902 90.5141 51.0259 89.7744C50.9991 89.4019 50.9642 89.1125 50.9508 88.9168C50.9508 88.8257 50.9508 88.7534 50.9321 88.6944C50.9278 88.6669 50.9278 88.6389 50.9321 88.6113Z" fill="#995037"/>
<path d="M96.6449 85.6357L104.063 88.8035C104.101 95.1605 105.283 104.969 105.837 108.617L108.123 109.868C108.85 113.827 105.443 123.099 101.547 124.493C97.6499 125.887 93.7558 124.973 92.5686 122.743C89.4946 116.976 93.9086 96.3638 93.9086 96.3638L96.6449 85.6357Z" fill="#B78876"/>
<path d="M96.6445 85.6358C96.6445 85.6358 97.0733 82.9558 98.2204 81.7417C98.2204 81.7417 99.9704 80.9565 101.573 80.324C103.176 79.6915 105.861 80.1069 108.107 79.8765C110.353 79.646 120.151 78.1318 120.151 78.1318C120.151 78.1318 121.193 78.0594 121.708 78.4748C121.708 78.4748 124.348 77.6199 125.363 79.8738L125.39 80.2838L124.712 80.7769C124.712 80.7769 121.429 80.9619 120.724 81.0449C120.019 81.128 113.094 84.5289 113.094 84.5289C113.094 84.5289 111.127 85.8689 109.937 85.9842C108.747 86.0994 109.112 85.9654 106.644 86.5845C104.175 87.2036 104.063 88.8196 104.063 88.8196L96.6445 85.6358Z" fill="#B78876"/>
<path d="M106.862 83.1539C106.909 83.1476 106.956 83.1476 107.004 83.1539L107.411 83.1405C107.765 83.1405 108.277 83.103 108.904 83.0307C109.245 82.9941 109.583 82.9359 109.917 82.8565C110.276 82.7627 110.651 82.634 111.045 82.492C111.828 82.2052 112.68 81.8541 113.564 81.4682L114.636 80.9965H114.65L117.147 80.8357L117.094 80.9027C117.036 80.4581 116.837 80.0438 116.526 79.7209C116.277 79.4819 115.97 79.3111 115.636 79.2251C115.341 79.1532 115.039 79.1199 114.735 79.1259C114.812 79.1015 114.893 79.0907 114.974 79.0938C115.202 79.0848 115.43 79.1065 115.652 79.1581C116.003 79.2367 116.328 79.4068 116.593 79.6512C116.927 79.9845 117.144 80.417 117.212 80.884V80.9483H117.145L114.65 81.1279H114.674C114.328 81.286 113.972 81.4441 113.602 81.6022C112.715 81.9881 111.86 82.3365 111.069 82.6179C110.673 82.7573 110.292 82.8859 109.927 82.9744C109.588 83.0506 109.243 83.1034 108.896 83.1325C108.396 83.1813 107.894 83.2037 107.392 83.1995C107.215 83.1995 107.079 83.1995 106.985 83.1861C106.943 83.1808 106.901 83.1699 106.862 83.1539Z" fill="#995037"/>
<path d="M109.115 84.682C109.163 84.6574 109.213 84.6385 109.265 84.6257L109.702 84.4864C110.077 84.3658 110.624 84.1889 111.289 83.9504C112.629 83.4733 114.403 82.6532 116.381 81.7447C116.938 81.4767 117.482 81.2248 117.989 80.9675C118.243 80.8389 118.498 80.7156 118.731 80.5789C118.974 80.4524 119.234 80.3621 119.503 80.3109C119.978 80.212 120.46 80.1467 120.945 80.1153C121.387 80.0804 121.789 80.0644 122.145 80.0617L122.102 80.1019C122.163 79.6796 122.119 79.2489 121.974 78.8476C121.931 78.7439 121.871 78.6479 121.797 78.5635C121.77 78.5344 121.741 78.5067 121.711 78.4805C121.711 78.4805 121.88 78.5475 122.017 78.8262C122.185 79.2318 122.244 79.6744 122.188 80.1099V80.1474H122.148C121.797 80.1474 121.395 80.1796 120.955 80.2198C120.478 80.2592 120.003 80.3299 119.535 80.4315C119.278 80.4836 119.031 80.5739 118.801 80.6995C118.56 80.8416 118.308 80.9675 118.05 81.0988C117.536 81.3668 116.992 81.6161 116.442 81.8787C114.478 82.7872 112.69 83.5939 111.35 84.0522C110.678 84.2827 110.126 84.4462 109.742 84.5534C109.552 84.6043 109.402 84.6445 109.3 84.6659C109.24 84.6806 109.177 84.686 109.115 84.682Z" fill="#995037"/>
<path d="M103.94 88.0479C103.943 88.0737 103.943 88.0997 103.94 88.1256C103.94 88.1845 103.94 88.2569 103.94 88.348C103.94 88.5463 103.924 88.8358 103.922 89.2083C103.908 89.9533 103.922 91.0334 103.97 92.3653C104.018 93.6973 104.152 95.2785 104.353 97.0312C104.554 98.7839 104.835 100.7 105.17 102.705C105.529 104.591 105.764 106.499 105.873 108.416C105.949 109.986 105.776 111.558 105.361 113.074C105.077 114.094 104.631 115.062 104.04 115.941C103.824 116.264 103.58 116.566 103.311 116.844C103.323 116.822 103.337 116.8 103.353 116.78L103.493 116.606C103.554 116.531 103.629 116.434 103.713 116.316C103.796 116.199 103.895 116.07 103.994 115.909C104.563 115.025 104.993 114.059 105.267 113.044C105.666 111.536 105.827 109.974 105.747 108.416C105.631 106.508 105.394 104.609 105.036 102.732C104.699 100.724 104.42 98.8027 104.232 97.0473C104.045 95.2919 103.924 93.7053 103.881 92.3707C103.839 91.0361 103.847 89.9587 103.881 89.2083C103.881 88.8358 103.914 88.5463 103.924 88.3507C103.924 88.2596 103.938 88.1845 103.94 88.1282C103.937 88.1015 103.937 88.0746 103.94 88.0479Z" fill="#995037"/>
<path d="M89.4412 81.0479C89.2751 79.046 90.2988 77.17 90.9501 75.2725C92.2686 71.4401 92.1748 69.3069 92.4134 61.76L86.2708 60.3369C86.0671 62.8534 86.4289 61.8699 86.1904 64.5928C85.9519 67.3156 85.2604 70.0439 83.8025 72.3648C82.7627 74.0183 81.2994 75.5513 81.1038 77.4943C80.817 80.3056 83.288 82.731 83.4461 85.553C83.6632 89.4712 79.4261 92.7006 79.938 96.5893C80.0532 97.4495 80.4579 98.3339 81.227 98.7333C81.7818 99.0227 82.4357 99.0227 83.0602 99.0147L87.182 98.9584C87.6242 98.9584 88.112 98.9289 88.4282 98.618C88.9401 98.1195 88.6694 97.278 88.5649 96.5678C88.1012 93.5099 91.3762 91.0015 91.4539 87.9088C91.5156 85.5048 89.6396 83.4385 89.4412 81.0479Z" fill="#161B46"/>
<path d="M87.6483 36.6621C87.6128 36.7018 87.5732 36.7377 87.5303 36.7693C87.4473 36.8363 87.332 36.9408 87.1712 37.0588C86.719 37.4001 86.2415 37.7065 85.7428 37.9753C84.0932 38.8756 82.2553 39.3759 80.3771 39.4359C78.4988 39.496 76.6327 39.1141 74.929 38.321C74.4151 38.0843 73.9197 37.8092 73.447 37.4983C73.2781 37.3911 73.1575 37.2946 73.0718 37.2303C73.0251 37.2025 72.9827 37.1682 72.9458 37.1284C72.9955 37.1508 73.0431 37.1777 73.0878 37.2088C73.1763 37.2597 73.3049 37.3509 73.4764 37.45C73.9573 37.7425 74.4569 38.003 74.9719 38.2299C76.6679 38.9887 78.5143 39.3522 80.3714 39.2927C82.2285 39.2333 84.0478 38.7526 85.6919 37.8869C86.1899 37.6254 86.6714 37.3336 87.1337 37.0132C87.2999 36.9033 87.4205 36.8042 87.5062 36.7452C87.5498 36.7116 87.5976 36.6836 87.6483 36.6621Z" fill="white"/>
<path d="M113.13 36.5097C121.066 35.2444 126.473 27.7857 125.207 19.8504C123.942 11.9151 116.483 6.50797 108.548 7.77333C100.613 9.03868 95.2057 16.4973 96.4711 24.4326C97.7364 32.368 105.195 37.7751 113.13 36.5097Z" fill="white"/>
<path d="M97.4652 32.3039C97.4652 32.3173 97.6233 32.328 97.8779 32.4325C98.2392 32.5846 98.5438 32.8461 98.7489 33.1802C98.8922 33.4047 98.9838 33.6583 99.0169 33.9226C99.0516 34.2262 98.9976 34.5334 98.8614 34.807C98.7169 35.1245 98.4796 35.3908 98.1807 35.5707C97.8818 35.7507 97.5354 35.8358 97.1872 35.8149C96.8389 35.794 96.5052 35.6681 96.23 35.4537C95.9547 35.2393 95.7509 34.9465 95.6454 34.614C95.5426 34.3268 95.5249 34.0159 95.5945 33.7189C95.6595 33.4609 95.7803 33.2203 95.9483 33.0141C96.1926 32.7072 96.5258 32.4835 96.9024 32.3735C97.1704 32.3012 97.3258 32.3092 97.3258 32.2958C97.2885 32.2894 97.2505 32.2894 97.2132 32.2958C97.1669 32.291 97.1202 32.291 97.0739 32.2958C97.0116 32.3014 96.9499 32.3113 96.889 32.3253C96.5546 32.4087 96.2483 32.5795 96.0016 32.8201C95.7549 33.0607 95.5764 33.3626 95.4846 33.6948C95.4055 34.0129 95.4204 34.3471 95.5275 34.6569C95.6457 34.9981 95.8541 35.301 96.1305 35.5333C96.4279 35.7861 96.7973 35.9389 97.1864 35.9701C97.5757 35.9865 97.9599 35.8775 98.2826 35.6592C98.5867 35.4616 98.8298 35.1832 98.9847 34.8552C99.1296 34.5604 99.1845 34.2296 99.1428 33.9038C99.0913 33.5631 98.9499 33.2422 98.7333 32.9742C98.5166 32.7062 98.2324 32.5007 97.91 32.3789C97.8521 32.3551 97.792 32.3372 97.7305 32.3253C97.6859 32.3128 97.64 32.3056 97.5938 32.3039C97.5513 32.2958 97.5077 32.2958 97.4652 32.3039Z" fill="#161B46"/>
<path d="M94.4502 36.4045C94.4502 36.4045 94.5279 36.4045 94.6566 36.4688C94.8365 36.5449 94.9882 36.6751 95.0907 36.8413C95.1623 36.9541 95.208 37.0813 95.2247 37.2138C95.2457 37.3677 95.2205 37.5244 95.1524 37.6641C95.0812 37.824 94.9628 37.9584 94.8132 38.0493C94.6636 38.1403 94.4897 38.1834 94.315 38.1729C94.1402 38.1624 93.9728 38.0988 93.8351 37.9907C93.6974 37.8825 93.596 37.7349 93.5444 37.5676C93.4919 37.4251 93.4826 37.2704 93.5176 37.1227C93.5495 36.9931 93.6099 36.8722 93.6945 36.7689C93.8159 36.6163 93.9816 36.5049 94.1688 36.45C94.3028 36.4125 94.3832 36.4179 94.3805 36.4098H94.3243C94.3021 36.4059 94.2794 36.4059 94.2573 36.4098C94.2255 36.4117 94.194 36.4171 94.1635 36.4259C93.9962 36.4664 93.8429 36.5512 93.7198 36.6715C93.5967 36.7917 93.5083 36.943 93.464 37.1093C93.4231 37.2678 93.4306 37.4348 93.4854 37.589C93.5442 37.759 93.6479 37.91 93.7856 38.0259C93.9361 38.1542 94.1242 38.2303 94.3216 38.2429C94.5167 38.2519 94.7095 38.1974 94.871 38.0875C95.0216 37.9901 95.1423 37.8528 95.2194 37.6909C95.2921 37.544 95.32 37.3791 95.2998 37.2165C95.2786 37.0768 95.2274 36.9433 95.1497 36.8252C95.0381 36.655 94.8746 36.5253 94.6834 36.4554C94.6549 36.4435 94.6252 36.4345 94.5949 36.4286C94.5718 36.4253 94.5484 36.4253 94.5253 36.4286C94.469 36.4018 94.4502 36.4018 94.4502 36.4045Z" fill="#161B46"/>
<path d="M96.3635 23.2669C96.3635 23.2669 96.3635 23.1865 96.3635 23.031C96.3635 22.8756 96.3635 22.6424 96.3635 22.3423C96.3635 22.1895 96.3635 22.0207 96.3635 21.8331C96.3635 21.6455 96.3903 21.4418 96.4063 21.222C96.4224 21.0023 96.4412 20.7637 96.4626 20.5091C96.4695 20.3776 96.4866 20.2468 96.5135 20.1179C96.5377 19.9839 96.5618 19.8499 96.5886 19.7051C96.8188 18.3261 97.2561 16.9898 97.8857 15.7414C98.7024 14.0837 99.8307 12.5987 101.209 11.3677L101.796 10.8638C102.002 10.703 102.222 10.5556 102.439 10.3975L102.769 10.1617C102.877 10.0787 102.99 10.0034 103.109 9.93655L103.83 9.51847L104.194 9.30675C104.323 9.25047 104.462 9.19151 104.583 9.12987L105.371 8.77343C105.639 8.66087 105.923 8.57779 106.202 8.47863L106.625 8.33391C106.695 8.31247 106.765 8.28299 106.837 8.26423L107.057 8.21331C107.649 8.05505 108.252 7.93686 108.86 7.85955C109.171 7.82471 109.482 7.77111 109.796 7.74967L110.752 7.72555C110.913 7.72555 111.074 7.70947 111.237 7.72555L111.723 7.76307C112.047 7.78987 112.376 7.80327 112.703 7.84347C113.366 7.93828 114.021 8.07614 114.665 8.25619L115.158 8.39555C115.239 8.41967 115.322 8.43843 115.402 8.46523L115.643 8.55903L116.608 8.93423C116.924 9.07627 117.23 9.24511 117.546 9.40055C117.699 9.48363 117.862 9.55063 118.012 9.64711L118.468 9.91243C119.076 10.2935 119.658 10.7143 120.21 11.172L121.014 11.9197L121.215 12.1073C121.277 12.1743 121.336 12.2467 121.397 12.3137L121.74 12.7398L122.108 13.1579L122.434 13.6081L122.756 14.0503L122.92 14.2781L123.062 14.522L123.63 15.4975C123.788 15.8406 123.943 16.1863 124.104 16.532C124.692 17.9622 125.062 19.4728 125.2 21.013C125.303 22.5538 125.174 24.1014 124.817 25.6038L124.511 26.6999C124.376 27.0573 124.239 27.4084 124.101 27.7532L123.997 28.0212L123.871 28.2704L123.619 28.7716L123.367 29.2674L123.07 29.7364L122.775 30.2027L122.627 30.4332L122.459 30.6503L121.789 31.5132C121.314 32.0504 120.806 32.5562 120.266 33.0274L119.867 33.3758C119.733 33.4937 119.583 33.5849 119.444 33.6921C119.157 33.8931 118.881 34.1075 118.589 34.2977L117.694 34.8177L117.471 34.9463C117.396 34.9865 117.316 35.0187 117.241 35.0562L116.774 35.2679C116.166 35.5471 115.539 35.7853 114.898 35.9808C114.579 36.0719 114.258 36.1362 113.942 36.2139L113.467 36.3238C113.309 36.3587 113.146 36.3694 112.987 36.3935L112.039 36.5168C111.725 36.5463 111.409 36.5382 111.098 36.5516C110.484 36.5712 109.87 36.5488 109.26 36.4846L109.034 36.4685L108.815 36.431L108.375 36.3533C108.083 36.2997 107.791 36.2622 107.507 36.1925L106.673 35.9593L106.263 35.8468L105.869 35.694L105.095 35.3939C104.967 35.3463 104.842 35.2899 104.722 35.225L104.361 35.0428C104.122 34.9195 103.881 34.8069 103.65 34.681L102.991 34.2629C101.432 33.2628 100.081 31.9716 99.0113 30.46C98.8934 30.2938 98.7701 30.133 98.6602 29.9722L98.3681 29.4764L98.0867 28.994C98.0411 28.9163 97.9902 28.8386 97.9527 28.7582L97.8401 28.5197C97.6954 28.2007 97.5561 27.8979 97.4221 27.6085C97.2881 27.319 97.213 27.0215 97.1139 26.7509C97.0656 26.6142 97.0201 26.4829 96.9772 26.3542C96.9287 26.2318 96.891 26.1054 96.8646 25.9763L96.6985 25.2822C96.6502 25.0651 96.5939 24.8695 96.5618 24.6846C96.5296 24.4997 96.5135 24.3308 96.4921 24.1807C96.4519 23.8833 96.4197 23.6447 96.3983 23.5C96.3769 23.3553 96.3608 23.2669 96.3608 23.2669C96.3608 23.2669 96.3608 23.3446 96.3849 23.5C96.409 23.6555 96.4305 23.8859 96.4653 24.1861C96.4841 24.3362 96.5055 24.505 96.5296 24.6899C96.5537 24.8749 96.6127 25.0732 96.6609 25.2903C96.7092 25.5073 96.7628 25.7405 96.8191 25.9897C96.8461 26.1192 96.8828 26.2464 96.9289 26.3703L97.0629 26.7669C97.1621 27.0349 97.2425 27.3351 97.3685 27.6299L97.7839 28.5465C97.8187 28.6269 97.8562 28.7073 97.8937 28.7903C97.9313 28.8734 97.9822 28.9458 98.0277 29.0262L98.2957 29.5113L98.5879 30.0151C98.7004 30.1786 98.821 30.3421 98.9389 30.5082C100.008 32.0344 101.363 33.3386 102.929 34.3487L103.591 34.7694C103.822 34.8981 104.066 35.0133 104.304 35.1366L104.669 35.3215C104.79 35.3873 104.915 35.4446 105.044 35.493L105.824 35.7985C105.955 35.8495 106.092 35.9031 106.22 35.9513L106.633 36.0665L107.472 36.3024C107.756 36.3747 108.051 36.4123 108.346 36.4685L108.788 36.5463L109.01 36.5838L109.238 36.5999C109.853 36.6672 110.472 36.6914 111.09 36.6722C111.404 36.6722 111.72 36.6722 112.039 36.6374L112.996 36.5141C113.156 36.4927 113.317 36.4793 113.478 36.4471L113.955 36.3345C114.274 36.2568 114.601 36.1952 114.92 36.1014C115.566 35.9045 116.199 35.6654 116.815 35.3858L117.281 35.1714L117.517 35.0642L117.739 34.9329L118.642 34.3969C118.937 34.2066 119.216 33.9922 119.505 33.7885C119.647 33.6813 119.8 33.5875 119.934 33.4696L120.336 33.1159C120.882 32.6425 121.396 32.133 121.874 31.5909L122.55 30.7199L122.721 30.5002L122.871 30.267L123.169 29.7953L123.466 29.3237L123.734 28.8225L123.989 28.3187L124.118 28.0667L124.219 27.7987C124.359 27.445 124.487 27.0912 124.635 26.7267C124.782 26.3623 124.841 25.9897 124.946 25.6199C125.308 24.101 125.44 22.5363 125.337 20.9781C125.194 19.4362 124.822 17.9241 124.233 16.4918L123.753 15.4466L123.18 14.4604C123.131 14.38 123.086 14.2969 123.035 14.2165L122.871 13.986L122.542 13.5304L122.22 13.0641L121.853 12.6433L121.486 12.2253L121.301 12.0162L121.1 11.8286L120.296 11.0729C119.736 10.6075 119.146 10.1796 118.53 9.79183L118.077 9.52383C117.927 9.42735 117.761 9.35767 117.605 9.27459C117.286 9.11915 116.978 8.94763 116.659 8.80559L115.684 8.42771L115.442 8.33391C115.362 8.30711 115.276 8.28567 115.196 8.26423L114.7 8.12487C114.05 7.94291 113.388 7.80414 112.719 7.70947C112.387 7.66927 112.058 7.65855 111.731 7.62907L111.232 7.58887C111.069 7.58887 110.905 7.58887 110.744 7.58887L109.78 7.61567C109.463 7.63443 109.15 7.69071 108.839 7.72823C108.225 7.80576 107.617 7.92575 107.019 8.08735L106.799 8.13827C106.727 8.15971 106.655 8.18651 106.585 8.21063L106.159 8.35535C105.877 8.45719 105.593 8.54027 105.323 8.65283L104.519 9.01731L104.13 9.19687C104.004 9.26387 103.884 9.33891 103.76 9.40859L103.037 9.82935C102.917 9.89746 102.803 9.97357 102.694 10.0571L102.364 10.2957C102.144 10.4565 101.924 10.6092 101.715 10.77C101.506 10.9308 101.321 11.1184 101.126 11.2873C99.7356 12.5287 98.5989 14.0276 97.7785 15.7012C97.1557 16.9645 96.73 18.3157 96.5162 19.7078C96.4894 19.8499 96.468 19.9892 96.4439 20.1232C96.4163 20.252 96.4001 20.3829 96.3956 20.5145C96.3769 20.7825 96.3608 21.0076 96.3447 21.2301C96.3286 21.4525 96.3099 21.6562 96.3072 21.8438C96.3045 22.0314 96.3206 22.2002 96.3259 22.353C96.3259 22.6531 96.3447 22.889 96.3501 23.0417C96.3554 23.1945 96.3635 23.2669 96.3635 23.2669Z" fill="#161B46"/>
<path d="M107.272 18.9388H109.333C109.333 18.9388 109.333 17.2075 111.134 17.1754C111.48 17.1649 111.821 17.2624 112.109 17.4546C112.397 17.6467 112.618 17.9238 112.742 18.2474C112.851 18.5174 112.895 18.8096 112.869 19.1C112.844 19.3903 112.749 19.6704 112.594 19.917C112.246 20.4932 111.479 21.0185 110.088 20.7746V25.4244H112.128V22.6935C112.128 22.6935 114.985 21.9538 114.985 18.8021C114.985 15.7871 112.281 15.085 111.123 15.085C110.249 15.085 107.231 15.2994 107.272 18.9388Z" fill="#00ACE9"/>
<path d="M112.16 26.376H110.091V28.3083H112.16V26.376Z" fill="#00ACE9"/>
</g>
<path d="M33.3354 136.192C33.3354 136.757 33.202 137.291 32.9354 137.792C32.6687 138.293 32.242 138.704 31.6554 139.024C31.0687 139.333 30.3167 139.488 29.3994 139.488H27.3834V144H25.5594V132.88H29.3994C30.2527 132.88 30.9727 133.029 31.5594 133.328C32.1567 133.616 32.5994 134.011 32.8874 134.512C33.186 135.013 33.3354 135.573 33.3354 136.192ZM29.3994 138C30.0927 138 30.61 137.845 30.9514 137.536C31.2927 137.216 31.4634 136.768 31.4634 136.192C31.4634 134.976 30.7754 134.368 29.3994 134.368H27.3834V138H29.3994ZM43.155 139.376C43.155 139.707 43.1337 140.005 43.091 140.272H36.355C36.4083 140.976 36.6697 141.541 37.139 141.968C37.6083 142.395 38.1843 142.608 38.867 142.608C39.8483 142.608 40.5417 142.197 40.947 141.376H42.915C42.6483 142.187 42.163 142.853 41.459 143.376C40.7657 143.888 39.9017 144.144 38.867 144.144C38.0243 144.144 37.267 143.957 36.595 143.584C35.9337 143.2 35.411 142.667 35.027 141.984C34.6537 141.291 34.467 140.491 34.467 139.584C34.467 138.677 34.6483 137.883 35.011 137.2C35.3843 136.507 35.9017 135.973 36.563 135.6C37.235 135.227 38.003 135.04 38.867 135.04C39.699 135.04 40.4403 135.221 41.091 135.584C41.7417 135.947 42.2483 136.459 42.611 137.12C42.9737 137.771 43.155 138.523 43.155 139.376ZM41.251 138.8C41.2403 138.128 41.0003 137.589 40.531 137.184C40.0617 136.779 39.4803 136.576 38.787 136.576C38.1577 136.576 37.619 136.779 37.171 137.184C36.723 137.579 36.4563 138.117 36.371 138.8H41.251ZM46.774 136.464C47.0407 136.016 47.3927 135.669 47.83 135.424C48.278 135.168 48.806 135.04 49.414 135.04V136.928H48.95C48.2353 136.928 47.6913 137.109 47.318 137.472C46.9553 137.835 46.774 138.464 46.774 139.36V144H44.95V135.184H46.774V136.464ZM54.2906 144.144C53.5973 144.144 52.9733 144.021 52.4186 143.776C51.8746 143.52 51.4426 143.179 51.1226 142.752C50.8026 142.315 50.632 141.829 50.6106 141.296H52.4986C52.5306 141.669 52.7066 141.984 53.0266 142.24C53.3573 142.485 53.768 142.608 54.2586 142.608C54.7706 142.608 55.1653 142.512 55.4426 142.32C55.7306 142.117 55.8746 141.861 55.8746 141.552C55.8746 141.221 55.7146 140.976 55.3946 140.816C55.0853 140.656 54.5893 140.48 53.9066 140.288C53.2453 140.107 52.7066 139.931 52.2906 139.76C51.8746 139.589 51.512 139.328 51.2026 138.976C50.904 138.624 50.7546 138.16 50.7546 137.584C50.7546 137.115 50.8933 136.688 51.1706 136.304C51.448 135.909 51.8426 135.6 52.3546 135.376C52.8773 135.152 53.4746 135.04 54.1466 135.04C55.1493 135.04 55.9546 135.296 56.5626 135.808C57.1813 136.309 57.512 136.997 57.5546 137.872H55.7306C55.6986 137.477 55.5386 137.163 55.2506 136.928C54.9626 136.693 54.5733 136.576 54.0826 136.576C53.6026 136.576 53.2346 136.667 52.9786 136.848C52.7226 137.029 52.5946 137.269 52.5946 137.568C52.5946 137.803 52.68 138 52.8506 138.16C53.0213 138.32 53.2293 138.448 53.4746 138.544C53.72 138.629 54.0826 138.741 54.5626 138.88C55.2026 139.051 55.7253 139.227 56.1306 139.408C56.5466 139.579 56.904 139.835 57.2026 140.176C57.5013 140.517 57.656 140.971 57.6666 141.536C57.6666 142.037 57.528 142.485 57.2506 142.88C56.9733 143.275 56.5786 143.584 56.0666 143.808C55.5653 144.032 54.9733 144.144 54.2906 144.144ZM63.4615 144.144C62.6295 144.144 61.8775 143.957 61.2055 143.584C60.5335 143.2 60.0055 142.667 59.6215 141.984C59.2375 141.291 59.0455 140.491 59.0455 139.584C59.0455 138.688 59.2428 137.893 59.6375 137.2C60.0322 136.507 60.5708 135.973 61.2535 135.6C61.9362 135.227 62.6988 135.04 63.5415 135.04C64.3842 135.04 65.1468 135.227 65.8295 135.6C66.5122 135.973 67.0508 136.507 67.4455 137.2C67.8402 137.893 68.0375 138.688 68.0375 139.584C68.0375 140.48 67.8348 141.275 67.4295 141.968C67.0242 142.661 66.4695 143.2 65.7655 143.584C65.0722 143.957 64.3042 144.144 63.4615 144.144ZM63.4615 142.56C63.9308 142.56 64.3682 142.448 64.7735 142.224C65.1895 142 65.5255 141.664 65.7815 141.216C66.0375 140.768 66.1655 140.224 66.1655 139.584C66.1655 138.944 66.0428 138.405 65.7975 137.968C65.5522 137.52 65.2268 137.184 64.8215 136.96C64.4162 136.736 63.9788 136.624 63.5095 136.624C63.0402 136.624 62.6028 136.736 62.1975 136.96C61.8028 137.184 61.4882 137.52 61.2535 137.968C61.0188 138.405 60.9015 138.944 60.9015 139.584C60.9015 140.533 61.1415 141.269 61.6215 141.792C62.1122 142.304 62.7255 142.56 63.4615 142.56ZM74.2886 135.04C74.982 135.04 75.6006 135.184 76.1446 135.472C76.6993 135.76 77.1313 136.187 77.4406 136.752C77.75 137.317 77.9046 138 77.9046 138.8V144H76.0966V139.072C76.0966 138.283 75.8993 137.68 75.5046 137.264C75.11 136.837 74.5713 136.624 73.8886 136.624C73.206 136.624 72.662 136.837 72.2566 137.264C71.862 137.68 71.6646 138.283 71.6646 139.072V144H69.8406V135.184H71.6646V136.192C71.9633 135.829 72.342 135.547 72.8006 135.344C73.27 135.141 73.766 135.04 74.2886 135.04ZM79.6233 139.552C79.6233 138.667 79.8046 137.883 80.1673 137.2C80.5406 136.517 81.0419 135.989 81.6713 135.616C82.3113 135.232 83.0153 135.04 83.7833 135.04C84.4766 135.04 85.0793 135.179 85.5913 135.456C86.1139 135.723 86.5299 136.059 86.8393 136.464V135.184H88.6793V144H86.8393V142.688C86.5299 143.104 86.1086 143.451 85.5753 143.728C85.0419 144.005 84.4339 144.144 83.7513 144.144C82.9939 144.144 82.3006 143.952 81.6713 143.568C81.0419 143.173 80.5406 142.629 80.1673 141.936C79.8046 141.232 79.6233 140.437 79.6233 139.552ZM86.8393 139.584C86.8393 138.976 86.7113 138.448 86.4553 138C86.2099 137.552 85.8846 137.211 85.4793 136.976C85.0739 136.741 84.6366 136.624 84.1673 136.624C83.6979 136.624 83.2606 136.741 82.8553 136.976C82.4499 137.2 82.1193 137.536 81.8633 137.984C81.6179 138.421 81.4953 138.944 81.4953 139.552C81.4953 140.16 81.6179 140.693 81.8633 141.152C82.1193 141.611 82.4499 141.963 82.8553 142.208C83.2713 142.443 83.7086 142.56 84.1673 142.56C84.6366 142.56 85.0739 142.443 85.4793 142.208C85.8846 141.973 86.2099 141.632 86.4553 141.184C86.7113 140.725 86.8393 140.192 86.8393 139.584ZM92.899 132.16V144H91.075V132.16H92.899ZM103.082 132.88C104.266 132.88 105.301 133.109 106.186 133.568C107.082 134.016 107.77 134.667 108.25 135.52C108.741 136.363 108.986 137.349 108.986 138.48C108.986 139.611 108.741 140.592 108.25 141.424C107.77 142.256 107.082 142.896 106.186 143.344C105.301 143.781 104.266 144 103.082 144H99.45V132.88H103.082ZM103.082 142.512C104.383 142.512 105.381 142.16 106.074 141.456C106.767 140.752 107.114 139.76 107.114 138.48C107.114 137.189 106.767 136.181 106.074 135.456C105.381 134.731 104.383 134.368 103.082 134.368H101.274V142.512H103.082ZM111.722 134.016C111.391 134.016 111.114 133.904 110.89 133.68C110.666 133.456 110.554 133.179 110.554 132.848C110.554 132.517 110.666 132.24 110.89 132.016C111.114 131.792 111.391 131.68 111.722 131.68C112.042 131.68 112.314 131.792 112.538 132.016C112.762 132.24 112.874 132.517 112.874 132.848C112.874 133.179 112.762 133.456 112.538 133.68C112.314 133.904 112.042 134.016 111.722 134.016ZM112.618 135.184V144H110.794V135.184H112.618ZM123.093 139.376C123.093 139.707 123.071 140.005 123.029 140.272H116.293C116.346 140.976 116.607 141.541 117.077 141.968C117.546 142.395 118.122 142.608 118.805 142.608C119.786 142.608 120.479 142.197 120.885 141.376H122.852C122.586 142.187 122.101 142.853 121.397 143.376C120.703 143.888 119.839 144.144 118.805 144.144C117.962 144.144 117.205 143.957 116.533 143.584C115.871 143.2 115.349 142.667 114.965 141.984C114.591 141.291 114.405 140.491 114.405 139.584C114.405 138.677 114.586 137.883 114.949 137.2C115.322 136.507 115.839 135.973 116.501 135.6C117.173 135.227 117.941 135.04 118.805 135.04C119.637 135.04 120.378 135.221 121.029 135.584C121.679 135.947 122.186 136.459 122.549 137.12C122.911 137.771 123.093 138.523 123.093 139.376ZM121.189 138.8C121.178 138.128 120.938 137.589 120.469 137.184C119.999 136.779 119.418 136.576 118.725 136.576C118.095 136.576 117.557 136.779 117.109 137.184C116.661 137.579 116.394 138.117 116.309 138.8H121.189ZM127.016 136.672V141.552C127.016 141.883 127.09 142.123 127.24 142.272C127.4 142.411 127.666 142.48 128.04 142.48H129.16V144H127.72C126.898 144 126.269 143.808 125.832 143.424C125.394 143.04 125.176 142.416 125.176 141.552V136.672H124.136V135.184H125.176V132.992H127.016V135.184H129.16V136.672H127.016Z" fill="#161B46"/>
<defs>
<clipPath id="clip0_1456_45320">
<rect width="134" height="134" fill="white" transform="translate(11)"/>
</clipPath>
</defs>
</svg>
