<svg width="308" height="56" viewBox="0 0 308 56" fill="none" xmlns="http://www.w3.org/2000/svg">
<path fill-rule="evenodd" clip-rule="evenodd" d="M84 0H80V13.7704H76V21.1145H72V31.2131H68V44.9836H64V51.4099H60V38.5573H56V44.9836H52V41.3112H48V42.2296H44V35.8033H40V29.377H36V30.2953H32V27.5408H28V25.7047H24V33.9671H20V31.2131H16V35.8033H12V41.3112H8V50.492H4V54.1638H0V55.9999H4V56.0002H8V55.9998H12V56L16 56H20V55.9999H24V55.9998H28V55.9998H32V56.0002H36V55.9999H40V56H44V56.0001H48V55.9998H52V56H56V55.9999H60V56H64V56H68V56H72V55.9998H76V55.9999H80V56H84V56.0002H88V55.9998H92V56H96V56.0002H100V56.0001H104V55.9998H108V55.9999H112V56.0001H116V55.9998H120V56.0002H124V55.9998H128V56H132V56.0001H136V56H140V55.9998H144V56.0001H148V55.9999H152L156 55.9999L160 55.9999V56H164H168L172 56.0001V56H176L180 56L184 56H188L192 56L196 56L200 56V56.0002H204V56H208L212 56V56.0002H216L220 56.0001V55.9998H224V55.9999H228L232 55.9999L236 55.9998L240 55.9998V56H244V56.0001H248V55.9999H252L256 55.9998H260V56.0002H264L268 56L272 55.9998H276H280H284L288 55.9999H292L296 56H300L304 56.0002L308 56V46.8197H304V39.4756H300V31.2131H296V35.8033H292V43.1474H288V47.7375H284V52.3277H280H276H272H268V51.4099H264V50.492H260V52.3277H256H252V43.1474H248V48.6559H244V51.4099H240V52.3277H236V47.7375H232V43.1474H228V33.9671H224V25.7047H220V22.0329H216V39.4756H212V31.2131H208V35.8033H204V39.4756H200V44.9836H196V46.8197H192V44.9836H188V46.8197H184V44.9836H180V51.4099H176V44.9836H172V48.6559H168V46.8197H164H160V43.1474H156V38.5573H152V43.1474H148V42.2296H144V41.3112H140V44.9836H136V48.6559H132V35.8033H128V41.3112H124V50.492H120V52.3277H116V42.2296H112V33.9671H108V25.7047H104V22.0329H100V39.4756H96V31.2131H92V16.5244H88V8.26246H84V0Z" fill="#86D7F5"/>
</svg>
