<svg width="248" height="248" viewBox="0 0 248 248" fill="none" xmlns="http://www.w3.org/2000/svg">
<path d="M107.464 8.85487L49.2109 85.0657L205.874 45.848L118.614 6.03864C116.713 5.16979 114.575 4.97523 112.55 5.48668C110.526 5.99813 108.732 7.18541 107.464 8.85487V8.85487Z" fill="#F4F5FB"/>
<path d="M48.3848 85.6081L107.207 8.66387C108.518 6.93368 110.376 5.70478 112.474 5.17947C114.572 4.65415 116.785 4.86372 118.748 5.77368L206.871 45.9713L48.3848 85.6081ZM114.783 5.49637C113.414 5.4973 112.065 5.81712 110.84 6.43077C109.615 7.04443 108.547 7.93529 107.721 9.03361V9.03361L50.0309 84.5296L204.894 45.7617L118.485 6.32214C117.322 5.7939 116.059 5.52283 114.783 5.52718V5.49637Z" fill="#E8E8ED"/>
<path d="M49.207 85.0686L206.421 45.7139L227.602 131.515C228.021 133.214 227.754 135.011 226.857 136.51C225.961 138.01 224.51 139.09 222.823 139.512L78.3296 175.683C76.6427 176.105 74.8583 175.835 73.3689 174.932C71.8795 174.03 70.8072 172.568 70.3879 170.87L49.207 85.0686Z" fill="#F4F5FB"/>
<path d="M196.744 50.4147L142.279 106.45L59.9575 87.7899L50.5394 43.8209C50.0182 41.5528 50.4029 39.1694 51.6106 37.1843C52.8183 35.1993 54.7523 33.7716 56.9956 33.2091L176.084 3.40144C177.206 3.1194 178.373 3.06311 179.518 3.23577C180.662 3.40844 181.761 3.80668 182.753 4.4077C183.744 5.00872 184.608 5.80071 185.295 6.73835C185.982 7.67599 186.479 8.74085 186.756 9.872L196.744 50.4147Z" fill="white"/>
<path d="M134.8 102.043L70.1221 170.101C70.3504 171.027 70.7577 171.898 71.3205 172.665C71.8834 173.432 72.5908 174.08 73.4023 174.571C74.2139 175.063 75.1136 175.389 76.0502 175.53C76.9869 175.671 77.9419 175.625 78.8609 175.395L222.244 139.498C224.099 139.034 225.695 137.847 226.68 136.198C227.666 134.549 227.961 132.573 227.501 130.705L227.366 130.162L142.793 100.121C141.418 99.6313 139.933 99.5525 138.515 99.8937C137.097 100.235 135.807 100.981 134.8 102.043V102.043Z" fill="#E6E8F3"/>
<path d="M114.136 39.7001L67.5479 51.3711L68.7312 56.1612L115.32 44.4902L114.136 39.7001Z" fill="#E6E8F3"/>
<path d="M173.915 37.6208L70.5469 63.5156L71.8839 68.9277L175.252 43.0328L173.915 37.6208Z" fill="#E6E8F3"/>
<path d="M177.184 50.8429L73.8164 76.7378L75.1534 82.1498L178.521 56.255L177.184 50.8429Z" fill="#E6E8F3"/>
<path d="M179.357 68.3655L176.12 71.6254L89.3433 94.4696L78.0036 91.8012L77.5752 90.5626L180.611 64.7543L181.058 66.5475L179.357 68.3655Z" fill="#E6E8F3"/>
<path d="M157.161 91.1356L118.069 100.922L106.117 98.1731L164.541 83.5374L157.161 91.1356Z" fill="#E6E8F3"/>
<path d="M132.438 104.52C132.438 104.52 132.395 104.588 132.291 104.705L131.826 105.217L130.027 107.158L123.362 114.263C117.72 120.247 109.899 128.517 101.24 137.582C92.5807 146.647 84.6252 154.781 78.8238 160.611C75.9231 163.526 73.5609 165.88 71.9208 167.488L70.0299 169.337L69.5281 169.811C69.4757 169.87 69.4161 169.922 69.3506 169.965C69.3958 169.901 69.447 169.841 69.5036 169.787L69.9809 169.288L71.8168 167.396L78.6524 160.451C84.411 154.578 92.3237 146.425 101.001 137.354C109.679 128.283 117.524 120.099 123.185 114.103L129.917 107.072L131.752 105.174L132.242 104.687C132.377 104.57 132.438 104.52 132.438 104.52Z" fill="#E6E8F3"/>
<path d="M227.366 130.15C227.335 130.236 209.301 123.932 187.086 116.069C164.872 108.206 146.886 101.76 146.917 101.673C146.948 101.587 164.982 107.885 187.196 115.748C209.411 123.612 227.396 130.058 227.366 130.15Z" fill="#E6E8F3"/>
<path d="M199.332 47.7152C199.298 47.7701 199.259 47.8217 199.215 47.8693L198.873 48.2945L197.422 49.9152L192.019 55.825C187.441 60.7981 181.065 67.6137 173.917 75.0518C166.769 82.4898 160.172 89.1268 155.387 93.8965L149.689 99.5167L148.123 101.026L147.713 101.415C147.615 101.501 147.566 101.544 147.56 101.538C147.598 101.485 147.641 101.436 147.688 101.39L148.074 100.977L149.597 99.4242L155.215 93.7301C159.964 88.9173 166.494 82.2495 173.641 74.8176C180.789 67.3857 187.19 60.6194 191.817 55.6894L197.294 49.8536L198.793 48.276L199.191 47.8693C199.231 47.8123 199.279 47.7605 199.332 47.7152Z" fill="#E6E8F3"/>
<path d="M132.438 104.52C132.365 104.516 132.294 104.504 132.224 104.484L131.612 104.336L129.164 103.719C127.071 103.189 124.03 102.444 120.266 101.556C112.745 99.7631 102.311 97.4522 90.7816 94.9379C79.2522 92.4236 68.8244 90.0757 61.3156 88.2208C57.5581 87.2965 54.5228 86.52 52.436 85.9531L50.031 85.2937L49.419 85.115C49.3467 85.0996 49.2768 85.0747 49.2109 85.041L49.4251 85.0841L50.0371 85.2259L52.4849 85.8421C54.584 86.3721 57.6254 87.1116 61.389 88.0051C68.91 89.7984 79.3379 92.1093 90.8734 94.6236C102.409 97.1379 112.831 99.4858 120.339 101.341C124.097 102.265 127.132 103.035 129.219 103.608L131.618 104.268L132.23 104.447L132.438 104.52Z" fill="#E6E8F3"/>
<path d="M196.743 50.4143C196.743 50.4143 196.682 50.211 196.578 49.7981L196.131 48.0541C195.74 46.5073 195.171 44.2457 194.436 41.3309L188.274 16.6072C187.947 15.3007 187.615 13.9635 187.276 12.5954C187.111 11.9176 186.94 11.2212 186.762 10.5249C186.677 10.1736 186.591 9.82234 186.481 9.4834C186.385 9.13737 186.262 8.79945 186.114 8.47276C185.507 7.09026 184.553 5.89086 183.346 4.99284C182.138 4.09482 180.719 3.52921 179.229 3.35178C178.455 3.24401 177.671 3.24401 176.897 3.35178C176.126 3.48735 175.343 3.70304 174.554 3.89408L169.75 5.12656L159.707 7.62235L115.089 18.838L70.4157 30.0043L60.3857 32.5063L57.9378 33.1225C57.1433 33.2887 56.3651 33.5259 55.6123 33.8312C54.1605 34.4649 52.9079 35.4855 51.9895 36.783C51.5451 37.4136 51.1831 38.0991 50.9125 38.8228C50.6601 39.5376 50.4937 40.2804 50.4168 41.0351C50.2393 42.5449 50.6554 43.9992 50.9492 45.4351C51.5611 48.3109 52.1466 51.0655 52.7055 53.6989C54.9392 64.2305 56.7445 72.747 57.9929 78.6444C58.6048 81.5901 59.0883 83.8702 59.4188 85.4231C59.5717 86.1934 59.6941 86.785 59.7798 87.1917C59.8655 87.5985 59.89 87.808 59.89 87.808C59.89 87.808 59.8349 87.6046 59.7431 87.1917C59.6513 86.7789 59.5228 86.1996 59.3514 85.4355C59.0087 83.8764 58.513 81.5963 57.8705 78.6568C56.5915 72.7655 54.7495 64.249 52.473 53.7359C51.91 51.1045 51.3102 48.3499 50.6922 45.472C50.3984 44.0547 49.97 42.551 50.1536 40.992C50.224 40.2115 50.3926 39.4433 50.6554 38.7057C50.935 37.959 51.3072 37.2509 51.7631 36.5981C52.2267 35.9338 52.7809 35.3384 53.4093 34.8295C54.0385 34.3012 54.7417 33.8693 55.4961 33.5477C56.2618 33.233 57.0545 32.9896 57.8644 32.8206L60.3122 32.2043L70.3607 29.7024L115.034 18.5114L159.707 7.34504L169.737 4.84309L174.541 3.64758C175.331 3.45038 176.102 3.24086 176.91 3.09912C178.089 2.92169 179.292 2.98291 180.448 3.27918C181.604 3.57545 182.689 4.10084 183.641 4.8246C184.852 5.74777 185.809 6.96757 186.42 8.368C186.573 8.70455 186.7 9.05279 186.799 9.40946C186.909 9.76072 186.995 10.112 187.08 10.4632C187.252 11.1596 187.417 11.8559 187.588 12.54C187.925 13.908 188.249 15.2453 188.574 16.5517L194.632 41.3186C195.336 44.2396 195.887 46.5073 196.26 48.0541C196.443 48.8244 196.584 49.4098 196.676 49.8104C196.768 50.211 196.743 50.4143 196.743 50.4143Z" fill="#E8E8ED"/>
<path d="M236 243.563C236 243.806 185.631 244 123.5 244C61.3688 244 11 243.822 11 243.563C11 243.305 61.3632 243.11 123.5 243.11C185.637 243.11 236 243.337 236 243.563Z" fill="#161B46"/>
<path d="M128.319 17.8892L122.267 22.5295L122.56 31.3911L117.022 26.9603L113.962 29.5978L102.335 15.1407L128.319 17.8892Z" fill="#00ACE9"/>
<path d="M119.99 24.415C119.99 24.6862 122.561 31.3909 122.561 31.3909L117.022 26.9601L119.99 24.415Z" fill="#00ACE9"/>
<g opacity="0.3">
<path opacity="0.3" d="M119.99 24.415C119.99 24.6862 122.561 31.3909 122.561 31.3909L117.022 26.9601L119.99 24.415Z" fill="#0E1339"/>
</g>
<path d="M102.335 15.1407L119.99 24.4152L122.56 31.3911L122.267 22.5295L102.335 15.1407Z" fill="#00ACE9"/>
<path opacity="0.1" d="M102.335 15.1407L119.99 24.4152L122.56 31.3911L122.267 22.5295L102.335 15.1407Z" fill="#0E1339"/>
<path d="M151.293 134.705C150.205 134.669 149.136 134.406 148.153 133.934C149.241 133.97 150.31 134.233 151.293 134.705Z" fill="#161B46"/>
<path d="M156.298 135.938C156.298 136.03 155.839 135.999 155.325 135.876C154.811 135.753 154.407 135.567 154.425 135.475C154.444 135.382 154.884 135.413 155.405 135.543C155.925 135.672 156.323 135.845 156.298 135.938Z" fill="#161B46"/>
<path d="M135.638 30.2336C135.096 30.2415 134.555 30.156 134.041 29.9805C133.502 29.9138 132.979 29.7486 132.499 29.4931C133.045 29.4208 133.599 29.4757 134.121 29.6535C134.666 29.7208 135.186 29.9198 135.638 30.2336V30.2336Z" fill="#161B46"/>
<path d="M141.562 32.79C140.535 32.4508 139.564 31.9607 138.68 31.3357C139.226 31.388 139.752 31.5696 140.216 31.8657C141.017 32.2724 141.611 32.7099 141.562 32.79Z" fill="#161B46"/>
<path d="M146.697 36.7092C146.629 36.777 146.085 36.3148 145.399 35.7355C144.714 35.1562 144.175 34.6632 144.255 34.5831C144.777 34.7688 145.248 35.0748 145.632 35.4767C146.299 36.0683 146.764 36.6475 146.697 36.7092Z" fill="#161B46"/>
<path d="M150.614 41.8549C150.528 41.898 150.124 41.3002 149.634 40.5607C149.292 40.1369 149.023 39.6577 148.839 39.1434C148.906 39.0879 149.42 39.6179 149.916 40.3759C150.261 40.8064 150.5 41.3133 150.614 41.8549V41.8549Z" fill="#161B46"/>
<path d="M152.834 47.9374C152.571 47.4595 152.389 46.9409 152.296 46.403C152.091 45.895 151.977 45.3547 151.959 44.8069C152.29 45.2505 152.514 45.7651 152.614 46.3105C152.819 46.8262 152.895 47.3851 152.834 47.9374Z" fill="#161B46"/>
<path d="M153.165 54.4079C153.056 53.8728 153.033 53.3234 153.098 52.781C153.051 52.2363 153.101 51.6876 153.245 51.1603C153.432 51.6806 153.497 52.2374 153.435 52.7872C153.474 53.3412 153.381 53.8966 153.165 54.4079Z" fill="#161B46"/>
<path d="M151.494 60.6565C151.56 60.1155 151.713 59.5889 151.947 59.0974C152.072 58.569 152.278 58.0637 152.559 57.6C152.589 58.1552 152.477 58.7089 152.235 59.2084C152.11 59.7451 151.856 60.2426 151.494 60.6565Z" fill="#161B46"/>
<path d="M147.755 65.9192C147.694 65.8452 148.171 65.3029 148.753 64.6374C149.334 63.9718 149.799 63.4049 149.879 63.4727C149.705 64.0005 149.405 64.4768 149.004 64.8592C148.41 65.5494 147.816 65.987 147.755 65.9192Z" fill="#161B46"/>
<path d="M142.357 69.4196C142.771 69.0675 143.238 68.7845 143.74 68.5816C144.192 68.2798 144.691 68.0549 145.215 67.916C144.86 68.3424 144.406 68.6746 143.893 68.8835C143.433 69.1871 142.906 69.3713 142.357 69.4196Z" fill="#161B46"/>
<path d="M136.079 70.7818C136.591 70.592 137.131 70.4898 137.676 70.4794C138.206 70.3568 138.751 70.3214 139.292 70.3745C138.812 70.6491 138.271 70.7996 137.719 70.8126C137.179 70.9431 136.614 70.9325 136.079 70.7818Z" fill="#161B46"/>
<path d="M129.775 69.5796C130.822 69.7993 131.846 70.1153 132.835 70.5237C132.287 70.5927 131.73 70.5161 131.22 70.3016C130.684 70.1929 130.186 69.9439 129.775 69.5796Z" fill="#161B46"/>
<path d="M125.309 65.118C125.4 65.0872 125.682 65.7342 126.184 66.4614C126.686 67.1886 127.169 67.6939 127.102 67.7863C127.034 67.8788 126.435 67.4166 125.908 66.6586C125.538 66.23 125.326 65.6858 125.309 65.118Z" fill="#161B46"/>
<path d="M128.026 60.0711C128.026 60.1697 127.359 60.3854 126.661 60.8846C125.963 61.3837 125.59 62.0061 125.505 61.9568C125.419 61.9075 125.688 61.1681 126.465 60.6134C126.898 60.2392 127.456 60.0452 128.026 60.0711V60.0711Z" fill="#161B46"/>
<path d="M133.558 62.382C133.472 62.4313 133.08 61.8274 132.444 61.2358C131.807 60.6442 131.159 60.3484 131.22 60.256C131.788 60.3011 132.318 60.5635 132.701 60.9893C133.14 61.3375 133.444 61.8307 133.558 62.382V62.382Z" fill="#161B46"/>
<path d="M133.766 68.6739C133.811 68.137 133.912 67.6062 134.065 67.0901C134.111 66.5513 134.212 66.0185 134.365 65.5002C134.53 66.0383 134.53 66.6137 134.365 67.1518C134.323 67.7086 134.114 68.2395 133.766 68.6739V68.6739Z" fill="#161B46"/>
<path d="M129.574 73.5114C129.519 73.4313 130.076 72.9692 130.743 72.3961C131.41 71.8229 131.967 71.3299 132.01 71.3916C132.053 71.4532 131.655 72.0571 130.963 72.6241C130.272 73.191 129.623 73.5916 129.574 73.5114Z" fill="#161B46"/>
<path d="M123.852 76.5063C124.256 76.1374 124.731 75.8544 125.247 75.6743C125.717 75.3949 126.24 75.2165 126.783 75.1505C125.91 75.8029 124.912 76.2647 123.852 76.5063V76.5063Z" fill="#161B46"/>
<path d="M118.094 79.4521C118.045 79.3719 118.626 78.9344 119.397 78.4661C119.847 78.15 120.361 77.9395 120.903 77.8499C120.952 77.9423 120.327 78.3182 119.562 78.7619C119.125 79.0916 118.625 79.3266 118.094 79.4521V79.4521Z" fill="#161B46"/>
<path d="M113.197 83.6917C113.13 83.6301 113.552 83.0262 114.195 82.3914C114.549 81.9688 114.995 81.6336 115.498 81.4116C115.56 81.4856 115.064 82.0279 114.434 82.6441C113.803 83.2603 113.295 83.7533 113.197 83.6917Z" fill="#161B46"/>
<path d="M109.526 89.0038C109.629 88.46 109.855 87.9474 110.187 87.5063C110.659 86.736 111.142 86.1814 111.215 86.2369C111.057 86.7603 110.806 87.2508 110.475 87.685C110.01 88.443 109.612 89.0469 109.526 89.0038Z" fill="#161B46"/>
<path d="M107.176 95.0429C107.145 94.4909 107.246 93.9393 107.47 93.4345C107.585 92.8925 107.827 92.3856 108.174 91.9556C107.995 93.0267 107.659 94.0651 107.176 95.0368V95.0429Z" fill="#161B46"/>
<path d="M106.332 101.477C106.109 100.396 106.186 99.275 106.553 98.2351C106.646 98.7733 106.646 99.3238 106.553 99.862C106.574 100.409 106.499 100.956 106.332 101.477V101.477Z" fill="#161B46"/>
<path d="M107.176 107.904C106.901 107.427 106.728 106.898 106.668 106.351C106.488 105.826 106.442 105.265 106.533 104.718C106.77 105.211 106.927 105.74 106.998 106.283C107.168 106.805 107.228 107.357 107.176 107.904Z" fill="#161B46"/>
<path d="M109.666 113.882C109.587 113.931 109.152 113.339 108.755 112.526C108.459 112.058 108.281 111.525 108.234 110.973C108.587 111.39 108.864 111.865 109.054 112.378C109.345 112.839 109.552 113.348 109.666 113.882V113.882Z" fill="#161B46"/>
<path d="M113.534 119.076C113.473 119.138 112.922 118.67 112.31 117.98C111.916 117.593 111.615 117.121 111.429 116.599C111.508 116.538 111.992 117.08 112.567 117.758C113.142 118.436 113.601 119.009 113.534 119.076Z" fill="#161B46"/>
<path d="M118.504 123.205C117.972 123.061 117.481 122.793 117.072 122.423C116.35 121.893 115.848 121.363 115.897 121.289C116.402 121.494 116.868 121.785 117.274 122.151C117.984 122.675 118.553 123.125 118.504 123.205Z" fill="#161B46"/>
<path d="M124.317 126.003C123.766 125.999 123.224 125.862 122.738 125.603C122.207 125.453 121.721 125.174 121.324 124.789C121.86 124.869 122.379 125.037 122.86 125.288C123.38 125.447 123.872 125.688 124.317 126.003Z" fill="#161B46"/>
<path d="M127.554 126.835C127.554 126.922 127.499 126.996 127.468 126.989C127.438 126.983 127.425 126.903 127.468 126.81C127.511 126.718 127.523 126.65 127.554 126.656C127.585 126.662 127.573 126.743 127.554 126.835Z" fill="#161B46"/>
<path d="M122.876 110.697L116.184 108.484L114.817 112.676L121.509 114.889L122.876 110.697Z" fill="#00ACE9"/>
<g opacity="0.3">
<path opacity="0.3" d="M122.875 110.7L116.184 108.484L114.818 112.676L121.509 114.892L122.875 110.7Z" fill="#0E1339"/>
</g>
<path d="M122.861 110.708C121.609 111.34 120.312 111.875 118.981 112.31L118.865 112.353L118.791 112.255L118.675 112.107C117.746 110.97 116.909 109.76 116.172 108.489C117.181 109.555 118.107 110.696 118.944 111.903L119.054 112.051L118.865 111.996C120.16 111.459 121.496 111.028 122.861 110.708Z" fill="#00ACE9"/>
<g opacity="0.1">
<path opacity="0.1" d="M122.861 110.708C121.609 111.34 120.312 111.875 118.981 112.31L118.865 112.353L118.791 112.255L118.675 112.107C117.746 110.97 116.909 109.76 116.172 108.489C117.181 109.555 118.107 110.696 118.944 111.903L119.054 112.051L118.865 111.996C120.16 111.459 121.496 111.028 122.861 110.708Z" fill="#0E1339"/>
</g>
<path d="M118.093 111.059C117.633 111.476 117.1 111.804 116.521 112.027C115.987 112.345 115.404 112.568 114.795 112.686C115.26 112.271 115.794 111.944 116.374 111.719C116.906 111.402 117.487 111.179 118.093 111.059V111.059Z" fill="#00ACE9"/>
<g opacity="0.1">
<path opacity="0.1" d="M118.093 111.059C117.633 111.476 117.1 111.804 116.521 112.027C115.987 112.345 115.404 112.568 114.795 112.686C115.26 112.271 115.794 111.944 116.374 111.719C116.906 111.402 117.487 111.179 118.093 111.059V111.059Z" fill="#0E1339"/>
</g>
<path d="M121.612 114.935C121.237 114.471 120.947 113.943 120.755 113.376C120.351 112.458 120.082 111.669 120.205 111.682C120.58 112.147 120.872 112.674 121.067 113.241C121.352 113.766 121.537 114.341 121.612 114.935V114.935Z" fill="#00ACE9"/>
<g opacity="0.1">
<path opacity="0.1" d="M121.612 114.935C121.237 114.471 120.947 113.943 120.755 113.376C120.351 112.458 120.082 111.669 120.205 111.682C120.58 112.147 120.872 112.674 121.067 113.241C121.352 113.766 121.537 114.341 121.612 114.935V114.935Z" fill="#0E1339"/>
</g>
<path d="M150.164 127.118L132.954 121.427L129.437 132.212L146.647 137.903L150.164 127.118Z" fill="#00ACE9"/>
<path d="M150.148 127.131C149.903 127.273 149.645 127.39 149.377 127.482L147.235 128.326C145.399 129.023 142.896 129.972 140.075 131.013L139.959 131.056L139.886 130.958L139.598 130.576C137.725 128.111 136.036 125.812 134.831 124.154L133.393 122.188C133.209 121.953 133.047 121.702 132.909 121.437C133.134 121.641 133.338 121.866 133.521 122.108L135.02 124.013C136.275 125.627 137.988 127.876 139.867 130.372L140.155 130.748L139.965 130.693C142.78 129.657 145.32 128.745 147.156 128.104L149.334 127.359C149.598 127.257 149.87 127.181 150.148 127.131V127.131Z" fill="#00ACE9"/>
<g opacity="0.2">
<path d="M150.148 127.131C149.903 127.273 149.645 127.39 149.377 127.482L147.235 128.326C145.399 129.023 142.896 129.972 140.075 131.013L139.959 131.056L139.886 130.958L139.598 130.576C137.725 128.111 136.036 125.812 134.831 124.154L133.393 122.188C133.209 121.953 133.047 121.702 132.909 121.437C133.134 121.641 133.338 121.866 133.521 122.108L135.02 124.013C136.275 125.627 137.988 127.876 139.867 130.372L140.155 130.748L139.965 130.693C142.78 129.657 145.32 128.745 147.156 128.104L149.334 127.359C149.598 127.257 149.87 127.181 150.148 127.131V127.131Z" fill="#0E1339"/>
</g>
<path d="M137.909 128.049C136.571 128.891 135.176 129.638 133.735 130.286C132.343 131.03 130.901 131.676 129.421 132.221C130.754 131.372 132.147 130.622 133.588 129.978C134.98 129.229 136.424 128.585 137.909 128.049V128.049Z" fill="#00ACE9"/>
<g opacity="0.2">
<path d="M137.909 128.049C136.571 128.891 135.176 129.638 133.735 130.286C132.343 131.03 130.901 131.676 129.421 132.221C130.754 131.372 132.147 130.622 133.588 129.978C134.98 129.229 136.424 128.585 137.909 128.049V128.049Z" fill="#0E1339"/>
</g>
<path d="M146.942 138.014C146.189 136.691 145.532 135.315 144.977 133.897C144.324 132.52 143.771 131.097 143.325 129.639C144.079 130.963 144.736 132.341 145.29 133.761C145.944 135.136 146.496 136.557 146.942 138.014V138.014Z" fill="#00ACE9"/>
<g opacity="0.2">
<path d="M146.942 138.014C146.189 136.691 145.532 135.315 144.977 133.897C144.324 132.52 143.771 131.097 143.325 129.639C144.079 130.963 144.736 132.341 145.29 133.761C145.944 135.136 146.496 136.557 146.942 138.014V138.014Z" fill="#0E1339"/>
</g>
<path d="M133.882 124.093C133.454 124.409 132.942 124.591 132.411 124.614C131.881 124.638 131.355 124.502 130.901 124.225C130.446 123.948 130.084 123.541 129.859 123.056C129.634 122.572 129.557 122.031 129.637 121.502C129.718 120.973 129.952 120.48 130.311 120.086C130.669 119.691 131.136 119.412 131.652 119.284C132.168 119.157 132.709 119.186 133.209 119.368C133.708 119.551 134.143 119.878 134.457 120.309C134.667 120.595 134.818 120.92 134.902 121.266C134.986 121.611 135.002 121.969 134.949 122.321C134.895 122.672 134.773 123.01 134.59 123.314C134.407 123.618 134.167 123.882 133.882 124.093V124.093Z" fill="#161B46"/>
<path d="M134.004 121.412C133.436 121.838 132.832 122.213 132.199 122.534L131.771 122.774L131.691 122.817L131.648 122.743C131.359 122.28 131.113 121.791 130.914 121.283C131.255 121.709 131.552 122.17 131.801 122.657L131.685 122.62L132.114 122.373C132.715 121.998 133.348 121.676 134.004 121.412Z" fill="white"/>
<path d="M139.109 112.587L130.092 109.605L128.249 115.255L137.267 118.237L139.109 112.587Z" fill="#00ACE9"/>
<g opacity="0.2">
<path opacity="0.2" d="M139.108 112.591L130.092 109.605L128.252 115.256L137.268 118.242L139.108 112.591Z" fill="#0E1339"/>
</g>
<path d="M139.09 112.593C138.965 112.669 138.831 112.731 138.692 112.778L137.566 113.222C136.618 113.586 135.296 114.085 133.815 114.627H133.754L133.717 114.572L133.57 114.374C132.585 113.068 131.734 111.879 131.067 111.01L130.333 110.005C130.238 109.881 130.154 109.749 130.082 109.611C130.195 109.717 130.298 109.835 130.388 109.962L131.177 110.96C131.832 111.805 132.732 112.982 133.711 114.288L133.864 114.491H133.766C135.241 113.949 136.569 113.469 137.536 113.136L138.674 112.748C138.807 112.681 138.946 112.629 139.09 112.593V112.593Z" fill="#00ACE9"/>
<g opacity="0.2">
<path opacity="0.2" d="M139.09 112.593C138.965 112.669 138.831 112.731 138.692 112.778L137.566 113.222C136.618 113.586 135.296 114.085 133.815 114.627H133.754L133.717 114.572L133.57 114.374C132.585 113.068 131.734 111.879 131.067 111.01L130.333 110.005C130.238 109.881 130.154 109.749 130.082 109.611C130.195 109.717 130.298 109.835 130.388 109.962L131.177 110.96C131.832 111.805 132.732 112.982 133.711 114.288L133.864 114.491H133.766C135.241 113.949 136.569 113.469 137.536 113.136L138.674 112.748C138.807 112.681 138.946 112.629 139.09 112.593V112.593Z" fill="#00ACE9"/>
</g>
<path d="M132.682 113.074C131.981 113.513 131.251 113.904 130.498 114.245C129.767 114.635 129.01 114.975 128.233 115.262C128.932 114.816 129.662 114.423 130.418 114.085C131.148 113.694 131.904 113.356 132.682 113.074V113.074Z" fill="#00ACE9"/>
<g opacity="0.2">
<path opacity="0.2" d="M132.682 113.074C131.981 113.513 131.251 113.904 130.498 114.245C129.767 114.635 129.01 114.975 128.233 115.262C128.932 114.816 129.662 114.423 130.418 114.085C131.148 113.694 131.904 113.356 132.682 113.074V113.074Z" fill="#00ACE9"/>
</g>
<path d="M137.413 118.294C137.018 117.601 136.674 116.88 136.385 116.137C136.044 115.414 135.754 114.669 135.516 113.906C136.258 115.318 136.892 116.785 137.413 118.294V118.294Z" fill="#00ACE9"/>
<g opacity="0.2">
<path opacity="0.2" d="M137.413 118.294C137.018 117.601 136.674 116.88 136.385 116.137C136.044 115.414 135.754 114.669 135.516 113.906C136.258 115.318 136.892 116.785 137.413 118.294V118.294Z" fill="#00ACE9"/>
</g>
<path d="M66.6885 41.8673C66.0662 44.3337 64.7316 46.5589 62.8535 48.2615C60.9754 49.9642 58.6381 51.0678 56.1371 51.4328C53.6362 51.7979 51.0839 51.4079 48.803 50.3124C46.5221 49.2168 44.6151 47.4647 43.3229 45.2778C42.0308 43.0908 41.4117 40.5671 41.5439 38.0259C41.676 35.4846 42.5535 33.0398 44.0654 31.0007C45.5772 28.9616 47.6556 27.4197 50.0376 26.57C52.4197 25.7203 54.9984 25.601 57.4478 26.227C60.7322 27.0682 63.5505 29.1882 65.2832 32.121C67.016 35.0538 67.5214 38.5594 66.6885 41.8673V41.8673Z" fill="#161B46"/>
<path d="M59.0203 31.7238C59.2467 31.8163 57.7964 36.1238 55.7769 41.3496C55.477 42.1076 55.1649 42.8347 54.914 43.5496L54.761 43.9378L54.3755 43.7899C50.2325 42.1815 47.2033 40.8566 47.2767 40.6655C47.3501 40.4745 50.4956 41.4728 54.6692 42.9949L54.1307 43.2414C54.4 42.5266 54.6815 41.7933 54.9691 41.0353C56.9824 35.8034 58.8 31.6561 59.0203 31.7238Z" fill="white"/>
<path d="M125.651 150.745H151.274L161.421 122.201H160.001L149.94 149.352L125.651 149.494V150.745Z" fill="#737690"/>
<path d="M114.33 154.35L115.279 243.761H117.886L116.827 153.691L114.33 154.35Z" fill="#161B46"/>
<path d="M169.174 153.481C168.825 155.188 171.524 243.964 171.524 243.964H173.971L171.983 153.481H169.174Z" fill="#161B46"/>
<path d="M199.13 150.745H90.1816V155.268H99.1714L93.321 243.471L95.879 243.613L101.736 155.268H189.962L194.24 243.65H196.804L192.526 155.268H199.13V150.745Z" fill="#161B46"/>
<path d="M137.676 240.396V233.617L125.064 233.488L124.923 243.41L125.706 243.465C129.182 243.699 143.404 244.389 145.736 243.705C148.33 242.941 137.676 240.396 137.676 240.396Z" fill="#00ACE9"/>
<path d="M129.489 243.354C129.315 242.28 128.753 241.31 127.91 240.63C127.082 239.955 126.035 239.615 124.972 239.675L124.936 243.224L129.489 243.354Z" fill="#D4D9F5"/>
<path d="M142.866 241.826C142.866 241.826 146.611 242.96 146.134 243.576C145.656 244.192 131.263 244.038 124.917 243.409V243.126L141.709 243.453C141.709 243.453 142.132 241.85 142.866 241.826Z" fill="#D4D9F5"/>
<path d="M124.746 243.114H124.96L125.572 243.163L127.861 243.286C129.795 243.379 132.469 243.465 135.425 243.502C138.381 243.539 141.061 243.502 142.995 243.459L145.29 243.391L145.902 243.36H146.116C146.045 243.351 145.973 243.351 145.902 243.36H145.29H142.995C141.061 243.36 138.381 243.36 135.431 243.36C132.481 243.36 129.801 243.249 127.867 243.188L125.572 243.114H124.96H124.746Z" fill="#161B46"/>
<path d="M141.728 243.644C141.831 243.262 141.979 242.894 142.168 242.547C142.396 242.225 142.661 241.931 142.958 241.672C142.579 241.836 142.259 242.113 142.04 242.466C141.822 242.818 141.715 243.229 141.734 243.644H141.728Z" fill="#161B46"/>
<path d="M138.025 241.71C138.062 241.71 138.246 241.513 138.429 241.223C138.613 240.933 138.741 240.68 138.705 240.655C138.668 240.63 138.49 240.852 138.301 241.142C138.169 241.309 138.075 241.503 138.025 241.71V241.71Z" fill="#161B46"/>
<path d="M137.009 241.18C137.04 241.21 137.242 241.081 137.462 240.883C137.683 240.686 137.836 240.507 137.805 240.476C137.774 240.445 137.579 240.575 137.358 240.766C137.138 240.957 136.985 241.124 137.009 241.18Z" fill="#161B46"/>
<path d="M136.379 239.946C136.587 240.028 136.811 240.06 137.034 240.039C137.256 240.068 137.482 240.047 137.695 239.977C137.486 239.896 137.262 239.864 137.04 239.885C136.818 239.856 136.592 239.877 136.379 239.946V239.946Z" fill="#161B46"/>
<path d="M136.165 239.102C136.392 239.226 136.641 239.302 136.898 239.324C137.155 239.346 137.414 239.315 137.658 239.231C137.16 239.192 136.662 239.149 136.165 239.102V239.102Z" fill="#161B46"/>
<path d="M138.466 240.606C138.735 240.653 139.01 240.653 139.28 240.606C139.572 240.574 139.861 240.515 140.143 240.427C140.315 240.378 140.481 240.31 140.638 240.224C140.687 240.198 140.729 240.163 140.764 240.121C140.799 240.078 140.825 240.03 140.84 239.977C140.854 239.916 140.85 239.853 140.829 239.794C140.809 239.735 140.772 239.683 140.724 239.644C140.417 239.491 140.066 239.449 139.732 239.526C139.398 239.602 139.1 239.792 138.888 240.063C138.759 240.222 138.665 240.407 138.613 240.606C138.613 240.747 138.613 240.827 138.613 240.827C138.694 240.576 138.82 240.342 138.986 240.137C139.17 239.922 139.412 239.765 139.684 239.687C139.842 239.636 140.009 239.617 140.175 239.631C140.341 239.644 140.502 239.691 140.651 239.767C140.779 239.866 140.724 240.014 140.583 240.1C140.437 240.179 140.283 240.243 140.124 240.291C139.851 240.383 139.57 240.453 139.286 240.501C138.778 240.562 138.466 240.562 138.466 240.606Z" fill="#161B46"/>
<path d="M138.674 240.649C138.776 240.479 138.813 240.277 138.778 240.082C138.755 239.862 138.682 239.651 138.564 239.465C138.497 239.343 138.399 239.24 138.282 239.165C138.164 239.091 138.029 239.048 137.891 239.04C137.808 239.057 137.735 239.105 137.688 239.176C137.641 239.246 137.624 239.333 137.64 239.416C137.656 239.545 137.7 239.669 137.768 239.78C137.877 239.959 138.004 240.127 138.148 240.279C138.27 240.428 138.428 240.542 138.607 240.612C138.607 240.612 138.447 240.464 138.227 240.205C138.1 240.053 137.989 239.888 137.897 239.712C137.787 239.539 137.713 239.225 137.897 239.194C138.08 239.164 138.307 239.379 138.429 239.546C138.538 239.705 138.613 239.886 138.649 240.076C138.68 240.265 138.688 240.457 138.674 240.649V240.649Z" fill="#161B46"/>
<path d="M125.039 239.644C125.039 239.644 125.4 239.613 125.969 239.687C126.71 239.782 127.411 240.081 127.995 240.55C128.563 241.042 128.986 241.682 129.219 242.399C129.402 242.941 129.421 243.311 129.445 243.305C129.47 243.299 129.445 243.212 129.445 243.052C129.424 242.818 129.381 242.587 129.317 242.362C129.097 241.614 128.658 240.951 128.057 240.458C127.457 239.966 126.723 239.667 125.951 239.601C125.719 239.575 125.485 239.575 125.253 239.601C125.18 239.602 125.107 239.616 125.039 239.644V239.644Z" fill="#161B46"/>
<path d="M126.405 234.4C126.258 236.134 126.217 237.875 126.282 239.613C126.379 238.748 126.424 237.878 126.417 237.007C126.462 236.138 126.457 235.268 126.405 234.4V234.4Z" fill="#161B46"/>
<path d="M131.092 242.134C131.692 242.284 132.309 242.352 132.928 242.337C133.543 242.378 134.16 242.334 134.764 242.208C134.764 242.165 133.937 242.208 132.928 242.208C131.918 242.208 131.098 242.091 131.092 242.134Z" fill="#161B46"/>
<path d="M128.619 242.103C128.619 242.134 128.687 242.282 128.766 242.473C128.846 242.665 128.895 242.831 128.938 242.831C128.981 242.831 129.006 242.628 128.908 242.412C128.809 242.196 128.65 242.072 128.619 242.103Z" fill="#161B46"/>
<path d="M127.701 240.926C127.701 240.957 127.75 241.086 127.879 241.222C128.008 241.358 128.137 241.444 128.167 241.413C128.198 241.383 128.118 241.253 127.99 241.117C127.861 240.981 127.732 240.895 127.701 240.926Z" fill="#161B46"/>
<path d="M126.374 240.378C126.374 240.421 126.551 240.421 126.735 240.489C126.918 240.557 127.053 240.662 127.083 240.631C127.114 240.6 127.016 240.427 126.784 240.347C126.551 240.267 126.361 240.341 126.374 240.378Z" fill="#161B46"/>
<path d="M125.438 240.119C125.438 240.156 125.493 240.224 125.597 240.267C125.701 240.31 125.799 240.31 125.812 240.267C125.824 240.224 125.757 240.162 125.652 240.119C125.548 240.076 125.438 240.076 125.438 240.119Z" fill="#161B46"/>
<path d="M162.473 233.556L159.707 227.362L148.159 232.471L152.082 241.567L152.816 241.296C156.084 240.063 169.339 234.807 171.175 233.217C173.25 231.442 162.473 233.556 162.473 233.556Z" fill="#00ACE9"/>
<path d="M156.25 239.626C155.654 238.711 154.743 238.052 153.692 237.777C152.664 237.508 151.573 237.633 150.632 238.128L152.045 241.376L156.25 239.626Z" fill="#D4D9F5"/>
<path d="M167.816 232.693C167.816 232.693 171.689 232.169 171.487 232.933C171.285 233.698 158.122 239.515 152.082 241.561L151.99 241.296L167.424 234.634C167.424 234.634 167.155 233.02 167.816 232.693Z" fill="#D4D9F5"/>
<path d="M151.819 241.376L152.027 241.308L152.639 241.092L154.781 240.254C156.58 239.533 159.065 238.51 161.764 237.315C164.462 236.119 166.898 234.992 168.642 234.141L170.705 233.13L171.261 232.841C171.329 232.814 171.392 232.779 171.451 232.736L171.249 232.816L170.68 233.075L168.599 234.049C166.843 234.862 164.407 235.984 161.703 237.173C158.998 238.362 156.525 239.41 154.738 240.156L152.621 241.037L152.046 241.277L151.819 241.376Z" fill="#161B46"/>
<path d="M167.522 234.825C167.458 234.434 167.442 234.037 167.473 233.642C167.554 233.254 167.676 232.876 167.835 232.514C167.534 232.806 167.351 233.198 167.32 233.617C167.238 234.031 167.31 234.461 167.522 234.825V234.825Z" fill="#161B46"/>
<path d="M163.379 234.585C163.422 234.585 163.495 234.32 163.55 233.969C163.606 233.617 163.612 233.352 163.55 233.352C163.489 233.352 163.434 233.617 163.379 233.969C163.328 234.171 163.328 234.383 163.379 234.585V234.585Z" fill="#161B46"/>
<path d="M162.204 234.506C162.241 234.506 162.369 234.315 162.492 234.049C162.615 233.784 162.676 233.55 162.639 233.531C162.603 233.513 162.474 233.716 162.351 233.988C162.228 234.259 162.155 234.488 162.204 234.506Z" fill="#161B46"/>
<path d="M161.133 233.667C161.347 233.646 161.556 233.581 161.745 233.476C162.081 233.334 162.357 233.186 162.32 233.149C162.283 233.112 162.02 233.192 161.708 233.334C161.396 233.476 161.114 233.624 161.133 233.667Z" fill="#161B46"/>
<path d="M160.595 232.983C160.852 233.026 161.117 232.989 161.354 232.878C161.604 232.816 161.831 232.678 162.002 232.483C161.76 232.546 161.525 232.631 161.298 232.736C161.057 232.796 160.821 232.879 160.595 232.983V232.983Z" fill="#161B46"/>
<path d="M163.305 233.402C163.569 233.333 163.819 233.22 164.046 233.069C164.297 232.916 164.535 232.741 164.755 232.545C164.893 232.429 165.019 232.299 165.129 232.157C165.193 232.066 165.221 231.953 165.208 231.842C165.197 231.782 165.169 231.726 165.126 231.682C165.084 231.639 165.029 231.608 164.97 231.596C164.748 231.587 164.527 231.627 164.323 231.714C164.119 231.802 163.937 231.934 163.79 232.101C163.643 232.267 163.535 232.465 163.473 232.68C163.411 232.894 163.398 233.12 163.434 233.34C163.441 233.416 163.464 233.489 163.501 233.556C163.479 233.291 163.5 233.025 163.562 232.767C163.642 232.495 163.8 232.253 164.015 232.07C164.265 231.845 164.592 231.728 164.927 231.744C165.086 231.775 165.098 231.935 165 232.077C164.9 232.208 164.787 232.33 164.664 232.44C164.45 232.634 164.223 232.813 163.984 232.976C163.574 233.254 163.293 233.377 163.305 233.402Z" fill="#161B46"/>
<path d="M163.514 233.352C163.533 233.157 163.483 232.96 163.373 232.798C163.263 232.612 163.112 232.454 162.932 232.336C162.821 232.253 162.691 232.2 162.554 232.182C162.417 232.164 162.278 232.18 162.149 232.231C162.08 232.279 162.034 232.353 162.019 232.436C162.004 232.519 162.022 232.605 162.07 232.674C162.136 232.787 162.229 232.882 162.339 232.952C162.51 233.074 162.695 233.176 162.89 233.254C163.063 233.337 163.255 233.375 163.446 233.365C163.446 233.365 163.238 233.297 162.932 233.149C162.752 233.066 162.582 232.963 162.424 232.841C162.253 232.73 162.063 232.477 162.235 232.36C162.338 232.33 162.446 232.323 162.552 232.34C162.658 232.357 162.758 232.398 162.847 232.459C163.015 232.557 163.159 232.692 163.269 232.853C163.364 233.012 163.446 233.179 163.514 233.352V233.352Z" fill="#161B46"/>
<path d="M150.674 238.097C150.674 238.097 150.986 237.919 151.537 237.752C152.25 237.527 153.012 237.51 153.735 237.703C154.457 237.896 155.11 238.291 155.619 238.843C156.011 239.268 156.176 239.595 156.2 239.576C156.177 239.494 156.142 239.415 156.096 239.342C155.984 239.139 155.851 238.949 155.698 238.775C155.195 238.18 154.525 237.751 153.777 237.543C153.027 237.348 152.238 237.381 151.506 237.635C151.293 237.714 151.087 237.815 150.895 237.937C150.735 238.023 150.668 238.097 150.674 238.097Z" fill="#161B46"/>
<path d="M149.763 232.718C150.022 233.559 150.335 234.382 150.699 235.183C151.016 235.993 151.378 236.785 151.782 237.555C151.516 236.726 151.202 235.913 150.84 235.121C150.525 234.3 150.166 233.498 149.763 232.718V232.718Z" fill="#161B46"/>
<path d="M157.204 237.851C157.814 237.733 158.406 237.539 158.967 237.272C159.547 237.054 160.094 236.758 160.595 236.39C160.595 236.353 159.842 236.729 158.906 237.13C157.969 237.53 157.192 237.808 157.204 237.851Z" fill="#161B46"/>
<path d="M154.939 238.843C154.939 238.886 155.074 238.979 155.228 239.121C155.381 239.263 155.492 239.398 155.528 239.374C155.565 239.349 155.528 239.164 155.332 239.003C155.136 238.843 154.952 238.806 154.939 238.843Z" fill="#161B46"/>
<path d="M153.624 238.153C153.624 238.196 153.734 238.283 153.906 238.351C154.077 238.418 154.23 238.443 154.248 238.406C154.267 238.369 154.138 238.277 153.967 238.209C153.795 238.141 153.636 238.098 153.624 238.153Z" fill="#161B46"/>
<path d="M152.192 238.203C152.192 238.24 152.37 238.172 152.566 238.159C152.761 238.147 152.921 238.159 152.939 238.159C152.957 238.159 152.792 237.999 152.553 238.024C152.315 238.048 152.162 238.172 152.192 238.203Z" fill="#161B46"/>
<path d="M151.219 238.356C151.219 238.4 151.317 238.43 151.427 238.424C151.538 238.418 151.63 238.381 151.63 238.338C151.63 238.295 151.532 238.264 151.421 238.27C151.311 238.276 151.219 238.313 151.219 238.356Z" fill="#161B46"/>
<path d="M48.0299 188.256L38.9239 119.735C38.8671 119.309 38.9056 118.875 39.0366 118.466C39.1675 118.056 39.3876 117.681 39.6808 117.368C39.9741 117.055 40.333 116.812 40.7314 116.656C41.1298 116.501 41.5576 116.437 41.9837 116.469L63.9348 118.318C64.914 118.401 65.8322 118.831 66.5259 119.532C67.2195 120.233 67.6437 121.159 67.7229 122.145L73.0714 187.017L48.0299 188.256Z" fill="#00ACE9"/>
<g opacity="0.2">
<path opacity="0.2" d="M48.0299 188.256L38.9239 119.735C38.8671 119.309 38.9056 118.875 39.0366 118.466C39.1675 118.056 39.3876 117.681 39.6808 117.368C39.9741 117.055 40.333 116.812 40.7314 116.656C41.1298 116.501 41.5576 116.437 41.9837 116.469L63.9348 118.318C64.914 118.401 65.8322 118.831 66.5259 119.532C67.2195 120.233 67.6437 121.159 67.7229 122.145L73.0714 187.017L48.0299 188.256Z" fill="#0E1339"/>
</g>
<path d="M69.2042 87.5552C69.0206 84.9424 68.3413 82.3973 67.9802 79.809C67.6192 77.2208 67.5457 74.497 68.5616 72.0875C69.1834 70.7443 70.0624 69.5378 71.1483 68.5374C72.2342 67.537 73.5055 66.7624 74.8893 66.2579C77.6688 65.2648 80.6367 64.9233 83.567 65.2595C84.0967 65.2757 84.6183 65.395 85.103 65.6108C85.3423 65.7224 85.5487 65.8947 85.7021 66.1107C85.8555 66.3267 85.9506 66.5792 85.9781 66.8433C85.984 66.9744 85.9631 67.1054 85.9165 67.228C85.8699 67.3505 85.7988 67.4622 85.7075 67.5558C85.6162 67.6495 85.5067 67.7232 85.3858 67.7724C85.265 67.8216 85.1354 67.8451 85.0051 67.8416C86.1229 67.9566 87.2248 68.1942 88.2913 68.5503C88.7247 68.6739 89.1015 68.9464 89.3561 69.3206C89.4595 69.5549 89.5003 69.8123 89.4745 70.0674C89.4488 70.3225 89.3573 70.5664 89.2093 70.7749C88.905 71.1878 88.5299 71.5426 88.1016 71.8225C88.2326 71.7965 88.3674 71.7968 88.4983 71.8233C88.6292 71.8498 88.7536 71.9021 88.8645 71.9771C88.9753 72.052 89.0704 72.1483 89.1442 72.2603C89.2181 72.3723 89.2693 72.4979 89.2949 72.6298C89.3341 72.8992 89.3168 73.1738 89.2441 73.4359C89.1713 73.6981 89.0448 73.942 88.8727 74.1519C88.5606 74.5956 88.1567 74.9592 87.8323 75.3844C86.5105 77.153 86.7675 79.6119 87.0858 81.8057" fill="#161B46"/>
<path d="M69.4421 102.863L81.8099 102.641C81.9751 101.199 82.2138 95.5911 82.2138 95.5911C82.2138 95.5911 87.3849 95.1104 87.7643 89.9586C88.1437 84.8068 87.9846 72.9133 87.9846 72.9133C85.1516 71.4731 81.9881 70.8206 78.8209 71.0232C75.6538 71.2258 72.5977 72.2761 69.9684 74.0657L69.1729 74.6079L69.4421 102.863Z" fill="#A2675F"/>
<path d="M85.03 78.4457C85.0603 78.6613 85.6498 78.4076 86.3239 78.3297C86.998 78.2519 87.5043 78.4116 87.6083 78.2103C87.6498 78.0997 87.5888 77.9086 87.3953 77.746C87.1327 77.5486 86.8196 77.462 86.4796 77.4929C86.1397 77.5237 85.7818 77.6711 85.4332 77.924C85.1661 78.1302 85.0176 78.3449 85.03 78.4457Z" fill="#161B46"/>
<path d="M76.9405 78.6876C77.1268 78.9032 77.7936 78.6559 78.6093 78.6168C79.425 78.5777 80.1235 78.7267 80.2742 78.4848C80.3199 78.3628 80.2244 78.1546 79.9131 77.9518C79.5037 77.701 79.0249 77.5866 78.5467 77.6255C78.0664 77.6463 77.6055 77.8168 77.2292 78.113C76.9484 78.3459 76.8613 78.5784 76.9405 78.6876Z" fill="#161B46"/>
<path d="M86.271 81.8489C86.1669 81.7436 86.0962 81.6096 86.0678 81.4639C86.0393 81.3182 86.0543 81.1672 86.1109 81.0301C86.1676 80.8929 86.2633 80.7758 86.3859 80.6933C86.5086 80.6109 86.6528 80.5669 86.8003 80.5669C86.9478 80.5669 87.092 80.6109 87.2147 80.6933C87.3374 80.7758 87.4331 80.8929 87.4897 81.0301C87.5463 81.1672 87.5613 81.3182 87.5329 81.4639C87.5044 81.6096 87.4337 81.7436 87.3297 81.8489C87.2607 81.9199 87.1784 81.9763 87.0875 82.0148C86.9966 82.0533 86.8989 82.0732 86.8003 82.0732C86.7017 82.0732 86.6041 82.0533 86.5132 82.0148C86.4223 81.9763 86.3399 81.9199 86.271 81.8489Z" fill="#161B46"/>
<path d="M87.575 80.5989C87.4893 80.6853 87.012 80.2657 86.3082 80.2163C85.6045 80.167 85.0843 80.5064 84.9925 80.4076C84.9007 80.3089 85.0476 80.2102 85.2801 80.0497C85.5962 79.8531 85.9657 79.7621 86.3361 79.7898C86.7064 79.8175 87.0587 79.9625 87.3425 80.204C87.5505 80.3953 87.6178 80.5619 87.575 80.5989Z" fill="#161B46"/>
<path d="M79.4112 80.7148C79.5326 80.8002 79.6261 80.9199 79.6797 81.0589C79.7334 81.1978 79.7448 81.3497 79.7126 81.4952C79.6803 81.6407 79.6058 81.7733 79.4985 81.876C79.3913 81.9788 79.2561 82.0471 79.1102 82.0724C78.9643 82.0976 78.8142 82.0785 78.679 82.0176C78.5439 81.9568 78.4298 81.8568 78.3512 81.7304C78.2726 81.6041 78.2331 81.4571 78.2377 81.3081C78.2423 81.159 78.2907 81.0148 78.377 80.8936C78.4331 80.8133 78.5044 80.745 78.5868 80.6925C78.6692 80.64 78.7611 80.6045 78.8572 80.5879C78.9533 80.5713 79.0517 80.574 79.1468 80.5957C79.2418 80.6175 79.3317 80.658 79.4112 80.7148V80.7148Z" fill="#161B46"/>
<path d="M79.8767 80.753C79.791 80.8333 79.3137 80.4136 78.6099 80.3643C77.9062 80.3149 77.386 80.6543 77.3003 80.5617C77.2147 80.4692 77.3493 80.3581 77.588 80.2038C77.9018 80.0039 78.2711 79.911 78.6413 79.9388C79.0115 79.9666 79.3631 80.1135 79.6442 80.3581C79.8522 80.5432 79.9196 80.716 79.8767 80.753Z" fill="#161B46"/>
<path d="M82.3485 86.7849C82.7194 86.6616 83.1086 86.6032 83.499 86.6124C83.6887 86.6124 83.8356 86.5693 83.854 86.4707C83.8697 86.2843 83.8359 86.0972 83.7561 85.9284C83.6031 85.4477 83.4439 84.9609 83.2848 84.4494C82.6423 82.348 82.2017 80.6163 82.3118 80.5855C82.422 80.5547 83.0217 82.2309 83.6704 84.3323C83.8234 84.8438 83.9641 85.3368 84.111 85.8174C84.2115 86.066 84.2287 86.3408 84.16 86.6001C84.1293 86.6696 84.0828 86.7308 84.0244 86.779C83.9659 86.8271 83.8971 86.8608 83.8234 86.8774C83.7196 86.8886 83.615 86.8886 83.5113 86.8774C83.1213 86.9131 82.7281 86.8818 82.3485 86.7849V86.7849Z" fill="#161B46"/>
<path d="M80.0049 87.4259C79.3012 86.9391 81.9632 88.6584 83.4013 88.6584C83.1381 89.0137 82.7626 89.2683 82.3367 89.3802C81.9108 89.4922 81.4597 89.455 81.0575 89.2747C79.5398 88.6276 80.0049 87.4259 80.0049 87.4259Z" fill="white"/>
<path d="M82.2321 95.517C79.8645 95.4174 77.5802 94.6085 75.6719 93.1937C75.6719 93.1937 77.0243 97.0021 82.1587 96.8542L82.2321 95.517Z" fill="#7A4A45"/>
<path d="M69.0076 78.4902L69.2707 85.1764C69.2707 85.1764 71.6023 84.4616 71.7553 84.3938C71.9083 84.326 71.7125 76.2039 71.7125 76.2039C71.7125 76.2039 71.3881 73.1227 73.3709 72.414C75.4577 71.656 76.3634 73.1782 79.3192 73.6465C89.0677 75.3042 88.4007 72.2908 88.4007 72.2908C88.4007 72.2908 89.6246 70.9659 87.1217 69.5115C84.6188 68.0572 78.3584 67.5642 74.9314 68.7535C68.1998 71.0891 67.7959 73.4123 67.7959 75.4644C67.7959 78.3916 69.0076 78.4902 69.0076 78.4902Z" fill="#161B46"/>
<path d="M70.1522 79.1806C70.0421 79.1374 66.3581 78.6568 66.7069 83.0382C67.0557 87.4197 71.3333 85.6203 71.3333 85.5032C71.3333 85.3861 70.1522 79.1806 70.1522 79.1806Z" fill="#A2675F"/>
<path d="M69.8768 84.0365C69.8768 84.0365 69.8033 84.0982 69.6809 84.1659C69.5055 84.2578 69.3015 84.2777 69.1118 84.2214C68.815 84.068 68.5653 83.8361 68.3895 83.5505C68.2138 83.265 68.1186 82.9366 68.1143 82.6007C68.072 82.2244 68.1138 81.8433 68.2367 81.4853C68.2693 81.3478 68.3341 81.2201 68.4257 81.1129C68.5172 81.0058 68.6329 80.9221 68.763 80.8691C68.8484 80.8394 68.9413 80.8404 69.0261 80.8718C69.1108 80.9033 69.1822 80.9633 69.2281 81.0416C69.2954 81.1587 69.2709 81.2511 69.2954 81.2573C69.3199 81.2635 69.3811 81.171 69.3321 80.9985C69.302 80.8903 69.2348 80.7964 69.1424 80.7335C69.0134 80.6569 68.861 80.6306 68.714 80.6595C68.538 80.7085 68.3774 80.8023 68.2477 80.9318C68.1181 81.0613 68.0236 81.2222 67.9736 81.399C67.8193 81.7901 67.7626 82.2133 67.8083 82.6315C67.9062 83.5127 68.4203 84.3015 69.0323 84.4371C69.152 84.4616 69.2758 84.4588 69.3944 84.429C69.5129 84.3991 69.6234 84.3429 69.7176 84.2645C69.8768 84.1721 69.889 84.0673 69.8768 84.0365Z" fill="#7A4A45"/>
<path d="M118.754 138.266C118.754 138.266 124.874 137.97 126.097 138.531C128.215 139.462 134.518 149.414 134.2 149.414C133.245 149.414 131.281 149.414 131.281 149.414L121.489 145.673L119.182 146.259L118.754 138.266Z" fill="#A2675F"/>
<path d="M145.069 166.841C145.069 166.841 163.379 230.702 163.422 230.388C163.465 230.074 147.009 238.356 147.009 238.356L135.908 192.175L145.069 166.841Z" fill="#161B46"/>
<path d="M146.648 238.744L163.991 230.222L163.238 227.886L145.761 236.421L146.648 238.744Z" fill="#737690"/>
<path d="M144.371 215.253C144.279 215.253 144.09 214.877 143.937 214.366C143.784 213.854 143.735 213.404 143.827 213.38C143.918 213.355 144.108 213.749 144.261 214.267C144.414 214.785 144.457 215.222 144.371 215.253Z" fill="#737690"/>
<path d="M145.503 218.994C145.411 218.994 145.209 218.624 145.056 218.113C144.903 217.601 144.842 217.157 144.928 217.127C145.013 217.096 145.215 217.496 145.374 218.008C145.533 218.519 145.589 218.951 145.503 218.994Z" fill="#737690"/>
<path d="M146.684 222.691C146.592 222.722 146.391 222.328 146.225 221.816C146.06 221.305 145.999 220.867 146.085 220.836C146.17 220.806 146.378 221.2 146.544 221.711C146.709 222.223 146.77 222.691 146.684 222.691Z" fill="#737690"/>
<path d="M147.921 226.389C147.829 226.42 147.621 226.031 147.45 225.52C147.278 225.008 147.205 224.571 147.297 224.54C147.388 224.509 147.597 224.897 147.768 225.409C147.939 225.92 148.007 226.389 147.921 226.389Z" fill="#737690"/>
<path d="M149.206 230.086C149.12 230.086 148.9 229.729 148.722 229.223C148.545 228.718 148.465 228.281 148.557 228.25C148.649 228.219 148.857 228.601 149.04 229.113C149.224 229.624 149.304 230.037 149.206 230.086Z" fill="#737690"/>
<path d="M150.528 233.728C150.436 233.728 150.216 233.377 150.032 232.872C149.849 232.366 149.763 231.929 149.849 231.898C149.934 231.867 150.161 232.249 150.345 232.755C150.528 233.26 150.632 233.697 150.528 233.728Z" fill="#737690"/>
<path d="M149.567 235.263C149.416 235.058 149.292 234.834 149.199 234.597C148.985 234.154 148.692 233.507 148.355 232.699C147.676 231.085 146.837 228.811 145.993 226.278C145.148 223.745 144.438 221.428 143.937 219.752C143.704 218.963 143.508 218.298 143.325 217.762C143.236 217.521 143.178 217.271 143.153 217.016C143.273 217.24 143.371 217.475 143.447 217.718C143.618 218.181 143.851 218.846 144.132 219.678L146.28 226.167C147.119 228.7 147.92 230.98 148.545 232.613L149.291 234.542C149.408 234.772 149.501 235.013 149.567 235.263Z" fill="#737690"/>
<path d="M59.6449 162.404C59.7979 159.021 57.8886 180.972 74.6442 181.551C91.3997 182.13 125.633 181.877 125.633 181.877L121.625 237.543H141.728L145.926 178.322C145.926 178.322 148.068 161.165 136.41 158.978C129.115 157.604 83.7502 157.166 83.7502 157.166L59.6449 162.404Z" fill="#161B46"/>
<path d="M121.166 237.66H142.334V234.344L121.166 234.375V237.66Z" fill="#737690"/>
<path d="M88.0527 178.938C88.1238 178.929 88.1958 178.929 88.2669 178.938L88.8789 178.901L91.3267 178.79L100.414 178.439L131.068 177.379H131.263V177.576C130.988 179.844 130.756 182.241 130.56 184.675C130.29 188.157 130.033 191.553 129.783 194.831C129.532 198.109 129.171 201.265 128.858 204.272C128.246 210.274 127.671 215.685 127.194 220.239C126.717 224.793 126.319 228.441 126.043 230.998C125.903 232.231 125.793 233.241 125.713 233.925C125.676 234.246 125.646 234.499 125.621 234.683C125.613 234.771 125.599 234.857 125.578 234.942C125.569 234.856 125.569 234.769 125.578 234.683C125.578 234.492 125.615 234.24 125.64 233.919C125.701 233.229 125.793 232.243 125.909 230.986C126.154 228.429 126.521 224.75 126.955 220.214C127.39 215.678 127.947 210.249 128.546 204.235C128.84 201.228 129.158 198.072 129.446 194.8C129.734 191.528 129.954 188.126 130.217 184.651C130.413 182.186 130.645 179.813 130.927 177.533L131.098 177.724L100.439 178.667L91.3512 178.92L88.9034 178.969H88.2914C88.2107 178.971 88.1303 178.96 88.0527 178.938Z" fill="#737690"/>
<path d="M89.9865 176.529C89.9865 176.621 89.5582 176.708 89.0196 176.72C88.4811 176.732 88.0527 176.671 88.0527 176.578C88.0527 176.486 88.4811 176.393 89.0135 176.381C89.5459 176.368 89.9865 176.436 89.9865 176.529Z" fill="#737690"/>
<path d="M93.8599 176.436C93.8599 176.529 93.4315 176.615 92.893 176.627C92.3545 176.64 91.9261 176.578 91.92 176.485C91.9139 176.393 92.3545 176.307 92.8869 176.288C93.4193 176.269 93.8599 176.344 93.8599 176.436Z" fill="#737690"/>
<path d="M97.7339 176.344C97.7339 176.443 97.3056 176.523 96.767 176.541C96.2285 176.56 95.8001 176.486 95.794 176.393C95.7879 176.301 96.2285 176.214 96.7609 176.202C97.2933 176.19 97.7339 176.251 97.7339 176.344Z" fill="#737690"/>
<path d="M101.607 176.251C101.607 176.35 101.179 176.437 100.64 176.449C100.102 176.461 99.6732 176.393 99.6671 176.301C99.6609 176.208 100.102 176.122 100.634 176.109C101.166 176.097 101.607 176.159 101.607 176.251Z" fill="#737690"/>
<path d="M105.481 176.165C105.481 176.258 105.053 176.344 104.514 176.356C103.976 176.369 103.547 176.301 103.541 176.208C103.535 176.116 103.976 176.029 104.508 176.017C105.04 176.005 105.481 176.066 105.481 176.165Z" fill="#737690"/>
<path d="M109.355 176.073C109.355 176.165 108.927 176.252 108.388 176.264C107.85 176.276 107.421 176.208 107.415 176.116C107.409 176.023 107.85 175.937 108.382 175.925C108.914 175.912 109.349 175.98 109.355 176.073Z" fill="#737690"/>
<path d="M113.229 175.98C113.229 176.073 112.801 176.159 112.262 176.171C111.724 176.184 111.295 176.116 111.289 176.023C111.283 175.931 111.717 175.844 112.256 175.832C112.795 175.82 113.198 175.888 113.229 175.98Z" fill="#737690"/>
<path d="M117.102 175.888C117.102 175.98 116.674 176.067 116.135 176.079C115.597 176.092 115.168 176.03 115.162 175.931C115.156 175.832 115.591 175.752 116.129 175.74C116.668 175.727 117.096 175.795 117.102 175.888Z" fill="#737690"/>
<path d="M120.976 175.795C120.976 175.888 120.548 175.974 120.009 175.987C119.471 175.999 119.042 175.937 119.036 175.845C119.03 175.752 119.465 175.66 120.003 175.647C120.542 175.635 120.97 175.703 120.976 175.795Z" fill="#737690"/>
<path d="M124.825 175.703C124.825 175.795 124.39 175.882 123.858 175.894C123.325 175.906 122.891 175.845 122.885 175.752C122.879 175.66 123.313 175.567 123.852 175.555C124.39 175.542 124.825 175.61 124.825 175.703Z" fill="#737690"/>
<path d="M128.723 175.61C128.723 175.703 128.289 175.789 127.756 175.802C127.224 175.814 126.789 175.752 126.783 175.66C126.777 175.567 127.212 175.481 127.75 175.468C128.289 175.456 128.717 175.518 128.723 175.61Z" fill="#737690"/>
<path d="M132.597 175.518C132.597 175.617 132.163 175.703 131.63 175.716C131.098 175.728 130.657 175.66 130.657 175.568C130.657 175.475 131.086 175.389 131.624 175.376C132.163 175.364 132.591 175.426 132.597 175.518Z" fill="#737690"/>
<path d="M132.591 179.055C132.493 179.055 132.462 178.605 132.518 178.069C132.573 177.533 132.683 177.108 132.775 177.114C132.867 177.12 132.904 177.564 132.849 178.1C132.794 178.636 132.683 179.067 132.591 179.055Z" fill="#737690"/>
<path d="M132.212 182.937C132.12 182.937 132.083 182.488 132.138 181.951C132.193 181.415 132.31 180.99 132.402 180.996C132.494 181.002 132.525 181.446 132.476 181.982C132.427 182.518 132.304 182.95 132.212 182.937Z" fill="#737690"/>
<path d="M131.833 186.82C131.741 186.82 131.704 186.37 131.759 185.834C131.815 185.298 131.931 184.873 132.023 184.879C132.115 184.885 132.146 185.335 132.097 185.871C132.048 186.407 131.925 186.832 131.833 186.82Z" fill="#737690"/>
<path d="M131.453 190.702C131.361 190.702 131.331 190.252 131.38 189.716C131.429 189.18 131.551 188.755 131.643 188.761C131.735 188.767 131.766 189.217 131.717 189.753C131.668 190.289 131.558 190.714 131.453 190.702Z" fill="#737690"/>
<path d="M131.073 194.591C130.981 194.591 130.951 194.135 131 193.598C131.049 193.062 131.172 192.637 131.264 192.649C131.356 192.662 131.392 193.099 131.337 193.635C131.282 194.172 131.165 194.597 131.073 194.591Z" fill="#737690"/>
<path d="M130.695 198.473C130.603 198.473 130.572 198.017 130.627 197.481C130.682 196.945 130.793 196.52 130.885 196.532C130.977 196.544 131.014 196.982 130.958 197.518C130.903 198.054 130.793 198.479 130.695 198.473Z" fill="#737690"/>
<path d="M130.333 202.355C130.235 202.355 130.204 201.905 130.26 201.369C130.315 200.833 130.425 200.402 130.524 200.414C130.622 200.427 130.646 200.864 130.591 201.4C130.536 201.936 130.413 202.355 130.333 202.355Z" fill="#737690"/>
<path d="M129.941 206.238C129.849 206.238 129.813 205.788 129.868 205.252C129.923 204.715 130.04 204.284 130.132 204.296C130.224 204.309 130.254 204.746 130.205 205.282C130.156 205.819 130.033 206.244 129.941 206.238Z" fill="#737690"/>
<path d="M129.562 210.12C129.47 210.12 129.439 209.67 129.488 209.134C129.537 208.598 129.66 208.173 129.752 208.179C129.844 208.185 129.875 208.629 129.825 209.165C129.776 209.701 129.654 210.132 129.562 210.12Z" fill="#737690"/>
<path d="M129.183 214.002C129.091 214.002 129.06 213.552 129.109 213.016C129.158 212.48 129.281 212.055 129.373 212.061C129.465 212.067 129.496 212.511 129.447 213.047C129.398 213.583 129.275 214.015 129.183 214.002Z" fill="#737690"/>
<path d="M128.803 217.885C128.711 217.885 128.68 217.435 128.729 216.899C128.778 216.362 128.901 215.937 128.993 215.943C129.085 215.95 129.122 216.393 129.067 216.929C129.011 217.466 128.895 217.897 128.803 217.885Z" fill="#737690"/>
<path d="M128.43 221.767C128.332 221.767 128.301 221.317 128.356 220.781C128.412 220.245 128.522 219.819 128.614 219.826C128.706 219.832 128.743 220.282 128.688 220.818C128.632 221.354 128.497 221.779 128.43 221.767Z" fill="#737690"/>
<path d="M128.051 225.649C127.959 225.649 127.922 225.199 127.977 224.663C128.032 224.127 128.143 223.702 128.241 223.708C128.339 223.714 128.364 224.164 128.308 224.7C128.253 225.236 128.143 225.662 128.051 225.649Z" fill="#737690"/>
<path d="M127.671 229.538C127.579 229.538 127.542 229.082 127.597 228.545C127.652 228.009 127.769 227.584 127.861 227.596C127.953 227.609 127.984 228.046 127.935 228.582C127.886 229.119 127.763 229.544 127.671 229.538Z" fill="#737690"/>
<path d="M127.274 233.42C127.182 233.42 127.151 232.97 127.2 232.434C127.249 231.898 127.372 231.467 127.464 231.479C127.556 231.491 127.586 231.929 127.537 232.465C127.488 233.001 127.384 233.426 127.274 233.42Z" fill="#737690"/>
<path d="M127.09 235.478C126.998 235.478 126.924 235.435 126.93 235.404C126.936 235.373 127.01 235.349 127.102 235.361C127.194 235.373 127.267 235.404 127.267 235.435C127.267 235.466 127.182 235.485 127.09 235.478Z" fill="#737690"/>
<path d="M128.375 179.283C128.023 179.839 127.578 180.329 127.059 180.731C126.613 181.214 126.089 181.618 125.511 181.927C126.308 180.887 127.277 179.993 128.375 179.283V179.283Z" fill="#161B46"/>
<path d="M129.764 180.035C129.099 180.519 128.372 180.91 127.604 181.2C126.879 181.588 126.105 181.874 125.303 182.05C125.968 181.566 126.694 181.175 127.463 180.885C128.188 180.498 128.962 180.212 129.764 180.035Z" fill="#161B46"/>
<path d="M88.8846 135.863C88.8846 135.863 86.8345 113.746 83.1933 104.064L83.9154 103.516L82.8322 99.7013L69.2099 98.0375L69.418 101.014C67.4078 101.926 65.7654 103.499 64.761 105.476C59.8653 115.915 62.3131 128.104 59.6878 150.689C59.6878 150.689 56.628 161.283 59.7857 164.598L89.5088 157.622L88.1074 150.794C101.081 150.548 122.414 148.144 122.414 148.144L121.802 135.782C121.802 135.782 89.9249 135.973 88.8846 135.863" fill="#737690"/>
<path d="M82.8076 99.6829C83.2398 100.459 83.5709 101.287 83.7929 102.148C83.926 102.484 84.0164 102.836 84.0622 103.195C84.0711 103.382 84.0099 103.564 83.8908 103.707C83.7926 103.824 83.6661 103.913 83.5236 103.966C83.0096 104.126 82.7158 104.015 82.7158 103.966C82.7158 103.916 83.034 103.91 83.4196 103.725C83.5229 103.679 83.61 103.603 83.67 103.506C83.7299 103.409 83.7599 103.297 83.7562 103.183C83.6867 102.858 83.5926 102.539 83.4747 102.228C83.1478 101.411 82.9237 100.556 82.8076 99.6829V99.6829Z" fill="#E8E8ED"/>
<path d="M86.0576 116.149C86.0576 116.248 80.55 116.322 73.8184 116.322C67.0868 116.322 61.5791 116.248 61.5791 116.149C61.5791 116.051 67.0868 115.983 73.8184 115.983C80.55 115.983 86.0576 116.081 86.0576 116.149Z" fill="#161B46"/>
<path d="M84.7788 109.919C84.7788 110.012 79.9198 110.092 73.9348 110.092C67.9498 110.092 63.0908 110.012 63.0908 109.919C63.0908 109.827 67.9437 109.753 73.9348 109.753C79.9259 109.753 84.7788 109.827 84.7788 109.919Z" fill="#161B46"/>
<path d="M82.9913 104.441C82.9913 104.533 78.9768 104.607 74.0199 104.607C69.063 104.607 65.0547 104.533 65.0547 104.441C65.0547 104.348 69.0692 104.268 74.0199 104.268C78.9707 104.268 82.9913 104.373 82.9913 104.441Z" fill="#161B46"/>
<path d="M82.814 100.571C80.5276 100.745 78.2339 100.803 75.9417 100.743C73.6495 100.803 71.3558 100.745 69.0693 100.571C69.0693 100.478 72.1292 100.404 75.9417 100.404C79.7542 100.404 82.814 100.478 82.814 100.571Z" fill="#161B46"/>
<path d="M86.9202 122.145C86.9202 122.238 81.1249 122.312 73.9772 122.312C66.8295 122.312 61.0342 122.238 61.0342 122.145C61.0342 122.053 66.8295 121.973 73.9772 121.973C81.1249 121.973 86.9202 122.047 86.9202 122.145Z" fill="#161B46"/>
<path d="M87.9723 128.166C87.9723 128.259 81.9445 128.333 74.5091 128.333C67.0737 128.333 61.0459 128.259 61.0459 128.166C61.0459 128.073 67.0737 127.993 74.5091 127.993C81.9445 127.993 87.9723 128.073 87.9723 128.166Z" fill="#161B46"/>
<path d="M88.6337 133.712C88.6337 133.811 82.4529 133.885 74.834 133.885C67.215 133.885 61.0342 133.811 61.0342 133.712C61.0342 133.613 67.215 133.546 74.834 133.546C82.4529 133.546 88.6337 133.62 88.6337 133.712Z" fill="#161B46"/>
<path d="M118.755 139.782C118.755 139.875 105.72 139.949 89.6436 139.949C73.5673 139.949 60.5264 139.875 60.5264 139.782C60.5264 139.689 73.5612 139.609 89.6436 139.609C105.726 139.609 118.755 139.689 118.755 139.782Z" fill="#161B46"/>
<path d="M118.98 144.638C118.98 144.737 105.848 144.811 89.649 144.811C73.4504 144.811 60.3115 144.737 60.3115 144.638C60.3115 144.539 73.4443 144.471 89.649 144.471C105.854 144.471 118.98 144.545 118.98 144.638Z" fill="#161B46"/>
<path d="M87.6425 150.628C87.6425 150.727 81.3698 150.801 73.6285 150.801C65.8871 150.801 59.6084 150.727 59.6084 150.628C59.6084 150.529 65.881 150.462 73.6285 150.462C81.3759 150.462 87.6425 150.536 87.6425 150.628Z" fill="#161B46"/>
<path d="M89.0686 156.187C89.0686 156.279 82.2452 156.359 73.8307 156.359C65.4162 156.359 58.5928 156.279 58.5928 156.187C58.5928 156.094 65.4162 156.02 73.8307 156.02C82.2452 156.02 89.0686 156.094 89.0686 156.187Z" fill="#161B46"/>
<path d="M63.121 157.659C63.0228 157.659 62.9492 146.881 62.9492 133.589C62.9492 120.296 63.0228 109.518 63.121 109.518C63.2192 109.518 63.2866 120.296 63.2866 133.589C63.2866 146.881 63.213 157.659 63.121 157.659Z" fill="#161B46"/>
<path d="M70.4713 157.068C70.3793 157.068 70.3057 143.892 70.3057 127.642C70.3057 111.392 70.3609 98.2102 70.4713 98.2102C70.5817 98.2102 70.6431 111.379 70.6431 127.636C70.6431 143.892 70.5695 157.068 70.4713 157.068Z" fill="#161B46"/>
<path d="M78.5914 156.186C78.4994 156.186 78.4258 143.486 78.4258 127.839C78.4258 112.193 78.4994 99.4919 78.5914 99.4919C78.6835 99.4919 78.7632 112.193 78.7632 127.839C78.7632 143.486 78.6896 156.186 78.5914 156.186Z" fill="#161B46"/>
<path d="M85.4147 157.641C85.3226 157.641 85.249 147.67 85.249 135.376C85.249 123.082 85.3226 113.105 85.4147 113.105C85.5067 113.105 85.5864 123.075 85.5864 135.376C85.5864 147.676 85.5067 157.641 85.4147 157.641Z" fill="#161B46"/>
<path d="M92.6433 135.832C92.723 136.552 92.7455 137.277 92.7107 138.001C92.7107 139.338 92.7107 141.181 92.6371 143.214C92.5635 145.248 92.5267 147.097 92.4653 148.428C92.4597 149.152 92.4023 149.875 92.2936 150.591C92.2134 149.873 92.1908 149.149 92.2261 148.428C92.2261 147.091 92.2261 145.248 92.2997 143.208C92.3733 141.168 92.4101 139.326 92.4715 137.989C92.4696 137.266 92.527 136.545 92.6433 135.832V135.832Z" fill="#161B46"/>
<path d="M100.348 136.091C100.424 136.766 100.447 137.446 100.415 138.124C100.415 139.357 100.415 141.101 100.354 143.005C100.293 144.909 100.244 146.641 100.188 147.892C100.191 148.569 100.133 149.246 100.017 149.913C99.9404 149.242 99.9179 148.566 99.9492 147.892C99.9492 146.659 99.9492 144.909 100.017 142.999C100.084 141.088 100.121 139.363 100.182 138.112C100.177 137.434 100.232 136.758 100.348 136.091V136.091Z" fill="#161B46"/>
<path d="M108.009 135.955C108.093 136.607 108.118 137.265 108.083 137.921C108.083 139.153 108.083 140.811 108.021 142.66C107.96 144.509 107.917 146.185 107.856 147.393C107.862 148.052 107.806 148.71 107.69 149.358C107.613 148.708 107.589 148.053 107.617 147.399C107.617 146.166 107.617 144.509 107.684 142.66C107.752 140.811 107.788 139.129 107.844 137.921C107.845 137.262 107.901 136.605 108.009 135.955V135.955Z" fill="#161B46"/>
<path d="M115.701 135.739C115.786 136.37 115.81 137.008 115.775 137.644C115.775 138.821 115.775 140.447 115.714 142.241C115.652 144.034 115.615 145.661 115.554 146.832C115.556 147.47 115.502 148.107 115.395 148.736C115.31 148.105 115.283 147.468 115.315 146.832C115.315 145.655 115.315 144.028 115.376 142.235C115.438 140.441 115.48 138.808 115.536 137.637C115.533 137.001 115.589 136.366 115.701 135.739V135.739Z" fill="#161B46"/>
<path d="M86.2168 138.617C86.7706 137.247 87.7783 136.113 89.0686 135.406C88.6194 135.965 88.135 136.494 87.6182 136.99C87.1852 137.561 86.7171 138.105 86.2168 138.617Z" fill="#161B46"/>
<path d="M87.973 138.765C87.8449 138.146 87.8917 137.503 88.108 136.91C88.3243 136.316 88.7016 135.795 89.1969 135.406C89.2703 135.474 88.7563 136.103 88.4258 137.027C88.0953 137.952 88.1076 138.765 87.973 138.765Z" fill="#161B46"/>
<path d="M119.318 148.076C118.975 146.121 118.742 144.148 118.62 142.167C118.388 140.193 118.265 138.207 118.253 136.22C118.604 138.176 118.839 140.152 118.957 142.136C119.189 144.107 119.31 146.091 119.318 148.076V148.076Z" fill="#161B46"/>
<path d="M119.703 138.549C119.703 138.593 119.532 138.716 119.507 139.024C119.502 139.105 119.513 139.187 119.539 139.264C119.565 139.342 119.607 139.413 119.66 139.474C119.729 139.536 119.815 139.576 119.907 139.588C119.999 139.6 120.092 139.584 120.174 139.542C120.261 139.508 120.336 139.45 120.39 139.375C120.444 139.299 120.476 139.21 120.48 139.116C120.472 139.035 120.448 138.956 120.409 138.884C120.37 138.812 120.317 138.749 120.254 138.697C120.015 138.506 119.789 138.568 119.777 138.519C119.764 138.469 120.003 138.297 120.389 138.519C120.501 138.58 120.597 138.668 120.668 138.775C120.738 138.883 120.781 139.007 120.792 139.135C120.801 139.295 120.76 139.453 120.674 139.588C120.588 139.723 120.463 139.828 120.315 139.887C120.17 139.956 120.007 139.977 119.849 139.949C119.691 139.92 119.546 139.842 119.434 139.726C119.354 139.629 119.298 139.514 119.272 139.391C119.245 139.268 119.248 139.14 119.281 139.018C119.391 138.568 119.709 138.506 119.703 138.549Z" fill="#161B46"/>
<path d="M88.8475 135.801H89.0005L89.4472 135.838C89.845 135.881 90.4325 135.918 91.2035 135.943C92.7457 136.004 95.0099 136.035 97.8923 136.01C103.651 135.973 111.882 135.758 121.759 135.394H121.9V135.536C122.095 139.375 122.304 143.547 122.512 147.972V148.114H122.383C120.816 148.409 119.231 148.533 117.61 148.699L112.665 149.13C109.305 149.408 105.848 149.666 102.329 149.919L89.3921 150.794C85.6408 150.554 81.9996 149.198 79.4538 146.708C78.2024 145.508 77.2197 144.052 76.5715 142.438C75.9631 140.915 75.478 139.344 75.1211 137.742C73.6096 131.58 72.6733 125.966 71.9083 121.307C71.5411 118.977 71.229 116.876 70.9659 115.04C70.6871 113.477 70.5052 111.899 70.4213 110.313C70.3713 109.307 70.5822 108.304 71.0332 107.404C71.1878 107.097 71.395 106.82 71.6452 106.585C71.4308 106.851 71.2403 107.135 71.076 107.435C70.6586 108.334 70.4734 109.323 70.5375 110.313C70.6481 111.891 70.8525 113.461 71.1495 115.015C71.4371 116.864 71.7615 118.947 72.1409 121.276C72.9119 125.923 73.8911 131.5 75.4149 137.668C75.776 139.255 76.261 140.811 76.8652 142.321C77.5024 143.894 78.4663 145.313 79.6925 146.48C82.1403 148.902 85.7448 150.227 89.4288 150.468L102.36 149.58L112.69 148.798L117.634 148.372C119.244 148.206 120.859 148.083 122.359 147.799L122.236 147.966C122.028 143.559 121.832 139.369 121.624 135.524L121.777 135.665C111.906 136.029 103.675 136.202 97.9106 136.189C95.0283 136.189 92.764 136.134 91.2219 136.041C90.4508 135.998 89.8572 135.949 89.4594 135.887L89.0127 135.832C88.9565 135.829 88.9009 135.819 88.8475 135.801Z" fill="#161B46"/>
<path d="M88.8478 135.801C88.7129 135.489 88.6063 135.165 88.5296 134.834C88.3521 134.217 88.1073 133.293 87.8136 132.159C87.2016 129.897 86.4978 126.748 85.7145 123.273C84.9312 119.797 84.2152 116.648 83.6767 114.374L83.0647 111.681C82.9691 111.356 82.9056 111.021 82.875 110.683C83.0064 110.996 83.1128 111.32 83.1932 111.65C83.3829 112.267 83.6277 113.185 83.9276 114.319C84.5395 116.574 85.2861 119.717 86.0695 123.199C86.8528 126.681 87.4953 129.768 88.0461 132.104C88.2909 133.201 88.499 134.106 88.6581 134.803C88.746 135.13 88.8094 135.464 88.8478 135.801Z" fill="#161B46"/>
<path d="M82.8511 99.9418C82.8565 100.17 82.8339 100.397 82.7837 100.62C82.7225 101.057 82.6246 101.68 82.49 102.468C82.4314 102.899 82.3456 103.325 82.233 103.744C82.1956 103.883 82.1263 104.011 82.0306 104.118C81.9349 104.225 81.8156 104.308 81.6822 104.36C81.4135 104.432 81.1309 104.432 80.8622 104.36C79.8524 104.151 78.7509 103.88 77.6004 103.565C75.3056 102.949 73.2616 102.265 71.7745 101.803L70.0182 101.248C69.8051 101.194 69.5995 101.113 69.4062 101.008C69.6325 101.015 69.8569 101.052 70.0733 101.119C70.5017 101.217 71.1136 101.365 71.8663 101.575C73.3718 101.975 75.428 102.604 77.7167 103.239C78.8611 103.553 79.9504 103.855 80.954 104.058C81.1692 104.129 81.3986 104.144 81.621 104.101C81.7123 104.068 81.7943 104.013 81.8602 103.941C81.9262 103.869 81.9743 103.783 82.0004 103.689C82.1351 103.294 82.1901 102.838 82.2819 102.456C82.441 101.692 82.5818 101.076 82.6797 100.644C82.7028 100.403 82.7605 100.166 82.8511 99.9418V99.9418Z" fill="#161B46"/>
<path d="M72.1416 185.255L76.4192 243.718L78.2062 243.299L77.5391 186.487L72.1416 185.255Z" fill="#161B46"/>
<path d="M54.0144 187.288L41.0225 243.65H43.3724L61.9699 187.288H54.0144Z" fill="#161B46"/>
<path d="M88.377 187.288L106.099 243.65H107.997L93.9152 187.288H88.377Z" fill="#161B46"/>
<path d="M90.7516 191.072L51.0352 217.207V218.636L91.8592 191.072H90.7516Z" fill="#161B46"/>
<path d="M57.0498 191.072L100.083 220.233V218.002L58.3104 189.796L57.0498 191.072Z" fill="#161B46"/>
<path d="M48.0786 188.256L99.251 187.325C99.7093 187.316 100.161 187.211 100.576 187.016C100.991 186.82 101.361 186.539 101.662 186.19C101.962 185.842 102.187 185.434 102.321 184.992C102.455 184.551 102.495 184.086 102.439 183.628C102.347 182.817 101.958 182.07 101.348 181.532C100.738 180.994 99.9512 180.704 99.1408 180.719L47.2402 181.557L48.0786 188.256Z" fill="#00ACE9"/>
<g opacity="0.2">
<path opacity="0.2" d="M48.0786 188.256L99.251 187.325C99.7093 187.316 100.161 187.211 100.576 187.016C100.991 186.82 101.361 186.539 101.662 186.19C101.962 185.842 102.187 185.434 102.321 184.992C102.455 184.551 102.495 184.086 102.439 183.628C102.347 182.817 101.958 182.07 101.348 181.532C100.738 180.994 99.9512 180.704 99.1408 180.719L47.2402 181.557L48.0786 188.256Z" fill="#0E1339"/>
</g>
<path d="M42.8648 148.422L48.0298 188.255L88.3765 187.288L88.2725 163.094C88.2867 162.144 88.1022 161.2 87.7308 160.326C87.3595 159.452 86.8097 158.666 86.1171 158.02C85.4246 157.374 84.6047 156.881 83.7109 156.575C82.8171 156.269 81.8692 156.155 80.9289 156.242L50.1655 159.039L46.1143 116.821L42.0264 116.469C41.5994 116.438 41.1709 116.503 40.772 116.659C40.3731 116.816 40.014 117.06 39.7208 117.374C39.4276 117.688 39.2078 118.065 39.0773 118.475C38.9468 118.886 38.909 119.32 38.9666 119.748L42.8648 148.422Z" fill="#00ACE9"/>
</svg>
