<svg width="192" height="192" viewBox="0 0 192 192" fill="none" xmlns="http://www.w3.org/2000/svg">
<path d="M159.337 171.775C159.337 172.043 129.558 172.24 92.8487 172.24C56.1391 172.24 26.3369 172.043 26.3369 171.775C26.3369 171.507 56.0921 171.24 92.8285 171.24C129.565 171.24 159.337 171.525 159.337 171.775Z" fill="#161B46"/>
<path d="M148.881 33.438C145.527 28.6102 140.881 24.8249 135.474 22.5157C130.068 20.2064 124.121 19.4665 118.314 20.3808C112.507 21.2951 107.075 23.8265 102.639 27.6852C98.2044 31.5439 94.9458 36.5737 93.237 42.1986C91.5282 47.8234 91.4383 53.8159 92.9775 59.4895C94.5168 65.1631 97.6229 70.2884 101.94 74.2785C106.258 78.2685 111.611 80.9618 117.388 82.0499C123.166 83.138 129.132 82.577 134.605 80.431L139.57 87.5226L150.255 87.5174L146.106 96.9058L152.323 105.843L162.991 105.847L158.842 115.235L164.191 122.918L170.7 122.926L168.167 128.648L171.312 133.177L180.914 135.175L186.645 121.251L149.671 68.0751C152.961 62.8644 154.642 56.7987 154.501 50.6375C154.361 44.4763 152.406 38.4934 148.881 33.438ZM110.133 32.5283C111.588 31.516 113.312 30.9581 115.084 30.9249C116.857 30.8917 118.6 31.3848 120.093 32.3418C121.586 33.2989 122.761 34.677 123.471 36.3019C124.18 37.9268 124.392 39.7257 124.08 41.4711C123.768 43.2165 122.945 44.8301 121.716 46.1081C120.487 47.386 118.906 48.2709 117.174 48.6509C115.442 49.0309 113.636 48.8889 111.985 48.243C110.334 47.597 108.911 46.476 107.897 45.0217C106.542 43.0668 106.016 40.6548 106.435 38.3134C106.854 35.972 108.184 33.892 110.133 32.5283Z" fill="#E6E8F3"/>
<path d="M23.8631 59.1268C23.67 59.0297 23.5076 58.8799 23.3941 58.6943C23.2805 58.5087 23.2204 58.2947 23.2205 58.0763L23.2205 52.2948C23.2209 52.1162 23.262 51.9403 23.3408 51.7806C23.4196 51.6209 23.5339 51.4819 23.6746 51.3746C23.8146 51.2641 23.9786 51.1892 24.1529 51.156C24.3273 51.1228 24.507 51.1322 24.677 51.1836C25.1474 51.3054 25.6372 51.3298 26.1172 51.2552C26.5971 51.1806 27.0572 51.0086 27.47 50.7495C27.8503 50.5294 28.182 50.2325 28.4443 49.877C28.7067 49.5216 28.8941 49.1153 28.995 48.6834C29.0714 48.2443 29.0592 47.7941 28.959 47.3599C28.8589 46.9257 28.6729 46.5166 28.4124 46.1573C28.1416 45.7498 27.7941 45.4004 27.3898 45.1293C26.9855 44.8582 26.5323 44.6706 26.0563 44.5773C25.0896 44.4793 24.1187 44.7171 23.3029 45.2519C22.4872 45.7866 21.875 46.5865 21.567 47.5202C21.5215 47.665 21.4482 47.7992 21.3514 47.9153C21.2546 48.0314 21.1362 48.127 21.003 48.1968C20.8697 48.2665 20.7242 48.309 20.5748 48.3217C20.4253 48.3345 20.2749 48.3173 20.132 48.2711C19.9891 48.2249 19.8566 48.1507 19.742 48.0526C19.6274 47.9546 19.533 47.8346 19.4642 47.6996C19.3954 47.5645 19.3535 47.4171 19.3409 47.2657C19.3284 47.1142 19.3453 46.9618 19.3909 46.817C19.8678 45.3575 20.8273 44.1095 22.1073 43.2839C23.3873 42.4583 24.9093 42.1056 26.4162 42.2855C27.2002 42.4217 27.9486 42.7183 28.6158 43.1571C29.283 43.5958 29.8551 44.1677 30.2972 44.8377C30.7352 45.4594 31.0445 46.1644 31.2065 46.9103C31.3684 47.6563 31.3797 48.4278 31.2396 49.1783C31.0749 49.9206 30.7618 50.6209 30.3198 51.236C29.8777 51.8512 29.3161 52.368 28.6694 52.7548C27.7205 53.3327 26.6322 53.6332 25.5252 53.623L25.5252 58.0763C25.5252 58.3849 25.4042 58.6807 25.1889 58.8989C24.9736 59.117 24.6816 59.2396 24.3771 59.2396C24.1997 59.2407 24.0242 59.2022 23.8631 59.1268Z" fill="#00ACE9"/>
<path d="M25.3368 61.2217C25.3403 61.419 25.2854 61.613 25.1789 61.7791C25.0724 61.9453 24.9191 62.0763 24.7384 62.1555C24.5576 62.2347 24.3574 62.2587 24.1631 62.2244C23.9687 62.1901 23.7888 62.099 23.6461 61.9627C23.5034 61.8263 23.4042 61.6508 23.3611 61.4582C23.318 61.2656 23.3328 61.0646 23.4037 60.8804C23.4746 60.6962 23.5984 60.5371 23.7595 60.4232C23.9207 60.3092 24.1119 60.2455 24.3092 60.24C24.4413 60.2363 24.5728 60.2589 24.6961 60.3064C24.8195 60.3538 24.9322 60.4253 25.0277 60.5166C25.1232 60.6078 25.1998 60.7172 25.2528 60.8382C25.3058 60.9592 25.3344 61.0895 25.3368 61.2217Z" fill="#00ACE9"/>
<path d="M50.6584 53.9308C50.6584 53.9308 50.4726 54.0381 50.254 54.3744C49.9354 54.8018 49.7559 55.3169 49.7398 55.8497C49.7226 56.2178 49.7884 56.5851 49.9324 56.9244C50.0989 57.3127 50.376 57.6435 50.7292 57.8754C51.1218 58.1663 51.5942 58.3297 52.0826 58.3434C52.5711 58.3571 53.0519 58.2205 53.4602 57.952C53.8685 57.6836 54.1845 57.2962 54.3654 56.8423C54.5464 56.3885 54.5836 55.89 54.4721 55.4142C54.3992 54.997 54.2048 54.6105 53.9132 54.3033C53.6554 54.0387 53.3442 53.832 53.0003 53.6971C52.5012 53.5018 51.9548 53.4615 51.4324 53.5815C51.0596 53.6767 50.8747 53.7984 50.8649 53.7815L51 53.7035C51.0534 53.6662 51.1099 53.6336 51.1689 53.606C51.2454 53.5675 51.3255 53.5363 51.408 53.5131C51.9495 53.3505 52.5292 53.3688 53.0594 53.5654C53.4297 53.6936 53.7653 53.9056 54.0401 54.185C54.3475 54.5039 54.5557 54.9052 54.6394 55.3401C54.7392 55.8306 54.7001 56.3392 54.5266 56.8088C54.3477 57.3194 54.0097 57.7592 53.5623 58.0635C53.1057 58.3518 52.5694 58.488 52.0306 58.4525C51.5304 58.4291 51.0466 58.2665 50.6337 57.9831C50.2643 57.7295 49.9745 57.3763 49.7979 56.9645C49.6513 56.6005 49.5889 56.208 49.6155 55.8164C49.6474 55.2494 49.8609 54.7076 50.2246 54.2714C50.2815 54.2044 50.3429 54.1414 50.4083 54.0827C50.452 54.0359 50.5014 53.9948 50.5553 53.9603C50.5882 53.9459 50.6229 53.936 50.6584 53.9308Z" fill="#0E1339"/>
<path d="M59.2952 56.2023C59.2952 56.2023 59.1932 56.2987 59.0562 56.4904C58.8565 56.7628 58.7441 57.0894 58.7339 57.4271C58.7196 57.671 58.7689 57.9145 58.877 58.1336C58.9851 58.3528 59.1483 58.5401 59.3506 58.6772C59.5934 58.8557 59.8851 58.9555 60.1864 58.9632C60.4877 58.971 60.7841 58.8862 61.0358 58.7205C61.2875 58.5547 61.4824 58.3159 61.5943 58.036C61.7062 57.7562 61.7297 57.4488 61.6617 57.1552C61.6163 56.9148 61.5089 56.6905 61.3501 56.5044C61.1913 56.3182 60.9867 56.1769 60.7564 56.0942C60.4421 55.9694 60.0972 55.9434 59.7676 56.0196C59.5349 56.0714 59.4199 56.1453 59.4102 56.1284C59.5027 56.0372 59.617 55.9712 59.7423 55.9367C60.0343 55.8493 60.3445 55.842 60.6404 55.9154C60.9362 55.9888 61.207 56.1403 61.4243 56.3541C61.6333 56.5546 61.7809 56.8103 61.8501 57.0915C61.9284 57.4188 61.9041 57.7622 61.7803 58.0752C61.6566 58.3881 61.4395 58.6553 61.1585 58.8405C60.8775 59.0257 60.5463 59.1198 60.2099 59.1101C59.8736 59.1005 59.5483 58.9874 59.2785 58.7864C59.0353 58.625 58.8467 58.3936 58.7378 58.1228C58.6445 57.8914 58.6056 57.6417 58.6241 57.3929C58.6466 57.0324 58.7854 56.6889 59.0196 56.414C59.0948 56.3241 59.1889 56.2518 59.2952 56.2023Z" fill="#0E1339"/>
<path d="M45.2246 53.5336C45.2246 53.5336 45.2246 53.4231 45.2246 53.2086C45.2246 52.9941 45.2246 52.6691 45.2246 52.2531C45.2246 52.0386 45.2246 51.8046 45.2246 51.5446C45.2246 51.2846 45.1856 51.005 45.1661 50.6995C45.1466 50.394 45.1206 50.0495 45.0881 49.7115C45.0798 49.53 45.0559 49.3495 45.0166 49.172L44.919 48.6C44.5984 46.6891 43.9914 44.8374 43.1185 43.1075C41.9826 40.8185 40.4182 38.7686 38.51 37.069L37.6975 36.3605C37.4115 36.1395 37.106 35.9315 36.807 35.7105L36.3455 35.3855C36.2004 35.266 36.0436 35.1615 35.8775 35.0735L34.8765 34.469C34.7075 34.3715 34.545 34.2675 34.3695 34.1765L33.83 33.9295L32.7445 33.4355C32.3675 33.2795 31.9775 33.1625 31.594 33.026L31.009 32.8245L30.71 32.727L30.4045 32.6555C29.584 32.4388 28.7502 32.276 27.9085 32.168C27.4795 32.1225 27.044 32.0445 26.6085 32.0185L25.3085 31.9795C25.0875 31.9795 24.8665 31.9795 24.6585 31.9795L24.0085 32.0315C23.5535 32.0705 23.0985 32.0835 22.65 32.142C21.7306 32.2727 20.8208 32.4637 19.9265 32.714L19.244 32.909C19.1335 32.909 19.0165 32.9675 18.906 33.0065L18.5745 33.1365L17.2355 33.6565C16.8 33.8515 16.3709 34.0855 15.9354 34.3065C15.7209 34.4235 15.4999 34.5145 15.2854 34.6445L14.6354 35.041C13.7931 35.5688 12.9874 36.153 12.2239 36.7895L11.1254 37.823L10.8459 38.083L10.5924 38.369L10.0919 38.9475L9.58492 39.5195L9.12992 40.1695L8.68142 40.8195L8.45392 41.138C8.38242 41.2485 8.31742 41.359 8.25242 41.4695L7.46592 42.828C7.25142 43.3025 7.03042 43.777 6.81592 44.258C5.12414 48.2332 4.77943 52.6527 5.83441 56.8421L6.26341 58.3631L6.82891 59.8191L6.97191 60.1831L7.14742 60.5276L7.49842 61.2231L7.84292 61.9056L8.25892 62.5556L8.66842 63.2056L8.86992 63.5241L9.10392 63.8231L10.0334 65.0191C10.6898 65.7654 11.3956 66.4669 12.1459 67.1186L12.6984 67.6061C12.8804 67.7686 13.0884 67.8986 13.2834 68.0416C13.6799 68.3211 14.0634 68.6201 14.4664 68.8801L15.7014 69.5691L16.0069 69.7511L16.332 69.9006L16.982 70.1931C17.8264 70.5782 18.6949 70.9082 19.582 71.1811C20.024 71.3111 20.4725 71.3956 20.882 71.5061L21.532 71.6621C21.753 71.7076 21.974 71.7206 22.182 71.7531L23.482 71.9221C23.9175 71.9676 24.353 71.9221 24.782 71.9741C25.6324 72.0028 26.4838 71.9724 27.33 71.8831H27.642L27.9475 71.8311L28.5585 71.7271C28.9615 71.6491 29.3645 71.5971 29.7545 71.4996L30.9115 71.1811L31.4835 71.0251L32.0295 70.8106L33.102 70.3946C33.2795 70.3312 33.4512 70.2529 33.6155 70.1606L34.1225 69.9071C34.454 69.7381 34.7725 69.5821 35.104 69.4066L36.014 68.8281C38.1773 67.4445 40.0514 65.6543 41.5325 63.5566C41.695 63.3291 41.864 63.1081 42.02 62.9066L42.423 62.2176L42.813 61.5676C42.878 61.4571 42.943 61.3531 43.0015 61.2426C43.06 61.1321 43.099 61.0151 43.151 60.9046L43.736 59.6436C43.905 59.2406 44.022 58.8311 44.1586 58.4606L44.3535 57.9081C44.4174 57.7391 44.4674 57.5652 44.503 57.3881L44.737 56.4196C44.8021 56.1206 44.8801 55.8476 44.9256 55.5941C44.9711 55.3406 44.9906 55.1066 45.0231 54.8986C45.0751 54.4826 45.1206 54.1706 45.153 53.9496C45.1856 53.7286 45.2051 53.6311 45.2051 53.6311C45.2051 53.6311 45.2051 53.7416 45.2051 53.9561L45.0881 54.9051C45.0881 55.1131 45.0361 55.3471 45.0036 55.6006C44.9711 55.8541 44.8866 56.1336 44.8216 56.4326C44.7566 56.7316 44.6786 57.0826 44.6006 57.4011C44.5659 57.5805 44.5158 57.7567 44.4511 57.9276C44.3861 58.1096 44.3276 58.2916 44.2626 58.4801C44.126 58.8571 44.0155 59.2666 43.84 59.6761C43.6645 60.0856 43.4631 60.5016 43.268 60.9761L43.112 61.3141C43.06 61.4246 42.9885 61.5351 42.93 61.6456C42.8 61.8601 42.67 62.0876 42.54 62.2956C42.41 62.5036 42.2735 62.7571 42.137 62.9976C42.0005 63.2381 41.812 63.4461 41.6495 63.6801C40.1559 65.7672 38.2733 67.5461 36.105 68.9191L35.1885 69.5041C34.87 69.6796 34.5385 69.8421 34.2005 70.0111L33.7 70.2711C33.5329 70.3622 33.359 70.4405 33.18 70.5051L32.0945 70.9276L31.5485 71.1421L30.9765 71.3046L29.813 71.6296C29.4165 71.7271 29.007 71.7791 28.604 71.8571L27.9865 71.9676L27.681 72.0196H27.3625C26.5122 72.1133 25.6565 72.1481 24.8015 72.1236C24.366 72.1236 23.924 72.1236 23.5015 72.0716L22.2015 71.9026C21.974 71.9026 21.753 71.8571 21.5515 71.8051L20.9015 71.6556C20.4595 71.5451 20.0045 71.4606 19.5625 71.3306C18.6738 71.0598 17.805 70.7275 16.9625 70.3361L16.3124 70.0436L15.9874 69.8941L15.6754 69.7121L14.4209 68.9841C14.0179 68.7241 13.6279 68.4186 13.2314 68.1391C13.0299 67.9896 12.8219 67.8596 12.6399 67.6971L12.0809 67.2096C11.2885 66.5523 10.5435 65.8399 9.85143 65.0776L8.90892 63.8751L8.67492 63.5696L8.46692 63.2446L8.05742 62.5946L7.64142 61.9446L7.29042 61.2556L6.93291 60.5536L6.75742 60.2026L6.60141 59.8191C6.40641 59.3316 6.21791 58.8376 6.02941 58.3501C5.84091 57.8626 5.74341 57.3296 5.59391 56.8161C4.54106 52.5897 4.89476 48.1353 6.60141 44.128L7.25142 42.6785C7.51792 42.2235 7.78442 41.7685 8.04442 41.3135C8.11592 41.203 8.17442 41.086 8.24592 40.9755L8.47342 40.657L8.93492 40.007L9.38992 39.357L9.90343 38.772L10.4104 38.1935L10.6639 37.9075L10.9434 37.641L12.0549 36.5945C12.8261 35.9541 13.6405 35.3677 14.4924 34.8395L15.1424 34.443C15.3504 34.3065 15.5779 34.2155 15.7924 34.0985C16.2279 33.884 16.6569 33.6435 17.0925 33.4485L18.4445 32.922L18.7825 32.792L19.1205 32.6945L19.8095 32.506C20.7097 32.2532 21.6262 32.0621 22.5525 31.934C23.014 31.8755 23.469 31.856 23.924 31.817L24.574 31.7715C24.795 31.7715 25.0225 31.7715 25.224 31.7715L26.563 31.8105C27.005 31.8105 27.434 31.9145 27.863 31.9665C28.7126 32.0717 29.5533 32.239 30.3785 32.467L30.6905 32.5385C30.788 32.5385 30.8855 32.6035 30.983 32.636L31.5745 32.8375C31.9645 32.9805 32.361 33.091 32.7315 33.247L33.9015 33.819L34.441 34.066L34.9545 34.3585L35.9555 34.9435C36.121 35.0383 36.2796 35.1447 36.43 35.262L36.8915 35.5935C37.1905 35.8145 37.5025 36.0225 37.7885 36.2435L38.6075 36.9585C40.5318 38.6799 42.1055 40.7568 43.242 43.075C44.1153 44.8146 44.716 46.678 45.0231 48.6C45.0556 48.795 45.0881 48.99 45.1206 49.172C45.1543 49.3524 45.176 49.5348 45.1856 49.718C45.1856 50.069 45.2376 50.4005 45.2571 50.706C45.2766 51.0115 45.3026 51.2975 45.3091 51.5575C45.3156 51.8175 45.3091 52.0516 45.3091 52.2661C45.3091 52.6821 45.3091 53.0006 45.3091 53.2216L45.2246 53.5336Z" fill="#0E1339"/>
<path d="M43.2485 132.544H38.3164V171.425H43.2485V132.544Z" fill="#34405E"/>
<path d="M43.2529 171.42C43.2529 171.42 43.2529 171.352 43.2529 171.217V170.635C43.2529 170.116 43.2529 169.37 43.2529 168.399C43.2529 166.455 43.2529 163.645 43.2189 160.156C43.2189 153.175 43.1892 143.472 43.1722 132.542L43.2826 132.652H38.3165L38.427 132.542C38.4015 149.572 38.3802 164.32 38.3675 171.42L38.3165 171.373L41.9742 171.399H42.9258H43.2529C43.2529 171.399 43.1509 171.399 42.9428 171.399H42.0039L38.3165 171.424H38.2698V171.373C38.2698 164.274 38.2358 149.526 38.2061 132.496L38.3165 132.386H43.3633V132.496C43.3633 143.464 43.3251 153.188 43.3166 160.19C43.3166 163.666 43.2911 166.467 43.2826 168.408C43.2826 169.361 43.2826 170.095 43.2826 170.618V171.188C43.2571 171.361 43.2529 171.42 43.2529 171.42Z" fill="#161B46"/>
<g opacity="0.3">
<path opacity="0.3" d="M43.2485 133.488H38.3164V135.108H43.2485V133.488Z" fill="#0E1339"/>
</g>
<path d="M138.183 132.544H133.251V171.425H138.183V132.544Z" fill="#34405E"/>
<path d="M138.182 171.42C138.182 171.42 138.182 171.352 138.182 171.217V170.635C138.182 170.116 138.182 169.37 138.182 168.399C138.182 166.455 138.182 163.645 138.148 160.156C138.148 153.175 138.123 143.472 138.102 132.542L138.212 132.652H133.25L133.361 132.542C133.331 149.572 133.31 164.32 133.297 171.42L133.25 171.373L136.908 171.399H137.855H138.182C138.182 171.399 138.08 171.399 137.872 171.399H136.938L133.25 171.424H133.199V171.373C133.199 164.274 133.165 149.526 133.14 132.496L133.25 132.386H138.293V132.496C138.293 143.464 138.259 153.188 138.246 160.19C138.246 163.666 138.22 166.467 138.212 168.408C138.212 169.361 138.212 170.095 138.212 170.618V171.188C138.186 171.361 138.182 171.42 138.182 171.42Z" fill="#161B46"/>
<path d="M130.451 98.4852H125.519V130.896H130.451V98.4852Z" fill="#34405E"/>
<path d="M130.455 130.89C130.449 130.833 130.449 130.775 130.455 130.717V130.232C130.455 129.81 130.455 129.173 130.455 128.376C130.455 126.752 130.434 124.419 130.422 121.513C130.422 115.7 130.392 107.617 130.375 98.4799L130.485 98.5895H125.523C125.74 98.3702 125.583 98.5347 125.63 98.4883V103.631C125.63 105.318 125.63 106.959 125.63 108.562C125.63 111.768 125.63 114.797 125.63 117.585C125.608 123.154 125.596 127.756 125.587 130.89L125.532 130.835L129.181 130.865H130.137H130.468H130.154H129.215L125.532 130.894H125.468V130.89C125.468 127.756 125.447 123.154 125.43 117.585C125.43 114.797 125.43 111.768 125.43 108.562C125.43 106.959 125.43 105.315 125.43 103.631V98.4925C125.481 98.4419 125.319 98.5937 125.545 98.3744H130.566V98.4841C130.566 107.651 130.532 115.78 130.519 121.597C130.519 124.491 130.494 126.815 130.489 128.431C130.489 129.22 130.489 129.836 130.489 130.266C130.489 130.464 130.489 130.624 130.489 130.738C130.489 130.852 130.455 130.89 130.455 130.89Z" fill="#161B46"/>
<path d="M52.6919 98.4854H47.7598V130.896H52.6919V98.4854Z" fill="#34405E"/>
<path d="M52.696 130.89C52.6926 130.832 52.6926 130.775 52.696 130.717C52.696 130.599 52.696 130.439 52.696 130.232C52.696 129.81 52.696 129.173 52.696 128.376C52.696 126.752 52.696 124.419 52.6621 121.512C52.6621 115.699 52.6323 107.617 52.6153 98.4797L52.7258 98.5894H47.7639C47.9805 98.37 47.8234 98.5346 47.8701 98.4882V103.63C47.8701 105.318 47.8701 106.962 47.8701 108.562C47.8701 111.768 47.8701 114.797 47.8701 117.585C47.8701 123.153 47.8361 127.756 47.8276 130.89L47.7724 130.835L51.4216 130.865H52.3774H52.7088H52.3944H51.4556L47.7724 130.894H47.7214V130.89C47.7214 127.756 47.6959 123.153 47.6789 117.585C47.6789 114.797 47.6789 111.768 47.6789 108.562C47.6789 106.959 47.6789 105.315 47.6789 103.63V98.4924C47.7299 98.4418 47.5685 98.5936 47.7936 98.3743H52.8065V98.4839C52.8065 107.651 52.7683 115.78 52.7555 121.597C52.7555 124.491 52.7555 126.815 52.7258 128.431C52.7258 129.22 52.7258 129.835 52.7258 130.266C52.7258 130.464 52.7258 130.624 52.7258 130.738C52.7258 130.852 52.696 130.89 52.696 130.89Z" fill="#161B46"/>
<path d="M139.971 94.7839H38.0273V99.9727H139.971V94.7839Z" fill="#34405E"/>
<path d="M139.971 99.9733C139.971 99.9733 139.971 99.8678 139.971 99.6569C139.971 99.446 139.971 99.1296 139.971 98.7035C139.971 97.8599 139.971 96.5564 139.971 94.7846L140.001 94.8184L38.0614 94.8943L38.1719 94.7846V99.9733L38.0614 99.8636L117.375 99.91L131.254 99.9438H137.737H139.436H140.014H139.449H137.775H131.322L117.468 99.9775L38.0274 100.096H37.917V94.6749H38.0317L139.971 94.7551H140.005V94.7846C140.005 96.5648 140.005 97.8641 140.005 98.7204C140.005 99.1423 140.005 99.4586 140.005 99.6696C140.005 99.8805 139.971 99.9733 139.971 99.9733Z" fill="#161B46"/>
<path d="M140.26 102.568H38.3164V107.757H140.26V102.568Z" fill="#34405E"/>
<path d="M140.26 107.756C140.26 107.756 140.26 107.65 140.26 107.439C140.26 107.228 140.26 106.912 140.26 106.486C140.26 105.642 140.26 104.339 140.26 102.567L140.29 102.596L38.3544 102.677L38.4649 102.567V107.756L38.3544 107.646L117.625 107.688L131.504 107.718H137.987H139.686H140.264H139.703H138.03H131.572L117.719 107.751L38.3204 107.798H38.21V102.457H38.3289L140.264 102.537H140.298V102.567C140.298 104.347 140.298 105.646 140.298 106.503C140.298 106.925 140.298 107.237 140.298 107.448C140.298 107.659 140.26 107.756 140.26 107.756Z" fill="#161B46"/>
<path d="M140.26 110.637H38.3164V115.826H140.26V110.637Z" fill="#34405E"/>
<path d="M140.26 115.827C140.26 115.827 140.26 115.721 140.26 115.51C140.26 115.299 140.26 114.983 140.26 114.557C140.26 113.713 140.26 112.41 140.26 110.638L140.29 110.668L38.3545 110.748L38.465 110.638V115.827L38.3545 115.717L117.672 115.763L131.551 115.797H138.034H139.733H140.311H139.75H138.077H131.619L117.766 115.831L38.3673 115.877H38.2568V110.528H38.3758L140.311 110.608H140.345V110.642C140.345 112.422 140.345 113.722 140.345 114.578C140.345 115 140.345 115.312 140.345 115.527C140.345 115.742 140.26 115.827 140.26 115.827Z" fill="#161B46"/>
<path d="M140.26 118.708H38.3164V123.897H140.26V118.708Z" fill="#34405E"/>
<path d="M140.26 123.896C140.26 123.896 140.26 123.79 140.26 123.579C140.26 123.368 140.26 123.052 140.26 122.626C140.26 121.782 140.26 120.479 140.26 118.707L140.29 118.741L38.3545 118.817L38.465 118.707V123.896L38.3545 123.786L117.672 123.832L131.551 123.866H138.034H139.733H140.311H139.75H138.077H131.619L117.766 123.9L38.3673 123.946H38.2568V118.597H38.3758L140.311 118.678H140.345V118.707C140.345 120.487 140.345 121.787 140.345 122.643C140.345 123.065 140.345 123.381 140.345 123.592C140.345 123.803 140.26 123.896 140.26 123.896Z" fill="#161B46"/>
<path d="M142.299 128.299H33.4561V133.488H142.299V128.299Z" fill="#34405E"/>
<path d="M142.299 133.489C142.299 133.489 142.299 133.383 142.299 133.172C142.299 132.961 142.299 132.645 142.299 132.219C142.299 131.375 142.299 130.072 142.299 128.3L142.333 128.33L33.4941 128.41L33.6045 128.3V133.489L33.4941 133.379L117.685 133.421L133.042 133.455H139.928H141.721C142.125 133.455 142.337 133.455 142.337 133.455H141.734H139.911H133.05L117.723 133.489L33.4474 133.535H33.3369V128.19H33.4516L142.29 128.27H142.32V128.3C142.32 130.08 142.32 131.379 142.32 132.236C142.32 132.658 142.32 132.97 142.32 133.181C142.32 133.392 142.299 133.489 142.299 133.489Z" fill="#161B46"/>
<g opacity="0.3">
<path opacity="0.3" d="M138.183 133.488H133.251V135.108H138.183V133.488Z" fill="#0E1339"/>
</g>
<path d="M88.0193 68.5927L86.953 75.4223L84.2087 81.6403L80.1432 79.0629L78.6945 75.435L77.4838 72.3893C77.4838 72.3893 73.1889 73.4186 71.4769 69.4364C70.6527 67.5128 69.2763 63.4124 68.0783 59.6833C67.4563 57.7479 67.5918 55.6507 68.458 53.8102C69.3241 51.9696 70.8571 50.5209 72.7513 49.7531L73.1379 49.5928C77.4413 48.1205 81.1033 50.9258 82.4627 55.2329L88.0448 68.6011" fill="#A2675F"/>
<path d="M77.4795 72.3886C79.3569 71.662 80.9736 70.3959 82.1227 68.7523C82.1227 68.7523 82.076 72.1482 77.9001 73.4306L77.4795 72.3886Z" fill="#7A4A45"/>
<path d="M70.7002 62.7331C70.76 62.8832 70.8767 63.0039 71.0253 63.0694C71.1738 63.1349 71.3424 63.1398 71.4946 63.0832C71.5703 63.059 71.6403 63.0199 71.7005 62.9683C71.7607 62.9167 71.8099 62.8537 71.8452 62.7829C71.8804 62.7121 71.901 62.635 71.9058 62.5561C71.9105 62.4773 71.8992 62.3983 71.8727 62.3239C71.8129 62.1738 71.6961 62.053 71.5475 61.9875C71.399 61.922 71.2305 61.9171 71.0782 61.9737C71.0026 61.998 70.9325 62.037 70.8723 62.0886C70.8121 62.1402 70.7629 62.2033 70.7276 62.2741C70.6924 62.3449 70.6718 62.422 70.6671 62.5008C70.6623 62.5796 70.6736 62.6586 70.7002 62.7331Z" fill="#161B46"/>
<path d="M69.6209 61.0914C69.7228 61.1378 70.0457 60.64 70.6489 60.3869C71.2522 60.1338 71.8512 60.2561 71.8851 60.1549C71.9191 60.0537 71.7747 60.003 71.5198 59.9398C71.1701 59.8584 70.8036 59.8864 70.4705 60.0199C70.1477 60.152 69.8755 60.3824 69.6931 60.678C69.5656 60.91 69.5571 61.0745 69.6209 61.0914Z" fill="#161B46"/>
<path d="M76.1079 60.3363C76.1677 60.4864 76.2845 60.6071 76.4331 60.6726C76.5816 60.7381 76.7501 60.743 76.9023 60.6864C76.9784 60.6626 77.0489 60.6238 77.1096 60.5725C77.1703 60.5211 77.2199 60.4581 77.2556 60.3872C77.2913 60.3164 77.3122 60.2391 77.3172 60.1601C77.3222 60.081 77.3112 60.0018 77.2847 59.9271C77.224 59.7777 77.1072 59.6576 76.9589 59.5923C76.8106 59.5269 76.6426 59.5214 76.4903 59.5769C76.4142 59.6007 76.3437 59.6395 76.283 59.6909C76.2223 59.7423 76.1727 59.8053 76.137 59.8761C76.1013 59.947 76.0804 60.0242 76.0754 60.1033C76.0704 60.1823 76.0815 60.2616 76.1079 60.3363Z" fill="#161B46"/>
<path d="M75.7161 58.396C75.8138 58.4508 76.1706 57.9741 76.8121 57.8012C77.4536 57.6282 78.0229 57.8012 78.0866 57.7041C78.1503 57.6071 77.9974 57.5438 77.7467 57.451C77.4091 57.3474 77.0478 57.3474 76.7102 57.451C76.3736 57.5472 76.0762 57.7465 75.8605 58.0205C75.6949 58.2104 75.6694 58.3707 75.7161 58.396Z" fill="#161B46"/>
<path d="M75.5378 64.3902C75.1696 64.4211 74.8069 64.4991 74.4588 64.6223C74.2931 64.6687 74.1317 64.6982 74.0595 64.6223C73.9775 64.4668 73.9463 64.2899 73.9703 64.116C73.9703 63.6745 73.9618 63.2105 73.9448 62.724C73.8853 60.7539 73.7749 59.1594 73.6984 59.1636C73.6219 59.1678 73.5964 60.7666 73.6559 62.7366C73.6559 63.2217 73.6899 63.6815 73.7026 64.1245C73.6834 64.3545 73.745 64.584 73.8768 64.7741C73.9224 64.8212 73.9783 64.8571 74.0402 64.8791C74.1022 64.9011 74.1684 64.9084 74.2337 64.9007C74.3314 64.8876 74.4271 64.8621 74.5183 64.8247C74.8747 64.7218 75.2171 64.5759 75.5378 64.3902Z" fill="#161B46"/>
<path d="M74.5277 55.7719C74.6594 55.9153 75.2456 55.582 76.0103 55.35C76.775 55.118 77.4462 55.0969 77.4802 54.9282C77.4802 54.8396 77.323 54.7215 77.0213 54.6582C76.6223 54.5886 76.2126 54.6102 75.8232 54.7213C75.4338 54.8324 75.075 55.0301 74.7741 55.2994C74.5489 55.5146 74.4682 55.7044 74.5277 55.7719Z" fill="#161B46"/>
<path d="M68.7205 58.6693C68.8904 58.7621 69.2558 58.4457 69.7656 58.2263C70.2753 58.007 70.7554 57.9352 70.7936 57.7454C70.7936 57.6568 70.6832 57.5471 70.4368 57.4923C70.1164 57.4303 69.7844 57.4717 69.4894 57.6104C69.1887 57.7382 68.9361 57.9566 68.7672 58.2348C68.644 58.4499 68.644 58.6186 68.7205 58.6693Z" fill="#161B46"/>
<path d="M83.3379 58.3325C83.3974 58.2777 85.7764 56.3878 86.8214 59.1762C87.8665 61.9646 84.846 62.4244 84.812 62.3443C84.778 62.2641 83.3379 58.3325 83.3379 58.3325Z" fill="#A2675F"/>
<path d="M85.2718 60.955C85.2718 60.955 85.3313 60.955 85.429 60.9761C85.5624 60.9802 85.6925 60.9352 85.7944 60.8496C85.9303 60.6709 86.0161 60.4596 86.043 60.2373C86.0699 60.015 86.0368 59.7895 85.9473 59.584C85.8646 59.3431 85.7281 59.1239 85.548 58.9428C85.4899 58.8651 85.4133 58.8028 85.3251 58.7616C85.2369 58.7204 85.1398 58.7015 85.0424 58.7066C84.9806 58.7124 84.9228 58.7397 84.8793 58.7837C84.8358 58.8277 84.8093 58.8855 84.8046 58.947C84.8046 59.0398 84.8343 59.0862 84.8046 59.0989C84.7748 59.1116 84.7281 59.0736 84.7068 58.9513C84.6971 58.8763 84.7136 58.8004 84.7536 58.7361C84.8081 58.6489 84.8951 58.5868 84.9957 58.5632C85.1189 58.5437 85.2451 58.5556 85.3625 58.5976C85.4798 58.6397 85.5846 58.7105 85.6669 58.8036C85.8749 59.0015 86.0323 59.2459 86.1257 59.5165C86.3211 60.0818 86.2277 60.7146 85.8666 60.9803C85.7998 61.0295 85.7229 61.0634 85.6413 61.0795C85.5598 61.0955 85.4757 61.0934 85.395 61.0731C85.3016 61.0183 85.2633 60.9635 85.2718 60.955Z" fill="#7A4A45"/>
<path d="M65.6916 55.1816C65.6259 54.8934 65.6473 54.5924 65.7531 54.3163C65.8589 54.0402 66.0444 53.8011 66.2863 53.6292C66.0632 53.4184 65.9191 53.1386 65.8776 52.8356C65.8361 52.5327 65.8997 52.2247 66.0579 51.9625C66.2162 51.7002 66.4597 51.4993 66.7483 51.3928C67.0369 51.2863 67.3534 51.2805 67.6457 51.3765C67.5695 51.1698 67.5439 50.948 67.571 50.7295C67.5981 50.511 67.6772 50.302 67.8017 50.1199C67.9262 49.9377 68.0926 49.7876 68.2871 49.6819C68.4815 49.5762 68.6985 49.5179 68.9202 49.5119C68.8045 49.2736 68.7737 49.0032 68.8329 48.7452C68.8921 48.4872 69.0377 48.2568 69.246 48.0917C69.4542 47.9265 69.7127 47.8365 69.9792 47.8362C70.2457 47.836 70.5044 47.9256 70.7129 48.0903C70.7744 47.7942 70.9022 47.5156 71.0868 47.2752C71.2714 47.0347 71.5081 46.8386 71.7794 46.7013C72.0507 46.564 72.3496 46.489 72.654 46.4819C72.9584 46.4748 73.2605 46.5358 73.5379 46.6603C74.0218 46.2539 74.639 46.0381 75.2725 46.0536C75.906 46.0692 76.5117 46.3151 76.9747 46.7446C77.4401 46.5924 77.9405 46.5809 78.4125 46.7116C78.8845 46.8422 79.3067 47.1092 79.6256 47.4787C79.9265 47.383 80.2475 47.3679 80.5561 47.4347C80.8648 47.5015 81.1503 47.648 81.3838 47.8593C81.6173 48.0707 81.7906 48.3394 81.8861 48.6384C81.9817 48.9374 81.9962 49.2562 81.9281 49.5626C82.1319 49.5895 82.3267 49.6626 82.4974 49.7764C82.6681 49.8902 82.8101 50.0414 82.9124 50.2185C83.0147 50.3956 83.0746 50.5937 83.0873 50.7974C83.1001 51.0012 83.0654 51.2051 82.9859 51.3934C83.2317 51.4128 83.4669 51.5007 83.6645 51.6471C83.8621 51.7934 84.0141 51.9922 84.1029 52.2206C84.1916 52.449 84.2137 52.6976 84.1664 52.9378C84.1191 53.1781 84.0044 53.4002 83.8355 53.5785C84.2604 53.4604 84.6469 53.9287 84.6852 54.3674C84.6659 54.8052 84.6233 55.2417 84.5577 55.6751C84.5577 56.0379 84.6554 56.3923 84.6724 56.755C84.686 57.0957 84.6247 57.4353 84.4926 57.75C84.3605 58.0647 84.1609 58.3471 83.9078 58.5774L84.014 58.6323C84.2306 58.9529 83.8398 59.3958 83.449 59.3916C83.0605 59.3357 82.6979 59.1652 82.4082 58.9022C82.0251 58.6751 81.6798 58.3905 81.3843 58.0586C81.2399 57.8884 81.1551 57.6762 81.1429 57.4539C81.1306 57.2317 81.1915 57.0116 81.3164 56.8268C81.0441 56.826 80.7769 56.7544 80.5413 56.6189C80.3057 56.4834 80.1101 56.2889 79.9739 56.0548C79.7057 55.5847 79.5258 55.0701 79.4429 54.5361L78.9331 52.2033C78.4239 52.3904 77.8728 52.4354 77.3396 52.3335C76.8064 52.2317 76.3114 51.9868 75.9084 51.6254C75.7779 51.8272 75.6056 51.999 75.4029 52.1295C75.2003 52.2599 74.972 52.346 74.7332 52.3819C74.4944 52.4178 74.2507 52.4028 74.0182 52.3378C73.7857 52.2728 73.5699 52.1594 73.385 52.0051C73.4088 52.5634 73.218 53.1097 72.8512 53.5335C72.4844 53.9573 71.969 54.2267 71.4096 54.2872C71.7537 54.8103 70.9466 55.7553 70.4453 56.1349C70.033 56.3715 69.5541 56.4678 69.0816 56.4091C69.0816 56.4091 68.3509 57.3709 67.7349 57.3794C67.1189 57.3878 66.1546 57.0082 66.2736 56.329C65.9912 55.9974 65.7918 55.6042 65.6916 55.1816Z" fill="#161B46"/>
<path d="M83.1304 51.3256C83.1235 51.4892 83.08 51.6491 83.003 51.7939C82.9574 51.8671 82.8953 51.9289 82.8216 51.9743C82.7478 52.0196 82.6645 52.0474 82.5782 52.0554C82.4725 52.0679 82.3653 52.0517 82.2681 52.0086C82.1709 51.9655 82.0872 51.8972 82.0259 51.8108L81.924 51.6589L81.8432 51.8234C81.7729 51.9496 81.6702 52.055 81.5457 52.1291C81.4211 52.2032 81.279 52.2432 81.1338 52.2453C80.9699 52.2378 80.8121 52.1809 80.6816 52.0822C80.551 51.9835 80.4539 51.8476 80.4031 51.6926L80.3564 51.5239L80.2332 51.6462C80.1592 51.7184 80.0715 51.7753 79.9753 51.8137C79.8791 51.8521 79.7761 51.8711 79.6724 51.8698C79.5051 51.8689 79.3427 51.8141 79.2094 51.7137C78.98 51.5408 78.929 51.3594 78.9035 51.3678C78.878 51.3763 78.9035 51.5787 79.1287 51.7897C79.2748 51.9265 79.4636 52.0099 79.6639 52.0259C79.7937 52.0346 79.9238 52.017 80.0465 51.9742C80.1692 51.9314 80.2818 51.8643 80.3776 51.777L80.2034 51.7306C80.2553 51.9233 80.3658 52.0954 80.5197 52.2235C80.6737 52.3516 80.8637 52.4295 81.0638 52.4466C81.2639 52.4636 81.4645 52.4191 81.6381 52.3189C81.8118 52.2187 81.9502 52.0678 82.0344 51.8867H81.8517C81.9364 52.0016 82.0516 52.0908 82.1843 52.1444C82.3171 52.1981 82.4623 52.214 82.6037 52.1904C82.7113 52.1705 82.8129 52.1263 82.9005 52.0612C82.9882 51.9961 83.0596 51.9119 83.1092 51.815C83.2706 51.5239 83.1432 51.3088 83.1304 51.3256Z" fill="#34405E"/>
<path d="M84.6339 53.781C84.6127 53.781 84.5702 53.8991 84.3875 54.0173C84.2676 54.0994 84.1254 54.1434 83.9797 54.1434C83.834 54.1434 83.6918 54.0994 83.5719 54.0173L83.4784 53.9413L83.4359 54.0552C83.3831 54.1821 83.2982 54.2933 83.1896 54.3782C83.081 54.4632 82.9523 54.519 82.8157 54.5403C82.6577 54.5573 82.4982 54.526 82.3585 54.4506C82.2189 54.3752 82.1057 54.2594 82.034 54.1185L81.9491 53.9413L81.8386 54.1016C81.8103 54.143 81.7759 54.1799 81.7367 54.2113C81.6484 54.2837 81.5397 54.327 81.4255 54.3353C81.3113 54.3436 81.1974 54.3165 81.0995 54.2577C81.0128 54.1985 80.944 54.1169 80.9006 54.0218C80.8572 53.9266 80.8407 53.8215 80.8531 53.7177L80.8828 53.5068L80.7001 53.6165C80.4905 53.7402 80.2406 53.778 80.0034 53.722C79.8143 53.68 79.6443 53.5778 79.5191 53.4309C79.4133 53.2915 79.3248 53.14 79.2557 52.9795C79.2457 53.0743 79.2556 53.1701 79.2849 53.2609C79.3142 53.3517 79.3621 53.4354 79.4257 53.5068C79.5549 53.6879 79.7421 53.8202 79.9567 53.8823C80.0973 53.9243 80.245 53.9378 80.391 53.9218C80.537 53.9059 80.6783 53.8609 80.8063 53.7894L80.6661 53.6924C80.6447 53.8348 80.664 53.9803 80.7218 54.1124C80.7796 54.2444 80.8737 54.3576 80.9932 54.4391C81.1283 54.5268 81.2879 54.5696 81.4491 54.5612C81.6102 54.5529 81.7645 54.4939 81.8896 54.3927C81.9457 54.3456 81.9956 54.2918 82.0383 54.2324H81.8429C81.9228 54.4044 82.0528 54.5487 82.216 54.6467C82.3792 54.7447 82.5683 54.792 82.7588 54.7825C82.9493 54.773 83.1326 54.7071 83.285 54.5932C83.4375 54.4794 83.5522 54.3229 83.6144 54.1438L83.4784 54.1818C83.5608 54.2413 83.6545 54.2836 83.7538 54.3061C83.8531 54.3285 83.956 54.3307 84.0562 54.3125C84.2128 54.2952 84.3606 54.2321 84.481 54.1311C84.6339 53.9329 84.6467 53.781 84.6339 53.781Z" fill="#34405E"/>
<path d="M69.2592 49.2848C69.3193 49.1701 69.3999 49.0671 69.4971 48.9811C69.5633 48.9264 69.6401 48.8858 69.7228 48.862C69.8055 48.8382 69.8923 48.8317 69.9777 48.8428C70.063 48.8539 70.1452 48.8824 70.2189 48.9265C70.2927 48.9706 70.3564 49.0294 70.4062 49.0992L70.5082 49.2384L70.5337 49.0654C70.5638 48.8846 70.6396 48.7143 70.754 48.5704C70.8684 48.4265 71.0177 48.3138 71.1879 48.2428C71.3956 48.1631 71.6234 48.1507 71.8387 48.2075C72.0539 48.2644 72.2455 48.3875 72.3859 48.5592L72.5133 48.7153L72.5643 48.5212C72.6208 48.3331 72.7187 48.1599 72.851 48.0139C72.9832 47.868 73.1465 47.7531 73.329 47.6776C73.5262 47.5998 73.7398 47.5722 73.9505 47.5973C74.1612 47.6223 74.3623 47.6992 74.5354 47.821C74.6791 47.9205 74.8006 48.0483 74.8923 48.1964L74.956 48.2977L75.0537 48.2259C75.286 48.0615 75.5671 47.9792 75.8521 47.9922C76.1371 48.0052 76.4094 48.1127 76.6255 48.2977C76.8065 48.4694 76.9342 48.6889 76.9937 48.9303C77.0531 49.1717 77.0418 49.425 76.9611 49.6602L76.9017 49.8163L77.0631 49.7783C77.4225 49.7027 77.7974 49.7693 78.1082 49.964C78.3468 50.1152 78.5324 50.3363 78.6392 50.5967C78.7251 50.8277 78.7697 51.0718 78.7709 51.3181C78.7709 51.3181 78.8049 51.2548 78.8134 51.124C78.8302 50.9323 78.8041 50.7393 78.7369 50.5588C78.6367 50.2685 78.4444 50.0183 78.1889 49.8458C78.0206 49.731 77.8312 49.6502 77.6314 49.6082C77.4317 49.5662 77.2256 49.5638 77.0249 49.6012L77.1311 49.7235C77.2514 49.4324 77.272 49.1101 77.1897 48.8063C77.1073 48.5024 76.9267 48.2339 76.6755 48.042C76.4244 47.8502 76.1166 47.7457 75.7998 47.7446C75.4829 47.7435 75.1745 47.846 74.922 48.0361L75.0835 48.0657C74.9733 47.8969 74.8285 47.7532 74.6586 47.6438C74.4552 47.4999 74.2185 47.4094 73.9705 47.3807C73.7224 47.3519 73.4711 47.3858 73.2397 47.4793C73.0271 47.5688 72.8376 47.7048 72.6854 47.8772C72.5331 48.0496 72.422 48.2539 72.3604 48.4748L72.543 48.4369C72.3927 48.2514 72.1905 48.1142 71.9619 48.0426C71.7332 47.971 71.4884 47.9681 71.2581 48.0344C71.0278 48.1007 70.8224 48.2332 70.6678 48.4152C70.5132 48.5971 70.4163 48.8204 70.3892 49.057L70.5167 49.0232C70.4439 48.9318 70.3508 48.8583 70.2447 48.8085C70.1386 48.7588 70.0223 48.7341 69.9049 48.7364C69.7319 48.7428 69.5672 48.8118 69.4419 48.9304C69.365 49.0012 69.3067 49.0896 69.2719 49.1878C69.2549 49.2468 69.2549 49.2848 69.2592 49.2848Z" fill="#34405E"/>
<path d="M77.8447 65.0206C77.7378 65.0102 77.7193 65.7353 77.087 66.2307C76.4547 66.7261 75.6822 66.6246 75.6701 66.7253C75.6581 66.8261 75.8427 66.8708 76.1685 66.8902C76.5939 66.9076 77.011 66.7751 77.3464 66.516C77.6695 66.2678 77.8821 65.9035 77.9392 65.5005C77.9804 65.1866 77.8977 65.0163 77.8447 65.0206Z" fill="#161B46"/>
<path d="M73.2444 75.8682L69.8799 85.2795L70.6573 95.5726L72.7814 113.353C72.7814 113.353 80.6703 110.708 81.0271 110.974C81.384 111.24 77.5351 92.9487 77.5351 92.9487L80.3177 78.066L80.2285 75.8745L78.229 74.2885L73.2444 75.8682Z" fill="#00ACE9"/>
<path d="M73.2443 75.8687L69.5441 84.3055L61.8974 87.2837L53.9023 89.7431L55.0239 95.4549C55.0793 95.7322 55.1915 95.9953 55.3534 96.2278C55.5153 96.4604 55.7236 96.6575 55.9652 96.8069C56.2069 96.9564 56.477 97.055 56.7586 97.0968C57.0402 97.1385 57.3274 97.1223 57.6025 97.0494L64.3699 95.2439L70.6742 94.9571L73.9538 87.3892L73.2443 75.8687Z" fill="#00ACE9"/>
<path d="M56.5158 87.3928L57.0765 86.7009C57.6283 86.6961 58.1742 86.8143 58.6739 87.0469C59.4061 87.6444 59.9429 88.4447 60.2159 89.3459C60.2774 89.9941 60.2774 90.6466 60.2159 91.2949L56.3926 87.3928" fill="#A2675F"/>
<path d="M49.0596 83.2943C49.0596 83.4082 56.2815 91.0056 56.2815 91.0056L57.6409 92.3387H61.974L53.5626 83.058L49.9347 82.4421L49.0596 83.2943Z" fill="#161B46"/>
<path d="M78.3504 100.171C78.286 100.089 78.2305 99.9994 78.1847 99.9054L77.7599 99.1208C77.3945 98.4374 76.8763 97.4334 76.273 96.1678C75.5555 94.7053 74.9173 93.2056 74.3613 91.6752C74.2025 91.2292 74.0706 90.7742 73.9663 90.3126C73.9123 90.0706 73.874 89.8255 73.8516 89.5786C73.8516 89.3339 73.8516 89.0851 73.8516 88.8362C73.8516 87.8364 73.8516 86.8029 73.9025 85.744C73.9535 84.4026 74.0215 83.1075 74.1022 81.8757V81.8124L74.1617 81.7871L76.4005 80.8084L76.426 81.0025L74.7267 80.7789H74.5822L74.6545 80.6566C75.759 78.7752 76.6766 77.2017 77.3351 76.0753L78.0955 74.8098L78.3037 74.4808C78.3248 74.4403 78.352 74.4034 78.3844 74.3711C78.3714 74.4141 78.3528 74.4552 78.3291 74.4934L78.1465 74.8393L77.4285 76.1386L74.8201 80.7578L74.7479 80.6186L76.4472 80.8295L76.8083 80.8717L76.4769 81.0194L74.2466 82.0065L74.3104 81.9137C74.2339 83.1455 74.1659 84.4448 74.1149 85.7778C74.0767 86.8324 74.0512 87.8617 74.0597 88.8573C74.0597 89.1061 74.0597 89.3508 74.0597 89.5955C74.0781 89.8311 74.1136 90.0652 74.1659 90.2957C74.2663 90.7496 74.3926 91.1975 74.544 91.6372C75.143 93.3626 75.8185 94.8686 76.409 96.1299C76.9995 97.3912 77.4838 98.3952 77.8279 99.0828L78.2187 99.8843C78.2696 99.9766 78.3136 100.072 78.3504 100.171Z" fill="#161B46"/>
<path d="M53.3208 87.3929C53.3208 87.3929 52.2248 88.1776 52.2545 88.6247C52.2548 88.8216 52.3033 89.0155 52.3958 89.1897C52.4883 89.3638 52.622 89.513 52.7855 89.6245C53.0404 89.7088 53.7966 90.0969 53.7966 90.0969C53.7966 90.0969 53.1211 90.7381 53.3208 91.4089C53.3577 91.5881 53.4344 91.7568 53.5454 91.9028C53.6564 92.0487 53.7988 92.1682 53.9623 92.2525C53.9778 92.7191 54.0726 93.1798 54.2426 93.6151C54.5007 93.9628 54.8816 94.2009 55.3089 94.2816C55.5472 94.7619 55.8318 95.2182 56.1586 95.6441C56.4868 95.9466 56.895 96.1499 57.3353 96.2305C57.3353 96.2305 58.3464 96.3444 58.8774 95.9816C59.238 95.8015 59.5386 95.5217 59.7428 95.1759C59.9471 94.8302 60.0463 94.4332 60.0287 94.0327C60.0287 94.0327 62.4416 92.8347 62.4671 92.223C62.4926 91.6113 62.2165 91.4173 62.2165 91.4173L61.01 91.6366C61.01 91.6366 60.8401 90.9997 60.479 90.9406C60.1179 90.8815 55.7125 91.9446 55.7125 91.9446C55.7125 91.9446 58.7117 91.4721 58.7967 90.8858C58.8817 90.2994 58.9071 89.8016 58.4568 89.6877C58.0065 89.5738 54.8162 89.9198 54.8162 89.9198L54.6462 89.3545C54.6462 89.3545 55.4959 89.384 55.4959 88.6331C55.4959 87.8823 55.0201 87.7135 55.0201 87.7135L53.3208 87.3929Z" fill="#A2675F"/>
<path d="M78.3521 74.3634L78.7174 77.2699L76.4531 89.9126L78.7514 100.826L90.6633 104.323L95.349 102.315L93.7475 71.6804L89.4908 68.7106L87.8552 67.618L81.7209 76.8396L78.3521 74.3634Z" fill="#E8E8ED"/>
<path d="M89.1623 68.4779L92.136 69.7941L102.68 71.203L108.368 100.909L109.082 104.322L119.987 120.525C120.105 120.701 120.186 120.899 120.224 121.107C120.262 121.315 120.256 121.529 120.207 121.735C120.158 121.941 120.067 122.134 119.939 122.304C119.811 122.473 119.65 122.614 119.465 122.719L110.543 127.781C110.212 127.95 109.83 127.991 109.469 127.898C109.109 127.804 108.796 127.583 108.589 127.275L97.2339 110.295L91.6093 103.145C91.6093 103.145 88.2405 93.0209 87.7859 88.7138C87.432 84.938 87.432 81.1378 87.7859 77.362C88.0493 74.7845 89.1623 68.4779 89.1623 68.4779Z" fill="#00ACE9"/>
<path d="M102.664 71.2033C103.35 71.5611 103.946 72.0683 104.408 72.687C104.869 73.3057 105.183 74.0199 105.327 74.7763C105.999 78.3029 108.021 84.4534 108.781 91.0216C109.843 100.209 107.354 103.044 106.181 104.63C105.009 106.216 97.736 109.583 97.736 109.583L92.2686 102.352L98.3222 97.4252L97.7912 84.6644C97.7912 84.6644 95.6671 81.7621 96.7291 77.4508C97.7912 73.1396 100.892 70.9417 102.677 71.2033H102.664Z" fill="#00ACE9"/>
<g opacity="0.3">
<path opacity="0.3" d="M108.304 100.669C107.475 102.896 106.528 104.778 104.599 105.837C102.543 106.967 99.6843 108.562 97.7344 109.583L99.1618 111.785C101.401 111.443 105.534 108.853 106.876 107.043C108.176 105.187 108.688 102.897 108.304 100.669Z" fill="#0E1339"/>
</g>
<path d="M97.6584 85.3304C97.6766 85.3925 97.6893 85.456 97.6967 85.5202C97.7222 85.6595 97.7519 85.8451 97.7944 86.0813C97.8708 86.5917 97.9855 87.3173 98.13 88.2496C98.4189 90.1479 98.8309 92.8899 99.3365 96.2646V96.3068L99.3025 96.3363L92.3397 102.428V102.297L97.8114 109.523L97.6754 109.494C99.4936 108.583 101.376 107.595 103.236 106.503C103.767 106.186 104.29 105.87 104.795 105.528C105.298 105.207 105.768 104.84 106.202 104.432C106.939 103.523 107.523 102.501 107.931 101.407C108.681 99.316 109.028 97.1036 108.954 94.8852C108.904 92.8731 108.709 90.8671 108.372 88.8824C108.079 87.0136 107.739 85.284 107.404 83.7105C106.737 80.5594 106.091 78.0325 105.641 76.2903C105.411 75.4466 105.216 74.7548 105.11 74.2865C105.05 74.0629 105.004 73.89 104.974 73.7634C104.953 73.7048 104.938 73.6439 104.931 73.582C104.931 73.582 104.957 73.6411 104.995 73.755C105.033 73.8689 105.084 74.0545 105.152 74.2739C105.288 74.7252 105.484 75.4002 105.726 76.2692C106.202 78.0072 106.868 80.5298 107.557 83.6768C107.905 85.2503 108.253 86.984 108.555 88.857C108.9 90.8481 109.101 92.8613 109.154 94.881C109.236 97.1271 108.89 99.3684 108.134 101.487C107.717 102.606 107.119 103.651 106.363 104.579C105.92 105.002 105.436 105.381 104.919 105.71C104.409 106.051 103.882 106.372 103.351 106.688C101.478 107.789 99.5999 108.777 97.7731 109.684L97.6924 109.726L97.6372 109.654L92.1783 102.415L92.123 102.339L92.191 102.28L99.1793 96.214L99.1538 96.2857C98.6737 92.911 98.3042 90.1774 98.0195 88.2707C97.8921 87.3384 97.7901 86.5833 97.7222 86.0982C97.6924 85.8577 97.6669 85.6763 97.6499 85.5329C97.6486 85.4653 97.6514 85.3977 97.6584 85.3304Z" fill="#161B46"/>
<path d="M89.94 96.2443C89.9371 96.1452 89.9457 96.0462 89.9655 95.949C89.991 95.7381 90.0292 95.4597 90.0717 95.1053C90.1821 94.3545 90.3308 93.3125 90.5177 92.0385C90.8873 89.4484 91.4693 85.8796 92.0343 81.9142C92.2977 79.9991 92.5484 78.1767 92.7735 76.5146L92.8415 76.6201L91.0403 75.9367L90.8618 75.8692L91.019 75.768L92.8288 74.6037L92.7948 74.6838C92.5781 73.1947 92.4039 71.9756 92.2765 71.0982C92.2255 70.6763 92.1788 70.3684 92.149 70.1195C92.1267 70.0056 92.1167 69.8896 92.1193 69.7736C92.1545 69.8837 92.18 69.9966 92.1958 70.111C92.2383 70.3599 92.2977 70.6805 92.37 71.0855C92.5144 71.9587 92.714 73.1736 92.9562 74.6585V74.7134L92.9137 74.7429L91.1167 75.9241L91.0955 75.7595L92.9052 76.4303L92.9817 76.4598V76.54C92.7608 78.202 92.5144 80.0286 92.2552 81.9438C91.6945 85.8965 91.087 89.4653 90.6749 92.0681C90.4625 93.3336 90.2883 94.3798 90.1609 95.1264L90.0122 95.9701C89.9969 96.0636 89.9727 96.1554 89.94 96.2443Z" fill="#161B46"/>
<path d="M101.057 71.604C101.083 71.6378 100.543 72.0258 99.817 72.7556C99.3952 73.1952 99.0115 73.6694 98.67 74.173C97.8245 75.4086 97.2459 76.8047 96.9707 78.2733C96.8598 78.8705 96.8001 79.4759 96.7923 80.0831C96.7923 81.125 96.907 81.7704 96.8645 81.7704C96.8073 81.6271 96.7701 81.4766 96.754 81.3233C96.7178 81.1492 96.6922 80.9731 96.6776 80.796C96.6512 80.5592 96.637 80.3213 96.6351 80.0831C96.6189 79.4644 96.663 78.8456 96.7668 78.2354C96.9037 77.4897 97.1143 76.7592 97.3955 76.0544C97.6916 75.3549 98.0573 74.6865 98.4873 74.0591C98.8431 73.5509 99.2471 73.0777 99.6938 72.646C99.8626 72.4796 100.04 72.3219 100.225 72.1735C100.36 72.056 100.502 71.9461 100.65 71.8445C100.774 71.7468 100.911 71.666 101.057 71.604Z" fill="#161B46"/>
<path d="M70.611 94.9652C70.5515 94.9652 70.3561 92.9234 70.1862 90.3923C70.0163 87.8613 69.91 85.8111 69.9738 85.8026C70.0375 85.7942 70.2287 87.8486 70.3986 90.3755C70.5685 92.9023 70.6705 94.961 70.611 94.9652Z" fill="#161B46"/>
<path d="M106.525 113.59L108.161 116.906L115.735 112.092L113.114 109.144L106.525 113.59Z" fill="#00ACE9"/>
<path d="M106.525 113.596C106.669 113.472 106.821 113.357 106.98 113.254L108.314 112.322L113.055 109.065L113.131 109.015L113.191 109.082L115.82 112.035L115.905 112.132L115.795 112.199L115.464 112.41L108.203 116.971L108.127 117.017L108.093 116.937L106.92 114.473C106.797 114.203 106.695 113.984 106.619 113.811C106.581 113.739 106.55 113.664 106.525 113.587C106.579 113.66 106.624 113.738 106.661 113.819C106.751 113.992 106.865 114.212 107.01 114.477L108.233 116.869L108.118 116.84L115.34 112.199L115.672 111.989V112.153C114.746 111.111 113.862 110.116 113.055 109.2H113.191L108.446 112.343L107.061 113.241L106.683 113.482L106.525 113.596Z" fill="#161B46"/>
<g opacity="0.3">
<path opacity="0.3" d="M106.579 113.738C106.613 113.801 108.278 118.829 108.278 118.829L115.343 113.852L114.736 112.751L108.159 116.927L106.579 113.738Z" fill="#0E1339"/>
</g>
<g opacity="0.3">
<path opacity="0.3" d="M92.3308 71.1821L93.6052 75.2951L92.3308 75.8688L94.0088 76.6872C94.0088 76.6872 91.3664 91.03 91.0351 92.3377C90.7037 93.6454 90.2959 94.0672 90.2959 94.0672L92.8746 76.548L91.0733 75.8688L92.8746 74.6919L92.3308 71.1821Z" fill="#0E1339"/>
</g>
<path d="M64.3819 93.5963C64.3485 92.6096 64.1872 91.6313 63.9019 90.6855C63.5466 89.7655 63.0756 88.8938 62.5 88.0912C62.7419 88.264 62.9493 88.48 63.1117 88.7282C63.9765 89.8835 64.4535 91.2795 64.4754 92.7188C64.4976 93.0145 64.4659 93.3117 64.3819 93.5963Z" fill="#161B46"/>
<g opacity="0.3">
<path opacity="0.3" d="M69.9097 85.397C68.6353 88.5186 69.1068 91.9398 70.581 94.9644C70.3516 91.4842 70.2156 88.7717 69.9097 85.397Z" fill="#0E1339"/>
</g>
<path d="M88.2412 71.0774C88.1838 71.2258 88.1097 71.3673 88.0203 71.4992L87.3618 72.5918C86.8096 73.5199 86.0874 74.8107 85.3525 76.283C84.8597 77.2743 84.4391 78.2235 84.078 79.025L84.0313 79.1431L83.9336 79.0671C83.372 78.6221 82.8439 78.1371 82.3532 77.616C82.1565 77.4287 81.9825 77.2192 81.835 76.9917C82.0474 77.1602 82.2475 77.3435 82.434 77.5401C82.948 78.0256 83.4868 78.4846 84.0483 78.9153L83.9038 78.9532C84.2309 78.1391 84.643 77.1857 85.1358 76.1859C85.7583 74.9243 86.4504 73.6977 87.2089 72.5117C87.502 72.0561 87.7527 71.6975 87.9311 71.4528C88.0186 71.3156 88.1228 71.1895 88.2412 71.0774Z" fill="#161B46"/>
<path d="M81.2646 76.8939C81.0975 77.6304 80.8599 78.3494 80.5551 79.0411L80.4999 79.1888L80.381 79.0875L80.3257 79.0369C79.7078 78.5487 79.1765 77.9612 78.7539 77.2989C78.8006 77.2567 79.5016 78.0329 80.4532 78.8724L80.5084 78.9188L80.3342 78.9652C80.5769 78.2468 80.8884 77.5532 81.2646 76.8939Z" fill="#161B46"/>
<path d="M82.514 98.4786C82.4904 98.4137 82.4788 98.3451 82.4801 98.2761C82.4801 98.1116 82.4461 97.9175 82.4248 97.6813C82.3908 97.1287 82.3399 96.3904 82.2804 95.4919C82.1657 93.6442 82.034 91.0921 81.9193 88.2699C81.8046 85.4478 81.7451 82.8914 81.7451 81.0395C81.7451 80.1115 81.7451 79.3522 81.7749 78.8459C81.7749 78.6097 81.7749 78.4241 81.8046 78.2511C81.8045 78.1815 81.813 78.112 81.8301 78.0444C81.8417 78.1128 81.8417 78.1827 81.8301 78.2511C81.8301 78.4114 81.8301 78.6097 81.8301 78.8459C81.8301 79.3986 81.8556 80.1368 81.8726 81.0353C81.9108 82.8872 82 85.4394 82.1105 88.2615C82.2209 91.0837 82.3271 93.6063 82.4036 95.4835C82.4376 96.3862 82.4631 97.1245 82.4843 97.6771C82.4843 97.9133 82.4843 98.0989 82.4843 98.2719C82.5007 98.3397 82.5106 98.4089 82.514 98.4786Z" fill="#161B46"/>
<path d="M57.6412 155.45L58.7415 165.747C58.7415 165.747 48.5459 170.32 48.5841 172.24L68.7714 170.843L67.7221 154.72L57.6412 155.45Z" fill="#00ACE9"/>
<path d="M64.9218 164.448C65.1179 164.497 65.2897 164.614 65.4065 164.778C65.5233 164.942 65.5774 165.142 65.5591 165.342C65.5207 165.54 65.4073 165.717 65.2421 165.834C65.077 165.952 64.8726 166.002 64.6712 165.975C64.4591 165.931 64.272 165.808 64.148 165.632C64.024 165.455 63.9726 165.239 64.0042 165.026C64.0646 164.823 64.2021 164.651 64.3877 164.547C64.5732 164.443 64.7922 164.415 64.9983 164.469" fill="#E8E8ED"/>
<path d="M68.8185 171.261L68.7165 169.7L49.3108 171.168C49.3108 171.168 48.4357 171.619 48.5844 172.239L68.8185 171.261Z" fill="#D4D9F5"/>
<path d="M58.4061 165.672C58.4061 165.769 58.9116 165.777 59.4214 166.06C59.9312 166.342 60.2158 166.735 60.3008 166.688C60.3857 166.642 60.2031 166.089 59.5828 165.76C58.9626 165.431 58.3806 165.583 58.4061 165.672Z" fill="#161B46"/>
<path d="M56.3496 166.687C56.3496 166.78 56.7745 166.919 57.1355 167.312C57.4966 167.704 57.6283 168.13 57.726 168.122C57.8238 168.113 57.8492 167.552 57.3862 167.075C56.9231 166.599 56.3454 166.59 56.3496 166.687Z" fill="#161B46"/>
<path d="M55.3261 169.279C55.4153 169.279 55.5173 168.794 55.2284 168.275C54.9395 167.756 54.4595 167.575 54.4255 167.659C54.3915 167.743 54.6931 168.013 54.9268 168.44C55.1604 168.866 55.2241 169.279 55.3261 169.279Z" fill="#161B46"/>
<path d="M58.4187 163.296C58.4654 163.38 58.9073 163.215 59.468 163.211C60.0288 163.207 60.4748 163.355 60.5216 163.27C60.5683 163.186 60.1222 162.848 59.4638 162.869C58.8053 162.89 58.3635 163.22 58.4187 163.296Z" fill="#161B46"/>
<path d="M54.0467 113.886L44.7007 118.476C44.7007 118.476 36.8586 110.579 35.0488 111.263L43.3583 129.583L58.2269 123.024L54.0467 113.886Z" fill="#00ACE9"/>
<path d="M48.0648 123.781C48.0915 123.981 48.0424 124.185 47.9271 124.351C47.8118 124.518 47.6384 124.636 47.4404 124.684C47.2398 124.718 47.0338 124.673 46.8652 124.56C46.6966 124.447 46.5785 124.274 46.5355 124.076C46.5038 123.863 46.5553 123.647 46.6792 123.47C46.8032 123.294 46.9904 123.171 47.2025 123.127C47.4114 123.119 47.6155 123.191 47.7732 123.327C47.931 123.464 48.0307 123.654 48.0521 123.861" fill="#E8E8ED"/>
<path d="M42.9763 129.772L44.4165 129.135L36.3067 111.565C36.3067 111.565 35.5802 110.911 35.0322 111.261L42.9763 129.772Z" fill="#D4D9F5"/>
<path d="M44.6549 118.138C44.5657 118.18 44.7271 118.644 44.6549 119.214C44.5826 119.783 44.2938 120.188 44.366 120.256C44.4382 120.323 44.9013 119.956 44.9947 119.264C45.0882 118.572 44.7313 118.079 44.6549 118.138Z" fill="#161B46"/>
<path d="M42.9814 116.572C42.8879 116.572 42.9092 117.049 42.667 117.521C42.4249 117.994 42.0595 118.264 42.102 118.365C42.1445 118.466 42.684 118.28 42.9729 117.686C43.2618 117.091 43.0706 116.547 42.9814 116.572Z" fill="#161B46"/>
<path d="M40.1722 116.52C40.1722 116.608 40.6947 116.52 41.0855 116.098C41.4764 115.676 41.4806 115.14 41.3872 115.136C41.2937 115.132 41.1493 115.511 40.8221 115.874C40.495 116.237 40.1382 116.427 40.1722 116.52Z" fill="#161B46"/>
<path d="M46.902 117.323C46.8383 117.399 47.1484 117.745 47.3269 118.277C47.5053 118.808 47.5393 119.264 47.637 119.272C47.7347 119.281 47.8876 118.762 47.637 118.154C47.3863 117.547 46.953 117.247 46.902 117.323Z" fill="#161B46"/>
<path d="M58.6096 119.723C57.5989 119.973 56.6819 120.506 55.9679 121.26C55.2539 122.013 54.7729 122.954 54.5823 123.971C53.8984 127.544 56.3751 163.481 56.3751 163.481L69.0771 162.468L68.2997 138.254L67.9853 133.369L69.0771 132.526L91.4013 128.624L88.0028 119.461L84.2686 113.007L67.1697 117.225L58.6096 119.723Z" fill="#161B46"/>
<path d="M100.633 113.67C100.633 113.67 91.3975 100.412 88.6957 98.4839C86.4696 96.8936 83.1221 96.8978 81.049 97.8216C78.9758 98.7455 46.6387 114.674 46.6387 114.674L51.3839 126.486L82.1662 115.893L86.7543 123.065L91.0279 128.684L103.025 128.777C103.59 128.777 106.168 123.715 106.168 123.715L100.633 113.67Z" fill="#161B46"/>
<path d="M54.4638 126.744C54.4574 126.703 54.4574 126.662 54.4638 126.622C54.4638 126.525 54.4638 126.406 54.4638 126.259C54.4638 126.111 54.4638 125.896 54.4638 125.664C54.4638 125.432 54.519 125.162 54.553 124.858C54.587 124.555 54.6847 124.23 54.7526 123.863C54.7909 123.681 54.8673 123.5 54.9268 123.31C54.9885 123.109 55.0652 122.913 55.1562 122.724C55.5495 121.809 56.1762 121.012 56.9744 120.412C57.4395 120.061 57.9691 119.803 58.5335 119.653L60.373 119.341L64.4215 118.67L73.7038 117.143L82.1322 115.772H82.2001L82.2384 115.831C84.7066 119.657 86.7117 123.002 88.3982 125.162C89.2139 126.255 89.8681 127.124 90.3269 127.731C90.5436 128.022 90.7135 128.25 90.8409 128.414L90.9684 128.592L91.0109 128.655C91.0109 128.655 91.0109 128.655 90.9557 128.604L90.8112 128.435L90.2717 127.773C89.8044 127.191 89.1247 126.335 88.2963 125.242C86.5758 123.082 84.5409 119.758 82.0642 115.962L82.1662 116.008L73.7378 117.392L64.4555 118.902L60.4027 119.556L58.5718 119.851C58.0278 119.993 57.516 120.236 57.0637 120.568C56.2824 121.15 55.665 121.921 55.2709 122.808C55.1767 122.992 55.0986 123.184 55.0373 123.382C54.9662 123.56 54.9052 123.741 54.8546 123.926C54.7656 124.248 54.6947 124.575 54.6422 124.905L54.5275 125.702C54.5275 125.93 54.502 126.124 54.4935 126.293C54.485 126.461 54.4935 126.562 54.468 126.655C54.4689 126.685 54.4675 126.715 54.4638 126.744Z" fill="#34405E"/>
<path d="M86.5707 107.689C86.6027 107.813 86.6184 107.94 86.6175 108.068C86.6458 108.415 86.6458 108.763 86.6175 109.11C86.5695 109.627 86.4742 110.138 86.3328 110.637C86.1535 111.247 85.9174 111.839 85.6276 112.405C85.323 112.963 84.9675 113.493 84.5656 113.987C84.2301 114.385 83.8605 114.753 83.4611 115.088C83.1952 115.313 82.911 115.516 82.6114 115.695C82.5059 115.77 82.39 115.83 82.2673 115.872C82.2461 115.839 82.6921 115.552 83.3591 114.97C83.7361 114.628 84.0855 114.257 84.4042 113.86C84.7913 113.372 85.1353 112.851 85.4322 112.304C85.7161 111.749 85.952 111.172 86.1374 110.578C86.2856 110.093 86.3935 109.596 86.4603 109.093C86.558 108.237 86.5283 107.689 86.5707 107.689Z" fill="#34405E"/>
<path d="M168.433 67.2117L169.316 65.2396L170.5 67.0382C171.446 68.4848 172.787 69.6292 174.365 70.3355L176.337 71.219L174.538 72.4022C173.088 73.3435 171.942 74.6865 171.241 76.2675L170.358 78.2396L169.174 76.4411C168.226 74.9904 166.878 73.8452 165.293 73.1438L163.337 72.2603L165.135 71.077C166.582 70.1309 167.727 68.7893 168.433 67.2117Z" fill="#E6E8F3"/>
<path d="M164.865 45.6049L165.476 44.2396L166.296 45.4848C166.951 46.4863 167.879 47.2786 168.972 47.7675L170.337 48.3792L169.092 49.1984C168.087 49.85 167.294 50.7798 166.809 51.8743L166.197 53.2396L165.378 51.9945C164.722 50.9901 163.788 50.1973 162.691 49.7117L161.337 49.1001L162.582 48.2809C163.584 47.6259 164.376 46.6971 164.865 45.6049Z" fill="#E6E8F3"/>
</svg>
