<svg width="98" height="81" viewBox="0 0 98 81" fill="none" xmlns="http://www.w3.org/2000/svg">
<path d="M66.4167 80.3207L92.1727 80.3057C95.271 80.3057 97.7808 77.6737 97.7808 74.4081L97.7676 6.54956C97.7676 3.2934 95.2522 0.653883 92.1539 0.655763L66.3979 0.670802C63.2997 0.670802 60.7899 3.31408 60.7899 6.56836L60.803 74.4363C60.803 77.6831 63.3166 80.3226 66.4167 80.3207Z" fill="#161B46"/>
<path d="M66.4242 3.07134H71.4175C72.0887 3.07134 72.632 3.6673 72.632 4.40238V5.34802C72.632 6.0831 73.1753 6.67906 73.8446 6.67906H83.5774C84.2466 6.67906 84.79 6.08122 84.79 5.34614V4.3911C84.79 3.65602 85.3333 3.06006 86.0026 3.06006H87.7585H92.1295C94.3009 3.06006 96.0606 4.9081 96.0606 7.19606L96.0737 73.4303C96.0737 75.7108 94.3159 77.5663 92.1464 77.5663L66.4412 77.5833C64.2716 77.5833 62.5101 75.7352 62.5101 73.4473L62.4969 7.21298C62.4969 4.92126 64.2547 3.07322 66.4242 3.07134Z" fill="white"/>
<path d="M90.6312 72.3253V74.2692C90.6294 74.3081 90.6385 74.3468 90.6572 74.3809C90.676 74.415 90.7038 74.4433 90.7375 74.4627C90.7713 74.4821 90.8097 74.4919 90.8487 74.4909C90.8876 74.4899 90.9255 74.4783 90.9583 74.4572L92.4867 73.4853C92.517 73.4659 92.5419 73.4392 92.5592 73.4077C92.5764 73.3761 92.5854 73.3407 92.5854 73.3048C92.5854 73.2688 92.5764 73.2335 92.5592 73.2019C92.5419 73.1704 92.517 73.1437 92.4867 73.1243L90.9639 72.1448C90.9316 72.1226 90.8938 72.1098 90.8547 72.1077C90.8156 72.1057 90.7767 72.1144 90.7422 72.1331C90.7078 72.1518 90.6792 72.1796 90.6596 72.2136C90.64 72.2475 90.6302 72.2861 90.6312 72.3253Z" fill="#E6E8F3"/>
<path d="M78.0747 73.2784C78.0751 73.5434 78.154 73.8024 78.3016 74.0225C78.4491 74.2427 78.6586 74.4143 78.9035 74.5154C79.1485 74.6166 79.4179 74.6429 79.6778 74.5909C79.9377 74.539 80.1764 74.4112 80.3637 74.2236C80.551 74.0361 80.6784 73.7973 80.73 73.5373C80.7816 73.2773 80.7549 73.0079 80.6534 72.7631C80.5519 72.5183 80.3801 72.309 80.1597 72.1618C79.9393 72.0146 79.6802 71.936 79.4152 71.936C79.0595 71.9365 78.7186 72.0782 78.4672 72.3299C78.2159 72.5815 78.0747 72.9227 78.0747 73.2784Z" fill="#E6E8F3"/>
<path d="M66.3359 72.1108H68.105C68.2991 72.1108 68.4565 72.2682 68.4565 72.4624V74.2371C68.4565 74.4313 68.2991 74.5887 68.105 74.5887H66.3359C66.1417 74.5887 65.9843 74.4313 65.9843 74.2371V72.4624C65.9843 72.2682 66.1417 72.1108 66.3359 72.1108Z" fill="#E6E8F3"/>
<path d="M57.8213 30.4197C57.8213 30.4197 50.9311 32.2357 48.7522 39.5019L51.6719 40.801C51.6719 40.801 52.343 35.7457 59.1693 33.5442C62.8635 32.3523 67.7553 34.033 69.1089 35.5746L72.397 34.1552C70.1993 31.7357 64.7755 28.5246 57.8213 30.4197Z" fill="#B75FDC"/>
<path d="M46.8778 37.6709L54.1609 40.0867L48.5717 42.8879L46.8778 37.6709Z" fill="#B75FDC"/>
<path d="M86.73 26.9909H84.662L85.0644 26.6845C84.7598 27.6871 84.4546 28.6898 84.1488 29.6925L82.6993 34.4677C82.5884 34.8437 82.4756 35.2009 82.3647 35.5675C82.3388 35.6546 82.2859 35.7312 82.2135 35.7863C82.1412 35.8414 82.0533 35.8721 81.9624 35.8739L76.0479 35.857H75.2C74.6642 35.857 74.6623 35.0223 75.2 35.0241L81.1145 35.0392H81.9624L81.56 35.3437L82.4737 32.3357L83.9251 27.5624L84.2597 26.4607C84.2856 26.3736 84.3386 26.2969 84.4109 26.2419C84.4832 26.1868 84.5712 26.1561 84.662 26.1543H86.73C87.2677 26.1543 87.2677 26.989 86.73 26.989V26.9909Z" fill="#161B46"/>
<path d="M73.8821 28.053C74.2719 29.7977 74.6617 31.5423 75.0515 33.2869C75.106 33.537 75.1624 33.7889 75.2188 34.0389L74.9161 33.8096L77.4485 33.7851L81.5093 33.7457L82.438 33.7363L82.1372 33.9656C82.6786 32.2385 83.2213 30.5108 83.7653 28.7825L83.9946 28.053L84.2973 28.4478H73.5813C73.5025 28.4417 73.4289 28.4061 73.3752 28.348C73.3215 28.29 73.2916 28.2139 73.2916 28.1348C73.2916 28.0557 73.3215 27.9796 73.3752 27.9216C73.4289 27.8635 73.5025 27.8279 73.5813 27.8218H84.2973C84.3453 27.8225 84.3925 27.8341 84.4353 27.8557C84.4781 27.8774 84.5155 27.9085 84.5445 27.9468C84.5735 27.985 84.5934 28.0293 84.6027 28.0764C84.612 28.1235 84.6104 28.1721 84.5981 28.2185C84.0554 29.9455 83.5127 31.6733 82.97 33.4016C82.893 33.6441 82.8159 33.8885 82.7407 34.1311C82.7209 34.1965 82.6811 34.2541 82.6267 34.2956C82.5724 34.3371 82.5063 34.3605 82.438 34.3623L79.9056 34.3867L75.8448 34.4262L74.9161 34.4356C74.8481 34.4344 74.7822 34.4115 74.7281 34.3702C74.674 34.329 74.6345 34.2715 74.6153 34.2063L73.4478 28.9705L73.2786 28.2185C73.1921 27.8255 73.7938 27.6582 73.8821 28.053Z" fill="#161B46"/>
<path d="M82.1656 28.3199C81.8366 30.2281 81.4136 32.1213 81.0884 34.0295C81.0207 34.4262 80.4172 34.257 80.4849 33.864C80.8139 31.954 81.2369 30.0627 81.5621 28.1526C81.6298 27.7578 82.2333 27.9251 82.1656 28.3199Z" fill="#161B46"/>
<path d="M78.8623 28.237C78.8309 30.1947 78.7977 32.1518 78.7626 34.1083C78.7626 34.5106 78.1309 34.5125 78.1366 34.1083C78.1679 32.1518 78.2011 30.1947 78.2362 28.237C78.2362 27.8347 78.8679 27.8328 78.8623 28.237Z" fill="#161B46"/>
<path d="M75.8111 34.1799L75.0159 28.9648L74.9031 28.2128C74.8841 28.1329 74.896 28.0488 74.9364 27.9773C74.9769 27.9058 75.0429 27.8522 75.1212 27.8274C75.2001 27.8093 75.2829 27.8219 75.3528 27.8628C75.4227 27.9037 75.4743 27.9697 75.4972 28.0474C75.7629 29.7845 76.0273 31.5229 76.2905 33.2625C76.3281 33.5107 76.3676 33.7588 76.4052 34.0145C76.4242 34.0944 76.4123 34.1786 76.3719 34.25C76.3314 34.3215 76.2654 34.3751 76.1871 34.3999C76.1071 34.4219 76.0216 34.4112 75.9494 34.3704C75.8772 34.3295 75.8241 34.2617 75.8017 34.1818L75.8111 34.1799Z" fill="#161B46"/>
<path d="M83.6149 30.2789H74.1528C74.074 30.2728 74.0004 30.2371 73.9467 30.1791C73.893 30.1211 73.8631 30.0449 73.8631 29.9659C73.8631 29.8868 73.893 29.8106 73.9467 29.7526C74.0004 29.6946 74.074 29.6589 74.1528 29.6528H83.6149C83.6937 29.6589 83.7673 29.6946 83.821 29.7526C83.8747 29.8106 83.9045 29.8868 83.9045 29.9659C83.9045 30.0449 83.8747 30.1211 83.821 30.1791C83.7673 30.2371 83.6937 30.2728 83.6149 30.2789Z" fill="#161B46"/>
<path d="M82.7277 32.4747H74.5347C74.4519 32.4747 74.3725 32.4419 74.314 32.3833C74.2555 32.3248 74.2226 32.2454 74.2226 32.1627C74.2226 32.0799 74.2555 32.0005 74.314 31.942C74.3725 31.8835 74.4519 31.8506 74.5347 31.8506H82.7277C82.8105 31.8506 82.8899 31.8835 82.9484 31.942C83.0069 32.0005 83.0398 32.0799 83.0398 32.1627C83.0398 32.2454 83.0069 32.3248 82.9484 32.3833C82.8899 32.4419 82.8105 32.4747 82.7277 32.4747Z" fill="#161B46"/>
<path d="M75.2039 38.6185C74.5893 38.6185 74.091 38.1202 74.091 37.5055C74.091 36.8909 74.5893 36.3926 75.2039 36.3926C75.8186 36.3926 76.3169 36.8909 76.3169 37.5055C76.3169 38.1202 75.8186 38.6185 75.2039 38.6185Z" fill="#161B46"/>
<path d="M81.325 38.6185C80.7104 38.6185 80.2121 38.1202 80.2121 37.5055C80.2121 36.8909 80.7104 36.3926 81.325 36.3926C81.9397 36.3926 82.438 36.8909 82.438 37.5055C82.438 38.1202 81.9397 38.6185 81.325 38.6185Z" fill="#161B46"/>
<path d="M83.459 22.5164C83.459 22.5164 88.0368 22.3622 90.7214 26.4362L89.1573 27.7766C89.1573 27.7766 87.8093 24.7874 83.1996 24.6916C80.7029 24.6408 78.9884 26.094 78.4375 27.2935L75.6081 27.2446C76.5199 25.3477 78.8267 22.6329 83.459 22.5164Z" fill="#B75FDC"/>
<path d="M91.3267 25.1089L87.2865 27.9421L90.9563 28.6865L91.3267 25.1089Z" fill="#B75FDC"/>
<path d="M64.5762 10.0483C64.5758 10.1384 64.6022 10.2265 64.6519 10.3016C64.7017 10.3766 64.7726 10.4352 64.8557 10.47C64.9388 10.5047 65.0303 10.514 65.1187 10.4966C65.2071 10.4793 65.2883 10.4361 65.3522 10.3725C65.416 10.309 65.4595 10.2279 65.4772 10.1396C65.4949 10.0513 65.486 9.95975 65.4516 9.87651C65.4173 9.79326 65.3589 9.7221 65.2841 9.67202C65.2092 9.62195 65.1212 9.59522 65.0311 9.59521C64.9108 9.59521 64.7953 9.64289 64.7101 9.72781C64.6248 9.81272 64.5767 9.92796 64.5762 10.0483Z" fill="#161B46"/>
<path d="M65.0311 11.7459C64.7799 11.7459 64.5762 11.5422 64.5762 11.2909C64.5762 11.0396 64.7799 10.8359 65.0311 10.8359C65.2824 10.8359 65.4861 11.0396 65.4861 11.2909C65.4861 11.5422 65.2824 11.7459 65.0311 11.7459Z" fill="#161B46"/>
<path d="M65.0311 12.9885C64.7799 12.9885 64.5762 12.7848 64.5762 12.5336C64.5762 12.2823 64.7799 12.0786 65.0311 12.0786C65.2824 12.0786 65.4861 12.2823 65.4861 12.5336C65.4861 12.7848 65.2824 12.9885 65.0311 12.9885Z" fill="#161B46"/>
<path d="M92.122 9.83203L93.9775 11.2232H93.5057V12.8852L92.5055 12.8889V11.6444L91.7159 11.6406V12.8852H90.7496V11.2063L90.2683 11.2007L92.122 9.83203Z" fill="#161B46"/>
<path d="M62.3785 14.6373C62.3785 14.6636 69.9492 14.6861 79.2853 14.6861C88.6214 14.6861 96.1921 14.6636 96.1921 14.6373C96.1921 14.6109 88.6233 14.5884 79.2853 14.5884C69.9473 14.5884 62.3785 14.6109 62.3785 14.6373Z" fill="#E6E8F3"/>
<path d="M79.6424 45.9355H79.9432C80.9608 45.9355 81.7856 46.7604 81.7856 47.7779V62.5999C81.7856 63.6174 80.9608 64.4423 79.9432 64.4423H79.6424C78.6249 64.4423 77.8 63.6174 77.8 62.5999V47.7779C77.8 46.7604 78.6249 45.9355 79.6424 45.9355Z" fill="#E6E8F3"/>
<path d="M72.0322 55.629C72.0278 56.9001 72.4005 58.1439 73.1033 59.2031C73.806 60.2622 74.8072 61.0891 75.98 61.5791C77.1529 62.069 78.4448 62.2 79.6921 61.9555C80.9395 61.7109 82.0862 61.1018 82.9873 60.2052C83.8883 59.3087 84.5031 58.165 84.7539 56.9188C85.0046 55.6727 84.8801 54.3802 84.396 53.2049C83.9119 52.0296 83.09 51.0244 82.0343 50.3164C80.9787 49.6083 79.7367 49.2294 78.4656 49.2276C77.6228 49.2253 76.7879 49.3892 76.0084 49.7097C75.229 50.0302 74.5203 50.5011 73.9229 51.0956C73.3255 51.69 72.851 52.3964 72.5266 53.1742C72.2022 53.952 72.0342 54.7862 72.0322 55.629Z" fill="#B75FDC"/>
<path d="M73.3839 55.6965C73.3821 56.663 73.6668 57.6084 74.2021 58.4131C74.7374 59.2178 75.4993 59.8458 76.3914 60.2177C77.2835 60.5895 78.2658 60.6885 79.2142 60.5022C80.1626 60.3159 81.0345 59.8526 81.7196 59.1708C82.4047 58.4891 82.8724 57.6196 83.0635 56.6722C83.2545 55.7247 83.1604 54.7419 82.793 53.8479C82.4257 52.954 81.8015 52.189 80.9994 51.6496C80.1974 51.1103 79.2535 50.8209 78.287 50.8179C77.6446 50.8159 77.0081 50.9406 76.414 51.1848C75.8198 51.4289 75.2796 51.7878 74.8242 52.2409C74.3688 52.694 74.0073 53.2324 73.7601 53.8254C73.513 54.4183 73.3851 55.0541 73.3839 55.6965Z" fill="#B75FDC"/>
<path d="M73.5607 55.6308C73.5666 55.6049 73.5697 55.5784 73.5701 55.5518C73.5701 55.4935 73.5814 55.4165 73.587 55.3187C73.587 55.2673 73.5908 55.2109 73.5983 55.1495C73.5983 55.0856 73.619 55.0179 73.6321 54.9446C73.6541 54.7743 73.6887 54.6059 73.7355 54.4407C73.8522 53.9853 74.0367 53.5499 74.2826 53.1492C74.6397 52.5609 75.1171 52.0547 75.6834 51.6637C76.2497 51.2727 76.8922 51.0056 77.5688 50.88C78.4207 50.7249 79.2985 50.7989 80.1125 51.0943C80.3291 51.1726 80.5402 51.2655 80.7442 51.3726C80.8457 51.429 80.9434 51.4929 81.045 51.5606C81.147 51.6203 81.2444 51.6875 81.3364 51.7617C81.5298 51.9052 81.7138 52.0609 81.8872 52.228C82.0571 52.4056 82.2153 52.594 82.361 52.792C82.6618 53.1961 82.8954 53.6463 83.0528 54.1249C83.2123 54.6183 83.296 55.133 83.301 55.6515C83.2938 56.1701 83.2089 56.6846 83.049 57.178C82.8904 57.6563 82.6555 58.1057 82.3534 58.5091C82.2078 58.7076 82.0489 58.896 81.8778 59.0731C81.7044 59.2402 81.5204 59.3959 81.327 59.5393C81.1381 59.6785 80.9395 59.8042 80.7329 59.9153C80.5287 60.0213 80.3176 60.1137 80.1012 60.1917C79.2862 60.4856 78.4077 60.5576 77.5557 60.4003C76.8139 60.2634 76.1146 59.9543 75.514 59.4979C75.0171 59.1223 74.5966 58.6552 74.2751 58.1218C74.0306 57.7201 73.8475 57.2841 73.7318 56.8283C73.6851 56.6632 73.6512 56.4948 73.6302 56.3245C73.619 56.2512 73.6039 56.1835 73.5983 56.1215C73.5926 56.0594 73.5983 56.003 73.587 55.9504C73.5795 55.8526 73.5738 55.7755 73.5701 55.7191C73.5697 55.6926 73.5666 55.6661 73.5607 55.6402C73.5582 55.6664 73.5582 55.6929 73.5607 55.7191V55.9523C73.5607 56.003 73.5607 56.0613 73.5607 56.1233C73.5607 56.1854 73.5776 56.2549 73.5889 56.3301C73.6064 56.5016 73.6378 56.6714 73.6829 56.8377C73.7906 57.3014 73.9701 57.7455 74.2149 58.1537C74.5711 58.7548 75.0507 59.2735 75.622 59.6757C76.1933 60.0778 76.8434 60.3543 77.5294 60.4868C78.3963 60.6509 79.2914 60.5801 80.1219 60.2819C80.343 60.2035 80.5585 60.1099 80.7667 60.0018C80.978 59.8913 81.1809 59.7656 81.374 59.6258C81.5718 59.48 81.7602 59.3218 81.938 59.152C82.1118 58.9748 82.2738 58.7864 82.423 58.588C82.7325 58.1765 82.9731 57.7174 83.1355 57.2288C83.4776 56.2179 83.4776 55.1226 83.1355 54.1117C82.9751 53.6228 82.7363 53.1631 82.4286 52.7506C82.2805 52.5514 82.1184 52.363 81.9436 52.1866C81.7663 52.0158 81.5779 51.8569 81.3796 51.711C81.2858 51.6355 81.1865 51.567 81.0826 51.5061C80.9792 51.4459 80.8795 51.3801 80.7742 51.3181C80.566 51.2094 80.3506 51.1152 80.1294 51.0361C79.2994 50.736 78.4044 50.6633 77.5369 50.8255C76.7846 50.9676 76.0763 51.2845 75.4689 51.7505C74.9659 52.1314 74.5424 52.6073 74.2224 53.1511C73.9759 53.5591 73.7945 54.0031 73.6848 54.4671C73.6406 54.6343 73.6091 54.8046 73.5908 54.9765C73.5795 55.0499 73.5682 55.1194 73.5626 55.1815V55.3544C73.5626 55.4522 73.5626 55.5293 73.5626 55.5875C73.5612 55.6019 73.5605 55.6163 73.5607 55.6308Z" fill="#161B46"/>
<g opacity="0.3">
<path opacity="0.3" d="M73.6001 55.6815C73.6283 55.6815 73.649 55.4672 73.728 55.0931C73.8373 54.5656 74.0275 54.0583 74.292 53.5891C74.4729 53.2699 74.6885 52.9716 74.9349 52.6998C75.2174 52.3912 75.5384 52.1202 75.89 51.8933C76.0785 51.7711 76.2758 51.663 76.4803 51.5699C76.9147 51.3711 77.3768 51.2393 77.8508 51.1789C78.1002 51.1478 78.3516 51.1359 78.6028 51.1432C78.8522 51.1521 79.1004 51.1804 79.3454 51.2278C79.5837 51.2723 79.8181 51.3351 80.0466 51.4158C80.2677 51.4944 80.482 51.5906 80.6877 51.7034C80.8846 51.81 81.0731 51.9313 81.2517 52.0663C81.5884 52.3161 81.8916 52.608 82.1541 52.9348C82.3817 53.2222 82.5771 53.5337 82.7369 53.8635C82.9691 54.3481 83.1251 54.8655 83.1994 55.3976C83.2539 55.7736 83.2614 55.9917 83.2896 55.9936C83.3178 55.9955 83.3536 55.7793 83.3442 55.3845C83.3205 54.8226 83.193 54.27 82.9682 53.7545C82.5392 52.7547 81.7934 51.9237 80.8456 51.3895C80.625 51.2655 80.395 51.1593 80.1576 51.0717C79.913 50.9804 79.6615 50.9087 79.4056 50.8574C79.1408 50.8057 78.8724 50.7749 78.6028 50.7653C78.3333 50.7576 78.0637 50.7708 77.7963 50.8048C77.5372 50.8386 77.2814 50.8933 77.0311 50.9683C76.5559 51.1103 76.1052 51.3239 75.6944 51.6019C75.323 51.8518 74.9871 52.1509 74.6962 52.4911C74.4445 52.7885 74.2281 53.1141 74.0513 53.4612C73.7979 53.962 73.638 54.5048 73.5794 55.063C73.5494 55.4634 73.5776 55.6815 73.6001 55.6815Z" fill="#2D3259"/>
</g>
<g opacity="0.3">
<path opacity="0.6" d="M77.8998 58.5524L77.8867 59.4041L78.6481 59.4173L78.6612 58.5863C79.4132 58.5524 80.1408 58.3287 80.5657 58.0072L80.1615 57.0672C79.7192 57.3646 79.2076 57.5427 78.6763 57.5842L78.697 56.3134C79.5448 56.1254 80.4924 55.8528 80.5093 54.7642C80.5224 53.9577 79.9453 53.2602 78.7458 53.1004L78.759 52.2544L77.9976 52.2432L77.9844 53.0722C77.44 53.0945 76.9085 53.2452 76.4334 53.5122L76.7982 54.4522C77.1598 54.2505 77.5579 54.1227 77.9694 54.0762L77.9487 55.3696C77.1008 55.5576 76.1684 55.8227 76.1514 56.8943C76.1383 57.6989 76.706 58.3926 77.8998 58.5524ZM78.7139 55.1985L78.7308 54.1175C79.1331 54.2153 79.2948 54.439 79.2854 54.6909C79.276 54.9428 79.0504 55.1026 78.7139 55.2023V55.1985ZM77.3753 57.0127C77.3753 56.7476 77.6028 56.6066 77.9393 56.4957L77.9224 57.5466C77.5351 57.462 77.3716 57.2609 77.3753 57.0165V57.0127Z" fill="#2D3259"/>
</g>
<path d="M81.9324 46.6782H89.3472V63.2523H81.9324V46.6782Z" fill="white"/>
<path d="M40.779 54.1792C40.4791 55.5039 40.5791 56.8879 41.0662 58.1558C41.5533 59.4237 42.4056 60.5186 43.5153 61.3019C44.625 62.0852 45.9421 62.5217 47.2999 62.556C48.6578 62.5904 49.9953 62.2211 51.1431 61.4949C52.291 60.7687 53.1976 59.7183 53.7482 58.4766C54.2988 57.235 54.4686 55.8578 54.2361 54.5196C54.0037 53.1814 53.3794 51.9422 52.4423 50.9589C51.5052 49.9757 50.2975 49.2925 48.972 48.996C48.0937 48.7983 47.185 48.7755 46.2979 48.9289C45.4108 49.0824 44.5626 49.4091 43.8018 49.8905C43.041 50.3718 42.3825 50.9983 41.8638 51.7341C41.3451 52.47 40.9765 53.3008 40.779 54.1792Z" fill="#B75FDC"/>
<path d="M42.1741 54.5626C41.9454 55.572 42.0213 56.6266 42.3922 57.5929C42.7632 58.5591 43.4125 59.3936 44.2579 59.9906C45.1033 60.5877 46.1069 60.9205 47.1416 60.9469C48.1762 60.9733 49.1955 60.6921 50.0702 60.139C50.945 59.5858 51.636 58.7855 52.0557 57.8395C52.4755 56.8934 52.6051 55.844 52.4281 54.8243C52.2512 53.8045 51.7756 52.8602 51.0617 52.1108C50.3478 51.3614 49.4276 50.8407 48.4176 50.6146C47.7484 50.4638 47.0561 50.4463 46.3801 50.5631C45.7041 50.6799 45.0578 50.9287 44.478 51.2953C43.8983 51.6619 43.3964 52.1392 43.0011 52.6998C42.6058 53.2604 42.3248 53.8934 42.1741 54.5626Z" fill="#B75FDC"/>
<path d="M42.3734 54.5344C42.3854 54.5091 42.3948 54.4827 42.4016 54.4555L42.473 54.2167L42.5238 54.0419C42.5463 53.978 42.5764 53.9103 42.6046 53.837C42.6681 53.6652 42.7435 53.4981 42.8302 53.3369C43.0576 52.8883 43.351 52.4764 43.7006 52.1149C44.5325 51.2439 45.6411 50.689 46.8369 50.545C48.0326 50.401 49.2413 50.6768 50.2562 51.3253C50.4638 51.4571 50.6623 51.6029 50.8503 51.7614C50.9443 51.8442 51.0383 51.9344 51.1229 52.019C51.2154 52.1053 51.3015 52.1983 51.3804 52.2972C51.5491 52.4913 51.7043 52.6967 51.8448 52.912C51.9819 53.1347 52.1037 53.3665 52.2095 53.6057C52.4297 54.097 52.5688 54.6209 52.6212 55.1567C52.7395 56.2669 52.4898 57.3851 51.9106 58.3396C51.6344 58.8019 51.2852 59.2164 50.8766 59.5672C50.4871 59.9154 50.0424 60.1962 49.5606 60.3982C49.331 60.5018 49.0941 60.5885 48.8518 60.6576C48.6146 60.7208 48.3735 60.7679 48.1299 60.7986C46.9352 60.9518 45.7243 60.6856 44.704 60.0454C43.6836 59.4053 42.917 58.431 42.535 57.2886C42.3719 56.8137 42.2819 56.3167 42.2681 55.8147C42.2585 55.6317 42.2617 55.4483 42.2775 55.2658C42.2775 55.1868 42.2775 55.1135 42.2925 55.0458C42.3076 54.9781 42.3113 54.9198 42.3207 54.8578C42.3358 54.7544 42.347 54.6698 42.3564 54.6115C42.3618 54.5836 42.365 54.5553 42.3658 54.5269C42.3564 54.5538 42.3494 54.5815 42.3452 54.6096C42.3339 54.6698 42.3188 54.7506 42.2982 54.854C42.2894 54.9092 42.2781 54.9718 42.2643 55.042C42.2643 55.1097 42.253 55.183 42.2455 55.2639C42.2252 55.4474 42.2189 55.6321 42.2267 55.8166C42.2325 56.3241 42.3169 56.8276 42.4768 57.3093C42.7084 58.018 43.088 58.6694 43.5904 59.2204C44.0927 59.7714 44.7064 60.2094 45.3908 60.5053C46.2565 60.8777 47.2062 61.0114 48.1412 60.8926C48.3905 60.8629 48.6373 60.8158 48.88 60.7516C49.1272 60.681 49.369 60.593 49.6038 60.4884C49.8434 60.3828 50.0758 60.2616 50.2994 60.1256C50.5233 59.9794 50.7369 59.8179 50.9386 59.6424C51.3572 59.2859 51.7141 58.8629 51.9952 58.3903C52.2837 57.9032 52.4967 57.3752 52.6269 56.8243C52.7436 56.2683 52.7759 55.6979 52.7227 55.1323C52.6684 54.5852 52.5255 54.0506 52.2997 53.5493C52.191 53.3046 52.0653 53.0678 51.9237 52.8406C51.779 52.6223 51.6201 52.4138 51.4481 52.2164C51.3673 52.1156 51.2793 52.0207 51.1849 51.9325C51.0909 51.846 50.9969 51.7539 50.9067 51.6712C50.7152 51.5089 50.5123 51.3606 50.2994 51.2275C49.5034 50.7224 48.5871 50.4387 47.6449 50.406C46.8989 50.3823 46.1563 50.5176 45.4666 50.8028C44.7769 51.0881 44.1557 51.5167 43.6442 52.0604C43.2943 52.4277 43.0032 52.8468 42.7813 53.303C42.6965 53.4674 42.6236 53.6377 42.5632 53.8125C42.535 53.8877 42.5068 53.9554 42.4862 54.0193C42.4655 54.0832 42.4542 54.1434 42.441 54.2073L42.379 54.448C42.3745 54.4765 42.3726 54.5055 42.3734 54.5344Z" fill="#161B46"/>
<g opacity="0.3">
<path opacity="0.3" d="M42.4016 54.604C42.4316 54.604 42.5031 54.3915 42.6723 54.0193C42.9101 53.4957 43.2271 53.0119 43.6123 52.5849C43.8754 52.2952 44.1692 52.0348 44.4884 51.8084C44.855 51.5517 45.253 51.3432 45.6728 51.188C46.134 51.017 46.618 50.915 47.1091 50.8853C47.3672 50.8685 47.6262 50.8722 47.8836 50.8966C48.1467 50.9227 48.4074 50.968 48.6638 51.032C48.9204 51.1002 49.1718 51.1869 49.4158 51.2914C49.6537 51.3949 49.8832 51.5168 50.102 51.6561C50.5176 51.9201 50.8925 52.2431 51.215 52.6149C51.508 52.953 51.7557 53.3277 51.952 53.7298C52.1229 54.0823 52.2553 54.4523 52.3468 54.8333C52.4754 55.3926 52.5178 55.9683 52.4727 56.5404C52.4408 56.9483 52.3975 57.1739 52.4295 57.1814C52.4614 57.189 52.546 56.9746 52.6175 56.5592C52.7284 55.9696 52.7284 55.3646 52.6175 54.7751C52.454 53.8912 52.0655 53.0644 51.4895 52.3743C51.3247 52.173 51.145 51.9845 50.9518 51.8103C50.7509 51.6293 50.5359 51.4646 50.3088 51.3177C50.0743 51.1654 49.8278 51.0321 49.5719 50.9192C49.3075 50.8045 49.0347 50.7102 48.756 50.6372C48.4769 50.5663 48.1928 50.5173 47.9062 50.4905C47.6278 50.468 47.348 50.468 47.0696 50.4905C46.7998 50.5091 46.532 50.5493 46.2687 50.6109C46.0162 50.6677 45.7685 50.7444 45.528 50.8402C45.0832 51.0151 44.664 51.2491 44.2816 51.5358C43.9504 51.7873 43.6495 52.0762 43.3848 52.3969C43.0035 52.8604 42.7104 53.3899 42.52 53.9591C42.3997 54.3596 42.379 54.5927 42.4016 54.604Z" fill="#2D3259"/>
</g>
<g opacity="0.3">
<path opacity="0.6" d="M46.2197 58.5919L46.0072 59.4793L46.7987 59.6673L47.0055 58.8062C47.8007 58.9454 48.6091 58.8796 49.1261 58.6427L48.9212 57.5748C48.391 57.7807 47.8164 57.8454 47.2537 57.7628L47.5695 56.4468C48.4982 56.4468 49.5491 56.3848 49.8255 55.253C50.0248 54.4146 49.5886 53.5498 48.3723 53.108L48.5828 52.23L47.7913 52.042L47.5845 52.9049C47.0115 52.8009 46.4219 52.8344 45.8643 53.0027L46.026 54.0705C46.4523 53.9431 46.8996 53.9016 47.342 53.9483L47.0205 55.2944C46.0918 55.2944 45.0578 55.3527 44.7909 56.4675C44.5803 57.2891 45.0127 58.1464 46.2197 58.5919ZM47.8459 55.285L48.1147 54.157C48.5114 54.345 48.6223 54.6214 48.5603 54.8808C48.4982 55.1402 48.22 55.2587 47.844 55.285H47.8459ZM46.0317 56.8604C46.0975 56.5841 46.3644 56.4844 46.7329 56.4506L46.4716 57.5429C46.0918 57.3662 45.9677 57.1199 46.0317 56.8604Z" fill="#2D3259"/>
</g>
<path d="M55.5991 51.1751C56.0266 52.0795 56.628 52.891 57.369 53.563C58.1101 54.235 58.9763 54.7545 59.9181 55.0918C60.86 55.4291 61.859 55.5775 62.8582 55.5287C63.8574 55.4799 64.8372 55.2347 65.7417 54.8072C66.1471 54.6162 66.5352 54.3904 66.9016 54.1323C68.0808 53.2925 68.996 52.1339 69.54 50.7923C70.084 49.4508 70.2342 47.9819 69.9729 46.5581C69.7116 45.1342 69.0497 43.8144 68.0649 42.7534C67.0801 41.6923 65.8131 40.9342 64.4126 40.5677C63.0121 40.2013 61.5361 40.2418 60.1578 40.6845C58.7796 41.1272 57.5561 41.9538 56.6309 43.0672C55.7058 44.1807 55.1173 45.5349 54.9346 46.9709C54.7518 48.407 54.9823 49.8654 55.5991 51.1751Z" fill="#B75FDC"/>
<path d="M57.0844 50.562C57.5723 51.6032 58.3581 52.4762 59.3423 53.0706C60.3265 53.665 61.465 53.9541 62.6136 53.9012C63.7622 53.8483 64.8692 53.4559 65.7947 52.7736C66.7202 52.0913 67.4225 51.1498 67.8126 50.0683C68.2028 48.9867 68.2634 47.8137 67.9867 46.6977C67.7099 45.5817 67.1084 44.5728 66.2581 43.7989C65.4078 43.0249 64.347 42.5206 63.21 42.3497C62.0729 42.1788 60.9108 42.3491 59.8706 42.839C59.1803 43.1629 58.5607 43.6197 58.0471 44.1832C57.5335 44.7468 57.136 45.406 56.8772 46.1232C56.6185 46.8404 56.5036 47.6016 56.5392 48.3632C56.5747 49.1249 56.76 49.872 57.0844 50.562Z" fill="#B75FDC"/>
<path d="M57.2403 50.4006C57.2319 50.3706 57.2218 50.3411 57.2102 50.3122C57.1857 50.2483 57.1519 50.1637 57.1105 50.0546L57.0353 49.8666C57.0128 49.7971 56.9921 49.7162 56.9677 49.6316C56.9054 49.4381 56.8576 49.2401 56.8248 49.0394C56.7172 48.4916 56.6938 47.9306 56.7552 47.3756C56.8905 46.0435 57.4847 44.7999 58.4362 43.8577C59.3876 42.9156 60.637 42.3335 61.9703 42.2113C62.2427 42.1849 62.5166 42.1773 62.79 42.1887C62.9273 42.1887 63.0645 42.2169 63.2036 42.2301C63.3436 42.2423 63.4825 42.2649 63.6191 42.2978C64.1881 42.4009 64.7359 42.5985 65.2397 42.8824C65.7681 43.1629 66.2475 43.5274 66.6591 43.9616C67.5193 44.8558 68.0622 46.0077 68.2044 47.2403C68.277 47.8343 68.2529 48.4362 68.133 49.0225C68.0309 49.5913 67.8345 50.139 67.5521 50.6431C67.4211 50.8905 67.2722 51.1281 67.1065 51.3537C66.9413 51.5711 66.7617 51.7771 66.5688 51.9704C65.8417 52.7007 64.9333 53.2244 63.9368 53.4875C63.1464 53.6938 62.3212 53.7308 61.5155 53.596C60.7097 53.4612 59.9416 53.1577 59.2613 52.7054C58.794 52.3991 58.3756 52.0238 58.0205 51.5925C57.8873 51.4385 57.7654 51.2751 57.6557 51.1037C57.605 51.0304 57.5561 50.9646 57.5185 50.9025L57.4189 50.7239L57.2835 50.4833C57.2695 50.455 57.2531 50.428 57.2346 50.4024C57.2446 50.4323 57.2572 50.4612 57.2722 50.4889C57.3042 50.5491 57.3455 50.6318 57.3982 50.7352L57.4922 50.9232C57.5298 50.9871 57.5768 51.0548 57.6257 51.13C57.7328 51.3047 57.8529 51.4713 57.9847 51.6282C58.3361 52.0693 58.7533 52.4536 59.2218 52.7675C59.9085 53.2331 60.6864 53.5473 61.5039 53.6893C62.3213 53.8312 63.1596 53.7977 63.9631 53.5909C64.7457 53.3925 65.4782 53.0327 66.1134 52.5344C66.7487 52.0361 67.2726 51.4104 67.6517 50.6976C67.79 50.4408 67.9112 50.1751 68.0145 49.9024C68.1118 49.6216 68.1897 49.3346 68.2477 49.0432C68.3701 48.4452 68.3949 47.8312 68.321 47.2252C68.1749 45.9659 67.6202 44.7892 66.7418 43.8751C66.3213 43.4325 65.8318 43.061 65.2923 42.7753C65.0313 42.6312 64.7606 42.5056 64.482 42.3993C64.2057 42.3061 63.9238 42.2308 63.6379 42.1737C63.4987 42.1409 63.3573 42.1183 63.2149 42.106C63.072 42.0928 62.931 42.0722 62.7919 42.0665C61.4611 42.012 60.1503 42.4038 59.0676 43.1795C58.3966 43.6672 57.8371 44.2921 57.4261 45.0126C57.0151 45.7332 56.762 46.5329 56.6838 47.3587C56.6269 47.9203 56.6574 48.4872 56.774 49.0394C56.8103 49.2411 56.8618 49.4397 56.9282 49.6335C56.9564 49.7181 56.9771 49.7971 57.0034 49.8685C57.0297 49.94 57.0598 50.0001 57.0842 50.0565L57.1951 50.3103C57.2059 50.3424 57.2211 50.3727 57.2403 50.4006Z" fill="#161B46"/>
<g opacity="0.3">
<path opacity="0.3" d="M57.3118 50.4364C57.3438 50.4232 57.2573 50.1826 57.152 49.7408C57.0018 49.1211 56.9486 48.4818 56.9941 47.8458C57.0269 47.4116 57.107 46.9823 57.2329 46.5655C57.3789 46.0904 57.5855 45.6361 57.8476 45.2138C57.9887 44.9862 58.1464 44.7694 58.3195 44.5652C58.4987 44.3523 58.6935 44.1531 58.9023 43.9692C59.1182 43.7783 59.349 43.6048 59.5923 43.4503C60.0933 43.1319 60.6415 42.8946 61.2166 42.7472C62.0279 42.5408 62.8751 42.5183 63.6963 42.6814C64.184 42.7794 64.6572 42.9393 65.1044 43.157C65.4947 43.3504 65.8628 43.5855 66.2023 43.8583C66.6973 44.2606 67.1272 44.7368 67.477 45.2702C67.727 45.6462 67.8436 45.8774 67.8755 45.8624C67.9075 45.8473 67.836 45.601 67.6255 45.1818C67.3171 44.5907 66.9029 44.0612 66.4035 43.6195C66.0598 43.3129 65.6812 43.0479 65.2755 42.8299C64.8054 42.5809 64.304 42.3963 63.7847 42.281C63.5043 42.2187 63.2196 42.1779 62.933 42.1588C62.3224 42.1169 61.709 42.1708 61.1151 42.3186C60.4935 42.4724 59.901 42.7264 59.361 43.0706C59.0998 43.2381 58.8526 43.4267 58.6222 43.6346C58.1846 44.0273 57.8093 44.4844 57.5092 44.99C56.999 45.8443 56.7167 46.8154 56.6895 47.81C56.6695 48.4762 56.7727 49.1404 56.9941 49.769C57.1426 50.2296 57.2836 50.4477 57.3118 50.4364Z" fill="#2D3259"/>
</g>
<g opacity="0.3">
<path opacity="0.6" d="M63.3803 51.3406L63.7996 52.2618L64.6211 51.8858L64.2151 50.9891C65.0065 50.5698 65.6739 49.9588 65.9653 49.4005L65.0573 48.6015C64.7352 49.1481 64.2765 49.6016 63.7263 49.9175L63.1021 48.5432C63.9143 47.9059 64.7941 47.1388 64.2639 45.9601C63.8673 45.0877 62.8934 44.6272 61.5267 45.069L61.1112 44.1553L60.2877 44.5313L60.6957 45.4224C60.1209 45.7211 59.6258 46.153 59.2519 46.682L60.1223 47.5073C60.4076 47.1069 60.77 46.7675 61.1883 46.509L61.8237 47.9078C61.0059 48.5357 60.1411 49.2971 60.6675 50.457C61.0548 51.3143 62.0117 51.7712 63.3803 51.3406ZM62.5531 47.3287L62.023 46.1593C62.5043 46.0597 62.7844 46.2214 62.9085 46.4921C63.0325 46.7628 62.8633 47.0486 62.5531 47.3287ZM62.0361 49.9607C61.9064 49.6731 62.0737 49.408 62.3727 49.1241L62.8878 50.2521C62.4347 50.3499 62.1565 50.2183 62.0361 49.9551V49.9607Z" fill="#2D3259"/>
</g>
<path d="M24.5641 57.5776H53.832C54.6491 57.5776 55.3115 58.2401 55.3115 59.0572V79.0021C55.3115 79.8193 54.6491 80.4817 53.832 80.4817H24.5641C23.747 80.4817 23.0846 79.8193 23.0846 79.0021V59.0572C23.0846 58.2401 23.747 57.5776 24.5641 57.5776Z" fill="#737690"/>
<path d="M23.5601 66.9272H31.9017C33.2857 66.9272 34.4077 68.0492 34.4077 69.4333V69.845C34.4077 71.2291 33.2857 72.351 31.9017 72.351H23.5601C22.1761 72.351 21.0541 71.2291 21.0541 69.845V69.4333C21.0541 68.0492 22.1761 66.9272 23.5601 66.9272Z" fill="#737690"/>
<path d="M23.5582 72.4448H31.8998C32.5896 72.4438 33.2508 72.1694 33.7385 71.6816C34.2263 71.1939 34.5007 70.5327 34.5017 69.8429V69.4331C34.5007 68.7435 34.2262 68.0824 33.7384 67.595C33.2506 67.1075 32.5894 66.8335 31.8998 66.833H23.5582C22.869 66.834 22.2082 67.1083 21.7208 67.5956C21.2334 68.083 20.9592 68.7438 20.9582 69.4331V69.8429C20.9592 70.5323 21.2334 71.1933 21.7207 71.681C22.208 72.1686 22.8688 72.4433 23.5582 72.4448ZM31.8998 67.021C32.5395 67.0215 33.1529 67.2757 33.6055 67.7279C34.058 68.1801 34.3127 68.7933 34.3137 69.4331V69.8429C34.3132 70.4829 34.0587 71.0966 33.6061 71.5492C33.1535 72.0018 32.5399 72.2563 31.8998 72.2568H23.5582C22.9185 72.2558 22.3053 72.0011 21.8531 71.5486C21.4009 71.096 21.1467 70.4826 21.1462 69.8429V69.4331C21.1472 68.7936 21.4016 68.1807 21.8538 67.7286C22.3059 67.2764 22.9188 67.022 23.5582 67.021H31.8998Z" fill="#161B46"/>
<path d="M29.8386 70.7386C29.2264 69.8681 29.4357 68.6661 30.3062 68.0539C31.1768 67.4416 32.3788 67.651 32.991 68.5215C33.6033 69.392 33.3939 70.594 32.5234 71.2062C31.6529 71.8185 30.4509 71.6091 29.8386 70.7386Z" fill="#161B46"/>
<path d="M33.7611 16.124C33.7838 17.1159 33.5958 18.1014 33.2095 19.0153C32.8232 19.9292 32.2474 20.7507 31.5202 21.4256C31.188 20.4581 30.854 19.4905 30.5181 18.5229" fill="#161B46"/>
<path d="M26.2092 10.3507C27.0703 9.88066 28.108 9.81298 29.0687 10.0066C30.0255 10.2284 30.9394 10.6057 31.774 11.1233C32.2641 11.3767 32.7027 11.719 33.0675 12.1329C33.6916 12.9187 34.3083 14.2009 34.3684 15.2105C34.4173 16.0207 34.1071 18.0474 33.765 18.7825C33.451 19.4574 31.9808 19.9706 31.2552 20.1379L24.6 12.3942C24.7196 11.964 24.9234 11.5619 25.1997 11.2111C25.4759 10.8603 25.8191 10.5678 26.2092 10.3507Z" fill="#161B46"/>
<path d="M25.0623 11.3961L26.6584 11.1104C25.7861 13.1784 25.5493 17.9404 25.0492 20.1343C24.4607 19.2789 23.094 16.6789 23.1692 15.6449C23.2444 14.6109 23.1654 11.2194 25.0623 11.3961Z" fill="#161B46"/>
<path d="M24.1485 14.7835C24.2519 13.1892 25.3141 11.234 26.9027 11.3995L30.5781 12.3395C31.1441 12.4833 31.649 12.8049 32.0185 13.257C32.3881 13.7091 32.6028 14.2679 32.6311 14.8512C32.6311 14.9113 32.6311 14.838 32.6311 14.8831L31.8095 24.4034L29.0497 29.8799L26.6057 25.2607C26.6057 24.4843 26.6057 22.7415 26.6057 22.7453C26.6057 22.749 24.5678 22.4031 24.1617 19.7373C23.9624 18.425 24.0357 16.5544 24.1485 14.7835Z" fill="#AE7461"/>
<path d="M25.2879 16.9645C25.2864 17.0535 25.3198 17.1395 25.3809 17.2042C25.4421 17.2688 25.5261 17.307 25.6151 17.3104C25.6584 17.3137 25.702 17.3084 25.7433 17.2948C25.7847 17.2811 25.8229 17.2595 25.8557 17.231C25.8886 17.2025 25.9155 17.1677 25.9348 17.1288C25.9542 17.0898 25.9656 17.0474 25.9685 17.004C25.9691 16.9149 25.9351 16.8292 25.8738 16.7647C25.8124 16.7002 25.7284 16.6619 25.6395 16.6581C25.5963 16.655 25.5529 16.6605 25.5118 16.6742C25.4707 16.688 25.4327 16.7097 25.4 16.7382C25.3674 16.7667 25.3406 16.8013 25.3214 16.8402C25.3022 16.879 25.2908 16.9212 25.2879 16.9645Z" fill="#161B46"/>
<path d="M24.5472 15.8253C24.5904 15.8705 24.848 15.6787 25.2165 15.6806C25.585 15.6824 25.8519 15.8686 25.8914 15.8216C25.9309 15.7746 25.8669 15.7219 25.7504 15.6336C25.5925 15.5225 25.4039 15.4633 25.2108 15.4644C25.0198 15.4637 24.8336 15.5236 24.6788 15.6354C24.566 15.7257 24.5265 15.8047 24.5472 15.8253Z" fill="#161B46"/>
<path d="M28.36 16.9643C28.3584 17.0533 28.3918 17.1393 28.453 17.204C28.5141 17.2686 28.5981 17.3068 28.6871 17.3102C28.7305 17.3135 28.7741 17.3082 28.8154 17.2946C28.8567 17.2809 28.8949 17.2592 28.9277 17.2307C28.9606 17.2022 28.9875 17.1675 29.0069 17.1286C29.0262 17.0896 29.0377 17.0472 29.0405 17.0038C29.0411 16.9147 29.0071 16.829 28.9458 16.7645C28.8844 16.6999 28.8005 16.6617 28.7115 16.6578C28.6682 16.6543 28.6246 16.6594 28.5833 16.673C28.542 16.6865 28.5038 16.7082 28.471 16.7368C28.4382 16.7654 28.4115 16.8002 28.3924 16.8393C28.3734 16.8784 28.3623 16.9209 28.36 16.9643Z" fill="#161B46"/>
<path d="M28.0328 15.8253C28.0741 15.8705 28.3336 15.6787 28.7002 15.6806C29.0668 15.6825 29.3356 15.8686 29.3751 15.8216C29.4146 15.7746 29.3525 15.7219 29.2341 15.6336C29.0764 15.5221 28.8877 15.4629 28.6945 15.4644C28.5035 15.4637 28.3173 15.5236 28.1625 15.6355C28.0497 15.7257 28.0121 15.8047 28.0328 15.8253Z" fill="#161B46"/>
<path d="M26.8858 18.7075C26.6926 18.6459 26.4924 18.6093 26.2899 18.5984C26.1959 18.5984 26.1019 18.5702 26.1019 18.5063C26.0936 18.4094 26.1153 18.3123 26.1639 18.2281C26.2523 18.0025 26.3519 17.7637 26.4422 17.5156C26.8294 16.5004 27.1096 15.6656 27.0682 15.6506C27.0269 15.6356 26.6678 16.4402 26.2918 17.461C26.1996 17.7111 26.1038 17.9498 26.0248 18.1773C25.9642 18.2928 25.9469 18.4262 25.9759 18.5533C25.9896 18.5863 26.0106 18.6158 26.0373 18.6396C26.064 18.6634 26.0957 18.6808 26.1301 18.6906C26.1816 18.7044 26.2346 18.712 26.288 18.7131C26.4867 18.7361 26.6876 18.7342 26.8858 18.7075Z" fill="#161B46"/>
<path d="M30.1477 21.8037C30.1477 21.8037 29.2829 23.6292 26.6227 23.3754V22.7494C27.8627 22.7676 29.0833 22.4401 30.1477 21.8037Z" fill="#6F4439"/>
<path d="M28.1475 14.5C28.1832 14.5996 28.5498 14.5526 28.9803 14.6053C29.4108 14.6579 29.7586 14.7764 29.815 14.688C29.8413 14.6448 29.7812 14.5508 29.6402 14.4549C29.4545 14.3333 29.2424 14.2579 29.0217 14.2349C28.8013 14.2089 28.5779 14.2347 28.3693 14.3101C28.2114 14.3722 28.1324 14.453 28.1475 14.5Z" fill="#161B46"/>
<path d="M24.6676 14.7026C24.7315 14.7872 24.9853 14.7026 25.288 14.7026C25.5907 14.7026 25.852 14.759 25.9103 14.6726C25.9347 14.6312 25.8953 14.5466 25.7825 14.4676C25.6316 14.3732 25.4561 14.3254 25.2781 14.3304C25.1001 14.3355 24.9276 14.393 24.7823 14.4958C24.6751 14.5767 24.6394 14.6613 24.6676 14.7026Z" fill="#161B46"/>
<path d="M24.8706 12.3564C24.9648 12.161 25.1112 11.9956 25.2938 11.8784C25.4763 11.7612 25.6878 11.697 25.9046 11.6928C26.339 11.6934 26.7643 11.8179 27.1304 12.0518C28.7133 12.9655 29.5274 15.1764 31.0915 16.1239C31.4769 16.357 31.977 16.1427 32.3041 16.451C32.6312 16.7594 32.8437 17.2538 32.6632 17.6655C32.8871 17.3865 33.0701 17.0769 33.2065 16.7462C33.2731 16.5803 33.3035 16.402 33.2957 16.2234C33.2879 16.0448 33.2421 15.8699 33.1614 15.7103C33.026 15.4753 32.7854 15.2967 32.7215 15.0335C32.6632 14.8023 32.7553 14.5616 32.7459 14.3229C32.7187 14.0807 32.635 13.8482 32.5015 13.6442C31.8887 12.5613 31.0464 11.5762 29.9598 10.9708C29.2512 10.5619 28.4447 10.3533 27.6267 10.3674C26.8057 10.3871 26.0188 10.6998 25.4083 11.2491C25.0567 11.5762 24.6901 11.9127 24.8706 12.3564Z" fill="#161B46"/>
<path d="M32.2665 16.7822C32.2947 16.7051 33.6802 16.205 33.699 17.6789C33.7178 19.1096 32.2721 18.8295 32.2683 18.7881C32.2646 18.7468 32.2665 16.7822 32.2665 16.7822Z" fill="#AE7461"/>
<path d="M32.7064 18.2412C32.7064 18.2412 32.7308 18.2581 32.7741 18.2769C32.8038 18.2895 32.8358 18.296 32.8681 18.296C32.9004 18.296 32.9323 18.2895 32.9621 18.2769C33.1125 18.2205 33.2384 17.9798 33.2422 17.7129C33.2443 17.5905 33.2193 17.4691 33.1689 17.3576C33.155 17.3134 33.1306 17.2733 33.0979 17.2405C33.0652 17.2078 33.025 17.1835 32.9809 17.1696C32.9522 17.162 32.9217 17.1648 32.8949 17.1776C32.868 17.1903 32.8466 17.2121 32.8342 17.2391C32.8154 17.2786 32.8342 17.3068 32.8173 17.3106C32.8004 17.3143 32.7872 17.2861 32.7985 17.2278C32.8049 17.192 32.8243 17.1599 32.853 17.1376C32.8921 17.1076 32.9414 17.0941 32.9903 17.1C33.0492 17.1106 33.1044 17.1363 33.1505 17.1745C33.1966 17.2127 33.2321 17.2621 33.2535 17.3181C33.3163 17.4413 33.3473 17.5783 33.3437 17.7166C33.3437 18.0062 33.1914 18.2806 32.9865 18.3389C32.948 18.3505 32.9075 18.3533 32.8678 18.3471C32.8281 18.3409 32.7903 18.3259 32.7572 18.3032C32.7083 18.275 32.7008 18.243 32.7064 18.2412Z" fill="#6F4439"/>
<path d="M32.8362 16.045C32.8058 16.0316 32.7768 16.0153 32.7497 15.9961C32.6952 15.9622 32.6106 15.9152 32.5091 15.8438C32.2276 15.6371 31.9686 15.4015 31.7364 15.1407C31.4002 14.7495 31.0864 14.3396 30.7964 13.913C30.4441 13.3901 30.0485 12.8977 29.6139 12.441C29.3857 12.2133 29.1336 12.011 28.8619 11.8375C28.6035 11.6795 28.327 11.5532 28.0384 11.4615C27.5492 11.3032 27.0343 11.2394 26.5213 11.2735C26.1755 11.2915 25.8336 11.3547 25.5042 11.4615C25.3876 11.4972 25.2993 11.5386 25.2391 11.5611C25.2087 11.5745 25.1773 11.5852 25.1451 11.5931L25.2335 11.548C25.3191 11.5069 25.407 11.4705 25.4967 11.4389C25.8249 11.3175 26.1685 11.2428 26.5175 11.2171C27.0366 11.1763 27.5587 11.2356 28.0553 11.3919C28.3495 11.4817 28.6312 11.608 28.8938 11.7679C29.1737 11.9434 29.4339 12.1482 29.6703 12.3789C30.1076 12.8378 30.504 13.3342 30.8547 13.8623C31.1437 14.2889 31.4543 14.7006 31.7853 15.0955C32.0125 15.3566 32.2643 15.5952 32.5373 15.8081C32.635 15.8833 32.7253 15.9322 32.7704 15.9698C32.794 15.9933 32.816 16.0184 32.8362 16.045Z" fill="#737690"/>
<path d="M32.4752 16.4511C32.4977 16.8422 32.5165 17.2539 32.336 17.6017C32.1556 17.9495 31.6987 18.1864 31.3584 17.9909C31.0821 17.8329 30.9993 17.4776 30.9523 17.1618C30.8151 16.25 30.7531 15.3269 30.6102 14.417L32.4752 16.4511Z" fill="#161B46"/>
<path d="M25.2241 11.6743C25.2241 11.6743 25.35 11.6517 25.5794 11.6442C25.9012 11.6382 26.2208 11.697 26.5194 11.8172C26.7277 11.8972 26.9269 11.9993 27.1135 12.1217C27.327 12.2653 27.5317 12.4216 27.7264 12.5898C28.1757 12.9717 28.5777 13.4059 28.9239 13.8833C29.1119 14.139 29.2661 14.4003 29.4409 14.6353C29.606 14.872 29.7985 15.0885 30.0143 15.2801C30.3864 15.5946 30.7925 15.8663 31.225 16.0904C31.601 16.2784 31.8981 16.4194 32.1086 16.5134L32.353 16.6168C32.3815 16.6301 32.411 16.6408 32.4414 16.6488C32.4414 16.6488 32.4151 16.63 32.3606 16.6018L32.1218 16.4833C31.915 16.3818 31.6123 16.2389 31.2514 16.0396C30.8269 15.8116 30.4285 15.538 30.0632 15.2237C29.8504 15.0353 29.661 14.822 29.4992 14.5883C29.3281 14.3476 29.1664 14.0844 28.9822 13.8363C28.6327 13.3529 28.2241 12.9152 27.7658 12.5334C27.5682 12.3646 27.3597 12.2088 27.1417 12.0672C26.9504 11.9438 26.7461 11.8416 26.5326 11.7626C26.2231 11.646 25.8928 11.5947 25.5625 11.6122C25.4732 11.6171 25.3845 11.6297 25.2974 11.6498C25.2723 11.6557 25.2477 11.6638 25.2241 11.6743Z" fill="#737690"/>
<path d="M32.5146 15.5658C32.5542 15.5988 32.597 15.6278 32.6424 15.6522L33.0053 15.8647L33.1275 15.9342C33.1753 15.9623 33.2284 15.9802 33.2835 15.9869C33.3171 15.9903 33.3509 15.9824 33.3794 15.9643C33.3945 15.9544 33.4073 15.9414 33.4171 15.9262C33.4268 15.911 33.4332 15.8938 33.4358 15.876C33.4343 15.8076 33.4105 15.7416 33.3681 15.688L32.947 15.013L32.8906 15.0676C33.0294 15.1705 33.1854 15.2481 33.3512 15.2969C33.5169 15.3462 33.6899 15.3666 33.8626 15.3571C33.9067 15.356 33.9504 15.3484 33.9923 15.3345C34.017 15.3278 34.0399 15.3155 34.0591 15.2986C34.0783 15.2816 34.0934 15.2605 34.1032 15.2368C34.1116 15.2126 34.1139 15.1868 34.11 15.1616C34.106 15.1363 34.0959 15.1124 34.0806 15.092C34.0559 15.06 34.0282 15.0304 33.9979 15.0036C33.8098 14.8206 33.6461 14.6139 33.511 14.3889C33.3924 14.1764 33.2887 13.9559 33.2008 13.729C33.2082 13.7933 33.2234 13.8564 33.2459 13.917C33.3011 14.0893 33.3735 14.2556 33.4621 14.4133C33.5931 14.648 33.7563 14.8632 33.9471 15.0525C33.9998 15.1033 34.0524 15.1616 34.0317 15.2067C34.0111 15.2518 33.934 15.2744 33.8588 15.2744C33.5293 15.2912 33.2041 15.1943 32.9376 14.9999L32.7665 14.8739L32.8812 15.0619L33.3098 15.7312C33.3433 15.7706 33.3642 15.819 33.37 15.8703C33.37 15.9117 33.3343 15.9342 33.2891 15.9305C33.1972 15.9125 33.1098 15.8768 33.0316 15.8252L32.6556 15.6372C32.6121 15.6071 32.5646 15.583 32.5146 15.5658Z" fill="#737690"/>
<path d="M27.2036 19.4029C27.2743 19.3219 27.3641 19.2599 27.4649 19.2225C27.5657 19.185 27.6743 19.1734 27.7807 19.1886C27.8581 19.1977 27.9329 19.2222 28.0007 19.2606C28.0685 19.299 28.1279 19.3506 28.1755 19.4123C28.2208 19.4715 28.2466 19.5432 28.2493 19.6177C28.252 19.6921 28.2314 19.7656 28.1906 19.8278C28.1307 19.8882 28.0546 19.9299 27.9715 19.9479C27.8885 19.9659 27.8019 19.9595 27.7224 19.9293C27.5584 19.8655 27.4083 19.7704 27.2807 19.6492C27.2416 19.6207 27.2084 19.585 27.1829 19.5439C27.17 19.5248 27.1632 19.5022 27.1632 19.4791C27.1632 19.456 27.17 19.4334 27.1829 19.4142" fill="#6F4439"/>
<path d="M28.1116 18.835C28.0534 18.835 28.0421 19.211 27.7056 19.4629C27.369 19.7148 26.9535 19.6678 26.9535 19.7205C26.9535 19.743 27.0419 19.7957 27.2149 19.8051C27.4379 19.8171 27.6581 19.7506 27.8371 19.6171C28.0082 19.4894 28.1223 19.2997 28.1549 19.0888C28.1718 18.9271 28.138 18.8331 28.1116 18.835Z" fill="#161B46"/>
<path d="M22.7707 44.2808L21.2309 47.7588L28.7039 50.5543L30.3752 46.815L22.7707 44.2808Z" fill="#161B46"/>
<path d="M7.67049 65.4438L5.62693 69.8562C5.62693 69.8562 0.522728 69.1794 0.0658875 69.9596L8.40933 74.3081L11.8779 67.5645L7.67049 65.4438Z" fill="#737690"/>
<path d="M8.34909 70.7982C8.41777 70.8647 8.45957 70.9542 8.4665 71.0495C8.47344 71.1449 8.44503 71.2394 8.3867 71.3152C8.32279 71.3858 8.23445 71.4296 8.13953 71.4376C8.04461 71.4456 7.95018 71.4173 7.87532 71.3584C7.80257 71.288 7.75848 71.1931 7.75154 71.0921C7.74459 70.9911 7.7753 70.8911 7.83773 70.8113C7.91181 70.7439 8.00905 70.7076 8.10921 70.7101C8.20936 70.7125 8.30471 70.7535 8.37542 70.8245" fill="#E6E8F3"/>
<path d="M8.41107 74.3079L8.68555 73.7796L0.501904 69.7207C0.404183 69.7292 0.30923 69.7575 0.222898 69.8041C0.136568 69.8507 0.0606928 69.9144 -5.34058e-05 69.9914L8.41107 74.3079Z" fill="#161B46"/>
<path d="M5.53474 69.8449C5.51594 69.8863 5.71334 70.0104 5.8487 70.2454C5.98406 70.4804 6.00474 70.7116 6.05174 70.7154C6.09874 70.7191 6.15889 70.4465 5.98781 70.1645C5.81674 69.8825 5.54602 69.8017 5.53474 69.8449Z" fill="#161B46"/>
<path d="M4.4612 69.7603C4.43111 69.7961 4.574 69.9577 4.62476 70.204C4.67552 70.4503 4.62475 70.6552 4.66611 70.674C4.70747 70.6928 4.85412 70.4729 4.78268 70.1683C4.71124 69.8637 4.48376 69.7209 4.4612 69.7603Z" fill="#161B46"/>
<path d="M3.41588 70.5685C3.44784 70.5948 3.60387 70.4181 3.62079 70.138C3.63771 69.8579 3.48168 69.668 3.44596 69.6943C3.41024 69.7206 3.46852 69.9011 3.45912 70.1324C3.44972 70.3636 3.3764 70.5422 3.41588 70.5685Z" fill="#161B46"/>
<path d="M6.11768 68.8916C6.11768 68.9367 6.33387 68.9762 6.55947 69.1115C6.78507 69.2469 6.93547 69.4123 6.97119 69.3879C7.00691 69.3634 6.90915 69.1265 6.64219 68.9724C6.37523 68.8182 6.11392 68.8408 6.11768 68.8916Z" fill="#161B46"/>
<path d="M6.4409 67.8726C6.4409 67.8895 6.5819 67.9986 6.86578 68.0869C7.03253 68.1375 7.20494 68.1672 7.37901 68.1753C7.48165 68.1827 7.58468 68.1827 7.68732 68.1753C7.75134 68.1737 7.81474 68.1623 7.87532 68.1415C7.91765 68.1261 7.95363 68.0971 7.97748 68.0589C8.00134 68.0207 8.0117 67.9757 8.00692 67.9309C8.00094 67.8913 7.98576 67.8536 7.96258 67.821C7.93939 67.7883 7.90886 67.7616 7.87345 67.7429C7.82025 67.7152 7.76322 67.6955 7.70424 67.6846C7.60224 67.6615 7.49847 67.647 7.39405 67.6414C7.21786 67.6334 7.04153 67.6531 6.87142 67.6996C6.58379 67.7824 6.43715 67.9027 6.44843 67.9177C6.45971 67.9328 6.62139 67.8594 6.89774 67.8106C7.0585 67.7829 7.22213 67.776 7.38465 67.7899C7.47921 67.7984 7.5729 67.8148 7.66476 67.8388C7.76816 67.8594 7.85276 67.8989 7.85276 67.9497C7.85276 67.9704 7.85276 67.976 7.81892 67.9929C7.77644 68.0073 7.73213 68.0155 7.68732 68.0174C7.59118 68.0279 7.49452 68.0329 7.39781 68.0324C7.23369 68.0301 7.07011 68.0131 6.90902 67.9816C6.7558 67.9341 6.59935 67.8977 6.4409 67.8726Z" fill="#161B46"/>
<path d="M15.6097 72.5339L15.8691 77.39C15.8691 77.39 11.0432 79.1816 11.0037 80.084L20.4131 80.022L20.321 72.4399L15.6097 72.5339Z" fill="#737690"/>
<path d="M18.7154 76.9497C18.8076 76.9754 18.887 77.0345 18.9381 77.1154C18.9892 77.1964 19.0083 77.2935 18.9917 77.3878C18.9681 77.4801 18.9103 77.5599 18.83 77.6112C18.7497 77.6625 18.653 77.6814 18.5593 77.6642C18.462 77.636 18.3785 77.5728 18.325 77.4867C18.2715 77.4006 18.2519 77.2977 18.2698 77.1979C18.3036 77.1036 18.3726 77.0262 18.4625 76.982C18.5523 76.9378 18.6558 76.9303 18.7511 76.961" fill="#E6E8F3"/>
<path d="M20.4131 80.0219V79.4185L11.2819 79.661C11.1995 79.7141 11.1288 79.7836 11.0742 79.8651C11.0195 79.9465 10.9821 80.0383 10.9642 80.1347L20.4131 80.0219Z" fill="#161B46"/>
<path d="M15.7844 77.4219C15.7844 77.4689 16.0175 77.4859 16.2488 77.6306C16.48 77.7754 16.6041 77.969 16.6473 77.9502C16.6906 77.9314 16.6154 77.6645 16.3334 77.4934C16.0514 77.3223 15.7637 77.3806 15.7844 77.4219Z" fill="#161B46"/>
<path d="M14.7938 77.8508C14.7844 77.8978 14.9818 77.973 15.1472 78.1666C15.3127 78.3602 15.3578 78.5652 15.4048 78.5633C15.4518 78.5614 15.4744 78.2982 15.2713 78.0613C15.0683 77.8244 14.7938 77.8075 14.7938 77.8508Z" fill="#161B46"/>
<path d="M14.2485 79.0536C14.2918 79.063 14.3519 78.8299 14.2278 78.5779C14.1038 78.326 13.8857 78.2283 13.8669 78.2677C13.8481 78.3072 13.9853 78.4407 14.0831 78.6437C14.1808 78.8468 14.2034 79.0442 14.2485 79.0536Z" fill="#161B46"/>
<path d="M15.8483 76.3014C15.869 76.3428 16.0796 76.2751 16.3428 76.2882C16.606 76.3014 16.8109 76.3804 16.8335 76.3409C16.856 76.3014 16.6586 76.1379 16.3484 76.1266C16.0382 76.1153 15.8239 76.2657 15.8483 76.3014Z" fill="#161B46"/>
<path d="M15.6604 75.2579C15.8171 75.2962 15.9812 75.2923 16.136 75.2467C16.3074 75.213 16.474 75.1587 16.6323 75.085C16.7258 75.041 16.8163 74.9907 16.9031 74.9346C16.9559 74.9042 17.0036 74.8655 17.0441 74.8199C17.0738 74.7866 17.0917 74.7443 17.0947 74.6997C17.0978 74.6551 17.0859 74.6107 17.061 74.5736C17.037 74.5418 17.0061 74.5159 16.9706 74.498C16.935 74.4801 16.8959 74.4706 16.8561 74.4702C16.7956 74.4718 16.7355 74.4813 16.6775 74.4984C16.4054 74.5728 16.156 74.7137 15.9518 74.9083C15.7356 75.1169 15.6622 75.2843 15.6792 75.2993C15.6961 75.3143 15.8051 75.1677 16.027 74.9947C16.1558 74.8953 16.2966 74.8125 16.4462 74.7485C16.5344 74.7112 16.6256 74.6816 16.7188 74.6601C16.8185 74.6319 16.9068 74.63 16.9313 74.6733C16.9557 74.7165 16.9425 74.6977 16.9219 74.7278C16.8904 74.7597 16.855 74.7875 16.8166 74.8105C16.7366 74.8644 16.6537 74.914 16.5684 74.959C16.422 75.035 16.2691 75.0979 16.1116 75.147C15.9586 75.1728 15.8078 75.2099 15.6604 75.2579Z" fill="#161B46"/>
<path d="M37.1301 49.2211C37.1301 49.2211 18.2756 46.8599 17.1645 46.8599C14.557 46.8599 12.9195 48.847 12.5303 50.3811C12.2427 51.5091 6.43913 67.9121 6.43913 67.9121L10.7199 70.1305L17.016 58.9426L20.2252 53.3609L36.7692 55.9158L37.1301 49.2211Z" fill="#161B46"/>
<path d="M19.4467 52.8459C19.4467 52.8459 16.8617 52.8459 15.4667 54.9139C14.647 56.1303 14.9347 58.2979 14.9178 59.9392C14.8952 62.1707 15.4348 75.7669 15.4348 75.7669L20.7195 75.8552L21.8268 61.6857L21.7628 59.0669L32.3078 58.2058C32.3078 58.2058 33.2685 55.0098 30.9053 52.4831C30.6158 52.1597 19.4467 52.8459 19.4467 52.8459Z" fill="#161B46"/>
<path d="M35.519 44.6621C35.519 44.6621 39.687 51.0767 37.1302 55.897C35.9119 58.1925 32.2666 58.1906 32.2666 58.1906L28.5273 53.5094V45.7676L35.519 44.6621Z" fill="#161B46"/>
<path d="M32.2666 58.1908C32.2439 58.1763 32.22 58.1637 32.1952 58.1532L31.9846 58.0555L31.1724 57.6795L28.1644 56.3428L23.7107 54.3744L21.0787 53.2145C20.8475 53.1186 20.6256 53.0039 20.3812 52.9212C20.1365 52.8368 19.8849 52.7739 19.6292 52.7332C19.1073 52.6555 18.577 52.651 18.0538 52.72C17.5287 52.7824 17.0167 52.927 16.5366 53.1487C16.3009 53.2597 16.0819 53.4034 15.8862 53.5754C15.6958 53.7488 15.5339 53.9512 15.4067 54.1751C15.1578 54.6077 15.007 55.0897 14.9649 55.587C14.9443 55.8314 14.9649 56.0664 14.9649 56.3014C14.9649 56.5364 14.9649 56.7677 14.9649 56.997C14.9875 58.83 15.0063 60.4788 15.0213 61.8662C15.0364 63.2537 15.0571 64.3685 15.0683 65.1487C15.0683 65.5247 15.0815 65.8312 15.0853 66.0417C15.0853 66.1395 15.0853 66.2166 15.0853 66.273C15.0832 66.2992 15.0832 66.3256 15.0853 66.3519C15.0869 66.3256 15.0869 66.2993 15.0853 66.273C15.0853 66.2166 15.0853 66.1395 15.0853 66.0417C15.0853 65.8312 15.0853 65.5322 15.0853 65.1487C15.0853 64.3685 15.0853 63.248 15.0721 61.8662C15.059 60.4844 15.0514 58.8282 15.0383 56.997C15.0383 56.7677 15.0383 56.5364 15.0383 56.3014C15.0383 56.0664 15.027 55.8277 15.0477 55.5945C15.0886 55.1128 15.2356 54.646 15.4782 54.2278C15.5997 54.013 15.7545 53.8188 15.9369 53.6525C16.1255 53.4871 16.337 53.3497 16.5648 53.2445C17.0342 53.0275 17.5347 52.8854 18.0482 52.8234C18.5614 52.7563 19.0815 52.7607 19.5935 52.8366C19.8429 52.8779 20.0882 52.9408 20.3267 53.0246C20.5617 53.1054 20.7892 53.2126 21.0186 53.316L23.6506 54.4703L28.1118 56.418L31.1198 57.7227L31.9414 58.0724L32.1557 58.1608C32.1908 58.1767 32.2282 58.1869 32.2666 58.1908Z" fill="#737690"/>
<path d="M17.5367 46.8601C17.5367 46.8864 21.4941 47.332 26.3821 47.8546C31.2701 48.3773 35.235 48.7796 35.2388 48.7532C35.2425 48.7269 31.2814 48.2814 26.3934 47.7587C21.5053 47.2361 17.5404 46.8338 17.5367 46.8601Z" fill="#737690"/>
<path d="M22.1973 37.5149C21.8908 36.5391 20.8192 32.9483 21.0599 31.0552C21.2479 29.5512 22.6071 27.6073 23.0113 26.5733C23.1993 26.0863 24.724 25.5844 25.632 25.3156L26.5344 24.2496L26.6096 24.7704C26.8756 25.0745 27.2088 25.3126 27.5828 25.4656C27.9567 25.6186 28.3612 25.6825 28.7641 25.6521C30.1046 25.5318 31.2081 24.9847 31.9357 24.1763C35.4174 25.2385 35.4061 25.4754 36.0717 25.7404C36.9327 26.0826 34.3571 34.3339 34.3571 34.3339C34.3571 34.3339 33.434 39.5171 34.3026 41.2636C34.7914 42.2468 35.3573 43.3692 35.7727 44.2829C35.7727 44.2829 36.9308 46.49 36.6827 46.4336C36.1619 46.3133 32.5467 47.1856 29.1495 47.3736C22.8684 47.7045 21.6671 46.7739 21.6671 46.7739C21.9961 45.1665 22.547 39.5321 22.5451 38.4379C22.5488 38.2481 22.2518 37.6841 22.1973 37.5149Z" fill="#B75FDC"/>
<path d="M26.4233 24.5068C26.4233 24.5068 22.3306 25.5615 21.9301 26.1067C20.8416 27.5863 14.2842 37.7101 17.5027 40.7294C19.6121 42.7071 22.5787 38.5335 22.5787 38.5335L26.4233 24.5068Z" fill="#B75FDC"/>
<path d="M17.8959 36.4299C17.9929 36.4213 18.0891 36.405 18.1835 36.381L18.9675 36.2193C19.6349 36.0839 20.5692 35.8922 21.6408 35.738L21.5844 35.7061L21.9059 36.4994L22.6692 38.3625V38.3155L21.4848 39.7368L21.1558 40.1428C21.1148 40.1895 21.0783 40.2398 21.0467 40.2933C21.0467 40.2933 20.7441 40.4324 21.1783 40.1617L21.5299 39.7725L22.7444 38.3757L22.7632 38.3531L22.7519 38.3287L21.9999 36.4599C21.889 36.1892 21.7799 35.9241 21.6765 35.6685L21.6615 35.6309H21.6183C20.541 35.7907 19.6085 35.9937 18.9449 36.1479C18.6121 36.2249 18.3489 36.2907 18.1666 36.3359C18.0742 36.3605 17.9837 36.392 17.8959 36.4299Z" fill="#161B46"/>
<path d="M21.8324 35.9542C21.8319 35.8426 21.8218 35.7313 21.8023 35.6215C21.7722 35.3921 21.7346 35.0875 21.6876 34.7209C21.5472 33.7361 21.5138 32.7389 21.588 31.7468C21.69 30.7541 21.9769 29.7894 22.434 28.9023C22.605 28.5602 22.7611 28.2895 22.8701 28.1033C22.9315 28.0096 22.9862 27.9116 23.0337 27.8101C23.0337 27.8101 23.0111 27.8326 22.9773 27.8777C22.9435 27.9229 22.8946 27.9924 22.8344 28.0827C22.7141 28.2707 22.5486 28.5282 22.3663 28.8704C21.8848 29.7581 21.5844 30.7326 21.4827 31.7374C21.4072 32.7367 21.4514 33.7415 21.6143 34.7303C21.6688 35.1063 21.7233 35.4165 21.7609 35.6271C21.7761 35.7379 21.7999 35.8472 21.8324 35.9542Z" fill="#161B46"/>
<g opacity="0.3">
<path opacity="0.3" d="M35.2388 43.5117L27.4913 39.9397L28.0158 38.4075L26.8239 37.9526L24.8818 38.2064C24.4015 38.2698 23.9131 38.2217 23.4544 38.0658C22.9956 37.91 22.579 37.6506 22.2367 37.3077L27.0626 36.0876L32.5673 37.2607L33.966 33.2056L34.3119 34.3937L34.0243 36.9449L33.8363 39.701L35.2388 43.5117Z" fill="#2D3259"/>
</g>
<path d="M35.9777 25.6987C36.455 25.9078 36.8801 26.2198 37.2227 26.6124C37.5652 27.0051 37.8167 27.4686 37.9592 27.9698C38.2253 28.5631 38.4269 29.1833 38.5608 29.8197C39.2132 32.6961 40.6288 38.0917 40.6814 39.5318C40.783 42.1224 38.7225 42.8575 37.6095 43.0831C36.4966 43.3087 28.7735 39.3118 28.7735 39.3118L30.379 34.9483L35.0997 36.9016C35.0997 36.9016 34.0225 33.574 33.7104 32.2129C33.3983 30.8518 35.9777 25.6987 35.9777 25.6987Z" fill="#B75FDC"/>
<path d="M21.6126 35.2247C21.7065 34.7973 21.7212 34.3564 21.6558 33.9237C21.6014 33.6641 21.5919 33.397 21.6276 33.1341C21.6765 32.8766 21.9171 32.604 22.1784 32.6246L22.5732 34.5216L21.6126 35.2247Z" fill="#AE7461"/>
<path d="M21.7948 30.7733L23.1841 37.4774L26.4797 37.2781L25.504 30.6455C25.4914 30.5609 25.4487 30.4838 25.3837 30.4282C25.3188 30.3726 25.236 30.3423 25.1506 30.3428H22.1426C22.0895 30.3427 22.037 30.3545 21.9891 30.3774C21.9412 30.4002 21.899 30.4335 21.8656 30.4748C21.8323 30.5161 21.8086 30.5644 21.7963 30.616C21.7841 30.6677 21.7835 30.7214 21.7948 30.7733Z" fill="#161B46"/>
<path d="M25.5002 32.5158C25.4777 32.4548 25.4607 32.3918 25.4495 32.3278C25.4213 32.1868 25.3837 32.0044 25.3386 31.7845L25.1825 30.9798C25.1825 30.9422 25.1694 30.9009 25.16 30.8708C25.1475 30.8384 25.1275 30.8094 25.1017 30.7862C25.0757 30.7612 25.0431 30.7442 25.0077 30.7373C24.9689 30.7343 24.9299 30.7343 24.8911 30.7373H24.3704C23.6579 30.7373 23.0111 30.726 22.5449 30.7185L21.9809 30.7035C21.9129 30.7058 21.8448 30.7008 21.7778 30.6884C21.8452 30.68 21.913 30.6762 21.9809 30.6771H22.5449C23.0111 30.6771 23.6579 30.6771 24.3704 30.6771H24.8911C24.9349 30.6727 24.979 30.6727 25.0227 30.6771C25.0681 30.687 25.1102 30.7084 25.1449 30.7392C25.1787 30.7702 25.2045 30.8089 25.2201 30.852C25.231 30.8916 25.2398 30.9318 25.2464 30.9723C25.2991 31.2731 25.3461 31.5457 25.3874 31.7807L25.4758 32.3259C25.489 32.3884 25.4972 32.4519 25.5002 32.5158Z" fill="#737690"/>
<path d="M23.7387 31.0534C23.7244 31.0172 23.6975 30.9874 23.6629 30.9694C23.6284 30.9514 23.5885 30.9466 23.5507 30.9556C23.5208 30.9636 23.4938 30.9801 23.4732 31.0032C23.4525 31.0262 23.4389 31.0547 23.4341 31.0853C23.4329 31.1187 23.4407 31.1518 23.4565 31.1812C23.4724 31.2107 23.4958 31.2353 23.5244 31.2527C23.5538 31.2691 23.5874 31.2763 23.621 31.2732C23.6545 31.2702 23.6864 31.2572 23.7124 31.2357C23.7361 31.2124 23.7515 31.1819 23.7563 31.149C23.761 31.1161 23.7548 31.0825 23.7387 31.0534Z" fill="#F4F5FB"/>
<path d="M23.6486 33.076C23.5715 33.0948 21.8288 33.9953 21.8288 33.9953L20.9189 34.9541C20.9189 34.9541 20.5899 35.5181 20.8568 36.3754C21.1238 37.2326 21.5581 37.5466 22.5601 37.7948L24.4533 37.4959L25.4121 36.71C25.5037 36.634 25.5705 36.5324 25.604 36.4182C25.6375 36.304 25.6361 36.1824 25.6001 36.0689L25.5869 36.0295L25.6959 35.8415C25.7292 35.7857 25.7453 35.7214 25.7423 35.6565C25.7393 35.5917 25.7173 35.5292 25.679 35.4767C25.6272 35.4065 25.5497 35.3595 25.4634 35.3461C25.3772 35.3328 25.2891 35.354 25.2184 35.4053L24.1393 36.1949L23.3967 36.2927L23.2858 36.0501L24.3743 35.4861L25.758 34.4145C25.8016 34.381 25.8379 34.339 25.8647 34.291C25.8916 34.2431 25.9084 34.1902 25.9142 34.1355C25.92 34.0808 25.9147 34.0255 25.8985 33.973C25.8823 33.9205 25.8556 33.8718 25.82 33.8299C25.758 33.7567 25.672 33.7079 25.5773 33.692C25.4827 33.6762 25.3855 33.6944 25.303 33.7434L24.0171 34.4954L22.6748 35.0876L22.8872 34.5537L24.4645 33.3862C24.4645 33.3862 24.5999 32.8353 23.6486 33.076Z" fill="#AE7461"/>
<path d="M23.8064 32.1568C23.8064 32.1568 24.1692 31.9481 24.7727 32.1982C25.3762 32.4482 26.147 32.8261 26.147 32.8261L27.3032 33.1551L27.1659 32.8693C27.1659 32.8693 26.0248 32.9859 26.0793 32.1549L26.7674 32.185L27.3577 31.8823L28.5214 33.0103L28.9595 34.6102L30.2397 35.2757L29.2339 38.013L27.4273 37.011L25.1713 36.9677L24.3422 36.2966L24.2501 35.4449L23.4379 34.6177C23.4379 34.6177 23.3364 34.2041 23.7105 34.1646C24.0846 34.1252 24.9851 35.02 24.9851 35.02L25.8894 35.0407C25.8894 35.0407 26.0436 34.8997 25.9176 34.8189C25.7917 34.738 23.1277 33.4296 23.0093 33.1363C22.8908 32.843 22.7686 32.6512 23.0337 32.5723C23.2707 32.5367 23.5128 32.56 23.7387 32.64C23.7387 32.64 23.6052 32.2207 23.8064 32.1568Z" fill="#AE7461"/>
<path d="M26.0154 33.7925C25.6104 33.6252 25.2145 33.437 24.8291 33.2285C24.4331 33.0441 24.0472 32.8389 23.6729 32.6138C24.0778 32.7776 24.4738 32.9627 24.8592 33.1684C25.2556 33.3554 25.6415 33.5637 26.0154 33.7925Z" fill="#6F4439"/>
<path d="M26.5532 35.9186C26.5102 35.9388 26.4647 35.9534 26.4179 35.9618C26.3295 35.9844 26.1998 36.0182 26.0419 36.0464C25.8516 36.0813 25.658 36.0945 25.4647 36.0859C25.2258 36.073 24.9924 36.0089 24.7804 35.8979C24.4037 35.6873 24.0766 35.3981 23.8216 35.05C23.7219 34.9203 23.6449 34.8131 23.5941 34.7379C23.5643 34.7003 23.539 34.6593 23.5189 34.6157C23.6404 34.744 23.7546 34.8789 23.8611 35.0199C24.1209 35.3521 24.4435 35.6299 24.8105 35.8377C25.0145 35.9449 25.2385 36.0089 25.4685 36.0257C25.6568 36.0375 25.8458 36.0293 26.0325 36.0013C26.3521 35.9505 26.5513 35.9073 26.5532 35.9186Z" fill="#6F4439"/>
<path d="M30.2397 35.2758L30.1589 35.2288L29.9145 35.0953L28.9745 34.5952L28.9858 34.6084L28.5571 33.0047L27.3991 31.8767L27.3803 31.8579L27.3577 31.8711L26.7655 32.1719H26.7843L26.0962 32.1399H26.0549V32.1794C26.0439 32.3091 26.0693 32.4393 26.1282 32.5554C26.1957 32.6601 26.2915 32.7435 26.4045 32.796C26.6481 32.9019 26.9149 32.9433 27.1791 32.9164L27.1359 32.8919L27.2712 33.1796L27.3239 33.1175L26.1677 32.7848L25.0397 32.2715C24.6787 32.0835 24.2143 31.9181 23.7725 32.1136C23.7461 32.1233 23.722 32.1383 23.7016 32.1577C23.6812 32.1771 23.665 32.2005 23.6541 32.2264C23.6346 32.2728 23.625 32.3227 23.6259 32.373C23.625 32.4685 23.6383 32.5635 23.6654 32.655L23.7274 32.5949C23.5934 32.5519 23.4555 32.5223 23.3157 32.5065C23.1637 32.4793 23.007 32.5073 22.8739 32.5855C22.8359 32.6144 22.8104 32.6568 22.8025 32.7039C22.7948 32.7455 22.7948 32.7882 22.8025 32.8299C22.823 32.901 22.8481 32.9707 22.8777 33.0386L22.919 33.1382C22.9277 33.1577 22.9377 33.1766 22.9491 33.1946C22.9619 33.2111 22.9758 33.2268 22.9905 33.2416C23.0456 33.2924 23.104 33.3395 23.1653 33.3826C23.6432 33.6906 24.1364 33.9742 24.643 34.2324L25.3781 34.6084C25.4984 34.6723 25.6187 34.7324 25.739 34.7964C25.7935 34.8264 25.8744 34.8603 25.8819 34.8847C25.8894 34.9092 25.8612 34.9693 25.8217 35.0069L25.8556 34.9938L24.9513 34.9731L24.9833 34.9862C24.7181 34.7222 24.4271 34.4854 24.1147 34.2794C24.0364 34.2292 23.9532 34.187 23.8665 34.1534C23.7744 34.1161 23.6722 34.1115 23.577 34.1402C23.528 34.1551 23.4834 34.1817 23.447 34.2177C23.4106 34.2538 23.3836 34.2982 23.3683 34.347C23.3449 34.4396 23.3449 34.5365 23.3683 34.629V34.6403L24.2237 35.4732L24.2125 35.4487C24.2444 35.742 24.2764 36.0259 24.3065 36.3022V36.3173L24.3177 36.3267L25.1506 36.9941H25.16H25.1637L27.4291 37.0298H27.416L28.7602 37.7611L29.1136 37.9491L29.2039 37.9961C29.2245 38.0074 29.2358 38.0112 29.2358 38.0093L29.2076 37.9905L29.1193 37.9378L28.7733 37.7386L27.4404 36.9866H27.4291L25.1731 36.9339H25.1938L24.3666 36.2609L24.3817 36.2872C24.3516 36.0127 24.3215 35.7288 24.2914 35.4356V35.428L24.282 35.4186L23.4717 34.5896L23.483 34.6102C23.4492 34.458 23.483 34.2662 23.6409 34.2342C23.7232 34.2226 23.8071 34.2283 23.887 34.2509C23.967 34.2736 24.0414 34.3127 24.1053 34.3658C24.4113 34.5684 24.696 34.8015 24.9551 35.0614L24.9682 35.0746H24.9757L25.8781 35.099H25.8988L25.912 35.0859C25.9404 35.0591 25.9645 35.028 25.9834 34.9938C25.9952 34.9731 26.0023 34.9501 26.0042 34.9264C26.0062 34.9027 26.0029 34.8788 25.9947 34.8565C25.9734 34.8172 25.9397 34.7861 25.8988 34.7682L25.8086 34.7212L25.4476 34.5332L24.7144 34.1572C24.2116 33.9002 23.7222 33.6178 23.248 33.3112C23.1939 33.2686 23.143 33.2221 23.0957 33.172C23.0847 33.1617 23.0746 33.1504 23.0657 33.1382C23.0575 33.1267 23.0512 33.114 23.0469 33.1006L23.0036 33.001C22.9547 32.8769 22.8795 32.719 22.9641 32.6626C23.0789 32.6002 23.2118 32.5796 23.3401 32.6043C23.473 32.6182 23.6041 32.6459 23.7312 32.687L23.8177 32.7152L23.7932 32.6268C23.7694 32.545 23.7574 32.4602 23.7575 32.3749C23.7575 32.2922 23.7857 32.2208 23.8383 32.2057C24.0283 32.1279 24.2374 32.1096 24.4381 32.1531C24.6405 32.1981 24.8359 32.2701 25.019 32.3674L26.1338 32.875L27.2919 33.204L27.3859 33.2303L27.3427 33.142L27.2054 32.8562L27.1941 32.8299H27.1622C26.9144 32.8554 26.6641 32.8179 26.4346 32.7208C26.3302 32.6703 26.2431 32.5898 26.1846 32.4896C26.1344 32.3882 26.1123 32.2753 26.1207 32.1625L26.0774 32.2001L26.7655 32.2283H26.7768L27.3671 31.9218H27.3239L28.4895 33.0498V33.0367C28.6643 33.6608 28.8147 34.2004 28.9369 34.6347V34.6441L29.892 35.1272L30.1401 35.2494L30.2397 35.2758Z" fill="#6F4439"/>
<path d="M35.0977 42.3294C35.0599 42.3051 35.0203 42.2837 34.9792 42.2655L34.6314 42.0925L33.3154 41.4646L28.7828 39.3214L28.8072 39.3797C29.1005 38.5788 29.4163 37.7121 29.7472 36.8154C29.9766 36.1799 30.2022 35.5614 30.4184 34.9636L30.3545 34.9918L34.9736 36.9319H34.983C35.3616 36.9647 35.734 37.0482 36.0903 37.1801C36.3581 37.2787 36.6027 37.4317 36.8085 37.6294C36.9386 37.7548 37.0422 37.905 37.113 38.0712C37.1356 38.1276 37.1488 38.1727 37.1582 38.2028C37.1605 38.219 37.1649 38.2348 37.1713 38.2498C37.1747 38.2337 37.1747 38.2171 37.1713 38.2009C37.1623 38.1543 37.1497 38.1084 37.1337 38.0637C37.0687 37.8916 36.9689 37.7348 36.8404 37.6031C36.6337 37.3969 36.3867 37.2356 36.1148 37.1293C35.7529 36.9892 35.3732 36.8999 34.9868 36.8643H34.998L30.3921 34.8997L30.3451 34.8809L30.3281 34.9279C30.11 35.5257 29.8845 36.1442 29.6551 36.7778C29.328 37.6745 29.014 38.5431 28.7151 39.344L28.7001 39.3853L28.7395 39.4041L33.2854 41.5135L34.6014 42.1189L34.9567 42.2768C35.0026 42.2972 35.0497 42.3147 35.0977 42.3294Z" fill="#161B46"/>
<path d="M33.5224 30.3519C33.6341 30.1731 33.7364 29.9886 33.8288 29.7992C34.0168 29.4551 34.2838 28.9908 34.6165 28.4982C34.9493 28.0056 35.2821 27.5845 35.5321 27.2837C35.6738 27.1282 35.8068 26.965 35.9307 26.7949C35.9307 26.7949 35.8799 26.8288 35.8009 26.9058C35.722 26.9829 35.6129 27.0938 35.4795 27.2386C34.7947 27.9985 34.2184 28.8494 33.7668 29.7672C33.6822 29.942 33.6164 30.0868 33.5788 30.1902C33.5519 30.2409 33.5328 30.2954 33.5224 30.3519Z" fill="#161B46"/>
<path d="M33.3362 31.2729C33.3439 31.3544 33.3616 31.4346 33.3888 31.5117C33.4302 31.6621 33.4922 31.8877 33.5768 32.1453C33.7366 32.6811 33.9641 33.418 34.2235 34.2283C34.483 35.0386 34.7311 35.7699 34.9173 36.2963C35.0113 36.5576 35.0883 36.7701 35.1466 36.9167C35.1706 36.9942 35.2034 37.0686 35.2444 37.1386C35.231 37.0585 35.2102 36.9798 35.1823 36.9036C35.1297 36.7362 35.062 36.5276 34.9831 36.2738C34.8063 35.7229 34.5751 34.9991 34.3175 34.2058C34.06 33.4124 33.8212 32.683 33.6426 32.1378L33.4302 31.5136C33.4073 31.4303 33.3758 31.3497 33.3362 31.2729Z" fill="#161B46"/>
</svg>
