<svg width="156" height="174" viewBox="0 0 156 174" fill="none" xmlns="http://www.w3.org/2000/svg">
<rect width="156" height="174" rx="16" fill="#F8F3FA"/>
<path d="M71.7609 116.185C68.0125 116.168 64.2458 116.153 60.507 116.491C56.7683 116.829 53.0172 117.537 49.7685 118.877C48.4885 119.401 47.1829 120.132 47.0038 121.105C46.8104 122.156 48.0478 123.067 49.479 123.493C52.4281 124.344 55.9776 123.629 58.9465 122.616C61.9154 121.603 64.7676 120.29 68.0042 119.881C70.7022 119.536 73.4435 119.876 76.0323 120.358C78.6211 120.839 81.1494 121.473 83.8169 121.759C86.4845 122.044 89.381 121.949 91.8003 121.05C93.0945 120.577 94.2943 119.749 94.3185 118.786C94.3369 118.101 93.7436 117.478 92.9444 117.068C92.1452 116.659 91.1615 116.435 90.1757 116.258C83.8571 115.122 77.0515 115.661 70.443 116.211" fill="#EFDAF7"/>
<path d="M64.1407 83.1736C63.9971 83.1877 61.591 91.194 61.591 91.194C61.591 91.194 53.2301 98.4095 51.9722 101.156C50.7142 103.903 46.3607 112.379 46.3607 112.379L51.3981 114.912L65.6153 97.9508C65.6153 97.9508 67.1884 97.2642 67.7625 96.3467C68.3366 95.4293 74.9752 84.7242 74.9752 84.7242L72.7239 79.8613L64.1407 83.1736Z" fill="#B78876"/>
<path d="M81.9572 83.8546C81.9572 83.8546 88.7366 88.9651 89.4204 89.9501C89.5442 90.1302 89.4204 90.6761 89.4204 90.6761C89.4204 90.6761 85.6269 93.0175 84.58 96.2454C83.5332 99.4732 79.0924 110.449 79.0924 110.449C79.0924 110.449 83.7724 113.434 83.9328 113.111C84.0932 112.787 95.167 96.8448 96.135 95.5531C97.1031 94.2614 98.5383 92.4575 98.7804 90.8394C99.0224 89.2212 98.4595 86.1566 95.8761 83.4128C93.2927 80.6689 89.7497 76.6362 89.7497 76.6362L80.3869 78.4908L80.0605 82.1914L81.9572 83.8433" fill="#B78876"/>
<path d="M65.8798 68.7847C65.8798 68.7847 66.4877 73.2367 68.0299 75.2291C69.572 77.2216 73.6132 80.8772 75.6056 81.4541C77.598 82.031 81.4788 84.7242 81.4788 84.7242L82.2161 84.1613L81.0623 80.8772L84.8502 82.3546L91.3228 76.7572C91.3228 76.7572 85.9252 71.6326 84.5462 70.0539C83.4078 68.8014 82.2065 67.6076 80.9469 66.4771L66.8761 68.0389L65.7701 69.0661" fill="#161B46"/>
<path d="M65.9501 70.0542C65.9501 70.0542 66.2006 74.4049 66.8197 75.5024L63.2964 83.2499L72.9546 82.3887C72.9546 82.3887 75.0118 85.9768 75.0596 86.0725C75.1075 86.1682 78.5633 82.9572 78.5633 82.9572L76.3513 73.6395L65.9501 70.0542Z" fill="#161B46"/>
<path d="M81.4788 84.7245C81.413 84.6935 81.3491 84.6587 81.2874 84.6204L80.7443 84.3024L78.7744 83.0895L77.4207 82.2452C76.9311 81.9469 76.4245 81.6036 75.8589 81.2996C75.5775 81.1449 75.296 80.9929 74.9809 80.8522C74.6657 80.7115 74.3561 80.6045 74.024 80.4723C73.3441 80.2027 72.6855 79.8819 72.0541 79.5126C70.8409 78.8015 69.7493 77.9009 68.8206 76.8448C68.0606 75.9834 67.4293 75.0166 66.9464 73.9743C66.6196 73.2723 66.3687 72.5374 66.1978 71.7821C66.1444 71.5148 66.1021 71.3065 66.0853 71.163C66.0708 71.0916 66.0632 71.0191 66.0627 70.9463C66.0866 71.0159 66.1045 71.0875 66.1162 71.1602C66.1415 71.3009 66.1894 71.5063 66.2541 71.7708C66.4435 72.5146 66.7065 73.2377 67.0393 73.9293C67.5318 74.951 68.1656 75.8983 68.9219 76.7435C69.8511 77.7863 70.9396 78.6753 72.147 79.3776C72.7678 79.7423 73.415 80.0603 74.0831 80.3288C74.4068 80.4582 74.736 80.5708 75.0456 80.7171C75.3551 80.8634 75.6478 81.0154 75.9292 81.173C76.4921 81.4854 77.0042 81.8315 77.4911 82.1326L78.8363 82.991L80.778 84.2433L81.3015 84.5894C81.3661 84.6267 81.4256 84.6721 81.4788 84.7245Z" fill="#45496B"/>
<path d="M85.3455 81.7581C85.2841 81.7327 85.2248 81.7026 85.1682 81.668L84.6785 81.3866C84.2536 81.1418 83.6457 80.7759 82.8999 80.3116C81.4112 79.3857 79.3879 78.0602 77.2266 76.4702C75.0653 74.8802 73.1826 73.3746 71.8487 72.2236C71.1817 71.6608 70.6499 71.188 70.2868 70.856L69.8731 70.4732C69.7775 70.386 69.7296 70.3381 69.7352 70.3325C69.791 70.3674 69.8437 70.4069 69.8928 70.4507L70.3262 70.8137L71.9162 72.1448C73.2642 73.2705 75.1582 74.7733 77.3138 76.352C79.4695 77.9308 81.4844 79.276 82.9562 80.2243L84.7066 81.35L85.1822 81.6539C85.2405 81.6823 85.2952 81.7172 85.3455 81.7581Z" fill="white"/>
<path d="M86.1644 81.125C86.1027 81.1022 86.0441 81.072 85.9899 81.0349L85.5115 80.7535C85.0978 80.5058 84.504 80.1372 83.7751 79.67C82.3202 78.7414 80.339 77.4046 78.2199 75.8371C76.1009 74.2696 74.2463 72.7612 72.9321 71.6384C72.2736 71.0755 71.7473 70.6168 71.3928 70.2904L70.9819 69.9161C70.9309 69.8744 70.8846 69.8272 70.844 69.7754C70.901 69.8085 70.9538 69.8482 71.0016 69.8936L71.4293 70.2482L72.9997 71.5596C74.3279 72.6599 76.1909 74.1514 78.3072 75.7189C80.4234 77.2864 82.3905 78.6316 83.8314 79.5856L85.5424 80.7113L86.0068 81.018C86.0622 81.0491 86.1149 81.0849 86.1644 81.125Z" fill="white"/>
<path d="M91.7646 91.4782C91.4188 91.2374 91.0491 91.0327 90.6615 90.8675C90.2575 90.7492 89.8427 90.6719 89.4232 90.6368C89.8534 90.5494 90.2993 90.582 90.7122 90.7308C91.1251 90.8797 91.4892 91.1393 91.7646 91.481V91.4782Z" fill="#995037"/>
<path d="M65.8629 97.6132C65.8432 97.647 65.6406 97.557 65.4155 97.4106C65.1903 97.2643 65.0215 97.1292 65.044 97.087C65.0665 97.0448 65.2663 97.1433 65.4943 97.2868C65.7222 97.4303 65.8854 97.5795 65.8629 97.6132Z" fill="#995037"/>
<path d="M87.5715 53.6445L93.1266 55.4175L91.6773 59.1969C91.6773 59.1969 85.3511 58.9971 84.2845 58.7663C83.2179 58.5356 83.2376 56.7964 83.2376 56.7964L87.5715 53.6445Z" fill="#B78876"/>
<path d="M92.5779 55.7044L94.3789 53.6895L96.4277 53.7148C96.4277 53.7148 97.9135 54.3114 98.2062 54.3058C98.195 54.415 98.1539 54.5191 98.0874 54.6065C98.0208 54.6939 97.9315 54.7612 97.8291 54.8011C97.8291 54.8011 98.5552 54.801 98.7156 55.0459C98.876 55.2907 98.6002 55.7776 98.3694 56.059C98.4266 56.2917 98.4485 56.5317 98.4342 56.771C98.4184 57.0145 98.3302 57.2477 98.1809 57.4407L97.7672 57.6631C97.8485 57.7389 97.9055 57.8371 97.931 57.9453C97.9566 58.0534 97.9495 58.1668 97.9107 58.2709C97.77 58.5256 97.5641 58.7383 97.3141 58.8872C97.3141 58.8872 97.6912 59.042 97.573 59.3544C97.4548 59.6668 97.3507 59.8131 97.1115 59.9172C96.8723 60.0213 94.6547 60.314 94.1763 60.1986C93.6979 60.0833 91.6914 59.2165 91.6914 59.2165L92.5779 55.7044Z" fill="#B78876"/>
<path d="M98.3948 56.1519C98.3948 56.1744 98.0853 56.1125 97.5871 56.0646C97.3395 56.0421 97.044 56.0224 96.7148 56.0252C96.5487 56.0252 96.3799 56.0252 96.1969 56.0252C95.9929 56.0526 95.786 56.0024 95.6172 55.8845C95.53 55.8149 95.4734 55.7139 95.4596 55.6031C95.453 55.496 95.4806 55.3896 95.5384 55.2992C95.5903 55.2181 95.6579 55.1483 95.7371 55.0937C95.8164 55.0391 95.9057 55.0008 96 54.9812C96.1564 54.9468 96.3155 54.9261 96.4755 54.9193L96.8864 54.8883C97.1561 54.8542 97.4283 54.8448 97.6997 54.8602C97.4358 54.9273 97.1665 54.9706 96.8949 54.9896C96.65 55.029 96.332 55.0375 96.0337 55.1135C95.9576 55.1295 95.8855 55.1607 95.8217 55.2051C95.7579 55.2496 95.7036 55.3065 95.6623 55.3724C95.6167 55.4347 95.5963 55.5119 95.6052 55.5886C95.6141 55.6652 95.6515 55.7358 95.7101 55.786C95.8517 55.8803 96.0229 55.9193 96.1913 55.8958C96.3714 55.8958 96.5487 55.8958 96.7148 55.8958C97.0116 55.8998 97.3078 55.9243 97.6012 55.969C97.8732 55.9911 98.1406 56.0528 98.3948 56.1519Z" fill="#995037"/>
<path d="M97.7813 57.4974C97.7813 57.5171 97.5477 57.4692 97.1734 57.4383C96.6779 57.421 96.1863 57.3426 95.71 57.2047C95.5702 57.169 95.4329 57.1239 95.2992 57.0696C95.2237 57.0348 95.1615 56.9766 95.1219 56.9036C95.0946 56.8364 95.0794 56.765 95.0768 56.6925C95.067 56.6235 95.0738 56.553 95.0965 56.4871C95.1149 56.4273 95.1435 56.3711 95.181 56.3211C95.2419 56.2289 95.3203 56.1495 95.4117 56.0875C95.5419 55.9981 95.6956 55.9492 95.8536 55.9468C95.9633 55.9468 96.0224 55.9693 96.0196 55.9777C95.8238 55.9937 95.6356 56.0606 95.4736 56.1719C95.3966 56.2301 95.3316 56.3027 95.2823 56.3858C95.2545 56.4296 95.2328 56.4769 95.2176 56.5265C95.2086 56.5777 95.2086 56.6301 95.2176 56.6813C95.2233 56.7363 95.2366 56.7903 95.257 56.8417C95.2818 56.8867 95.3216 56.9215 95.3695 56.9402C95.4966 56.9885 95.6263 57.0299 95.7579 57.064C96.2276 57.2014 96.709 57.2956 97.1959 57.3454C97.399 57.358 97.5977 57.4096 97.7813 57.4974Z" fill="#995037"/>
<path d="M97.3479 58.8339C97.0612 58.7908 96.7787 58.723 96.5036 58.6313L95.5947 58.3724C95.4062 58.3295 95.2245 58.2614 95.0543 58.1697C94.9603 58.1063 94.8861 58.0175 94.8405 57.9137C94.8172 57.8568 94.8069 57.7955 94.8103 57.7341C94.8137 57.6728 94.8308 57.613 94.8602 57.5591C94.9205 57.4644 95.0037 57.3865 95.1021 57.3324C95.2004 57.2783 95.3108 57.2498 95.423 57.2495C95.6256 57.2495 95.8085 57.2495 95.9858 57.2664C96.3034 57.2835 96.6194 57.323 96.9314 57.3846C97.1416 57.4282 97.3477 57.4894 97.5477 57.5675C97.6884 57.6238 97.7616 57.666 97.756 57.6745C97.7503 57.6829 97.438 57.5703 96.9117 57.4887C96.6032 57.4404 96.2922 57.4103 95.9802 57.3987C95.8029 57.3987 95.6116 57.3818 95.4314 57.3987C95.343 57.3975 95.2558 57.4186 95.1776 57.4599C95.0995 57.5012 95.0329 57.5614 94.984 57.6351C94.9503 57.7104 94.9467 57.7958 94.9739 57.8738C95.0011 57.9517 95.0571 58.0163 95.1303 58.0544C95.2868 58.1414 95.4544 58.2068 95.6284 58.2485L96.529 58.53C96.8103 58.6071 97.0844 58.7088 97.3479 58.8339Z" fill="#995037"/>
<path d="M96.7485 59.6444C96.5013 59.6731 96.2511 59.6598 96.0084 59.605C95.7411 59.5622 95.4776 59.4982 95.2204 59.4136C95.0521 59.3726 94.9012 59.279 94.7898 59.1462C94.733 59.065 94.6986 58.9701 94.6902 58.8713C94.6818 58.7724 94.6997 58.6731 94.742 58.5834C94.7846 58.4956 94.8492 58.4204 94.9297 58.3652C95.0101 58.3099 95.1035 58.2765 95.2007 58.2682C95.3669 58.2571 95.5338 58.2762 95.6932 58.3245C95.9535 58.3912 96.2099 58.472 96.4615 58.5665C96.6994 58.6394 96.9258 58.7455 97.134 58.8817C96.8947 58.8217 96.6589 58.7484 96.4277 58.6622C96.211 58.5975 95.9521 58.5215 95.6622 58.454C95.5174 58.4154 95.3673 58.4002 95.2176 58.4089C95.1449 58.4168 95.0754 58.4429 95.0154 58.4847C94.9554 58.5265 94.9068 58.5827 94.8743 58.6481C94.8426 58.7129 94.829 58.785 94.8349 58.8568C94.8409 58.9287 94.8661 58.9975 94.908 59.0562C95.0011 59.1657 95.126 59.2435 95.2654 59.2785C95.5149 59.3664 95.7696 59.4388 96.0281 59.4952C96.4699 59.5993 96.7513 59.6218 96.7485 59.6444Z" fill="#995037"/>
<path d="M97.877 54.8011C97.891 54.8518 97.2494 55.0122 96.4502 54.9643C96.3517 54.9643 96.2532 54.9503 96.1688 54.9362C96.1237 54.9362 96.0703 54.9137 96.0337 54.9109H95.9858C95.9748 54.908 95.9631 54.908 95.9521 54.9109C95.8359 55.0069 95.7116 55.0926 95.5806 55.167C95.4602 55.2473 95.32 55.2931 95.1754 55.2992C95.1754 55.2767 95.3161 55.2176 95.5271 55.0769C95.6517 54.9915 95.7702 54.8974 95.8817 54.7955C95.9094 54.7788 95.9399 54.7673 95.9718 54.7617H96.0562L96.1885 54.7814C96.2785 54.7955 96.3742 54.8011 96.4699 54.8067C96.8582 54.8264 97.2156 54.8067 97.4689 54.8067C97.6045 54.7925 97.7411 54.7906 97.877 54.8011Z" fill="#995037"/>
<path d="M94.9136 56.6358C94.8939 56.6358 94.9474 56.5289 94.984 56.3544C95.026 56.1339 95.0561 55.9112 95.0741 55.6874C95.0932 55.4697 95.0633 55.2505 94.9868 55.0458C94.9249 54.8882 94.8517 54.8066 94.8686 54.7925C94.8855 54.7785 94.984 54.8376 95.0797 54.998C95.1944 55.2116 95.2433 55.4545 95.2204 55.6959C95.2049 55.9308 95.1586 56.1626 95.0825 56.3853C95.0178 56.5823 94.9277 56.6499 94.9136 56.6358Z" fill="#995037"/>
<path d="M91.7618 54.9844L90.8246 59.1662L91.6802 59.1972L92.8987 55.3446L91.7618 54.9844Z" fill="#161B46"/>
<path d="M93.0652 54.9299L91.3814 54.252L91.1691 54.7793L92.8529 55.4572L93.0652 54.9299Z" fill="#161B46"/>
<path d="M86.291 18.5152C86.0487 18.4467 85.8288 18.3155 85.6532 18.135C85.4776 17.9546 85.3526 17.731 85.2907 17.487C85.2288 17.2429 85.2323 16.9868 85.3007 16.7445C85.369 16.5021 85.5 16.282 85.6803 16.1063C86.0219 15.8239 86.4232 15.6227 86.8539 15.5182C87.1288 15.3931 87.4398 15.3721 87.7291 15.4591C87.8792 15.5498 88.0018 15.6798 88.0836 15.835C88.1654 15.9902 88.2034 16.1647 88.1934 16.3399C88.1934 16.6917 88.1146 17.0434 88.154 17.3952C88.2638 17.2855 88.472 17.3783 88.5114 17.5275C88.525 17.6039 88.5168 17.6827 88.488 17.7548C88.4592 17.8269 88.4107 17.8895 88.3482 17.9355C88.2227 18.0254 88.0911 18.1062 87.9542 18.1775C87.8866 18.2142 87.8269 18.264 87.7786 18.3239C87.7303 18.3838 87.6943 18.4526 87.6728 18.5265" fill="#161B46"/>
<path d="M86.882 18.9741C86.7431 19.046 86.5907 19.0882 86.4346 19.0979C86.3564 19.1024 86.2788 19.0827 86.2123 19.0414C86.1458 19.0001 86.0937 18.9392 86.0631 18.8672C86.0461 18.7984 86.0489 18.7261 86.0713 18.6589C86.0938 18.5916 86.1348 18.5321 86.1897 18.4873C86.3017 18.399 86.4312 18.3356 86.5697 18.3015C86.8577 18.2124 87.1522 18.1456 87.4505 18.1017C87.5717 18.0735 87.6979 18.0735 87.8191 18.1017C87.8809 18.1188 87.9354 18.1555 87.9745 18.2062C88.0136 18.257 88.0351 18.3191 88.0358 18.3831C88.0358 18.5351 87.8754 18.6336 87.7347 18.6983C87.3829 18.8565 87.0106 18.9645 86.6287 19.0191" fill="#45496B"/>
<path d="M83.702 29.3725C83.3595 28.1466 83.1231 26.8934 82.9956 25.6269C82.871 24.3537 83.0644 23.0696 83.5584 21.8896C83.6401 21.7123 84.2986 20.5417 84.4871 20.5754C84.6222 20.5979 84.1916 21.7011 84.2507 21.8277C84.7946 23.0376 84.9566 24.3845 84.7151 25.6888C84.5112 26.953 84.1666 28.1905 83.6879 29.3782" fill="#161B46"/>
<path d="M86.3502 41.1048C84.3802 40.9247 82.9478 38.3497 83.0857 36.3798L83.93 24.5265C84.0538 21.3324 86.0124 18.7434 89.2009 18.9544L89.4823 18.991C90.9048 19.1692 92.2082 19.8759 93.1336 20.9707C94.0591 22.0656 94.5388 23.4685 94.4775 24.9008C94.3565 27.6671 94.1961 30.7205 93.985 32.1867C93.5657 35.2232 90.4645 35.316 90.4645 35.316C90.4645 35.316 90.3969 36.0224 90.3238 36.9201C90.2852 37.3976 90.1524 37.8628 89.9331 38.2887C89.7137 38.7146 89.4122 39.0928 89.0459 39.4016C88.6796 39.7103 88.2558 39.9434 87.7989 40.0875C87.342 40.2315 86.8611 40.2837 86.3839 40.2408L86.3502 41.1048Z" fill="#B78876"/>
<path d="M90.4673 35.3159C89.063 35.1368 87.7396 34.5586 86.6541 33.6499C86.6541 33.6499 87.3435 35.9829 90.4138 36.0898L90.4673 35.3159Z" fill="#995037"/>
<path d="M92.7721 26.8311C92.7593 26.9444 92.7026 27.0482 92.6143 27.1202C92.5259 27.1923 92.4128 27.2269 92.2993 27.2166C92.2434 27.2141 92.1887 27.2005 92.1382 27.1765C92.0877 27.1525 92.0425 27.1187 92.0052 27.077C91.968 27.0353 91.9395 26.9866 91.9214 26.9338C91.9032 26.8809 91.8958 26.8249 91.8997 26.7692C91.9124 26.6558 91.9691 26.552 92.0574 26.48C92.1458 26.4079 92.2589 26.3733 92.3724 26.3836C92.4283 26.3861 92.4831 26.3997 92.5335 26.4237C92.584 26.4477 92.6292 26.4815 92.6665 26.5232C92.7037 26.5649 92.7322 26.6136 92.7503 26.6665C92.7685 26.7193 92.7759 26.7753 92.7721 26.8311Z" fill="#161B46"/>
<path d="M93.6726 26.0796C93.6135 26.1303 93.3152 25.846 92.8452 25.7982C92.3753 25.7504 92.001 25.9305 91.9644 25.8685C91.9278 25.8066 92.0094 25.7447 92.1726 25.6547C92.3918 25.5387 92.6418 25.4944 92.8874 25.528C93.1308 25.5561 93.3587 25.6617 93.5375 25.8292C93.667 25.9502 93.7035 26.0599 93.6726 26.0796Z" fill="#161B46"/>
<path d="M88.1287 26.4341C88.1152 26.5476 88.058 26.6515 87.9692 26.7235C87.8804 26.7955 87.767 26.83 87.6531 26.8196C87.5974 26.8172 87.5427 26.8035 87.4924 26.7795C87.442 26.7555 87.397 26.7216 87.36 26.6799C87.323 26.6382 87.2947 26.5894 87.2769 26.5366C87.2591 26.4837 87.2521 26.4278 87.2563 26.3722C87.2691 26.2589 87.3257 26.1551 87.4141 26.083C87.5025 26.011 87.6155 25.9764 87.7291 25.9866C87.7849 25.9891 87.8397 26.0028 87.8902 26.0267C87.9407 26.0507 87.9859 26.0845 88.0231 26.1262C88.0603 26.1679 88.0889 26.2166 88.107 26.2695C88.1251 26.3224 88.1325 26.3783 88.1287 26.4341Z" fill="#161B46"/>
<path d="M89.0715 25.697C89.0124 25.7477 88.7112 25.4634 88.2441 25.4156C87.7769 25.3678 87.3998 25.5507 87.3632 25.486C87.3267 25.4212 87.4083 25.3621 87.5715 25.2721C87.7911 25.1575 88.0407 25.1133 88.2863 25.1454C88.5295 25.1762 88.7568 25.2825 88.9364 25.4494C89.0658 25.5676 89.1024 25.6745 89.0715 25.697Z" fill="#161B46"/>
<path d="M90.3125 29.4988C90.5684 29.4509 90.8296 29.4367 91.0892 29.4566C91.2102 29.4566 91.3256 29.4566 91.3706 29.3694C91.3966 29.2475 91.3838 29.1206 91.334 29.0064L91.0948 28.0524C90.7684 26.6987 90.5461 25.59 90.5995 25.5787C90.653 25.5674 90.9654 26.6537 91.2946 28.0073C91.3734 28.3422 91.4466 28.6602 91.517 28.9642C91.5734 29.1177 91.5734 29.2862 91.517 29.4397C91.4951 29.4802 91.4642 29.515 91.4266 29.5413C91.389 29.5677 91.3457 29.585 91.3003 29.5917C91.232 29.5987 91.1631 29.5987 91.0948 29.5917C90.8312 29.5935 90.5684 29.5623 90.3125 29.4988Z" fill="#161B46"/>
<path d="M88.8829 29.6481C88.9589 29.6481 88.897 30.1631 89.2853 30.5768C89.6737 30.9905 90.2225 31.0018 90.2168 31.0749C90.2168 31.1059 90.0846 31.1565 89.8566 31.134C89.5586 31.1015 89.2816 30.965 89.0743 30.7485C88.8779 30.5388 88.7692 30.2619 88.7703 29.9746C88.776 29.7607 88.8491 29.6425 88.8829 29.6481Z" fill="#161B46"/>
<path d="M89.2825 23.7976C89.2206 23.9186 88.7619 23.7976 88.2047 23.7976C87.6475 23.7976 87.186 23.8905 87.1297 23.7667C87.1043 23.7076 87.1944 23.5978 87.3886 23.4853C87.6464 23.3641 87.9284 23.3035 88.2132 23.3078C88.4981 23.3122 88.7781 23.3816 89.0321 23.5106C89.2234 23.626 89.3107 23.7385 89.2825 23.7976Z" fill="#161B46"/>
<path d="M93.6895 24.5011C93.5938 24.5968 93.2843 24.4448 92.8987 24.3914C92.5132 24.3379 92.1755 24.3745 92.1136 24.2535C92.0882 24.1944 92.153 24.0959 92.3077 24.0143C92.5138 23.914 92.7459 23.8806 92.9719 23.9186C93.1974 23.9491 93.4083 24.0472 93.5769 24.2C93.6895 24.3407 93.7176 24.4561 93.6895 24.5011Z" fill="#161B46"/>
<path d="M83.8877 26.8003C83.8399 26.7722 81.8756 25.9195 81.6814 28.0076C81.4872 30.0957 83.6232 29.8593 83.6317 29.8002C83.6401 29.7411 83.8877 26.8003 83.8877 26.8003Z" fill="#B78876"/>
<path d="M83.0688 28.9503C83.0688 28.9503 83.0294 28.9728 82.9647 28.9954C82.872 29.0261 82.7708 29.019 82.6833 28.9757C82.5568 28.8776 82.4584 28.7479 82.3982 28.5997C82.3379 28.4514 82.3178 28.2899 82.34 28.1314C82.3524 27.9516 82.4043 27.7767 82.4919 27.6192C82.5171 27.5558 82.5575 27.4995 82.6095 27.4554C82.6615 27.4112 82.7235 27.3805 82.7902 27.3659C82.8332 27.3594 82.8771 27.3678 82.9145 27.3899C82.9519 27.4119 82.9806 27.4462 82.9957 27.487C83.0182 27.5461 82.9956 27.5883 83.0125 27.5911C83.0294 27.5939 83.0604 27.5601 83.0519 27.4729C83.0444 27.4204 83.0197 27.3719 82.9816 27.335C82.9278 27.2861 82.8572 27.2599 82.7846 27.2618C82.6984 27.2706 82.6158 27.301 82.5445 27.3502C82.4731 27.3994 82.4154 27.4658 82.3765 27.5432C82.271 27.7131 82.2091 27.9065 82.1964 28.1061C82.1683 28.5254 82.3484 28.9503 82.6411 29.0545C82.6954 29.0762 82.754 29.0855 82.8125 29.0816C82.8709 29.0777 82.9278 29.0607 82.9788 29.0319C83.0604 29.0038 83.0745 28.9531 83.0688 28.9503Z" fill="#995037"/>
<path d="M93.4081 21.3265C93.7627 21.1661 92.8453 19.9869 92.0404 19.5395C90.8331 18.8669 88.9448 18.3547 87.7601 18.5855C86.3333 18.8669 85.1147 19.4607 84.3099 20.6708C83.532 21.9052 83.0959 23.324 83.0463 24.7823C82.9917 25.2247 83.0568 25.6737 83.2349 26.0824C83.4853 26.5693 84.0228 26.907 83.944 27.543C83.9264 27.6576 83.9318 27.7746 83.9598 27.8872C83.9878 27.9998 84.038 28.1057 84.1073 28.1987C84.4562 28.6377 84.9515 28.2944 85.202 27.9173C85.731 27.1377 85.8633 26.1668 85.9815 25.2325C86.1018 24.5729 86.1142 23.8981 86.0181 23.2345C85.9449 22.8771 85.807 22.5337 85.7535 22.1735C85.7157 21.995 85.7172 21.8103 85.7581 21.6324C85.7989 21.4546 85.878 21.2877 85.9899 21.1435C86.0458 21.0853 86.107 21.0326 86.1729 20.986C86.4858 20.756 86.8543 20.6135 87.2405 20.5729C87.6268 20.5324 88.0168 20.5953 88.3707 20.7552C89.4964 21.2702 91.4663 22.061 92.0292 21.7064C92.4252 21.4901 92.7714 21.1928 93.0451 20.834L93.4081 21.3265Z" fill="#161B46"/>
<path d="M90.9372 18.9741C90.9372 18.9741 91.0835 19.0811 91.2721 19.3034C91.5266 19.5909 91.7277 19.9216 91.8659 20.2799C92.004 20.6462 92.0257 21.0462 91.9278 21.4253C91.8434 21.7067 91.7111 21.853 91.6998 21.8418C91.6886 21.8305 91.773 21.6757 91.8265 21.3999C91.8884 21.041 91.8544 20.6721 91.728 20.3306C91.5912 19.987 91.4105 19.6625 91.1905 19.3653C91.0884 19.2472 91.0031 19.1156 90.9372 18.9741Z" fill="#45496B"/>
<path d="M92.3021 20.0942C92.319 20.0942 92.3753 20.1927 92.4091 20.3757C92.4449 20.6188 92.4257 20.867 92.3528 21.1017C92.2784 21.3371 92.1503 21.552 91.9785 21.7293C91.8462 21.8615 91.7421 21.9122 91.7308 21.8981C91.9309 21.6413 92.093 21.3569 92.2121 21.0539C92.2882 20.74 92.3185 20.4168 92.3021 20.0942Z" fill="#45496B"/>
<path d="M85.9477 18.0789C85.9477 18.0789 85.8773 18.0451 85.7929 17.9438C85.6473 17.7566 85.5646 17.5282 85.5565 17.2912C85.5484 17.0542 85.6154 16.8207 85.7479 16.624C85.8475 16.4791 85.9783 16.3583 86.1308 16.2707C86.2832 16.183 86.4534 16.1306 86.6287 16.1174C86.6804 16.1131 86.7324 16.1203 86.781 16.1382C86.8296 16.1562 86.8737 16.1847 86.9101 16.2215C86.9683 16.3031 86.9934 16.4036 86.9805 16.503C86.9682 16.6635 86.9466 16.8233 86.9158 16.9814C86.8652 17.2495 86.7869 17.5117 86.6822 17.7637C86.5982 18.0006 86.4713 18.22 86.3079 18.411C86.2882 18.3969 86.4317 18.1521 86.5893 17.7243C86.6767 17.4743 86.7426 17.2173 86.7863 16.956C86.812 16.8023 86.8299 16.6473 86.8398 16.4917C86.8494 16.4274 86.8365 16.3618 86.8032 16.306C86.7788 16.2846 86.7501 16.2688 86.719 16.2595C86.6879 16.2503 86.6552 16.2479 86.6231 16.2525C86.4695 16.2647 86.3204 16.3103 86.1862 16.3861C86.052 16.462 85.9361 16.5662 85.8464 16.6915C85.6955 16.8984 85.6291 17.155 85.6606 17.4091C85.6996 17.6526 85.7982 17.8827 85.9477 18.0789Z" fill="#45496B"/>
<path d="M77.2435 35.6452C77.4996 35.5383 80.0577 34.5702 80.9863 34.3366C81.915 34.1031 83.2883 33.9258 83.2883 33.9258C83.2883 33.9258 86.8117 36.1208 87.5096 36.512C88.2075 36.9032 90.3238 37.0242 90.3238 37.0242C90.3238 37.0242 90.3238 40.888 90.0986 42.2951C89.4673 46.0682 88.6064 49.7992 87.5209 53.4674C85.959 58.7046 84.9431 60.2664 84.9431 60.2664C84.9431 60.2664 85.1598 62.5178 84.5041 63.9249C83.8484 65.3319 83.066 66.739 83.066 66.739L82.2077 67.3638C82.2077 67.3638 79.3935 66.1903 76.8157 67.3638C74.238 68.5373 67.9033 70.9715 66.4962 70.6535C65.0891 70.3355 65.7138 68.9341 66.0262 67.6058C66.3386 66.2775 69.074 61.6679 69.074 61.6679L69.3863 60.0272L69.9886 59.425L72.2849 45.3879C72.2849 45.3879 76.5822 35.9154 77.2435 35.6452Z" fill="#0064A7"/>
<path d="M75.3805 44.6081C75.3805 44.6081 76.5062 48.6014 79.219 49.0404C81.597 49.4259 82.8015 48.759 83.3756 47.2365C83.9496 45.714 84.4281 38.9741 84.4281 38.9741C84.4281 38.9741 84.4928 36.4892 83.7301 35.9854C82.9675 35.4817 75.3805 44.6081 75.3805 44.6081Z" fill="#B78876"/>
<path d="M71.1761 60.6295C71.1761 60.6295 71.4575 62.5009 71.8881 62.9371C71.8881 62.9371 75.1525 66.6997 75.3101 66.8573C75.4677 67.0149 75.9996 67.2907 76.2754 67.1387C76.3654 67.0669 76.4399 66.9774 76.4941 66.8758C76.5483 66.7742 76.5811 66.6625 76.5906 66.5477C76.5906 66.5477 77.4348 67.1106 77.8119 66.9023C77.9128 66.8523 77.9934 66.769 78.04 66.6664C78.0867 66.5639 78.0966 66.4484 78.068 66.3395C78.068 66.3395 78.7181 66.6744 79.1318 66.2804C79.2559 66.1425 79.3495 65.98 79.4068 65.8035C79.464 65.627 79.4834 65.4405 79.4638 65.256C79.4638 65.256 80.0267 65.6894 80.3503 65.3348C80.5754 65.0439 80.7183 64.6979 80.764 64.333L80.2912 63.4887C80.2912 63.4887 78.9545 61.637 78.5408 61.1248C78.1271 60.6126 77.1337 60.199 76.4133 59.9626C75.6928 59.7262 74.0071 57.8491 74.0071 57.8491L71.1761 60.6295Z" fill="#B78876"/>
<path d="M82.5566 35.3019C81.0558 34.7197 79.3873 34.7449 77.9048 35.3723C75.5521 36.3375 71.5701 37.9726 70.9988 38.1864C70.1799 38.5016 61.4813 41.3383 60.4091 44.8673C60.4091 44.8673 59.8631 45.9536 60.4091 46.8203C61.1942 48.0698 63.5047 53.504 67.1631 56.5911L71.1761 60.6295L74.0494 57.911C74.0494 57.911 70.6358 51.7395 69.6283 49.3446C68.6208 46.9498 68.0861 46.3869 68.0861 46.3869C68.0861 46.3869 71.6179 45.5652 73.8862 44.9996C76.1544 44.4339 78.9911 43.5503 78.9911 43.5503C78.9911 43.5503 82.9619 42.101 83.7189 40.964C84.4759 39.8271 84.9796 37.1199 83.7189 35.9858C83.3736 35.6927 82.9805 35.4614 82.5566 35.3019Z" fill="#B78876"/>
<path d="M65.6153 40.418C65.6153 40.418 68.5674 44.5689 68.8375 45.4835L69.1049 46.4066C69.1661 46.5057 69.2603 46.5801 69.371 46.6167C69.4817 46.6532 69.6017 46.6496 69.7099 46.6064C70.0786 46.4403 72.0598 45.734 72.0598 45.734C72.0598 45.734 72.4875 44.2987 71.5532 42.5483C70.8373 41.2695 70.0441 40.0356 69.178 38.8533C68.4975 38.7586 67.8041 38.8547 67.175 39.1309C66.5459 39.4072 66.006 39.8528 65.6153 40.418Z" fill="#161B46"/>
<path d="M64.9652 45.9224C65.5188 45.7742 66.0964 45.7387 66.6639 45.818C67.2315 45.8973 67.7773 46.0897 68.2691 46.3839C67.7386 46.2046 67.1959 46.0636 66.6453 45.9618C66.0868 45.9108 65.5255 45.8977 64.9652 45.9224Z" fill="#995037"/>
<path d="M79.7396 44.2956C79.5354 44.1885 79.319 44.1063 79.0952 44.0508C78.8503 44.0044 78.5997 43.9959 78.3522 44.0255C78.0462 44.0617 77.7427 44.1162 77.4432 44.1887C76.7932 44.335 76.205 44.456 75.7773 44.5377C75.5489 44.5963 75.3149 44.6303 75.0793 44.639C75.2979 44.5486 75.5252 44.4807 75.7576 44.4363C76.1769 44.3294 76.7622 44.1915 77.4095 44.048C77.7156 43.9721 78.0269 43.9194 78.341 43.8904C78.6014 43.8677 78.8637 43.8877 79.1177 43.9495C79.3579 43.992 79.5769 44.1139 79.7396 44.2956Z" fill="#995037"/>
<path d="M82.5059 36.3569C82.6428 36.5431 82.7545 36.7465 82.838 36.962C83.0911 37.4685 83.2103 38.0314 83.1842 38.597C83.1496 38.9068 83.0709 39.21 82.9506 39.4975C82.8612 39.733 82.749 39.9593 82.6157 40.173C82.3821 40.5416 82.1401 40.6851 82.1317 40.6682C82.2773 40.4954 82.41 40.312 82.5285 40.1195C82.6443 39.9043 82.7431 39.6803 82.8239 39.4497C82.9327 39.1723 83.0046 38.8819 83.0378 38.5858C83.0641 38.0432 82.9679 37.5017 82.7564 37.0014C82.6555 36.7937 82.5717 36.5782 82.5059 36.3569Z" fill="#995037"/>
<path d="M64 42.2304L65.9502 45.2894C65.9983 45.3641 66.072 45.4187 66.1574 45.443C66.2429 45.4673 66.3343 45.4598 66.4145 45.4217L73.3065 42.0644C73.3525 42.0421 73.3933 42.0104 73.4262 41.9713C73.4592 41.9322 73.4835 41.8866 73.4976 41.8374C73.5116 41.7883 73.5152 41.7367 73.508 41.6861C73.5007 41.6355 73.4829 41.587 73.4556 41.5437L71.5026 38.4847C71.4553 38.4098 71.382 38.3551 71.2967 38.3312C71.2115 38.3072 71.1203 38.3158 71.041 38.3553L64.1407 41.7126C64.0957 41.7356 64.0561 41.7678 64.0243 41.807C63.9925 41.8463 63.9692 41.8917 63.956 41.9404C63.9428 41.9892 63.9398 42.0401 63.9474 42.09C63.955 42.14 63.9729 42.1878 64 42.2304Z" fill="#161B46"/>
<path d="M66.4089 44.7295L64.7767 42.1461L71.0438 38.9238L72.752 41.6029L66.4089 44.7295Z" fill="#45496B"/>
<path d="M70.4838 39.6978C70.3411 39.9137 70.1791 40.1162 69.9998 40.3028C69.6593 40.7052 69.2512 41.1893 68.7953 41.724L67.6162 43.1648C67.4634 43.3741 67.293 43.5699 67.1068 43.7502C67.2269 43.5201 67.3692 43.3024 67.5317 43.1001C67.8132 42.7145 68.2156 42.1911 68.6827 41.6311C69.1499 41.0711 69.5945 40.5786 69.9238 40.224C70.0916 40.0295 70.2793 39.8531 70.4838 39.6978Z" fill="white"/>
<path d="M68.4295 40.8765C68.4632 40.899 68.3225 41.1579 68.1171 41.4393C67.9117 41.7207 67.7175 41.9431 67.6837 41.9177C67.6499 41.8924 67.7907 41.6363 67.9961 41.3549C68.2015 41.0735 68.3985 40.8512 68.4295 40.8765Z" fill="white"/>
<path d="M85.292 111.96L85.1316 112.356C85.1316 112.356 90.7149 117.819 90.259 119.111L76.9902 113.536L79.506 109.407C81.0961 111.158 82.6354 111.917 85.292 111.96Z" fill="#161B46"/>
<path d="M76.9902 113.544L77.5952 112.554L90.031 118.213C90.031 118.213 90.5151 118.72 90.2731 119.108L76.9902 113.544Z" fill="#D0D1DA"/>
<path d="M85.1625 112.413C85.1316 112.475 84.7967 112.368 84.3886 112.444C83.9806 112.52 83.6991 112.725 83.6513 112.669C83.6035 112.613 83.8567 112.283 84.3492 112.202C84.8417 112.12 85.2019 112.359 85.1625 112.413Z" fill="#D0D1DA"/>
<path d="M86.3107 113.572C86.3107 113.643 85.973 113.634 85.6381 113.814C85.3033 113.995 85.1175 114.259 85.0556 114.231C84.9937 114.203 85.1034 113.817 85.5256 113.598C85.9477 113.378 86.3361 113.511 86.3107 113.572Z" fill="#D0D1DA"/>
<path d="M86.4036 115.57C86.3389 115.57 86.3839 115.199 86.6991 114.912C87.0143 114.625 87.3773 114.614 87.383 114.678C87.3886 114.743 87.1184 114.856 86.8652 115.095C86.6119 115.334 86.4684 115.59 86.4036 115.57Z" fill="#D0D1DA"/>
<path d="M85.247 112.413C85.2657 112.387 85.2808 112.358 85.292 112.328C85.3288 112.246 85.3589 112.16 85.382 112.072C85.4684 111.745 85.4732 111.401 85.3961 111.071C85.3709 110.961 85.3371 110.854 85.2948 110.75C85.2516 110.631 85.1888 110.521 85.1091 110.423C85.0637 110.369 85.007 110.326 84.943 110.297C84.9065 110.281 84.8673 110.273 84.8276 110.273C84.788 110.273 84.7488 110.281 84.7123 110.297C84.6435 110.334 84.5858 110.388 84.5452 110.455C84.5047 110.522 84.4827 110.598 84.4815 110.677C84.4673 110.978 84.5152 111.278 84.6222 111.56C84.7232 111.873 84.9201 112.146 85.185 112.34C85.3298 112.431 85.4978 112.479 85.6691 112.478C85.8272 112.477 85.9849 112.46 86.139 112.424C86.4328 112.373 86.7174 112.278 86.9833 112.143C87.05 112.105 87.1066 112.052 87.1487 111.988C87.1908 111.923 87.2171 111.85 87.2253 111.774C87.2323 111.696 87.2102 111.618 87.1634 111.555C87.1166 111.496 87.0526 111.454 86.9805 111.434C86.8545 111.4 86.721 111.409 86.6006 111.459C86.4952 111.497 86.3919 111.54 86.291 111.588C85.9832 111.733 85.6987 111.923 85.4468 112.151C85.3786 112.211 85.3138 112.275 85.2526 112.343C85.2132 112.39 85.1935 112.416 85.1963 112.419C85.1991 112.421 85.2948 112.334 85.4777 112.188C85.7364 111.982 86.02 111.81 86.322 111.676C86.5097 111.566 86.7273 111.517 86.9439 111.538C86.9944 111.551 87.0386 111.582 87.0686 111.624C87.0985 111.667 87.1121 111.719 87.1071 111.771C87.0999 111.83 87.0789 111.886 87.0456 111.935C87.0123 111.984 86.9678 112.024 86.9158 112.053C86.6624 112.179 86.3924 112.269 86.1137 112.32C85.9728 112.366 85.8242 112.384 85.6764 112.372C85.5286 112.361 85.3846 112.32 85.2526 112.252C85.0121 112.072 84.8333 111.821 84.7404 111.535C84.6396 111.272 84.5927 110.992 84.6025 110.71C84.6019 110.654 84.6158 110.599 84.6429 110.549C84.67 110.5 84.7094 110.459 84.7573 110.429C84.8091 110.413 84.8647 110.415 84.9156 110.434C84.9664 110.452 85.0097 110.487 85.0387 110.533C85.1115 110.616 85.1696 110.712 85.2104 110.814C85.2543 110.913 85.29 111.014 85.3173 111.118C85.3979 111.436 85.4065 111.768 85.3426 112.089C85.2976 112.303 85.247 112.407 85.247 112.413Z" fill="#D0D1DA"/>
<path d="M80.0492 111.718C80.0211 111.752 80.5361 112.193 81.0904 112.804C81.2312 112.956 81.3437 113.111 81.4647 113.254C81.5695 113.387 81.7117 113.485 81.8728 113.536C81.9855 113.57 82.107 113.561 82.2133 113.51C82.2865 113.468 82.309 113.426 82.3034 113.423C82.2414 113.454 82.1739 113.473 82.1047 113.477C82.0356 113.481 81.9663 113.472 81.9009 113.449C81.7611 113.39 81.641 113.292 81.5548 113.167C81.4478 113.029 81.3268 112.863 81.1861 112.708C80.9471 112.443 80.6884 112.195 80.4122 111.968C80.3035 111.868 80.1813 111.784 80.0492 111.718Z" fill="#D0D1DA"/>
<path d="M52.8305 114.808L52.5744 115.151C52.5744 115.151 56.5902 121.849 55.822 122.991L44.3964 114.236L47.4667 110.553C48.5614 112.641 50.2724 114.093 52.8305 114.808Z" fill="#161B46"/>
<path d="M44.3964 114.237L45.1366 113.35L55.8135 122.074C55.8135 122.074 56.154 122.685 55.8135 123L44.3964 114.237Z" fill="#D0D1DA"/>
<path d="M52.6025 115.213C52.5603 115.266 52.262 115.078 51.8484 115.047C51.4347 115.016 51.111 115.14 51.0773 115.078C51.0435 115.016 51.3728 114.757 51.8709 114.797C52.369 114.836 52.6419 115.171 52.6025 115.213Z" fill="#D0D1DA"/>
<path d="M53.4074 116.626C53.3793 116.691 53.0641 116.601 52.6955 116.691C52.3268 116.781 52.0791 116.989 52.0257 116.944C51.9722 116.899 52.1776 116.556 52.6392 116.451C53.1007 116.347 53.4468 116.572 53.4074 116.626Z" fill="#D0D1DA"/>
<path d="M52.9881 118.582C52.929 118.556 53.0669 118.216 53.444 118.019C53.8211 117.822 54.1757 117.9 54.1616 117.965C54.1476 118.03 53.8633 118.069 53.5566 118.247C53.2499 118.424 53.05 118.618 52.9881 118.582Z" fill="#D0D1DA"/>
<path d="M52.6786 115.235C52.6786 115.235 52.7039 115.216 52.7461 115.168C52.803 115.096 52.8538 115.02 52.8981 114.94C53.0634 114.644 53.1551 114.313 53.1654 113.975C53.1666 113.863 53.161 113.751 53.1485 113.64C53.1366 113.515 53.1032 113.393 53.05 113.28C53.0216 113.215 52.9782 113.158 52.9234 113.114C52.8927 113.088 52.8573 113.069 52.8191 113.057C52.7809 113.046 52.7408 113.042 52.7011 113.046C52.6248 113.064 52.5549 113.102 52.4988 113.156C52.4427 113.211 52.4027 113.28 52.3831 113.356C52.2921 113.643 52.2614 113.945 52.293 114.245C52.3104 114.573 52.4306 114.887 52.6363 115.143C52.7547 115.266 52.9046 115.354 53.0697 115.399C53.2225 115.438 53.3792 115.46 53.5369 115.463C53.835 115.485 54.1347 115.462 54.4262 115.396C54.5003 115.375 54.5685 115.338 54.6252 115.286C54.6819 115.234 54.7256 115.17 54.7526 115.098C54.7808 115.024 54.7808 114.943 54.7526 114.87C54.723 114.802 54.6728 114.744 54.6091 114.706C54.4941 114.643 54.362 114.619 54.232 114.636C54.1205 114.646 54.0096 114.662 53.8999 114.684C53.5703 114.745 53.2516 114.855 52.9543 115.01C52.8732 115.051 52.7943 115.096 52.718 115.145C52.6673 115.182 52.642 115.202 52.6448 115.205C52.758 115.161 52.8688 115.111 52.9769 115.055C53.2764 114.921 53.5925 114.826 53.9168 114.774C54.1261 114.714 54.3489 114.723 54.5528 114.799C54.5981 114.824 54.633 114.865 54.651 114.913C54.6691 114.962 54.6692 115.015 54.6513 115.064C54.6291 115.118 54.5944 115.167 54.5499 115.206C54.5054 115.244 54.4524 115.272 54.3952 115.286C54.1178 115.344 53.8336 115.363 53.551 115.342C53.2526 115.359 52.9596 115.258 52.7348 115.061C52.5483 114.825 52.4392 114.537 52.4225 114.236C52.3897 113.953 52.4156 113.665 52.4985 113.392C52.5407 113.274 52.6195 113.164 52.7208 113.153C52.7737 113.152 52.8255 113.168 52.8689 113.199C52.9123 113.229 52.9452 113.272 52.9628 113.322C53.011 113.425 53.0424 113.535 53.0557 113.648C53.0714 113.755 53.0789 113.862 53.0782 113.969C53.078 114.296 53.0029 114.619 52.8587 114.912C52.7517 115.117 52.6701 115.23 52.6786 115.235Z" fill="#D0D1DA"/>
<path d="M47.8184 113.246C47.779 113.271 48.1674 113.829 48.5501 114.56C48.6458 114.743 48.7162 114.923 48.7978 115.089C48.8632 115.247 48.9751 115.382 49.1186 115.475C49.2185 115.537 49.3384 115.558 49.4535 115.534C49.5351 115.514 49.566 115.478 49.5632 115.472C49.4956 115.488 49.4255 115.489 49.3572 115.477C49.289 115.464 49.224 115.438 49.1664 115.399C49.048 115.304 48.9567 115.18 48.9019 115.039C48.8344 114.878 48.7612 114.687 48.6627 114.501C48.4994 114.183 48.3112 113.878 48.0999 113.589C48.0227 113.462 47.928 113.347 47.8184 113.246Z" fill="#D0D1DA"/>
<path d="M56.3041 144L53.7441 139.552H52.3521V144H50.5281V132.88H54.3681C55.2215 132.88 55.9415 133.029 56.5281 133.328C57.1255 133.627 57.5681 134.027 57.8561 134.528C58.1548 135.029 58.3041 135.589 58.3041 136.208C58.3041 136.933 58.0908 137.595 57.6641 138.192C57.2481 138.779 56.6028 139.179 55.7281 139.392L58.4801 144H56.3041ZM52.3521 138.096H54.3681C55.0508 138.096 55.5628 137.925 55.9041 137.584C56.2561 137.243 56.4321 136.784 56.4321 136.208C56.4321 135.632 56.2615 135.184 55.9201 134.864C55.5788 134.533 55.0615 134.368 54.3681 134.368H52.3521V138.096ZM68.6215 135.184V144H66.7975V142.96C66.5095 143.323 66.1308 143.611 65.6615 143.824C65.2028 144.027 64.7122 144.128 64.1895 144.128C63.4962 144.128 62.8722 143.984 62.3175 143.696C61.7735 143.408 61.3415 142.981 61.0215 142.416C60.7122 141.851 60.5575 141.168 60.5575 140.368V135.184H62.3655V140.096C62.3655 140.885 62.5628 141.493 62.9575 141.92C63.3522 142.336 63.8908 142.544 64.5735 142.544C65.2562 142.544 65.7948 142.336 66.1895 141.92C66.5948 141.493 66.7975 140.885 66.7975 140.096V135.184H68.6215ZM75.4761 135.04C76.1695 135.04 76.7881 135.184 77.3321 135.472C77.8868 135.76 78.3188 136.187 78.6281 136.752C78.9375 137.317 79.0921 138 79.0921 138.8V144H77.2841V139.072C77.2841 138.283 77.0868 137.68 76.6921 137.264C76.2975 136.837 75.7588 136.624 75.0761 136.624C74.3935 136.624 73.8495 136.837 73.4441 137.264C73.0495 137.68 72.8521 138.283 72.8521 139.072V144H71.0281V135.184H72.8521V136.192C73.1508 135.829 73.5295 135.547 73.9881 135.344C74.4575 135.141 74.9535 135.04 75.4761 135.04ZM82.3468 134.016C82.0161 134.016 81.7388 133.904 81.5148 133.68C81.2908 133.456 81.1788 133.179 81.1788 132.848C81.1788 132.517 81.2908 132.24 81.5148 132.016C81.7388 131.792 82.0161 131.68 82.3468 131.68C82.6668 131.68 82.9388 131.792 83.1628 132.016C83.3868 132.24 83.4988 132.517 83.4988 132.848C83.4988 133.179 83.3868 133.456 83.1628 133.68C82.9388 133.904 82.6668 134.016 82.3468 134.016ZM83.2428 135.184V144H81.4188V135.184H83.2428ZM90.0855 135.04C90.7788 135.04 91.3975 135.184 91.9415 135.472C92.4962 135.76 92.9282 136.187 93.2375 136.752C93.5468 137.317 93.7015 138 93.7015 138.8V144H91.8935V139.072C91.8935 138.283 91.6962 137.68 91.3015 137.264C90.9068 136.837 90.3682 136.624 89.6855 136.624C89.0028 136.624 88.4588 136.837 88.0535 137.264C87.6588 137.68 87.4615 138.283 87.4615 139.072V144H85.6375V135.184H87.4615V136.192C87.7602 135.829 88.1388 135.547 88.5975 135.344C89.0668 135.141 89.5628 135.04 90.0855 135.04ZM99.5801 135.04C100.263 135.04 100.865 135.179 101.388 135.456C101.921 135.723 102.337 136.059 102.636 136.464V135.184H104.476V144.144C104.476 144.955 104.305 145.675 103.964 146.304C103.623 146.944 103.127 147.445 102.476 147.808C101.836 148.171 101.068 148.352 100.172 148.352C98.9775 148.352 97.9855 148.069 97.1961 147.504C96.4068 146.949 95.9588 146.192 95.8521 145.232H97.6601C97.7988 145.691 98.0921 146.059 98.5401 146.336C98.9988 146.624 99.5428 146.768 100.172 146.768C100.908 146.768 101.5 146.544 101.948 146.096C102.407 145.648 102.636 144.997 102.636 144.144V142.672C102.327 143.088 101.905 143.44 101.372 143.728C100.849 144.005 100.252 144.144 99.5801 144.144C98.8121 144.144 98.1081 143.952 97.4681 143.568C96.8388 143.173 96.3375 142.629 95.9641 141.936C95.6015 141.232 95.4201 140.437 95.4201 139.552C95.4201 138.667 95.6015 137.883 95.9641 137.2C96.3375 136.517 96.8388 135.989 97.4681 135.616C98.1081 135.232 98.8121 135.04 99.5801 135.04ZM102.636 139.584C102.636 138.976 102.508 138.448 102.252 138C102.007 137.552 101.681 137.211 101.276 136.976C100.871 136.741 100.433 136.624 99.9641 136.624C99.4948 136.624 99.0575 136.741 98.6521 136.976C98.2468 137.2 97.9161 137.536 97.6601 137.984C97.4148 138.421 97.2921 138.944 97.2921 139.552C97.2921 140.16 97.4148 140.693 97.6601 141.152C97.9161 141.611 98.2468 141.963 98.6521 142.208C99.0681 142.443 99.5055 142.56 99.9641 142.56C100.433 142.56 100.871 142.443 101.276 142.208C101.681 141.973 102.007 141.632 102.252 141.184C102.508 140.725 102.636 140.192 102.636 139.584Z" fill="#161B46"/>
</svg>
