<svg width="19" height="18" viewBox="0 0 19 18" fill="none" xmlns="http://www.w3.org/2000/svg">
<path d="M15.157 11.828L13.743 10.414L15.157 9C15.5285 8.62856 15.8231 8.18759 16.0241 7.70228C16.2252 7.21696 16.3286 6.69681 16.3286 6.1715C16.3286 5.6462 16.2252 5.12605 16.0241 4.64073C15.8231 4.15542 15.5285 3.71445 15.157 3.343C14.7856 2.97156 14.3446 2.67691 13.8593 2.47589C13.374 2.27487 12.8538 2.1714 12.3285 2.1714C11.8032 2.1714 11.2831 2.27487 10.7977 2.47589C10.3124 2.67691 9.87146 2.97156 9.50001 3.343L8.08601 4.757L6.67201 3.343L8.08601 1.929C9.21432 0.818923 10.7356 0.199659 12.3184 0.206104C13.9012 0.21255 15.4174 0.844181 16.5366 1.96341C17.6558 3.08265 18.2875 4.5988 18.2939 6.18162C18.3004 7.76444 17.6811 9.28569 16.571 10.414L15.157 11.828ZM12.328 14.657L10.914 16.071C10.3585 16.6356 9.69676 17.0846 8.96688 17.3922C8.23699 17.6998 7.45343 17.8598 6.66139 17.863C5.86936 17.8662 5.08452 17.7126 4.35215 17.411C3.61979 17.1094 2.95438 16.6658 2.39432 16.1057C1.83426 15.5456 1.39063 14.8802 1.08902 14.1479C0.787411 13.4155 0.633788 12.6307 0.637013 11.8386C0.640238 11.0466 0.800248 10.263 1.10781 9.53314C1.41538 8.80325 1.86441 8.14148 2.42901 7.586L3.84301 6.172L5.25701 7.586L3.84301 9C3.47157 9.37145 3.17692 9.81242 2.9759 10.2977C2.77488 10.783 2.67141 11.3032 2.67141 11.8285C2.67141 12.3538 2.77488 12.874 2.9759 13.3593C3.17692 13.8446 3.47157 14.2856 3.84301 14.657C4.21446 15.0284 4.65543 15.3231 5.14074 15.5241C5.62605 15.7251 6.14621 15.8286 6.67151 15.8286C7.19681 15.8286 7.71697 15.7251 8.20229 15.5241C8.6876 15.3231 9.12857 15.0284 9.50001 14.657L10.914 13.243L12.328 14.657ZM12.328 4.757L13.743 6.172L6.67201 13.242L5.25701 11.828L12.328 4.758V4.757Z" fill="#0064A7"/>
</svg>
