<svg width="156" height="174" viewBox="0 0 156 174" fill="none" xmlns="http://www.w3.org/2000/svg">
<rect width="156" height="174" rx="16" fill="#FFF2E7"/>
<path d="M79.5 112C110.704 112 136 109.538 136 106.5C136 103.462 110.704 101 79.5 101C48.2959 101 23 103.462 23 106.5C23 109.538 48.2959 112 79.5 112Z" fill="#FBE1B8"/>
<path d="M38.8325 33.9378C38.8325 33.9378 51.1165 41.0608 53.7404 42.7137C56.3642 44.3666 60.2421 45.2624 61.9355 46.9616C63.2416 48.2764 69.8994 53.2119 72.1274 53.7668C74.3553 54.3216 74.9333 46.0224 74.9333 46.0224C74.9333 46.0224 64.6345 39.015 62.0337 37.4921C59.433 35.9692 40.7657 29.7969 40.7657 29.7969L38.8325 33.9378Z" fill="#B78876"/>
<path d="M32.0736 32.4265C32.0736 32.4265 34.3016 34.3712 34.9142 34.4319C35.5268 34.4926 39.1158 33.8915 39.1158 33.8915L41.1212 29.9991C41.1212 29.9991 37.6998 27.2828 36.9081 26.861C36.1163 26.4391 31.4177 25 31.4177 25C31.3602 25.0201 31.3078 25.0527 31.2645 25.0956C31.2212 25.1384 31.1879 25.1903 31.1672 25.2476C31.1464 25.3049 31.1387 25.366 31.1445 25.4267C31.1504 25.4873 31.1696 25.5459 31.2009 25.5982C31.2009 25.5982 29.6318 24.6041 29.1377 25.5115C29.0894 25.4748 29.0328 25.4506 28.9729 25.4411C28.9129 25.4317 28.8516 25.4372 28.7944 25.4572C28.7371 25.4773 28.6857 25.5112 28.6448 25.556C28.6038 25.6007 28.5746 25.6549 28.5598 25.7138C28.5039 25.8525 28.4781 26.0015 28.4841 26.1509C28.4901 26.3004 28.5277 26.4468 28.5944 26.5807C28.5944 26.5807 27.9789 27.1586 28.4008 27.7192C28.8227 28.2798 31.9812 30.5077 31.9812 30.5077L33.4087 31.9844C33.4087 31.9844 32.1459 31.0192 31.6517 31.0308C31.1576 31.0423 31.2356 31.6231 31.2356 31.6231L32.0736 32.4265Z" fill="#B78876"/>
<path d="M33.0734 29.6233C32.2768 29.1846 31.5051 28.7022 30.7617 28.1785C29.9918 27.6966 29.249 27.1727 28.5366 26.6094C29.333 27.0484 30.1047 27.5308 30.8484 28.0542C31.618 28.5364 32.3608 29.0602 33.0734 29.6233Z" fill="#995037"/>
<path d="M33.7496 28.3836C33.512 28.2765 33.2847 28.1478 33.0705 27.9993L31.4668 27.011C30.8397 26.6238 30.2762 26.2684 29.8746 26.0054C29.648 25.8747 29.435 25.7218 29.2388 25.5488C29.4793 25.6496 29.7104 25.7714 29.9295 25.9129C30.3456 26.1557 30.9206 26.4909 31.5448 26.8839C32.169 27.2769 32.7296 27.6352 33.1283 27.9097C33.3511 28.0459 33.5593 28.2047 33.7496 28.3836Z" fill="#995037"/>
<path d="M34.7928 27.3811C34.7697 27.4186 33.9981 26.9736 33.0272 26.4737C32.0563 25.9738 31.2472 25.6068 31.2645 25.5635C31.457 25.5996 31.6436 25.6618 31.8193 25.7484C32.1545 25.8842 32.6082 26.0894 33.0965 26.3408C33.5849 26.5922 34.0155 26.8436 34.3189 27.0372C34.4912 27.1306 34.6505 27.2462 34.7928 27.3811Z" fill="#995037"/>
<path d="M35.7926 32.9352C35.5828 32.9421 35.3735 32.9117 35.1743 32.8456C34.1888 32.5854 33.3033 32.0371 32.6313 31.2707C32.4855 31.1193 32.3645 30.9456 32.273 30.7563C32.7478 31.2714 33.2812 31.7292 33.8623 32.1203C34.4708 32.4683 35.1189 32.7419 35.7926 32.9352Z" fill="#995037"/>
<path d="M65.0998 46.0598L59.5545 28.4328C55.8268 28.0196 52.0587 30.0221 49.8914 33.0794C47.7241 36.1367 47.0508 40.0984 47.5652 43.8117C47.8079 45.5628 48.2963 47.2793 48.4668 49.0362C48.6373 50.7931 48.4668 52.6685 47.4698 54.1365C46.4729 55.6044 44.7391 56.5783 44.0658 58.2312C43.1989 60.3406 44.3721 62.6668 45.2968 64.7503C46.2215 66.8337 46.7994 69.5789 45.1436 71.1422C45.7478 71.1343 46.3412 70.9816 46.8741 70.697C47.4071 70.4125 47.864 70.0043 48.2067 69.5067C48.3507 69.9496 48.4055 70.4168 48.3678 70.8811C48.3301 71.3453 48.2007 71.7975 47.9871 72.2114C50.5387 72.85 53.2261 71.8155 55.4482 70.4025C59.4162 67.8761 62.4854 64.1616 64.2184 59.7885C65.9515 55.4155 66.2599 50.6069 65.0998 46.0483V46.0598Z" fill="#161B46"/>
<path d="M52.5816 34.354L52.1309 35.7757C52.1049 36.9316 52.677 39.0728 53.3243 39.5525L68.0617 49.9091C69.0685 50.6161 70.2798 50.9725 71.5091 50.9234L72.8123 50.8685C75.7944 50.7442 77.7248 47.554 76.3261 44.9157C76.2618 44.7863 76.1823 44.6651 76.0892 44.5545C75.9984 44.4528 75.902 44.3563 75.8002 44.2656C75.1491 43.6257 74.4323 43.0562 73.6619 42.5664C72.402 41.5695 71.8818 41.1678 71.8934 41.1765C71.9049 41.1852 73.5174 38.151 70.4485 34.8972C68.9228 33.279 66.0013 31.1667 63.5566 29.5138C63.0647 29.2071 62.5214 28.9917 61.9529 28.878C57.9015 27.9389 53.8358 30.3922 52.5816 34.354Z" fill="#B78876"/>
<path d="M65.8626 32.4438C65.9783 32.5347 66.0551 32.6663 66.0771 32.8118C66.0991 32.9574 66.0648 33.1058 65.9811 33.2269C65.9417 33.2874 65.8906 33.3395 65.8308 33.38C65.771 33.4204 65.7037 33.4485 65.6328 33.4625C65.562 33.4765 65.489 33.4762 65.4183 33.4615C65.3476 33.4469 65.2805 33.4182 65.2211 33.3771C65.1049 33.2867 65.0276 33.1552 65.0051 33.0097C64.9825 32.8641 65.0163 32.7155 65.0997 32.594C65.1396 32.5337 65.1911 32.4819 65.2512 32.4416C65.3113 32.4013 65.3788 32.3734 65.4497 32.3594C65.5207 32.3454 65.5938 32.3457 65.6646 32.3602C65.7355 32.3747 65.8028 32.4031 65.8626 32.4438Z" fill="#161B46"/>
<path d="M64.5594 31.2676C64.5767 31.3687 64.0623 31.5161 63.6925 31.9987C63.3226 32.4812 63.2879 33.0245 63.1897 33.0303C63.1434 33.0303 63.0827 32.8973 63.0885 32.6575C63.1045 32.3367 63.2196 32.0288 63.4179 31.7762C63.6107 31.5238 63.879 31.3395 64.1837 31.2502C64.412 31.1895 64.5565 31.2213 64.5594 31.2676Z" fill="#161B46"/>
<path d="M62.4151 37.0356C62.5309 37.1265 62.6076 37.2581 62.6296 37.4036C62.6516 37.5492 62.6173 37.6976 62.5336 37.8187C62.4943 37.8792 62.4432 37.9313 62.3833 37.9718C62.3235 38.0122 62.2562 38.0403 62.1854 38.0543C62.1145 38.0683 62.0416 38.068 61.9709 38.0533C61.9001 38.0386 61.8331 38.01 61.7736 37.9689C61.6574 37.8785 61.5802 37.747 61.5576 37.6015C61.535 37.4559 61.5689 37.3073 61.6523 37.1858C61.6922 37.1255 61.7437 37.0737 61.8037 37.0334C61.8638 36.9931 61.9313 36.9652 62.0023 36.9512C62.0733 36.9372 62.1463 36.9375 62.2172 36.952C62.2881 36.9665 62.3553 36.9949 62.4151 37.0356Z" fill="#161B46"/>
<path d="M60.9906 36.0846C61.0051 36.1858 60.4907 36.3303 60.1237 36.8157C59.7568 37.3012 59.7192 37.8387 59.6209 37.8444C59.5747 37.8444 59.514 37.7144 59.5198 37.4717C59.539 37.156 59.6539 36.8536 59.8492 36.6048C60.0429 36.3541 60.311 36.171 60.615 36.0817C60.8404 35.9979 60.9849 36.0355 60.9906 36.0846Z" fill="#161B46"/>
<path d="M65.9233 37.0932C66.0403 36.7778 66.1956 36.4779 66.3857 36.2003C66.4666 36.0674 66.533 35.9315 66.4666 35.8477C66.347 35.7381 66.1968 35.6675 66.036 35.6455L64.8166 35.2871C63.0828 34.7612 61.7073 34.2815 61.7304 34.2122C61.7535 34.1428 63.1752 34.5012 64.8946 35.0357L66.1083 35.4143C66.3169 35.4524 66.5058 35.5617 66.6428 35.7235C66.6726 35.7753 66.6901 35.8332 66.6941 35.8928C66.6981 35.9523 66.6885 36.0121 66.666 36.0674C66.6327 36.1502 66.5879 36.2281 66.533 36.2985C66.3645 36.5884 66.1596 36.8554 65.9233 37.0932Z" fill="#161B46"/>
<path d="M71.8934 41.168C70.6476 42.8345 68.9641 44.1229 67.03 44.8899C67.03 44.8899 70.3589 45.5805 72.7343 41.8268L71.8934 41.168Z" fill="#995037"/>
<path d="M66.9288 38.1971C66.7423 38.1988 66.5594 38.2482 66.3975 38.3408C66.2355 38.4334 66.1001 38.566 66.0041 38.726C65.9315 38.8402 65.8826 38.9679 65.8603 39.1014C65.838 39.235 65.8427 39.3716 65.8741 39.5033C65.9054 39.6296 65.9745 39.7435 66.072 39.8297C66.1696 39.9158 66.291 39.9703 66.4203 39.9859C66.5667 39.9745 66.7065 39.9198 66.8218 39.8287C66.9371 39.7376 67.0227 39.6143 67.0676 39.4744C67.1634 39.1841 67.2007 38.8776 67.1774 38.5728C67.1795 38.4884 67.1668 38.4043 67.1398 38.3243C67.1267 38.2865 67.1027 38.2534 67.0708 38.2292C67.0389 38.205 67.0006 38.1909 66.9606 38.1885" fill="#995037"/>
<path d="M65.1604 38.7724C65.2153 38.6915 65.7384 39.0932 66.4579 38.9313C67.1774 38.7695 67.5502 38.1685 67.6138 38.2205C67.6773 38.2725 67.6138 38.4227 67.4462 38.6655C67.2134 38.9754 66.8788 39.1934 66.5012 39.281C66.1385 39.3667 65.7566 39.3065 65.4378 39.1134C65.2124 38.966 65.1286 38.8071 65.1604 38.7724Z" fill="#161B46"/>
<path d="M59.2164 34.8595C59.3117 35.0098 58.8783 35.4375 58.5084 36.0616C58.1385 36.6858 57.9305 37.258 57.7658 37.2435C57.6849 37.2435 57.6213 37.0586 57.6357 36.7754C57.6705 36.4088 57.7881 36.0549 57.9799 35.7405C58.1716 35.426 58.4324 35.1594 58.7425 34.9607C58.9881 34.8162 59.1701 34.7902 59.2164 34.8595Z" fill="#161B46"/>
<path d="M62.34 29.7798C62.3863 29.9503 62.0135 30.1959 61.7014 30.5918C61.3893 30.9877 61.2044 31.3865 61.031 31.3749C60.9472 31.3749 60.8808 31.2275 60.8894 31.0021C60.9132 30.7061 61.0295 30.4251 61.2217 30.1988C61.4081 29.9671 61.6614 29.7986 61.947 29.7162C62.1667 29.6613 62.3227 29.7018 62.34 29.7798Z" fill="#161B46"/>
<path d="M59.9503 43.0834C59.6902 42.8811 58.8435 42.7106 58.6037 42.936C57.968 43.54 57.0664 44.8201 58.8031 46.1783C61.1784 48.0334 62.5597 45.268 62.4845 45.2102C62.4094 45.1524 60.8519 43.774 59.9503 43.0834Z" fill="#B78876"/>
<path d="M61.0195 45.2452C61.0051 45.2452 61.0195 45.3088 60.9935 45.4041C60.9588 45.5353 60.875 45.648 60.7594 45.7191C60.4705 45.8983 59.907 45.7971 59.4706 45.4735C59.2631 45.3196 59.0915 45.1224 58.9678 44.8955C58.9112 44.815 58.875 44.7218 58.8625 44.6242C58.8499 44.5265 58.8612 44.4272 58.8956 44.335C58.9203 44.278 58.9642 44.2315 59.0196 44.2036C59.075 44.1756 59.1385 44.1679 59.199 44.1818C59.2915 44.202 59.3262 44.254 59.3406 44.2425C59.355 44.2309 59.3406 44.1616 59.2279 44.1038C59.1584 44.0715 59.0801 44.0634 59.0054 44.0807C58.9046 44.1074 58.8184 44.1728 58.7656 44.2627C58.7088 44.3753 58.682 44.5006 58.6875 44.6266C58.6931 44.7526 58.7309 44.875 58.7973 44.9822C58.9238 45.2442 59.1123 45.4713 59.3464 45.644C59.8347 46.0023 60.4734 46.1063 60.8432 45.8405C60.9114 45.7911 60.9676 45.727 61.0076 45.653C61.0476 45.579 61.0705 45.4969 61.0744 45.4128C61.0744 45.2828 61.0311 45.2279 61.0195 45.2452Z" fill="#995037"/>
<path d="M61.6176 50.1318L63.8253 67.8195L60.141 68.3165V48.2246L61.6176 50.1318Z" fill="#5C5F7E"/>
<path opacity="0.3" d="M61.6176 50.1318L63.8253 67.8195L60.141 68.3165V48.2246L61.6176 50.1318Z" fill="#0E1339"/>
<path d="M57.2225 46.9788L57.0722 73.7806C57.0722 73.7806 57.3381 74.2314 58.6846 73.7806C60.0312 73.3298 61.0744 74.8325 61.0744 74.8325L60.6554 49.3628L60.141 44.8145L57.2225 46.9788Z" fill="#0064A7"/>
<path d="M56.0319 37.2062C56.0319 37.2062 56.3209 32.4902 57.7109 30.794C59.1008 29.0977 62.0945 28.9041 62.0945 28.9041C62.0945 28.9041 60.8895 27.7194 57.7975 28.3609C56.8357 28.5275 55.9225 28.9046 55.1233 29.465C54.324 30.0255 53.6584 30.7556 53.1741 31.6031C52.3071 33.0479 52.1367 35.7758 52.1367 35.7758L56.0319 37.2062Z" fill="#0064A7"/>
<path d="M69.9168 45.5978C69.9168 45.5978 82.4118 43.9449 85.1714 46.1931C87.9311 48.4412 95.4413 54.7032 97.9496 58.7545C99.0823 60.5808 100.683 67.3253 100.279 72.1019L85.4633 72.5932L84.5964 65.2707L74.3438 60C74.3438 60 67.2843 56.908 66.8595 52.1805C66.4348 47.453 69.9168 45.5978 69.9168 45.5978Z" fill="#B78876"/>
<path d="M69.9168 45.5975C69.9168 45.5975 79.1956 49.6922 79.8197 51.4029C79.8197 51.4029 80.8253 53.758 80.4468 55.3329L76.5342 61.1382L83.7901 64.8659L92.4245 52.2669L86.7232 46.528C85.9979 45.8952 84.7553 44.8838 83.8335 44.6237C82.736 44.3871 81.6267 44.2086 80.5104 44.0891C79.2736 43.9129 75.2251 43.9591 75.2251 43.9591L69.9168 45.5975Z" fill="#161B46"/>
<path d="M90.1937 64.4268C89.2806 64.6453 88.3565 64.815 87.4254 64.9353C86.5017 65.1027 85.57 65.2223 84.634 65.2937C85.547 65.0748 86.4711 64.9051 87.4023 64.7851C88.3257 64.6158 89.2575 64.4962 90.1937 64.4268Z" fill="#995037"/>
<path d="M87.1104 49.2907C87.0873 49.2907 86.9428 48.9786 86.6365 48.4989C85.8296 47.2472 84.6574 46.2737 83.2787 45.7104C82.7528 45.4965 82.4118 45.4214 82.4118 45.3867C82.4959 45.3862 82.5796 45.3979 82.6603 45.4214C82.8833 45.4691 83.1025 45.5328 83.3163 45.6121C84.7472 46.1316 85.9527 47.1328 86.7261 48.444C86.8433 48.6393 86.9457 48.8431 87.0324 49.0537C87.0931 49.2127 87.122 49.2907 87.1104 49.2907Z" fill="#161B46"/>
<path d="M90.37 50.1953L81.6403 63.7537L83.7931 64.8604L92.4245 52.2614L90.37 50.1953Z" fill="#E6F7FD" fill-opacity="0.5"/>
<path d="M42.4938 98.3139L35.8475 98.8918L34.342 97.2678C33.6109 96.5078 33.1312 97.2418 32.3712 97.9729L23.0751 106.882C23.0751 106.882 23.5317 108.234 24.4969 107.867C25.462 107.5 33.426 105.396 33.426 105.396L40.1965 105.027L42.4938 98.3139Z" fill="#00ACE9"/>
<path d="M42.4938 98.3139C42.4858 98.3524 42.4742 98.3902 42.4591 98.4266C42.4331 98.5104 42.3955 98.6231 42.3493 98.7675L41.9072 100.094C41.5113 101.264 40.9449 102.952 40.2398 105.044V105.079H40.2023L33.426 105.463L28.4875 106.795L25.8261 107.541C25.3753 107.671 24.9245 107.801 24.4708 107.954C24.3469 107.995 24.2154 108.009 24.0856 107.994C23.9557 107.979 23.8308 107.936 23.7195 107.867C23.5084 107.724 23.3333 107.534 23.2081 107.312C23.1313 107.182 23.0665 107.044 23.0144 106.902L23 106.859L23.0347 106.824L30.071 100.088C31.146 99.0594 32.1632 98.1 33.1052 97.184C33.2309 97.0707 33.377 96.9825 33.5358 96.9239C33.6181 96.8957 33.7053 96.8842 33.7921 96.8902C33.879 96.8962 33.9637 96.9194 34.0415 96.9586C34.1855 97.0304 34.3148 97.1284 34.4229 97.2476L34.7321 97.5828L35.888 98.8456L35.8475 98.8311L40.7368 98.4294L42.0401 98.3283L42.3753 98.3023H42.4851C42.4449 98.3094 42.4044 98.3142 42.3637 98.3168L42.0199 98.3514L40.7022 98.4815L35.8562 98.938H35.8302L35.8128 98.9178L34.6396 97.6637C34.4553 97.4272 34.2338 97.2222 33.9837 97.0568C33.9191 97.0248 33.8488 97.006 33.7768 97.0015C33.7048 96.997 33.6327 97.007 33.5647 97.0308C33.4211 97.0863 33.2889 97.1676 33.1746 97.2707C32.2499 98.1809 31.2269 99.1519 30.1577 100.183L23.1387 106.94L23.1589 106.862C23.2068 106.994 23.2667 107.122 23.3381 107.243C23.451 107.443 23.6081 107.615 23.7975 107.746C23.8905 107.804 23.9953 107.841 24.1043 107.853C24.2133 107.866 24.3238 107.854 24.4275 107.818C24.8754 107.665 25.3349 107.529 25.7856 107.405L28.447 106.662L33.4028 105.33L40.1762 104.977L40.13 105.012C40.8524 102.943 41.4361 101.279 41.8407 100.12L42.3117 98.7878C42.3637 98.6404 42.4071 98.5248 42.436 98.4381L42.4938 98.3139Z" fill="#161B46"/>
<path d="M31.7615 98.678C31.7788 98.6578 31.9695 98.8196 32.3163 99.0016C32.7668 99.2446 33.2654 99.3849 33.7765 99.4124C34.2877 99.4399 34.7985 99.3539 35.2724 99.1606C35.6394 99.0161 35.8504 98.8716 35.8504 98.8976C35.6998 99.0587 35.5152 99.184 35.31 99.2646C34.8271 99.4944 34.2944 99.5997 33.7604 99.5709C33.2264 99.5422 32.7081 99.3802 32.2527 99.0999C32.0607 98.996 31.8932 98.8521 31.7615 98.678Z" fill="#161B46"/>
<path d="M25.8319 104.258C25.9875 104.308 26.1284 104.395 26.2422 104.513C26.5441 104.777 26.7621 105.123 26.8693 105.51C26.972 105.891 26.9936 106.29 26.9329 106.68C26.922 106.842 26.8798 107.001 26.8086 107.148C26.7877 106.99 26.7877 106.829 26.8086 106.671C26.8344 106.295 26.8003 105.918 26.7075 105.553C26.6039 105.193 26.4145 104.864 26.1556 104.594C25.9648 104.388 25.8175 104.279 25.8319 104.258Z" fill="#161B46"/>
<path d="M84.7351 69.1197L85.2148 71.4719L82.9464 73.5438C82.9464 73.5438 77.1179 76.8467 77.8548 83.8253L69.7203 93.2601C69.7203 93.2601 56.6994 95.1037 53.2232 95.6412C50.3335 96.0891 39.0637 98.6783 39.0637 98.6783L39.4654 105.538C39.4654 105.538 66.8913 104.77 68.628 104.617C72.0956 104.328 74.7397 105.137 77.586 102.758C79.6406 101.051 93.7133 87.0531 93.7133 87.0531L93.6006 67.9292L84.7351 69.1197Z" fill="#0064A7"/>
<path d="M36.4486 35.2988C36.4486 35.2988 48.7413 42.4248 51.3565 44.0892C53.9716 45.7537 57.8611 46.6408 59.5516 48.3399C60.8606 49.6519 67.5184 54.5903 69.7435 55.1423C71.9685 55.6942 72.5494 47.3979 72.5494 47.3979C72.5494 47.3979 62.2563 40.3904 59.6643 38.8676C57.0722 37.3447 38.3962 31.1724 38.3962 31.1724L36.4486 35.2988Z" fill="#B78876"/>
<path d="M74.1242 54.3998C74.1011 54.3998 73.9566 54.0501 73.6763 53.4953C72.9441 52.0516 71.9335 50.7671 70.7028 49.7156C70.2318 49.3111 69.9168 49.0885 69.9313 49.0654C70.0159 49.0988 70.0956 49.1436 70.1682 49.1984C70.3768 49.3324 70.5784 49.4771 70.7722 49.6318C72.0604 50.6521 73.0925 51.9593 73.7861 53.4491C73.8942 53.6732 73.9906 53.9028 74.0751 54.1368C74.1044 54.2215 74.1209 54.3102 74.1242 54.3998Z" fill="#995037"/>
<path d="M71.2807 46.5225C71.2512 46.5102 71.2231 46.4947 71.1969 46.4763L70.9629 46.3318L70.0671 45.7539L66.7844 43.6155L61.9297 40.4368L60.5253 39.5121L59.8029 39.0353L59.618 38.9169L59.4244 38.8186L59.0314 38.6221C57.9535 38.1309 56.8063 37.6859 55.6273 37.238C50.9027 35.4695 46.5769 33.9957 43.4502 32.9034L39.7486 31.632L38.7429 31.2794L38.4829 31.187C38.4526 31.1779 38.4235 31.1653 38.3962 31.1494L38.4858 31.1725L38.7516 31.2506L39.7659 31.5742L43.4849 32.8196C46.6202 33.8773 50.9518 35.3308 55.6794 37.105C56.8612 37.5501 58.0084 37.998 59.0949 38.495L59.4966 38.6973L59.696 38.7984L59.8781 38.9198L60.6034 39.3966L62.002 40.3241L66.8422 43.5375L70.0988 45.7163L70.9658 46.3145L71.1911 46.4734C71.2232 46.4854 71.2534 46.5019 71.2807 46.5225Z" fill="#995037"/>
<path d="M36.4486 35.2988C36.4812 35.3091 36.5123 35.3237 36.5411 35.3422L36.7983 35.4838L37.7865 36.0415L41.3957 38.1163L46.7359 41.2256C47.7357 41.8208 48.7875 42.4421 49.8769 43.0865L51.5241 44.0892C52.0901 44.4281 52.6748 44.7349 53.2752 45.0081C54.4918 45.5716 55.717 46.0398 56.87 46.5715C57.4387 46.8251 57.9908 47.1147 58.5229 47.4384C58.6529 47.5222 58.7829 47.6002 58.9043 47.6898L59.2684 47.9787C59.4938 48.181 59.7105 48.3833 59.9186 48.5769C60.7855 49.3398 61.6668 50.0217 62.4933 50.6344C63.3197 51.247 64.1028 51.8162 64.8252 52.3133C65.9593 53.1126 67.1372 53.8477 68.3535 54.5152C68.6837 54.6962 69.0243 54.8573 69.3736 54.9978L69.6626 55.096C69.6949 55.1045 69.726 55.1171 69.755 55.1336L69.6597 55.1105L69.3707 55.0267C69.0145 54.8982 68.6679 54.7446 68.3333 54.5672C67.103 53.9191 65.914 53.1953 64.7732 52.4C64.0421 51.9087 63.2562 51.3481 62.4239 50.7355C61.5917 50.1229 60.7132 49.4467 59.8232 48.6809C59.0228 47.814 57.9507 47.2361 56.8035 46.7102C55.6563 46.1843 54.4311 45.7161 53.2087 45.1497C52.6026 44.8753 52.0131 44.5655 51.4431 44.2222L49.796 43.2194L46.6636 41.3527L41.3437 38.2087L37.7605 36.0906L36.7896 35.5127L36.5382 35.3595L36.4486 35.2988Z" fill="#995037"/>
<path d="M29.6897 33.7904C29.6897 33.7904 31.9176 35.7323 32.5302 35.7958C33.1428 35.8594 36.7318 35.2526 36.7318 35.2526L38.7401 31.3746C38.7401 31.3746 35.3159 28.6554 34.5241 28.2336C33.7323 27.8117 29.0337 26.3755 29.0337 26.3755C28.9763 26.3952 28.924 26.4276 28.8807 26.4701C28.8374 26.5127 28.8041 26.5644 28.7833 26.6214C28.7625 26.6785 28.7548 26.7395 28.7606 26.7999C28.7664 26.8603 28.7857 26.9187 28.817 26.9708C28.817 26.9708 27.2508 25.9767 26.7567 26.8841C26.708 26.8441 26.65 26.8172 26.5881 26.8059C26.5261 26.7946 26.4623 26.7993 26.4027 26.8196C26.3431 26.8398 26.2897 26.8749 26.2474 26.9216C26.2052 26.9683 26.1756 27.025 26.1614 27.0864C26.1056 27.2252 26.0801 27.3744 26.0866 27.5239C26.0931 27.6733 26.1314 27.8197 26.1989 27.9533C26.1989 27.9533 25.5806 28.5312 26.0053 29.0918C26.4301 29.6524 29.6174 31.8717 29.6174 31.8717L31.042 33.3483C31.042 33.3483 29.7821 32.3831 29.2851 32.3947C28.7881 32.4062 28.869 32.9871 28.869 32.9871L29.6897 33.7904Z" fill="#B78876"/>
<path d="M30.6895 30.9876C29.8931 30.5485 29.1214 30.0662 28.3777 29.5428C27.6071 29.0616 26.8634 28.5388 26.1498 27.9766C26.9466 28.4149 27.7184 28.8972 28.4615 29.4214C29.2325 29.902 29.9763 30.4248 30.6895 30.9876Z" fill="#995037"/>
<path d="M31.3656 29.7478C31.1288 29.638 30.9017 29.5085 30.6866 29.3606L29.0915 28.3752C28.4673 27.9851 27.9009 27.6326 27.4993 27.3667C27.2727 27.236 27.0597 27.0831 26.8635 26.9102C27.105 27.0099 27.3363 27.1328 27.5542 27.2771C27.9732 27.517 28.5453 27.8551 29.1695 28.2452C29.7937 28.6353 30.3572 28.9965 30.753 29.271C30.9742 29.4069 31.1796 29.5668 31.3656 29.7478Z" fill="#995037"/>
<path d="M32.4087 28.742C32.3189 28.7085 32.2327 28.6659 32.1515 28.6148L31.4349 28.2392C30.8165 27.9242 29.9265 27.485 28.8544 26.9851L28.8226 26.9706V26.9359C28.805 26.83 28.7991 26.7224 28.8053 26.6152C28.8052 26.5466 28.8255 26.4795 28.8635 26.4224C28.9016 26.3653 28.9558 26.3207 29.0191 26.2944H29.0394L31.929 27.2365L33.3883 27.719C33.6253 27.7971 33.8565 27.8693 34.0819 27.9531C34.2972 28.057 34.504 28.1777 34.7002 28.3143C35.4573 28.8316 36.1104 29.3315 36.6566 29.7592C37.2027 30.1868 37.6419 30.5278 37.9396 30.7705L38.2834 31.0595C38.3243 31.0915 38.3621 31.1273 38.3961 31.1664C38.3487 31.1439 38.304 31.1157 38.2632 31.0826L37.9049 30.8197L36.6045 29.8372C36.0497 29.4297 35.3909 28.9385 34.6338 28.4328C34.4493 28.305 34.2562 28.1901 34.0558 28.0889C33.8362 28.0109 33.5993 27.9387 33.3652 27.8606L31.9204 27.381L29.0307 26.4274H29.0625C29.0191 26.4274 28.9671 26.5372 28.9613 26.6267C28.948 26.7226 28.948 26.8199 28.9613 26.9157L28.9238 26.8666C29.993 27.381 30.8772 27.8346 31.4869 28.1727C31.7759 28.3403 32.0273 28.479 32.1862 28.5773C32.2653 28.6253 32.3398 28.6804 32.4087 28.742Z" fill="#995037"/>
<path d="M33.4086 34.2989C33.1988 34.3017 32.99 34.2704 32.7902 34.2064C32.2996 34.0791 31.831 33.8784 31.4003 33.6111C30.9683 33.3441 30.5787 33.0139 30.2444 32.6315C30.0975 32.4816 29.9773 32.3077 29.889 32.1172C30.8072 33.1908 32.0359 33.9531 33.4057 34.2989H33.4086Z" fill="#995037"/>
<path d="M116.23 93.2805L116.611 102.426L116.565 104.64C116.565 105.695 117.432 105.507 118.472 105.507L131.346 105.57C131.346 105.57 131.958 104.279 131.01 103.871C130.063 103.464 122.885 99.4557 122.885 99.4557L123.353 92.6938L116.23 93.2805Z" fill="#00ACE9"/>
<path d="M116.23 93.2802C116.268 93.2701 116.308 93.2642 116.348 93.2628L116.706 93.2282L118.108 93.101L123.347 92.6387H123.408V92.6994C123.278 94.6181 123.119 96.9154 122.954 99.4641L122.919 99.4005L127.58 101.969C128.404 102.42 129.248 102.88 130.112 103.336L130.768 103.674C130.88 103.729 130.984 103.773 131.103 103.836C131.164 103.865 131.221 103.901 131.273 103.943C131.329 103.982 131.377 104.031 131.415 104.088C131.576 104.306 131.648 104.578 131.614 104.848C131.591 105.109 131.525 105.365 131.418 105.605L131.386 105.639H131.337H130.554L120.469 105.584H118.206C117.84 105.609 117.472 105.594 117.108 105.541C117.013 105.525 116.922 105.489 116.841 105.437C116.759 105.385 116.689 105.317 116.634 105.238C116.539 105.077 116.491 104.893 116.496 104.706C116.513 104.014 116.527 103.349 116.539 102.709C116.539 102.071 116.501 101.452 116.484 100.866C116.4 98.525 116.328 96.6293 116.282 95.3087C116.259 94.6614 116.241 94.1529 116.23 93.8061C116.23 93.6414 116.23 93.5171 116.23 93.4189C116.226 93.3766 116.226 93.334 116.23 93.2917C116.23 93.2917 116.23 93.3409 116.23 93.4304C116.23 93.52 116.23 93.6587 116.25 93.8263C116.27 94.1789 116.293 94.6932 116.328 95.3405C116.389 96.6553 116.478 98.5452 116.588 100.877C116.608 101.455 116.66 102.071 116.652 102.709C116.643 103.348 116.631 104.012 116.62 104.703C116.614 104.865 116.655 105.026 116.738 105.165C116.784 105.232 116.843 105.288 116.911 105.331C116.979 105.374 117.055 105.403 117.134 105.417C117.487 105.465 117.845 105.477 118.2 105.452H120.466L130.551 105.495H131.334L131.268 105.535C131.367 105.313 131.428 105.076 131.45 104.833C131.48 104.601 131.422 104.367 131.285 104.177C131.116 104.01 130.912 103.882 130.687 103.804L130.031 103.463C129.164 103.007 128.32 102.545 127.497 102.094L122.838 99.5132L122.804 99.493V99.4525C122.986 96.9038 123.15 94.6065 123.286 92.6907L123.341 92.7456L118.14 93.1472L116.727 93.2513L116.357 93.2773L116.23 93.2802Z" fill="#161B46"/>
<path d="M119.403 105.431C119.377 105.431 119.353 105.188 119.229 104.813C119.073 104.326 118.813 103.88 118.466 103.504C118.117 103.129 117.691 102.833 117.218 102.637C116.854 102.49 116.608 102.446 116.611 102.42C116.832 102.41 117.052 102.448 117.256 102.533C117.762 102.703 118.219 102.997 118.583 103.389C118.946 103.781 119.207 104.257 119.339 104.775C119.411 104.986 119.433 105.211 119.403 105.431Z" fill="#161B46"/>
<path d="M127.546 105.547C127.467 105.402 127.426 105.24 127.427 105.076C127.394 104.675 127.477 104.274 127.667 103.92C127.861 103.576 128.123 103.276 128.439 103.039C128.56 102.928 128.701 102.843 128.855 102.787C128.855 102.807 128.725 102.923 128.511 103.122C128.232 103.372 127.995 103.665 127.809 103.989C127.633 104.319 127.541 104.687 127.54 105.061C127.557 105.223 127.559 105.385 127.546 105.547Z" fill="#161B46"/>
<path d="M100.261 67.0365L100.524 69.1546C100.524 69.1546 114.915 65.4731 119.894 65.4731C122.763 65.4731 125.743 68.7443 125.173 73.9746C124.543 79.7539 123.052 99.1148 123.052 99.1148L116.493 99.5714C116.493 99.5714 114.817 88.2178 114.69 83.9671C114.604 82.0575 114.723 80.1442 115.045 78.26C115.045 78.26 111.288 80.8896 108.043 82.3055C105.411 83.4614 98.0305 87.559 91.9564 87.1949C86.1771 86.851 82.9464 82.6378 83.559 77.8843C84.2496 72.5153 86.992 70.4 86.992 70.4L93.6093 67.9583L100.261 67.0365Z" fill="#0064A7"/>
<path d="M93.722 87.0529C93.6513 87.0743 93.5787 87.0888 93.5053 87.0963C93.298 87.1348 93.0886 87.1609 92.8782 87.1743C92.1045 87.2336 91.3264 87.184 90.5665 87.0269C90.04 86.9178 89.5238 86.7641 89.0234 86.5675C88.4514 86.3383 87.9027 86.0548 87.3849 85.7208C86.1799 84.967 85.1864 83.919 84.4979 82.6754C83.8094 81.4319 83.4485 80.0336 83.4492 78.6122C83.4412 77.9962 83.4915 77.3808 83.5995 76.7743C83.7008 76.2476 83.8468 75.7304 84.0358 75.2284C84.3043 74.4996 84.675 73.8127 85.1368 73.1883C85.2601 73.0179 85.3933 72.8548 85.5355 72.6999C85.5812 72.642 85.6315 72.5879 85.6858 72.5381C85.6486 72.6013 85.606 72.6612 85.5587 72.7172C85.4778 72.8357 85.3304 73.0062 85.1859 73.2229C84.7466 73.8535 84.3929 74.5395 84.1341 75.2631C83.7443 76.3345 83.559 77.4695 83.5879 78.6093C83.5947 80.0077 83.9532 81.3819 84.6304 82.6055C85.3076 83.829 86.2816 84.8626 87.463 85.611C87.9721 85.9424 88.511 86.2258 89.0725 86.4577C89.565 86.6529 90.0723 86.8085 90.5896 86.9229C91.3408 87.0867 92.1102 87.1518 92.8782 87.1165C93.1499 87.1165 93.3608 87.0732 93.5024 87.0645C93.5751 87.0544 93.6486 87.0505 93.722 87.0529Z" fill="#161B46"/>
<path d="M102.489 68.5909C102.489 68.6314 101.117 69.0591 99.3973 69.5503C97.678 70.0416 96.2765 70.4028 96.2649 70.3623C96.2533 70.3219 97.6375 69.8942 99.3569 69.4058C101.076 68.9175 102.489 68.5505 102.489 68.5909Z" fill="#161B46"/>
<path d="M117.669 73.564C117.686 73.5813 117.446 73.8529 117.091 74.2835C116.632 74.8598 116.222 75.4736 115.866 76.1184C115.513 76.767 115.214 77.4435 114.973 78.1412C114.887 78.4354 114.786 78.7247 114.669 79.0081C114.669 78.925 114.681 78.8423 114.704 78.7625C114.733 78.6064 114.788 78.3811 114.869 78.1065C115.303 76.6778 116.031 75.3558 117.007 74.2257C117.153 74.0533 117.308 73.8892 117.472 73.7345C117.594 73.6275 117.66 73.564 117.669 73.564Z" fill="#161B46"/>
<path d="M40.3562 144.112C39.6095 144.112 38.9375 143.984 38.3402 143.728C37.7429 143.461 37.2735 143.088 36.9322 142.608C36.5909 142.128 36.4202 141.568 36.4202 140.928H38.3722C38.4149 141.408 38.6015 141.803 38.9322 142.112C39.2735 142.421 39.7482 142.576 40.3562 142.576C40.9855 142.576 41.4762 142.427 41.8282 142.128C42.1802 141.819 42.3562 141.424 42.3562 140.944C42.3562 140.571 42.2442 140.267 42.0202 140.032C41.8069 139.797 41.5349 139.616 41.2042 139.488C40.8842 139.36 40.4362 139.221 39.8602 139.072C39.1349 138.88 38.5429 138.688 38.0842 138.496C37.6362 138.293 37.2522 137.984 36.9322 137.568C36.6122 137.152 36.4522 136.597 36.4522 135.904C36.4522 135.264 36.6122 134.704 36.9322 134.224C37.2522 133.744 37.7002 133.376 38.2762 133.12C38.8522 132.864 39.5189 132.736 40.2762 132.736C41.3535 132.736 42.2335 133.008 42.9162 133.552C43.6095 134.085 43.9935 134.821 44.0682 135.76H42.0522C42.0202 135.355 41.8282 135.008 41.4762 134.72C41.1242 134.432 40.6602 134.288 40.0842 134.288C39.5615 134.288 39.1349 134.421 38.8042 134.688C38.4735 134.955 38.3082 135.339 38.3082 135.84C38.3082 136.181 38.4095 136.464 38.6122 136.688C38.8255 136.901 39.0922 137.072 39.4122 137.2C39.7322 137.328 40.1695 137.467 40.7242 137.616C41.4602 137.819 42.0575 138.021 42.5162 138.224C42.9855 138.427 43.3802 138.741 43.7002 139.168C44.0309 139.584 44.1962 140.144 44.1962 140.848C44.1962 141.413 44.0415 141.947 43.7322 142.448C43.4335 142.949 42.9909 143.355 42.4042 143.664C41.8282 143.963 41.1455 144.112 40.3562 144.112ZM48.4764 136.672V141.552C48.4764 141.883 48.5511 142.123 48.7004 142.272C48.8604 142.411 49.1271 142.48 49.5004 142.48H50.6204V144H49.1804C48.3591 144 47.7298 143.808 47.2924 143.424C46.8551 143.04 46.6364 142.416 46.6364 141.552V136.672H45.5964V135.184H46.6364V132.992H48.4764V135.184H50.6204V136.672H48.4764ZM54.1256 136.464C54.3922 136.016 54.7442 135.669 55.1816 135.424C55.6296 135.168 56.1576 135.04 56.7656 135.04V136.928H56.3016C55.5869 136.928 55.0429 137.109 54.6696 137.472C54.3069 137.835 54.1256 138.464 54.1256 139.36V144H52.3016V135.184H54.1256V136.464ZM66.5222 139.376C66.5222 139.707 66.5009 140.005 66.4582 140.272H59.7222C59.7755 140.976 60.0369 141.541 60.5062 141.968C60.9755 142.395 61.5515 142.608 62.2342 142.608C63.2155 142.608 63.9089 142.197 64.3142 141.376H66.2822C66.0155 142.187 65.5302 142.853 64.8262 143.376C64.1329 143.888 63.2689 144.144 62.2342 144.144C61.3915 144.144 60.6342 143.957 59.9622 143.584C59.3009 143.2 58.7782 142.667 58.3942 141.984C58.0209 141.291 57.8342 140.491 57.8342 139.584C57.8342 138.677 58.0155 137.883 58.3782 137.2C58.7515 136.507 59.2689 135.973 59.9302 135.6C60.6022 135.227 61.3702 135.04 62.2342 135.04C63.0662 135.04 63.8075 135.221 64.4582 135.584C65.1089 135.947 65.6155 136.459 65.9782 137.12C66.3409 137.771 66.5222 138.523 66.5222 139.376ZM64.6182 138.8C64.6075 138.128 64.3675 137.589 63.8982 137.184C63.4289 136.779 62.8475 136.576 62.1542 136.576C61.5249 136.576 60.9862 136.779 60.5382 137.184C60.0902 137.579 59.8235 138.117 59.7382 138.8H64.6182ZM70.4452 136.672V141.552C70.4452 141.883 70.5199 142.123 70.6692 142.272C70.8292 142.411 71.0959 142.48 71.4692 142.48H72.5892V144H71.1492C70.3279 144 69.6985 143.808 69.2612 143.424C68.8239 143.04 68.6052 142.416 68.6052 141.552V136.672H67.5652V135.184H68.6052V132.992H70.4452V135.184H72.5892V136.672H70.4452ZM73.6623 139.584C73.6623 138.677 73.8436 137.883 74.2063 137.2C74.5796 136.507 75.0916 135.973 75.7423 135.6C76.393 135.227 77.1396 135.04 77.9823 135.04C79.049 135.04 79.929 135.296 80.6223 135.808C81.3263 136.309 81.801 137.029 82.0463 137.968H80.0783C79.9183 137.531 79.6623 137.189 79.3103 136.944C78.9583 136.699 78.5156 136.576 77.9823 136.576C77.2356 136.576 76.6383 136.843 76.1903 137.376C75.753 137.899 75.5343 138.635 75.5343 139.584C75.5343 140.533 75.753 141.275 76.1903 141.808C76.6383 142.341 77.2356 142.608 77.9823 142.608C79.0383 142.608 79.737 142.144 80.0783 141.216H82.0463C81.7903 142.112 81.3103 142.827 80.6063 143.36C79.9023 143.883 79.0276 144.144 77.9823 144.144C77.1396 144.144 76.393 143.957 75.7423 143.584C75.0916 143.2 74.5796 142.667 74.2063 141.984C73.8436 141.291 73.6623 140.491 73.6623 139.584ZM88.4241 135.04C89.0961 135.04 89.6934 135.184 90.2161 135.472C90.7494 135.76 91.1654 136.187 91.4641 136.752C91.7734 137.317 91.9281 138 91.9281 138.8V144H90.1201V139.072C90.1201 138.283 89.9227 137.68 89.5281 137.264C89.1334 136.837 88.5947 136.624 87.9121 136.624C87.2294 136.624 86.6854 136.837 86.2801 137.264C85.8854 137.68 85.6881 138.283 85.6881 139.072V144H83.8641V132.16H85.6881V136.208C85.9974 135.835 86.3867 135.547 86.8561 135.344C87.3361 135.141 87.8587 135.04 88.4241 135.04ZM95.1827 134.016C94.852 134.016 94.5747 133.904 94.3507 133.68C94.1267 133.456 94.0147 133.179 94.0147 132.848C94.0147 132.517 94.1267 132.24 94.3507 132.016C94.5747 131.792 94.852 131.68 95.1827 131.68C95.5027 131.68 95.7747 131.792 95.9987 132.016C96.2227 132.24 96.3347 132.517 96.3347 132.848C96.3347 133.179 96.2227 133.456 95.9987 133.68C95.7747 133.904 95.5027 134.016 95.1827 134.016ZM96.0787 135.184V144H94.2547V135.184H96.0787ZM102.921 135.04C103.615 135.04 104.233 135.184 104.777 135.472C105.332 135.76 105.764 136.187 106.073 136.752C106.383 137.317 106.537 138 106.537 138.8V144H104.729V139.072C104.729 138.283 104.532 137.68 104.137 137.264C103.743 136.837 103.204 136.624 102.521 136.624C101.839 136.624 101.295 136.837 100.889 137.264C100.495 137.68 100.297 138.283 100.297 139.072V144H98.4734V135.184H100.297V136.192C100.596 135.829 100.975 135.547 101.433 135.344C101.903 135.141 102.399 135.04 102.921 135.04ZM112.416 135.04C113.099 135.04 113.701 135.179 114.224 135.456C114.757 135.723 115.173 136.059 115.472 136.464V135.184H117.312V144.144C117.312 144.955 117.141 145.675 116.8 146.304C116.459 146.944 115.963 147.445 115.312 147.808C114.672 148.171 113.904 148.352 113.008 148.352C111.813 148.352 110.821 148.069 110.032 147.504C109.243 146.949 108.795 146.192 108.688 145.232H110.496C110.635 145.691 110.928 146.059 111.376 146.336C111.835 146.624 112.379 146.768 113.008 146.768C113.744 146.768 114.336 146.544 114.784 146.096C115.243 145.648 115.472 144.997 115.472 144.144V142.672C115.163 143.088 114.741 143.44 114.208 143.728C113.685 144.005 113.088 144.144 112.416 144.144C111.648 144.144 110.944 143.952 110.304 143.568C109.675 143.173 109.173 142.629 108.8 141.936C108.437 141.232 108.256 140.437 108.256 139.552C108.256 138.667 108.437 137.883 108.8 137.2C109.173 136.517 109.675 135.989 110.304 135.616C110.944 135.232 111.648 135.04 112.416 135.04ZM115.472 139.584C115.472 138.976 115.344 138.448 115.088 138C114.843 137.552 114.517 137.211 114.112 136.976C113.707 136.741 113.269 136.624 112.8 136.624C112.331 136.624 111.893 136.741 111.488 136.976C111.083 137.2 110.752 137.536 110.496 137.984C110.251 138.421 110.128 138.944 110.128 139.552C110.128 140.16 110.251 140.693 110.496 141.152C110.752 141.611 111.083 141.963 111.488 142.208C111.904 142.443 112.341 142.56 112.8 142.56C113.269 142.56 113.707 142.443 114.112 142.208C114.517 141.973 114.843 141.632 115.088 141.184C115.344 140.725 115.472 140.192 115.472 139.584Z" fill="#161B46"/>
</svg>
