<svg width="107" height="109" viewBox="0 0 107 109" fill="none" xmlns="http://www.w3.org/2000/svg">
<ellipse cx="52.4996" cy="65" rx="43.4762" ry="44" fill="#CDF1FF"/>
<mask id="mask0_4637_39984" style="mask-type:alpha" maskUnits="userSpaceOnUse" x="0" y="0" width="107" height="108">
<ellipse cx="53.5" cy="54" rx="53.5" ry="54" fill="#CDF1FF"/>
</mask>
<g mask="url(#mask0_4637_39984)">
<path d="M39.4642 52.9514L22.8485 62.0845L6.16016 35.8227L26.343 28.8143L39.4642 52.9514Z" fill="#2E3048"/>
<path d="M38.4091 52.1625L22.8678 60.7003L7.26367 36.1469L26.1397 29.5887L38.4091 52.1625Z" fill="white"/>
<path d="M44.1007 47.5693C44.1007 47.5693 41.2063 46.1851 39.9383 45.4639C38.6702 44.7427 35.4032 43.7505 35.1418 43.5134C34.8805 43.2762 25.4618 42.6954 24.8907 42.2017C24.3196 41.7081 23.763 43.3585 26.2072 43.8909C28.6465 44.4233 32.0442 45.7349 32.2281 46.6884C32.4121 47.6419 29.721 47.8694 29.45 48.6535C29.1789 49.4375 29.5274 49.2633 29.9146 49.4327C30.3018 49.6021 33.1187 48.0436 34.3577 48.4841C35.5968 48.9245 37.4892 48.3147 38.4379 48.6389C39.3865 48.9632 44.0039 50.5169 44.0039 50.5169L44.1103 47.5693H44.1007Z" fill="#A2675F"/>
<path d="M22.0358 58.7885C22.0358 58.7885 19.6061 56.6008 18.43 55.686C17.2539 54.7713 15.0468 52.0802 14.7225 51.9254C14.3983 51.7705 10.1826 43.1214 9.49534 42.7729C8.80806 42.4244 10.1439 41.2628 11.6007 43.3537C13.0527 45.4446 15.6083 48.1356 16.5811 47.942C17.5539 47.7436 16.7166 45.1203 17.3507 44.5589C17.9847 43.9974 17.9557 44.3943 18.2654 44.6896C18.5752 44.9896 18.2025 48.247 19.1027 49.244C20.003 50.241 20.1627 52.2642 20.8355 53.0289C21.5131 53.7984 24.7704 57.5398 24.7704 57.5398L22.0358 58.7836V58.7885Z" fill="#A2675F"/>
<path d="M69.5743 81.9333C69.5743 81.9333 75.0047 90.5631 74.603 98.3651C74.1965 106.167 76.5729 114.686 77.3909 122.831C78.3008 131.916 82.0227 153.425 82.1583 158.284C82.2938 163.144 81.5823 178.661 81.5823 178.661L74.1287 178.83C74.1287 178.83 67.8706 141.228 66.2492 137.395C64.6278 133.557 56.5885 106.206 56.3175 103.137C56.0465 100.069 69.5791 81.9333 69.5791 81.9333H69.5743Z" fill="#2E3048"/>
<path d="M40.9796 83.0998C40.9796 83.0998 36.8849 104.483 36.3477 109.255C35.8056 114.027 35.4474 132.361 35.1764 135.348C34.9054 138.334 33.3759 174.397 31.9336 178.83H41.4587C41.4587 178.83 48.772 152.612 48.772 140.207C48.772 127.802 54.4202 113.238 58.0696 105.054C61.719 96.8696 70.0631 96.6759 72.3089 81.488C72.3089 81.488 44.0142 78.284 40.9796 83.0998Z" fill="#2E3048"/>
<path d="M60.508 9.37207C60.508 9.37207 53.219 6.64715 49.8552 12.1986C46.4914 17.7501 46.8157 28.8579 50.4941 30.2276C54.1676 31.5925 59.6901 30.881 61.5728 27.4059C63.4556 23.9356 65.1545 18.9117 65.0722 15.5576C64.9899 12.2035 62.4247 10.3401 60.5129 9.37207H60.508Z" fill="#A2675F"/>
<path d="M51.2882 30.4841C51.2882 30.4841 51.5931 32.454 51.0898 33.422C50.5864 34.39 60.5374 34.419 60.5374 34.419C60.5374 34.419 61.3457 29.1434 62.8752 24.6906C64.4046 20.233 51.2882 30.489 51.2882 30.489V30.4841Z" fill="#8B5650"/>
<path d="M62.87 24.6858C62.87 24.6858 62.1828 25.8184 59.3804 25.378C56.578 24.9375 53.161 21.2107 51.9897 20.7993C50.8184 20.3879 50.8088 19.7006 50.8088 19.7006L50.0779 20.7703L48.834 20.8477C48.834 20.8477 49.9666 17.513 48.2581 16.1529C46.5496 14.7929 50.0344 5.35972 59.0222 8.50088C59.0222 8.50088 65.9241 10.403 65.6724 14.3282C65.4207 18.2535 64.414 22.7256 62.87 24.681V24.6858Z" fill="#3E4148"/>
<path d="M50.499 33.3059C50.499 33.3059 50.5329 31.4522 51.3702 31.2731C52.2124 31.094 60.6388 30.2857 61.6697 30.6923V32.8509C61.6697 32.8509 59.6853 34.0754 50.499 33.3059Z" fill="#F9FCFF"/>
<path d="M50.9983 18.2777C51.1581 17.6195 52.8279 15.7367 53.4716 17.7501C54.1105 19.7636 52.5036 22.474 51.6033 22.2417C50.7031 22.0093 50.5966 19.9427 50.9983 18.2729V18.2777Z" fill="#A2675F"/>
<path d="M17.0408 55.1924C17.0408 55.1924 17.0505 55.1924 17.0554 55.1924C16.9973 55.2166 16.9876 55.2214 17.0408 55.1924Z" fill="#363957"/>
<path d="M75.701 102.489C75.701 102.489 71.2288 103.805 63.6058 104.647C55.9828 105.49 36.9277 104.343 36.8116 103.442C36.6906 102.542 40.911 69.9011 40.669 68.2168C40.427 66.5373 40.3012 60.5454 40.3012 60.5454C40.2092 62.1861 38.5346 68.8895 36.5163 72.5438C35.7855 73.8651 33.3413 78.0033 32.1603 77.0595C26.454 72.5002 17.6161 55.3327 17.0547 55.1875C17.5242 54.9842 21.2413 53.2709 21.764 53.0966C22.219 52.9466 26.3378 57.3026 28.8352 60.0081C29.9484 61.2133 30.7374 62.0893 30.7374 62.0893C31.4585 60.4679 34.0818 50.2555 34.8949 46.7223C36.7341 38.7509 36.4534 38.4218 36.4534 38.4218C42.0291 36.7326 50.4991 33.301 50.4991 33.301L61.6698 32.8461C61.6698 32.8461 71.9209 35.1015 75.9623 36.9262C76.3447 37.1004 76.3447 46.0738 77.3998 48.426L74.0505 55.4876C74.0505 55.4876 72.1145 69.48 71.7176 75.6994C71.5337 78.555 75.7058 102.484 75.7058 102.484L75.701 102.489Z" fill="#00ACE9"/>
<path d="M77.8596 60.0808C77.5692 61.0246 76.2431 61.8183 75.3816 62.1668C74.8298 62.3894 74.2151 62.462 73.5908 62.3459L73.1552 62.2636L65.4983 60.8455C65.4983 60.8455 63.8237 41.5532 75.9575 36.931C76.277 37.0375 80.5362 51.4462 77.8596 60.0808Z" fill="#00ACE9"/>
<path d="M75.3866 62.1668C74.8348 62.3895 74.2201 62.4621 73.5958 62.3459L73.1602 62.2636L73.9152 52.4045L75.3866 62.162V62.1668Z" fill="#228AB2"/>
<path d="M30.7378 62.0942L29.8037 66.0581C29.8037 66.0581 28.7873 62.0797 28.8357 60.0178C29.9489 61.223 30.7378 62.099 30.7378 62.099V62.0942Z" fill="#228AB2"/>
<path d="M62.585 10.0303C62.585 10.0303 72.1391 8.83483 62.7495 24.7923L62.585 10.0303Z" fill="#3E4148"/>
<path d="M13.841 34.4143L12.8682 32.7445L20.5202 30.1067L21.493 31.7668L13.841 34.4143Z" fill="#2E3048"/>
</g>
</svg>
