<svg width="107" height="109" viewBox="0 0 107 109" fill="none" xmlns="http://www.w3.org/2000/svg">
<ellipse cx="52.4996" cy="65" rx="43.4762" ry="44" fill="#CDF1FF"/>
<mask id="mask0_4637_39894" style="mask-type:alpha" maskUnits="userSpaceOnUse" x="0" y="0" width="107" height="108">
<ellipse cx="53.5" cy="54" rx="53.5" ry="54" fill="#CDF1FF"/>
</mask>
<g mask="url(#mask0_4637_39894)">
<path d="M68.1989 86.387L38.5025 87.3362C38.5025 87.3362 31.8943 131.474 32.0751 134.539L27.998 166.554L39.8585 166.97C39.8585 166.97 41.7253 156.587 43.027 149.482C43.8949 144.754 45.4724 137.816 45.9018 133.87C46.3312 129.924 52.2388 102.749 52.2388 102.749C52.2388 102.749 52.7541 134.358 52.7631 135.669C52.7767 136.984 51.3936 166.942 51.3936 166.942H63.1682C63.7784 161.536 65.2202 139.895 65.5321 135.524C66.0926 127.632 68.8543 104.914 69.112 99.2147C69.3696 93.515 68.1944 86.3824 68.1944 86.3824L68.1989 86.387Z" fill="#263238"/>
<path d="M43.0087 91.1239C42.95 91.1239 42.8867 90.5092 42.8641 89.7498C42.8415 88.9905 42.8641 88.3712 42.9229 88.3712C42.9771 88.3712 43.0449 88.9859 43.0675 89.7453C43.0901 90.5047 43.0675 91.1239 43.0087 91.1239Z" fill="#455A64"/>
<path d="M44.0938 90.8031C44.0396 90.7985 44.0396 90.2742 44.0984 89.6279C44.1571 88.986 44.252 88.4662 44.3108 88.4707C44.365 88.4753 44.365 88.9996 44.3063 89.6459C44.2475 90.2878 44.1526 90.8076 44.0938 90.7985V90.8031Z" fill="#455A64"/>
<path d="M62.2143 90.8076C62.2717 90.8076 62.3183 90.3563 62.3183 89.7996C62.3183 89.2429 62.2717 88.7916 62.2143 88.7916C62.1569 88.7916 62.1104 89.2429 62.1104 89.7996C62.1104 90.3563 62.1569 90.8076 62.2143 90.8076Z" fill="#455A64"/>
<path d="M63.3808 91.3363C63.3265 91.3454 63.2045 90.7668 63.2678 90.0481C63.3265 89.3294 63.5435 88.778 63.5932 88.7961C63.652 88.8142 63.5254 89.3701 63.4711 90.0662C63.4124 90.7623 63.4395 91.3318 63.3808 91.3363Z" fill="#455A64"/>
<path d="M53.9199 102.044C53.9199 102.044 53.9335 101.859 53.9877 101.529L54.2273 100.132C54.4216 98.9525 54.6522 97.3163 54.8013 95.5037C54.946 93.6867 54.9821 92.0369 54.9821 90.8391C54.9821 90.2741 54.9731 89.7995 54.9731 89.4244C54.9731 89.0899 54.9731 88.9045 54.9866 88.9045C55.0002 88.9045 55.0228 89.0899 55.0499 89.4198C55.0816 89.7543 55.1042 90.2379 55.1268 90.8391C55.1674 92.0369 55.1539 93.6957 55.0047 95.5218C54.8556 97.3479 54.6024 98.9842 54.3719 100.159C54.2544 100.747 54.1504 101.222 54.0691 101.547C53.9877 101.872 53.938 102.049 53.9244 102.049L53.9199 102.044Z" fill="#455A64"/>
<path d="M52.903 89.2345C52.912 89.2707 52.5911 89.2346 52.3109 89.5645C52.1798 89.7227 52.0668 89.9713 52.1165 90.229C52.1572 90.4866 52.4058 90.7081 52.7086 90.7668C53.0114 90.8256 53.3233 90.7126 53.4589 90.4866C53.5991 90.2651 53.5855 89.9939 53.5222 89.7995C53.3821 89.3882 53.0702 89.3069 53.0928 89.2752C53.0928 89.2662 53.1697 89.2662 53.2917 89.325C53.4092 89.3837 53.5629 89.5238 53.6578 89.7498C53.7482 89.9668 53.7934 90.2922 53.6217 90.5905C53.4544 90.8979 53.0431 91.0471 52.6725 90.9748C52.3018 90.9115 51.9719 90.6177 51.9312 90.2696C51.8815 89.9306 52.0397 89.6459 52.2024 89.4741C52.3741 89.3023 52.5685 89.23 52.6996 89.2165C52.8352 89.2029 52.903 89.23 52.903 89.2436V89.2345Z" fill="#455A64"/>
<path d="M69.7671 88.3711C69.6631 87.9915 67.2992 68.3973 67.2992 68.3973L68.5286 42.9677L57.9473 39.2568L56.2704 37.9777L45.6348 38.0997L44.428 39.8941L34.3574 44.4774L37.1643 65.3101L37.9508 82.7437L38.6966 89.1983L68.5467 90.9792L69.7671 88.3666V88.3711Z" fill="#228AB2"/>
<g opacity="0.3">
<path opacity="0.3" d="M68.145 75.2993L56.9761 76.6418C56.8676 77.4689 57.4959 78.2554 58.2643 78.5763C59.0327 78.8972 59.9051 78.852 60.7277 78.73C61.5549 78.6125 62.382 78.4317 63.2137 78.504C64.0454 78.5763 64.859 78.9063 65.6907 78.8566C66.5178 78.8068 67.3133 78.3548 67.7834 77.6723C68.2535 76.9898 68.3891 76.0858 68.1405 75.2948L68.145 75.2993Z" fill="black"/>
</g>
<path d="M68.5293 42.9678C68.5293 42.9678 71.0063 43.3158 72.4527 47.655C73.8991 51.9942 77.2981 67.76 77.5151 68.8448C77.7321 69.9296 76.7919 73.3919 73.0132 74.9423C69.3881 76.4293 66.5225 75.9593 66.5225 75.9593V67.9769L68.1135 66.2413L67.4897 63.4253L68.5293 42.9678Z" fill="#104A5B"/>
<path d="M75.2547 66.6661C75.2547 66.6661 75.1191 66.6119 74.8751 66.5079C74.6355 66.3994 74.2829 66.2458 73.8445 66.0876C73.4015 65.9248 72.8682 65.7531 72.2625 65.6356C71.9597 65.5768 71.6342 65.5316 71.2997 65.5135C70.9607 65.4909 70.6172 65.5045 70.2692 65.5768C68.868 65.8616 67.747 66.6526 67.1775 67.3848C66.8837 67.7509 66.7391 68.1035 66.6396 68.3476C66.5673 68.5962 66.5266 68.7408 66.5176 68.7363C66.5176 68.7363 66.5176 68.7001 66.5311 68.6323C66.5447 68.5645 66.5628 68.4606 66.5944 68.334C66.6803 68.0854 66.8204 67.7193 67.1097 67.3351C67.6747 66.5712 68.8092 65.7576 70.2421 65.4638C70.5991 65.3915 70.9607 65.3779 71.2997 65.405C71.6433 65.4276 71.9687 65.4728 72.2761 65.5361C72.8908 65.6582 73.4286 65.839 73.8671 66.0152C74.3055 66.187 74.6536 66.3542 74.8886 66.4718C75.0061 66.5305 75.0965 66.5802 75.1598 66.6119C75.2186 66.648 75.2502 66.6661 75.2502 66.6706L75.2547 66.6661Z" fill="#263238"/>
<path d="M73.0131 65.179C73.0131 65.179 72.7148 65.066 72.2131 64.9621C71.7159 64.8581 70.9972 64.8129 70.2469 65.0028C69.492 65.1926 68.8818 65.5723 68.4931 65.8977C68.0999 66.2232 67.9055 66.4808 67.8919 66.4672C67.8874 66.4672 67.9281 66.3949 68.0185 66.2819C68.1089 66.1689 68.249 66.0107 68.4434 65.839C68.8276 65.4909 69.4468 65.0886 70.2198 64.8988C70.9927 64.7044 71.7294 64.7677 72.2311 64.8898C72.4843 64.953 72.6786 65.0208 72.8142 65.0796C72.9453 65.1384 73.0176 65.179 73.0131 65.1836V65.179Z" fill="#263238"/>
<path d="M67.7111 49.472C67.7428 49.472 67.7202 53.3547 67.6614 58.1459C67.6027 62.9371 67.5303 66.8198 67.4987 66.8198C67.4671 66.8198 67.4897 62.9371 67.5484 58.1459C67.6072 53.3547 67.6795 49.472 67.7111 49.472Z" fill="#263238"/>
<path d="M67.9056 67.1407L61.9573 67.0638C61.5505 67.0638 61.1708 67.2763 60.9674 67.6288L56.8994 76.4383L57.0531 77.0304H63.9642L68.005 67.9498L67.9011 67.1407H67.9056Z" fill="#263238"/>
<path d="M67.8509 68.3069L67.6295 68.8041L66.4226 71.2404C66.4226 71.2404 63.3038 70.9601 62.8157 70.8968C62.3275 70.8336 62.0653 71.3534 62.0292 71.6607C61.9975 71.9681 62.2913 72.3206 62.2913 72.3206C62.2913 72.3206 60.3613 71.7104 59.7104 71.2539C59.055 70.7974 58.7296 71.0822 58.7296 71.0822C58.142 70.4855 57.3917 71.0912 57.3555 71.2539C57.3239 71.4166 58.0425 73.1478 58.3047 73.5501C58.5669 73.9478 60.0042 75.34 60.1037 75.5027C60.2031 75.6654 61.315 75.9592 62.5851 76.6598C63.7694 77.3107 64.6689 76.5468 64.7909 76.4338C64.8135 76.4338 64.8632 76.4338 64.9717 76.4203C65.2655 76.3886 66.052 75.6338 66.2463 75.6609C66.4407 75.6835 66.6079 75.6383 66.9967 75.2044C67.3899 74.7705 68.434 72.9263 68.7233 71.9455C68.9493 71.168 68.8182 70.9646 68.7549 70.9149C68.8499 70.9692 69.216 71.1454 69.9075 71.2584C70.7257 71.3895 71.1505 70.8019 71.2138 69.69C71.2771 68.5781 68.764 68.6052 67.8464 68.3114L67.8509 68.3069Z" fill="#A2675F"/>
<path d="M67.4309 73.3874C67.4309 73.3874 67.3585 73.41 67.2229 73.4371C67.0873 73.4642 66.893 73.4913 66.6489 73.5094C66.1607 73.5456 65.4782 73.5275 64.746 73.3738C64.0137 73.2156 63.3855 72.9489 62.9561 72.7094C62.7436 72.5918 62.5719 72.4879 62.4634 72.4065C62.3504 72.3297 62.2916 72.2799 62.2961 72.2754C62.3052 72.2619 62.5583 72.4291 62.9922 72.6461C63.4261 72.863 64.0499 73.1162 64.7731 73.2744C65.4963 73.428 66.1698 73.4597 66.6534 73.4416C67.1371 73.4235 67.4354 73.3738 67.4399 73.3919L67.4309 73.3874Z" fill="#7A4A45"/>
<path d="M67.4896 71.1589C67.4986 71.1815 67.1777 71.3081 66.7618 71.3262C66.346 71.3443 66.016 71.2493 66.0206 71.2267C66.0251 71.1996 66.3505 71.2448 66.7573 71.2267C67.1596 71.2087 67.4805 71.1318 67.4896 71.1589Z" fill="#7A4A45"/>
<path d="M68.9674 71.055C68.9538 71.0822 68.5154 70.8968 67.9459 70.7386C67.3809 70.5804 66.9062 70.5126 66.9062 70.4855C66.9062 70.4584 67.3944 70.4855 67.9685 70.6437C68.547 70.8019 68.9719 71.0324 68.9629 71.055H68.9674Z" fill="#7A4A45"/>
<path d="M68.6778 68.9577C68.7049 68.9667 68.5919 69.3057 68.5874 69.7397C68.5874 69.9566 68.5964 70.1555 68.6416 70.2821C68.6868 70.4131 68.7727 70.4448 68.7682 70.4583C68.7682 70.4629 68.741 70.4674 68.7004 70.4448C68.6597 70.4267 68.61 70.3815 68.5738 70.3092C68.5015 70.1691 68.4834 69.9611 68.4834 69.7397C68.4879 69.2877 68.6506 68.9487 68.6732 68.9577H68.6778Z" fill="#7A4A45"/>
<path d="M65.6809 75.2812C65.6809 75.2812 65.6492 75.2857 65.586 75.2812C65.5091 75.2812 65.4187 75.2767 65.3102 75.2721C65.0707 75.2586 64.7226 75.2405 64.2932 75.1908C63.8638 75.1411 63.3576 75.0597 62.8107 74.8789C62.5395 74.7885 62.2592 74.671 61.988 74.5218C61.7123 74.3726 61.4456 74.1964 61.1699 74.0201C59.9269 73.2291 58.824 72.5149 58.1099 72.0449L58.0918 72.0358V72.0177C58.1415 71.6561 58.3449 71.4256 58.4896 71.3081C58.5664 71.2493 58.6297 71.2132 58.6749 71.1906C58.7201 71.1725 58.7472 71.1635 58.7472 71.1635C58.7472 71.1725 58.6523 71.2086 58.5122 71.3307C58.3766 71.4527 58.1912 71.6787 58.1596 72.0222L58.146 71.9906C58.8738 72.4426 59.9857 73.1432 61.2287 73.9387C61.5044 74.115 61.7711 74.2913 62.0423 74.4359C62.309 74.5851 62.5847 74.6981 62.8514 74.793C63.3847 74.9738 63.891 75.0597 64.3113 75.123C64.7362 75.1817 65.0842 75.2088 65.3193 75.236C65.4278 75.2495 65.5182 75.2586 65.595 75.2631C65.6583 75.2721 65.6899 75.2767 65.6899 75.2812H65.6809Z" fill="#7A4A45"/>
<path d="M64.6285 76.3434C64.6285 76.3434 64.5245 76.3434 64.3347 76.3118C64.1493 76.2847 63.8781 76.235 63.5482 76.1626C62.8883 76.0135 61.9798 75.783 61.0215 75.3852C60.5469 75.1818 60.113 74.9242 59.7695 74.6349C59.4214 74.3501 59.1412 74.0563 58.9152 73.8032C58.6892 73.5501 58.5219 73.3331 58.4044 73.1885C58.2869 73.0393 58.2281 72.9534 58.2327 72.9489C58.2372 72.9444 58.3095 73.0212 58.4361 73.1614C58.5626 73.3015 58.7389 73.5094 58.9694 73.7535C59.1999 73.9976 59.4802 74.2868 59.8282 74.5626C60.1717 74.8428 60.5921 75.0914 61.0622 75.2948C62.0069 75.6926 62.9109 75.9321 63.5663 76.0994C63.8917 76.1807 64.1584 76.2395 64.3437 76.2756C64.529 76.3163 64.6285 76.3389 64.6285 76.348V76.3434Z" fill="#7A4A45"/>
<path d="M35.5282 49.5759C35.4965 49.585 35.2163 48.7759 34.8999 47.7725C34.5835 46.7645 34.353 45.9419 34.3801 45.9328C34.4117 45.9238 34.692 46.7329 35.0084 47.7363C35.3248 48.7397 35.5553 49.5669 35.5282 49.5759Z" fill="#263238"/>
<path d="M68.4337 44.1791C68.4337 44.1791 68.4246 44.387 68.3794 44.717C68.3297 45.0876 68.2709 45.5215 68.2077 46.0006C68.1534 46.4843 68.1037 46.9182 68.0585 47.2888C68.0223 47.6188 67.9952 47.8222 67.9817 47.8222C67.9681 47.8222 67.9636 47.6143 67.9817 47.2843C67.9997 46.9498 68.0359 46.4933 68.0992 45.9871C68.1625 45.4808 68.2393 45.0288 68.3071 44.7034C68.3749 44.378 68.4246 44.1791 68.4427 44.1791H68.4337Z" fill="#263238"/>
<path d="M58.0518 74.0653C58.0518 74.0653 57.9026 74.2054 57.6088 74.4224C57.315 74.6393 56.8811 74.9422 56.3341 75.2993C55.2403 76.0179 53.6899 76.9445 51.9 77.835C50.1101 78.7209 48.4287 79.3989 47.1992 79.8328C46.5845 80.0498 46.0783 80.2125 45.7302 80.3165C45.3777 80.4204 45.1833 80.4701 45.1788 80.4566C45.1743 80.443 45.3596 80.3662 45.7031 80.2351C46.0828 80.0905 46.5709 79.9051 47.145 79.6882C48.3609 79.2181 50.0197 78.522 51.8051 77.6406C53.586 76.7547 55.1454 75.8552 56.2528 75.1727C56.7771 74.8473 57.2155 74.5715 57.5636 74.3546C57.8709 74.1602 58.0472 74.0563 58.0563 74.0698L58.0518 74.0653Z" fill="#263238"/>
<g opacity="0.3">
<path opacity="0.3" d="M35.4787 76.027C34.3849 75.4484 33.282 74.8654 32.0932 74.5354C30.9045 74.2054 29.5982 74.1512 28.4546 74.6213C28.3281 74.6755 28.1834 74.7569 28.1744 74.8925C28.1608 75.0823 28.4004 75.1727 28.5902 75.2044C30.8593 75.566 33.2594 75.7332 35.5329 76.0632" fill="black"/>
</g>
<path d="M48.0174 95.6303C48.0174 95.6303 45.6896 93.7409 45.0162 92.8821C44.3427 92.0233 43.8997 91.5261 43.8997 91.5261C43.8997 91.5261 41.1109 90.69 40.0848 89.5102C39.0588 88.3305 37.3774 86.631 37.3774 86.631L34.0732 90.0933C34.0732 90.0933 35.9807 93.185 36.1344 94.202C36.288 95.219 37.4542 98.0259 37.4542 98.0259L43.7958 94.2336C43.7958 94.2336 45.1472 96.123 46.0106 96.3309C46.7202 96.4982 47.9587 97.0134 48.0129 95.6303H48.0174Z" fill="#A2675F"/>
<path d="M34.3577 44.4774C34.3577 44.4774 32.0706 45.0605 29.8061 53.5807C27.7585 61.2737 24.9787 76.1265 25.0737 77.6226C25.1686 79.1142 34.0052 92.516 34.0052 92.516L35.9126 93.194L40.0168 89.7814C40.0168 89.7814 41.3547 87.5575 40.975 87.0151C40.5953 86.4727 38.8913 85.3337 38.8913 85.3337L35.5329 76.0632L37.3997 63.7733L34.3623 44.4729L34.3577 44.4774Z" fill="#104A5B"/>
<path d="M32.0703 75.4891C32.0703 75.4891 32.1562 75.4891 32.3189 75.5027C32.5088 75.5298 32.7393 75.5569 33.015 75.5976C33.6568 75.6971 34.5111 75.8281 35.5462 75.9818L35.5959 75.9909L35.614 76.0406C36.1428 77.487 36.8118 79.304 37.5395 81.2838C38.0638 82.7437 38.5565 84.1178 38.9859 85.3111L38.9543 85.2704C39.23 85.5055 39.5057 85.6998 39.7498 85.9439C39.9893 86.188 40.1702 86.4592 40.2922 86.7304C40.5453 87.2818 40.577 87.8287 40.5227 88.2491C40.464 88.6785 40.3103 88.9859 40.2334 89.1938C40.1476 89.4017 40.0978 89.5147 40.0888 89.5102C40.0797 89.5102 40.1114 89.3881 40.1792 89.1712C40.2425 88.9542 40.3736 88.6423 40.4097 88.231C40.4459 87.8242 40.4007 87.3044 40.1476 86.7937C40.021 86.5405 39.8492 86.2874 39.6232 86.0659C39.3972 85.849 39.1079 85.6456 38.8322 85.4196L38.8096 85.4015L38.8006 85.3744C38.3667 84.1856 37.865 82.8115 37.3316 81.3561C36.622 79.3718 35.9711 77.5503 35.4513 76.0993L35.5191 76.1536C34.493 75.9637 33.6388 75.8101 33.0014 75.6925C32.7257 75.6383 32.4997 75.5931 32.3099 75.5524C32.1517 75.5163 32.0703 75.4937 32.0703 75.4846V75.4891Z" fill="#263238"/>
<path d="M36.4276 53.6982C36.4909 53.6982 36.8751 59.963 37.2909 67.6967C37.7068 75.4349 37.9915 81.7042 37.9328 81.7087C37.8695 81.7087 37.4853 75.444 37.0694 67.7102C36.6536 59.9765 36.3688 53.7028 36.4276 53.6982Z" fill="#263238"/>
<path d="M53.1612 45.1328C53.1612 45.1328 53.0346 45.1735 52.795 45.1961C52.56 45.2187 52.212 45.2323 51.7871 45.2052C50.9373 45.16 49.7531 44.9249 48.5914 44.3283C47.4253 43.7316 46.5439 42.909 46.0105 42.2491C45.7393 41.9191 45.5495 41.6298 45.4274 41.4264C45.3054 41.223 45.2512 41.101 45.2647 41.0965C45.2964 41.0784 45.5676 41.5259 46.1235 42.1542C46.675 42.7779 47.5518 43.5644 48.6864 44.143C49.8209 44.726 50.969 44.9746 51.8006 45.0605C52.6368 45.1464 53.1566 45.1012 53.1612 45.1374V45.1328Z" fill="#263238"/>
<path d="M57.8755 39.6998C57.8755 39.6998 58.0382 40.0072 58.097 40.5586C58.1557 41.101 58.106 41.8875 57.767 42.6695C57.428 43.4514 56.8856 44.0255 56.4472 44.3509C56.0042 44.6809 55.6788 44.7939 55.6697 44.7758C55.6516 44.7441 55.95 44.5859 56.3522 44.2334C56.7545 43.8899 57.2472 43.3249 57.5726 42.5836C57.8936 41.8423 57.9704 41.0965 57.9478 40.5677C57.9297 40.0343 57.8438 39.7089 57.88 39.6998H57.8755Z" fill="#263238"/>
<path d="M61.3238 19.3643C62.3453 19.4999 63.412 18.7632 63.6471 17.7597C63.8821 16.7563 63.2583 15.6218 62.282 15.2873C62.9284 14.6455 63.1092 13.5742 62.7024 12.7561C62.2956 11.938 61.3373 11.4317 60.4333 11.5628C60.4107 10.6633 59.8864 9.79099 59.0999 9.34351C58.3135 8.90055 57.2965 8.90055 56.5145 9.34351C55.5337 8.47567 53.9291 8.41239 52.8849 9.21243C52.0126 9.03615 51.0498 9.48815 50.6249 10.2701C50.2001 11.0521 50.3492 12.1052 50.973 12.738" fill="#263238"/>
<path d="M61.6225 19.6627C61.3287 15.0161 57.5183 11.373 52.8627 11.2916L52.4017 11.2826C47.4071 11.486 44.79 15.8388 45.1335 20.8243L45.6081 38.3438C46.7291 41.0152 48.5732 43.1802 51.9632 43.7497C53.3328 43.9803 54.7566 43.6413 55.7872 42.7056C56.5465 42.0186 57.003 41.1462 57.0708 40.0072L57.1206 36.5313C57.1206 36.5313 61.9298 35.8714 62.0745 31.0757C62.1423 28.7614 61.8982 23.9793 61.627 19.6582L61.6225 19.6627Z" fill="#A2675F"/>
<path d="M57.1564 36.5312C57.1564 36.5312 54.0919 36.6623 50.9053 34.5831C50.9053 34.5831 52.32 38.059 57.1112 37.711L57.1519 36.5312H57.1564Z" fill="#7A4A45"/>
<path d="M60.3296 23.8436C60.3341 24.2052 60.0358 24.508 59.6561 24.5216C59.2809 24.5352 58.9691 24.2549 58.96 23.8933C58.9555 23.5317 59.2538 23.2289 59.6335 23.2153C60.0132 23.2018 60.3205 23.482 60.3296 23.8436Z" fill="#263238"/>
<path d="M60.551 21.9949C60.4651 22.0808 59.9543 21.6876 59.2176 21.6785C58.4808 21.6559 57.9339 22.0266 57.8571 21.9362C57.8164 21.8955 57.9068 21.7373 58.1463 21.5701C58.3814 21.4028 58.7791 21.2446 59.2402 21.2537C59.7012 21.2627 60.0809 21.439 60.3024 21.6153C60.5239 21.7915 60.6007 21.9543 60.5555 21.9949H60.551Z" fill="#263238"/>
<path d="M53.893 23.9973C53.8976 24.3589 53.5992 24.6617 53.2196 24.6753C52.8444 24.6888 52.5325 24.4086 52.5235 24.047C52.519 23.6854 52.8173 23.3826 53.197 23.369C53.5766 23.3554 53.884 23.6357 53.893 23.9973Z" fill="#263238"/>
<path d="M53.3059 22.004C53.22 22.0899 52.7047 21.6966 51.9725 21.6876C51.2357 21.665 50.6888 22.0356 50.6119 21.9452C50.5713 21.9045 50.6617 21.7463 50.9012 21.5791C51.1363 21.4119 51.534 21.2537 51.9951 21.2627C52.4561 21.2717 52.8358 21.448 53.0573 21.6243C53.2787 21.8006 53.3556 21.9633 53.3104 22.004H53.3059Z" fill="#263238"/>
<path d="M55.8866 27.5139C55.8866 27.4732 56.3431 27.4009 57.0889 27.3195C57.2788 27.3014 57.455 27.2698 57.4912 27.1432C57.5364 27.0076 57.4641 26.8042 57.3737 26.5827C57.2064 26.1262 57.0302 25.6426 56.8448 25.1409C56.1081 23.0888 55.5792 21.4028 55.6606 21.3712C55.742 21.3441 56.4064 22.9848 57.1432 25.0369C57.3194 25.5431 57.4912 26.0268 57.6494 26.4878C57.7172 26.7048 57.8347 26.9489 57.7353 27.2291C57.681 27.3692 57.5409 27.4687 57.4189 27.5003C57.2968 27.5365 57.1929 27.5365 57.098 27.541C56.3522 27.5681 55.8866 27.5636 55.8866 27.5229V27.5139Z" fill="#263238"/>
<path d="M53.1651 19.5406C53.1199 19.7485 52.4555 19.7214 51.6916 19.9067C50.9277 20.0739 50.3311 20.3948 50.209 20.2231C50.1548 20.1417 50.2407 19.9428 50.4757 19.7259C50.7062 19.5089 51.0814 19.2829 51.5424 19.1744C51.999 19.0705 52.4329 19.1066 52.7267 19.2016C53.025 19.2965 53.1832 19.4411 53.1651 19.536V19.5406Z" fill="#263238"/>
<path d="M60.5284 19.9429C60.3747 20.0965 59.8323 19.8796 59.1679 19.8163C58.5034 19.7349 57.9294 19.8299 57.8119 19.6445C57.7621 19.5541 57.8661 19.3959 58.1238 19.2558C58.3814 19.1202 58.7972 19.0208 59.2538 19.0705C59.7103 19.1202 60.0945 19.3055 60.3114 19.4954C60.5329 19.6852 60.5962 19.866 60.5284 19.9383V19.9429Z" fill="#263238"/>
<path d="M61.202 17.4569C61.202 17.4569 59.9907 14.433 58.5533 13.7053C56.8176 12.8239 56.0266 14.7358 54.3633 14.2386C52.6999 13.7414 51.0411 12.9007 49.3144 14.1618C47.4206 15.5404 48.2794 16.5483 48.1257 18.6727C47.5064 27.2879 45.8883 29.7015 45.5131 25.629C45.4724 25.1815 44.243 24.8064 44.0938 22.9215C43.8995 20.4807 43.8588 17.5156 44.4328 15.798C44.9165 14.3471 45.7662 13.3527 47.2759 12.2679C49.6625 10.5548 52.8943 10.5774 55.0865 10.8351C57.2787 11.0927 61.4687 13.6962 61.202 17.4523V17.4569Z" fill="#263238"/>
<path d="M45.8204 25.507C45.8023 24.7657 45.174 24.1691 44.4372 24.2279C43.5423 24.2957 42.5388 24.7883 42.566 26.637C42.6112 29.9185 45.8972 29.1908 45.9017 29.1004C45.9017 29.0372 45.8565 26.8811 45.8249 25.5116L45.8204 25.507Z" fill="#A2675F"/>
<path d="M45.1652 27.8755C45.1652 27.8755 45.1064 27.9162 45.0115 27.9614C44.9166 28.0066 44.7584 28.0382 44.5867 27.975C44.2386 27.8529 43.9403 27.306 43.9132 26.7139C43.8996 26.4156 43.9584 26.1308 44.0623 25.8957C44.1572 25.6562 44.3109 25.4844 44.4872 25.4528C44.659 25.4121 44.7855 25.5115 44.8262 25.6065C44.8714 25.6969 44.8533 25.7647 44.8669 25.7692C44.8759 25.7782 44.9347 25.715 44.9076 25.5794C44.894 25.5161 44.8533 25.4392 44.7765 25.376C44.6951 25.3127 44.5821 25.281 44.4601 25.2991C44.207 25.3217 43.981 25.5568 43.8725 25.8144C43.7459 26.0766 43.6736 26.3975 43.6872 26.732C43.7188 27.3919 44.0668 28.0066 44.5414 28.1377C44.772 28.1964 44.9663 28.1241 45.0612 28.0427C45.1607 27.9614 45.1788 27.8845 45.1652 27.88V27.8755Z" fill="#7A4A45"/>
<path d="M45.9969 19.1564C46.4173 19.4547 46.8603 19.762 47.3755 19.8208C47.8863 19.8796 48.4784 19.5948 48.5733 19.0886C48.614 18.8626 48.5643 18.5959 48.718 18.4196C48.8988 18.2117 49.2287 18.284 49.5045 18.3202C50.4537 18.4377 51.4435 17.7823 51.7012 16.8602C51.9362 17.2263 52.5057 17.2218 52.8764 16.9913C53.247 16.7608 53.4911 16.3766 53.7849 16.0511C54.0787 15.7257 54.4855 15.4409 54.9194 15.5087C55.159 15.5494 55.385 15.694 55.6291 15.6805C56.0585 15.6488 56.2799 15.1516 56.3523 14.7222C56.4246 14.2974 56.4833 13.8002 56.854 13.5742C57.1975 13.3662 57.6314 13.4973 58.0247 13.5606C58.4179 13.6239 58.9332 13.5425 59.0417 13.1583C59.1004 12.9549 59.0146 12.7425 58.9061 12.5617C58.4089 11.7481 57.3015 11.3729 56.4155 11.7119C56.1127 10.6226 55.1138 9.76381 53.9928 9.62369C52.8719 9.48357 51.6921 10.0757 51.1362 11.061C50.4537 10.4192 49.4547 10.139 48.5372 10.3288C47.6196 10.5186 46.8151 11.1786 46.4489 12.0419C45.6534 11.8204 44.7404 12.1097 44.2251 12.7515C43.7098 13.3934 43.6194 14.3516 44.0081 15.0748C43.4115 15.4002 42.8962 15.9788 42.8736 16.6568C42.851 17.3348 43.4974 18.0218 44.1573 17.8546C43.8816 18.3789 44.085 19.0976 44.5912 19.405C45.0975 19.7078 45.8297 19.5496 46.1642 19.0614" fill="#263238"/>
<path d="M56.6454 12.6838C56.6454 12.6838 56.6454 12.7064 56.6454 12.7425C56.6409 12.7832 56.6363 12.842 56.6228 12.9188C56.5911 13.068 56.5233 13.294 56.3742 13.5471C56.2205 13.7957 55.9855 14.085 55.6329 14.311C55.2849 14.537 54.8148 14.7087 54.2814 14.668L54.3402 14.5957C54.4351 14.876 54.4035 15.215 54.2588 15.4997C54.1232 15.789 53.9108 16.0466 53.6848 16.2952C53.5718 16.4128 53.4678 16.5574 53.3096 16.6659C53.1559 16.7698 52.9752 16.8286 52.7853 16.8512C52.4147 16.8919 51.9988 16.7698 51.7367 16.4534L51.8587 16.4218C51.7638 17.0727 51.3796 17.719 50.7875 18.1032C50.4711 18.3247 50.0823 18.4558 49.7072 18.4377C49.3275 18.4287 48.9749 18.3112 48.6495 18.1846L48.7399 18.1484C48.5546 18.5507 48.2789 18.8942 47.9444 19.1474C47.6189 19.396 47.185 19.5406 46.7963 19.4366C46.0234 19.2604 45.5217 18.605 45.4313 17.9993L45.5036 18.0354C45.1149 18.2388 44.7036 18.2524 44.3736 18.1801C44.0391 18.1123 43.777 17.9631 43.5962 17.814C43.4108 17.6648 43.3023 17.5111 43.2391 17.4072C43.1803 17.2987 43.1532 17.2399 43.1577 17.2354C43.1758 17.2218 43.2617 17.4885 43.6323 17.7688C43.8176 17.9044 44.0707 18.04 44.3917 18.0987C44.7081 18.1575 45.1013 18.1394 45.4584 17.945L45.5217 17.9134L45.5352 17.9812C45.6301 18.5462 46.1138 19.1564 46.8279 19.3146C47.1805 19.405 47.5602 19.2739 47.8675 19.0389C48.1794 18.8038 48.4416 18.4739 48.6133 18.0897L48.6405 18.0309L48.7038 18.0535C49.0247 18.1756 49.3637 18.284 49.7162 18.2931C50.0688 18.3066 50.4168 18.1891 50.7152 17.9812C51.2802 17.6151 51.6372 17.0094 51.7276 16.3947L51.7502 16.241L51.8497 16.363C52.0711 16.6342 52.4418 16.7472 52.7763 16.7111C52.9435 16.693 53.1062 16.6433 53.2418 16.5529C53.3729 16.467 53.4769 16.3269 53.5944 16.2048C53.8204 15.9608 54.0238 15.7122 54.1549 15.441C54.2905 15.1743 54.3221 14.8805 54.2408 14.6228L54.2136 14.546L54.295 14.555C54.7922 14.5957 55.2487 14.4466 55.5877 14.2296C55.9312 14.0217 56.1663 13.746 56.3245 13.5109C56.6318 13.0228 56.6273 12.6747 56.6499 12.6792L56.6454 12.6838Z" fill="#455A64"/>
<path d="M53.7075 28.4631C54.6024 28.6439 55.4703 28.9332 56.2974 29.3219L56.3065 29.3445C56.1935 29.9547 56.0036 30.6237 55.4748 30.9401C55.077 31.1751 54.5527 31.1525 54.1595 30.9175C53.7662 30.6779 53.5131 30.3118 53.4453 29.8553C53.3775 29.3988 53.5583 28.888 53.712 28.4631H53.7075Z" fill="#7A4A45"/>
<path d="M54.9279 31.0395C54.9279 30.9988 54.5437 31.1209 54.0962 30.7954C53.8792 30.6372 53.6758 30.3796 53.5945 30.0361C53.5086 29.6925 53.5402 29.2903 53.6668 28.8925C53.6984 28.8021 53.7391 28.6755 53.7708 28.6258C53.7934 28.6077 53.7527 28.6258 53.7843 28.6213L53.9199 28.662C54.1143 28.7207 54.2996 28.7795 54.4849 28.8383C54.8194 28.9377 55.1403 29.0326 55.4432 29.123C55.9901 29.2767 56.3336 29.3581 56.3472 29.3309C56.3562 29.2993 56.0308 29.1637 55.4974 28.9693L54.5527 28.6349C54.3719 28.5716 54.1866 28.5083 53.9922 28.445C53.938 28.4269 53.9064 28.4134 53.834 28.3953C53.7662 28.3637 53.608 28.4179 53.5764 28.4947C53.5041 28.6258 53.486 28.7072 53.4453 28.8247C53.3097 29.2541 53.2781 29.7061 53.3865 30.0948C53.4905 30.4881 53.7482 30.7819 54.0058 30.9355C54.2634 31.0983 54.5166 31.1344 54.6838 31.1209C54.851 31.1073 54.9324 31.0576 54.9279 31.044V31.0395Z" fill="#263238"/>
</g>
</svg>
