<svg width="180" height="133" viewBox="0 0 180 133" fill="none" xmlns="http://www.w3.org/2000/svg">
<path d="M1 136C5.26191 123.185 15.6374 97.7351 23.0443 98.4503C32.303 99.3444 26.5714 113.649 34.0665 112.755C41.5616 111.861 41.5616 67.1589 51.2611 67.1589C60.9606 67.1589 58.7562 98.4503 67.5739 98.4503C76.3916 98.4503 75.5099 125.272 86.9729 125.272C98.436 125.272 96.6724 86.8278 104.167 86.8278C111.663 86.8278 114.308 81.4636 121.362 67.1589C128.416 52.8543 123.175 7.25828 135.47 7.25828C150.64 7.25828 145.088 49.9919 159.638 49.9919C174.187 49.9919 173.387 14.4106 180 1" stroke="#0064A7" stroke-width="2" stroke-linecap="round" stroke-linejoin="round"/>
</svg>
