<svg width="189" height="106" viewBox="0 0 189 106" fill="none" xmlns="http://www.w3.org/2000/svg">
<path opacity="0.3" d="M1 109C8.02347 92.0413 23.8263 58.124 30.8498 58.124C39.6291 58.124 36.1174 71.5124 40.507 71.5124C44.8967 71.5124 49.7254 78.6529 54.554 87.5785C59.3826 96.5041 73.4296 63.4793 80.4531 63.4793C87.4765 63.4793 90.1103 80.438 95.3779 80.438C100.646 80.438 106.352 41.1653 112.059 41.1653C117.765 41.1653 121.716 45.6281 127.423 34.0248C133.129 22.4215 137.519 1 144.981 1C152.444 1 159.028 15.281 163.857 15.281C168.685 15.281 178.343 20.6364 188 1" stroke="#0064A7" stroke-width="2" stroke-linecap="round" stroke-linejoin="round"/>
</svg>
