<svg width="172" height="148" viewBox="0 0 172 148" fill="none" xmlns="http://www.w3.org/2000/svg">
<circle cx="39.5" cy="24.5" r="17.5" fill="#F4F5FB"/>
<path d="M157.688 22.6314L156.794 21.1557C149.248 8.68204 135.608 1.16317 121.225 2.07444C119.37 2.19092 117.526 2.44494 115.709 2.83444C102.642 5.63465 91.2679 15.559 86.5497 28.265C83.7768 35.736 83.0009 44.3395 77.7236 50.2683C70.8724 57.9864 59.2441 58.2299 49.017 57.9089C38.7898 57.5879 27.1578 57.8646 20.3323 65.6122C16.0628 70.4674 14.7057 77.3664 15.0514 83.8671C15.9598 101.074 27.9227 116.459 43.1146 124.107C58.3064 131.755 76.2122 132.441 92.8456 129.076C116.15 124.365 138.311 111.423 151.634 91.445C164.958 71.4672 168.349 44.2067 157.688 22.6314Z" fill="#F4F5FB"/>
<path d="M37.2148 137.937L37.2381 27.312C37.2385 25.902 37.5141 24.506 38.049 23.2035C38.5839 21.9011 39.3677 20.7179 40.3556 19.7213C41.3435 18.7248 42.5162 17.9345 43.8066 17.3957C45.0971 16.8568 46.4801 16.5799 47.8765 16.5808L96.675 16.6075C99.4936 16.6093 102.196 17.741 104.189 19.7539C106.181 21.7669 107.3 24.4962 107.3 27.342L107.277 137.97L37.2148 137.937Z" fill="#161B46"/>
<path d="M96.619 20.9767H87.1641C86.8556 20.9832 86.5513 21.0511 86.2688 21.1764C85.9863 21.3018 85.731 21.4822 85.5176 21.7072C85.3042 21.9323 85.1368 22.1977 85.0251 22.4881C84.9134 22.7786 84.8595 23.0885 84.8665 23.4V25.1156C84.8798 25.7445 84.6453 26.353 84.2145 26.8074C83.7836 27.2618 83.1918 27.5249 82.5689 27.5389H64.1286C63.8186 27.5337 63.5127 27.4667 63.2284 27.3418C62.9442 27.2169 62.6872 27.0365 62.4721 26.8111C62.2571 26.5856 62.0883 26.3194 61.9754 26.0279C61.8626 25.7364 61.8079 25.4252 61.8144 25.1123V23.3833C61.8215 23.0716 61.7676 22.7616 61.6559 22.4709C61.5442 22.1803 61.3769 21.9147 61.1636 21.6894C60.9502 21.464 60.695 21.2833 60.4124 21.1576C60.1298 21.0319 59.8255 20.9636 59.5168 20.9567H47.923C45.9511 20.9558 44.0592 21.7445 42.6624 23.1498C41.2655 24.5552 40.4776 26.4625 40.4715 28.4535L40.4482 137.97L104.041 138L104.064 28.4868C104.062 26.4944 103.277 24.5842 101.881 23.176C100.485 21.7677 98.5924 20.9767 96.619 20.9767Z" fill="white"/>
<path d="M80.9552 46.2161L71.991 43L63.1262 46.174C61.994 46.7065 61.0003 47.0284 61.0003 48.0813V53.3342C60.9794 57.0236 61.9877 60.6458 63.9121 63.7947C65.835 66.9724 68.6061 69.4866 72 71C75.6134 69.8237 78.4018 66.6828 80.073 63.9992C82.0027 60.852 83.0162 57.2296 82.9998 53.5387V48.8154C82.9998 47.3112 82.1988 46.5771 80.9552 46.2161Z" fill="#00ACE9"/>
<path d="M98.6524 124.661C98.6524 124.711 86.4205 124.748 71.3125 124.748C56.2045 124.748 43.9727 124.711 43.9727 124.661C43.9727 124.61 56.2045 124.574 71.3125 124.574C86.4205 124.574 98.6524 124.614 98.6524 124.661Z" fill="#E8E8ED"/>
<path d="M86.2848 128.479C86.2848 128.526 79.4846 128.566 71.0975 128.566C62.7104 128.566 55.9102 128.526 55.9102 128.479C55.9102 128.432 62.7071 128.392 71.0975 128.392C79.4879 128.392 86.2848 128.429 86.2848 128.479Z" fill="#E8E8ED"/>
<path d="M57.3457 95.9046H52.3373C51.7177 95.9037 51.1237 95.6548 50.6855 95.2125C50.2474 94.7701 50.0009 94.1704 50 93.5448V84.566C50.0009 83.9407 50.2475 83.3413 50.6857 82.8995C51.124 82.4576 51.718 82.2095 52.3373 82.2095H57.3457C57.9651 82.2095 58.559 82.4576 58.9973 82.8995C59.4355 83.3413 59.6821 83.9407 59.683 84.566V93.5414C59.683 94.1676 59.4369 94.7682 58.9986 95.2113C58.5604 95.6544 57.9659 95.9037 57.3457 95.9046ZM52.3373 82.3764C51.7618 82.3764 51.2099 82.6069 50.8026 83.0175C50.3954 83.428 50.1662 83.985 50.1653 84.566V93.5414C50.1662 94.1228 50.3953 94.68 50.8024 95.0911C51.2096 95.5022 51.7615 95.7335 52.3373 95.7344H57.3457C57.9218 95.7344 58.4742 95.5033 58.8816 95.0921C59.2889 94.6808 59.5177 94.123 59.5177 93.5414V84.5626C59.5168 83.9816 59.2876 83.4247 58.8804 83.0141C58.4732 82.6036 57.9212 82.373 57.3457 82.373L52.3373 82.3764Z" fill="#161B46"/>
<path d="M68.9791 95.9045H63.9706C63.6624 95.9059 63.357 95.8457 63.0719 95.7276C62.7867 95.6094 62.5276 95.4355 62.3092 95.2159C62.0908 94.9964 61.9175 94.7354 61.7992 94.448C61.681 94.1607 61.6201 93.8525 61.6201 93.5414V84.5626C61.621 83.9373 61.8676 83.3379 62.3059 82.8961C62.7441 82.4542 63.3381 82.2061 63.9574 82.2061H68.9658C69.5851 82.2061 70.1791 82.4542 70.6174 82.8961C71.0556 83.3379 71.3022 83.9373 71.3031 84.5626V93.5414C71.3031 94.1652 71.0588 94.7638 70.6234 95.2065C70.188 95.6492 69.5969 95.9001 68.9791 95.9045ZM63.9706 82.3763C63.3951 82.3763 62.8432 82.6069 62.436 83.0174C62.0287 83.4279 61.7995 83.9849 61.7986 84.5659V93.5414C61.7995 94.1227 62.0286 94.68 62.4358 95.091C62.8429 95.5021 63.3948 95.7334 63.9706 95.7343H68.9791C69.5551 95.7343 70.1076 95.5033 70.5149 95.092C70.9222 94.6808 71.151 94.123 71.151 93.5414V84.5626C71.1502 83.9815 70.9209 83.4246 70.5137 83.0141C70.1065 82.6035 69.5545 82.3729 68.9791 82.3729L63.9706 82.3763Z" fill="#161B46"/>
<path d="M80.2953 95.9046H75.2836C74.664 95.9037 74.07 95.6548 73.6318 95.2125C73.1937 94.7701 72.9472 94.1704 72.9463 93.5448V84.566C72.9472 83.9407 73.1938 83.3413 73.632 82.8995C74.0703 82.4576 74.6643 82.2095 75.2836 82.2095H80.2953C80.9141 82.2104 81.5072 82.4589 81.9447 82.9007C82.3823 83.3424 82.6284 83.9413 82.6293 84.566V93.5414C82.6298 93.8513 82.5697 94.1583 82.4527 94.4448C82.3356 94.7312 82.1638 94.9916 81.9471 95.2111C81.7304 95.4305 81.4729 95.6047 81.1895 95.7237C80.9061 95.8427 80.6023 95.9042 80.2953 95.9046ZM75.2836 82.3764C74.7081 82.3764 74.1561 82.6069 73.7489 83.0175C73.3417 83.428 73.1125 83.985 73.1116 84.566V93.5414C73.1125 94.1228 73.3416 94.68 73.7487 95.0911C74.1558 95.5022 74.7078 95.7335 75.2836 95.7344H80.2953C80.8708 95.7335 81.4224 95.5021 81.829 95.0909C82.2356 94.6797 82.464 94.1225 82.464 93.5414V84.5626C82.464 83.9819 82.2355 83.425 81.8288 83.0144C81.4221 82.6037 80.8705 82.373 80.2953 82.373L75.2836 82.3764Z" fill="#161B46"/>
<path d="M91.7367 95.9046H86.725C86.1054 95.9037 85.5114 95.6548 85.0732 95.2125C84.6351 94.7701 84.3886 94.1704 84.3877 93.5448V84.566C84.3886 83.9407 84.6352 83.3413 85.0734 82.8995C85.5117 82.4576 86.1057 82.2095 86.725 82.2095H91.7367C92.3555 82.2104 92.9486 82.4589 93.3861 82.9007C93.8236 83.3424 94.0698 83.9413 94.0707 84.566V93.5414C94.0711 93.8513 94.0111 94.1583 93.894 94.4448C93.777 94.7312 93.6052 94.9916 93.3885 95.2111C93.1717 95.4305 92.9143 95.6047 92.6309 95.7237C92.3475 95.8427 92.0437 95.9042 91.7367 95.9046ZM86.725 82.3764C86.1495 82.3764 85.5976 82.6069 85.1903 83.0175C84.7831 83.428 84.5539 83.985 84.553 84.566V93.5414C84.5539 94.1228 84.783 94.68 85.1901 95.0911C85.5973 95.5022 86.1492 95.7335 86.725 95.7344H91.7367C92.3122 95.7335 92.8638 95.5021 93.2704 95.0909C93.677 94.6797 93.9054 94.1225 93.9054 93.5414V84.5626C93.9054 83.9819 93.6769 83.425 93.2702 83.0144C92.8635 82.6037 92.3119 82.373 91.7367 82.373L86.725 82.3764Z" fill="#161B46"/>
<path d="M97.1447 106.746H48.4785C46.4171 106.746 44.7461 108.433 44.7461 110.514V112.904C44.7461 114.985 46.4171 116.673 48.4785 116.673H97.1447C99.206 116.673 100.877 114.985 100.877 112.904V110.514C100.877 108.433 99.206 106.746 97.1447 106.746Z" fill="#00ACE9"/>
<path d="M155.339 114.364C155.339 114.364 160.007 122.188 160.703 129.637C160.825 130.948 160.321 137.449 160.321 137.449L112.223 137.788C112.223 137.788 117.492 119.632 119.04 118.181L119.388 113.237L155.339 114.364Z" fill="#161B46"/>
<path d="M100.499 83.9438C100.499 83.9438 104.266 110.173 110.06 112.719C112.98 114.008 115.328 112.899 116.925 109.946C118.523 106.993 122.6 85.538 122.6 85.538L111.328 85.27L110.907 89.5352L106.559 81.3699L100.499 83.9438Z" fill="#6F4C47"/>
<path d="M117.118 101.069C117.096 100.996 117.063 100.926 117.022 100.861L116.715 100.288L115.58 98.1858C114.61 96.4113 113.292 93.953 111.822 91.2312C110.353 88.5094 109.076 86.0556 108.129 84.2396L107.012 82.1185L106.706 81.5455C106.632 81.4161 106.591 81.3468 106.582 81.3514C106.603 81.4248 106.63 81.496 106.664 81.564L106.939 82.1555C107.182 82.6684 107.539 83.4032 107.992 84.3135C108.907 86.1249 110.175 88.6111 111.653 91.3328C113.131 94.0546 114.463 96.5038 115.466 98.2644C115.969 99.1424 116.381 99.8448 116.678 100.33L117.022 100.885C117.048 100.949 117.08 101.011 117.118 101.069Z" fill="#513733"/>
<path d="M156.401 90.0761L153.183 104.609L154.707 114.364H119.347L121.658 68.8332L130.473 68.0753L152.011 71.749L156.401 90.0761Z" fill="#00ACE9"/>
<path d="M147.407 71.4856C147.407 71.4856 156.616 70.6307 161.005 76.9569C163.692 80.8293 167.458 89.7248 167.458 89.7248L155.197 91.8644L147.407 71.4856Z" fill="#00ACE9"/>
<g opacity="0.3">
<path opacity="0.3" d="M152.99 90.247C152.367 88.9615 151.396 87.8812 150.188 87.1317C148.981 86.3823 147.588 85.9947 146.17 86.0141C145.557 86.0141 144.866 86.1805 144.541 86.7027C144.216 87.2248 144.395 87.9734 144.633 88.5788C144.939 89.369 145.347 90.2054 146.097 90.5843C146.646 90.8616 147.292 90.8477 147.882 91.0464C148.587 91.3196 149.231 91.7311 149.777 92.2571C150.267 92.6258 150.69 93.0777 151.026 93.5926C151.253 94.0291 151.416 94.4959 151.512 94.9789C152.111 97.3542 152.587 102.257 153.182 104.632L153.841 102.585C153.86 100.632 153.876 98.6789 153.892 96.7257C153.91 94.5076 153.91 92.234 152.99 90.247Z" fill="#513733"/>
</g>
<path d="M141.997 102.363C141.997 102.326 142.455 102.41 143.251 102.47C144.256 102.55 145.267 102.525 146.267 102.396C147.268 102.26 148.252 102.024 149.206 101.689C149.938 101.43 150.377 101.227 150.391 101.259C150.304 101.332 150.207 101.393 150.103 101.439C149.829 101.586 149.548 101.717 149.26 101.832C147.35 102.599 145.279 102.872 143.237 102.627C142.929 102.591 142.624 102.537 142.322 102.465C142.209 102.45 142.099 102.416 141.997 102.363Z" fill="#161B46"/>
<path d="M126.563 103.001C126.563 102.945 131.598 104.387 137.735 106.236C143.873 108.084 148.871 109.6 148.853 109.66C148.834 109.72 143.818 108.273 137.676 106.425C131.534 104.577 126.563 103.061 126.563 103.001Z" fill="#161B46"/>
<g opacity="0.3">
<path opacity="0.3" d="M142.248 102.423C142.699 103.098 143.324 103.636 144.056 103.979C144.787 104.322 145.597 104.457 146.399 104.369C147.165 104.282 147.889 103.975 148.486 103.483C149.082 102.991 149.526 102.336 149.763 101.596C147.372 102.528 144.782 102.813 142.248 102.423Z" fill="#513733"/>
</g>
<g opacity="0.3">
<path opacity="0.3" d="M147.512 109.198L147.384 109.249C144.226 109.817 141.264 109.249 138.23 108.158C135.195 107.068 132.385 105.506 129.589 103.921L147.512 109.198Z" fill="#513733"/>
</g>
<path d="M121.658 68.833C121.658 68.833 115.827 69.5539 113.566 74.5816C112.012 78.1674 110.697 81.8539 109.63 85.6166L121.53 88.3199C121.53 88.3199 123.402 78.1536 123.543 74.5816C123.704 70.6583 123.859 68.7175 121.658 68.833Z" fill="#00ACE9"/>
<path d="M120.536 89.9282C120.431 88.8086 120.397 87.6834 120.435 86.5594C120.402 85.4367 120.441 84.3131 120.55 83.1953C120.656 84.3133 120.69 85.437 120.651 86.5594C120.684 87.6837 120.646 88.8089 120.536 89.9282Z" fill="#161B46"/>
<path d="M126.994 36.6198C130.138 32.7381 134.367 30.5015 139.351 30.4183C142.152 30.3721 143.315 30.959 145.333 31.5089C147.35 32.0015 149.132 33.1938 150.368 34.8776C151.8 36.9294 153.004 39.226 153.274 41.7168C153.549 44.2814 153.828 46.86 153.636 49.4293C153.443 51.9986 152.757 54.5817 151.256 56.6704L144.779 57.8072C141.2 57.9274 137.575 58.0475 134.093 57.225C130.61 56.4024 127.227 54.5078 125.36 51.4256C122.769 47.1419 123.845 40.5061 126.994 36.6198Z" fill="#161B46"/>
<path d="M149.292 60.3487C149.292 60.3487 149.397 60.5104 149.681 60.6907C150.085 60.9439 150.54 61.1019 151.013 61.1528C151.726 61.2325 152.446 61.0855 153.072 60.7323C153.833 60.2673 154.387 59.5242 154.619 58.6575C154.851 57.7908 154.743 56.8673 154.317 56.0789C153.953 55.4563 153.406 54.9637 152.752 54.6695C152.321 54.4728 151.852 54.3749 151.379 54.383C151.206 54.3707 151.032 54.4042 150.876 54.48C151.488 54.5048 152.091 54.6459 152.651 54.8959C153.228 55.1989 153.705 55.6644 154.024 56.236C154.377 56.9467 154.458 57.7635 154.252 58.5305C154.046 59.2976 153.567 59.9613 152.908 60.3949C152.355 60.7246 151.719 60.8851 151.077 60.857C150.455 60.8062 149.849 60.6336 149.292 60.3487Z" fill="#E8E8ED"/>
<path d="M120.714 55.5984C120.776 54.8542 121.006 54.1341 121.386 53.4933C121.766 52.8525 122.286 52.308 122.906 51.9016C123.537 51.5159 124.273 51.3425 125.008 51.4064C125.742 51.4704 126.438 51.7684 126.994 52.2574L128.014 53.482C128.803 53.8518 129.458 54.4602 129.888 55.2228C130.319 55.9855 130.504 56.8645 130.417 57.738C130.299 58.6084 129.937 59.4268 129.375 60.0971C128.812 60.7674 128.072 61.2619 127.241 61.5226C126.404 61.76 125.521 61.7763 124.676 61.57C123.831 61.3637 123.053 60.9416 122.417 60.3442C121.794 59.7361 121.317 58.9925 121.022 58.1701C120.727 57.3477 120.622 56.4681 120.714 55.5984Z" fill="#161B46"/>
<path d="M121.987 60.0068C121.738 59.6202 121.617 59.1642 121.639 58.7036C121.694 57.8672 122.294 56.7721 123.118 55.7693C123.842 54.9076 124.723 54.1939 125.713 53.6667C126.473 53.2555 126.994 53.1076 126.976 53.0521C126.495 53.0925 126.028 53.2325 125.603 53.4634C124.543 53.9459 123.605 54.6629 122.857 55.5613C122.442 56.0506 122.09 56.591 121.809 57.1695C121.556 57.6403 121.413 58.1637 121.392 58.699C121.383 59.0655 121.483 59.4264 121.681 59.7341C121.864 59.9467 121.987 60.0206 121.987 60.0068Z" fill="#45496B"/>
<path d="M125.131 61.9385C125.236 61.9385 124.797 59.956 125.419 57.6178C126.042 55.2795 127.351 53.7731 127.25 53.713C126.907 53.98 126.617 54.3091 126.394 54.6834C125.8 55.5515 125.362 56.5181 125.099 57.5392C124.835 58.5593 124.748 59.6177 124.842 60.6677C124.861 61.1054 124.959 61.5361 125.131 61.9385Z" fill="#45496B"/>
<path d="M144.78 68.4124C144.739 66.1019 144.684 64.2535 144.684 64.2535C144.684 64.2535 149.965 63.6666 151.421 56.8367C152.149 53.4403 152.281 47.8072 152.245 43.2001C152.213 39.0411 148.711 33.4034 143.64 33.385L141.384 33.1169L132.752 36.5827C132.15 36.6113 131.58 36.8677 131.156 37.3009C130.732 37.7341 130.485 38.3124 130.464 38.921L130.226 68.0982L138.569 88.5509L144.556 80.3578L144.78 68.4124Z" fill="#6F4C47"/>
<path d="M141.274 55.2334C141.324 54.8835 141.5 54.5644 141.768 54.3369C142.014 54.1237 142.322 53.9979 142.645 53.9787C142.968 53.9594 143.289 54.048 143.557 54.2306C143.836 54.4469 144.052 54.7346 144.183 55.0637C144.314 55.3928 144.356 55.7514 144.303 56.1021C144.156 56.3125 143.965 56.4882 143.743 56.6173C143.522 56.7465 143.276 56.8261 143.022 56.8508C142.941 56.8555 142.86 56.8555 142.779 56.8508C142.377 56.8488 141.989 56.6937 141.695 56.4164C141.541 56.2641 141.423 56.0785 141.35 55.8737C141.277 55.6688 141.251 55.4499 141.274 55.2334Z" fill="#6F4C47"/>
<path d="M148.89 47.9137C148.88 48.1446 148.781 48.3624 148.614 48.5205C148.448 48.6787 148.226 48.7644 147.997 48.7594C147.885 48.7624 147.774 48.7429 147.67 48.7017C147.565 48.6606 147.47 48.5988 147.39 48.52C147.31 48.4412 147.246 48.3469 147.203 48.2428C147.159 48.1386 147.137 48.0267 147.137 47.9137C147.147 47.6833 147.247 47.4661 147.413 47.3082C147.58 47.1503 147.801 47.0642 148.029 47.0681C148.141 47.065 148.252 47.0846 148.357 47.1257C148.461 47.1668 148.556 47.2286 148.636 47.3074C148.716 47.3863 148.78 47.4805 148.824 47.5847C148.867 47.6888 148.89 47.8007 148.89 47.9137Z" fill="#161B46"/>
<path d="M150.565 45.7556C150.451 45.8619 149.814 45.3305 148.872 45.2935C147.929 45.2565 147.215 45.6817 147.119 45.5615C147.023 45.4414 147.192 45.3027 147.503 45.0994C147.928 44.8384 148.421 44.7142 148.917 44.7436C149.408 44.7703 149.877 44.9531 150.258 45.2658C150.533 45.4922 150.62 45.7048 150.565 45.7556Z" fill="#161B46"/>
<path d="M144.647 52.9599C145.15 52.8286 145.669 52.7633 146.189 52.7658C146.432 52.7658 146.647 52.7196 146.711 52.5533C146.747 52.3048 146.705 52.0512 146.592 51.8278C146.395 51.227 146.194 50.5939 145.979 49.9377C145.136 47.2483 144.537 45.0441 144.647 45.0117C144.757 44.9794 145.525 47.1281 146.368 49.8176C146.569 50.4784 146.766 51.1115 146.949 51.7168C147.085 52.0167 147.111 52.3559 147.022 52.6734C146.984 52.7581 146.926 52.8323 146.853 52.8902C146.781 52.948 146.696 52.9877 146.606 53.0061C146.471 53.0377 146.332 53.0501 146.194 53.0431C145.677 53.0831 145.157 53.0551 144.647 52.9599Z" fill="#161B46"/>
<path d="M144.683 64.2489C141.467 64.1207 138.348 63.0937 135.676 61.2822C135.676 61.2822 137.85 66.1944 144.72 65.9264L144.683 64.2489Z" fill="#513733"/>
<path d="M141.837 53.4634C141.993 53.4634 141.938 54.4939 142.752 55.2748C143.567 56.0558 144.684 56.005 144.684 56.1482C144.684 56.2129 144.432 56.3377 143.97 56.3238C143.37 56.2983 142.799 56.0612 142.354 55.6538C141.931 55.2606 141.673 54.7178 141.636 54.1381C141.64 53.7037 141.768 53.4541 141.837 53.4634Z" fill="#161B46"/>
<path d="M150.364 42.1698C150.194 42.3916 149.48 42.1975 148.634 42.2206C147.787 42.2437 147.077 42.4285 146.904 42.2206C146.826 42.1143 146.931 41.8925 147.233 41.6753C147.648 41.403 148.134 41.26 148.629 41.264C149.121 41.2471 149.607 41.379 150.025 41.643C150.364 41.8417 150.451 42.0589 150.364 42.1698Z" fill="#161B46"/>
<path d="M137.928 47.6642C137.917 47.8976 137.997 48.126 138.153 48.2992C138.308 48.4725 138.525 48.5765 138.756 48.5884C138.867 48.5985 138.979 48.5863 139.085 48.5524C139.192 48.5185 139.29 48.4637 139.375 48.3911C139.461 48.3184 139.531 48.2294 139.581 48.1292C139.632 48.029 139.663 47.9197 139.672 47.8075C139.683 47.5741 139.602 47.3457 139.447 47.1725C139.291 46.9992 139.074 46.8952 138.843 46.8833C138.732 46.8725 138.62 46.8843 138.513 46.9179C138.407 46.9515 138.308 47.0064 138.223 47.0791C138.137 47.1519 138.067 47.2411 138.017 47.3416C137.966 47.4421 137.936 47.5518 137.928 47.6642Z" fill="#161B46"/>
<path d="M137.658 45.4136C137.763 45.5291 138.436 45.0439 139.379 45.0624C140.322 45.0809 141.004 45.5707 141.109 45.4552C141.214 45.3396 141.054 45.1964 140.756 44.9931C140.356 44.7007 139.877 44.5395 139.383 44.531C138.893 44.5189 138.411 44.6663 138.01 44.9515C137.704 45.1548 137.603 45.3581 137.658 45.4136Z" fill="#161B46"/>
<path d="M137.113 43.3666C137.297 43.5884 138.029 43.3666 138.903 43.3666C139.777 43.3666 140.519 43.5422 140.693 43.3157C140.766 43.2094 140.656 42.9923 140.336 42.7797C139.896 42.52 139.394 42.3888 138.885 42.4008C138.379 42.3969 137.882 42.5379 137.452 42.8074C137.141 43.0385 137.036 43.2603 137.113 43.3666Z" fill="#161B46"/>
<path d="M131.644 50.5012C131.672 49.9837 131.15 48.7452 130.651 48.6528C129.324 48.3709 126.898 48.3432 126.692 51.7813C126.404 56.4762 131.132 55.797 131.15 55.6629C131.168 55.5289 131.553 52.2711 131.644 50.5012Z" fill="#6F4C47"/>
<path d="M129.974 53.8515C129.951 53.8515 129.887 53.9023 129.745 53.9578C129.548 54.0281 129.332 54.0198 129.141 53.9347C128.66 53.7221 128.294 52.9042 128.322 52.0585C128.335 51.6544 128.436 51.2582 128.619 50.8986C128.671 50.754 128.757 50.6245 128.871 50.5221C128.984 50.4196 129.121 50.3473 129.269 50.3118C129.363 50.2933 129.46 50.3086 129.544 50.355C129.627 50.4015 129.692 50.4761 129.727 50.5659C129.782 50.6999 129.75 50.7924 129.773 50.8016C129.795 50.8108 129.878 50.7277 129.85 50.5336C129.833 50.4155 129.774 50.3076 129.686 50.2286C129.624 50.1729 129.551 50.131 129.472 50.1055C129.394 50.08 129.31 50.0716 129.228 50.0807C129.034 50.1061 128.85 50.1816 128.694 50.2998C128.538 50.418 128.414 50.5749 128.335 50.7554C128.114 51.1495 127.99 51.5918 127.974 52.0447C127.946 52.9966 128.372 53.8931 129.036 54.1472C129.158 54.1915 129.288 54.2074 129.418 54.1938C129.547 54.1802 129.671 54.1375 129.782 54.0687C129.956 53.9716 129.988 53.8607 129.974 53.8515Z" fill="#6F4C47"/>
<path d="M130.458 48.6483L131.644 49.8867C136.747 44.9561 146.724 32.604 146.166 33.3388C143.84 32.4619 141.333 32.1871 138.875 32.5394C135.076 33.1909 127.891 35.1087 127.991 39.6327C128.092 44.1567 130.458 48.6483 130.458 48.6483Z" fill="#161B46"/>
<path d="M130.569 60.3488C130.569 60.3488 130.463 60.5105 130.184 60.6907C129.779 60.9447 129.322 61.1027 128.848 61.1528C128.136 61.2325 127.418 61.0855 126.793 60.7323C126.032 60.2673 125.478 59.5246 125.246 58.6581C125.013 57.7917 125.12 56.8681 125.543 56.0789C125.909 55.456 126.458 54.9635 127.113 54.6695C127.544 54.472 128.013 54.3741 128.486 54.383C128.661 54.3724 128.835 54.4058 128.994 54.4801C128.384 54.5118 127.784 54.6592 127.228 54.9144C126.651 55.2178 126.174 55.6833 125.855 56.2545C125.502 56.9652 125.421 57.782 125.627 58.5491C125.833 59.3162 126.312 59.9798 126.971 60.4135C127.533 60.7471 128.179 60.9078 128.829 60.8756C129.437 60.8144 130.028 60.6355 130.569 60.3488Z" fill="#E8E8ED"/>
<path d="M123.698 47.6131C123.714 47.5202 123.739 47.4289 123.771 47.3405C123.856 47.0854 123.961 46.8381 124.087 46.6011C124.569 45.7306 125.232 44.9767 126.032 44.3923C127.22 43.5367 128.543 42.8928 129.946 42.4884C131.502 41.9801 133.259 41.5642 134.98 40.8341C136.6 40.1496 138.136 39.2781 139.557 38.2371C140.722 37.3829 141.808 36.424 142.802 35.372C143.469 34.6597 144.095 33.9099 144.678 33.1262L145.136 32.4746C145.193 32.3944 145.257 32.3201 145.328 32.2528C145.296 32.3404 145.251 32.4229 145.196 32.4977C145.095 32.6548 144.958 32.8859 144.738 33.1724C144.183 33.9856 143.571 34.7577 142.907 35.4829C141.924 36.5601 140.84 37.5396 139.671 38.408C138.236 39.4728 136.679 40.3602 135.035 41.0513C133.387 41.6889 131.706 42.238 130.001 42.6964C128.616 43.0835 127.304 43.7004 126.119 44.5217C125.328 45.085 124.659 45.8071 124.156 46.6427C123.817 47.2481 123.726 47.6224 123.698 47.6131Z" fill="#45496B"/>
<path d="M125.054 48.3526C125.042 48.0014 125.105 47.6517 125.237 47.3267C125.587 46.4284 126.196 45.6571 126.986 45.1132C127.956 44.3831 129.343 43.9302 130.867 43.579C132.526 43.2447 134.144 42.7255 135.691 42.031C137.229 41.3199 138.674 40.4197 139.993 39.3508C141.068 38.4752 142.055 37.4955 142.94 36.4257C143.535 35.7003 144.084 34.9378 144.583 34.1429L144.977 33.4867C145.02 33.4077 145.07 33.3334 145.128 33.2649C145.104 33.3518 145.067 33.4345 145.018 33.5098C144.927 33.69 144.808 33.9165 144.661 34.1937C144.189 35.0121 143.656 35.7937 143.069 36.532C141.115 38.9833 138.624 40.9419 135.791 42.2528C134.231 42.9569 132.595 43.4779 130.917 43.8055C129.393 44.1474 128.038 44.5726 127.082 45.2657C126.307 45.7825 125.697 46.5142 125.324 47.3729C125.204 47.6903 125.114 48.0183 125.054 48.3526Z" fill="#45496B"/>
<path d="M100.971 86.5038C100.71 86.4067 100.367 82.6683 100.367 82.6683C100.367 82.6683 96.664 79.6785 96.1605 78.4632C95.6571 77.2478 95.7303 74.3505 95.7303 74.3505L101.795 70.1915C101.795 70.1915 105.378 73.4263 106.316 74.7017C106.843 75.4133 107.232 77.3772 107.506 78.9669C107.726 80.3183 107.777 81.6923 107.657 83.0565L107.57 84.1101C107.57 84.1101 105.131 88.0657 100.971 86.5038Z" fill="#6F4C47"/>
<path d="M96.4392 79.1981C96.0033 78.8073 95.5892 78.3923 95.1989 77.9551C94.4117 77.0956 93.5375 76.2915 94.2836 75.3812C94.3956 75.2307 94.538 75.1059 94.7013 75.0151C94.8646 74.9243 95.0451 74.8695 95.231 74.8544C95.231 74.8544 94.7733 74.0549 95.1715 73.5512C95.2836 73.4025 95.4294 73.283 95.5966 73.2026C95.7637 73.1222 95.9475 73.0833 96.1326 73.0891C96.1326 73.0891 95.5422 71.9431 96.0868 71.1714C96.2944 70.8896 96.5757 70.672 96.8992 70.543C97.2226 70.414 97.5753 70.3788 97.9176 70.4413C97.9176 70.4413 95.4598 65.3859 95.3133 65.1271C94.7641 64.1705 94.8145 63.1262 95.9129 63.0106C96.3157 62.9691 96.6635 63.2879 97.707 64.8591C98.7505 66.4302 100.499 69.0873 100.499 69.0873C100.499 69.0873 102.407 70.7185 103.364 71.6335C104.321 72.5485 106.321 74.6926 106.655 75.3303C107.511 76.9893 107.327 79.6602 107.327 79.6602L100.371 82.6685C100.371 82.6685 96.8878 79.6002 96.4392 79.1981Z" fill="#6F4C47"/>
<path d="M95.4413 75.0299C95.7297 75.2016 96.0051 75.3947 96.2651 75.6075L97.1393 76.2637C97.3161 76.3923 97.4815 76.5361 97.6336 76.6935C97.8116 76.8681 97.9274 77.0971 97.9632 77.345C97.986 77.4732 97.9742 77.6051 97.9291 77.7271C97.884 77.849 97.8072 77.9565 97.7069 78.0382C97.5121 78.1744 97.2725 78.2291 97.0386 78.1907C96.8429 78.1699 96.6498 78.1297 96.462 78.0705C96.2835 78.0197 96.1233 77.9689 95.9722 77.918C95.6793 77.821 95.4413 77.7332 95.2811 77.6639C95.121 77.5946 95.0386 77.553 95.0431 77.5391C95.0477 77.5253 95.4139 77.6454 96.0043 77.8118C96.3469 77.9182 96.6974 77.997 97.0524 78.0474C97.2477 78.0711 97.4451 78.0254 97.6107 77.918C97.6883 77.8507 97.7472 77.7642 97.7817 77.667C97.8162 77.5698 97.8251 77.4652 97.8075 77.3635C97.7728 77.1496 97.6719 76.9522 97.5192 76.7998C97.3787 76.6468 97.2256 76.5061 97.0615 76.3792L96.2057 75.6907C95.9323 75.4933 95.6766 75.2722 95.4413 75.0299Z" fill="#513733"/>
<path d="M101.498 73.5325C101.3 73.1788 101.188 72.7829 101.172 72.3773C101.102 71.9783 101.126 71.5686 101.241 71.1804C101.291 71.1804 101.241 71.7165 101.328 72.3634C101.415 73.0103 101.544 73.5186 101.498 73.5325Z" fill="#513733"/>
<path d="M104.866 74.0455C103.98 73.6458 103 73.5126 102.042 73.6619C101.087 73.8107 100.161 74.1068 99.2956 74.5399C98.5999 74.8727 97.8401 75.3625 97.744 76.1342C97.6479 76.9059 98.3665 77.6453 99.1445 77.7978C99.9363 77.8866 100.736 77.7251 101.433 77.3357C102.124 76.9369 102.862 76.6264 103.63 76.4115" fill="#6F4C47"/>
<path d="M103.639 76.4344C103.639 76.4344 103.433 76.4853 103.071 76.6239C102.57 76.8309 102.079 77.0638 101.602 77.3217C101.266 77.4967 100.915 77.642 100.554 77.7561C100.134 77.8954 99.6887 77.9412 99.2494 77.8901C98.7516 77.8247 98.2985 77.5661 97.9862 77.1692C97.8163 76.9611 97.7055 76.7104 97.6658 76.4437C97.6368 76.1645 97.691 75.8829 97.8215 75.635C98.1052 75.1827 98.5142 74.8244 98.9977 74.6045C99.4257 74.3878 99.8658 74.1964 100.316 74.0315C101.079 73.743 101.885 73.5867 102.7 73.5694C103.249 73.556 103.796 73.6388 104.316 73.8143C104.458 73.862 104.597 73.9191 104.732 73.9853C104.779 74.0067 104.824 74.033 104.865 74.0638C104.865 74.0638 104.668 73.9807 104.298 73.8744C103.778 73.7278 103.239 73.6638 102.7 73.6849C101.9 73.7222 101.112 73.8924 100.366 74.1886C99.9233 74.3529 99.4908 74.5443 99.0709 74.7616C98.616 74.9693 98.2311 75.3066 97.9633 75.732C97.8444 75.947 97.7963 76.1946 97.826 76.4391C97.8592 76.6777 97.9556 76.9028 98.1052 77.0906C98.3943 77.4559 98.8097 77.6969 99.2677 77.7653C99.6877 77.8146 100.113 77.7752 100.517 77.6498C100.874 77.5415 101.222 77.404 101.556 77.2385C102.041 76.9892 102.541 76.77 103.053 76.5823C103.194 76.5356 103.337 76.4986 103.483 76.4714C103.533 76.4517 103.585 76.4393 103.639 76.4344Z" fill="#513733"/>
<path d="M95.5283 75.0946C96.6863 75.9679 97.8167 76.9892 98.8603 77.9735C99.1458 78.2895 99.5089 78.5238 99.9129 78.6528C100.238 78.7221 100.801 78.1906 101.062 77.9596L97.3224 73.9948" fill="#6F4C47"/>
<path d="M97.3224 73.9948C97.4364 74.0766 97.5408 74.1712 97.6337 74.2766L98.4392 75.0992C99.1211 75.8016 100.064 76.7859 101.121 77.9042L101.176 77.9642L101.112 78.0197C100.912 78.2006 100.703 78.3703 100.485 78.528C100.391 78.5909 100.291 78.645 100.188 78.6897C100.132 78.7128 100.073 78.7268 100.014 78.7313C99.9532 78.7438 99.891 78.7438 99.8306 78.7313C99.6233 78.6696 99.4292 78.5693 99.2584 78.4356C98.9243 78.1768 98.6589 77.8949 98.3797 77.6454C97.8305 77.1371 97.3362 76.6842 96.9151 76.3099C96.494 75.9356 96.1416 75.6398 95.899 75.4365C95.7687 75.3368 95.6449 75.2288 95.5283 75.113C95.6736 75.1904 95.8101 75.2834 95.9357 75.3903C96.192 75.5752 96.5535 75.8524 96.9838 76.2221C97.414 76.5918 97.9266 77.0308 98.4758 77.5391C98.755 77.784 99.0342 78.0705 99.35 78.3108C99.5057 78.4325 99.6827 78.5234 99.8717 78.5788C99.9654 78.5898 100.06 78.5807 100.15 78.552C100.24 78.5234 100.323 78.4758 100.394 78.4125C100.608 78.2591 100.814 78.094 101.011 77.918V78.0012C99.9541 76.8783 99.0296 75.8801 98.366 75.1593L97.5925 74.3044C97.4965 74.2067 97.4063 74.1033 97.3224 73.9948Z" fill="#513733"/>
<path d="M96.2695 72.7932L100.041 77.0816C100.29 77.4018 100.592 77.6769 100.933 77.8949C101.104 78.0027 101.299 78.0659 101.501 78.0788C101.702 78.0917 101.903 78.0539 102.087 77.9688C102.315 77.8096 102.483 77.5781 102.566 77.3111C102.649 77.0441 102.641 76.7568 102.544 76.4947C102.341 75.9719 102.029 75.4992 101.629 75.1084C100.491 73.8052 99.455 72.4147 98.5305 70.9495" fill="#6F4C47"/>
<path d="M98.5397 70.9357C98.5397 70.9357 98.5809 70.9773 98.645 71.0697L98.9196 71.4717C99.1621 71.8183 99.51 72.3174 99.9585 72.9227C100.407 73.5281 100.97 74.2259 101.62 74.9791C101.988 75.3563 102.296 75.7879 102.535 76.2591C102.655 76.5252 102.701 76.8191 102.668 77.1094C102.644 77.4166 102.507 77.7035 102.284 77.9134C102.167 78.0135 102.029 78.0865 101.882 78.1272C101.734 78.1679 101.579 78.1754 101.428 78.1491C101.142 78.1062 100.872 77.9883 100.645 77.8072C100.253 77.4571 99.8905 77.0754 99.5603 76.6658L97.8257 74.6648C97.3451 74.1057 96.9561 73.6436 96.6678 73.3063L96.3565 72.9181C96.3177 72.8761 96.2839 72.8295 96.2559 72.7795C96.2559 72.7795 96.3016 72.8164 96.3794 72.895L96.7135 73.2508L97.9081 74.577L99.6702 76.5549C99.9974 76.9541 100.356 77.3265 100.741 77.6685C100.947 77.8327 101.191 77.9394 101.451 77.9781C101.58 77.9998 101.712 77.9932 101.838 77.9589C101.964 77.9247 102.082 77.8635 102.183 77.7794C102.376 77.5952 102.493 77.3445 102.512 77.077C102.542 76.8152 102.501 76.55 102.393 76.3099C102.153 75.8497 101.844 75.429 101.478 75.0623C100.828 74.3044 100.279 73.5881 99.8395 72.9735C99.4001 72.3589 99.0615 71.8506 98.8372 71.4902C98.7273 71.31 98.6404 71.1713 98.5855 71.0743C98.5653 71.0299 98.55 70.9834 98.5397 70.9357Z" fill="#513733"/>
<path d="M104.293 80.7739C104.152 80.8487 103.994 80.8823 103.835 80.8709C103.464 80.8914 103.093 80.825 102.751 80.6768C102.402 80.535 102.089 80.3155 101.835 80.0345C101.725 79.9249 101.642 79.7903 101.593 79.6417C101.921 80.0286 102.335 80.3324 102.801 80.529C103.266 80.7256 103.771 80.8094 104.275 80.7739H104.293Z" fill="#513733"/>
<path d="M152.254 68.6851L150.936 85.478C150.914 85.7653 150.78 86.0323 150.564 86.2209C150.348 86.4094 150.067 86.5045 149.782 86.4854L140.514 85.8569C140.37 85.8482 140.228 85.8102 140.098 85.7451C139.968 85.6799 139.852 85.589 139.758 85.4777C139.663 85.3664 139.592 85.2371 139.548 85.0974C139.505 84.9577 139.489 84.8105 139.503 84.6647L141.018 67.8857C141.042 67.6008 141.176 67.337 141.391 67.1504C141.606 66.9639 141.884 66.8696 142.167 66.8875L151.242 67.4837C151.388 67.4935 151.53 67.5326 151.66 67.5988C151.79 67.6649 151.905 67.7567 152 67.8687C152.094 67.9807 152.165 68.1107 152.209 68.2509C152.252 68.3911 152.268 68.5388 152.254 68.6851Z" fill="#45496B"/>
<path d="M165.522 90.062C165.522 90.062 168.291 108.953 168.181 111.49C168.071 114.027 165.229 119.66 161.403 120.21C157.576 120.76 153.97 117.229 153.86 112.594C153.75 107.959 153.183 93.3014 153.183 93.3014L156.039 91.7117L165.522 90.062Z" fill="#6F4C47"/>
<path d="M149.755 74.452C149.755 74.452 152.62 76.2311 153.467 76.6978C154.313 77.1646 154.204 80.6119 154.204 80.6119L159.027 91.9334L153.215 94.036C153.215 94.036 151.142 90.0758 150.547 89.5767C150.139 89.2534 149.673 89.0147 149.174 88.8743C149.174 88.8743 148.876 89.9741 147.984 89.475C147.275 89.0032 146.64 88.4287 146.098 87.7699C146.098 87.7699 145.302 88.2736 145.004 87.6728C144.707 87.0721 144.212 85.769 144.212 85.769C144.212 85.769 145.897 83.5647 146.592 83.5647C147.288 83.5647 150.858 83.7634 150.858 83.7634C150.858 83.7634 150.661 83.4631 149.668 83.0656C148.675 82.6682 142.771 80.9076 142.491 80.8013C142.075 80.6396 141.608 79.5444 142.899 79.4427C144.189 79.3411 151.453 80.6535 151.453 80.6535C151.453 80.6535 151.851 78.7588 151.554 78.3429C151.256 77.927 148.661 76.2542 149.755 74.452Z" fill="#6F4C47"/>
<path d="M146.075 87.7053C146.024 87.4326 146.032 87.1522 146.098 86.8828C146.16 86.5692 146.32 86.2841 146.555 86.0695C146.865 85.8434 147.24 85.7294 147.622 85.746C148.274 85.7036 148.928 85.7268 149.576 85.8153C149.847 85.833 150.113 85.8955 150.363 86.0002C150.363 86.0695 149.137 85.8616 147.617 85.9632C147.281 85.9463 146.948 86.0368 146.665 86.222C146.46 86.4072 146.315 86.6503 146.249 86.9198C146.204 87.1845 146.146 87.4467 146.075 87.7053Z" fill="#513733"/>
<path d="M147.229 88.0426C147.608 88.1996 147.98 88.377 148.341 88.574C148.731 88.7035 149.114 88.8578 149.485 89.0361C149.058 89.0648 148.631 88.972 148.254 88.7681C147.849 88.6333 147.492 88.3809 147.229 88.0426Z" fill="#6F4C47"/>
<path d="M151.109 80.6122C151.495 80.671 151.854 80.85 152.134 81.1242C152.415 81.3983 152.604 81.7541 152.674 82.1417C152.615 82.1417 152.418 81.6796 151.983 81.2822C151.549 80.8848 151.086 80.6723 151.109 80.6122Z" fill="#513733"/>
<path d="M168 137.5C168 137.231 130.838 137 85.0058 137C39.1732 137 2 137.231 2 137.5C2 137.769 39.1577 138 85.0058 138C130.854 138 168 137.788 168 137.5Z" fill="#0E1339"/>
<path d="M68 60C68 58.9391 68.4214 57.9217 69.1716 57.1716C69.9217 56.4214 70.9391 56 72 56C73.0609 56 74.0783 56.4214 74.8284 57.1716C75.5786 57.9217 76 58.9391 76 60H68ZM72 55.5C70.3425 55.5 69 54.1575 69 52.5C69 50.8425 70.3425 49.5 72 49.5C73.6575 49.5 75 50.8425 75 52.5C75 54.1575 73.6575 55.5 72 55.5Z" fill="white"/>
</svg>
