<svg width="97" height="86" viewBox="0 0 97 86" fill="none" xmlns="http://www.w3.org/2000/svg">
<path d="M56.3052 73.6054L56.3687 69.9999C56.3707 69.8882 56.4103 69.7804 56.4812 69.6941C56.552 69.6077 56.6498 69.5477 56.7589 69.5237C57.5712 69.3482 59.4944 68.8964 60.8163 68.2634C62.5286 67.4456 64.5806 66.245 66.0445 65.6493C67.6615 64.9939 71.9933 62.9195 72.8411 62.6319C72.9257 62.6028 73.0169 62.5976 73.1043 62.617L89.5748 66.1609C89.6019 66.1666 89.6293 66.1704 89.657 66.1721C89.924 66.1815 91.4383 66.2711 91.5242 66.9956C91.6063 67.6435 91.5055 70.054 91.4663 70.926C91.4617 71.0201 91.4305 71.1109 91.3763 71.188C91.3221 71.265 91.2471 71.325 91.1601 71.3611C89.6402 71.9866 82.6251 74.9349 80.8793 76.7199C78.9188 78.7234 76.624 80.4393 75.7184 80.4804C74.8128 80.5215 71.5546 79.3302 70.5967 79.0296C69.7303 78.7589 58.7064 74.8284 56.632 74.089C56.5334 74.0532 56.4488 73.9871 56.3901 73.9003C56.3314 73.8134 56.3017 73.7102 56.3052 73.6054Z" fill="#936754"/>
<path d="M91.5346 66.9878C91.5346 66.9878 86.1197 69.4487 83.7204 70.485C81.321 71.5213 79.5846 73.2653 78.5576 74.3277C77.5306 75.3901 77.0246 76.1015 75.3274 76.1482C73.6301 76.1949 68.5028 74.1429 65.8514 73.0692C63.2952 72.0367 57.8859 70.1695 56.6349 69.74C56.605 69.7301 56.5731 69.7273 56.5419 69.7319C56.5107 69.7365 56.4811 69.7484 56.4553 69.7665C56.4295 69.7847 56.4083 69.8087 56.3935 69.8365C56.3786 69.8643 56.3705 69.8952 56.3698 69.9268L56.3567 70.612L56.2988 73.958C56.2988 73.958 69.6436 78.7175 70.5996 79.0181C71.5556 79.3187 74.8139 80.5118 75.7213 80.4689C76.6288 80.426 78.9217 78.7119 80.8823 76.7084C82.8428 74.7049 91.4543 71.23 91.4543 71.23C91.4543 71.23 91.6279 67.7832 91.5346 66.9878Z" fill="#7C5142"/>
<path d="M65.885 66.9986C65.6105 67.0378 65.4163 67.2227 65.4667 67.3944C65.5171 67.5662 65.8065 67.7025 66.0866 67.6857C66.3667 67.6689 66.5964 67.499 66.5814 67.3254C66.5665 67.1517 66.3051 66.993 66.0213 66.9893" fill="#7C5142"/>
<path d="M82.4861 69.0171C82.2135 69.0564 82.0193 69.2412 82.0698 69.413C82.1202 69.5848 82.4077 69.7211 82.6897 69.7043C82.9716 69.6875 83.1994 69.5176 83.1826 69.3439C83.1658 69.1703 82.9081 69.0134 82.6224 69.0078" fill="#7C5142"/>
<path d="M82.5723 68.2495C82.4155 68.2719 82.3016 68.3784 82.3314 68.4792C82.3613 68.58 82.5275 68.6566 82.6899 68.6472C82.8524 68.6379 82.9849 68.5389 82.9756 68.4381C82.9663 68.3373 82.8169 68.2514 82.6526 68.2514" fill="#7C5142"/>
<path d="M79.1175 71.228C78.9588 71.2504 78.8468 71.3569 78.8767 71.4577C78.9065 71.5585 79.0727 71.6351 79.2352 71.6239C79.3976 71.6127 79.5283 71.5174 79.519 71.4166C79.5096 71.3158 79.3603 71.2299 79.1978 71.2299" fill="#7C5142"/>
<path d="M64.421 67.4771C64.2623 67.4995 64.1503 67.6078 64.1801 67.7067C64.21 67.8057 64.3668 67.8934 64.5368 67.8748C64.7067 67.8561 64.8318 67.7665 64.8224 67.6656C64.8131 67.5648 64.6637 67.4789 64.4994 67.4789" fill="#7C5142"/>
<path d="M56.6353 69.7419L56.7323 69.7699L57.0106 69.8614L58.0786 70.2217C59.0122 70.5373 60.3435 70.9985 61.9997 71.5867C62.8231 71.8817 63.725 72.2084 64.6884 72.5707C65.6519 72.9329 66.6677 73.3568 67.745 73.7769C68.8224 74.197 69.9558 74.632 71.1452 75.0447C71.739 75.2526 72.347 75.4492 72.9694 75.6347C73.5965 75.8293 74.2376 75.9753 74.887 76.0716C74.9679 76.0844 75.0497 76.0907 75.1316 76.0903C75.2138 76.0903 75.2941 76.1015 75.3762 76.0903L75.6227 76.0772L75.8673 76.0492C76.1901 76.0107 76.505 75.9226 76.8009 75.7878C77.3853 75.5152 77.8241 75.041 78.2573 74.5816C79.0763 73.6862 79.9661 72.8582 80.9181 72.1057C81.7863 71.4304 82.7353 70.8659 83.7431 70.4253L86.3572 69.262L90.1457 67.5815L91.1783 67.1297L91.449 67.0139L91.5405 66.9766C91.5405 66.9766 91.5125 66.9934 91.4528 67.0232L91.1876 67.1465L90.1625 67.6151L86.3721 69.3348L83.7581 70.5093C82.7586 70.9515 81.8178 71.5159 80.9573 72.1898C80.011 72.9415 79.1263 73.7675 78.3115 74.66C77.8801 75.1119 77.4339 75.6049 76.8271 75.8887C76.5244 76.0264 76.2028 76.1177 75.8729 76.1594L75.6227 76.1855L75.3725 76.2005C75.2904 76.2005 75.2045 76.2005 75.1204 76.2005C75.0361 76.2008 74.9518 76.1946 74.8684 76.1818C74.2135 76.0833 73.5669 75.936 72.934 75.7412C72.3116 75.5544 71.7022 75.3565 71.106 75.1474C69.9147 74.7329 68.7813 74.2959 67.704 73.8721C66.6266 73.4482 65.6146 73.0225 64.653 72.6603C63.6914 72.2981 62.7858 71.9638 61.9698 71.6651L58.0655 70.2703L57.005 69.8969L56.7286 69.796C56.667 69.7568 56.6353 69.7419 56.6353 69.7419Z" fill="#161B46"/>
<g opacity="0.2">
<path opacity="0.2" d="M61.5005 67.9173C63.6291 69.0955 65.9052 70.3091 68.3344 70.1747C70.2016 70.0701 71.9287 69.172 73.6185 68.3598C76.5918 66.9236 79.6636 65.7013 82.8107 64.702C80.3834 64.1754 78.0475 63.6395 75.6052 63.1522C74.8584 63.0028 73.5513 62.7228 73.0883 62.6051C72.9685 62.5905 72.8472 62.6113 72.7391 62.6649C72.2294 62.8833 70.351 63.7012 69.7516 63.9719C64.8521 66.192 64.3722 66.4441 61.5042 67.9135" fill="#2D3259"/>
</g>
<path d="M53.7053 54.268C53.6455 54.4211 55.8451 62.5452 55.8451 62.5452C55.8451 62.5452 61.3608 63.9139 63.9748 63.223C66.5889 62.5321 74.2687 59.8079 76.0854 59.511C77.9022 59.2141 83.2984 59.3654 85.9349 59.6791C88.5713 59.9928 91.5178 59.9592 93.1777 59.3056L93.2169 58.8594L89.7271 51.9881C87.7102 52.1918 85.6761 52.1542 83.6681 51.8761C80.2063 51.4205 75.5589 51.1497 71.7778 52.7387C67.9968 54.3277 66.0381 54.6881 64.5051 54.858C63.0655 55.0186 54.7453 53.9001 53.7445 53.8198L53.7053 54.268Z" fill="#2CAA6A"/>
<path opacity="0.3" d="M53.7053 54.268C53.6455 54.4211 55.8451 62.5452 55.8451 62.5452C55.8451 62.5452 61.3608 63.9139 63.9748 63.223C66.5889 62.5321 74.2687 59.8079 76.0854 59.511C77.9022 59.2141 83.2984 59.3654 85.9349 59.6791C88.5713 59.9928 91.5178 59.9592 93.1777 59.3056L93.2169 58.8594L89.7271 51.9881C87.7102 52.1918 85.6761 52.1542 83.6681 51.8761C80.2063 51.4205 75.5589 51.1497 71.7778 52.7387C67.9968 54.3277 66.0381 54.6881 64.5051 54.858C63.0655 55.0186 54.7453 53.9001 53.7445 53.8198L53.7053 54.268Z" fill="#2D3259"/>
<path d="M53.7446 53.8235C53.6849 53.9766 55.8863 62.1008 55.8863 62.1008C55.8863 62.1008 61.4001 63.4694 64.0142 62.7767C66.6282 62.084 74.3098 59.3616 76.1247 59.0666C77.9397 58.7716 83.3396 58.9191 85.9742 59.2346C88.6088 59.5502 91.5571 59.5129 93.217 58.8612L89.7664 51.5455C87.7495 51.7493 85.7154 51.7117 83.7074 51.4335C80.2475 50.9761 75.5982 50.7072 71.8171 52.2962C68.0361 53.8851 66.0774 54.2436 64.5444 54.4154C63.0115 54.5872 53.7446 53.8235 53.7446 53.8235Z" fill="#2CAA6A"/>
<path opacity="0.3" d="M93.2154 58.8633C91.5554 59.5131 88.5343 59.5206 85.8978 59.205C83.2614 58.8895 77.8689 58.742 76.0484 59.037C74.2279 59.332 66.5537 62.0525 63.9397 62.749C61.3256 63.4454 55.9761 62.1645 55.9761 62.1645L55.8454 62.538L55.0537 59.5859L55.1508 59.3544C56.9356 59.1847 58.7318 59.171 60.519 59.3133C63.2339 59.5579 65.6444 60.133 67.0859 59.7521C68.5274 59.3712 70.7923 58.8185 71.9406 58.1501C73.0889 57.4816 75.7627 56.4584 78.5075 56.6265C81.2523 56.7945 82.6639 57.0727 84.9232 57.2314C87.1825 57.3901 91.5853 56.365 91.9886 56.2549L93.2154 58.8633Z" fill="white"/>
<path opacity="0.3" d="M53.8789 55.0824L53.9853 54.9106C55.5111 55.5515 57.161 55.8424 58.8139 55.7621C61.6259 55.6444 67.8305 54.8285 68.1965 55.0357C68.5625 55.243 68.7081 55.2113 67.9332 55.7154C67.1584 56.2195 57.6114 58.2884 54.7509 57.8515L54.6332 58.0046L53.8789 55.0824Z" fill="white"/>
<path opacity="0.3" d="M90.3602 52.8062C90.3602 52.8062 87.4529 54.1543 79.8703 53.4559C79.8703 53.4559 74.9913 53.2692 72.3661 54.7518C69.7408 56.2343 66.3294 57.3266 65.8309 57.5805C65.3323 57.8345 64.1504 58.1407 65.0429 58.3461C65.9354 58.5515 69.9238 57.377 71.2513 56.5965C72.5789 55.8161 73.4341 55.5659 74.4517 55.2447C75.4693 54.9235 78.3429 54.8713 81.4611 55.2316C84.5793 55.592 88.7096 55.8721 89.7589 55.3493C90.8083 54.8264 91.2265 54.6453 91.2265 54.6453L90.3602 52.8062Z" fill="white"/>
<g opacity="0.8">
<path opacity="0.8" d="M72.8793 52.1772C72.8793 52.1772 72.8681 52.1885 72.8401 52.2034L72.7188 52.2706C72.6105 52.3304 72.4517 52.4144 72.2426 52.5189C71.8244 52.7243 71.2138 53.01 70.4333 53.3069C69.5203 53.6543 68.5845 53.9388 67.6325 54.1583C66.4653 54.4232 65.2791 54.5961 64.0849 54.6756C61.9167 54.791 59.7428 54.7354 57.5833 54.5094C56.7543 54.4328 56.0896 54.3581 55.6228 54.3077L55.0906 54.2442L54.9524 54.2256C54.9364 54.2243 54.9206 54.2205 54.9058 54.2144H54.9524L55.0925 54.2237L55.6265 54.2704L57.5889 54.4403C59.2451 54.571 61.5455 54.7465 64.0774 54.5785C65.2662 54.4991 66.4472 54.3293 67.6101 54.0706C68.5609 53.8567 69.4965 53.5804 70.4109 53.2434C71.1895 52.9559 71.8038 52.6833 72.2258 52.4835C72.4368 52.3864 72.5993 52.308 72.7094 52.2538L72.8364 52.1941C72.8497 52.1862 72.8642 52.1805 72.8793 52.1772Z" fill="white"/>
</g>
<g opacity="0.8">
<path opacity="0.8" d="M76.207 51.666C76.207 51.694 75.6842 51.7257 75.0437 51.8153C74.4033 51.905 73.8898 52.0114 73.8823 51.9834C74.252 51.8456 74.638 51.7565 75.0306 51.7182C75.4187 51.6485 75.8143 51.6309 76.207 51.666Z" fill="white"/>
</g>
<g opacity="0.8">
<path opacity="0.8" d="M87.4846 52.2761C87.4846 52.3023 85.4307 52.166 82.897 51.9718C80.3632 51.7776 78.3149 51.5983 78.3186 51.5685C78.3223 51.5386 80.3725 51.6786 82.9044 51.8747C85.4363 52.0707 87.4865 52.25 87.4846 52.2761Z" fill="white"/>
</g>
<g opacity="0.8">
<path opacity="0.8" d="M56.3585 61.3509C56.3231 61.2848 56.2943 61.2154 56.2727 61.1436C56.2222 61.0092 56.155 60.8131 56.0747 60.5685C55.9123 60.0812 55.7013 59.4034 55.481 58.649C55.2606 57.8947 55.0833 57.2076 54.9619 56.7072C54.9003 56.4588 54.8536 56.2553 54.8237 56.1153C54.8038 56.0426 54.7913 55.9682 54.7864 55.8931C54.8201 55.9606 54.8452 56.0321 54.8611 56.1059L55.0272 56.6904L55.5743 58.621L56.1345 60.548C56.2017 60.7795 56.2577 60.9756 56.3025 61.1324C56.3306 61.2025 56.3494 61.2759 56.3585 61.3509Z" fill="white"/>
</g>
<g opacity="0.3">
<path opacity="0.3" d="M54.7605 54.1487C56.1273 55.8534 55.9835 58.63 57.7853 59.8604C58.6536 60.4579 59.7702 60.5289 60.8251 60.5102C64.3878 60.448 67.8935 59.6048 71.0947 58.0399C73.242 56.9887 75.2585 55.6126 77.5626 54.974C82.085 53.723 86.8724 55.5099 91.5666 55.3157L90.0037 51.8521L54.7605 54.1487Z" fill="#2D3259"/>
</g>
<path d="M54.4989 49.5744C54.4485 49.7424 57.4155 58.24 57.4155 58.24C57.4155 58.24 63.4036 59.2782 66.139 58.3408C68.8744 57.4035 76.8604 53.9119 78.7743 53.4637C80.6881 53.0156 86.4578 52.7561 89.294 52.8905C92.1303 53.0249 95.269 52.7617 96.9906 51.942V51.464L92.7427 44.4004C90.6069 44.7722 88.4343 44.8876 86.271 44.744C82.5367 44.5218 77.5662 44.5871 73.6526 46.5719C69.7389 48.5568 67.6776 49.0889 66.0568 49.3877C64.5332 49.6696 55.5726 49.1113 54.4989 49.102V49.5744Z" fill="#2CAA6A"/>
<path opacity="0.3" d="M54.4989 49.5744C54.4485 49.7424 57.4155 58.24 57.4155 58.24C57.4155 58.24 63.4036 59.2782 66.139 58.3408C68.8744 57.4035 76.8604 53.9119 78.7743 53.4637C80.6881 53.0156 86.4578 52.7561 89.294 52.8905C92.1303 53.0249 95.269 52.7617 96.9906 51.942V51.464L92.7427 44.4004C90.6069 44.7722 88.4343 44.8876 86.271 44.744C82.5367 44.5218 77.5662 44.5871 73.6526 46.5719C69.7389 48.5568 67.6776 49.0889 66.0568 49.3877C64.5332 49.6696 55.5726 49.1113 54.4989 49.102V49.5744Z" fill="#2D3259"/>
<path d="M54.5083 49.0961C54.456 49.2641 57.4248 57.7617 57.4248 57.7617C57.4248 57.7617 63.411 58.7999 66.1464 57.8625C68.8819 56.9252 76.8679 53.4336 78.7817 52.9798C80.6956 52.5261 86.4671 52.2722 89.3033 52.4066C92.1396 52.5411 95.2784 52.2778 96.9999 51.4581L92.7595 43.9165C90.6237 44.2883 88.451 44.4037 86.2878 44.2601C82.5534 44.0379 77.583 44.1032 73.6694 46.088C69.7557 48.0729 67.6944 48.605 66.0736 48.9038C64.4529 49.2025 54.5083 49.0961 54.5083 49.0961Z" fill="#2CAA6A"/>
<path opacity="0.3" d="M96.9997 51.4578C95.28 52.2775 92.0573 52.5146 89.221 52.3802C86.3847 52.2458 80.6151 52.4997 78.7012 52.9534C76.7874 53.4071 68.8051 56.9007 66.0641 57.838C63.3231 58.7753 57.5254 57.823 57.5254 57.823L57.4153 58.2394L56.3435 55.1436L56.4294 54.8897C58.3202 54.5721 60.2351 54.4197 62.1523 54.4341C65.0689 54.4901 67.6848 54.9177 69.1916 54.4024C70.6985 53.887 73.0754 53.1233 74.2517 52.3204C75.4281 51.5175 78.199 50.2255 81.1417 50.1937C84.0843 50.162 85.608 50.3524 88.0297 50.3487C90.4515 50.345 95.069 48.9166 95.4985 48.769L96.9997 51.4578Z" fill="white"/>
<path opacity="0.3" d="M54.7507 50.4272L54.8516 50.2405C56.5276 50.8084 58.3098 50.9928 60.0666 50.7801C63.0541 50.4384 69.6154 49.0996 70.0206 49.2863C70.4258 49.473 70.5808 49.4357 69.7928 50.0332C69.0049 50.6307 58.9781 53.5659 55.8897 53.3176L55.7777 53.4894L54.7507 50.4272Z" fill="white"/>
<path opacity="0.3" d="M93.4895 45.2144C93.4895 45.2144 90.4927 46.8743 82.3498 46.7081C82.3498 46.7081 77.131 46.878 74.4442 48.6612C71.7573 50.4444 68.1947 51.8728 67.6868 52.1809C67.1789 52.4889 65.9316 52.8997 66.9063 53.0584C67.881 53.2171 72.0392 51.6506 73.3967 50.717C74.7541 49.7834 75.6373 49.451 76.7053 49.0365C77.7734 48.622 80.8281 48.3438 84.1741 48.4857C87.5201 48.6276 91.9547 48.6164 93.0358 47.9778C94.1169 47.3392 94.5482 47.1152 94.5482 47.1152L93.4895 45.2144Z" fill="white"/>
<g opacity="0.8">
<path opacity="0.8" d="M74.7954 45.8787L74.7544 45.9086L74.6293 45.9889C74.5191 46.0598 74.3548 46.1625 74.1401 46.2895C73.7106 46.5415 73.0795 46.8926 72.2729 47.2679C71.3257 47.7079 70.3493 48.0822 69.3507 48.3882C68.1291 48.759 66.8806 49.0344 65.6163 49.2116C62.9182 49.5851 60.4461 49.5608 58.6685 49.5309C57.7779 49.5141 57.059 49.4861 56.5623 49.4656L55.9891 49.4394L55.8397 49.4301H55.7893C55.806 49.4272 55.823 49.4272 55.8397 49.4301H55.9891H56.5623L58.6704 49.4637C60.4461 49.4768 62.9145 49.4898 65.6033 49.1164C66.867 48.9416 68.1155 48.67 69.3376 48.3042C70.3339 48.0029 71.3094 47.6368 72.2579 47.2081C73.0683 46.8347 73.7013 46.5005 74.1363 46.2577C74.3529 46.1382 74.521 46.0411 74.6349 45.9739L74.7637 45.9011C74.7786 45.8843 74.7936 45.8768 74.7954 45.8787Z" fill="white"/>
</g>
<g opacity="0.8">
<path opacity="0.8" d="M78.3036 45.0781C78.3036 45.1061 77.7434 45.179 77.075 45.3227C76.4065 45.4665 75.8594 45.6215 75.8501 45.5953C76.6307 45.2786 77.4615 45.1035 78.3036 45.0781Z" fill="white"/>
</g>
<g opacity="0.8">
<path opacity="0.8" d="M90.3806 44.8751C90.3806 44.9013 88.1791 44.9106 85.4642 44.8957C82.7494 44.8807 80.5498 44.8471 80.5498 44.8191C80.5498 44.7911 82.7494 44.7836 85.4661 44.7986C88.1829 44.8135 90.3806 44.8415 90.3806 44.8751Z" fill="white"/>
</g>
<g opacity="0.8">
<path opacity="0.8" d="M57.8731 56.9247C57.8286 56.8576 57.7922 56.7855 57.7648 56.7099C57.7032 56.5699 57.6154 56.3664 57.5108 56.1106C57.2999 55.6027 57.0216 54.8969 56.7322 54.1089C56.4428 53.321 56.1982 52.6021 56.0283 52.0774C55.9443 51.816 55.8789 51.6032 55.8416 51.4557C55.8149 51.3805 55.7955 51.303 55.7837 51.2241C55.822 51.2943 55.8533 51.3681 55.8771 51.4444L56.0992 52.055L56.8293 54.0753L57.5762 56.0863L57.8021 56.6969C57.8331 56.7703 57.8568 56.8466 57.8731 56.9247Z" fill="white"/>
</g>
<path d="M94.6355 34.9202C94.2229 34.1434 93.377 33.6897 92.5274 33.4619C91.6779 33.2341 90.791 33.1874 89.9358 32.982C88.2983 32.5862 86.8512 31.619 85.2342 31.1391C81.5204 30.0356 77.631 31.5312 74.0889 33.0997C71.7325 33.4302 70.0297 32.56 67.7517 31.8767C65.4737 31.1933 62.9941 30.6331 60.7535 31.4341C59.073 32.0354 57.6185 33.3797 55.8316 33.4638C54.6048 33.5216 53.1858 33.0156 52.2652 33.8372C51.4829 34.5281 51.5986 35.837 52.1924 36.6959C53.0961 38.0029 54.771 38.5369 56.3525 38.6938C57.934 38.8506 59.5491 38.7124 61.0989 39.0859C64.7567 39.9747 67.3353 43.4943 70.995 44.3644C73.7958 45.0291 76.7123 44.0134 79.3133 42.7773C81.9143 41.5412 84.4761 40.0456 87.3311 39.6703C88.4812 39.5191 89.6501 39.5545 90.8003 39.4052C91.9505 39.2558 93.1249 38.8973 93.9558 38.0981C94.7867 37.299 95.1789 35.9453 94.6355 34.9202Z" fill="#2CAA6A"/>
<g opacity="0.8">
<path opacity="0.8" d="M94.6355 34.9202C94.2229 34.1434 93.377 33.6897 92.5274 33.4619C91.6779 33.2341 90.791 33.1874 89.9358 32.982C88.2983 32.5862 86.8512 31.619 85.2342 31.1391C81.5204 30.0356 77.631 31.5312 74.0889 33.0997C71.7325 33.4302 70.0297 32.56 67.7517 31.8767C65.4737 31.1933 62.9941 30.6331 60.7535 31.4341C59.073 32.0354 57.6185 33.3797 55.8316 33.4638C54.6048 33.5216 53.1858 33.0156 52.2652 33.8372C51.4829 34.5281 51.5986 35.837 52.1924 36.6959C53.0961 38.0029 54.771 38.5369 56.3525 38.6938C57.934 38.8506 59.5491 38.7124 61.0989 39.0859C64.7567 39.9747 67.3353 43.4943 70.995 44.3644C73.7958 45.0291 76.7123 44.0134 79.3133 42.7773C81.9143 41.5412 84.4761 40.0456 87.3311 39.6703C88.4812 39.5191 89.6501 39.5545 90.8003 39.4052C91.9505 39.2558 93.1249 38.8973 93.9558 38.0981C94.7867 37.299 95.1789 35.9453 94.6355 34.9202Z" fill="white"/>
</g>
<path d="M80.2321 37.2873C79.4822 35.9076 78.357 34.7682 76.9868 34.001C75.6166 33.2337 74.0572 32.87 72.4889 32.9517C69.7852 33.1384 67.2477 34.7946 65.9238 37.1473C65.7532 37.4523 65.708 37.8118 65.7979 38.1496C65.8879 38.4874 66.1058 38.7768 66.4056 38.9566C70.2333 41.2327 75.4148 41.6883 79.39 39.7744C79.8437 39.556 80.3236 39.274 80.4954 38.8035C80.6672 38.333 80.4786 37.756 80.2321 37.2873Z" fill="#2CAA6A"/>
<g opacity="0.3">
<path opacity="0.3" d="M77.6365 38.2082C77.313 38.1944 76.9897 38.2425 76.6843 38.3501C74.6664 38.8776 72.5271 38.6752 70.6439 37.7787C70.1883 37.5584 69.6916 37.198 69.7103 36.692C69.7469 36.4456 69.836 36.21 69.9717 36.0011C70.1096 35.7914 70.1611 35.5365 70.1155 35.2897C70.0445 35.0526 69.7252 34.8883 69.5367 35.0489C68.9634 35.329 68.1344 36.0665 67.7143 36.5426C67.2942 37.0188 67.0794 37.7395 67.3689 38.3071C67.5649 38.6955 67.9551 38.9476 68.3435 39.1418C70.1808 40.0641 72.3132 40.1258 74.3689 40.1687C75.5583 40.193 76.8318 40.1949 77.8214 39.532C78.0697 39.364 78.3125 39.1137 78.2975 38.815C78.2826 38.5162 77.9558 38.2511 77.6365 38.2082Z" fill="white"/>
</g>
<g opacity="0.8">
<path opacity="0.8" d="M75.1588 43.1252C74.7312 44.3184 70.0819 43.5267 67.9963 42.1674C66.3326 41.0844 65.0592 39.417 63.2499 38.6029C61.6366 37.8747 59.8012 37.9158 58.0385 37.744C56.2759 37.5722 53.9457 37.406 52.8832 35.9851C52.8832 35.9851 52.4314 35.6229 53.2809 35.55C54.1305 35.4772 53.6544 36.282 56.1415 36.6965C58.6286 37.111 60.5779 35.5911 65.2683 39.346C69.9587 43.101 71.7605 43.0113 72.7371 42.9572C73.7136 42.903 75.3642 42.552 75.1588 43.1252Z" fill="white"/>
</g>
<g opacity="0.8">
<path opacity="0.8" d="M53.5277 34.0444C53.2723 34.098 53.0288 34.1973 52.8088 34.3376C52.6067 34.5019 52.4365 34.7019 52.3065 34.9276C52.2953 34.9276 52.3065 34.8324 52.3737 34.6979C52.4616 34.5241 52.5896 34.3736 52.7472 34.2592C52.9059 34.144 53.0895 34.0679 53.2831 34.037C53.3636 34.0153 53.4486 34.0179 53.5277 34.0444Z" fill="white"/>
</g>
<g opacity="0.8">
<path opacity="0.8" d="M62.4657 31.9084C62.1329 31.871 61.7977 31.8592 61.463 31.8729C61.1015 31.8999 60.7454 31.9759 60.4043 32.0988C59.9886 32.2549 59.5975 32.47 59.2429 32.7374C58.8564 33.0119 58.4961 33.2976 58.1357 33.503C57.8175 33.6942 57.4679 33.8276 57.1031 33.8969C56.8558 33.9435 56.6015 33.9384 56.3563 33.882C56.2922 33.8665 56.2297 33.8453 56.1696 33.8185C56.1266 33.8017 56.1042 33.7905 56.1061 33.7868C56.1079 33.783 56.1994 33.8148 56.3693 33.8465C56.6099 33.8853 56.8556 33.8789 57.0938 33.8279C57.4469 33.7509 57.7846 33.6152 58.0928 33.4264C58.4438 33.2173 58.8004 32.9353 59.1888 32.6571C59.5506 32.3849 59.9508 32.1678 60.3763 32.013C60.7254 31.8919 61.0902 31.8221 61.4593 31.8057C61.709 31.7933 61.9593 31.807 62.2062 31.8468C62.273 31.8563 62.3391 31.87 62.4041 31.8879C62.4253 31.8925 62.446 31.8994 62.4657 31.9084Z" fill="white"/>
</g>
<g opacity="0.8">
<path opacity="0.8" d="M86.6383 35.3381C86.6383 35.3381 86.4927 35.3606 86.235 35.4091C85.8698 35.4798 85.5144 35.5939 85.1763 35.7489C84.6756 35.9816 84.2011 36.267 83.761 36.6004C83.2587 36.9738 82.7452 37.4238 82.2037 37.9074C81.117 38.8634 80.0191 39.6047 79.149 39.9931C78.8093 40.1505 78.4554 40.2755 78.0922 40.3665C77.9634 40.402 77.8607 40.415 77.7916 40.4281C77.7576 40.4379 77.7223 40.4423 77.687 40.4412C77.687 40.4412 77.8289 40.402 78.081 40.3292C78.4381 40.2225 78.7859 40.087 79.121 39.924C80.2153 39.3611 81.23 38.6554 82.1384 37.8252C82.6799 37.3491 83.199 36.8917 83.7087 36.5182C84.1554 36.1838 84.6383 35.9007 85.1483 35.6742C85.4931 35.5238 85.8558 35.4184 86.2275 35.3606C86.3284 35.3447 86.43 35.3341 86.5319 35.3288C86.5676 35.3278 86.6033 35.3309 86.6383 35.3381Z" fill="white"/>
</g>
<g opacity="0.8">
<path opacity="0.8" d="M93.0278 37.6875C93.1782 37.5932 93.3217 37.4883 93.4573 37.3738C93.7771 37.0886 93.9773 36.6929 94.0174 36.2662C94.0576 35.8395 93.9349 35.4134 93.6739 35.0734C93.5595 34.9346 93.4346 34.8048 93.3004 34.6851C93.3004 34.6851 93.3509 34.7019 93.4293 34.756C93.5376 34.8342 93.6349 34.9265 93.7187 35.0305C93.862 35.2022 93.97 35.4005 94.0363 35.6141C94.1027 35.8277 94.1261 36.0523 94.1053 36.2749C94.0844 36.4976 94.0198 36.714 93.915 36.9115C93.8102 37.1091 93.6673 37.284 93.4946 37.4261C93.3929 37.5127 93.2798 37.5849 93.1585 37.6408C93.1183 37.6644 93.0739 37.6802 93.0278 37.6875Z" fill="white"/>
</g>
<g opacity="0.8">
<path opacity="0.8" d="M65.6714 32.8066C64.336 32.0683 62.7843 31.8206 61.2853 32.1064C60.3331 32.2931 59.3603 32.7543 58.9177 33.617C58.7777 33.8784 59.2632 34.0109 59.4966 33.9493C59.73 33.8877 59.9559 33.6338 60.1594 33.5068C61.2061 32.8603 62.4661 32.6542 63.6642 32.9336C64.2766 33.0792 64.8704 33.3518 65.4996 33.3425C65.6863 33.3425 65.9141 33.2603 65.9085 33.0773C65.9011 32.9522 65.7797 32.8682 65.6714 32.8066Z" fill="white"/>
</g>
<g opacity="0.8">
<path opacity="0.8" d="M72.4011 33.4538C72.3049 33.4827 72.2061 33.5021 72.1061 33.5117C72.0108 33.5248 71.8932 33.5435 71.7606 33.5752C71.6281 33.607 71.4731 33.6294 71.3069 33.6798C71.1407 33.7302 70.9577 33.775 70.7673 33.8441C70.5768 33.9132 70.3752 33.9897 70.1642 34.0756C69.2556 34.4693 68.4281 35.0284 67.7238 35.7244C67.5651 35.8868 67.4101 36.0399 67.2831 36.1968C67.1575 36.3369 67.0391 36.4834 66.9283 36.6355C66.82 36.7681 66.7416 36.9025 66.6595 37.009C66.5773 37.1154 66.5194 37.2218 66.4727 37.3059C66.4252 37.3945 66.3709 37.4794 66.3103 37.5598C66.3461 37.4654 66.3898 37.3742 66.441 37.2872C66.4928 37.1814 66.5514 37.0791 66.6165 36.981C66.6912 36.8633 66.7696 36.727 66.8742 36.5889C66.9821 36.4325 67.0987 36.2823 67.2234 36.1389C67.3503 35.9783 67.5034 35.8214 67.6621 35.6553C68.3686 34.9445 69.2071 34.3788 70.1306 33.9897C70.3453 33.9057 70.547 33.8217 70.7449 33.7638C70.9243 33.7027 71.1069 33.6516 71.292 33.6107C71.46 33.564 71.6169 33.5435 71.7513 33.5173C71.8673 33.4951 71.9845 33.4795 72.1023 33.4706C72.2014 33.458 72.3012 33.4524 72.4011 33.4538Z" fill="white"/>
</g>
<g opacity="0.8">
<path opacity="0.8" d="M74.2215 33.5474C74.0653 33.558 73.9083 33.548 73.7547 33.5175C73.5982 33.519 73.4421 33.5015 73.2898 33.4653C73.4398 33.4056 73.6037 33.39 73.7622 33.4205C73.9242 33.4188 74.0834 33.4628 74.2215 33.5474Z" fill="white"/>
</g>
<path d="M57.5409 24.0047L57.6007 20.5504C57.6024 20.4432 57.6402 20.3398 57.7079 20.2568C57.7757 20.1738 57.8695 20.116 57.9741 20.0929C58.7528 19.9268 60.5882 19.4917 61.8616 18.8867C63.5029 18.1006 65.4709 16.9523 66.8788 16.381C68.4267 15.7517 72.5793 13.7669 73.3915 13.4887C73.4725 13.4604 73.5598 13.4553 73.6436 13.4737L89.4251 16.8664C89.4514 16.8729 89.4783 16.8767 89.5054 16.8776C89.7593 16.887 91.212 16.9729 91.2979 17.6675C91.3763 18.2892 91.2811 20.5989 91.2419 21.4336C91.2378 21.5239 91.208 21.6113 91.1561 21.6853C91.1042 21.7594 91.0323 21.8172 90.9487 21.8518C89.4923 22.4512 82.7686 25.2763 81.0956 26.9866C79.2172 28.9079 77.0176 30.5511 76.1494 30.5903C75.2811 30.6295 72.1592 29.4886 71.2424 29.2011C70.4115 28.9397 59.8525 25.1736 57.8565 24.4659C57.762 24.4321 57.6806 24.3693 57.6239 24.2865C57.5673 24.2036 57.5382 24.105 57.5409 24.0047Z" fill="#936754"/>
<path d="M91.2972 17.6636C91.2972 17.6636 86.1195 20.0218 83.8079 21.0152C81.4963 22.0085 79.8457 23.6797 78.8673 24.6973C77.8889 25.7149 77.3978 26.3983 75.7715 26.4431C74.1452 26.4879 69.2364 24.5199 66.6895 23.4929C64.2398 22.5033 59.0546 20.7146 57.8577 20.3038C57.8283 20.292 57.7964 20.2878 57.765 20.2918C57.7335 20.2957 57.7036 20.3076 57.678 20.3262C57.6525 20.3449 57.632 20.3698 57.6187 20.3985C57.6054 20.4273 57.5996 20.4589 57.6019 20.4905L57.5907 21.1477L57.5347 24.3537C57.5347 24.3537 70.3231 28.9171 71.2417 29.2084C72.1604 29.4997 75.2786 30.6368 76.1487 30.5976C77.0188 30.5584 79.2165 28.9171 81.0949 26.9939C82.9733 25.0707 91.2263 21.7453 91.2263 21.7453C91.2263 21.7453 91.3924 18.4254 91.2972 17.6636Z" fill="#7C5142"/>
<path d="M66.7212 17.6746C66.4598 17.712 66.2731 17.8893 66.3217 18.048C66.3702 18.2068 66.6466 18.3431 66.9154 18.3263C67.1843 18.3095 67.4046 18.1489 67.3897 17.9808C67.3748 17.8128 67.1246 17.6634 66.8538 17.6597" fill="#7C5142"/>
<path d="M82.6334 19.6097C82.3701 19.647 82.1853 19.8244 82.2338 19.9831C82.2824 20.1418 82.5587 20.2781 82.8257 20.2613C83.0927 20.2445 83.3149 20.0746 83.3 19.9159C83.2851 19.7572 83.0367 19.5985 82.766 19.5947" fill="#7C5142"/>
<path d="M82.7233 18.8733C82.5702 18.8957 82.4638 18.9965 82.4918 19.0936C82.5198 19.1907 82.6785 19.2635 82.8354 19.2542C82.9922 19.2448 83.1173 19.1515 83.108 19.0544C83.0986 18.9573 82.9567 18.8677 82.7999 18.8677" fill="#7C5142"/>
<path d="M79.3974 21.7214C79.2443 21.7438 79.1379 21.8465 79.1659 21.9417C79.1939 22.037 79.3526 22.1117 79.5075 22.1023C79.6625 22.093 79.7914 21.9996 79.782 21.9025C79.7727 21.8054 79.6289 21.7158 79.4721 21.7158" fill="#7C5142"/>
<path d="M65.3193 18.133C65.1662 18.1554 65.0597 18.2581 65.0877 18.3534C65.1157 18.4486 65.2745 18.5233 65.4313 18.514C65.5881 18.5046 65.7132 18.4113 65.7039 18.3142C65.6946 18.2171 65.5527 18.1274 65.3958 18.1274" fill="#7C5142"/>
<path d="M57.8577 20.3044L57.9492 20.3306L58.2162 20.4183L59.2394 20.7619C60.1282 21.0644 61.4109 21.5088 62.9906 22.0689C63.7804 22.3509 64.6449 22.6627 65.5692 23.0025C66.4934 23.3424 67.4644 23.7494 68.4969 24.1565C69.5295 24.5635 70.6162 24.978 71.7552 25.372C72.324 25.5712 72.9072 25.7579 73.5047 25.9322C74.1055 26.1185 74.7198 26.2583 75.342 26.3504C75.4198 26.3631 75.4985 26.3694 75.5773 26.3691C75.6557 26.3691 75.7323 26.3803 75.8107 26.3691L76.0478 26.356L76.2812 26.3299C76.5876 26.2909 76.8865 26.2065 77.1682 26.0797C77.7283 25.8183 78.1484 25.3571 78.5629 24.9239C79.3475 24.0651 80.2005 23.2714 81.1135 22.5507C81.9478 21.9151 82.8579 21.3857 83.8228 20.9748L86.3286 19.8545L89.9603 18.2468L90.9499 17.8136L91.2094 17.7034L91.2972 17.668L91.2132 17.7128L90.9592 17.8304L89.9771 18.2804L86.3566 19.9179L83.8546 21.0382C82.8958 21.4599 81.9932 21.9993 81.1677 22.644C80.2604 23.364 79.4124 24.1558 78.632 25.0116C78.2194 25.4448 77.7918 25.9172 77.2092 26.1898C76.9189 26.3212 76.6105 26.408 76.2943 26.4475L76.0553 26.4755L75.8144 26.4886C75.7341 26.4886 75.6539 26.4886 75.5717 26.4886C75.491 26.4889 75.4105 26.4827 75.3308 26.4699C74.7028 26.3774 74.0829 26.2363 73.4767 26.0479C72.8792 25.8687 72.2954 25.682 71.7253 25.4878C70.5844 25.0919 69.4977 24.6718 68.4652 24.2666C67.4326 23.8614 66.4617 23.4525 65.5393 23.1034C64.6169 22.7542 63.7561 22.4368 62.9682 22.1511L59.2338 20.8123L58.2162 20.452L57.951 20.3549L57.8577 20.3044Z" fill="#161B46"/>
<g opacity="0.3">
<path opacity="0.3" d="M78.4117 15.3039C76.6248 14.9305 74.7949 14.5365 72.9856 14.7867C71.2081 15.0313 69.5743 15.8697 67.9928 16.7192C66.2613 17.6491 64.5459 18.6088 62.8468 19.5984C62.7749 19.6405 62.7128 19.6972 62.6644 19.765C62.6159 19.8327 62.5824 19.9099 62.5658 19.9915C62.5492 20.073 62.5501 20.1572 62.5682 20.2385C62.5864 20.3197 62.6215 20.3962 62.6713 20.4629C63.6833 21.3499 64.9567 21.1743 66.1984 20.6497C67.5185 20.1007 68.538 19.0345 69.6546 18.1439C70.7711 17.2532 72.1566 16.4914 73.5663 16.7304C74.2927 16.8555 74.9481 17.2346 75.6501 17.4549C76.4157 17.6958 77.226 17.7424 78.027 17.7873L82.2749 18.0281C82.434 18.0409 82.5926 17.9987 82.7244 17.9087C82.8562 17.8188 82.9532 17.6864 82.9992 17.5336C83.0453 17.3808 83.0376 17.2168 82.9775 17.069C82.9174 16.9212 82.8085 16.7984 82.6689 16.7211C81.416 15.9817 79.8681 15.6139 78.4117 15.3039Z" fill="white"/>
</g>
<path d="M74.2254 20.168C74.271 20.351 74.2843 20.5405 74.2646 20.7281C74.2766 20.9168 74.257 21.1061 74.2067 21.2883C74.1623 21.1051 74.149 20.9157 74.1675 20.7281C74.1555 20.5395 74.175 20.3502 74.2254 20.168Z" fill="#161B46"/>
<path d="M74.3098 15.4536C74.351 15.8456 74.3603 16.2402 74.3378 16.6337C74.3468 17.027 74.3237 17.4204 74.2688 17.81C74.2254 17.4188 74.216 17.0246 74.2407 16.6318C74.2307 16.2378 74.2538 15.8437 74.3098 15.4536Z" fill="#161B46"/>
<path d="M74.3688 11.9766C74.4135 12.1597 74.4268 12.3491 74.408 12.5367C74.42 12.7254 74.4004 12.9147 74.3501 13.0969C74.3044 12.9139 74.2911 12.7243 74.3109 12.5367C74.2985 12.3481 74.3181 12.1587 74.3688 11.9766Z" fill="#161B46"/>
<path d="M73.3405 45.9104C73.2949 45.7273 73.2817 45.5378 73.3013 45.3502C73.2891 45.1616 73.3087 44.9722 73.3591 44.79C73.405 44.973 73.4182 45.1626 73.3983 45.3502C73.4103 45.5388 73.3908 45.7282 73.3405 45.9104Z" fill="#161B46"/>
<path d="M73.2864 49.0011C73.2427 48.7459 73.2308 48.4862 73.2509 48.2281C73.2398 47.9689 73.2605 47.7093 73.3126 47.4551C73.3573 47.7108 73.3692 47.9712 73.348 48.23C73.359 48.4886 73.3383 48.7475 73.2864 49.0011Z" fill="#161B46"/>
<path d="M73.2358 51.6652C73.1909 51.4821 73.1777 51.2927 73.1966 51.1051C73.1846 50.9164 73.2042 50.7271 73.2545 50.5449C73.3 50.7279 73.3133 50.9175 73.2937 51.1051C73.3061 51.2937 73.2865 51.4831 73.2358 51.6652Z" fill="#161B46"/>
<path d="M73.5533 61.4494C73.4966 61.0775 73.5035 60.6987 73.5738 60.3291C73.6182 60.5123 73.6315 60.7017 73.613 60.8893C73.6264 61.078 73.6062 61.2677 73.5533 61.4494Z" fill="#161B46"/>
<path d="M73.49 65.188C73.4454 64.8789 73.4341 64.5659 73.4564 64.2544C73.4465 63.9418 73.4684 63.629 73.5218 63.3208C73.564 63.6301 73.5747 63.9429 73.5535 64.2544C73.5634 64.5669 73.5422 64.8797 73.49 65.188Z" fill="#161B46"/>
<path d="M73.4371 68.1774C73.3916 67.9944 73.3783 67.8049 73.3979 67.6173C73.3858 67.4286 73.4054 67.2393 73.4558 67.0571C73.5006 67.2403 73.5138 67.4297 73.495 67.6173C73.507 67.8059 73.4875 67.9952 73.4371 68.1774Z" fill="#161B46"/>
<path d="M74.2142 30.2661C74.1926 30.6509 74.2019 31.0368 74.2423 31.42C74.2942 31.0377 74.3173 30.6519 74.3113 30.2661H74.2142Z" fill="#161B46"/>
<path d="M81.8738 1.92936C81.3795 2.20324 80.8251 2.35034 80.2601 2.35751C79.6951 2.36467 79.1371 2.23169 78.6361 1.97044C78.1767 1.72397 77.7734 1.37107 77.2824 1.19556C76.8664 1.06883 76.4235 1.05967 76.0027 1.16908C75.5819 1.27848 75.1995 1.5022 74.898 1.81546L74.8345 5.50503C75.2751 4.81417 76.0444 4.29322 76.8585 4.38472C77.4934 4.4538 78.0666 4.79363 78.6921 4.91313C79.1097 4.99182 79.54 4.97068 79.9479 4.85143C80.3558 4.73218 80.7298 4.51819 81.0392 4.22692C81.3487 3.93566 81.585 3.57537 81.7287 3.17543C81.8724 2.7755 81.9196 2.34725 81.8663 1.92563L81.8738 1.92936Z" fill="#2CAA6A"/>
<path d="M74.9296 1.09846e-06C74.9576 1.09846e-06 74.9296 2.3788 74.8642 5.31403C74.7989 8.24925 74.7261 10.6262 74.6999 10.6262C74.6738 10.6262 74.6999 8.24738 74.7672 5.31216C74.8344 2.37694 74.9035 -0.00186609 74.9296 1.09846e-06Z" fill="#161B46"/>
<path d="M76.6698 2.27783C76.6978 2.27783 76.7183 2.73343 76.7818 3.29172C76.8453 3.85 76.9275 4.29813 76.8994 4.30373C76.78 3.98158 76.7077 3.64387 76.6847 3.30105C76.6318 2.96237 76.6267 2.61792 76.6698 2.27783Z" fill="#161B46"/>
<g clip-path="url(#clip0_3579_62144)">
<path d="M33.508 17.2539C33.7433 16.3916 34.2348 15.6209 34.9174 15.0438C35.6 14.4667 36.4417 14.1103 37.3312 14.0217C38.2207 13.9332 39.1161 14.1166 39.8991 14.5478C40.6821 14.9789 41.3159 15.6376 41.7166 16.4366C42.4673 17.931 42.4182 19.8954 43.6881 20.9969C44.5615 21.7371 45.8525 21.8458 46.7049 22.6141C48.508 24.2347 47.3714 27.7392 49.2867 29.2265C48.0465 30.1939 46.5961 30.856 45.0527 31.1594C44.9531 30.63 44.6992 30.1418 44.323 29.7562C44.6352 30.6542 44.1195 31.6751 43.3478 32.2293C42.5761 32.7836 41.6114 32.9765 40.6712 33.1238C38.4121 33.4746 36.0759 33.6605 33.8518 33.1238C31.6278 32.5871 29.509 31.2366 28.4952 29.1844C28.2391 28.6617 28.0462 28.0899 27.6217 27.69C27.1973 27.2901 26.5167 27.1077 25.9484 26.8411C25.1695 26.4599 24.5208 25.8569 24.0839 25.1078C23.6469 24.3588 23.4413 23.4972 23.4929 22.6316C24.9768 22.5685 26.0221 21.1618 26.65 19.8253C27.278 18.4887 27.7866 16.9593 29.0214 16.1349C29.4329 15.861 29.9014 15.6846 30.3913 15.6189C30.8813 15.5533 31.3797 15.6002 31.8488 15.7561C32.3179 15.912 32.7452 16.1728 33.0984 16.5187C33.4516 16.8645 33.7212 17.2864 33.8869 17.7521" fill="#161B46"/>
<path d="M42.3643 22.0137C42.1959 19.702 39.6772 17.4148 37.3725 17.6814L29.9006 19.1828L29.9392 20.4316L30.5987 38.7641L36.3798 44.3768L38.8774 38.7641V34.0459C38.8774 34.0459 41.8311 33.5232 42.3854 29.6575C42.6835 27.7316 42.5537 24.585 42.3643 22.0137Z" fill="#B8897A"/>
<path d="M40.9342 25.0592C40.9362 25.1884 40.8879 25.3133 40.7995 25.4075C40.7112 25.5017 40.5896 25.558 40.4606 25.5643C40.3978 25.5696 40.3346 25.5623 40.2747 25.5428C40.2148 25.5233 40.1594 25.4921 40.1117 25.4509C40.064 25.4098 40.025 25.3595 39.9969 25.3031C39.9689 25.2467 39.9524 25.1852 39.9485 25.1223C39.9446 24.9932 39.9918 24.8678 40.0798 24.7733C40.1678 24.6788 40.2895 24.6227 40.4185 24.6172C40.4816 24.6114 40.5452 24.6184 40.6055 24.6376C40.6658 24.6569 40.7217 24.688 40.7697 24.7292C40.8178 24.7705 40.8571 24.8209 40.8854 24.8776C40.9136 24.9342 40.9302 24.996 40.9342 25.0592Z" fill="#161B46"/>
<path d="M41.5752 23.6559C41.5121 23.7226 41.1368 23.449 40.6035 23.456C40.0703 23.463 39.681 23.7331 39.6248 23.67C39.5687 23.6068 39.6564 23.5226 39.8248 23.3963C40.054 23.2354 40.327 23.1485 40.6071 23.1473C40.885 23.1412 41.1572 23.2262 41.3823 23.3893C41.5402 23.5191 41.5963 23.6349 41.5752 23.6559Z" fill="#161B46"/>
<path d="M36.0257 25.0592C36.0277 25.1884 35.9794 25.3133 35.8911 25.4075C35.8027 25.5017 35.6812 25.558 35.5522 25.5643C35.4892 25.5696 35.4258 25.5623 35.3657 25.5429C35.3056 25.5234 35.2499 25.4923 35.2019 25.4511C35.154 25.41 35.1146 25.3598 35.0862 25.3033C35.0578 25.2469 35.0409 25.1854 35.0365 25.1223C35.0336 24.9929 35.0816 24.8675 35.1702 24.7731C35.2587 24.6786 35.3807 24.6227 35.5101 24.6172C35.5731 24.6114 35.6367 24.6184 35.697 24.6376C35.7574 24.6569 35.8132 24.688 35.8613 24.7292C35.9094 24.7705 35.9487 24.8209 35.9769 24.8776C36.0052 24.9342 36.0218 24.996 36.0257 25.0592Z" fill="#161B46"/>
<path d="M36.3315 23.8175C36.2718 23.8841 35.893 23.6105 35.3598 23.6175C34.8266 23.6245 34.4407 23.8946 34.3811 23.8315C34.3214 23.7683 34.4126 23.6842 34.5845 23.5579C34.8124 23.3942 35.0863 23.307 35.3668 23.3088C35.6429 23.3037 35.9134 23.3873 36.1385 23.5474C36.3139 23.6736 36.363 23.7894 36.3315 23.8175Z" fill="#161B46"/>
<path d="M38.3066 27.7499C38.5859 27.6578 38.876 27.6024 39.1695 27.5851C39.3064 27.5851 39.4361 27.5395 39.4572 27.4483C39.467 27.3073 39.4339 27.1667 39.3625 27.0448C39.2292 26.7186 39.0924 26.3748 38.9485 26.0135C38.3732 24.5437 37.9558 23.3369 38.0154 23.3124C38.0751 23.2878 38.5907 24.463 39.1625 25.9328C39.3028 26.2836 39.4326 26.6344 39.5589 26.9852C39.6461 27.1485 39.6734 27.3371 39.6361 27.5184C39.6162 27.5659 39.5861 27.6085 39.5479 27.643C39.5097 27.6776 39.4644 27.7033 39.4151 27.7184C39.3399 27.7405 39.262 27.7523 39.1836 27.7534C38.8922 27.7882 38.5977 27.787 38.3066 27.7499Z" fill="#161B46"/>
<path d="M38.8712 34.0571C37.0114 34.104 35.1741 33.6431 33.5566 32.7241C33.5566 32.7241 34.8897 35.4147 38.8782 35.0183L38.8712 34.0571Z" fill="#6F4439"/>
<path d="M38.0958 29.0378C37.9928 28.911 37.8593 28.8123 37.7078 28.7509C37.5562 28.6896 37.3917 28.6676 37.2294 28.687C37.1121 28.6992 36.9985 28.735 36.8954 28.7923C36.7923 28.8496 36.7018 28.9271 36.6295 29.0203C36.5588 29.1095 36.5174 29.2185 36.5111 29.3322C36.5048 29.4459 36.5339 29.5588 36.5944 29.6552C36.6808 29.7508 36.794 29.818 36.9192 29.848C37.0444 29.8781 37.1758 29.8696 37.296 29.8236C37.5468 29.7316 37.7769 29.5909 37.9731 29.4097C38.0328 29.367 38.084 29.3134 38.1239 29.2518C38.1438 29.2223 38.1544 29.1875 38.1544 29.1518C38.1544 29.1162 38.1438 29.0814 38.1239 29.0519" fill="#6F4439"/>
<path d="M36.7421 28.1353C36.8298 28.1353 36.8368 28.7071 37.335 29.1105C37.8331 29.5139 38.4505 29.4613 38.454 29.528C38.4575 29.5946 38.3207 29.6402 38.0576 29.6508C37.7191 29.6583 37.3888 29.5466 37.1245 29.335C36.8701 29.1334 36.7051 28.8398 36.6649 28.5177C36.6404 28.2756 36.7035 28.1318 36.7421 28.1353Z" fill="#161B46"/>
<path d="M36.4367 22.3128C36.3841 22.4566 35.8509 22.3934 35.2265 22.4776C34.602 22.5618 34.1004 22.7337 34.0162 22.6039C33.9776 22.5443 34.0653 22.4075 34.2653 22.2531C34.5351 22.0765 34.8428 21.9659 35.1633 21.9304C35.4826 21.8875 35.8075 21.9224 36.1105 22.0321C36.342 22.1303 36.4577 22.2531 36.4367 22.3128Z" fill="#161B46"/>
<path d="M41.5336 21.839C41.4389 21.9583 41.0706 21.839 40.6286 21.839C40.1866 21.839 39.8148 21.9302 39.7271 21.804C39.692 21.7443 39.7481 21.6215 39.9095 21.5058C40.1271 21.366 40.3813 21.2941 40.6399 21.2991C40.8984 21.3041 41.1497 21.3858 41.3618 21.5338C41.5196 21.6531 41.5757 21.7794 41.5336 21.839Z" fill="#161B46"/>
<path d="M37.2539 17.8432C37.1841 18.6531 36.8755 19.4241 36.3671 20.0586C35.8588 20.693 35.1737 21.1624 34.3985 21.4072C33.7776 21.5896 32.9953 21.7194 32.7848 22.3298C32.5744 22.9402 33.1356 23.5611 33.4163 24.175C33.5744 24.5565 33.6168 24.9761 33.5383 25.3815C33.4597 25.787 33.2635 26.1604 32.9743 26.4551C32.6235 26.7814 32.199 26.9883 31.8833 27.3356C31.6807 27.5711 31.5336 27.849 31.4528 28.149C31.372 28.4489 31.3597 28.7632 31.4167 29.0685C31.5365 29.682 31.8472 30.2419 32.3043 30.6682C30.845 30.7208 29.2594 29.9455 28.7963 28.5634C28.5297 27.7355 28.6946 26.8375 28.8279 25.9781C29.1252 24.0156 29.2426 22.03 29.1787 20.0461C29.131 19.7103 29.1938 19.368 29.3576 19.0709C29.581 18.8224 29.881 18.6557 30.21 18.5974C32.2817 17.9977 34.3912 17.5371 36.5243 17.2188" fill="#161B46"/>
<path d="M36.4014 17.2643C36.7569 18.0346 37.2303 18.7447 37.8045 19.3691C38.0934 19.6775 38.4492 19.9154 38.8445 20.0644C39.2399 20.2134 39.6642 20.2696 40.0847 20.2286L39.6532 19.4673C40.8066 20.7002 42.2029 21.6808 43.754 22.3473C43.0138 20.881 42.2491 19.3831 41.0389 18.2746C39.8286 17.1661 38.0606 16.5207 36.5136 17.0609" fill="#161B46"/>
<path d="M62.6831 45.4963C62.6831 45.4963 64.0301 43.9213 64.5949 43.8546C65.1597 43.788 65.6964 44.1879 66.3314 44.3212C66.9663 44.4545 69.9691 44.5211 70.0708 44.672C70.1459 44.8027 70.2026 44.9431 70.2392 45.0894C70.2392 45.0894 73.5437 45.2999 73.8769 45.4963C74.075 45.6121 74.2451 45.7702 74.375 45.9594C74.375 45.9594 75.5432 46.026 75.7782 46.3102C75.7782 46.3102 76.5464 46.3768 76.578 46.7767C76.578 46.7767 70.2918 47.6467 69.6323 47.6116C68.6129 47.4537 67.6025 47.243 66.605 46.9802L65.9034 47.2783L65.6964 47.9799L62.6831 45.4963Z" fill="#B8897A"/>
<path d="M70.7969 45.191C70.0371 45.2008 69.2784 45.1279 68.5343 44.9735C67.7797 44.8764 67.0376 44.6988 66.3208 44.4438C67.0737 44.5211 67.8219 44.6382 68.5624 44.7946C69.3137 44.8875 70.0595 45.0198 70.7969 45.191Z" fill="#6F4439"/>
<path d="M74.3646 45.9595C73.5791 46.1392 72.7777 46.2415 71.9722 46.2647C71.1717 46.3514 70.3646 46.3608 69.5623 46.2927C70.3575 46.1785 71.1586 46.1094 71.9617 46.0858C72.7598 46.001 73.562 45.9588 74.3646 45.9595Z" fill="#6F4439"/>
<path d="M75.7358 46.3247C75.7358 46.3247 75.7709 46.3247 75.8025 46.3598C75.8223 46.3935 75.8303 46.4328 75.8253 46.4716C75.8202 46.5104 75.8023 46.5463 75.7744 46.5738C75.6848 46.6439 75.5721 46.6777 75.4587 46.6685L75.0483 46.693C74.4414 46.7246 73.603 46.7527 72.6769 46.7737C71.7508 46.7948 70.9229 46.8053 70.3056 46.8018C69.9764 46.8175 69.6465 46.8034 69.3198 46.7597C69.6439 46.7008 69.9727 46.6715 70.302 46.672C70.9089 46.6404 71.7473 46.6124 72.6734 46.5913C73.5995 46.5703 74.4274 46.5597 75.0448 46.5632H75.4552C75.5489 46.5803 75.6457 46.5641 75.7288 46.5176C75.7484 46.4999 75.7626 46.477 75.7701 46.4516C75.7775 46.4263 75.7778 46.3993 75.7709 46.3738C75.7569 46.3422 75.7323 46.3317 75.7358 46.3247Z" fill="#6F4439"/>
<path d="M24.6049 76.2539C24.6049 76.2539 23.107 82.1929 23.6192 85.55C24.1313 88.907 26.1414 107.534 26.1414 107.534L28.0812 107.625L46.0804 108.457C46.0804 108.457 48.9113 91.759 50.0304 86.89C51.1494 82.021 49.1323 76.2539 49.1323 76.2539L38.8962 71.4551L24.6049 76.2539Z" fill="#737690"/>
<path d="M29.7717 34.4014L28.3194 36.9306L21.6543 39.8387L24.2326 52.1164L28.0352 63.2085L22.5208 81.9619L50.935 84.4841C50.935 84.4841 48.062 66.4674 47.0131 62.8402L46.059 53.3968L45.638 38.1338L39.5167 36.3097L38.7695 35.1907L35.9842 43.4448L29.7717 34.4014Z" fill="#737690"/>
<path d="M13.4842 62.6184C13.4842 62.6184 11.6706 59.9489 12.053 58.0581C12.4353 56.1674 20.0651 41.3639 20.0651 41.3639L21.6401 39.8555L22.3137 41.1569L24.2185 52.1473L18.9987 59.1631L26.0145 65.2038C26.0145 65.5862 23.4783 70.4271 23.4783 70.4271C23.4783 70.4271 13.5789 63.8603 13.4842 62.6184Z" fill="#737690"/>
<path d="M14.2627 60.1037C14.445 59.9391 14.6537 59.8063 14.8801 59.7108C15.9433 59.1769 17.126 58.9257 18.3144 58.9812C18.5596 58.9767 18.8039 59.0134 19.037 59.0899C18.214 59.094 17.3927 59.1655 16.5814 59.3039C15.7875 59.5051 15.0118 59.7727 14.2627 60.1037Z" fill="#161B46"/>
<path d="M19.0371 59.0859C19.0021 59.142 17.9321 58.2755 16.3746 57.6827C15.4264 57.3543 14.4393 57.1514 13.4385 57.0793C13.7319 57.021 14.0327 57.0103 14.3295 57.0478C15.0499 57.0984 15.7591 57.2544 16.4343 57.5108C17.1089 57.7662 17.7497 58.1031 18.3426 58.5141C18.5994 58.6717 18.8331 58.8641 19.0371 59.0859Z" fill="#161B46"/>
<path d="M45.6308 38.1333C46.6442 39.4915 47.5811 40.905 48.4372 42.3674C49.7632 44.6475 53.5868 52.8912 53.5868 52.8912L61.9217 44.9422L66.482 48.3238C66.482 48.3238 56.109 60.8647 54.2042 61.4751C52.2994 62.0855 51.3979 60.9419 51.3979 60.9419L46.1114 53.8909L45.2695 44.195L45.6308 38.1333Z" fill="#737690"/>
<path d="M47.2309 63.6084C47.2161 63.5837 47.2032 63.5579 47.1923 63.5312L47.0941 63.2927C47.0099 63.0822 46.8941 62.7665 46.7433 62.3701C46.3925 61.5773 45.8873 60.4407 45.1752 59.0762C43.772 56.3295 41.6252 52.6461 39.1346 48.6541C36.6439 44.6621 34.2901 41.1085 32.5677 38.5477C31.7083 37.2814 31.0137 36.25 30.5191 35.5239L29.9683 34.696L29.828 34.4785C29.7965 34.4294 29.7824 34.4049 29.7859 34.4014C29.8059 34.4225 29.8246 34.4447 29.8421 34.468L29.9964 34.675L30.5787 35.4818C31.0839 36.1834 31.796 37.2077 32.6835 38.4741C34.4374 41.0173 36.8018 44.5638 39.2994 48.5559C41.7971 52.5479 43.9229 56.2523 45.3015 59.0165C46.0031 60.3916 46.4942 61.5422 46.8204 62.342C46.9748 62.7455 47.08 63.0647 47.1712 63.2787L47.2519 63.5242C47.2494 63.5532 47.2423 63.5816 47.2309 63.6084Z" fill="#161B46"/>
<path d="M21.293 45.2686C21.3386 45.2511 22.4331 47.8294 23.7486 51.0287C25.064 54.2279 26.0673 56.8378 26.0182 56.8589C25.9691 56.8799 24.8816 54.2981 23.5626 51.0988C22.2437 47.8996 21.2474 45.2862 21.293 45.2686Z" fill="#161B46"/>
<path d="M44.9788 41.2197C45.0314 41.2197 45.3506 44.2015 45.6804 47.8848C46.0101 51.5681 46.2627 54.5499 46.2136 54.5709C46.1645 54.592 45.8417 51.5892 45.512 47.9058C45.1822 44.2225 44.9297 41.2232 44.9788 41.2197Z" fill="#161B46"/>
<path d="M50.9281 84.4841C50.8331 84.4998 50.7367 84.5057 50.6405 84.5017C50.451 84.5017 50.1704 84.5017 49.8126 84.5017C49.111 84.5017 48.0586 84.4596 46.7712 84.3614L42.2775 83.993L39.6256 83.765L36.7701 83.5826C32.8587 83.3406 29.3192 83.0248 26.7795 82.632C25.5061 82.446 24.4853 82.2461 23.7802 82.1058L22.9839 81.9234C22.8895 81.9058 22.7967 81.88 22.7068 81.8462C22.8001 81.8534 22.8927 81.8675 22.9839 81.8883L23.7978 82.0356C24.4993 82.1549 25.5272 82.3338 26.8005 82.5057C29.3403 82.8565 32.8763 83.1582 36.7876 83.4002L39.6396 83.5861L42.2951 83.8282L46.7852 84.2421C48.0621 84.3543 49.1005 84.4105 49.8161 84.4385L50.644 84.4666C50.739 84.465 50.834 84.4709 50.9281 84.4841Z" fill="#161B46"/>
<path d="M41.576 46.3247C41.3363 46.5312 41.0766 46.7134 40.8008 46.8684C40.3097 47.1806 39.6186 47.5981 38.8469 48.0366C38.0751 48.4751 37.3595 48.8539 36.8368 49.1135C36.5647 49.2743 36.2752 49.4038 35.9739 49.4994C36.2271 49.3109 36.4958 49.1443 36.7772 49.0013L38.7557 47.8787L40.7341 46.7562C41.0009 46.5867 41.2827 46.4423 41.576 46.3247Z" fill="#161B46"/>
<path d="M42.7615 49.0532C42.5316 49.2347 42.2808 49.3878 42.0143 49.5093C41.5407 49.7653 40.8742 50.1021 40.127 50.4424C39.3798 50.7826 38.6852 51.0633 38.1801 51.2492C37.9132 51.3695 37.6329 51.4578 37.3452 51.5123C37.5937 51.3589 37.857 51.2308 38.131 51.1299L40.0498 50.274L41.9581 49.3935C42.2146 49.255 42.4836 49.1411 42.7615 49.0532Z" fill="#161B46"/>
<g opacity="0.3">
<path opacity="0.3" d="M26.0984 70.3924C26.4015 70.4263 26.7082 70.3855 26.992 70.2736C27.2757 70.1617 27.5277 69.9821 27.7261 69.7505C28.154 69.319 28.4697 68.7858 28.9047 68.3473C29.524 67.8207 30.2135 67.3826 30.9534 67.0459C31.6978 66.7098 32.3378 66.179 32.8056 65.5094C33.223 64.8078 33.244 63.8186 32.6512 63.2643C31.9496 62.5978 30.771 62.8609 29.9185 63.338C28.7292 64.0231 27.7491 65.0193 27.0834 66.2195C26.4178 67.4198 26.0918 68.7788 26.1405 70.1504" fill="#2D3259"/>
</g>
<path d="M25.9201 65.4701L29.1895 61.6114L31.9573 61.208C32.0226 61.3708 32.0226 61.5524 31.9572 61.7152C31.8919 61.8779 31.7662 62.0091 31.6065 62.0815C31.1575 62.3305 29.7403 62.4568 29.7403 62.4568L28.8808 63.4882L30.2033 62.8146L32.7781 62.5656C32.7781 62.5656 32.9956 63.2672 32.4273 63.4882C32.4273 63.4882 32.1783 64.2845 31.7854 64.5405C31.4504 64.7131 31.0865 64.8225 30.712 64.8633C30.712 64.8633 31.0627 65.2562 30.8207 65.5649C30.5787 65.8736 29.3719 66.063 29.3719 66.063L27.5022 67.0101C27.5022 67.0101 26.5586 69.8972 26.0569 69.9673C25.5553 70.0375 24.075 69.2342 24.075 69.2342L25.9201 65.4701Z" fill="#B8897A"/>
<path d="M30.2031 62.8082C30.2557 62.8819 29.6453 63.2537 28.8876 63.6607C28.437 63.9273 27.9681 64.1618 27.4844 64.3622C27.4493 64.3131 28.0317 63.9062 28.7964 63.4993C29.1752 63.2958 29.526 63.1204 29.7786 62.9977C30.0312 62.8749 30.1925 62.8047 30.2031 62.8082Z" fill="#6F4439"/>
<path d="M32.5321 63.5021C32.2858 63.5587 32.0342 63.5893 31.7814 63.5933C31.1854 63.6349 30.603 63.7909 30.066 64.0528C29.4416 64.365 28.9084 64.7544 28.4875 64.9474C28.2735 65.0831 28.0353 65.176 27.7859 65.221C27.9933 65.0798 28.2088 64.951 28.4313 64.8351C28.8277 64.6001 29.3469 64.2142 29.9924 63.888C30.5487 63.6126 31.1607 63.4685 31.7814 63.467C32.0321 63.4454 32.2845 63.4572 32.5321 63.5021Z" fill="#6F4439"/>
<g opacity="0.3">
<path opacity="0.3" d="M50.1246 84.4691C41.8395 86.5612 33.0939 85.8393 25.2639 82.417L50.1246 84.4691Z" fill="#2D3259"/>
</g>
</g>
<defs>
<clipPath id="clip0_3579_62144">
<rect width="67" height="72" fill="white" transform="translate(10 14)"/>
</clipPath>
</defs>
</svg>
