<svg width="156" height="174" viewBox="0 0 156 174" fill="none" xmlns="http://www.w3.org/2000/svg">
<rect width="156" height="174" rx="16" fill="#F4F5FB"/>
<path d="M79.5 112C110.704 112 136 109.538 136 106.5C136 103.462 110.704 101 79.5 101C48.2959 101 23 103.462 23 106.5C23 109.538 48.2959 112 79.5 112Z" fill="#E6E8F3"/>
<path d="M77.5264 26.5595C77.5264 26.5595 67.4119 36.5727 64.3369 46.5397C61.262 56.5068 59.086 59.4757 59.086 59.4757L72.5337 51.5325L79.3751 33.7329L95.5842 35.7844L97.1194 31.0406C97.1194 31.0406 80.0896 26.1769 77.5264 26.5595Z" fill="#B78876"/>
<path d="M95.5842 35.7841L97.4928 36.5494L101.748 40.9843L106.796 43.4876C106.796 43.4876 107.474 43.3447 106.971 42.6301C106.469 41.9156 105.759 40.6293 105.759 40.6293L109.64 40.7215C109.64 40.7215 109.949 39.9378 108.672 39.6197C108.23 39.506 107.8 39.3517 107.386 39.1587L104.694 36.5125C104.694 36.5125 102.324 33.6957 101.536 33.2301C100.748 32.7645 97.1378 31.0449 97.1378 31.0449L95.5842 35.7841Z" fill="#B78876"/>
<path d="M101.43 39.0161C101.624 39.025 101.816 39.0655 101.997 39.136C102.499 39.3035 102.992 39.4989 103.472 39.7215L104.463 40.1825C104.633 40.2664 104.813 40.3298 104.998 40.3715C105.09 40.3749 105.18 40.3541 105.261 40.3112C105.342 40.2683 105.411 40.2048 105.459 40.1272C105.572 39.9536 105.632 39.751 105.632 39.544C105.632 39.337 105.572 39.1344 105.459 38.9608C105.131 38.6157 104.735 38.3412 104.297 38.154C103.745 37.8862 103.175 37.6552 102.592 37.4625H102.55V37.4257L101.955 36.4437C101.769 36.1559 101.553 35.8885 101.31 35.6461C100.891 35.2454 100.427 34.8943 99.927 34.5997C99.0925 34.1018 98.5439 33.8943 98.5439 33.8574C98.6803 33.8843 98.8132 33.926 98.9404 33.9819C99.3007 34.1209 99.6504 34.2858 99.9869 34.4752C100.505 34.7585 100.986 35.1037 101.421 35.5032C101.68 35.7513 101.911 36.0282 102.108 36.3284C102.306 36.6419 102.504 36.9692 102.716 37.3058L102.652 37.2551C103.246 37.4479 103.826 37.6805 104.39 37.9512C104.863 38.1542 105.289 38.4542 105.639 38.8317C105.782 39.0442 105.859 39.2946 105.859 39.5509C105.859 39.8072 105.782 40.0576 105.639 40.2701C105.569 40.3748 105.473 40.4599 105.361 40.5172C105.249 40.5745 105.124 40.6021 104.998 40.5974C104.788 40.5522 104.585 40.4793 104.394 40.3807L103.412 39.9197C102.813 39.6247 102.329 39.4034 101.983 39.2651C101.794 39.194 101.609 39.1109 101.43 39.0161Z" fill="#995037"/>
<path d="M81.6249 57.9358C81.6249 57.9358 83.9299 57.7238 85.5342 58.8025C87.1385 59.8813 96.6999 66.4138 99.2216 66.8564C100.601 67.1369 102.023 67.1369 103.403 66.8564L108.23 52.0303L112.476 53.4732C112.476 53.4732 110.678 70.6182 108.516 72.4162C106.353 74.2141 101.886 75.2283 98.0691 74.9379C94.2519 74.6475 84.8888 68.7419 84.8888 68.7419L79.3567 70.1249V61.8267L81.6249 57.9358Z" fill="#B78876"/>
<path d="M106.492 41.8879C106.492 41.8879 106.27 40.8414 106.953 40.6616C107.128 40.6029 107.315 40.5921 107.496 40.6302C107.677 40.6683 107.844 40.7539 107.981 40.8783C107.981 40.8783 109.101 39.8272 109.64 40.7354C109.964 41.3393 110.093 42.0285 110.009 42.7085C110.009 42.7085 111.309 42.3074 111.475 43.2064C111.641 44.1054 111.475 44.2713 111.475 44.2713C111.475 44.2713 112.572 44.5064 112.771 44.8384C113.018 45.4225 113.229 46.0215 113.402 46.6317C113.402 46.6317 113.37 49.8588 113.402 50.4258C113.435 50.9929 112.48 53.4731 112.48 53.4731L108.234 52.0301C108.234 52.0301 107.534 49.3286 107.469 49.2272C107.405 49.1258 106.45 45.9033 106.464 45.8019C106.478 45.7005 106.639 43.1741 106.639 43.1741L106.492 41.8879Z" fill="#B78876"/>
<path d="M106.459 45.7926C106.431 45.4952 106.431 45.1957 106.459 44.8983C106.459 44.594 106.487 44.2528 106.506 43.8748C106.506 43.6766 106.506 43.4691 106.533 43.2478C106.533 43.1838 106.542 43.1201 106.561 43.0588C106.584 42.9943 106.616 42.9336 106.658 42.879C106.736 42.7763 106.829 42.6862 106.934 42.6116C107.173 42.5067 107.441 42.4904 107.69 42.5656C107.939 42.6408 108.154 42.8027 108.294 43.0219C108.576 43.4773 108.756 43.9886 108.82 44.5202C108.884 44.935 108.914 45.3545 108.907 45.7742C108.903 45.9533 108.948 46.1303 109.037 46.2859C109.135 46.4377 109.251 46.577 109.382 46.7008C109.858 47.1719 110.227 47.7394 110.466 48.365C110.627 48.7845 110.723 49.2259 110.751 49.6743C110.771 49.8374 110.763 50.0025 110.728 50.163C110.663 49.5696 110.523 48.987 110.309 48.4296C110.059 47.8368 109.691 47.3017 109.226 46.8575C109.076 46.7222 108.946 46.5671 108.838 46.3965C108.73 46.2086 108.673 45.9956 108.672 45.7788C108.676 45.3682 108.645 44.9579 108.58 44.5525C108.524 44.0646 108.367 43.5936 108.119 43.1695C108.01 42.9933 107.844 42.8605 107.648 42.794C107.452 42.7275 107.238 42.7315 107.045 42.8053C106.87 42.9436 106.704 43.0911 106.718 43.2663L106.667 43.8933C106.635 44.2667 106.602 44.6078 106.575 44.9121C106.561 45.2083 106.522 45.5028 106.459 45.7926Z" fill="#995037"/>
<path d="M111.148 44.4695C111.146 44.7202 111.076 44.9656 110.945 45.1795C110.82 45.4233 110.665 45.6509 110.484 45.8572C110.369 46.004 110.206 46.1053 110.023 46.143C109.966 46.151 109.908 46.1469 109.852 46.131C109.796 46.1151 109.745 46.0878 109.7 46.0508C109.619 45.9797 109.56 45.887 109.53 45.7834C109.426 45.1939 109.418 44.5913 109.507 43.9993C109.519 43.7528 109.585 43.5119 109.7 43.2939C109.719 43.5353 109.711 43.778 109.677 44.0177C109.642 44.583 109.67 45.1505 109.76 45.7097C109.802 45.8526 109.889 45.9217 109.991 45.9079C110.115 45.8745 110.226 45.8037 110.309 45.705C110.482 45.5178 110.637 45.314 110.77 45.0965C110.883 44.8797 111.009 44.6703 111.148 44.4695Z" fill="#995037"/>
<path d="M112.48 45.3317C112.406 45.5666 112.294 45.7877 112.148 45.9864C112.01 46.2077 111.867 46.4474 111.729 46.6595C111.644 46.8043 111.538 46.9363 111.415 47.0513C111.337 47.124 111.238 47.1717 111.132 47.1881C111.026 47.2045 110.918 47.189 110.821 47.1435C110.733 47.0893 110.659 47.0151 110.605 46.927C110.552 46.8389 110.52 46.7393 110.512 46.6364C110.493 46.4725 110.493 46.307 110.512 46.1431C110.542 45.8711 110.613 45.6052 110.724 45.3548C110.913 44.9307 111.125 44.7278 111.148 44.7463C111.171 44.7647 111.019 44.9998 110.881 45.4193C110.8 45.6613 110.749 45.912 110.728 46.1662C110.728 46.4428 110.692 46.8116 110.917 46.9315C110.974 46.9545 111.036 46.9607 111.095 46.9492C111.155 46.9378 111.21 46.9092 111.254 46.8669C111.361 46.7699 111.455 46.6581 111.531 46.535L111.992 45.8942C112.273 45.5069 112.453 45.2903 112.48 45.3317Z" fill="#995037"/>
<path d="M108.359 43.2341C108.331 43.2941 107.852 42.9944 107.681 42.3582C107.609 42.1791 107.585 41.9846 107.61 41.7932C107.635 41.6019 107.709 41.4202 107.824 41.2656C107.826 41.6116 107.855 41.957 107.912 42.2983C108.055 42.8469 108.405 43.1788 108.359 43.2341Z" fill="#995037"/>
<path d="M85.8108 64.1131C85.8108 64.1593 85.3498 64.1869 84.6352 64.3759C83.7032 64.6242 82.826 65.0448 82.0489 65.616C81.2747 66.1923 80.6136 66.9065 80.0989 67.7229C79.707 68.3545 79.5456 68.7924 79.5042 68.774C79.5111 68.6641 79.5376 68.5564 79.5825 68.4559C79.6811 68.1735 79.8046 67.9005 79.9513 67.6399C80.4415 66.7771 81.1085 66.0275 81.9085 65.4404C82.7085 64.8533 83.6236 64.4419 84.5937 64.233C84.8859 64.1669 85.184 64.1299 85.4835 64.1224C85.5913 64.1015 85.7019 64.0984 85.8108 64.1131Z" fill="#995037"/>
<path d="M106.962 42.8516C106.654 42.4573 106.39 42.0306 106.174 41.5792C105.898 41.1665 105.669 40.7242 105.491 40.2607C106.204 40.9808 106.717 41.8736 106.98 42.8516H106.962Z" fill="#995037"/>
<path d="M109.931 42.7411C109.854 42.4662 109.798 42.1857 109.765 41.9021C109.704 41.6098 109.579 41.3345 109.401 41.0953C109.303 40.9533 109.17 40.8392 109.015 40.764C108.86 40.6889 108.688 40.6553 108.516 40.6666C108.399 40.6733 108.286 40.7089 108.186 40.77C108.086 40.8311 108.003 40.916 107.944 41.0169L107.856 41.1829L107.746 41.0354C107.67 40.9387 107.57 40.8636 107.456 40.8175C107.342 40.7714 107.218 40.7559 107.096 40.7726C107.001 40.7897 106.91 40.8269 106.831 40.8818C106.751 40.9366 106.684 41.0079 106.635 41.0907C106.545 41.2599 106.496 41.4478 106.492 41.6393C106.492 41.6393 106.33 41.4088 106.492 41.0215C106.544 40.9044 106.624 40.8014 106.724 40.7213C106.824 40.6411 106.942 40.586 107.068 40.5605C107.228 40.5327 107.392 40.5474 107.544 40.6033C107.696 40.6591 107.831 40.7541 107.935 40.8786H107.741C107.815 40.7393 107.923 40.6213 108.055 40.5357C108.188 40.4502 108.34 40.4 108.497 40.3899C108.709 40.3756 108.921 40.4176 109.111 40.5115C109.301 40.6054 109.463 40.748 109.581 40.9247C109.774 41.1976 109.896 41.5146 109.936 41.8467C109.999 42.1417 109.997 42.4468 109.931 42.7411Z" fill="#995037"/>
<path d="M104.325 75.9842C104.283 75.9842 102.97 72.7064 102.97 72.7064C102.97 72.7064 100.305 72.4897 99.8716 70.4013C99.4383 68.313 100.015 68.0963 100.794 65.4316C101.573 62.767 101.084 60.3144 101.513 58.6594C101.942 57.0044 104.468 54.6256 105.261 55.5614C106.054 56.4973 104.97 57.0735 105.261 58.4427C105.551 59.8119 106.413 64.9245 106.99 66.9991C107.566 69.0736 109.318 74.3245 109.318 74.3245L104.325 75.9842Z" fill="#B78876"/>
<path d="M104.325 75.9842C104.35 75.9658 104.378 75.9518 104.408 75.9427L104.657 75.8505L105.625 75.5094L109.313 74.2508L109.267 74.343C108.921 73.2735 108.525 72.038 108.091 70.701C107.87 70.028 107.63 69.318 107.405 68.5758C107.179 67.8336 106.893 67.0775 106.708 66.2707C106.326 64.6388 106.003 62.8869 105.662 61.0521C105.491 60.1301 105.316 59.2081 105.136 58.2399C105.108 57.7342 105.193 57.2286 105.385 56.7601C105.465 56.5465 105.484 56.3153 105.441 56.0916C105.413 55.9842 105.366 55.8827 105.302 55.792C105.25 55.6973 105.176 55.6167 105.086 55.5568C104.973 55.5073 104.851 55.4836 104.728 55.4876C104.605 55.4916 104.485 55.5231 104.376 55.5799C104.126 55.686 103.89 55.8239 103.675 55.9902C103.242 56.3199 102.853 56.7042 102.518 57.1335C102.18 57.548 101.912 58.0152 101.725 58.5165C101.576 59.0138 101.494 59.5284 101.481 60.0471C101.43 61.0844 101.453 62.1124 101.361 63.099C101.285 64.0573 101.095 65.003 100.794 65.9158C100.526 66.7917 100.148 67.6031 99.9362 68.3868C99.7759 69.1523 99.8156 69.9462 100.051 70.6918C100.274 71.3349 100.739 71.8658 101.347 72.1717C101.86 72.4422 102.417 72.6172 102.993 72.688H103.03V72.7203C103.809 74.6934 104.177 75.6385 104.33 76.0211C104.17 75.7585 104.037 75.4805 103.933 75.1913C103.693 74.6427 103.348 73.8083 102.914 72.7664L102.97 72.8033C102.374 72.7425 101.796 72.5704 101.264 72.2961C100.618 71.9779 100.122 71.4206 99.8809 70.7425C99.7707 70.368 99.6981 69.9835 99.6642 69.5946C99.6232 69.1795 99.6513 68.7605 99.7472 68.3545C99.9639 67.5293 100.328 66.7364 100.591 65.8604C100.881 64.963 101.065 64.0346 101.139 63.0944C101.222 62.117 101.199 61.1028 101.245 60.0517C101.258 59.5099 101.342 58.9721 101.494 58.452C101.693 57.9306 101.975 57.4449 102.329 57.0136C102.675 56.5668 103.078 56.167 103.527 55.8242C103.758 55.6464 104.011 55.4992 104.279 55.3863C104.422 55.3162 104.58 55.2798 104.74 55.2798C104.9 55.2798 105.057 55.3162 105.201 55.3863C105.321 55.4665 105.421 55.5719 105.496 55.6952C105.572 55.8099 105.63 55.9359 105.667 56.0686C105.717 56.3335 105.696 56.6071 105.607 56.8615C105.425 57.2989 105.343 57.7714 105.367 58.2445C105.542 59.1942 105.713 60.1301 105.883 61.0429C106.22 62.8869 106.533 64.6295 106.911 66.2523C107.086 67.0637 107.372 67.8243 107.589 68.5573C107.806 69.2904 108.05 70.0095 108.257 70.6872C108.682 72.038 109.064 73.2643 109.396 74.3338L109.419 74.403H109.35L105.662 75.597L104.68 75.9059L104.426 75.9796L104.325 75.9842Z" fill="#995037"/>
<path d="M88.5308 25.5083C87.538 24.9969 86.3925 24.8659 85.31 25.1402C84.2274 25.4144 83.2824 26.075 82.6529 26.9974C82.24 27.6494 82.0143 28.4023 82.0005 29.1739C81.9867 29.9455 82.1853 30.7061 82.5745 31.3724C82.8436 31.796 83.1948 32.1615 83.6072 32.4473C84.0197 32.7331 84.4853 32.9335 84.9764 33.0366H84.4693C86.5254 33.8895 89.3882 33.2902 90.361 31.2802C90.812 30.2604 90.875 29.1109 90.5379 28.048C90.2009 26.9851 89.4871 26.0819 88.5308 25.5083Z" fill="#161B46"/>
<path d="M92.6107 34.2166C91.1585 32.5016 89.1163 31.9115 86.885 31.6441C84.6279 31.4317 82.3598 31.9143 80.3847 33.0272C78.1142 34.3336 76.2808 36.2824 75.1153 38.6284C74.6502 39.6365 74.4346 40.7417 74.4868 41.8506C74.5389 42.9596 74.8573 44.0397 75.415 44.9996C77.0516 47.7887 79.8269 49.9647 83.054 50.1353C86.281 50.3059 89.5081 48.7937 91.6702 46.4011C93.2066 44.7627 94.1873 42.6818 94.4732 40.4541C94.6081 39.3464 94.5141 38.2229 94.1969 37.1531C93.8797 36.0833 93.3461 35.0901 92.6292 34.235" fill="#161B46"/>
<path d="M82.9295 35.9134C83.7224 35.4754 84.2388 34.6732 84.9165 34.0693C86.4101 32.7416 88.6506 32.5572 90.5592 33.1473C92.3341 33.7051 93.8324 35.1757 94.9849 37.0152C95.7989 38.2746 96.2401 39.7386 96.2573 41.238C96.2357 42.2312 95.9767 43.2048 95.5019 44.0774C95.0271 44.95 94.3503 45.6963 93.5281 46.2538L86.7375 38.5964C85.5064 38.6525 84.2745 38.5061 83.0909 38.1631C82.7408 38.0617 82.423 37.8711 82.1688 37.6099C82.0432 37.4787 81.9591 37.3133 81.9271 37.1345C81.8951 36.9557 81.9167 36.7715 81.989 36.6049C82.1688 36.2499 82.5837 36.1116 82.9295 35.9134Z" fill="#161B46"/>
<path d="M93.3483 39.2971L85.382 35.0281C85.0482 34.7837 84.6348 34.6732 84.2235 34.7184C83.8122 34.7636 83.4328 34.9613 83.16 35.2724L70.9155 49.9695C70.0728 50.9697 69.5863 52.2216 69.5325 53.5285L69.4772 54.9115C69.442 55.6361 69.5881 56.3581 69.9024 57.012C70.2166 57.6658 70.689 58.231 71.2768 58.6563C71.8645 59.0815 72.5491 59.3535 73.2685 59.4474C73.9879 59.5413 74.7193 59.4543 75.3966 59.1943C75.5595 59.1298 75.7143 59.0462 75.8576 58.9453C75.9913 58.8301 76.1019 58.7748 76.2033 58.6687C76.9364 58.0348 77.6008 57.3255 78.1857 56.5527C79.352 55.3033 79.8222 54.787 79.813 54.8009C79.8038 54.8147 82.8741 56.7832 86.5853 53.8189C88.4293 52.3437 90.928 49.4347 92.8873 46.9913C94.6714 44.7785 95.6211 40.9705 93.3483 39.2971Z" fill="#B78876"/>
<path d="M89.6648 48.9323C89.5617 49.0502 89.4162 49.1226 89.2599 49.1338C89.1037 49.145 88.9493 49.0941 88.8304 48.9922C88.7698 48.945 88.7191 48.8862 88.6814 48.8192C88.6437 48.7523 88.6196 48.6785 88.6106 48.6021C88.6016 48.5258 88.6079 48.4485 88.629 48.3746C88.6501 48.3007 88.6856 48.2317 88.7336 48.1716C88.8388 48.0552 88.9853 47.9843 89.1419 47.974C89.2985 47.9636 89.453 48.0147 89.5726 48.1163C89.6333 48.1631 89.6839 48.2216 89.7215 48.2883C89.7591 48.3551 89.7829 48.4287 89.7915 48.5048C89.8001 48.5809 89.7934 48.658 89.7716 48.7314C89.7498 48.8049 89.7135 48.8732 89.6648 48.9323Z" fill="#161B46"/>
<path d="M90.9464 47.8902C90.8404 47.8902 90.7298 47.3416 90.2503 46.9083C89.7709 46.4749 89.1992 46.3919 89.2038 46.2859C89.2084 46.1799 89.3513 46.1845 89.6095 46.2121C89.9532 46.2553 90.2752 46.4034 90.5315 46.6363C90.7802 46.8638 90.9512 47.1638 91.0202 47.4937C91.0432 47.7427 90.9972 47.8902 90.9464 47.8902Z" fill="#161B46"/>
<path d="M85.3406 45.1338C85.2354 45.2502 85.0889 45.3211 84.9323 45.3314C84.7757 45.3418 84.6212 45.2907 84.5016 45.1891C84.4408 45.1419 84.39 45.083 84.3524 45.0158C84.3147 44.9487 84.2909 44.8747 84.2823 44.7982C84.2737 44.7217 84.2805 44.6443 84.3023 44.5705C84.3242 44.4967 84.3605 44.428 84.4093 44.3685C84.5138 44.2523 84.6595 44.1816 84.8153 44.1712C84.9712 44.1609 85.1249 44.2118 85.2438 44.3132C85.3044 44.3604 85.355 44.4192 85.3928 44.4862C85.4305 44.5531 85.4545 44.6269 85.4635 44.7032C85.4726 44.7796 85.4663 44.8569 85.4452 44.9308C85.4241 45.0047 85.3886 45.0737 85.3406 45.1338Z" fill="#161B46"/>
<path d="M86.3502 43.8104C86.2442 43.8104 86.1335 43.2571 85.6541 42.8238C85.1746 42.3904 84.603 42.3075 84.6076 42.2014C84.6122 42.0954 84.7551 42.1 85.0086 42.1277C85.3529 42.1687 85.6755 42.3171 85.9307 42.5518C86.1811 42.778 86.3524 43.0785 86.4193 43.4093C86.447 43.6582 86.4009 43.8058 86.3502 43.8104Z" fill="#161B46"/>
<path d="M84.6629 48.8263C84.9932 48.9751 85.3031 49.1657 85.5849 49.3934C85.7186 49.4902 85.8569 49.5732 85.9537 49.5086C86.0505 49.4441 86.1335 49.2689 86.2027 49.0707C86.3548 48.6696 86.5208 48.2501 86.6913 47.8121C87.0757 46.718 87.5459 45.6559 88.0974 44.6357C88.1712 44.668 87.6364 46.134 86.9495 47.9181C86.7697 48.3561 86.6038 48.771 86.4424 49.1721C86.3827 49.389 86.2489 49.5782 86.0644 49.7069C86.0076 49.7342 85.9453 49.7484 85.8823 49.7484C85.8192 49.7484 85.757 49.7342 85.7002 49.7069C85.6162 49.664 85.5386 49.6097 85.4697 49.5455C85.1705 49.342 84.8993 49.1002 84.6629 48.8263Z" fill="#161B46"/>
<path d="M79.8269 54.7917C78.1704 53.3266 76.9527 51.4308 76.3094 49.3149C76.3094 49.3149 75.2906 52.7817 79.0755 55.6216L79.8269 54.7917Z" fill="#995037"/>
<path d="M83.4043 49.7945C83.4201 49.5982 83.3862 49.4011 83.3056 49.2214C83.225 49.0417 83.1004 48.8853 82.9433 48.7665C82.8288 48.6797 82.6978 48.6169 82.5584 48.5821C82.4189 48.5472 82.2739 48.541 82.1319 48.5637C81.9958 48.5859 81.8696 48.649 81.77 48.7445C81.6704 48.8399 81.6021 48.9633 81.5741 49.0984C81.573 49.2548 81.6184 49.4081 81.7046 49.5386C81.7908 49.6691 81.9139 49.7711 82.0582 49.8314C82.3577 49.9565 82.6787 50.0223 83.0033 50.0251C83.0917 50.041 83.1822 50.041 83.2706 50.0251C83.3121 50.0139 83.3494 49.991 83.378 49.9591C83.4067 49.9272 83.4254 49.8876 83.432 49.8453" fill="#995037"/>
<path d="M82.9525 47.872C83.0309 47.9365 82.5607 48.4574 82.6667 49.2319C82.7727 50.0064 83.3813 50.4536 83.3213 50.532C83.2614 50.6104 83.1047 50.532 82.8603 50.3107C82.5517 50.0388 82.3492 49.6665 82.2887 49.2596C82.2299 48.8679 82.3276 48.4688 82.5607 48.1486C82.7405 47.9135 82.9018 47.8351 82.9525 47.872Z" fill="#161B46"/>
<path d="M87.7102 42.4367C87.5442 42.5242 87.1247 42.0264 86.4977 41.5838C85.8707 41.1412 85.2806 40.8784 85.3129 40.694C85.3129 40.6064 85.5204 40.5557 85.82 40.5972C86.2067 40.6637 86.5719 40.8217 86.885 41.0582C87.2063 41.2837 87.4674 41.5844 87.6456 41.9342C87.7747 42.1969 87.7885 42.3952 87.7102 42.4367Z" fill="#161B46"/>
<path d="M92.182 46.4197C92.0022 46.452 91.7717 46.0371 91.3798 45.6729C90.988 45.3087 90.5823 45.0782 90.6099 44.8938C90.6099 44.8062 90.7759 44.7462 91.0202 44.7739C91.3293 44.8313 91.6146 44.9788 91.8401 45.1978C92.0657 45.4168 92.2215 45.6975 92.288 46.0048C92.3249 46.2537 92.2696 46.4013 92.182 46.4197Z" fill="#161B46"/>
<path d="M82.5699 33.8064C85.0086 32.3404 90.4301 32.1191 92.4309 34.1383L94.0444 39.1679C93.4239 39.6515 92.6843 39.9585 91.9037 40.0567C91.1231 40.1549 90.3305 40.0405 89.6095 39.7257C88.8442 39.38 88.0789 38.8037 87.263 38.9974C86.447 39.191 85.9721 40.1637 85.1515 40.408C84.0175 40.7492 82.7635 39.5828 81.6893 40.0899C81.2283 40.3112 80.9287 40.8091 80.4585 41.012C79.8269 41.2978 78.1073 40.846 77.7523 40.2559C77.3973 39.6658 78.1304 38.8222 78.3562 38.2367C78.591 37.5603 79.0518 36.9855 79.6609 36.6093C80.7489 35.8302 81.4081 34.5255 82.5699 33.8064Z" fill="#161B46"/>
<path d="M78.8449 41.9803C79.08 41.7221 79.3336 40.8416 79.1169 40.565C78.5314 39.8412 77.2729 38.7763 75.6639 40.4958C73.4926 42.8424 76.3001 44.5389 76.3647 44.479C76.4292 44.419 78.0335 42.8747 78.8449 41.9803Z" fill="#B78876"/>
<path d="M76.4707 42.9209C76.4707 42.9209 76.4062 42.9209 76.3048 42.8794C76.2372 42.8567 76.175 42.8204 76.1219 42.7729C76.0688 42.7253 76.0259 42.6674 75.9959 42.6028C75.9333 42.3665 75.9345 42.1179 75.9993 41.8823C76.0641 41.6466 76.1902 41.4324 76.3647 41.2613C76.5491 41.0624 76.7739 40.9052 77.0239 40.8003C77.1129 40.7463 77.2139 40.7155 77.3178 40.7107C77.4216 40.7059 77.5251 40.7271 77.6186 40.7726C77.6775 40.8024 77.7237 40.8522 77.7491 40.913C77.7744 40.9739 77.7772 41.0418 77.7569 41.1045C77.7293 41.2013 77.6693 41.2336 77.6786 41.252C77.6878 41.2705 77.7662 41.252 77.8353 41.1414C77.8787 41.0729 77.8951 40.9908 77.8814 40.9109C77.859 40.8027 77.7984 40.7062 77.7108 40.6389C77.5961 40.5696 77.4657 40.5307 77.3318 40.5259C77.1979 40.5211 77.0649 40.5504 76.9455 40.6112C76.657 40.7197 76.4002 40.8988 76.1987 41.1322C75.7746 41.6209 75.6086 42.2893 75.8576 42.6996C75.903 42.7774 75.9657 42.8436 76.0408 42.8932C76.116 42.9428 76.2016 42.9743 76.2909 42.9854C76.4154 42.9762 76.4753 42.9347 76.4707 42.9209Z" fill="#995037"/>
<path d="M93.9661 37.8496C93.353 39.0344 93.7909 41.5884 93.8001 42.9207C93.8001 45.4655 93.8739 45.885 90.1121 50.3292C91.9369 49.5014 93.559 48.2852 94.8651 46.7656C95.9359 45.4406 96.4852 43.7698 96.4095 42.0679C96.3597 41.2239 96.1138 40.4031 95.6913 39.6709C95.2687 38.9386 94.6812 38.315 93.9753 37.8496" fill="#161B46"/>
<path d="M81.3528 32.7417C81.4477 32.905 81.5573 33.0593 81.6802 33.2027C81.7908 33.3456 81.9291 33.5162 82.1043 33.7052C82.2795 33.8942 82.4639 34.1201 82.699 34.3414C83.2349 34.8765 83.8096 35.3711 84.4186 35.8212C85.1664 36.3669 85.9574 36.8511 86.7835 37.2688C87.6169 37.6772 88.4818 38.0179 89.3698 38.2877C90.0968 38.4949 90.8379 38.649 91.5873 38.7487C91.9054 38.804 92.2004 38.8178 92.454 38.8409C92.6714 38.8637 92.89 38.8745 93.1086 38.8731C93.2958 38.8889 93.4839 38.8889 93.671 38.8731C93.4876 38.8339 93.3008 38.8123 93.1132 38.8086C92.9334 38.8086 92.7167 38.7809 92.4632 38.7441C92.2096 38.7072 91.9238 38.6887 91.6057 38.6242C90.8668 38.5001 90.1369 38.3276 89.4205 38.1079C88.546 37.8337 87.6937 37.4931 86.8711 37.089C86.0532 36.6748 85.2673 36.2002 84.52 35.6691C83.9138 35.2285 83.3364 34.7496 82.7912 34.2354C82.5515 34.0233 82.3578 33.8066 82.1827 33.6222C82.0213 33.4764 81.8675 33.3226 81.7216 33.1612C81.6097 33.0121 81.4864 32.8718 81.3528 32.7417Z" fill="#737690"/>
<path d="M79.6194 34.2676C79.6801 34.3805 79.7561 34.4845 79.8453 34.5765C80.0645 34.8444 80.2985 35.0998 80.5461 35.3417C82.1927 36.9557 84.2439 38.096 86.4839 38.6426C86.8211 38.7262 87.1628 38.7908 87.5073 38.8362C87.6317 38.8608 87.7587 38.8701 87.8854 38.8639C87.8854 38.8316 87.3552 38.744 86.5023 38.5089C85.4108 38.2037 84.3587 37.7721 83.3675 37.2227C82.3734 36.6704 81.4455 36.0069 80.6014 35.2449C79.9975 34.6687 79.6425 34.2676 79.6194 34.2676Z" fill="#737690"/>
<path d="M78.9509 33.8066C78.8082 33.8896 78.6765 33.9903 78.5591 34.1063C78.2199 34.3943 77.8982 34.7022 77.5956 35.0283C77.139 35.5113 76.7096 36.0192 76.3094 36.5497C75.805 37.1945 75.3635 37.886 74.9909 38.615C74.3372 39.9738 74.1822 41.5192 74.5529 42.9807C74.6716 43.4153 74.837 43.8357 75.0462 44.2347C75.1149 44.385 75.1999 44.5272 75.2997 44.6588C75.2524 44.4999 75.1906 44.3456 75.1153 44.1978C74.9353 43.7935 74.7918 43.3738 74.6866 42.9439C74.5327 42.3076 74.486 41.6501 74.5483 40.9984C74.6128 40.1984 74.8238 39.4171 75.1707 38.6934C75.5364 37.9774 75.9653 37.2955 76.4523 36.6557C76.9133 36.0564 77.3236 35.54 77.697 35.1159C78.0704 34.6918 78.3839 34.3645 78.619 34.1432C78.7389 34.0405 78.8499 33.928 78.9509 33.8066Z" fill="#737690"/>
<path d="M90.2088 32.5341C90.1858 32.5664 89.8354 32.3174 89.213 32.0362C87.5825 31.2915 85.7351 31.1717 84.0221 31.6997C83.3674 31.9025 82.9894 32.1007 82.9709 32.0639C83.2679 31.8292 83.6054 31.6511 83.9667 31.5383C84.8289 31.2235 85.7472 31.0916 86.6632 31.1511C87.5791 31.2107 88.4726 31.4603 89.2868 31.8841C89.631 32.043 89.9434 32.2633 90.2088 32.5341Z" fill="#454E90"/>
<path d="M70.118 51.1912C70.2933 50.7977 70.5096 50.4237 70.7634 50.0756C71.3297 49.1992 71.9454 48.3557 72.6074 47.5492C73.2674 46.7432 73.9707 45.9737 74.7143 45.2442C75.0061 44.9254 75.3306 44.638 75.6824 44.3867C75.4269 44.7325 75.1449 45.0577 74.8387 45.3594C74.2994 45.9449 73.5617 46.7425 72.7919 47.6968C72.022 48.6511 71.3812 49.5408 70.9155 50.1632C70.6803 50.5286 70.4134 50.8725 70.118 51.1912Z" fill="#995037"/>
<path d="M60.6535 91.7554C60.2708 91.7554 35.9617 91.7554 36.8008 101.39C37.4277 108.559 44.8961 108.997 63.6178 108.997L64.8625 102.718L69.0761 101.363L60.6535 91.7554Z" fill="#00ACE9"/>
<path d="M59.2704 91.3175C59.2704 91.3175 65.1068 101.921 70.2286 102.184C73.3515 102.345 76.4335 102.967 79.3751 104.028C79.3751 104.028 110.341 110.514 114.693 108.638C119.045 106.761 119.405 99.6664 117.482 94.8074C115.56 89.9483 110.825 73.8037 110.825 73.8037L103.523 76.2378C103.523 76.2378 104.804 90.1972 105.699 92.8849C106.593 95.5726 107.239 97.6241 107.239 97.6241L89.1301 90.8334L85.2483 86.9287C83.5687 85.2406 81.3533 84.1908 78.9832 83.9598L77.3973 83.8076L74.4515 82.3969L59.2704 91.3175Z" fill="#00ACE9"/>
<g opacity="0.3">
<path opacity="0.3" d="M79.3244 103.377C79.3244 102.815 78.7988 102.419 78.3332 102.105C76.4892 100.837 74.387 99.5096 72.1372 99.7401C71.5845 99.8577 71.0168 99.8889 70.4546 99.8323C69.8967 99.7124 69.3758 99.173 69.5325 98.6291C69.263 99.145 68.8569 99.577 68.3585 99.8779C67.8601 100.179 67.2887 100.337 66.7065 100.335C65.5399 100.316 64.4004 99.9795 63.4103 99.3621C62.3961 98.795 61.4556 98.1035 60.423 97.578C57.9289 96.3148 55.0107 96.0981 52.2354 96.4623C49.4601 96.8265 46.8001 97.7393 44.1585 98.6475C47.1483 97.8942 50.2172 97.4995 53.3003 97.4719C56.9884 97.7716 61.9305 99.86 64.8579 102.718C65.4978 102.597 66.1183 102.389 66.7019 102.1L68.1126 101.667C68.7978 101.886 69.4971 102.059 70.2056 102.183C71.4457 102.409 74.6497 102.668 76.1158 103.059C77.5818 103.451 79.5272 104.078 79.5272 104.078L79.3244 103.377Z" fill="#2D3259"/>
</g>
<path d="M64.6781 102.718L71.0216 103.078C71.0216 103.078 71.8836 101.142 73.5064 102.059C75.1292 102.977 75.3228 104.198 76.2033 104.669C77.0839 105.139 83.16 106.462 83.7501 107.541C84.6721 109.177 82.1872 108.891 82.1872 108.891L63.6177 108.997L64.6781 102.718Z" fill="#B78876"/>
<path d="M43.0659 99.0075C43.136 98.9709 43.2103 98.943 43.2872 98.9245L43.9418 98.7309C44.5089 98.5695 45.3249 98.3483 46.3621 98.1085C47.5703 97.8236 48.794 97.6096 50.0272 97.4677C51.5408 97.2877 53.0711 97.2985 54.582 97.5C56.09 97.7294 57.5611 98.1572 58.957 98.7724C60.0995 99.2607 61.1977 99.8469 62.2393 100.524C62.945 100.976 63.6126 101.485 64.2355 102.046C64.3975 102.199 64.5513 102.36 64.6965 102.53C64.7547 102.585 64.8043 102.649 64.8441 102.719C64.8441 102.719 64.6089 102.488 64.1572 102.115C63.5239 101.583 62.8555 101.095 62.1564 100.653C61.1113 100.004 60.0169 99.4387 58.8832 98.9614C57.4999 98.3671 56.0469 97.9504 54.5589 97.7213C51.3733 97.2833 48.4597 97.8458 46.4082 98.2607C45.3802 98.4773 44.5642 98.6756 43.9741 98.8093L43.3103 98.9568C43.2318 98.986 43.1495 99.0031 43.0659 99.0075Z" fill="#161B46"/>
<path d="M88.9687 90.8337C88.9687 90.8752 88.4478 90.8936 87.641 91.0919C86.5911 91.3504 85.6084 91.83 84.7585 92.4986C83.9087 93.1672 83.2113 94.0094 82.7128 94.969C82.3256 95.702 82.1872 96.2045 82.1458 96.1952C82.146 96.071 82.1678 95.9478 82.2103 95.8311C82.3011 95.5144 82.4183 95.206 82.5607 94.909C83.034 93.9004 83.7365 93.0163 84.6122 92.3274C85.4896 91.642 86.5136 91.1686 87.6041 90.9443C87.9324 90.8793 88.2654 90.8408 88.5999 90.8291C88.7222 90.8094 88.847 90.811 88.9687 90.8337Z" fill="#161B46"/>
<path d="M69.7815 98.5602C69.7806 98.3594 69.7976 98.1588 69.8322 97.9609C69.8737 97.5783 69.9705 97.0389 70.1134 96.3474C70.884 92.8003 72.4352 89.4695 74.6543 86.597C75.0785 86.0484 75.4427 85.6197 75.7101 85.3385C75.8357 85.182 75.9797 85.0412 76.1388 84.9189C76.0357 85.0921 75.9152 85.2543 75.7792 85.403C75.5349 85.6981 75.1937 86.1406 74.788 86.6985C72.6658 89.5992 71.1339 92.8885 70.2793 96.3797C70.1134 97.0481 69.9935 97.5921 69.9244 97.9702C69.9015 98.172 69.8534 98.3703 69.7815 98.5602Z" fill="#161B46"/>
<path d="M110.821 101.667C110.156 101.06 109.528 100.414 108.94 99.7312C108.295 99.1004 107.724 98.3982 107.239 97.6382C107.904 98.2431 108.532 98.8882 109.12 99.5698C109.766 100.201 110.337 100.904 110.821 101.667Z" fill="#161B46"/>
<g opacity="0.3">
<path opacity="0.3" d="M86.4654 91.4008C84.6299 92.3642 83.1694 93.914 82.3163 95.8034C82.2334 95.9878 82.1688 96.2414 82.3163 96.3751C82.3734 96.4132 82.4386 96.4373 82.5067 96.4453C82.5748 96.4533 82.6439 96.4451 82.7082 96.4212C83.4873 96.2276 84.0267 95.536 84.5015 94.8906L87.1523 91.2901C87.0702 91.247 86.977 91.2297 86.8849 91.2404C86.7928 91.2511 86.7061 91.2893 86.636 91.3501" fill="#2D3259"/>
</g>
<path d="M70.3531 51.1499C69.9705 51.1499 59.7499 55.8891 57.9335 58.964C56.1171 62.039 53.5769 67.5434 54.2177 73.177C54.8586 78.8105 59.3396 92.1291 59.5977 91.7465C59.8559 91.3639 74.4515 82.3972 74.4515 82.3972L72.6582 78.4279L79.3751 70.1021L81.6248 57.936L70.3531 51.1499Z" fill="#B78876"/>
<path d="M70.1918 52.0305C69.9751 51.9567 62.8617 57.5027 61.0545 60.2134C59.607 62.3802 61.3588 63.5926 64.4568 63.9291C67.5548 64.2657 71.5518 63.127 72.9624 61.9745C74.3731 60.8219 79.0155 56.364 79.0155 56.364L81.6248 57.936C81.6248 57.936 73.5756 63.8462 73.5064 67.8062C73.5021 68.9744 73.7752 70.1269 74.3034 71.1688C74.8316 72.2108 75.5997 73.1124 76.5445 73.7994L72.6582 78.4095L73.6586 80.6177C73.6586 80.6177 62.078 81.3323 58.2793 78.0914C54.4805 74.8505 54.1302 74.1267 54.1302 74.1267C53.2569 70.8864 53.5089 67.4457 54.8447 64.3671C55.8477 62.2775 57.0195 60.2731 58.3484 58.374C60.4245 55.9628 62.9244 53.9519 65.7246 52.4408C69.219 50.546 70.3347 51.1269 70.3347 51.1269L70.1918 52.0305Z" fill="#D4D9F5"/>
<path d="M65.7522 86.1541C65.4233 85.0779 65.1372 83.9891 64.8948 82.8901C65.2036 83.3719 65.4165 83.9089 65.5217 84.4714C65.7021 85.0132 65.7803 85.5838 65.7522 86.1541Z" fill="#995037"/>
<path d="M66.3054 60.877C66.3469 60.9369 65.4941 61.5131 64.572 62.3706C63.65 63.2281 63.0046 64.0303 62.9493 63.9888C63.7512 62.655 64.915 61.576 66.3054 60.877Z" fill="#995037"/>
<g opacity="0.3">
<path opacity="0.3" d="M60.3123 69.8716H60.2662C60.3088 71.4024 60.8711 72.8732 61.8606 74.042C62.8501 75.2108 64.2079 76.0081 65.7108 76.3027C63.2597 74.8032 61.3644 72.5454 60.3123 69.8716Z" fill="#2D3259"/>
</g>
<path d="M66.4069 76.6481C66.2797 76.6285 66.1567 76.588 66.0427 76.5283C65.7242 76.3979 65.416 76.2438 65.1206 76.0673C64.1274 75.4794 63.2444 74.7228 62.5113 73.8314C61.7841 72.94 61.1737 71.9593 60.6949 70.9132C60.5105 70.5167 60.3722 70.1848 60.2893 69.9543C60.2346 69.8377 60.1988 69.7132 60.1832 69.5854C60.4284 69.9904 60.65 70.409 60.8471 70.8394C61.3633 71.8464 61.9812 72.798 62.6911 73.6792C63.4121 74.5486 64.259 75.3053 65.2036 75.9243C65.9274 76.3854 66.4207 76.6066 66.4069 76.6481Z" fill="#161B46"/>
<path d="M65.6509 132.88L61.9709 139.968V144H60.1469V139.968L56.4509 132.88H58.4829L61.0589 138.336L63.6349 132.88H65.6509ZM70.9224 144.144C70.0904 144.144 69.3384 143.957 68.6664 143.584C67.9944 143.2 67.4664 142.667 67.0824 141.984C66.6984 141.291 66.5064 140.491 66.5064 139.584C66.5064 138.688 66.7038 137.893 67.0984 137.2C67.4931 136.507 68.0318 135.973 68.7144 135.6C69.3971 135.227 70.1598 135.04 71.0024 135.04C71.8451 135.04 72.6078 135.227 73.2904 135.6C73.9731 135.973 74.5118 136.507 74.9064 137.2C75.3011 137.893 75.4984 138.688 75.4984 139.584C75.4984 140.48 75.2958 141.275 74.8904 141.968C74.4851 142.661 73.9304 143.2 73.2264 143.584C72.5331 143.957 71.7651 144.144 70.9224 144.144ZM70.9224 142.56C71.3918 142.56 71.8291 142.448 72.2344 142.224C72.6504 142 72.9864 141.664 73.2424 141.216C73.4984 140.768 73.6264 140.224 73.6264 139.584C73.6264 138.944 73.5038 138.405 73.2584 137.968C73.0131 137.52 72.6878 137.184 72.2824 136.96C71.8771 136.736 71.4398 136.624 70.9704 136.624C70.5011 136.624 70.0638 136.736 69.6584 136.96C69.2638 137.184 68.9491 137.52 68.7144 137.968C68.4798 138.405 68.3624 138.944 68.3624 139.584C68.3624 140.533 68.6024 141.269 69.0824 141.792C69.5731 142.304 70.1864 142.56 70.9224 142.56ZM80.8536 135.04C81.5362 135.04 82.1389 135.179 82.6616 135.456C83.1949 135.723 83.6109 136.059 83.9096 136.464V135.184H85.7496V144.144C85.7496 144.955 85.5789 145.675 85.2376 146.304C84.8962 146.944 84.4002 147.445 83.7496 147.808C83.1096 148.171 82.3416 148.352 81.4456 148.352C80.2509 148.352 79.2589 148.069 78.4696 147.504C77.6802 146.949 77.2322 146.192 77.1256 145.232H78.9336C79.0722 145.691 79.3656 146.059 79.8136 146.336C80.2722 146.624 80.8162 146.768 81.4456 146.768C82.1816 146.768 82.7736 146.544 83.2216 146.096C83.6802 145.648 83.9096 144.997 83.9096 144.144V142.672C83.6002 143.088 83.1789 143.44 82.6456 143.728C82.1229 144.005 81.5256 144.144 80.8536 144.144C80.0856 144.144 79.3816 143.952 78.7416 143.568C78.1122 143.173 77.6109 142.629 77.2376 141.936C76.8749 141.232 76.6936 140.437 76.6936 139.552C76.6936 138.667 76.8749 137.883 77.2376 137.2C77.6109 136.517 78.1122 135.989 78.7416 135.616C79.3816 135.232 80.0856 135.04 80.8536 135.04ZM83.9096 139.584C83.9096 138.976 83.7816 138.448 83.5256 138C83.2802 137.552 82.9549 137.211 82.5496 136.976C82.1442 136.741 81.7069 136.624 81.2376 136.624C80.7682 136.624 80.3309 136.741 79.9256 136.976C79.5202 137.2 79.1896 137.536 78.9336 137.984C78.6882 138.421 78.5656 138.944 78.5656 139.552C78.5656 140.16 78.6882 140.693 78.9336 141.152C79.1896 141.611 79.5202 141.963 79.9256 142.208C80.3416 142.443 80.7789 142.56 81.2376 142.56C81.7069 142.56 82.1442 142.443 82.5496 142.208C82.9549 141.973 83.2802 141.632 83.5256 141.184C83.7816 140.725 83.9096 140.192 83.9096 139.584ZM87.5373 139.552C87.5373 138.667 87.7186 137.883 88.0813 137.2C88.4546 136.517 88.956 135.989 89.5853 135.616C90.2253 135.232 90.9293 135.04 91.6973 135.04C92.3906 135.04 92.9933 135.179 93.5053 135.456C94.028 135.723 94.444 136.059 94.7533 136.464V135.184H96.5933V144H94.7533V142.688C94.444 143.104 94.0226 143.451 93.4893 143.728C92.956 144.005 92.348 144.144 91.6653 144.144C90.908 144.144 90.2146 143.952 89.5853 143.568C88.956 143.173 88.4546 142.629 88.0813 141.936C87.7186 141.232 87.5373 140.437 87.5373 139.552ZM94.7533 139.584C94.7533 138.976 94.6253 138.448 94.3693 138C94.124 137.552 93.7986 137.211 93.3933 136.976C92.988 136.741 92.5506 136.624 92.0813 136.624C91.612 136.624 91.1746 136.741 90.7693 136.976C90.364 137.2 90.0333 137.536 89.7773 137.984C89.532 138.421 89.4093 138.944 89.4093 139.552C89.4093 140.16 89.532 140.693 89.7773 141.152C90.0333 141.611 90.364 141.963 90.7693 142.208C91.1853 142.443 91.6226 142.56 92.0813 142.56C92.5506 142.56 92.988 142.443 93.3933 142.208C93.7986 141.973 94.124 141.632 94.3693 141.184C94.6253 140.725 94.7533 140.192 94.7533 139.584Z" fill="#161B46"/>
</svg>
